M48
;Layer_Color=9474304
;FILE_FORMAT=4:3
METRIC,LZ
;TYPE=PLATED
T01F00S00C0.300
T02F00S00C0.400
T03F00S00C0.711
T04F00S00C0.750
T05F00S00C0.762
T06F00S00C1.100
T07F00S00C1.400
%
T01
X0018745Y0007976
X0019761
X0032334Y0012294
X0037668Y0009728
X0031166Y002761
X0026772Y0038329
X0030023Y0044196
X0030912Y0050241
X0012446Y0041732
X0012421Y003744
X0009347Y0032385
T02
X0045822Y0022428
X0047055Y0021692
X0045345Y0027073
X0042393Y0028219
X0039621Y0026997
X0036906Y0026633
X0033528Y0018161
X0032334Y0017094
X0031471Y0011405
X0020904Y0015062
X0016535Y0017018
X0014834Y0018974
X0013894Y0009703
X0012344Y0029642
X0017348Y0043028
X0023266Y0042951
X0028876Y0047193
X0030099Y0048108
X0017932Y0050902
X0036068Y0037389
X0035952Y0032801
X0049073Y0051841
T03
X0055626Y0016205
X0040462Y000795
X0006706Y0026187
T04
X0008936Y0049073
X0011476
X0014016
X0044648Y0048844
X0047188
X0049728
T05
X0043131Y0010922
X0043236Y0014097
X0043261Y0016967
X0041199Y0021468
X003689Y0021637
X00265Y0019152
Y0016205
Y0013462
X0012573Y0013056
X0014529Y0022479
X0020168Y0028854
X0027076Y0029032
X002319Y0033858
X0024816Y0037795
X0028499Y0036551
X0031674Y004003
X0034519Y0044272
X0037287Y0048946
X0040386Y004666
X0040945Y0032868
X0025348Y0044221
X0022479Y0048946
X002547Y0051873
X0011532Y0053111
X0016358Y0038176
X0012421Y0032188
X0051968Y0033655
X0044729Y0044628
T06
X0043688Y0002413
X0046228
X0048768
X0051308
X0041148
X0038608
X0036068
X0033528
X0030988
X0028448
X0025908
X0023368
X0020828
X0018288
X0015748
X0013208
X0010668
X0008128
T07
X0002692Y0030957
Y0042957
X0055245Y0045446
Y0033446
M30
