%TF.GenerationSoftware,Altium Limited,Altium Designer,24.3.1 (35)*%
G04 Layer_Color=16711935*
%FSLAX43Y43*%
%MOMM*%
%TF.SameCoordinates,9DAA59CA-406A-4E62-98C5-13318CB5E6F2*%
%TF.FilePolarity,Positive*%
%TF.FileFunction,Other,Bottom_Courtyard*%
%TF.Part,Single*%
G01*
G75*
%TA.AperFunction,NonConductor*%
%ADD41C,0.200*%
D41*
X19851Y36399D02*
X21501D01*
Y33299D02*
Y36399D01*
X19851Y33299D02*
X21501D01*
X19851D02*
Y36399D01*
X15228Y33807D02*
X16878D01*
X15228D02*
Y36907D01*
X16878D01*
Y33807D02*
Y36907D01*
X15203Y40739D02*
Y43539D01*
Y40739D02*
X16903D01*
Y43539D01*
X15203D02*
X16903D01*
X29224Y45158D02*
Y47958D01*
Y45158D02*
X30924D01*
Y47958D01*
X29224D02*
X30924D01*
X13222Y33728D02*
X14922D01*
X13222D02*
Y36528D01*
X14922D01*
Y33728D02*
Y36528D01*
X51578Y14680D02*
Y17680D01*
X47178Y14680D02*
X51578D01*
X47178D02*
Y17680D01*
X51578D01*
X23695Y10736D02*
X26902D01*
Y6130D02*
Y10736D01*
X23695Y6130D02*
X26902D01*
X23695D02*
Y10736D01*
X7938Y37617D02*
Y40717D01*
Y37617D02*
X9588D01*
Y40717D01*
X7938D02*
X9588D01*
X6578Y33897D02*
Y35547D01*
X9678D01*
Y33897D02*
Y35547D01*
X6578Y33897D02*
X9678D01*
X21858Y29518D02*
X23558D01*
Y26718D02*
Y29518D01*
X21858Y26718D02*
X23558D01*
X21858D02*
Y29518D01*
X31010Y34505D02*
X33810D01*
X31010Y32805D02*
Y34505D01*
Y32805D02*
X33810D01*
Y34505D01*
X33669Y28140D02*
Y30940D01*
Y28140D02*
X35369D01*
Y30940D01*
X33669D02*
X35369D01*
X36081Y23037D02*
X37731D01*
X36081D02*
Y26137D01*
X37731D01*
Y23037D02*
Y26137D01*
X10871Y19799D02*
X13971D01*
X10871Y18149D02*
Y19799D01*
Y18149D02*
X13971D01*
Y19799D01*
X10871Y17767D02*
X13971D01*
X10871Y16117D02*
Y17767D01*
Y16117D02*
X13971D01*
Y17767D01*
X14704Y6054D02*
Y10660D01*
Y6054D02*
X17910D01*
Y10660D01*
X14704D02*
X17910D01*
X27759Y6003D02*
Y10609D01*
Y6003D02*
X30965D01*
Y10609D01*
X27759D02*
X30965D01*
X47178Y14479D02*
X51578D01*
X47178Y11479D02*
Y14479D01*
Y11479D02*
X51578D01*
Y14479D01*
X24180Y38951D02*
X27280D01*
Y40601D01*
X24180D02*
X27280D01*
X24180Y38951D02*
Y40601D01*
X24016Y26441D02*
Y29541D01*
Y26441D02*
X25666D01*
Y29541D01*
X24016D02*
X25666D01*
X42024Y24510D02*
Y27610D01*
X40374D02*
X42024D01*
X40374Y24510D02*
Y27610D01*
Y24510D02*
X42024D01*
X31560Y27711D02*
Y30811D01*
Y27711D02*
X33210D01*
Y30811D01*
X31560D02*
X33210D01*
X37426Y27685D02*
Y30785D01*
X35776D02*
X37426D01*
X35776Y27685D02*
Y30785D01*
Y27685D02*
X37426D01*
X25997Y32308D02*
Y35408D01*
Y32308D02*
X27647D01*
Y35408D01*
X25997D02*
X27647D01*
X18174Y37439D02*
Y40539D01*
Y37439D02*
X19824D01*
Y40539D01*
X18174D02*
X19824D01*
X18200Y33423D02*
Y36223D01*
Y33423D02*
X19900D01*
Y36223D01*
X18200D02*
X19900D01*
X13374Y37744D02*
Y40844D01*
Y37744D02*
X15024D01*
Y40844D01*
X13374D02*
X15024D01*
X11391Y34188D02*
Y37288D01*
X9741D02*
X11391D01*
X9741Y34188D02*
Y37288D01*
Y34188D02*
X11391D01*
X9767Y37617D02*
Y40717D01*
Y37617D02*
X11417D01*
Y40717D01*
X9767D02*
X11417D01*
X15050Y47038D02*
Y49838D01*
Y47038D02*
X16750D01*
Y49838D01*
X15050D02*
X16750D01*
X17057Y47091D02*
Y50191D01*
Y47091D02*
X18707D01*
Y50191D01*
X17057D02*
X18707D01*
X19063Y47116D02*
Y50216D01*
Y47116D02*
X20713D01*
Y50216D01*
X19063D02*
X20713D01*
X22771Y42570D02*
Y45670D01*
X21121D02*
X22771D01*
X21121Y42570D02*
Y45670D01*
Y42570D02*
X22771D01*
X26669Y43396D02*
X29769D01*
Y45046D01*
X26669D02*
X29769D01*
X26669Y43396D02*
Y45046D01*
X30251D02*
X33351D01*
X30251Y43396D02*
Y45046D01*
Y43396D02*
X33351D01*
Y45046D01*
X35839Y45809D02*
X38939D01*
Y47459D01*
X35839D02*
X38939D01*
X35839Y45809D02*
Y47459D01*
X32842Y49847D02*
X35942D01*
X32842Y48197D02*
Y49847D01*
Y48197D02*
X35942D01*
Y49847D01*
X39011Y48451D02*
X41811D01*
Y50151D01*
X39011D02*
X41811D01*
X39011Y48451D02*
Y50151D01*
X38811Y50508D02*
X41911D01*
Y52158D01*
X38811D02*
X41911D01*
X38811Y50508D02*
Y52158D01*
X30987Y36487D02*
X34087D01*
X30987Y34837D02*
Y36487D01*
Y34837D02*
X34087D01*
Y36487D01*
X10894Y6003D02*
Y10609D01*
Y6003D02*
X14100D01*
Y10609D01*
X10894D02*
X14100D01*
%TF.MD5,c2185d39ddb64599eb8f44ce5dd2d595*%
M02*
