%TF.GenerationSoftware,Altium Limited,Altium Designer,24.3.1 (35)*%
G04 Layer_Color=8388736*
%FSLAX43Y43*%
%MOMM*%
%TF.SameCoordinates,9DAA59CA-406A-4E62-98C5-13318CB5E6F2*%
%TF.FilePolarity,Positive*%
%TF.FileFunction,Other,Top_3D_Body*%
%TF.Part,Single*%
G01*
G75*
%TA.AperFunction,NonConductor*%
%ADD41C,0.200*%
%ADD67C,0.100*%
G36*
X51887Y3185D02*
X52024Y3094D01*
X52115Y2958D01*
X52147Y2797D01*
X52139Y1972D01*
X52147D01*
X52115Y1811D01*
X52024Y1674D01*
X51887Y1583D01*
X51726Y1551D01*
X50901Y1559D01*
Y1551D01*
X50740Y1583D01*
X50604Y1674D01*
X50513Y1811D01*
X50481Y1972D01*
X50489Y2797D01*
X50481D01*
X50513Y2958D01*
X50604Y3094D01*
X50740Y3185D01*
X50901Y3217D01*
Y3209D01*
X51726D01*
Y3217D01*
X51887Y3185D01*
D02*
G37*
D41*
X6240Y35177D02*
Y43677D01*
X14740D01*
Y35177D02*
Y43677D01*
X6240Y35177D02*
X14740D01*
X27931Y45836D02*
X31911D01*
X27931D02*
Y50836D01*
X31911D01*
Y45836D02*
Y50836D01*
X47750Y20750D02*
X56250D01*
Y29250D01*
X47750D02*
X56250D01*
X47750Y20750D02*
Y29250D01*
X3750Y20750D02*
Y29250D01*
X12250D01*
Y20750D02*
Y29250D01*
X3750Y20750D02*
X12250D01*
D67*
X49018Y42325D02*
G03*
X49018Y42325I-250J0D01*
G01*
X45268Y37325D02*
G03*
X52268Y37325I3500J1684D01*
G01*
Y40725D02*
G03*
X45268Y40725I-3500J-1684D01*
G01*
X52268Y37325D02*
Y40725D01*
X45268Y37325D02*
Y40725D01*
X24384Y45796D02*
Y47320D01*
X21336Y45796D02*
Y47320D01*
X24384D01*
X21336Y45796D02*
X24384D01*
X29210Y29499D02*
X30734D01*
X29210Y32547D02*
X30734D01*
Y29499D02*
Y32547D01*
X29210Y29499D02*
Y32547D01*
X37617Y42764D02*
X39141D01*
X37617Y45812D02*
X39141D01*
Y42764D02*
Y45812D01*
X37617Y42764D02*
Y45812D01*
X13208Y-7627D02*
X13528Y-7427D01*
X12888D02*
X13208Y-7627D01*
X13528Y-7427D02*
Y-1627D01*
X12888Y-7427D02*
Y-1627D01*
X15748Y-7627D02*
X16068Y-7427D01*
X15428D02*
X15748Y-7627D01*
X16068Y-7427D02*
Y-1627D01*
X15428Y-7427D02*
Y-1627D01*
X20508Y-7427D02*
Y-1627D01*
X21148Y-7427D02*
Y-1627D01*
X20508Y-7427D02*
X20828Y-7627D01*
X21148Y-7427D01*
X17968D02*
Y-1627D01*
X18608Y-7427D02*
Y-1627D01*
X17968Y-7427D02*
X18288Y-7627D01*
X18608Y-7427D01*
X23368Y-7627D02*
X23688Y-7427D01*
X23048D02*
X23368Y-7627D01*
X23688Y-7427D02*
Y-1627D01*
X23048Y-7427D02*
Y-1627D01*
X25908Y-7627D02*
X26228Y-7427D01*
X25588D02*
X25908Y-7627D01*
X26228Y-7427D02*
Y-1627D01*
X25588Y-7427D02*
Y-1627D01*
X28128Y-7427D02*
Y-1627D01*
X28768Y-7427D02*
Y-1627D01*
X28128Y-7427D02*
X28448Y-7627D01*
X28768Y-7427D01*
X33208D02*
Y-1627D01*
X33848Y-7427D02*
Y-1627D01*
X33208Y-7427D02*
X33528Y-7627D01*
X33848Y-7427D01*
X43368D02*
Y-1627D01*
X44008Y-7427D02*
Y-1627D01*
X43368Y-7427D02*
X43688Y-7627D01*
X44008Y-7427D01*
X51308Y-7627D02*
X51628Y-7427D01*
X50988D02*
X51308Y-7627D01*
X51628Y-7427D02*
Y-1627D01*
X50988Y-7427D02*
Y-1627D01*
X48448Y-7427D02*
Y-1627D01*
X49088Y-7427D02*
Y-1627D01*
X48448Y-7427D02*
X48768Y-7627D01*
X49088Y-7427D01*
X6858Y-1627D02*
Y913D01*
Y-1627D02*
X52578D01*
Y913D01*
X6858D02*
X52578D01*
X46228Y-7627D02*
X46548Y-7427D01*
X45908D02*
X46228Y-7627D01*
X46548Y-7427D02*
Y-1627D01*
X45908Y-7427D02*
Y-1627D01*
X41148Y-7627D02*
X41468Y-7427D01*
X40828D02*
X41148Y-7627D01*
X41468Y-7427D02*
Y-1627D01*
X40828Y-7427D02*
Y-1627D01*
X38288Y-7427D02*
Y-1627D01*
X38928Y-7427D02*
Y-1627D01*
X38288Y-7427D02*
X38608Y-7627D01*
X38928Y-7427D01*
X36068Y-7627D02*
X36388Y-7427D01*
X35748D02*
X36068Y-7627D01*
X36388Y-7427D02*
Y-1627D01*
X35748Y-7427D02*
Y-1627D01*
X30988Y-7627D02*
X31308Y-7427D01*
X30668D02*
X30988Y-7627D01*
X31308Y-7427D02*
Y-1627D01*
X30668Y-7427D02*
Y-1627D01*
X10348Y-7427D02*
Y-1627D01*
X10988Y-7427D02*
Y-1627D01*
X10348Y-7427D02*
X10668Y-7627D01*
X10988Y-7427D01*
X7808D02*
Y-1627D01*
X8448Y-7427D02*
Y-1627D01*
X7808Y-7427D02*
X8128Y-7627D01*
X8448Y-7427D01*
X7808Y2733D02*
X8448D01*
X7808Y913D02*
Y2733D01*
X8448Y913D02*
Y2733D01*
X10348D02*
X10988D01*
Y913D02*
Y2733D01*
X10348Y913D02*
Y2733D01*
X12888D02*
X13528D01*
Y913D02*
Y2733D01*
X12888Y913D02*
Y2733D01*
X15428D02*
X16068D01*
Y913D02*
Y2733D01*
X15428Y913D02*
Y2733D01*
X17968D02*
X18608D01*
Y913D02*
Y2733D01*
X17968Y913D02*
Y2733D01*
X20508D02*
X21148D01*
Y913D02*
Y2733D01*
X20508Y913D02*
Y2733D01*
X23048D02*
X23688D01*
Y913D02*
Y2733D01*
X23048Y913D02*
Y2733D01*
X25588D02*
X26228D01*
Y913D02*
Y2733D01*
X25588Y913D02*
Y2733D01*
X28128D02*
X28768D01*
Y913D02*
Y2733D01*
X28128Y913D02*
Y2733D01*
X30668D02*
X31308D01*
Y913D02*
Y2733D01*
X30668Y913D02*
Y2733D01*
X33208D02*
X33848D01*
Y913D02*
Y2733D01*
X33208Y913D02*
Y2733D01*
X35748D02*
X36388D01*
Y913D02*
Y2733D01*
X35748Y913D02*
Y2733D01*
X38288D02*
X38928D01*
Y913D02*
Y2733D01*
X38288Y913D02*
Y2733D01*
X40828D02*
X41468D01*
Y913D02*
Y2733D01*
X40828Y913D02*
Y2733D01*
X43368D02*
X44008D01*
Y913D02*
Y2733D01*
X43368Y913D02*
Y2733D01*
X45908D02*
X46548D01*
Y913D02*
Y2733D01*
X45908Y913D02*
Y2733D01*
X48448D02*
X49088D01*
Y913D02*
Y2733D01*
X48448Y913D02*
Y2733D01*
X50988D02*
X51628D01*
Y913D02*
Y2733D01*
X50988Y913D02*
Y2733D01*
X23368Y46791D02*
X23485Y46908D01*
X23718D01*
X23835Y46791D01*
Y46325D01*
X23718Y46208D01*
X23485D01*
X23368Y46325D01*
X23135Y46208D02*
X22902D01*
X23019D01*
Y46908D01*
X23135Y46791D01*
X22552Y46325D02*
X22435Y46208D01*
X22202D01*
X22086Y46325D01*
Y46791D01*
X22202Y46908D01*
X22435D01*
X22552Y46791D01*
Y46675D01*
X22435Y46558D01*
X22086D01*
X30205Y30514D02*
X30322Y30398D01*
Y30164D01*
X30205Y30048D01*
X29738D01*
X29622Y30164D01*
Y30398D01*
X29738Y30514D01*
X29622Y30748D02*
Y30981D01*
Y30864D01*
X30322D01*
X30205Y30748D01*
Y31331D02*
X30322Y31447D01*
Y31681D01*
X30205Y31797D01*
X30088D01*
X29972Y31681D01*
X29855Y31797D01*
X29738D01*
X29622Y31681D01*
Y31447D01*
X29738Y31331D01*
X29855D01*
X29972Y31447D01*
X30088Y31331D01*
X30205D01*
X29972Y31447D02*
Y31681D01*
X38612Y43780D02*
X38729Y43663D01*
Y43430D01*
X38612Y43313D01*
X38146D01*
X38029Y43430D01*
Y43663D01*
X38146Y43780D01*
X38029Y44479D02*
Y44013D01*
X38496Y44479D01*
X38612D01*
X38729Y44363D01*
Y44130D01*
X38612Y44013D01*
Y44713D02*
X38729Y44829D01*
Y45063D01*
X38612Y45179D01*
X38146D01*
X38029Y45063D01*
Y44829D01*
X38146Y44713D01*
X38612D01*
%TF.MD5,bd85209c84b089c3604fbe2a867ac1fe*%
M02*
