%TF.GenerationSoftware,Altium Limited,Altium Designer,24.3.1 (35)*%
G04 Layer_Physical_Order=2*
G04 Layer_Color=16711680*
%FSLAX43Y43*%
%MOMM*%
%TF.SameCoordinates,9DAA59CA-406A-4E62-98C5-13318CB5E6F2*%
%TF.FilePolarity,Positive*%
%TF.FileFunction,Copper,L2,Bot,Signal*%
%TF.Part,Single*%
G01*
G75*
%TA.AperFunction,Conductor*%
%ADD18C,0.600*%
%ADD19C,1.000*%
%ADD20C,0.800*%
%ADD21C,0.500*%
%TA.AperFunction,ComponentPad*%
%ADD22O,3.000X3.100*%
%ADD23C,2.286*%
%ADD24C,1.400*%
%ADD25R,1.400X1.400*%
%ADD26C,1.650*%
G04:AMPARAMS|DCode=27|XSize=1.65mm|YSize=1.65mm|CornerRadius=0.413mm|HoleSize=0mm|Usage=FLASHONLY|Rotation=0.000|XOffset=0mm|YOffset=0mm|HoleType=Round|Shape=RoundedRectangle|*
%AMROUNDEDRECTD27*
21,1,1.650,0.825,0,0,0.0*
21,1,0.825,1.650,0,0,0.0*
1,1,0.825,0.413,-0.413*
1,1,0.825,-0.413,-0.413*
1,1,0.825,-0.413,0.413*
1,1,0.825,0.413,0.413*
%
%ADD27ROUNDEDRECTD27*%
%TA.AperFunction,ViaPad*%
%ADD28C,0.800*%
%ADD29C,1.270*%
%TA.AperFunction,SMDPad,CuDef*%
%ADD30R,2.500X2.200*%
%ADD31R,1.450X0.950*%
%ADD32R,1.350X0.950*%
%ADD33R,0.800X1.250*%
%ADD34R,1.250X0.800*%
%ADD35R,1.000X2.800*%
%ADD36R,2.706X1.205*%
%ADD37R,0.950X1.450*%
%ADD38R,0.950X1.350*%
%ADD39R,2.800X1.350*%
%TA.AperFunction,Conductor*%
%ADD40C,0.400*%
G36*
X47909Y49895D02*
Y49638D01*
X47792Y49590D01*
X47774Y49608D01*
X47556Y49733D01*
X47314Y49798D01*
X47063D01*
X47039Y49792D01*
X45627Y51204D01*
X45627Y51204D01*
X44047Y52784D01*
X44096Y52902D01*
X44902D01*
X47909Y49895D01*
D02*
G37*
G36*
X30364Y40541D02*
X30277Y40214D01*
Y39846D01*
X30363Y39526D01*
X30249Y39460D01*
X28212Y41497D01*
X28029Y41619D01*
X28002Y41625D01*
X28014Y41752D01*
X29154D01*
X30364Y40541D01*
D02*
G37*
G36*
X57510Y54563D02*
X58000Y54415D01*
X58452Y54173D01*
X58848Y53848D01*
X59173Y53452D01*
X59415Y53000D01*
X59563Y52510D01*
X59612Y52020D01*
X59612Y52019D01*
X59612Y3126D01*
X59612Y3000D01*
X59602Y2878D01*
X59563Y2490D01*
X59415Y2000D01*
X59173Y1548D01*
X58848Y1152D01*
X58452Y827D01*
X58000Y585D01*
X57510Y437D01*
X57123Y399D01*
X57000Y388D01*
X56873Y388D01*
X3126Y388D01*
X3004Y388D01*
X3000Y388D01*
X2878Y398D01*
X2490Y437D01*
X2000Y585D01*
X1548Y827D01*
X1152Y1152D01*
X827Y1548D01*
X585Y2000D01*
X437Y2490D01*
X399Y2877D01*
X388Y3000D01*
X388Y3126D01*
X388Y3126D01*
X388Y52019D01*
X388Y52020D01*
X437Y52510D01*
X585Y53000D01*
X827Y53452D01*
X1152Y53848D01*
X1548Y54173D01*
X2000Y54415D01*
X2490Y54563D01*
X2991Y54613D01*
X2997Y54612D01*
X11242D01*
X11259Y54485D01*
X10992Y54413D01*
X10674Y54229D01*
X10414Y53969D01*
X10230Y53651D01*
X10135Y53295D01*
Y52927D01*
X10230Y52572D01*
X10414Y52254D01*
X10674Y51994D01*
X10748Y51951D01*
Y51333D01*
Y49694D01*
X10712Y49659D01*
X10587Y49441D01*
X10522Y49198D01*
Y48947D01*
X10587Y48705D01*
X10712Y48487D01*
X10890Y48309D01*
X11108Y48184D01*
X11350Y48119D01*
X11601D01*
X11844Y48184D01*
X12062Y48309D01*
X12239Y48487D01*
X12365Y48705D01*
X12430Y48947D01*
Y49198D01*
X12365Y49441D01*
X12285Y49579D01*
Y50769D01*
X15057D01*
X15336Y50490D01*
Y49917D01*
X14971D01*
Y48544D01*
X14971Y48459D01*
X14971Y48332D01*
Y46959D01*
X16829D01*
X16829Y46959D01*
X16903Y46937D01*
Y46937D01*
X16947Y46937D01*
X17419D01*
Y46169D01*
X17419Y46169D01*
X17454Y45992D01*
X17554Y45842D01*
X19604Y43792D01*
X19604Y43792D01*
X19754Y43692D01*
X19931Y43657D01*
X19931Y43657D01*
X20967D01*
Y42416D01*
X22877D01*
X22896Y42397D01*
X23136Y42297D01*
X23146D01*
X23526Y41917D01*
X23526Y41917D01*
X23710Y41795D01*
X23737Y41789D01*
X23725Y41662D01*
X17780D01*
X17564Y41619D01*
X17381Y41497D01*
X17381Y41497D01*
X16718Y40834D01*
X15178D01*
Y40998D01*
X13220D01*
Y40884D01*
X10592D01*
X10523Y40871D01*
X7784D01*
Y40549D01*
X7667Y40374D01*
X7624Y40157D01*
X7667Y39941D01*
X7784Y39766D01*
Y39413D01*
X11571D01*
Y39755D01*
X13220D01*
Y39540D01*
X13778D01*
X13974Y39501D01*
X14224D01*
X14349Y39526D01*
X14474Y39501D01*
X14670Y39540D01*
X15178D01*
Y39704D01*
X16952D01*
X16952Y39704D01*
X17168Y39747D01*
X17351Y39869D01*
X17893Y40412D01*
X18020Y40359D01*
Y39235D01*
X19978D01*
Y39399D01*
X22413D01*
X23506Y38305D01*
X23419Y37979D01*
Y37611D01*
X23514Y37256D01*
X23698Y36937D01*
X23958Y36677D01*
X24277Y36493D01*
X24632Y36398D01*
X25000D01*
X25326Y36486D01*
X25972Y35840D01*
Y35562D01*
X25843D01*
Y34104D01*
X27801D01*
Y35213D01*
X27911Y35277D01*
X27960Y35249D01*
X28315Y35154D01*
X28683D01*
X29038Y35249D01*
X29357Y35433D01*
X29617Y35693D01*
X29753Y35929D01*
X29897D01*
X30227Y35599D01*
X30227Y35599D01*
X30410Y35476D01*
X30626Y35433D01*
X30626Y35433D01*
X30833D01*
Y34683D01*
X30863D01*
X30931Y34584D01*
X30931Y32726D01*
X30806Y32721D01*
X29317D01*
X28756Y33283D01*
X28572Y33405D01*
X28356Y33448D01*
X28356Y33448D01*
X27801D01*
Y33612D01*
X25843D01*
Y32967D01*
X25344Y32467D01*
X23829D01*
X23795Y32594D01*
X24048Y32740D01*
X24308Y33000D01*
X24492Y33319D01*
X24587Y33674D01*
Y34042D01*
X24492Y34397D01*
X24308Y34716D01*
X24048Y34976D01*
X23729Y35160D01*
X23374Y35255D01*
X23006D01*
X22651Y35160D01*
X22332Y34976D01*
X22072Y34716D01*
X21912Y34439D01*
X21655D01*
Y34603D01*
X20069D01*
X19979Y34693D01*
X19979Y34802D01*
X19979Y34929D01*
Y35095D01*
X21655D01*
Y36553D01*
X19697D01*
Y36302D01*
X19513D01*
Y37285D01*
X19978D01*
Y38743D01*
X19173D01*
X19165Y38749D01*
X18948Y38792D01*
X18732Y38749D01*
X18723Y38743D01*
X18020D01*
Y37285D01*
X18384D01*
Y36302D01*
X18121D01*
Y34929D01*
X18121Y34844D01*
X18119Y34718D01*
X17032D01*
Y35111D01*
X15112D01*
X15060Y35129D01*
X15001Y35207D01*
X15001Y35234D01*
Y35506D01*
X15074Y35603D01*
X17032D01*
Y36952D01*
X17215Y37058D01*
X17475Y37318D01*
X17659Y37637D01*
X17755Y37992D01*
Y38360D01*
X17659Y38715D01*
X17475Y39034D01*
X17215Y39294D01*
X16897Y39478D01*
X16542Y39573D01*
X16174D01*
X15818Y39478D01*
X15500Y39294D01*
X15290Y39084D01*
X15178Y39048D01*
X15178Y39048D01*
Y39048D01*
X15178Y39048D01*
X13220D01*
Y37590D01*
X13511D01*
Y36607D01*
X13143D01*
Y35234D01*
X13143Y35149D01*
X13143Y35022D01*
Y33649D01*
X14948D01*
X15001Y33649D01*
Y33649D01*
X15074Y33653D01*
Y33653D01*
X15555D01*
X15587Y33631D01*
X15803Y33588D01*
X18121D01*
Y33344D01*
X19697D01*
Y33145D01*
X21655D01*
Y33309D01*
X21894D01*
X22072Y33000D01*
X22332Y32740D01*
X22585Y32594D01*
X22551Y32467D01*
X20041D01*
X20041Y32467D01*
X19824Y32424D01*
X19641Y32302D01*
X19641Y32302D01*
X16517Y29178D01*
X16395Y28994D01*
X16352Y28778D01*
X16352Y28778D01*
Y26784D01*
X15133D01*
Y26752D01*
X14402D01*
X14402Y26752D01*
X14402Y26752D01*
X7398D01*
X7209Y26941D01*
X6882Y27076D01*
X6615D01*
X6000Y27691D01*
Y36589D01*
X6863Y37452D01*
X8613D01*
X8613Y37452D01*
X8668Y37463D01*
X9742D01*
Y38921D01*
X7784D01*
Y38582D01*
X6629D01*
X6413Y38539D01*
X6230Y38416D01*
X6230Y38416D01*
X5036Y37222D01*
X4914Y37039D01*
X4871Y36823D01*
X4871Y36823D01*
Y27457D01*
X4871Y27457D01*
X4914Y27241D01*
X5036Y27058D01*
X5817Y26278D01*
Y26011D01*
X5952Y25684D01*
X6202Y25434D01*
X6529Y25298D01*
X6882D01*
X7209Y25434D01*
X7398Y25623D01*
X13964D01*
Y23766D01*
X13671Y23597D01*
X13411Y23337D01*
X13227Y23018D01*
X13132Y22663D01*
Y22295D01*
X13227Y21940D01*
X13411Y21621D01*
X13671Y21361D01*
X13990Y21177D01*
X14345Y21082D01*
X14713D01*
X15068Y21177D01*
X15387Y21361D01*
X15647Y21621D01*
X15831Y21940D01*
X15926Y22295D01*
Y22663D01*
X15831Y23018D01*
X15647Y23337D01*
X15387Y23597D01*
X15094Y23766D01*
Y23965D01*
X15133Y24076D01*
X18141D01*
Y26784D01*
X17481D01*
Y28544D01*
X20275Y31338D01*
X25578D01*
X25578Y31338D01*
X25794Y31381D01*
X25977Y31503D01*
X26618Y32143D01*
X26647D01*
X26647Y32143D01*
X26702Y32154D01*
X27801D01*
Y32318D01*
X28122D01*
X28684Y31757D01*
X28684Y31757D01*
X28867Y31635D01*
X29083Y31592D01*
X29093Y31470D01*
Y31369D01*
X30851D01*
Y31592D01*
X34366D01*
X34366Y31592D01*
X34582Y31635D01*
X34766Y31757D01*
X35245Y32236D01*
X35607D01*
X35822Y32147D01*
X36082D01*
X36323Y32247D01*
X36507Y32431D01*
X36606Y32671D01*
Y32931D01*
X36507Y33171D01*
X36323Y33355D01*
X36082Y33455D01*
X35822D01*
X35607Y33366D01*
X35011D01*
X35011Y33366D01*
X34795Y33323D01*
X34611Y33200D01*
X34611Y33200D01*
X34132Y32721D01*
X32514D01*
X32389Y32726D01*
X32389Y32848D01*
Y34584D01*
X32360D01*
X32291Y34683D01*
Y36641D01*
X30833D01*
X30833Y36641D01*
Y36641D01*
X30729Y36694D01*
X30530Y36893D01*
X30347Y37015D01*
X30131Y37058D01*
X30131Y37058D01*
X29809D01*
X29801Y37090D01*
X29617Y37408D01*
X29357Y37668D01*
X29038Y37852D01*
X28683Y37948D01*
X28315D01*
X27960Y37852D01*
X27641Y37668D01*
X27381Y37408D01*
X27197Y37090D01*
X27102Y36735D01*
Y36454D01*
X26975Y36416D01*
X26936Y36474D01*
X26936Y36474D01*
X26125Y37285D01*
X26213Y37611D01*
Y37979D01*
X26118Y38334D01*
X25934Y38653D01*
X25674Y38913D01*
X25484Y39022D01*
Y40532D01*
X27579D01*
X31122Y36989D01*
X31122Y36989D01*
X31305Y36867D01*
X31521Y36824D01*
X31521Y36824D01*
X35723D01*
X35938Y36735D01*
X36198D01*
X36438Y36834D01*
X36622Y37018D01*
X36722Y37259D01*
Y37519D01*
X36622Y37759D01*
X36438Y37943D01*
X36198Y38043D01*
X35938D01*
X35723Y37954D01*
X31755D01*
X31104Y38605D01*
X31169Y38719D01*
X31490Y38633D01*
X31858D01*
X32213Y38729D01*
X32532Y38913D01*
X32792Y39173D01*
X32976Y39491D01*
X33071Y39846D01*
Y40214D01*
X32976Y40570D01*
X32792Y40888D01*
X32532Y41148D01*
X32213Y41332D01*
X31858Y41427D01*
X31490D01*
X31163Y41340D01*
X29787Y42716D01*
X29604Y42838D01*
X29388Y42881D01*
X29388Y42881D01*
X26074D01*
X26040Y43008D01*
X26205Y43104D01*
X26388Y43287D01*
X26515Y43242D01*
Y43242D01*
X27973D01*
Y45200D01*
X26515D01*
Y45200D01*
X26388Y45156D01*
X26205Y45339D01*
X25887Y45523D01*
X25531Y45618D01*
X25164D01*
X24808Y45523D01*
X24490Y45339D01*
X24230Y45079D01*
X24046Y44761D01*
X23998Y44583D01*
X22925D01*
Y45824D01*
X22514D01*
Y46475D01*
X22527Y46484D01*
X22878Y46835D01*
X22878Y46835D01*
X23001Y47019D01*
X23044Y47235D01*
X23044Y47235D01*
Y47659D01*
X23337Y47828D01*
X23597Y48088D01*
X23781Y48407D01*
X23876Y48762D01*
Y49130D01*
X23781Y49485D01*
X23597Y49804D01*
X23337Y50064D01*
X23018Y50248D01*
X22663Y50343D01*
X22295D01*
X21940Y50248D01*
X21621Y50064D01*
X21361Y49804D01*
X21177Y49485D01*
X21082Y49130D01*
Y48762D01*
X21177Y48407D01*
X21361Y48088D01*
X21621Y47828D01*
X21914Y47659D01*
Y47469D01*
X21883Y47437D01*
X21206D01*
Y45824D01*
X20967D01*
Y44583D01*
X20123D01*
X18344Y46361D01*
Y46937D01*
X18861D01*
Y48395D01*
X16930D01*
X16877Y48428D01*
X16829Y48492D01*
X16829Y48551D01*
X16919Y48641D01*
X17221D01*
X17221Y48641D01*
X17438Y48684D01*
X17621Y48806D01*
X17701Y48887D01*
X18793D01*
X18861Y48887D01*
X18977Y48912D01*
X20867D01*
Y50370D01*
X20453D01*
Y50845D01*
X20884Y51277D01*
X24201D01*
X24352Y51015D01*
X24612Y50755D01*
X24931Y50571D01*
X25286Y50476D01*
X25654D01*
X26009Y50571D01*
X26328Y50755D01*
X26588Y51015D01*
X26739Y51277D01*
X33452D01*
X33452Y51277D01*
X33668Y51320D01*
X33851Y51442D01*
X35311Y52902D01*
X39739D01*
X39788Y52784D01*
X39316Y52312D01*
X38657D01*
Y50354D01*
X38821D01*
Y50028D01*
X38821Y50028D01*
X38864Y49812D01*
X38922Y49725D01*
Y49476D01*
X38922Y49476D01*
X38932Y49422D01*
Y48372D01*
X40390D01*
Y48372D01*
X40432D01*
Y48372D01*
X41092D01*
X41761Y47703D01*
Y47326D01*
X41634Y47292D01*
X41504Y47518D01*
X41244Y47778D01*
X40925Y47962D01*
X40570Y48057D01*
X40202D01*
X39847Y47962D01*
X39528Y47778D01*
X39268Y47518D01*
X39215Y47426D01*
X39093Y47459D01*
Y47613D01*
X38027D01*
X37993Y47740D01*
X38145Y47828D01*
X38405Y48088D01*
X38589Y48407D01*
X38684Y48762D01*
Y49130D01*
X38589Y49485D01*
X38405Y49804D01*
X38145Y50064D01*
X37826Y50248D01*
X37471Y50343D01*
X37103D01*
X36748Y50248D01*
X36429Y50064D01*
X36223Y49857D01*
X36096Y49909D01*
Y50001D01*
X34638D01*
Y49058D01*
X34623Y48984D01*
X34638Y48910D01*
Y48043D01*
X36096D01*
X36096Y48043D01*
X36220Y48037D01*
X36429Y47828D01*
X36581Y47740D01*
X36547Y47613D01*
X35685D01*
Y47199D01*
X34600D01*
X34168Y47631D01*
X33985Y47754D01*
X33769Y47797D01*
X33769Y47797D01*
X31003D01*
Y48037D01*
X30753D01*
Y48238D01*
X30653Y48478D01*
X30469Y48662D01*
X30229Y48762D01*
X29969D01*
X29729Y48662D01*
X29545Y48478D01*
X29445Y48238D01*
Y48037D01*
X29145D01*
Y47927D01*
X29018Y47843D01*
X29007Y47847D01*
X28746D01*
X28506Y47748D01*
X28322Y47564D01*
X28222Y47323D01*
Y47063D01*
X28322Y46823D01*
X28506Y46639D01*
X28746Y46539D01*
X29007D01*
X29129Y46590D01*
X29145Y46579D01*
Y46579D01*
X31003D01*
Y46667D01*
X33535D01*
X33967Y46235D01*
X33967Y46235D01*
X34150Y46113D01*
X34366Y46070D01*
X34366Y46070D01*
X35685D01*
Y45655D01*
X37143D01*
Y47549D01*
X37471D01*
X37534Y47566D01*
X37635Y47488D01*
Y45942D01*
X37500D01*
Y44837D01*
X35806D01*
X35636Y45130D01*
X35376Y45390D01*
X35058Y45574D01*
X34703Y45669D01*
X34335D01*
X33979Y45574D01*
X33661Y45390D01*
X33471Y45200D01*
X32047D01*
Y43242D01*
X33505D01*
X33505Y43242D01*
Y43242D01*
X33616Y43199D01*
X33661Y43154D01*
X33979Y42970D01*
X34335Y42875D01*
X34703D01*
X35058Y42970D01*
X35376Y43154D01*
X35636Y43414D01*
X35806Y43707D01*
X41173D01*
X41173Y43707D01*
X41390Y43750D01*
X41573Y43873D01*
X42725Y45025D01*
X42725Y45025D01*
X42848Y45209D01*
X42891Y45425D01*
X42891Y45425D01*
Y47937D01*
X42891Y47937D01*
X42848Y48153D01*
X42725Y48336D01*
X42725Y48336D01*
X41901Y49160D01*
Y49229D01*
X41901Y49229D01*
X41890Y49283D01*
Y50230D01*
X41890D01*
X41898Y50354D01*
X42065D01*
Y52048D01*
X43186D01*
X44828Y50405D01*
X44828Y50405D01*
X44828Y50405D01*
X45318Y49916D01*
X45269Y49798D01*
X43694D01*
Y47890D01*
X45602D01*
Y49465D01*
X45720Y49514D01*
X46240Y48993D01*
X46234Y48970D01*
Y48719D01*
X46299Y48476D01*
X46425Y48258D01*
X46602Y48081D01*
X46820Y47955D01*
X47063Y47890D01*
X47314D01*
X47556Y47955D01*
X47774Y48081D01*
X47792Y48099D01*
X47909Y48050D01*
Y25315D01*
X45666Y23072D01*
X45451Y22983D01*
X45267Y22799D01*
X45168Y22558D01*
Y22298D01*
X45267Y22058D01*
X45451Y21874D01*
X45692Y21774D01*
X45952D01*
X46192Y21874D01*
X46351Y22033D01*
X46459Y21961D01*
X46401Y21822D01*
Y21562D01*
X46501Y21321D01*
X46685Y21137D01*
X46925Y21038D01*
X47177D01*
X47196Y21017D01*
X47244Y20924D01*
X45176Y18857D01*
X45010Y18608D01*
X44951Y18313D01*
Y10072D01*
X43598Y8719D01*
X40929D01*
X40639Y8839D01*
X40285D01*
X39959Y8704D01*
X39709Y8454D01*
X39573Y8127D01*
Y7773D01*
X39709Y7447D01*
X39959Y7197D01*
X40285Y7061D01*
X40639D01*
X40929Y7181D01*
X43917D01*
X44211Y7240D01*
X44460Y7407D01*
X46264Y9210D01*
X46430Y9459D01*
X46489Y9754D01*
Y17995D01*
X52512Y24018D01*
X52679Y24268D01*
X52737Y24562D01*
Y32486D01*
X52826Y32537D01*
X53071Y32782D01*
X53601D01*
X53713Y32512D01*
X53994Y32145D01*
X54360Y31864D01*
X54787Y31687D01*
X55245Y31627D01*
X55703Y31687D01*
X56130Y31864D01*
X56496Y32145D01*
X56777Y32512D01*
X56954Y32938D01*
X57014Y33396D01*
Y33496D01*
X56954Y33954D01*
X56777Y34381D01*
X56496Y34747D01*
X56130Y35028D01*
X55703Y35205D01*
X55245Y35265D01*
X54787Y35205D01*
X54360Y35028D01*
X53994Y34747D01*
X53713Y34381D01*
X53687Y34319D01*
X53198D01*
X53086Y34513D01*
X52826Y34773D01*
X52508Y34957D01*
X52152Y35052D01*
X51784D01*
X51429Y34957D01*
X51111Y34773D01*
X50963Y34626D01*
X50836Y34678D01*
Y40568D01*
X51382Y41114D01*
X51382Y41114D01*
X51504Y41297D01*
X51547Y41513D01*
Y49932D01*
X51547Y49932D01*
X51504Y50148D01*
X51382Y50331D01*
X51382Y50331D01*
X49716Y51997D01*
X49627Y52212D01*
X49443Y52396D01*
X49203Y52495D01*
X48943D01*
X48702Y52396D01*
X48518Y52212D01*
X48419Y51971D01*
Y51711D01*
X48518Y51471D01*
X48702Y51287D01*
X48918Y51198D01*
X50417Y49698D01*
Y41747D01*
X49872Y41202D01*
X49750Y41019D01*
X49707Y40802D01*
X49707Y40802D01*
Y32952D01*
X49707Y32952D01*
X49750Y32736D01*
X49872Y32553D01*
X50350Y32075D01*
Y25785D01*
X46900Y22335D01*
X46685Y22246D01*
X46526Y22087D01*
X46418Y22159D01*
X46465Y22273D01*
X48874Y24681D01*
X48874Y24681D01*
X48996Y24865D01*
X49039Y25081D01*
X49039Y25081D01*
Y50129D01*
X49039Y50129D01*
X48996Y50345D01*
X48874Y50528D01*
X48874Y50528D01*
X45536Y53866D01*
X45353Y53988D01*
X45136Y54031D01*
X45136Y54031D01*
X35077D01*
X35077Y54031D01*
X34861Y53988D01*
X34677Y53866D01*
X34677Y53866D01*
X33218Y52406D01*
X26773D01*
X26772Y52412D01*
X26588Y52731D01*
X26328Y52991D01*
X26009Y53175D01*
X25654Y53270D01*
X25286D01*
X24931Y53175D01*
X24612Y52991D01*
X24352Y52731D01*
X24168Y52412D01*
X24167Y52406D01*
X20650D01*
X20650Y52406D01*
X20434Y52363D01*
X20251Y52241D01*
X20251Y52241D01*
X19489Y51479D01*
X19366Y51296D01*
X19323Y51079D01*
X19323Y51079D01*
Y50460D01*
X19234Y50370D01*
X18909Y50370D01*
X18793Y50345D01*
X18472D01*
Y50516D01*
X18487Y50531D01*
X18586Y50772D01*
Y51032D01*
X18487Y51272D01*
X18303Y51456D01*
X18062Y51556D01*
X17802D01*
X17562Y51456D01*
X17378Y51272D01*
X17278Y51032D01*
Y50772D01*
X17342Y50618D01*
Y50345D01*
X16903D01*
Y50013D01*
X16829Y49917D01*
X16465D01*
Y50724D01*
X16422Y50940D01*
X16300Y51123D01*
X16300Y51123D01*
X15690Y51733D01*
X15507Y51855D01*
X15291Y51898D01*
X15291Y51898D01*
X12466D01*
X12421Y52025D01*
X12649Y52254D01*
X12833Y52572D01*
X12929Y52927D01*
Y53295D01*
X12833Y53651D01*
X12649Y53969D01*
X12389Y54229D01*
X12071Y54413D01*
X11805Y54485D01*
X11821Y54612D01*
X57000Y54612D01*
X57007Y54613D01*
X57510Y54563D01*
D02*
G37*
%LPC*%
G36*
X57000Y53897D02*
X56509Y53833D01*
X56051Y53643D01*
X55658Y53342D01*
X55357Y52949D01*
X55167Y52491D01*
X55103Y52000D01*
X55167Y51509D01*
X55357Y51051D01*
X55658Y50658D01*
X56051Y50357D01*
X56509Y50167D01*
X57000Y50103D01*
X57491Y50167D01*
X57949Y50357D01*
X58342Y50658D01*
X58643Y51051D01*
X58833Y51509D01*
X58897Y52000D01*
X58833Y52491D01*
X58643Y52949D01*
X58342Y53342D01*
X57949Y53643D01*
X57491Y53833D01*
X57000Y53897D01*
D02*
G37*
G36*
X3000D02*
X2509Y53833D01*
X2051Y53643D01*
X1658Y53342D01*
X1357Y52949D01*
X1167Y52491D01*
X1103Y52000D01*
X1167Y51509D01*
X1357Y51051D01*
X1658Y50658D01*
X2051Y50357D01*
X2509Y50167D01*
X3000Y50103D01*
X3491Y50167D01*
X3949Y50357D01*
X4342Y50658D01*
X4643Y51051D01*
X4833Y51509D01*
X4897Y52000D01*
X4833Y52491D01*
X4643Y52949D01*
X4342Y53342D01*
X3949Y53643D01*
X3491Y53833D01*
X3000Y53897D01*
D02*
G37*
G36*
X9890Y50027D02*
X7982D01*
Y48119D01*
X9890D01*
Y50027D01*
D02*
G37*
G36*
X17478Y43682D02*
X17218D01*
X17013Y43597D01*
X16982Y43618D01*
Y43618D01*
X15124D01*
Y42160D01*
X16982D01*
Y42372D01*
X17109Y42419D01*
X17218Y42374D01*
X17478D01*
X17719Y42473D01*
X17903Y42657D01*
X18002Y42898D01*
Y43158D01*
X17903Y43398D01*
X17719Y43582D01*
X17478Y43682D01*
D02*
G37*
G36*
X44913Y46025D02*
X44545D01*
X44190Y45930D01*
X43872Y45746D01*
X43612Y45486D01*
X43428Y45167D01*
X43332Y44812D01*
Y44444D01*
X43428Y44089D01*
X43612Y43770D01*
X43872Y43510D01*
X44190Y43326D01*
X44545Y43231D01*
X44913D01*
X45269Y43326D01*
X45587Y43510D01*
X45847Y43770D01*
X46031Y44089D01*
X46126Y44444D01*
Y44812D01*
X46031Y45167D01*
X45847Y45486D01*
X45587Y45746D01*
X45269Y45930D01*
X44913Y46025D01*
D02*
G37*
G36*
X2692Y44776D02*
X2235Y44716D01*
X1808Y44539D01*
X1441Y44258D01*
X1160Y43892D01*
X984Y43465D01*
X923Y43007D01*
Y42907D01*
X984Y42449D01*
X1160Y42022D01*
X1441Y41656D01*
X1808Y41375D01*
X2235Y41198D01*
X2692Y41138D01*
X3150Y41198D01*
X3577Y41375D01*
X3943Y41656D01*
X4225Y42022D01*
X4401Y42449D01*
X4462Y42907D01*
Y43007D01*
X4401Y43465D01*
X4225Y43892D01*
X3943Y44258D01*
X3577Y44539D01*
X3150Y44716D01*
X2692Y44776D01*
D02*
G37*
G36*
X9832Y35701D02*
X8374D01*
Y33743D01*
X9832D01*
Y34034D01*
X11545D01*
Y34034D01*
X11672Y34062D01*
X11856Y33878D01*
Y33475D01*
X11563Y33306D01*
X11303Y33046D01*
X11119Y32727D01*
X11024Y32372D01*
Y32004D01*
X11119Y31649D01*
X11303Y31330D01*
X11563Y31070D01*
X11881Y30886D01*
X12237Y30791D01*
X12605D01*
X12960Y30886D01*
X13278Y31070D01*
X13538Y31330D01*
X13722Y31649D01*
X13818Y32004D01*
Y32372D01*
X13722Y32727D01*
X13538Y33046D01*
X13278Y33306D01*
X12985Y33475D01*
Y34112D01*
X12985Y34112D01*
X12942Y34328D01*
X12820Y34512D01*
X12820Y34512D01*
X12204Y35128D01*
X12021Y35250D01*
X11805Y35293D01*
X11805Y35293D01*
X11545D01*
Y35492D01*
X9832D01*
Y35701D01*
D02*
G37*
G36*
X41129Y34265D02*
X40761D01*
X40406Y34169D01*
X40087Y33985D01*
X39827Y33725D01*
X39643Y33407D01*
X39548Y33052D01*
Y32684D01*
X39643Y32328D01*
X39827Y32010D01*
X40087Y31750D01*
X40380Y31581D01*
Y30796D01*
X40359Y30775D01*
X37580D01*
Y30939D01*
X35622D01*
Y30775D01*
X35448D01*
Y31019D01*
X33590D01*
Y30763D01*
X33364D01*
Y30965D01*
X31406D01*
Y29507D01*
X33364D01*
Y29633D01*
X33590D01*
Y29561D01*
X35448D01*
Y29646D01*
X35622D01*
Y29481D01*
X37580D01*
Y29646D01*
X40593D01*
X40593Y29646D01*
X40809Y29689D01*
X40993Y29811D01*
X41344Y30162D01*
X41344Y30162D01*
X41467Y30346D01*
X41510Y30562D01*
X41510Y30562D01*
Y31581D01*
X41803Y31750D01*
X42063Y32010D01*
X42247Y32328D01*
X42342Y32684D01*
Y33052D01*
X42247Y33407D01*
X42063Y33725D01*
X41803Y33985D01*
X41484Y34169D01*
X41129Y34265D01*
D02*
G37*
G36*
X7882Y35701D02*
X6424D01*
Y33743D01*
X6588D01*
Y32598D01*
X6588Y32598D01*
X6631Y32382D01*
X6754Y32199D01*
X9710Y29242D01*
X9710Y29242D01*
X9893Y29120D01*
X10109Y29077D01*
X10109Y29077D01*
X11999D01*
X12214Y28988D01*
X12474D01*
X12715Y29087D01*
X12899Y29271D01*
X12998Y29512D01*
Y29772D01*
X12899Y30012D01*
X12715Y30196D01*
X12474Y30296D01*
X12214D01*
X11999Y30207D01*
X10343D01*
X7718Y32832D01*
Y33743D01*
X7882D01*
Y35701D01*
D02*
G37*
G36*
X20352Y30251D02*
X19984D01*
X19628Y30156D01*
X19310Y29972D01*
X19050Y29712D01*
X18866Y29394D01*
X18771Y29038D01*
Y28670D01*
X18866Y28315D01*
X19050Y27997D01*
X19310Y27737D01*
X19628Y27553D01*
X19984Y27457D01*
X20352D01*
X20707Y27553D01*
X21025Y27737D01*
X21285Y27997D01*
X21458Y28296D01*
X21779D01*
Y28139D01*
X23637D01*
Y29597D01*
X21779D01*
Y29426D01*
X21451D01*
X21285Y29712D01*
X21025Y29972D01*
X20707Y30156D01*
X20352Y30251D01*
D02*
G37*
G36*
X27260Y30429D02*
X26892D01*
X26537Y30334D01*
X26219Y30150D01*
X25959Y29890D01*
X25899Y29787D01*
X25820Y29695D01*
Y29695D01*
X25820Y29695D01*
X23862D01*
Y28237D01*
X25820D01*
X25820Y28237D01*
Y28237D01*
X25940Y28207D01*
X25959Y28174D01*
X26219Y27914D01*
X26537Y27730D01*
X26892Y27635D01*
X27260D01*
X27616Y27730D01*
X27934Y27914D01*
X28194Y28174D01*
X28378Y28493D01*
X28473Y28848D01*
Y29216D01*
X28378Y29571D01*
X28194Y29890D01*
X27934Y30150D01*
X27616Y30334D01*
X27260Y30429D01*
D02*
G37*
G36*
X34241Y36641D02*
X32783D01*
Y34683D01*
X34241D01*
Y35097D01*
X42260D01*
X44781Y32576D01*
Y27419D01*
X44691Y27203D01*
Y26943D01*
X44791Y26703D01*
X44975Y26519D01*
X45215Y26419D01*
X45475D01*
X45716Y26519D01*
X45900Y26703D01*
X45999Y26943D01*
Y27203D01*
X45910Y27419D01*
Y32810D01*
X45910Y32810D01*
X45867Y33027D01*
X45745Y33210D01*
X42894Y36061D01*
X42710Y36183D01*
X42494Y36226D01*
X42494Y36226D01*
X34241D01*
Y36641D01*
D02*
G37*
G36*
X37580Y28989D02*
X35622D01*
Y27531D01*
X37580D01*
Y27696D01*
X39266D01*
X39291Y27569D01*
X39251Y27552D01*
X39067Y27368D01*
X38967Y27127D01*
Y26867D01*
X39067Y26627D01*
X39251Y26443D01*
X39491Y26343D01*
X39751D01*
X39992Y26443D01*
X40019Y26471D01*
X40220D01*
Y26306D01*
X42178D01*
Y27509D01*
X42263Y27565D01*
X42523D01*
X42763Y27665D01*
X42947Y27849D01*
X43047Y28089D01*
Y28349D01*
X42947Y28590D01*
X42763Y28774D01*
X42523Y28873D01*
X42263D01*
X42146Y28825D01*
X37580D01*
Y28989D01*
D02*
G37*
G36*
X37036Y27287D02*
X36776D01*
X36536Y27188D01*
X36352Y27004D01*
X36252Y26763D01*
Y26503D01*
X36296Y26397D01*
X36226Y26291D01*
X35927D01*
Y24833D01*
X37885D01*
Y26291D01*
X37587D01*
X37516Y26397D01*
X37560Y26503D01*
Y26763D01*
X37461Y27004D01*
X37277Y27188D01*
X37036Y27287D01*
D02*
G37*
G36*
X37885Y24341D02*
X35927D01*
Y22883D01*
X36001D01*
X36035Y22756D01*
X36033Y22755D01*
X35773Y22495D01*
X35589Y22176D01*
X35493Y21821D01*
Y21453D01*
X35589Y21098D01*
X35773Y20779D01*
X36033Y20519D01*
X36351Y20335D01*
X36707Y20240D01*
X37074D01*
X37430Y20335D01*
X37748Y20519D01*
X38008Y20779D01*
X38192Y21098D01*
X38287Y21453D01*
Y21821D01*
X38192Y22176D01*
X38008Y22495D01*
X37748Y22755D01*
X37746Y22756D01*
X37780Y22883D01*
X37885D01*
Y24341D01*
D02*
G37*
G36*
X42178Y25814D02*
X40220D01*
Y24356D01*
X40481D01*
Y22667D01*
X40341Y22586D01*
X40081Y22326D01*
X39897Y22007D01*
X39802Y21652D01*
Y21284D01*
X39897Y20929D01*
X40081Y20610D01*
X40341Y20350D01*
X40660Y20166D01*
X41015Y20071D01*
X41383D01*
X41738Y20166D01*
X42057Y20350D01*
X42317Y20610D01*
X42501Y20929D01*
X42596Y21284D01*
Y21652D01*
X42501Y22007D01*
X42317Y22326D01*
X42057Y22586D01*
X42018Y22608D01*
Y24356D01*
X42178D01*
Y25814D01*
D02*
G37*
G36*
X29642Y22612D02*
X29642Y22612D01*
X17907D01*
X17691Y22569D01*
X17508Y22447D01*
X17508Y22447D01*
X14678Y19617D01*
X14488Y19539D01*
X14125D01*
Y19953D01*
X12667D01*
Y17995D01*
X12667D01*
Y17921D01*
X12667D01*
Y15963D01*
X14125D01*
Y16415D01*
X16282D01*
X16405Y16364D01*
X16665D01*
X16906Y16464D01*
X17090Y16648D01*
X17189Y16888D01*
Y17148D01*
X17100Y17363D01*
Y18918D01*
X17202Y19020D01*
X17320Y18971D01*
Y17359D01*
X20628D01*
Y17544D01*
X21130D01*
Y17384D01*
X24438D01*
Y18555D01*
X24469Y18587D01*
X25213D01*
X25382Y18294D01*
X25642Y18034D01*
X25961Y17850D01*
X26316Y17755D01*
X26684D01*
X27039Y17850D01*
X27358Y18034D01*
X27618Y18294D01*
X27802Y18612D01*
X27897Y18968D01*
Y19336D01*
X27802Y19691D01*
X27618Y20009D01*
X27471Y20157D01*
X27523Y20284D01*
X28346D01*
X31691Y16939D01*
X31780Y16724D01*
X31964Y16540D01*
X32204Y16440D01*
X32464D01*
X32705Y16540D01*
X32889Y16724D01*
X32988Y16964D01*
Y17224D01*
X32889Y17465D01*
X32705Y17649D01*
X32489Y17738D01*
X28979Y21248D01*
X28819Y21355D01*
X28833Y21464D01*
X28840Y21482D01*
X29408D01*
X32884Y18006D01*
X32974Y17791D01*
X33158Y17607D01*
X33398Y17507D01*
X33658D01*
X33898Y17607D01*
X34082Y17791D01*
X34182Y18031D01*
Y18291D01*
X34082Y18531D01*
X33898Y18715D01*
X33683Y18805D01*
X30041Y22447D01*
X29858Y22569D01*
X29642Y22612D01*
D02*
G37*
G36*
X26684Y17602D02*
X26316D01*
X25961Y17507D01*
X25642Y17323D01*
X25382Y17063D01*
X25272Y16872D01*
X24601D01*
X24601Y16872D01*
X24346Y16821D01*
X24129Y16677D01*
X24129Y16677D01*
X23495Y16042D01*
X21130D01*
Y15767D01*
X20942D01*
X20942Y15767D01*
X20879Y15755D01*
X20628D01*
Y16017D01*
X17320D01*
Y15755D01*
X9932D01*
X9932Y15755D01*
X9676Y15704D01*
X9460Y15559D01*
X9460Y15559D01*
X7453Y13553D01*
X7309Y13336D01*
X7258Y13081D01*
X7258Y13081D01*
Y5867D01*
X7258Y5867D01*
X7309Y5612D01*
X7453Y5396D01*
X9793Y3056D01*
X9663Y2829D01*
X9589Y2555D01*
Y2271D01*
X9663Y1997D01*
X9805Y1750D01*
X10005Y1550D01*
X10252Y1408D01*
X10526Y1334D01*
X10810D01*
X11084Y1408D01*
X11331Y1550D01*
X11531Y1750D01*
X11673Y1997D01*
X11747Y2271D01*
Y2555D01*
X11673Y2829D01*
X11531Y3076D01*
X11331Y3276D01*
X11154Y3378D01*
X11121Y3542D01*
X10977Y3758D01*
X10977Y3758D01*
X8592Y6144D01*
Y12805D01*
X10208Y14421D01*
X11890D01*
X11924Y14294D01*
X11715Y14173D01*
X11455Y13913D01*
X11404Y13824D01*
X10617D01*
X10323Y13766D01*
X10074Y13599D01*
X9108Y12634D01*
X8942Y12385D01*
X8883Y12090D01*
Y7950D01*
X8942Y7656D01*
X9108Y7407D01*
X10101Y6414D01*
X10350Y6247D01*
X10645Y6189D01*
X10890D01*
Y5999D01*
X12439D01*
Y3170D01*
X12345Y3076D01*
X12203Y2829D01*
X12129Y2555D01*
Y2271D01*
X12203Y1997D01*
X12345Y1750D01*
X12545Y1550D01*
X12792Y1408D01*
X13066Y1334D01*
X13350D01*
X13624Y1408D01*
X13871Y1550D01*
X14071Y1750D01*
X14213Y1997D01*
X14287Y2271D01*
Y2555D01*
X14213Y2829D01*
X14071Y3076D01*
X13977Y3170D01*
Y5999D01*
X14104D01*
Y7712D01*
X12469D01*
X12394Y7726D01*
X10963D01*
X10421Y8269D01*
Y11772D01*
X10936Y12287D01*
X11404D01*
X11455Y12198D01*
X11715Y11938D01*
X12034Y11754D01*
X12389Y11659D01*
X12757D01*
X13112Y11754D01*
X13431Y11938D01*
X13691Y12198D01*
X13875Y12516D01*
X13970Y12872D01*
Y13240D01*
X13875Y13595D01*
X13691Y13913D01*
X13431Y14173D01*
X13222Y14294D01*
X13256Y14421D01*
X17320D01*
Y14159D01*
X20628D01*
Y14370D01*
X20755Y14416D01*
X20774Y14408D01*
X20840D01*
X20904Y14395D01*
X20969Y14408D01*
X21034D01*
X21130Y14320D01*
Y14184D01*
X22434D01*
X22472Y14057D01*
X22287Y13934D01*
X22287Y13934D01*
X18827Y10474D01*
X17914D01*
Y10664D01*
X14700D01*
Y10082D01*
X14573Y10044D01*
X14437Y10246D01*
X14188Y10413D01*
X14104Y10430D01*
Y10613D01*
X10890D01*
Y8900D01*
X14104D01*
Y8976D01*
X14188Y8993D01*
X14437Y9159D01*
X14573Y9362D01*
X14700Y9323D01*
Y8951D01*
X17914D01*
Y9140D01*
X19104D01*
X19104Y9140D01*
X19359Y9191D01*
X19575Y9336D01*
X23035Y12795D01*
X25272D01*
X25382Y12604D01*
X25642Y12344D01*
X25961Y12160D01*
X26316Y12065D01*
X26684D01*
X27039Y12160D01*
X27358Y12344D01*
X27618Y12604D01*
X27802Y12923D01*
X27897Y13278D01*
Y13646D01*
X27802Y14001D01*
X27618Y14320D01*
X27358Y14580D01*
X27039Y14764D01*
X27016Y14770D01*
Y14897D01*
X27039Y14903D01*
X27358Y15087D01*
X27618Y15347D01*
X27802Y15666D01*
X27897Y16021D01*
Y16389D01*
X27802Y16744D01*
X27618Y17063D01*
X27358Y17323D01*
X27039Y17507D01*
X26684Y17602D01*
D02*
G37*
G36*
X43445Y18364D02*
X43077D01*
X42722Y18269D01*
X42403Y18085D01*
X42143Y17825D01*
X41959Y17506D01*
X41914Y17338D01*
X41849Y17325D01*
X41666Y17203D01*
X41666Y17203D01*
X41063Y16601D01*
X38554D01*
Y16084D01*
X38001D01*
Y16601D01*
X34693D01*
Y14764D01*
X34392D01*
X34392Y14764D01*
X34136Y14713D01*
X33920Y14569D01*
X33920Y14568D01*
X33336Y13984D01*
X33191Y13768D01*
X33141Y13513D01*
X33141Y13513D01*
Y11020D01*
X32594Y10474D01*
X30969D01*
Y10611D01*
X30969Y10613D01*
X30975Y10738D01*
X31471D01*
X31535Y10751D01*
X31601D01*
X31661Y10776D01*
X31726Y10789D01*
X31780Y10825D01*
X31841Y10850D01*
X31888Y10897D01*
X31942Y10933D01*
X31979Y10988D01*
X32025Y11034D01*
X32050Y11095D01*
X32087Y11149D01*
X32099Y11214D01*
X32125Y11275D01*
Y11340D01*
X32137Y11405D01*
X32125Y11469D01*
Y11535D01*
X32099Y11595D01*
X32087Y11660D01*
X32050Y11714D01*
X32025Y11775D01*
X31979Y11821D01*
X31942Y11876D01*
X31888Y11913D01*
X31841Y11959D01*
X31780Y11984D01*
X31726Y12021D01*
X31661Y12033D01*
X31601Y12059D01*
X31535D01*
X31471Y12071D01*
X27570D01*
X27570Y12071D01*
X27315Y12021D01*
X27099Y11876D01*
X27099Y11876D01*
X25962Y10740D01*
X23691D01*
Y9027D01*
X26906D01*
Y9797D01*
X27628Y10520D01*
X27755Y10467D01*
Y8972D01*
X27755Y8900D01*
X27651Y8845D01*
X23139D01*
X22923Y8802D01*
X22740Y8680D01*
X22740Y8680D01*
X20429Y6368D01*
X20306Y6185D01*
X20263Y5969D01*
X20263Y5969D01*
Y3333D01*
X20165Y3276D01*
X19965Y3076D01*
X19823Y2829D01*
X19749Y2555D01*
Y2271D01*
X19823Y1997D01*
X19965Y1750D01*
X20165Y1550D01*
X20412Y1408D01*
X20686Y1334D01*
X20970D01*
X21244Y1408D01*
X21491Y1550D01*
X21691Y1750D01*
X21833Y1997D01*
X21907Y2271D01*
Y2555D01*
X21833Y2829D01*
X21691Y3076D01*
X21491Y3276D01*
X21393Y3333D01*
Y5735D01*
X23373Y7716D01*
X23691D01*
Y7189D01*
X23652Y7162D01*
X22824Y6335D01*
X22658Y6085D01*
X22599Y5791D01*
Y3170D01*
X22505Y3076D01*
X22363Y2829D01*
X22289Y2555D01*
Y2271D01*
X22363Y1997D01*
X22505Y1750D01*
X22705Y1550D01*
X22952Y1408D01*
X23226Y1334D01*
X23510D01*
X23784Y1408D01*
X24031Y1550D01*
X24231Y1750D01*
X24373Y1997D01*
X24447Y2271D01*
Y2555D01*
X24373Y2829D01*
X24231Y3076D01*
X24137Y3170D01*
Y5473D01*
X24739Y6075D01*
X24773Y6126D01*
X26666D01*
X26714Y6008D01*
X25285Y4579D01*
X25118Y4329D01*
X25059Y4035D01*
Y3090D01*
X25045Y3076D01*
X24903Y2829D01*
X24829Y2555D01*
Y2271D01*
X24903Y1997D01*
X25045Y1750D01*
X25245Y1550D01*
X25492Y1408D01*
X25766Y1334D01*
X26050D01*
X26324Y1408D01*
X26571Y1550D01*
X26771Y1750D01*
X26913Y1997D01*
X26987Y2271D01*
Y2555D01*
X26913Y2829D01*
X26771Y3076D01*
X26597Y3250D01*
Y3716D01*
X28879Y5999D01*
X30969D01*
Y7712D01*
X31095Y7716D01*
X33757D01*
X33757Y7716D01*
X33973Y7759D01*
X34156Y7881D01*
X36645Y10370D01*
X41837D01*
X42013Y10064D01*
X42273Y9804D01*
X42592Y9620D01*
X42947Y9525D01*
X43315D01*
X43670Y9620D01*
X43989Y9804D01*
X44249Y10064D01*
X44433Y10383D01*
X44528Y10738D01*
Y11106D01*
X44433Y11461D01*
X44249Y11780D01*
X43989Y12040D01*
X43670Y12224D01*
X43315Y12319D01*
X42947D01*
X42921Y12312D01*
X42556Y12677D01*
X42373Y12800D01*
X42157Y12843D01*
X42157Y12843D01*
X41862D01*
X41862Y13401D01*
X41977Y13430D01*
X42008D01*
X42118Y13239D01*
X42378Y12979D01*
X42697Y12795D01*
X43052Y12700D01*
X43420D01*
X43775Y12795D01*
X44094Y12979D01*
X44354Y13239D01*
X44538Y13558D01*
X44633Y13913D01*
Y14281D01*
X44538Y14636D01*
X44354Y14955D01*
X44094Y15215D01*
X43775Y15399D01*
X43536Y15463D01*
Y15594D01*
X43800Y15665D01*
X44119Y15849D01*
X44379Y16109D01*
X44563Y16428D01*
X44658Y16783D01*
Y17151D01*
X44563Y17506D01*
X44379Y17825D01*
X44119Y18085D01*
X43800Y18269D01*
X43445Y18364D01*
D02*
G37*
G36*
X51732Y17834D02*
X50224D01*
Y16267D01*
X50209Y16192D01*
Y12979D01*
X50224Y12905D01*
Y11325D01*
X51732D01*
Y12905D01*
X51746Y12979D01*
Y15424D01*
X55190D01*
X55449Y15316D01*
X55803D01*
X56130Y15452D01*
X56380Y15702D01*
X56515Y16028D01*
Y16382D01*
X56380Y16709D01*
X56130Y16959D01*
X55803Y17094D01*
X55449D01*
X55128Y16961D01*
X51732D01*
Y17834D01*
D02*
G37*
G36*
X48910Y3492D02*
X48626D01*
X48352Y3418D01*
X48105Y3276D01*
X47905Y3076D01*
X47763Y2829D01*
X47689Y2555D01*
Y2271D01*
X47763Y1997D01*
X47905Y1750D01*
X48105Y1550D01*
X48352Y1408D01*
X48626Y1334D01*
X48910D01*
X49184Y1408D01*
X49431Y1550D01*
X49631Y1750D01*
X49773Y1997D01*
X49847Y2271D01*
Y2555D01*
X49773Y2829D01*
X49631Y3076D01*
X49431Y3276D01*
X49184Y3418D01*
X48910Y3492D01*
D02*
G37*
G36*
X46370D02*
X46086D01*
X45812Y3418D01*
X45565Y3276D01*
X45365Y3076D01*
X45223Y2829D01*
X45149Y2555D01*
Y2271D01*
X45223Y1997D01*
X45365Y1750D01*
X45565Y1550D01*
X45812Y1408D01*
X46086Y1334D01*
X46370D01*
X46644Y1408D01*
X46891Y1550D01*
X47091Y1750D01*
X47233Y1997D01*
X47307Y2271D01*
Y2555D01*
X47233Y2829D01*
X47091Y3076D01*
X46891Y3276D01*
X46644Y3418D01*
X46370Y3492D01*
D02*
G37*
G36*
X41290D02*
X41006D01*
X40732Y3418D01*
X40485Y3276D01*
X40285Y3076D01*
X40143Y2829D01*
X40069Y2555D01*
Y2271D01*
X40143Y1997D01*
X40285Y1750D01*
X40485Y1550D01*
X40732Y1408D01*
X41006Y1334D01*
X41290D01*
X41564Y1408D01*
X41811Y1550D01*
X42011Y1750D01*
X42153Y1997D01*
X42227Y2271D01*
Y2555D01*
X42153Y2829D01*
X42011Y3076D01*
X41811Y3276D01*
X41564Y3418D01*
X41290Y3492D01*
D02*
G37*
G36*
X38750D02*
X38466D01*
X38192Y3418D01*
X37945Y3276D01*
X37745Y3076D01*
X37603Y2829D01*
X37529Y2555D01*
Y2271D01*
X37603Y1997D01*
X37745Y1750D01*
X37945Y1550D01*
X38192Y1408D01*
X38466Y1334D01*
X38750D01*
X39024Y1408D01*
X39271Y1550D01*
X39471Y1750D01*
X39613Y1997D01*
X39687Y2271D01*
Y2555D01*
X39613Y2829D01*
X39471Y3076D01*
X39271Y3276D01*
X39024Y3418D01*
X38750Y3492D01*
D02*
G37*
G36*
X36210D02*
X35926D01*
X35652Y3418D01*
X35405Y3276D01*
X35205Y3076D01*
X35063Y2829D01*
X34989Y2555D01*
Y2271D01*
X35063Y1997D01*
X35205Y1750D01*
X35405Y1550D01*
X35652Y1408D01*
X35926Y1334D01*
X36210D01*
X36484Y1408D01*
X36731Y1550D01*
X36931Y1750D01*
X37073Y1997D01*
X37147Y2271D01*
Y2555D01*
X37073Y2829D01*
X36931Y3076D01*
X36731Y3276D01*
X36484Y3418D01*
X36210Y3492D01*
D02*
G37*
G36*
X31130D02*
X30846D01*
X30572Y3418D01*
X30325Y3276D01*
X30125Y3076D01*
X29983Y2829D01*
X29909Y2555D01*
Y2271D01*
X29983Y1997D01*
X30125Y1750D01*
X30325Y1550D01*
X30572Y1408D01*
X30846Y1334D01*
X31130D01*
X31404Y1408D01*
X31651Y1550D01*
X31851Y1750D01*
X31993Y1997D01*
X32067Y2271D01*
Y2555D01*
X31993Y2829D01*
X31851Y3076D01*
X31651Y3276D01*
X31404Y3418D01*
X31130Y3492D01*
D02*
G37*
G36*
X28590D02*
X28306D01*
X28032Y3418D01*
X27785Y3276D01*
X27585Y3076D01*
X27443Y2829D01*
X27369Y2555D01*
Y2271D01*
X27443Y1997D01*
X27585Y1750D01*
X27785Y1550D01*
X28032Y1408D01*
X28306Y1334D01*
X28590D01*
X28864Y1408D01*
X29111Y1550D01*
X29311Y1750D01*
X29453Y1997D01*
X29527Y2271D01*
Y2555D01*
X29453Y2829D01*
X29311Y3076D01*
X29111Y3276D01*
X28864Y3418D01*
X28590Y3492D01*
D02*
G37*
G36*
X17914Y7762D02*
X14700D01*
Y6049D01*
X15104D01*
Y3287D01*
X15085Y3276D01*
X14885Y3076D01*
X14743Y2829D01*
X14669Y2555D01*
Y2271D01*
X14743Y1997D01*
X14885Y1750D01*
X15085Y1550D01*
X15332Y1408D01*
X15606Y1334D01*
X15890D01*
X16164Y1408D01*
X16411Y1550D01*
X16611Y1750D01*
X16753Y1997D01*
X16827Y2271D01*
Y2555D01*
X16753Y2829D01*
X16641Y3024D01*
Y6049D01*
X17914D01*
Y7762D01*
D02*
G37*
G36*
X47778Y17888D02*
X47503Y17834D01*
X47024D01*
Y17193D01*
X47009Y17120D01*
Y13768D01*
X46983Y13640D01*
Y8624D01*
X43144Y4785D01*
X42978Y4536D01*
X42919Y4242D01*
Y3170D01*
X42825Y3076D01*
X42683Y2829D01*
X42609Y2555D01*
Y2271D01*
X42683Y1997D01*
X42825Y1750D01*
X43025Y1550D01*
X43272Y1408D01*
X43546Y1334D01*
X43830D01*
X44104Y1408D01*
X44351Y1550D01*
X44551Y1750D01*
X44693Y1997D01*
X44767Y2271D01*
Y2555D01*
X44693Y2829D01*
X44551Y3076D01*
X44457Y3170D01*
Y3923D01*
X47752Y7219D01*
X50539Y4432D01*
Y3389D01*
X50415Y3306D01*
X50268Y3086D01*
X50216Y2826D01*
Y2000D01*
X50268Y1740D01*
X50415Y1520D01*
X50635Y1373D01*
X50896Y1321D01*
X51721D01*
X51981Y1373D01*
X52201Y1520D01*
X52348Y1740D01*
X52400Y2000D01*
Y2826D01*
X52348Y3086D01*
X52201Y3306D01*
X52077Y3389D01*
Y4750D01*
X52018Y5044D01*
X51852Y5294D01*
X48521Y8624D01*
Y11325D01*
X48532D01*
Y13565D01*
X48547Y13640D01*
Y17120D01*
X48532Y17195D01*
Y17834D01*
X48052D01*
X47778Y17888D01*
D02*
G37*
G36*
X57000Y4897D02*
X56509Y4833D01*
X56051Y4643D01*
X55658Y4342D01*
X55357Y3949D01*
X55167Y3491D01*
X55103Y3000D01*
X55167Y2509D01*
X55357Y2051D01*
X55658Y1658D01*
X56051Y1357D01*
X56509Y1167D01*
X57000Y1103D01*
X57491Y1167D01*
X57949Y1357D01*
X58342Y1658D01*
X58643Y2051D01*
X58833Y2509D01*
X58897Y3000D01*
X58833Y3491D01*
X58643Y3949D01*
X58342Y4342D01*
X57949Y4643D01*
X57491Y4833D01*
X57000Y4897D01*
D02*
G37*
G36*
X3000D02*
X2509Y4833D01*
X2051Y4643D01*
X1658Y4342D01*
X1357Y3949D01*
X1167Y3491D01*
X1103Y3000D01*
X1167Y2509D01*
X1357Y2051D01*
X1658Y1658D01*
X2051Y1357D01*
X2509Y1167D01*
X3000Y1103D01*
X3491Y1167D01*
X3949Y1357D01*
X4342Y1658D01*
X4643Y2051D01*
X4833Y2509D01*
X4897Y3000D01*
X4833Y3491D01*
X4643Y3949D01*
X4342Y4342D01*
X3949Y4643D01*
X3491Y4833D01*
X3000Y4897D01*
D02*
G37*
%LPD*%
G36*
X25529Y20157D02*
X25382Y20009D01*
X25213Y19716D01*
X24235D01*
X24235Y19716D01*
X24019Y19673D01*
X23836Y19551D01*
X23836Y19551D01*
X23527Y19242D01*
X21130D01*
Y19082D01*
X20628D01*
Y19217D01*
X17579D01*
X17526Y19344D01*
X18466Y20284D01*
X25477D01*
X25529Y20157D01*
D02*
G37*
G36*
X15900Y19184D02*
X15971Y19132D01*
Y17545D01*
X14125D01*
Y17921D01*
X14125D01*
Y17995D01*
X14125D01*
Y18409D01*
X14488D01*
X14704Y18320D01*
X14964D01*
X15204Y18419D01*
X15388Y18603D01*
X15477Y18819D01*
X15861Y19202D01*
X15900Y19184D01*
D02*
G37*
G36*
X34693Y13276D02*
Y11543D01*
X36095D01*
X36133Y11416D01*
X36011Y11334D01*
X36011Y11334D01*
X33523Y8845D01*
X31074D01*
X30969Y8900D01*
X30969Y8972D01*
Y9140D01*
X32870D01*
X32870Y9140D01*
X33126Y9191D01*
X33342Y9336D01*
X34279Y10273D01*
X34279Y10273D01*
X34423Y10489D01*
X34474Y10744D01*
X34474Y10744D01*
Y13237D01*
X34566Y13329D01*
X34693Y13276D01*
D02*
G37*
D18*
X29972Y32156D02*
X34366D01*
X18755Y39964D02*
X18999D01*
X24798Y37812D02*
X24816Y37795D01*
X22647Y39964D02*
X24798Y37812D01*
Y39733D01*
Y37795D02*
Y37812D01*
X20676Y33874D02*
X23175D01*
X23190Y33858D01*
X15803Y34153D02*
X18970D01*
X19050Y34073D02*
X19150Y33974D01*
X18970Y34153D02*
X19050Y34073D01*
X18999Y39964D02*
X22647D01*
X24816Y37795D02*
X24816D01*
X24816Y37795D02*
X26537Y36074D01*
Y35008D02*
Y36074D01*
Y35008D02*
X26712Y34833D01*
X26822D01*
X16053Y36332D02*
X16205Y36484D01*
Y38024D01*
X16358Y38176D01*
X14076Y35703D02*
Y36332D01*
X16053D01*
X14076D02*
Y37967D01*
X14090Y34360D02*
X15596D01*
X14072Y34378D02*
X14090Y34360D01*
X15596D02*
X15803Y34153D01*
X29083Y32156D02*
X29972D01*
X16637Y25430D02*
Y25908D01*
X16916Y26187D01*
X20576Y33974D02*
X20676Y33874D01*
X19150Y33974D02*
X20576D01*
X18948Y35573D02*
Y38227D01*
X20550Y35699D02*
X20676Y35824D01*
X19050Y35573D02*
X19175Y35699D01*
X20550D01*
X27813Y41097D02*
X31521Y37389D01*
X16952Y40269D02*
X17780Y41097D01*
X27813D01*
X45228Y50805D02*
X45228D01*
X43420Y52612D02*
X45228Y50805D01*
X40415Y52612D02*
X43420D01*
X45228Y50805D02*
X47188Y48844D01*
X35077Y53466D02*
X45136D01*
X48474Y50129D01*
Y25081D02*
Y50129D01*
X25470Y51841D02*
X33452D01*
X20650D02*
X25470D01*
X33452D02*
X35077Y53466D01*
X39386Y50028D02*
Y51583D01*
X19888Y51079D02*
X20650Y51841D01*
X39386Y51583D02*
X40415Y52612D01*
X19888Y49641D02*
Y51079D01*
X40593Y30210D02*
X40945Y30562D01*
X36601Y30210D02*
X40593D01*
X40945Y30562D02*
Y32868D01*
X32423Y30198D02*
X34694D01*
X49073Y51841D02*
X50982Y49932D01*
Y41513D02*
Y49932D01*
X16053Y42889D02*
X16154Y42989D01*
X16033Y42869D02*
X16053Y42889D01*
X16154Y42989D02*
X17310D01*
X17348Y43028D01*
X14199Y40269D02*
X14474D01*
X16952D01*
X14474Y40066D02*
X14649Y40241D01*
X30022Y47231D02*
X30023Y47232D01*
X28915Y47231D02*
X30022D01*
X28876Y47193D02*
X28915Y47231D01*
X30086Y47245D02*
Y48095D01*
X30099Y48108D01*
X47055Y21692D02*
X50914Y25551D01*
X50271Y40802D02*
X50982Y41513D01*
X50914Y25551D02*
Y32309D01*
X50271Y32952D02*
X50914Y32309D01*
X50271Y32952D02*
Y40802D01*
X15291Y51333D02*
X15900Y50724D01*
X11516Y51333D02*
X15291D01*
X45822Y22428D02*
X48474Y25081D01*
X34366Y46634D02*
X36414D01*
X33769Y47232D02*
X34366Y46634D01*
X30023Y47232D02*
X33769D01*
X39486Y49476D02*
Y49927D01*
Y49476D02*
X39661Y49301D01*
X39386Y50028D02*
X39486Y49927D01*
X21860Y46783D02*
X21960Y46883D01*
X22128D02*
X22479Y47235D01*
X21860Y46558D02*
Y46783D01*
X21960Y46883D02*
X22128D01*
X22479Y47235D02*
Y48946D01*
X23926Y42316D02*
X29388D01*
X23329Y42913D02*
X23926Y42316D01*
X29388D02*
X31674Y40030D01*
X31521Y37389D02*
X36068D01*
X17907Y49641D02*
Y50876D01*
X17882Y49616D02*
X17907Y49641D01*
Y50876D02*
X17932Y50902D01*
X15900Y49188D02*
Y50724D01*
X21946Y45095D02*
Y46126D01*
X15900Y49188D02*
X15918Y49206D01*
X17221D02*
X17632Y49616D01*
X15918Y49206D02*
X17221D01*
X17632Y49616D02*
X17882D01*
X17357Y47677D02*
X17871D01*
X15911D02*
X17357D01*
X17871D02*
X17882Y47666D01*
X15900Y47688D02*
X15911Y47677D01*
X22101Y42990D02*
X23228D01*
X21946Y43145D02*
X22101Y42990D01*
X8189Y40157D02*
X8196Y40150D01*
X38372Y45296D02*
Y46627D01*
X38364Y46634D02*
X38372Y46627D01*
Y45296D02*
X38379Y45288D01*
X38376Y46647D02*
X40373D01*
X40386Y46660D01*
X38364Y46634D02*
X38376Y46647D01*
X16637Y26187D02*
X16916D01*
X14402D02*
X16637D01*
X6706D02*
X14402D01*
X14529Y22479D02*
Y26060D01*
X14402Y26187D02*
X14529Y26060D01*
X20041Y31902D02*
X25578D01*
X16916Y28778D02*
X20041Y31902D01*
X25578D02*
X26384Y32708D01*
X16916Y26187D02*
Y28778D01*
X5436Y27457D02*
X6706Y26187D01*
X5436Y27457D02*
Y36823D01*
X6629Y38017D01*
X55141Y33551D02*
X55245Y33446D01*
X51968Y33655D02*
X52073Y33551D01*
X41173Y44272D02*
X42326Y45425D01*
X41336Y48926D02*
X42326Y47937D01*
Y45425D02*
Y47937D01*
X45345Y27127D02*
Y32810D01*
X42494Y35662D02*
X45345Y32810D01*
X33512Y35662D02*
X42494D01*
X26647Y32708D02*
X26822Y32883D01*
X26384Y32708D02*
X26647D01*
X26822Y32883D02*
X28356D01*
X7153Y32598D02*
X10109Y29642D01*
X12344D01*
X7153Y32598D02*
Y34722D01*
X12421Y32188D02*
Y34112D01*
X10566Y34763D02*
X10601Y34728D01*
X11805D02*
X12421Y34112D01*
X10601Y34728D02*
X11805D01*
X9887Y34755D02*
X10482D01*
X9103Y34722D02*
X9887D01*
X41161Y49676D02*
Y51740D01*
Y49676D02*
X41244Y49321D01*
X34366Y32156D02*
X35011Y32801D01*
X28356Y32883D02*
X29083Y32156D01*
X6629Y38017D02*
X8613D01*
X8788Y38192D01*
X24755Y39776D02*
X24798Y39733D01*
X39659Y27035D02*
X41199D01*
X34706Y30210D02*
X36601D01*
X17907Y22047D02*
X29642D01*
X33528Y18161D01*
X23139Y8280D02*
X33757D01*
X20828Y5969D02*
X23139Y8280D01*
X27170Y28847D02*
X27457Y29134D01*
X27076Y28847D02*
X27170D01*
X24874Y28999D02*
X27043D01*
X24841Y28966D02*
X24874Y28999D01*
X27043D02*
X27076Y29032D01*
X41244Y49321D02*
X41336Y49229D01*
Y48926D02*
Y49229D01*
X22701Y28861D02*
X22708Y28868D01*
X20168Y28854D02*
X20174Y28861D01*
X22701D01*
X10592Y40320D02*
X13720D01*
X8222Y40150D02*
X10584D01*
X10592Y40142D01*
X42297Y28260D02*
X42300Y28258D01*
X42349D02*
X42352Y28260D01*
X42300Y28258D02*
X42349D01*
X36601Y28260D02*
X42297D01*
X34519Y44272D02*
X41173D01*
X35011Y32801D02*
X35952D01*
X36411Y10935D02*
X43500D01*
X33757Y8280D02*
X36411Y10935D01*
X42065Y16804D02*
X43336D01*
X40933Y15672D02*
X42065Y16804D01*
X43336D02*
X43500Y16967D01*
X40208Y15672D02*
X40933D01*
X40056Y15519D02*
X40208Y15672D01*
X40402Y12278D02*
X42157D01*
X43500Y10935D01*
X40208Y12472D02*
X40402Y12278D01*
X20828Y2413D02*
Y5969D01*
X28580Y20849D02*
X32334Y17094D01*
X18232Y20849D02*
X28580D01*
X36347Y15672D02*
X36500Y15519D01*
X40056D01*
X14834Y18974D02*
X17907Y22047D01*
X13396Y18974D02*
X14834D01*
X13396Y16942D02*
X13434Y16980D01*
X16497D01*
X16535Y17018D01*
X36906Y25562D02*
Y26633D01*
X41186Y25073D02*
X41199Y25085D01*
X36879Y21649D02*
X36890Y21637D01*
X36932Y23434D02*
X36943Y23423D01*
X16535Y19152D02*
X17020Y19636D01*
X16535Y17018D02*
Y19152D01*
X23884Y18688D02*
Y18800D01*
X24235Y19152D01*
X23509Y18313D02*
X23884Y18688D01*
X24235Y19152D02*
X26500D01*
X22784Y18313D02*
X23509D01*
X17020Y19636D02*
Y19636D01*
X18232Y20849D01*
X20162Y28848D02*
X20168Y28854D01*
X28499Y36551D02*
X28556Y36493D01*
X30131D02*
X30626Y35998D01*
X31387D02*
X31562Y35823D01*
Y35662D02*
Y35823D01*
X28556Y36493D02*
X30131D01*
X30626Y35998D02*
X31387D01*
X31562Y35662D02*
X31574Y35650D01*
X26949Y18974D02*
X26988Y18936D01*
X31574Y34124D02*
Y35650D01*
Y34124D02*
X31586Y34112D01*
X14076Y37967D02*
X14224Y38116D01*
X13974Y40066D02*
X14224D01*
X13720Y40320D02*
X13974Y40066D01*
X34694Y30198D02*
X34706Y30210D01*
X32801Y44247D02*
X34290D01*
X32776Y44221D02*
X32801Y44247D01*
D19*
X51968Y24562D02*
Y33655D01*
X45720Y18313D02*
X51968Y24562D01*
X45720Y9754D02*
Y18313D01*
X43917Y7950D02*
X45720Y9754D01*
X50978Y16192D02*
X55613D01*
X50978Y12979D02*
Y16180D01*
Y16192D01*
X55613D02*
X55626Y16205D01*
X11516Y51333D02*
Y53071D01*
Y49113D02*
Y51333D01*
Y53071D02*
X11557Y53111D01*
X11476Y49073D02*
X11516Y49113D01*
X52073Y33551D02*
X55141D01*
X43688Y4242D02*
X47752Y8306D01*
X43688Y2413D02*
Y4242D01*
X51308Y2413D02*
Y4750D01*
X47752Y8306D02*
X51308Y4750D01*
X41250Y21468D02*
Y24968D01*
X10645Y6958D02*
X12394D01*
X9652Y7950D02*
Y12090D01*
Y7950D02*
X10645Y6958D01*
X10617Y13056D02*
X12573D01*
X9652Y12090D02*
X10617Y13056D01*
X13350Y9703D02*
X13894D01*
X13273Y9780D02*
Y9782D01*
Y9780D02*
X13350Y9703D01*
X12394Y6958D02*
X12497Y6855D01*
X47752Y8306D02*
Y13640D01*
X40462Y7950D02*
X43917D01*
X47778Y13640D02*
Y17120D01*
X25828Y2493D02*
Y4035D01*
X28663Y6906D02*
X29947D01*
X25828Y4035D02*
X28509Y6716D01*
Y6753D01*
X28663Y6906D01*
X25828Y2493D02*
X25908Y2413D01*
X23368D02*
Y5791D01*
X24195Y6619D01*
X36943Y21607D02*
Y23423D01*
X36347Y12472D02*
X39624D01*
X13208Y2413D02*
Y6753D01*
X15872Y2537D02*
Y6804D01*
X15975Y6906D01*
X15748Y2413D02*
X15872Y2537D01*
X15975Y6906D02*
X16307D01*
X18954Y18313D02*
X22519D01*
X35392Y48984D02*
X37249D01*
X37287Y48946D01*
D20*
X27570Y11405D02*
X31471D01*
X7925Y5867D02*
Y13081D01*
X9932Y15088D02*
X18974D01*
X7925Y13081D02*
X9932Y15088D01*
X21400Y15100D02*
X21412Y15113D01*
X20904Y15062D02*
X20942Y15100D01*
X19279Y15088D02*
X20904D01*
X20942Y15100D02*
X21400D01*
X10505Y2576D02*
X10668Y2413D01*
X10505Y2576D02*
Y3287D01*
X7925Y5867D02*
X10505Y3287D01*
X16307Y9807D02*
X19104D01*
X22758Y13462D02*
X26500D01*
X19104Y9807D02*
X22758Y13462D01*
X26114Y9948D02*
X27570Y11405D01*
X32870Y9807D02*
X33807Y10744D01*
X29947Y9807D02*
X32870D01*
X33807Y13513D02*
X34392Y14097D01*
X33807Y10744D02*
Y13513D01*
X34392Y14097D02*
X43500D01*
X23509Y15113D02*
X24601Y16205D01*
X26506D01*
X22784Y15113D02*
X23509D01*
X20904Y15088D02*
X21412D01*
X22759D01*
X22784Y15113D01*
D21*
X24195Y6630D02*
X24548Y6982D01*
X24195Y6619D02*
Y6630D01*
X24548Y6982D02*
X25298D01*
X23368Y2245D02*
Y2413D01*
D22*
X55245Y45446D02*
D03*
Y33446D02*
D03*
X2692Y30957D02*
D03*
Y42957D02*
D03*
D23*
X31674Y40030D02*
D03*
X44729Y44628D02*
D03*
X11532Y53111D02*
D03*
X14529Y22479D02*
D03*
X12573Y13056D02*
D03*
X43131Y10922D02*
D03*
X26500Y16205D02*
D03*
X43261Y16967D02*
D03*
X51968Y33655D02*
D03*
X43236Y14097D02*
D03*
X41199Y21468D02*
D03*
X36890Y21637D02*
D03*
X26500Y13462D02*
D03*
Y19152D02*
D03*
X25348Y44221D02*
D03*
X25470Y51873D02*
D03*
X22479Y48946D02*
D03*
X34519Y44272D02*
D03*
X37287Y48946D02*
D03*
X40386Y46660D02*
D03*
X40945Y32868D02*
D03*
X27076Y29032D02*
D03*
X20168Y28854D02*
D03*
X28499Y36551D02*
D03*
X24816Y37795D02*
D03*
X23190Y33858D02*
D03*
X16358Y38176D02*
D03*
X12421Y32188D02*
D03*
D24*
X49728Y48844D02*
D03*
X47188D02*
D03*
X14016Y49073D02*
D03*
X11476D02*
D03*
D25*
X44648Y48844D02*
D03*
X8936Y49073D02*
D03*
D26*
X15748Y2413D02*
D03*
X18288D02*
D03*
X20828D02*
D03*
X23368D02*
D03*
X25908D02*
D03*
X28448D02*
D03*
X30988D02*
D03*
X33528D02*
D03*
X36068D02*
D03*
X46228D02*
D03*
X48768D02*
D03*
X43688D02*
D03*
X41148D02*
D03*
X38608D02*
D03*
X13208D02*
D03*
X10668D02*
D03*
X8128D02*
D03*
D27*
X51308D02*
D03*
D28*
X30912Y50241D02*
D03*
X31166Y27610D02*
D03*
X26772Y38329D02*
D03*
X30023Y44196D02*
D03*
X49073Y51841D02*
D03*
X17348Y43028D02*
D03*
X12446Y41732D02*
D03*
X28876Y47193D02*
D03*
X30099Y48108D02*
D03*
X17932Y50902D02*
D03*
X23266Y42951D02*
D03*
X37668Y9728D02*
D03*
X32334Y12294D02*
D03*
X19761Y7976D02*
D03*
X18745D02*
D03*
X12421Y37440D02*
D03*
X9347Y32385D02*
D03*
X45345Y27073D02*
D03*
X47055Y21692D02*
D03*
X12344Y29642D02*
D03*
X45822Y22428D02*
D03*
X31471Y11405D02*
D03*
X33528Y18161D02*
D03*
X13894Y9703D02*
D03*
X42393Y28219D02*
D03*
X39621Y26997D02*
D03*
X20904Y15062D02*
D03*
X32334Y17094D02*
D03*
X14834Y18974D02*
D03*
X16535Y17018D02*
D03*
X36906Y26633D02*
D03*
X36068Y37389D02*
D03*
X35952Y32801D02*
D03*
D29*
X55626Y16205D02*
D03*
X6706Y26187D02*
D03*
X40462Y7950D02*
D03*
D30*
X16637Y32330D02*
D03*
Y25430D02*
D03*
D31*
X20676Y33874D02*
D03*
Y35824D02*
D03*
X16053Y36332D02*
D03*
Y34382D02*
D03*
X8763Y40142D02*
D03*
Y38192D02*
D03*
X36906Y25562D02*
D03*
Y23612D02*
D03*
X24841Y28966D02*
D03*
Y27016D02*
D03*
X41199Y25085D02*
D03*
Y27035D02*
D03*
X32385Y30236D02*
D03*
Y28286D02*
D03*
X36601Y28260D02*
D03*
Y30210D02*
D03*
X26822Y34833D02*
D03*
Y32883D02*
D03*
X18999Y39964D02*
D03*
Y38014D02*
D03*
X14199Y40269D02*
D03*
Y38319D02*
D03*
X10566Y34763D02*
D03*
Y36713D02*
D03*
X10592Y40142D02*
D03*
Y38192D02*
D03*
X17882Y49616D02*
D03*
Y47666D02*
D03*
X19888Y49641D02*
D03*
Y47691D02*
D03*
X21946Y43145D02*
D03*
Y45095D02*
D03*
D32*
X16053Y42889D02*
D03*
Y41389D02*
D03*
X30074Y47308D02*
D03*
Y45808D02*
D03*
X14072Y35878D02*
D03*
Y34378D02*
D03*
X22708Y27368D02*
D03*
Y28868D02*
D03*
X34519Y30290D02*
D03*
Y28790D02*
D03*
X19050Y35573D02*
D03*
Y34073D02*
D03*
X15900Y49188D02*
D03*
Y47688D02*
D03*
D33*
X23860Y46558D02*
D03*
X21860D02*
D03*
D34*
X29972Y30023D02*
D03*
Y32023D02*
D03*
X38379Y43288D02*
D03*
Y45288D02*
D03*
D35*
X47778Y16180D02*
D03*
X50978D02*
D03*
Y12979D02*
D03*
X47778D02*
D03*
D36*
X25298Y6982D02*
D03*
Y9883D02*
D03*
X16307Y9807D02*
D03*
Y6906D02*
D03*
X29362Y9756D02*
D03*
Y6855D02*
D03*
X12497Y9756D02*
D03*
Y6855D02*
D03*
D37*
X9103Y34722D02*
D03*
X7153D02*
D03*
X13396Y18974D02*
D03*
X11446D02*
D03*
X13396Y16942D02*
D03*
X11446D02*
D03*
X24755Y39776D02*
D03*
X26705D02*
D03*
X27244Y44221D02*
D03*
X29194D02*
D03*
X32776D02*
D03*
X30826D02*
D03*
X36414Y46634D02*
D03*
X38364D02*
D03*
X35367Y49022D02*
D03*
X33417D02*
D03*
X39386Y51333D02*
D03*
X41336D02*
D03*
X33512Y35662D02*
D03*
X31562D02*
D03*
D38*
X33160Y33655D02*
D03*
X31660D02*
D03*
X39661Y49301D02*
D03*
X41161D02*
D03*
D39*
X18974Y15088D02*
D03*
Y18288D02*
D03*
X22784Y15113D02*
D03*
Y18313D02*
D03*
X36347Y12472D02*
D03*
Y15672D02*
D03*
X40208Y12472D02*
D03*
Y15672D02*
D03*
D40*
X19931Y44120D02*
X25246D01*
X17882Y46169D02*
Y47666D01*
Y46169D02*
X19931Y44120D01*
X25246D02*
X25348Y44221D01*
X25375D02*
X27244D01*
%TF.MD5,b8480d88ca6b60cbea576da699fd9892*%
M02*
