%TF.GenerationSoftware,Altium Limited,Altium Designer,24.3.1 (35)*%
G04 Layer_Color=128*
%FSLAX43Y43*%
%MOMM*%
%TF.SameCoordinates,9DAA59CA-406A-4E62-98C5-13318CB5E6F2*%
%TF.FilePolarity,Positive*%
%TF.FileFunction,Paste,Bot*%
%TF.Part,Single*%
G01*
G75*
%TA.AperFunction,SMDPad,CuDef*%
%ADD30R,2.500X2.200*%
%ADD31R,1.450X0.950*%
%ADD32R,1.350X0.950*%
%ADD33R,0.800X1.250*%
%ADD34R,1.250X0.800*%
%ADD35R,1.000X2.800*%
%ADD36R,2.706X1.205*%
%ADD37R,0.950X1.450*%
%ADD38R,0.950X1.350*%
%ADD39R,2.800X1.350*%
D30*
X16637Y32330D02*
D03*
Y25430D02*
D03*
D31*
X20676Y33874D02*
D03*
Y35824D02*
D03*
X16053Y36332D02*
D03*
Y34382D02*
D03*
X8763Y40142D02*
D03*
Y38192D02*
D03*
X36906Y25562D02*
D03*
Y23612D02*
D03*
X24841Y28966D02*
D03*
Y27016D02*
D03*
X41199Y25085D02*
D03*
Y27035D02*
D03*
X32385Y30236D02*
D03*
Y28286D02*
D03*
X36601Y28260D02*
D03*
Y30210D02*
D03*
X26822Y34833D02*
D03*
Y32883D02*
D03*
X18999Y39964D02*
D03*
Y38014D02*
D03*
X14199Y40269D02*
D03*
Y38319D02*
D03*
X10566Y34763D02*
D03*
Y36713D02*
D03*
X10592Y40142D02*
D03*
Y38192D02*
D03*
X17882Y49616D02*
D03*
Y47666D02*
D03*
X19888Y49641D02*
D03*
Y47691D02*
D03*
X21946Y43145D02*
D03*
Y45095D02*
D03*
D32*
X16053Y42889D02*
D03*
Y41389D02*
D03*
X30074Y47308D02*
D03*
Y45808D02*
D03*
X14072Y35878D02*
D03*
Y34378D02*
D03*
X22708Y27368D02*
D03*
Y28868D02*
D03*
X34519Y30290D02*
D03*
Y28790D02*
D03*
X19050Y35573D02*
D03*
Y34073D02*
D03*
X15900Y49188D02*
D03*
Y47688D02*
D03*
D33*
X23860Y46558D02*
D03*
X21860D02*
D03*
D34*
X29972Y30023D02*
D03*
Y32023D02*
D03*
X38379Y43288D02*
D03*
Y45288D02*
D03*
D35*
X47778Y16180D02*
D03*
X50978D02*
D03*
Y12979D02*
D03*
X47778D02*
D03*
D36*
X25298Y6982D02*
D03*
Y9883D02*
D03*
X16307Y9807D02*
D03*
Y6906D02*
D03*
X29362Y9756D02*
D03*
Y6855D02*
D03*
X12497Y9756D02*
D03*
Y6855D02*
D03*
D37*
X9103Y34722D02*
D03*
X7153D02*
D03*
X13396Y18974D02*
D03*
X11446D02*
D03*
X13396Y16942D02*
D03*
X11446D02*
D03*
X24755Y39776D02*
D03*
X26705D02*
D03*
X27244Y44221D02*
D03*
X29194D02*
D03*
X32776D02*
D03*
X30826D02*
D03*
X36414Y46634D02*
D03*
X38364D02*
D03*
X35367Y49022D02*
D03*
X33417D02*
D03*
X39386Y51333D02*
D03*
X41336D02*
D03*
X33512Y35662D02*
D03*
X31562D02*
D03*
D38*
X33160Y33655D02*
D03*
X31660D02*
D03*
X39661Y49301D02*
D03*
X41161D02*
D03*
D39*
X18974Y15088D02*
D03*
Y18288D02*
D03*
X22784Y15113D02*
D03*
Y18313D02*
D03*
X36347Y12472D02*
D03*
Y15672D02*
D03*
X40208Y12472D02*
D03*
Y15672D02*
D03*
%TF.MD5,362496ea21ffce4e5008e9374ec1378f*%
M02*
