%TF.GenerationSoftware,Altium Limited,Altium Designer,24.3.1 (35)*%
G04 Layer_Color=0*
%FSLAX43Y43*%
%MOMM*%
%TF.SameCoordinates,9DAA59CA-406A-4E62-98C5-13318CB5E6F2*%
%TF.FilePolarity,Positive*%
%TF.FileFunction,NonPlated,1,2,NPTH,Drill*%
%TF.Part,Single*%
G01*
G75*
G36*
X1500Y52000D02*
Y51852D01*
X1558Y51562D01*
X1671Y51289D01*
X1835Y51044D01*
X2044Y50835D01*
X2289Y50671D01*
X2562Y50558D01*
X2852Y50500D01*
X3000D01*
X3148D01*
X3438Y50558D01*
X3711Y50671D01*
X3956Y50835D01*
X4165Y51044D01*
X4329Y51289D01*
X4442Y51562D01*
X4500Y51852D01*
Y52000D01*
Y52148D01*
X4442Y52438D01*
X4329Y52711D01*
X4165Y52956D01*
X3956Y53165D01*
X3711Y53329D01*
X3438Y53442D01*
X3148Y53500D01*
X3000D01*
X2852D01*
X2562Y53442D01*
X2289Y53329D01*
X2044Y53165D01*
X1835Y52956D01*
X1671Y52711D01*
X1558Y52438D01*
X1500Y52148D01*
Y52000D01*
D01*
D02*
G37*
G36*
Y3000D02*
Y2852D01*
X1558Y2562D01*
X1671Y2289D01*
X1835Y2044D01*
X2044Y1835D01*
X2289Y1671D01*
X2562Y1558D01*
X2852Y1500D01*
X3000D01*
X3148D01*
X3438Y1558D01*
X3711Y1671D01*
X3956Y1835D01*
X4165Y2044D01*
X4329Y2289D01*
X4442Y2562D01*
X4500Y2852D01*
Y3000D01*
Y3148D01*
X4442Y3438D01*
X4329Y3711D01*
X4165Y3956D01*
X3956Y4165D01*
X3711Y4329D01*
X3438Y4442D01*
X3148Y4500D01*
X3000D01*
X2852D01*
X2562Y4442D01*
X2289Y4329D01*
X2044Y4165D01*
X1835Y3956D01*
X1671Y3711D01*
X1558Y3438D01*
X1500Y3148D01*
Y3000D01*
D01*
D02*
G37*
G36*
X55500D02*
Y2852D01*
X55558Y2562D01*
X55671Y2289D01*
X55835Y2044D01*
X56044Y1835D01*
X56289Y1671D01*
X56562Y1558D01*
X56852Y1500D01*
X57000D01*
X57148D01*
X57438Y1558D01*
X57711Y1671D01*
X57956Y1835D01*
X58165Y2044D01*
X58329Y2289D01*
X58442Y2562D01*
X58500Y2852D01*
Y3000D01*
Y3148D01*
X58442Y3438D01*
X58329Y3711D01*
X58165Y3956D01*
X57956Y4165D01*
X57711Y4329D01*
X57438Y4442D01*
X57148Y4500D01*
X57000D01*
X56852D01*
X56562Y4442D01*
X56289Y4329D01*
X56044Y4165D01*
X55835Y3956D01*
X55671Y3711D01*
X55558Y3438D01*
X55500Y3148D01*
Y3000D01*
D01*
D02*
G37*
G36*
Y52000D02*
Y51852D01*
X55558Y51562D01*
X55671Y51289D01*
X55835Y51044D01*
X56044Y50835D01*
X56289Y50671D01*
X56562Y50558D01*
X56852Y50500D01*
X57000D01*
X57148D01*
X57438Y50558D01*
X57711Y50671D01*
X57956Y50835D01*
X58165Y51044D01*
X58329Y51289D01*
X58442Y51562D01*
X58500Y51852D01*
Y52000D01*
Y52148D01*
X58442Y52438D01*
X58329Y52711D01*
X58165Y52956D01*
X57956Y53165D01*
X57711Y53329D01*
X57438Y53442D01*
X57148Y53500D01*
X57000D01*
X56852D01*
X56562Y53442D01*
X56289Y53329D01*
X56044Y53165D01*
X55835Y52956D01*
X55671Y52711D01*
X55558Y52438D01*
X55500Y52148D01*
Y52000D01*
D01*
D02*
G37*
%TF.MD5,1d2ca0a918c5625fb87031abf500dbf0*%
M02*
