%TF.GenerationSoftware,Altium Limited,Altium Designer,24.3.1 (35)*%
G04 Layer_Color=255*
%FSLAX43Y43*%
%MOMM*%
%TF.SameCoordinates,9DAA59CA-406A-4E62-98C5-13318CB5E6F2*%
%TF.FilePolarity,Positive*%
%TF.FileFunction,Pads,Top*%
%TF.Part,Single*%
G01*
G75*
%TA.AperFunction,SMDPad,CuDef*%
%ADD11R,2.000X4.000*%
G04:AMPARAMS|DCode=12|XSize=1.55mm|YSize=0.6mm|CornerRadius=0.051mm|HoleSize=0mm|Usage=FLASHONLY|Rotation=180.000|XOffset=0mm|YOffset=0mm|HoleType=Round|Shape=RoundedRectangle|*
%AMROUNDEDRECTD12*
21,1,1.550,0.498,0,0,180.0*
21,1,1.448,0.600,0,0,180.0*
1,1,0.102,-0.724,0.249*
1,1,0.102,0.724,0.249*
1,1,0.102,0.724,-0.249*
1,1,0.102,-0.724,-0.249*
%
%ADD12ROUNDEDRECTD12*%
%ADD13R,7.500X3.000*%
G04:AMPARAMS|DCode=14|XSize=0.6mm|YSize=1.45mm|CornerRadius=0.051mm|HoleSize=0mm|Usage=FLASHONLY|Rotation=90.000|XOffset=0mm|YOffset=0mm|HoleType=Round|Shape=RoundedRectangle|*
%AMROUNDEDRECTD14*
21,1,0.600,1.348,0,0,90.0*
21,1,0.498,1.450,0,0,90.0*
1,1,0.102,0.674,0.249*
1,1,0.102,0.674,-0.249*
1,1,0.102,-0.674,-0.249*
1,1,0.102,-0.674,0.249*
%
%ADD14ROUNDEDRECTD14*%
%ADD15R,1.780X0.720*%
%ADD16R,2.500X1.700*%
%ADD17R,0.950X0.900*%
%TA.AperFunction,ComponentPad*%
%ADD22O,3.000X3.100*%
%ADD23C,2.286*%
%ADD24C,1.400*%
%ADD25R,1.400X1.400*%
%ADD26C,1.650*%
G04:AMPARAMS|DCode=27|XSize=1.65mm|YSize=1.65mm|CornerRadius=0.413mm|HoleSize=0mm|Usage=FLASHONLY|Rotation=0.000|XOffset=0mm|YOffset=0mm|HoleType=Round|Shape=RoundedRectangle|*
%AMROUNDEDRECTD27*
21,1,1.650,0.825,0,0,0.0*
21,1,0.825,1.650,0,0,0.0*
1,1,0.825,0.413,-0.413*
1,1,0.825,-0.413,-0.413*
1,1,0.825,-0.413,0.413*
1,1,0.825,0.413,0.413*
%
%ADD27ROUNDEDRECTD27*%
D11*
X10490Y35877D02*
D03*
Y42977D02*
D03*
X52000Y28550D02*
D03*
Y21450D02*
D03*
X8000D02*
D03*
Y28550D02*
D03*
D12*
X32621Y46431D02*
D03*
Y47701D02*
D03*
Y48971D02*
D03*
Y50241D02*
D03*
X27221D02*
D03*
Y48971D02*
D03*
Y47701D02*
D03*
Y46431D02*
D03*
D13*
X48768Y41525D02*
D03*
Y36525D02*
D03*
D14*
X38539Y27051D02*
D03*
Y28321D02*
D03*
Y29591D02*
D03*
Y30861D02*
D03*
Y32131D02*
D03*
Y33401D02*
D03*
Y34671D02*
D03*
Y35941D02*
D03*
X33089Y27051D02*
D03*
Y28321D02*
D03*
Y29591D02*
D03*
Y30861D02*
D03*
Y32131D02*
D03*
Y33401D02*
D03*
Y34671D02*
D03*
Y35941D02*
D03*
D15*
X18285Y13513D02*
D03*
Y12243D02*
D03*
Y10973D02*
D03*
Y9703D02*
D03*
X22965Y13513D02*
D03*
Y12243D02*
D03*
Y10973D02*
D03*
Y9703D02*
D03*
X40542D02*
D03*
Y10973D02*
D03*
Y12243D02*
D03*
Y13513D02*
D03*
X35862Y9703D02*
D03*
Y10973D02*
D03*
Y12243D02*
D03*
Y13513D02*
D03*
D16*
X40075Y16815D02*
D03*
X36075D02*
D03*
X18803Y16840D02*
D03*
X22803D02*
D03*
D17*
X19380Y41097D02*
D03*
X19380Y44247D02*
D03*
X38354Y41122D02*
D03*
X38354Y44272D02*
D03*
D22*
X55245Y45446D02*
D03*
Y33446D02*
D03*
X2692Y30957D02*
D03*
Y42957D02*
D03*
D23*
X31674Y40030D02*
D03*
X44729Y44628D02*
D03*
X11532Y53111D02*
D03*
X14529Y22479D02*
D03*
X12573Y13056D02*
D03*
X43131Y10922D02*
D03*
X26500Y16205D02*
D03*
X43261Y16967D02*
D03*
X51968Y33655D02*
D03*
X43236Y14097D02*
D03*
X41199Y21468D02*
D03*
X36890Y21637D02*
D03*
X26500Y13462D02*
D03*
Y19152D02*
D03*
X25348Y44221D02*
D03*
X25470Y51873D02*
D03*
X22479Y48946D02*
D03*
X34519Y44272D02*
D03*
X37287Y48946D02*
D03*
X40386Y46660D02*
D03*
X40945Y32868D02*
D03*
X27076Y29032D02*
D03*
X20168Y28854D02*
D03*
X28499Y36551D02*
D03*
X24816Y37795D02*
D03*
X23190Y33858D02*
D03*
X16358Y38176D02*
D03*
X12421Y32188D02*
D03*
D24*
X49728Y48844D02*
D03*
X47188D02*
D03*
X14016Y49073D02*
D03*
X11476D02*
D03*
D25*
X44648Y48844D02*
D03*
X8936Y49073D02*
D03*
D26*
X15748Y2413D02*
D03*
X18288D02*
D03*
X20828D02*
D03*
X23368D02*
D03*
X25908D02*
D03*
X28448D02*
D03*
X30988D02*
D03*
X33528D02*
D03*
X36068D02*
D03*
X46228D02*
D03*
X48768D02*
D03*
X43688D02*
D03*
X41148D02*
D03*
X38608D02*
D03*
X13208D02*
D03*
X10668D02*
D03*
X8128D02*
D03*
D27*
X51308D02*
D03*
%TF.MD5,190b71b1a9b9b3349cecb9c234c348af*%
M02*
