%TF.GenerationSoftware,Altium Limited,Altium Designer,24.3.1 (35)*%
G04 Layer_Color=8388736*
%FSLAX43Y43*%
%MOMM*%
%TF.SameCoordinates,9DAA59CA-406A-4E62-98C5-13318CB5E6F2*%
%TF.FilePolarity,Positive*%
%TF.FileFunction,Other,Top_Assembly*%
%TF.Part,Single*%
G01*
G75*
%TA.AperFunction,NonConductor*%
%ADD41C,0.200*%
%ADD58C,0.013*%
%ADD67C,0.100*%
%ADD68R,3.675X1.300*%
G36*
X10278Y40986D02*
X10285Y40985D01*
X10293Y40984D01*
X10303Y40982D01*
X10314Y40980D01*
X10338Y40974D01*
X10363Y40965D01*
X10376Y40960D01*
X10388Y40952D01*
X10401Y40945D01*
X10413Y40936D01*
X10413Y40935D01*
X10416Y40933D01*
X10420Y40929D01*
X10425Y40925D01*
X10430Y40918D01*
X10438Y40911D01*
X10444Y40901D01*
X10451Y40891D01*
X10459Y40880D01*
X10465Y40867D01*
X10472Y40853D01*
X10478Y40839D01*
X10483Y40823D01*
X10487Y40805D01*
X10489Y40787D01*
X10490Y40767D01*
Y40759D01*
X10489Y40753D01*
X10488Y40745D01*
X10487Y40737D01*
X10487Y40727D01*
X10484Y40717D01*
X10478Y40693D01*
X10470Y40670D01*
X10464Y40658D01*
X10458Y40646D01*
X10450Y40635D01*
X10442Y40624D01*
X10441Y40623D01*
X10440Y40621D01*
X10437Y40619D01*
X10433Y40616D01*
X10428Y40611D01*
X10423Y40607D01*
X10415Y40601D01*
X10407Y40596D01*
X10399Y40591D01*
X10389Y40585D01*
X10366Y40575D01*
X10340Y40567D01*
X10327Y40564D01*
X10312Y40562D01*
X10305Y40644D01*
X10306D01*
X10308D01*
X10311Y40645D01*
X10315Y40646D01*
X10326Y40649D01*
X10340Y40653D01*
X10353Y40658D01*
X10369Y40666D01*
X10383Y40675D01*
X10396Y40686D01*
X10397Y40688D01*
X10401Y40692D01*
X10405Y40699D01*
X10411Y40709D01*
X10416Y40720D01*
X10421Y40734D01*
X10425Y40750D01*
X10425Y40767D01*
Y40773D01*
X10425Y40777D01*
X10424Y40788D01*
X10420Y40801D01*
X10415Y40816D01*
X10408Y40832D01*
X10397Y40849D01*
X10390Y40856D01*
X10383Y40864D01*
X10382Y40864D01*
X10381Y40865D01*
X10378Y40867D01*
X10376Y40870D01*
X10365Y40876D01*
X10352Y40884D01*
X10337Y40890D01*
X10317Y40897D01*
X10294Y40901D01*
X10282Y40903D01*
X10269D01*
X10268D01*
X10266D01*
X10263D01*
X10258Y40902D01*
X10253D01*
X10246Y40901D01*
X10231Y40899D01*
X10214Y40894D01*
X10196Y40888D01*
X10180Y40878D01*
X10164Y40865D01*
X10163D01*
X10162Y40864D01*
X10157Y40859D01*
X10151Y40851D01*
X10144Y40840D01*
X10137Y40825D01*
X10131Y40808D01*
X10126Y40789D01*
X10124Y40778D01*
Y40760D01*
X10125Y40753D01*
X10126Y40743D01*
X10129Y40732D01*
X10131Y40721D01*
X10136Y40709D01*
X10142Y40697D01*
X10143Y40696D01*
X10144Y40693D01*
X10149Y40687D01*
X10154Y40680D01*
X10160Y40672D01*
X10168Y40665D01*
X10177Y40656D01*
X10187Y40650D01*
X10177Y40576D01*
X9848Y40638D01*
Y40956D01*
X9923D01*
Y40700D01*
X10095Y40666D01*
X10094Y40667D01*
X10094Y40668D01*
X10092Y40671D01*
X10089Y40676D01*
X10086Y40681D01*
X10082Y40688D01*
X10075Y40703D01*
X10068Y40721D01*
X10061Y40742D01*
X10057Y40764D01*
X10055Y40775D01*
Y40795D01*
X10056Y40801D01*
X10057Y40808D01*
X10058Y40816D01*
X10059Y40826D01*
X10062Y40836D01*
X10069Y40858D01*
X10073Y40870D01*
X10080Y40882D01*
X10086Y40894D01*
X10094Y40906D01*
X10103Y40917D01*
X10113Y40928D01*
X10114Y40929D01*
X10116Y40931D01*
X10119Y40934D01*
X10123Y40938D01*
X10130Y40942D01*
X10136Y40947D01*
X10144Y40952D01*
X10154Y40958D01*
X10164Y40962D01*
X10175Y40968D01*
X10188Y40973D01*
X10201Y40977D01*
X10215Y40981D01*
X10230Y40984D01*
X10246Y40986D01*
X10263Y40987D01*
X10264D01*
X10266D01*
X10271D01*
X10278Y40986D01*
D02*
G37*
G36*
X10479Y40282D02*
X9979D01*
X9980Y40281D01*
X9984Y40276D01*
X9989Y40271D01*
X9996Y40262D01*
X10004Y40251D01*
X10013Y40239D01*
X10023Y40224D01*
X10033Y40207D01*
Y40206D01*
X10034Y40205D01*
X10038Y40200D01*
X10043Y40190D01*
X10048Y40179D01*
X10055Y40166D01*
X10061Y40153D01*
X10068Y40139D01*
X10073Y40125D01*
X9997D01*
Y40126D01*
X9996Y40128D01*
X9995Y40131D01*
X9992Y40136D01*
X9989Y40141D01*
X9985Y40148D01*
X9976Y40164D01*
X9966Y40182D01*
X9953Y40201D01*
X9938Y40220D01*
X9923Y40239D01*
X9922Y40240D01*
X9921Y40241D01*
X9918Y40244D01*
X9915Y40248D01*
X9906Y40256D01*
X9895Y40267D01*
X9882Y40278D01*
X9867Y40290D01*
X9852Y40300D01*
X9837Y40310D01*
Y40361D01*
X10479D01*
Y40282D01*
D02*
G37*
G36*
X10281Y39992D02*
X10287Y39990D01*
X10294Y39987D01*
X10303Y39984D01*
X10313Y39981D01*
X10324Y39976D01*
X10336Y39970D01*
X10362Y39957D01*
X10388Y39941D01*
X10401Y39931D01*
X10413Y39921D01*
X10425Y39909D01*
X10436Y39896D01*
X10437Y39896D01*
X10438Y39894D01*
X10440Y39889D01*
X10444Y39884D01*
X10449Y39877D01*
X10453Y39870D01*
X10458Y39859D01*
X10462Y39849D01*
X10468Y39837D01*
X10473Y39824D01*
X10477Y39810D01*
X10482Y39796D01*
X10486Y39780D01*
X10487Y39763D01*
X10489Y39746D01*
X10490Y39727D01*
Y39717D01*
X10489Y39710D01*
Y39701D01*
X10488Y39691D01*
X10487Y39680D01*
X10485Y39667D01*
X10480Y39640D01*
X10473Y39613D01*
X10462Y39585D01*
X10456Y39572D01*
X10449Y39559D01*
X10448Y39558D01*
X10447Y39556D01*
X10444Y39553D01*
X10440Y39549D01*
X10437Y39543D01*
X10431Y39537D01*
X10425Y39529D01*
X10417Y39522D01*
X10409Y39515D01*
X10401Y39506D01*
X10379Y39490D01*
X10354Y39474D01*
X10327Y39460D01*
X10326D01*
X10323Y39458D01*
X10318Y39457D01*
X10313Y39455D01*
X10305Y39453D01*
X10296Y39450D01*
X10286Y39446D01*
X10275Y39443D01*
X10263Y39441D01*
X10249Y39437D01*
X10220Y39432D01*
X10188Y39429D01*
X10155Y39427D01*
X10154D01*
X10150D01*
X10144D01*
X10138Y39428D01*
X10129D01*
X10119Y39429D01*
X10107Y39430D01*
X10095Y39431D01*
X10069Y39436D01*
X10039Y39443D01*
X10009Y39452D01*
X9981Y39465D01*
X9980Y39466D01*
X9977Y39467D01*
X9973Y39468D01*
X9969Y39472D01*
X9962Y39476D01*
X9955Y39480D01*
X9938Y39492D01*
X9920Y39508D01*
X9901Y39527D01*
X9883Y39548D01*
X9867Y39573D01*
X9866Y39574D01*
X9865Y39577D01*
X9863Y39580D01*
X9861Y39585D01*
X9858Y39592D01*
X9855Y39600D01*
X9851Y39609D01*
X9848Y39619D01*
X9844Y39630D01*
X9840Y39642D01*
X9835Y39668D01*
X9830Y39698D01*
X9828Y39728D01*
Y39737D01*
X9829Y39744D01*
X9830Y39752D01*
X9831Y39762D01*
X9832Y39773D01*
X9835Y39785D01*
X9840Y39810D01*
X9849Y39837D01*
X9854Y39851D01*
X9861Y39864D01*
X9869Y39877D01*
X9877Y39890D01*
X9878Y39891D01*
X9879Y39893D01*
X9882Y39896D01*
X9886Y39901D01*
X9891Y39906D01*
X9898Y39912D01*
X9905Y39919D01*
X9912Y39926D01*
X9922Y39933D01*
X9933Y39941D01*
X9944Y39949D01*
X9956Y39957D01*
X9970Y39963D01*
X9984Y39970D01*
X9998Y39976D01*
X10015Y39982D01*
X10034Y39898D01*
X10033D01*
X10032Y39897D01*
X10028Y39896D01*
X10023Y39894D01*
X10018Y39892D01*
X10010Y39889D01*
X9996Y39882D01*
X9979Y39872D01*
X9962Y39861D01*
X9947Y39847D01*
X9933Y39833D01*
X9931Y39831D01*
X9927Y39825D01*
X9923Y39816D01*
X9916Y39804D01*
X9911Y39788D01*
X9905Y39771D01*
X9901Y39749D01*
X9900Y39726D01*
Y39719D01*
X9901Y39714D01*
Y39708D01*
X9902Y39700D01*
X9905Y39683D01*
X9909Y39663D01*
X9915Y39643D01*
X9924Y39622D01*
X9936Y39602D01*
Y39602D01*
X9938Y39601D01*
X9943Y39594D01*
X9950Y39586D01*
X9961Y39576D01*
X9975Y39564D01*
X9991Y39553D01*
X10010Y39542D01*
X10032Y39533D01*
X10033D01*
X10034Y39532D01*
X10037Y39531D01*
X10042Y39530D01*
X10047Y39528D01*
X10054Y39527D01*
X10070Y39524D01*
X10088Y39520D01*
X10108Y39516D01*
X10131Y39515D01*
X10155Y39514D01*
X10156D01*
X10158D01*
X10163D01*
X10168D01*
X10175Y39515D01*
X10183D01*
X10193Y39516D01*
X10203Y39516D01*
X10225Y39519D01*
X10249Y39524D01*
X10273Y39529D01*
X10297Y39537D01*
X10298D01*
X10300Y39538D01*
X10303Y39540D01*
X10307Y39541D01*
X10318Y39547D01*
X10331Y39555D01*
X10346Y39565D01*
X10362Y39578D01*
X10376Y39593D01*
X10389Y39611D01*
Y39612D01*
X10389Y39614D01*
X10391Y39616D01*
X10393Y39620D01*
X10395Y39625D01*
X10398Y39630D01*
X10403Y39643D01*
X10409Y39660D01*
X10413Y39678D01*
X10417Y39699D01*
X10418Y39720D01*
Y39726D01*
X10417Y39732D01*
Y39738D01*
X10416Y39745D01*
X10413Y39761D01*
X10408Y39781D01*
X10401Y39800D01*
X10390Y39821D01*
X10385Y39831D01*
X10377Y39840D01*
X10376Y39841D01*
X10376Y39842D01*
X10373Y39845D01*
X10370Y39848D01*
X10365Y39852D01*
X10360Y39857D01*
X10354Y39862D01*
X10347Y39867D01*
X10339Y39872D01*
X10329Y39879D01*
X10320Y39884D01*
X10309Y39890D01*
X10297Y39895D01*
X10284Y39899D01*
X10270Y39904D01*
X10255Y39908D01*
X10277Y39993D01*
X10278D01*
X10281Y39992D01*
D02*
G37*
G36*
X29683Y48335D02*
X29690D01*
X29700Y48335D01*
X29710Y48334D01*
X29720Y48332D01*
X29744Y48329D01*
X29768Y48323D01*
X29793Y48315D01*
X29815Y48305D01*
X29816D01*
X29818Y48304D01*
X29821Y48302D01*
X29825Y48300D01*
X29835Y48293D01*
X29847Y48283D01*
X29860Y48270D01*
X29874Y48255D01*
X29886Y48237D01*
X29897Y48216D01*
Y48215D01*
X29898Y48214D01*
X29900Y48210D01*
X29900Y48205D01*
X29903Y48200D01*
X29905Y48192D01*
X29907Y48184D01*
X29909Y48174D01*
X29911Y48163D01*
X29914Y48151D01*
X29915Y48138D01*
X29917Y48124D01*
X29919Y48108D01*
X29920Y48091D01*
X29921Y48074D01*
Y48055D01*
Y47685D01*
X29836D01*
Y48055D01*
Y48055D01*
Y48058D01*
Y48063D01*
Y48068D01*
X29835Y48075D01*
Y48083D01*
X29835Y48092D01*
Y48101D01*
X29833Y48121D01*
X29830Y48142D01*
X29826Y48161D01*
X29824Y48170D01*
X29821Y48178D01*
Y48179D01*
X29820Y48180D01*
X29818Y48185D01*
X29815Y48191D01*
X29809Y48200D01*
X29801Y48210D01*
X29792Y48220D01*
X29781Y48230D01*
X29768Y48239D01*
X29767D01*
X29766Y48240D01*
X29761Y48242D01*
X29753Y48245D01*
X29742Y48249D01*
X29729Y48253D01*
X29713Y48256D01*
X29695Y48259D01*
X29675Y48260D01*
X29666D01*
X29660Y48259D01*
X29653Y48258D01*
X29644Y48257D01*
X29634Y48256D01*
X29624Y48255D01*
X29602Y48250D01*
X29580Y48242D01*
X29570Y48237D01*
X29560Y48231D01*
X29550Y48225D01*
X29542Y48218D01*
X29541Y48217D01*
X29540Y48215D01*
X29539Y48213D01*
X29535Y48210D01*
X29533Y48205D01*
X29530Y48198D01*
X29525Y48190D01*
X29522Y48181D01*
X29518Y48171D01*
X29515Y48160D01*
X29511Y48146D01*
X29508Y48131D01*
X29505Y48115D01*
X29504Y48096D01*
X29503Y48076D01*
X29502Y48055D01*
Y47685D01*
X29417D01*
Y48055D01*
Y48056D01*
Y48060D01*
Y48065D01*
Y48071D01*
X29418Y48080D01*
Y48089D01*
X29419Y48100D01*
X29420Y48110D01*
X29423Y48135D01*
X29426Y48161D01*
X29432Y48186D01*
X29435Y48198D01*
X29440Y48209D01*
Y48210D01*
X29441Y48211D01*
X29442Y48215D01*
X29444Y48218D01*
X29446Y48223D01*
X29450Y48229D01*
X29458Y48241D01*
X29469Y48256D01*
X29482Y48271D01*
X29499Y48287D01*
X29509Y48295D01*
X29519Y48301D01*
X29520D01*
X29521Y48303D01*
X29525Y48305D01*
X29529Y48307D01*
X29535Y48310D01*
X29541Y48312D01*
X29550Y48315D01*
X29559Y48319D01*
X29569Y48322D01*
X29580Y48325D01*
X29592Y48328D01*
X29605Y48330D01*
X29620Y48333D01*
X29635Y48335D01*
X29651Y48335D01*
X29668Y48336D01*
X29676D01*
X29683Y48335D01*
D02*
G37*
G36*
X29056Y48172D02*
X29334D01*
Y48100D01*
X29041Y47685D01*
X28977D01*
Y48100D01*
X28891D01*
Y48172D01*
X28977D01*
Y48325D01*
X29056D01*
Y48172D01*
D02*
G37*
G36*
X51702Y26554D02*
X51713D01*
X51725Y26553D01*
X51738Y26552D01*
X51768Y26549D01*
X51798Y26545D01*
X51828Y26539D01*
X51843Y26535D01*
X51856Y26531D01*
X51857D01*
X51859Y26530D01*
X51863Y26529D01*
X51868Y26527D01*
X51873Y26525D01*
X51880Y26521D01*
X51895Y26514D01*
X51913Y26504D01*
X51930Y26492D01*
X51948Y26478D01*
X51963Y26461D01*
Y26460D01*
X51964Y26460D01*
X51966Y26456D01*
X51968Y26453D01*
X51971Y26449D01*
X51974Y26443D01*
X51978Y26437D01*
X51981Y26430D01*
X51988Y26413D01*
X51994Y26393D01*
X51998Y26370D01*
X51999Y26358D01*
X52000Y26345D01*
Y26341D01*
X51999Y26336D01*
Y26330D01*
X51998Y26322D01*
X51997Y26314D01*
X51994Y26304D01*
X51992Y26293D01*
X51988Y26281D01*
X51984Y26270D01*
X51978Y26257D01*
X51973Y26245D01*
X51965Y26233D01*
X51956Y26221D01*
X51946Y26211D01*
X51934Y26200D01*
X51933Y26199D01*
X51930Y26197D01*
X51926Y26194D01*
X51919Y26190D01*
X51910Y26186D01*
X51899Y26180D01*
X51887Y26175D01*
X51872Y26169D01*
X51854Y26163D01*
X51835Y26157D01*
X51814Y26151D01*
X51790Y26147D01*
X51764Y26143D01*
X51737Y26140D01*
X51706Y26138D01*
X51673Y26137D01*
X51672D01*
X51668D01*
X51663D01*
X51654D01*
X51645Y26138D01*
X51634Y26139D01*
X51622D01*
X51608Y26141D01*
X51579Y26143D01*
X51548Y26147D01*
X51518Y26153D01*
X51504Y26156D01*
X51491Y26161D01*
X51490D01*
X51488Y26161D01*
X51484Y26163D01*
X51479Y26165D01*
X51473Y26167D01*
X51467Y26171D01*
X51451Y26178D01*
X51434Y26188D01*
X51416Y26200D01*
X51398Y26214D01*
X51383Y26230D01*
X51383Y26231D01*
X51382Y26232D01*
X51380Y26235D01*
X51378Y26238D01*
X51375Y26242D01*
X51372Y26248D01*
X51369Y26254D01*
X51364Y26261D01*
X51358Y26278D01*
X51352Y26298D01*
X51348Y26320D01*
X51346Y26333D01*
Y26354D01*
X51347Y26359D01*
Y26364D01*
X51349Y26376D01*
X51351Y26390D01*
X51355Y26405D01*
X51360Y26421D01*
X51367Y26436D01*
Y26437D01*
X51368Y26438D01*
X51371Y26443D01*
X51375Y26450D01*
X51382Y26459D01*
X51391Y26469D01*
X51401Y26480D01*
X51413Y26490D01*
X51427Y26500D01*
X51428D01*
X51428Y26501D01*
X51431Y26503D01*
X51433Y26505D01*
X51442Y26509D01*
X51453Y26515D01*
X51468Y26521D01*
X51483Y26528D01*
X51503Y26534D01*
X51523Y26540D01*
X51523D01*
X51525Y26540D01*
X51528Y26541D01*
X51533Y26542D01*
X51538Y26543D01*
X51545Y26545D01*
X51553Y26545D01*
X51563Y26547D01*
X51573Y26549D01*
X51584Y26550D01*
X51596Y26551D01*
X51610Y26552D01*
X51624Y26553D01*
X51639Y26554D01*
X51656Y26555D01*
X51673D01*
X51675D01*
X51678D01*
X51684D01*
X51693D01*
X51702Y26554D01*
D02*
G37*
G36*
X51989Y25857D02*
X51488D01*
X51489Y25856D01*
X51493Y25852D01*
X51498Y25846D01*
X51505Y25837D01*
X51513Y25826D01*
X51523Y25813D01*
X51533Y25799D01*
X51543Y25782D01*
Y25781D01*
X51543Y25781D01*
X51545Y25778D01*
X51547Y25775D01*
X51552Y25766D01*
X51558Y25755D01*
X51564Y25742D01*
X51571Y25728D01*
X51578Y25714D01*
X51583Y25700D01*
X51507D01*
Y25701D01*
X51505Y25703D01*
X51503Y25706D01*
X51501Y25711D01*
X51498Y25716D01*
X51494Y25723D01*
X51486Y25739D01*
X51475Y25756D01*
X51462Y25776D01*
X51448Y25796D01*
X51432Y25815D01*
X51431Y25816D01*
X51430Y25817D01*
X51428Y25820D01*
X51424Y25823D01*
X51416Y25831D01*
X51404Y25842D01*
X51392Y25853D01*
X51377Y25865D01*
X51362Y25876D01*
X51346Y25885D01*
Y25936D01*
X51989D01*
Y25857D01*
D02*
G37*
G36*
X51791Y25566D02*
X51797Y25564D01*
X51804Y25562D01*
X51813Y25559D01*
X51823Y25555D01*
X51833Y25551D01*
X51846Y25545D01*
X51858Y25539D01*
X51872Y25532D01*
X51884Y25524D01*
X51898Y25515D01*
X51911Y25506D01*
X51923Y25495D01*
X51935Y25483D01*
X51946Y25471D01*
X51947Y25470D01*
X51948Y25467D01*
X51951Y25464D01*
X51954Y25458D01*
X51958Y25452D01*
X51963Y25443D01*
X51968Y25434D01*
X51973Y25424D01*
X51978Y25412D01*
X51983Y25399D01*
X51988Y25385D01*
X51992Y25370D01*
X51995Y25354D01*
X51998Y25337D01*
X51999Y25320D01*
X52000Y25302D01*
Y25292D01*
X51999Y25284D01*
X51998Y25276D01*
X51998Y25265D01*
X51997Y25254D01*
X51995Y25242D01*
X51990Y25215D01*
X51983Y25187D01*
X51978Y25172D01*
X51972Y25158D01*
X51966Y25145D01*
X51958Y25132D01*
X51958Y25132D01*
X51957Y25130D01*
X51954Y25127D01*
X51950Y25122D01*
X51946Y25117D01*
X51941Y25110D01*
X51934Y25103D01*
X51927Y25096D01*
X51919Y25087D01*
X51910Y25080D01*
X51900Y25072D01*
X51888Y25063D01*
X51877Y25055D01*
X51864Y25047D01*
X51850Y25040D01*
X51836Y25033D01*
X51835D01*
X51833Y25032D01*
X51828Y25030D01*
X51822Y25028D01*
X51814Y25026D01*
X51806Y25022D01*
X51796Y25020D01*
X51784Y25017D01*
X51772Y25013D01*
X51758Y25011D01*
X51744Y25007D01*
X51730Y25005D01*
X51698Y25002D01*
X51664Y25000D01*
X51663D01*
X51660D01*
X51654D01*
X51648Y25001D01*
X51638D01*
X51628Y25002D01*
X51618Y25003D01*
X51605Y25005D01*
X51592Y25007D01*
X51578Y25009D01*
X51548Y25016D01*
X51519Y25025D01*
X51504Y25031D01*
X51490Y25037D01*
X51489Y25038D01*
X51487Y25039D01*
X51483Y25042D01*
X51478Y25045D01*
X51472Y25048D01*
X51464Y25053D01*
X51457Y25059D01*
X51448Y25066D01*
X51429Y25081D01*
X51411Y25100D01*
X51393Y25122D01*
X51384Y25134D01*
X51377Y25147D01*
X51376Y25147D01*
X51375Y25150D01*
X51374Y25154D01*
X51371Y25159D01*
X51368Y25166D01*
X51364Y25173D01*
X51361Y25182D01*
X51357Y25192D01*
X51354Y25204D01*
X51350Y25216D01*
X51344Y25242D01*
X51339Y25272D01*
X51338Y25287D01*
Y25312D01*
X51339Y25318D01*
X51339Y25327D01*
X51340Y25337D01*
X51342Y25347D01*
X51344Y25359D01*
X51349Y25384D01*
X51354Y25397D01*
X51359Y25412D01*
X51364Y25425D01*
X51370Y25438D01*
X51379Y25452D01*
X51387Y25464D01*
X51388Y25465D01*
X51389Y25467D01*
X51392Y25471D01*
X51396Y25475D01*
X51401Y25480D01*
X51407Y25487D01*
X51414Y25493D01*
X51423Y25501D01*
X51432Y25508D01*
X51442Y25516D01*
X51453Y25523D01*
X51465Y25531D01*
X51478Y25538D01*
X51493Y25545D01*
X51508Y25552D01*
X51524Y25557D01*
X51544Y25473D01*
X51543D01*
X51541Y25472D01*
X51538Y25471D01*
X51533Y25469D01*
X51527Y25467D01*
X51520Y25464D01*
X51505Y25457D01*
X51488Y25447D01*
X51472Y25437D01*
X51456Y25423D01*
X51449Y25416D01*
X51443Y25408D01*
Y25407D01*
X51441Y25407D01*
X51439Y25404D01*
X51438Y25401D01*
X51435Y25397D01*
X51433Y25392D01*
X51426Y25379D01*
X51420Y25363D01*
X51415Y25345D01*
X51412Y25324D01*
X51410Y25301D01*
Y25293D01*
X51411Y25288D01*
Y25282D01*
X51412Y25275D01*
X51413Y25267D01*
X51414Y25257D01*
X51418Y25238D01*
X51425Y25217D01*
X51434Y25197D01*
X51439Y25187D01*
X51446Y25177D01*
Y25176D01*
X51448Y25174D01*
X51449Y25172D01*
X51453Y25168D01*
X51460Y25160D01*
X51471Y25150D01*
X51484Y25138D01*
X51501Y25127D01*
X51519Y25116D01*
X51541Y25107D01*
X51542D01*
X51543Y25107D01*
X51547Y25106D01*
X51551Y25104D01*
X51557Y25102D01*
X51563Y25101D01*
X51571Y25099D01*
X51578Y25097D01*
X51598Y25094D01*
X51618Y25091D01*
X51641Y25088D01*
X51664Y25087D01*
X51665D01*
X51668D01*
X51672D01*
X51678D01*
X51685Y25088D01*
X51693Y25089D01*
X51703D01*
X51713Y25091D01*
X51735Y25093D01*
X51758Y25097D01*
X51783Y25103D01*
X51807Y25111D01*
X51808D01*
X51809Y25112D01*
X51813Y25113D01*
X51817Y25116D01*
X51822Y25118D01*
X51828Y25121D01*
X51841Y25129D01*
X51856Y25140D01*
X51871Y25152D01*
X51885Y25167D01*
X51898Y25185D01*
Y25186D01*
X51899Y25187D01*
X51900Y25190D01*
X51903Y25194D01*
X51904Y25198D01*
X51907Y25204D01*
X51913Y25217D01*
X51918Y25234D01*
X51923Y25252D01*
X51926Y25272D01*
X51928Y25294D01*
Y25301D01*
X51927Y25306D01*
X51926Y25312D01*
X51925Y25319D01*
X51924Y25327D01*
X51923Y25336D01*
X51918Y25355D01*
X51910Y25375D01*
X51906Y25386D01*
X51900Y25396D01*
X51894Y25406D01*
X51887Y25415D01*
X51886Y25416D01*
X51885Y25417D01*
X51883Y25420D01*
X51879Y25423D01*
X51875Y25427D01*
X51869Y25432D01*
X51863Y25437D01*
X51856Y25442D01*
X51848Y25447D01*
X51839Y25453D01*
X51829Y25458D01*
X51818Y25464D01*
X51806Y25469D01*
X51793Y25474D01*
X51780Y25478D01*
X51765Y25482D01*
X51787Y25567D01*
X51788D01*
X51791Y25566D01*
D02*
G37*
G36*
X7787Y26063D02*
X7794Y26062D01*
X7803Y26061D01*
X7813Y26060D01*
X7823Y26057D01*
X7848Y26051D01*
X7860Y26047D01*
X7873Y26042D01*
X7885Y26036D01*
X7898Y26030D01*
X7910Y26022D01*
X7923Y26013D01*
X7923Y26012D01*
X7926Y26011D01*
X7930Y26006D01*
X7934Y26001D01*
X7941Y25996D01*
X7947Y25988D01*
X7954Y25979D01*
X7961Y25969D01*
X7968Y25957D01*
X7976Y25945D01*
X7982Y25931D01*
X7988Y25916D01*
X7993Y25900D01*
X7997Y25882D01*
X7999Y25864D01*
X8000Y25845D01*
Y25836D01*
X7999Y25831D01*
X7998Y25823D01*
X7998Y25814D01*
X7996Y25805D01*
X7994Y25794D01*
X7988Y25771D01*
X7984Y25760D01*
X7979Y25748D01*
X7974Y25736D01*
X7968Y25724D01*
X7960Y25713D01*
X7952Y25702D01*
X7951Y25701D01*
X7949Y25700D01*
X7947Y25697D01*
X7943Y25694D01*
X7938Y25689D01*
X7932Y25685D01*
X7925Y25679D01*
X7917Y25674D01*
X7908Y25668D01*
X7898Y25663D01*
X7888Y25657D01*
X7876Y25653D01*
X7863Y25648D01*
X7851Y25645D01*
X7837Y25641D01*
X7822Y25640D01*
X7816Y25722D01*
X7817D01*
X7818Y25723D01*
X7822D01*
X7826Y25724D01*
X7831Y25726D01*
X7837Y25727D01*
X7849Y25731D01*
X7864Y25736D01*
X7879Y25744D01*
X7893Y25753D01*
X7906Y25764D01*
X7907Y25766D01*
X7910Y25770D01*
X7915Y25777D01*
X7920Y25786D01*
X7926Y25798D01*
X7930Y25812D01*
X7933Y25827D01*
X7935Y25845D01*
Y25851D01*
X7934Y25855D01*
X7933Y25859D01*
X7933Y25865D01*
X7930Y25878D01*
X7925Y25894D01*
X7917Y25910D01*
X7913Y25918D01*
X7907Y25926D01*
X7900Y25934D01*
X7893Y25941D01*
X7892Y25942D01*
X7891Y25943D01*
X7888Y25945D01*
X7885Y25947D01*
X7881Y25951D01*
X7875Y25954D01*
X7869Y25957D01*
X7863Y25961D01*
X7846Y25968D01*
X7827Y25975D01*
X7804Y25979D01*
X7793Y25981D01*
X7779D01*
X7778D01*
X7776D01*
X7773D01*
X7768Y25980D01*
X7763D01*
X7756Y25979D01*
X7741Y25976D01*
X7723Y25971D01*
X7706Y25965D01*
X7688Y25956D01*
X7680Y25950D01*
X7673Y25943D01*
X7672D01*
X7671Y25941D01*
X7669Y25939D01*
X7667Y25936D01*
X7660Y25928D01*
X7653Y25916D01*
X7646Y25902D01*
X7639Y25886D01*
X7635Y25866D01*
X7633Y25856D01*
Y25837D01*
X7634Y25831D01*
X7636Y25821D01*
X7638Y25811D01*
X7641Y25799D01*
X7646Y25786D01*
X7652Y25775D01*
X7653Y25773D01*
X7655Y25770D01*
X7658Y25765D01*
X7664Y25758D01*
X7670Y25751D01*
X7678Y25742D01*
X7687Y25735D01*
X7697Y25728D01*
X7686Y25654D01*
X7357Y25716D01*
Y26034D01*
X7432D01*
Y25778D01*
X7605Y25744D01*
X7604Y25745D01*
X7603Y25746D01*
X7601Y25750D01*
X7598Y25754D01*
X7596Y25759D01*
X7592Y25766D01*
X7588Y25772D01*
X7584Y25781D01*
X7577Y25799D01*
X7571Y25819D01*
X7566Y25841D01*
X7565Y25853D01*
X7564Y25865D01*
Y25873D01*
X7565Y25879D01*
X7566Y25886D01*
X7568Y25894D01*
X7569Y25903D01*
X7572Y25914D01*
X7574Y25925D01*
X7578Y25936D01*
X7583Y25947D01*
X7588Y25960D01*
X7596Y25971D01*
X7603Y25983D01*
X7613Y25995D01*
X7623Y26006D01*
X7623Y26006D01*
X7625Y26008D01*
X7628Y26011D01*
X7633Y26015D01*
X7639Y26019D01*
X7646Y26024D01*
X7654Y26030D01*
X7663Y26035D01*
X7673Y26041D01*
X7685Y26046D01*
X7697Y26051D01*
X7710Y26055D01*
X7725Y26059D01*
X7740Y26061D01*
X7756Y26063D01*
X7773Y26064D01*
X7773D01*
X7777D01*
X7781D01*
X7787Y26063D01*
D02*
G37*
G36*
X7791Y25566D02*
X7797Y25564D01*
X7804Y25562D01*
X7813Y25559D01*
X7823Y25555D01*
X7833Y25551D01*
X7846Y25545D01*
X7858Y25539D01*
X7872Y25532D01*
X7884Y25524D01*
X7898Y25515D01*
X7911Y25506D01*
X7923Y25495D01*
X7935Y25483D01*
X7946Y25471D01*
X7947Y25470D01*
X7948Y25467D01*
X7951Y25464D01*
X7954Y25458D01*
X7958Y25452D01*
X7963Y25443D01*
X7968Y25434D01*
X7973Y25424D01*
X7978Y25412D01*
X7983Y25399D01*
X7988Y25385D01*
X7992Y25370D01*
X7995Y25354D01*
X7998Y25337D01*
X7999Y25320D01*
X8000Y25302D01*
Y25292D01*
X7999Y25284D01*
X7998Y25276D01*
X7998Y25265D01*
X7997Y25254D01*
X7995Y25242D01*
X7990Y25215D01*
X7983Y25187D01*
X7978Y25172D01*
X7972Y25158D01*
X7966Y25145D01*
X7958Y25132D01*
X7958Y25132D01*
X7957Y25130D01*
X7954Y25127D01*
X7950Y25122D01*
X7946Y25117D01*
X7941Y25110D01*
X7934Y25103D01*
X7927Y25096D01*
X7919Y25087D01*
X7910Y25080D01*
X7900Y25072D01*
X7888Y25063D01*
X7877Y25055D01*
X7864Y25047D01*
X7850Y25040D01*
X7836Y25033D01*
X7835D01*
X7833Y25032D01*
X7828Y25030D01*
X7822Y25028D01*
X7814Y25026D01*
X7806Y25022D01*
X7796Y25020D01*
X7784Y25017D01*
X7772Y25013D01*
X7758Y25011D01*
X7744Y25007D01*
X7730Y25005D01*
X7698Y25002D01*
X7664Y25000D01*
X7663D01*
X7660D01*
X7654D01*
X7648Y25001D01*
X7638D01*
X7628Y25002D01*
X7618Y25003D01*
X7605Y25005D01*
X7592Y25007D01*
X7578Y25009D01*
X7548Y25016D01*
X7519Y25025D01*
X7504Y25031D01*
X7490Y25037D01*
X7489Y25038D01*
X7487Y25039D01*
X7483Y25042D01*
X7478Y25045D01*
X7472Y25048D01*
X7464Y25053D01*
X7457Y25059D01*
X7448Y25066D01*
X7429Y25081D01*
X7411Y25100D01*
X7393Y25122D01*
X7384Y25134D01*
X7377Y25147D01*
X7376Y25147D01*
X7375Y25150D01*
X7373Y25154D01*
X7371Y25159D01*
X7368Y25166D01*
X7364Y25173D01*
X7361Y25182D01*
X7357Y25192D01*
X7354Y25204D01*
X7350Y25216D01*
X7344Y25242D01*
X7339Y25272D01*
X7338Y25287D01*
Y25312D01*
X7339Y25318D01*
X7339Y25327D01*
X7340Y25337D01*
X7342Y25347D01*
X7344Y25359D01*
X7349Y25384D01*
X7354Y25397D01*
X7359Y25412D01*
X7364Y25425D01*
X7370Y25438D01*
X7378Y25452D01*
X7387Y25464D01*
X7388Y25465D01*
X7389Y25467D01*
X7392Y25471D01*
X7396Y25475D01*
X7401Y25480D01*
X7407Y25487D01*
X7414Y25493D01*
X7423Y25501D01*
X7432Y25508D01*
X7442Y25516D01*
X7453Y25523D01*
X7465Y25531D01*
X7478Y25538D01*
X7493Y25545D01*
X7508Y25552D01*
X7524Y25557D01*
X7544Y25473D01*
X7543D01*
X7541Y25472D01*
X7538Y25471D01*
X7533Y25469D01*
X7527Y25467D01*
X7520Y25464D01*
X7505Y25457D01*
X7488Y25447D01*
X7472Y25437D01*
X7456Y25423D01*
X7449Y25416D01*
X7443Y25408D01*
Y25407D01*
X7441Y25407D01*
X7439Y25404D01*
X7438Y25401D01*
X7435Y25397D01*
X7433Y25392D01*
X7426Y25379D01*
X7420Y25363D01*
X7415Y25345D01*
X7412Y25324D01*
X7410Y25301D01*
Y25293D01*
X7411Y25288D01*
Y25282D01*
X7412Y25275D01*
X7413Y25267D01*
X7414Y25257D01*
X7418Y25238D01*
X7425Y25217D01*
X7434Y25197D01*
X7439Y25187D01*
X7446Y25177D01*
Y25176D01*
X7448Y25174D01*
X7449Y25172D01*
X7453Y25168D01*
X7460Y25160D01*
X7471Y25150D01*
X7484Y25138D01*
X7501Y25127D01*
X7519Y25116D01*
X7541Y25107D01*
X7542D01*
X7543Y25107D01*
X7547Y25106D01*
X7551Y25104D01*
X7557Y25102D01*
X7563Y25101D01*
X7571Y25099D01*
X7578Y25097D01*
X7598Y25094D01*
X7618Y25091D01*
X7641Y25088D01*
X7664Y25087D01*
X7665D01*
X7668D01*
X7672D01*
X7678D01*
X7685Y25088D01*
X7693Y25089D01*
X7703D01*
X7713Y25091D01*
X7735Y25093D01*
X7758Y25097D01*
X7783Y25103D01*
X7807Y25111D01*
X7808D01*
X7809Y25112D01*
X7813Y25113D01*
X7817Y25116D01*
X7822Y25118D01*
X7828Y25121D01*
X7841Y25129D01*
X7856Y25140D01*
X7871Y25152D01*
X7885Y25167D01*
X7898Y25185D01*
Y25186D01*
X7899Y25187D01*
X7900Y25190D01*
X7903Y25194D01*
X7904Y25198D01*
X7907Y25204D01*
X7913Y25217D01*
X7918Y25234D01*
X7923Y25252D01*
X7926Y25272D01*
X7928Y25294D01*
Y25301D01*
X7927Y25306D01*
X7926Y25312D01*
X7925Y25319D01*
X7924Y25327D01*
X7923Y25336D01*
X7918Y25355D01*
X7910Y25375D01*
X7906Y25386D01*
X7900Y25396D01*
X7894Y25406D01*
X7887Y25415D01*
X7886Y25416D01*
X7885Y25417D01*
X7883Y25420D01*
X7879Y25423D01*
X7875Y25427D01*
X7869Y25432D01*
X7863Y25437D01*
X7856Y25442D01*
X7848Y25447D01*
X7839Y25453D01*
X7829Y25458D01*
X7818Y25464D01*
X7806Y25469D01*
X7793Y25474D01*
X7780Y25478D01*
X7765Y25482D01*
X7787Y25567D01*
X7788D01*
X7791Y25566D01*
D02*
G37*
%LPC*%
G36*
X29257Y48100D02*
X29056D01*
Y47811D01*
X29257Y48100D01*
D02*
G37*
G36*
X51702Y26474D02*
X51673D01*
X51673D01*
X51672D01*
X51667D01*
X51658D01*
X51648Y26473D01*
X51635D01*
X51621Y26472D01*
X51604Y26470D01*
X51588Y26469D01*
X51553Y26465D01*
X51535Y26461D01*
X51518Y26458D01*
X51502Y26454D01*
X51488Y26449D01*
X51474Y26443D01*
X51463Y26436D01*
X51463D01*
X51461Y26435D01*
X51458Y26433D01*
X51455Y26430D01*
X51447Y26422D01*
X51437Y26411D01*
X51428Y26398D01*
X51419Y26382D01*
X51416Y26374D01*
X51413Y26365D01*
X51412Y26355D01*
X51411Y26345D01*
Y26340D01*
X51412Y26335D01*
X51413Y26325D01*
X51417Y26314D01*
X51423Y26300D01*
X51431Y26285D01*
X51436Y26278D01*
X51442Y26271D01*
X51449Y26265D01*
X51458Y26258D01*
X51458Y26257D01*
X51460Y26256D01*
X51464Y26255D01*
X51469Y26252D01*
X51476Y26249D01*
X51484Y26246D01*
X51494Y26242D01*
X51507Y26238D01*
X51520Y26235D01*
X51536Y26231D01*
X51553Y26227D01*
X51573Y26225D01*
X51595Y26221D01*
X51619Y26220D01*
X51645Y26219D01*
X51673Y26218D01*
X51674D01*
X51675D01*
X51680D01*
X51688D01*
X51699Y26219D01*
X51712D01*
X51726Y26220D01*
X51742Y26221D01*
X51759Y26223D01*
X51794Y26227D01*
X51812Y26230D01*
X51828Y26234D01*
X51845Y26238D01*
X51859Y26243D01*
X51873Y26248D01*
X51883Y26255D01*
X51884Y26256D01*
X51886Y26256D01*
X51888Y26259D01*
X51892Y26261D01*
X51900Y26269D01*
X51909Y26280D01*
X51918Y26293D01*
X51927Y26309D01*
X51930Y26317D01*
X51933Y26326D01*
X51934Y26335D01*
X51935Y26345D01*
Y26350D01*
X51934Y26355D01*
X51933Y26359D01*
X51933Y26365D01*
X51928Y26377D01*
X51923Y26391D01*
X51918Y26399D01*
X51913Y26406D01*
X51908Y26415D01*
X51900Y26422D01*
X51893Y26430D01*
X51883Y26436D01*
X51883Y26437D01*
X51881Y26438D01*
X51878Y26440D01*
X51873Y26442D01*
X51867Y26445D01*
X51858Y26448D01*
X51849Y26451D01*
X51838Y26455D01*
X51824Y26459D01*
X51809Y26462D01*
X51792Y26465D01*
X51773Y26468D01*
X51751Y26470D01*
X51728Y26472D01*
X51702Y26474D01*
D02*
G37*
%LPD*%
D41*
X5990Y33627D02*
Y45227D01*
X14990D01*
Y33627D02*
Y45227D01*
X5990Y33627D02*
X14990D01*
X26346Y45586D02*
X33496D01*
X26346D02*
Y51086D01*
X33496D01*
Y45586D02*
Y51086D01*
X47500Y19200D02*
X56500D01*
Y30800D01*
X47500D02*
X56500D01*
X47500Y19200D02*
Y30800D01*
X3500Y19200D02*
Y30800D01*
X12500D01*
Y19200D02*
Y30800D01*
X3500Y19200D02*
X12500D01*
D58*
X0Y-9D02*
Y54991D01*
X60000D01*
Y-9D02*
Y54991D01*
X0Y-9D02*
X60000D01*
D67*
X53420Y32246D02*
Y46596D01*
X54507D01*
X56007D02*
X57095D01*
X54507D02*
X56007D01*
X57095Y32246D02*
Y46596D01*
X53420Y32246D02*
X57095D01*
X4517Y29807D02*
Y44157D01*
X3430Y29807D02*
X4517D01*
X842D02*
X1930D01*
X3430D01*
X842D02*
Y44157D01*
X4517D01*
X54895Y38496D02*
X55362D01*
X55595Y38729D01*
X55362Y38963D01*
X54895D01*
Y39196D02*
X55595D01*
Y39546D01*
X55478Y39662D01*
X55012D01*
X54895Y39546D01*
Y39196D01*
X55595Y40362D02*
Y39896D01*
X55128Y40362D01*
X55012D01*
X54895Y40246D01*
Y40012D01*
X55012Y39896D01*
X3042Y37907D02*
X2576D01*
X2342Y37674D01*
X2576Y37440D01*
X3042D01*
Y37207D02*
X2342D01*
Y36857D01*
X2459Y36741D01*
X2926D01*
X3042Y36857D01*
Y37207D01*
X2342Y36507D02*
Y36274D01*
Y36391D01*
X3042D01*
X2926Y36507D01*
D68*
X55283Y34321D02*
D03*
X2655Y42082D02*
D03*
%TF.MD5,c11a0fc644341a993d613117857bf205*%
M02*
