%TF.GenerationSoftware,Altium Limited,Altium Designer,24.3.1 (35)*%
G04 Layer_Color=8421504*
%FSLAX43Y43*%
%MOMM*%
%TF.SameCoordinates,9DAA59CA-406A-4E62-98C5-13318CB5E6F2*%
%TF.FilePolarity,Positive*%
%TF.FileFunction,Paste,Top*%
%TF.Part,Single*%
G01*
G75*
%TA.AperFunction,SMDPad,CuDef*%
%ADD11R,2.000X4.000*%
G04:AMPARAMS|DCode=12|XSize=1.55mm|YSize=0.6mm|CornerRadius=0.051mm|HoleSize=0mm|Usage=FLASHONLY|Rotation=180.000|XOffset=0mm|YOffset=0mm|HoleType=Round|Shape=RoundedRectangle|*
%AMROUNDEDRECTD12*
21,1,1.550,0.498,0,0,180.0*
21,1,1.448,0.600,0,0,180.0*
1,1,0.102,-0.724,0.249*
1,1,0.102,0.724,0.249*
1,1,0.102,0.724,-0.249*
1,1,0.102,-0.724,-0.249*
%
%ADD12ROUNDEDRECTD12*%
%ADD13R,7.500X3.000*%
G04:AMPARAMS|DCode=14|XSize=0.6mm|YSize=1.45mm|CornerRadius=0.051mm|HoleSize=0mm|Usage=FLASHONLY|Rotation=90.000|XOffset=0mm|YOffset=0mm|HoleType=Round|Shape=RoundedRectangle|*
%AMROUNDEDRECTD14*
21,1,0.600,1.348,0,0,90.0*
21,1,0.498,1.450,0,0,90.0*
1,1,0.102,0.674,0.249*
1,1,0.102,0.674,-0.249*
1,1,0.102,-0.674,-0.249*
1,1,0.102,-0.674,0.249*
%
%ADD14ROUNDEDRECTD14*%
%ADD15R,1.780X0.720*%
%ADD16R,2.500X1.700*%
%ADD17R,0.950X0.900*%
D11*
X10490Y35877D02*
D03*
Y42977D02*
D03*
X52000Y28550D02*
D03*
Y21450D02*
D03*
X8000D02*
D03*
Y28550D02*
D03*
D12*
X32621Y46431D02*
D03*
Y47701D02*
D03*
Y48971D02*
D03*
Y50241D02*
D03*
X27221D02*
D03*
Y48971D02*
D03*
Y47701D02*
D03*
Y46431D02*
D03*
D13*
X48768Y41525D02*
D03*
Y36525D02*
D03*
D14*
X38539Y27051D02*
D03*
Y28321D02*
D03*
Y29591D02*
D03*
Y30861D02*
D03*
Y32131D02*
D03*
Y33401D02*
D03*
Y34671D02*
D03*
Y35941D02*
D03*
X33089Y27051D02*
D03*
Y28321D02*
D03*
Y29591D02*
D03*
Y30861D02*
D03*
Y32131D02*
D03*
Y33401D02*
D03*
Y34671D02*
D03*
Y35941D02*
D03*
D15*
X18285Y13513D02*
D03*
Y12243D02*
D03*
Y10973D02*
D03*
Y9703D02*
D03*
X22965Y13513D02*
D03*
Y12243D02*
D03*
Y10973D02*
D03*
Y9703D02*
D03*
X40542D02*
D03*
Y10973D02*
D03*
Y12243D02*
D03*
Y13513D02*
D03*
X35862Y9703D02*
D03*
Y10973D02*
D03*
Y12243D02*
D03*
Y13513D02*
D03*
D16*
X40075Y16815D02*
D03*
X36075D02*
D03*
X18803Y16840D02*
D03*
X22803D02*
D03*
D17*
X19380Y41097D02*
D03*
X19380Y44247D02*
D03*
X38354Y41122D02*
D03*
X38354Y44272D02*
D03*
%TF.MD5,592d542f5fecba09cc2f528f980f9177*%
M02*
