%TF.GenerationSoftware,Altium Limited,Altium Designer,24.3.1 (35)*%
G04 Layer_Color=16711935*
%FSLAX43Y43*%
%MOMM*%
%TF.SameCoordinates,9DAA59CA-406A-4E62-98C5-13318CB5E6F2*%
%TF.FilePolarity,Positive*%
%TF.FileFunction,Other,Bottom_Component_Center*%
%TF.Part,Single*%
G01*
G75*
%TA.AperFunction,NonConductor*%
%ADD67C,0.100*%
D67*
X20176Y34849D02*
X21176D01*
X20676Y34349D02*
Y35349D01*
X15553Y35357D02*
X16553D01*
X16053Y34857D02*
Y35857D01*
Y41639D02*
Y42639D01*
X15553Y42139D02*
X16553D01*
X30074Y46058D02*
Y47058D01*
X29574Y46558D02*
X30574D01*
X13572Y35128D02*
X14572D01*
X14072Y34628D02*
Y35628D01*
X49378Y15680D02*
Y16680D01*
X48878Y16180D02*
X49878D01*
X24798Y8433D02*
X25798D01*
X25298Y7933D02*
Y8933D01*
X8763Y38667D02*
Y39667D01*
X8263Y39167D02*
X9263D01*
X8128Y34222D02*
Y35222D01*
X7628Y34722D02*
X8628D01*
X22208Y28118D02*
X23208D01*
X22708Y27618D02*
Y28618D01*
X31910Y33655D02*
X32910D01*
X32410Y33155D02*
Y34155D01*
X34519Y29040D02*
Y30040D01*
X34019Y29540D02*
X35019D01*
X36406Y24587D02*
X37406D01*
X36906Y24087D02*
Y25087D01*
X11921Y18974D02*
X12921D01*
X12421Y18474D02*
Y19474D01*
X11921Y16942D02*
X12921D01*
X12421Y16442D02*
Y17442D01*
X16307Y7857D02*
Y8857D01*
X15807Y8357D02*
X16807D01*
X29362Y7806D02*
Y8806D01*
X28862Y8306D02*
X29862D01*
X48878Y12979D02*
X49878D01*
X49378Y12479D02*
Y13479D01*
X25230Y39776D02*
X26230D01*
X25730Y39276D02*
Y40276D01*
X24841Y27491D02*
Y28491D01*
X24341Y27991D02*
X25341D01*
X41199Y25560D02*
Y26560D01*
X40699Y26060D02*
X41699D01*
X32385Y28761D02*
Y29761D01*
X31885Y29261D02*
X32885D01*
X36601Y28735D02*
Y29735D01*
X36101Y29235D02*
X37101D01*
X26822Y33358D02*
Y34358D01*
X26322Y33858D02*
X27322D01*
X18999Y38489D02*
Y39489D01*
X18499Y38989D02*
X19499D01*
X19050Y34323D02*
Y35323D01*
X18550Y34823D02*
X19550D01*
X14199Y38794D02*
Y39794D01*
X13699Y39294D02*
X14699D01*
X10566Y35238D02*
Y36238D01*
X10066Y35738D02*
X11066D01*
X10592Y38667D02*
Y39667D01*
X10092Y39167D02*
X11092D01*
X15900Y47938D02*
Y48938D01*
X15400Y48438D02*
X16400D01*
X17882Y48141D02*
Y49141D01*
X17382Y48641D02*
X18382D01*
X19888Y48166D02*
Y49166D01*
X19388Y48666D02*
X20388D01*
X21946Y43620D02*
Y44620D01*
X21446Y44120D02*
X22446D01*
X27719Y44221D02*
X28719D01*
X28219Y43721D02*
Y44721D01*
X31301Y44221D02*
X32301D01*
X31801Y43721D02*
Y44721D01*
X36889Y46634D02*
X37889D01*
X37389Y46134D02*
Y47134D01*
X33892Y49022D02*
X34892D01*
X34392Y48522D02*
Y49522D01*
X39911Y49301D02*
X40911D01*
X40411Y48801D02*
Y49801D01*
X39861Y51333D02*
X40861D01*
X40361Y50833D02*
Y51833D01*
X32037Y35662D02*
X33037D01*
X32537Y35162D02*
Y36162D01*
X12497Y7806D02*
Y8806D01*
X11997Y8306D02*
X12997D01*
%TF.MD5,d3db923b6aab8169e9a05c80377fabc0*%
M02*
