%TF.GenerationSoftware,Altium Limited,Altium Designer,24.3.1 (35)*%
G04 Layer_Physical_Order=1*
G04 Layer_Color=255*
%FSLAX43Y43*%
%MOMM*%
%TF.SameCoordinates,9DAA59CA-406A-4E62-98C5-13318CB5E6F2*%
%TF.FilePolarity,Positive*%
%TF.FileFunction,Copper,L1,Top,Signal*%
%TF.Part,Single*%
G01*
G75*
%TA.AperFunction,Conductor*%
%ADD10C,0.600*%
%TA.AperFunction,SMDPad,CuDef*%
%ADD11R,2.000X4.000*%
G04:AMPARAMS|DCode=12|XSize=1.55mm|YSize=0.6mm|CornerRadius=0.051mm|HoleSize=0mm|Usage=FLASHONLY|Rotation=180.000|XOffset=0mm|YOffset=0mm|HoleType=Round|Shape=RoundedRectangle|*
%AMROUNDEDRECTD12*
21,1,1.550,0.498,0,0,180.0*
21,1,1.448,0.600,0,0,180.0*
1,1,0.102,-0.724,0.249*
1,1,0.102,0.724,0.249*
1,1,0.102,0.724,-0.249*
1,1,0.102,-0.724,-0.249*
%
%ADD12ROUNDEDRECTD12*%
%ADD13R,7.500X3.000*%
G04:AMPARAMS|DCode=14|XSize=0.6mm|YSize=1.45mm|CornerRadius=0.051mm|HoleSize=0mm|Usage=FLASHONLY|Rotation=90.000|XOffset=0mm|YOffset=0mm|HoleType=Round|Shape=RoundedRectangle|*
%AMROUNDEDRECTD14*
21,1,0.600,1.348,0,0,90.0*
21,1,0.498,1.450,0,0,90.0*
1,1,0.102,0.674,0.249*
1,1,0.102,0.674,-0.249*
1,1,0.102,-0.674,-0.249*
1,1,0.102,-0.674,0.249*
%
%ADD14ROUNDEDRECTD14*%
%ADD15R,1.780X0.720*%
%ADD16R,2.500X1.700*%
%ADD17R,0.950X0.900*%
%TA.AperFunction,Conductor*%
%ADD18C,0.600*%
%ADD19C,1.000*%
%ADD20C,0.800*%
%ADD21C,0.500*%
%TA.AperFunction,ComponentPad*%
%ADD22O,3.000X3.100*%
%ADD23C,2.286*%
%ADD24C,1.400*%
%ADD25R,1.400X1.400*%
%ADD26C,1.650*%
G04:AMPARAMS|DCode=27|XSize=1.65mm|YSize=1.65mm|CornerRadius=0.413mm|HoleSize=0mm|Usage=FLASHONLY|Rotation=0.000|XOffset=0mm|YOffset=0mm|HoleType=Round|Shape=RoundedRectangle|*
%AMROUNDEDRECTD27*
21,1,1.650,0.825,0,0,0.0*
21,1,0.825,1.650,0,0,0.0*
1,1,0.825,0.413,-0.413*
1,1,0.825,-0.413,-0.413*
1,1,0.825,-0.413,0.413*
1,1,0.825,0.413,0.413*
%
%ADD27ROUNDEDRECTD27*%
%TA.AperFunction,ViaPad*%
%ADD28C,0.800*%
%ADD29C,1.270*%
G36*
X17165Y54485D02*
X17076Y54425D01*
X17076Y54425D01*
X14269Y51619D01*
X11911D01*
X11885Y51746D01*
X12323Y51927D01*
X12716Y52320D01*
X12929Y52834D01*
Y53389D01*
X12716Y53903D01*
X12323Y54296D01*
X11867Y54485D01*
X11892Y54612D01*
X17126Y54612D01*
X17165Y54485D01*
D02*
G37*
G36*
X57000Y54611D02*
X57676Y54522D01*
X58306Y54261D01*
X58847Y53847D01*
X59261Y53306D01*
X59522Y52676D01*
X59611Y52000D01*
X59612D01*
X59612Y3127D01*
X59611Y3000D01*
X59611Y3000D01*
X59611Y3000D01*
X59522Y2324D01*
X59261Y1694D01*
X58847Y1153D01*
X58306Y739D01*
X57676Y478D01*
X57000Y389D01*
X57000Y389D01*
Y389D01*
X56972Y388D01*
X3127Y388D01*
X3000Y389D01*
X3000Y389D01*
X3000Y389D01*
X2324Y478D01*
X1694Y739D01*
X1153Y1153D01*
X739Y1694D01*
X478Y2324D01*
X389Y3000D01*
X389Y3000D01*
X389D01*
X388Y3127D01*
X388Y52000D01*
X389D01*
X478Y52676D01*
X739Y53306D01*
X1153Y53847D01*
X1694Y54261D01*
X2324Y54522D01*
X3000Y54611D01*
Y54612D01*
X11171D01*
X11196Y54485D01*
X10740Y54296D01*
X10347Y53903D01*
X10135Y53389D01*
Y52834D01*
X10347Y52320D01*
X10740Y51927D01*
X11178Y51746D01*
X11153Y51619D01*
X8331D01*
X8331Y51619D01*
X8115Y51576D01*
X7932Y51453D01*
X7932Y51453D01*
X2293Y45815D01*
X2171Y45631D01*
X2128Y45415D01*
X2128Y45415D01*
Y44672D01*
X1808Y44539D01*
X1441Y44258D01*
X1160Y43892D01*
X984Y43465D01*
X923Y43007D01*
Y42907D01*
X984Y42449D01*
X1160Y42022D01*
X1441Y41656D01*
X1808Y41375D01*
X2235Y41198D01*
X2692Y41138D01*
X3150Y41198D01*
X3577Y41375D01*
X3943Y41656D01*
X4225Y42022D01*
X4378Y42392D01*
X9236D01*
Y40723D01*
X11744D01*
Y42463D01*
X17003D01*
X17218Y42374D01*
X17478D01*
X17602Y42425D01*
X22868D01*
X22896Y42397D01*
X23136Y42297D01*
X23176D01*
X23556Y41917D01*
X23556Y41917D01*
X23739Y41795D01*
X23956Y41752D01*
X26467D01*
X26467Y41752D01*
X26683Y41795D01*
X26866Y41917D01*
X30498Y45549D01*
X30498Y45549D01*
X30621Y45732D01*
X30664Y45949D01*
Y47762D01*
X30753Y47978D01*
Y48238D01*
X30653Y48478D01*
X30469Y48662D01*
X30229Y48762D01*
X29969D01*
X29729Y48662D01*
X29545Y48478D01*
X29445Y48238D01*
Y47978D01*
X29534Y47762D01*
Y47626D01*
X29519Y47617D01*
X29407Y47587D01*
X29247Y47748D01*
X29007Y47847D01*
X28746D01*
X28506Y47748D01*
X28402Y47644D01*
X28275Y47697D01*
Y47950D01*
X28179Y48184D01*
X27964Y48273D01*
X27959Y48305D01*
Y48368D01*
X27964Y48400D01*
X28179Y48489D01*
X28275Y48722D01*
Y49220D01*
X28179Y49454D01*
X27964Y49543D01*
X27959Y49575D01*
Y49638D01*
X27964Y49670D01*
X28179Y49759D01*
X28275Y49992D01*
Y50490D01*
X28179Y50724D01*
X27945Y50820D01*
X26572D01*
X26520Y50947D01*
X26654Y51082D01*
X26867Y51595D01*
Y52151D01*
X26654Y52664D01*
X26261Y53057D01*
X25748Y53270D01*
X25192D01*
X24679Y53057D01*
X24286Y52664D01*
X24073Y52151D01*
Y51595D01*
X24286Y51082D01*
X24679Y50689D01*
X24926Y50586D01*
X24968Y50377D01*
X25090Y50193D01*
X25442Y49842D01*
X25442Y49842D01*
X25625Y49719D01*
X25841Y49676D01*
X25841Y49676D01*
X26338D01*
X26378Y49573D01*
X26349Y49536D01*
X25355D01*
X23615Y51276D01*
X23432Y51398D01*
X23216Y51441D01*
X23216Y51441D01*
X18318D01*
X18303Y51456D01*
X18062Y51556D01*
X17802D01*
X17562Y51456D01*
X17378Y51272D01*
X17278Y51032D01*
Y50772D01*
X17378Y50531D01*
X17562Y50347D01*
X17802Y50248D01*
X18062D01*
X18216Y50311D01*
X21800D01*
X21824Y50187D01*
X21688Y50130D01*
X21295Y49737D01*
X21201Y49511D01*
X19253D01*
X19253Y49511D01*
X19037Y49468D01*
X18854Y49345D01*
X18854Y49345D01*
X16987Y47479D01*
X10013D01*
X9501Y47991D01*
Y48119D01*
X9890D01*
Y50027D01*
X8269D01*
X8220Y50144D01*
X8565Y50489D01*
X14503D01*
X14503Y50489D01*
X14720Y50532D01*
X14903Y50655D01*
X17709Y53461D01*
X49169D01*
X51251Y51379D01*
Y43279D01*
X45450D01*
X45425Y43404D01*
X45521Y43443D01*
X45914Y43836D01*
X46126Y44350D01*
Y44906D01*
X46092Y44988D01*
X47588Y46484D01*
X47588Y46484D01*
X47710Y46667D01*
X47753Y46883D01*
X47753Y46883D01*
Y48060D01*
X47997Y48304D01*
X48142Y48654D01*
Y49034D01*
X47997Y49385D01*
X47729Y49653D01*
X47378Y49798D01*
X46998D01*
X46648Y49653D01*
X46379Y49385D01*
X46234Y49034D01*
Y48654D01*
X46379Y48304D01*
X46623Y48060D01*
Y47117D01*
X45377Y45871D01*
X45007Y46025D01*
X44452D01*
X43938Y45812D01*
X43545Y45419D01*
X43451Y45193D01*
X40826D01*
X40801Y45320D01*
X41177Y45475D01*
X41570Y45868D01*
X41664Y46095D01*
X42464D01*
X42464Y46095D01*
X42680Y46138D01*
X42863Y46260D01*
X44493Y47890D01*
X45602D01*
Y49798D01*
X43694D01*
Y48689D01*
X42230Y47225D01*
X41664D01*
X41570Y47451D01*
X41177Y47844D01*
X40664Y48057D01*
X40108D01*
X39595Y47844D01*
X39202Y47451D01*
X38989Y46938D01*
Y46553D01*
X38862Y46460D01*
X38723Y46488D01*
X38723Y46488D01*
X37039D01*
X35426Y48101D01*
X35243Y48223D01*
X35027Y48266D01*
X35027Y48266D01*
X33505D01*
X33464Y48370D01*
X33494Y48406D01*
X35999D01*
X36103Y48154D01*
X36496Y47761D01*
X37009Y47549D01*
X37565D01*
X38079Y47761D01*
X38472Y48154D01*
X38684Y48668D01*
Y49224D01*
X38590Y49450D01*
X40417Y51277D01*
X48727D01*
X48943Y51187D01*
X49203D01*
X49443Y51287D01*
X49627Y51471D01*
X49727Y51711D01*
Y51971D01*
X49627Y52212D01*
X49443Y52396D01*
X49203Y52495D01*
X48943D01*
X48727Y52406D01*
X40183D01*
X40183Y52406D01*
X39967Y52363D01*
X39783Y52241D01*
X39783Y52241D01*
X37792Y50249D01*
X37565Y50343D01*
X37009D01*
X36496Y50130D01*
X36103Y49737D01*
X36020Y49536D01*
X33380D01*
X33345Y49550D01*
X31897D01*
X31664Y49454D01*
X31567Y49220D01*
Y48722D01*
X31664Y48489D01*
X31879Y48400D01*
X31884Y48368D01*
Y48305D01*
X31879Y48273D01*
X31664Y48184D01*
X31567Y47950D01*
Y47452D01*
X31664Y47219D01*
X31879Y47130D01*
X31884Y47098D01*
Y47035D01*
X31879Y47003D01*
X31664Y46914D01*
X31567Y46680D01*
Y46182D01*
X31664Y45949D01*
X31897Y45852D01*
X33345D01*
X33380Y45866D01*
X33904D01*
X33954Y45816D01*
Y45550D01*
X33727Y45457D01*
X33334Y45064D01*
X33122Y44550D01*
Y43994D01*
X33334Y43481D01*
X33727Y43088D01*
X33812Y43053D01*
X33810Y42916D01*
X33662Y42817D01*
X33662Y42817D01*
X32178Y41334D01*
X31952Y41427D01*
X31396D01*
X30882Y41215D01*
X30489Y40822D01*
X30277Y40308D01*
Y39753D01*
X30489Y39239D01*
X30882Y38846D01*
X31396Y38633D01*
X31952D01*
X32465Y38846D01*
X32858Y39239D01*
X33071Y39753D01*
Y40308D01*
X32977Y40535D01*
X34295Y41853D01*
X37509D01*
X37519Y41851D01*
X37559Y41711D01*
X37535Y41687D01*
X37211D01*
X37211Y41687D01*
X36995Y41644D01*
X36811Y41522D01*
X34424Y39134D01*
X34302Y38951D01*
X34259Y38735D01*
X34259Y38735D01*
Y34321D01*
X34139Y34201D01*
X34032Y34273D01*
X34093Y34422D01*
Y34920D01*
X33996Y35153D01*
X33781Y35243D01*
X33777Y35274D01*
Y35338D01*
X33781Y35369D01*
X33996Y35459D01*
X34093Y35692D01*
Y36190D01*
X33996Y36423D01*
X33763Y36520D01*
X32415D01*
X32381Y36506D01*
X31501D01*
X31057Y36950D01*
X30874Y37072D01*
X30658Y37115D01*
X30658Y37115D01*
X29777D01*
X29683Y37342D01*
X29290Y37735D01*
X28777Y37948D01*
X28221D01*
X27707Y37735D01*
X27314Y37342D01*
X27102Y36828D01*
Y36273D01*
X27314Y35759D01*
X27707Y35366D01*
X27722Y35360D01*
X27697Y35236D01*
X26421D01*
X25381Y36277D01*
Y36517D01*
X25607Y36611D01*
X26000Y37004D01*
X26213Y37517D01*
Y38073D01*
X26000Y38587D01*
X25607Y38980D01*
X25094Y39192D01*
X24538D01*
X24024Y38980D01*
X23631Y38587D01*
X23419Y38073D01*
Y37517D01*
X23631Y37004D01*
X24024Y36611D01*
X24251Y36517D01*
Y36043D01*
X24251Y36043D01*
X24294Y35826D01*
X24416Y35643D01*
X25788Y34272D01*
X25788Y34272D01*
X25971Y34149D01*
X26187Y34106D01*
X32256D01*
X32296Y34002D01*
X32267Y33966D01*
X25837D01*
X25545Y34258D01*
X25362Y34380D01*
X25146Y34423D01*
X25146Y34423D01*
X24468D01*
X24375Y34650D01*
X23982Y35043D01*
X23468Y35255D01*
X22912D01*
X22399Y35043D01*
X22006Y34650D01*
X21793Y34136D01*
Y33580D01*
X22006Y33067D01*
X22260Y32813D01*
X22211Y32696D01*
X19894D01*
Y40393D01*
X20109D01*
Y41801D01*
X18651D01*
Y40393D01*
X18765D01*
Y32696D01*
X13722D01*
X13605Y32980D01*
X13212Y33373D01*
X12698Y33585D01*
X12143D01*
X11629Y33373D01*
X11236Y32980D01*
X11024Y32466D01*
Y31910D01*
X11075Y31786D01*
X10196Y30907D01*
X10052Y30691D01*
X10001Y30436D01*
X10001Y30436D01*
Y25394D01*
X8311Y23704D01*
X6746D01*
Y19196D01*
X7182D01*
Y12827D01*
X7182Y12827D01*
X7233Y12572D01*
X7377Y12355D01*
X13575Y6158D01*
X13575Y6158D01*
X13791Y6013D01*
X14046Y5963D01*
X14046Y5963D01*
X27689D01*
X30286Y3366D01*
Y3237D01*
X30073Y3024D01*
X29909Y2628D01*
Y2198D01*
X30073Y1802D01*
X30377Y1498D01*
X30773Y1334D01*
X31203D01*
X31599Y1498D01*
X31903Y1802D01*
X32067Y2198D01*
Y2628D01*
X31903Y3024D01*
X31620Y3307D01*
Y3642D01*
X31569Y3897D01*
X31425Y4113D01*
X31425Y4113D01*
X28437Y7101D01*
X28221Y7245D01*
X27965Y7296D01*
X27965Y7296D01*
X14322D01*
X8515Y13103D01*
Y19196D01*
X9254D01*
Y22761D01*
X11139Y24646D01*
X11140Y24646D01*
X11284Y24863D01*
X11335Y25118D01*
Y30159D01*
X12018Y30843D01*
X12143Y30791D01*
X12698D01*
X13212Y31004D01*
X13605Y31397D01*
X13675Y31566D01*
X19228D01*
X19228Y31566D01*
X19228Y31566D01*
X32256D01*
X32296Y31462D01*
X32267Y31426D01*
X22174D01*
X22174Y31426D01*
X21958Y31383D01*
X21775Y31260D01*
X21775Y31260D01*
X20672Y30158D01*
X20445Y30251D01*
X19890D01*
X19376Y30039D01*
X18983Y29646D01*
X18771Y29132D01*
Y28577D01*
X18983Y28063D01*
X19376Y27670D01*
X19890Y27457D01*
X20445D01*
X20959Y27670D01*
X21352Y28063D01*
X21565Y28577D01*
Y29132D01*
X21471Y29359D01*
X22408Y30296D01*
X26185D01*
X26238Y30169D01*
X25892Y29824D01*
X25679Y29310D01*
Y28754D01*
X25892Y28241D01*
X26285Y27848D01*
X26799Y27635D01*
X27354D01*
X27868Y27848D01*
X28261Y28241D01*
X28355Y28467D01*
X30455D01*
X30455Y28467D01*
X30671Y28510D01*
X30854Y28633D01*
X31247Y29026D01*
X32381D01*
X32415Y29012D01*
X33763D01*
X33996Y29109D01*
X34093Y29342D01*
Y29840D01*
X33996Y30073D01*
X33781Y30163D01*
X33777Y30194D01*
Y30258D01*
X33781Y30289D01*
X33996Y30379D01*
X34093Y30612D01*
Y31110D01*
X33996Y31343D01*
X33781Y31433D01*
X33777Y31464D01*
Y31528D01*
X33781Y31559D01*
X33996Y31649D01*
X34093Y31882D01*
Y32380D01*
X33996Y32613D01*
X33892Y32657D01*
X33875Y32678D01*
X33857Y32808D01*
X33888Y32836D01*
X34138D01*
X34138Y32836D01*
X34354Y32879D01*
X34537Y33002D01*
X35223Y33687D01*
X35223Y33687D01*
X35345Y33871D01*
X35388Y34087D01*
X35388Y34087D01*
Y35799D01*
X35515Y35811D01*
X35546Y35656D01*
X35669Y35473D01*
X36870Y34272D01*
X36870Y34272D01*
X37053Y34149D01*
X37269Y34106D01*
X37269Y34106D01*
X37706D01*
X37746Y34002D01*
X37717Y33966D01*
X36404D01*
X36188Y33923D01*
X36004Y33800D01*
X36004Y33800D01*
X35591Y33387D01*
X35546Y33320D01*
X35398Y33171D01*
X35298Y32931D01*
Y32671D01*
X35398Y32431D01*
X35582Y32247D01*
X35705Y32196D01*
X36169Y31732D01*
X36169Y31732D01*
X36352Y31609D01*
X36568Y31566D01*
X36568Y31566D01*
X37776D01*
X37788Y31546D01*
X37736Y31387D01*
X37632Y31343D01*
X37535Y31110D01*
Y30612D01*
X37632Y30379D01*
X37736Y30335D01*
X37753Y30314D01*
X37771Y30184D01*
X37740Y30156D01*
X36830D01*
X36830Y30156D01*
X36614Y30113D01*
X36431Y29990D01*
X36431Y29990D01*
X34056Y27616D01*
X33797D01*
X33763Y27630D01*
X32415D01*
X32182Y27533D01*
X32085Y27300D01*
Y26802D01*
X32182Y26569D01*
X32415Y26472D01*
X33763D01*
X33797Y26486D01*
X34290D01*
X34290Y26486D01*
X34506Y26529D01*
X34689Y26652D01*
X36275Y28237D01*
X36313Y28219D01*
X36380Y28162D01*
X36341Y27970D01*
X36341Y27970D01*
Y26979D01*
X36252Y26763D01*
Y26503D01*
X36352Y26263D01*
X36536Y26079D01*
X36776Y25979D01*
X37036D01*
X37277Y26079D01*
X37461Y26263D01*
X37552Y26483D01*
X37576Y26508D01*
X37687Y26546D01*
X37865Y26472D01*
X39213D01*
X39219Y26474D01*
X39251Y26443D01*
X39491Y26343D01*
X39751D01*
X39992Y26443D01*
X40175Y26627D01*
X40275Y26867D01*
Y27127D01*
X40175Y27368D01*
X39992Y27552D01*
X39751Y27651D01*
X39491D01*
X39406Y27616D01*
X39302D01*
X39290Y27636D01*
X39342Y27795D01*
X39446Y27839D01*
X39543Y28072D01*
Y28570D01*
X39446Y28803D01*
X39342Y28847D01*
X39325Y28868D01*
X39307Y28999D01*
X39338Y29026D01*
X43434D01*
X43434Y29026D01*
X43650Y29069D01*
X43833Y29192D01*
X47732Y33090D01*
X50690D01*
X50784Y32864D01*
X51177Y32471D01*
X51200Y32461D01*
Y30804D01*
X50746D01*
Y29943D01*
X50735Y29889D01*
X50746Y29834D01*
Y26296D01*
X52398D01*
X54857Y23837D01*
Y16672D01*
X54737Y16382D01*
Y16028D01*
X54872Y15702D01*
X55122Y15452D01*
X55449Y15316D01*
X55803D01*
X56130Y15452D01*
X56380Y15702D01*
X56515Y16028D01*
Y16382D01*
X56395Y16672D01*
Y24155D01*
X56336Y24450D01*
X56170Y24699D01*
X56017Y24851D01*
X53275Y27594D01*
X53254Y27608D01*
Y30804D01*
X52737D01*
Y32461D01*
X52760Y32471D01*
X53153Y32864D01*
X53354Y33349D01*
X53483Y33344D01*
X53536Y32938D01*
X53713Y32512D01*
X53994Y32145D01*
X54360Y31864D01*
X54787Y31687D01*
X55245Y31627D01*
X55703Y31687D01*
X56130Y31864D01*
X56496Y32145D01*
X56777Y32512D01*
X56954Y32938D01*
X57014Y33396D01*
Y33496D01*
X56954Y33954D01*
X56777Y34381D01*
X56496Y34747D01*
X56130Y35028D01*
X55703Y35205D01*
X55245Y35265D01*
X54787Y35205D01*
X54360Y35028D01*
X53994Y34747D01*
X53713Y34381D01*
X53536Y33954D01*
X53492Y33622D01*
X53365Y33630D01*
Y33933D01*
X53153Y34446D01*
X52772Y34827D01*
Y38279D01*
X44764D01*
Y34771D01*
X50943D01*
X50992Y34654D01*
X50784Y34446D01*
X50690Y34220D01*
X47498D01*
X47498Y34220D01*
X47282Y34177D01*
X47099Y34054D01*
X47099Y34054D01*
X43200Y30156D01*
X39372D01*
X39332Y30260D01*
X39361Y30296D01*
X41808D01*
X41808Y30296D01*
X42025Y30339D01*
X42208Y30462D01*
X43407Y31661D01*
X43530Y31844D01*
X43573Y32060D01*
X43573Y32060D01*
Y40076D01*
X43573Y40076D01*
X43530Y40292D01*
X43407Y40475D01*
X43407Y40475D01*
X41065Y42817D01*
X40882Y42940D01*
X40665Y42983D01*
X40665Y42983D01*
X35363D01*
X35332Y43110D01*
X35703Y43481D01*
X35781Y43669D01*
X37625D01*
Y43568D01*
X39083D01*
Y44598D01*
X39200Y44647D01*
X39619Y44228D01*
X39619Y44228D01*
X39802Y44106D01*
X40018Y44063D01*
X40018Y44063D01*
X43451D01*
X43545Y43836D01*
X43938Y43443D01*
X44452Y43231D01*
X44764D01*
Y39771D01*
X52772D01*
Y43279D01*
X52381D01*
Y51613D01*
X52381Y51613D01*
X52338Y51829D01*
X52215Y52012D01*
X52215Y52012D01*
X49802Y54425D01*
X49714Y54485D01*
X49752Y54612D01*
X57000D01*
Y54611D01*
D02*
G37*
G36*
X7982Y49740D02*
Y48119D01*
X8371D01*
Y47757D01*
X8371Y47757D01*
X8414Y47541D01*
X8536Y47358D01*
X9380Y46514D01*
X9380Y46514D01*
X9563Y46392D01*
X9779Y46349D01*
X9779Y46349D01*
X17221D01*
X17221Y46349D01*
X17437Y46392D01*
X17621Y46514D01*
X19487Y48381D01*
X21201D01*
X21295Y48154D01*
X21688Y47761D01*
X22201Y47549D01*
X22757D01*
X23270Y47761D01*
X23663Y48154D01*
X23876Y48668D01*
Y49224D01*
X23864Y49253D01*
X23969Y49324D01*
X24721Y48572D01*
X24721Y48572D01*
X24904Y48449D01*
X25121Y48406D01*
X25121Y48406D01*
X26338D01*
X26378Y48303D01*
X26349Y48266D01*
X26213D01*
X26213Y48266D01*
X25997Y48223D01*
X25813Y48101D01*
X25813Y48101D01*
X24948Y47235D01*
X24826Y47052D01*
X24783Y46836D01*
X24783Y46836D01*
Y45500D01*
X24556Y45406D01*
X24163Y45013D01*
X24069Y44786D01*
X20109D01*
Y44951D01*
X18651D01*
Y43554D01*
X17746D01*
X17719Y43582D01*
X17478Y43682D01*
X17218D01*
X17003Y43592D01*
X11744D01*
Y45231D01*
X9236D01*
Y43522D01*
X4378D01*
X4225Y43892D01*
X3943Y44258D01*
X3577Y44539D01*
X3257Y44672D01*
Y45181D01*
X7864Y49788D01*
X7982Y49740D01*
D02*
G37*
G36*
X29519Y46769D02*
X29534Y46760D01*
Y46183D01*
X26233Y42881D01*
X26088D01*
X26063Y43006D01*
X26139Y43037D01*
X26532Y43430D01*
X26745Y43944D01*
Y44499D01*
X26532Y45013D01*
X26139Y45406D01*
X25912Y45500D01*
Y46602D01*
X26057Y46747D01*
X26158Y46686D01*
X26167Y46677D01*
Y46182D01*
X26264Y45949D01*
X26497Y45852D01*
X27945D01*
X27980Y45866D01*
X28114D01*
X28114Y45866D01*
X28331Y45909D01*
X28514Y46032D01*
X29032Y46550D01*
X29247Y46639D01*
X29407Y46799D01*
X29519Y46769D01*
D02*
G37*
G36*
X36405Y45524D02*
X36405Y45524D01*
X36588Y45401D01*
X36805Y45358D01*
X38489D01*
X38753Y45094D01*
X38705Y44976D01*
X37625D01*
Y44799D01*
X35812D01*
X35703Y45064D01*
X35310Y45457D01*
X35083Y45550D01*
Y46050D01*
X35083Y46050D01*
X35040Y46266D01*
X34918Y46450D01*
X34918Y46450D01*
X34537Y46831D01*
X34354Y46953D01*
X34138Y46996D01*
X34138Y46996D01*
X33505D01*
X33464Y47100D01*
X33494Y47136D01*
X34793D01*
X36405Y45524D01*
D02*
G37*
G36*
X42443Y39842D02*
Y33233D01*
X42316Y33208D01*
X42129Y33659D01*
X41736Y34052D01*
X41535Y34135D01*
Y35357D01*
X41535Y35357D01*
X41492Y35573D01*
X41370Y35756D01*
X41370Y35756D01*
X40785Y36340D01*
X40602Y36463D01*
X40386Y36506D01*
X40386Y36506D01*
X39247D01*
X39213Y36520D01*
X37865D01*
X37632Y36423D01*
X37535Y36190D01*
Y35692D01*
X37632Y35459D01*
X37736Y35415D01*
X37753Y35394D01*
X37771Y35264D01*
X37740Y35236D01*
X37503D01*
X36633Y36106D01*
Y37043D01*
X36722Y37259D01*
Y37519D01*
X36622Y37759D01*
X36438Y37943D01*
X36198Y38043D01*
X35938D01*
X35698Y37943D01*
X35515Y37761D01*
X35506Y37761D01*
X35388Y37789D01*
Y38501D01*
X37445Y40558D01*
X37625D01*
Y40418D01*
X39083D01*
X39083Y41826D01*
X39199Y41853D01*
X40431D01*
X42443Y39842D01*
D02*
G37*
G36*
X32296Y30192D02*
X32267Y30156D01*
X31013D01*
X31013Y30156D01*
X30797Y30113D01*
X30614Y29990D01*
X30221Y29597D01*
X28355D01*
X28261Y29824D01*
X27915Y30169D01*
X27968Y30296D01*
X32256D01*
X32296Y30192D01*
D02*
G37*
%LPC*%
G36*
X57000Y53897D02*
X56509Y53833D01*
X56051Y53643D01*
X55658Y53342D01*
X55357Y52949D01*
X55167Y52491D01*
X55103Y52000D01*
X55167Y51509D01*
X55357Y51051D01*
X55658Y50658D01*
X56051Y50357D01*
X56509Y50167D01*
X57000Y50103D01*
X57491Y50167D01*
X57949Y50357D01*
X58342Y50658D01*
X58643Y51051D01*
X58833Y51509D01*
X58897Y52000D01*
X58833Y52491D01*
X58643Y52949D01*
X58342Y53342D01*
X57949Y53643D01*
X57491Y53833D01*
X57000Y53897D01*
D02*
G37*
G36*
X3000D02*
X2509Y53833D01*
X2051Y53643D01*
X1658Y53342D01*
X1357Y52949D01*
X1167Y52491D01*
X1103Y52000D01*
X1167Y51509D01*
X1357Y51051D01*
X1658Y50658D01*
X2051Y50357D01*
X2509Y50167D01*
X3000Y50103D01*
X3491Y50167D01*
X3949Y50357D01*
X4342Y50658D01*
X4643Y51051D01*
X4833Y51509D01*
X4897Y52000D01*
X4833Y52491D01*
X4643Y52949D01*
X4342Y53342D01*
X3949Y53643D01*
X3491Y53833D01*
X3000Y53897D01*
D02*
G37*
G36*
X11666Y50027D02*
X11286D01*
X10935Y49882D01*
X10667Y49613D01*
X10522Y49263D01*
Y48883D01*
X10667Y48532D01*
X10935Y48264D01*
X11286Y48119D01*
X11666D01*
X12016Y48264D01*
X12285Y48532D01*
X12430Y48883D01*
Y49263D01*
X12285Y49613D01*
X12016Y49882D01*
X11666Y50027D01*
D02*
G37*
G36*
X16635Y39573D02*
X16080D01*
X15566Y39361D01*
X15173Y38968D01*
X14961Y38454D01*
Y37898D01*
X15173Y37385D01*
X15566Y36992D01*
X16080Y36779D01*
X16635D01*
X17149Y36992D01*
X17542Y37385D01*
X17755Y37898D01*
Y38454D01*
X17542Y38968D01*
X17149Y39361D01*
X16635Y39573D01*
D02*
G37*
G36*
X37168Y23034D02*
X36613D01*
X36099Y22821D01*
X35706Y22428D01*
X35612Y22202D01*
X34312D01*
X34312Y22202D01*
X34096Y22159D01*
X33912Y22037D01*
X33912Y22037D01*
X31935Y20059D01*
X31812Y19876D01*
X31769Y19660D01*
X31769Y19660D01*
Y17440D01*
X31680Y17224D01*
Y16964D01*
X31769Y16749D01*
Y13894D01*
X31769Y13894D01*
X31812Y13678D01*
X31935Y13494D01*
X33586Y11843D01*
X33586Y11843D01*
X33769Y11721D01*
X33985Y11678D01*
X33985Y11678D01*
X34718D01*
Y11629D01*
X37006D01*
Y12857D01*
X37006D01*
Y12899D01*
X37006D01*
Y14127D01*
X35831D01*
X35776Y14138D01*
X35776Y14138D01*
X34870D01*
X34093Y14915D01*
Y17816D01*
X34182Y18031D01*
Y18042D01*
X35108Y18968D01*
X39111D01*
X39111Y18968D01*
X39327Y19011D01*
X39510Y19133D01*
X40587Y20209D01*
X40921Y20071D01*
X41477D01*
X41990Y20284D01*
X42383Y20677D01*
X42596Y21190D01*
Y21746D01*
X42383Y22259D01*
X41990Y22652D01*
X41477Y22865D01*
X40921D01*
X40407Y22652D01*
X40014Y22259D01*
X39802Y21746D01*
Y21190D01*
X39851Y21071D01*
X38877Y20097D01*
X34874D01*
X34874Y20097D01*
X34658Y20054D01*
X34475Y19932D01*
X34475Y19932D01*
X33329Y18787D01*
X33158Y18715D01*
X33026Y18584D01*
X32899Y18637D01*
Y19426D01*
X34546Y21072D01*
X35612D01*
X35706Y20846D01*
X36099Y20453D01*
X36613Y20240D01*
X37168D01*
X37682Y20453D01*
X38075Y20846D01*
X38287Y21359D01*
Y21915D01*
X38075Y22428D01*
X37682Y22821D01*
X37168Y23034D01*
D02*
G37*
G36*
X12474Y30296D02*
X12214D01*
X11974Y30196D01*
X11790Y30012D01*
X11690Y29772D01*
Y29512D01*
X11790Y29271D01*
X11974Y29087D01*
X12189Y28998D01*
X16517Y24670D01*
X16517Y24670D01*
X16700Y24548D01*
X16916Y24505D01*
X16916Y24505D01*
X45638D01*
X47721Y22423D01*
Y22117D01*
X47669Y22091D01*
X47594Y22078D01*
X47425Y22246D01*
X47185Y22346D01*
X46925D01*
X46685Y22246D01*
X46526Y22087D01*
X46418Y22159D01*
X46476Y22298D01*
Y22558D01*
X46376Y22799D01*
X46192Y22983D01*
X45952Y23082D01*
X45692D01*
X45451Y22983D01*
X45267Y22799D01*
X45168Y22558D01*
Y22298D01*
X45257Y22083D01*
Y10343D01*
X41701Y6788D01*
X39878D01*
X39662Y6745D01*
X39479Y6622D01*
X39479Y6622D01*
X36329Y3473D01*
X36283Y3492D01*
X35853D01*
X35457Y3328D01*
X35153Y3024D01*
X34989Y2628D01*
Y2198D01*
X35153Y1802D01*
X35457Y1498D01*
X35853Y1334D01*
X36283D01*
X36679Y1498D01*
X36983Y1802D01*
X37147Y2198D01*
Y2628D01*
X37128Y2674D01*
X40112Y5658D01*
X41755D01*
X41826Y5531D01*
X41817Y5518D01*
X41148D01*
X41148Y5518D01*
X40932Y5475D01*
X40749Y5352D01*
X40749Y5352D01*
X38869Y3473D01*
X38823Y3492D01*
X38393D01*
X37997Y3328D01*
X37693Y3024D01*
X37529Y2628D01*
Y2198D01*
X37693Y1802D01*
X37997Y1498D01*
X38393Y1334D01*
X38823D01*
X39219Y1498D01*
X39523Y1802D01*
X39687Y2198D01*
Y2628D01*
X39668Y2674D01*
X41382Y4388D01*
X42145D01*
X42197Y4317D01*
X42215Y4279D01*
X41409Y3473D01*
X41363Y3492D01*
X40933D01*
X40537Y3328D01*
X40233Y3024D01*
X40069Y2628D01*
Y2198D01*
X40233Y1802D01*
X40537Y1498D01*
X40933Y1334D01*
X41363D01*
X41759Y1498D01*
X42063Y1802D01*
X42227Y2198D01*
Y2628D01*
X42208Y2674D01*
X48559Y9025D01*
X48686Y8972D01*
Y7752D01*
X45829Y4895D01*
X45706Y4712D01*
X45663Y4496D01*
X45663Y4496D01*
Y3347D01*
X45617Y3328D01*
X45313Y3024D01*
X45149Y2628D01*
Y2198D01*
X45313Y1802D01*
X45617Y1498D01*
X46013Y1334D01*
X46443D01*
X46839Y1498D01*
X47143Y1802D01*
X47307Y2198D01*
Y2628D01*
X47143Y3024D01*
X46839Y3328D01*
X46793Y3347D01*
Y4262D01*
X49626Y7095D01*
X49721Y7068D01*
X49753Y7046D01*
Y6432D01*
X48369Y5048D01*
X48246Y4864D01*
X48203Y4648D01*
X48203Y4648D01*
Y3347D01*
X48157Y3328D01*
X47853Y3024D01*
X47689Y2628D01*
Y2198D01*
X47853Y1802D01*
X48157Y1498D01*
X48553Y1334D01*
X48983D01*
X49379Y1498D01*
X49683Y1802D01*
X49847Y2198D01*
Y2628D01*
X49683Y3024D01*
X49379Y3328D01*
X49333Y3347D01*
Y4414D01*
X50717Y5798D01*
X50717Y5798D01*
X50839Y5981D01*
X50882Y6198D01*
Y23876D01*
X50882Y23876D01*
X50839Y24092D01*
X50717Y24275D01*
X50717Y24275D01*
X46373Y28619D01*
X46190Y28741D01*
X45974Y28784D01*
X45974Y28784D01*
X42738D01*
X42523Y28873D01*
X42263D01*
X42022Y28774D01*
X41838Y28590D01*
X41739Y28349D01*
Y28089D01*
X41838Y27849D01*
X42022Y27665D01*
X42263Y27565D01*
X42523D01*
X42738Y27655D01*
X44822D01*
X44875Y27528D01*
X44791Y27444D01*
X44691Y27203D01*
Y26943D01*
X44791Y26703D01*
X44975Y26519D01*
X45190Y26430D01*
X45858Y25762D01*
X45806Y25635D01*
X17150D01*
X12988Y29797D01*
X12899Y30012D01*
X12715Y30196D01*
X12474Y30296D01*
D02*
G37*
G36*
X14807Y23876D02*
X14251D01*
X13737Y23663D01*
X13344Y23270D01*
X13132Y22757D01*
Y22201D01*
X13344Y21688D01*
X13737Y21295D01*
X14251Y21082D01*
X14807D01*
X15320Y21295D01*
X15713Y21688D01*
X15926Y22201D01*
Y22757D01*
X15713Y23270D01*
X15320Y23663D01*
X14807Y23876D01*
D02*
G37*
G36*
X26778Y20549D02*
X26222D01*
X25709Y20336D01*
X25316Y19943D01*
X25222Y19716D01*
X23952D01*
X23952Y19716D01*
X23736Y19673D01*
X23553Y19551D01*
X23553Y19551D01*
X22640Y18638D01*
X22517Y18455D01*
X22474Y18239D01*
X22474Y18239D01*
Y17944D01*
X21299D01*
Y15736D01*
X22451D01*
Y14127D01*
X21821D01*
Y12984D01*
X21821Y12899D01*
X21821Y12772D01*
Y11834D01*
X21703Y11785D01*
X21469Y12020D01*
Y14717D01*
X21558Y14932D01*
Y15192D01*
X21459Y15433D01*
X21275Y15617D01*
X21034Y15716D01*
X20774D01*
X20534Y15617D01*
X20520Y15602D01*
X20402Y15651D01*
X20402Y15911D01*
X20402Y15939D01*
X20398Y15958D01*
X20382Y16042D01*
X20378Y16159D01*
X20378Y16159D01*
X20316Y16262D01*
X20307Y16285D01*
Y17944D01*
X17299D01*
Y17216D01*
X17172Y17191D01*
X17090Y17388D01*
X16906Y17572D01*
X16665Y17672D01*
X16405D01*
X16165Y17572D01*
X15981Y17388D01*
X15881Y17148D01*
Y16888D01*
X15945Y16734D01*
Y14758D01*
X15945Y14758D01*
X15988Y14541D01*
X16111Y14358D01*
X17141Y13328D01*
Y13048D01*
X17014Y12995D01*
X15398Y14610D01*
Y18628D01*
X15488Y18844D01*
Y19104D01*
X15388Y19344D01*
X15204Y19528D01*
X14964Y19628D01*
X14704D01*
X14463Y19528D01*
X14279Y19344D01*
X14180Y19104D01*
Y18844D01*
X14269Y18628D01*
Y14376D01*
X14269Y14376D01*
X14312Y14160D01*
X14434Y13977D01*
X16565Y11846D01*
X16565Y11846D01*
X16748Y11724D01*
X16965Y11681D01*
X16965Y11681D01*
X17141D01*
Y11629D01*
X19273D01*
Y11481D01*
X19273Y11481D01*
X19316Y11265D01*
X19438Y11081D01*
X21216Y9303D01*
X21216Y9303D01*
X21399Y9181D01*
X21615Y9138D01*
X21821D01*
Y9089D01*
X22707D01*
X22710Y9087D01*
X22965Y9036D01*
X29569D01*
X31126Y7479D01*
X31126Y7479D01*
X31342Y7334D01*
X31598Y7283D01*
X39872D01*
X39959Y7197D01*
X40285Y7061D01*
X40639D01*
X40966Y7197D01*
X41216Y7447D01*
X41351Y7773D01*
Y8127D01*
X41216Y8454D01*
X41169Y8501D01*
Y9089D01*
X41686D01*
Y10226D01*
X41809Y10324D01*
X41872Y10310D01*
X41947Y10131D01*
X42340Y9738D01*
X42853Y9525D01*
X43409D01*
X43922Y9738D01*
X44315Y10131D01*
X44528Y10644D01*
Y11200D01*
X44315Y11713D01*
X43922Y12106D01*
X43409Y12319D01*
X42853D01*
X42592Y12211D01*
X42521Y12319D01*
X42918Y12716D01*
X42958Y12700D01*
X43514D01*
X44027Y12913D01*
X44420Y13306D01*
X44633Y13819D01*
Y14375D01*
X44420Y14888D01*
X44027Y15281D01*
X43600Y15458D01*
Y15596D01*
X44053Y15783D01*
X44446Y16176D01*
X44658Y16689D01*
Y17245D01*
X44446Y17759D01*
X44053Y18152D01*
X43539Y18364D01*
X42983D01*
X42470Y18152D01*
X42077Y17759D01*
X41951Y17456D01*
X41579D01*
Y17919D01*
X38571D01*
Y15711D01*
X39669D01*
Y14127D01*
X39398D01*
Y12899D01*
X39398Y12899D01*
Y12857D01*
X39398D01*
X39398Y12772D01*
Y11714D01*
X39398Y11629D01*
X39398Y11502D01*
Y10472D01*
X39271Y10419D01*
X38589Y11101D01*
Y15266D01*
X38589Y15266D01*
X38546Y15482D01*
X38423Y15665D01*
X37579Y16510D01*
Y17919D01*
X34571D01*
Y15711D01*
X36780D01*
X37459Y15032D01*
Y10867D01*
X37459Y10867D01*
X37502Y10651D01*
X37624Y10468D01*
X38789Y9303D01*
X38789Y9303D01*
X38972Y9181D01*
X39188Y9138D01*
X39188Y9138D01*
X39398D01*
Y9089D01*
X39835D01*
Y8617D01*
X31874D01*
X30317Y10174D01*
X30100Y10319D01*
X29845Y10370D01*
X29845Y10370D01*
X24109D01*
Y11587D01*
X24195Y11678D01*
X25327D01*
X25327Y11678D01*
X25543Y11721D01*
X25726Y11843D01*
X26028Y12145D01*
X26222Y12065D01*
X26778D01*
X27291Y12278D01*
X27684Y12671D01*
X27897Y13184D01*
Y13740D01*
X27684Y14253D01*
X27291Y14646D01*
X26993Y14770D01*
Y14897D01*
X27291Y15021D01*
X27684Y15414D01*
X27897Y15927D01*
Y16483D01*
X27684Y16997D01*
X27291Y17390D01*
X26778Y17602D01*
X26222D01*
X25709Y17390D01*
X25316Y16997D01*
X25103Y16483D01*
Y15927D01*
X25316Y15414D01*
X25709Y15021D01*
X26007Y14897D01*
Y14770D01*
X25709Y14646D01*
X25316Y14253D01*
X25103Y13740D01*
Y13184D01*
X25210Y12925D01*
X25093Y12808D01*
X24195D01*
X24109Y12899D01*
X24109Y12984D01*
Y14127D01*
X23580D01*
Y15736D01*
X24307D01*
Y17944D01*
X23723D01*
X23671Y18071D01*
X24186Y18587D01*
X25222D01*
X25316Y18360D01*
X25709Y17967D01*
X26222Y17755D01*
X26778D01*
X27291Y17967D01*
X27684Y18360D01*
X27897Y18874D01*
Y19429D01*
X27684Y19943D01*
X27291Y20336D01*
X26778Y20549D01*
D02*
G37*
G36*
X12851Y14453D02*
X12295D01*
X11782Y14240D01*
X11389Y13847D01*
X11176Y13333D01*
Y12778D01*
X11389Y12264D01*
X11782Y11871D01*
X12295Y11659D01*
X12851D01*
X13364Y11871D01*
X13757Y12264D01*
X13970Y12778D01*
Y13333D01*
X13757Y13847D01*
X13364Y14240D01*
X12851Y14453D01*
D02*
G37*
G36*
X18285Y10370D02*
X13894D01*
X13829Y10357D01*
X13764D01*
X13703Y10332D01*
X13639Y10319D01*
X13584Y10282D01*
X13523Y10257D01*
X13477Y10211D01*
X13422Y10174D01*
X13386Y10120D01*
X13339Y10073D01*
X13314Y10013D01*
X13278Y9958D01*
X13265Y9894D01*
X13240Y9833D01*
Y9767D01*
X13227Y9703D01*
X13240Y9638D01*
Y9573D01*
X13265Y9512D01*
X13278Y9448D01*
X13314Y9393D01*
X13339Y9332D01*
X13386Y9286D01*
X13422Y9231D01*
X13477Y9195D01*
X13523Y9148D01*
X13584Y9123D01*
X13639Y9087D01*
X13703Y9074D01*
X13764Y9049D01*
X13829D01*
X13894Y9036D01*
X18285D01*
X18540Y9087D01*
X18543Y9089D01*
X19429D01*
Y10317D01*
X18543D01*
X18540Y10319D01*
X18285Y10370D01*
D02*
G37*
G36*
X31471Y12071D02*
X31406Y12059D01*
X31341D01*
X31280Y12033D01*
X31215Y12021D01*
X31161Y11984D01*
X31100Y11959D01*
X31054Y11913D01*
X30999Y11876D01*
X30963Y11821D01*
X30916Y11775D01*
X30891Y11714D01*
X30855Y11660D01*
X30842Y11595D01*
X30817Y11535D01*
Y11469D01*
X30804Y11405D01*
X30817Y11340D01*
Y11275D01*
X30842Y11214D01*
X30855Y11149D01*
X30891Y11095D01*
X30916Y11034D01*
X30963Y10988D01*
X30999Y10933D01*
X32701Y9231D01*
X32701Y9231D01*
X32917Y9087D01*
X33172Y9036D01*
X33172Y9036D01*
X35862D01*
X36117Y9087D01*
X36120Y9089D01*
X37006D01*
Y10317D01*
X36120D01*
X36117Y10319D01*
X35862Y10370D01*
X33449D01*
X31942Y11876D01*
X31888Y11913D01*
X31841Y11959D01*
X31780Y11984D01*
X31726Y12021D01*
X31661Y12033D01*
X31601Y12059D01*
X31535D01*
X31471Y12071D01*
D02*
G37*
G36*
X43903Y3492D02*
X43473D01*
X43077Y3328D01*
X42773Y3024D01*
X42609Y2628D01*
Y2198D01*
X42773Y1802D01*
X43077Y1498D01*
X43473Y1334D01*
X43903D01*
X44299Y1498D01*
X44603Y1802D01*
X44767Y2198D01*
Y2628D01*
X44603Y3024D01*
X44299Y3328D01*
X43903Y3492D01*
D02*
G37*
G36*
X9254Y30804D02*
X6746D01*
Y27239D01*
X6583Y27076D01*
X6529D01*
X6202Y26941D01*
X5952Y26691D01*
X5817Y26364D01*
Y26310D01*
X4380Y24873D01*
X4235Y24657D01*
X4185Y24401D01*
X4185Y24401D01*
Y13030D01*
X4185Y13030D01*
X4235Y12775D01*
X4380Y12559D01*
X12508Y4431D01*
X12508Y4431D01*
X12724Y4286D01*
X12979Y4235D01*
X26902D01*
X27759Y3378D01*
Y3250D01*
X27533Y3024D01*
X27369Y2628D01*
Y2198D01*
X27533Y1802D01*
X27837Y1498D01*
X28233Y1334D01*
X28663D01*
X29059Y1498D01*
X29363Y1802D01*
X29527Y2198D01*
Y2628D01*
X29363Y3024D01*
X29093Y3294D01*
Y3654D01*
X29093Y3654D01*
X29042Y3910D01*
X28897Y4126D01*
X28897Y4126D01*
X27650Y5374D01*
X27433Y5518D01*
X27178Y5569D01*
X27178Y5569D01*
X13256D01*
X5518Y13306D01*
Y24125D01*
X6691Y25298D01*
X6882D01*
X7209Y25434D01*
X7459Y25684D01*
X7595Y26011D01*
Y26202D01*
X7689Y26296D01*
X9254D01*
Y30804D01*
D02*
G37*
G36*
X26123Y3492D02*
X25693D01*
X25297Y3328D01*
X24993Y3024D01*
X24829Y2628D01*
Y2198D01*
X24993Y1802D01*
X25297Y1498D01*
X25693Y1334D01*
X26123D01*
X26519Y1498D01*
X26823Y1802D01*
X26987Y2198D01*
Y2628D01*
X26823Y3024D01*
X26519Y3328D01*
X26123Y3492D01*
D02*
G37*
G36*
X23583D02*
X23153D01*
X22757Y3328D01*
X22453Y3024D01*
X22289Y2628D01*
Y2198D01*
X22453Y1802D01*
X22757Y1498D01*
X23153Y1334D01*
X23583D01*
X23979Y1498D01*
X24283Y1802D01*
X24447Y2198D01*
Y2628D01*
X24283Y3024D01*
X23979Y3328D01*
X23583Y3492D01*
D02*
G37*
G36*
X21043D02*
X20613D01*
X20217Y3328D01*
X19913Y3024D01*
X19749Y2628D01*
Y2198D01*
X19913Y1802D01*
X20217Y1498D01*
X20613Y1334D01*
X21043D01*
X21439Y1498D01*
X21743Y1802D01*
X21907Y2198D01*
Y2628D01*
X21743Y3024D01*
X21439Y3328D01*
X21043Y3492D01*
D02*
G37*
G36*
X15963D02*
X15533D01*
X15137Y3328D01*
X14833Y3024D01*
X14669Y2628D01*
Y2198D01*
X14833Y1802D01*
X15137Y1498D01*
X15533Y1334D01*
X15963D01*
X16359Y1498D01*
X16663Y1802D01*
X16827Y2198D01*
Y2628D01*
X16663Y3024D01*
X16359Y3328D01*
X15963Y3492D01*
D02*
G37*
G36*
X13423D02*
X12993D01*
X12597Y3328D01*
X12293Y3024D01*
X12129Y2628D01*
Y2198D01*
X12293Y1802D01*
X12597Y1498D01*
X12993Y1334D01*
X13423D01*
X13819Y1498D01*
X14123Y1802D01*
X14287Y2198D01*
Y2628D01*
X14123Y3024D01*
X13819Y3328D01*
X13423Y3492D01*
D02*
G37*
G36*
X10883D02*
X10453D01*
X10057Y3328D01*
X9753Y3024D01*
X9589Y2628D01*
Y2198D01*
X9753Y1802D01*
X10057Y1498D01*
X10453Y1334D01*
X10883D01*
X11279Y1498D01*
X11583Y1802D01*
X11747Y2198D01*
Y2628D01*
X11583Y3024D01*
X11279Y3328D01*
X10883Y3492D01*
D02*
G37*
G36*
X51721Y3505D02*
X50896D01*
X50635Y3453D01*
X50415Y3306D01*
X50268Y3086D01*
X50216Y2826D01*
Y2000D01*
X50268Y1740D01*
X50415Y1520D01*
X50635Y1373D01*
X50896Y1321D01*
X51721D01*
X51981Y1373D01*
X52201Y1520D01*
X52348Y1740D01*
X52400Y2000D01*
Y2826D01*
X52348Y3086D01*
X52201Y3306D01*
X51981Y3453D01*
X51721Y3505D01*
D02*
G37*
G36*
X57000Y4897D02*
X56509Y4833D01*
X56051Y4643D01*
X55658Y4342D01*
X55357Y3949D01*
X55167Y3491D01*
X55103Y3000D01*
X55167Y2509D01*
X55357Y2051D01*
X55658Y1658D01*
X56051Y1357D01*
X56509Y1167D01*
X57000Y1103D01*
X57491Y1167D01*
X57949Y1357D01*
X58342Y1658D01*
X58643Y2051D01*
X58833Y2509D01*
X58897Y3000D01*
X58833Y3491D01*
X58643Y3949D01*
X58342Y4342D01*
X57949Y4643D01*
X57491Y4833D01*
X57000Y4897D01*
D02*
G37*
G36*
X3000D02*
X2509Y4833D01*
X2051Y4643D01*
X1658Y4342D01*
X1357Y3949D01*
X1167Y3491D01*
X1103Y3000D01*
X1167Y2509D01*
X1357Y2051D01*
X1658Y1658D01*
X2051Y1357D01*
X2509Y1167D01*
X3000Y1103D01*
X3491Y1167D01*
X3949Y1357D01*
X4342Y1658D01*
X4643Y2051D01*
X4833Y2509D01*
X4897Y3000D01*
X4833Y3491D01*
X4643Y3949D01*
X4342Y4342D01*
X3949Y4643D01*
X3491Y4833D01*
X3000Y4897D01*
D02*
G37*
%LPD*%
G36*
X17299Y16820D02*
Y15736D01*
X19273D01*
X19273Y14790D01*
Y14127D01*
X17940D01*
X17075Y14992D01*
Y16633D01*
X17090Y16648D01*
X17172Y16845D01*
X17299Y16820D01*
D02*
G37*
G36*
X42077Y16176D02*
X42470Y15783D01*
X42897Y15606D01*
Y15469D01*
X42444Y15281D01*
X42051Y14888D01*
X41839Y14375D01*
Y13819D01*
X42010Y13406D01*
X41803Y13199D01*
X41686Y13247D01*
Y14127D01*
X40798D01*
Y15711D01*
X41579D01*
Y16326D01*
X42015D01*
X42077Y16176D01*
D02*
G37*
D10*
X19837Y15939D02*
D03*
D11*
X10490Y35877D02*
D03*
Y42977D02*
D03*
X52000Y28550D02*
D03*
Y21450D02*
D03*
X8000D02*
D03*
Y28550D02*
D03*
D12*
X32621Y46431D02*
D03*
Y47701D02*
D03*
Y48971D02*
D03*
Y50241D02*
D03*
X27221D02*
D03*
Y48971D02*
D03*
Y47701D02*
D03*
Y46431D02*
D03*
D13*
X48768Y41525D02*
D03*
Y36525D02*
D03*
D14*
X38539Y27051D02*
D03*
Y28321D02*
D03*
Y29591D02*
D03*
Y30861D02*
D03*
Y32131D02*
D03*
Y33401D02*
D03*
Y34671D02*
D03*
Y35941D02*
D03*
X33089Y27051D02*
D03*
Y28321D02*
D03*
Y29591D02*
D03*
Y30861D02*
D03*
Y32131D02*
D03*
Y33401D02*
D03*
Y34671D02*
D03*
Y35941D02*
D03*
D15*
X18285Y13513D02*
D03*
Y12243D02*
D03*
Y10973D02*
D03*
Y9703D02*
D03*
X22965Y13513D02*
D03*
Y12243D02*
D03*
Y10973D02*
D03*
Y9703D02*
D03*
X40542D02*
D03*
Y10973D02*
D03*
Y12243D02*
D03*
Y13513D02*
D03*
X35862Y9703D02*
D03*
Y10973D02*
D03*
Y12243D02*
D03*
Y13513D02*
D03*
D16*
X40075Y16815D02*
D03*
X36075D02*
D03*
X18803Y16840D02*
D03*
X22803D02*
D03*
D17*
X19380Y41097D02*
D03*
X19380Y44247D02*
D03*
X38354Y41122D02*
D03*
X38354Y44272D02*
D03*
D18*
X26187Y34671D02*
X33089D01*
X24816Y36043D02*
X26187Y34671D01*
X24816Y36043D02*
Y37795D01*
X25146Y33858D02*
X25603Y33401D01*
X34138D01*
X23190Y33858D02*
X25146D01*
X45212Y44908D02*
X47188Y46883D01*
Y48844D01*
X40018Y44628D02*
X44729D01*
X38723Y45923D02*
X40018Y44628D01*
X45822Y10109D02*
Y22428D01*
X41935Y6223D02*
X45822Y10109D01*
X39878Y6223D02*
X41935D01*
X38608Y2413D02*
X41148Y4953D01*
X42164D02*
X47055Y9844D01*
X41148Y4953D02*
X42164D01*
X36068Y2413D02*
X39878Y6223D01*
X50804Y41311D02*
X51816Y42323D01*
X49403Y54026D02*
X51816Y51613D01*
Y42323D02*
Y51613D01*
X46584Y41311D02*
X50804D01*
X38539Y30861D02*
X41808D01*
X43008Y32060D01*
Y40076D01*
X40970Y33096D02*
Y35357D01*
X38539Y35941D02*
X40386D01*
X40970Y35357D01*
X34061Y42418D02*
X40665D01*
X31674Y40030D02*
X34061Y42418D01*
X40665D02*
X43008Y40076D01*
X2692Y42957D02*
Y45415D01*
X8331Y51054D01*
X2692Y42957D02*
X10470D01*
X17475Y54026D02*
X49403D01*
X40183Y51841D02*
X49073D01*
X14503Y51054D02*
X17475Y54026D01*
X25489Y50593D02*
Y51854D01*
X25841Y50241D02*
X27221D01*
X25489Y50593D02*
X25841Y50241D01*
X25470Y51873D02*
X25489Y51854D01*
X8331Y51054D02*
X14503D01*
X37465Y49124D02*
X40183Y51841D01*
X19695Y16290D02*
X19837Y15939D01*
X19837Y15939D02*
X19837Y14790D01*
X19837Y15939D02*
Y15939D01*
X47498Y33655D02*
X51587D01*
X17348Y43028D02*
X17386Y42989D01*
X23228D02*
X23241Y42977D01*
X10541Y43028D02*
X17348D01*
X17386Y42989D02*
X23228D01*
X10470Y42957D02*
X10541Y43028D01*
X32621Y46431D02*
X34138D01*
X34519Y44272D02*
Y46050D01*
X34138Y46431D02*
X34519Y46050D01*
X23321Y42951D02*
X23956Y42316D01*
X26467D02*
X30099Y45949D01*
X23956Y42316D02*
X26467D01*
X30099Y45949D02*
Y48108D01*
X35027Y47701D02*
X36805Y45923D01*
X32621Y47701D02*
X35027D01*
X36805Y45923D02*
X38723D01*
X23216Y50876D02*
X25121Y48971D01*
X27221D01*
X19380Y44221D02*
X25348D01*
X27221Y46431D02*
X28114D01*
X28876Y47193D01*
X17958Y50876D02*
X23216D01*
X17932Y50902D02*
X17958Y50876D01*
X17221Y46914D02*
X19253Y48946D01*
X22479D01*
X9779Y46914D02*
X17221D01*
X8936Y47757D02*
X9779Y46914D01*
X8936Y47757D02*
Y49073D01*
X37465Y49124D02*
Y49124D01*
X38539Y29591D02*
X43434D01*
X36830D02*
X38539D01*
X42464Y46660D02*
X44648Y48844D01*
X40386Y46660D02*
X42464D01*
X45872Y25070D02*
X48285Y22657D01*
X16916Y25070D02*
X45872D01*
X12383Y29604D02*
X16916Y25070D01*
X43434Y29591D02*
X47498Y33655D01*
X45974Y28219D02*
X50317Y23876D01*
X42393Y28219D02*
X45974D01*
X50317Y6198D02*
Y23876D01*
X49251Y7518D02*
Y23168D01*
X45345Y27073D02*
X49251Y23168D01*
X48285Y9550D02*
Y22657D01*
X41148Y2413D02*
X48285Y9550D01*
X47055Y9844D02*
Y21692D01*
X34557Y44234D02*
X38354D01*
X34823Y38735D02*
X37211Y41122D01*
X38354D01*
X34823Y34087D02*
Y38735D01*
X25348Y44221D02*
Y46836D01*
X26213Y47701D02*
X27221D01*
X25348Y46836D02*
X26213Y47701D01*
X19329Y41046D02*
X19380Y41097D01*
X19329Y32233D02*
Y41046D01*
X31013Y29591D02*
X33089D01*
X30455Y29032D02*
X31013Y29591D01*
X26945Y29032D02*
X30455D01*
X33089Y27051D02*
X34290D01*
X36830Y29591D01*
X34138Y33401D02*
X34823Y34087D01*
X46228Y2413D02*
Y4496D01*
X49251Y7518D01*
X48768Y2413D02*
Y4648D01*
X50317Y6198D01*
X36068Y35872D02*
X37269Y34671D01*
X36068Y35872D02*
Y37389D01*
X37269Y34671D02*
X38539D01*
X32334Y19660D02*
X34312Y21637D01*
X36890D01*
X39111Y19533D02*
X41095Y21516D01*
X34874Y19533D02*
X39111D01*
X33528Y18161D02*
Y18186D01*
Y14681D02*
Y18161D01*
X23016Y12243D02*
X25327D01*
X26343Y13259D01*
X26594D01*
X35776Y13573D02*
X35836Y13513D01*
X34636Y13573D02*
X35776D01*
X33528Y14681D02*
X34636Y13573D01*
X33528Y18186D02*
X34874Y19533D01*
X38024Y10867D02*
X39188Y9703D01*
X38024Y10867D02*
Y15266D01*
X36475Y16815D02*
X38024Y15266D01*
X39188Y9703D02*
X40542D01*
X32334Y13894D02*
X33985Y12243D01*
X35862D01*
X32334Y13894D02*
Y17094D01*
Y19660D01*
X52000Y28550D02*
X52646Y27904D01*
Y27200D02*
Y27904D01*
X52000Y28550D02*
Y29189D01*
X51300Y29889D02*
X51300D01*
X52000Y29189D01*
X39567Y26997D02*
X39621D01*
X39513Y27051D02*
X39567Y26997D01*
X38539Y27051D02*
X39513D01*
X40561Y10954D02*
X43481D01*
X40542Y10973D02*
X40561Y10954D01*
X43481D02*
X43500Y10935D01*
X18803Y16840D02*
X19695Y16290D01*
X20904Y11786D02*
Y15062D01*
X19837Y11481D02*
Y14790D01*
Y11481D02*
X21615Y9703D01*
X22965D01*
X22803Y16840D02*
X23039Y17077D01*
Y18239D01*
X23952Y19152D01*
X26500D01*
X21680Y11010D02*
X22927D01*
X22965Y10973D01*
X20904Y11786D02*
X21680Y11010D01*
X16965Y12245D02*
X18282D01*
X18285Y12243D01*
X14834Y14376D02*
X16965Y12245D01*
X14834Y14376D02*
Y18974D01*
X40602Y12303D02*
X41706D01*
X40542Y12243D02*
X40602Y12303D01*
X41706D02*
X43500Y14097D01*
X16510Y14758D02*
Y16993D01*
X16535Y17018D01*
X17755Y13513D02*
X18336D01*
X16510Y14758D02*
X17755Y13513D01*
X28499Y36551D02*
X30658D01*
X31267Y35941D02*
X33089D01*
X30658Y36551D02*
X31267Y35941D01*
X23016Y13513D02*
Y16627D01*
X22911Y16732D02*
X23016Y16627D01*
X22803Y16840D02*
X22911Y16732D01*
X40151Y16891D02*
X43424D01*
X43500Y16967D01*
X40075Y16815D02*
X40151Y16891D01*
X40234Y13573D02*
Y16656D01*
X36075Y16815D02*
X36475D01*
X40075D02*
X40234Y16656D01*
X40294Y13513D02*
X40542D01*
X36906Y26633D02*
Y27970D01*
X40234Y13573D02*
X40294Y13513D01*
X19228Y32131D02*
X33089D01*
X19228D02*
X19329Y32233D01*
X35952Y32747D02*
Y32801D01*
X12598Y32131D02*
X19228D01*
X35952Y32747D02*
X36568Y32131D01*
X38539D01*
X35990Y32988D02*
X36404Y33401D01*
X35990Y32815D02*
Y32988D01*
X35977Y32801D02*
X35990Y32815D01*
X36404Y33401D02*
X38539D01*
X32621Y48971D02*
X37262D01*
X36906Y27970D02*
X37258Y28321D01*
X38539D01*
X20168Y28854D02*
X22174Y30861D01*
X33089D01*
D19*
X51968Y29616D02*
Y35525D01*
X48768Y36525D02*
X51968Y35525D01*
X11476Y49073D02*
X11552Y49149D01*
X55626Y16205D02*
Y24155D01*
X55474Y24308D02*
X55626Y24155D01*
X52731Y27050D02*
X55474Y24308D01*
X52500Y27050D02*
X52731D01*
X52000Y27550D02*
X52500Y27050D01*
X52000Y27550D02*
Y28550D01*
D20*
X6706Y26256D02*
X8000Y27550D01*
X4851Y24401D02*
X8000Y27550D01*
X6706Y26187D02*
Y26256D01*
X8000Y27550D02*
Y28550D01*
X12979Y4902D02*
X27178D01*
X28426Y3654D01*
Y2435D02*
X28448Y2413D01*
X28426Y2435D02*
Y3654D01*
X4851Y13030D02*
X12979Y4902D01*
X4851Y13030D02*
Y24401D01*
X14046Y6629D02*
X27965D01*
X30953Y2448D02*
Y3642D01*
X27965Y6629D02*
X30953Y3642D01*
Y2448D02*
X30988Y2413D01*
X22965Y9703D02*
X29845D01*
X31598Y7950D02*
X40462D01*
X29845Y9703D02*
X31598Y7950D01*
X10668Y30436D02*
X12421Y32188D01*
X10668Y25118D02*
Y30436D01*
X8000Y22450D02*
X10668Y25118D01*
X8000Y21450D02*
Y22450D01*
X7849Y12827D02*
Y21299D01*
X8000Y21450D01*
X7849Y12827D02*
X14046Y6629D01*
X33172Y9703D02*
X35862D01*
X31471Y11405D02*
X33172Y9703D01*
X40502Y7990D02*
Y9663D01*
X40462Y7950D02*
X40502Y7990D01*
Y9663D02*
X40542Y9703D01*
X13894D02*
X18285D01*
D21*
X11954Y13056D02*
Y13204D01*
Y13056D02*
X12231Y12778D01*
D22*
X55245Y45446D02*
D03*
Y33446D02*
D03*
X2692Y30957D02*
D03*
Y42957D02*
D03*
D23*
X31674Y40030D02*
D03*
X44729Y44628D02*
D03*
X11532Y53111D02*
D03*
X14529Y22479D02*
D03*
X12573Y13056D02*
D03*
X43131Y10922D02*
D03*
X26500Y16205D02*
D03*
X43261Y16967D02*
D03*
X51968Y33655D02*
D03*
X43236Y14097D02*
D03*
X41199Y21468D02*
D03*
X36890Y21637D02*
D03*
X26500Y13462D02*
D03*
Y19152D02*
D03*
X25348Y44221D02*
D03*
X25470Y51873D02*
D03*
X22479Y48946D02*
D03*
X34519Y44272D02*
D03*
X37287Y48946D02*
D03*
X40386Y46660D02*
D03*
X40945Y32868D02*
D03*
X27076Y29032D02*
D03*
X20168Y28854D02*
D03*
X28499Y36551D02*
D03*
X24816Y37795D02*
D03*
X23190Y33858D02*
D03*
X16358Y38176D02*
D03*
X12421Y32188D02*
D03*
D24*
X49728Y48844D02*
D03*
X47188D02*
D03*
X14016Y49073D02*
D03*
X11476D02*
D03*
D25*
X44648Y48844D02*
D03*
X8936Y49073D02*
D03*
D26*
X15748Y2413D02*
D03*
X18288D02*
D03*
X20828D02*
D03*
X23368D02*
D03*
X25908D02*
D03*
X28448D02*
D03*
X30988D02*
D03*
X33528D02*
D03*
X36068D02*
D03*
X46228D02*
D03*
X48768D02*
D03*
X43688D02*
D03*
X41148D02*
D03*
X38608D02*
D03*
X13208D02*
D03*
X10668D02*
D03*
X8128D02*
D03*
D27*
X51308D02*
D03*
D28*
X30912Y50241D02*
D03*
X31166Y27610D02*
D03*
X26772Y38329D02*
D03*
X30023Y44196D02*
D03*
X49073Y51841D02*
D03*
X17348Y43028D02*
D03*
X12446Y41732D02*
D03*
X28876Y47193D02*
D03*
X30099Y48108D02*
D03*
X17932Y50902D02*
D03*
X23266Y42951D02*
D03*
X37668Y9728D02*
D03*
X32334Y12294D02*
D03*
X19761Y7976D02*
D03*
X18745D02*
D03*
X12421Y37440D02*
D03*
X9347Y32385D02*
D03*
X45345Y27073D02*
D03*
X47055Y21692D02*
D03*
X12344Y29642D02*
D03*
X45822Y22428D02*
D03*
X31471Y11405D02*
D03*
X33528Y18161D02*
D03*
X13894Y9703D02*
D03*
X42393Y28219D02*
D03*
X39621Y26997D02*
D03*
X20904Y15062D02*
D03*
X32334Y17094D02*
D03*
X14834Y18974D02*
D03*
X16535Y17018D02*
D03*
X36906Y26633D02*
D03*
X36068Y37389D02*
D03*
X35952Y32801D02*
D03*
D29*
X55626Y16205D02*
D03*
X6706Y26187D02*
D03*
X40462Y7950D02*
D03*
%TF.MD5,0415d3505e73c7f0d8f7ecccb82ce510*%
M02*
