%TF.GenerationSoftware,Altium Limited,Altium Designer,24.3.1 (35)*%
G04 Layer_Color=32768*
%FSLAX43Y43*%
%MOMM*%
%TF.SameCoordinates,9DAA59CA-406A-4E62-98C5-13318CB5E6F2*%
%TF.FilePolarity,Positive*%
%TF.FileFunction,Other,Bottom_3D_Body*%
%TF.Part,Single*%
G01*
G75*
%TA.AperFunction,NonConductor*%
%ADD41C,0.200*%
%ADD58C,0.013*%
G36*
X51887Y3185D02*
X52024Y3094D01*
X52115Y2958D01*
X52147Y2797D01*
X52139Y1972D01*
X52147D01*
X52115Y1811D01*
X52024Y1674D01*
X51887Y1583D01*
X51726Y1551D01*
X50901Y1559D01*
Y1551D01*
X50740Y1583D01*
X50604Y1674D01*
X50513Y1811D01*
X50481Y1972D01*
X50489Y2797D01*
X50481D01*
X50513Y2958D01*
X50604Y3094D01*
X50740Y3185D01*
X50901Y3217D01*
Y3209D01*
X51726D01*
Y3217D01*
X51887Y3185D01*
D02*
G37*
D41*
X19976Y35949D02*
X21376D01*
Y33749D02*
Y35949D01*
X19976Y33749D02*
X21376D01*
X19976D02*
Y35949D01*
X15353Y34257D02*
X16753D01*
X15353D02*
Y36457D01*
X16753D01*
Y34257D02*
Y36457D01*
X15328Y41039D02*
Y43239D01*
Y41039D02*
X16778D01*
Y43239D01*
X15328D02*
X16778D01*
X29349Y45458D02*
Y47658D01*
Y45458D02*
X30799D01*
Y47658D01*
X29349D02*
X30799D01*
X13347Y34028D02*
X14797D01*
X13347D02*
Y36228D01*
X14797D01*
Y34028D02*
Y36228D01*
X51103Y14805D02*
Y17555D01*
X47653Y14805D02*
X51103D01*
X47653D02*
Y17555D01*
X51103D01*
X24048Y10033D02*
X26548D01*
Y6833D02*
Y10033D01*
X24048Y6833D02*
X26548D01*
X24048D02*
Y10033D01*
X8063Y38067D02*
Y40267D01*
Y38067D02*
X9463D01*
Y40267D01*
X8063D02*
X9463D01*
X7028Y34022D02*
Y35422D01*
X9228D01*
Y34022D02*
Y35422D01*
X7028Y34022D02*
X9228D01*
X21983Y29218D02*
X23433D01*
Y27018D02*
Y29218D01*
X21983Y27018D02*
X23433D01*
X21983D02*
Y29218D01*
X31310Y34380D02*
X33510D01*
X31310Y32930D02*
Y34380D01*
Y32930D02*
X33510D01*
Y34380D01*
X33794Y28440D02*
Y30640D01*
Y28440D02*
X35244D01*
Y30640D01*
X33794D02*
X35244D01*
X36206Y23487D02*
X37606D01*
X36206D02*
Y25687D01*
X37606D01*
Y23487D02*
Y25687D01*
X11321Y19674D02*
X13521D01*
X11321Y18274D02*
Y19674D01*
Y18274D02*
X13521D01*
Y19674D01*
X11321Y17642D02*
X13521D01*
X11321Y16242D02*
Y17642D01*
Y16242D02*
X13521D01*
Y17642D01*
X15057Y6757D02*
Y9957D01*
Y6757D02*
X17557D01*
Y9957D01*
X15057D02*
X17557D01*
X28112Y6706D02*
Y9906D01*
Y6706D02*
X30612D01*
Y9906D01*
X28112D02*
X30612D01*
X47653Y14354D02*
X51103D01*
X47653Y11604D02*
Y14354D01*
Y11604D02*
X51103D01*
Y14354D01*
X24630Y39076D02*
X26830D01*
Y40476D01*
X24630D02*
X26830D01*
X24630Y39076D02*
Y40476D01*
X24141Y26891D02*
Y29091D01*
Y26891D02*
X25541D01*
Y29091D01*
X24141D02*
X25541D01*
X41899Y24960D02*
Y27160D01*
X40499D02*
X41899D01*
X40499Y24960D02*
Y27160D01*
Y24960D02*
X41899D01*
X31685Y28161D02*
Y30361D01*
Y28161D02*
X33085D01*
Y30361D01*
X31685D02*
X33085D01*
X37301Y28135D02*
Y30335D01*
X35901D02*
X37301D01*
X35901Y28135D02*
Y30335D01*
Y28135D02*
X37301D01*
X26122Y32758D02*
Y34958D01*
Y32758D02*
X27522D01*
Y34958D01*
X26122D02*
X27522D01*
X18299Y37889D02*
Y40089D01*
Y37889D02*
X19699D01*
Y40089D01*
X18299D02*
X19699D01*
X18325Y33723D02*
Y35923D01*
Y33723D02*
X19775D01*
Y35923D01*
X18325D02*
X19775D01*
X13499Y38194D02*
Y40394D01*
Y38194D02*
X14899D01*
Y40394D01*
X13499D02*
X14899D01*
X11266Y34638D02*
Y36838D01*
X9866D02*
X11266D01*
X9866Y34638D02*
Y36838D01*
Y34638D02*
X11266D01*
X9892Y38067D02*
Y40267D01*
Y38067D02*
X11292D01*
Y40267D01*
X9892D02*
X11292D01*
X15175Y47338D02*
Y49538D01*
Y47338D02*
X16625D01*
Y49538D01*
X15175D02*
X16625D01*
X17182Y47541D02*
Y49741D01*
Y47541D02*
X18582D01*
Y49741D01*
X17182D02*
X18582D01*
X19188Y47566D02*
Y49766D01*
Y47566D02*
X20588D01*
Y49766D01*
X19188D02*
X20588D01*
X22646Y43020D02*
Y45220D01*
X21246D02*
X22646D01*
X21246Y43020D02*
Y45220D01*
Y43020D02*
X22646D01*
X27119Y43521D02*
X29319D01*
Y44921D01*
X27119D02*
X29319D01*
X27119Y43521D02*
Y44921D01*
X30701D02*
X32901D01*
X30701Y43521D02*
Y44921D01*
Y43521D02*
X32901D01*
Y44921D01*
X36289Y45934D02*
X38489D01*
Y47334D01*
X36289D02*
X38489D01*
X36289Y45934D02*
Y47334D01*
X33292Y49722D02*
X35492D01*
X33292Y48322D02*
Y49722D01*
Y48322D02*
X35492D01*
Y49722D01*
X39311Y48576D02*
X41511D01*
Y50026D01*
X39311D02*
X41511D01*
X39311Y48576D02*
Y50026D01*
X39261Y50633D02*
X41461D01*
Y52033D01*
X39261D02*
X41461D01*
X39261Y50633D02*
Y52033D01*
X31437Y36362D02*
X33637D01*
X31437Y34962D02*
Y36362D01*
Y34962D02*
X33637D01*
Y36362D01*
X11247Y6706D02*
Y9906D01*
Y6706D02*
X13747D01*
Y9906D01*
X11247D02*
X13747D01*
D58*
X41979Y2384D02*
G03*
X41979Y2384I-825J0D01*
G01*
X39439D02*
G03*
X39439Y2384I-825J0D01*
G01*
X44519D02*
G03*
X44519Y2384I-825J0D01*
G01*
X36899D02*
G03*
X36899Y2384I-825J0D01*
G01*
X47059D02*
G03*
X47059Y2384I-825J0D01*
G01*
X14039D02*
G03*
X14039Y2384I-825J0D01*
G01*
X11499D02*
G03*
X11499Y2384I-825J0D01*
G01*
X8959D02*
G03*
X8959Y2384I-825J0D01*
G01*
X49599D02*
G03*
X49599Y2384I-825J0D01*
G01*
X21659D02*
G03*
X21659Y2384I-825J0D01*
G01*
X24199D02*
G03*
X24199Y2384I-825J0D01*
G01*
X31819D02*
G03*
X31819Y2384I-825J0D01*
G01*
X16579D02*
G03*
X16579Y2384I-825J0D01*
G01*
X29279D02*
G03*
X29279Y2384I-825J0D01*
G01*
X26739D02*
G03*
X26739Y2384I-825J0D01*
G01*
X34359D02*
G03*
X34359Y2384I-825J0D01*
G01*
X19119D02*
G03*
X19119Y2384I-825J0D01*
G01*
X16579D02*
G03*
X16579Y2384I-825J0D01*
G01*
X19119D02*
G03*
X19119Y2384I-825J0D01*
G01*
X21659D02*
G03*
X21659Y2384I-825J0D01*
G01*
X24199D02*
G03*
X24199Y2384I-825J0D01*
G01*
X26739D02*
G03*
X26739Y2384I-825J0D01*
G01*
X29279D02*
G03*
X29279Y2384I-825J0D01*
G01*
X31819D02*
G03*
X31819Y2384I-825J0D01*
G01*
X34359D02*
G03*
X34359Y2384I-825J0D01*
G01*
X36899D02*
G03*
X36899Y2384I-825J0D01*
G01*
X47059D02*
G03*
X47059Y2384I-825J0D01*
G01*
X49599D02*
G03*
X49599Y2384I-825J0D01*
G01*
X44519D02*
G03*
X44519Y2384I-825J0D01*
G01*
X41979D02*
G03*
X41979Y2384I-825J0D01*
G01*
X39439D02*
G03*
X39439Y2384I-825J0D01*
G01*
X14039D02*
G03*
X14039Y2384I-825J0D01*
G01*
X11499D02*
G03*
X11499Y2384I-825J0D01*
G01*
X8959D02*
G03*
X8959Y2384I-825J0D01*
G01*
%TF.MD5,2b068f7682037aa5165c917ee99e701a*%
M02*
