%TF.GenerationSoftware,Altium Limited,Altium Designer,24.10.1 (45)*%
G04 Layer_Color=32768*
%FSLAX43Y43*%
%MOMM*%
%TF.SameCoordinates,766D9AF5-BA92-4156-BEB6-FD46E2A8267A*%
%TF.FilePolarity,Positive*%
%TF.FileFunction,Other,Bottom_Courtyard*%
%TF.Part,Single*%
G01*
G75*
%TA.AperFunction,NonConductor*%
%ADD81C,0.200*%
D81*
X150997Y28204D02*
Y31004D01*
X149297D02*
X150997D01*
X149297Y28204D02*
Y31004D01*
Y28204D02*
X150997D01*
X46852Y43782D02*
X48402D01*
Y41170D02*
Y43782D01*
X46852Y41170D02*
X48402D01*
X46852D02*
Y43782D01*
Y37880D02*
X48402D01*
X46852D02*
Y40492D01*
X48402D01*
Y37880D02*
Y40492D01*
X155092Y14007D02*
Y21117D01*
Y14007D02*
X160592D01*
Y21117D01*
X155092D02*
X160592D01*
X145673Y178954D02*
Y182074D01*
X152373D01*
Y178954D02*
Y182074D01*
X145673Y178954D02*
X152373D01*
X145943Y193294D02*
Y196414D01*
X152643D01*
Y193294D02*
Y196414D01*
X145943Y193294D02*
X152643D01*
X146260Y208904D02*
Y212024D01*
X152960D01*
Y208904D02*
Y212024D01*
X146260Y208904D02*
X152960D01*
X146255Y223059D02*
Y226179D01*
X152955D01*
Y223059D02*
Y226179D01*
X146255Y223059D02*
X152955D01*
X146460Y270903D02*
X153160D01*
Y274023D01*
X146460D02*
X153160D01*
X146460Y270903D02*
Y274023D01*
Y284713D02*
X153160D01*
Y287833D01*
X146460D02*
X153160D01*
X146460Y284713D02*
Y287833D01*
X146506Y241178D02*
Y244298D01*
X153206D01*
Y241178D02*
Y244298D01*
X146506Y241178D02*
X153206D01*
X146322Y255588D02*
X153022D01*
Y258708D01*
X146322D02*
X153022D01*
X146322Y255588D02*
Y258708D01*
X146074Y56005D02*
Y59125D01*
X152774D01*
Y56005D02*
Y59125D01*
X146074Y56005D02*
X152774D01*
X146074Y70415D02*
X152774D01*
Y73535D01*
X146074D02*
X152774D01*
X146074Y70415D02*
Y73535D01*
X146174Y85425D02*
Y88545D01*
X152874D01*
Y85425D02*
Y88545D01*
X146174Y85425D02*
X152874D01*
X146479Y99688D02*
X153179D01*
Y102808D01*
X146479D02*
X153179D01*
X146479Y99688D02*
Y102808D01*
X146584Y147499D02*
X153284D01*
Y150619D01*
X146584D02*
X153284D01*
X146584Y147499D02*
Y150619D01*
Y161169D02*
X153284D01*
Y164289D01*
X146584D02*
X153284D01*
X146584Y161169D02*
Y164289D01*
X146056Y118049D02*
X152756D01*
Y121169D01*
X146056D02*
X152756D01*
X146056Y118049D02*
Y121169D01*
X146041Y131965D02*
X152741D01*
Y135085D01*
X146041D02*
X152741D01*
X146041Y131965D02*
Y135085D01*
X10330Y100149D02*
Y103269D01*
X3630Y100149D02*
X10330D01*
X3630D02*
Y103269D01*
X10330D01*
%TF.MD5,31b96ac60f5a8ee6627073da0f7532e2*%
M02*
