%TF.GenerationSoftware,Altium Limited,Altium Designer,24.10.1 (45)*%
G04 Layer_Color=32896*
%FSLAX43Y43*%
%MOMM*%
%TF.SameCoordinates,766D9AF5-BA92-4156-BEB6-FD46E2A8267A*%
%TF.FilePolarity,Positive*%
%TF.FileFunction,Other,Top_Component_Outline*%
%TF.Part,Single*%
G01*
G75*
%TA.AperFunction,NonConductor*%
%ADD100C,0.100*%
D100*
X23425Y116850D02*
G03*
X23425Y109850I1684J-3500D01*
G01*
X26825D02*
G03*
X26825Y116850I-1684J3500D01*
G01*
X22075Y113350D02*
G03*
X22075Y113350I-250J0D01*
G01*
X16370Y100909D02*
G03*
X16370Y100909I-250J0D01*
G01*
X19620Y105909D02*
G03*
X12620Y105909I-3500J-1684D01*
G01*
Y102509D02*
G03*
X19620Y102509I3500J1684D01*
G01*
X122125Y6325D02*
G03*
X122125Y6325I-500J0D01*
G01*
X123675Y10825D02*
G03*
X123675Y1825I1490J-4500D01*
G01*
X127175D02*
G03*
X127175Y10825I-1490J4500D01*
G01*
X52330Y101789D02*
G03*
X52330Y101789I-250J0D01*
G01*
X57080Y98289D02*
G03*
X57080Y105289I-1684J3500D01*
G01*
X53680D02*
G03*
X53680Y98289I1684J-3500D01*
G01*
X11210Y79099D02*
G03*
X11210Y79099I-250J0D01*
G01*
X14460Y84099D02*
G03*
X7460Y84099I-3500J-1684D01*
G01*
Y80699D02*
G03*
X14460Y80699I3500J1684D01*
G01*
X23425Y109850D02*
X26825D01*
X23425Y116850D02*
X26825D01*
X12620Y102509D02*
Y105909D01*
X19620Y102509D02*
Y105909D01*
X123675Y10825D02*
X127175D01*
X123675Y1825D02*
X127175D01*
X46772Y67537D02*
X59472D01*
X46772Y70077D02*
X59472D01*
Y67537D02*
Y70077D01*
X46772Y67537D02*
Y70077D01*
X149602Y2962D02*
X150202Y2712D01*
X149602Y1762D02*
X150202Y2012D01*
X149602Y1762D02*
Y2962D01*
X150202Y2712D02*
Y8862D01*
Y-138D02*
Y2012D01*
Y-138D02*
X165202D01*
X150202Y8862D02*
X165202D01*
Y-138D02*
Y7212D01*
Y7912D02*
Y8862D01*
Y7912D02*
X165803Y8162D01*
Y6962D02*
Y8162D01*
X165202Y7212D02*
X165803Y6962D01*
X44460Y223315D02*
Y225135D01*
X51440D02*
X52080D01*
X46360Y223315D02*
Y225135D01*
X47000Y223315D02*
Y225135D01*
X53980Y223315D02*
Y225135D01*
X54620Y223315D02*
Y225135D01*
X57160Y223315D02*
Y225135D01*
X56520Y223315D02*
Y225135D01*
X52080Y223315D02*
Y225135D01*
X48900Y223315D02*
Y225135D01*
X49540Y223315D02*
Y225135D01*
X51440Y223315D02*
Y225135D01*
X59060Y223315D02*
Y225135D01*
X43820D02*
X44460D01*
X46360D02*
X47000D01*
X41280D02*
X41920D01*
X38740D02*
X39380D01*
X48900D02*
X49540D01*
X61600Y223315D02*
Y225135D01*
X59700Y223315D02*
Y225135D01*
X27630Y223315D02*
X73350D01*
X66680D02*
Y225135D01*
X64140Y223315D02*
Y225135D01*
X64780Y223315D02*
Y225135D01*
X67320Y223315D02*
Y225135D01*
X62240Y223315D02*
Y225135D01*
X69220Y223315D02*
Y225135D01*
X69860Y223315D02*
Y225135D01*
X71760Y223315D02*
Y225135D01*
X72400Y223315D02*
Y225135D01*
X27630Y220775D02*
X73350D01*
Y223315D01*
X38740D02*
Y225135D01*
X39380Y223315D02*
Y225135D01*
X41280Y223315D02*
Y225135D01*
X43820Y223315D02*
Y225135D01*
X41920Y223315D02*
Y225135D01*
X31760Y223315D02*
Y225135D01*
X28580Y223315D02*
Y225135D01*
X59060D02*
X59700D01*
X71760D02*
X72400D01*
X56520D02*
X57160D01*
X53980D02*
X54620D01*
X61600D02*
X62240D01*
X66680D02*
X67320D01*
X64140D02*
X64780D01*
X69220D02*
X69860D01*
X36200D02*
X36840D01*
X31120D02*
X31760D01*
X33660D02*
X34300D01*
X28580D02*
X29220D01*
Y223315D02*
Y225135D01*
X31120Y223315D02*
Y225135D01*
X33660Y223315D02*
Y225135D01*
X36200Y223315D02*
Y225135D01*
X36840Y223315D02*
Y225135D01*
X34300Y223315D02*
Y225135D01*
X27630Y220775D02*
Y223315D01*
X44420Y173315D02*
Y175135D01*
X51400D02*
X52040D01*
X46320Y173315D02*
Y175135D01*
X46960Y173315D02*
Y175135D01*
X53940Y173315D02*
Y175135D01*
X54580Y173315D02*
Y175135D01*
X57120Y173315D02*
Y175135D01*
X56480Y173315D02*
Y175135D01*
X52040Y173315D02*
Y175135D01*
X48860Y173315D02*
Y175135D01*
X49500Y173315D02*
Y175135D01*
X51400Y173315D02*
Y175135D01*
X59020Y173315D02*
Y175135D01*
X43780D02*
X44420D01*
X46320D02*
X46960D01*
X41240D02*
X41880D01*
X38700D02*
X39340D01*
X48860D02*
X49500D01*
X61560Y173315D02*
Y175135D01*
X59660Y173315D02*
Y175135D01*
X27590Y173315D02*
X73310D01*
X66640D02*
Y175135D01*
X64100Y173315D02*
Y175135D01*
X64740Y173315D02*
Y175135D01*
X67280Y173315D02*
Y175135D01*
X62200Y173315D02*
Y175135D01*
X69180Y173315D02*
Y175135D01*
X69820Y173315D02*
Y175135D01*
X71720Y173315D02*
Y175135D01*
X72360Y173315D02*
Y175135D01*
X27590Y170775D02*
X73310D01*
Y173315D01*
X38700D02*
Y175135D01*
X39340Y173315D02*
Y175135D01*
X41240Y173315D02*
Y175135D01*
X43780Y173315D02*
Y175135D01*
X41880Y173315D02*
Y175135D01*
X31720Y173315D02*
Y175135D01*
X28540Y173315D02*
Y175135D01*
X59020D02*
X59660D01*
X71720D02*
X72360D01*
X56480D02*
X57120D01*
X53940D02*
X54580D01*
X61560D02*
X62200D01*
X66640D02*
X67280D01*
X64100D02*
X64740D01*
X69180D02*
X69820D01*
X36160D02*
X36800D01*
X31080D02*
X31720D01*
X33620D02*
X34260D01*
X28540D02*
X29180D01*
Y173315D02*
Y175135D01*
X31080Y173315D02*
Y175135D01*
X33620Y173315D02*
Y175135D01*
X36160Y173315D02*
Y175135D01*
X36800Y173315D02*
Y175135D01*
X34260Y173315D02*
Y175135D01*
X27590Y170775D02*
Y173315D01*
X44430Y197315D02*
Y199135D01*
X51410D02*
X52050D01*
X46330Y197315D02*
Y199135D01*
X46970Y197315D02*
Y199135D01*
X53950Y197315D02*
Y199135D01*
X54590Y197315D02*
Y199135D01*
X57130Y197315D02*
Y199135D01*
X56490Y197315D02*
Y199135D01*
X52050Y197315D02*
Y199135D01*
X48870Y197315D02*
Y199135D01*
X49510Y197315D02*
Y199135D01*
X51410Y197315D02*
Y199135D01*
X59030Y197315D02*
Y199135D01*
X43790D02*
X44430D01*
X46330D02*
X46970D01*
X41250D02*
X41890D01*
X38710D02*
X39350D01*
X48870D02*
X49510D01*
X61570Y197315D02*
Y199135D01*
X59670Y197315D02*
Y199135D01*
X27600Y197315D02*
X73320D01*
X66650D02*
Y199135D01*
X64110Y197315D02*
Y199135D01*
X64750Y197315D02*
Y199135D01*
X67290Y197315D02*
Y199135D01*
X62210Y197315D02*
Y199135D01*
X69190Y197315D02*
Y199135D01*
X69830Y197315D02*
Y199135D01*
X71730Y197315D02*
Y199135D01*
X72370Y197315D02*
Y199135D01*
X27600Y194775D02*
X73320D01*
Y197315D01*
X38710D02*
Y199135D01*
X39350Y197315D02*
Y199135D01*
X41250Y197315D02*
Y199135D01*
X43790Y197315D02*
Y199135D01*
X41890Y197315D02*
Y199135D01*
X31730Y197315D02*
Y199135D01*
X28550Y197315D02*
Y199135D01*
X59030D02*
X59670D01*
X71730D02*
X72370D01*
X56490D02*
X57130D01*
X53950D02*
X54590D01*
X61570D02*
X62210D01*
X66650D02*
X67290D01*
X64110D02*
X64750D01*
X69190D02*
X69830D01*
X36170D02*
X36810D01*
X31090D02*
X31730D01*
X33630D02*
X34270D01*
X28550D02*
X29190D01*
Y197315D02*
Y199135D01*
X31090Y197315D02*
Y199135D01*
X33630Y197315D02*
Y199135D01*
X36170Y197315D02*
Y199135D01*
X36810Y197315D02*
Y199135D01*
X34270Y197315D02*
Y199135D01*
X27600Y194775D02*
Y197315D01*
X44370Y147315D02*
Y149135D01*
X51350D02*
X51990D01*
X46270Y147315D02*
Y149135D01*
X46910Y147315D02*
Y149135D01*
X53890Y147315D02*
Y149135D01*
X54530Y147315D02*
Y149135D01*
X57070Y147315D02*
Y149135D01*
X56430Y147315D02*
Y149135D01*
X51990Y147315D02*
Y149135D01*
X48810Y147315D02*
Y149135D01*
X49450Y147315D02*
Y149135D01*
X51350Y147315D02*
Y149135D01*
X58970Y147315D02*
Y149135D01*
X43730D02*
X44370D01*
X46270D02*
X46910D01*
X41190D02*
X41830D01*
X38650D02*
X39290D01*
X48810D02*
X49450D01*
X61510Y147315D02*
Y149135D01*
X59610Y147315D02*
Y149135D01*
X27540Y147315D02*
X73260D01*
X66590D02*
Y149135D01*
X64050Y147315D02*
Y149135D01*
X64690Y147315D02*
Y149135D01*
X67230Y147315D02*
Y149135D01*
X62150Y147315D02*
Y149135D01*
X69130Y147315D02*
Y149135D01*
X69770Y147315D02*
Y149135D01*
X71670Y147315D02*
Y149135D01*
X72310Y147315D02*
Y149135D01*
X27540Y144775D02*
X73260D01*
Y147315D01*
X38650D02*
Y149135D01*
X39290Y147315D02*
Y149135D01*
X41190Y147315D02*
Y149135D01*
X43730Y147315D02*
Y149135D01*
X41830Y147315D02*
Y149135D01*
X31670Y147315D02*
Y149135D01*
X28490Y147315D02*
Y149135D01*
X58970D02*
X59610D01*
X71670D02*
X72310D01*
X56430D02*
X57070D01*
X53890D02*
X54530D01*
X61510D02*
X62150D01*
X66590D02*
X67230D01*
X64050D02*
X64690D01*
X69130D02*
X69770D01*
X36110D02*
X36750D01*
X31030D02*
X31670D01*
X33570D02*
X34210D01*
X28490D02*
X29130D01*
Y147315D02*
Y149135D01*
X31030Y147315D02*
Y149135D01*
X33570Y147315D02*
Y149135D01*
X36110Y147315D02*
Y149135D01*
X36750Y147315D02*
Y149135D01*
X34210Y147315D02*
Y149135D01*
X27540Y144775D02*
Y147315D01*
X53680Y105289D02*
X57080D01*
X53680Y98289D02*
X57080D01*
X7460Y80699D02*
Y84099D01*
X14460Y80699D02*
Y84099D01*
X12600Y119400D02*
X12850Y120000D01*
X12600Y119400D02*
X13800D01*
X13550Y120000D02*
X13800Y119400D01*
X8350Y130000D02*
X8600Y130600D01*
X7400D02*
X7650Y130000D01*
X7400Y130600D02*
X8600D01*
X8350Y130000D02*
X14500D01*
X5500D02*
X7650D01*
X5500Y120000D02*
Y130000D01*
X14500Y120000D02*
Y130000D01*
X13550Y120000D02*
X14500D01*
X5500D02*
X12850D01*
X27560Y244775D02*
Y247315D01*
X34230D02*
Y249135D01*
X36770Y247315D02*
Y249135D01*
X36130Y247315D02*
Y249135D01*
X33590Y247315D02*
Y249135D01*
X31050Y247315D02*
Y249135D01*
X29150Y247315D02*
Y249135D01*
X28510D02*
X29150D01*
X33590D02*
X34230D01*
X31050D02*
X31690D01*
X36130D02*
X36770D01*
X69150D02*
X69790D01*
X64070D02*
X64710D01*
X66610D02*
X67250D01*
X61530D02*
X62170D01*
X53910D02*
X54550D01*
X56450D02*
X57090D01*
X71690D02*
X72330D01*
X58990D02*
X59630D01*
X28510Y247315D02*
Y249135D01*
X31690Y247315D02*
Y249135D01*
X41850Y247315D02*
Y249135D01*
X43750Y247315D02*
Y249135D01*
X41210Y247315D02*
Y249135D01*
X39310Y247315D02*
Y249135D01*
X38670Y247315D02*
Y249135D01*
X73280Y244775D02*
Y247315D01*
X27560Y244775D02*
X73280D01*
X72330Y247315D02*
Y249135D01*
X71690Y247315D02*
Y249135D01*
X69790Y247315D02*
Y249135D01*
X69150Y247315D02*
Y249135D01*
X62170Y247315D02*
Y249135D01*
X67250Y247315D02*
Y249135D01*
X64710Y247315D02*
Y249135D01*
X64070Y247315D02*
Y249135D01*
X66610Y247315D02*
Y249135D01*
X27560Y247315D02*
X73280D01*
X59630D02*
Y249135D01*
X61530Y247315D02*
Y249135D01*
X48830D02*
X49470D01*
X38670D02*
X39310D01*
X41210D02*
X41850D01*
X46290D02*
X46930D01*
X43750D02*
X44390D01*
X58990Y247315D02*
Y249135D01*
X51370Y247315D02*
Y249135D01*
X49470Y247315D02*
Y249135D01*
X48830Y247315D02*
Y249135D01*
X52010Y247315D02*
Y249135D01*
X56450Y247315D02*
Y249135D01*
X57090Y247315D02*
Y249135D01*
X54550Y247315D02*
Y249135D01*
X53910Y247315D02*
Y249135D01*
X46930Y247315D02*
Y249135D01*
X46290Y247315D02*
Y249135D01*
X51370D02*
X52010D01*
X44390Y247315D02*
Y249135D01*
X27650Y270775D02*
Y273315D01*
X34320D02*
Y275135D01*
X36860Y273315D02*
Y275135D01*
X36220Y273315D02*
Y275135D01*
X33680Y273315D02*
Y275135D01*
X31140Y273315D02*
Y275135D01*
X29240Y273315D02*
Y275135D01*
X28600D02*
X29240D01*
X33680D02*
X34320D01*
X31140D02*
X31780D01*
X36220D02*
X36860D01*
X69240D02*
X69880D01*
X64160D02*
X64800D01*
X66700D02*
X67340D01*
X61620D02*
X62260D01*
X54000D02*
X54640D01*
X56540D02*
X57180D01*
X71780D02*
X72420D01*
X59080D02*
X59720D01*
X28600Y273315D02*
Y275135D01*
X31780Y273315D02*
Y275135D01*
X41940Y273315D02*
Y275135D01*
X43840Y273315D02*
Y275135D01*
X41300Y273315D02*
Y275135D01*
X39400Y273315D02*
Y275135D01*
X38760Y273315D02*
Y275135D01*
X73370Y270775D02*
Y273315D01*
X27650Y270775D02*
X73370D01*
X72420Y273315D02*
Y275135D01*
X71780Y273315D02*
Y275135D01*
X69880Y273315D02*
Y275135D01*
X69240Y273315D02*
Y275135D01*
X62260Y273315D02*
Y275135D01*
X67340Y273315D02*
Y275135D01*
X64800Y273315D02*
Y275135D01*
X64160Y273315D02*
Y275135D01*
X66700Y273315D02*
Y275135D01*
X27650Y273315D02*
X73370D01*
X59720D02*
Y275135D01*
X61620Y273315D02*
Y275135D01*
X48920D02*
X49560D01*
X38760D02*
X39400D01*
X41300D02*
X41940D01*
X46380D02*
X47020D01*
X43840D02*
X44480D01*
X59080Y273315D02*
Y275135D01*
X51460Y273315D02*
Y275135D01*
X49560Y273315D02*
Y275135D01*
X48920Y273315D02*
Y275135D01*
X52100Y273315D02*
Y275135D01*
X56540Y273315D02*
Y275135D01*
X57180Y273315D02*
Y275135D01*
X54640Y273315D02*
Y275135D01*
X54000Y273315D02*
Y275135D01*
X47020Y273315D02*
Y275135D01*
X46380Y273315D02*
Y275135D01*
X51460D02*
X52100D01*
X44480Y273315D02*
Y275135D01*
%TF.MD5,8d00bf0035f09e15fbfec3a43eb05d55*%
M02*
