%TF.GenerationSoftware,Altium Limited,Altium Designer,24.10.1 (45)*%
G04 Layer_Color=16711935*
%FSLAX43Y43*%
%MOMM*%
%TF.SameCoordinates,766D9AF5-BA92-4156-BEB6-FD46E2A8267A*%
%TF.FilePolarity,Positive*%
%TF.FileFunction,Other,Top_Courtyard*%
%TF.Part,Single*%
G01*
G75*
%TA.AperFunction,NonConductor*%
%ADD81C,0.200*%
%ADD103C,0.050*%
D81*
X134508Y24172D02*
X146558D01*
Y17722D02*
Y24172D01*
X134508Y17722D02*
X146558D01*
X134508D02*
Y24172D01*
X113753Y187014D02*
X125353D01*
Y176014D02*
Y187014D01*
X113753Y176014D02*
X125353D01*
X113753D02*
Y187014D01*
X113700Y216894D02*
X125300D01*
Y205894D02*
Y216894D01*
X113700Y205894D02*
X125300D01*
X113700D02*
Y216894D01*
X113890Y279733D02*
X125490D01*
Y268733D02*
Y279733D01*
X113890Y268733D02*
X125490D01*
X113890D02*
Y279733D01*
X113962Y249168D02*
X125562D01*
Y238168D02*
Y249168D01*
X113962Y238168D02*
X125562D01*
X113962D02*
Y249168D01*
X113774Y54445D02*
Y65445D01*
Y54445D02*
X125374D01*
Y65445D01*
X113774D02*
X125374D01*
X113844Y93715D02*
X125444D01*
Y82715D02*
Y93715D01*
X113844Y82715D02*
X125444D01*
X113844D02*
Y93715D01*
X114014Y155209D02*
X125614D01*
Y144209D02*
Y155209D01*
X114014Y144209D02*
X125614D01*
X114014D02*
Y155209D01*
X114216Y125904D02*
X125816D01*
Y114904D02*
Y125904D01*
X114216Y114904D02*
X125816D01*
X114216D02*
Y125904D01*
X140675Y2775D02*
Y14375D01*
X131675Y2775D02*
X140675D01*
X131675D02*
Y14375D01*
X140675D01*
X22010Y96959D02*
X33610D01*
Y87959D02*
Y96959D01*
X22010Y87959D02*
X33610D01*
X22010D02*
Y96959D01*
D103*
X24625Y113350D02*
X25625D01*
X25125Y112850D02*
Y113850D01*
X20925Y109400D02*
Y117300D01*
Y109400D02*
X29325D01*
Y117300D01*
X20925D02*
X29325D01*
X12170Y100009D02*
Y108409D01*
X20070D01*
Y100009D02*
Y108409D01*
X12170Y100009D02*
X20070D01*
X15620Y104209D02*
X16620D01*
X16120Y103709D02*
Y104709D01*
X125425Y5825D02*
Y6825D01*
X124925Y6325D02*
X125925D01*
X120225Y11275D02*
X130625D01*
Y1375D02*
Y11275D01*
X120225Y1375D02*
X130625D01*
X120225D02*
Y11275D01*
X52622Y68807D02*
X53622D01*
X53122Y68307D02*
Y69307D01*
X46422Y67262D02*
X59822D01*
X46422D02*
Y70352D01*
X59822D01*
Y67262D02*
Y70352D01*
X149402Y9062D02*
X166002D01*
Y-338D02*
Y9062D01*
X149402Y-338D02*
X166002D01*
X149402D02*
Y9062D01*
X27280Y225840D02*
X73700D01*
X50490Y221545D02*
Y222545D01*
X49990Y222045D02*
X50990D01*
X27240Y175840D02*
X73660D01*
X50450Y171545D02*
Y172545D01*
X49950Y172045D02*
X50950D01*
X27250Y199840D02*
X73670D01*
X50460Y195545D02*
Y196545D01*
X49960Y196045D02*
X50960D01*
X27190Y149840D02*
X73610D01*
X50400Y145545D02*
Y146545D01*
X49900Y146045D02*
X50900D01*
X51180Y105739D02*
X59580D01*
Y97839D02*
Y105739D01*
X51180Y97839D02*
X59580D01*
X51180D02*
Y105739D01*
X55380Y101289D02*
Y102289D01*
X54880Y101789D02*
X55880D01*
X7010Y78199D02*
Y86599D01*
X14910D01*
Y78199D02*
Y86599D01*
X7010Y78199D02*
X14910D01*
X10460Y82399D02*
X11460D01*
X10960Y81899D02*
Y82899D01*
X14700Y119200D02*
Y130800D01*
X5300Y119200D02*
X14700D01*
X5300D02*
Y130800D01*
X14700D01*
X49920Y246045D02*
X50920D01*
X50420Y245545D02*
Y246545D01*
X27210Y249840D02*
X73630D01*
X50010Y272045D02*
X51010D01*
X50510Y271545D02*
Y272545D01*
X27300Y275840D02*
X73720D01*
%TF.MD5,579aa3ed2c60084b821cf80c2d920af3*%
M02*
