%TF.GenerationSoftware,Altium Limited,Altium Designer,24.10.1 (45)*%
G04 Layer_Color=8388736*
%FSLAX43Y43*%
%MOMM*%
%TF.SameCoordinates,766D9AF5-BA92-4156-BEB6-FD46E2A8267A*%
%TF.FilePolarity,Positive*%
%TF.FileFunction,Other,Top_Assembly*%
%TF.Part,Single*%
G01*
G75*
%TA.AperFunction,NonConductor*%
%ADD81C,0.200*%
%ADD100C,0.100*%
%ADD101R,1.300X2.175*%
G36*
X141036Y21228D02*
Y21227D01*
Y21223D01*
Y21219D01*
Y21212D01*
X141035Y21204D01*
Y21195D01*
X141034Y21184D01*
X141033Y21173D01*
X141030Y21148D01*
X141027Y21122D01*
X141021Y21097D01*
X141017Y21085D01*
X141014Y21074D01*
Y21073D01*
X141013Y21071D01*
X141011Y21068D01*
X141009Y21064D01*
X141004Y21054D01*
X140995Y21041D01*
X140984Y21026D01*
X140971Y21012D01*
X140955Y20996D01*
X140934Y20982D01*
X140933D01*
X140931Y20980D01*
X140929Y20979D01*
X140924Y20977D01*
X140919Y20974D01*
X140911Y20971D01*
X140904Y20968D01*
X140894Y20965D01*
X140884Y20961D01*
X140873Y20958D01*
X140861Y20955D01*
X140847Y20953D01*
X140833Y20951D01*
X140819Y20949D01*
X140785Y20947D01*
X140777D01*
X140771Y20948D01*
X140763D01*
X140754Y20949D01*
X140744Y20950D01*
X140734Y20951D01*
X140710Y20954D01*
X140686Y20960D01*
X140661Y20967D01*
X140638Y20977D01*
X140637D01*
X140636Y20979D01*
X140633Y20981D01*
X140629Y20983D01*
X140619Y20990D01*
X140607Y21001D01*
X140593Y21014D01*
X140580Y21028D01*
X140567Y21047D01*
X140557Y21067D01*
Y21068D01*
X140556Y21070D01*
X140555Y21074D01*
X140553Y21078D01*
X140551Y21084D01*
X140550Y21091D01*
X140547Y21100D01*
X140545Y21110D01*
X140543Y21121D01*
X140540Y21133D01*
X140539Y21146D01*
X140537Y21160D01*
X140535Y21175D01*
X140534Y21192D01*
X140533Y21210D01*
Y21228D01*
Y21598D01*
X140618D01*
Y21228D01*
Y21227D01*
Y21224D01*
Y21220D01*
Y21214D01*
X140619Y21208D01*
Y21199D01*
X140620Y21182D01*
X140622Y21161D01*
X140625Y21141D01*
X140628Y21122D01*
X140630Y21113D01*
X140633Y21105D01*
X140634Y21103D01*
X140636Y21099D01*
X140640Y21092D01*
X140646Y21083D01*
X140652Y21074D01*
X140661Y21063D01*
X140673Y21053D01*
X140686Y21045D01*
X140687Y21044D01*
X140692Y21041D01*
X140700Y21039D01*
X140711Y21035D01*
X140724Y21030D01*
X140741Y21027D01*
X140759Y21025D01*
X140778Y21024D01*
X140787D01*
X140793Y21025D01*
X140801D01*
X140809Y21026D01*
X140830Y21029D01*
X140852Y21034D01*
X140873Y21041D01*
X140894Y21051D01*
X140903Y21058D01*
X140911Y21065D01*
X140912Y21066D01*
X140913Y21067D01*
X140915Y21070D01*
X140918Y21074D01*
X140920Y21079D01*
X140924Y21085D01*
X140928Y21093D01*
X140931Y21101D01*
X140935Y21112D01*
X140938Y21124D01*
X140942Y21137D01*
X140944Y21152D01*
X140947Y21169D01*
X140949Y21186D01*
X140951Y21207D01*
Y21228D01*
Y21598D01*
X141036D01*
Y21228D01*
D02*
G37*
G36*
X141372Y21600D02*
X141380Y21599D01*
X141389Y21598D01*
X141399Y21596D01*
X141409Y21594D01*
X141434Y21588D01*
X141458Y21578D01*
X141470Y21573D01*
X141482Y21566D01*
X141493Y21558D01*
X141503Y21549D01*
X141504Y21548D01*
X141506Y21547D01*
X141507Y21543D01*
X141511Y21540D01*
X141516Y21535D01*
X141520Y21529D01*
X141525Y21522D01*
X141531Y21514D01*
X141540Y21496D01*
X141549Y21474D01*
X141553Y21463D01*
X141555Y21450D01*
X141556Y21437D01*
X141557Y21423D01*
Y21421D01*
Y21417D01*
X141556Y21409D01*
X141556Y21399D01*
X141554Y21388D01*
X141550Y21375D01*
X141546Y21361D01*
X141541Y21347D01*
X141540Y21345D01*
X141538Y21341D01*
X141534Y21333D01*
X141529Y21323D01*
X141521Y21312D01*
X141512Y21298D01*
X141501Y21284D01*
X141488Y21269D01*
X141486Y21267D01*
X141482Y21261D01*
X141477Y21257D01*
X141472Y21252D01*
X141467Y21247D01*
X141459Y21239D01*
X141452Y21232D01*
X141443Y21223D01*
X141434Y21214D01*
X141422Y21204D01*
X141410Y21194D01*
X141397Y21182D01*
X141383Y21170D01*
X141368Y21157D01*
X141367Y21156D01*
X141365Y21154D01*
X141361Y21151D01*
X141357Y21148D01*
X141351Y21142D01*
X141345Y21137D01*
X141330Y21125D01*
X141314Y21111D01*
X141299Y21097D01*
X141286Y21085D01*
X141281Y21080D01*
X141276Y21076D01*
X141275Y21075D01*
X141273Y21072D01*
X141269Y21068D01*
X141264Y21063D01*
X141260Y21056D01*
X141254Y21050D01*
X141243Y21034D01*
X141558D01*
Y20958D01*
X141134D01*
Y20959D01*
Y20963D01*
Y20968D01*
X141135Y20976D01*
X141136Y20984D01*
X141138Y20993D01*
X141139Y21002D01*
X141143Y21013D01*
Y21014D01*
X141144Y21014D01*
X141146Y21020D01*
X141150Y21028D01*
X141155Y21039D01*
X141163Y21052D01*
X141172Y21067D01*
X141182Y21082D01*
X141195Y21098D01*
Y21099D01*
X141197Y21100D01*
X141201Y21105D01*
X141210Y21113D01*
X141222Y21125D01*
X141236Y21139D01*
X141253Y21156D01*
X141274Y21174D01*
X141298Y21194D01*
X141299Y21195D01*
X141302Y21198D01*
X141308Y21202D01*
X141314Y21208D01*
X141323Y21215D01*
X141333Y21223D01*
X141343Y21233D01*
X141355Y21243D01*
X141378Y21265D01*
X141401Y21287D01*
X141412Y21298D01*
X141422Y21309D01*
X141432Y21320D01*
X141439Y21330D01*
Y21331D01*
X141441Y21332D01*
X141443Y21334D01*
X141445Y21338D01*
X141451Y21348D01*
X141458Y21360D01*
X141465Y21375D01*
X141471Y21391D01*
X141475Y21408D01*
X141477Y21425D01*
Y21426D01*
Y21427D01*
X141476Y21432D01*
X141475Y21442D01*
X141472Y21452D01*
X141469Y21465D01*
X141462Y21478D01*
X141454Y21491D01*
X141443Y21504D01*
X141441Y21505D01*
X141436Y21509D01*
X141430Y21514D01*
X141420Y21520D01*
X141407Y21526D01*
X141392Y21531D01*
X141374Y21535D01*
X141355Y21536D01*
X141349D01*
X141346Y21535D01*
X141335Y21534D01*
X141322Y21531D01*
X141308Y21528D01*
X141292Y21521D01*
X141277Y21513D01*
X141263Y21502D01*
X141262Y21500D01*
X141258Y21495D01*
X141252Y21488D01*
X141247Y21477D01*
X141240Y21464D01*
X141235Y21447D01*
X141231Y21429D01*
X141229Y21407D01*
X141149Y21416D01*
Y21417D01*
X141150Y21419D01*
Y21424D01*
X141151Y21431D01*
X141152Y21438D01*
X141154Y21446D01*
X141157Y21456D01*
X141160Y21467D01*
X141167Y21489D01*
X141178Y21511D01*
X141185Y21522D01*
X141193Y21533D01*
X141201Y21543D01*
X141211Y21553D01*
X141212Y21553D01*
X141213Y21554D01*
X141216Y21557D01*
X141221Y21560D01*
X141226Y21564D01*
X141233Y21567D01*
X141240Y21572D01*
X141250Y21577D01*
X141260Y21581D01*
X141271Y21586D01*
X141283Y21590D01*
X141296Y21593D01*
X141310Y21596D01*
X141324Y21599D01*
X141340Y21600D01*
X141357Y21601D01*
X141366D01*
X141372Y21600D01*
D02*
G37*
G36*
X120056Y181795D02*
Y181794D01*
Y181790D01*
Y181786D01*
Y181779D01*
X120055Y181771D01*
Y181762D01*
X120054Y181750D01*
X120053Y181739D01*
X120050Y181714D01*
X120046Y181689D01*
X120041Y181664D01*
X120037Y181652D01*
X120034Y181640D01*
Y181640D01*
X120033Y181638D01*
X120031Y181635D01*
X120029Y181631D01*
X120023Y181621D01*
X120015Y181608D01*
X120004Y181593D01*
X119991Y181578D01*
X119974Y181563D01*
X119954Y181549D01*
X119953D01*
X119951Y181547D01*
X119948Y181546D01*
X119944Y181543D01*
X119938Y181541D01*
X119931Y181538D01*
X119924Y181535D01*
X119914Y181531D01*
X119904Y181528D01*
X119893Y181525D01*
X119881Y181522D01*
X119867Y181519D01*
X119853Y181517D01*
X119838Y181516D01*
X119805Y181514D01*
X119797D01*
X119790Y181515D01*
X119783D01*
X119774Y181516D01*
X119764Y181517D01*
X119753Y181517D01*
X119730Y181521D01*
X119705Y181527D01*
X119681Y181534D01*
X119658Y181544D01*
X119657D01*
X119655Y181546D01*
X119653Y181548D01*
X119649Y181550D01*
X119639Y181557D01*
X119627Y181567D01*
X119613Y181580D01*
X119600Y181595D01*
X119587Y181614D01*
X119577Y181634D01*
Y181635D01*
X119576Y181637D01*
X119575Y181640D01*
X119573Y181645D01*
X119571Y181651D01*
X119569Y181658D01*
X119567Y181666D01*
X119565Y181676D01*
X119563Y181688D01*
X119560Y181700D01*
X119558Y181713D01*
X119556Y181726D01*
X119555Y181742D01*
X119554Y181759D01*
X119553Y181776D01*
Y181795D01*
Y182165D01*
X119638D01*
Y181795D01*
Y181794D01*
Y181791D01*
Y181787D01*
Y181781D01*
X119639Y181775D01*
Y181766D01*
X119640Y181749D01*
X119642Y181728D01*
X119644Y181708D01*
X119648Y181689D01*
X119650Y181680D01*
X119653Y181672D01*
X119654Y181670D01*
X119655Y181665D01*
X119660Y181659D01*
X119666Y181650D01*
X119672Y181640D01*
X119681Y181630D01*
X119692Y181620D01*
X119705Y181612D01*
X119707Y181611D01*
X119712Y181608D01*
X119720Y181605D01*
X119731Y181602D01*
X119744Y181597D01*
X119761Y181594D01*
X119778Y181591D01*
X119798Y181591D01*
X119807D01*
X119813Y181591D01*
X119821D01*
X119829Y181592D01*
X119850Y181596D01*
X119872Y181601D01*
X119893Y181608D01*
X119913Y181618D01*
X119923Y181625D01*
X119931Y181632D01*
X119932Y181633D01*
X119933Y181634D01*
X119935Y181637D01*
X119937Y181640D01*
X119940Y181646D01*
X119944Y181652D01*
X119948Y181660D01*
X119951Y181668D01*
X119955Y181678D01*
X119958Y181690D01*
X119961Y181704D01*
X119964Y181719D01*
X119967Y181736D01*
X119969Y181753D01*
X119971Y181774D01*
Y181795D01*
Y182165D01*
X120056D01*
Y181795D01*
D02*
G37*
G36*
X120495Y181750D02*
X120582D01*
Y181678D01*
X120495D01*
Y181525D01*
X120416D01*
Y181678D01*
X120138D01*
Y181750D01*
X120431Y182165D01*
X120495D01*
Y181750D01*
D02*
G37*
G36*
X120890Y182167D02*
X120902Y182165D01*
X120916Y182162D01*
X120930Y182158D01*
X120946Y182154D01*
X120961Y182146D01*
X120962D01*
X120963Y182145D01*
X120967Y182142D01*
X120975Y182138D01*
X120984Y182131D01*
X120994Y182122D01*
X121005Y182112D01*
X121015Y182100D01*
X121026Y182086D01*
X121027Y182084D01*
X121030Y182080D01*
X121034Y182071D01*
X121040Y182059D01*
X121046Y182045D01*
X121053Y182030D01*
X121060Y182011D01*
X121065Y181991D01*
Y181990D01*
X121066Y181988D01*
X121067Y181985D01*
X121068Y181981D01*
X121069Y181975D01*
X121070Y181969D01*
X121072Y181960D01*
X121073Y181951D01*
X121075Y181941D01*
X121076Y181930D01*
X121076Y181917D01*
X121078Y181904D01*
X121079Y181889D01*
Y181874D01*
X121080Y181858D01*
Y181840D01*
Y181839D01*
Y181836D01*
Y181829D01*
Y181822D01*
X121079Y181811D01*
Y181800D01*
X121078Y181788D01*
X121077Y181775D01*
X121075Y181746D01*
X121070Y181715D01*
X121064Y181686D01*
X121061Y181672D01*
X121056Y181658D01*
Y181657D01*
X121055Y181655D01*
X121053Y181652D01*
X121051Y181647D01*
X121050Y181640D01*
X121046Y181634D01*
X121039Y181618D01*
X121029Y181602D01*
X121017Y181583D01*
X121003Y181566D01*
X120987Y181551D01*
X120986D01*
X120985Y181549D01*
X120982Y181547D01*
X120978Y181545D01*
X120974Y181542D01*
X120969Y181539D01*
X120955Y181532D01*
X120939Y181526D01*
X120919Y181519D01*
X120896Y181516D01*
X120871Y181514D01*
X120862D01*
X120855Y181515D01*
X120848Y181516D01*
X120839Y181517D01*
X120829Y181519D01*
X120818Y181522D01*
X120806Y181526D01*
X120794Y181529D01*
X120782Y181535D01*
X120770Y181542D01*
X120758Y181549D01*
X120746Y181558D01*
X120735Y181568D01*
X120725Y181579D01*
X120724Y181580D01*
X120722Y181583D01*
X120720Y181588D01*
X120715Y181595D01*
X120710Y181603D01*
X120706Y181615D01*
X120699Y181627D01*
X120694Y181642D01*
X120688Y181659D01*
X120683Y181678D01*
X120677Y181700D01*
X120672Y181724D01*
X120668Y181750D01*
X120665Y181777D01*
X120663Y181808D01*
X120662Y181840D01*
Y181841D01*
Y181845D01*
Y181851D01*
Y181859D01*
X120663Y181869D01*
Y181880D01*
X120664Y181892D01*
X120665Y181906D01*
X120668Y181934D01*
X120672Y181965D01*
X120678Y181995D01*
X120682Y182009D01*
X120685Y182023D01*
Y182024D01*
X120686Y182026D01*
X120688Y182030D01*
X120690Y182034D01*
X120692Y182041D01*
X120696Y182047D01*
X120703Y182063D01*
X120712Y182080D01*
X120724Y182097D01*
X120738Y182115D01*
X120755Y182130D01*
X120756D01*
X120757Y182131D01*
X120759Y182133D01*
X120763Y182135D01*
X120768Y182139D01*
X120773Y182142D01*
X120787Y182149D01*
X120804Y182155D01*
X120823Y182162D01*
X120846Y182166D01*
X120871Y182167D01*
X120880D01*
X120890Y182167D01*
D02*
G37*
G36*
X120332Y212046D02*
X120344Y212044D01*
X120359Y212042D01*
X120376Y212037D01*
X120392Y212031D01*
X120409Y212024D01*
X120410D01*
X120411Y212023D01*
X120416Y212020D01*
X120425Y212015D01*
X120434Y212008D01*
X120445Y211999D01*
X120456Y211989D01*
X120467Y211977D01*
X120476Y211963D01*
X120477Y211961D01*
X120480Y211957D01*
X120484Y211948D01*
X120488Y211938D01*
X120493Y211926D01*
X120497Y211912D01*
X120499Y211896D01*
X120500Y211881D01*
Y211879D01*
Y211873D01*
X120499Y211866D01*
X120498Y211856D01*
X120495Y211844D01*
X120490Y211831D01*
X120485Y211818D01*
X120477Y211805D01*
X120476Y211803D01*
X120474Y211799D01*
X120468Y211793D01*
X120461Y211786D01*
X120451Y211777D01*
X120440Y211768D01*
X120427Y211760D01*
X120412Y211751D01*
X120413D01*
X120414Y211750D01*
X120417Y211749D01*
X120421Y211749D01*
X120431Y211745D01*
X120444Y211739D01*
X120459Y211732D01*
X120474Y211723D01*
X120487Y211711D01*
X120500Y211697D01*
X120501Y211695D01*
X120505Y211689D01*
X120511Y211680D01*
X120516Y211668D01*
X120522Y211653D01*
X120527Y211636D01*
X120531Y211615D01*
X120532Y211593D01*
Y211592D01*
Y211590D01*
Y211585D01*
X120531Y211579D01*
X120530Y211572D01*
X120528Y211564D01*
X120526Y211554D01*
X120524Y211544D01*
X120517Y211522D01*
X120511Y211510D01*
X120506Y211499D01*
X120499Y211487D01*
X120490Y211475D01*
X120481Y211463D01*
X120470Y211452D01*
X120469Y211451D01*
X120467Y211449D01*
X120463Y211446D01*
X120459Y211443D01*
X120453Y211438D01*
X120446Y211433D01*
X120438Y211428D01*
X120427Y211423D01*
X120417Y211418D01*
X120405Y211412D01*
X120393Y211407D01*
X120379Y211403D01*
X120364Y211399D01*
X120349Y211396D01*
X120333Y211394D01*
X120315Y211394D01*
X120307D01*
X120302Y211394D01*
X120294Y211395D01*
X120286Y211396D01*
X120277Y211398D01*
X120266Y211400D01*
X120244Y211406D01*
X120221Y211415D01*
X120209Y211420D01*
X120198Y211427D01*
X120187Y211435D01*
X120176Y211443D01*
X120175Y211444D01*
X120173Y211446D01*
X120170Y211449D01*
X120168Y211453D01*
X120163Y211457D01*
X120158Y211464D01*
X120153Y211470D01*
X120147Y211479D01*
X120142Y211488D01*
X120136Y211497D01*
X120126Y211519D01*
X120118Y211545D01*
X120115Y211559D01*
X120113Y211574D01*
X120192Y211584D01*
Y211583D01*
X120193Y211581D01*
X120193Y211577D01*
X120194Y211573D01*
X120195Y211567D01*
X120197Y211561D01*
X120202Y211547D01*
X120208Y211530D01*
X120217Y211515D01*
X120226Y211500D01*
X120237Y211487D01*
X120239Y211486D01*
X120242Y211482D01*
X120250Y211478D01*
X120259Y211473D01*
X120270Y211467D01*
X120284Y211463D01*
X120300Y211459D01*
X120316Y211458D01*
X120322D01*
X120326Y211459D01*
X120336Y211460D01*
X120349Y211463D01*
X120364Y211467D01*
X120379Y211474D01*
X120395Y211483D01*
X120410Y211496D01*
X120412Y211498D01*
X120416Y211504D01*
X120422Y211512D01*
X120429Y211523D01*
X120437Y211537D01*
X120442Y211553D01*
X120447Y211571D01*
X120449Y211591D01*
Y211592D01*
Y211594D01*
Y211597D01*
X120448Y211601D01*
X120447Y211611D01*
X120444Y211623D01*
X120440Y211638D01*
X120434Y211652D01*
X120425Y211667D01*
X120413Y211681D01*
X120411Y211683D01*
X120406Y211687D01*
X120399Y211692D01*
X120389Y211699D01*
X120376Y211705D01*
X120360Y211711D01*
X120342Y211714D01*
X120323Y211716D01*
X120315D01*
X120308Y211715D01*
X120300Y211714D01*
X120291Y211712D01*
X120279Y211711D01*
X120267Y211708D01*
X120277Y211777D01*
X120281D01*
X120285Y211776D01*
X120297D01*
X120307Y211778D01*
X120319Y211780D01*
X120333Y211783D01*
X120349Y211787D01*
X120364Y211794D01*
X120379Y211802D01*
X120380D01*
X120381Y211803D01*
X120386Y211807D01*
X120392Y211813D01*
X120400Y211822D01*
X120407Y211834D01*
X120413Y211847D01*
X120418Y211863D01*
X120420Y211872D01*
Y211883D01*
Y211884D01*
Y211884D01*
Y211890D01*
X120418Y211897D01*
X120416Y211908D01*
X120413Y211919D01*
X120408Y211931D01*
X120401Y211943D01*
X120390Y211954D01*
X120389Y211955D01*
X120385Y211958D01*
X120378Y211963D01*
X120370Y211969D01*
X120359Y211973D01*
X120346Y211978D01*
X120331Y211982D01*
X120315Y211982D01*
X120307D01*
X120299Y211981D01*
X120288Y211979D01*
X120276Y211975D01*
X120264Y211970D01*
X120251Y211963D01*
X120239Y211954D01*
X120238Y211953D01*
X120234Y211948D01*
X120229Y211942D01*
X120222Y211933D01*
X120216Y211921D01*
X120209Y211906D01*
X120204Y211888D01*
X120200Y211868D01*
X120121Y211882D01*
Y211883D01*
X120122Y211885D01*
X120123Y211889D01*
X120124Y211895D01*
X120126Y211901D01*
X120129Y211908D01*
X120134Y211926D01*
X120144Y211946D01*
X120155Y211967D01*
X120168Y211986D01*
X120186Y212004D01*
X120187Y212005D01*
X120189Y212006D01*
X120192Y212007D01*
X120195Y212010D01*
X120200Y212014D01*
X120206Y212018D01*
X120213Y212021D01*
X120221Y212026D01*
X120240Y212033D01*
X120261Y212041D01*
X120286Y212045D01*
X120299Y212047D01*
X120322D01*
X120332Y212046D01*
D02*
G37*
G36*
X120003Y211675D02*
Y211674D01*
Y211670D01*
Y211665D01*
Y211659D01*
X120002Y211651D01*
Y211641D01*
X120001Y211630D01*
X120000Y211619D01*
X119997Y211594D01*
X119994Y211568D01*
X119988Y211543D01*
X119984Y211531D01*
X119981Y211520D01*
Y211519D01*
X119980Y211517D01*
X119978Y211515D01*
X119976Y211511D01*
X119971Y211501D01*
X119962Y211488D01*
X119951Y211473D01*
X119938Y211458D01*
X119922Y211443D01*
X119901Y211429D01*
X119900D01*
X119899Y211427D01*
X119896Y211426D01*
X119891Y211423D01*
X119886Y211420D01*
X119878Y211418D01*
X119871Y211415D01*
X119862Y211411D01*
X119851Y211407D01*
X119840Y211405D01*
X119828Y211402D01*
X119814Y211399D01*
X119801Y211397D01*
X119786Y211395D01*
X119752Y211394D01*
X119744D01*
X119738Y211394D01*
X119730D01*
X119721Y211395D01*
X119711Y211396D01*
X119701Y211397D01*
X119678Y211401D01*
X119653Y211406D01*
X119629Y211414D01*
X119605Y211424D01*
X119604D01*
X119603Y211426D01*
X119600Y211428D01*
X119596Y211430D01*
X119586Y211437D01*
X119574Y211447D01*
X119560Y211460D01*
X119547Y211475D01*
X119534Y211493D01*
X119524Y211514D01*
Y211515D01*
X119523Y211516D01*
X119522Y211520D01*
X119520Y211525D01*
X119519Y211530D01*
X119517Y211538D01*
X119514Y211546D01*
X119512Y211556D01*
X119510Y211567D01*
X119507Y211579D01*
X119506Y211592D01*
X119504Y211606D01*
X119502Y211622D01*
X119501Y211639D01*
X119500Y211656D01*
Y211675D01*
Y212044D01*
X119585D01*
Y211675D01*
Y211674D01*
Y211671D01*
Y211666D01*
Y211661D01*
X119586Y211654D01*
Y211646D01*
X119587Y211628D01*
X119589Y211608D01*
X119592Y211588D01*
X119595Y211568D01*
X119597Y211560D01*
X119600Y211552D01*
X119601Y211550D01*
X119603Y211545D01*
X119607Y211539D01*
X119613Y211529D01*
X119619Y211520D01*
X119629Y211510D01*
X119640Y211500D01*
X119653Y211492D01*
X119654Y211491D01*
X119659Y211488D01*
X119667Y211485D01*
X119678Y211481D01*
X119691Y211477D01*
X119708Y211474D01*
X119726Y211471D01*
X119745Y211470D01*
X119754D01*
X119760Y211471D01*
X119768D01*
X119776Y211472D01*
X119797Y211476D01*
X119819Y211480D01*
X119840Y211488D01*
X119861Y211498D01*
X119870Y211504D01*
X119878Y211512D01*
X119879Y211513D01*
X119880Y211514D01*
X119882Y211516D01*
X119885Y211520D01*
X119887Y211526D01*
X119891Y211531D01*
X119895Y211540D01*
X119899Y211548D01*
X119902Y211558D01*
X119905Y211570D01*
X119909Y211584D01*
X119911Y211599D01*
X119914Y211615D01*
X119916Y211633D01*
X119918Y211653D01*
Y211675D01*
Y212044D01*
X120003D01*
Y211675D01*
D02*
G37*
G36*
X120837Y212046D02*
X120844Y212045D01*
X120854Y212044D01*
X120864Y212043D01*
X120874Y212041D01*
X120898Y212034D01*
X120922Y212025D01*
X120934Y212019D01*
X120946Y212013D01*
X120957Y212005D01*
X120967Y211995D01*
X120968Y211994D01*
X120970Y211994D01*
X120972Y211990D01*
X120976Y211986D01*
X120980Y211982D01*
X120985Y211975D01*
X120989Y211969D01*
X120995Y211960D01*
X121004Y211943D01*
X121014Y211921D01*
X121017Y211909D01*
X121019Y211896D01*
X121021Y211884D01*
X121022Y211870D01*
Y211868D01*
Y211863D01*
X121021Y211856D01*
X121020Y211846D01*
X121018Y211835D01*
X121014Y211822D01*
X121011Y211808D01*
X121005Y211794D01*
X121004Y211792D01*
X121002Y211787D01*
X120999Y211780D01*
X120993Y211770D01*
X120986Y211759D01*
X120977Y211745D01*
X120965Y211731D01*
X120953Y211715D01*
X120951Y211713D01*
X120946Y211708D01*
X120941Y211703D01*
X120937Y211699D01*
X120931Y211693D01*
X120924Y211686D01*
X120916Y211678D01*
X120907Y211670D01*
X120898Y211661D01*
X120887Y211651D01*
X120875Y211640D01*
X120862Y211628D01*
X120847Y211616D01*
X120832Y211603D01*
X120831Y211602D01*
X120830Y211601D01*
X120826Y211598D01*
X120821Y211594D01*
X120816Y211589D01*
X120809Y211583D01*
X120794Y211571D01*
X120779Y211557D01*
X120764Y211543D01*
X120751Y211531D01*
X120745Y211527D01*
X120741Y211522D01*
X120740Y211521D01*
X120737Y211518D01*
X120733Y211515D01*
X120729Y211509D01*
X120724Y211503D01*
X120719Y211496D01*
X120707Y211480D01*
X121023D01*
Y211405D01*
X120598D01*
Y211406D01*
Y211409D01*
Y211415D01*
X120599Y211422D01*
X120600Y211430D01*
X120602Y211440D01*
X120604Y211449D01*
X120608Y211459D01*
Y211460D01*
X120609Y211461D01*
X120610Y211467D01*
X120614Y211475D01*
X120620Y211486D01*
X120627Y211499D01*
X120636Y211514D01*
X120646Y211529D01*
X120659Y211544D01*
Y211545D01*
X120661Y211546D01*
X120666Y211552D01*
X120674Y211560D01*
X120686Y211572D01*
X120700Y211586D01*
X120718Y211602D01*
X120739Y211621D01*
X120762Y211640D01*
X120763Y211641D01*
X120767Y211644D01*
X120772Y211649D01*
X120779Y211654D01*
X120787Y211662D01*
X120797Y211670D01*
X120807Y211679D01*
X120819Y211689D01*
X120842Y211712D01*
X120866Y211734D01*
X120877Y211745D01*
X120887Y211756D01*
X120896Y211766D01*
X120904Y211776D01*
Y211777D01*
X120905Y211778D01*
X120907Y211781D01*
X120909Y211785D01*
X120916Y211795D01*
X120923Y211807D01*
X120929Y211822D01*
X120936Y211837D01*
X120940Y211855D01*
X120941Y211872D01*
Y211872D01*
Y211873D01*
X120940Y211879D01*
X120940Y211888D01*
X120937Y211898D01*
X120933Y211911D01*
X120927Y211924D01*
X120918Y211937D01*
X120907Y211950D01*
X120905Y211952D01*
X120901Y211956D01*
X120894Y211960D01*
X120884Y211967D01*
X120871Y211972D01*
X120856Y211978D01*
X120839Y211982D01*
X120819Y211982D01*
X120814D01*
X120810Y211982D01*
X120799Y211981D01*
X120786Y211978D01*
X120772Y211974D01*
X120757Y211968D01*
X120742Y211959D01*
X120728Y211948D01*
X120726Y211946D01*
X120722Y211942D01*
X120717Y211934D01*
X120711Y211923D01*
X120705Y211910D01*
X120699Y211894D01*
X120695Y211875D01*
X120694Y211854D01*
X120613Y211862D01*
Y211863D01*
X120614Y211866D01*
Y211871D01*
X120615Y211877D01*
X120617Y211884D01*
X120619Y211893D01*
X120622Y211903D01*
X120624Y211913D01*
X120632Y211935D01*
X120643Y211957D01*
X120649Y211969D01*
X120658Y211980D01*
X120666Y211990D01*
X120675Y211999D01*
X120676Y212000D01*
X120678Y212001D01*
X120681Y212004D01*
X120685Y212006D01*
X120691Y212010D01*
X120697Y212014D01*
X120705Y212019D01*
X120714Y212023D01*
X120724Y212028D01*
X120735Y212032D01*
X120747Y212036D01*
X120760Y212040D01*
X120774Y212043D01*
X120789Y212045D01*
X120805Y212046D01*
X120821Y212047D01*
X120830D01*
X120837Y212046D01*
D02*
G37*
G36*
X120193Y274514D02*
Y274513D01*
Y274509D01*
Y274504D01*
Y274498D01*
X120192Y274490D01*
Y274480D01*
X120191Y274469D01*
X120190Y274458D01*
X120187Y274433D01*
X120184Y274407D01*
X120178Y274382D01*
X120174Y274370D01*
X120171Y274359D01*
Y274358D01*
X120170Y274356D01*
X120168Y274354D01*
X120166Y274350D01*
X120161Y274340D01*
X120152Y274327D01*
X120141Y274312D01*
X120128Y274297D01*
X120112Y274282D01*
X120091Y274268D01*
X120090D01*
X120089Y274266D01*
X120086Y274265D01*
X120081Y274262D01*
X120076Y274259D01*
X120068Y274257D01*
X120061Y274254D01*
X120052Y274250D01*
X120041Y274246D01*
X120030Y274244D01*
X120018Y274241D01*
X120004Y274238D01*
X119991Y274236D01*
X119976Y274234D01*
X119942Y274233D01*
X119934D01*
X119928Y274233D01*
X119920D01*
X119911Y274234D01*
X119901Y274235D01*
X119891Y274236D01*
X119868Y274240D01*
X119843Y274245D01*
X119819Y274253D01*
X119795Y274263D01*
X119794D01*
X119793Y274265D01*
X119790Y274267D01*
X119786Y274269D01*
X119776Y274276D01*
X119764Y274286D01*
X119750Y274299D01*
X119737Y274314D01*
X119724Y274332D01*
X119714Y274353D01*
Y274354D01*
X119713Y274355D01*
X119712Y274359D01*
X119710Y274364D01*
X119709Y274369D01*
X119707Y274377D01*
X119704Y274385D01*
X119702Y274395D01*
X119700Y274406D01*
X119697Y274418D01*
X119696Y274431D01*
X119694Y274445D01*
X119692Y274461D01*
X119691Y274478D01*
X119690Y274495D01*
Y274514D01*
Y274883D01*
X119775D01*
Y274514D01*
Y274513D01*
Y274510D01*
Y274505D01*
Y274500D01*
X119776Y274493D01*
Y274485D01*
X119777Y274467D01*
X119779Y274447D01*
X119782Y274427D01*
X119785Y274407D01*
X119787Y274399D01*
X119790Y274391D01*
X119791Y274389D01*
X119793Y274384D01*
X119797Y274378D01*
X119803Y274368D01*
X119809Y274359D01*
X119819Y274349D01*
X119830Y274339D01*
X119843Y274331D01*
X119844Y274330D01*
X119849Y274327D01*
X119857Y274324D01*
X119868Y274320D01*
X119881Y274316D01*
X119898Y274313D01*
X119916Y274310D01*
X119935Y274309D01*
X119944D01*
X119950Y274310D01*
X119958D01*
X119966Y274311D01*
X119987Y274315D01*
X120009Y274319D01*
X120030Y274327D01*
X120051Y274337D01*
X120060Y274343D01*
X120068Y274351D01*
X120069Y274352D01*
X120070Y274353D01*
X120072Y274355D01*
X120075Y274359D01*
X120077Y274365D01*
X120081Y274370D01*
X120085Y274379D01*
X120089Y274387D01*
X120092Y274397D01*
X120095Y274409D01*
X120099Y274423D01*
X120101Y274438D01*
X120104Y274454D01*
X120106Y274472D01*
X120108Y274492D01*
Y274514D01*
Y274883D01*
X120193D01*
Y274514D01*
D02*
G37*
G36*
X121095Y274244D02*
X121017D01*
Y274744D01*
X121016Y274743D01*
X121011Y274739D01*
X121006Y274734D01*
X120996Y274727D01*
X120986Y274719D01*
X120973Y274710D01*
X120959Y274699D01*
X120942Y274689D01*
X120941D01*
X120940Y274688D01*
X120934Y274685D01*
X120925Y274680D01*
X120914Y274674D01*
X120901Y274668D01*
X120887Y274661D01*
X120873Y274655D01*
X120860Y274649D01*
Y274725D01*
X120861D01*
X120862Y274727D01*
X120866Y274728D01*
X120871Y274731D01*
X120876Y274734D01*
X120883Y274737D01*
X120898Y274747D01*
X120917Y274757D01*
X120935Y274770D01*
X120955Y274784D01*
X120974Y274800D01*
X120975Y274801D01*
X120976Y274802D01*
X120979Y274805D01*
X120983Y274808D01*
X120991Y274817D01*
X121002Y274828D01*
X121013Y274841D01*
X121025Y274856D01*
X121035Y274870D01*
X121045Y274886D01*
X121095D01*
Y274244D01*
D02*
G37*
G36*
X120530Y274885D02*
X120537Y274884D01*
X120546Y274883D01*
X120556Y274882D01*
X120566Y274880D01*
X120591Y274873D01*
X120615Y274864D01*
X120627Y274858D01*
X120639Y274852D01*
X120650Y274844D01*
X120660Y274834D01*
X120661Y274833D01*
X120663Y274833D01*
X120665Y274829D01*
X120668Y274825D01*
X120673Y274821D01*
X120677Y274814D01*
X120682Y274808D01*
X120688Y274799D01*
X120697Y274782D01*
X120706Y274760D01*
X120710Y274748D01*
X120712Y274735D01*
X120714Y274723D01*
X120714Y274709D01*
Y274707D01*
Y274702D01*
X120714Y274695D01*
X120713Y274685D01*
X120711Y274674D01*
X120707Y274661D01*
X120703Y274647D01*
X120698Y274633D01*
X120697Y274631D01*
X120695Y274626D01*
X120691Y274619D01*
X120686Y274609D01*
X120678Y274598D01*
X120669Y274584D01*
X120658Y274570D01*
X120645Y274554D01*
X120643Y274552D01*
X120639Y274547D01*
X120634Y274542D01*
X120629Y274538D01*
X120624Y274532D01*
X120616Y274525D01*
X120609Y274517D01*
X120600Y274509D01*
X120591Y274500D01*
X120579Y274490D01*
X120567Y274479D01*
X120554Y274467D01*
X120540Y274455D01*
X120525Y274442D01*
X120524Y274441D01*
X120522Y274440D01*
X120518Y274437D01*
X120514Y274433D01*
X120508Y274428D01*
X120502Y274422D01*
X120487Y274410D01*
X120471Y274396D01*
X120456Y274382D01*
X120444Y274370D01*
X120438Y274366D01*
X120433Y274361D01*
X120432Y274360D01*
X120430Y274357D01*
X120426Y274354D01*
X120421Y274348D01*
X120417Y274342D01*
X120411Y274335D01*
X120400Y274319D01*
X120715D01*
Y274244D01*
X120291D01*
Y274245D01*
Y274248D01*
Y274254D01*
X120292Y274261D01*
X120293Y274270D01*
X120295Y274279D01*
X120297Y274288D01*
X120300Y274298D01*
Y274299D01*
X120301Y274300D01*
X120303Y274306D01*
X120307Y274314D01*
X120312Y274325D01*
X120320Y274338D01*
X120329Y274353D01*
X120339Y274367D01*
X120352Y274383D01*
Y274384D01*
X120354Y274385D01*
X120358Y274391D01*
X120367Y274399D01*
X120379Y274411D01*
X120393Y274425D01*
X120410Y274441D01*
X120432Y274460D01*
X120455Y274479D01*
X120456Y274480D01*
X120459Y274483D01*
X120465Y274488D01*
X120471Y274493D01*
X120480Y274501D01*
X120490Y274509D01*
X120500Y274518D01*
X120512Y274528D01*
X120535Y274551D01*
X120558Y274573D01*
X120569Y274584D01*
X120579Y274595D01*
X120589Y274605D01*
X120596Y274615D01*
Y274616D01*
X120598Y274617D01*
X120600Y274620D01*
X120602Y274624D01*
X120608Y274634D01*
X120616Y274646D01*
X120622Y274661D01*
X120628Y274676D01*
X120632Y274694D01*
X120634Y274711D01*
Y274711D01*
Y274712D01*
X120633Y274718D01*
X120632Y274727D01*
X120629Y274737D01*
X120626Y274750D01*
X120619Y274763D01*
X120611Y274776D01*
X120600Y274789D01*
X120598Y274791D01*
X120593Y274795D01*
X120587Y274799D01*
X120577Y274806D01*
X120564Y274811D01*
X120549Y274817D01*
X120531Y274821D01*
X120512Y274821D01*
X120506D01*
X120503Y274821D01*
X120492Y274820D01*
X120479Y274817D01*
X120465Y274813D01*
X120449Y274807D01*
X120434Y274798D01*
X120420Y274787D01*
X120419Y274785D01*
X120415Y274781D01*
X120409Y274773D01*
X120404Y274762D01*
X120397Y274749D01*
X120392Y274733D01*
X120388Y274714D01*
X120386Y274693D01*
X120306Y274701D01*
Y274702D01*
X120307Y274705D01*
Y274710D01*
X120308Y274716D01*
X120309Y274723D01*
X120311Y274732D01*
X120314Y274742D01*
X120317Y274752D01*
X120324Y274774D01*
X120335Y274796D01*
X120342Y274808D01*
X120350Y274819D01*
X120358Y274829D01*
X120368Y274838D01*
X120369Y274839D01*
X120370Y274840D01*
X120373Y274843D01*
X120378Y274845D01*
X120383Y274849D01*
X120390Y274853D01*
X120397Y274858D01*
X120407Y274862D01*
X120417Y274867D01*
X120428Y274871D01*
X120440Y274875D01*
X120453Y274879D01*
X120467Y274882D01*
X120481Y274884D01*
X120497Y274885D01*
X120514Y274886D01*
X120523D01*
X120530Y274885D01*
D02*
G37*
G36*
X121092Y244320D02*
X121104Y244318D01*
X121119Y244316D01*
X121135Y244311D01*
X121152Y244305D01*
X121169Y244298D01*
X121169D01*
X121170Y244297D01*
X121176Y244294D01*
X121184Y244289D01*
X121193Y244282D01*
X121205Y244273D01*
X121216Y244263D01*
X121227Y244251D01*
X121236Y244237D01*
X121237Y244235D01*
X121240Y244231D01*
X121243Y244222D01*
X121248Y244212D01*
X121253Y244200D01*
X121256Y244186D01*
X121259Y244170D01*
X121260Y244155D01*
Y244153D01*
Y244147D01*
X121259Y244140D01*
X121257Y244130D01*
X121255Y244118D01*
X121250Y244105D01*
X121244Y244092D01*
X121237Y244079D01*
X121236Y244077D01*
X121233Y244073D01*
X121228Y244067D01*
X121220Y244060D01*
X121211Y244051D01*
X121200Y244042D01*
X121187Y244034D01*
X121171Y244025D01*
X121172D01*
X121174Y244024D01*
X121177Y244023D01*
X121181Y244023D01*
X121191Y244019D01*
X121204Y244013D01*
X121218Y244006D01*
X121233Y243997D01*
X121247Y243985D01*
X121260Y243971D01*
X121261Y243969D01*
X121265Y243963D01*
X121270Y243954D01*
X121276Y243942D01*
X121281Y243927D01*
X121287Y243910D01*
X121291Y243889D01*
X121291Y243867D01*
Y243866D01*
Y243864D01*
Y243859D01*
X121291Y243853D01*
X121290Y243846D01*
X121288Y243838D01*
X121286Y243828D01*
X121284Y243818D01*
X121277Y243796D01*
X121271Y243784D01*
X121266Y243773D01*
X121258Y243761D01*
X121250Y243749D01*
X121241Y243737D01*
X121230Y243726D01*
X121229Y243725D01*
X121227Y243723D01*
X121223Y243720D01*
X121218Y243717D01*
X121213Y243712D01*
X121205Y243707D01*
X121197Y243702D01*
X121187Y243697D01*
X121177Y243692D01*
X121165Y243686D01*
X121153Y243681D01*
X121139Y243677D01*
X121124Y243673D01*
X121108Y243670D01*
X121093Y243668D01*
X121075Y243668D01*
X121067D01*
X121061Y243668D01*
X121054Y243669D01*
X121046Y243670D01*
X121036Y243672D01*
X121026Y243674D01*
X121004Y243680D01*
X120981Y243689D01*
X120969Y243694D01*
X120958Y243701D01*
X120947Y243709D01*
X120936Y243717D01*
X120935Y243718D01*
X120933Y243720D01*
X120930Y243723D01*
X120927Y243727D01*
X120923Y243731D01*
X120918Y243738D01*
X120912Y243744D01*
X120907Y243753D01*
X120901Y243762D01*
X120896Y243771D01*
X120886Y243793D01*
X120877Y243819D01*
X120875Y243833D01*
X120873Y243848D01*
X120951Y243858D01*
Y243857D01*
X120952Y243855D01*
X120953Y243852D01*
X120954Y243847D01*
X120955Y243841D01*
X120957Y243835D01*
X120961Y243821D01*
X120968Y243804D01*
X120976Y243789D01*
X120985Y243774D01*
X120997Y243761D01*
X120998Y243760D01*
X121002Y243756D01*
X121009Y243752D01*
X121019Y243747D01*
X121030Y243741D01*
X121044Y243737D01*
X121059Y243733D01*
X121076Y243732D01*
X121082D01*
X121085Y243733D01*
X121095Y243734D01*
X121108Y243737D01*
X121123Y243741D01*
X121139Y243748D01*
X121155Y243757D01*
X121169Y243770D01*
X121171Y243772D01*
X121176Y243778D01*
X121181Y243786D01*
X121189Y243797D01*
X121196Y243811D01*
X121202Y243827D01*
X121206Y243845D01*
X121208Y243865D01*
Y243866D01*
Y243868D01*
Y243871D01*
X121207Y243875D01*
X121206Y243885D01*
X121204Y243897D01*
X121200Y243912D01*
X121193Y243926D01*
X121184Y243941D01*
X121172Y243955D01*
X121170Y243957D01*
X121166Y243961D01*
X121158Y243966D01*
X121148Y243973D01*
X121135Y243979D01*
X121120Y243985D01*
X121102Y243988D01*
X121083Y243990D01*
X121074D01*
X121068Y243989D01*
X121059Y243988D01*
X121050Y243986D01*
X121039Y243985D01*
X121027Y243982D01*
X121036Y244051D01*
X121041D01*
X121045Y244050D01*
X121057D01*
X121067Y244052D01*
X121079Y244054D01*
X121093Y244057D01*
X121108Y244061D01*
X121123Y244068D01*
X121139Y244076D01*
X121140D01*
X121141Y244077D01*
X121145Y244081D01*
X121152Y244087D01*
X121159Y244096D01*
X121167Y244108D01*
X121173Y244121D01*
X121178Y244137D01*
X121180Y244146D01*
Y244157D01*
Y244158D01*
Y244158D01*
Y244164D01*
X121178Y244171D01*
X121176Y244182D01*
X121172Y244193D01*
X121168Y244205D01*
X121160Y244217D01*
X121150Y244228D01*
X121149Y244229D01*
X121144Y244232D01*
X121138Y244237D01*
X121130Y244243D01*
X121119Y244247D01*
X121106Y244252D01*
X121091Y244256D01*
X121074Y244256D01*
X121067D01*
X121058Y244255D01*
X121047Y244253D01*
X121035Y244249D01*
X121023Y244244D01*
X121010Y244237D01*
X120998Y244228D01*
X120997Y244227D01*
X120994Y244222D01*
X120988Y244216D01*
X120982Y244207D01*
X120975Y244195D01*
X120969Y244180D01*
X120963Y244162D01*
X120960Y244142D01*
X120881Y244156D01*
Y244157D01*
X120882Y244159D01*
X120883Y244163D01*
X120884Y244169D01*
X120886Y244175D01*
X120888Y244182D01*
X120894Y244200D01*
X120903Y244220D01*
X120914Y244241D01*
X120928Y244260D01*
X120946Y244278D01*
X120947Y244279D01*
X120948Y244280D01*
X120951Y244281D01*
X120955Y244284D01*
X120960Y244288D01*
X120966Y244292D01*
X120973Y244295D01*
X120981Y244300D01*
X120999Y244307D01*
X121021Y244315D01*
X121046Y244319D01*
X121058Y244321D01*
X121082D01*
X121092Y244320D01*
D02*
G37*
G36*
X120265Y243949D02*
Y243948D01*
Y243944D01*
Y243939D01*
Y243933D01*
X120264Y243925D01*
Y243915D01*
X120263Y243904D01*
X120262Y243893D01*
X120260Y243868D01*
X120256Y243842D01*
X120250Y243817D01*
X120247Y243805D01*
X120243Y243794D01*
Y243793D01*
X120242Y243791D01*
X120240Y243789D01*
X120238Y243785D01*
X120233Y243775D01*
X120225Y243762D01*
X120213Y243747D01*
X120201Y243732D01*
X120184Y243717D01*
X120164Y243703D01*
X120163D01*
X120161Y243701D01*
X120158Y243700D01*
X120153Y243697D01*
X120148Y243694D01*
X120140Y243692D01*
X120133Y243689D01*
X120124Y243685D01*
X120114Y243681D01*
X120103Y243679D01*
X120090Y243676D01*
X120077Y243673D01*
X120063Y243671D01*
X120048Y243669D01*
X120015Y243668D01*
X120006D01*
X120000Y243668D01*
X119992D01*
X119983Y243669D01*
X119973Y243670D01*
X119963Y243671D01*
X119940Y243675D01*
X119915Y243680D01*
X119891Y243688D01*
X119868Y243698D01*
X119867D01*
X119865Y243700D01*
X119862Y243702D01*
X119858Y243704D01*
X119848Y243711D01*
X119836Y243721D01*
X119822Y243734D01*
X119809Y243749D01*
X119796Y243767D01*
X119786Y243788D01*
Y243789D01*
X119785Y243790D01*
X119784Y243794D01*
X119783Y243799D01*
X119781Y243804D01*
X119779Y243812D01*
X119776Y243820D01*
X119774Y243830D01*
X119772Y243841D01*
X119770Y243853D01*
X119768Y243866D01*
X119766Y243880D01*
X119764Y243896D01*
X119763Y243913D01*
X119762Y243930D01*
Y243949D01*
Y244318D01*
X119847D01*
Y243949D01*
Y243948D01*
Y243945D01*
Y243940D01*
Y243935D01*
X119848Y243928D01*
Y243920D01*
X119849Y243902D01*
X119851Y243882D01*
X119854Y243862D01*
X119857Y243842D01*
X119859Y243834D01*
X119862Y243826D01*
X119863Y243824D01*
X119865Y243819D01*
X119870Y243813D01*
X119875Y243803D01*
X119882Y243794D01*
X119891Y243784D01*
X119902Y243774D01*
X119915Y243766D01*
X119917Y243765D01*
X119921Y243762D01*
X119930Y243759D01*
X119941Y243755D01*
X119954Y243751D01*
X119970Y243748D01*
X119988Y243745D01*
X120007Y243744D01*
X120017D01*
X120022Y243745D01*
X120030D01*
X120039Y243746D01*
X120059Y243750D01*
X120081Y243754D01*
X120103Y243762D01*
X120123Y243772D01*
X120132Y243778D01*
X120140Y243786D01*
X120141Y243787D01*
X120142Y243788D01*
X120144Y243790D01*
X120147Y243794D01*
X120150Y243800D01*
X120153Y243805D01*
X120157Y243814D01*
X120161Y243822D01*
X120164Y243832D01*
X120167Y243844D01*
X120171Y243858D01*
X120174Y243873D01*
X120176Y243889D01*
X120178Y243907D01*
X120180Y243927D01*
Y243949D01*
Y244318D01*
X120265D01*
Y243949D01*
D02*
G37*
G36*
X120670Y243679D02*
X120592D01*
Y244179D01*
X120591Y244178D01*
X120586Y244174D01*
X120580Y244169D01*
X120571Y244162D01*
X120561Y244154D01*
X120548Y244145D01*
X120533Y244134D01*
X120517Y244124D01*
X120516D01*
X120515Y244123D01*
X120509Y244120D01*
X120500Y244115D01*
X120489Y244109D01*
X120476Y244103D01*
X120462Y244096D01*
X120448Y244090D01*
X120434Y244084D01*
Y244160D01*
X120435D01*
X120437Y244162D01*
X120441Y244163D01*
X120446Y244166D01*
X120451Y244169D01*
X120458Y244172D01*
X120473Y244182D01*
X120492Y244192D01*
X120510Y244205D01*
X120530Y244219D01*
X120549Y244235D01*
X120550Y244236D01*
X120551Y244237D01*
X120554Y244240D01*
X120557Y244243D01*
X120566Y244252D01*
X120577Y244263D01*
X120588Y244276D01*
X120600Y244291D01*
X120610Y244305D01*
X120619Y244321D01*
X120670D01*
Y243679D01*
D02*
G37*
G36*
X120406Y60598D02*
X120418Y60596D01*
X120433Y60593D01*
X120449Y60589D01*
X120466Y60583D01*
X120483Y60576D01*
X120484D01*
X120484Y60575D01*
X120490Y60572D01*
X120498Y60567D01*
X120508Y60560D01*
X120519Y60551D01*
X120530Y60541D01*
X120541Y60529D01*
X120550Y60515D01*
X120551Y60513D01*
X120554Y60508D01*
X120558Y60500D01*
X120562Y60490D01*
X120567Y60478D01*
X120570Y60464D01*
X120573Y60448D01*
X120574Y60433D01*
Y60431D01*
Y60425D01*
X120573Y60418D01*
X120571Y60408D01*
X120569Y60396D01*
X120564Y60383D01*
X120558Y60370D01*
X120551Y60357D01*
X120550Y60355D01*
X120547Y60351D01*
X120542Y60345D01*
X120534Y60337D01*
X120525Y60329D01*
X120514Y60320D01*
X120501Y60311D01*
X120485Y60303D01*
X120486D01*
X120488Y60302D01*
X120491Y60301D01*
X120495Y60300D01*
X120505Y60297D01*
X120518Y60291D01*
X120533Y60284D01*
X120547Y60274D01*
X120561Y60262D01*
X120574Y60249D01*
X120575Y60247D01*
X120579Y60241D01*
X120584Y60232D01*
X120590Y60220D01*
X120595Y60205D01*
X120601Y60188D01*
X120605Y60167D01*
X120606Y60145D01*
Y60144D01*
Y60141D01*
Y60137D01*
X120605Y60131D01*
X120604Y60124D01*
X120602Y60115D01*
X120600Y60106D01*
X120598Y60096D01*
X120591Y60074D01*
X120585Y60062D01*
X120580Y60051D01*
X120572Y60039D01*
X120564Y60027D01*
X120555Y60015D01*
X120544Y60004D01*
X120543Y60003D01*
X120541Y60001D01*
X120537Y59998D01*
X120533Y59994D01*
X120527Y59990D01*
X120520Y59985D01*
X120511Y59980D01*
X120501Y59975D01*
X120491Y59969D01*
X120479Y59964D01*
X120467Y59959D01*
X120453Y59955D01*
X120438Y59951D01*
X120423Y59948D01*
X120407Y59946D01*
X120389Y59945D01*
X120381D01*
X120375Y59946D01*
X120368Y59947D01*
X120360Y59948D01*
X120350Y59950D01*
X120340Y59952D01*
X120318Y59957D01*
X120295Y59967D01*
X120283Y59972D01*
X120272Y59979D01*
X120261Y59987D01*
X120250Y59995D01*
X120249Y59996D01*
X120247Y59998D01*
X120244Y60001D01*
X120241Y60004D01*
X120237Y60009D01*
X120232Y60016D01*
X120227Y60022D01*
X120221Y60030D01*
X120215Y60040D01*
X120210Y60049D01*
X120200Y60071D01*
X120191Y60097D01*
X120189Y60111D01*
X120187Y60126D01*
X120265Y60136D01*
Y60135D01*
X120266Y60133D01*
X120267Y60129D01*
X120268Y60125D01*
X120269Y60119D01*
X120271Y60113D01*
X120276Y60099D01*
X120282Y60082D01*
X120290Y60066D01*
X120300Y60052D01*
X120311Y60039D01*
X120313Y60038D01*
X120316Y60034D01*
X120324Y60029D01*
X120333Y60025D01*
X120344Y60019D01*
X120358Y60015D01*
X120374Y60011D01*
X120390Y60010D01*
X120396D01*
X120399Y60011D01*
X120410Y60012D01*
X120423Y60015D01*
X120437Y60019D01*
X120453Y60026D01*
X120469Y60035D01*
X120484Y60048D01*
X120485Y60050D01*
X120490Y60055D01*
X120496Y60064D01*
X120503Y60075D01*
X120510Y60089D01*
X120516Y60104D01*
X120521Y60123D01*
X120522Y60143D01*
Y60144D01*
Y60146D01*
Y60149D01*
X120521Y60152D01*
X120521Y60163D01*
X120518Y60175D01*
X120514Y60189D01*
X120508Y60204D01*
X120498Y60219D01*
X120486Y60233D01*
X120484Y60235D01*
X120480Y60238D01*
X120472Y60244D01*
X120462Y60250D01*
X120449Y60257D01*
X120434Y60262D01*
X120416Y60266D01*
X120397Y60268D01*
X120388D01*
X120382Y60267D01*
X120374Y60266D01*
X120364Y60264D01*
X120353Y60262D01*
X120341Y60260D01*
X120350Y60329D01*
X120355D01*
X120359Y60328D01*
X120371D01*
X120381Y60330D01*
X120393Y60332D01*
X120407Y60335D01*
X120423Y60339D01*
X120437Y60346D01*
X120453Y60354D01*
X120454D01*
X120455Y60355D01*
X120460Y60359D01*
X120466Y60365D01*
X120473Y60373D01*
X120481Y60385D01*
X120487Y60399D01*
X120492Y60415D01*
X120494Y60424D01*
Y60434D01*
Y60435D01*
Y60436D01*
Y60442D01*
X120492Y60449D01*
X120490Y60459D01*
X120486Y60470D01*
X120482Y60482D01*
X120474Y60494D01*
X120464Y60506D01*
X120463Y60507D01*
X120459Y60510D01*
X120452Y60515D01*
X120444Y60520D01*
X120433Y60525D01*
X120420Y60530D01*
X120405Y60533D01*
X120388Y60534D01*
X120381D01*
X120373Y60532D01*
X120362Y60531D01*
X120349Y60527D01*
X120337Y60522D01*
X120325Y60515D01*
X120313Y60506D01*
X120312Y60505D01*
X120308Y60500D01*
X120302Y60494D01*
X120296Y60484D01*
X120289Y60472D01*
X120283Y60458D01*
X120277Y60440D01*
X120274Y60420D01*
X120195Y60433D01*
Y60434D01*
X120196Y60437D01*
X120197Y60441D01*
X120198Y60446D01*
X120200Y60453D01*
X120202Y60460D01*
X120208Y60478D01*
X120217Y60498D01*
X120228Y60519D01*
X120242Y60538D01*
X120260Y60556D01*
X120261Y60556D01*
X120263Y60557D01*
X120265Y60559D01*
X120269Y60562D01*
X120274Y60566D01*
X120280Y60569D01*
X120287Y60573D01*
X120295Y60578D01*
X120313Y60585D01*
X120335Y60592D01*
X120360Y60597D01*
X120373Y60599D01*
X120396D01*
X120406Y60598D01*
D02*
G37*
G36*
X120077Y60226D02*
Y60225D01*
Y60222D01*
Y60217D01*
Y60211D01*
X120076Y60202D01*
Y60193D01*
X120075Y60182D01*
X120074Y60171D01*
X120071Y60146D01*
X120067Y60120D01*
X120062Y60095D01*
X120058Y60083D01*
X120055Y60072D01*
Y60071D01*
X120054Y60069D01*
X120052Y60066D01*
X120050Y60063D01*
X120044Y60053D01*
X120036Y60040D01*
X120025Y60025D01*
X120012Y60010D01*
X119995Y59994D01*
X119975Y59980D01*
X119974D01*
X119972Y59979D01*
X119969Y59978D01*
X119965Y59975D01*
X119959Y59972D01*
X119952Y59969D01*
X119945Y59967D01*
X119935Y59963D01*
X119925Y59959D01*
X119914Y59956D01*
X119902Y59954D01*
X119888Y59951D01*
X119874Y59949D01*
X119859Y59947D01*
X119826Y59945D01*
X119818D01*
X119811Y59946D01*
X119804D01*
X119795Y59947D01*
X119785Y59948D01*
X119774Y59949D01*
X119751Y59953D01*
X119726Y59958D01*
X119702Y59966D01*
X119679Y59976D01*
X119678D01*
X119676Y59978D01*
X119674Y59980D01*
X119670Y59981D01*
X119660Y59989D01*
X119648Y59999D01*
X119634Y60012D01*
X119621Y60027D01*
X119608Y60045D01*
X119598Y60065D01*
Y60066D01*
X119597Y60068D01*
X119596Y60072D01*
X119594Y60077D01*
X119592Y60082D01*
X119590Y60090D01*
X119588Y60098D01*
X119586Y60108D01*
X119584Y60119D01*
X119581Y60131D01*
X119579Y60144D01*
X119577Y60158D01*
X119576Y60174D01*
X119575Y60190D01*
X119574Y60208D01*
Y60226D01*
Y60596D01*
X119659D01*
Y60226D01*
Y60225D01*
Y60223D01*
Y60218D01*
Y60213D01*
X119660Y60206D01*
Y60198D01*
X119661Y60180D01*
X119663Y60160D01*
X119665Y60139D01*
X119669Y60120D01*
X119671Y60112D01*
X119674Y60103D01*
X119675Y60102D01*
X119676Y60097D01*
X119681Y60090D01*
X119687Y60081D01*
X119693Y60072D01*
X119702Y60062D01*
X119713Y60052D01*
X119726Y60043D01*
X119728Y60042D01*
X119733Y60040D01*
X119741Y60037D01*
X119752Y60033D01*
X119765Y60029D01*
X119782Y60026D01*
X119799Y60023D01*
X119819Y60022D01*
X119828D01*
X119834Y60023D01*
X119842D01*
X119850Y60024D01*
X119871Y60028D01*
X119893Y60032D01*
X119914Y60040D01*
X119934Y60050D01*
X119944Y60056D01*
X119952Y60064D01*
X119953Y60065D01*
X119954Y60065D01*
X119956Y60068D01*
X119958Y60072D01*
X119961Y60078D01*
X119965Y60083D01*
X119969Y60091D01*
X119972Y60100D01*
X119976Y60110D01*
X119979Y60122D01*
X119982Y60136D01*
X119985Y60151D01*
X119988Y60167D01*
X119990Y60185D01*
X119992Y60205D01*
Y60226D01*
Y60596D01*
X120077D01*
Y60226D01*
D02*
G37*
G36*
X120895Y60598D02*
X120900D01*
X120906Y60597D01*
X120922Y60594D01*
X120939Y60591D01*
X120959Y60584D01*
X120978Y60576D01*
X120998Y60565D01*
X120999D01*
X120999Y60563D01*
X121002Y60561D01*
X121006Y60558D01*
X121015Y60551D01*
X121027Y60541D01*
X121039Y60527D01*
X121053Y60510D01*
X121065Y60491D01*
X121076Y60469D01*
Y60468D01*
X121077Y60466D01*
X121079Y60462D01*
X121081Y60458D01*
X121083Y60451D01*
X121085Y60443D01*
X121087Y60433D01*
X121090Y60423D01*
X121093Y60411D01*
X121096Y60397D01*
X121097Y60383D01*
X121099Y60367D01*
X121101Y60349D01*
X121103Y60331D01*
X121104Y60311D01*
Y60289D01*
Y60288D01*
Y60284D01*
Y60277D01*
Y60269D01*
X121103Y60259D01*
Y60247D01*
X121102Y60233D01*
X121100Y60219D01*
X121097Y60188D01*
X121093Y60154D01*
X121086Y60123D01*
X121082Y60107D01*
X121077Y60093D01*
Y60092D01*
X121076Y60090D01*
X121074Y60087D01*
X121073Y60081D01*
X121070Y60076D01*
X121066Y60068D01*
X121057Y60053D01*
X121046Y60035D01*
X121033Y60016D01*
X121016Y59999D01*
X120998Y59983D01*
X120997D01*
X120995Y59981D01*
X120992Y59980D01*
X120988Y59978D01*
X120983Y59975D01*
X120977Y59971D01*
X120970Y59967D01*
X120962Y59965D01*
X120945Y59957D01*
X120924Y59951D01*
X120901Y59947D01*
X120875Y59945D01*
X120867D01*
X120863Y59946D01*
X120856D01*
X120849Y59947D01*
X120831Y59951D01*
X120812Y59955D01*
X120791Y59963D01*
X120771Y59973D01*
X120761Y59980D01*
X120752Y59987D01*
X120751Y59988D01*
X120750Y59989D01*
X120747Y59992D01*
X120744Y59994D01*
X120741Y59999D01*
X120736Y60004D01*
X120727Y60017D01*
X120717Y60034D01*
X120708Y60054D01*
X120701Y60078D01*
X120695Y60104D01*
X120771Y60111D01*
Y60110D01*
X120772Y60108D01*
Y60106D01*
X120773Y60102D01*
X120776Y60092D01*
X120779Y60081D01*
X120784Y60068D01*
X120791Y60055D01*
X120798Y60043D01*
X120807Y60033D01*
X120808Y60032D01*
X120812Y60029D01*
X120818Y60026D01*
X120826Y60022D01*
X120836Y60017D01*
X120848Y60014D01*
X120862Y60011D01*
X120876Y60010D01*
X120883D01*
X120889Y60011D01*
X120898Y60012D01*
X120908Y60014D01*
X120918Y60016D01*
X120929Y60020D01*
X120939Y60026D01*
X120940Y60027D01*
X120944Y60029D01*
X120950Y60032D01*
X120955Y60038D01*
X120962Y60044D01*
X120970Y60052D01*
X120977Y60060D01*
X120985Y60070D01*
X120986Y60071D01*
X120987Y60076D01*
X120991Y60082D01*
X120995Y60090D01*
X120999Y60102D01*
X121004Y60114D01*
X121009Y60129D01*
X121013Y60146D01*
Y60147D01*
X121014Y60148D01*
Y60151D01*
X121015Y60154D01*
X121017Y60163D01*
X121020Y60176D01*
X121022Y60190D01*
X121023Y60206D01*
X121024Y60224D01*
X121025Y60242D01*
Y60243D01*
Y60246D01*
Y60250D01*
Y60258D01*
X121024Y60256D01*
X121021Y60251D01*
X121015Y60245D01*
X121009Y60236D01*
X120999Y60226D01*
X120988Y60216D01*
X120975Y60206D01*
X120961Y60197D01*
X120959Y60196D01*
X120953Y60193D01*
X120945Y60189D01*
X120935Y60186D01*
X120921Y60181D01*
X120906Y60177D01*
X120889Y60175D01*
X120872Y60174D01*
X120864D01*
X120859Y60175D01*
X120852Y60176D01*
X120844Y60176D01*
X120835Y60178D01*
X120826Y60181D01*
X120804Y60188D01*
X120793Y60192D01*
X120782Y60198D01*
X120770Y60204D01*
X120759Y60213D01*
X120748Y60221D01*
X120738Y60231D01*
X120737Y60232D01*
X120735Y60234D01*
X120733Y60237D01*
X120729Y60241D01*
X120725Y60248D01*
X120720Y60254D01*
X120716Y60262D01*
X120711Y60272D01*
X120705Y60282D01*
X120701Y60293D01*
X120696Y60306D01*
X120692Y60319D01*
X120688Y60334D01*
X120686Y60349D01*
X120684Y60365D01*
X120683Y60383D01*
Y60384D01*
Y60387D01*
Y60392D01*
X120684Y60398D01*
X120685Y60407D01*
X120686Y60417D01*
X120688Y60427D01*
X120691Y60439D01*
X120697Y60463D01*
X120702Y60476D01*
X120707Y60490D01*
X120714Y60503D01*
X120722Y60515D01*
X120730Y60528D01*
X120741Y60539D01*
X120742Y60540D01*
X120743Y60542D01*
X120746Y60544D01*
X120751Y60548D01*
X120756Y60553D01*
X120764Y60558D01*
X120771Y60563D01*
X120780Y60569D01*
X120790Y60575D01*
X120801Y60580D01*
X120826Y60590D01*
X120839Y60593D01*
X120853Y60596D01*
X120868Y60598D01*
X120884Y60599D01*
X120890D01*
X120895Y60598D01*
D02*
G37*
G36*
X120476Y88868D02*
X120488Y88866D01*
X120503Y88863D01*
X120519Y88859D01*
X120536Y88853D01*
X120553Y88846D01*
X120554D01*
X120554Y88845D01*
X120560Y88842D01*
X120568Y88837D01*
X120578Y88830D01*
X120589Y88821D01*
X120600Y88811D01*
X120611Y88799D01*
X120620Y88785D01*
X120621Y88783D01*
X120624Y88778D01*
X120628Y88770D01*
X120632Y88760D01*
X120637Y88748D01*
X120640Y88734D01*
X120643Y88718D01*
X120644Y88703D01*
Y88701D01*
Y88695D01*
X120643Y88688D01*
X120641Y88678D01*
X120639Y88666D01*
X120634Y88653D01*
X120628Y88640D01*
X120621Y88627D01*
X120620Y88625D01*
X120617Y88621D01*
X120612Y88615D01*
X120604Y88607D01*
X120595Y88599D01*
X120584Y88590D01*
X120571Y88581D01*
X120555Y88573D01*
X120556D01*
X120558Y88572D01*
X120561Y88571D01*
X120565Y88570D01*
X120575Y88567D01*
X120588Y88561D01*
X120603Y88554D01*
X120617Y88544D01*
X120631Y88532D01*
X120644Y88519D01*
X120645Y88517D01*
X120649Y88511D01*
X120654Y88502D01*
X120660Y88490D01*
X120665Y88475D01*
X120671Y88458D01*
X120675Y88437D01*
X120676Y88415D01*
Y88414D01*
Y88411D01*
Y88407D01*
X120675Y88401D01*
X120674Y88394D01*
X120672Y88385D01*
X120670Y88376D01*
X120668Y88366D01*
X120661Y88344D01*
X120655Y88332D01*
X120650Y88321D01*
X120642Y88309D01*
X120634Y88297D01*
X120625Y88285D01*
X120614Y88274D01*
X120613Y88273D01*
X120611Y88271D01*
X120607Y88268D01*
X120603Y88264D01*
X120597Y88260D01*
X120590Y88255D01*
X120581Y88250D01*
X120571Y88245D01*
X120561Y88239D01*
X120549Y88234D01*
X120537Y88229D01*
X120523Y88225D01*
X120508Y88221D01*
X120493Y88218D01*
X120477Y88216D01*
X120459Y88215D01*
X120451D01*
X120445Y88216D01*
X120438Y88217D01*
X120430Y88218D01*
X120420Y88220D01*
X120410Y88222D01*
X120388Y88227D01*
X120365Y88237D01*
X120353Y88242D01*
X120342Y88249D01*
X120331Y88257D01*
X120320Y88265D01*
X120319Y88266D01*
X120317Y88268D01*
X120314Y88271D01*
X120311Y88274D01*
X120307Y88279D01*
X120302Y88286D01*
X120297Y88292D01*
X120291Y88300D01*
X120285Y88310D01*
X120280Y88319D01*
X120270Y88341D01*
X120261Y88367D01*
X120259Y88381D01*
X120257Y88396D01*
X120335Y88406D01*
Y88405D01*
X120336Y88403D01*
X120337Y88399D01*
X120338Y88395D01*
X120339Y88389D01*
X120341Y88383D01*
X120346Y88369D01*
X120352Y88352D01*
X120360Y88336D01*
X120370Y88322D01*
X120381Y88309D01*
X120383Y88308D01*
X120386Y88304D01*
X120394Y88299D01*
X120403Y88295D01*
X120414Y88289D01*
X120428Y88285D01*
X120444Y88281D01*
X120460Y88280D01*
X120466D01*
X120469Y88281D01*
X120480Y88282D01*
X120493Y88285D01*
X120507Y88289D01*
X120523Y88296D01*
X120539Y88305D01*
X120554Y88318D01*
X120555Y88320D01*
X120560Y88325D01*
X120566Y88334D01*
X120573Y88345D01*
X120580Y88359D01*
X120586Y88374D01*
X120591Y88393D01*
X120592Y88413D01*
Y88414D01*
Y88416D01*
Y88419D01*
X120591Y88422D01*
X120591Y88433D01*
X120588Y88445D01*
X120584Y88459D01*
X120578Y88474D01*
X120568Y88489D01*
X120556Y88503D01*
X120554Y88505D01*
X120550Y88508D01*
X120542Y88514D01*
X120532Y88520D01*
X120519Y88527D01*
X120504Y88532D01*
X120486Y88536D01*
X120467Y88538D01*
X120458D01*
X120452Y88537D01*
X120444Y88536D01*
X120434Y88534D01*
X120423Y88532D01*
X120411Y88530D01*
X120420Y88599D01*
X120425D01*
X120429Y88598D01*
X120441D01*
X120451Y88600D01*
X120463Y88602D01*
X120477Y88605D01*
X120493Y88609D01*
X120507Y88616D01*
X120523Y88624D01*
X120524D01*
X120525Y88625D01*
X120530Y88629D01*
X120536Y88635D01*
X120543Y88643D01*
X120551Y88655D01*
X120557Y88669D01*
X120562Y88685D01*
X120564Y88694D01*
Y88704D01*
Y88705D01*
Y88706D01*
Y88712D01*
X120562Y88719D01*
X120560Y88729D01*
X120556Y88740D01*
X120552Y88752D01*
X120544Y88764D01*
X120534Y88776D01*
X120533Y88777D01*
X120529Y88780D01*
X120522Y88785D01*
X120514Y88790D01*
X120503Y88795D01*
X120490Y88800D01*
X120475Y88803D01*
X120458Y88804D01*
X120451D01*
X120443Y88802D01*
X120432Y88801D01*
X120419Y88797D01*
X120407Y88792D01*
X120395Y88785D01*
X120383Y88776D01*
X120382Y88775D01*
X120378Y88770D01*
X120372Y88764D01*
X120366Y88754D01*
X120359Y88742D01*
X120353Y88728D01*
X120347Y88710D01*
X120344Y88690D01*
X120265Y88703D01*
Y88704D01*
X120266Y88707D01*
X120267Y88711D01*
X120268Y88716D01*
X120270Y88723D01*
X120272Y88730D01*
X120278Y88748D01*
X120287Y88768D01*
X120298Y88789D01*
X120312Y88808D01*
X120330Y88826D01*
X120331Y88826D01*
X120333Y88827D01*
X120335Y88829D01*
X120339Y88832D01*
X120344Y88836D01*
X120350Y88839D01*
X120357Y88843D01*
X120365Y88848D01*
X120383Y88855D01*
X120405Y88862D01*
X120430Y88867D01*
X120443Y88869D01*
X120466D01*
X120476Y88868D01*
D02*
G37*
G36*
X120147Y88496D02*
Y88495D01*
Y88492D01*
Y88487D01*
Y88481D01*
X120146Y88472D01*
Y88463D01*
X120145Y88452D01*
X120144Y88441D01*
X120141Y88416D01*
X120137Y88390D01*
X120132Y88365D01*
X120128Y88353D01*
X120125Y88342D01*
Y88341D01*
X120124Y88339D01*
X120122Y88336D01*
X120120Y88333D01*
X120114Y88323D01*
X120106Y88310D01*
X120095Y88295D01*
X120082Y88280D01*
X120065Y88264D01*
X120045Y88250D01*
X120044D01*
X120042Y88249D01*
X120039Y88248D01*
X120035Y88245D01*
X120029Y88242D01*
X120022Y88239D01*
X120015Y88237D01*
X120005Y88233D01*
X119995Y88229D01*
X119984Y88226D01*
X119972Y88224D01*
X119958Y88221D01*
X119944Y88219D01*
X119929Y88217D01*
X119896Y88215D01*
X119888D01*
X119881Y88216D01*
X119874D01*
X119865Y88217D01*
X119855Y88218D01*
X119844Y88219D01*
X119821Y88223D01*
X119796Y88228D01*
X119772Y88236D01*
X119749Y88246D01*
X119748D01*
X119746Y88248D01*
X119744Y88250D01*
X119740Y88251D01*
X119730Y88259D01*
X119718Y88269D01*
X119704Y88282D01*
X119691Y88297D01*
X119678Y88315D01*
X119668Y88335D01*
Y88336D01*
X119667Y88338D01*
X119666Y88342D01*
X119664Y88347D01*
X119662Y88352D01*
X119660Y88360D01*
X119658Y88368D01*
X119656Y88378D01*
X119654Y88389D01*
X119651Y88401D01*
X119649Y88414D01*
X119647Y88428D01*
X119646Y88444D01*
X119645Y88460D01*
X119644Y88478D01*
Y88496D01*
Y88866D01*
X119729D01*
Y88496D01*
Y88495D01*
Y88493D01*
Y88488D01*
Y88482D01*
X119730Y88476D01*
Y88468D01*
X119731Y88450D01*
X119733Y88430D01*
X119735Y88409D01*
X119739Y88390D01*
X119741Y88382D01*
X119744Y88373D01*
X119745Y88372D01*
X119746Y88367D01*
X119751Y88360D01*
X119757Y88351D01*
X119763Y88342D01*
X119772Y88332D01*
X119783Y88322D01*
X119796Y88313D01*
X119798Y88312D01*
X119803Y88310D01*
X119811Y88307D01*
X119822Y88303D01*
X119835Y88299D01*
X119852Y88296D01*
X119869Y88293D01*
X119889Y88292D01*
X119898D01*
X119904Y88293D01*
X119912D01*
X119920Y88294D01*
X119941Y88298D01*
X119963Y88302D01*
X119984Y88310D01*
X120004Y88320D01*
X120014Y88326D01*
X120022Y88334D01*
X120023Y88335D01*
X120024Y88335D01*
X120026Y88338D01*
X120028Y88342D01*
X120031Y88348D01*
X120035Y88353D01*
X120039Y88361D01*
X120042Y88370D01*
X120046Y88380D01*
X120049Y88392D01*
X120052Y88406D01*
X120055Y88421D01*
X120058Y88437D01*
X120060Y88455D01*
X120062Y88475D01*
Y88496D01*
Y88866D01*
X120147D01*
Y88496D01*
D02*
G37*
G36*
X121049Y88226D02*
X120971D01*
Y88727D01*
X120970Y88726D01*
X120965Y88722D01*
X120959Y88716D01*
X120950Y88710D01*
X120940Y88702D01*
X120927Y88692D01*
X120912Y88682D01*
X120896Y88672D01*
X120895D01*
X120894Y88671D01*
X120888Y88667D01*
X120879Y88663D01*
X120868Y88657D01*
X120855Y88651D01*
X120841Y88644D01*
X120827Y88638D01*
X120813Y88632D01*
Y88708D01*
X120814D01*
X120816Y88710D01*
X120820Y88711D01*
X120824Y88714D01*
X120830Y88716D01*
X120836Y88720D01*
X120852Y88729D01*
X120871Y88740D01*
X120889Y88752D01*
X120909Y88767D01*
X120928Y88783D01*
X120929Y88784D01*
X120930Y88785D01*
X120933Y88788D01*
X120936Y88790D01*
X120945Y88800D01*
X120956Y88811D01*
X120967Y88824D01*
X120979Y88838D01*
X120989Y88853D01*
X120998Y88869D01*
X121049D01*
Y88226D01*
D02*
G37*
G36*
X120317Y149990D02*
Y149989D01*
Y149985D01*
Y149981D01*
Y149974D01*
X120316Y149966D01*
Y149957D01*
X120315Y149945D01*
X120314Y149934D01*
X120311Y149909D01*
X120308Y149884D01*
X120302Y149859D01*
X120298Y149847D01*
X120295Y149835D01*
Y149835D01*
X120294Y149833D01*
X120292Y149830D01*
X120290Y149826D01*
X120284Y149816D01*
X120276Y149803D01*
X120265Y149788D01*
X120252Y149774D01*
X120235Y149758D01*
X120215Y149744D01*
X120214D01*
X120212Y149742D01*
X120209Y149741D01*
X120205Y149738D01*
X120199Y149736D01*
X120192Y149733D01*
X120185Y149730D01*
X120175Y149726D01*
X120165Y149723D01*
X120154Y149720D01*
X120142Y149717D01*
X120128Y149714D01*
X120114Y149712D01*
X120099Y149711D01*
X120066Y149709D01*
X120058D01*
X120051Y149710D01*
X120044D01*
X120035Y149711D01*
X120025Y149712D01*
X120014Y149712D01*
X119991Y149716D01*
X119966Y149722D01*
X119942Y149729D01*
X119919Y149739D01*
X119918D01*
X119916Y149741D01*
X119914Y149743D01*
X119910Y149745D01*
X119900Y149752D01*
X119888Y149762D01*
X119874Y149775D01*
X119861Y149790D01*
X119848Y149809D01*
X119838Y149829D01*
Y149830D01*
X119837Y149832D01*
X119836Y149835D01*
X119834Y149840D01*
X119832Y149846D01*
X119830Y149853D01*
X119828Y149861D01*
X119826Y149872D01*
X119824Y149883D01*
X119821Y149895D01*
X119819Y149908D01*
X119817Y149921D01*
X119816Y149937D01*
X119815Y149954D01*
X119814Y149971D01*
Y149990D01*
Y150360D01*
X119899D01*
Y149990D01*
Y149989D01*
Y149986D01*
Y149982D01*
Y149976D01*
X119900Y149970D01*
Y149961D01*
X119901Y149944D01*
X119903Y149923D01*
X119905Y149903D01*
X119909Y149884D01*
X119911Y149875D01*
X119914Y149867D01*
X119915Y149865D01*
X119916Y149860D01*
X119921Y149854D01*
X119927Y149845D01*
X119933Y149835D01*
X119942Y149825D01*
X119953Y149815D01*
X119966Y149807D01*
X119968Y149806D01*
X119973Y149803D01*
X119981Y149800D01*
X119992Y149797D01*
X120005Y149792D01*
X120022Y149789D01*
X120039Y149786D01*
X120059Y149786D01*
X120068D01*
X120074Y149786D01*
X120082D01*
X120090Y149787D01*
X120111Y149791D01*
X120133Y149796D01*
X120154Y149803D01*
X120174Y149813D01*
X120184Y149820D01*
X120192Y149827D01*
X120193Y149828D01*
X120194Y149829D01*
X120196Y149832D01*
X120198Y149835D01*
X120201Y149841D01*
X120205Y149847D01*
X120209Y149855D01*
X120212Y149863D01*
X120216Y149873D01*
X120219Y149885D01*
X120222Y149899D01*
X120225Y149914D01*
X120228Y149931D01*
X120230Y149948D01*
X120232Y149969D01*
Y149990D01*
Y150360D01*
X120317D01*
Y149990D01*
D02*
G37*
G36*
X120653Y150362D02*
X120661Y150361D01*
X120670Y150360D01*
X120680Y150358D01*
X120690Y150356D01*
X120714Y150350D01*
X120738Y150340D01*
X120750Y150335D01*
X120762Y150328D01*
X120773Y150320D01*
X120784Y150311D01*
X120785Y150310D01*
X120786Y150309D01*
X120788Y150305D01*
X120792Y150301D01*
X120797Y150297D01*
X120801Y150290D01*
X120806Y150284D01*
X120811Y150276D01*
X120821Y150258D01*
X120830Y150236D01*
X120834Y150225D01*
X120835Y150212D01*
X120837Y150199D01*
X120838Y150185D01*
Y150183D01*
Y150178D01*
X120837Y150171D01*
X120836Y150161D01*
X120835Y150150D01*
X120831Y150137D01*
X120827Y150123D01*
X120822Y150109D01*
X120821Y150107D01*
X120819Y150103D01*
X120815Y150095D01*
X120810Y150085D01*
X120802Y150074D01*
X120793Y150060D01*
X120782Y150046D01*
X120769Y150031D01*
X120767Y150029D01*
X120762Y150023D01*
X120758Y150019D01*
X120753Y150014D01*
X120748Y150008D01*
X120740Y150001D01*
X120733Y149994D01*
X120724Y149985D01*
X120714Y149976D01*
X120703Y149966D01*
X120691Y149956D01*
X120678Y149944D01*
X120663Y149932D01*
X120649Y149919D01*
X120648Y149918D01*
X120646Y149916D01*
X120642Y149913D01*
X120638Y149909D01*
X120632Y149904D01*
X120626Y149898D01*
X120611Y149886D01*
X120595Y149872D01*
X120580Y149859D01*
X120567Y149847D01*
X120562Y149842D01*
X120557Y149837D01*
X120556Y149836D01*
X120553Y149834D01*
X120550Y149830D01*
X120545Y149824D01*
X120540Y149818D01*
X120535Y149811D01*
X120524Y149796D01*
X120839D01*
Y149720D01*
X120415D01*
Y149721D01*
Y149725D01*
Y149730D01*
X120416Y149737D01*
X120417Y149746D01*
X120418Y149755D01*
X120420Y149764D01*
X120424Y149774D01*
Y149775D01*
X120425Y149776D01*
X120427Y149782D01*
X120430Y149790D01*
X120436Y149801D01*
X120443Y149814D01*
X120453Y149829D01*
X120463Y149844D01*
X120476Y149859D01*
Y149860D01*
X120478Y149861D01*
X120482Y149867D01*
X120491Y149875D01*
X120503Y149887D01*
X120516Y149901D01*
X120534Y149918D01*
X120555Y149936D01*
X120578Y149956D01*
X120579Y149957D01*
X120583Y149959D01*
X120589Y149964D01*
X120595Y149970D01*
X120603Y149977D01*
X120614Y149985D01*
X120624Y149994D01*
X120636Y150005D01*
X120659Y150027D01*
X120682Y150049D01*
X120693Y150060D01*
X120703Y150071D01*
X120712Y150081D01*
X120720Y150092D01*
Y150092D01*
X120722Y150093D01*
X120724Y150096D01*
X120725Y150100D01*
X120732Y150110D01*
X120739Y150122D01*
X120746Y150137D01*
X120752Y150153D01*
X120756Y150170D01*
X120758Y150187D01*
Y150188D01*
Y150189D01*
X120757Y150194D01*
X120756Y150203D01*
X120753Y150214D01*
X120749Y150227D01*
X120743Y150240D01*
X120735Y150252D01*
X120724Y150265D01*
X120722Y150267D01*
X120717Y150271D01*
X120711Y150276D01*
X120700Y150282D01*
X120687Y150288D01*
X120673Y150293D01*
X120655Y150297D01*
X120636Y150298D01*
X120630D01*
X120626Y150297D01*
X120615Y150296D01*
X120602Y150293D01*
X120589Y150289D01*
X120573Y150283D01*
X120558Y150275D01*
X120544Y150264D01*
X120542Y150262D01*
X120539Y150257D01*
X120533Y150250D01*
X120528Y150239D01*
X120521Y150226D01*
X120516Y150209D01*
X120512Y150190D01*
X120510Y150169D01*
X120430Y150178D01*
Y150178D01*
X120430Y150181D01*
Y150186D01*
X120431Y150192D01*
X120433Y150200D01*
X120435Y150208D01*
X120438Y150218D01*
X120441Y150228D01*
X120448Y150251D01*
X120459Y150273D01*
X120466Y150284D01*
X120474Y150295D01*
X120482Y150305D01*
X120491Y150314D01*
X120492Y150315D01*
X120494Y150316D01*
X120497Y150319D01*
X120502Y150322D01*
X120507Y150325D01*
X120514Y150329D01*
X120521Y150334D01*
X120530Y150338D01*
X120540Y150343D01*
X120552Y150348D01*
X120564Y150351D01*
X120577Y150355D01*
X120590Y150358D01*
X120605Y150361D01*
X120621Y150362D01*
X120638Y150362D01*
X120647D01*
X120653Y150362D01*
D02*
G37*
G36*
X121151D02*
X121163Y150360D01*
X121177Y150357D01*
X121191Y150353D01*
X121207Y150349D01*
X121222Y150341D01*
X121223D01*
X121224Y150340D01*
X121228Y150337D01*
X121236Y150333D01*
X121245Y150326D01*
X121255Y150317D01*
X121266Y150307D01*
X121276Y150295D01*
X121287Y150281D01*
X121288Y150279D01*
X121291Y150275D01*
X121295Y150266D01*
X121301Y150254D01*
X121307Y150240D01*
X121314Y150225D01*
X121321Y150206D01*
X121326Y150186D01*
Y150185D01*
X121327Y150183D01*
X121328Y150180D01*
X121329Y150176D01*
X121330Y150170D01*
X121331Y150164D01*
X121333Y150155D01*
X121334Y150146D01*
X121336Y150136D01*
X121337Y150125D01*
X121337Y150112D01*
X121339Y150099D01*
X121340Y150084D01*
Y150069D01*
X121341Y150053D01*
Y150035D01*
Y150034D01*
Y150031D01*
Y150024D01*
Y150017D01*
X121340Y150007D01*
Y149995D01*
X121339Y149983D01*
X121338Y149970D01*
X121336Y149941D01*
X121331Y149910D01*
X121325Y149881D01*
X121322Y149867D01*
X121317Y149853D01*
Y149852D01*
X121316Y149850D01*
X121314Y149847D01*
X121312Y149842D01*
X121311Y149835D01*
X121307Y149829D01*
X121300Y149813D01*
X121290Y149797D01*
X121278Y149778D01*
X121264Y149762D01*
X121248Y149746D01*
X121247D01*
X121246Y149744D01*
X121243Y149742D01*
X121239Y149740D01*
X121235Y149737D01*
X121230Y149734D01*
X121216Y149727D01*
X121200Y149721D01*
X121180Y149714D01*
X121157Y149711D01*
X121132Y149709D01*
X121123D01*
X121116Y149710D01*
X121109Y149711D01*
X121100Y149712D01*
X121090Y149714D01*
X121079Y149717D01*
X121067Y149721D01*
X121055Y149725D01*
X121043Y149730D01*
X121031Y149737D01*
X121019Y149744D01*
X121007Y149753D01*
X120996Y149763D01*
X120986Y149774D01*
X120985Y149775D01*
X120983Y149778D01*
X120981Y149783D01*
X120976Y149790D01*
X120971Y149798D01*
X120967Y149810D01*
X120960Y149823D01*
X120955Y149837D01*
X120949Y149854D01*
X120944Y149873D01*
X120938Y149895D01*
X120933Y149919D01*
X120929Y149945D01*
X120926Y149972D01*
X120924Y150003D01*
X120923Y150035D01*
Y150036D01*
Y150040D01*
Y150046D01*
Y150054D01*
X120924Y150064D01*
Y150075D01*
X120925Y150087D01*
X120926Y150101D01*
X120929Y150129D01*
X120933Y150160D01*
X120939Y150190D01*
X120943Y150204D01*
X120946Y150218D01*
Y150219D01*
X120947Y150221D01*
X120949Y150225D01*
X120951Y150229D01*
X120953Y150236D01*
X120957Y150242D01*
X120964Y150258D01*
X120973Y150275D01*
X120985Y150292D01*
X120999Y150310D01*
X121016Y150325D01*
X121017D01*
X121018Y150326D01*
X121020Y150328D01*
X121024Y150330D01*
X121029Y150334D01*
X121034Y150337D01*
X121048Y150344D01*
X121065Y150350D01*
X121084Y150357D01*
X121107Y150361D01*
X121132Y150362D01*
X121141D01*
X121151Y150362D01*
D02*
G37*
G36*
X120519Y120685D02*
Y120684D01*
Y120680D01*
Y120676D01*
Y120669D01*
X120518Y120661D01*
Y120652D01*
X120517Y120641D01*
X120516Y120630D01*
X120513Y120605D01*
X120510Y120579D01*
X120504Y120554D01*
X120500Y120542D01*
X120497Y120531D01*
Y120530D01*
X120496Y120528D01*
X120494Y120525D01*
X120492Y120521D01*
X120486Y120511D01*
X120478Y120498D01*
X120467Y120483D01*
X120454Y120469D01*
X120437Y120453D01*
X120417Y120439D01*
X120416D01*
X120414Y120437D01*
X120412Y120436D01*
X120407Y120434D01*
X120401Y120431D01*
X120394Y120428D01*
X120387Y120425D01*
X120377Y120422D01*
X120367Y120418D01*
X120356Y120415D01*
X120344Y120412D01*
X120330Y120410D01*
X120316Y120408D01*
X120302Y120406D01*
X120268Y120404D01*
X120260D01*
X120253Y120405D01*
X120246D01*
X120237Y120406D01*
X120227Y120407D01*
X120216Y120408D01*
X120193Y120411D01*
X120168Y120417D01*
X120144Y120424D01*
X120121Y120435D01*
X120120D01*
X120118Y120436D01*
X120116Y120438D01*
X120112Y120440D01*
X120102Y120447D01*
X120090Y120458D01*
X120076Y120471D01*
X120063Y120485D01*
X120050Y120504D01*
X120040Y120524D01*
Y120525D01*
X120039Y120527D01*
X120038Y120531D01*
X120036Y120535D01*
X120034Y120541D01*
X120033Y120548D01*
X120030Y120557D01*
X120028Y120567D01*
X120026Y120578D01*
X120023Y120590D01*
X120021Y120603D01*
X120020Y120617D01*
X120018Y120632D01*
X120017Y120649D01*
X120016Y120667D01*
Y120685D01*
Y121055D01*
X120101D01*
Y120685D01*
Y120684D01*
Y120681D01*
Y120677D01*
Y120671D01*
X120102Y120665D01*
Y120656D01*
X120103Y120639D01*
X120105Y120618D01*
X120107Y120598D01*
X120111Y120579D01*
X120113Y120570D01*
X120116Y120562D01*
X120117Y120560D01*
X120118Y120556D01*
X120123Y120549D01*
X120129Y120540D01*
X120135Y120531D01*
X120144Y120520D01*
X120155Y120510D01*
X120168Y120502D01*
X120170Y120501D01*
X120175Y120498D01*
X120183Y120496D01*
X120194Y120492D01*
X120207Y120487D01*
X120224Y120484D01*
X120241Y120482D01*
X120261Y120481D01*
X120270D01*
X120276Y120482D01*
X120284D01*
X120292Y120483D01*
X120313Y120486D01*
X120335Y120491D01*
X120356Y120498D01*
X120376Y120508D01*
X120386Y120515D01*
X120394Y120522D01*
X120395Y120523D01*
X120396Y120524D01*
X120398Y120527D01*
X120400Y120531D01*
X120403Y120536D01*
X120407Y120542D01*
X120411Y120550D01*
X120414Y120558D01*
X120418Y120569D01*
X120421Y120581D01*
X120425Y120594D01*
X120427Y120609D01*
X120430Y120626D01*
X120432Y120643D01*
X120434Y120664D01*
Y120685D01*
Y121055D01*
X120519D01*
Y120685D01*
D02*
G37*
G36*
X121455Y120641D02*
X121542D01*
Y120569D01*
X121455D01*
Y120415D01*
X121377D01*
Y120569D01*
X121099D01*
Y120641D01*
X121392Y121055D01*
X121455D01*
Y120641D01*
D02*
G37*
G36*
X120924Y120415D02*
X120845D01*
Y120915D01*
X120844Y120914D01*
X120840Y120911D01*
X120834Y120905D01*
X120825Y120899D01*
X120815Y120890D01*
X120802Y120881D01*
X120787Y120871D01*
X120770Y120861D01*
X120769D01*
X120768Y120860D01*
X120763Y120856D01*
X120754Y120851D01*
X120743Y120846D01*
X120730Y120839D01*
X120716Y120833D01*
X120702Y120827D01*
X120688Y120821D01*
Y120897D01*
X120689D01*
X120691Y120899D01*
X120694Y120900D01*
X120699Y120902D01*
X120705Y120905D01*
X120711Y120909D01*
X120727Y120918D01*
X120745Y120928D01*
X120764Y120941D01*
X120783Y120956D01*
X120803Y120972D01*
X120804Y120973D01*
X120805Y120974D01*
X120807Y120976D01*
X120811Y120979D01*
X120819Y120988D01*
X120830Y120999D01*
X120841Y121012D01*
X120854Y121027D01*
X120864Y121042D01*
X120873Y121058D01*
X120924D01*
Y120415D01*
D02*
G37*
G36*
X136527Y8574D02*
X136536D01*
X136546Y8573D01*
X136558Y8572D01*
X136570Y8570D01*
X136597Y8566D01*
X136626Y8559D01*
X136656Y8550D01*
X136684Y8537D01*
X136685Y8536D01*
X136688Y8535D01*
X136692Y8533D01*
X136696Y8530D01*
X136703Y8526D01*
X136710Y8521D01*
X136727Y8509D01*
X136745Y8494D01*
X136764Y8475D01*
X136782Y8454D01*
X136798Y8429D01*
X136799Y8428D01*
X136800Y8425D01*
X136802Y8422D01*
X136805Y8417D01*
X136807Y8410D01*
X136810Y8402D01*
X136814Y8393D01*
X136818Y8383D01*
X136821Y8372D01*
X136825Y8360D01*
X136831Y8334D01*
X136835Y8304D01*
X136837Y8274D01*
Y8264D01*
X136836Y8258D01*
X136835Y8250D01*
X136834Y8239D01*
X136833Y8229D01*
X136831Y8217D01*
X136825Y8192D01*
X136817Y8165D01*
X136811Y8151D01*
X136805Y8138D01*
X136796Y8125D01*
X136788Y8112D01*
X136787Y8111D01*
X136786Y8109D01*
X136783Y8105D01*
X136779Y8101D01*
X136774Y8096D01*
X136768Y8090D01*
X136760Y8083D01*
X136753Y8076D01*
X136744Y8068D01*
X136732Y8061D01*
X136721Y8053D01*
X136709Y8045D01*
X136696Y8039D01*
X136682Y8031D01*
X136667Y8026D01*
X136650Y8020D01*
X136631Y8103D01*
X136632D01*
X136634Y8104D01*
X136637Y8106D01*
X136642Y8108D01*
X136647Y8110D01*
X136655Y8113D01*
X136670Y8120D01*
X136686Y8129D01*
X136703Y8140D01*
X136719Y8154D01*
X136732Y8169D01*
X136734Y8171D01*
X136738Y8177D01*
X136743Y8186D01*
X136749Y8198D01*
X136755Y8214D01*
X136760Y8231D01*
X136764Y8252D01*
X136765Y8275D01*
Y8283D01*
X136764Y8287D01*
Y8294D01*
X136763Y8301D01*
X136760Y8319D01*
X136757Y8338D01*
X136750Y8359D01*
X136741Y8380D01*
X136729Y8399D01*
Y8400D01*
X136727Y8401D01*
X136722Y8408D01*
X136715Y8416D01*
X136704Y8426D01*
X136690Y8438D01*
X136674Y8449D01*
X136655Y8459D01*
X136634Y8469D01*
X136633D01*
X136631Y8470D01*
X136628Y8471D01*
X136623Y8471D01*
X136618Y8473D01*
X136611Y8475D01*
X136596Y8478D01*
X136577Y8482D01*
X136557Y8485D01*
X136535Y8487D01*
X136511Y8488D01*
X136510D01*
X136507D01*
X136502D01*
X136497D01*
X136490Y8487D01*
X136482D01*
X136473Y8486D01*
X136463Y8485D01*
X136440Y8483D01*
X136416Y8478D01*
X136392Y8472D01*
X136368Y8465D01*
X136367D01*
X136365Y8464D01*
X136363Y8462D01*
X136358Y8460D01*
X136347Y8455D01*
X136334Y8446D01*
X136319Y8436D01*
X136303Y8423D01*
X136290Y8409D01*
X136277Y8391D01*
Y8390D01*
X136276Y8388D01*
X136274Y8385D01*
X136272Y8382D01*
X136270Y8377D01*
X136267Y8372D01*
X136262Y8359D01*
X136256Y8342D01*
X136252Y8324D01*
X136248Y8303D01*
X136247Y8282D01*
Y8275D01*
X136248Y8270D01*
Y8263D01*
X136249Y8257D01*
X136253Y8240D01*
X136257Y8221D01*
X136265Y8201D01*
X136275Y8181D01*
X136280Y8171D01*
X136288Y8162D01*
X136289Y8161D01*
X136290Y8160D01*
X136292Y8157D01*
X136295Y8153D01*
X136300Y8150D01*
X136305Y8145D01*
X136311Y8140D01*
X136318Y8135D01*
X136327Y8129D01*
X136336Y8123D01*
X136345Y8117D01*
X136356Y8112D01*
X136368Y8107D01*
X136381Y8103D01*
X136395Y8098D01*
X136410Y8094D01*
X136389Y8009D01*
X136388D01*
X136384Y8010D01*
X136378Y8012D01*
X136371Y8015D01*
X136363Y8017D01*
X136352Y8021D01*
X136341Y8026D01*
X136329Y8031D01*
X136303Y8044D01*
X136278Y8061D01*
X136265Y8071D01*
X136252Y8081D01*
X136241Y8092D01*
X136230Y8105D01*
X136229Y8106D01*
X136227Y8108D01*
X136225Y8113D01*
X136221Y8117D01*
X136217Y8125D01*
X136212Y8132D01*
X136207Y8142D01*
X136203Y8152D01*
X136197Y8165D01*
X136193Y8177D01*
X136188Y8191D01*
X136183Y8206D01*
X136180Y8222D01*
X136178Y8238D01*
X136176Y8256D01*
X136175Y8275D01*
Y8285D01*
X136176Y8292D01*
Y8300D01*
X136177Y8311D01*
X136179Y8322D01*
X136181Y8335D01*
X136185Y8361D01*
X136193Y8389D01*
X136203Y8417D01*
X136209Y8430D01*
X136217Y8443D01*
X136218Y8444D01*
X136218Y8446D01*
X136221Y8449D01*
X136225Y8453D01*
X136229Y8459D01*
X136234Y8465D01*
X136241Y8472D01*
X136248Y8480D01*
X136256Y8487D01*
X136265Y8495D01*
X136286Y8512D01*
X136311Y8528D01*
X136339Y8542D01*
X136340D01*
X136342Y8544D01*
X136347Y8545D01*
X136352Y8547D01*
X136360Y8549D01*
X136369Y8552D01*
X136379Y8556D01*
X136390Y8558D01*
X136402Y8561D01*
X136416Y8565D01*
X136445Y8569D01*
X136477Y8573D01*
X136511Y8575D01*
X136512D01*
X136515D01*
X136521D01*
X136527Y8574D01*
D02*
G37*
G36*
X136365Y7858D02*
X136365D01*
X136363Y7857D01*
X136359Y7856D01*
X136354Y7855D01*
X136349Y7854D01*
X136342Y7852D01*
X136328Y7847D01*
X136312Y7841D01*
X136296Y7833D01*
X136281Y7823D01*
X136268Y7812D01*
X136267Y7810D01*
X136264Y7807D01*
X136259Y7799D01*
X136255Y7790D01*
X136249Y7779D01*
X136244Y7765D01*
X136241Y7749D01*
X136240Y7733D01*
Y7727D01*
X136241Y7723D01*
X136242Y7713D01*
X136244Y7700D01*
X136249Y7686D01*
X136255Y7670D01*
X136265Y7654D01*
X136278Y7639D01*
X136279Y7637D01*
X136285Y7633D01*
X136293Y7627D01*
X136304Y7620D01*
X136318Y7613D01*
X136334Y7607D01*
X136352Y7602D01*
X136373Y7601D01*
X136374D01*
X136376D01*
X136378D01*
X136382Y7601D01*
X136392Y7602D01*
X136404Y7605D01*
X136419Y7609D01*
X136434Y7615D01*
X136449Y7625D01*
X136463Y7637D01*
X136464Y7638D01*
X136468Y7643D01*
X136474Y7650D01*
X136480Y7661D01*
X136487Y7674D01*
X136492Y7689D01*
X136496Y7707D01*
X136498Y7726D01*
Y7735D01*
X136497Y7741D01*
X136496Y7749D01*
X136494Y7759D01*
X136492Y7770D01*
X136489Y7782D01*
X136559Y7772D01*
Y7768D01*
X136558Y7764D01*
Y7752D01*
X136560Y7742D01*
X136561Y7730D01*
X136564Y7716D01*
X136569Y7700D01*
X136575Y7686D01*
X136584Y7670D01*
Y7669D01*
X136585Y7668D01*
X136588Y7663D01*
X136595Y7657D01*
X136603Y7650D01*
X136615Y7642D01*
X136629Y7636D01*
X136645Y7631D01*
X136654Y7629D01*
X136664D01*
X136665D01*
X136666D01*
X136671D01*
X136679Y7631D01*
X136689Y7633D01*
X136700Y7637D01*
X136712Y7641D01*
X136724Y7649D01*
X136735Y7659D01*
X136736Y7660D01*
X136740Y7664D01*
X136745Y7671D01*
X136750Y7679D01*
X136755Y7690D01*
X136759Y7703D01*
X136763Y7718D01*
X136764Y7735D01*
Y7742D01*
X136762Y7750D01*
X136760Y7761D01*
X136757Y7773D01*
X136752Y7785D01*
X136745Y7798D01*
X136735Y7810D01*
X136734Y7811D01*
X136730Y7815D01*
X136723Y7821D01*
X136714Y7827D01*
X136702Y7834D01*
X136687Y7840D01*
X136670Y7846D01*
X136649Y7849D01*
X136663Y7928D01*
X136664D01*
X136667Y7927D01*
X136671Y7926D01*
X136676Y7925D01*
X136683Y7923D01*
X136690Y7920D01*
X136708Y7915D01*
X136728Y7906D01*
X136748Y7895D01*
X136768Y7881D01*
X136785Y7863D01*
X136786Y7862D01*
X136787Y7860D01*
X136789Y7858D01*
X136792Y7854D01*
X136795Y7849D01*
X136799Y7843D01*
X136803Y7836D01*
X136807Y7828D01*
X136815Y7809D01*
X136822Y7788D01*
X136827Y7763D01*
X136829Y7750D01*
Y7727D01*
X136828Y7717D01*
X136826Y7705D01*
X136823Y7690D01*
X136818Y7674D01*
X136813Y7657D01*
X136806Y7640D01*
Y7639D01*
X136805Y7638D01*
X136802Y7633D01*
X136796Y7625D01*
X136790Y7615D01*
X136781Y7604D01*
X136770Y7593D01*
X136758Y7582D01*
X136745Y7573D01*
X136743Y7572D01*
X136738Y7569D01*
X136730Y7565D01*
X136720Y7561D01*
X136708Y7556D01*
X136694Y7552D01*
X136678Y7550D01*
X136662Y7549D01*
X136660D01*
X136655D01*
X136647Y7550D01*
X136637Y7552D01*
X136625Y7554D01*
X136612Y7559D01*
X136599Y7564D01*
X136586Y7572D01*
X136585Y7573D01*
X136581Y7576D01*
X136574Y7581D01*
X136567Y7589D01*
X136559Y7598D01*
X136549Y7609D01*
X136541Y7622D01*
X136533Y7637D01*
Y7637D01*
X136532Y7635D01*
X136531Y7632D01*
X136530Y7628D01*
X136526Y7618D01*
X136521Y7605D01*
X136513Y7590D01*
X136504Y7576D01*
X136492Y7562D01*
X136478Y7549D01*
X136476Y7548D01*
X136471Y7544D01*
X136462Y7539D01*
X136450Y7533D01*
X136435Y7527D01*
X136417Y7522D01*
X136397Y7518D01*
X136375Y7517D01*
X136374D01*
X136371D01*
X136366D01*
X136361Y7518D01*
X136353Y7519D01*
X136345Y7521D01*
X136336Y7523D01*
X136326Y7525D01*
X136303Y7532D01*
X136291Y7538D01*
X136280Y7543D01*
X136268Y7551D01*
X136256Y7559D01*
X136244Y7568D01*
X136233Y7579D01*
X136232Y7580D01*
X136230Y7582D01*
X136228Y7586D01*
X136224Y7590D01*
X136219Y7596D01*
X136215Y7603D01*
X136209Y7612D01*
X136205Y7622D01*
X136199Y7632D01*
X136193Y7644D01*
X136189Y7656D01*
X136184Y7670D01*
X136181Y7685D01*
X136178Y7700D01*
X136176Y7716D01*
X136175Y7734D01*
Y7742D01*
X136176Y7748D01*
X136177Y7755D01*
X136178Y7763D01*
X136180Y7772D01*
X136181Y7783D01*
X136187Y7805D01*
X136196Y7828D01*
X136202Y7840D01*
X136208Y7851D01*
X136217Y7862D01*
X136225Y7873D01*
X136226Y7874D01*
X136228Y7876D01*
X136230Y7879D01*
X136234Y7882D01*
X136239Y7886D01*
X136245Y7891D01*
X136252Y7896D01*
X136260Y7902D01*
X136269Y7907D01*
X136279Y7913D01*
X136301Y7923D01*
X136327Y7932D01*
X136340Y7934D01*
X136355Y7936D01*
X136365Y7858D01*
D02*
G37*
G36*
Y7360D02*
X136365D01*
X136363Y7359D01*
X136359Y7358D01*
X136354Y7357D01*
X136349Y7356D01*
X136342Y7355D01*
X136328Y7350D01*
X136312Y7343D01*
X136296Y7335D01*
X136281Y7326D01*
X136268Y7315D01*
X136267Y7313D01*
X136264Y7309D01*
X136259Y7302D01*
X136255Y7293D01*
X136249Y7282D01*
X136244Y7268D01*
X136241Y7252D01*
X136240Y7235D01*
Y7230D01*
X136241Y7226D01*
X136242Y7216D01*
X136244Y7203D01*
X136249Y7188D01*
X136255Y7172D01*
X136265Y7157D01*
X136278Y7142D01*
X136279Y7140D01*
X136285Y7135D01*
X136293Y7130D01*
X136304Y7123D01*
X136318Y7115D01*
X136334Y7110D01*
X136352Y7105D01*
X136373Y7103D01*
X136374D01*
X136376D01*
X136378D01*
X136382Y7104D01*
X136392Y7105D01*
X136404Y7108D01*
X136419Y7111D01*
X136434Y7118D01*
X136449Y7127D01*
X136463Y7139D01*
X136464Y7141D01*
X136468Y7146D01*
X136474Y7153D01*
X136480Y7163D01*
X136487Y7176D01*
X136492Y7192D01*
X136496Y7209D01*
X136498Y7229D01*
Y7237D01*
X136497Y7244D01*
X136496Y7252D01*
X136494Y7261D01*
X136492Y7272D01*
X136489Y7284D01*
X136559Y7275D01*
Y7270D01*
X136558Y7267D01*
Y7255D01*
X136560Y7245D01*
X136561Y7233D01*
X136564Y7219D01*
X136569Y7203D01*
X136575Y7188D01*
X136584Y7172D01*
Y7172D01*
X136585Y7171D01*
X136588Y7166D01*
X136595Y7160D01*
X136603Y7152D01*
X136615Y7145D01*
X136629Y7138D01*
X136645Y7134D01*
X136654Y7132D01*
X136664D01*
X136665D01*
X136666D01*
X136671D01*
X136679Y7134D01*
X136689Y7135D01*
X136700Y7139D01*
X136712Y7144D01*
X136724Y7151D01*
X136735Y7161D01*
X136736Y7162D01*
X136740Y7167D01*
X136745Y7173D01*
X136750Y7182D01*
X136755Y7193D01*
X136759Y7206D01*
X136763Y7221D01*
X136764Y7237D01*
Y7245D01*
X136762Y7253D01*
X136760Y7264D01*
X136757Y7276D01*
X136752Y7288D01*
X136745Y7301D01*
X136735Y7313D01*
X136734Y7314D01*
X136730Y7318D01*
X136723Y7323D01*
X136714Y7330D01*
X136702Y7336D01*
X136687Y7343D01*
X136670Y7348D01*
X136649Y7352D01*
X136663Y7430D01*
X136664D01*
X136667Y7429D01*
X136671Y7429D01*
X136676Y7428D01*
X136683Y7426D01*
X136690Y7423D01*
X136708Y7417D01*
X136728Y7408D01*
X136748Y7397D01*
X136768Y7383D01*
X136785Y7366D01*
X136786Y7365D01*
X136787Y7363D01*
X136789Y7360D01*
X136792Y7356D01*
X136795Y7352D01*
X136799Y7345D01*
X136803Y7339D01*
X136807Y7331D01*
X136815Y7312D01*
X136822Y7291D01*
X136827Y7266D01*
X136829Y7253D01*
Y7230D01*
X136828Y7220D01*
X136826Y7208D01*
X136823Y7193D01*
X136818Y7176D01*
X136813Y7160D01*
X136806Y7143D01*
Y7142D01*
X136805Y7141D01*
X136802Y7135D01*
X136796Y7127D01*
X136790Y7118D01*
X136781Y7107D01*
X136770Y7096D01*
X136758Y7085D01*
X136745Y7075D01*
X136743Y7074D01*
X136738Y7072D01*
X136730Y7068D01*
X136720Y7063D01*
X136708Y7059D01*
X136694Y7055D01*
X136678Y7052D01*
X136662Y7051D01*
X136660D01*
X136655D01*
X136647Y7052D01*
X136637Y7054D01*
X136625Y7057D01*
X136612Y7062D01*
X136599Y7067D01*
X136586Y7074D01*
X136585Y7075D01*
X136581Y7078D01*
X136574Y7084D01*
X136567Y7091D01*
X136559Y7100D01*
X136549Y7111D01*
X136541Y7124D01*
X136533Y7140D01*
Y7139D01*
X136532Y7137D01*
X136531Y7135D01*
X136530Y7131D01*
X136526Y7121D01*
X136521Y7108D01*
X136513Y7093D01*
X136504Y7078D01*
X136492Y7064D01*
X136478Y7051D01*
X136476Y7050D01*
X136471Y7047D01*
X136462Y7041D01*
X136450Y7036D01*
X136435Y7030D01*
X136417Y7025D01*
X136397Y7021D01*
X136375Y7020D01*
X136374D01*
X136371D01*
X136366D01*
X136361Y7021D01*
X136353Y7022D01*
X136345Y7024D01*
X136336Y7025D01*
X136326Y7027D01*
X136303Y7035D01*
X136291Y7040D01*
X136280Y7046D01*
X136268Y7053D01*
X136256Y7062D01*
X136244Y7071D01*
X136233Y7082D01*
X136232Y7083D01*
X136230Y7085D01*
X136228Y7088D01*
X136224Y7093D01*
X136219Y7098D01*
X136215Y7106D01*
X136209Y7114D01*
X136205Y7124D01*
X136199Y7135D01*
X136193Y7147D01*
X136189Y7159D01*
X136184Y7172D01*
X136181Y7187D01*
X136178Y7203D01*
X136176Y7219D01*
X136175Y7236D01*
Y7245D01*
X136176Y7250D01*
X136177Y7258D01*
X136178Y7266D01*
X136180Y7275D01*
X136181Y7285D01*
X136187Y7307D01*
X136196Y7331D01*
X136202Y7343D01*
X136208Y7354D01*
X136217Y7365D01*
X136225Y7376D01*
X136226Y7377D01*
X136228Y7379D01*
X136230Y7381D01*
X136234Y7384D01*
X136239Y7389D01*
X136245Y7393D01*
X136252Y7399D01*
X136260Y7405D01*
X136269Y7410D01*
X136279Y7416D01*
X136301Y7426D01*
X136327Y7434D01*
X136340Y7437D01*
X136355Y7439D01*
X136365Y7360D01*
D02*
G37*
G36*
X28127Y93120D02*
X28135Y93119D01*
X28146Y93118D01*
X28156Y93117D01*
X28168Y93115D01*
X28193Y93109D01*
X28221Y93101D01*
X28234Y93095D01*
X28247Y93089D01*
X28260Y93080D01*
X28273Y93072D01*
X28274Y93071D01*
X28276Y93070D01*
X28280Y93067D01*
X28284Y93063D01*
X28289Y93058D01*
X28295Y93052D01*
X28302Y93044D01*
X28309Y93037D01*
X28317Y93028D01*
X28324Y93017D01*
X28332Y93005D01*
X28340Y92993D01*
X28346Y92980D01*
X28354Y92966D01*
X28359Y92951D01*
X28365Y92934D01*
X28282Y92915D01*
Y92916D01*
X28281Y92918D01*
X28279Y92921D01*
X28277Y92926D01*
X28275Y92931D01*
X28272Y92939D01*
X28265Y92954D01*
X28256Y92970D01*
X28245Y92987D01*
X28231Y93003D01*
X28216Y93017D01*
X28214Y93018D01*
X28209Y93022D01*
X28199Y93027D01*
X28187Y93033D01*
X28172Y93039D01*
X28154Y93044D01*
X28133Y93048D01*
X28110Y93049D01*
X28102D01*
X28098Y93048D01*
X28091D01*
X28084Y93047D01*
X28066Y93044D01*
X28047Y93041D01*
X28026Y93034D01*
X28005Y93025D01*
X27986Y93013D01*
X27985D01*
X27984Y93011D01*
X27977Y93006D01*
X27969Y92999D01*
X27959Y92988D01*
X27947Y92974D01*
X27936Y92958D01*
X27926Y92939D01*
X27916Y92918D01*
Y92917D01*
X27915Y92915D01*
X27914Y92912D01*
X27914Y92907D01*
X27912Y92902D01*
X27910Y92895D01*
X27907Y92880D01*
X27903Y92861D01*
X27900Y92841D01*
X27898Y92819D01*
X27897Y92795D01*
Y92794D01*
Y92791D01*
Y92786D01*
Y92781D01*
X27898Y92774D01*
Y92766D01*
X27899Y92757D01*
X27900Y92747D01*
X27902Y92724D01*
X27907Y92700D01*
X27913Y92676D01*
X27920Y92652D01*
Y92651D01*
X27921Y92649D01*
X27923Y92647D01*
X27925Y92642D01*
X27930Y92631D01*
X27939Y92618D01*
X27949Y92603D01*
X27962Y92588D01*
X27976Y92574D01*
X27994Y92561D01*
X27995D01*
X27997Y92560D01*
X28000Y92558D01*
X28003Y92556D01*
X28008Y92554D01*
X28013Y92551D01*
X28026Y92546D01*
X28043Y92540D01*
X28062Y92536D01*
X28082Y92532D01*
X28103Y92531D01*
X28110D01*
X28115Y92532D01*
X28122D01*
X28128Y92533D01*
X28145Y92537D01*
X28164Y92541D01*
X28184Y92549D01*
X28204Y92559D01*
X28214Y92564D01*
X28223Y92572D01*
X28224Y92573D01*
X28225Y92574D01*
X28228Y92576D01*
X28232Y92579D01*
X28235Y92584D01*
X28240Y92589D01*
X28245Y92595D01*
X28250Y92602D01*
X28256Y92611D01*
X28262Y92620D01*
X28268Y92629D01*
X28273Y92640D01*
X28278Y92652D01*
X28282Y92665D01*
X28287Y92679D01*
X28291Y92694D01*
X28376Y92673D01*
Y92672D01*
X28375Y92668D01*
X28373Y92662D01*
X28370Y92655D01*
X28368Y92647D01*
X28364Y92637D01*
X28359Y92625D01*
X28354Y92613D01*
X28341Y92588D01*
X28324Y92562D01*
X28314Y92549D01*
X28304Y92536D01*
X28293Y92525D01*
X28280Y92514D01*
X28279Y92513D01*
X28277Y92511D01*
X28272Y92509D01*
X28268Y92505D01*
X28260Y92501D01*
X28253Y92496D01*
X28243Y92491D01*
X28233Y92487D01*
X28221Y92481D01*
X28208Y92477D01*
X28194Y92472D01*
X28179Y92467D01*
X28163Y92464D01*
X28147Y92462D01*
X28129Y92460D01*
X28111Y92459D01*
X28100D01*
X28093Y92460D01*
X28085D01*
X28074Y92461D01*
X28063Y92463D01*
X28050Y92465D01*
X28024Y92469D01*
X27996Y92477D01*
X27968Y92487D01*
X27955Y92493D01*
X27942Y92501D01*
X27941Y92502D01*
X27939Y92502D01*
X27936Y92505D01*
X27932Y92509D01*
X27927Y92513D01*
X27920Y92518D01*
X27913Y92525D01*
X27905Y92532D01*
X27898Y92540D01*
X27890Y92549D01*
X27873Y92570D01*
X27857Y92595D01*
X27843Y92623D01*
Y92624D01*
X27841Y92626D01*
X27841Y92631D01*
X27838Y92637D01*
X27836Y92644D01*
X27833Y92653D01*
X27829Y92663D01*
X27827Y92674D01*
X27824Y92686D01*
X27820Y92700D01*
X27816Y92729D01*
X27812Y92761D01*
X27810Y92795D01*
Y92796D01*
Y92799D01*
Y92805D01*
X27811Y92811D01*
Y92820D01*
X27812Y92830D01*
X27813Y92842D01*
X27815Y92854D01*
X27819Y92881D01*
X27826Y92910D01*
X27835Y92940D01*
X27848Y92968D01*
X27849Y92969D01*
X27850Y92972D01*
X27852Y92976D01*
X27855Y92980D01*
X27859Y92987D01*
X27864Y92994D01*
X27876Y93011D01*
X27891Y93029D01*
X27910Y93048D01*
X27931Y93066D01*
X27956Y93082D01*
X27957Y93083D01*
X27960Y93084D01*
X27963Y93086D01*
X27968Y93089D01*
X27976Y93091D01*
X27983Y93094D01*
X27992Y93098D01*
X28002Y93102D01*
X28013Y93105D01*
X28025Y93109D01*
X28051Y93115D01*
X28081Y93119D01*
X28111Y93121D01*
X28121D01*
X28127Y93120D01*
D02*
G37*
G36*
X29157Y93112D02*
X29162D01*
X29168Y93111D01*
X29184Y93108D01*
X29201Y93104D01*
X29221Y93098D01*
X29240Y93090D01*
X29260Y93078D01*
X29261D01*
X29262Y93077D01*
X29264Y93075D01*
X29268Y93072D01*
X29277Y93065D01*
X29289Y93054D01*
X29301Y93041D01*
X29315Y93024D01*
X29327Y93004D01*
X29338Y92982D01*
Y92981D01*
X29339Y92980D01*
X29341Y92976D01*
X29343Y92971D01*
X29345Y92965D01*
X29348Y92956D01*
X29349Y92947D01*
X29352Y92937D01*
X29355Y92925D01*
X29358Y92911D01*
X29360Y92896D01*
X29361Y92881D01*
X29363Y92863D01*
X29365Y92845D01*
X29366Y92824D01*
Y92803D01*
Y92802D01*
Y92797D01*
Y92791D01*
Y92783D01*
X29365Y92772D01*
Y92760D01*
X29364Y92747D01*
X29362Y92733D01*
X29360Y92701D01*
X29355Y92668D01*
X29348Y92637D01*
X29344Y92621D01*
X29339Y92607D01*
Y92606D01*
X29338Y92604D01*
X29336Y92600D01*
X29335Y92595D01*
X29332Y92589D01*
X29328Y92582D01*
X29319Y92566D01*
X29308Y92549D01*
X29295Y92530D01*
X29278Y92513D01*
X29260Y92497D01*
X29259D01*
X29257Y92495D01*
X29254Y92493D01*
X29250Y92491D01*
X29245Y92489D01*
X29239Y92485D01*
X29232Y92481D01*
X29225Y92478D01*
X29207Y92471D01*
X29186Y92465D01*
X29163Y92461D01*
X29137Y92459D01*
X29129D01*
X29125Y92460D01*
X29118D01*
X29111Y92461D01*
X29093Y92465D01*
X29074Y92469D01*
X29054Y92477D01*
X29033Y92487D01*
X29023Y92493D01*
X29014Y92501D01*
X29013Y92502D01*
X29012Y92502D01*
X29009Y92505D01*
X29006Y92508D01*
X29003Y92513D01*
X28998Y92518D01*
X28989Y92531D01*
X28980Y92548D01*
X28970Y92568D01*
X28963Y92591D01*
X28957Y92618D01*
X29033Y92624D01*
Y92624D01*
X29034Y92622D01*
Y92620D01*
X29035Y92616D01*
X29038Y92606D01*
X29042Y92595D01*
X29046Y92582D01*
X29053Y92569D01*
X29060Y92557D01*
X29069Y92547D01*
X29070Y92546D01*
X29074Y92543D01*
X29080Y92539D01*
X29088Y92536D01*
X29098Y92531D01*
X29110Y92527D01*
X29124Y92525D01*
X29139Y92524D01*
X29145D01*
X29152Y92525D01*
X29160Y92526D01*
X29170Y92527D01*
X29180Y92530D01*
X29191Y92534D01*
X29201Y92539D01*
X29202Y92540D01*
X29206Y92542D01*
X29212Y92546D01*
X29217Y92551D01*
X29225Y92558D01*
X29232Y92565D01*
X29239Y92574D01*
X29247Y92584D01*
X29248Y92585D01*
X29250Y92589D01*
X29253Y92596D01*
X29257Y92604D01*
X29262Y92615D01*
X29266Y92628D01*
X29271Y92643D01*
X29275Y92660D01*
Y92661D01*
X29276Y92661D01*
Y92664D01*
X29277Y92668D01*
X29279Y92677D01*
X29282Y92689D01*
X29284Y92704D01*
X29286Y92720D01*
X29287Y92737D01*
X29287Y92756D01*
Y92757D01*
Y92759D01*
Y92764D01*
Y92771D01*
X29287Y92770D01*
X29283Y92765D01*
X29277Y92759D01*
X29271Y92749D01*
X29262Y92740D01*
X29250Y92730D01*
X29238Y92720D01*
X29223Y92710D01*
X29221Y92710D01*
X29215Y92707D01*
X29207Y92703D01*
X29197Y92699D01*
X29183Y92695D01*
X29168Y92691D01*
X29152Y92688D01*
X29134Y92687D01*
X29127D01*
X29121Y92688D01*
X29114Y92689D01*
X29106Y92690D01*
X29097Y92692D01*
X29088Y92695D01*
X29066Y92701D01*
X29055Y92706D01*
X29044Y92711D01*
X29032Y92718D01*
X29021Y92726D01*
X29010Y92735D01*
X29000Y92745D01*
X28999Y92746D01*
X28997Y92747D01*
X28995Y92750D01*
X28992Y92755D01*
X28987Y92761D01*
X28982Y92768D01*
X28978Y92776D01*
X28973Y92785D01*
X28968Y92796D01*
X28963Y92807D01*
X28958Y92820D01*
X28954Y92833D01*
X28950Y92847D01*
X28948Y92863D01*
X28946Y92879D01*
X28945Y92896D01*
Y92897D01*
Y92901D01*
Y92906D01*
X28946Y92912D01*
X28947Y92920D01*
X28948Y92931D01*
X28950Y92941D01*
X28953Y92953D01*
X28959Y92977D01*
X28964Y92990D01*
X28969Y93004D01*
X28976Y93017D01*
X28984Y93029D01*
X28993Y93041D01*
X29003Y93053D01*
X29004Y93053D01*
X29005Y93055D01*
X29008Y93058D01*
X29013Y93062D01*
X29018Y93066D01*
X29026Y93072D01*
X29033Y93077D01*
X29042Y93083D01*
X29052Y93089D01*
X29063Y93093D01*
X29088Y93103D01*
X29101Y93107D01*
X29115Y93110D01*
X29130Y93112D01*
X29146Y93113D01*
X29152D01*
X29157Y93112D01*
D02*
G37*
G36*
X28778Y92696D02*
X28865D01*
Y92624D01*
X28778D01*
Y92470D01*
X28699D01*
Y92624D01*
X28421D01*
Y92696D01*
X28714Y93110D01*
X28778D01*
Y92696D01*
D02*
G37*
%LPC*%
G36*
X120416Y182037D02*
X120215Y181750D01*
X120416D01*
Y182037D01*
D02*
G37*
G36*
X120870Y182103D02*
X120865D01*
X120861Y182102D01*
X120851Y182100D01*
X120839Y182097D01*
X120825Y182092D01*
X120810Y182083D01*
X120803Y182078D01*
X120795Y182072D01*
X120789Y182065D01*
X120782Y182056D01*
Y182056D01*
X120781Y182054D01*
X120779Y182050D01*
X120776Y182045D01*
X120773Y182038D01*
X120769Y182030D01*
X120767Y182020D01*
X120763Y182007D01*
X120759Y181994D01*
X120756Y181978D01*
X120752Y181960D01*
X120749Y181941D01*
X120746Y181919D01*
X120745Y181895D01*
X120744Y181869D01*
X120743Y181840D01*
Y181838D01*
Y181834D01*
Y181825D01*
X120744Y181814D01*
Y181802D01*
X120745Y181787D01*
X120745Y181772D01*
X120747Y181755D01*
X120752Y181719D01*
X120755Y181701D01*
X120758Y181685D01*
X120762Y181669D01*
X120768Y181654D01*
X120773Y181641D01*
X120780Y181630D01*
Y181629D01*
X120782Y181628D01*
X120786Y181622D01*
X120794Y181614D01*
X120805Y181604D01*
X120818Y181595D01*
X120834Y181587D01*
X120852Y181580D01*
X120861Y181579D01*
X120871Y181578D01*
X120877D01*
X120880Y181579D01*
X120890Y181581D01*
X120903Y181585D01*
X120916Y181591D01*
X120932Y181601D01*
X120940Y181606D01*
X120947Y181614D01*
X120954Y181621D01*
X120962Y181630D01*
Y181631D01*
X120964Y181633D01*
X120965Y181636D01*
X120967Y181640D01*
X120971Y181647D01*
X120974Y181655D01*
X120978Y181664D01*
X120981Y181676D01*
X120984Y181689D01*
X120988Y181704D01*
X120991Y181722D01*
X120994Y181740D01*
X120996Y181762D01*
X120998Y181786D01*
X121000Y181811D01*
Y181840D01*
Y181841D01*
Y181842D01*
Y181847D01*
Y181855D01*
X120999Y181866D01*
Y181878D01*
X120998Y181893D01*
X120997Y181909D01*
X120995Y181926D01*
X120990Y181961D01*
X120988Y181979D01*
X120984Y181995D01*
X120980Y182011D01*
X120975Y182026D01*
X120969Y182039D01*
X120963Y182050D01*
Y182051D01*
X120961Y182052D01*
X120959Y182055D01*
X120956Y182058D01*
X120948Y182067D01*
X120938Y182077D01*
X120924Y182086D01*
X120908Y182094D01*
X120900Y182098D01*
X120891Y182101D01*
X120880Y182102D01*
X120870Y182103D01*
D02*
G37*
G36*
X120903Y60534D02*
X120889D01*
X120885Y60533D01*
X120875Y60532D01*
X120863Y60529D01*
X120848Y60524D01*
X120832Y60516D01*
X120816Y60506D01*
X120809Y60498D01*
X120802Y60491D01*
Y60490D01*
X120800Y60489D01*
X120798Y60486D01*
X120796Y60483D01*
X120790Y60474D01*
X120783Y60461D01*
X120776Y60445D01*
X120769Y60426D01*
X120766Y60404D01*
X120764Y60380D01*
Y60379D01*
Y60377D01*
Y60374D01*
X120765Y60370D01*
Y60364D01*
X120766Y60359D01*
X120768Y60345D01*
X120773Y60329D01*
X120778Y60312D01*
X120788Y60296D01*
X120800Y60281D01*
X120802Y60279D01*
X120806Y60275D01*
X120815Y60269D01*
X120825Y60262D01*
X120839Y60255D01*
X120854Y60249D01*
X120872Y60245D01*
X120891Y60243D01*
X120897D01*
X120901Y60244D01*
X120911Y60245D01*
X120923Y60248D01*
X120938Y60252D01*
X120952Y60259D01*
X120967Y60268D01*
X120981Y60281D01*
X120983Y60283D01*
X120987Y60288D01*
X120992Y60297D01*
X120999Y60309D01*
X121006Y60323D01*
X121011Y60341D01*
X121015Y60362D01*
X121017Y60386D01*
Y60387D01*
Y60389D01*
Y60393D01*
X121016Y60397D01*
Y60404D01*
X121015Y60410D01*
X121012Y60425D01*
X121009Y60443D01*
X121002Y60461D01*
X120993Y60479D01*
X120981Y60494D01*
Y60495D01*
X120979Y60496D01*
X120974Y60501D01*
X120967Y60507D01*
X120957Y60515D01*
X120944Y60521D01*
X120929Y60528D01*
X120913Y60532D01*
X120903Y60534D01*
D02*
G37*
G36*
X121131Y150298D02*
X121126D01*
X121122Y150297D01*
X121112Y150295D01*
X121100Y150292D01*
X121086Y150287D01*
X121071Y150278D01*
X121064Y150273D01*
X121056Y150267D01*
X121050Y150260D01*
X121043Y150252D01*
Y150251D01*
X121042Y150249D01*
X121040Y150245D01*
X121037Y150240D01*
X121034Y150233D01*
X121031Y150225D01*
X121028Y150215D01*
X121024Y150203D01*
X121020Y150189D01*
X121017Y150173D01*
X121013Y150155D01*
X121010Y150136D01*
X121007Y150114D01*
X121006Y150090D01*
X121005Y150064D01*
X121004Y150035D01*
Y150033D01*
Y150029D01*
Y150020D01*
X121005Y150009D01*
Y149997D01*
X121006Y149982D01*
X121006Y149967D01*
X121008Y149950D01*
X121013Y149914D01*
X121016Y149896D01*
X121019Y149880D01*
X121023Y149864D01*
X121029Y149849D01*
X121034Y149836D01*
X121041Y149825D01*
Y149824D01*
X121043Y149823D01*
X121047Y149817D01*
X121055Y149809D01*
X121066Y149799D01*
X121079Y149790D01*
X121095Y149782D01*
X121113Y149775D01*
X121122Y149774D01*
X121132Y149774D01*
X121138D01*
X121141Y149774D01*
X121151Y149776D01*
X121164Y149780D01*
X121178Y149786D01*
X121193Y149796D01*
X121201Y149801D01*
X121208Y149809D01*
X121215Y149816D01*
X121223Y149825D01*
Y149826D01*
X121225Y149828D01*
X121227Y149831D01*
X121228Y149835D01*
X121232Y149842D01*
X121235Y149850D01*
X121239Y149859D01*
X121242Y149871D01*
X121245Y149884D01*
X121249Y149899D01*
X121252Y149917D01*
X121255Y149935D01*
X121257Y149958D01*
X121259Y149981D01*
X121261Y150007D01*
Y150035D01*
Y150036D01*
Y150037D01*
Y150042D01*
Y150050D01*
X121260Y150061D01*
Y150073D01*
X121259Y150088D01*
X121258Y150104D01*
X121256Y150121D01*
X121251Y150156D01*
X121249Y150174D01*
X121245Y150190D01*
X121241Y150206D01*
X121236Y150221D01*
X121230Y150234D01*
X121224Y150245D01*
Y150246D01*
X121222Y150247D01*
X121220Y150250D01*
X121217Y150253D01*
X121209Y150262D01*
X121199Y150272D01*
X121185Y150281D01*
X121169Y150289D01*
X121161Y150293D01*
X121152Y150296D01*
X121141Y150297D01*
X121131Y150298D01*
D02*
G37*
G36*
X121377Y120927D02*
X121175Y120641D01*
X121377D01*
Y120927D01*
D02*
G37*
G36*
X29165Y93048D02*
X29151D01*
X29147Y93047D01*
X29137Y93046D01*
X29125Y93042D01*
X29110Y93038D01*
X29094Y93029D01*
X29079Y93019D01*
X29071Y93012D01*
X29064Y93004D01*
Y93004D01*
X29062Y93003D01*
X29060Y93000D01*
X29058Y92997D01*
X29052Y92988D01*
X29045Y92975D01*
X29038Y92959D01*
X29031Y92940D01*
X29028Y92918D01*
X29026Y92894D01*
Y92893D01*
Y92891D01*
Y92888D01*
X29027Y92883D01*
Y92878D01*
X29028Y92872D01*
X29030Y92858D01*
X29035Y92843D01*
X29041Y92826D01*
X29050Y92809D01*
X29062Y92795D01*
X29064Y92793D01*
X29068Y92789D01*
X29077Y92783D01*
X29087Y92776D01*
X29101Y92769D01*
X29116Y92762D01*
X29134Y92759D01*
X29153Y92757D01*
X29159D01*
X29163Y92758D01*
X29173Y92759D01*
X29185Y92761D01*
X29200Y92766D01*
X29214Y92772D01*
X29229Y92782D01*
X29243Y92795D01*
X29245Y92796D01*
X29249Y92802D01*
X29254Y92810D01*
X29262Y92822D01*
X29268Y92837D01*
X29274Y92855D01*
X29277Y92876D01*
X29279Y92900D01*
Y92901D01*
Y92903D01*
Y92906D01*
X29278Y92911D01*
Y92918D01*
X29277Y92924D01*
X29275Y92939D01*
X29271Y92956D01*
X29264Y92975D01*
X29255Y92992D01*
X29243Y93008D01*
Y93009D01*
X29241Y93010D01*
X29237Y93015D01*
X29229Y93021D01*
X29219Y93029D01*
X29206Y93035D01*
X29191Y93041D01*
X29175Y93046D01*
X29165Y93048D01*
D02*
G37*
G36*
X28699Y92982D02*
X28498Y92696D01*
X28699D01*
Y92982D01*
D02*
G37*
%LPD*%
D81*
X134508Y24172D02*
X146558D01*
Y17722D02*
Y24172D01*
X134508Y17722D02*
X146558D01*
X134508D02*
Y24172D01*
X113753Y187014D02*
X125353D01*
Y176014D02*
Y187014D01*
X113753Y176014D02*
X125353D01*
X113753D02*
Y187014D01*
X113700Y216894D02*
X125300D01*
Y205894D02*
Y216894D01*
X113700Y205894D02*
X125300D01*
X113700D02*
Y216894D01*
X113890Y279733D02*
X125490D01*
Y268733D02*
Y279733D01*
X113890Y268733D02*
X125490D01*
X113890D02*
Y279733D01*
X113962Y249168D02*
X125562D01*
Y238168D02*
Y249168D01*
X113962Y238168D02*
X125562D01*
X113962D02*
Y249168D01*
X113774Y54445D02*
Y65445D01*
Y54445D02*
X125374D01*
Y65445D01*
X113774D02*
X125374D01*
X113844Y93715D02*
X125444D01*
Y82715D02*
Y93715D01*
X113844Y82715D02*
X125444D01*
X113844D02*
Y93715D01*
X114014Y155209D02*
X125614D01*
Y144209D02*
Y155209D01*
X114014Y144209D02*
X125614D01*
X114014D02*
Y155209D01*
X114216Y125904D02*
X125816D01*
Y114904D02*
Y125904D01*
X114216Y114904D02*
X125816D01*
X114216D02*
Y125904D01*
X140675Y2775D02*
Y14375D01*
X131675Y2775D02*
X140675D01*
X131675D02*
Y14375D01*
X140675D01*
X22010Y96959D02*
X33610D01*
Y87959D02*
Y96959D01*
X22010Y87959D02*
X33610D01*
X22010D02*
Y96959D01*
D100*
X9401Y75568D02*
X12449D01*
X9401Y77092D02*
X12449D01*
X9401Y75568D02*
Y77092D01*
X12449Y75568D02*
Y77092D01*
X29338Y101215D02*
Y104263D01*
X30862Y101215D02*
Y104263D01*
X29338D02*
X30862D01*
X29338Y101215D02*
X30862D01*
X3282Y108225D02*
Y111273D01*
X1758Y108225D02*
Y111273D01*
Y108225D02*
X3282D01*
X1758Y111273D02*
X3282D01*
X46511Y86009D02*
X49559D01*
X46511Y84485D02*
X49559D01*
Y86009D01*
X46511Y84485D02*
Y86009D01*
X131822Y83129D02*
X133346D01*
X131822Y80081D02*
X133346D01*
X131822D02*
Y83129D01*
X133346Y80081D02*
Y83129D01*
X131812Y97317D02*
X133336D01*
X131812Y94269D02*
X133336D01*
X131812D02*
Y97317D01*
X133336Y94269D02*
Y97317D01*
X132242Y144313D02*
X133766D01*
X132242Y141265D02*
X133766D01*
X132242D02*
Y144313D01*
X133766Y141265D02*
Y144313D01*
X138870Y161697D02*
Y163221D01*
X141918Y161697D02*
Y163221D01*
X138870Y161697D02*
X141918D01*
X138870Y163221D02*
X141918D01*
X132460Y238202D02*
X133984D01*
X132460Y235154D02*
X133984D01*
X132460D02*
Y238202D01*
X133984Y235154D02*
Y238202D01*
X138532Y241936D02*
Y243460D01*
X141580Y241936D02*
Y243460D01*
X138532Y241936D02*
X141580D01*
X138532Y243460D02*
X141580D01*
X132180Y252712D02*
X133704D01*
X132180Y249664D02*
X133704D01*
X132180D02*
Y252712D01*
X133704Y249664D02*
Y252712D01*
X173269Y24760D02*
X176317D01*
X173269Y23236D02*
X176317D01*
Y24760D01*
X173269Y23236D02*
Y24760D01*
X178495Y28895D02*
Y30419D01*
X181543Y28895D02*
Y30419D01*
X178495Y28895D02*
X181543D01*
X178495Y30419D02*
X181543D01*
X182074Y21294D02*
X183598D01*
X182074Y24342D02*
X183598D01*
Y21294D02*
Y24342D01*
X182074Y21294D02*
Y24342D01*
X187231Y21294D02*
X188755D01*
X187231Y24342D02*
X188755D01*
Y21294D02*
Y24342D01*
X187231Y21294D02*
Y24342D01*
X178489Y19129D02*
X181537D01*
X178489Y20653D02*
X181537D01*
X178489Y19129D02*
Y20653D01*
X181537Y19129D02*
Y20653D01*
X42993Y9577D02*
Y12625D01*
X41469Y9577D02*
Y12625D01*
X42993D01*
X41469Y9577D02*
X42993D01*
X39993D02*
Y12625D01*
X38469Y9577D02*
Y12625D01*
X39993D01*
X38469Y9577D02*
X39993D01*
X36993D02*
Y12625D01*
X35469Y9577D02*
Y12625D01*
X36993D01*
X35469Y9577D02*
X36993D01*
X45433Y40400D02*
X46957D01*
X45433Y43448D02*
X46957D01*
X45433Y40400D02*
Y43448D01*
X46957Y40400D02*
Y43448D01*
X25843Y9552D02*
Y12600D01*
X24319Y9552D02*
Y12600D01*
X25843D01*
X24319Y9552D02*
X25843D01*
X28843D02*
Y12600D01*
X27319Y9552D02*
Y12600D01*
X28843D01*
X27319Y9552D02*
X28843D01*
X22843D02*
Y12600D01*
X21319Y9552D02*
Y12600D01*
X22843D01*
X21319Y9552D02*
X22843D01*
X60347Y34790D02*
Y36314D01*
X57299Y34790D02*
Y36314D01*
X60347D01*
X57299Y34790D02*
X60347D01*
X60350Y26070D02*
Y27594D01*
X57302Y26070D02*
Y27594D01*
X60350D01*
X57302Y26070D02*
X60350D01*
X60046Y17195D02*
Y18719D01*
X56998Y17195D02*
Y18719D01*
X60046D01*
X56998Y17195D02*
X60046D01*
X136063Y181504D02*
X142438D01*
X135013Y179004D02*
X142438D01*
X135013D02*
Y181504D01*
X142438Y179004D02*
Y181504D01*
X135013D02*
X136063D01*
Y195974D02*
X142438D01*
X135013Y193474D02*
X142438D01*
X135013D02*
Y195974D01*
X142438Y193474D02*
Y195974D01*
X135013D02*
X136063D01*
X136840Y211403D02*
X143215D01*
X135790Y208903D02*
X143215D01*
X135790D02*
Y211403D01*
X143215Y208903D02*
Y211403D01*
X135790D02*
X136840D01*
X136870Y225724D02*
X143245D01*
X135820Y223224D02*
X143245D01*
X135820D02*
Y225724D01*
X143245Y223224D02*
Y225724D01*
X135820D02*
X136870D01*
X137170Y273163D02*
X143545D01*
X136120Y270663D02*
X143545D01*
X136120D02*
Y273163D01*
X143545Y270663D02*
Y273163D01*
X136120D02*
X137170D01*
Y287133D02*
X143545D01*
X136120Y284633D02*
X143545D01*
X136120D02*
Y287133D01*
X143545Y284633D02*
Y287133D01*
X136120D02*
X137170D01*
X137356Y243948D02*
X143731D01*
X136306Y241448D02*
X143731D01*
X136306D02*
Y243948D01*
X143731Y241448D02*
Y243948D01*
X136306D02*
X137356D01*
Y258206D02*
X143731D01*
X136306Y255706D02*
X143731D01*
X136306D02*
Y258206D01*
X143731Y255706D02*
Y258206D01*
X136306D02*
X137356D01*
X107460Y182403D02*
X108984D01*
X107460Y179355D02*
X108984D01*
Y182403D01*
X107460Y179355D02*
Y182403D01*
X109341D02*
X110865D01*
X109341Y179355D02*
X110865D01*
Y182403D01*
X109341Y179355D02*
Y182403D01*
X107553Y212288D02*
X109077D01*
X107553Y209240D02*
X109077D01*
Y212288D01*
X107553Y209240D02*
Y212288D01*
X109333D02*
X110857D01*
X109333Y209240D02*
X110857D01*
Y212288D01*
X109333Y209240D02*
Y212288D01*
X107905Y275127D02*
X109429D01*
X107905Y272079D02*
X109429D01*
Y275127D01*
X107905Y272079D02*
Y275127D01*
X109688D02*
X111212D01*
X109688Y272079D02*
X111212D01*
Y275127D01*
X109688Y272079D02*
Y275127D01*
X107711Y244546D02*
X109235D01*
X107711Y241498D02*
X109235D01*
Y244546D01*
X107711Y241498D02*
Y244546D01*
X109501Y244536D02*
X111025D01*
X109501Y241488D02*
X111025D01*
Y244536D01*
X109501Y241488D02*
Y244536D01*
X137239Y181016D02*
X140287D01*
X137239Y179492D02*
X140287D01*
Y181016D01*
X137239Y179492D02*
Y181016D01*
X131861Y176178D02*
X133385D01*
X131861Y173130D02*
X133385D01*
X131861D02*
Y176178D01*
X133385Y173130D02*
Y176178D01*
X137239Y195486D02*
X140287D01*
X137239Y193962D02*
X140287D01*
Y195486D01*
X137239Y193962D02*
Y195486D01*
X133355Y187530D02*
Y190578D01*
X131831Y187530D02*
Y190578D01*
Y187530D02*
X133355D01*
X131831Y190578D02*
X133355D01*
X138016Y210915D02*
X141064D01*
X138016Y209391D02*
X141064D01*
Y210915D01*
X138016Y209391D02*
Y210915D01*
X132088Y205638D02*
X133612D01*
X132088Y202590D02*
X133612D01*
X132088D02*
Y205638D01*
X133612Y202590D02*
Y205638D01*
X138046Y223712D02*
Y225236D01*
X141094Y223712D02*
Y225236D01*
X138046Y223712D02*
X141094D01*
X138046Y225236D02*
X141094D01*
X133572Y216960D02*
Y220008D01*
X132048Y216960D02*
Y220008D01*
Y216960D02*
X133572D01*
X132048Y220008D02*
X133572D01*
X138346Y272675D02*
X141394D01*
X138346Y271151D02*
X141394D01*
Y272675D01*
X138346Y271151D02*
Y272675D01*
X133532Y264359D02*
Y267407D01*
X132008Y264359D02*
Y267407D01*
Y264359D02*
X133532D01*
X132008Y267407D02*
X133532D01*
X138346Y285121D02*
Y286645D01*
X141394Y285121D02*
Y286645D01*
X138346Y285121D02*
X141394D01*
X138346Y286645D02*
X141394D01*
X133442Y278819D02*
Y281867D01*
X131918Y278819D02*
Y281867D01*
Y278819D02*
X133442D01*
X131918Y281867D02*
X133442D01*
X138532Y257718D02*
X141580D01*
X138532Y256194D02*
X141580D01*
Y257718D01*
X138532Y256194D02*
Y257718D01*
X97165Y31301D02*
X98689D01*
X97165Y34349D02*
X98689D01*
Y31301D02*
Y34349D01*
X97165Y31301D02*
Y34349D01*
X116963Y30726D02*
X118487D01*
X116963Y33774D02*
X118487D01*
Y30726D02*
Y33774D01*
X116963Y30726D02*
Y33774D01*
X136874Y58925D02*
X143249D01*
X135824Y56425D02*
X143249D01*
X135824D02*
Y58925D01*
X143249Y56425D02*
Y58925D01*
X135824D02*
X136874D01*
X135824Y72939D02*
X136874D01*
X143249Y70439D02*
Y72939D01*
X135824Y70439D02*
Y72939D01*
Y70439D02*
X143249D01*
X136874Y72939D02*
X143249D01*
X136714Y88935D02*
X143089D01*
X135664Y86435D02*
X143089D01*
X135664D02*
Y88935D01*
X143089Y86435D02*
Y88935D01*
X135664D02*
X136714D01*
Y102675D02*
X143089D01*
X135664Y100175D02*
X143089D01*
X135664D02*
Y102675D01*
X143089Y100175D02*
Y102675D01*
X135664D02*
X136714D01*
X137474Y149809D02*
X143849D01*
X136424Y147309D02*
X143849D01*
X136424D02*
Y149809D01*
X143849Y147309D02*
Y149809D01*
X136424D02*
X137474D01*
X137694Y163709D02*
X144069D01*
X136644Y161209D02*
X144069D01*
X136644D02*
Y163709D01*
X144069Y161209D02*
Y163709D01*
X136644D02*
X137694D01*
X136856Y120699D02*
X143231D01*
X135806Y118199D02*
X143231D01*
X135806D02*
Y120699D01*
X143231Y118199D02*
Y120699D01*
X135806D02*
X136856D01*
Y134589D02*
X143231D01*
X135806Y132089D02*
X143231D01*
X135806D02*
Y134589D01*
X143231Y132089D02*
Y134589D01*
X135806D02*
X136856D01*
X107578Y60729D02*
X109102D01*
X107578Y57681D02*
X109102D01*
Y60729D01*
X107578Y57681D02*
Y60729D01*
X109301Y60729D02*
X110825D01*
X109301Y57681D02*
X110825D01*
Y60729D01*
X109301Y57681D02*
Y60729D01*
X107722Y89079D02*
X109246D01*
X107722Y86031D02*
X109246D01*
Y89079D01*
X107722Y86031D02*
Y89079D01*
X109552Y89099D02*
X111076D01*
X109552Y86051D02*
X111076D01*
Y89099D01*
X109552Y86051D02*
Y89099D01*
X108172Y150573D02*
X109696D01*
X108172Y147525D02*
X109696D01*
Y150573D01*
X108172Y147525D02*
Y150573D01*
X109892D02*
X111416D01*
X109892Y147525D02*
X111416D01*
Y150573D01*
X109892Y147525D02*
Y150573D01*
X108303Y121348D02*
X109827D01*
X108303Y118300D02*
X109827D01*
Y121348D01*
X108303Y118300D02*
Y121348D01*
X110106D02*
X111630D01*
X110106Y118300D02*
X111630D01*
Y121348D01*
X110106Y118300D02*
Y121348D01*
X138050Y58437D02*
X141098D01*
X138050Y56913D02*
X141098D01*
Y58437D01*
X138050Y56913D02*
Y58437D01*
X133536Y50391D02*
Y53439D01*
X132012Y50391D02*
Y53439D01*
Y50391D02*
X133536D01*
X132012Y53439D02*
X133536D01*
X138050Y70927D02*
Y72451D01*
X141098Y70927D02*
Y72451D01*
X138050Y70927D02*
X141098D01*
X138050Y72451D02*
X141098D01*
X131776Y68033D02*
X133300D01*
X131776Y64985D02*
X133300D01*
X131776D02*
Y68033D01*
X133300Y64985D02*
Y68033D01*
X137890Y86923D02*
Y88447D01*
X140938Y86923D02*
Y88447D01*
X137890Y86923D02*
X140938D01*
X137890Y88447D02*
X140938D01*
X137890Y100663D02*
Y102187D01*
X140938Y100663D02*
Y102187D01*
X137890Y100663D02*
X140938D01*
X137890Y102187D02*
X140938D01*
X138650Y149321D02*
X141698D01*
X138650Y147797D02*
X141698D01*
Y149321D01*
X138650Y147797D02*
Y149321D01*
X133826Y155315D02*
Y158363D01*
X132302Y155315D02*
Y158363D01*
Y155315D02*
X133826D01*
X132302Y158363D02*
X133826D01*
X138032Y118687D02*
Y120211D01*
X141080Y118687D02*
Y120211D01*
X138032Y118687D02*
X141080D01*
X138032Y120211D02*
X141080D01*
X133688Y112005D02*
Y115053D01*
X132164Y112005D02*
Y115053D01*
Y112005D02*
X133688D01*
X132164Y115053D02*
X133688D01*
X138032Y132577D02*
Y134101D01*
X141080Y132577D02*
Y134101D01*
X138032Y132577D02*
X141080D01*
X138032Y134101D02*
X141080D01*
X133818Y126035D02*
Y129083D01*
X132294Y126035D02*
Y129083D01*
Y126035D02*
X133818D01*
X132294Y129083D02*
X133818D01*
X135974Y17087D02*
X139022D01*
X135974Y15563D02*
X139022D01*
Y17087D01*
X135974Y15563D02*
Y17087D01*
X37508Y89935D02*
Y92983D01*
X39032Y89935D02*
Y92983D01*
X37508D02*
X39032D01*
X37508Y89935D02*
X39032D01*
X28766Y89301D02*
X31814D01*
X28766Y87777D02*
X31814D01*
Y89301D01*
X28766Y87777D02*
Y89301D01*
X40106Y84577D02*
Y86101D01*
X43154Y84577D02*
Y86101D01*
X40106Y84577D02*
X43154D01*
X40106Y86101D02*
X43154D01*
X7529Y103929D02*
Y105453D01*
X4481Y103929D02*
Y105453D01*
X7529D01*
X4481Y103929D02*
X7529D01*
X11824Y91540D02*
Y93064D01*
X8776Y91540D02*
Y93064D01*
X11824D01*
X8776Y91540D02*
X11824D01*
X23548Y86443D02*
X25072D01*
X23548Y83395D02*
X25072D01*
X23548D02*
Y86443D01*
X25072Y83395D02*
Y86443D01*
X11433Y76563D02*
X11550Y76680D01*
X11783D01*
X11900Y76563D01*
Y76097D01*
X11783Y75980D01*
X11550D01*
X11433Y76097D01*
X10850Y75980D02*
Y76680D01*
X11200Y76330D01*
X10734D01*
X30333Y102231D02*
X30450Y102114D01*
Y101881D01*
X30333Y101764D01*
X29867D01*
X29750Y101881D01*
Y102114D01*
X29867Y102231D01*
X29750Y102814D02*
X30450D01*
X30100Y102464D01*
Y102930D01*
X30333Y103164D02*
X30450Y103280D01*
Y103513D01*
X30333Y103630D01*
X29867D01*
X29750Y103513D01*
Y103280D01*
X29867Y103164D01*
X30333D01*
X2287Y110257D02*
X2170Y110374D01*
Y110607D01*
X2287Y110724D01*
X2753D01*
X2870Y110607D01*
Y110374D01*
X2753Y110257D01*
X2870Y109674D02*
X2170D01*
X2520Y110024D01*
Y109558D01*
X2870Y109324D02*
Y109091D01*
Y109208D01*
X2170D01*
X2287Y109324D01*
X47527Y85014D02*
X47410Y84897D01*
X47177D01*
X47060Y85014D01*
Y85480D01*
X47177Y85597D01*
X47410D01*
X47527Y85480D01*
X48110Y85597D02*
Y84897D01*
X47760Y85247D01*
X48227D01*
X48926Y84897D02*
X48460D01*
Y85247D01*
X48693Y85131D01*
X48810D01*
X48926Y85247D01*
Y85480D01*
X48810Y85597D01*
X48576D01*
X48460Y85480D01*
X132351Y82114D02*
X132234Y82230D01*
Y82464D01*
X132351Y82580D01*
X132817D01*
X132934Y82464D01*
Y82230D01*
X132817Y82114D01*
X132934Y81881D02*
Y81647D01*
Y81764D01*
X132234D01*
X132351Y81881D01*
Y81297D02*
X132234Y81181D01*
Y80948D01*
X132351Y80831D01*
X132467D01*
X132584Y80948D01*
Y81064D01*
Y80948D01*
X132701Y80831D01*
X132817D01*
X132934Y80948D01*
Y81181D01*
X132817Y81297D01*
X132234Y80131D02*
X132351Y80364D01*
X132584Y80598D01*
X132817D01*
X132934Y80481D01*
Y80248D01*
X132817Y80131D01*
X132701D01*
X132584Y80248D01*
Y80598D01*
X132341Y96302D02*
X132224Y96418D01*
Y96652D01*
X132341Y96768D01*
X132808D01*
X132924Y96652D01*
Y96418D01*
X132808Y96302D01*
X132924Y96069D02*
Y95835D01*
Y95952D01*
X132224D01*
X132341Y96069D01*
X132924Y95485D02*
Y95252D01*
Y95369D01*
X132224D01*
X132341Y95485D01*
Y94902D02*
X132224Y94786D01*
Y94552D01*
X132341Y94436D01*
X132458D01*
X132574Y94552D01*
Y94669D01*
Y94552D01*
X132691Y94436D01*
X132808D01*
X132924Y94552D01*
Y94786D01*
X132808Y94902D01*
X132771Y143297D02*
X132654Y143414D01*
Y143647D01*
X132771Y143764D01*
X133237D01*
X133354Y143647D01*
Y143414D01*
X133237Y143297D01*
X133354Y143064D02*
Y142831D01*
Y142948D01*
X132654D01*
X132771Y143064D01*
Y142481D02*
X132654Y142364D01*
Y142131D01*
X132771Y142015D01*
X133237D01*
X133354Y142131D01*
Y142364D01*
X133237Y142481D01*
X132771D01*
X133354Y141781D02*
Y141548D01*
Y141665D01*
X132654D01*
X132771Y141781D01*
X139885Y162226D02*
X139769Y162109D01*
X139535D01*
X139419Y162226D01*
Y162692D01*
X139535Y162809D01*
X139769D01*
X139885Y162692D01*
X140119D02*
X140235Y162809D01*
X140468D01*
X140585Y162692D01*
Y162226D01*
X140468Y162109D01*
X140235D01*
X140119Y162226D01*
Y162342D01*
X140235Y162459D01*
X140585D01*
X140818Y162226D02*
X140935Y162109D01*
X141168D01*
X141285Y162226D01*
Y162342D01*
X141168Y162459D01*
X141052D01*
X141168D01*
X141285Y162576D01*
Y162692D01*
X141168Y162809D01*
X140935D01*
X140818Y162692D01*
X132989Y237186D02*
X132872Y237303D01*
Y237536D01*
X132989Y237653D01*
X133456D01*
X133572Y237536D01*
Y237303D01*
X133456Y237186D01*
X132872Y236953D02*
Y236486D01*
X132989D01*
X133456Y236953D01*
X133572D01*
X132989Y236253D02*
X132872Y236136D01*
Y235903D01*
X132989Y235786D01*
X133456D01*
X133572Y235903D01*
Y236136D01*
X133456Y236253D01*
X132989D01*
X139548Y242464D02*
X139431Y242348D01*
X139198D01*
X139081Y242464D01*
Y242931D01*
X139198Y243048D01*
X139431D01*
X139548Y242931D01*
X139781Y242464D02*
X139898Y242348D01*
X140131D01*
X140248Y242464D01*
Y242581D01*
X140131Y242698D01*
X140248Y242814D01*
Y242931D01*
X140131Y243048D01*
X139898D01*
X139781Y242931D01*
Y242814D01*
X139898Y242698D01*
X139781Y242581D01*
Y242464D01*
X139898Y242698D02*
X140131D01*
X140947Y243048D02*
X140481D01*
X140947Y242581D01*
Y242464D01*
X140831Y242348D01*
X140597D01*
X140481Y242464D01*
X132709Y251696D02*
X132592Y251813D01*
Y252046D01*
X132709Y252163D01*
X133176D01*
X133292Y252046D01*
Y251813D01*
X133176Y251696D01*
X132592Y250996D02*
Y251463D01*
X132942D01*
X132826Y251229D01*
Y251113D01*
X132942Y250996D01*
X133176D01*
X133292Y251113D01*
Y251346D01*
X133176Y251463D01*
X132592Y250763D02*
Y250296D01*
X132709D01*
X133176Y250763D01*
X133292D01*
X174284Y23765D02*
X174168Y23648D01*
X173935D01*
X173818Y23765D01*
Y24232D01*
X173935Y24348D01*
X174168D01*
X174284Y24232D01*
X174984Y24348D02*
X174518D01*
X174984Y23882D01*
Y23765D01*
X174868Y23648D01*
X174634D01*
X174518Y23765D01*
X175217Y24232D02*
X175334Y24348D01*
X175567D01*
X175684Y24232D01*
Y23765D01*
X175567Y23648D01*
X175334D01*
X175217Y23765D01*
Y23882D01*
X175334Y23998D01*
X175684D01*
X179511Y29424D02*
X179394Y29308D01*
X179161D01*
X179044Y29424D01*
Y29891D01*
X179161Y30007D01*
X179394D01*
X179511Y29891D01*
X180210Y30007D02*
X179744D01*
X180210Y29541D01*
Y29424D01*
X180094Y29308D01*
X179860D01*
X179744Y29424D01*
X180444D02*
X180560Y29308D01*
X180793D01*
X180910Y29424D01*
Y29541D01*
X180793Y29657D01*
X180910Y29774D01*
Y29891D01*
X180793Y30007D01*
X180560D01*
X180444Y29891D01*
Y29774D01*
X180560Y29657D01*
X180444Y29541D01*
Y29424D01*
X180560Y29657D02*
X180793D01*
X183069Y22310D02*
X183186Y22193D01*
Y21960D01*
X183069Y21843D01*
X182602D01*
X182486Y21960D01*
Y22193D01*
X182602Y22310D01*
X182486Y23009D02*
Y22543D01*
X182952Y23009D01*
X183069D01*
X183186Y22893D01*
Y22660D01*
X183069Y22543D01*
X183186Y23243D02*
Y23709D01*
X183069D01*
X182602Y23243D01*
X182486D01*
X188226Y22310D02*
X188343Y22193D01*
Y21960D01*
X188226Y21843D01*
X187760D01*
X187643Y21960D01*
Y22193D01*
X187760Y22310D01*
X187643Y23009D02*
Y22543D01*
X188109Y23009D01*
X188226D01*
X188343Y22893D01*
Y22660D01*
X188226Y22543D01*
X188343Y23709D02*
X188226Y23476D01*
X187993Y23243D01*
X187760D01*
X187643Y23359D01*
Y23593D01*
X187760Y23709D01*
X187876D01*
X187993Y23593D01*
Y23243D01*
X180521Y20124D02*
X180638Y20241D01*
X180871D01*
X180988Y20124D01*
Y19657D01*
X180871Y19541D01*
X180638D01*
X180521Y19657D01*
X179822Y19541D02*
X180288D01*
X179822Y20007D01*
Y20124D01*
X179938Y20241D01*
X180171D01*
X180288Y20124D01*
X179122Y20241D02*
X179588D01*
Y19891D01*
X179355Y20007D01*
X179238D01*
X179122Y19891D01*
Y19657D01*
X179238Y19541D01*
X179472D01*
X179588Y19657D01*
X42581Y10126D02*
X41882D01*
Y10476D01*
X41998Y10593D01*
X42231D01*
X42348Y10476D01*
Y10126D01*
Y10359D02*
X42581Y10593D01*
Y10826D02*
Y11059D01*
Y10942D01*
X41882D01*
X41998Y10826D01*
Y11409D02*
X41882Y11526D01*
Y11759D01*
X41998Y11875D01*
X42465D01*
X42581Y11759D01*
Y11526D01*
X42465Y11409D01*
X41998D01*
X39581Y10126D02*
X38882D01*
Y10476D01*
X38998Y10593D01*
X39231D01*
X39348Y10476D01*
Y10126D01*
Y10359D02*
X39581Y10593D01*
Y10826D02*
Y11059D01*
Y10942D01*
X38882D01*
X38998Y10826D01*
X39581Y11409D02*
Y11642D01*
Y11526D01*
X38882D01*
X38998Y11409D01*
X36581Y10126D02*
X35882D01*
Y10476D01*
X35998Y10593D01*
X36231D01*
X36348Y10476D01*
Y10126D01*
Y10359D02*
X36581Y10593D01*
Y10826D02*
Y11059D01*
Y10942D01*
X35882D01*
X35998Y10826D01*
X36581Y11875D02*
Y11409D01*
X36115Y11875D01*
X35998D01*
X35882Y11759D01*
Y11526D01*
X35998Y11409D01*
X46545Y40949D02*
X45845D01*
Y41298D01*
X45962Y41415D01*
X46195D01*
X46312Y41298D01*
Y40949D01*
Y41182D02*
X46545Y41415D01*
X45845Y42115D02*
Y41648D01*
X46195D01*
X46079Y41882D01*
Y41998D01*
X46195Y42115D01*
X46429D01*
X46545Y41998D01*
Y41765D01*
X46429Y41648D01*
X45962Y42348D02*
X45845Y42465D01*
Y42698D01*
X45962Y42815D01*
X46079D01*
X46195Y42698D01*
X46312Y42815D01*
X46429D01*
X46545Y42698D01*
Y42465D01*
X46429Y42348D01*
X46312D01*
X46195Y42465D01*
X46079Y42348D01*
X45962D01*
X46195Y42465D02*
Y42698D01*
X25431Y10101D02*
X24732D01*
Y10451D01*
X24848Y10568D01*
X25082D01*
X25198Y10451D01*
Y10101D01*
Y10334D02*
X25431Y10568D01*
X24848Y10801D02*
X24732Y10917D01*
Y11151D01*
X24848Y11267D01*
X24965D01*
X25082Y11151D01*
X25198Y11267D01*
X25315D01*
X25431Y11151D01*
Y10917D01*
X25315Y10801D01*
X25198D01*
X25082Y10917D01*
X24965Y10801D01*
X24848D01*
X25082Y10917D02*
Y11151D01*
X28431Y10101D02*
X27732D01*
Y10451D01*
X27848Y10568D01*
X28082D01*
X28198Y10451D01*
Y10101D01*
Y10334D02*
X28431Y10568D01*
X27732Y10801D02*
Y11267D01*
X27848D01*
X28315Y10801D01*
X28431D01*
X22431Y10101D02*
X21732D01*
Y10451D01*
X21848Y10568D01*
X22082D01*
X22198Y10451D01*
Y10101D01*
Y10334D02*
X22431Y10568D01*
X22315Y10801D02*
X22431Y10917D01*
Y11151D01*
X22315Y11267D01*
X21848D01*
X21732Y11151D01*
Y10917D01*
X21848Y10801D01*
X21965D01*
X22082Y10917D01*
Y11267D01*
X59332Y35785D02*
X59448Y35902D01*
X59681D01*
X59798Y35785D01*
Y35319D01*
X59681Y35202D01*
X59448D01*
X59332Y35319D01*
X59098Y35785D02*
X58982Y35902D01*
X58748D01*
X58632Y35785D01*
Y35668D01*
X58748Y35552D01*
X58865D01*
X58748D01*
X58632Y35435D01*
Y35319D01*
X58748Y35202D01*
X58982D01*
X59098Y35319D01*
X59335Y27065D02*
X59451Y27182D01*
X59685D01*
X59801Y27065D01*
Y26598D01*
X59685Y26482D01*
X59451D01*
X59335Y26598D01*
X58635Y26482D02*
X59101D01*
X58635Y26948D01*
Y27065D01*
X58752Y27182D01*
X58985D01*
X59101Y27065D01*
X59030Y18190D02*
X59147Y18307D01*
X59380D01*
X59497Y18190D01*
Y17724D01*
X59380Y17607D01*
X59147D01*
X59030Y17724D01*
X58797Y17607D02*
X58563D01*
X58680D01*
Y18307D01*
X58797Y18190D01*
X139713Y179904D02*
Y180371D01*
X139480Y180604D01*
X139246Y180371D01*
Y179904D01*
X139013D02*
Y180604D01*
X138663D01*
X138546Y180487D01*
Y180021D01*
X138663Y179904D01*
X139013D01*
X138313Y180021D02*
X138197Y179904D01*
X137963D01*
X137847Y180021D01*
Y180137D01*
X137963Y180254D01*
X138080D01*
X137963D01*
X137847Y180371D01*
Y180487D01*
X137963Y180604D01*
X138197D01*
X138313Y180487D01*
X137147Y179904D02*
X137613D01*
Y180254D01*
X137380Y180137D01*
X137264D01*
X137147Y180254D01*
Y180487D01*
X137264Y180604D01*
X137497D01*
X137613Y180487D01*
X139713Y194374D02*
Y194841D01*
X139480Y195074D01*
X139246Y194841D01*
Y194374D01*
X139013D02*
Y195074D01*
X138663D01*
X138546Y194957D01*
Y194491D01*
X138663Y194374D01*
X139013D01*
X138313Y194491D02*
X138197Y194374D01*
X137963D01*
X137847Y194491D01*
Y194607D01*
X137963Y194724D01*
X138080D01*
X137963D01*
X137847Y194841D01*
Y194957D01*
X137963Y195074D01*
X138197D01*
X138313Y194957D01*
X137613Y195074D02*
X137380D01*
X137497D01*
Y194374D01*
X137613Y194491D01*
X140490Y209803D02*
Y210269D01*
X140257Y210503D01*
X140024Y210269D01*
Y209803D01*
X139790D02*
Y210503D01*
X139440D01*
X139324Y210386D01*
Y209920D01*
X139440Y209803D01*
X139790D01*
X138624Y210503D02*
X139090D01*
X138624Y210036D01*
Y209920D01*
X138741Y209803D01*
X138974D01*
X139090Y209920D01*
X138391Y209803D02*
X137924D01*
Y209920D01*
X138391Y210386D01*
Y210503D01*
X140520Y224124D02*
Y224590D01*
X140287Y224824D01*
X140054Y224590D01*
Y224124D01*
X139820D02*
Y224824D01*
X139470D01*
X139354Y224707D01*
Y224240D01*
X139470Y224124D01*
X139820D01*
X138654Y224824D02*
X139120D01*
X138654Y224357D01*
Y224240D01*
X138771Y224124D01*
X139004D01*
X139120Y224240D01*
X138421D02*
X138304Y224124D01*
X138071D01*
X137954Y224240D01*
Y224357D01*
X138071Y224474D01*
X138187D01*
X138071D01*
X137954Y224590D01*
Y224707D01*
X138071Y224824D01*
X138304D01*
X138421Y224707D01*
X140820Y271563D02*
Y272029D01*
X140587Y272263D01*
X140354Y272029D01*
Y271563D01*
X140120D02*
Y272263D01*
X139770D01*
X139654Y272146D01*
Y271679D01*
X139770Y271563D01*
X140120D01*
X139420Y272263D02*
X139187D01*
X139304D01*
Y271563D01*
X139420Y271679D01*
X138837Y271563D02*
X138371D01*
Y271679D01*
X138837Y272146D01*
Y272263D01*
X140820Y285533D02*
Y285999D01*
X140587Y286233D01*
X140354Y285999D01*
Y285533D01*
X140120D02*
Y286233D01*
X139770D01*
X139654Y286116D01*
Y285649D01*
X139770Y285533D01*
X140120D01*
X139420Y286233D02*
X139187D01*
X139304D01*
Y285533D01*
X139420Y285649D01*
X138837D02*
X138721Y285533D01*
X138487D01*
X138371Y285649D01*
Y285766D01*
X138487Y285883D01*
X138604D01*
X138487D01*
X138371Y285999D01*
Y286116D01*
X138487Y286233D01*
X138721D01*
X138837Y286116D01*
X141006Y242348D02*
Y242814D01*
X140773Y243048D01*
X140540Y242814D01*
Y242348D01*
X140307D02*
Y243048D01*
X139957D01*
X139840Y242931D01*
Y242464D01*
X139957Y242348D01*
X140307D01*
X139607Y242464D02*
X139490Y242348D01*
X139257D01*
X139140Y242464D01*
Y242581D01*
X139257Y242698D01*
X139140Y242814D01*
Y242931D01*
X139257Y243048D01*
X139490D01*
X139607Y242931D01*
Y242814D01*
X139490Y242698D01*
X139607Y242581D01*
Y242464D01*
X139490Y242698D02*
X139257D01*
X141006Y256606D02*
Y257072D01*
X140773Y257306D01*
X140540Y257072D01*
Y256606D01*
X140307D02*
Y257306D01*
X139957D01*
X139840Y257189D01*
Y256722D01*
X139957Y256606D01*
X140307D01*
X139257Y257306D02*
Y256606D01*
X139607Y256956D01*
X139140D01*
X107872Y181854D02*
X108572D01*
Y181504D01*
X108455Y181387D01*
X108222D01*
X108106Y181504D01*
Y181854D01*
Y181621D02*
X107872Y181387D01*
Y181154D02*
Y180921D01*
Y181037D01*
X108572D01*
X108455Y181154D01*
X108572Y180571D02*
Y180104D01*
X108455D01*
X107989Y180571D01*
X107872D01*
X108572Y179405D02*
Y179871D01*
X108222D01*
X108339Y179638D01*
Y179521D01*
X108222Y179405D01*
X107989D01*
X107872Y179521D01*
Y179754D01*
X107989Y179871D01*
X109753Y181854D02*
X110453D01*
Y181504D01*
X110336Y181387D01*
X110103D01*
X109986Y181504D01*
Y181854D01*
Y181621D02*
X109753Y181387D01*
Y181154D02*
Y180921D01*
Y181037D01*
X110453D01*
X110336Y181154D01*
X110453Y180571D02*
Y180104D01*
X110336D01*
X109869Y180571D01*
X109753D01*
Y179521D02*
X110453D01*
X110103Y179871D01*
Y179405D01*
X107965Y211739D02*
X108665D01*
Y211389D01*
X108548Y211272D01*
X108315D01*
X108198Y211389D01*
Y211739D01*
Y211505D02*
X107965Y211272D01*
Y211039D02*
Y210806D01*
Y210922D01*
X108665D01*
X108548Y211039D01*
X107965Y210106D02*
X108665D01*
X108315Y210456D01*
Y209989D01*
X108665Y209756D02*
Y209289D01*
X108548D01*
X108082Y209756D01*
X107965D01*
X109745Y211739D02*
X110445D01*
Y211389D01*
X110328Y211272D01*
X110095D01*
X109978Y211389D01*
Y211739D01*
Y211505D02*
X109745Y211272D01*
Y211039D02*
Y210806D01*
Y210922D01*
X110445D01*
X110328Y211039D01*
X109745Y210106D02*
X110445D01*
X110095Y210456D01*
Y209989D01*
X110445Y209289D02*
X110328Y209523D01*
X110095Y209756D01*
X109862D01*
X109745Y209639D01*
Y209406D01*
X109862Y209289D01*
X109978D01*
X110095Y209406D01*
Y209756D01*
X108317Y274578D02*
X109017D01*
Y274228D01*
X108900Y274111D01*
X108667D01*
X108551Y274228D01*
Y274578D01*
Y274344D02*
X108317Y274111D01*
Y273878D02*
Y273645D01*
Y273761D01*
X109017D01*
X108900Y273878D01*
Y273295D02*
X109017Y273178D01*
Y272945D01*
X108900Y272828D01*
X108434D01*
X108317Y272945D01*
Y273178D01*
X108434Y273295D01*
X108900D01*
Y272595D02*
X109017Y272478D01*
Y272245D01*
X108900Y272128D01*
X108784D01*
X108667Y272245D01*
X108551Y272128D01*
X108434D01*
X108317Y272245D01*
Y272478D01*
X108434Y272595D01*
X108551D01*
X108667Y272478D01*
X108784Y272595D01*
X108900D01*
X108667Y272478D02*
Y272245D01*
X110100Y274578D02*
X110800D01*
Y274228D01*
X110683Y274111D01*
X110450D01*
X110333Y274228D01*
Y274578D01*
Y274344D02*
X110100Y274111D01*
Y273878D02*
Y273645D01*
Y273761D01*
X110800D01*
X110683Y273878D01*
Y273295D02*
X110800Y273178D01*
Y272945D01*
X110683Y272828D01*
X110216D01*
X110100Y272945D01*
Y273178D01*
X110216Y273295D01*
X110683D01*
X110800Y272595D02*
Y272128D01*
X110683D01*
X110216Y272595D01*
X110100D01*
X108123Y243997D02*
X108823D01*
Y243647D01*
X108706Y243530D01*
X108473D01*
X108356Y243647D01*
Y243997D01*
Y243763D02*
X108123Y243530D01*
X108823Y243297D02*
Y242830D01*
X108706D01*
X108240Y243297D01*
X108123D01*
X108706Y242597D02*
X108823Y242480D01*
Y242247D01*
X108706Y242130D01*
X108590D01*
X108473Y242247D01*
Y242364D01*
Y242247D01*
X108356Y242130D01*
X108240D01*
X108123Y242247D01*
Y242480D01*
X108240Y242597D01*
X109913Y243987D02*
X110613D01*
Y243637D01*
X110496Y243520D01*
X110263D01*
X110146Y243637D01*
Y243987D01*
Y243753D02*
X109913Y243520D01*
X110613Y243287D02*
Y242820D01*
X110496D01*
X110029Y243287D01*
X109913D01*
Y242121D02*
Y242587D01*
X110379Y242121D01*
X110496D01*
X110613Y242237D01*
Y242471D01*
X110496Y242587D01*
X138254Y180021D02*
X138138Y179904D01*
X137904D01*
X137788Y180021D01*
Y180487D01*
X137904Y180604D01*
X138138D01*
X138254Y180487D01*
X138488Y180604D02*
X138721D01*
X138604D01*
Y179904D01*
X138488Y180021D01*
X139071Y179904D02*
X139537D01*
Y180021D01*
X139071Y180487D01*
Y180604D01*
X140120D02*
Y179904D01*
X139770Y180254D01*
X140237D01*
X132390Y175162D02*
X132273Y175279D01*
Y175512D01*
X132390Y175629D01*
X132856D01*
X132973Y175512D01*
Y175279D01*
X132856Y175162D01*
X132973Y174929D02*
Y174696D01*
Y174812D01*
X132273D01*
X132390Y174929D01*
X132273Y173879D02*
X132390Y174113D01*
X132623Y174346D01*
X132856D01*
X132973Y174229D01*
Y173996D01*
X132856Y173879D01*
X132740D01*
X132623Y173996D01*
Y174346D01*
X132856Y173646D02*
X132973Y173529D01*
Y173296D01*
X132856Y173180D01*
X132390D01*
X132273Y173296D01*
Y173529D01*
X132390Y173646D01*
X132506D01*
X132623Y173529D01*
Y173180D01*
X138254Y194491D02*
X138138Y194374D01*
X137904D01*
X137788Y194491D01*
Y194957D01*
X137904Y195074D01*
X138138D01*
X138254Y194957D01*
X138488Y195074D02*
X138721D01*
X138604D01*
Y194374D01*
X138488Y194491D01*
X139537Y194374D02*
X139071D01*
Y194724D01*
X139304Y194607D01*
X139421D01*
X139537Y194724D01*
Y194957D01*
X139421Y195074D01*
X139187D01*
X139071Y194957D01*
X140120Y195074D02*
Y194374D01*
X139770Y194724D01*
X140237D01*
X132360Y189562D02*
X132243Y189679D01*
Y189912D01*
X132360Y190029D01*
X132826D01*
X132943Y189912D01*
Y189679D01*
X132826Y189562D01*
X132943Y189329D02*
Y189096D01*
Y189212D01*
X132243D01*
X132360Y189329D01*
X132943Y188396D02*
X132243D01*
X132593Y188746D01*
Y188279D01*
X132826Y188046D02*
X132943Y187929D01*
Y187696D01*
X132826Y187580D01*
X132360D01*
X132243Y187696D01*
Y187929D01*
X132360Y188046D01*
X132476D01*
X132593Y187929D01*
Y187580D01*
X139032Y209920D02*
X138915Y209803D01*
X138682D01*
X138565Y209920D01*
Y210386D01*
X138682Y210503D01*
X138915D01*
X139032Y210386D01*
X139265Y210503D02*
X139498D01*
X139381D01*
Y209803D01*
X139265Y209920D01*
X140198Y210503D02*
Y209803D01*
X139848Y210153D01*
X140314D01*
X140548Y209920D02*
X140664Y209803D01*
X140898D01*
X141014Y209920D01*
Y210036D01*
X140898Y210153D01*
X140781D01*
X140898D01*
X141014Y210269D01*
Y210386D01*
X140898Y210503D01*
X140664D01*
X140548Y210386D01*
X132617Y204622D02*
X132500Y204739D01*
Y204972D01*
X132617Y205089D01*
X133083D01*
X133200Y204972D01*
Y204739D01*
X133083Y204622D01*
X133200Y204389D02*
Y204155D01*
Y204272D01*
X132500D01*
X132617Y204389D01*
Y203806D02*
X132500Y203689D01*
Y203456D01*
X132617Y203339D01*
X132734D01*
X132850Y203456D01*
Y203572D01*
Y203456D01*
X132967Y203339D01*
X133083D01*
X133200Y203456D01*
Y203689D01*
X133083Y203806D01*
X132617Y203106D02*
X132500Y202989D01*
Y202756D01*
X132617Y202639D01*
X132734D01*
X132850Y202756D01*
X132967Y202639D01*
X133083D01*
X133200Y202756D01*
Y202989D01*
X133083Y203106D01*
X132967D01*
X132850Y202989D01*
X132734Y203106D01*
X132617D01*
X132850Y202989D02*
Y202756D01*
X139062Y224240D02*
X138945Y224124D01*
X138712D01*
X138595Y224240D01*
Y224707D01*
X138712Y224824D01*
X138945D01*
X139062Y224707D01*
X139295Y224824D02*
X139528D01*
X139411D01*
Y224124D01*
X139295Y224240D01*
X140344Y224824D02*
X139878D01*
X140344Y224357D01*
Y224240D01*
X140228Y224124D01*
X139995D01*
X139878Y224240D01*
X140578D02*
X140694Y224124D01*
X140928D01*
X141044Y224240D01*
Y224357D01*
X140928Y224474D01*
X140811D01*
X140928D01*
X141044Y224590D01*
Y224707D01*
X140928Y224824D01*
X140694D01*
X140578Y224707D01*
X132577Y218992D02*
X132460Y219109D01*
Y219342D01*
X132577Y219459D01*
X133043D01*
X133160Y219342D01*
Y219109D01*
X133043Y218992D01*
X133160Y218759D02*
Y218525D01*
Y218642D01*
X132460D01*
X132577Y218759D01*
X133160Y218176D02*
Y217942D01*
Y218059D01*
X132460D01*
X132577Y218176D01*
X132460Y217126D02*
Y217592D01*
X132810D01*
X132694Y217359D01*
Y217243D01*
X132810Y217126D01*
X133043D01*
X133160Y217243D01*
Y217476D01*
X133043Y217592D01*
X139362Y271679D02*
X139245Y271563D01*
X139012D01*
X138895Y271679D01*
Y272146D01*
X139012Y272263D01*
X139245D01*
X139362Y272146D01*
X139595Y272263D02*
X139828D01*
X139711D01*
Y271563D01*
X139595Y271679D01*
X140178Y272263D02*
X140411D01*
X140295D01*
Y271563D01*
X140178Y271679D01*
X141228Y272263D02*
X140761D01*
X141228Y271796D01*
Y271679D01*
X141111Y271563D01*
X140878D01*
X140761Y271679D01*
X132537Y266391D02*
X132420Y266508D01*
Y266741D01*
X132537Y266858D01*
X133003D01*
X133120Y266741D01*
Y266508D01*
X133003Y266391D01*
X133120Y266158D02*
Y265924D01*
Y266041D01*
X132420D01*
X132537Y266158D01*
Y265575D02*
X132420Y265458D01*
Y265225D01*
X132537Y265108D01*
X133003D01*
X133120Y265225D01*
Y265458D01*
X133003Y265575D01*
X132537D01*
X133120Y264408D02*
Y264875D01*
X132654Y264408D01*
X132537D01*
X132420Y264525D01*
Y264758D01*
X132537Y264875D01*
X139362Y285649D02*
X139245Y285533D01*
X139012D01*
X138895Y285649D01*
Y286116D01*
X139012Y286233D01*
X139245D01*
X139362Y286116D01*
X139595D02*
X139711Y286233D01*
X139945D01*
X140061Y286116D01*
Y285649D01*
X139945Y285533D01*
X139711D01*
X139595Y285649D01*
Y285766D01*
X139711Y285883D01*
X140061D01*
X140644Y286233D02*
Y285533D01*
X140295Y285883D01*
X140761D01*
X132447Y280851D02*
X132330Y280968D01*
Y281201D01*
X132447Y281318D01*
X132913D01*
X133030Y281201D01*
Y280968D01*
X132913Y280851D01*
X132447Y280618D02*
X132330Y280501D01*
Y280268D01*
X132447Y280151D01*
X132564D01*
X132680Y280268D01*
X132797Y280151D01*
X132913D01*
X133030Y280268D01*
Y280501D01*
X132913Y280618D01*
X132797D01*
X132680Y280501D01*
X132564Y280618D01*
X132447D01*
X132680Y280501D02*
Y280268D01*
X132330Y279451D02*
X132447Y279685D01*
X132680Y279918D01*
X132913D01*
X133030Y279801D01*
Y279568D01*
X132913Y279451D01*
X132797D01*
X132680Y279568D01*
Y279918D01*
X139548Y256722D02*
X139431Y256606D01*
X139198D01*
X139081Y256722D01*
Y257189D01*
X139198Y257306D01*
X139431D01*
X139548Y257189D01*
X140248Y256606D02*
X140014Y256722D01*
X139781Y256956D01*
Y257189D01*
X139898Y257306D01*
X140131D01*
X140248Y257189D01*
Y257072D01*
X140131Y256956D01*
X139781D01*
X140947Y257306D02*
X140481D01*
X140947Y256839D01*
Y256722D01*
X140831Y256606D01*
X140597D01*
X140481Y256722D01*
X98160Y32317D02*
X98277Y32200D01*
Y31967D01*
X98160Y31850D01*
X97694D01*
X97577Y31967D01*
Y32200D01*
X97694Y32317D01*
X98160Y32550D02*
X98277Y32666D01*
Y32900D01*
X98160Y33016D01*
X98043D01*
X97927Y32900D01*
X97810Y33016D01*
X97694D01*
X97577Y32900D01*
Y32666D01*
X97694Y32550D01*
X97810D01*
X97927Y32666D01*
X98043Y32550D01*
X98160D01*
X97927Y32666D02*
Y32900D01*
X117958Y31742D02*
X118075Y31625D01*
Y31392D01*
X117958Y31275D01*
X117492D01*
X117375Y31392D01*
Y31625D01*
X117492Y31742D01*
X118075Y32441D02*
X117958Y32208D01*
X117725Y31975D01*
X117492D01*
X117375Y32091D01*
Y32325D01*
X117492Y32441D01*
X117608D01*
X117725Y32325D01*
Y31975D01*
X140524Y57326D02*
Y57792D01*
X140291Y58025D01*
X140057Y57792D01*
Y57326D01*
X139824D02*
Y58025D01*
X139474D01*
X139357Y57909D01*
Y57442D01*
X139474Y57326D01*
X139824D01*
X139124Y57442D02*
X139008Y57326D01*
X138774D01*
X138658Y57442D01*
Y57559D01*
X138774Y57675D01*
X138891D01*
X138774D01*
X138658Y57792D01*
Y57909D01*
X138774Y58025D01*
X139008D01*
X139124Y57909D01*
X138075Y58025D02*
Y57326D01*
X138424Y57675D01*
X137958D01*
X140524Y71339D02*
Y71806D01*
X140291Y72039D01*
X140057Y71806D01*
Y71339D01*
X139824D02*
Y72039D01*
X139474D01*
X139357Y71922D01*
Y71456D01*
X139474Y71339D01*
X139824D01*
X139124Y71456D02*
X139008Y71339D01*
X138774D01*
X138658Y71456D01*
Y71572D01*
X138774Y71689D01*
X138891D01*
X138774D01*
X138658Y71806D01*
Y71922D01*
X138774Y72039D01*
X139008D01*
X139124Y71922D01*
X138424Y71456D02*
X138308Y71339D01*
X138075D01*
X137958Y71456D01*
Y71922D01*
X138075Y72039D01*
X138308D01*
X138424Y71922D01*
Y71456D01*
X140364Y87336D02*
Y87802D01*
X140131Y88035D01*
X139897Y87802D01*
Y87336D01*
X139664D02*
Y88035D01*
X139314D01*
X139198Y87919D01*
Y87452D01*
X139314Y87336D01*
X139664D01*
X138498Y88035D02*
X138964D01*
X138498Y87569D01*
Y87452D01*
X138614Y87336D01*
X138848D01*
X138964Y87452D01*
X137798Y87336D02*
X138031Y87452D01*
X138264Y87685D01*
Y87919D01*
X138148Y88035D01*
X137915D01*
X137798Y87919D01*
Y87802D01*
X137915Y87685D01*
X138264D01*
X140364Y101075D02*
Y101542D01*
X140131Y101775D01*
X139897Y101542D01*
Y101075D01*
X139664D02*
Y101775D01*
X139314D01*
X139198Y101659D01*
Y101192D01*
X139314Y101075D01*
X139664D01*
X138498Y101775D02*
X138964D01*
X138498Y101309D01*
Y101192D01*
X138614Y101075D01*
X138848D01*
X138964Y101192D01*
X137798Y101775D02*
X138264D01*
X137798Y101309D01*
Y101192D01*
X137915Y101075D01*
X138148D01*
X138264Y101192D01*
X141124Y148209D02*
Y148676D01*
X140891Y148909D01*
X140657Y148676D01*
Y148209D01*
X140424D02*
Y148909D01*
X140074D01*
X139958Y148792D01*
Y148326D01*
X140074Y148209D01*
X140424D01*
X139724Y148909D02*
X139491D01*
X139608D01*
Y148209D01*
X139724Y148326D01*
X138675Y148209D02*
X138908Y148326D01*
X139141Y148559D01*
Y148792D01*
X139024Y148909D01*
X138791D01*
X138675Y148792D01*
Y148676D01*
X138791Y148559D01*
X139141D01*
X141344Y162109D02*
Y162576D01*
X141111Y162809D01*
X140877Y162576D01*
Y162109D01*
X140644D02*
Y162809D01*
X140294D01*
X140178Y162692D01*
Y162226D01*
X140294Y162109D01*
X140644D01*
X139944Y162809D02*
X139711D01*
X139828D01*
Y162109D01*
X139944Y162226D01*
X138895Y162809D02*
X139361D01*
X138895Y162342D01*
Y162226D01*
X139011Y162109D01*
X139244D01*
X139361Y162226D01*
X140506Y119099D02*
Y119566D01*
X140273Y119799D01*
X140039Y119566D01*
Y119099D01*
X139806D02*
Y119799D01*
X139456D01*
X139340Y119682D01*
Y119216D01*
X139456Y119099D01*
X139806D01*
X139106Y119682D02*
X138990Y119799D01*
X138756D01*
X138640Y119682D01*
Y119216D01*
X138756Y119099D01*
X138990D01*
X139106Y119216D01*
Y119332D01*
X138990Y119449D01*
X138640D01*
X140506Y132989D02*
Y133456D01*
X140273Y133689D01*
X140039Y133456D01*
Y132989D01*
X139806D02*
Y133689D01*
X139456D01*
X139340Y133572D01*
Y133106D01*
X139456Y132989D01*
X139806D01*
X138640D02*
X139106D01*
Y133339D01*
X138873Y133222D01*
X138756D01*
X138640Y133339D01*
Y133572D01*
X138756Y133689D01*
X138990D01*
X139106Y133572D01*
X107990Y60180D02*
X108690D01*
Y59830D01*
X108573Y59714D01*
X108340D01*
X108223Y59830D01*
Y60180D01*
Y59947D02*
X107990Y59714D01*
Y59480D02*
Y59247D01*
Y59364D01*
X108690D01*
X108573Y59480D01*
X108690Y58897D02*
Y58431D01*
X108573D01*
X108107Y58897D01*
X107990D01*
X108573Y58197D02*
X108690Y58081D01*
Y57848D01*
X108573Y57731D01*
X108457D01*
X108340Y57848D01*
Y57964D01*
Y57848D01*
X108223Y57731D01*
X108107D01*
X107990Y57848D01*
Y58081D01*
X108107Y58197D01*
X109713Y60180D02*
X110413D01*
Y59830D01*
X110297Y59714D01*
X110063D01*
X109947Y59830D01*
Y60180D01*
Y59947D02*
X109713Y59714D01*
Y59481D02*
Y59247D01*
Y59364D01*
X110413D01*
X110297Y59481D01*
X110413Y58897D02*
Y58431D01*
X110297D01*
X109830Y58897D01*
X109713D01*
Y57731D02*
Y58198D01*
X110180Y57731D01*
X110297D01*
X110413Y57848D01*
Y58081D01*
X110297Y58198D01*
X108134Y88530D02*
X108834D01*
Y88180D01*
X108717Y88064D01*
X108484D01*
X108367Y88180D01*
Y88530D01*
Y88297D02*
X108134Y88064D01*
Y87831D02*
Y87597D01*
Y87714D01*
X108834D01*
X108717Y87831D01*
X108134Y86897D02*
X108834D01*
X108484Y87247D01*
Y86781D01*
X108834Y86081D02*
Y86548D01*
X108484D01*
X108600Y86314D01*
Y86198D01*
X108484Y86081D01*
X108250D01*
X108134Y86198D01*
Y86431D01*
X108250Y86548D01*
X109964Y88550D02*
X110664D01*
Y88200D01*
X110547Y88084D01*
X110314D01*
X110197Y88200D01*
Y88550D01*
Y88317D02*
X109964Y88084D01*
Y87851D02*
Y87617D01*
Y87734D01*
X110664D01*
X110547Y87851D01*
X109964Y86918D02*
X110664D01*
X110314Y87267D01*
Y86801D01*
X109964Y86218D02*
X110664D01*
X110314Y86568D01*
Y86101D01*
X108584Y150024D02*
X109284D01*
Y149674D01*
X109167Y149557D01*
X108934D01*
X108817Y149674D01*
Y150024D01*
Y149791D02*
X108584Y149557D01*
Y149324D02*
Y149091D01*
Y149208D01*
X109284D01*
X109167Y149324D01*
Y148741D02*
X109284Y148624D01*
Y148391D01*
X109167Y148275D01*
X108700D01*
X108584Y148391D01*
Y148624D01*
X108700Y148741D01*
X109167D01*
X109284Y147575D02*
X109167Y147808D01*
X108934Y148041D01*
X108700D01*
X108584Y147925D01*
Y147691D01*
X108700Y147575D01*
X108817D01*
X108934Y147691D01*
Y148041D01*
X110304Y150024D02*
X111004D01*
Y149674D01*
X110887Y149557D01*
X110654D01*
X110537Y149674D01*
Y150024D01*
Y149791D02*
X110304Y149557D01*
Y149324D02*
Y149091D01*
Y149208D01*
X111004D01*
X110887Y149324D01*
Y148741D02*
X111004Y148624D01*
Y148391D01*
X110887Y148275D01*
X110420D01*
X110304Y148391D01*
Y148624D01*
X110420Y148741D01*
X110887D01*
X111004Y147575D02*
Y148041D01*
X110654D01*
X110770Y147808D01*
Y147691D01*
X110654Y147575D01*
X110420D01*
X110304Y147691D01*
Y147925D01*
X110420Y148041D01*
X108715Y120799D02*
X109415D01*
Y120449D01*
X109298Y120332D01*
X109065D01*
X108948Y120449D01*
Y120799D01*
Y120566D02*
X108715Y120332D01*
X109415Y120099D02*
Y119633D01*
X109298D01*
X108832Y120099D01*
X108715D01*
X109415Y118933D02*
Y119399D01*
X109065D01*
X109182Y119166D01*
Y119050D01*
X109065Y118933D01*
X108832D01*
X108715Y119050D01*
Y119283D01*
X108832Y119399D01*
X110518Y120799D02*
X111218D01*
Y120449D01*
X111101Y120332D01*
X110868D01*
X110751Y120449D01*
Y120799D01*
Y120566D02*
X110518Y120332D01*
X111218Y120099D02*
Y119633D01*
X111101D01*
X110635Y120099D01*
X110518D01*
Y119050D02*
X111218D01*
X110868Y119399D01*
Y118933D01*
X139065Y57442D02*
X138949Y57326D01*
X138715D01*
X138599Y57442D01*
Y57909D01*
X138715Y58025D01*
X138949D01*
X139065Y57909D01*
X139299Y58025D02*
X139532D01*
X139415D01*
Y57326D01*
X139299Y57442D01*
X139882Y57326D02*
X140348D01*
Y57442D01*
X139882Y57909D01*
Y58025D01*
X141048D02*
X140581D01*
X141048Y57559D01*
Y57442D01*
X140931Y57326D01*
X140698D01*
X140581Y57442D01*
X132541Y52424D02*
X132424Y52540D01*
Y52774D01*
X132541Y52890D01*
X133007D01*
X133124Y52774D01*
Y52540D01*
X133007Y52424D01*
X133124Y52191D02*
Y51957D01*
Y52074D01*
X132424D01*
X132541Y52191D01*
X132424Y51141D02*
X132541Y51374D01*
X132774Y51607D01*
X133007D01*
X133124Y51491D01*
Y51257D01*
X133007Y51141D01*
X132891D01*
X132774Y51257D01*
Y51607D01*
X132424Y50908D02*
Y50441D01*
X132541D01*
X133007Y50908D01*
X133124D01*
X139065Y71456D02*
X138949Y71339D01*
X138715D01*
X138599Y71456D01*
Y71922D01*
X138715Y72039D01*
X138949D01*
X139065Y71922D01*
X139299Y72039D02*
X139532D01*
X139415D01*
Y71339D01*
X139299Y71456D01*
X140348Y71339D02*
X139882D01*
Y71689D01*
X140115Y71572D01*
X140232D01*
X140348Y71689D01*
Y71922D01*
X140232Y72039D01*
X139998D01*
X139882Y71922D01*
X141048Y72039D02*
X140581D01*
X141048Y71572D01*
Y71456D01*
X140931Y71339D01*
X140698D01*
X140581Y71456D01*
X132305Y67017D02*
X132188Y67134D01*
Y67367D01*
X132305Y67484D01*
X132771D01*
X132888Y67367D01*
Y67134D01*
X132771Y67017D01*
X132888Y66784D02*
Y66551D01*
Y66667D01*
X132188D01*
X132305Y66784D01*
X132888Y65851D02*
X132188D01*
X132538Y66201D01*
Y65734D01*
X132188Y65501D02*
Y65035D01*
X132305D01*
X132771Y65501D01*
X132888D01*
X138905Y87452D02*
X138789Y87336D01*
X138555D01*
X138439Y87452D01*
Y87919D01*
X138555Y88035D01*
X138789D01*
X138905Y87919D01*
X139139Y88035D02*
X139372D01*
X139255D01*
Y87336D01*
X139139Y87452D01*
X140072Y88035D02*
Y87336D01*
X139722Y87685D01*
X140188D01*
X140421Y88035D02*
X140655D01*
X140538D01*
Y87336D01*
X140421Y87452D01*
X138905Y101192D02*
X138789Y101076D01*
X138555D01*
X138439Y101192D01*
Y101659D01*
X138555Y101775D01*
X138789D01*
X138905Y101659D01*
X139139Y101775D02*
X139372D01*
X139255D01*
Y101076D01*
X139139Y101192D01*
X140188Y101775D02*
X139722D01*
X140188Y101309D01*
Y101192D01*
X140072Y101076D01*
X139838D01*
X139722Y101192D01*
X140421Y101775D02*
X140655D01*
X140538D01*
Y101076D01*
X140421Y101192D01*
X139665Y148326D02*
X139549Y148209D01*
X139315D01*
X139199Y148326D01*
Y148792D01*
X139315Y148909D01*
X139549D01*
X139665Y148792D01*
X139899Y148909D02*
X140132D01*
X140015D01*
Y148209D01*
X139899Y148326D01*
X140482Y148909D02*
X140715D01*
X140598D01*
Y148209D01*
X140482Y148326D01*
X141065Y148909D02*
X141298D01*
X141181D01*
Y148209D01*
X141065Y148326D01*
X132831Y157347D02*
X132714Y157464D01*
Y157697D01*
X132831Y157814D01*
X133297D01*
X133414Y157697D01*
Y157464D01*
X133297Y157347D01*
X132831Y157114D02*
X132714Y156998D01*
Y156764D01*
X132831Y156648D01*
X132947D01*
X133064Y156764D01*
X133181Y156648D01*
X133297D01*
X133414Y156764D01*
Y156998D01*
X133297Y157114D01*
X133181D01*
X133064Y156998D01*
X132947Y157114D01*
X132831D01*
X133064Y156998D02*
Y156764D01*
X132714Y155948D02*
Y156414D01*
X133064D01*
X132947Y156181D01*
Y156065D01*
X133064Y155948D01*
X133297D01*
X133414Y156065D01*
Y156298D01*
X133297Y156414D01*
X139047Y119216D02*
X138931Y119099D01*
X138698D01*
X138581Y119216D01*
Y119682D01*
X138698Y119799D01*
X138931D01*
X139047Y119682D01*
X139281Y119216D02*
X139397Y119099D01*
X139631D01*
X139747Y119216D01*
Y119332D01*
X139631Y119449D01*
X139747Y119566D01*
Y119682D01*
X139631Y119799D01*
X139397D01*
X139281Y119682D01*
Y119566D01*
X139397Y119449D01*
X139281Y119332D01*
Y119216D01*
X139397Y119449D02*
X139631D01*
X140330Y119799D02*
Y119099D01*
X139980Y119449D01*
X140447D01*
X132693Y114037D02*
X132576Y114154D01*
Y114387D01*
X132693Y114504D01*
X133159D01*
X133276Y114387D01*
Y114154D01*
X133159Y114037D01*
X132576Y113804D02*
Y113338D01*
X132693D01*
X133159Y113804D01*
X133276D01*
Y112638D02*
Y113104D01*
X132809Y112638D01*
X132693D01*
X132576Y112755D01*
Y112988D01*
X132693Y113104D01*
X139047Y133106D02*
X138931Y132989D01*
X138698D01*
X138581Y133106D01*
Y133572D01*
X138698Y133689D01*
X138931D01*
X139047Y133572D01*
X139747Y132989D02*
X139514Y133106D01*
X139281Y133339D01*
Y133572D01*
X139397Y133689D01*
X139631D01*
X139747Y133572D01*
Y133456D01*
X139631Y133339D01*
X139281D01*
X140447Y132989D02*
X140214Y133106D01*
X139980Y133339D01*
Y133572D01*
X140097Y133689D01*
X140330D01*
X140447Y133572D01*
Y133456D01*
X140330Y133339D01*
X139980D01*
X132823Y128067D02*
X132706Y128184D01*
Y128417D01*
X132823Y128534D01*
X133289D01*
X133406Y128417D01*
Y128184D01*
X133289Y128067D01*
X132706Y127368D02*
Y127834D01*
X133056D01*
X132939Y127601D01*
Y127484D01*
X133056Y127368D01*
X133289D01*
X133406Y127484D01*
Y127718D01*
X133289Y127834D01*
Y127134D02*
X133406Y127018D01*
Y126785D01*
X133289Y126668D01*
X132823D01*
X132706Y126785D01*
Y127018D01*
X132823Y127134D01*
X132939D01*
X133056Y127018D01*
Y126668D01*
X136990Y16092D02*
X136873Y15975D01*
X136640D01*
X136523Y16092D01*
Y16559D01*
X136640Y16675D01*
X136873D01*
X136990Y16559D01*
X137223Y16092D02*
X137339Y15975D01*
X137573D01*
X137689Y16092D01*
Y16209D01*
X137573Y16325D01*
X137456D01*
X137573D01*
X137689Y16442D01*
Y16559D01*
X137573Y16675D01*
X137339D01*
X137223Y16559D01*
X138272Y16675D02*
Y15975D01*
X137923Y16325D01*
X138389D01*
X38503Y90951D02*
X38620Y90834D01*
Y90601D01*
X38503Y90484D01*
X38037D01*
X37920Y90601D01*
Y90834D01*
X38037Y90951D01*
X37920Y91534D02*
X38620D01*
X38270Y91184D01*
Y91650D01*
X37920Y92350D02*
Y91884D01*
X38387Y92350D01*
X38503D01*
X38620Y92233D01*
Y92000D01*
X38503Y91884D01*
X29782Y88306D02*
X29665Y88189D01*
X29432D01*
X29315Y88306D01*
Y88772D01*
X29432Y88889D01*
X29665D01*
X29782Y88772D01*
X30481Y88189D02*
X30015D01*
Y88539D01*
X30248Y88422D01*
X30365D01*
X30481Y88539D01*
Y88772D01*
X30365Y88889D01*
X30131D01*
X30015Y88772D01*
X31064Y88889D02*
Y88189D01*
X30715Y88539D01*
X31181D01*
X41122Y85106D02*
X41005Y84989D01*
X40772D01*
X40655Y85106D01*
Y85572D01*
X40772Y85689D01*
X41005D01*
X41122Y85572D01*
X41705Y85689D02*
Y84989D01*
X41355Y85339D01*
X41821D01*
X42521Y84989D02*
X42288Y85106D01*
X42055Y85339D01*
Y85572D01*
X42171Y85689D01*
X42404D01*
X42521Y85572D01*
Y85456D01*
X42404Y85339D01*
X42055D01*
X6514Y104924D02*
X6630Y105041D01*
X6863D01*
X6980Y104924D01*
Y104457D01*
X6863Y104341D01*
X6630D01*
X6514Y104457D01*
X6280Y104924D02*
X6164Y105041D01*
X5930D01*
X5814Y104924D01*
Y104807D01*
X5930Y104691D01*
X6047D01*
X5930D01*
X5814Y104574D01*
Y104457D01*
X5930Y104341D01*
X6164D01*
X6280Y104457D01*
X5114Y105041D02*
X5347Y104924D01*
X5580Y104691D01*
Y104457D01*
X5464Y104341D01*
X5231D01*
X5114Y104457D01*
Y104574D01*
X5231Y104691D01*
X5580D01*
X10809Y92535D02*
X10925Y92652D01*
X11158D01*
X11275Y92535D01*
Y92069D01*
X11158Y91952D01*
X10925D01*
X10809Y92069D01*
X10109Y92652D02*
X10575D01*
Y92302D01*
X10342Y92419D01*
X10225D01*
X10109Y92302D01*
Y92069D01*
X10225Y91952D01*
X10459D01*
X10575Y92069D01*
X9409Y91952D02*
X9875D01*
X9409Y92419D01*
Y92535D01*
X9526Y92652D01*
X9759D01*
X9875Y92535D01*
X24077Y85427D02*
X23960Y85544D01*
Y85777D01*
X24077Y85894D01*
X24543D01*
X24660Y85777D01*
Y85544D01*
X24543Y85427D01*
X23960Y84728D02*
Y85194D01*
X24310D01*
X24194Y84961D01*
Y84844D01*
X24310Y84728D01*
X24543D01*
X24660Y84844D01*
Y85078D01*
X24543Y85194D01*
X24077Y84494D02*
X23960Y84378D01*
Y84145D01*
X24077Y84028D01*
X24194D01*
X24310Y84145D01*
Y84261D01*
Y84145D01*
X24427Y84028D01*
X24543D01*
X24660Y84145D01*
Y84378D01*
X24543Y84494D01*
D101*
X139713Y180291D02*
D03*
Y194761D02*
D03*
X140490Y210190D02*
D03*
X140520Y224511D02*
D03*
X140820Y271950D02*
D03*
Y285920D02*
D03*
X141006Y242735D02*
D03*
Y256993D02*
D03*
X140524Y57713D02*
D03*
Y71726D02*
D03*
X140364Y87723D02*
D03*
X140364Y101463D02*
D03*
X141124Y148596D02*
D03*
X141344Y162497D02*
D03*
X140506Y119487D02*
D03*
Y133376D02*
D03*
%TF.MD5,e3b73ebd453cca0ad0018b6a7352b9ee*%
M02*
