%TF.GenerationSoftware,Altium Limited,Altium Designer,24.10.1 (45)*%
G04 Layer_Color=128*
%FSLAX43Y43*%
%MOMM*%
%TF.SameCoordinates,766D9AF5-BA92-4156-BEB6-FD46E2A8267A*%
%TF.FilePolarity,Positive*%
%TF.FileFunction,Drillmap*%
%TF.Part,Single*%
G01*
G75*
%TA.AperFunction,NonConductor*%
%ADD123C,0.127*%
D123*
X75055Y19790D02*
X76055D01*
X75555Y19290D02*
Y20290D01*
X75055Y17250D02*
X76055D01*
X75555Y16750D02*
Y17750D01*
X75055Y14710D02*
X76055D01*
X75555Y14210D02*
Y15210D01*
X138763Y18847D02*
X139763D01*
X139263Y18347D02*
Y19347D01*
X141303Y18847D02*
X142303D01*
X141803Y18347D02*
Y19347D01*
X143843Y18847D02*
X144843D01*
X144343Y18347D02*
Y19347D01*
X136223Y18847D02*
X137223D01*
X136723Y18347D02*
Y19347D01*
X107725Y8900D02*
X108675D01*
X108200Y8425D02*
Y9375D01*
X107400Y156600D02*
X108350D01*
X107875Y156125D02*
Y157075D01*
X106750Y187275D02*
X107700D01*
X107225Y186800D02*
Y187750D01*
X112785Y188834D02*
X113735D01*
X113260Y188359D02*
Y189309D01*
X105125Y154275D02*
X106075D01*
X105600Y153800D02*
Y154750D01*
X107828Y126725D02*
X108778D01*
X108303Y126250D02*
Y127200D01*
X105069Y123600D02*
X106019D01*
X105544Y123125D02*
Y124075D01*
X91175Y11675D02*
X92125D01*
X91650Y11200D02*
Y12150D01*
X82075Y21080D02*
X83025D01*
X82550Y20605D02*
Y21555D01*
X87125Y11650D02*
X88075D01*
X87600Y11175D02*
Y12125D01*
X88816Y13536D02*
X89766D01*
X89291Y13061D02*
Y14011D01*
X85000Y13174D02*
X85950D01*
X85475Y12699D02*
Y13649D01*
X103650Y14011D02*
X104600D01*
X104125Y13536D02*
Y14486D01*
X105200Y10500D02*
X106150D01*
X105675Y10025D02*
Y10975D01*
X110037Y10538D02*
X110988D01*
X110512Y10062D02*
Y11012D01*
X106900Y14011D02*
X107850D01*
X107375Y13536D02*
Y14486D01*
X111630Y14011D02*
X112580D01*
X112105Y13536D02*
Y14486D01*
X114775Y14011D02*
X115725D01*
X115250Y13536D02*
Y14486D01*
X113175Y10625D02*
X114125D01*
X113650Y10150D02*
Y11100D01*
X97100Y15854D02*
X98050D01*
X97575Y15379D02*
Y16329D01*
X96850Y21070D02*
X97800D01*
X97325Y20595D02*
Y21545D01*
X93525Y14350D02*
X94475D01*
X94000Y13875D02*
Y14825D01*
X107750Y248725D02*
X108700D01*
X108225Y248250D02*
Y249200D01*
X109575Y216950D02*
X110525D01*
X110050Y216475D02*
Y217425D01*
X105817Y218700D02*
X106767D01*
X106292Y218225D02*
Y219175D01*
X109200Y94450D02*
X110150D01*
X109675Y93975D02*
Y94925D01*
X103850Y277400D02*
X104800D01*
X104325Y276925D02*
Y277875D01*
X114294Y94997D02*
X115244D01*
X114769Y94522D02*
Y95472D01*
X114224Y66652D02*
X115174D01*
X114699Y66177D02*
Y67127D01*
X31328Y56037D02*
X32328D01*
X31828Y55537D02*
Y56537D01*
X31328Y58577D02*
X32328D01*
X31828Y58077D02*
Y59077D01*
X31328Y61117D02*
X32328D01*
X31828Y60617D02*
Y61617D01*
X31328Y63657D02*
X32328D01*
X31828Y63157D02*
Y64157D01*
X31328Y66197D02*
X32328D01*
X31828Y65697D02*
Y66697D01*
X31328Y68737D02*
X32328D01*
X31828Y68237D02*
Y69237D01*
X114340Y280779D02*
X115290D01*
X114815Y280304D02*
Y281254D01*
X101901Y247251D02*
X102851D01*
X102376Y246776D02*
Y247726D01*
X106975Y65950D02*
X107925D01*
X107450Y65475D02*
Y66425D01*
X36000Y78625D02*
X36950D01*
X36475Y78150D02*
Y79100D01*
X21975Y123733D02*
X22975D01*
X22475Y123233D02*
Y124233D01*
X21975Y129067D02*
X22975D01*
X22475Y128567D02*
Y129567D01*
X47987Y17456D02*
X48987D01*
X48487Y16956D02*
Y17956D01*
X45447Y17456D02*
X46447D01*
X45947Y16956D02*
Y17956D01*
X14247Y47332D02*
X15247D01*
X14747Y46832D02*
Y47832D01*
X11707Y47332D02*
X12707D01*
X12207Y46832D02*
Y47832D01*
X9167Y47332D02*
X10167D01*
X9667Y46832D02*
Y47832D01*
X6627Y47332D02*
X7627D01*
X7127Y46832D02*
Y47832D01*
X4087Y47332D02*
X5087D01*
X4587Y46832D02*
Y47832D01*
X1547Y47332D02*
X2547D01*
X2047Y46832D02*
Y47832D01*
X191825Y18900D02*
X192725D01*
X192275Y18450D02*
Y19350D01*
X191825Y21440D02*
X192725D01*
X192275Y20990D02*
Y21890D01*
X191825Y23980D02*
X192725D01*
X192275Y23530D02*
Y24430D01*
X191825Y26520D02*
X192725D01*
X192275Y26070D02*
Y26970D01*
X187518Y19638D02*
X188468D01*
X187993Y19163D02*
Y20113D01*
X173318Y19891D02*
X174268D01*
X173793Y19416D02*
Y20366D01*
X180548Y31868D02*
X181498D01*
X181023Y31393D02*
Y32343D01*
X173318Y26418D02*
X174268D01*
X173793Y25943D02*
Y26893D01*
X187518Y25998D02*
X188468D01*
X187993Y25523D02*
Y26473D01*
X183898Y28158D02*
X184848D01*
X184373Y27683D02*
Y28633D01*
X28077Y17496D02*
X29077D01*
X28577Y16996D02*
Y17996D01*
X30617Y17496D02*
X31617D01*
X31117Y16996D02*
Y17996D01*
X33157Y17496D02*
X34157D01*
X33657Y16996D02*
Y17996D01*
X35697Y17496D02*
X36697D01*
X36197Y16996D02*
Y17996D01*
X38237Y17496D02*
X39237D01*
X38737Y16996D02*
Y17996D01*
X40777Y17496D02*
X41777D01*
X41277Y16996D02*
Y17996D01*
X75055Y41110D02*
X76055D01*
X75555Y40610D02*
Y41610D01*
X75055Y43650D02*
X76055D01*
X75555Y43150D02*
Y44150D01*
X75055Y46190D02*
X76055D01*
X75555Y45690D02*
Y46690D01*
X75055Y32295D02*
X76055D01*
X75555Y31795D02*
Y32795D01*
X75055Y34835D02*
X76055D01*
X75555Y34335D02*
Y35335D01*
X75055Y37375D02*
X76055D01*
X75555Y36875D02*
Y37875D01*
X75055Y23625D02*
X76055D01*
X75555Y23125D02*
Y24125D01*
X75055Y26165D02*
X76055D01*
X75555Y25665D02*
Y26665D01*
X75055Y28705D02*
X76055D01*
X75555Y28205D02*
Y29205D01*
X44000Y22408D02*
X44950D01*
X44475Y21933D02*
Y22883D01*
X63722Y61561D02*
X64522D01*
X64122Y61161D02*
Y61961D01*
X63722Y65561D02*
X64522D01*
X64122Y65161D02*
Y65961D01*
X63722Y67561D02*
X64522D01*
X64122Y67161D02*
Y67961D01*
X63722Y63561D02*
X64522D01*
X64122Y63161D02*
Y63961D01*
X62417Y46131D02*
X63417D01*
X62917Y45631D02*
Y46631D01*
X62417Y43591D02*
X63417D01*
X62917Y43091D02*
Y44091D01*
X62417Y41051D02*
X63417D01*
X62917Y40551D02*
Y41551D01*
X55348Y43591D02*
X56298D01*
X55823Y43116D02*
Y44066D01*
X62367Y54961D02*
X63367D01*
X62867Y54461D02*
Y55461D01*
X62367Y52421D02*
X63367D01*
X62867Y51921D02*
Y52921D01*
X62367Y49881D02*
X63367D01*
X62867Y49381D02*
Y50381D01*
X48275Y52421D02*
X49225D01*
X48750Y51946D02*
Y52896D01*
X49387Y43326D02*
X50087D01*
X49737Y42976D02*
Y43676D01*
X49387Y38446D02*
X50087D01*
X49737Y38096D02*
Y38796D01*
X62443Y28567D02*
X63443D01*
X62943Y28067D02*
Y29067D01*
X62443Y26027D02*
X63443D01*
X62943Y25527D02*
Y26527D01*
X62443Y23487D02*
X63443D01*
X62943Y22987D02*
Y23987D01*
X55473Y24951D02*
X56423D01*
X55948Y24476D02*
Y25426D01*
X62342Y19667D02*
X63342D01*
X62842Y19167D02*
Y20167D01*
X62342Y17127D02*
X63342D01*
X62842Y16627D02*
Y17627D01*
X62342Y14587D02*
X63342D01*
X62842Y14087D02*
Y15087D01*
X54897Y16167D02*
X55847D01*
X55372Y15692D02*
Y16642D01*
X62393Y37342D02*
X63393D01*
X62893Y36842D02*
Y37842D01*
X62393Y34802D02*
X63393D01*
X62893Y34302D02*
Y35302D01*
X62393Y32262D02*
X63393D01*
X62893Y31762D02*
Y32762D01*
X55318Y33754D02*
X56268D01*
X55793Y33279D02*
Y34229D01*
X52572Y68807D02*
X53672D01*
X53122Y68257D02*
Y69357D01*
X55112Y68807D02*
X56212D01*
X55662Y68257D02*
Y69357D01*
X50032Y68807D02*
X51132D01*
X50582Y68257D02*
Y69357D01*
X47492Y68807D02*
X48592D01*
X48042Y68257D02*
Y69357D01*
X57652Y68807D02*
X58752D01*
X58202Y68257D02*
Y69357D01*
X23828Y68737D02*
X24828D01*
X24328Y68237D02*
Y69237D01*
X23828Y66197D02*
X24828D01*
X24328Y65697D02*
Y66697D01*
X23828Y63657D02*
X24828D01*
X24328Y63157D02*
Y64157D01*
X23828Y61117D02*
X24828D01*
X24328Y60617D02*
Y61617D01*
X23828Y58577D02*
X24828D01*
X24328Y58077D02*
Y59077D01*
X23828Y56037D02*
X24828D01*
X24328Y55537D02*
Y56537D01*
X148383Y20002D02*
X149333D01*
X148858Y19527D02*
Y20477D01*
X127650Y35198D02*
X128600D01*
X128125Y34723D02*
Y35673D01*
X131828Y21628D02*
X132778D01*
X132303Y21153D02*
Y22103D01*
X152117Y20002D02*
X153067D01*
X152592Y19527D02*
Y20477D01*
X157052Y3862D02*
X158352D01*
X157702Y3212D02*
Y4512D01*
X152052Y3862D02*
X153352D01*
X152702Y3212D02*
Y4512D01*
X162052Y3862D02*
X163352D01*
X162702Y3212D02*
Y4512D01*
X164367Y12822D02*
X165317D01*
X164842Y12347D02*
Y13297D01*
X165401Y26412D02*
X166351D01*
X165876Y25937D02*
Y26887D01*
X161709Y20027D02*
X162659D01*
X162184Y19552D02*
Y20502D01*
X14282Y26332D02*
X15282D01*
X14782Y25832D02*
Y26832D01*
X11742Y26332D02*
X12742D01*
X12242Y25832D02*
Y26832D01*
X9202Y26332D02*
X10202D01*
X9702Y25832D02*
Y26832D01*
X6662Y26332D02*
X7662D01*
X7162Y25832D02*
Y26832D01*
X4122Y26332D02*
X5122D01*
X4622Y25832D02*
Y26832D01*
X1582Y26332D02*
X2582D01*
X2082Y25832D02*
Y26832D01*
X14237Y39332D02*
X15237D01*
X14737Y38832D02*
Y39832D01*
X11697Y39332D02*
X12697D01*
X12197Y38832D02*
Y39832D01*
X9157Y39332D02*
X10157D01*
X9657Y38832D02*
Y39832D01*
X6617Y39332D02*
X7617D01*
X7117Y38832D02*
Y39832D01*
X4077Y39332D02*
X5077D01*
X4577Y38832D02*
Y39832D01*
X1537Y39332D02*
X2537D01*
X2037Y38832D02*
Y39832D01*
X127922Y32252D02*
X128872D01*
X128397Y31777D02*
Y32727D01*
X126900Y18224D02*
X127850D01*
X127375Y17749D02*
Y18699D01*
X66450Y224815D02*
X67550D01*
X67000Y224265D02*
Y225365D01*
X63910Y224815D02*
X65010D01*
X64460Y224265D02*
Y225365D01*
X58830Y224815D02*
X59930D01*
X59380Y224265D02*
Y225365D01*
X68990Y224815D02*
X70090D01*
X69540Y224265D02*
Y225365D01*
X71530Y224815D02*
X72630D01*
X72080Y224265D02*
Y225365D01*
X61370Y224815D02*
X62470D01*
X61920Y224265D02*
Y225365D01*
X56290Y224815D02*
X57390D01*
X56840Y224265D02*
Y225365D01*
X53750Y224815D02*
X54850D01*
X54300Y224265D02*
Y225365D01*
X51210Y224815D02*
X52310D01*
X51760Y224265D02*
Y225365D01*
X30890Y224815D02*
X31990D01*
X31440Y224265D02*
Y225365D01*
X33430Y224815D02*
X34530D01*
X33980Y224265D02*
Y225365D01*
X41050Y224815D02*
X42150D01*
X41600Y224265D02*
Y225365D01*
X35970Y224815D02*
X37070D01*
X36520Y224265D02*
Y225365D01*
X43590Y224815D02*
X44690D01*
X44140Y224265D02*
Y225365D01*
X38510Y224815D02*
X39610D01*
X39060Y224265D02*
Y225365D01*
X46130Y224815D02*
X47230D01*
X46680Y224265D02*
Y225365D01*
X28350Y224815D02*
X29450D01*
X28900Y224265D02*
Y225365D01*
X48670Y224815D02*
X49770D01*
X49220Y224265D02*
Y225365D01*
X66410Y174815D02*
X67510D01*
X66960Y174265D02*
Y175365D01*
X63870Y174815D02*
X64970D01*
X64420Y174265D02*
Y175365D01*
X58790Y174815D02*
X59890D01*
X59340Y174265D02*
Y175365D01*
X68950Y174815D02*
X70050D01*
X69500Y174265D02*
Y175365D01*
X71490Y174815D02*
X72590D01*
X72040Y174265D02*
Y175365D01*
X61330Y174815D02*
X62430D01*
X61880Y174265D02*
Y175365D01*
X56250Y174815D02*
X57350D01*
X56800Y174265D02*
Y175365D01*
X53710Y174815D02*
X54810D01*
X54260Y174265D02*
Y175365D01*
X51170Y174815D02*
X52270D01*
X51720Y174265D02*
Y175365D01*
X30850Y174815D02*
X31950D01*
X31400Y174265D02*
Y175365D01*
X33390Y174815D02*
X34490D01*
X33940Y174265D02*
Y175365D01*
X41010Y174815D02*
X42110D01*
X41560Y174265D02*
Y175365D01*
X35930Y174815D02*
X37030D01*
X36480Y174265D02*
Y175365D01*
X43550Y174815D02*
X44650D01*
X44100Y174265D02*
Y175365D01*
X38470Y174815D02*
X39570D01*
X39020Y174265D02*
Y175365D01*
X46090Y174815D02*
X47190D01*
X46640Y174265D02*
Y175365D01*
X28310Y174815D02*
X29410D01*
X28860Y174265D02*
Y175365D01*
X48630Y174815D02*
X49730D01*
X49180Y174265D02*
Y175365D01*
X140763Y180304D02*
X141763D01*
X141263Y179804D02*
Y180804D01*
X135688Y180229D02*
X136688D01*
X136188Y179729D02*
Y180729D01*
X140763Y194774D02*
X141763D01*
X141263Y194274D02*
Y195274D01*
X135688Y194699D02*
X136688D01*
X136188Y194199D02*
Y195199D01*
X141540Y210203D02*
X142540D01*
X142040Y209703D02*
Y210703D01*
X136465Y210128D02*
X137465D01*
X136965Y209628D02*
Y210628D01*
X141570Y224524D02*
X142570D01*
X142070Y224024D02*
Y225024D01*
X136495Y224449D02*
X137495D01*
X136995Y223949D02*
Y224949D01*
X141870Y271963D02*
X142870D01*
X142370Y271463D02*
Y272463D01*
X136795Y271888D02*
X137795D01*
X137295Y271388D02*
Y272388D01*
X141870Y285933D02*
X142870D01*
X142370Y285433D02*
Y286433D01*
X136795Y285858D02*
X137795D01*
X137295Y285358D02*
Y286358D01*
X142056Y242748D02*
X143056D01*
X142556Y242248D02*
Y243248D01*
X136981Y242673D02*
X137981D01*
X137481Y242173D02*
Y243173D01*
X142056Y257006D02*
X143056D01*
X142556Y256506D02*
Y257506D01*
X136981Y256931D02*
X137981D01*
X137481Y256431D02*
Y257431D01*
X171958Y170854D02*
X172908D01*
X172433Y170379D02*
Y171329D01*
X171958Y176854D02*
X172908D01*
X172433Y176379D02*
Y177329D01*
X171978Y184874D02*
X172928D01*
X172453Y184399D02*
Y185349D01*
X171978Y190934D02*
X172928D01*
X172453Y190459D02*
Y191409D01*
X172025Y200174D02*
X172975D01*
X172500Y199699D02*
Y200649D01*
X172025Y206174D02*
X172975D01*
X172500Y205699D02*
Y206649D01*
X172025Y214174D02*
X172975D01*
X172500Y213699D02*
Y214649D01*
X172025Y220144D02*
X172975D01*
X172500Y219669D02*
Y220619D01*
X172751Y261823D02*
X173701D01*
X173226Y261348D02*
Y262298D01*
X172751Y267823D02*
X173701D01*
X173226Y267348D02*
Y268298D01*
X172751Y275823D02*
X173701D01*
X173226Y275348D02*
Y276298D01*
X172751Y281823D02*
X173701D01*
X173226Y281348D02*
Y282298D01*
X172117Y232498D02*
X173067D01*
X172592Y232023D02*
Y232973D01*
X172067Y238498D02*
X173017D01*
X172542Y238023D02*
Y238973D01*
X172027Y246498D02*
X172977D01*
X172502Y246023D02*
Y246973D01*
X172117Y252498D02*
X173067D01*
X172592Y252023D02*
Y252973D01*
X161504Y170854D02*
X163282D01*
X162393Y169965D02*
Y171743D01*
X166584Y170854D02*
X168362D01*
X167473Y169965D02*
Y171743D01*
X161504Y176854D02*
X163282D01*
X162393Y175965D02*
Y177743D01*
X166584Y176854D02*
X168362D01*
X167473Y175965D02*
Y177743D01*
X161504Y184854D02*
X163282D01*
X162393Y183965D02*
Y185743D01*
X166584Y184854D02*
X168362D01*
X167473Y183965D02*
Y185743D01*
X161504Y190854D02*
X163282D01*
X162393Y189965D02*
Y191743D01*
X166584Y190854D02*
X168362D01*
X167473Y189965D02*
Y191743D01*
X161571Y200174D02*
X163349D01*
X162460Y199285D02*
Y201063D01*
X166651Y200174D02*
X168429D01*
X167540Y199285D02*
Y201063D01*
X161571Y206174D02*
X163349D01*
X162460Y205285D02*
Y207063D01*
X166651Y206174D02*
X168429D01*
X167540Y205285D02*
Y207063D01*
X161571Y214174D02*
X163349D01*
X162460Y213285D02*
Y215063D01*
X166651Y214174D02*
X168429D01*
X167540Y213285D02*
Y215063D01*
X161571Y220174D02*
X163349D01*
X162460Y219285D02*
Y221063D01*
X166651Y220174D02*
X168429D01*
X167540Y219285D02*
Y221063D01*
X161561Y261823D02*
X163339D01*
X162450Y260934D02*
Y262712D01*
X166641Y261823D02*
X168419D01*
X167530Y260934D02*
Y262712D01*
X161561Y267823D02*
X163339D01*
X162450Y266934D02*
Y268712D01*
X166641Y267823D02*
X168419D01*
X167530Y266934D02*
Y268712D01*
X161561Y275823D02*
X163339D01*
X162450Y274934D02*
Y276712D01*
X166641Y275823D02*
X168419D01*
X167530Y274934D02*
Y276712D01*
X161561Y281823D02*
X163339D01*
X162450Y280934D02*
Y282712D01*
X166641Y281823D02*
X168419D01*
X167530Y280934D02*
Y282712D01*
X161613Y232498D02*
X163391D01*
X162502Y231609D02*
Y233387D01*
X166693Y232498D02*
X168471D01*
X167582Y231609D02*
Y233387D01*
X161613Y238498D02*
X163391D01*
X162502Y237609D02*
Y239387D01*
X166693Y238498D02*
X168471D01*
X167582Y237609D02*
Y239387D01*
X161613Y246498D02*
X163391D01*
X162502Y245609D02*
Y247387D01*
X166693Y246498D02*
X168471D01*
X167582Y245609D02*
Y247387D01*
X161613Y252498D02*
X163391D01*
X162502Y251609D02*
Y253387D01*
X166693Y252498D02*
X168471D01*
X167582Y251609D02*
Y253387D01*
X66420Y198815D02*
X67520D01*
X66970Y198265D02*
Y199365D01*
X63880Y198815D02*
X64980D01*
X64430Y198265D02*
Y199365D01*
X58800Y198815D02*
X59900D01*
X59350Y198265D02*
Y199365D01*
X68960Y198815D02*
X70060D01*
X69510Y198265D02*
Y199365D01*
X71500Y198815D02*
X72600D01*
X72050Y198265D02*
Y199365D01*
X61340Y198815D02*
X62440D01*
X61890Y198265D02*
Y199365D01*
X56260Y198815D02*
X57360D01*
X56810Y198265D02*
Y199365D01*
X53720Y198815D02*
X54820D01*
X54270Y198265D02*
Y199365D01*
X51180Y198815D02*
X52280D01*
X51730Y198265D02*
Y199365D01*
X30860Y198815D02*
X31960D01*
X31410Y198265D02*
Y199365D01*
X33400Y198815D02*
X34500D01*
X33950Y198265D02*
Y199365D01*
X41020Y198815D02*
X42120D01*
X41570Y198265D02*
Y199365D01*
X35940Y198815D02*
X37040D01*
X36490Y198265D02*
Y199365D01*
X43560Y198815D02*
X44660D01*
X44110Y198265D02*
Y199365D01*
X38480Y198815D02*
X39580D01*
X39030Y198265D02*
Y199365D01*
X46100Y198815D02*
X47200D01*
X46650Y198265D02*
Y199365D01*
X28320Y198815D02*
X29420D01*
X28870Y198265D02*
Y199365D01*
X48640Y198815D02*
X49740D01*
X49190Y198265D02*
Y199365D01*
X66360Y148815D02*
X67460D01*
X66910Y148265D02*
Y149365D01*
X63820Y148815D02*
X64920D01*
X64370Y148265D02*
Y149365D01*
X58740Y148815D02*
X59840D01*
X59290Y148265D02*
Y149365D01*
X68900Y148815D02*
X70000D01*
X69450Y148265D02*
Y149365D01*
X71440Y148815D02*
X72540D01*
X71990Y148265D02*
Y149365D01*
X61280Y148815D02*
X62380D01*
X61830Y148265D02*
Y149365D01*
X56200Y148815D02*
X57300D01*
X56750Y148265D02*
Y149365D01*
X53660Y148815D02*
X54760D01*
X54210Y148265D02*
Y149365D01*
X51120Y148815D02*
X52220D01*
X51670Y148265D02*
Y149365D01*
X30800Y148815D02*
X31900D01*
X31350Y148265D02*
Y149365D01*
X33340Y148815D02*
X34440D01*
X33890Y148265D02*
Y149365D01*
X40960Y148815D02*
X42060D01*
X41510Y148265D02*
Y149365D01*
X35880Y148815D02*
X36980D01*
X36430Y148265D02*
Y149365D01*
X43500Y148815D02*
X44600D01*
X44050Y148265D02*
Y149365D01*
X38420Y148815D02*
X39520D01*
X38970Y148265D02*
Y149365D01*
X46040Y148815D02*
X47140D01*
X46590Y148265D02*
Y149365D01*
X28260Y148815D02*
X29360D01*
X28810Y148265D02*
Y149365D01*
X48580Y148815D02*
X49680D01*
X49130Y148265D02*
Y149365D01*
X141574Y57725D02*
X142574D01*
X142074Y57225D02*
Y58225D01*
X136499Y57650D02*
X137499D01*
X136999Y57150D02*
Y58150D01*
X136499Y71664D02*
X137499D01*
X136999Y71164D02*
Y72164D01*
X141574Y71739D02*
X142574D01*
X142074Y71239D02*
Y72239D01*
X141414Y87735D02*
X142414D01*
X141914Y87235D02*
Y88235D01*
X136339Y87660D02*
X137339D01*
X136839Y87160D02*
Y88160D01*
X141414Y101475D02*
X142414D01*
X141914Y100975D02*
Y101975D01*
X136339Y101400D02*
X137339D01*
X136839Y100900D02*
Y101900D01*
X142174Y148609D02*
X143174D01*
X142674Y148109D02*
Y149109D01*
X137099Y148534D02*
X138099D01*
X137599Y148034D02*
Y149034D01*
X142394Y162509D02*
X143394D01*
X142894Y162009D02*
Y163009D01*
X137319Y162434D02*
X138319D01*
X137819Y161934D02*
Y162934D01*
X141556Y119499D02*
X142556D01*
X142056Y118999D02*
Y119999D01*
X136481Y119424D02*
X137481D01*
X136981Y118924D02*
Y119924D01*
X141556Y133389D02*
X142556D01*
X142056Y132889D02*
Y133889D01*
X136481Y133314D02*
X137481D01*
X136981Y132814D02*
Y133814D01*
X172099Y47455D02*
X173049D01*
X172574Y46980D02*
Y47930D01*
X172099Y53465D02*
X173049D01*
X172574Y52990D02*
Y53940D01*
X172099Y61445D02*
X173049D01*
X172574Y60970D02*
Y61920D01*
X172099Y67465D02*
X173049D01*
X172574Y66990D02*
Y67940D01*
X171939Y76685D02*
X172889D01*
X172414Y76210D02*
Y77160D01*
X171939Y82765D02*
X172889D01*
X172414Y82290D02*
Y83240D01*
X171939Y91055D02*
X172889D01*
X172414Y90580D02*
Y91530D01*
X171939Y96875D02*
X172889D01*
X172414Y96400D02*
Y97350D01*
X172079Y138629D02*
X173029D01*
X172554Y138154D02*
Y139104D01*
X172079Y144579D02*
X173029D01*
X172554Y144104D02*
Y145054D01*
X172079Y152579D02*
X173029D01*
X172554Y152104D02*
Y153054D01*
X172079Y158639D02*
X173029D01*
X172554Y158164D02*
Y159114D01*
X172011Y109149D02*
X172961D01*
X172486Y108674D02*
Y109624D01*
X172011Y115109D02*
X172961D01*
X172486Y114634D02*
Y115584D01*
X172011Y123149D02*
X172961D01*
X172486Y122674D02*
Y123624D01*
X172011Y129149D02*
X172961D01*
X172486Y128674D02*
Y129624D01*
X161645Y47465D02*
X163423D01*
X162534Y46576D02*
Y48354D01*
X166725Y47465D02*
X168503D01*
X167614Y46576D02*
Y48354D01*
X161645Y53465D02*
X163423D01*
X162534Y52576D02*
Y54354D01*
X166725Y53465D02*
X168503D01*
X167614Y52576D02*
Y54354D01*
X166725Y61465D02*
X168503D01*
X167614Y60576D02*
Y62354D01*
X161645Y61465D02*
X163423D01*
X162534Y60576D02*
Y62354D01*
X166725Y67465D02*
X168503D01*
X167614Y66576D02*
Y68354D01*
X161645Y67465D02*
X163423D01*
X162534Y66576D02*
Y68354D01*
X161595Y76855D02*
X163373D01*
X162484Y75966D02*
Y77744D01*
X166675Y76855D02*
X168453D01*
X167564Y75966D02*
Y77744D01*
X161485Y82985D02*
X163263D01*
X162374Y82096D02*
Y83874D01*
X166565Y82985D02*
X168343D01*
X167454Y82096D02*
Y83874D01*
X161485Y90985D02*
X163263D01*
X162374Y90096D02*
Y91874D01*
X166565Y90985D02*
X168343D01*
X167454Y90096D02*
Y91874D01*
X161485Y96985D02*
X163263D01*
X162374Y96096D02*
Y97874D01*
X166565Y96985D02*
X168343D01*
X167454Y96096D02*
Y97874D01*
X161625Y138579D02*
X163403D01*
X162514Y137690D02*
Y139468D01*
X166705Y138579D02*
X168483D01*
X167594Y137690D02*
Y139468D01*
X161625Y144579D02*
X163403D01*
X162514Y143690D02*
Y145468D01*
X166705Y144579D02*
X168483D01*
X167594Y143690D02*
Y145468D01*
X161625Y152579D02*
X163403D01*
X162514Y151690D02*
Y153468D01*
X166705Y152579D02*
X168483D01*
X167594Y151690D02*
Y153468D01*
X161625Y158579D02*
X163403D01*
X162514Y157690D02*
Y159468D01*
X166705Y158579D02*
X168483D01*
X167594Y157690D02*
Y159468D01*
X161557Y109149D02*
X163335D01*
X162446Y108260D02*
Y110038D01*
X166637Y109149D02*
X168415D01*
X167526Y108260D02*
Y110038D01*
X161557Y115149D02*
X163335D01*
X162446Y114260D02*
Y116038D01*
X166637Y115149D02*
X168415D01*
X167526Y114260D02*
Y116038D01*
X161557Y123149D02*
X163335D01*
X162446Y122260D02*
Y124038D01*
X166637Y123149D02*
X168415D01*
X167526Y122260D02*
Y124038D01*
X161557Y129149D02*
X163335D01*
X162446Y128260D02*
Y130038D01*
X166637Y129149D02*
X168415D01*
X167526Y128260D02*
Y130038D01*
X49636Y90534D02*
X50586D01*
X50111Y90059D02*
Y91009D01*
X48905Y98269D02*
X49855D01*
X49380Y97794D02*
Y98744D01*
X18975Y95125D02*
X19925D01*
X19450Y94650D02*
Y95600D01*
X10615Y98319D02*
X11565D01*
X11090Y97844D02*
Y98794D01*
X8850Y122500D02*
X10150D01*
X9500Y121850D02*
Y123150D01*
X8850Y127500D02*
X10150D01*
X9500Y126850D02*
Y128150D01*
X48600Y248815D02*
X49700D01*
X49150Y248265D02*
Y249365D01*
X28280Y248815D02*
X29380D01*
X28830Y248265D02*
Y249365D01*
X46060Y248815D02*
X47160D01*
X46610Y248265D02*
Y249365D01*
X38440Y248815D02*
X39540D01*
X38990Y248265D02*
Y249365D01*
X43520Y248815D02*
X44620D01*
X44070Y248265D02*
Y249365D01*
X35900Y248815D02*
X37000D01*
X36450Y248265D02*
Y249365D01*
X40980Y248815D02*
X42080D01*
X41530Y248265D02*
Y249365D01*
X33360Y248815D02*
X34460D01*
X33910Y248265D02*
Y249365D01*
X30820Y248815D02*
X31920D01*
X31370Y248265D02*
Y249365D01*
X51140Y248815D02*
X52240D01*
X51690Y248265D02*
Y249365D01*
X53680Y248815D02*
X54780D01*
X54230Y248265D02*
Y249365D01*
X56220Y248815D02*
X57320D01*
X56770Y248265D02*
Y249365D01*
X61300Y248815D02*
X62400D01*
X61850Y248265D02*
Y249365D01*
X71460Y248815D02*
X72560D01*
X72010Y248265D02*
Y249365D01*
X68920Y248815D02*
X70020D01*
X69470Y248265D02*
Y249365D01*
X58760Y248815D02*
X59860D01*
X59310Y248265D02*
Y249365D01*
X63840Y248815D02*
X64940D01*
X64390Y248265D02*
Y249365D01*
X66380Y248815D02*
X67480D01*
X66930Y248265D02*
Y249365D01*
X48690Y274815D02*
X49790D01*
X49240Y274265D02*
Y275365D01*
X28370Y274815D02*
X29470D01*
X28920Y274265D02*
Y275365D01*
X46150Y274815D02*
X47250D01*
X46700Y274265D02*
Y275365D01*
X38530Y274815D02*
X39630D01*
X39080Y274265D02*
Y275365D01*
X43610Y274815D02*
X44710D01*
X44160Y274265D02*
Y275365D01*
X35990Y274815D02*
X37090D01*
X36540Y274265D02*
Y275365D01*
X41070Y274815D02*
X42170D01*
X41620Y274265D02*
Y275365D01*
X33450Y274815D02*
X34550D01*
X34000Y274265D02*
Y275365D01*
X30910Y274815D02*
X32010D01*
X31460Y274265D02*
Y275365D01*
X51230Y274815D02*
X52330D01*
X51780Y274265D02*
Y275365D01*
X53770Y274815D02*
X54870D01*
X54320Y274265D02*
Y275365D01*
X56310Y274815D02*
X57410D01*
X56860Y274265D02*
Y275365D01*
X61390Y274815D02*
X62490D01*
X61940Y274265D02*
Y275365D01*
X71550Y274815D02*
X72650D01*
X72100Y274265D02*
Y275365D01*
X69010Y274815D02*
X70110D01*
X69560Y274265D02*
Y275365D01*
X58850Y274815D02*
X59950D01*
X59400Y274265D02*
Y275365D01*
X63930Y274815D02*
X65030D01*
X64480Y274265D02*
Y275365D01*
X66470Y274815D02*
X67570D01*
X67020Y274265D02*
Y275365D01*
X33355Y103699D02*
X34305D01*
X33830Y103224D02*
Y104174D01*
X105125Y211800D02*
X105425D01*
X105275Y211650D02*
Y211950D01*
X105100Y88555D02*
X105400D01*
X105250Y88405D02*
Y88705D01*
X105100Y60205D02*
X105400D01*
X105250Y60055D02*
Y60355D01*
X88250Y244095D02*
X88550D01*
X88400Y243945D02*
Y244245D01*
X105375Y244050D02*
X105675D01*
X105525Y243900D02*
Y244200D01*
X88250Y208795D02*
X88550D01*
X88400Y208645D02*
Y208945D01*
X88250Y183013D02*
X88550D01*
X88400Y182863D02*
Y183163D01*
X105175Y181925D02*
X105475D01*
X105325Y181775D02*
Y182075D01*
X88250Y157119D02*
X88550D01*
X88400Y156969D02*
Y157269D01*
X105825Y150125D02*
X106125D01*
X105975Y149975D02*
Y150275D01*
X88250Y120808D02*
X88550D01*
X88400Y120658D02*
Y120958D01*
X106030Y120824D02*
X106330D01*
X106180Y120674D02*
Y120974D01*
X136606Y14125D02*
X136906D01*
X136756Y13975D02*
Y14275D01*
X84575Y282150D02*
X85075D01*
X84825Y281900D02*
Y282400D01*
X88200Y274550D02*
X88600D01*
X88400Y274350D02*
Y274750D01*
X130700Y286325D02*
X131200D01*
X130950Y286075D02*
Y286575D01*
X124775Y30125D02*
X125075D01*
X124925Y29975D02*
Y30275D01*
X124775Y38050D02*
X125075D01*
X124925Y37900D02*
Y38200D01*
X177343Y21294D02*
X177643D01*
X177493Y21144D02*
Y21444D01*
X121425Y36825D02*
X121925D01*
X121675Y36575D02*
Y37075D01*
X78580Y29455D02*
X79080D01*
X78830Y29205D02*
Y29705D01*
X82705Y42375D02*
X83005D01*
X82855Y42225D02*
Y42525D01*
X80000Y42375D02*
X80300D01*
X80150Y42225D02*
Y42525D01*
X138325Y15200D02*
X138625D01*
X138475Y15050D02*
Y15350D01*
X146675Y29712D02*
X146975D01*
X146825Y29562D02*
Y29862D01*
X155787Y28504D02*
X156087D01*
X155937Y28354D02*
Y28654D01*
X150672Y27172D02*
X150972D01*
X150822Y27022D02*
Y27322D01*
X146675Y28500D02*
X146975D01*
X146825Y28350D02*
Y28650D01*
X152442Y27250D02*
X152742D01*
X152592Y27100D02*
Y27400D01*
X130153Y23115D02*
X130453D01*
X130303Y22965D02*
Y23265D01*
X66400Y87375D02*
X67400D01*
X66900Y86875D02*
Y87875D01*
X89975Y65350D02*
X90275D01*
X90125Y65200D02*
Y65500D01*
X76000Y51375D02*
X76300D01*
X76150Y51225D02*
Y51525D01*
X74925Y52375D02*
X75225D01*
X75075Y52225D02*
Y52525D01*
X73925Y53325D02*
X74225D01*
X74075Y53175D02*
Y53475D01*
X71150Y57000D02*
X71450D01*
X71300Y56850D02*
Y57150D01*
X78580Y41110D02*
X79080D01*
X78830Y40860D02*
Y41360D01*
X93200Y114600D02*
X93500D01*
X93350Y114450D02*
Y114750D01*
X94750Y175625D02*
X95050D01*
X94900Y175475D02*
Y175775D01*
X53525Y54100D02*
X53825D01*
X53675Y53950D02*
Y54250D01*
X34357Y50007D02*
X34657D01*
X34507Y49857D02*
Y50157D01*
X95600Y237750D02*
X95900D01*
X95750Y237600D02*
Y237900D01*
X105425Y274603D02*
X105825D01*
X105625Y274403D02*
Y274803D01*
X99195Y96125D02*
X99495D01*
X99345Y95975D02*
Y96275D01*
X112931Y206949D02*
X113431D01*
X113181Y206699D02*
Y207199D01*
X102445Y218700D02*
X102745D01*
X102595Y218550D02*
Y218850D01*
X111400Y187125D02*
X111900D01*
X111650Y186875D02*
Y187375D01*
X109450Y187650D02*
X109750D01*
X109600Y187500D02*
Y187800D01*
X112875Y90125D02*
X113375D01*
X113125Y89875D02*
Y90375D01*
X112907Y93848D02*
X113407D01*
X113157Y93598D02*
Y94098D01*
X112909Y115959D02*
X113409D01*
X113159Y115709D02*
Y116209D01*
X112900Y83750D02*
X113400D01*
X113150Y83500D02*
Y84000D01*
X112900Y122300D02*
X113400D01*
X113150Y122050D02*
Y122550D01*
X113025Y127000D02*
X113325D01*
X113175Y126850D02*
Y127150D01*
X112925Y145300D02*
X113425D01*
X113175Y145050D02*
Y145550D01*
X112912Y151614D02*
X113412D01*
X113162Y151364D02*
Y151864D01*
X112875Y213350D02*
X113375D01*
X113125Y213100D02*
Y213600D01*
X112900Y218825D02*
X113400D01*
X113150Y218575D02*
Y219075D01*
X112950Y245550D02*
X113450D01*
X113200Y245300D02*
Y245800D01*
X112900Y239225D02*
X113400D01*
X113150Y238975D02*
Y239475D01*
X112975Y252475D02*
X113475D01*
X113225Y252225D02*
Y252725D01*
X112975Y276100D02*
X113475D01*
X113225Y275850D02*
Y276350D01*
X113004Y269788D02*
X113504D01*
X113254Y269538D02*
Y270038D01*
X96225Y216950D02*
X96525D01*
X96375Y216800D02*
Y217100D01*
X112900Y156000D02*
X113400D01*
X113150Y155750D02*
Y156250D01*
X112912Y176998D02*
X113412D01*
X113162Y176748D02*
Y177248D01*
X111950Y246825D02*
X112250D01*
X112100Y246675D02*
Y246975D01*
X112948Y55500D02*
X113448D01*
X113198Y55250D02*
Y55750D01*
X71325Y44925D02*
X71625D01*
X71475Y44775D02*
Y45075D01*
X34087Y47625D02*
X34387D01*
X34237Y47475D02*
Y47775D01*
X33357Y52407D02*
X33657D01*
X33507Y52257D02*
Y52557D01*
X32582Y51125D02*
X32882D01*
X32732Y50975D02*
Y51275D01*
X37000Y51125D02*
X37300D01*
X37150Y50975D02*
Y51275D01*
X33857Y31275D02*
X34157D01*
X34007Y31125D02*
Y31425D01*
X26800Y53875D02*
X27100D01*
X26950Y53725D02*
Y54025D01*
X28122Y54675D02*
X28422D01*
X28272Y54525D02*
Y54825D01*
X39550Y71125D02*
X40050D01*
X39800Y70875D02*
Y71375D01*
X39525Y66800D02*
X40025D01*
X39775Y66550D02*
Y67050D01*
X35550Y27175D02*
X35850D01*
X35700Y27025D02*
Y27325D01*
X36300Y25550D02*
X36600D01*
X36450Y25400D02*
Y25700D01*
X56125Y38425D02*
X56425D01*
X56275Y38275D02*
Y38575D01*
X38350Y27850D02*
X38650D01*
X38500Y27700D02*
Y28000D01*
X37857Y23299D02*
X38157D01*
X38007Y23149D02*
Y23449D01*
X34300Y30250D02*
X34600D01*
X34450Y30100D02*
Y30400D01*
X25282Y34000D02*
X25582D01*
X25432Y33850D02*
Y34150D01*
X49600Y10675D02*
X49900D01*
X49750Y10525D02*
Y10825D01*
X102725Y12250D02*
X103025D01*
X102875Y12100D02*
Y12400D01*
X51800Y10455D02*
X52100D01*
X51950Y10305D02*
Y10605D01*
X25292Y18060D02*
X25592D01*
X25442Y17910D02*
Y18210D01*
X22800Y19520D02*
X23100D01*
X22950Y19370D02*
Y19670D01*
X28125Y35728D02*
X28425D01*
X28275Y35578D02*
Y35878D01*
X24150Y34000D02*
X24450D01*
X24300Y33850D02*
Y34150D01*
X31476Y32598D02*
X31776D01*
X31626Y32448D02*
Y32748D01*
X26297Y29732D02*
X26597D01*
X26447Y29582D02*
Y29882D01*
X22800Y34000D02*
X23100D01*
X22950Y33850D02*
Y34150D01*
X101825Y6685D02*
X102125D01*
X101975Y6535D02*
Y6835D01*
X108000Y5955D02*
X108300D01*
X108150Y5805D02*
Y6105D01*
X94800Y9175D02*
X95100D01*
X94950Y9025D02*
Y9325D01*
X91525Y8290D02*
X91825D01*
X91675Y8140D02*
Y8440D01*
X22925Y15075D02*
X23225D01*
X23075Y14925D02*
Y15225D01*
X18075Y14975D02*
X18375D01*
X18225Y14825D02*
Y15125D01*
X111955Y5317D02*
X112255D01*
X112105Y5167D02*
Y5467D01*
X15582Y20221D02*
X15882D01*
X15732Y20071D02*
Y20371D01*
X14507Y20221D02*
X14807D01*
X14657Y20071D02*
Y20371D01*
X16732Y20246D02*
X17032D01*
X16882Y20096D02*
Y20396D01*
X19260Y35400D02*
X19560D01*
X19410Y35250D02*
Y35550D01*
X19075Y36582D02*
X19375D01*
X19225Y36432D02*
Y36732D01*
X19075Y37975D02*
X19375D01*
X19225Y37825D02*
Y38125D01*
X19075Y39287D02*
X19375D01*
X19225Y39137D02*
Y39437D01*
X104010Y20150D02*
X104310D01*
X104160Y20000D02*
Y20300D01*
X110363Y5225D02*
X110662D01*
X110512Y5075D02*
Y5375D01*
X113500Y6075D02*
X113800D01*
X113650Y5925D02*
Y6225D01*
X21600Y34050D02*
X21900D01*
X21750Y33900D02*
Y34200D01*
X9825Y30225D02*
X10125D01*
X9975Y30075D02*
Y30375D01*
X10975Y35725D02*
X11275D01*
X11125Y35575D02*
Y35875D01*
X13125Y37075D02*
X13425D01*
X13275Y36925D02*
Y37225D01*
X9525Y32850D02*
X9825D01*
X9675Y32700D02*
Y33000D01*
X24700Y43925D02*
X25000D01*
X24850Y43775D02*
Y44075D01*
X18965Y20246D02*
X19265D01*
X19115Y20096D02*
Y20396D01*
X19945Y20250D02*
X20245D01*
X20095Y20100D02*
Y20400D01*
X20925Y20250D02*
X21225D01*
X21075Y20100D02*
Y20400D01*
X19275Y34175D02*
X19575D01*
X19425Y34025D02*
Y34325D01*
X20400Y34050D02*
X20700D01*
X20550Y33900D02*
Y34200D01*
X30257Y29482D02*
X30557D01*
X30407Y29332D02*
Y29632D01*
X29350Y28800D02*
X29650D01*
X29500Y28650D02*
Y28950D01*
X115100Y20150D02*
X115400D01*
X115250Y20000D02*
Y20300D01*
X113500Y20185D02*
X113800D01*
X113650Y20035D02*
Y20335D01*
X111955Y20185D02*
X112255D01*
X112105Y20035D02*
Y20335D01*
X110325Y20150D02*
X110625D01*
X110475Y20000D02*
Y20300D01*
X108815Y20150D02*
X109115D01*
X108965Y20000D02*
Y20300D01*
X107225Y20150D02*
X107525D01*
X107375Y20000D02*
Y20300D01*
X105555Y20150D02*
X105855D01*
X105705Y20000D02*
Y20300D01*
X87470Y20451D02*
X87770D01*
X87620Y20301D02*
Y20601D01*
X85915Y20433D02*
X86215D01*
X86065Y20283D02*
Y20583D01*
X89141Y20434D02*
X89441D01*
X89291Y20284D02*
Y20584D01*
X90746Y20433D02*
X91046D01*
X90896Y20283D02*
Y20583D01*
X92291Y20433D02*
X92591D01*
X92441Y20283D02*
Y20583D01*
X93850Y20433D02*
X94150D01*
X94000Y20283D02*
Y20583D01*
X106543Y240700D02*
X106843D01*
X106693Y240550D02*
Y240850D01*
X92325Y65925D02*
X92625D01*
X92475Y65775D02*
Y66075D01*
X93320Y94500D02*
X93620D01*
X93470Y94350D02*
Y94650D01*
X98430Y67650D02*
X98730D01*
X98580Y67500D02*
Y67800D01*
X101720Y187275D02*
X102020D01*
X101870Y187125D02*
Y187425D01*
X113110Y184700D02*
X113410D01*
X113260Y184550D02*
Y184850D01*
X95520Y188877D02*
X95820D01*
X95670Y188727D02*
Y189027D01*
X99925Y156425D02*
X100225D01*
X100075Y156275D02*
Y156575D01*
X100775Y126775D02*
X101075D01*
X100925Y126625D02*
Y126925D01*
X94025Y154275D02*
X94325D01*
X94175Y154125D02*
Y154425D01*
X94780Y123600D02*
X95080D01*
X94930Y123450D02*
Y123750D01*
X107850Y123600D02*
X108350D01*
X108100Y123350D02*
Y123850D01*
X113048Y63120D02*
X113348D01*
X113198Y62970D02*
Y63270D01*
X110575Y62685D02*
X111075D01*
X110825Y62435D02*
Y62935D01*
X109575Y277400D02*
X109875D01*
X109725Y277250D02*
Y277550D01*
X110875Y249403D02*
X111175D01*
X111025Y249253D02*
Y249553D01*
X21800Y64800D02*
X22100D01*
X21950Y64650D02*
Y64950D01*
X114384Y36420D02*
X114684D01*
X114534Y36270D02*
Y36570D01*
X112765Y36420D02*
X113065D01*
X112915Y36270D02*
Y36570D01*
X111075Y36420D02*
X111375D01*
X111225Y36270D02*
Y36570D01*
X109430Y36420D02*
X109730D01*
X109580Y36270D02*
Y36570D01*
X107820Y36420D02*
X108120D01*
X107970Y36270D02*
Y36570D01*
X106120Y36405D02*
X106420D01*
X106270Y36255D02*
Y36555D01*
X104606Y36420D02*
X104906D01*
X104756Y36270D02*
Y36570D01*
X103020Y36420D02*
X103320D01*
X103170Y36270D02*
Y36570D01*
X94170Y36961D02*
X94470D01*
X94320Y36811D02*
Y37111D01*
X92600Y36961D02*
X92900D01*
X92750Y36811D02*
Y37111D01*
X91081Y36961D02*
X91381D01*
X91231Y36811D02*
Y37111D01*
X89545Y36961D02*
X89845D01*
X89695Y36811D02*
Y37111D01*
X88045Y36961D02*
X88345D01*
X88195Y36811D02*
Y37111D01*
X86535Y36961D02*
X86835D01*
X86685Y36811D02*
Y37111D01*
X84980Y36961D02*
X85280D01*
X85130Y36811D02*
Y37111D01*
X83467Y36961D02*
X83767D01*
X83617Y36811D02*
Y37111D01*
X28375Y45275D02*
X28775D01*
X28575Y45075D02*
Y45475D01*
X44837Y45096D02*
X45237D01*
X45037Y44896D02*
Y45296D01*
X32475Y38576D02*
X32875D01*
X32675Y38376D02*
Y38776D01*
X1125Y19000D02*
X1625D01*
X1375Y18750D02*
Y19250D01*
X42904Y33670D02*
X43304D01*
X43104Y33470D02*
Y33870D01*
X33777Y35311D02*
X34077D01*
X33927Y35161D02*
Y35461D01*
X48785Y80375D02*
X49285D01*
X49035Y80125D02*
Y80625D01*
X46350Y66775D02*
X46650D01*
X46500Y66625D02*
Y66925D01*
X46340Y53385D02*
X46640D01*
X46490Y53235D02*
Y53535D01*
X19100Y144350D02*
X19600D01*
X19350Y144100D02*
Y144600D01*
X129843Y132724D02*
X130343D01*
X130093Y132474D02*
Y132974D01*
X63450Y88025D02*
X64450D01*
X63950Y87525D02*
Y88525D01*
X71675Y96300D02*
X72675D01*
X72175Y95800D02*
Y96800D01*
X75575Y96550D02*
X76575D01*
X76075Y96050D02*
Y97050D01*
X78400Y131875D02*
X79400D01*
X78900Y131375D02*
Y132375D01*
X81475Y130975D02*
X82475D01*
X81975Y130475D02*
Y131475D01*
X58402Y62407D02*
X58702D01*
X58552Y62257D02*
Y62557D01*
X40079Y37694D02*
X40379D01*
X40229Y37544D02*
Y37844D01*
X40842Y36324D02*
X41142D01*
X40992Y36174D02*
Y36474D01*
X37851Y49182D02*
X38151D01*
X38001Y49032D02*
Y49332D01*
X14525Y53275D02*
X15025D01*
X14775Y53025D02*
Y53525D01*
X33164Y42073D02*
X33464D01*
X33314Y41923D02*
Y42223D01*
X34857Y34796D02*
X35157D01*
X35007Y34646D02*
Y34946D01*
X122040Y15226D02*
X122540D01*
X122290Y14976D02*
Y15476D01*
X9050Y93834D02*
X9550D01*
X9300Y93584D02*
Y94084D01*
X32621Y48146D02*
X32921D01*
X32771Y47996D02*
Y48296D01*
X35350Y43950D02*
X35650D01*
X35500Y43800D02*
Y44100D01*
X43970Y43682D02*
X44270D01*
X44120Y43532D02*
Y43832D01*
X181513Y21618D02*
X181813D01*
X181663Y21468D02*
Y21768D01*
X159597Y13492D02*
X159897D01*
X159747Y13342D02*
Y13642D01*
X38703Y30882D02*
X39003D01*
X38853Y30732D02*
Y31032D01*
X24379Y30607D02*
X24679D01*
X24529Y30457D02*
Y30757D01*
X21907Y31682D02*
X22207D01*
X22057Y31532D02*
Y31832D01*
X45647Y24536D02*
X45947D01*
X45797Y24386D02*
Y24686D01*
X47427Y40831D02*
X47827D01*
X47627Y40631D02*
Y41031D01*
X46027Y38777D02*
X46327D01*
X46177Y38627D02*
Y38927D01*
X41225Y46425D02*
X41525D01*
X41375Y46275D02*
Y46575D01*
X40357Y43473D02*
X40657D01*
X40507Y43323D02*
Y43623D01*
X133443Y23362D02*
X133743D01*
X133593Y23212D02*
Y23512D01*
X157057Y21712D02*
X157357D01*
X157207Y21562D02*
Y21862D01*
X163562Y25646D02*
X163862D01*
X163712Y25496D02*
Y25796D01*
X160057Y26632D02*
X160357D01*
X160207Y26482D02*
Y26782D01*
X158347Y26077D02*
X158647D01*
X158497Y25927D02*
Y26227D01*
X39357Y34637D02*
X39657D01*
X39507Y34487D02*
Y34787D01*
X32404Y43076D02*
X32704D01*
X32554Y42926D02*
Y43226D01*
X32410Y49197D02*
X32710D01*
X32560Y49047D02*
Y49347D01*
X133443Y30982D02*
X133743D01*
X133593Y30832D02*
Y31132D01*
X135583Y34157D02*
X135883D01*
X135733Y34007D02*
Y34307D01*
X130883Y32252D02*
X131183D01*
X131033Y32102D02*
Y32402D01*
X131336Y35267D02*
X131636D01*
X131486Y35117D02*
Y35417D01*
X132553Y28442D02*
X132853D01*
X132703Y28292D02*
Y28592D01*
X45775Y83435D02*
X46275D01*
X46025Y83185D02*
Y83685D01*
X11050Y117375D02*
X11550D01*
X11300Y117125D02*
Y117625D01*
X2270Y107709D02*
X2770D01*
X2520Y107459D02*
Y107959D01*
X130650Y75850D02*
X131150D01*
X130900Y75600D02*
Y76100D01*
X130750Y198325D02*
X131250D01*
X131000Y198075D02*
Y198575D01*
X131050Y256900D02*
X131550D01*
X131300Y256650D02*
Y257150D01*
X130850Y260225D02*
X131350D01*
X131100Y259975D02*
Y260475D01*
X130675Y168825D02*
X131175D01*
X130925Y168575D02*
Y169075D01*
X131275Y231025D02*
X131775D01*
X131525Y230775D02*
Y231275D01*
X130725Y224125D02*
X131225D01*
X130975Y223875D02*
Y224375D01*
X81575Y157075D02*
X82575D01*
X82075Y156575D02*
Y157575D01*
X78450Y157200D02*
X79450D01*
X78950Y156700D02*
Y157700D01*
X81575Y178000D02*
X82575D01*
X82075Y177500D02*
Y178500D01*
X78450Y177650D02*
X79450D01*
X78950Y177150D02*
Y178150D01*
X129400Y82275D02*
X129900D01*
X129650Y82025D02*
Y82525D01*
X125150Y99275D02*
X125650D01*
X125400Y99025D02*
Y99525D01*
X130900Y108150D02*
X131400D01*
X131150Y107900D02*
Y108400D01*
X129500Y53280D02*
X130000D01*
X129750Y53030D02*
Y53530D01*
X129200Y46825D02*
X129700D01*
X129450Y46575D02*
Y47075D01*
X129725Y114575D02*
X130225D01*
X129975Y114325D02*
Y114825D01*
X132676Y115734D02*
X133176D01*
X132926Y115484D02*
Y115984D01*
X130850Y137400D02*
X131350D01*
X131100Y137150D02*
Y137650D01*
X129711Y144189D02*
X130211D01*
X129961Y143939D02*
Y144439D01*
X71740Y154100D02*
X72240D01*
X71990Y153850D02*
Y154350D01*
X66675Y155775D02*
X67175D01*
X66925Y155525D02*
Y156025D01*
X28325Y215125D02*
X29325D01*
X28825Y214625D02*
Y215625D01*
X129540Y175254D02*
X130040D01*
X129790Y175004D02*
Y175504D01*
X106325Y56975D02*
X106825D01*
X106575Y56725D02*
Y57225D01*
X107086Y117775D02*
X107386D01*
X107236Y117625D02*
Y117925D01*
X106313Y178650D02*
X106613D01*
X106463Y178500D02*
Y178800D01*
X111375Y126725D02*
X111675D01*
X111525Y126575D02*
Y126875D01*
X78775Y203475D02*
X79275D01*
X79025Y203225D02*
Y203725D01*
X129600Y66225D02*
X130100D01*
X129850Y65975D02*
Y66475D01*
X129125Y71700D02*
X129625D01*
X129375Y71450D02*
Y71950D01*
X129425Y94800D02*
X129925D01*
X129675Y94550D02*
Y95050D01*
X129725Y126725D02*
X130225D01*
X129975Y126475D02*
Y126975D01*
X80125Y201925D02*
X80625D01*
X80375Y201675D02*
Y202175D01*
X129675Y156025D02*
X130175D01*
X129925Y155775D02*
Y156275D01*
X129600Y162325D02*
X130100D01*
X129850Y162075D02*
Y162575D01*
X129475Y204825D02*
X129975D01*
X129725Y204575D02*
Y205075D01*
X130079Y237278D02*
X130579D01*
X130329Y237028D02*
Y237528D01*
X129250Y188000D02*
X129750D01*
X129500Y187750D02*
Y188250D01*
X128850Y193400D02*
X129350D01*
X129100Y193150D02*
Y193650D01*
X129550Y217500D02*
X130050D01*
X129800Y217250D02*
Y217750D01*
X129750Y250300D02*
X130250D01*
X130000Y250050D02*
Y250550D01*
X128886Y268048D02*
X129386D01*
X129136Y267798D02*
Y268298D01*
X129276Y277260D02*
X129776D01*
X129526Y277010D02*
Y277510D01*
X132316Y186934D02*
X132816D01*
X132566Y186684D02*
Y187184D01*
X145498Y173764D02*
X145998D01*
X145748Y173514D02*
Y174014D01*
X145768Y188174D02*
X146268D01*
X146018Y187924D02*
Y188424D01*
X132373Y177069D02*
X132873D01*
X132623Y176819D02*
Y177319D01*
X112993Y183444D02*
X113493D01*
X113243Y183194D02*
Y183694D01*
X132373Y172314D02*
X132873D01*
X132623Y172064D02*
Y172564D01*
X132353Y191504D02*
X132853D01*
X132603Y191254D02*
Y191754D01*
X132600Y202024D02*
X133100D01*
X132850Y201774D02*
Y202274D01*
X132630Y206144D02*
X133130D01*
X132880Y205894D02*
Y206394D01*
X132600Y220444D02*
X133100D01*
X132850Y220194D02*
Y220694D01*
X132580Y216384D02*
X133080D01*
X132830Y216134D02*
Y216634D01*
X146070Y218234D02*
X146570D01*
X146320Y217984D02*
Y218484D01*
X146085Y203823D02*
X146585D01*
X146335Y203573D02*
Y204073D01*
X132722Y253268D02*
X133222D01*
X132972Y253018D02*
Y253518D01*
X132732Y249148D02*
X133232D01*
X132982Y248898D02*
Y249398D01*
X133012Y234678D02*
X133512D01*
X133262Y234428D02*
Y234928D01*
X132972Y238718D02*
X133472D01*
X133222Y238468D02*
Y238968D01*
X146132Y250578D02*
X146632D01*
X146382Y250328D02*
Y250828D01*
X146322Y236158D02*
X146822D01*
X146572Y235908D02*
Y236408D01*
X132410Y282223D02*
X132910D01*
X132660Y281973D02*
Y282473D01*
X132410Y278523D02*
X132910D01*
X132660Y278273D02*
Y278773D01*
X132530Y267913D02*
X133030D01*
X132780Y267663D02*
Y268163D01*
X132520Y264013D02*
X133020D01*
X132770Y263763D02*
Y264263D01*
X146285Y279463D02*
X146785D01*
X146535Y279213D02*
Y279713D01*
X146285Y265843D02*
X146785D01*
X146535Y265593D02*
Y266093D01*
X112948Y61850D02*
X113448D01*
X113198Y61600D02*
Y62100D01*
X132516Y54103D02*
X133016D01*
X132766Y53853D02*
Y54353D01*
X132514Y49422D02*
X133014D01*
X132764Y49172D02*
Y49672D01*
X132365Y69123D02*
X132865D01*
X132615Y68873D02*
Y69373D01*
X132365Y64539D02*
X132865D01*
X132615Y64289D02*
Y64789D01*
X145899Y65359D02*
X146399D01*
X146149Y65109D02*
Y65609D01*
X145899Y51195D02*
X146399D01*
X146149Y50945D02*
Y51445D01*
X132676Y111529D02*
X133176D01*
X132926Y111279D02*
Y111779D01*
X145851Y112969D02*
X146351D01*
X146101Y112719D02*
Y113219D01*
X145886Y127074D02*
X146386D01*
X146136Y126824D02*
Y127324D01*
X132796Y129659D02*
X133296D01*
X133046Y129409D02*
Y129909D01*
X132796Y125199D02*
X133296D01*
X133046Y124949D02*
Y125449D01*
X132824Y158799D02*
X133324D01*
X133074Y158549D02*
Y159049D01*
X132824Y154549D02*
X133324D01*
X133074Y154299D02*
Y154799D01*
X132724Y144989D02*
X133224D01*
X132974Y144739D02*
Y145239D01*
X132794Y140219D02*
X133294D01*
X133044Y139969D02*
Y140469D01*
X146434Y156279D02*
X146934D01*
X146684Y156029D02*
Y156529D01*
X146409Y142564D02*
X146909D01*
X146659Y142314D02*
Y142814D01*
X132309Y83770D02*
X132809D01*
X132559Y83520D02*
Y84020D01*
X132309Y79445D02*
X132809D01*
X132559Y79195D02*
Y79695D01*
X132304Y98135D02*
X132804D01*
X132554Y97885D02*
Y98385D01*
X132324Y93525D02*
X132824D01*
X132574Y93275D02*
Y93775D01*
X146184Y94975D02*
X146684D01*
X146434Y94725D02*
Y95225D01*
X145969Y80170D02*
X146469D01*
X146219Y79920D02*
Y80420D01*
X5490Y118419D02*
X5990D01*
X5740Y118169D02*
Y118669D01*
X36200Y92419D02*
X36700D01*
X36450Y92169D02*
Y92669D01*
X31080Y89979D02*
X31580D01*
X31330Y89729D02*
Y90229D01*
X24685Y79819D02*
X25185D01*
X24935Y79569D02*
Y80069D01*
X27050Y104139D02*
X28050D01*
X27550Y103639D02*
Y104639D01*
%TF.MD5,dbff228fa78db884dd6a2204c8c7fa00*%
M02*
