M48
;Layer_Color=9474304
;FILE_FORMAT=4:3
METRIC,LZ
;TYPE=PLATED
T01F00S00C0.300
T02F00S00C0.400
T03F00S00C0.500
T04F00S00C0.700
T05F00S00C0.800
T06F00S00C0.900
T07F00S00C0.950
T08F00S00C1.000
T09F00S00C1.100
T10F00S00C1.300
T11F00S00C1.778
%
T01
X0018225Y0014975
X0023075Y0015075
X002295Y001952
X0021075Y002025
X0020095
X0019115Y0020246
X0016882
X0015732Y0020221
X0014657
X0009975Y0030225
X0009675Y003285
X0011125Y0035725
X0013275Y0037075
X0019225Y0036582
X001941Y00354
X0019425Y0034175
X002055Y003405
X002175
X002295Y0034
X0022057Y0031682
X0019225Y0037975
Y0039287
X00243Y0034
X0025432
X0024529Y0030607
X0026447Y0029732
X00295Y00288
X0030407Y0029482
X0031626Y0032598
X0034007Y0031275
X003445Y003025
X00357Y0027175
X003645Y002555
X0038007Y0023299
X00385Y002785
X0038853Y0030882
X0039507Y0034637
X0040992Y0036324
X0040229Y0037694
X0046177Y0038777
X0056275Y0038425
X0045797Y0024536
X004975Y0010675
X005195Y0010455
X0025442Y001806
X0028275Y0035728
X0033927Y0035311
X0035007Y0034796
X0083617Y0036961
X008513
X0086685Y0036961
X0088195
X0089695
X0091231
X009275Y0036961
X009432
X0094Y0020433
X0092441
X0090896
X0089291Y0020434
X008762Y0020451
X0086065Y0020433
X0091675Y000829
X009495Y0009175
X0101975Y0006685
X0102875Y001225
X010416Y002015
X0105705Y002015
X0107375Y002015
X0108965
X0110475Y002015
X0112105Y0020185
X011365
X011525Y002015
X011365Y0006075
X0112105Y0005317
X0110512Y0005225
X010815Y0005955
X010797Y003642
X010958
X0111225
X0112915
X0114534
X010627Y0036405
X0104756Y003642
X010317Y003642
X0124925Y003805
Y0030125
X0131033Y0032252
X0131486Y0035267
X0135733Y0034157
X0133593Y0030982
X0132703Y0028442
X0133593Y0023362
X0130303Y0023115
X0136756Y0014125
X0138475Y00152
X0146825Y00285
Y0029712
X0150822Y0027172
X0152592Y002725
X0155937Y0028504
X0158497Y0026077
X0160207Y0026632
X0163712Y0025646
X0157207Y0021712
X0159747Y0013492
X0177493Y0021294
X0181663Y0021618
X0113198Y006312
X010525Y0060205
X009858Y006765
X0092475Y0065925
X0090125Y006535
X00713Y0057
X0074075Y0053325
X0075075Y0052375
X007615Y0051375
X0071475Y0044925
X008015Y0042375
X0082855
X004412Y0043682
X0040507Y0043473
X0041375Y0046425
X0038001Y0049182
X003715Y0051125
X0034507Y0050007
X0034237Y0047625
X0032771Y0048146
X003256Y0049197
X0032732Y0051125
X0033507Y0052407
X0028272Y0054675
X002695Y0053875
X002485Y0043925
X0032554Y0043076
X0033314Y0042073
X00355Y004395
X004649Y0053385
X0053675Y00541
X0058552Y0062407
X00465Y0066775
X002195Y00648
X009347Y00945
X0099345Y0096125
X009335Y01146
X00884Y0120808
X010618Y0120824
X0107236Y0117775
X010525Y0088555
X0111525Y0126725
X0113175Y0127
X0105975Y0150125
X0100075Y0156425
X0094175Y0154275
X00884Y0157119
X009493Y01236
X0100925Y0126775
X00949Y0175625
X00884Y0183013
X009567Y0188877
X010187Y0187275
X01096Y018765
X011326Y01847
X0105325Y0181925
X0106463Y017865
X0105275Y02118
X0102595Y02187
X0096375Y021695
X00884Y0208795
X009575Y023775
X00884Y0244095
X0105525Y024405
X0106693Y02407
X01121Y0246825
X0111025Y0249403
X0109725Y02774
T02
X0032675Y0038576
X0043104Y003367
X0047627Y0040831
X0045037Y0045096
X0028575Y0045275
X00884Y027455
X0105625Y0274603
T03
X0001375Y0019
X007883Y0029455
Y004111
X0121675Y0036825
X012229Y0015226
X0146149Y0051195
Y0065359
X0146219Y008017
X0132559Y0079445
X01309Y007585
X0129375Y00717
X0132615Y0069123
Y0064539
X012985Y0066225
X012975Y005328
X0132766Y0054103
X0132764Y0049422
X012945Y0046825
X0113198Y00555
Y006185
X0110825Y0062685
X0106575Y0056975
X0039775Y00668
X00398Y0071125
X0049035Y0080375
X0024935Y0079819
X0014775Y0053275
X00093Y0093834
X000252Y0107709
X000574Y0118419
X00113Y0117375
X003133Y0089979
X003645Y0092419
X0046025Y0083435
X011315Y008375
X0113125Y0090125
X0113157Y0093848
X0129675Y00948
X0132574Y0093525
X0132554Y0098135
X01254Y0099275
X013115Y010815
X0132926Y0111529
X0132926Y0115734
X0129975Y0114575
X0113159Y0115959
X012965Y0082275
X0132559Y008377
X0146434Y0094975
X0146101Y0112969
X0146136Y0127074
X0146659Y0142564
X0146684Y0156279
X0133074Y0154549
Y0158799
X0129925Y0156025
X0129961Y0144189
X0132974Y0144989
X0133044Y0140219
X01311Y01374
X0130093Y0132724
X0133046Y0129659
Y0125199
X0129975Y0126725
X011315Y01223
X01081Y01236
X0113175Y01453
X0113162Y0151614
X011315Y0156
X007199Y01541
X0066925Y0155775
X001935Y014435
X0113162Y0176998
X0113243Y0183444
X011165Y0187125
X01295Y0188
X0132566Y0186934
X0132603Y0191504
X01291Y01934
X0131Y0198325
X0132623Y0177069
X012979Y0175254
X0132623Y0172314
X0130925Y0168825
X012985Y0162325
X0145748Y0173764
X0146018Y0188174
X0146335Y0203823
X014632Y0218234
X0146572Y0236158
X0133262Y0234678
X0133222Y0238718
X0130329Y0237278
X0131525Y0231025
X0130975Y0224125
X013285Y0220444
X013283Y0216384
X01298Y02175
X0129725Y0204825
X013288Y0206144
X013285Y0202024
X0113181Y0206949
X0113125Y021335
X011315Y0218825
Y0239225
X0079025Y0203475
X0080375Y0201925
X01132Y024555
X0113225Y0252475
X0113254Y0269788
X0113225Y02761
X0129526Y027726
X013266Y0278523
X013278Y0267913
X0129136Y0268048
X013277Y0264013
X01311Y0260225
X01313Y02569
X0132972Y0253268
X0132982Y0249148
X013Y02503
X0146382Y0250578
X0146535Y0265843
Y0279463
X013266Y0282223
X013095Y0286325
X0084825Y028215
T04
X0049737Y0038446
Y0043326
T05
X0064122Y0061561
Y0063561
Y0065561
Y0067561
T06
X0192275Y00189
Y002144
Y002398
Y002652
T07
X0044475Y0022408
X0055948Y0024951
X0055793Y0033754
X0055372Y0016167
X008255Y002108
X0085475Y0013174
X00876Y001165
X0089291Y0013536
X009165Y0011675
X0094Y001435
X0097575Y0015854
X0097325Y002107
X0104125Y0014011
X0107375
X0112105
X011525
X011365Y0010625
X0110512Y0010538
X01082Y00089
X0105675Y00105
X0127375Y0018224
X0132303Y0021628
X0128397Y0032252
X0128125Y0035198
X0148858Y0020002
X0152592
X0162184Y0020027
X0164842Y0012822
X0165876Y0026412
X0173793Y0026418
X0173793Y0019891
X0181023Y0031868
X0184373Y0028158
X0187993Y0025998
Y0019638
X0172574Y0047455
Y0053465
Y0061445
Y0067465
X0172414Y0076685
X0114699Y0066652
X010745Y006595
X004875Y0052421
X0055823Y0043591
X0036475Y0078625
X001945Y0095125
X001109Y0098319
X003383Y0103699
X004938Y0098269
X0050111Y0090534
X0109675Y009445
X0114769Y0094997
X0172414Y0096875
Y0091055
Y0082765
X0172486Y0109149
Y0115109
Y0123149
Y0129149
X0172554Y0138629
Y0144579
Y0152579
Y0158639
X0107875Y01566
X01056Y0154275
X0108303Y0126725
X0105544Y01236
X0107225Y0187275
X011326Y0188834
X0172453Y0190934
Y0184874
X0172433Y0176854
Y0170854
X01725Y0200174
Y0206174
Y0214174
Y0220144
X0172592Y0232498
X0172542Y0238498
X011005Y021695
X0106292Y02187
X0102376Y0247251
X0108225Y0248725
X0104325Y02774
X0173226Y0275823
Y0267823
Y0261823
X0172592Y0252498
X0172502Y0246498
X0173226Y0281823
X0114815Y0280779
T08
X0002082Y0026332
X0004622
X0007162
X0009702
X0012242
X0014782
X0014737Y0039332
X0012197
X0009657
X0007117
X0004577
X0002037
X0028577Y0017496
X0031117
X0033657
X0036197
X0038737
X0041277
X0045947Y0017456
X0048487
X0062842Y0017127
Y0019667
X0062943Y0023487
Y0026027
Y0028567
X0062893Y0032262
Y0034802
Y0037342
X0062917Y0041051
X0062842Y0014587
X0075555Y001471
Y001725
Y001979
Y0023625
Y0026165
Y0028705
Y0032295
Y0034835
Y0037375
Y004111
X0136723Y0018847
X0139263
X0141803
X0144343
X0142074Y0057725
X0136999Y005765
Y0071664
X0142074Y0071739
X0075555Y004619
Y004365
X0062917Y0043591
Y0046131
X0062867Y0049881
Y0052421
Y0054961
X0031828Y0056037
Y0058577
Y0061117
Y0063657
Y0066197
Y0068737
X0024328
Y0066197
Y0063657
Y0061117
Y0058577
Y0056037
X0014747Y0047332
X0012207
X0009667
X0007127
X0004587
X0002047
X002755Y0104139
X0072175Y00963
X0076075Y009655
X00669Y0087375
X006395Y0088025
X0136839Y008766
X0141914Y0087735
Y0101475
X0136839Y01014
X0136981Y0119424
X0142056Y0119499
Y0133389
X0136981Y0133314
X0137599Y0148534
X0142674Y0148609
X0082075Y0157075
X007895Y01572
X00789Y0131875
X0081975Y0130975
X0022475Y0129067
Y0123733
X007895Y017765
X0082075Y0178
X0136188Y0180229
X0141263Y0180304
Y0194774
X0136188Y0194699
X0137819Y0162434
X0142894Y0162509
X014204Y0210203
X0136965Y0210128
X0136995Y0224449
X014207Y0224524
X0028825Y0215125
X0137481Y0242673
X0142556Y0242748
Y0257006
X0137481Y0256931
X0137295Y0271888
X014237Y0271963
Y0285933
X0137295Y0285858
T09
X0048042Y0068807
X0050582
X0053122
X0055662
X0058202
X006437Y0148815
X006691
X006945
X007199
X006183
X005929
X005675
X005421
X005167
X004913
X004659
X004405
X004151
X003897
X003643
X003389
X003135
X002881
X002886Y0174815
X00314
X003394
X003648
X003902
X004156
X00441
X004664
X004918
X005172
X005426
X00568
X005934
X006188
X006189Y0198815
X005935
X005681
X005427
X005173
X004919
X004665
X004411
X004157
X003903
X003649
X003395
X003141
X002887
X006443
X006697
X006951
X007205
X007204Y0174815
X00695
X006696
X006442
X006446Y0224815
X0067
X006954
X007208
X006192
X005938
X005684
X00543
X005176
X004922
X004668
X004414
X00416
X003906
X003652
X003398
X003144
X00289
X002883Y0248815
X003137
X003391
X003645
X003899
X004153
X004407
X004661
X004915
X005169
X005423
X005677
X005931
X006185
X006194Y0274815
X00594
X005686
X005432
X005178
X004924
X00467
X004416
X004162
X003908
X003654
X0034
X003146
X002892
X006448
X006702
X006956
X00721
X007201Y0248815
X006947
X006693
X006439
T10
X0152702Y0003862
X0157702
X0162702
X00095Y01225
Y01275
T11
X0162534Y0047465
X0167614
Y0053465
X0162534
Y0061465
X0167614
Y0067465
X0162534
X0162484Y0076855
X0167564
X0167454Y0082985
X0162374
Y0090985
X0167454
Y0096985
X0162374
X0162446Y0109149
X0167526
Y0115149
X0162446
Y0123149
X0167526
Y0129149
X0162446
X0162514Y0138579
X0167594
Y0144579
X0162514
Y0152579
X0167594
Y0158579
X0162514
X0162393Y0170854
X0167473
Y0176854
X0162393
Y0184854
X0167473
Y0190854
X0162393
X016246Y0200174
X016754
Y0206174
X016246
Y0214174
X016754
Y0220174
X016246
X0162502Y0232498
X0167582
Y0238498
X0162502
Y0246498
X0167582
Y0252498
X0162502
X016245Y0261823
X016753
Y0267823
X016245
Y0275823
X016753
Y0281823
X016245
M30
