%TF.GenerationSoftware,Altium Limited,Altium Designer,24.10.1 (45)*%
G04 Layer_Color=16711935*
%FSLAX43Y43*%
%MOMM*%
%TF.SameCoordinates,766D9AF5-BA92-4156-BEB6-FD46E2A8267A*%
%TF.FilePolarity,Positive*%
%TF.FileFunction,Keep-out,Top*%
%TF.Part,Single*%
G01*
G75*
%TA.AperFunction,NonConductor*%
%ADD81C,0.200*%
%ADD82C,0.254*%
D81*
X195000Y0D02*
G03*
X200000Y5000I0J5000D01*
G01*
X0D02*
G03*
X5000Y0I5000J0D01*
G01*
X200000Y285000D02*
G03*
X195000Y290000I-5000J0D01*
G01*
X121023Y186723D02*
G03*
X118023Y186723I-1500J0D01*
G01*
Y176124D02*
G03*
X121023Y176124I1500J0D01*
G01*
X121030Y216743D02*
G03*
X118030Y216743I-1500J0D01*
G01*
Y206144D02*
G03*
X121030Y206144I1500J0D01*
G01*
X121230Y279532D02*
G03*
X118230Y279532I-1500J0D01*
G01*
Y268933D02*
G03*
X121230Y268933I1500J0D01*
G01*
X121292Y249017D02*
G03*
X118292Y249017I-1500J0D01*
G01*
Y238418D02*
G03*
X121292Y238418I1500J0D01*
G01*
X121094Y65405D02*
G03*
X118094Y65405I-1500J0D01*
G01*
Y54806D02*
G03*
X121094Y54806I1500J0D01*
G01*
X121585Y125643D02*
G03*
X118585Y125643I-1500J0D01*
G01*
Y115044D02*
G03*
X121585Y115044I1500J0D01*
G01*
X121234Y93555D02*
G03*
X118234Y93555I-1500J0D01*
G01*
Y82956D02*
G03*
X121234Y82956I1500J0D01*
G01*
X121334Y155089D02*
G03*
X118334Y155089I-1500J0D01*
G01*
Y144489D02*
G03*
X121334Y144489I1500J0D01*
G01*
X5000Y290000D02*
G03*
X0Y285000I0J-5000D01*
G01*
X5000Y0D02*
X195000Y0D01*
X-0Y5000D02*
X0Y285000D01*
X200000Y5000D02*
X200000Y285000D01*
X118023Y176124D02*
Y186721D01*
X121023Y176124D02*
Y186723D01*
X118030Y206144D02*
Y216740D01*
X121030Y206144D02*
Y216743D01*
X118230Y268933D02*
Y279529D01*
X121230Y268933D02*
Y279532D01*
X118292Y238418D02*
Y249014D01*
X121292Y238418D02*
Y249017D01*
X118094Y54806D02*
Y65402D01*
X121094Y54806D02*
Y65405D01*
X118585Y115044D02*
Y125640D01*
X121585Y115044D02*
Y125643D01*
X118234Y82956D02*
Y93552D01*
X121234Y82956D02*
Y93555D01*
X118334Y144489D02*
Y155086D01*
X121334Y144489D02*
Y155089D01*
X5000Y290000D02*
X195110Y290000D01*
D82*
X197000Y5000D02*
G03*
X197000Y5000I-2000J0D01*
G01*
X7000D02*
G03*
X7000Y5000I-2000J0D01*
G01*
X197000Y285000D02*
G03*
X197000Y285000I-2000J0D01*
G01*
X7000Y145000D02*
G03*
X7000Y145000I-2000J0D01*
G01*
X197000D02*
G03*
X197000Y145000I-2000J0D01*
G01*
X7000Y285000D02*
G03*
X7000Y285000I-2000J0D01*
G01*
%TF.MD5,4960f2c7960d6bf882adca54a3225bba*%
M02*
