%TF.GenerationSoftware,Altium Limited,Altium Designer,24.10.1 (45)*%
G04 Layer_Color=8388736*
%FSLAX43Y43*%
%MOMM*%
%TF.SameCoordinates,766D9AF5-BA92-4156-BEB6-FD46E2A8267A*%
%TF.FilePolarity,Positive*%
%TF.FileFunction,Other,Top_Designator*%
%TF.Part,Single*%
G01*
G75*
%TA.AperFunction,NonConductor*%
%ADD102C,0.150*%
D102*
X23875Y114100D02*
Y112600D01*
X24875D01*
X26125D02*
Y114100D01*
X25375Y113350D01*
X26375D01*
X15370Y102959D02*
X16870D01*
Y103959D01*
X15370Y105459D02*
Y104459D01*
X16120D01*
X15870Y104959D01*
Y105209D01*
X16120Y105459D01*
X16620D01*
X16870Y105209D01*
Y104709D01*
X16620Y104459D01*
X124175Y7075D02*
Y5575D01*
X125175D01*
X125675Y6825D02*
X125925Y7075D01*
X126425D01*
X126675Y6825D01*
Y6575D01*
X126425Y6325D01*
X126175D01*
X126425D01*
X126675Y6075D01*
Y5825D01*
X126425Y5575D01*
X125925D01*
X125675Y5825D01*
X54996Y69557D02*
Y68057D01*
X54247D01*
X53997Y68307D01*
Y68807D01*
X54247Y69057D01*
X54996D01*
X53497Y69557D02*
X52997D01*
X53247D01*
Y68057D01*
X53497Y68307D01*
X52247D02*
X51997Y68057D01*
X51497D01*
X51248Y68307D01*
Y69307D01*
X51497Y69557D01*
X51997D01*
X52247Y69307D01*
Y68307D01*
X157453Y5112D02*
X156953D01*
X157203D01*
Y3862D01*
X156953Y3612D01*
X156703D01*
X156453Y3862D01*
X157952Y4862D02*
X158202Y5112D01*
X158702D01*
X158952Y4862D01*
Y4612D01*
X158702Y4362D01*
X158952Y4112D01*
Y3862D01*
X158702Y3612D01*
X158202D01*
X157952Y3862D01*
Y4112D01*
X158202Y4362D01*
X157952Y4612D01*
Y4862D01*
X158202Y4362D02*
X158702D01*
X54130Y102539D02*
Y101039D01*
X55130D01*
X56630Y102539D02*
X56130Y102289D01*
X55630Y101789D01*
Y101289D01*
X55880Y101039D01*
X56380D01*
X56630Y101289D01*
Y101539D01*
X56380Y101789D01*
X55630D01*
X10210Y81149D02*
X11710D01*
Y82149D01*
X10210Y82649D02*
Y83649D01*
X10460D01*
X11460Y82649D01*
X11710D01*
X10750Y125250D02*
Y125750D01*
Y125500D01*
X9500D01*
X9250Y125750D01*
Y126000D01*
X9500Y126250D01*
Y124750D02*
X9250Y124500D01*
Y124000D01*
X9500Y123750D01*
X10500D01*
X10750Y124000D01*
Y124500D01*
X10500Y124750D01*
X10250D01*
X10000Y124500D01*
Y123750D01*
%TF.MD5,dade1c677ccbfc9d0f9c73059ceae99f*%
M02*
