%TF.GenerationSoftware,Altium Limited,Altium Designer,24.10.1 (45)*%
G04 Layer_Color=8388736*
%FSLAX43Y43*%
%MOMM*%
%TF.SameCoordinates,766D9AF5-BA92-4156-BEB6-FD46E2A8267A*%
%TF.FilePolarity,Positive*%
%TF.FileFunction,Other,Bottom_Component_Center*%
%TF.Part,Single*%
G01*
G75*
%TA.AperFunction,NonConductor*%
%ADD100C,0.100*%
D100*
X150147Y29104D02*
Y30104D01*
X149647Y29604D02*
X150647D01*
X47127Y42476D02*
X48127D01*
X47627Y41976D02*
Y42976D01*
X47127Y39186D02*
X48127D01*
X47627Y38686D02*
Y39686D01*
X157842Y17062D02*
Y18062D01*
X157342Y17562D02*
X158342D01*
X149023Y180014D02*
Y181014D01*
X148523Y180514D02*
X149523D01*
X149293Y194354D02*
Y195354D01*
X148793Y194854D02*
X149793D01*
X149610Y209964D02*
Y210964D01*
X149110Y210464D02*
X150110D01*
X149605Y224119D02*
Y225119D01*
X149105Y224619D02*
X150105D01*
X149310Y272463D02*
X150310D01*
X149810Y271963D02*
Y272963D01*
X149310Y286273D02*
X150310D01*
X149810Y285773D02*
Y286773D01*
X149856Y242238D02*
Y243238D01*
X149356Y242738D02*
X150356D01*
X149172Y257148D02*
X150172D01*
X149672Y256648D02*
Y257648D01*
X149424Y57065D02*
Y58065D01*
X148924Y57565D02*
X149924D01*
X148924Y71975D02*
X149924D01*
X149424Y71475D02*
Y72475D01*
X149524Y86485D02*
Y87485D01*
X149024Y86985D02*
X150024D01*
X149329Y101248D02*
X150329D01*
X149829Y100748D02*
Y101748D01*
X149434Y149059D02*
X150434D01*
X149934Y148559D02*
Y149559D01*
X149434Y162729D02*
X150434D01*
X149934Y162229D02*
Y163229D01*
X148906Y119609D02*
X149906D01*
X149406Y119109D02*
Y120109D01*
X148891Y133525D02*
X149891D01*
X149391Y133025D02*
Y134025D01*
X6980Y101209D02*
Y102209D01*
X6480Y101709D02*
X7480D01*
%TF.MD5,8fed37d844c124f545eeca4593582b4f*%
M02*
