%TF.GenerationSoftware,Altium Limited,Altium Designer,24.10.1 (45)*%
G04 Layer_Color=16711935*
%FSLAX43Y43*%
%MOMM*%
%TF.SameCoordinates,766D9AF5-BA92-4156-BEB6-FD46E2A8267A*%
%TF.FilePolarity,Positive*%
%TF.FileFunction,Other,Mechanical_13*%
%TF.Part,Single*%
G01*
G75*
%TA.AperFunction,NonConductor*%
%ADD100C,0.100*%
%ADD104C,0.000*%
%ADD105C,0.025*%
D100*
X15868Y73542D02*
G03*
X15868Y73542I-500J0D01*
G01*
X96275Y26125D02*
G03*
X96275Y26125I-500J0D01*
G01*
X115975Y25950D02*
G03*
X115975Y25950I-500J0D01*
G01*
X47412Y37536D02*
G03*
X52062Y37536I2325J0D01*
G01*
X51587Y44061D02*
G03*
X47887Y44061I-1850J0D01*
G01*
Y37711D02*
G03*
X51587Y37711I1850J0D01*
G01*
X52062Y44236D02*
G03*
X47412Y44236I-2325J0D01*
G01*
X137593Y23457D02*
G03*
X137593Y23457I-500J0D01*
G01*
X9740Y108909D02*
G03*
X9740Y108909I-500J0D01*
G01*
X78755Y13420D02*
Y21080D01*
X72955D02*
X78755D01*
X72955Y13420D02*
Y21080D01*
Y13420D02*
X78755D01*
X16268Y69042D02*
Y74442D01*
X10868Y69042D02*
Y74442D01*
X16268D01*
X10868Y69042D02*
X16268D01*
X83675Y25225D02*
Y32825D01*
X96675Y25225D02*
Y32825D01*
X83675D02*
X96675D01*
X83675Y25225D02*
X96675D01*
X103375Y25050D02*
Y32650D01*
X116375Y25050D02*
Y32650D01*
X103375D02*
X116375D01*
X103375Y25050D02*
X116375D01*
X44657Y14256D02*
Y20056D01*
X49777D01*
Y14256D02*
Y20056D01*
X44657Y14256D02*
X49777D01*
X181563Y21918D02*
Y23718D01*
X178463Y21918D02*
Y23718D01*
Y21918D02*
X181563D01*
X178463Y23718D02*
X181563D01*
X72955Y39820D02*
X78755D01*
X72955D02*
Y47480D01*
X78755D01*
Y39820D02*
Y47480D01*
X72955Y31005D02*
X78755D01*
X72955D02*
Y38665D01*
X78755D01*
Y31005D02*
Y38665D01*
X72955Y22335D02*
X78755D01*
X72955D02*
Y29995D01*
X78755D01*
Y22335D02*
Y29995D01*
X65872Y59561D02*
Y69561D01*
X61172Y69561D02*
X65872D01*
X61172Y59561D02*
Y69561D01*
Y59561D02*
X65872D01*
X66117Y39761D02*
Y47421D01*
X60317D02*
X66117D01*
X60317Y39761D02*
Y47421D01*
Y39761D02*
X66117D01*
X66067Y48591D02*
Y56251D01*
X60267D02*
X66067D01*
X60267Y48591D02*
Y56251D01*
Y48591D02*
X66067D01*
X51587Y37711D02*
Y44286D01*
X47887Y37711D02*
Y44286D01*
X52062Y37536D02*
Y44236D01*
X47412Y37536D02*
Y44236D01*
X66143Y22197D02*
Y29857D01*
X60343D02*
X66143D01*
X60343Y22197D02*
Y29857D01*
Y22197D02*
X66143D01*
X66042Y13297D02*
Y20957D01*
X60242D02*
X66042D01*
X60242Y13297D02*
Y20957D01*
Y13297D02*
X66042D01*
X66093Y30972D02*
Y38632D01*
X60293D02*
X66093D01*
X60293Y30972D02*
Y38632D01*
Y30972D02*
X66093D01*
X136193Y22557D02*
Y33057D01*
X143793Y22557D02*
Y33057D01*
X136193Y22557D02*
X143793D01*
X136193Y33057D02*
X143793D01*
X109405Y173063D02*
Y176063D01*
X110805Y173063D02*
Y176063D01*
X109405Y173063D02*
X110805D01*
X109405Y176063D02*
X110805D01*
X109775Y235220D02*
Y238220D01*
X111175Y235220D02*
Y238220D01*
X109775Y235220D02*
X111175D01*
X109775Y238220D02*
X111175D01*
X109490Y112075D02*
Y115075D01*
X110890Y112075D02*
Y115075D01*
X109490Y112075D02*
X110890D01*
X109490Y115075D02*
X110890D01*
X106475Y52900D02*
Y55900D01*
X107875Y52900D02*
Y55900D01*
X106475Y52900D02*
X107875D01*
X106475Y55900D02*
X107875D01*
X5140Y108009D02*
X10140D01*
X5140Y112009D02*
X10140D01*
Y108009D02*
Y112009D01*
X5140Y108009D02*
Y112009D01*
D104*
X41351Y43076D02*
G03*
X41351Y43076I-76J0D01*
G01*
D105*
X40491Y44330D02*
X41761Y43060D01*
X31753Y34322D02*
X41761D01*
X31753D02*
Y44330D01*
X41761D01*
Y34322D02*
Y44330D01*
%TF.MD5,cced5705fedba6915296892c45ed64d2*%
M02*
