%TF.GenerationSoftware,Altium Limited,Altium Designer,24.3.1 (35)*%
G04 Layer_Color=16711935*
%FSLAX43Y43*%
%MOMM*%
%TF.SameCoordinates,2EF1D394-34E5-4190-8ABA-250447B0B6E5*%
%TF.FilePolarity,Positive*%
%TF.FileFunction,Other,Top_Courtyard*%
%TF.Part,Single*%
G01*
G75*
%TA.AperFunction,NonConductor*%
%ADD88C,0.200*%
%ADD138C,0.050*%
D88*
X8000Y67125D02*
Y78725D01*
X17000D01*
Y67125D02*
Y78725D01*
X8000Y67125D02*
X17000D01*
X146050Y45625D02*
Y74825D01*
X133150Y45625D02*
X146050D01*
X133150D02*
Y74825D01*
X146050D01*
X184850Y31425D02*
X186750D01*
X184850Y22875D02*
Y31425D01*
Y22875D02*
X186750D01*
Y31425D01*
D138*
X196450Y69100D02*
X197450D01*
X196950Y68600D02*
Y69600D01*
X201900Y63900D02*
Y74300D01*
X192000Y63900D02*
X201900D01*
X192000D02*
Y74300D01*
X201900D01*
X180950Y63900D02*
X190850D01*
Y74300D01*
X180950D02*
X190850D01*
X180950Y63900D02*
Y74300D01*
X185900Y68600D02*
Y69600D01*
X185400Y69100D02*
X186400D01*
X218841Y9450D02*
Y21050D01*
X228241D01*
Y9450D02*
Y21050D01*
X218841Y9450D02*
X228241D01*
X184600Y8925D02*
X185600D01*
X185100Y8425D02*
Y9425D01*
X190050Y3725D02*
Y14125D01*
X180150Y3725D02*
X190050D01*
X180150D02*
Y14125D01*
X190050D01*
X195125Y8925D02*
X196125D01*
X195625Y8425D02*
Y9425D01*
X190675Y3725D02*
Y14125D01*
X200575D01*
Y3725D02*
Y14125D01*
X190675Y3725D02*
X200575D01*
X350Y54625D02*
X9750D01*
X350Y43025D02*
Y54625D01*
Y43025D02*
X9750D01*
Y54625D01*
X375Y36175D02*
X9775D01*
X375Y24575D02*
Y36175D01*
Y24575D02*
X9775D01*
Y36175D01*
X155430Y54500D02*
Y60850D01*
X147070D02*
X155430D01*
X147070Y54500D02*
Y60850D01*
Y54500D02*
X155430D01*
X150750Y57675D02*
X151750D01*
X151250Y57175D02*
Y58175D01*
X218841Y19450D02*
X228241D01*
Y31050D01*
X218841D02*
X228241D01*
X218841Y19450D02*
Y31050D01*
Y29375D02*
X228241D01*
Y40975D01*
X218841D02*
X228241D01*
X218841Y29375D02*
Y40975D01*
%TF.MD5,f7e1450d3ea568c04d2e2270f3c1d412*%
M02*
