%TF.GenerationSoftware,Altium Limited,Altium Designer,24.3.1 (35)*%
G04 Layer_Color=8388736*
%FSLAX43Y43*%
%MOMM*%
%TF.SameCoordinates,2EF1D394-34E5-4190-8ABA-250447B0B6E5*%
%TF.FilePolarity,Positive*%
%TF.FileFunction,Other,Bottom_3D_Body*%
%TF.Part,Single*%
G01*
G75*
%TA.AperFunction,NonConductor*%
%ADD88C,0.200*%
G36*
X153188Y72825D02*
X153189Y72826D01*
X153193Y72829D01*
X153199Y72835D01*
X153208Y72842D01*
X153219Y72850D01*
X153232Y72859D01*
X153246Y72869D01*
X153263Y72879D01*
X153264D01*
X153264Y72880D01*
X153267Y72882D01*
X153270Y72883D01*
X153279Y72888D01*
X153290Y72894D01*
X153303Y72901D01*
X153317Y72908D01*
X153331Y72914D01*
X153345Y72920D01*
Y72843D01*
X153344D01*
X153342Y72842D01*
X153339Y72840D01*
X153334Y72838D01*
X153329Y72835D01*
X153322Y72831D01*
X153306Y72823D01*
X153289Y72812D01*
X153269Y72798D01*
X153249Y72784D01*
X153230Y72769D01*
X153229Y72768D01*
X153228Y72767D01*
X153225Y72764D01*
X153222Y72761D01*
X153214Y72753D01*
X153203Y72741D01*
X153192Y72729D01*
X153180Y72714D01*
X153169Y72699D01*
X153160Y72683D01*
X153109D01*
Y73326D01*
X153188D01*
Y72825D01*
D02*
G37*
G36*
X153504Y73374D02*
X153508Y73373D01*
X153513Y73370D01*
X153519Y73368D01*
X153527Y73364D01*
X153535Y73360D01*
X153544Y73356D01*
X153565Y73345D01*
X153588Y73332D01*
X153613Y73316D01*
X153638Y73298D01*
X153639D01*
X153642Y73299D01*
X153645Y73301D01*
X153651Y73303D01*
X153658Y73307D01*
X153665Y73310D01*
X153674Y73313D01*
X153684Y73317D01*
X153696Y73321D01*
X153708Y73324D01*
X153721Y73328D01*
X153735Y73331D01*
X153764Y73335D01*
X153780Y73336D01*
X153796Y73337D01*
X153804D01*
X153811Y73336D01*
X153818Y73335D01*
X153827Y73334D01*
X153837Y73333D01*
X153848Y73332D01*
X153873Y73327D01*
X153899Y73319D01*
X153913Y73314D01*
X153926Y73308D01*
X153940Y73303D01*
X153953Y73295D01*
X153954Y73294D01*
X153957Y73293D01*
X153960Y73291D01*
X153965Y73288D01*
X153971Y73283D01*
X153978Y73278D01*
X153985Y73272D01*
X153993Y73265D01*
X154003Y73257D01*
X154011Y73248D01*
X154020Y73238D01*
X154029Y73228D01*
X154038Y73217D01*
X154047Y73204D01*
X154063Y73178D01*
Y73177D01*
X154064Y73174D01*
X154066Y73170D01*
X154068Y73164D01*
X154071Y73157D01*
X154074Y73148D01*
X154078Y73138D01*
X154081Y73128D01*
X154085Y73115D01*
X154088Y73102D01*
X154092Y73088D01*
X154094Y73073D01*
X154098Y73041D01*
X154099Y73023D01*
X154100Y73006D01*
Y73005D01*
Y73002D01*
Y72997D01*
X154099Y72990D01*
Y72982D01*
X154098Y72972D01*
X154097Y72961D01*
X154095Y72949D01*
X154093Y72936D01*
X154091Y72923D01*
X154084Y72893D01*
X154074Y72864D01*
X154068Y72849D01*
X154062Y72834D01*
X154061Y72833D01*
X154060Y72831D01*
X154058Y72827D01*
X154054Y72822D01*
X154051Y72815D01*
X154046Y72808D01*
X154040Y72799D01*
X154033Y72790D01*
X154018Y72771D01*
X153999Y72751D01*
X153978Y72732D01*
X153965Y72724D01*
X153953Y72715D01*
X153952Y72714D01*
X153949Y72714D01*
X153945Y72711D01*
X153940Y72709D01*
X153933Y72706D01*
X153925Y72702D01*
X153917Y72699D01*
X153906Y72694D01*
X153895Y72691D01*
X153883Y72687D01*
X153869Y72684D01*
X153856Y72681D01*
X153826Y72676D01*
X153810Y72675D01*
X153793Y72674D01*
X153785D01*
X153778Y72675D01*
X153771Y72676D01*
X153762Y72677D01*
X153752Y72678D01*
X153740Y72679D01*
X153716Y72684D01*
X153689Y72692D01*
X153675Y72697D01*
X153662Y72703D01*
X153648Y72709D01*
X153634Y72717D01*
X153633Y72718D01*
X153631Y72719D01*
X153628Y72721D01*
X153623Y72724D01*
X153617Y72729D01*
X153609Y72734D01*
X153602Y72740D01*
X153593Y72748D01*
X153585Y72755D01*
X153576Y72764D01*
X153567Y72774D01*
X153558Y72784D01*
X153549Y72796D01*
X153541Y72808D01*
X153525Y72835D01*
X153524Y72836D01*
X153523Y72838D01*
X153522Y72843D01*
X153519Y72848D01*
X153517Y72855D01*
X153513Y72864D01*
X153510Y72873D01*
X153506Y72884D01*
X153503Y72897D01*
X153499Y72910D01*
X153496Y72923D01*
X153493Y72938D01*
X153489Y72971D01*
X153488Y72988D01*
Y73006D01*
Y73007D01*
Y73009D01*
Y73013D01*
Y73019D01*
X153488Y73026D01*
Y73034D01*
X153489Y73043D01*
X153491Y73053D01*
X153493Y73075D01*
X153498Y73099D01*
X153503Y73124D01*
X153512Y73148D01*
Y73149D01*
X153513Y73151D01*
X153514Y73154D01*
X153516Y73159D01*
X153518Y73164D01*
X153522Y73171D01*
X153530Y73185D01*
X153540Y73203D01*
X153553Y73221D01*
X153568Y73239D01*
X153584Y73258D01*
X153583Y73258D01*
X153582Y73259D01*
X153578Y73262D01*
X153574Y73264D01*
X153569Y73268D01*
X153563Y73272D01*
X153548Y73280D01*
X153532Y73290D01*
X153513Y73300D01*
X153494Y73309D01*
X153475Y73317D01*
X153501Y73375D01*
X153502D01*
X153504Y73374D01*
D02*
G37*
%LPC*%
G36*
X153793Y73264D02*
X153786D01*
X153777Y73263D01*
X153765Y73262D01*
X153753Y73260D01*
X153738Y73258D01*
X153723Y73253D01*
X153708Y73248D01*
X153708D01*
X153709Y73247D01*
X153714Y73243D01*
X153723Y73238D01*
X153733Y73233D01*
X153746Y73228D01*
X153760Y73221D01*
X153775Y73216D01*
X153792Y73211D01*
X153771Y73149D01*
X153770D01*
X153768Y73150D01*
X153763Y73152D01*
X153758Y73153D01*
X153753Y73155D01*
X153745Y73158D01*
X153737Y73161D01*
X153728Y73165D01*
X153709Y73173D01*
X153689Y73184D01*
X153669Y73197D01*
X153650Y73211D01*
X153649Y73210D01*
X153647Y73208D01*
X153643Y73203D01*
X153638Y73198D01*
X153633Y73191D01*
X153626Y73182D01*
X153619Y73172D01*
X153613Y73159D01*
X153606Y73146D01*
X153598Y73131D01*
X153593Y73114D01*
X153587Y73096D01*
X153582Y73076D01*
X153578Y73054D01*
X153576Y73031D01*
X153575Y73006D01*
Y73005D01*
Y73003D01*
Y72998D01*
Y72993D01*
X153576Y72986D01*
X153577Y72978D01*
X153578Y72969D01*
X153578Y72960D01*
X153582Y72938D01*
X153586Y72916D01*
X153593Y72893D01*
X153602Y72870D01*
Y72869D01*
X153603Y72868D01*
X153604Y72864D01*
X153607Y72860D01*
X153609Y72856D01*
X153613Y72850D01*
X153622Y72837D01*
X153633Y72823D01*
X153646Y72808D01*
X153661Y72793D01*
X153679Y72780D01*
X153680D01*
X153682Y72778D01*
X153684Y72777D01*
X153688Y72775D01*
X153693Y72773D01*
X153698Y72770D01*
X153705Y72767D01*
X153713Y72763D01*
X153729Y72758D01*
X153748Y72753D01*
X153770Y72749D01*
X153793Y72748D01*
X153803D01*
X153809Y72748D01*
X153818Y72749D01*
X153827Y72751D01*
X153838Y72754D01*
X153848Y72756D01*
X153861Y72759D01*
X153873Y72763D01*
X153887Y72769D01*
X153900Y72775D01*
X153913Y72783D01*
X153926Y72791D01*
X153938Y72801D01*
X153951Y72813D01*
X153952Y72813D01*
X153953Y72816D01*
X153957Y72819D01*
X153961Y72825D01*
X153965Y72832D01*
X153970Y72840D01*
X153976Y72850D01*
X153982Y72861D01*
X153988Y72874D01*
X153993Y72888D01*
X153998Y72904D01*
X154003Y72922D01*
X154007Y72940D01*
X154010Y72961D01*
X154012Y72983D01*
X154013Y73006D01*
Y73008D01*
Y73012D01*
X154012Y73018D01*
Y73027D01*
X154011Y73037D01*
X154009Y73049D01*
X154008Y73063D01*
X154005Y73077D01*
X154002Y73092D01*
X153998Y73108D01*
X153993Y73123D01*
X153987Y73139D01*
X153979Y73155D01*
X153971Y73170D01*
X153962Y73184D01*
X153951Y73198D01*
X153950Y73198D01*
X153948Y73200D01*
X153944Y73203D01*
X153940Y73208D01*
X153933Y73213D01*
X153926Y73218D01*
X153918Y73225D01*
X153908Y73231D01*
X153898Y73237D01*
X153885Y73243D01*
X153873Y73248D01*
X153858Y73253D01*
X153843Y73258D01*
X153828Y73262D01*
X153811Y73263D01*
X153793Y73264D01*
D02*
G37*
%LPD*%
D88*
X35541Y54269D02*
Y57189D01*
X30941Y54269D02*
X35541D01*
X30941D02*
Y57189D01*
X35541D01*
X76931Y60801D02*
X79851D01*
X76931D02*
Y65401D01*
X79851D01*
Y60801D02*
Y65401D01*
X159400Y70735D02*
Y76015D01*
X148800D02*
X159400D01*
X148800Y70735D02*
Y76015D01*
Y70735D02*
X159400D01*
X89275Y59750D02*
Y62950D01*
Y59750D02*
X91775D01*
Y62950D01*
X89275D02*
X91775D01*
X109300Y47400D02*
Y50600D01*
Y47400D02*
X111800D01*
Y50600D01*
X109300D02*
X111800D01*
X121274Y38121D02*
Y40621D01*
X118074Y38121D02*
X121274D01*
X118074D02*
Y40621D01*
X121274D01*
X197569Y38102D02*
Y39402D01*
Y38102D02*
X200469D01*
Y39402D01*
X197569D02*
X200469D01*
X196489Y37702D02*
Y39702D01*
X195239D02*
X196489D01*
X195239Y37702D02*
Y39702D01*
Y37702D02*
X196489D01*
X199869Y24527D02*
Y29427D01*
X195969Y24527D02*
X199869D01*
X195969D02*
Y29427D01*
X199869D01*
X195694Y30452D02*
Y31702D01*
X197694D01*
Y30452D02*
Y31702D01*
X195694Y30452D02*
X197694D01*
%TF.MD5,e7931ec034906618dba1508370bd1eb1*%
M02*
