%TF.GenerationSoftware,Altium Limited,Altium Designer,24.3.1 (35)*%
G04 Layer_Color=32768*
%FSLAX43Y43*%
%MOMM*%
%TF.SameCoordinates,2EF1D394-34E5-4190-8ABA-250447B0B6E5*%
%TF.FilePolarity,Positive*%
%TF.FileFunction,Other,Mechanical_15*%
%TF.Part,Single*%
G01*
G75*
%TA.AperFunction,NonConductor*%
%ADD88C,0.200*%
%ADD129C,0.100*%
%ADD138C,0.050*%
D88*
X202742Y48935D02*
X207902D01*
X202742D02*
Y58915D01*
X207902D01*
Y48935D02*
Y58915D01*
X207757Y48935D02*
X212917D01*
X207757D02*
Y58915D01*
X212917D01*
Y48935D02*
Y58915D01*
X197702Y48935D02*
X202862D01*
X197702D02*
Y58915D01*
X202862D01*
Y48935D02*
Y58915D01*
D129*
X27600Y71800D02*
Y72800D01*
X27100Y72300D02*
X28100D01*
X194839Y22652D02*
Y23652D01*
X194339Y23152D02*
X195339D01*
X86449Y63600D02*
Y64600D01*
X85949Y64100D02*
X86949D01*
X111125Y54000D02*
X112125D01*
X111625Y53500D02*
Y54500D01*
X193283Y26152D02*
Y27152D01*
X192783Y26652D02*
X193783D01*
X204822Y53925D02*
X205822D01*
X205322Y53425D02*
Y54425D01*
X209837Y53925D02*
X210837D01*
X210337Y53425D02*
Y54425D01*
X199782Y53925D02*
X200782D01*
X200282Y53425D02*
Y54425D01*
D138*
X28475Y70175D02*
Y74425D01*
X26725D02*
X28475D01*
X26725Y70175D02*
Y74425D01*
Y70175D02*
X28475D01*
X196964Y22277D02*
Y24027D01*
X192714Y22277D02*
X196964D01*
X192714D02*
Y24027D01*
X196964D01*
X85574Y61975D02*
Y66225D01*
Y61975D02*
X87324D01*
Y66225D01*
X85574D02*
X87324D01*
X109500Y53125D02*
X113750D01*
Y54875D01*
X109500D02*
X113750D01*
X109500Y53125D02*
Y54875D01*
X192408Y24527D02*
Y28777D01*
Y24527D02*
X194158D01*
Y28777D01*
X192408D02*
X194158D01*
X221650Y63230D02*
X228000D01*
Y71590D01*
X221650D02*
X228000D01*
X221650Y63230D02*
Y71590D01*
X224825Y66910D02*
Y67910D01*
X224325Y67410D02*
X225325D01*
%TF.MD5,a8ba84539531967a23920fd4e96adcdc*%
M02*
