%TF.GenerationSoftware,Altium Limited,Altium Designer,24.3.1 (35)*%
G04 Layer_Color=8388736*
%FSLAX43Y43*%
%MOMM*%
%TF.SameCoordinates,2EF1D394-34E5-4190-8ABA-250447B0B6E5*%
%TF.FilePolarity,Positive*%
%TF.FileFunction,Other,Bottom_Courtyard*%
%TF.Part,Single*%
G01*
G75*
%TA.AperFunction,NonConductor*%
%ADD88C,0.200*%
D88*
X36591Y54169D02*
Y57289D01*
X29891Y54169D02*
X36591D01*
X29891D02*
Y57289D01*
X36591D01*
X76831Y59751D02*
X79951D01*
X76831D02*
Y66451D01*
X79951D01*
Y59751D02*
Y66451D01*
X159400Y70735D02*
Y76015D01*
X148800D02*
X159400D01*
X148800Y70735D02*
Y76015D01*
Y70735D02*
X159400D01*
X88622Y58597D02*
Y64103D01*
Y58597D02*
X92428D01*
Y64103D01*
X88622D02*
X92428D01*
X108647Y46247D02*
Y51753D01*
Y46247D02*
X112453D01*
Y51753D01*
X108647D02*
X112453D01*
X122427Y37468D02*
Y41274D01*
X116921Y37468D02*
X122427D01*
X116921D02*
Y41274D01*
X122427D01*
X197069Y36445D02*
Y41058D01*
Y36445D02*
X200969D01*
Y41058D01*
X197069D02*
X200969D01*
X197142Y36548D02*
Y40855D01*
X194586D02*
X197142D01*
X194586Y36548D02*
Y40855D01*
Y36548D02*
X197142D01*
X201272Y24427D02*
Y29527D01*
X194566Y24427D02*
X201272D01*
X194566D02*
Y29527D01*
X201272D01*
X194541Y29798D02*
Y32355D01*
X198847D01*
Y29798D02*
Y32355D01*
X194541Y29798D02*
X198847D01*
%TF.MD5,9fb898903e85ea71e6803f0735a6872b*%
M02*
