%TF.GenerationSoftware,Altium Limited,Altium Designer,24.3.1 (35)*%
G04 Layer_Color=32768*
%FSLAX43Y43*%
%MOMM*%
%TF.SameCoordinates,2EF1D394-34E5-4190-8ABA-250447B0B6E5*%
%TF.FilePolarity,Positive*%
%TF.FileFunction,Other,Top_Component_Outline*%
%TF.Part,Single*%
G01*
G75*
%TA.AperFunction,NonConductor*%
%ADD129C,0.100*%
D129*
X197450Y72900D02*
G03*
X197450Y72900I-500J0D01*
G01*
X201450Y70850D02*
G03*
X192450Y70850I-4500J-1490D01*
G01*
Y67350D02*
G03*
X201450Y67350I4500J1490D01*
G01*
X190400Y70850D02*
G03*
X181400Y70850I-4500J-1490D01*
G01*
Y67350D02*
G03*
X190400Y67350I4500J1490D01*
G01*
X186400Y65300D02*
G03*
X186400Y65300I-500J0D01*
G01*
X185600Y12725D02*
G03*
X185600Y12725I-500J0D01*
G01*
X189600Y10675D02*
G03*
X180600Y10675I-4500J-1490D01*
G01*
Y7175D02*
G03*
X189600Y7175I4500J1490D01*
G01*
X196125Y5125D02*
G03*
X196125Y5125I-500J0D01*
G01*
X191125Y7175D02*
G03*
X200125Y7175I4500J1490D01*
G01*
Y10675D02*
G03*
X191125Y10675I-4500J-1490D01*
G01*
X201450Y67350D02*
Y70850D01*
X192450Y67350D02*
Y70850D01*
X190400Y67350D02*
Y70850D01*
X181400Y67350D02*
Y70850D01*
X220692Y20250D02*
X220942Y20850D01*
X219742D02*
X220942D01*
X219742D02*
X219991Y20250D01*
X224941Y9650D02*
X225191Y10250D01*
X225892D02*
X226141Y9650D01*
X224941D02*
X226141D01*
X219041Y10250D02*
X225191D01*
X225891D02*
X228041D01*
Y20250D01*
X219041Y10250D02*
Y20250D01*
X219991D01*
X220691D02*
X228041D01*
X189600Y7175D02*
Y10675D01*
X180600Y7175D02*
Y10675D01*
X191125Y7175D02*
Y10675D01*
X200125Y7175D02*
Y10675D01*
X550Y43825D02*
X7900D01*
X8600D02*
X9550D01*
Y53825D01*
X550Y43825D02*
Y53825D01*
X2700D01*
X3400D02*
X9550D01*
X2450Y54425D02*
X3650D01*
X2450D02*
X2700Y53825D01*
X3400D02*
X3650Y54425D01*
X8600Y43825D02*
X8850Y43225D01*
X7650D02*
X8850D01*
X7650D02*
X7900Y43825D01*
X575Y25375D02*
X7925D01*
X8625D02*
X9575D01*
Y35375D01*
X575Y25375D02*
Y35375D01*
X2725D01*
X3425D02*
X9575D01*
X2475Y35975D02*
X3675D01*
X2475D02*
X2725Y35375D01*
X3425D02*
X3675Y35975D01*
X8625Y25375D02*
X8875Y24775D01*
X7675D02*
X8875D01*
X7675D02*
X7925Y25375D01*
X155080Y54775D02*
Y60575D01*
X147420Y54775D02*
X155080D01*
X147420D02*
Y60575D01*
X155080D01*
X220691Y30250D02*
X228041D01*
X219041D02*
X219991D01*
X219041Y20250D02*
Y30250D01*
X228041Y20250D02*
Y30250D01*
X225891Y20250D02*
X228041D01*
X219041D02*
X225191D01*
X224941Y19650D02*
X226141D01*
X225892Y20250D02*
X226141Y19650D01*
X224941D02*
X225191Y20250D01*
X219742Y30850D02*
X219991Y30250D01*
X219742Y30850D02*
X220942D01*
X220692Y30250D02*
X220942Y30850D01*
X220691Y40175D02*
X228041D01*
X219041D02*
X219991D01*
X219041Y30175D02*
Y40175D01*
X228041Y30175D02*
Y40175D01*
X225891Y30175D02*
X228041D01*
X219041D02*
X225191D01*
X224941Y29575D02*
X226141D01*
X225892Y30175D02*
X226141Y29575D01*
X224941D02*
X225191Y30175D01*
X219742Y40775D02*
X219991Y40175D01*
X219742Y40775D02*
X220942D01*
X220692Y40175D02*
X220942Y40775D01*
%TF.MD5,4fbfc22f1002ab72054e3115fc21578a*%
M02*
