M48
;Layer_Color=9474304
;FILE_FORMAT=4:3
METRIC,LZ
;TYPE=PLATED
T01F00S00C0.300
T02F00S00C0.400
T03F00S00C0.500
T04F00S00C0.700
T05F00S00C0.750
T06F00S00C0.762
T07F00S00C1.000
T08F00S00C1.016
T09F00S00C1.200
T10F00S00C1.270
T11F00S00C1.300
T12F00S00C1.397
T13F00S00C1.500
T14F00S00C1.524
T15F00S00C1.800
T16F00S00C2.500
%
T01
X0201839Y0027602
X0192239Y0037702
T02
X01071Y001005
X01814Y0013825
X01822
X0183
X01838
X01846
X01854
X01862
X0187
X01878
X01886
X01894
X0189365Y001465
X0188565
X0187765
X0186965
X0186165
X0185365
X0184565
X0183765
X0182965
X0182165
X0181365
X0199733Y0023913
X0202175Y0025525
X0206792Y0038726
X0222425Y0061895
X02028Y0057936
X0190244Y006296
X0189469
X0188669
X0187869
X0187069
X0186269
X0185469
X0184669
X0183869
X0183069
X0182269
Y006376
X0183044
X0183844
X0184644
X0185444
X0186244
X0187044
X0187844
X0188644
X0189444
X0190244
X0200522Y0042434
X0202856Y0035003
X0165825Y007115
X0161149Y0071767
X0066925Y005785
X0161149Y0075525
X0161325Y00776
X0192615Y0075225
X019339
X019419
X019499
X019579
X019659
X019739
X019819
X019899
X019979
X020059
X0200615Y0074425
X0199815
X0199015
X0198215
X0197415
X0196615
X0195815
X0195015
X0194215
X0193415
X0192615
T03
X0061256Y0003275
X019585Y00608
T04
X0205317Y0051385
Y0053925
Y0056465
X0210332
Y0053925
Y0051385
X0200277
Y0053925
Y0056465
T05
X01858Y00236
Y00307
T06
X0121275Y001915
X0121225Y00241
X0189365Y002607
X0188464Y002925
X0188414Y0033189
X019855Y0021175
X0207489Y0028895
X0216328Y001275
X0216125Y0009524
X0215125Y0041725
X0209025Y00451
X022425Y0045403
X0188725Y0039952
X0188389Y0036677
X016275Y005635
X0161149Y0062575
X0156625Y0067225
X0151675
X01309Y0072325
X012765Y0047875
X0114675Y0040675
Y0035725
X0113227Y0057825
X0086448Y0067625
X00807Y0067675
X0083475Y0059799
X0080875Y0052525
X0073517Y0057776
X0064646Y0064757
X0061125Y0064778
X0051875Y0064925
X0005239Y0063925
X0005225Y0068325
X0036225Y00783
T07
X001235Y00178
X0018525Y0025525
X0031525
X003475Y00178
X00365Y000855
Y000545
X0101775Y002735
X020535Y0020325
X021035
X0208Y00096
Y00046
X0211425Y0065975
X0224525Y006487
Y006741
Y006995
X017115Y0072275
Y0066941
X015379Y0057375
X015125
X014871
X0069791Y007225
X0067251
X0064711
X0062171
X0059631
X0057091
X0054461
X0051921
X0049381
X0046841
X0044301
X0041761
X0039975Y0062625
Y0057625
X0026775Y005775
Y006275
X0013475Y00626
Y00576
X0012475Y0042975
X0018525Y0035525
X0031525
X0034875Y0042975
X0211425Y0073975
T08
X017026Y005005
X01728
X017534
X0186177Y0050027
X0188717
X0191257
X0118307Y0061727
X0115767
X0113227
X0101282
X0098742
X0096202
X0027525Y007705
X0024985
X0022445
T09
X0219184Y0051001
X0224184
Y0057351
X0219184
T10
X0093Y0005375
X0105725Y0005271
Y0025337
X0105667Y0029592
X0093
Y0025441
Y0049658
X0105667
T11
X0004575Y0027875
Y0032875
X0224041Y0032675
Y002775
Y002275
X0224041Y001775
Y001275
X0224041Y0037675
X0074791Y0061225
X0062791
X0060041
X0048041
X000455Y0051325
Y0046325
T12
X0024985Y00707
T13
X0014725Y00093
X0019725
X0024725
X0029725
X0114207Y0005209
X0114257Y0025184
X0071325Y00558
X005135Y005585
X00363Y0050275
X0016325Y0050325
T14
X0134941Y0008733
Y0013813
Y0018979
Y0023973
Y0029053
Y0034219
X0160214
Y0029053
Y0023973
Y0018979
Y0013813
Y0008733
X01728Y00564
X0188717Y0056377
X0160214Y0039213
X014335Y0047325
Y0052325
Y0057325
X013585
Y0052325
Y0047325
X0134941Y0039213
X013585Y0072325
X014335
X0115767Y0068077
X0098742
T15
X004965Y0010825
Y0020825
X00737Y00207
Y00107
X00737Y0035275
Y0045275
X004965Y0045275
Y0035275
T16
X0127575Y000886
Y001394
Y0019106
Y00241
Y002918
X0167834Y0029053
Y0023973
Y0018979
Y0013813
Y0008733
Y0034219
Y0039213
X0127575Y003934
Y0034346
M30
