%TF.GenerationSoftware,Altium Limited,Altium Designer,24.3.1 (35)*%
G04 Layer_Color=0*
%FSLAX43Y43*%
%MOMM*%
%TF.SameCoordinates,2EF1D394-34E5-4190-8ABA-250447B0B6E5*%
%TF.FilePolarity,Positive*%
%TF.FileFunction,NonPlated,1,2,NPTH,Drill*%
%TF.Part,Single*%
G01*
G75*
G36*
X223500Y5000D02*
Y4852D01*
X223558Y4562D01*
X223671Y4289D01*
X223835Y4044D01*
X224044Y3835D01*
X224289Y3671D01*
X224562Y3558D01*
X224852Y3500D01*
X225000D01*
X225148D01*
X225438Y3558D01*
X225711Y3671D01*
X225956Y3835D01*
X226165Y4044D01*
X226329Y4289D01*
X226442Y4562D01*
X226500Y4852D01*
Y5000D01*
Y5148D01*
X226442Y5438D01*
X226329Y5711D01*
X226165Y5956D01*
X225956Y6165D01*
X225711Y6329D01*
X225438Y6442D01*
X225148Y6500D01*
X225000D01*
X224852D01*
X224562Y6442D01*
X224289Y6329D01*
X224044Y6165D01*
X223835Y5956D01*
X223671Y5711D01*
X223558Y5438D01*
X223500Y5148D01*
Y5000D01*
D01*
D02*
G37*
G36*
Y75000D02*
Y74852D01*
X223558Y74562D01*
X223671Y74289D01*
X223835Y74044D01*
X224044Y73835D01*
X224289Y73671D01*
X224562Y73558D01*
X224852Y73500D01*
X225000D01*
X225148D01*
X225438Y73558D01*
X225711Y73671D01*
X225956Y73835D01*
X226165Y74044D01*
X226329Y74289D01*
X226442Y74562D01*
X226500Y74852D01*
Y75000D01*
Y75148D01*
X226442Y75438D01*
X226329Y75711D01*
X226165Y75956D01*
X225956Y76165D01*
X225711Y76329D01*
X225438Y76442D01*
X225148Y76500D01*
X225000D01*
X224852D01*
X224562Y76442D01*
X224289Y76329D01*
X224044Y76165D01*
X223835Y75956D01*
X223671Y75711D01*
X223558Y75438D01*
X223500Y75148D01*
Y75000D01*
D01*
D02*
G37*
G36*
X3500Y5000D02*
Y4852D01*
X3558Y4562D01*
X3671Y4289D01*
X3835Y4044D01*
X4044Y3835D01*
X4289Y3671D01*
X4562Y3558D01*
X4852Y3500D01*
X5000D01*
X5148D01*
X5438Y3558D01*
X5711Y3671D01*
X5956Y3835D01*
X6165Y4044D01*
X6329Y4289D01*
X6442Y4562D01*
X6500Y4852D01*
Y5000D01*
Y5148D01*
X6442Y5438D01*
X6329Y5711D01*
X6165Y5956D01*
X5956Y6165D01*
X5711Y6329D01*
X5438Y6442D01*
X5148Y6500D01*
X5000D01*
X4852D01*
X4562Y6442D01*
X4289Y6329D01*
X4044Y6165D01*
X3835Y5956D01*
X3671Y5711D01*
X3558Y5438D01*
X3500Y5148D01*
Y5000D01*
D01*
D02*
G37*
G36*
X5000Y73500D02*
X4852D01*
X4562Y73558D01*
X4289Y73671D01*
X4044Y73835D01*
X3835Y74044D01*
X3671Y74289D01*
X3558Y74562D01*
X3500Y74852D01*
Y75000D01*
Y75148D01*
X3558Y75438D01*
X3671Y75711D01*
X3835Y75956D01*
X4044Y76165D01*
X4289Y76329D01*
X4562Y76442D01*
X4852Y76500D01*
X5000D01*
X5148D01*
X5438Y76442D01*
X5711Y76329D01*
X5956Y76165D01*
X6165Y75956D01*
X6329Y75711D01*
X6442Y75438D01*
X6500Y75148D01*
Y75000D01*
Y74852D01*
X6442Y74562D01*
X6329Y74289D01*
X6165Y74044D01*
X5956Y73835D01*
X5711Y73671D01*
X5438Y73558D01*
X5148Y73500D01*
X5000D01*
D01*
D02*
G37*
%TF.MD5,2c3f09a19b490e7085e3633301319553*%
M02*
