%TF.GenerationSoftware,Altium Limited,Altium Designer,24.3.1 (35)*%
G04 Layer_Color=32896*
%FSLAX43Y43*%
%MOMM*%
%TF.SameCoordinates,2EF1D394-34E5-4190-8ABA-250447B0B6E5*%
%TF.FilePolarity,Positive*%
%TF.FileFunction,Legend,Bot*%
%TF.Part,Single*%
G01*
G75*
%TA.AperFunction,NonConductor*%
%ADD87C,0.250*%
%ADD88C,0.200*%
%ADD89C,1.000*%
%ADD90C,0.150*%
%ADD91C,0.254*%
%ADD92R,3.048X0.381*%
%ADD93R,1.587X0.508*%
%ADD94R,0.381X3.048*%
%ADD95R,0.508X1.587*%
%ADD96R,0.900X0.600*%
D87*
X37166Y55729D02*
G03*
X37166Y55729I-125J0D01*
G01*
X78516Y59301D02*
G03*
X78516Y59301I-125J0D01*
G01*
X201897Y28882D02*
G03*
X201897Y28882I-125J0D01*
G01*
D88*
X214188Y56776D02*
Y59824D01*
X215712D01*
X214188Y56776D02*
X215712D01*
Y59824D01*
X173263Y69776D02*
Y72824D01*
X174787D01*
X173263Y69776D02*
X174787D01*
Y72824D01*
X162226Y78335D02*
X165274D01*
Y76811D02*
Y78335D01*
X162226Y76811D02*
Y78335D01*
Y76811D02*
X165274D01*
X220063Y12851D02*
Y15899D01*
X221587D01*
X220063Y12851D02*
X221587D01*
Y15899D01*
X210755Y6476D02*
Y9524D01*
X209231Y6476D02*
X210755D01*
X209231Y9524D02*
X210755D01*
X209231Y6476D02*
Y9524D01*
X111987Y4701D02*
Y7749D01*
X110463Y4701D02*
X111987D01*
X110463Y7749D02*
X111987D01*
X110463Y4701D02*
Y7749D01*
X48787Y1651D02*
Y4699D01*
X47263Y1651D02*
X48787D01*
X47263Y4699D02*
X48787D01*
X47263Y1651D02*
Y4699D01*
X26825Y72935D02*
X28375D01*
X26825Y71665D02*
Y72935D01*
X28375Y71665D02*
Y72935D01*
X194204Y23927D02*
X195474D01*
X194204Y22377D02*
X195474D01*
X194204D02*
Y23927D01*
X160388Y71851D02*
Y74899D01*
X161912D01*
X160388Y71851D02*
X161912D01*
Y74899D01*
X22576Y53868D02*
X25624D01*
X22576D02*
Y55392D01*
X25624Y53868D02*
Y55392D01*
X22576D02*
X25624D01*
X35541Y56954D02*
Y57189D01*
Y54269D02*
Y54504D01*
X30941Y54269D02*
X35541D01*
X30941Y56954D02*
Y57189D01*
Y54269D02*
Y54504D01*
Y57189D02*
X35541D01*
X41551Y70887D02*
X44599D01*
Y69363D02*
Y70887D01*
X41551Y69363D02*
Y70887D01*
Y69363D02*
X44599D01*
X79616Y60801D02*
X79851D01*
X76931D02*
X77166D01*
X76931D02*
Y65401D01*
X79616D02*
X79851D01*
X76931D02*
X77166D01*
X79851Y60801D02*
Y65401D01*
X75851Y66913D02*
X78899D01*
X75851D02*
Y68437D01*
X78899Y66913D02*
Y68437D01*
X75851D02*
X78899D01*
X89275Y60877D02*
Y61823D01*
X91775Y60877D02*
Y61823D01*
X109300Y48527D02*
Y49473D01*
X111800Y48527D02*
Y49473D01*
X91287Y54301D02*
Y57349D01*
X89763Y54301D02*
X91287D01*
X89763Y57349D02*
X91287D01*
X89763Y54301D02*
Y57349D01*
X111262Y43001D02*
Y46049D01*
X109738Y43001D02*
X111262D01*
X109738Y46049D02*
X111262D01*
X109738Y43001D02*
Y46049D01*
X122475Y65125D02*
Y73650D01*
X122525D02*
X126575D01*
X122475Y65125D02*
X126575D01*
Y73650D01*
X130900Y49725D02*
Y58250D01*
X126800Y49725D02*
X130900D01*
X126850Y58250D02*
X130900D01*
X126800Y49725D02*
Y58250D01*
X130900Y58525D02*
Y67050D01*
X126800Y58525D02*
X130900D01*
X126850Y67050D02*
X130900D01*
X126800Y58525D02*
Y67050D01*
X119201Y38121D02*
X120148D01*
X119201Y40621D02*
X120148D01*
X85674Y63465D02*
X87224D01*
Y64735D01*
X85674Y63465D02*
Y64735D01*
X112260Y53225D02*
Y54775D01*
X110990D02*
X112260D01*
X110990Y53225D02*
X112260D01*
X202429Y26385D02*
Y29433D01*
X203953D01*
X202429Y26385D02*
X203953D01*
Y29433D01*
X204179Y26385D02*
Y29433D01*
X205703D01*
X204179Y26385D02*
X205703D01*
Y29433D01*
X192508Y26017D02*
X194058D01*
Y27287D01*
X192508Y26017D02*
Y27287D01*
X206676Y32504D02*
Y35552D01*
X205152Y32504D02*
X206676D01*
X205152Y35552D02*
X206676D01*
X205152Y32504D02*
Y35552D01*
X204948Y32503D02*
Y35551D01*
X203424Y32503D02*
X204948D01*
X203424Y35551D02*
X204948D01*
X203424Y32503D02*
Y35551D01*
X197569Y38102D02*
Y38524D01*
X199707Y38102D02*
X200469D01*
X197569D02*
X198331D01*
X200469D02*
Y38524D01*
X198792Y39402D02*
X199246D01*
X201469Y32752D02*
Y33152D01*
X195469Y32752D02*
Y33152D01*
X201469Y35952D02*
Y36352D01*
X195469Y32752D02*
X201469D01*
X195469Y35952D02*
Y36352D01*
X201469D01*
X204232Y41726D02*
Y44774D01*
X205756D01*
X204232Y41726D02*
X205756D01*
Y44774D01*
X162226Y73162D02*
X165274D01*
Y71638D02*
Y73162D01*
X162226Y71638D02*
Y73162D01*
Y71638D02*
X165274D01*
X194686Y37048D02*
Y40355D01*
X197042Y37048D02*
Y40355D01*
X218251Y61088D02*
X221299D01*
X218251D02*
Y62612D01*
X221299Y61088D02*
Y62612D01*
X218251D02*
X221299D01*
X192871Y34028D02*
Y37076D01*
X194395D01*
X192871Y34028D02*
X194395D01*
Y37076D01*
X191107Y34028D02*
Y37076D01*
X192631D01*
X191107Y34028D02*
X192631D01*
Y37076D01*
X194395Y37253D02*
Y40301D01*
X192871Y37253D02*
X194395D01*
X192871Y40301D02*
X194395D01*
X192871Y37253D02*
Y40301D01*
X219926Y69188D02*
X222974D01*
X219926D02*
Y70712D01*
X222974Y69188D02*
Y70712D01*
X219926D02*
X222974D01*
X198798Y24527D02*
Y29427D01*
X197040Y24527D02*
X198798D01*
X197040D02*
Y29427D01*
X198798D01*
X203694Y40177D02*
X204294D01*
X202987Y39469D02*
X203694Y40177D01*
Y39477D02*
Y40177D01*
X202987Y40884D02*
X203694Y40177D01*
X202987Y39469D02*
Y40884D01*
X203694Y40177D02*
Y40877D01*
X202394Y40177D02*
X203694D01*
X201044Y41202D02*
X205769D01*
X201044Y39102D02*
X205769D01*
X201044D02*
Y41202D01*
X205769Y39102D02*
Y41202D01*
Y36652D02*
Y38752D01*
X201044Y36652D02*
Y38752D01*
Y36652D02*
X205769D01*
X201044Y38752D02*
X205769D01*
X202394Y37727D02*
X203694D01*
Y38427D01*
X202987Y37019D02*
Y38434D01*
X203694Y37727D01*
Y37027D02*
Y37727D01*
X202987Y37019D02*
X203694Y37727D01*
X204294D01*
X195041Y29898D02*
X198347D01*
X195041Y32255D02*
X198347D01*
D89*
X124019Y3399D02*
X171517D01*
X124019Y43785D02*
X171517D01*
Y3399D02*
Y43785D01*
X124019Y3399D02*
Y43785D01*
D90*
X102925Y28500D02*
Y37500D01*
X98425D02*
X102925D01*
X98425Y28500D02*
Y37500D01*
Y28500D02*
X102925D01*
X103075Y17575D02*
Y26575D01*
X98575D02*
X103075D01*
X98575Y17575D02*
Y26575D01*
Y17575D02*
X103075D01*
X98425Y41600D02*
X102925D01*
X98425D02*
Y50600D01*
X102925D01*
Y41600D02*
Y50600D01*
X103049Y4154D02*
Y13154D01*
X98549D02*
X103049D01*
X98549Y4154D02*
Y13154D01*
Y4154D02*
X103049D01*
D91*
X84926Y57890D02*
Y61700D01*
X87974Y57890D02*
Y61700D01*
X84926D02*
X87974D01*
X84926Y57890D02*
X87974D01*
X84926Y61446D02*
X87974D01*
X84545Y56366D02*
X88355D01*
X59859Y7495D02*
Y11305D01*
X54779Y7876D02*
Y10924D01*
X58335Y7876D02*
Y10924D01*
X54525Y7876D02*
Y10924D01*
X58335D01*
X54525Y7876D02*
X58335D01*
X57791Y11595D02*
Y15405D01*
X62871Y11976D02*
Y15024D01*
X59315Y11976D02*
Y15024D01*
X63125Y11976D02*
Y15024D01*
X59315Y11976D02*
X63125D01*
X59315Y15024D02*
X63125D01*
X115509Y19795D02*
Y23605D01*
X110429Y20176D02*
Y23224D01*
X113985Y20176D02*
Y23224D01*
X110175Y20176D02*
Y23224D01*
X113985D01*
X110175Y20176D02*
X113985D01*
X115359Y7470D02*
Y11280D01*
X110279Y7851D02*
Y10899D01*
X113835Y7851D02*
Y10899D01*
X110025Y7851D02*
Y10899D01*
X113835D01*
X110025Y7851D02*
X113835D01*
X113416Y15645D02*
Y19455D01*
X118496Y16026D02*
Y19074D01*
X114940Y16026D02*
Y19074D01*
X118750Y16026D02*
Y19074D01*
X114940Y16026D02*
X118750D01*
X114940Y19074D02*
X118750D01*
X54525Y3726D02*
X58335D01*
X54525Y6774D02*
X58335D01*
X54525Y3726D02*
Y6774D01*
X58335Y3726D02*
Y6774D01*
X54779Y3726D02*
Y6774D01*
X59859Y3345D02*
Y7155D01*
X59315Y19149D02*
X63125D01*
X59315Y16101D02*
X63125D01*
Y19149D01*
X59315Y16101D02*
Y19149D01*
X62871Y16101D02*
Y19149D01*
X57791Y15720D02*
Y19530D01*
X112973Y45646D02*
X116783D01*
X113354Y50726D02*
X116402D01*
X113354Y47170D02*
X116402D01*
X113354Y50980D02*
X116402D01*
Y47170D02*
Y50980D01*
X113354Y47170D02*
Y50980D01*
X114815Y14999D02*
X118625D01*
X114815Y11951D02*
X118625D01*
Y14999D01*
X114815Y11951D02*
Y14999D01*
X118371Y11951D02*
Y14999D01*
X113291Y11570D02*
Y15380D01*
X104025Y32709D02*
X104825D01*
Y33109D01*
X104692Y33242D01*
X104425D01*
X104292Y33109D01*
Y32709D01*
Y32975D02*
X104025Y33242D01*
Y34042D02*
Y33508D01*
X104558Y34042D01*
X104692D01*
X104825Y33908D01*
Y33642D01*
X104692Y33508D01*
X104025Y34841D02*
Y34308D01*
X104558Y34841D01*
X104692D01*
X104825Y34708D01*
Y34441D01*
X104692Y34308D01*
X104025Y20379D02*
X104825D01*
Y20779D01*
X104692Y20912D01*
X104425D01*
X104292Y20779D01*
Y20379D01*
Y20645D02*
X104025Y20912D01*
Y21578D02*
X104825D01*
X104425Y21178D01*
Y21712D01*
X104025Y22511D02*
Y21978D01*
X104558Y22511D01*
X104692D01*
X104825Y22378D01*
Y22111D01*
X104692Y21978D01*
X103650Y44742D02*
X104450D01*
Y45142D01*
X104317Y45275D01*
X104050D01*
X103917Y45142D01*
Y44742D01*
Y45009D02*
X103650Y45275D01*
Y46075D02*
Y45542D01*
X104183Y46075D01*
X104317D01*
X104450Y45942D01*
Y45675D01*
X104317Y45542D01*
X103650Y46341D02*
Y46608D01*
Y46475D01*
X104450D01*
X104317Y46341D01*
X104025Y8034D02*
X104825D01*
Y8434D01*
X104692Y8567D01*
X104425D01*
X104292Y8434D01*
Y8034D01*
Y8300D02*
X104025Y8567D01*
Y9233D02*
X104825D01*
X104425Y8833D01*
Y9367D01*
X104692Y9633D02*
X104825Y9766D01*
Y10033D01*
X104692Y10166D01*
X104558D01*
X104425Y10033D01*
Y9900D01*
Y10033D01*
X104292Y10166D01*
X104158D01*
X104025Y10033D01*
Y9766D01*
X104158Y9633D01*
X43208Y68804D02*
X43342Y68937D01*
X43608D01*
X43741Y68804D01*
Y68271D01*
X43608Y68137D01*
X43342D01*
X43208Y68271D01*
X42942Y68804D02*
X42808Y68937D01*
X42542D01*
X42409Y68804D01*
Y68671D01*
X42542Y68537D01*
X42409Y68404D01*
Y68271D01*
X42542Y68137D01*
X42808D01*
X42942Y68271D01*
Y68404D01*
X42808Y68537D01*
X42942Y68671D01*
Y68804D01*
X42808Y68537D02*
X42542D01*
X195905Y21826D02*
Y21293D01*
X195639Y21027D01*
X195372Y21293D01*
Y21826D01*
X195106D02*
Y21027D01*
X194706D01*
X194572Y21160D01*
Y21693D01*
X194706Y21826D01*
X195106D01*
X193773D02*
X194039Y21693D01*
X194306Y21427D01*
Y21160D01*
X194173Y21027D01*
X193906D01*
X193773Y21160D01*
Y21293D01*
X193906Y21427D01*
X194306D01*
X159050Y72384D02*
X159850D01*
Y72784D01*
X159717Y72917D01*
X159450D01*
X159317Y72784D01*
Y72384D01*
Y72650D02*
X159050Y72917D01*
Y73583D02*
X159850D01*
X159450Y73183D01*
Y73717D01*
X159050Y74383D02*
X159850D01*
X159450Y73983D01*
Y74516D01*
X202791Y23667D02*
X203591D01*
Y24067D01*
X203458Y24200D01*
X203191D01*
X203058Y24067D01*
Y23667D01*
Y23933D02*
X202791Y24200D01*
Y24866D02*
X203591D01*
X203191Y24466D01*
Y25000D01*
X202791Y25266D02*
Y25533D01*
Y25400D01*
X203591D01*
X203458Y25266D01*
X205492Y23993D02*
X205625Y23860D01*
Y23594D01*
X205492Y23460D01*
X204958D01*
X204825Y23594D01*
Y23860D01*
X204958Y23993D01*
X204825Y24660D02*
X205625D01*
X205225Y24260D01*
Y24793D01*
X204825Y25460D02*
X205625D01*
X205225Y25060D01*
Y25593D01*
X29850Y71031D02*
X29317D01*
X29050Y71297D01*
X29317Y71564D01*
X29850D01*
Y71830D02*
X29050D01*
Y72230D01*
X29183Y72364D01*
X29717D01*
X29850Y72230D01*
Y71830D01*
X29050Y73163D02*
Y72630D01*
X29583Y73163D01*
X29717D01*
X29850Y73030D01*
Y72763D01*
X29717Y72630D01*
X54425Y12600D02*
X53625D01*
Y13000D01*
X53758Y13133D01*
X54292D01*
X54425Y13000D01*
Y12600D01*
X53625Y13400D02*
Y13667D01*
Y13533D01*
X54425D01*
X54292Y13400D01*
Y14067D02*
X54425Y14200D01*
Y14466D01*
X54292Y14600D01*
X54158D01*
X54025Y14466D01*
Y14333D01*
Y14466D01*
X53892Y14600D01*
X53758D01*
X53625Y14466D01*
Y14200D01*
X53758Y14067D01*
X53775Y8550D02*
X52975D01*
Y8950D01*
X53108Y9083D01*
X53642D01*
X53775Y8950D01*
Y8550D01*
X52975Y9350D02*
Y9617D01*
Y9483D01*
X53775D01*
X53642Y9350D01*
X52975Y10550D02*
Y10017D01*
X53508Y10550D01*
X53642D01*
X53775Y10416D01*
Y10150D01*
X53642Y10017D01*
X53700Y4367D02*
X52900D01*
Y4767D01*
X53033Y4900D01*
X53567D01*
X53700Y4767D01*
Y4367D01*
X52900Y5167D02*
Y5434D01*
Y5300D01*
X53700D01*
X53567Y5167D01*
X52900Y6233D02*
X53700D01*
X53300Y5833D01*
Y6367D01*
X54425Y16600D02*
X53625D01*
Y17000D01*
X53758Y17133D01*
X54292D01*
X54425Y17000D01*
Y16600D01*
X53625Y17400D02*
Y17667D01*
Y17533D01*
X54425D01*
X54292Y17400D01*
X54425Y18600D02*
Y18067D01*
X54025D01*
X54158Y18333D01*
Y18466D01*
X54025Y18600D01*
X53758D01*
X53625Y18466D01*
Y18200D01*
X53758Y18067D01*
X109592Y5542D02*
X109725Y5409D01*
Y5142D01*
X109592Y5009D01*
X109058D01*
X108925Y5142D01*
Y5409D01*
X109058Y5542D01*
X108925Y6208D02*
X109725D01*
X109325Y5808D01*
Y6342D01*
X108925Y7141D02*
Y6608D01*
X109458Y7141D01*
X109592D01*
X109725Y7008D01*
Y6741D01*
X109592Y6608D01*
X48108Y6042D02*
X48242Y6175D01*
X48508D01*
X48641Y6042D01*
Y5508D01*
X48508Y5375D01*
X48242D01*
X48108Y5508D01*
X47842Y6042D02*
X47708Y6175D01*
X47442D01*
X47309Y6042D01*
Y5908D01*
X47442Y5775D01*
X47575D01*
X47442D01*
X47309Y5642D01*
Y5508D01*
X47442Y5375D01*
X47708D01*
X47842Y5508D01*
X107747Y47684D02*
X108547D01*
Y48083D01*
X108414Y48217D01*
X108147D01*
X108014Y48083D01*
Y47684D01*
Y47950D02*
X107747Y48217D01*
Y48483D02*
Y48750D01*
Y48617D01*
X108547D01*
X108414Y48483D01*
X108547Y49150D02*
Y49683D01*
X108414D01*
X107880Y49150D01*
X107747D01*
X91350Y64335D02*
Y65135D01*
X90950D01*
X90817Y65002D01*
Y64735D01*
X90950Y64602D01*
X91350D01*
X91083D02*
X90817Y64335D01*
X90550D02*
X90283D01*
X90417D01*
Y65135D01*
X90550Y65002D01*
X89350Y65135D02*
X89617Y65002D01*
X89883Y64735D01*
Y64468D01*
X89750Y64335D01*
X89484D01*
X89350Y64468D01*
Y64602D01*
X89484Y64735D01*
X89883D01*
X120766Y41825D02*
Y42625D01*
X120366D01*
X120233Y42492D01*
Y42225D01*
X120366Y42092D01*
X120766D01*
X120500D02*
X120233Y41825D01*
X119967Y42492D02*
X119833Y42625D01*
X119567D01*
X119433Y42492D01*
Y42358D01*
X119567Y42225D01*
X119700D01*
X119567D01*
X119433Y42092D01*
Y41958D01*
X119567Y41825D01*
X119833D01*
X119967Y41958D01*
X119167D02*
X119034Y41825D01*
X118767D01*
X118634Y41958D01*
Y42492D01*
X118767Y42625D01*
X119034D01*
X119167Y42492D01*
Y42358D01*
X119034Y42225D01*
X118634D01*
X109225Y9700D02*
Y8900D01*
X108825D01*
X108692Y9033D01*
Y9567D01*
X108825Y9700D01*
X109225D01*
X108425Y8900D02*
X108158D01*
X108292D01*
Y9700D01*
X108425Y9567D01*
X107758D02*
X107625Y9700D01*
X107359D01*
X107225Y9567D01*
Y9033D01*
X107359Y8900D01*
X107625D01*
X107758Y9033D01*
Y9567D01*
X219567Y13756D02*
X219700Y13623D01*
Y13356D01*
X219567Y13223D01*
X219033D01*
X218900Y13356D01*
Y13623D01*
X219033Y13756D01*
X218900Y14556D02*
Y14022D01*
X219433Y14556D01*
X219567D01*
X219700Y14422D01*
Y14156D01*
X219567Y14022D01*
X219700Y15355D02*
X219567Y15089D01*
X219300Y14822D01*
X219033D01*
X218900Y14955D01*
Y15222D01*
X219033Y15355D01*
X219167D01*
X219300Y15222D01*
Y14822D01*
X210083Y5642D02*
X210217Y5775D01*
X210483D01*
X210616Y5642D01*
Y5108D01*
X210483Y4975D01*
X210217D01*
X210083Y5108D01*
X209284Y5775D02*
X209550Y5642D01*
X209817Y5375D01*
Y5108D01*
X209683Y4975D01*
X209417D01*
X209284Y5108D01*
Y5242D01*
X209417Y5375D01*
X209817D01*
X24858Y56517D02*
X24991Y56650D01*
X25258D01*
X25391Y56517D01*
Y55983D01*
X25258Y55850D01*
X24991D01*
X24858Y55983D01*
X24592Y56517D02*
X24458Y56650D01*
X24192D01*
X24058Y56517D01*
Y56383D01*
X24192Y56250D01*
X24325D01*
X24192D01*
X24058Y56117D01*
Y55983D01*
X24192Y55850D01*
X24458D01*
X24592Y55983D01*
X23392Y55850D02*
Y56650D01*
X23792Y56250D01*
X23259D01*
X34208Y58400D02*
Y57867D01*
X33941Y57600D01*
X33675Y57867D01*
Y58400D01*
X33408D02*
Y57600D01*
X33008D01*
X32875Y57733D01*
Y58267D01*
X33008Y58400D01*
X33408D01*
X32609Y57600D02*
X32342D01*
X32475D01*
Y58400D01*
X32609Y58267D01*
X87341Y52975D02*
Y52442D01*
X87075Y52175D01*
X86808Y52442D01*
Y52975D01*
X86542D02*
Y52175D01*
X86142D01*
X86008Y52308D01*
Y52842D01*
X86142Y52975D01*
X86542D01*
X85742Y52842D02*
X85609Y52975D01*
X85342D01*
X85209Y52842D01*
Y52708D01*
X85342Y52575D01*
X85209Y52442D01*
Y52308D01*
X85342Y52175D01*
X85609D01*
X85742Y52308D01*
Y52442D01*
X85609Y52575D01*
X85742Y52708D01*
Y52842D01*
X85609Y52575D02*
X85342D01*
X116116Y52775D02*
Y52242D01*
X115850Y51975D01*
X115583Y52242D01*
Y52775D01*
X115317D02*
Y51975D01*
X114917D01*
X114783Y52108D01*
Y52642D01*
X114917Y52775D01*
X115317D01*
X114517D02*
X113984D01*
Y52642D01*
X114517Y52108D01*
Y51975D01*
X108300Y43325D02*
X109100D01*
Y43725D01*
X108967Y43858D01*
X108700D01*
X108567Y43725D01*
Y43325D01*
Y43592D02*
X108300Y43858D01*
Y44125D02*
Y44392D01*
Y44258D01*
X109100D01*
X108967Y44125D01*
X108433Y44792D02*
X108300Y44925D01*
Y45191D01*
X108433Y45325D01*
X108967D01*
X109100Y45191D01*
Y44925D01*
X108967Y44792D01*
X108833D01*
X108700Y44925D01*
Y45325D01*
X91725Y54825D02*
X92525D01*
Y55225D01*
X92392Y55358D01*
X92125D01*
X91992Y55225D01*
Y54825D01*
Y55092D02*
X91725Y55358D01*
Y55625D02*
Y55892D01*
Y55758D01*
X92525D01*
X92392Y55625D01*
Y56292D02*
X92525Y56425D01*
Y56691D01*
X92392Y56825D01*
X92258D01*
X92125Y56691D01*
X91992Y56825D01*
X91858D01*
X91725Y56691D01*
Y56425D01*
X91858Y56292D01*
X91992D01*
X92125Y56425D01*
X92258Y56292D01*
X92392D01*
X92125Y56425D02*
Y56691D01*
X109541Y21800D02*
Y21000D01*
X109142D01*
X109008Y21133D01*
Y21667D01*
X109142Y21800D01*
X109541D01*
X108742Y21667D02*
X108608Y21800D01*
X108342D01*
X108209Y21667D01*
Y21533D01*
X108342Y21400D01*
X108209Y21267D01*
Y21133D01*
X108342Y21000D01*
X108608D01*
X108742Y21133D01*
Y21267D01*
X108608Y21400D01*
X108742Y21533D01*
Y21667D01*
X108608Y21400D02*
X108342D01*
X109916Y13950D02*
Y13150D01*
X109517D01*
X109383Y13283D01*
Y13817D01*
X109517Y13950D01*
X109916D01*
X109117Y13283D02*
X108983Y13150D01*
X108717D01*
X108584Y13283D01*
Y13817D01*
X108717Y13950D01*
X108983D01*
X109117Y13817D01*
Y13683D01*
X108983Y13550D01*
X108584D01*
X109991Y17825D02*
Y17025D01*
X109592D01*
X109458Y17158D01*
Y17692D01*
X109592Y17825D01*
X109991D01*
X108659D02*
X108925Y17692D01*
X109192Y17425D01*
Y17158D01*
X109058Y17025D01*
X108792D01*
X108659Y17158D01*
Y17292D01*
X108792Y17425D01*
X109192D01*
X84945Y63359D02*
X84145D01*
Y63758D01*
X84278Y63892D01*
X84812D01*
X84945Y63758D01*
Y63359D01*
X84145Y64558D02*
X84945D01*
X84545Y64158D01*
Y64691D01*
X112266Y56175D02*
Y55375D01*
X111867D01*
X111733Y55508D01*
Y56042D01*
X111867Y56175D01*
X112266D01*
X111467Y56042D02*
X111333Y56175D01*
X111067D01*
X110934Y56042D01*
Y55908D01*
X111067Y55775D01*
X111200D01*
X111067D01*
X110934Y55642D01*
Y55508D01*
X111067Y55375D01*
X111333D01*
X111467Y55508D01*
X213308Y58658D02*
X213175Y58791D01*
Y59058D01*
X213308Y59191D01*
X213842D01*
X213975Y59058D01*
Y58791D01*
X213842Y58658D01*
X213308Y58392D02*
X213175Y58258D01*
Y57992D01*
X213308Y57858D01*
X213442D01*
X213575Y57992D01*
Y58125D01*
Y57992D01*
X213708Y57858D01*
X213842D01*
X213975Y57992D01*
Y58258D01*
X213842Y58392D01*
X213308Y57592D02*
X213175Y57459D01*
Y57192D01*
X213308Y57059D01*
X213442D01*
X213575Y57192D01*
X213708Y57059D01*
X213842D01*
X213975Y57192D01*
Y57459D01*
X213842Y57592D01*
X213708D01*
X213575Y57459D01*
X213442Y57592D01*
X213308D01*
X213575Y57459D02*
Y57192D01*
X172617Y70817D02*
X172750Y70684D01*
Y70417D01*
X172617Y70284D01*
X172083D01*
X171950Y70417D01*
Y70684D01*
X172083Y70817D01*
X172617Y71083D02*
X172750Y71217D01*
Y71483D01*
X172617Y71617D01*
X172483D01*
X172350Y71483D01*
Y71350D01*
Y71483D01*
X172217Y71617D01*
X172083D01*
X171950Y71483D01*
Y71217D01*
X172083Y71083D01*
X172750Y72416D02*
X172617Y72150D01*
X172350Y71883D01*
X172083D01*
X171950Y72016D01*
Y72283D01*
X172083Y72416D01*
X172217D01*
X172350Y72283D01*
Y71883D01*
X201197Y32218D02*
X201330Y32351D01*
X201597D01*
X201730Y32218D01*
Y31685D01*
X201597Y31552D01*
X201330D01*
X201197Y31685D01*
X200397Y31552D02*
X200931D01*
X200397Y32085D01*
Y32218D01*
X200531Y32351D01*
X200797D01*
X200931Y32218D01*
X200131Y31685D02*
X199998Y31552D01*
X199731D01*
X199598Y31685D01*
Y32218D01*
X199731Y32351D01*
X199998D01*
X200131Y32218D01*
Y32085D01*
X199998Y31952D01*
X199598D01*
X164441Y70225D02*
Y71025D01*
X164041D01*
X163908Y70892D01*
Y70625D01*
X164041Y70492D01*
X164441D01*
X164175D02*
X163908Y70225D01*
X163642Y70892D02*
X163508Y71025D01*
X163242D01*
X163108Y70892D01*
Y70758D01*
X163242Y70625D01*
X163375D01*
X163242D01*
X163108Y70492D01*
Y70358D01*
X163242Y70225D01*
X163508D01*
X163642Y70358D01*
X162442Y70225D02*
Y71025D01*
X162842Y70625D01*
X162309D01*
X204575Y45434D02*
X205375D01*
Y45834D01*
X205242Y45967D01*
X204975D01*
X204842Y45834D01*
Y45434D01*
Y45700D02*
X204575Y45967D01*
Y46767D02*
Y46233D01*
X205108Y46767D01*
X205242D01*
X205375Y46633D01*
Y46367D01*
X205242Y46233D01*
Y47033D02*
X205375Y47166D01*
Y47433D01*
X205242Y47566D01*
X205108D01*
X204975Y47433D01*
Y47300D01*
Y47433D01*
X204842Y47566D01*
X204708D01*
X204575Y47433D01*
Y47166D01*
X204708Y47033D01*
X199741Y41950D02*
Y41283D01*
X199608Y41150D01*
X199342D01*
X199208Y41283D01*
Y41950D01*
X198942Y41817D02*
X198808Y41950D01*
X198542D01*
X198409Y41817D01*
Y41683D01*
X198542Y41550D01*
X198675D01*
X198542D01*
X198409Y41417D01*
Y41283D01*
X198542Y41150D01*
X198808D01*
X198942Y41283D01*
X196231Y41367D02*
X196364Y41234D01*
Y40967D01*
X196231Y40834D01*
X195697D01*
X195564Y40967D01*
Y41234D01*
X195697Y41367D01*
X195564Y42167D02*
Y41633D01*
X196097Y42167D01*
X196231D01*
X196364Y42033D01*
Y41767D01*
X196231Y41633D01*
Y42433D02*
X196364Y42566D01*
Y42833D01*
X196231Y42966D01*
X195697D01*
X195564Y42833D01*
Y42566D01*
X195697Y42433D01*
X196231D01*
X191965Y25366D02*
X191432D01*
X191165Y25632D01*
X191432Y25899D01*
X191965D01*
Y26166D02*
X191165D01*
Y26565D01*
X191299Y26699D01*
X191832D01*
X191965Y26565D01*
Y26166D01*
X191165Y26965D02*
Y27232D01*
Y27099D01*
X191965D01*
X191832Y26965D01*
X191165Y28165D02*
Y27632D01*
X191699Y28165D01*
X191832D01*
X191965Y28032D01*
Y27765D01*
X191832Y27632D01*
X209114Y37901D02*
Y37368D01*
X208847Y37102D01*
X208580Y37368D01*
Y37901D01*
X208314D02*
Y37102D01*
X207914D01*
X207781Y37235D01*
Y37768D01*
X207914Y37901D01*
X208314D01*
X207514Y37102D02*
X207248D01*
X207381D01*
Y37901D01*
X207514Y37768D01*
X206848D02*
X206714Y37901D01*
X206448D01*
X206314Y37768D01*
Y37235D01*
X206448Y37102D01*
X206714D01*
X206848Y37235D01*
Y37768D01*
X208330Y40540D02*
Y40007D01*
X208064Y39740D01*
X207797Y40007D01*
Y40540D01*
X207531D02*
Y39740D01*
X207131D01*
X206997Y39873D01*
Y40407D01*
X207131Y40540D01*
X207531D01*
X206731Y39873D02*
X206598Y39740D01*
X206331D01*
X206198Y39873D01*
Y40407D01*
X206331Y40540D01*
X206598D01*
X206731Y40407D01*
Y40273D01*
X206598Y40140D01*
X206198D01*
X207756Y33418D02*
X207889Y33285D01*
Y33019D01*
X207756Y32885D01*
X207222D01*
X207089Y33019D01*
Y33285D01*
X207222Y33418D01*
X207089Y34218D02*
Y33685D01*
X207622Y34218D01*
X207756D01*
X207889Y34085D01*
Y33818D01*
X207756Y33685D01*
X207889Y35018D02*
Y34485D01*
X207489D01*
X207622Y34751D01*
Y34885D01*
X207489Y35018D01*
X207222D01*
X207089Y34885D01*
Y34618D01*
X207222Y34485D01*
X204359Y30677D02*
X204492Y30543D01*
Y30277D01*
X204359Y30143D01*
X203825D01*
X203692Y30277D01*
Y30543D01*
X203825Y30677D01*
X203692Y31476D02*
Y30943D01*
X204225Y31476D01*
X204359D01*
X204492Y31343D01*
Y31077D01*
X204359Y30943D01*
X203692Y31743D02*
Y32010D01*
Y31876D01*
X204492D01*
X204359Y31743D01*
X76375Y62716D02*
X75842D01*
X75575Y62982D01*
X75842Y63249D01*
X76375D01*
Y63515D02*
X75575D01*
Y63915D01*
X75708Y64049D01*
X76242D01*
X76375Y63915D01*
Y63515D01*
Y64848D02*
Y64315D01*
X75975D01*
X76108Y64582D01*
Y64715D01*
X75975Y64848D01*
X75708D01*
X75575Y64715D01*
Y64448D01*
X75708Y64315D01*
X198766Y23950D02*
Y23283D01*
X198633Y23150D01*
X198367D01*
X198233Y23283D01*
Y23950D01*
X197567Y23150D02*
Y23950D01*
X197967Y23550D01*
X197434D01*
X167966Y77205D02*
Y78005D01*
X167566D01*
X167433Y77872D01*
Y77605D01*
X167566Y77472D01*
X167966D01*
X167700D02*
X167433Y77205D01*
X167167Y77872D02*
X167033Y78005D01*
X166767D01*
X166633Y77872D01*
Y77739D01*
X166767Y77605D01*
X166900D01*
X166767D01*
X166633Y77472D01*
Y77339D01*
X166767Y77205D01*
X167033D01*
X167167Y77339D01*
X166367Y77872D02*
X166234Y78005D01*
X165967D01*
X165834Y77872D01*
Y77739D01*
X165967Y77605D01*
X166100D01*
X165967D01*
X165834Y77472D01*
Y77339D01*
X165967Y77205D01*
X166234D01*
X166367Y77339D01*
X218541Y63825D02*
Y63025D01*
X218941D01*
X219074Y63158D01*
Y63425D01*
X218941Y63558D01*
X218541D01*
X218807D02*
X219074Y63825D01*
X219874D02*
X219340D01*
X219874Y63292D01*
Y63158D01*
X219740Y63025D01*
X219474D01*
X219340Y63158D01*
X220140Y63692D02*
X220273Y63825D01*
X220540D01*
X220673Y63692D01*
Y63158D01*
X220540Y63025D01*
X220273D01*
X220140Y63158D01*
Y63292D01*
X220273Y63425D01*
X220673D01*
X193050Y31359D02*
X193850D01*
Y31759D01*
X193717Y31892D01*
X193450D01*
X193317Y31759D01*
Y31359D01*
Y31625D02*
X193050Y31892D01*
X193717Y32158D02*
X193850Y32292D01*
Y32558D01*
X193717Y32692D01*
X193583D01*
X193450Y32558D01*
Y32425D01*
Y32558D01*
X193317Y32692D01*
X193183D01*
X193050Y32558D01*
Y32292D01*
X193183Y32158D01*
X193717Y32958D02*
X193850Y33091D01*
Y33358D01*
X193717Y33491D01*
X193183D01*
X193050Y33358D01*
Y33091D01*
X193183Y32958D01*
X193717D01*
X191375Y31359D02*
X192175D01*
Y31759D01*
X192042Y31892D01*
X191775D01*
X191642Y31759D01*
Y31359D01*
Y31625D02*
X191375Y31892D01*
Y32692D02*
Y32158D01*
X191908Y32692D01*
X192042D01*
X192175Y32558D01*
Y32292D01*
X192042Y32158D01*
X192175Y33491D02*
X192042Y33225D01*
X191775Y32958D01*
X191508D01*
X191375Y33091D01*
Y33358D01*
X191508Y33491D01*
X191642D01*
X191775Y33358D01*
Y32958D01*
X193150Y41009D02*
X193950D01*
Y41409D01*
X193817Y41542D01*
X193550D01*
X193417Y41409D01*
Y41009D01*
Y41275D02*
X193150Y41542D01*
Y42342D02*
Y41808D01*
X193683Y42342D01*
X193817D01*
X193950Y42208D01*
Y41942D01*
X193817Y41808D01*
X193150Y43008D02*
X193950D01*
X193550Y42608D01*
Y43141D01*
X222541Y68050D02*
Y68850D01*
X222141D01*
X222008Y68717D01*
Y68450D01*
X222141Y68317D01*
X222541D01*
X222275D02*
X222008Y68050D01*
X221208D02*
X221742D01*
X221208Y68583D01*
Y68717D01*
X221342Y68850D01*
X221608D01*
X221742Y68717D01*
X220942D02*
X220809Y68850D01*
X220542D01*
X220409Y68717D01*
Y68183D01*
X220542Y68050D01*
X220809D01*
X220942Y68183D01*
Y68717D01*
X131575Y53434D02*
X132375D01*
Y53833D01*
X132242Y53967D01*
X131975D01*
X131842Y53833D01*
Y53434D01*
Y53700D02*
X131575Y53967D01*
X131708Y54233D02*
X131575Y54367D01*
Y54633D01*
X131708Y54766D01*
X132242D01*
X132375Y54633D01*
Y54367D01*
X132242Y54233D01*
X132108D01*
X131975Y54367D01*
Y54766D01*
X131650Y61734D02*
X132450D01*
Y62133D01*
X132317Y62267D01*
X132050D01*
X131917Y62133D01*
Y61734D01*
Y62000D02*
X131650Y62267D01*
X132317Y62533D02*
X132450Y62667D01*
Y62933D01*
X132317Y63066D01*
X132183D01*
X132050Y62933D01*
X131917Y63066D01*
X131783D01*
X131650Y62933D01*
Y62667D01*
X131783Y62533D01*
X131917D01*
X132050Y62667D01*
X132183Y62533D01*
X132317D01*
X132050Y62667D02*
Y62933D01*
X121050Y68809D02*
X121850D01*
Y69208D01*
X121717Y69342D01*
X121450D01*
X121317Y69208D01*
Y68809D01*
Y69075D02*
X121050Y69342D01*
X121850Y69608D02*
Y70141D01*
X121717D01*
X121183Y69608D01*
X121050D01*
X200697Y30793D02*
X200830Y30926D01*
X201097D01*
X201230Y30793D01*
Y30260D01*
X201097Y30127D01*
X200830D01*
X200697Y30260D01*
X199897Y30127D02*
X200431D01*
X199897Y30660D01*
Y30793D01*
X200031Y30926D01*
X200297D01*
X200431Y30793D01*
X199631D02*
X199498Y30926D01*
X199231D01*
X199098Y30793D01*
Y30660D01*
X199231Y30527D01*
X199098Y30393D01*
Y30260D01*
X199231Y30127D01*
X199498D01*
X199631Y30260D01*
Y30393D01*
X199498Y30527D01*
X199631Y30660D01*
Y30793D01*
X199498Y30527D02*
X199231D01*
X77567Y69742D02*
X77700Y69875D01*
X77966D01*
X78100Y69742D01*
Y69208D01*
X77966Y69075D01*
X77700D01*
X77567Y69208D01*
X77300Y69075D02*
X77033D01*
X77167D01*
Y69875D01*
X77300Y69742D01*
X76100Y69075D02*
X76634D01*
X76100Y69608D01*
Y69742D01*
X76234Y69875D01*
X76500D01*
X76634Y69742D01*
D92*
X86450Y61510D02*
D03*
X114878Y50789D02*
D03*
D93*
X27568Y72682D02*
D03*
X86480Y63718D02*
D03*
X193314Y26270D02*
D03*
D94*
X54715Y9400D02*
D03*
X62935Y13500D02*
D03*
X110365Y21700D02*
D03*
X110215Y9375D02*
D03*
X118560Y17550D02*
D03*
X54715Y5250D02*
D03*
X62935Y17625D02*
D03*
X118435Y13475D02*
D03*
D95*
X194458Y23120D02*
D03*
X112006Y54031D02*
D03*
D96*
X195119Y36151D02*
D03*
Y32951D02*
D03*
%TF.MD5,1ef4ded38215f3fa517da4e40775388b*%
M02*
