%TF.GenerationSoftware,Altium Limited,Altium Designer,24.3.1 (35)*%
G04 Layer_Color=8388736*
%FSLAX43Y43*%
%MOMM*%
%TF.SameCoordinates,2EF1D394-34E5-4190-8ABA-250447B0B6E5*%
%TF.FilePolarity,Positive*%
%TF.FileFunction,Other,Bottom_Component_Outline*%
%TF.Part,Single*%
G01*
G75*
%TA.AperFunction,NonConductor*%
%ADD90C,0.150*%
D90*
X100175Y33000D02*
X101175D01*
X100675Y32500D02*
Y33500D01*
X98425Y28500D02*
Y37500D01*
X102925Y28500D02*
Y37500D01*
X98425D02*
X102925D01*
X98425Y28500D02*
X102925D01*
X100325Y22075D02*
X101325D01*
X100825Y21575D02*
Y22575D01*
X98575Y17575D02*
Y26575D01*
X103075Y17575D02*
Y26575D01*
X98575D02*
X103075D01*
X98575Y17575D02*
X103075D01*
X98425Y41600D02*
X102925D01*
X98425Y50600D02*
X102925D01*
Y41600D02*
Y50600D01*
X98425Y41600D02*
Y50600D01*
X100675Y45600D02*
Y46600D01*
X100175Y46100D02*
X101175D01*
X100299Y8654D02*
X101299D01*
X100799Y8154D02*
Y9154D01*
X98549Y4154D02*
Y13154D01*
X103049Y4154D02*
Y13154D01*
X98549D02*
X103049D01*
X98549Y4154D02*
X103049D01*
%TF.MD5,e91b7862a3a7c66630d20c0dcc3cb9a3*%
M02*
