%TF.GenerationSoftware,Altium Limited,Altium Designer,24.3.1 (35)*%
G04 Layer_Color=32768*
%FSLAX43Y43*%
%MOMM*%
%TF.SameCoordinates,2EF1D394-34E5-4190-8ABA-250447B0B6E5*%
%TF.FilePolarity,Positive*%
%TF.FileFunction,Other,Top_Assembly*%
%TF.Part,Single*%
G01*
G75*
%TA.AperFunction,NonConductor*%
%ADD88C,0.200*%
%ADD91C,0.254*%
%ADD129C,0.100*%
%ADD136R,0.575X1.375*%
%ADD137R,1.300X3.675*%
G36*
X12202Y74477D02*
X12213D01*
X12225Y74476D01*
X12238Y74475D01*
X12268Y74473D01*
X12298Y74468D01*
X12328Y74463D01*
X12342Y74459D01*
X12356Y74454D01*
X12357D01*
X12359Y74453D01*
X12362Y74451D01*
X12367Y74450D01*
X12373Y74448D01*
X12380Y74444D01*
X12396Y74437D01*
X12412Y74427D01*
X12431Y74415D01*
X12447Y74402D01*
X12463Y74385D01*
Y74384D01*
X12465Y74383D01*
X12467Y74380D01*
X12469Y74377D01*
X12471Y74372D01*
X12475Y74367D01*
X12482Y74353D01*
X12488Y74337D01*
X12494Y74317D01*
X12498Y74294D01*
X12500Y74269D01*
Y74260D01*
X12499Y74254D01*
X12498Y74246D01*
X12496Y74237D01*
X12494Y74227D01*
X12492Y74216D01*
X12488Y74205D01*
X12484Y74193D01*
X12479Y74181D01*
X12472Y74169D01*
X12465Y74157D01*
X12456Y74144D01*
X12445Y74133D01*
X12434Y74123D01*
X12433Y74122D01*
X12431Y74120D01*
X12426Y74118D01*
X12419Y74113D01*
X12410Y74108D01*
X12399Y74104D01*
X12386Y74097D01*
X12372Y74092D01*
X12355Y74086D01*
X12335Y74081D01*
X12314Y74075D01*
X12290Y74071D01*
X12264Y74066D01*
X12237Y74063D01*
X12206Y74061D01*
X12174Y74060D01*
X12173D01*
X12169D01*
X12163D01*
X12155D01*
X12145Y74061D01*
X12134D01*
X12122Y74062D01*
X12108Y74063D01*
X12079Y74066D01*
X12049Y74071D01*
X12018Y74076D01*
X12004Y74080D01*
X11991Y74083D01*
X11990D01*
X11988Y74084D01*
X11984Y74086D01*
X11979Y74088D01*
X11973Y74090D01*
X11967Y74094D01*
X11951Y74101D01*
X11934Y74110D01*
X11917Y74122D01*
X11899Y74136D01*
X11884Y74153D01*
Y74154D01*
X11882Y74155D01*
X11881Y74157D01*
X11879Y74161D01*
X11875Y74166D01*
X11872Y74171D01*
X11865Y74185D01*
X11858Y74202D01*
X11852Y74221D01*
X11848Y74244D01*
X11846Y74269D01*
Y74278D01*
X11847Y74288D01*
X11849Y74300D01*
X11852Y74314D01*
X11856Y74328D01*
X11860Y74344D01*
X11868Y74359D01*
Y74360D01*
X11869Y74361D01*
X11871Y74365D01*
X11876Y74373D01*
X11882Y74382D01*
X11892Y74392D01*
X11902Y74403D01*
X11914Y74414D01*
X11928Y74424D01*
X11930Y74425D01*
X11934Y74428D01*
X11943Y74432D01*
X11955Y74438D01*
X11968Y74444D01*
X11984Y74451D01*
X12003Y74458D01*
X12023Y74463D01*
X12024D01*
X12026Y74464D01*
X12028Y74465D01*
X12033Y74466D01*
X12039Y74467D01*
X12045Y74468D01*
X12053Y74470D01*
X12063Y74471D01*
X12073Y74473D01*
X12084Y74474D01*
X12097Y74475D01*
X12110Y74476D01*
X12125Y74477D01*
X12139D01*
X12156Y74478D01*
X12174D01*
X12175D01*
X12178D01*
X12185D01*
X12192D01*
X12202Y74477D01*
D02*
G37*
G36*
X12314Y73982D02*
X12322Y73981D01*
X12330Y73979D01*
X12339Y73977D01*
X12349Y73975D01*
X12372Y73968D01*
X12384Y73962D01*
X12395Y73957D01*
X12407Y73949D01*
X12419Y73941D01*
X12431Y73932D01*
X12442Y73921D01*
X12443Y73920D01*
X12445Y73918D01*
X12447Y73914D01*
X12451Y73910D01*
X12456Y73904D01*
X12460Y73897D01*
X12466Y73888D01*
X12470Y73878D01*
X12476Y73868D01*
X12482Y73856D01*
X12486Y73844D01*
X12491Y73830D01*
X12494Y73815D01*
X12497Y73800D01*
X12499Y73784D01*
X12500Y73766D01*
Y73758D01*
X12499Y73752D01*
X12498Y73745D01*
X12497Y73737D01*
X12495Y73728D01*
X12494Y73717D01*
X12488Y73695D01*
X12479Y73672D01*
X12473Y73660D01*
X12467Y73649D01*
X12458Y73638D01*
X12450Y73627D01*
X12449Y73626D01*
X12447Y73624D01*
X12445Y73621D01*
X12441Y73618D01*
X12436Y73614D01*
X12430Y73609D01*
X12423Y73604D01*
X12415Y73598D01*
X12406Y73593D01*
X12396Y73587D01*
X12374Y73577D01*
X12348Y73568D01*
X12335Y73566D01*
X12320Y73564D01*
X12310Y73642D01*
X12310D01*
X12312Y73643D01*
X12316Y73644D01*
X12321Y73645D01*
X12326Y73646D01*
X12333Y73648D01*
X12347Y73653D01*
X12363Y73659D01*
X12379Y73667D01*
X12394Y73677D01*
X12407Y73688D01*
X12408Y73690D01*
X12411Y73693D01*
X12416Y73701D01*
X12420Y73710D01*
X12426Y73721D01*
X12431Y73735D01*
X12434Y73751D01*
X12435Y73767D01*
Y73773D01*
X12434Y73777D01*
X12433Y73787D01*
X12431Y73800D01*
X12426Y73814D01*
X12420Y73830D01*
X12410Y73846D01*
X12397Y73861D01*
X12396Y73862D01*
X12390Y73867D01*
X12382Y73873D01*
X12371Y73880D01*
X12357Y73887D01*
X12341Y73893D01*
X12323Y73898D01*
X12302Y73899D01*
X12301D01*
X12299D01*
X12297D01*
X12293Y73899D01*
X12283Y73898D01*
X12271Y73895D01*
X12256Y73891D01*
X12241Y73885D01*
X12226Y73875D01*
X12212Y73863D01*
X12211Y73862D01*
X12207Y73857D01*
X12201Y73850D01*
X12195Y73839D01*
X12188Y73826D01*
X12183Y73811D01*
X12179Y73793D01*
X12177Y73774D01*
Y73765D01*
X12178Y73759D01*
X12179Y73751D01*
X12181Y73741D01*
X12183Y73730D01*
X12186Y73718D01*
X12116Y73728D01*
Y73732D01*
X12117Y73736D01*
Y73748D01*
X12115Y73758D01*
X12114Y73770D01*
X12111Y73784D01*
X12106Y73800D01*
X12100Y73814D01*
X12091Y73830D01*
Y73831D01*
X12090Y73832D01*
X12087Y73837D01*
X12080Y73843D01*
X12072Y73850D01*
X12060Y73858D01*
X12046Y73864D01*
X12030Y73869D01*
X12021Y73871D01*
X12011D01*
X12010D01*
X12009D01*
X12004D01*
X11996Y73869D01*
X11986Y73867D01*
X11975Y73863D01*
X11963Y73859D01*
X11951Y73851D01*
X11940Y73841D01*
X11939Y73840D01*
X11935Y73836D01*
X11930Y73829D01*
X11925Y73821D01*
X11920Y73810D01*
X11916Y73797D01*
X11912Y73782D01*
X11911Y73765D01*
Y73758D01*
X11913Y73750D01*
X11915Y73739D01*
X11918Y73727D01*
X11923Y73715D01*
X11930Y73702D01*
X11940Y73690D01*
X11941Y73689D01*
X11945Y73685D01*
X11952Y73679D01*
X11961Y73673D01*
X11973Y73666D01*
X11988Y73660D01*
X12005Y73654D01*
X12026Y73651D01*
X12012Y73572D01*
X12011D01*
X12008Y73573D01*
X12004Y73574D01*
X11999Y73575D01*
X11992Y73577D01*
X11985Y73580D01*
X11967Y73585D01*
X11947Y73594D01*
X11927Y73605D01*
X11907Y73619D01*
X11890Y73637D01*
X11889Y73638D01*
X11888Y73640D01*
X11886Y73642D01*
X11883Y73646D01*
X11880Y73651D01*
X11876Y73657D01*
X11872Y73664D01*
X11868Y73672D01*
X11860Y73691D01*
X11853Y73712D01*
X11848Y73737D01*
X11846Y73750D01*
Y73773D01*
X11847Y73783D01*
X11849Y73795D01*
X11852Y73810D01*
X11857Y73826D01*
X11862Y73843D01*
X11869Y73860D01*
Y73861D01*
X11870Y73862D01*
X11873Y73867D01*
X11879Y73875D01*
X11885Y73885D01*
X11894Y73896D01*
X11905Y73907D01*
X11917Y73918D01*
X11930Y73927D01*
X11932Y73928D01*
X11937Y73931D01*
X11945Y73935D01*
X11955Y73939D01*
X11967Y73944D01*
X11981Y73948D01*
X11997Y73950D01*
X12013Y73951D01*
X12015D01*
X12020D01*
X12028Y73950D01*
X12038Y73948D01*
X12050Y73946D01*
X12063Y73941D01*
X12076Y73936D01*
X12089Y73928D01*
X12090Y73927D01*
X12094Y73924D01*
X12101Y73919D01*
X12108Y73911D01*
X12116Y73902D01*
X12126Y73891D01*
X12134Y73878D01*
X12142Y73862D01*
Y73863D01*
X12143Y73865D01*
X12144Y73868D01*
X12145Y73872D01*
X12149Y73882D01*
X12154Y73895D01*
X12162Y73910D01*
X12171Y73924D01*
X12183Y73938D01*
X12197Y73951D01*
X12199Y73952D01*
X12204Y73956D01*
X12213Y73961D01*
X12225Y73967D01*
X12240Y73973D01*
X12258Y73978D01*
X12278Y73982D01*
X12300Y73983D01*
X12301D01*
X12304D01*
X12309D01*
X12314Y73982D01*
D02*
G37*
G36*
X12291Y73490D02*
X12297Y73488D01*
X12304Y73485D01*
X12312Y73482D01*
X12323Y73479D01*
X12334Y73474D01*
X12346Y73469D01*
X12372Y73456D01*
X12397Y73439D01*
X12410Y73429D01*
X12423Y73419D01*
X12434Y73408D01*
X12445Y73395D01*
X12446Y73394D01*
X12448Y73392D01*
X12450Y73387D01*
X12454Y73383D01*
X12458Y73375D01*
X12463Y73368D01*
X12468Y73358D01*
X12472Y73348D01*
X12478Y73335D01*
X12482Y73323D01*
X12487Y73309D01*
X12492Y73294D01*
X12495Y73278D01*
X12497Y73262D01*
X12499Y73244D01*
X12500Y73225D01*
Y73215D01*
X12499Y73208D01*
Y73200D01*
X12498Y73189D01*
X12496Y73178D01*
X12494Y73165D01*
X12490Y73139D01*
X12482Y73111D01*
X12472Y73083D01*
X12466Y73070D01*
X12458Y73057D01*
X12457Y73056D01*
X12457Y73054D01*
X12454Y73051D01*
X12450Y73047D01*
X12446Y73041D01*
X12441Y73035D01*
X12434Y73028D01*
X12427Y73020D01*
X12419Y73013D01*
X12410Y73005D01*
X12389Y72988D01*
X12364Y72972D01*
X12336Y72958D01*
X12335D01*
X12333Y72956D01*
X12328Y72955D01*
X12323Y72953D01*
X12315Y72951D01*
X12306Y72948D01*
X12296Y72944D01*
X12285Y72942D01*
X12273Y72939D01*
X12259Y72935D01*
X12230Y72931D01*
X12198Y72927D01*
X12164Y72925D01*
X12163D01*
X12160D01*
X12154D01*
X12148Y72926D01*
X12139D01*
X12129Y72927D01*
X12117Y72928D01*
X12105Y72930D01*
X12078Y72934D01*
X12049Y72941D01*
X12019Y72950D01*
X11991Y72963D01*
X11990Y72964D01*
X11987Y72965D01*
X11983Y72967D01*
X11979Y72970D01*
X11972Y72974D01*
X11965Y72979D01*
X11948Y72991D01*
X11930Y73006D01*
X11911Y73025D01*
X11893Y73046D01*
X11877Y73071D01*
X11876Y73072D01*
X11875Y73075D01*
X11873Y73078D01*
X11870Y73083D01*
X11868Y73090D01*
X11865Y73098D01*
X11861Y73107D01*
X11857Y73117D01*
X11854Y73128D01*
X11850Y73140D01*
X11844Y73166D01*
X11840Y73196D01*
X11838Y73226D01*
Y73236D01*
X11839Y73242D01*
X11840Y73250D01*
X11841Y73261D01*
X11842Y73271D01*
X11844Y73283D01*
X11850Y73308D01*
X11858Y73335D01*
X11864Y73349D01*
X11870Y73362D01*
X11879Y73375D01*
X11887Y73388D01*
X11888Y73389D01*
X11889Y73391D01*
X11892Y73395D01*
X11896Y73399D01*
X11901Y73404D01*
X11907Y73410D01*
X11915Y73417D01*
X11922Y73424D01*
X11931Y73432D01*
X11943Y73439D01*
X11954Y73447D01*
X11966Y73455D01*
X11979Y73461D01*
X11993Y73469D01*
X12008Y73474D01*
X12025Y73480D01*
X12044Y73397D01*
X12043D01*
X12041Y73396D01*
X12038Y73394D01*
X12033Y73392D01*
X12028Y73390D01*
X12020Y73387D01*
X12005Y73380D01*
X11989Y73371D01*
X11972Y73360D01*
X11956Y73346D01*
X11943Y73331D01*
X11941Y73329D01*
X11937Y73323D01*
X11932Y73314D01*
X11926Y73302D01*
X11920Y73286D01*
X11915Y73269D01*
X11911Y73248D01*
X11910Y73225D01*
Y73217D01*
X11911Y73213D01*
Y73206D01*
X11912Y73199D01*
X11915Y73181D01*
X11918Y73162D01*
X11925Y73141D01*
X11934Y73120D01*
X11946Y73101D01*
Y73100D01*
X11948Y73099D01*
X11953Y73092D01*
X11960Y73084D01*
X11971Y73074D01*
X11985Y73062D01*
X12001Y73051D01*
X12020Y73041D01*
X12041Y73031D01*
X12042D01*
X12044Y73030D01*
X12047Y73029D01*
X12052Y73029D01*
X12057Y73027D01*
X12064Y73025D01*
X12079Y73022D01*
X12098Y73018D01*
X12118Y73015D01*
X12140Y73013D01*
X12164Y73012D01*
X12165D01*
X12168D01*
X12173D01*
X12178D01*
X12185Y73013D01*
X12193D01*
X12202Y73014D01*
X12212Y73015D01*
X12235Y73017D01*
X12259Y73022D01*
X12283Y73028D01*
X12307Y73035D01*
X12308D01*
X12310Y73036D01*
X12312Y73038D01*
X12317Y73040D01*
X12328Y73045D01*
X12341Y73053D01*
X12356Y73064D01*
X12372Y73077D01*
X12385Y73091D01*
X12398Y73109D01*
Y73110D01*
X12399Y73112D01*
X12401Y73115D01*
X12403Y73118D01*
X12405Y73123D01*
X12408Y73128D01*
X12413Y73141D01*
X12419Y73158D01*
X12423Y73176D01*
X12427Y73197D01*
X12428Y73218D01*
Y73225D01*
X12427Y73230D01*
Y73237D01*
X12426Y73243D01*
X12422Y73260D01*
X12418Y73279D01*
X12410Y73299D01*
X12400Y73319D01*
X12395Y73329D01*
X12387Y73338D01*
X12386Y73339D01*
X12385Y73340D01*
X12383Y73343D01*
X12380Y73347D01*
X12375Y73350D01*
X12370Y73355D01*
X12364Y73360D01*
X12357Y73365D01*
X12348Y73371D01*
X12339Y73377D01*
X12330Y73383D01*
X12319Y73388D01*
X12307Y73393D01*
X12294Y73397D01*
X12280Y73402D01*
X12265Y73406D01*
X12286Y73491D01*
X12287D01*
X12291Y73490D01*
D02*
G37*
G36*
X140240Y60140D02*
X139922D01*
X140240Y59824D01*
Y59708D01*
X139980Y59976D01*
X139600Y59696D01*
Y59808D01*
X139923Y60035D01*
X139822Y60140D01*
X139600D01*
Y60225D01*
X140240D01*
Y60140D01*
D02*
G37*
G36*
X140082Y59596D02*
X140084Y59594D01*
X140084Y59591D01*
X140087Y59586D01*
X140090Y59581D01*
X140094Y59574D01*
X140103Y59558D01*
X140113Y59540D01*
X140126Y59521D01*
X140141Y59502D01*
X140157Y59483D01*
X140158Y59482D01*
X140158Y59481D01*
X140161Y59478D01*
X140164Y59474D01*
X140173Y59466D01*
X140184Y59455D01*
X140197Y59444D01*
X140212Y59432D01*
X140227Y59422D01*
X140243Y59412D01*
Y59361D01*
X139600D01*
Y59440D01*
X140100D01*
X140099Y59441D01*
X140096Y59446D01*
X140090Y59451D01*
X140084Y59460D01*
X140075Y59471D01*
X140066Y59484D01*
X140056Y59498D01*
X140046Y59515D01*
Y59516D01*
X140045Y59517D01*
X140041Y59522D01*
X140036Y59532D01*
X140031Y59543D01*
X140024Y59556D01*
X140018Y59569D01*
X140011Y59583D01*
X140006Y59597D01*
X140082D01*
Y59596D01*
D02*
G37*
G36*
X186440Y26904D02*
X186439Y26887D01*
X186438Y26869D01*
X186436Y26850D01*
X186433Y26832D01*
X186431Y26816D01*
Y26815D01*
X186430Y26813D01*
Y26811D01*
X186428Y26807D01*
X186425Y26797D01*
X186420Y26784D01*
X186414Y26769D01*
X186406Y26753D01*
X186396Y26738D01*
X186384Y26723D01*
X186383Y26722D01*
X186382Y26721D01*
X186380Y26718D01*
X186377Y26715D01*
X186368Y26705D01*
X186355Y26694D01*
X186339Y26682D01*
X186321Y26669D01*
X186299Y26657D01*
X186275Y26647D01*
X186274D01*
X186272Y26646D01*
X186269Y26644D01*
X186263Y26643D01*
X186257Y26641D01*
X186249Y26639D01*
X186241Y26637D01*
X186231Y26634D01*
X186221Y26631D01*
X186209Y26629D01*
X186183Y26625D01*
X186154Y26622D01*
X186123Y26621D01*
X186122D01*
X186120D01*
X186115D01*
X186111D01*
X186104Y26622D01*
X186097D01*
X186079Y26623D01*
X186059Y26626D01*
X186038Y26629D01*
X186015Y26633D01*
X185993Y26639D01*
X185992D01*
X185990Y26640D01*
X185988Y26641D01*
X185984Y26642D01*
X185974Y26645D01*
X185961Y26651D01*
X185946Y26656D01*
X185931Y26664D01*
X185916Y26673D01*
X185901Y26682D01*
X185899Y26683D01*
X185894Y26687D01*
X185888Y26692D01*
X185880Y26700D01*
X185870Y26708D01*
X185861Y26718D01*
X185851Y26728D01*
X185843Y26740D01*
X185842Y26742D01*
X185839Y26746D01*
X185835Y26752D01*
X185831Y26762D01*
X185825Y26773D01*
X185820Y26786D01*
X185815Y26801D01*
X185810Y26817D01*
Y26819D01*
X185809Y26822D01*
X185808Y26825D01*
X185807Y26834D01*
X185806Y26847D01*
X185804Y26862D01*
X185802Y26879D01*
X185801Y26899D01*
X185800Y26920D01*
Y27150D01*
X186440D01*
Y26904D01*
D02*
G37*
G36*
X186431Y26117D02*
X186370D01*
X186369Y26118D01*
X186367Y26120D01*
X186363Y26124D01*
X186357Y26127D01*
X186351Y26133D01*
X186344Y26140D01*
X186334Y26148D01*
X186323Y26156D01*
X186312Y26164D01*
X186299Y26175D01*
X186284Y26185D01*
X186270Y26195D01*
X186253Y26206D01*
X186235Y26217D01*
X186216Y26228D01*
X186197Y26239D01*
X186196Y26240D01*
X186192Y26242D01*
X186186Y26245D01*
X186178Y26249D01*
X186168Y26254D01*
X186157Y26260D01*
X186144Y26266D01*
X186129Y26273D01*
X186112Y26280D01*
X186096Y26288D01*
X186077Y26296D01*
X186058Y26303D01*
X186018Y26318D01*
X185976Y26332D01*
X185975D01*
X185972Y26333D01*
X185967Y26334D01*
X185962Y26335D01*
X185954Y26337D01*
X185945Y26339D01*
X185935Y26342D01*
X185924Y26344D01*
X185911Y26347D01*
X185897Y26349D01*
X185867Y26354D01*
X185835Y26359D01*
X185800Y26361D01*
Y26442D01*
X185801D01*
X185804D01*
X185807D01*
X185813Y26441D01*
X185820D01*
X185830Y26440D01*
X185840Y26439D01*
X185851Y26438D01*
X185864Y26436D01*
X185877Y26434D01*
X185892Y26432D01*
X185908Y26429D01*
X185925Y26426D01*
X185943Y26422D01*
X185981Y26413D01*
X185982D01*
X185986Y26412D01*
X185991Y26410D01*
X186000Y26408D01*
X186009Y26405D01*
X186020Y26401D01*
X186033Y26397D01*
X186047Y26392D01*
X186063Y26386D01*
X186078Y26381D01*
X186113Y26367D01*
X186150Y26350D01*
X186187Y26332D01*
X186188Y26331D01*
X186192Y26329D01*
X186197Y26326D01*
X186204Y26323D01*
X186212Y26318D01*
X186223Y26311D01*
X186234Y26305D01*
X186246Y26298D01*
X186272Y26280D01*
X186300Y26262D01*
X186329Y26240D01*
X186356Y26218D01*
Y26531D01*
X186431D01*
Y26117D01*
D02*
G37*
%LPC*%
G36*
X12202Y74398D02*
X12174D01*
X12173D01*
X12172D01*
X12167D01*
X12159D01*
X12148Y74397D01*
X12136D01*
X12121Y74396D01*
X12105Y74395D01*
X12088Y74393D01*
X12053Y74389D01*
X12035Y74386D01*
X12018Y74382D01*
X12003Y74378D01*
X11988Y74373D01*
X11975Y74367D01*
X11964Y74361D01*
X11963D01*
X11962Y74359D01*
X11959Y74357D01*
X11955Y74354D01*
X11947Y74346D01*
X11937Y74336D01*
X11928Y74322D01*
X11919Y74306D01*
X11916Y74298D01*
X11913Y74289D01*
X11912Y74279D01*
X11911Y74268D01*
Y74263D01*
X11912Y74259D01*
X11914Y74249D01*
X11917Y74237D01*
X11922Y74223D01*
X11930Y74208D01*
X11936Y74201D01*
X11942Y74193D01*
X11949Y74187D01*
X11957Y74181D01*
X11958D01*
X11960Y74179D01*
X11964Y74177D01*
X11968Y74174D01*
X11976Y74171D01*
X11984Y74168D01*
X11994Y74165D01*
X12006Y74161D01*
X12020Y74157D01*
X12036Y74154D01*
X12053Y74150D01*
X12073Y74147D01*
X12095Y74144D01*
X12119Y74143D01*
X12145Y74142D01*
X12174Y74141D01*
X12175D01*
X12180D01*
X12188D01*
X12200Y74142D01*
X12212D01*
X12226Y74143D01*
X12242Y74144D01*
X12259Y74145D01*
X12295Y74150D01*
X12312Y74153D01*
X12329Y74157D01*
X12345Y74160D01*
X12359Y74166D01*
X12372Y74171D01*
X12384Y74178D01*
X12384D01*
X12385Y74180D01*
X12392Y74184D01*
X12400Y74193D01*
X12409Y74203D01*
X12419Y74217D01*
X12427Y74232D01*
X12433Y74250D01*
X12434Y74259D01*
X12435Y74269D01*
Y74275D01*
X12434Y74279D01*
X12433Y74288D01*
X12429Y74301D01*
X12422Y74315D01*
X12413Y74330D01*
X12408Y74338D01*
X12400Y74345D01*
X12393Y74353D01*
X12384Y74360D01*
X12383D01*
X12381Y74362D01*
X12378Y74364D01*
X12373Y74365D01*
X12367Y74369D01*
X12359Y74372D01*
X12349Y74376D01*
X12338Y74379D01*
X12324Y74382D01*
X12310Y74386D01*
X12292Y74389D01*
X12274Y74392D01*
X12251Y74394D01*
X12228Y74396D01*
X12202Y74398D01*
D02*
G37*
G36*
X186364Y27065D02*
X185876D01*
Y26913D01*
X185877Y26907D01*
X185878Y26893D01*
X185879Y26877D01*
X185880Y26861D01*
X185883Y26844D01*
X185887Y26830D01*
X185888Y26828D01*
X185889Y26824D01*
X185892Y26817D01*
X185895Y26809D01*
X185901Y26800D01*
X185906Y26790D01*
X185913Y26781D01*
X185920Y26772D01*
X185922Y26771D01*
X185926Y26767D01*
X185932Y26762D01*
X185941Y26755D01*
X185953Y26748D01*
X185967Y26740D01*
X185983Y26732D01*
X186001Y26726D01*
X186002D01*
X186003Y26725D01*
X186006Y26724D01*
X186010Y26723D01*
X186014Y26722D01*
X186021Y26720D01*
X186027Y26718D01*
X186035Y26716D01*
X186053Y26714D01*
X186075Y26711D01*
X186099Y26709D01*
X186125Y26708D01*
X186125D01*
X186129D01*
X186134D01*
X186141Y26709D01*
X186149D01*
X186159Y26710D01*
X186170Y26711D01*
X186181Y26712D01*
X186206Y26716D01*
X186232Y26722D01*
X186256Y26730D01*
X186268Y26736D01*
X186278Y26741D01*
X186279D01*
X186281Y26743D01*
X186284Y26745D01*
X186287Y26747D01*
X186296Y26754D01*
X186308Y26764D01*
X186320Y26776D01*
X186332Y26789D01*
X186342Y26805D01*
X186350Y26822D01*
X186351Y26824D01*
X186352Y26828D01*
X186355Y26837D01*
X186357Y26849D01*
X186359Y26863D01*
X186362Y26882D01*
X186363Y26893D01*
Y26905D01*
X186364Y26917D01*
Y27065D01*
D02*
G37*
%LPD*%
D88*
X8000Y67125D02*
Y78725D01*
X17000D01*
Y67125D02*
Y78725D01*
X8000Y67125D02*
X17000D01*
X146050Y45625D02*
Y74825D01*
X133150Y45625D02*
X146050D01*
X133150D02*
Y74825D01*
X146050D01*
X184850Y31425D02*
X186750D01*
X184850Y22875D02*
Y31425D01*
Y22875D02*
X186750D01*
Y31425D01*
D91*
X34125Y4100D02*
Y11500D01*
X10225Y4100D02*
X34125D01*
X10225D02*
Y11500D01*
X34125D01*
D129*
X111950Y43750D02*
X117400D01*
X111950Y32675D02*
X117400D01*
Y43750D01*
X111950Y32675D02*
Y43750D01*
X217259Y48051D02*
Y53876D01*
X227134Y48051D02*
Y53876D01*
X217259D02*
X227134D01*
X217259Y48051D02*
X227134D01*
X202425Y60975D02*
X220425D01*
X202425D02*
Y78975D01*
X220425Y60975D02*
Y78975D01*
X202425D02*
X220425D01*
X217259Y54401D02*
X227134D01*
X217259Y60226D02*
X227134D01*
Y54401D02*
Y60226D01*
X217259Y54401D02*
Y60226D01*
X214350Y13825D02*
Y26825D01*
X201350Y13825D02*
X214350D01*
X201350Y26825D02*
X214350D01*
X201350Y13825D02*
Y26825D01*
X222975Y62575D02*
X225850D01*
X222975Y61225D02*
X225850D01*
X222975D02*
Y62575D01*
X225850Y61225D02*
Y62575D01*
X201500Y13600D02*
X214500D01*
Y600D02*
Y13600D01*
X201500Y600D02*
Y13600D01*
Y600D02*
X214500D01*
X6975Y53600D02*
X19975D01*
X6975D02*
Y66600D01*
X19975Y53600D02*
Y66600D01*
X6975D02*
X19975D01*
X27949Y49538D02*
Y51062D01*
X24901Y49538D02*
Y51062D01*
Y49538D02*
X27949D01*
X24901Y51062D02*
X27949D01*
X33475Y53625D02*
X46475D01*
X33475D02*
Y66625D01*
X46475Y53625D02*
Y66625D01*
X33475D02*
X46475D01*
X20275Y66750D02*
X33275D01*
Y53750D02*
Y66750D01*
X20275Y53750D02*
Y66750D01*
Y53750D02*
X33275D01*
X33241Y66925D02*
Y76600D01*
X78391D01*
X33241Y66925D02*
X77141D01*
X78391Y68175D01*
Y76600D01*
X113470Y13785D02*
Y16833D01*
X114994Y13785D02*
Y16833D01*
X113470Y13785D02*
X114994D01*
X113470Y16833D02*
X114994D01*
X13925Y22450D02*
Y38650D01*
X35975Y22450D02*
Y38650D01*
X13925D02*
X35975D01*
X13925Y22450D02*
X35975D01*
X35200Y9950D02*
X37800D01*
X35200Y3950D02*
X37800D01*
Y9950D01*
X35200Y3950D02*
Y9950D01*
X59701Y55063D02*
X62749D01*
X59701Y56587D02*
X62749D01*
Y55063D02*
Y56587D01*
X59701Y55063D02*
Y56587D01*
X148600Y64500D02*
X159675D01*
X148600Y69950D02*
X159675D01*
Y64500D02*
Y69950D01*
X148600Y64500D02*
Y69950D01*
X46841Y59375D02*
Y63050D01*
Y59375D02*
X61191D01*
Y60462D02*
Y61962D01*
Y59375D02*
Y60462D01*
Y61962D02*
Y63050D01*
X46841D02*
X61191D01*
X61641Y59400D02*
X75991D01*
X61641D02*
Y60487D01*
Y61987D02*
Y63075D01*
Y60487D02*
Y61987D01*
Y63075D02*
X75991D01*
Y59400D02*
Y63075D01*
X157875Y76925D02*
Y78275D01*
X160750Y76925D02*
Y78275D01*
X157875D02*
X160750D01*
X157875Y76925D02*
X160750D01*
X114933Y38658D02*
X115050Y38775D01*
Y39008D01*
X114933Y39125D01*
X114467D01*
X114350Y39008D01*
Y38775D01*
X114467Y38658D01*
X114933Y38425D02*
X115050Y38309D01*
Y38075D01*
X114933Y37959D01*
X114817D01*
X114583Y38192D01*
X114467D02*
X114350D01*
X221884Y50776D02*
Y51476D01*
X222234D01*
X222351Y51359D01*
Y51126D01*
X222234Y51009D01*
X221884D01*
X222117D02*
X222351Y50776D01*
X222584Y51359D02*
X222701Y51476D01*
X222934D01*
X223050Y51359D01*
Y51243D01*
X222934Y51126D01*
X222817D01*
X222934D01*
X223050Y51009D01*
Y50893D01*
X222934Y50776D01*
X222701D01*
X222584Y50893D01*
X223750Y50776D02*
X223284D01*
X223750Y51243D01*
Y51359D01*
X223634Y51476D01*
X223400D01*
X223284Y51359D01*
X211167Y69517D02*
X211050Y69400D01*
Y69167D01*
X211167Y69050D01*
X211633D01*
X211750Y69167D01*
Y69400D01*
X211633Y69517D01*
X211750Y70216D02*
Y69750D01*
X211283Y70216D01*
X211167D01*
X211050Y70100D01*
Y69866D01*
X211167Y69750D01*
X211050Y70450D02*
Y70916D01*
X211167D01*
X211633Y70450D01*
X211750D01*
X221884Y57126D02*
Y57826D01*
X222234D01*
X222351Y57709D01*
Y57476D01*
X222234Y57359D01*
X221884D01*
X222117D02*
X222351Y57126D01*
X222584Y57709D02*
X222701Y57826D01*
X222934D01*
X223050Y57709D01*
Y57592D01*
X222934Y57476D01*
X222817D01*
X222934D01*
X223050Y57359D01*
Y57243D01*
X222934Y57126D01*
X222701D01*
X222584Y57243D01*
X223284Y57126D02*
X223517D01*
X223400D01*
Y57826D01*
X223284Y57709D01*
X207392Y20583D02*
X207275Y20700D01*
X207042D01*
X206925Y20583D01*
Y20117D01*
X207042Y20000D01*
X207275D01*
X207392Y20117D01*
X207625Y20000D02*
X207858D01*
X207741D01*
Y20700D01*
X207625Y20583D01*
X208674Y20700D02*
X208441Y20583D01*
X208208Y20350D01*
Y20117D01*
X208325Y20000D01*
X208558D01*
X208674Y20117D01*
Y20233D01*
X208558Y20350D01*
X208208D01*
X225125Y61525D02*
Y61992D01*
X224892Y62225D01*
X224658Y61992D01*
Y61525D01*
X224425D02*
Y62225D01*
X224075D01*
X223959Y62108D01*
Y61642D01*
X224075Y61525D01*
X224425D01*
X223725Y62225D02*
X223492D01*
X223609D01*
Y61525D01*
X223725Y61642D01*
X223142Y62225D02*
X222909D01*
X223026D01*
Y61525D01*
X223142Y61642D01*
X23200Y7450D02*
Y8150D01*
X22850D01*
X22733Y8033D01*
Y7567D01*
X22850Y7450D01*
X23200D01*
X22500Y8150D02*
X22267D01*
X22384D01*
Y7450D01*
X22500Y7567D01*
X208258Y7558D02*
X208375Y7675D01*
Y7908D01*
X208258Y8025D01*
X207792D01*
X207675Y7908D01*
Y7675D01*
X207792Y7558D01*
X208375Y6859D02*
Y7325D01*
X208025D01*
X208142Y7092D01*
Y6975D01*
X208025Y6859D01*
X207792D01*
X207675Y6975D01*
Y7209D01*
X207792Y7325D01*
X13217Y59642D02*
X13100Y59525D01*
Y59292D01*
X13217Y59175D01*
X13683D01*
X13800Y59292D01*
Y59525D01*
X13683Y59642D01*
X13800Y60341D02*
Y59875D01*
X13333Y60341D01*
X13217D01*
X13100Y60225D01*
Y59991D01*
X13217Y59875D01*
X13800Y60924D02*
X13100D01*
X13450Y60575D01*
Y61041D01*
X27400Y50650D02*
Y49950D01*
X27050D01*
X26933Y50067D01*
Y50300D01*
X27050Y50417D01*
X27400D01*
X27167D02*
X26933Y50650D01*
X26700D02*
X26467D01*
X26584D01*
Y49950D01*
X26700Y50067D01*
X26117Y50650D02*
X25884D01*
X26000D01*
Y49950D01*
X26117Y50067D01*
X39717Y59667D02*
X39600Y59550D01*
Y59317D01*
X39717Y59200D01*
X40183D01*
X40300Y59317D01*
Y59550D01*
X40183Y59667D01*
X40300Y59900D02*
Y60133D01*
Y60016D01*
X39600D01*
X39717Y59900D01*
Y60483D02*
X39600Y60600D01*
Y60833D01*
X39717Y60949D01*
X40183D01*
X40300Y60833D01*
Y60600D01*
X40183Y60483D01*
X39717D01*
X26517Y59792D02*
X26400Y59675D01*
Y59442D01*
X26517Y59325D01*
X26983D01*
X27100Y59442D01*
Y59675D01*
X26983Y59792D01*
X26517Y60025D02*
X26400Y60141D01*
Y60375D01*
X26517Y60491D01*
X26633D01*
X26750Y60375D01*
Y60258D01*
Y60375D01*
X26867Y60491D01*
X26983D01*
X27100Y60375D01*
Y60141D01*
X26983Y60025D01*
X26400Y61191D02*
Y60725D01*
X26750D01*
X26633Y60958D01*
Y61074D01*
X26750Y61191D01*
X26983D01*
X27100Y61074D01*
Y60841D01*
X26983Y60725D01*
X56041Y75000D02*
Y74300D01*
X56391D01*
X56508Y74417D01*
Y74533D01*
X56391Y74650D01*
X56041D01*
X56391D01*
X56508Y74767D01*
Y74883D01*
X56391Y75000D01*
X56041D01*
X56741Y74300D02*
X56974D01*
X56857D01*
Y75000D01*
X56741Y74883D01*
X113882Y16284D02*
X114582D01*
Y15934D01*
X114465Y15817D01*
X114232D01*
X114115Y15934D01*
Y16284D01*
Y16051D02*
X113882Y15817D01*
Y15584D02*
Y15351D01*
Y15468D01*
X114582D01*
X114465Y15584D01*
X24542Y31300D02*
X24075D01*
Y30950D01*
X24308D01*
X24075D01*
Y30600D01*
X24775D02*
X25008D01*
X24891D01*
Y31300D01*
X24775Y31183D01*
X36500Y6950D02*
X37200D01*
Y6600D01*
X37083Y6483D01*
X36850D01*
X36733Y6600D01*
Y6950D01*
Y6717D02*
X36500Y6483D01*
X37200Y6250D02*
Y5784D01*
Y6017D01*
X36500D01*
Y5550D02*
Y5317D01*
Y5434D01*
X37200D01*
X37083Y5550D01*
X24133Y42717D02*
X24250Y42600D01*
X24483D01*
X24600Y42717D01*
Y43183D01*
X24483Y43300D01*
X24250D01*
X24133Y43183D01*
X23900Y43300D02*
X23667D01*
X23784D01*
Y42600D01*
X23900Y42717D01*
X23092Y18058D02*
X22975Y18175D01*
X22742D01*
X22625Y18058D01*
Y17592D01*
X22742Y17475D01*
X22975D01*
X23092Y17592D01*
X23791Y17475D02*
X23325D01*
X23791Y17942D01*
Y18058D01*
X23675Y18175D01*
X23441D01*
X23325Y18058D01*
X60250Y55475D02*
Y56175D01*
X60600D01*
X60717Y56058D01*
Y55825D01*
X60600Y55708D01*
X60250D01*
X60483D02*
X60717Y55475D01*
X60950Y56058D02*
X61066Y56175D01*
X61300D01*
X61416Y56058D01*
Y55942D01*
X61300Y55825D01*
X61183D01*
X61300D01*
X61416Y55708D01*
Y55592D01*
X61300Y55475D01*
X61066D01*
X60950Y55592D01*
X61650Y56175D02*
X62116D01*
Y56058D01*
X61650Y55592D01*
Y55475D01*
X153692Y67483D02*
X153575Y67600D01*
X153342D01*
X153225Y67483D01*
Y67017D01*
X153342Y66900D01*
X153575D01*
X153692Y67017D01*
X153925Y66900D02*
X154158D01*
X154041D01*
Y67600D01*
X153925Y67483D01*
X154508Y67017D02*
X154625Y66900D01*
X154858D01*
X154974Y67017D01*
Y67483D01*
X154858Y67600D01*
X154625D01*
X154508Y67483D01*
Y67367D01*
X154625Y67250D01*
X154974D01*
X53091Y61575D02*
Y61108D01*
X53324Y60875D01*
X53558Y61108D01*
Y61575D01*
X53791D02*
Y60875D01*
X54141D01*
X54257Y60992D01*
Y61458D01*
X54141Y61575D01*
X53791D01*
X54491Y61458D02*
X54607Y61575D01*
X54840D01*
X54957Y61458D01*
Y61342D01*
X54840Y61225D01*
X54724D01*
X54840D01*
X54957Y61108D01*
Y60992D01*
X54840Y60875D01*
X54607D01*
X54491Y60992D01*
X69741Y60875D02*
Y61342D01*
X69508Y61575D01*
X69274Y61342D01*
Y60875D01*
X69041D02*
Y61575D01*
X68691D01*
X68575Y61458D01*
Y60992D01*
X68691Y60875D01*
X69041D01*
X67992Y61575D02*
Y60875D01*
X68341Y61225D01*
X67875D01*
X158600Y77975D02*
Y77508D01*
X158833Y77275D01*
X159067Y77508D01*
Y77975D01*
X159300D02*
Y77275D01*
X159650D01*
X159766Y77392D01*
Y77858D01*
X159650Y77975D01*
X159300D01*
X160000Y77275D02*
X160233D01*
X160116D01*
Y77975D01*
X160000Y77858D01*
X161049Y77975D02*
X160583D01*
Y77625D01*
X160816Y77742D01*
X160933D01*
X161049Y77625D01*
Y77392D01*
X160933Y77275D01*
X160699D01*
X160583Y77392D01*
D136*
X225563Y61912D02*
D03*
X158161Y77588D02*
D03*
D137*
X48915Y61187D02*
D03*
X73917Y61263D02*
D03*
%TF.MD5,e1fcf1a00d3fe06264d8c404fdb7d50c*%
M02*
