%TF.GenerationSoftware,Altium Limited,Altium Designer,24.3.1 (35)*%
G04 Layer_Color=0*
%FSLAX43Y43*%
%MOMM*%
%TF.SameCoordinates,2EF1D394-34E5-4190-8ABA-250447B0B6E5*%
%TF.FilePolarity,Positive*%
%TF.FileFunction,Other,Top_Designator*%
%TF.Part,Single*%
G01*
G75*
%TA.AperFunction,NonConductor*%
%ADD90C,0.150*%
D90*
X197700Y70100D02*
X196200D01*
Y69100D01*
Y68600D02*
Y68100D01*
Y68350D01*
X197700D01*
X197450Y68600D01*
X185150Y67850D02*
X186650D01*
Y68850D01*
Y70100D02*
X185150D01*
X185900Y69350D01*
Y70350D01*
X222792Y15000D02*
Y14500D01*
Y14750D01*
X224041D01*
X224291Y14500D01*
Y14250D01*
X224041Y14000D01*
X222792Y16499D02*
Y15500D01*
X223541D01*
X223292Y16000D01*
Y16249D01*
X223541Y16499D01*
X224041D01*
X224291Y16249D01*
Y15750D01*
X224041Y15500D01*
X185850Y10175D02*
X184350D01*
Y9175D01*
Y7675D02*
Y8675D01*
X185350Y7675D01*
X185600D01*
X185850Y7925D01*
Y8425D01*
X185600Y8675D01*
X194875Y7675D02*
X196375D01*
Y8675D01*
X195125Y9175D02*
X194875Y9425D01*
Y9925D01*
X195125Y10175D01*
X195375D01*
X195625Y9925D01*
Y9675D01*
Y9925D01*
X195875Y10175D01*
X196125D01*
X196375Y9925D01*
Y9425D01*
X196125Y9175D01*
X5800Y49075D02*
Y49575D01*
Y49325D01*
X4550D01*
X4300Y49575D01*
Y49824D01*
X4550Y50074D01*
X4300Y47825D02*
X5800D01*
X5050Y48575D01*
Y47575D01*
X5825Y30375D02*
Y30875D01*
Y30625D01*
X4575D01*
X4325Y30875D01*
Y31125D01*
X4575Y31374D01*
X4325Y29875D02*
Y29375D01*
Y29625D01*
X5825D01*
X5575Y29875D01*
X152340Y59375D02*
Y57875D01*
X151590D01*
X151340Y58125D01*
Y58625D01*
X151590Y58875D01*
X152340D01*
X149840Y59375D02*
X150840D01*
X149840Y58375D01*
Y58125D01*
X150090Y57875D01*
X150590D01*
X150840Y58125D01*
X222792Y25000D02*
Y24500D01*
Y24750D01*
X224041D01*
X224291Y24500D01*
Y24250D01*
X224041Y24000D01*
X223042Y25500D02*
X222792Y25750D01*
Y26250D01*
X223042Y26500D01*
X223292D01*
X223541Y26250D01*
Y26000D01*
Y26250D01*
X223791Y26500D01*
X224041D01*
X224291Y26250D01*
Y25750D01*
X224041Y25500D01*
X222792Y34925D02*
Y34425D01*
Y34675D01*
X224041D01*
X224291Y34425D01*
Y34175D01*
X224041Y33925D01*
X224291Y36425D02*
Y35425D01*
X223292Y36425D01*
X223042D01*
X222792Y36175D01*
Y35675D01*
X223042Y35425D01*
%TF.MD5,3a8802c76a69e39b1413c2c11c22cc5b*%
M02*
