%TF.GenerationSoftware,Altium Limited,Altium Designer,24.3.1 (35)*%
G04 Layer_Color=255*
%FSLAX43Y43*%
%MOMM*%
%TF.SameCoordinates,2EF1D394-34E5-4190-8ABA-250447B0B6E5*%
%TF.FilePolarity,Positive*%
%TF.FileFunction,Pads,Bot*%
%TF.Part,Single*%
G01*
G75*
%TA.AperFunction,ComponentPad*%
%ADD29C,1.524*%
%ADD30C,3.048*%
%ADD31O,5.000X3.000*%
%ADD32O,6.000X3.500*%
%ADD33C,3.500*%
%ADD34C,2.500*%
%ADD35C,2.000*%
%ADD36C,2.286*%
%ADD37C,3.000*%
%ADD38C,1.950*%
G04:AMPARAMS|DCode=39|XSize=1.95mm|YSize=1.95mm|CornerRadius=0.488mm|HoleSize=0mm|Usage=FLASHONLY|Rotation=90.000|XOffset=0mm|YOffset=0mm|HoleType=Round|Shape=RoundedRectangle|*
%AMROUNDEDRECTD39*
21,1,1.950,0.975,0,0,90.0*
21,1,0.975,1.950,0,0,90.0*
1,1,0.975,0.488,0.488*
1,1,0.975,0.488,-0.488*
1,1,0.975,-0.488,-0.488*
1,1,0.975,-0.488,0.488*
%
%ADD39ROUNDEDRECTD39*%
%ADD40O,1.778X2.032*%
%ADD41C,3.302*%
%ADD42O,1.778X2.286*%
%ADD43C,2.794*%
%ADD44C,1.800*%
%ADD45C,1.500*%
G04:AMPARAMS|DCode=46|XSize=1.5mm|YSize=1.5mm|CornerRadius=0.375mm|HoleSize=0mm|Usage=FLASHONLY|Rotation=180.000|XOffset=0mm|YOffset=0mm|HoleType=Round|Shape=RoundedRectangle|*
%AMROUNDEDRECTD46*
21,1,1.500,0.750,0,0,180.0*
21,1,0.750,1.500,0,0,180.0*
1,1,0.750,-0.375,0.375*
1,1,0.750,0.375,0.375*
1,1,0.750,0.375,-0.375*
1,1,0.750,-0.375,-0.375*
%
%ADD46ROUNDEDRECTD46*%
%ADD47R,3.048X3.048*%
%ADD48R,1.500X1.500*%
%ADD49R,1.200X1.200*%
%ADD50C,1.200*%
%ADD51C,1.250*%
%ADD52R,1.250X1.250*%
%TA.AperFunction,SMDPad,CuDef*%
%ADD55R,1.250X0.800*%
G04:AMPARAMS|DCode=56|XSize=3.7mm|YSize=1.7mm|CornerRadius=0.425mm|HoleSize=0mm|Usage=FLASHONLY|Rotation=0.000|XOffset=0mm|YOffset=0mm|HoleType=Round|Shape=RoundedRectangle|*
%AMROUNDEDRECTD56*
21,1,3.700,0.850,0,0,0.0*
21,1,2.850,1.700,0,0,0.0*
1,1,0.850,1.425,-0.425*
1,1,0.850,-1.425,-0.425*
1,1,0.850,-1.425,0.425*
1,1,0.850,1.425,0.425*
%
%ADD56ROUNDEDRECTD56*%
%ADD57R,1.405X2.806*%
%ADD58R,2.400X2.400*%
%ADD59R,0.800X1.250*%
%ADD60R,0.950X0.900*%
%ADD61R,2.400X2.400*%
%ADD62R,0.900X0.950*%
%ADD63R,2.500X1.700*%
%ADD64R,1.700X2.500*%
%ADD65R,2.806X1.405*%
%ADD66R,1.450X1.800*%
%ADD67R,0.627X1.659*%
G04:AMPARAMS|DCode=68|XSize=1.659mm|YSize=0.627mm|CornerRadius=0.313mm|HoleSize=0mm|Usage=FLASHONLY|Rotation=270.000|XOffset=0mm|YOffset=0mm|HoleType=Round|Shape=RoundedRectangle|*
%AMROUNDEDRECTD68*
21,1,1.659,0.000,0,0,270.0*
21,1,1.032,0.627,0,0,270.0*
1,1,0.627,0.000,-0.516*
1,1,0.627,0.000,0.516*
1,1,0.627,0.000,0.516*
1,1,0.627,0.000,-0.516*
%
%ADD68ROUNDEDRECTD68*%
%ADD69R,2.300X2.300*%
%ADD70R,1.556X1.505*%
G04:AMPARAMS|DCode=71|XSize=1.874mm|YSize=0.543mm|CornerRadius=0.272mm|HoleSize=0mm|Usage=FLASHONLY|Rotation=180.000|XOffset=0mm|YOffset=0mm|HoleType=Round|Shape=RoundedRectangle|*
%AMROUNDEDRECTD71*
21,1,1.874,0.000,0,0,180.0*
21,1,1.331,0.543,0,0,180.0*
1,1,0.543,-0.665,0.000*
1,1,0.543,0.665,0.000*
1,1,0.543,0.665,0.000*
1,1,0.543,-0.665,0.000*
%
%ADD71ROUNDEDRECTD71*%
%ADD72R,1.874X0.543*%
%ADD73R,1.000X0.700*%
%ADD74R,1.505X1.556*%
D29*
X114675Y35725D02*
D03*
Y40675D02*
D03*
X151675Y67225D02*
D03*
X156625D02*
D03*
D30*
X105667Y29592D02*
D03*
Y49658D02*
D03*
X93000Y25441D02*
D03*
Y5375D02*
D03*
Y49658D02*
D03*
Y29592D02*
D03*
X105725Y5271D02*
D03*
Y25337D02*
D03*
X143350Y72325D02*
D03*
X135850Y57325D02*
D03*
Y52325D02*
D03*
Y47325D02*
D03*
X143350D02*
D03*
Y52325D02*
D03*
Y57325D02*
D03*
D31*
X160214Y13813D02*
D03*
Y18979D02*
D03*
Y23973D02*
D03*
Y29053D02*
D03*
Y34219D02*
D03*
Y39213D02*
D03*
X134941Y8733D02*
D03*
Y13813D02*
D03*
Y18979D02*
D03*
Y23973D02*
D03*
Y29053D02*
D03*
Y34219D02*
D03*
Y39213D02*
D03*
X160214Y8733D02*
D03*
D32*
X167834Y13813D02*
D03*
Y18979D02*
D03*
Y23973D02*
D03*
Y29053D02*
D03*
Y34219D02*
D03*
Y39213D02*
D03*
Y8733D02*
D03*
X127575Y13940D02*
D03*
Y19106D02*
D03*
Y24100D02*
D03*
Y29180D02*
D03*
Y34346D02*
D03*
Y39340D02*
D03*
Y8860D02*
D03*
D33*
X73700Y45275D02*
D03*
Y35275D02*
D03*
X49650Y10825D02*
D03*
Y20825D02*
D03*
Y35275D02*
D03*
Y45275D02*
D03*
X73700Y20700D02*
D03*
Y10700D02*
D03*
D34*
X224184Y51001D02*
D03*
X219184D02*
D03*
Y57351D02*
D03*
X224184D02*
D03*
D35*
X211425Y73975D02*
D03*
Y65975D02*
D03*
X171150Y66941D02*
D03*
Y72275D02*
D03*
X205350Y20325D02*
D03*
X210350D02*
D03*
X208000Y4600D02*
D03*
Y9600D02*
D03*
X13475Y62600D02*
D03*
Y57600D02*
D03*
X39975Y62625D02*
D03*
Y57625D02*
D03*
X26775Y57750D02*
D03*
Y62750D02*
D03*
X31525Y35525D02*
D03*
X18525D02*
D03*
X31525Y25525D02*
D03*
X18525D02*
D03*
X36500Y5450D02*
D03*
Y8550D02*
D03*
X34875Y42975D02*
D03*
X12475D02*
D03*
X34750Y17800D02*
D03*
X12350D02*
D03*
X48041Y61225D02*
D03*
X60041D02*
D03*
X62791D02*
D03*
X74791D02*
D03*
D36*
X162750Y56350D02*
D03*
X5225Y68325D02*
D03*
X216125Y9524D02*
D03*
X216328Y12750D02*
D03*
X5239Y63925D02*
D03*
X83475Y59799D02*
D03*
X86448Y67625D02*
D03*
X51875Y64925D02*
D03*
X73517Y57776D02*
D03*
X127650Y47875D02*
D03*
X80700Y67675D02*
D03*
X80875Y52525D02*
D03*
X61125Y64778D02*
D03*
X198550Y21175D02*
D03*
X130900Y72325D02*
D03*
X36225Y78300D02*
D03*
X64646Y64757D02*
D03*
X121275Y19150D02*
D03*
X121225Y24100D02*
D03*
X188725Y39952D02*
D03*
X189365Y26070D02*
D03*
X215125Y41725D02*
D03*
X113227Y57825D02*
D03*
X207489Y28895D02*
D03*
X188464Y29250D02*
D03*
X224250Y45403D02*
D03*
X161149Y62575D02*
D03*
X188389Y36677D02*
D03*
X188414Y33189D02*
D03*
X209025Y45100D02*
D03*
D37*
X29725Y9300D02*
D03*
X14725D02*
D03*
X19725D02*
D03*
X24725D02*
D03*
X16325Y50325D02*
D03*
X36300Y50275D02*
D03*
X114257Y25184D02*
D03*
X114207Y5209D02*
D03*
X51350Y55850D02*
D03*
X71325Y55800D02*
D03*
D38*
X224041Y17750D02*
D03*
X4550Y46325D02*
D03*
X4575Y27875D02*
D03*
X224041Y27750D02*
D03*
Y37675D02*
D03*
D39*
X224041Y12750D02*
D03*
X4550Y51325D02*
D03*
X4575Y32875D02*
D03*
X224041Y22750D02*
D03*
Y32675D02*
D03*
D40*
X170260Y50050D02*
D03*
X172800D02*
D03*
X175340D02*
D03*
X186177Y50027D02*
D03*
X188717D02*
D03*
X191257D02*
D03*
D41*
X172800Y56400D02*
D03*
X188717Y56377D02*
D03*
X115767Y68077D02*
D03*
X98742D02*
D03*
D42*
X27525Y77050D02*
D03*
X24985D02*
D03*
X22445D02*
D03*
X118307Y61727D02*
D03*
X115767D02*
D03*
X113227D02*
D03*
X96202D02*
D03*
X98742D02*
D03*
X101282D02*
D03*
D43*
X24985Y70700D02*
D03*
D44*
X59631Y72250D02*
D03*
X69791D02*
D03*
X49381D02*
D03*
X51921D02*
D03*
X54461D02*
D03*
X57091D02*
D03*
X44301D02*
D03*
X62171D02*
D03*
X64711D02*
D03*
X67251D02*
D03*
X41761D02*
D03*
X46841D02*
D03*
D45*
X153790Y57375D02*
D03*
X151250D02*
D03*
X224525Y64870D02*
D03*
Y67410D02*
D03*
D46*
X148710Y57375D02*
D03*
D47*
X135850Y72325D02*
D03*
D48*
X224525Y69950D02*
D03*
D49*
X205317Y56465D02*
D03*
X210332D02*
D03*
X200277D02*
D03*
D50*
X205317Y53925D02*
D03*
Y51385D02*
D03*
X210332Y53925D02*
D03*
Y51385D02*
D03*
X200277Y53925D02*
D03*
Y51385D02*
D03*
D51*
X185800Y23600D02*
D03*
D52*
Y30700D02*
D03*
D55*
X214950Y59300D02*
D03*
Y57300D02*
D03*
X174025Y72300D02*
D03*
Y70300D02*
D03*
X220825Y15375D02*
D03*
Y13375D02*
D03*
X209994Y7000D02*
D03*
Y9000D02*
D03*
X111225Y5225D02*
D03*
Y7225D02*
D03*
X48025Y2175D02*
D03*
Y4175D02*
D03*
X161149Y74375D02*
D03*
Y72375D02*
D03*
X90525Y54825D02*
D03*
Y56825D02*
D03*
X110500Y43525D02*
D03*
Y45525D02*
D03*
X203191Y28909D02*
D03*
Y26909D02*
D03*
X204941Y28909D02*
D03*
Y26909D02*
D03*
X205914Y33028D02*
D03*
Y35028D02*
D03*
X204186Y33027D02*
D03*
Y35027D02*
D03*
X204993Y44250D02*
D03*
Y42250D02*
D03*
X193633Y36552D02*
D03*
Y34552D02*
D03*
X191869Y36552D02*
D03*
Y34552D02*
D03*
X193633Y37777D02*
D03*
Y39777D02*
D03*
D56*
X100675Y36200D02*
D03*
Y29800D02*
D03*
X100825Y25275D02*
D03*
Y18875D02*
D03*
X100675Y42900D02*
D03*
Y49300D02*
D03*
X100799Y11854D02*
D03*
Y5454D02*
D03*
D57*
X118124Y39371D02*
D03*
X121225D02*
D03*
D58*
X86450Y54969D02*
D03*
Y59850D02*
D03*
X114878Y49130D02*
D03*
Y44249D02*
D03*
D59*
X164750Y77573D02*
D03*
X162750D02*
D03*
X23100Y54630D02*
D03*
X25100D02*
D03*
X44075Y70125D02*
D03*
X42075D02*
D03*
X76375Y67675D02*
D03*
X78375D02*
D03*
X164750Y72400D02*
D03*
X162750D02*
D03*
X218775Y61850D02*
D03*
X220775D02*
D03*
X220450Y69950D02*
D03*
X222450D02*
D03*
D60*
X27600Y70725D02*
D03*
X27600Y73875D02*
D03*
X86449Y65675D02*
D03*
X86449Y62525D02*
D03*
X193283Y28227D02*
D03*
X193283Y25077D02*
D03*
D61*
X56375Y9400D02*
D03*
X61256D02*
D03*
X61275Y13500D02*
D03*
X56394D02*
D03*
X112025Y21700D02*
D03*
X116906D02*
D03*
X111875Y9375D02*
D03*
X116756D02*
D03*
X116900Y17550D02*
D03*
X112019D02*
D03*
X61256Y5250D02*
D03*
X56375D02*
D03*
X56394Y17625D02*
D03*
X61275D02*
D03*
X111894Y13475D02*
D03*
X116775D02*
D03*
D62*
X193264Y23152D02*
D03*
X196414Y23152D02*
D03*
X110050Y54000D02*
D03*
X113200Y54000D02*
D03*
D63*
X31241Y55729D02*
D03*
X35241D02*
D03*
D64*
X78391Y65101D02*
D03*
Y61101D02*
D03*
D65*
X90525Y62901D02*
D03*
Y59799D02*
D03*
X110550Y50551D02*
D03*
Y47449D02*
D03*
D66*
X125750Y72675D02*
D03*
Y66125D02*
D03*
X123300Y72675D02*
D03*
Y66125D02*
D03*
X127625Y50725D02*
D03*
Y57275D02*
D03*
X130075Y50725D02*
D03*
Y57275D02*
D03*
X127625Y59525D02*
D03*
Y66075D02*
D03*
X130075Y59525D02*
D03*
Y66075D02*
D03*
D67*
X198104Y39728D02*
D03*
D68*
X199934D02*
D03*
X199019Y37775D02*
D03*
D69*
X201169Y34552D02*
D03*
X195769D02*
D03*
D70*
X195864Y37801D02*
D03*
Y39602D02*
D03*
D71*
X195603Y28882D02*
D03*
Y27612D02*
D03*
Y26342D02*
D03*
Y25072D02*
D03*
X200235D02*
D03*
Y26342D02*
D03*
Y27612D02*
D03*
D72*
Y28882D02*
D03*
D73*
X201644Y40177D02*
D03*
X205144D02*
D03*
Y37727D02*
D03*
X201644D02*
D03*
D74*
X197595Y31077D02*
D03*
X195793D02*
D03*
%TF.MD5,022e937f5c1aecc7c158810f3fd7621e*%
M02*
