%TF.GenerationSoftware,Altium Limited,Altium Designer,26.1.1 (7)*%
G04 Layer_Color=32768*
%FSLAX43Y43*%
%MOMM*%
%TF.SameCoordinates,F910D8A4-5627-44EB-A571-6FFAAA827985*%
%TF.FilePolarity,Positive*%
%TF.FileFunction,Other,Top_3D_Body*%
%TF.Part,Single*%
G01*
G75*
%TA.AperFunction,NonConductor*%
%ADD96C,0.200*%
%ADD113C,0.100*%
D96*
X20550Y63730D02*
Y75580D01*
X26800D01*
Y63730D02*
Y75580D01*
X20550Y63730D02*
X26800D01*
X61825Y4250D02*
Y12750D01*
X70325D01*
Y4250D02*
Y12750D01*
X61825Y4250D02*
X70325D01*
X54636Y49551D02*
X65136D01*
Y57151D01*
X54636D02*
X65136D01*
X54636Y49551D02*
Y57151D01*
X255927Y49054D02*
X266427D01*
Y56654D01*
X255927D02*
X266427D01*
X255927Y49054D02*
Y56654D01*
X287736Y41383D02*
Y53233D01*
X293986D01*
Y41383D02*
Y53233D01*
X287736Y41383D02*
X293986D01*
X154933Y49161D02*
Y56761D01*
X165433D01*
Y49161D02*
Y56761D01*
X154933Y49161D02*
X165433D01*
X270750Y45519D02*
Y54019D01*
X279250D01*
Y45519D02*
Y54019D01*
X270750Y45519D02*
X279250D01*
X42450Y4250D02*
Y12750D01*
X50950D01*
Y4250D02*
Y12750D01*
X42450Y4250D02*
X50950D01*
D113*
X32750Y35075D02*
G03*
X32750Y35075I-500J0D01*
G01*
X36750Y33025D02*
G03*
X27750Y33025I-4500J-1490D01*
G01*
Y29525D02*
G03*
X36750Y29525I4500J1490D01*
G01*
X32625Y23786D02*
G03*
X32625Y23786I-500J0D01*
G01*
X36625Y21736D02*
G03*
X27625Y21736I-4500J-1490D01*
G01*
Y18236D02*
G03*
X36625Y18236I4500J1490D01*
G01*
X72075Y18000D02*
G03*
X79075Y18000I3500J1684D01*
G01*
Y21400D02*
G03*
X72075Y21400I-3500J-1684D01*
G01*
X75825Y16400D02*
G03*
X75825Y16400I-250J0D01*
G01*
X274425Y21925D02*
G03*
X274425Y21925I-500J0D01*
G01*
X269425Y23975D02*
G03*
X278425Y23975I4500J1490D01*
G01*
Y27475D02*
G03*
X269425Y27475I-4500J-1490D01*
G01*
X93375Y16400D02*
G03*
X93375Y16400I-250J0D01*
G01*
X96625Y21400D02*
G03*
X89625Y21400I-3500J-1684D01*
G01*
Y18000D02*
G03*
X96625Y18000I3500J1684D01*
G01*
X56550Y16400D02*
G03*
X56550Y16400I-250J0D01*
G01*
X59800Y21400D02*
G03*
X52800Y21400I-3500J-1684D01*
G01*
Y18000D02*
G03*
X59800Y18000I3500J1684D01*
G01*
X36750Y29525D02*
Y33025D01*
X27750Y29525D02*
Y33025D01*
X36625Y18236D02*
Y21736D01*
X27625Y18236D02*
Y21736D01*
X17770Y725D02*
Y12725D01*
X29930Y725D02*
Y12725D01*
X17770Y725D02*
X29930D01*
X17770Y12725D02*
X29930D01*
Y725D02*
X31330Y2454D01*
X29930Y3314D02*
X31330D01*
Y2454D02*
Y3314D01*
X16370Y2454D02*
Y3314D01*
X17770D01*
X16370Y2454D02*
X17770Y725D01*
X2000Y58159D02*
X14000D01*
X2000Y45999D02*
X14000D01*
X2000D02*
Y58159D01*
X14000Y45999D02*
Y58159D01*
X2000Y45999D02*
X3729Y44599D01*
X4589D02*
Y45999D01*
X3729Y44599D02*
X4589D01*
X3729Y59559D02*
X4589D01*
Y58159D02*
Y59559D01*
X2000Y58159D02*
X3729Y59559D01*
X2000Y75159D02*
X14000D01*
X2000Y62999D02*
X14000D01*
X2000D02*
Y75159D01*
X14000Y62999D02*
Y75159D01*
X2000Y62999D02*
X3729Y61599D01*
X4589D02*
Y62999D01*
X3729Y61599D02*
X4589D01*
X3729Y76559D02*
X4589D01*
Y75159D02*
Y76559D01*
X2000Y75159D02*
X3729Y76559D01*
X73721Y98349D02*
X74361D01*
X66101D02*
X66741D01*
X71181D02*
X71821D01*
X68641D02*
X69281D01*
X38161D02*
X38801D01*
X43241Y96529D02*
Y98349D01*
X38801Y96529D02*
Y98349D01*
X38161Y96529D02*
Y98349D01*
X41341Y96529D02*
Y98349D01*
X43241D02*
X43881D01*
X40701D02*
X41341D01*
X40701Y96529D02*
Y98349D01*
X43881Y96529D02*
Y98349D01*
X61021D02*
X61661D01*
X63561D02*
X64201D01*
X58481D02*
X59121D01*
X50861D02*
X51501D01*
X55941D02*
X56581D01*
X53401D02*
X54041D01*
X76261Y96529D02*
Y98349D01*
X37211Y93989D02*
X82931D01*
X37211Y96529D02*
X82931D01*
X45781Y98349D02*
X46421D01*
Y96529D02*
Y98349D01*
X45781Y96529D02*
Y98349D01*
X81981Y96529D02*
Y98349D01*
X81341D02*
X81981D01*
X81341Y96529D02*
Y98349D01*
X79441Y96529D02*
Y98349D01*
X78801D02*
X79441D01*
X78801Y96529D02*
Y98349D01*
X76901Y96529D02*
Y98349D01*
X76261D02*
X76901D01*
X82931Y93989D02*
Y96529D01*
X48961D02*
Y98349D01*
X53401Y96529D02*
Y98349D01*
X48321D02*
X48961D01*
X51501Y96529D02*
Y98349D01*
X50861Y96529D02*
Y98349D01*
X54041Y96529D02*
Y98349D01*
X48321Y96529D02*
Y98349D01*
X74361Y96529D02*
Y98349D01*
X73721Y96529D02*
Y98349D01*
X71821Y96529D02*
Y98349D01*
X71181Y96529D02*
Y98349D01*
X69281Y96529D02*
Y98349D01*
X61021Y96529D02*
Y98349D01*
X66101Y96529D02*
Y98349D01*
X68641Y96529D02*
Y98349D01*
X66741Y96529D02*
Y98349D01*
X61661Y96529D02*
Y98349D01*
X63561Y96529D02*
Y98349D01*
X58481Y96529D02*
Y98349D01*
X59121Y96529D02*
Y98349D01*
X56581Y96529D02*
Y98349D01*
X55941Y96529D02*
Y98349D01*
X64201Y96529D02*
Y98349D01*
X173314Y98330D02*
X173954D01*
X165694D02*
X166334D01*
X170774D02*
X171414D01*
X168234D02*
X168874D01*
X137754D02*
X138394D01*
X142834Y96510D02*
Y98330D01*
X138394Y96510D02*
Y98330D01*
X137754Y96510D02*
Y98330D01*
X140934Y96510D02*
Y98330D01*
X142834D02*
X143474D01*
X140294D02*
X140934D01*
X140294Y96510D02*
Y98330D01*
X143474Y96510D02*
Y98330D01*
X160614D02*
X161254D01*
X163154D02*
X163794D01*
X158074D02*
X158714D01*
X150454D02*
X151094D01*
X155534D02*
X156174D01*
X152994D02*
X153634D01*
X175854Y96510D02*
Y98330D01*
X136804Y93970D02*
X182524D01*
X136804Y96510D02*
X182524D01*
X145374Y98330D02*
X146014D01*
Y96510D02*
Y98330D01*
X145374Y96510D02*
Y98330D01*
X181574Y96510D02*
Y98330D01*
X180934D02*
X181574D01*
X180934Y96510D02*
Y98330D01*
X179034Y96510D02*
Y98330D01*
X178394D02*
X179034D01*
X178394Y96510D02*
Y98330D01*
X176494Y96510D02*
Y98330D01*
X175854D02*
X176494D01*
X182524Y93970D02*
Y96510D01*
X148554D02*
Y98330D01*
X152994Y96510D02*
Y98330D01*
X147914D02*
X148554D01*
X151094Y96510D02*
Y98330D01*
X150454Y96510D02*
Y98330D01*
X153634Y96510D02*
Y98330D01*
X147914Y96510D02*
Y98330D01*
X173954Y96510D02*
Y98330D01*
X173314Y96510D02*
Y98330D01*
X171414Y96510D02*
Y98330D01*
X170774Y96510D02*
Y98330D01*
X168874Y96510D02*
Y98330D01*
X160614Y96510D02*
Y98330D01*
X165694Y96510D02*
Y98330D01*
X168234Y96510D02*
Y98330D01*
X166334Y96510D02*
Y98330D01*
X161254Y96510D02*
Y98330D01*
X163154Y96510D02*
Y98330D01*
X158074Y96510D02*
Y98330D01*
X158714Y96510D02*
Y98330D01*
X156174Y96510D02*
Y98330D01*
X155534Y96510D02*
Y98330D01*
X163794Y96510D02*
Y98330D01*
X263312Y96510D02*
Y98330D01*
X255052Y96510D02*
Y98330D01*
X255692Y96510D02*
Y98330D01*
X258232Y96510D02*
Y98330D01*
X257592Y96510D02*
Y98330D01*
X262672Y96510D02*
Y98330D01*
X260772Y96510D02*
Y98330D01*
X265852Y96510D02*
Y98330D01*
X267752Y96510D02*
Y98330D01*
X265212Y96510D02*
Y98330D01*
X260132Y96510D02*
Y98330D01*
X268392Y96510D02*
Y98330D01*
X270292Y96510D02*
Y98330D01*
X270932Y96510D02*
Y98330D01*
X272832Y96510D02*
Y98330D01*
X273472Y96510D02*
Y98330D01*
X247432Y96510D02*
Y98330D01*
X253152Y96510D02*
Y98330D01*
X249972Y96510D02*
Y98330D01*
X250612Y96510D02*
Y98330D01*
X247432D02*
X248072D01*
X252512Y96510D02*
Y98330D01*
X248072Y96510D02*
Y98330D01*
X282042Y93970D02*
Y96510D01*
X275372Y98330D02*
X276012D01*
Y96510D02*
Y98330D01*
X277912Y96510D02*
Y98330D01*
X278552D01*
Y96510D02*
Y98330D01*
X280452Y96510D02*
Y98330D01*
X281092D01*
Y96510D02*
Y98330D01*
X244892Y96510D02*
Y98330D01*
X245532Y96510D02*
Y98330D01*
X244892D02*
X245532D01*
X236322Y96510D02*
X282042D01*
X236322Y93970D02*
X282042D01*
X275372Y96510D02*
Y98330D01*
X252512D02*
X253152D01*
X255052D02*
X255692D01*
X249972D02*
X250612D01*
X257592D02*
X258232D01*
X262672D02*
X263312D01*
X260132D02*
X260772D01*
X242992Y96510D02*
Y98330D01*
X239812Y96510D02*
Y98330D01*
X240452D01*
X242352D02*
X242992D01*
X240452Y96510D02*
Y98330D01*
X237272Y96510D02*
Y98330D01*
X237912Y96510D02*
Y98330D01*
X242352Y96510D02*
Y98330D01*
X237272D02*
X237912D01*
X267752D02*
X268392D01*
X270292D02*
X270932D01*
X265212D02*
X265852D01*
X272832D02*
X273472D01*
X317746Y54980D02*
X319475Y56380D01*
X316886Y54980D02*
Y56380D01*
Y54980D02*
X317746D01*
X307475Y56380D02*
Y73620D01*
X319475Y56380D02*
Y73620D01*
X307475D02*
X319475D01*
X307475Y56380D02*
X319475D01*
X316886Y75020D02*
X317746D01*
X316886Y73620D02*
Y75020D01*
X317746D02*
X319475Y73620D01*
X317746Y79980D02*
X319475Y81380D01*
X316886Y79980D02*
Y81380D01*
Y79980D02*
X317746D01*
X307475Y81380D02*
Y98620D01*
X319475Y81380D02*
Y98620D01*
X307475D02*
X319475D01*
X307475Y81380D02*
X319475D01*
X316886Y100020D02*
X317746D01*
X316886Y98620D02*
Y100020D01*
X317746D02*
X319475Y98620D01*
X79075Y18000D02*
Y21400D01*
X72075Y18000D02*
Y21400D01*
X269425Y23975D02*
Y27475D01*
X278425Y23975D02*
Y27475D01*
X89625Y18000D02*
Y21400D01*
X96625Y18000D02*
Y21400D01*
X52800Y18000D02*
Y21400D01*
X59800Y18000D02*
Y21400D01*
%TF.MD5,81113703067722a6cd0cae671da6fe15*%
M02*
