%TF.GenerationSoftware,Altium Limited,Altium Designer,26.1.1 (7)*%
G04 Layer_Color=128*
%FSLAX43Y43*%
%MOMM*%
%TF.SameCoordinates,F910D8A4-5627-44EB-A571-6FFAAA827985*%
%TF.FilePolarity,Positive*%
%TF.FileFunction,Drillmap*%
%TF.Part,Single*%
G01*
G75*
%TA.AperFunction,NonConductor*%
%ADD141C,0.127*%
D141*
X187686Y37987D02*
X188636D01*
X188161Y37512D02*
Y38462D01*
X181396Y38279D02*
X182346D01*
X181871Y37804D02*
Y38754D01*
X165964Y57836D02*
X166914D01*
X166439Y57361D02*
Y58311D01*
X16225Y80466D02*
X17175D01*
X16700Y79991D02*
Y80941D01*
X123941Y130369D02*
X125391D01*
X124666Y129644D02*
Y131094D01*
X129275Y130369D02*
X130725D01*
X130000Y129644D02*
Y131094D01*
X134609Y130369D02*
X136059D01*
X135334Y129644D02*
Y131094D01*
X94609Y130369D02*
X96059D01*
X95334Y129644D02*
Y131094D01*
X89275Y130369D02*
X90725D01*
X90000Y129644D02*
Y131094D01*
X83941Y130369D02*
X85391D01*
X84666Y129644D02*
Y131094D01*
X25275Y65845D02*
X26275D01*
X25775Y65345D02*
Y66345D01*
X25275Y68385D02*
X26275D01*
X25775Y67885D02*
Y68885D01*
X25275Y70925D02*
X26275D01*
X25775Y70425D02*
Y71425D01*
X25275Y73465D02*
X26275D01*
X25775Y72965D02*
Y73965D01*
X227524Y13500D02*
X228524D01*
X228024Y13000D02*
Y14000D01*
X227524Y16040D02*
X228524D01*
X228024Y15540D02*
Y16540D01*
X227524Y18580D02*
X228524D01*
X228024Y18080D02*
Y19080D01*
X227524Y21120D02*
X228524D01*
X228024Y20620D02*
Y21620D01*
X227524Y23660D02*
X228524D01*
X228024Y23160D02*
Y24160D01*
X227524Y26200D02*
X228524D01*
X228024Y25700D02*
Y26700D01*
X302820Y22505D02*
X305990D01*
X304405Y20920D02*
Y24090D01*
X302820Y47495D02*
X305990D01*
X304405Y45910D02*
Y49080D01*
X302465Y34995D02*
X303505D01*
X302985Y34475D02*
Y35515D01*
X302465Y32255D02*
X303505D01*
X302985Y31735D02*
Y32775D01*
X302465Y29515D02*
X303505D01*
X302985Y28995D02*
Y30035D01*
X302465Y37735D02*
X303505D01*
X302985Y37215D02*
Y38255D01*
X302465Y40475D02*
X303505D01*
X302985Y39955D02*
Y40995D01*
X305305Y36365D02*
X306345D01*
X305825Y35845D02*
Y36885D01*
X305305Y33625D02*
X306345D01*
X305825Y33105D02*
Y34145D01*
X305305Y30885D02*
X306345D01*
X305825Y30365D02*
Y31405D01*
X305305Y39105D02*
X306345D01*
X305825Y38585D02*
Y39625D01*
X201757Y45225D02*
X202757D01*
X202257Y44725D02*
Y45725D01*
X199217Y45225D02*
X200217D01*
X199717Y44725D02*
Y45725D01*
X196677Y45225D02*
X197677D01*
X197177Y44725D02*
Y45725D01*
X214162Y45225D02*
X215162D01*
X214662Y44725D02*
Y45725D01*
X216702Y45225D02*
X217702D01*
X217202Y44725D02*
Y45725D01*
X219242Y45225D02*
X220242D01*
X219742Y44725D02*
Y45725D01*
X192741Y45287D02*
X193741D01*
X193241Y44787D02*
Y45787D01*
X190201Y45287D02*
X191201D01*
X190701Y44787D02*
Y45787D01*
X187661Y45287D02*
X188661D01*
X188161Y44787D02*
Y45787D01*
X205492Y45225D02*
X206492D01*
X205992Y44725D02*
Y45725D01*
X208032Y45225D02*
X209032D01*
X208532Y44725D02*
Y45725D01*
X210572Y45225D02*
X211572D01*
X211072Y44725D02*
Y45725D01*
X183911Y45237D02*
X184911D01*
X184411Y44737D02*
Y45737D01*
X181371Y45237D02*
X182371D01*
X181871Y44737D02*
Y45737D01*
X178831Y45237D02*
X179831D01*
X179331Y44737D02*
Y45737D01*
X235365Y26225D02*
X236365D01*
X235865Y25725D02*
Y26725D01*
X235365Y23685D02*
X236365D01*
X235865Y23185D02*
Y24185D01*
X235365Y21145D02*
X236365D01*
X235865Y20645D02*
Y21645D01*
X235365Y18605D02*
X236365D01*
X235865Y18105D02*
Y19105D01*
X235365Y16065D02*
X236365D01*
X235865Y15565D02*
Y16565D01*
X235365Y13525D02*
X236365D01*
X235865Y13025D02*
Y14025D01*
X148185Y13457D02*
X149135D01*
X148660Y12982D02*
Y13932D01*
X152396Y10317D02*
X153346D01*
X152871Y9842D02*
Y10792D01*
X113800Y53870D02*
X114800D01*
X114300Y53370D02*
Y54370D01*
X113800Y51330D02*
X114800D01*
X114300Y50830D02*
Y51830D01*
X113800Y48790D02*
X114800D01*
X114300Y48290D02*
Y49290D01*
X113800Y46250D02*
X114800D01*
X114300Y45750D02*
Y46750D01*
X113800Y43710D02*
X114800D01*
X114300Y43210D02*
Y44210D01*
X113800Y41170D02*
X114800D01*
X114300Y40670D02*
Y41670D01*
X195174Y15981D02*
X195874D01*
X195524Y15631D02*
Y16331D01*
X195174Y20861D02*
X195874D01*
X195524Y20511D02*
Y21211D01*
X3769Y166175D02*
X4531D01*
X4150Y165794D02*
Y166556D01*
X8719Y166175D02*
X9481D01*
X9100Y165794D02*
Y166556D01*
X29069Y158225D02*
X29831D01*
X29450Y157844D02*
Y158606D01*
X34019Y158225D02*
X34781D01*
X34400Y157844D02*
Y158606D01*
X26170Y174540D02*
X28330D01*
X27250Y173460D02*
Y175620D01*
X26170Y164634D02*
X28330D01*
X27250Y163555D02*
Y165714D01*
X148185Y5477D02*
X149135D01*
X148660Y5002D02*
Y5952D01*
X148185Y16602D02*
X149135D01*
X148660Y16127D02*
Y17077D01*
X148185Y8727D02*
X149135D01*
X148660Y8252D02*
Y9202D01*
X150208Y15002D02*
X151158D01*
X150683Y14527D02*
Y15477D01*
X150000Y7027D02*
X150950D01*
X150475Y6552D02*
Y7502D01*
X150000Y11827D02*
X150950D01*
X150475Y11352D02*
Y12302D01*
X306925Y14480D02*
X307875D01*
X307400Y14005D02*
Y14955D01*
X303530Y14480D02*
X304480D01*
X304005Y14005D02*
Y14955D01*
X25540Y10725D02*
X27240D01*
X26390Y9875D02*
Y11575D01*
X20460Y10725D02*
X22160D01*
X21310Y9875D02*
Y11575D01*
X31340Y78014D02*
X32290D01*
X31815Y77539D02*
Y78489D01*
X36971Y79505D02*
X37921D01*
X37446Y79030D02*
Y79980D01*
X6064Y16963D02*
X7064D01*
X6564Y16463D02*
Y17463D01*
X11398Y16963D02*
X12398D01*
X11898Y16463D02*
Y17463D01*
X11398Y34362D02*
X12398D01*
X11898Y33862D02*
Y34862D01*
X6064Y34362D02*
X7064D01*
X6564Y33862D02*
Y34862D01*
X20439Y30470D02*
X21389D01*
X20914Y29995D02*
Y30945D01*
X46064Y165059D02*
X46826D01*
X46445Y164678D02*
Y165440D01*
X51014Y165059D02*
X51776D01*
X51395Y164678D02*
Y165440D01*
X11150Y49539D02*
X12850D01*
X12000Y48689D02*
Y50389D01*
X11150Y54619D02*
X12850D01*
X12000Y53769D02*
Y55469D01*
X11150Y66539D02*
X12850D01*
X12000Y65689D02*
Y67389D01*
X11150Y71619D02*
X12850D01*
X12000Y70769D02*
Y72469D01*
X58251Y98029D02*
X59351D01*
X58801Y97479D02*
Y98579D01*
X37931Y98029D02*
X39031D01*
X38481Y97479D02*
Y98579D01*
X55711Y98029D02*
X56811D01*
X56261Y97479D02*
Y98579D01*
X48091Y98029D02*
X49191D01*
X48641Y97479D02*
Y98579D01*
X53171Y98029D02*
X54271D01*
X53721Y97479D02*
Y98579D01*
X45551Y98029D02*
X46651D01*
X46101Y97479D02*
Y98579D01*
X50631Y98029D02*
X51731D01*
X51181Y97479D02*
Y98579D01*
X43011Y98029D02*
X44111D01*
X43561Y97479D02*
Y98579D01*
X40471Y98029D02*
X41571D01*
X41021Y97479D02*
Y98579D01*
X60791Y98029D02*
X61891D01*
X61341Y97479D02*
Y98579D01*
X63331Y98029D02*
X64431D01*
X63881Y97479D02*
Y98579D01*
X65871Y98029D02*
X66971D01*
X66421Y97479D02*
Y98579D01*
X70951Y98029D02*
X72051D01*
X71501Y97479D02*
Y98579D01*
X81111Y98029D02*
X82211D01*
X81661Y97479D02*
Y98579D01*
X78571Y98029D02*
X79671D01*
X79121Y97479D02*
Y98579D01*
X68411Y98029D02*
X69511D01*
X68961Y97479D02*
Y98579D01*
X73491Y98029D02*
X74591D01*
X74041Y97479D02*
Y98579D01*
X76031Y98029D02*
X77131D01*
X76581Y97479D02*
Y98579D01*
X56236Y38232D02*
X57186D01*
X56711Y37757D02*
Y38707D01*
X54239Y45661D02*
X55189D01*
X54714Y45186D02*
Y46136D01*
X46123Y71070D02*
X47123D01*
X46623Y70570D02*
Y71570D01*
X46048Y76145D02*
X47048D01*
X46548Y75645D02*
Y76645D01*
X45777Y64911D02*
X46727D01*
X46252Y64436D02*
Y65386D01*
X73566Y77404D02*
X74516D01*
X74041Y76929D02*
Y77879D01*
X46179Y61250D02*
X47129D01*
X46654Y60775D02*
Y61725D01*
X60381Y71070D02*
X61381D01*
X60881Y70570D02*
Y71570D01*
X60306Y76145D02*
X61306D01*
X60806Y75645D02*
Y76645D01*
X81186Y79635D02*
X82136D01*
X81661Y79160D02*
Y80110D01*
X157844Y98010D02*
X158944D01*
X158394Y97460D02*
Y98560D01*
X137524Y98010D02*
X138624D01*
X138074Y97460D02*
Y98560D01*
X155304Y98010D02*
X156404D01*
X155854Y97460D02*
Y98560D01*
X147684Y98010D02*
X148784D01*
X148234Y97460D02*
Y98560D01*
X152764Y98010D02*
X153864D01*
X153314Y97460D02*
Y98560D01*
X145144Y98010D02*
X146244D01*
X145694Y97460D02*
Y98560D01*
X150224Y98010D02*
X151324D01*
X150774Y97460D02*
Y98560D01*
X142604Y98010D02*
X143704D01*
X143154Y97460D02*
Y98560D01*
X140064Y98010D02*
X141164D01*
X140614Y97460D02*
Y98560D01*
X160384Y98010D02*
X161484D01*
X160934Y97460D02*
Y98560D01*
X162924Y98010D02*
X164024D01*
X163474Y97460D02*
Y98560D01*
X165464Y98010D02*
X166564D01*
X166014Y97460D02*
Y98560D01*
X170544Y98010D02*
X171644D01*
X171094Y97460D02*
Y98560D01*
X180704Y98010D02*
X181804D01*
X181254Y97460D02*
Y98560D01*
X178164Y98010D02*
X179264D01*
X178714Y97460D02*
Y98560D01*
X168004Y98010D02*
X169104D01*
X168554Y97460D02*
Y98560D01*
X173084Y98010D02*
X174184D01*
X173634Y97460D02*
Y98560D01*
X175624Y98010D02*
X176724D01*
X176174Y97460D02*
Y98560D01*
X275142Y98010D02*
X276242D01*
X275692Y97460D02*
Y98560D01*
X272602Y98010D02*
X273702D01*
X273152Y97460D02*
Y98560D01*
X267522Y98010D02*
X268622D01*
X268072Y97460D02*
Y98560D01*
X277682Y98010D02*
X278782D01*
X278232Y97460D02*
Y98560D01*
X280222Y98010D02*
X281322D01*
X280772Y97460D02*
Y98560D01*
X270062Y98010D02*
X271162D01*
X270612Y97460D02*
Y98560D01*
X264982Y98010D02*
X266082D01*
X265532Y97460D02*
Y98560D01*
X262442Y98010D02*
X263542D01*
X262992Y97460D02*
Y98560D01*
X259902Y98010D02*
X261002D01*
X260452Y97460D02*
Y98560D01*
X239582Y98010D02*
X240682D01*
X240132Y97460D02*
Y98560D01*
X242122Y98010D02*
X243222D01*
X242672Y97460D02*
Y98560D01*
X249742Y98010D02*
X250842D01*
X250292Y97460D02*
Y98560D01*
X244662Y98010D02*
X245762D01*
X245212Y97460D02*
Y98560D01*
X252282Y98010D02*
X253382D01*
X252832Y97460D02*
Y98560D01*
X247202Y98010D02*
X248302D01*
X247752Y97460D02*
Y98560D01*
X254822Y98010D02*
X255922D01*
X255372Y97460D02*
Y98560D01*
X237042Y98010D02*
X238142D01*
X237592Y97460D02*
Y98560D01*
X257362Y98010D02*
X258462D01*
X257912Y97460D02*
Y98560D01*
X42673Y112544D02*
X44451D01*
X43562Y111655D02*
Y113433D01*
X42673Y107464D02*
X44451D01*
X43562Y106575D02*
Y108353D01*
X36673Y112544D02*
X38451D01*
X37562Y111655D02*
Y113433D01*
X36673Y107464D02*
X38451D01*
X37562Y106575D02*
Y108353D01*
X76388Y112592D02*
X78166D01*
X77277Y111703D02*
Y113481D01*
X76388Y107512D02*
X78166D01*
X77277Y106623D02*
Y108401D01*
X82388Y112592D02*
X84166D01*
X83277Y111703D02*
Y113481D01*
X82388Y107512D02*
X84166D01*
X83277Y106623D02*
Y108401D01*
X282491Y113506D02*
X284269D01*
X283380Y112617D02*
Y114395D01*
X282491Y108426D02*
X284269D01*
X283380Y107537D02*
Y109315D01*
X276491Y113506D02*
X278269D01*
X277380Y112617D02*
Y114395D01*
X276491Y108426D02*
X278269D01*
X277380Y107537D02*
Y109315D01*
X235999Y113430D02*
X237777D01*
X236888Y112541D02*
Y114319D01*
X235999Y108350D02*
X237777D01*
X236888Y107461D02*
Y109239D01*
X241999Y113430D02*
X243777D01*
X242888Y112541D02*
Y114319D01*
X241999Y108350D02*
X243777D01*
X242888Y107461D02*
Y109239D01*
X247385Y64326D02*
X248335D01*
X247860Y63851D02*
Y64801D01*
X261943Y70319D02*
X262943D01*
X262443Y69819D02*
Y70819D01*
X261868Y75394D02*
X262868D01*
X262368Y74894D02*
Y75894D01*
X247651Y70560D02*
X248651D01*
X248151Y70060D02*
Y71060D01*
X247576Y75635D02*
X248576D01*
X248076Y75135D02*
Y76135D01*
X267452Y57729D02*
X268402D01*
X267927Y57254D02*
Y58204D01*
X254396Y57729D02*
X255346D01*
X254871Y57254D02*
Y58204D01*
X257527Y37788D02*
X258477D01*
X258002Y37313D02*
Y38263D01*
X277757Y77032D02*
X278707D01*
X278232Y76557D02*
Y77507D01*
X254748Y46105D02*
X255698D01*
X255223Y45630D02*
Y46580D01*
X16346Y174540D02*
X18504D01*
X17425Y173460D02*
Y175620D01*
X16346Y164634D02*
X18504D01*
X17425Y163555D02*
Y165714D01*
X5249Y88112D02*
X6199D01*
X5724Y87637D02*
Y88587D01*
X75754Y164983D02*
X76516D01*
X76135Y164602D02*
Y165364D01*
X70804Y164983D02*
X71566D01*
X71185Y164602D02*
Y165364D01*
X58921Y159638D02*
X61079D01*
X60000Y158558D02*
Y160717D01*
X58921Y169544D02*
X61079D01*
X60000Y168464D02*
Y170623D01*
X35921Y164634D02*
X38079D01*
X37000Y163555D02*
Y165714D01*
X35921Y174540D02*
X38079D01*
X37000Y173460D02*
Y175620D01*
X158814Y159638D02*
X160973D01*
X159893Y158558D02*
Y160717D01*
X158814Y169544D02*
X160973D01*
X159893Y168464D02*
Y170623D01*
X258915Y159638D02*
X261074D01*
X259994Y158558D02*
Y160717D01*
X258915Y169544D02*
X261074D01*
X259994Y168464D02*
Y170623D01*
X148488Y165004D02*
X149250D01*
X148869Y164623D02*
Y165385D01*
X143538Y165004D02*
X144300D01*
X143919Y164623D02*
Y165385D01*
X248677Y165034D02*
X249439D01*
X249058Y164653D02*
Y165415D01*
X243727Y165034D02*
X244489D01*
X244108Y164653D02*
Y165415D01*
X275488Y165059D02*
X276250D01*
X275869Y164678D02*
Y165440D01*
X270538Y165059D02*
X271300D01*
X270919Y164678D02*
Y165440D01*
X175590Y165004D02*
X176352D01*
X175971Y164623D02*
Y165385D01*
X158000Y140004D02*
X162000D01*
X160000Y138004D02*
Y142004D01*
X158000Y150004D02*
X162000D01*
X160000Y148004D02*
Y152004D01*
X298000Y140004D02*
X302000D01*
X300000Y138004D02*
Y142004D01*
X298000Y150004D02*
X302000D01*
X300000Y148004D02*
Y152004D01*
X18000Y138976D02*
X22000D01*
X20000Y136976D02*
Y140976D01*
X18000Y149726D02*
X22000D01*
X20000Y147726D02*
Y151726D01*
X183941Y130369D02*
X185391D01*
X184666Y129644D02*
Y131094D01*
X189275Y130369D02*
X190725D01*
X190000Y129644D02*
Y131094D01*
X194609Y130369D02*
X196059D01*
X195334Y129644D02*
Y131094D01*
X163941Y130369D02*
X165391D01*
X164666Y129644D02*
Y131094D01*
X169275Y130369D02*
X170725D01*
X170000Y129644D02*
Y131094D01*
X174609Y130369D02*
X176059D01*
X175334Y129644D02*
Y131094D01*
X43941Y130369D02*
X45391D01*
X44666Y129644D02*
Y131094D01*
X49275Y130369D02*
X50725D01*
X50000Y129644D02*
Y131094D01*
X54609Y130369D02*
X56059D01*
X55334Y129644D02*
Y131094D01*
X23941Y130369D02*
X25391D01*
X24666Y129644D02*
Y131094D01*
X29275Y130369D02*
X30725D01*
X30000Y129644D02*
Y131094D01*
X34609Y130369D02*
X36059D01*
X35334Y129644D02*
Y131094D01*
X63941Y130369D02*
X65391D01*
X64666Y129644D02*
Y131094D01*
X69275Y130369D02*
X70725D01*
X70000Y129644D02*
Y131094D01*
X74609Y130369D02*
X76059D01*
X75334Y129644D02*
Y131094D01*
X283941Y130369D02*
X285391D01*
X284666Y129644D02*
Y131094D01*
X289275Y130369D02*
X290725D01*
X290000Y129644D02*
Y131094D01*
X294609Y130369D02*
X296059D01*
X295334Y129644D02*
Y131094D01*
X263941Y130369D02*
X265391D01*
X264666Y129644D02*
Y131094D01*
X269275Y130369D02*
X270725D01*
X270000Y129644D02*
Y131094D01*
X274609Y130369D02*
X276059D01*
X275334Y129644D02*
Y131094D01*
X143941Y130369D02*
X145391D01*
X144666Y129644D02*
Y131094D01*
X149275Y130369D02*
X150725D01*
X150000Y129644D02*
Y131094D01*
X154609Y130369D02*
X156059D01*
X155334Y129644D02*
Y131094D01*
X223941Y130369D02*
X225391D01*
X224666Y129644D02*
Y131094D01*
X229275Y130369D02*
X230725D01*
X230000Y129644D02*
Y131094D01*
X234609Y130369D02*
X236059D01*
X235334Y129644D02*
Y131094D01*
X243941Y130369D02*
X245391D01*
X244666Y129644D02*
Y131094D01*
X249275Y130369D02*
X250725D01*
X250000Y129644D02*
Y131094D01*
X254609Y130369D02*
X256059D01*
X255334Y129644D02*
Y131094D01*
X170640Y165004D02*
X171402D01*
X171021Y164623D02*
Y165385D01*
X308625Y59920D02*
X310325D01*
X309475Y59070D02*
Y60770D01*
X308625Y65000D02*
X310325D01*
X309475Y64150D02*
Y65850D01*
X308625Y70080D02*
X310325D01*
X309475Y69230D02*
Y70930D01*
X308625Y84920D02*
X310325D01*
X309475Y84070D02*
Y85770D01*
X308625Y90000D02*
X310325D01*
X309475Y89150D02*
Y90850D01*
X308625Y95080D02*
X310325D01*
X309475Y94230D02*
Y95930D01*
X36971Y74800D02*
X37921D01*
X37446Y74325D02*
Y75275D01*
X196500Y4550D02*
X197450D01*
X196975Y4075D02*
Y5025D01*
X292710Y20344D02*
X293660D01*
X293185Y19869D02*
Y20819D01*
X292597Y30054D02*
X293547D01*
X293072Y29579D02*
Y30529D01*
X287000Y35075D02*
X287950D01*
X287475Y34600D02*
Y35550D01*
X172580Y7700D02*
X173580D01*
X173080Y7200D02*
Y8200D01*
X170040Y7700D02*
X171040D01*
X170540Y7200D02*
Y8200D01*
X167500Y7700D02*
X168500D01*
X168000Y7200D02*
Y8200D01*
X164960Y7700D02*
X165960D01*
X165460Y7200D02*
Y8200D01*
X162420Y7700D02*
X163420D01*
X162920Y7200D02*
Y8200D01*
X159880Y7700D02*
X160880D01*
X160380Y7200D02*
Y8200D01*
X147381Y64321D02*
X148331D01*
X147856Y63846D02*
Y64796D01*
X156533Y38337D02*
X157483D01*
X157008Y37862D02*
Y38812D01*
X162028Y70566D02*
X163028D01*
X162528Y70066D02*
Y71066D01*
X161953Y75641D02*
X162953D01*
X162453Y75141D02*
Y76141D01*
X292461Y46038D02*
X293461D01*
X292961Y45538D02*
Y46538D01*
X292461Y48578D02*
X293461D01*
X292961Y48078D02*
Y49078D01*
X292461Y51118D02*
X293461D01*
X292961Y50618D02*
Y51618D01*
X292461Y43498D02*
X293461D01*
X292961Y42998D02*
Y43998D01*
X178239Y74317D02*
X179189D01*
X178714Y73842D02*
Y74792D01*
X153348Y57836D02*
X154298D01*
X153823Y57361D02*
Y58311D01*
X153899Y44728D02*
X154849D01*
X154374Y44253D02*
Y45203D01*
X227779Y57970D02*
X228779D01*
X228279Y57470D02*
Y58470D01*
X227779Y55430D02*
X228779D01*
X228279Y54930D02*
Y55930D01*
X227779Y52890D02*
X228779D01*
X228279Y52390D02*
Y53390D01*
X227779Y50350D02*
X228779D01*
X228279Y49850D02*
Y50850D01*
X227779Y47810D02*
X228779D01*
X228279Y47310D02*
Y48310D01*
X227779Y45270D02*
X228779D01*
X228279Y44770D02*
Y45770D01*
X35070Y60305D02*
X36020D01*
X35545Y59830D02*
Y60780D01*
X34818Y46105D02*
X35768D01*
X35293Y45630D02*
Y46580D01*
X28290Y46105D02*
X29240D01*
X28765Y45630D02*
Y46580D01*
X28710Y60305D02*
X29660D01*
X29185Y59830D02*
Y60780D01*
X26550Y56685D02*
X27500D01*
X27025Y56210D02*
Y57160D01*
X292660Y14410D02*
X293610D01*
X293135Y13935D02*
Y14885D01*
X291331Y55633D02*
X292281D01*
X291806Y55158D02*
Y56108D01*
X276134Y34900D02*
X277084D01*
X276609Y34425D02*
Y35375D01*
X289705Y39078D02*
X290655D01*
X290180Y38603D02*
Y39553D01*
X291331Y59367D02*
X292281D01*
X291806Y58892D02*
Y59842D01*
X297841Y71428D02*
X298791D01*
X298316Y70953D02*
Y71903D01*
X284921Y72651D02*
X285871D01*
X285396Y72176D02*
Y73126D01*
X291306Y68959D02*
X292256D01*
X291781Y68484D02*
Y69434D01*
X235779Y57960D02*
X236779D01*
X236279Y57460D02*
Y58460D01*
X235779Y55420D02*
X236779D01*
X236279Y54920D02*
Y55920D01*
X235779Y52880D02*
X236779D01*
X236279Y52380D02*
Y53380D01*
X235779Y50340D02*
X236779D01*
X236279Y49840D02*
Y50840D01*
X235779Y47800D02*
X236779D01*
X236279Y47300D02*
Y48300D01*
X235779Y45260D02*
X236779D01*
X236279Y44760D02*
Y45760D01*
X279080Y35172D02*
X280030D01*
X279555Y34697D02*
Y35647D01*
X147877Y75780D02*
X148877D01*
X148377Y75280D02*
Y76280D01*
X147952Y70705D02*
X148952D01*
X148452Y70205D02*
Y71205D01*
X182205Y107808D02*
X183983D01*
X183094Y106919D02*
Y108697D01*
X182205Y112888D02*
X183983D01*
X183094Y111999D02*
Y113777D01*
X176389Y107681D02*
X178167D01*
X177278Y106792D02*
Y108570D01*
X176389Y112761D02*
X178167D01*
X177278Y111872D02*
Y113650D01*
X141656Y107808D02*
X143434D01*
X142545Y106919D02*
Y108697D01*
X141656Y112888D02*
X143434D01*
X142545Y111999D02*
Y113777D01*
X136220Y107808D02*
X137998D01*
X137109Y106919D02*
Y108697D01*
X136220Y112888D02*
X137998D01*
X137109Y111999D02*
Y113777D01*
X5725Y132700D02*
X6025D01*
X5875Y132550D02*
Y132850D01*
X22066Y59275D02*
X22366D01*
X22216Y59125D02*
Y59425D01*
X21416Y59264D02*
X21716D01*
X21566Y59114D02*
Y59414D01*
X22716Y59275D02*
X23016D01*
X22866Y59125D02*
Y59425D01*
X126334Y775D02*
X126634D01*
X126484Y625D02*
Y925D01*
X182200Y4180D02*
X182500D01*
X182350Y4030D02*
Y4330D01*
X181450Y4970D02*
X181750D01*
X181600Y4820D02*
Y5120D01*
X185650Y2425D02*
X185950D01*
X185800Y2275D02*
Y2575D01*
X182955Y3450D02*
X183255D01*
X183105Y3300D02*
Y3600D01*
X187875Y2425D02*
X188175D01*
X188025Y2275D02*
Y2575D01*
X187875Y3450D02*
X188175D01*
X188025Y3300D02*
Y3600D01*
X184685Y8569D02*
X184985D01*
X184835Y8419D02*
Y8719D01*
X234949Y11630D02*
X235249D01*
X235099Y11480D02*
Y11780D01*
X235600Y11630D02*
X235900D01*
X235750Y11480D02*
Y11780D01*
X236250Y11630D02*
X236550D01*
X236400Y11480D02*
Y11780D01*
X31875Y119650D02*
X32175D01*
X32025Y119500D02*
Y119800D01*
X203257Y36515D02*
X203557D01*
X203407Y36365D02*
Y36665D01*
X1719Y173350D02*
X2431D01*
X2075Y172994D02*
Y173706D01*
X2844Y172200D02*
X3556D01*
X3200Y171844D02*
Y172556D01*
X1419Y175000D02*
X2131D01*
X1775Y174644D02*
Y175356D01*
X4644Y171600D02*
X5356D01*
X5000Y171244D02*
Y171956D01*
X129400Y29025D02*
X129700D01*
X129550Y28875D02*
Y29175D01*
X86254Y29775D02*
X86554D01*
X86404Y29625D02*
Y29925D01*
X83165Y28539D02*
X83465D01*
X83315Y28389D02*
Y28689D01*
X17193Y72509D02*
X17493D01*
X17343Y72359D02*
Y72659D01*
X16643Y73091D02*
X16943D01*
X16793Y72941D02*
Y73241D01*
X303726Y146272D02*
X304226D01*
X303976Y146022D02*
Y146522D01*
X302726Y146272D02*
X303226D01*
X302976Y146022D02*
Y146522D01*
X301726Y146272D02*
X302226D01*
X301976Y146022D02*
Y146522D01*
X301726Y145237D02*
X302226D01*
X301976Y144987D02*
Y145487D01*
X302726Y145237D02*
X303226D01*
X302976Y144987D02*
Y145487D01*
X303726Y145237D02*
X304226D01*
X303976Y144987D02*
Y145487D01*
X303726Y143205D02*
X304226D01*
X303976Y142955D02*
Y143455D01*
X302726Y143205D02*
X303226D01*
X302976Y142955D02*
Y143455D01*
X301726Y143205D02*
X302226D01*
X301976Y142955D02*
Y143455D01*
X301726Y144240D02*
X302226D01*
X301976Y143990D02*
Y144490D01*
X302726Y144240D02*
X303226D01*
X302976Y143990D02*
Y144490D01*
X303726Y144240D02*
X304226D01*
X303976Y143990D02*
Y144490D01*
X300743Y144242D02*
X301243D01*
X300993Y143992D02*
Y144492D01*
X299743Y144242D02*
X300243D01*
X299993Y143992D02*
Y144492D01*
X298743Y144242D02*
X299243D01*
X298993Y143992D02*
Y144492D01*
X298743Y143207D02*
X299243D01*
X298993Y142957D02*
Y143457D01*
X299743Y143207D02*
X300243D01*
X299993Y142957D02*
Y143457D01*
X300743Y143207D02*
X301243D01*
X300993Y142957D02*
Y143457D01*
X300743Y145239D02*
X301243D01*
X300993Y144989D02*
Y145489D01*
X299743Y145239D02*
X300243D01*
X299993Y144989D02*
Y145489D01*
X298743Y145239D02*
X299243D01*
X298993Y144989D02*
Y145489D01*
X298743Y146274D02*
X299243D01*
X298993Y146024D02*
Y146524D01*
X299743Y146274D02*
X300243D01*
X299993Y146024D02*
Y146524D01*
X300743Y146274D02*
X301243D01*
X300993Y146024D02*
Y146524D01*
X110225Y81811D02*
X110725D01*
X110475Y81561D02*
Y82061D01*
X109225Y81811D02*
X109725D01*
X109475Y81561D02*
Y82061D01*
X108225Y81811D02*
X108725D01*
X108475Y81561D02*
Y82061D01*
X108225Y80775D02*
X108725D01*
X108475Y80525D02*
Y81025D01*
X110225Y80775D02*
X110725D01*
X110475Y80525D02*
Y81025D01*
X108225Y79779D02*
X108725D01*
X108475Y79529D02*
Y80029D01*
X109225Y79779D02*
X109725D01*
X109475Y79529D02*
Y80029D01*
X109225Y80775D02*
X109725D01*
X109475Y80525D02*
Y81025D01*
X110225Y79779D02*
X110725D01*
X110475Y79529D02*
Y80029D01*
X93822Y46819D02*
X94322D01*
X94072Y46569D02*
Y47069D01*
X92822Y46819D02*
X93322D01*
X93072Y46569D02*
Y47069D01*
X91822Y46819D02*
X92322D01*
X92072Y46569D02*
Y47069D01*
X93822Y47816D02*
X94322D01*
X94072Y47566D02*
Y48066D01*
X92822Y47816D02*
X93322D01*
X93072Y47566D02*
Y48066D01*
X91822Y47816D02*
X92322D01*
X92072Y47566D02*
Y48066D01*
X91822Y48852D02*
X92322D01*
X92072Y48602D02*
Y49102D01*
X92822Y48852D02*
X93322D01*
X93072Y48602D02*
Y49102D01*
X93822Y48852D02*
X94322D01*
X94072Y48602D02*
Y49102D01*
X210472Y78744D02*
X210972D01*
X210722Y78494D02*
Y78994D01*
X209472Y78744D02*
X209972D01*
X209722Y78494D02*
Y78994D01*
X208472Y78744D02*
X208972D01*
X208722Y78494D02*
Y78994D01*
X210472Y79741D02*
X210972D01*
X210722Y79491D02*
Y79991D01*
X209472Y79741D02*
X209972D01*
X209722Y79491D02*
Y79991D01*
X208472Y79741D02*
X208972D01*
X208722Y79491D02*
Y79991D01*
X208472Y80776D02*
X208972D01*
X208722Y80526D02*
Y81026D01*
X209472Y80776D02*
X209972D01*
X209722Y80526D02*
Y81026D01*
X210472Y80776D02*
X210972D01*
X210722Y80526D02*
Y81026D01*
X88246Y28539D02*
X88546D01*
X88396Y28389D02*
Y28689D01*
X108000Y175000D02*
X112000D01*
X110000Y173000D02*
Y177000D01*
X208000Y175000D02*
X212000D01*
X210000Y173000D02*
Y177000D01*
X301454Y64312D02*
X301754D01*
X301604Y64162D02*
Y64462D01*
X16041Y73649D02*
X16341D01*
X16191Y73499D02*
Y73799D01*
X3000Y175004D02*
X7000D01*
X5000Y173004D02*
Y177004D01*
X81160Y31079D02*
X81460D01*
X81310Y30929D02*
Y31229D01*
X86717Y36579D02*
X87017D01*
X86867Y36429D02*
Y36729D01*
X111192Y37779D02*
X111492D01*
X111342Y37629D02*
Y37929D01*
X118650Y38509D02*
X118950D01*
X118800Y38359D02*
Y38659D01*
X139600Y35195D02*
X139900D01*
X139750Y35045D02*
Y35345D01*
X155675Y35400D02*
X155975D01*
X155825Y35250D02*
Y35550D01*
X197950Y35425D02*
X198250D01*
X198100Y35275D02*
Y35575D01*
X257852Y29278D02*
X258152D01*
X258002Y29128D02*
Y29428D01*
X257850Y31200D02*
X258150D01*
X258000Y31050D02*
Y31350D01*
X255125Y32375D02*
X255425D01*
X255275Y32225D02*
Y32525D01*
X173478Y12631D02*
X173778D01*
X173628Y12481D02*
Y12781D01*
X162000Y12915D02*
X162300D01*
X162150Y12765D02*
Y13065D01*
X174480Y12631D02*
X174780D01*
X174630Y12481D02*
Y12781D01*
X165585Y66050D02*
X166085D01*
X165835Y65800D02*
Y66300D01*
X170198Y66051D02*
X170698D01*
X170448Y65801D02*
Y66301D01*
X38550Y32200D02*
X39050D01*
X38800Y31950D02*
Y32450D01*
X6775Y91125D02*
X7075D01*
X6925Y90975D02*
Y91275D01*
X9398Y78817D02*
X9698D01*
X9548Y78667D02*
Y78967D01*
X71375Y31775D02*
X71875D01*
X71625Y31525D02*
Y32025D01*
X100095Y26800D02*
X100395D01*
X100245Y26650D02*
Y26950D01*
X205175Y29800D02*
X205475D01*
X205325Y29650D02*
Y29950D01*
X103123Y15134D02*
X103623D01*
X103373Y14884D02*
Y15384D01*
X65686Y37926D02*
X65986D01*
X65836Y37776D02*
Y38076D01*
X164575Y21025D02*
X164875D01*
X164725Y20875D02*
Y21175D01*
X151625Y30275D02*
X151925D01*
X151775Y30125D02*
Y30425D01*
X155725Y28450D02*
X156025D01*
X155875Y28300D02*
Y28600D01*
X122625Y38775D02*
X122925D01*
X122775Y38625D02*
Y38925D01*
X117700Y39975D02*
X118000D01*
X117850Y39825D02*
Y40125D01*
X119850Y40975D02*
X120150D01*
X120000Y40825D02*
Y41125D01*
X200250Y30000D02*
X200550D01*
X200400Y29850D02*
Y30150D01*
X200250Y18700D02*
X200550D01*
X200400Y18550D02*
Y18850D01*
X202245Y24357D02*
X202545D01*
X202395Y24207D02*
Y24507D01*
X212411Y27607D02*
X212711D01*
X212561Y27457D02*
Y27757D01*
X176025Y29299D02*
X176325D01*
X176175Y29149D02*
Y29449D01*
X82975Y23000D02*
X83475D01*
X83225Y22750D02*
Y23250D01*
X66555Y35068D02*
X66855D01*
X66705Y34918D02*
Y35218D01*
X145475Y31925D02*
X145775D01*
X145625Y31775D02*
Y32075D01*
X184600Y19975D02*
X184900D01*
X184750Y19825D02*
Y20125D01*
X183701Y20705D02*
X184001D01*
X183851Y20555D02*
Y20855D01*
X184750Y29800D02*
X185050D01*
X184900Y29650D02*
Y29950D01*
X180201Y27568D02*
X180501D01*
X180351Y27418D02*
Y27718D01*
X171725Y28500D02*
X172025D01*
X171875Y28350D02*
Y28650D01*
X181318Y29299D02*
X181618D01*
X181468Y29149D02*
Y29449D01*
X178300Y29300D02*
X178600D01*
X178450Y29150D02*
Y29450D01*
X174625Y29300D02*
X174925D01*
X174775Y29150D02*
Y29450D01*
X57900Y25139D02*
X58400D01*
X58150Y24889D02*
Y25389D01*
X118675Y14475D02*
X118975D01*
X118825Y14325D02*
Y14625D01*
X5574Y82922D02*
X5874D01*
X5724Y82772D02*
Y83072D01*
X313224Y42354D02*
X313524D01*
X313374Y42204D02*
Y42504D01*
X313274Y39677D02*
X313574D01*
X313424Y39527D02*
Y39827D01*
X297633Y15338D02*
X297934D01*
X297783Y15188D02*
Y15488D01*
X297608Y21338D02*
X297908D01*
X297758Y21188D02*
Y21488D01*
X297608Y27363D02*
X297908D01*
X297758Y27213D02*
Y27513D01*
X269175Y32800D02*
X269475D01*
X269325Y32650D02*
Y32950D01*
X263062Y37683D02*
X263362D01*
X263212Y37533D02*
Y37833D01*
X262262Y37683D02*
X262562D01*
X262412Y37533D02*
Y37833D01*
X260687Y38688D02*
X260987D01*
X260837Y38538D02*
Y38838D01*
X269174Y33600D02*
X269474D01*
X269324Y33450D02*
Y33750D01*
X25843Y34400D02*
X26843D01*
X26343Y33900D02*
Y34900D01*
X21744Y23338D02*
X22044D01*
X21894Y23188D02*
Y23488D01*
X46450Y9500D02*
X46950D01*
X46700Y9250D02*
Y9750D01*
X40300Y43075D02*
X40600D01*
X40450Y42925D02*
Y43225D01*
X238879Y52880D02*
X239379D01*
X239129Y52630D02*
Y53130D01*
X283100Y17100D02*
X283600D01*
X283350Y16850D02*
Y17350D01*
X246068Y49700D02*
X246368D01*
X246218Y49550D02*
Y49850D01*
X218950Y16150D02*
X219250D01*
X219100Y16000D02*
Y16300D01*
X270550Y33800D02*
X270850D01*
X270700Y33650D02*
Y33950D01*
X275075Y32700D02*
X275375D01*
X275225Y32550D02*
Y32850D01*
X281945Y38300D02*
X282245D01*
X282095Y38150D02*
Y38450D01*
X244550Y39850D02*
X244850D01*
X244700Y39700D02*
Y40000D01*
X223475Y36400D02*
X223775D01*
X223625Y36250D02*
Y36550D01*
X219000Y36375D02*
X219300D01*
X219150Y36225D02*
Y36525D01*
X224600Y37500D02*
X224900D01*
X224750Y37350D02*
Y37650D01*
X226950Y38600D02*
X227250D01*
X227100Y38450D02*
Y38750D01*
X204241Y15071D02*
X204541D01*
X204391Y14921D02*
Y15221D01*
X147399Y19850D02*
X147699D01*
X147549Y19700D02*
Y20000D01*
X217900Y37525D02*
X218200D01*
X218050Y37375D02*
Y37675D01*
X178301Y16288D02*
X178601D01*
X178451Y16138D02*
Y16438D01*
X179088Y19975D02*
X179388D01*
X179238Y19825D02*
Y20125D01*
X192875Y38575D02*
X193175D01*
X193025Y38425D02*
Y38725D01*
X158550Y19245D02*
X158850D01*
X158700Y19095D02*
Y19395D01*
X210625Y17125D02*
X210925D01*
X210775Y16975D02*
Y17275D01*
X212205Y17125D02*
X212505D01*
X212355Y16975D02*
Y17275D01*
X204241Y16199D02*
X204541D01*
X204391Y16049D02*
Y16349D01*
X210610Y23375D02*
X210910D01*
X210760Y23225D02*
Y23525D01*
X188880Y11881D02*
X189180D01*
X189030Y11731D02*
Y12031D01*
X104123Y15134D02*
X104623D01*
X104373Y14884D02*
Y15384D01*
X84023Y15084D02*
X84523D01*
X84273Y14834D02*
Y15334D01*
X85023Y15084D02*
X85523D01*
X85273Y14834D02*
Y15334D01*
X65373Y15209D02*
X65873D01*
X65623Y14959D02*
Y15459D01*
X66373Y15209D02*
X66873D01*
X66623Y14959D02*
Y15459D01*
X45884Y15189D02*
X46384D01*
X46134Y14939D02*
Y15439D01*
X46884Y15189D02*
X47384D01*
X47134Y14939D02*
Y15439D01*
X45948Y2584D02*
X46448D01*
X46198Y2334D02*
Y2834D01*
X46948Y2584D02*
X47448D01*
X47198Y2334D02*
Y2834D01*
X74873Y3134D02*
X75373D01*
X75123Y2884D02*
Y3384D01*
X75873Y3134D02*
X76373D01*
X76123Y2884D02*
Y3384D01*
X65323Y2584D02*
X65823D01*
X65573Y2334D02*
Y2834D01*
X66323Y2584D02*
X66823D01*
X66573Y2334D02*
Y2834D01*
X55598Y3109D02*
X56098D01*
X55848Y2859D02*
Y3359D01*
X56598Y3109D02*
X57098D01*
X56848Y2859D02*
Y3359D01*
X179591Y9132D02*
X179891D01*
X179741Y8982D02*
Y9282D01*
X179591Y8100D02*
X179891D01*
X179741Y7950D02*
Y8250D01*
X176800Y6925D02*
X177100D01*
X176950Y6775D02*
Y7075D01*
X177822Y9746D02*
X178122D01*
X177972Y9596D02*
Y9896D01*
X180471Y5700D02*
X180771D01*
X180621Y5550D02*
Y5850D01*
X186850Y28125D02*
X187150D01*
X187000Y27975D02*
Y28275D01*
X187827Y28947D02*
X188127D01*
X187977Y28797D02*
Y29097D01*
X198350Y42925D02*
X198650D01*
X198500Y42775D02*
Y43075D01*
X199567Y40952D02*
X199867D01*
X199717Y40802D02*
Y41102D01*
X198350Y41800D02*
X198650D01*
X198500Y41650D02*
Y41950D01*
X181318Y27327D02*
X181618D01*
X181468Y27177D02*
Y27477D01*
X209340Y28975D02*
X209640D01*
X209490Y28825D02*
Y29125D01*
X104743Y25769D02*
X105243D01*
X104993Y25519D02*
Y26019D01*
X63900Y22708D02*
X64400D01*
X64150Y22458D02*
Y22958D01*
X116200Y38550D02*
X116500D01*
X116350Y38400D02*
Y38700D01*
X121275Y44800D02*
X121575D01*
X121425Y44650D02*
Y44950D01*
X147332Y25375D02*
X147632D01*
X147482Y25225D02*
Y25525D01*
X170425Y26850D02*
X170725D01*
X170575Y26700D02*
Y27000D01*
X168575Y21000D02*
X168875D01*
X168725Y20850D02*
Y21150D01*
X167450Y19625D02*
X167750D01*
X167600Y19475D02*
Y19775D01*
X259407Y33818D02*
X259907D01*
X259657Y33568D02*
Y34068D01*
X157925Y33825D02*
X158425D01*
X158175Y33575D02*
Y34075D01*
X160300Y40061D02*
X160600D01*
X160450Y39911D02*
Y40211D01*
X213175Y28475D02*
X213475D01*
X213325Y28325D02*
Y28625D01*
X174625Y24450D02*
X174925D01*
X174775Y24300D02*
Y24600D01*
X147332Y24132D02*
X147632D01*
X147482Y23982D02*
Y24282D01*
X163525Y20100D02*
X163825D01*
X163675Y19950D02*
Y20250D01*
X147366Y23066D02*
X147666D01*
X147516Y22916D02*
Y23216D01*
X147399Y21921D02*
X147699D01*
X147549Y21771D02*
Y22071D01*
X200250Y14050D02*
X200550D01*
X200400Y13900D02*
Y14200D01*
X163325Y16925D02*
X163625D01*
X163475Y16775D02*
Y17075D01*
X162050Y16925D02*
X162350D01*
X162200Y16775D02*
Y17075D01*
X147400Y20900D02*
X147700D01*
X147550Y20750D02*
Y21050D01*
X156606Y17450D02*
X156906D01*
X156756Y17300D02*
Y17600D01*
X156606Y15631D02*
X156906D01*
X156756Y15481D02*
Y15781D01*
X161001Y16157D02*
X161301D01*
X161151Y16007D02*
Y16307D01*
X159975Y16150D02*
X160275D01*
X160125Y16000D02*
Y16300D01*
X158550Y16125D02*
X158850D01*
X158700Y15975D02*
Y16275D01*
X160075Y13050D02*
X160375D01*
X160225Y12900D02*
Y13200D01*
X157675Y11825D02*
X157975D01*
X157825Y11675D02*
Y11975D01*
X179357Y12980D02*
X179657D01*
X179507Y12830D02*
Y13130D01*
X179591Y16288D02*
X179891D01*
X179741Y16138D02*
Y16438D01*
X181225Y13742D02*
X181525D01*
X181375Y13592D02*
Y13892D01*
X181318Y25298D02*
X181618D01*
X181468Y25148D02*
Y25448D01*
X181318Y26278D02*
X181618D01*
X181468Y26128D02*
Y26428D01*
X185201Y12631D02*
X185501D01*
X185351Y12481D02*
Y12781D01*
X185974Y14375D02*
X186274D01*
X186124Y14225D02*
Y14525D01*
X186352Y19238D02*
X186652D01*
X186502Y19088D02*
Y19388D01*
X185045Y15203D02*
X185345D01*
X185195Y15053D02*
Y15353D01*
X189808Y20608D02*
X190108D01*
X189958Y20458D02*
Y20758D01*
X191484Y22717D02*
X191784D01*
X191634Y22567D02*
Y22867D01*
X191814Y16332D02*
X192114D01*
X191964Y16182D02*
Y16482D01*
X193264Y18386D02*
X193564D01*
X193414Y18236D02*
Y18536D01*
X174950Y20400D02*
X175250D01*
X175100Y20250D02*
Y20550D01*
X17880Y145875D02*
X18380D01*
X18130Y145625D02*
Y146125D01*
X16880Y145875D02*
X17380D01*
X17130Y145625D02*
Y146125D01*
X15880Y145875D02*
X16380D01*
X16130Y145625D02*
Y146125D01*
X15880Y144839D02*
X16380D01*
X16130Y144589D02*
Y145089D01*
X16880Y144839D02*
X17380D01*
X17130Y144589D02*
Y145089D01*
X17880Y144839D02*
X18380D01*
X18130Y144589D02*
Y145089D01*
X17880Y142807D02*
X18380D01*
X18130Y142557D02*
Y143057D01*
X16880Y142807D02*
X17380D01*
X17130Y142557D02*
Y143057D01*
X15880Y142807D02*
X16380D01*
X16130Y142557D02*
Y143057D01*
X15880Y143843D02*
X16380D01*
X16130Y143593D02*
Y144093D01*
X16880Y143843D02*
X17380D01*
X17130Y143593D02*
Y144093D01*
X17880Y143843D02*
X18380D01*
X18130Y143593D02*
Y144093D01*
X20863Y143841D02*
X21363D01*
X21113Y143591D02*
Y144091D01*
X19863Y143841D02*
X20363D01*
X20113Y143591D02*
Y144091D01*
X18863Y143841D02*
X19363D01*
X19113Y143591D02*
Y144091D01*
X18863Y142805D02*
X19363D01*
X19113Y142555D02*
Y143055D01*
X19863Y142805D02*
X20363D01*
X20113Y142555D02*
Y143055D01*
X20863Y142805D02*
X21363D01*
X21113Y142555D02*
Y143055D01*
X20863Y144837D02*
X21363D01*
X21113Y144587D02*
Y145087D01*
X19863Y144837D02*
X20363D01*
X20113Y144587D02*
Y145087D01*
X18863Y144837D02*
X19363D01*
X19113Y144587D02*
Y145087D01*
X18863Y145873D02*
X19363D01*
X19113Y145623D02*
Y146123D01*
X19863Y145873D02*
X20363D01*
X20113Y145623D02*
Y146123D01*
X20863Y145873D02*
X21363D01*
X21113Y145623D02*
Y146123D01*
X313000Y175000D02*
X317000D01*
X315000Y173000D02*
Y177000D01*
X147625Y31775D02*
X147925D01*
X147775Y31625D02*
Y31925D01*
X142371Y16602D02*
X142671D01*
X142521Y16452D02*
Y16752D01*
X142336Y15002D02*
X142636D01*
X142486Y14852D02*
Y15152D01*
X142336Y13457D02*
X142636D01*
X142486Y13307D02*
Y13607D01*
X126101Y14267D02*
X126401D01*
X126251Y14117D02*
Y14417D01*
X126101Y12577D02*
X126401D01*
X126251Y12427D02*
Y12727D01*
X126101Y15886D02*
X126401D01*
X126251Y15736D02*
Y16036D01*
X126101Y10932D02*
X126401D01*
X126251Y10782D02*
Y11082D01*
X126117Y7622D02*
X126417D01*
X126267Y7472D02*
Y7772D01*
X126101Y9322D02*
X126401D01*
X126251Y9172D02*
Y9472D01*
X142371Y5512D02*
X142671D01*
X142521Y5362D02*
Y5662D01*
X142371Y11827D02*
X142671D01*
X142521Y11677D02*
Y11977D01*
X142371Y10317D02*
X142671D01*
X142521Y10167D02*
Y10467D01*
X142406Y7008D02*
X142706D01*
X142556Y6858D02*
Y7157D01*
X142371Y8727D02*
X142671D01*
X142521Y8577D02*
Y8877D01*
X288626Y63982D02*
X288926D01*
X288776Y63832D02*
Y64132D01*
X285581Y65272D02*
X285881D01*
X285731Y65122D02*
Y65422D01*
X285026Y66982D02*
X285326D01*
X285176Y66832D02*
Y67132D01*
X88725Y8960D02*
X89225D01*
X88975Y8710D02*
Y9210D01*
X99900Y20675D02*
X100400D01*
X100150Y20425D02*
Y20925D01*
X57900Y33825D02*
X58400D01*
X58150Y33575D02*
Y34075D01*
X51810Y11050D02*
X52310D01*
X52060Y10800D02*
Y11300D01*
X44900Y22300D02*
X45400D01*
X45150Y22050D02*
Y22550D01*
X71100Y11433D02*
X71600D01*
X71350Y11183D02*
Y11683D01*
X65805Y9910D02*
X66345D01*
X66075Y9640D02*
Y10180D01*
X17710Y23338D02*
X18010D01*
X17860Y23188D02*
Y23488D01*
X262762Y102305D02*
X263262D01*
X263012Y102055D02*
Y102555D01*
X260222Y102313D02*
X260722D01*
X260472Y102063D02*
Y102563D01*
X163224Y102321D02*
X163724D01*
X163474Y102071D02*
Y102571D01*
X160735Y102347D02*
X161235D01*
X160985Y102097D02*
Y102597D01*
X61091Y102321D02*
X61591D01*
X61341Y102071D02*
Y102571D01*
X63631Y102321D02*
X64131D01*
X63881Y102071D02*
Y102571D01*
X244911Y87081D02*
X245411D01*
X245161Y86831D02*
Y87331D01*
X145444Y86980D02*
X145944D01*
X145694Y86730D02*
Y87230D01*
X43336Y87818D02*
X43836D01*
X43586Y87568D02*
Y88068D01*
X68850Y47075D02*
X69150D01*
X69000Y46925D02*
Y47225D01*
X57754Y46789D02*
X58254D01*
X58004Y46539D02*
Y47039D01*
X64079Y46739D02*
X64579D01*
X64329Y46489D02*
Y46989D01*
X66684Y44064D02*
X66984D01*
X66834Y43914D02*
Y44214D01*
X59354Y39114D02*
X59654D01*
X59504Y38964D02*
Y39264D01*
X49946Y80061D02*
X50446D01*
X50196Y79811D02*
Y80311D01*
X50036Y66561D02*
X50536D01*
X50286Y66311D02*
Y66811D01*
X53166Y63774D02*
X53666D01*
X53416Y63524D02*
Y64024D01*
X64586Y66811D02*
X65086D01*
X64836Y66561D02*
Y67061D01*
X68626Y66851D02*
X69126D01*
X68876Y66601D02*
Y67101D01*
X54156Y66571D02*
X54656D01*
X54406Y66321D02*
Y66821D01*
X64436Y80095D02*
X64936D01*
X64686Y79845D02*
Y80345D01*
X268498Y79690D02*
X268998D01*
X268748Y79440D02*
Y79940D01*
X270314Y66204D02*
X270814D01*
X270564Y65954D02*
Y66454D01*
X267239Y64354D02*
X267739D01*
X267489Y64104D02*
Y64604D01*
X265688Y66220D02*
X266188D01*
X265938Y65970D02*
Y66470D01*
X254087Y79674D02*
X254587D01*
X254337Y79424D02*
Y79924D01*
X255937Y66184D02*
X256437D01*
X256187Y65934D02*
Y66434D01*
X251877Y66204D02*
X252377D01*
X252127Y65954D02*
Y66454D01*
X267573Y42432D02*
X267873D01*
X267723Y42282D02*
Y42582D01*
X265372Y46535D02*
X265872D01*
X265622Y46285D02*
Y46785D01*
X258971Y46479D02*
X259471D01*
X259221Y46229D02*
Y46729D01*
X155643Y65931D02*
X156143D01*
X155893Y65681D02*
Y66181D01*
X151943Y65931D02*
X152443D01*
X152193Y65681D02*
Y66181D01*
X104264Y161066D02*
X104764D01*
X104514Y160816D02*
Y161316D01*
X103264Y161066D02*
X103764D01*
X103514Y160816D02*
Y161316D01*
X102264Y161066D02*
X102764D01*
X102514Y160816D02*
Y161316D01*
X101264Y161066D02*
X101764D01*
X101514Y160816D02*
Y161316D01*
X100264Y161066D02*
X100764D01*
X100514Y160816D02*
Y161316D01*
X99264Y161066D02*
X99764D01*
X99514Y160816D02*
Y161316D01*
X98264Y161066D02*
X98764D01*
X98514Y160816D02*
Y161316D01*
X97264Y161066D02*
X97764D01*
X97514Y160816D02*
Y161316D01*
X97264Y160030D02*
X97764D01*
X97514Y159780D02*
Y160280D01*
X98264Y160030D02*
X98764D01*
X98514Y159780D02*
Y160280D01*
X99264Y160030D02*
X99764D01*
X99514Y159780D02*
Y160280D01*
X100264Y160030D02*
X100764D01*
X100514Y159780D02*
Y160280D01*
X101264Y160030D02*
X101764D01*
X101514Y159780D02*
Y160280D01*
X102264Y160030D02*
X102764D01*
X102514Y159780D02*
Y160280D01*
X103264Y160030D02*
X103764D01*
X103514Y159780D02*
Y160280D01*
X104264Y160030D02*
X104764D01*
X104514Y159780D02*
Y160280D01*
X104264Y162062D02*
X104764D01*
X104514Y161812D02*
Y162312D01*
X103264Y162062D02*
X103764D01*
X103514Y161812D02*
Y162312D01*
X102264Y162062D02*
X102764D01*
X102514Y161812D02*
Y162312D01*
X101264Y162062D02*
X101764D01*
X101514Y161812D02*
Y162312D01*
X100264Y162062D02*
X100764D01*
X100514Y161812D02*
Y162312D01*
X99264Y162062D02*
X99764D01*
X99514Y161812D02*
Y162312D01*
X98264Y162062D02*
X98764D01*
X98514Y161812D02*
Y162312D01*
X97264Y162062D02*
X97764D01*
X97514Y161812D02*
Y162312D01*
X97264Y163098D02*
X97764D01*
X97514Y162848D02*
Y163348D01*
X98264Y163098D02*
X98764D01*
X98514Y162848D02*
Y163348D01*
X99264Y163098D02*
X99764D01*
X99514Y162848D02*
Y163348D01*
X100264Y163098D02*
X100764D01*
X100514Y162848D02*
Y163348D01*
X101264Y163098D02*
X101764D01*
X101514Y162848D02*
Y163348D01*
X102264Y163098D02*
X102764D01*
X102514Y162848D02*
Y163348D01*
X103264Y163098D02*
X103764D01*
X103514Y162848D02*
Y163348D01*
X104264Y163098D02*
X104764D01*
X104514Y162848D02*
Y163348D01*
X96263Y163098D02*
X96763D01*
X96513Y162848D02*
Y163348D01*
X95263Y163098D02*
X95763D01*
X95513Y162848D02*
Y163348D01*
X94263Y163098D02*
X94763D01*
X94513Y162848D02*
Y163348D01*
X93263Y163098D02*
X93763D01*
X93513Y162848D02*
Y163348D01*
X92263Y163098D02*
X92763D01*
X92513Y162848D02*
Y163348D01*
X91263Y163098D02*
X91763D01*
X91513Y162848D02*
Y163348D01*
X90263Y163098D02*
X90763D01*
X90513Y162848D02*
Y163348D01*
X89263Y163098D02*
X89763D01*
X89513Y162848D02*
Y163348D01*
X89263Y162062D02*
X89763D01*
X89513Y161812D02*
Y162312D01*
X90263Y162062D02*
X90763D01*
X90513Y161812D02*
Y162312D01*
X91263Y162062D02*
X91763D01*
X91513Y161812D02*
Y162312D01*
X92263Y162062D02*
X92763D01*
X92513Y161812D02*
Y162312D01*
X93263Y162062D02*
X93763D01*
X93513Y161812D02*
Y162312D01*
X94263Y162062D02*
X94763D01*
X94513Y161812D02*
Y162312D01*
X95263Y162062D02*
X95763D01*
X95513Y161812D02*
Y162312D01*
X96263Y162062D02*
X96763D01*
X96513Y161812D02*
Y162312D01*
X96263Y160030D02*
X96763D01*
X96513Y159780D02*
Y160280D01*
X95263Y160030D02*
X95763D01*
X95513Y159780D02*
Y160280D01*
X94263Y160030D02*
X94763D01*
X94513Y159780D02*
Y160280D01*
X93263Y160030D02*
X93763D01*
X93513Y159780D02*
Y160280D01*
X92263Y160030D02*
X92763D01*
X92513Y159780D02*
Y160280D01*
X91263Y160030D02*
X91763D01*
X91513Y159780D02*
Y160280D01*
X90263Y160030D02*
X90763D01*
X90513Y159780D02*
Y160280D01*
X89263Y160030D02*
X89763D01*
X89513Y159780D02*
Y160280D01*
X89263Y161066D02*
X89763D01*
X89513Y160816D02*
Y161316D01*
X90263Y161066D02*
X90763D01*
X90513Y160816D02*
Y161316D01*
X91263Y161066D02*
X91763D01*
X91513Y160816D02*
Y161316D01*
X92263Y161066D02*
X92763D01*
X92513Y160816D02*
Y161316D01*
X93263Y161066D02*
X93763D01*
X93513Y160816D02*
Y161316D01*
X94263Y161066D02*
X94763D01*
X94513Y160816D02*
Y161316D01*
X95263Y161066D02*
X95763D01*
X95513Y160816D02*
Y161316D01*
X96263Y161066D02*
X96763D01*
X96513Y160816D02*
Y161316D01*
X166610Y42170D02*
X166910D01*
X166760Y42020D02*
Y42320D01*
X281946Y53600D02*
X282246D01*
X282096Y53450D02*
Y53750D01*
X283153Y62712D02*
X283453D01*
X283303Y62562D02*
Y62862D01*
X284486Y57597D02*
X284786D01*
X284636Y57447D02*
Y57747D01*
X283158Y53600D02*
X283458D01*
X283308Y53450D02*
Y53750D01*
X284408Y59367D02*
X284708D01*
X284558Y59217D02*
Y59517D01*
X158066Y46496D02*
X158566D01*
X158316Y46246D02*
Y46746D01*
X164378Y46525D02*
X164878D01*
X164628Y46275D02*
Y46775D01*
X33415Y53975D02*
X33715D01*
X33565Y53825D02*
Y54125D01*
X298166Y66522D02*
X298466D01*
X298316Y66372D02*
Y66672D01*
X288296Y40368D02*
X288596D01*
X288446Y40218D02*
Y40518D01*
X280676Y40368D02*
X280976D01*
X280826Y40218D02*
Y40518D01*
X277501Y42508D02*
X277801D01*
X277651Y42358D02*
Y42658D01*
X279405Y37808D02*
X279705D01*
X279555Y37658D02*
Y37958D01*
X276391Y38261D02*
X276691D01*
X276541Y38111D02*
Y38411D01*
X283216Y39478D02*
X283516D01*
X283366Y39328D02*
Y39628D01*
X154703Y79806D02*
X155203D01*
X154953Y79556D02*
Y80056D01*
X168323Y79806D02*
X168823D01*
X168573Y79556D02*
Y80056D01*
%TF.MD5,078c9602f48e8743e918eba016af2ee9*%
M02*
