%TF.GenerationSoftware,Altium Limited,Altium Designer,26.1.1 (7)*%
G04 Layer_Color=32896*
%FSLAX43Y43*%
%MOMM*%
%TF.SameCoordinates,F910D8A4-5627-44EB-A571-6FFAAA827985*%
%TF.FilePolarity,Positive*%
%TF.FileFunction,Other,Mechanical_12*%
%TF.Part,Single*%
G01*
G75*
%TA.AperFunction,NonConductor*%
%ADD96C,0.200*%
D96*
X117050Y39720D02*
Y55320D01*
X110950Y39720D02*
X117050D01*
X110950D02*
Y55320D01*
X117050D01*
X104430Y59691D02*
Y61041D01*
X102330D02*
X104430D01*
X102330Y59691D02*
Y61041D01*
Y59691D02*
X104430D01*
X102330Y56691D02*
X104430D01*
X102330D02*
Y58041D01*
X104430D01*
Y56691D02*
Y58041D01*
X102330Y65579D02*
X104430D01*
X102330D02*
Y66929D01*
X104430D01*
Y65579D02*
Y66929D01*
X102330Y62570D02*
X104430D01*
X102330D02*
Y63920D01*
X104430D01*
Y62570D02*
Y63920D01*
Y53691D02*
Y55041D01*
X102330D02*
X104430D01*
X102330Y53691D02*
Y55041D01*
Y53691D02*
X104430D01*
X102355Y42541D02*
X104455D01*
X102355D02*
Y43891D01*
X104455D01*
Y42541D02*
Y43891D01*
Y45541D02*
Y46891D01*
X102355D02*
X104455D01*
X102355Y45541D02*
Y46891D01*
Y45541D02*
X104455D01*
X102355Y39541D02*
X104455D01*
X102355D02*
Y40891D01*
X104455D01*
Y39541D02*
Y40891D01*
X3945Y30158D02*
X13292D01*
Y19922D02*
Y30158D01*
X3945Y19922D02*
X13292D01*
X3945D02*
Y30158D01*
X158930Y4350D02*
Y10450D01*
Y4350D02*
X174530D01*
Y10450D01*
X158930D02*
X174530D01*
X231029Y43820D02*
Y59420D01*
X224929Y43820D02*
X231029D01*
X224929D02*
Y59420D01*
X231029D01*
X275866Y40368D02*
X277216D01*
Y42468D01*
X275866D02*
X277216D01*
X275866Y40368D02*
Y42468D01*
X239029Y43810D02*
Y59410D01*
X232929Y43810D02*
X239029D01*
X232929D02*
Y59410D01*
X239029D01*
%TF.MD5,75e1b8d692768fb4d069e4ece7bea4d0*%
M02*
