%TF.GenerationSoftware,Altium Limited,Altium Designer,26.1.1 (7)*%
G04 Layer_Color=16711935*
%FSLAX43Y43*%
%MOMM*%
%TF.SameCoordinates,F910D8A4-5627-44EB-A571-6FFAAA827985*%
%TF.FilePolarity,Positive*%
%TF.FileFunction,Other,Mechanical_13*%
%TF.Part,Single*%
G01*
G75*
%TA.AperFunction,NonConductor*%
%ADD113C,0.100*%
D113*
X208825Y25675D02*
G03*
X208825Y25675I-500J0D01*
G01*
X197849Y21771D02*
G03*
X193199Y21771I-2325J0D01*
G01*
X193674Y15246D02*
G03*
X197374Y15246I1850J0D01*
G01*
Y21596D02*
G03*
X193674Y21596I-1850J0D01*
G01*
X193199Y15071D02*
G03*
X197849Y15071I2325J0D01*
G01*
X137221Y16827D02*
G03*
X137221Y16827I-500J0D01*
G01*
X288851Y43868D02*
G03*
X288851Y43868I-500J0D01*
G01*
X301275Y19595D02*
X319895D01*
Y50405D01*
X301275D02*
X319895D01*
X301275Y19595D02*
Y50405D01*
X203547Y42625D02*
Y48425D01*
X195887Y42625D02*
X203547D01*
X195887D02*
Y48425D01*
X203547D01*
X213372D02*
X221032D01*
X213372Y42625D02*
Y48425D01*
Y42625D02*
X221032D01*
Y48425D01*
X194531Y42687D02*
Y48487D01*
X186871Y42687D02*
X194531D01*
X186871D02*
Y48487D01*
X194531D01*
X204702Y48425D02*
X212362D01*
X204702Y42625D02*
Y48425D01*
Y42625D02*
X212362D01*
Y48425D01*
X185701Y42637D02*
Y48437D01*
X178041Y42637D02*
X185701D01*
X178041D02*
Y48437D01*
X185701D01*
X212825Y21175D02*
Y26575D01*
X207425Y21175D02*
Y26575D01*
Y21175D02*
X212825D01*
X207425Y26575D02*
X212825D01*
X193199Y15071D02*
Y21771D01*
X197849Y15071D02*
Y21771D01*
X193674Y15246D02*
Y21821D01*
X197374Y15246D02*
Y21821D01*
X137621Y4727D02*
Y17727D01*
X130021Y4727D02*
Y17727D01*
X137621D01*
X130021Y4727D02*
X137621D01*
X6898Y80400D02*
Y83500D01*
X8698Y80400D02*
Y83500D01*
X6898Y80400D02*
X8698D01*
X6898Y83500D02*
X8698D01*
X28114Y20031D02*
Y27141D01*
X21894Y20031D02*
Y27141D01*
Y20031D02*
X28114D01*
X21894Y27141D02*
X28114D01*
X65334Y43364D02*
Y44764D01*
X68334Y43364D02*
Y44764D01*
X65334D02*
X68334D01*
X65334Y43364D02*
X68334D01*
X266275Y41503D02*
X269275D01*
X266275Y42903D02*
X269275D01*
Y41503D02*
Y42903D01*
X266275Y41503D02*
Y42903D01*
X165260Y41470D02*
Y42870D01*
X168260Y41470D02*
Y42870D01*
X165260D02*
X168260D01*
X165260Y41470D02*
X168260D01*
X31465Y53875D02*
X33265D01*
X31465Y50775D02*
X33265D01*
Y53875D01*
X31465Y50775D02*
Y53875D01*
X278751Y42968D02*
X289251D01*
X278751Y50568D02*
X289251D01*
Y42968D02*
Y50568D01*
X278751Y42968D02*
Y50568D01*
%TF.MD5,075bec6f93571b553c8837d01c5b7751*%
M02*
