%TF.GenerationSoftware,Altium Limited,Altium Designer,26.1.1 (7)*%
G04 Layer_Color=16711935*
%FSLAX43Y43*%
%MOMM*%
%TF.SameCoordinates,F910D8A4-5627-44EB-A571-6FFAAA827985*%
%TF.FilePolarity,Positive*%
%TF.FileFunction,Other,Top_Component_Center*%
%TF.Part,Single*%
G01*
G75*
%TA.AperFunction,NonConductor*%
%ADD113C,0.100*%
%ADD117C,0.050*%
D113*
X23675Y69155D02*
Y70155D01*
X23175Y69655D02*
X24175D01*
X66075Y8000D02*
Y9000D01*
X65575Y8500D02*
X66575D01*
X59386Y53351D02*
X60386D01*
X59886Y52851D02*
Y53851D01*
X260677Y52854D02*
X261677D01*
X261177Y52354D02*
Y53354D01*
X320000Y135004D02*
Y155004D01*
X0Y135004D02*
Y155004D01*
Y135004D02*
X320000D01*
X0Y155004D02*
X320000D01*
X160000Y144754D02*
Y145254D01*
X159750Y145004D02*
X160250D01*
X290861Y46808D02*
Y47808D01*
X290361Y47308D02*
X291361D01*
X160183Y52461D02*
Y53461D01*
X159683Y52961D02*
X160683D01*
X275000Y49269D02*
Y50269D01*
X274500Y49769D02*
X275500D01*
X46700Y8000D02*
Y9000D01*
X46200Y8500D02*
X47200D01*
X160000Y144204D02*
Y145004D01*
Y144604D01*
X159467D01*
Y144204D01*
Y145004D01*
X159200D02*
X158934D01*
X159067D01*
Y144204D01*
X159200Y144337D01*
D117*
X23350Y6725D02*
X24350D01*
X23850Y6225D02*
Y7225D01*
X8000Y51579D02*
Y52579D01*
X7500Y52079D02*
X8500D01*
X8000Y68579D02*
Y69579D01*
X7500Y69079D02*
X8500D01*
X313475Y64500D02*
Y65500D01*
X312975Y65000D02*
X313975D01*
X313475Y89500D02*
Y90500D01*
X312975Y90000D02*
X313975D01*
%TF.MD5,1388040bf6aabcc1c6792aa69fd93070*%
M02*
