%TF.GenerationSoftware,Altium Limited,Altium Designer,26.1.1 (7)*%
G04 Layer_Color=2752767*
%FSLAX43Y43*%
%MOMM*%
%TF.SameCoordinates,F910D8A4-5627-44EB-A571-6FFAAA827985*%
%TF.FilePolarity,Positive*%
%TF.FileFunction,Drawing*%
%TF.Part,Single*%
G01*
G75*
%TA.AperFunction,NonConductor*%
%ADD141C,0.127*%
%ADD142C,0.169*%
%ADD143C,0.102*%
D141*
X187653Y37479D02*
Y38495D01*
X188669D01*
Y37479D01*
X187653D01*
X181363Y37771D02*
Y38787D01*
X182379D01*
Y37771D01*
X181363D01*
X165931Y57328D02*
Y58344D01*
X166947D01*
Y57328D01*
X165931D01*
X16192Y79958D02*
Y80974D01*
X17208D01*
Y79958D01*
X16192D01*
X124158Y130369D02*
X124666Y130877D01*
X125174Y130369D01*
X124666Y129861D01*
X124158Y130369D01*
X129492D02*
X130000Y130877D01*
X130508Y130369D01*
X130000Y129861D01*
X129492Y130369D01*
X134826D02*
X135334Y130877D01*
X135842Y130369D01*
X135334Y129861D01*
X134826Y130369D01*
X94826D02*
X95334Y130877D01*
X95842Y130369D01*
X95334Y129861D01*
X94826Y130369D01*
X89492D02*
X90000Y130877D01*
X90508Y130369D01*
X90000Y129861D01*
X89492Y130369D01*
X84158D02*
X84666Y130877D01*
X85174Y130369D01*
X84666Y129861D01*
X84158Y130369D01*
X25775Y65337D02*
X25267Y66353D01*
X26283D01*
X25775Y65337D01*
Y67877D02*
X25267Y68893D01*
X26283D01*
X25775Y67877D01*
Y70417D02*
X25267Y71433D01*
X26283D01*
X25775Y70417D01*
Y72957D02*
X25267Y73973D01*
X26283D01*
X25775Y72957D01*
X228024Y12992D02*
X227516Y14008D01*
X228532D01*
X228024Y12992D01*
Y15532D02*
X227516Y16548D01*
X228532D01*
X228024Y15532D01*
Y18072D02*
X227516Y19088D01*
X228532D01*
X228024Y18072D01*
Y20612D02*
X227516Y21628D01*
X228532D01*
X228024Y20612D01*
Y23152D02*
X227516Y24168D01*
X228532D01*
X228024Y23152D01*
Y25692D02*
X227516Y26708D01*
X228532D01*
X228024Y25692D01*
X302985Y34487D02*
X302477Y35503D01*
X303493D01*
X302985Y34487D01*
Y34690D02*
X302680Y35300D01*
X303290D01*
X302985Y34690D01*
Y31747D02*
X302477Y32763D01*
X303493D01*
X302985Y31747D01*
Y31950D02*
X302680Y32560D01*
X303290D01*
X302985Y31950D01*
Y29007D02*
X302477Y30023D01*
X303493D01*
X302985Y29007D01*
Y29210D02*
X302680Y29820D01*
X303290D01*
X302985Y29210D01*
Y37227D02*
X302477Y38243D01*
X303493D01*
X302985Y37227D01*
Y37430D02*
X302680Y38040D01*
X303290D01*
X302985Y37430D01*
Y39967D02*
X302477Y40983D01*
X303493D01*
X302985Y39967D01*
Y40170D02*
X302680Y40780D01*
X303290D01*
X302985Y40170D01*
X305825Y35857D02*
X305317Y36873D01*
X306333D01*
X305825Y35857D01*
Y36060D02*
X305520Y36670D01*
X306130D01*
X305825Y36060D01*
Y33117D02*
X305317Y34133D01*
X306333D01*
X305825Y33117D01*
Y33320D02*
X305520Y33930D01*
X306130D01*
X305825Y33320D01*
Y30377D02*
X305317Y31393D01*
X306333D01*
X305825Y30377D01*
Y30580D02*
X305520Y31190D01*
X306130D01*
X305825Y30580D01*
Y38597D02*
X305317Y39613D01*
X306333D01*
X305825Y38597D01*
Y38800D02*
X305520Y39410D01*
X306130D01*
X305825Y38800D01*
X202257Y44717D02*
X201749Y45733D01*
X202765D01*
X202257Y44717D01*
X199717D02*
X199209Y45733D01*
X200225D01*
X199717Y44717D01*
X197177D02*
X196669Y45733D01*
X197685D01*
X197177Y44717D01*
X214662D02*
X214154Y45733D01*
X215170D01*
X214662Y44717D01*
X217202D02*
X216694Y45733D01*
X217710D01*
X217202Y44717D01*
X219742D02*
X219234Y45733D01*
X220250D01*
X219742Y44717D01*
X193241Y44779D02*
X192733Y45795D01*
X193749D01*
X193241Y44779D01*
X190701D02*
X190193Y45795D01*
X191209D01*
X190701Y44779D01*
X188161D02*
X187653Y45795D01*
X188669D01*
X188161Y44779D01*
X205992Y44717D02*
X205484Y45733D01*
X206500D01*
X205992Y44717D01*
X208532D02*
X208024Y45733D01*
X209040D01*
X208532Y44717D01*
X211072D02*
X210564Y45733D01*
X211580D01*
X211072Y44717D01*
X184411Y44729D02*
X183903Y45745D01*
X184919D01*
X184411Y44729D01*
X181871D02*
X181363Y45745D01*
X182379D01*
X181871Y44729D01*
X179331D02*
X178823Y45745D01*
X179839D01*
X179331Y44729D01*
X235865Y25717D02*
X235357Y26733D01*
X236373D01*
X235865Y25717D01*
Y23177D02*
X235357Y24193D01*
X236373D01*
X235865Y23177D01*
Y20637D02*
X235357Y21653D01*
X236373D01*
X235865Y20637D01*
Y18097D02*
X235357Y19113D01*
X236373D01*
X235865Y18097D01*
Y15557D02*
X235357Y16573D01*
X236373D01*
X235865Y15557D01*
Y13017D02*
X235357Y14033D01*
X236373D01*
X235865Y13017D01*
X148152Y12949D02*
Y13965D01*
X149168D01*
Y12949D01*
X148152D01*
X152363Y9809D02*
Y10825D01*
X153379D01*
Y9809D01*
X152363D01*
X114300Y53362D02*
X113792Y54378D01*
X114808D01*
X114300Y53362D01*
Y50822D02*
X113792Y51838D01*
X114808D01*
X114300Y50822D01*
Y48282D02*
X113792Y49298D01*
X114808D01*
X114300Y48282D01*
Y45742D02*
X113792Y46758D01*
X114808D01*
X114300Y45742D01*
Y43202D02*
X113792Y44218D01*
X114808D01*
X114300Y43202D01*
Y40662D02*
X113792Y41678D01*
X114808D01*
X114300Y40662D01*
X195524Y17251D02*
Y15981D01*
X196159D01*
X196371Y16193D01*
Y16405D01*
X196159Y16616D01*
X195524D01*
X196159D01*
X196371Y16828D01*
Y17039D01*
X196159Y17251D01*
X195524D01*
Y22131D02*
Y20861D01*
X196159D01*
X196371Y21073D01*
Y21285D01*
X196159Y21496D01*
X195524D01*
X196159D01*
X196371Y21708D01*
Y21919D01*
X196159Y22131D01*
X195524D01*
X3896Y165921D02*
Y165667D01*
X4404D01*
Y165921D01*
X4658D01*
Y166429D01*
X4404D01*
Y166683D01*
X3896D01*
Y166429D01*
X3642D01*
Y165921D01*
X3896D01*
X8846D02*
Y165667D01*
X9354D01*
Y165921D01*
X9608D01*
Y166429D01*
X9354D01*
Y166683D01*
X8846D01*
Y166429D01*
X8592D01*
Y165921D01*
X8846D01*
X29196Y157971D02*
Y157717D01*
X29704D01*
Y157971D01*
X29958D01*
Y158479D01*
X29704D01*
Y158733D01*
X29196D01*
Y158479D01*
X28942D01*
Y157971D01*
X29196D01*
X34146D02*
Y157717D01*
X34654D01*
Y157971D01*
X34908D01*
Y158479D01*
X34654D01*
Y158733D01*
X34146D01*
Y158479D01*
X33892D01*
Y157971D01*
X34146D01*
X26742Y174032D02*
Y175048D01*
X27758D01*
Y174032D01*
X26742D01*
X26945Y174235D02*
Y174845D01*
X27555D01*
Y174235D01*
X26945D01*
X26742Y164126D02*
Y165142D01*
X27758D01*
Y164126D01*
X26742D01*
X26945Y164329D02*
Y164939D01*
X27555D01*
Y164329D01*
X26945D01*
X148152Y4969D02*
Y5985D01*
X149168D01*
Y4969D01*
X148152D01*
Y16094D02*
Y17110D01*
X149168D01*
Y16094D01*
X148152D01*
Y8219D02*
Y9235D01*
X149168D01*
Y8219D01*
X148152D01*
X150175Y14494D02*
Y15510D01*
X151191D01*
Y14494D01*
X150175D01*
X149967Y6519D02*
Y7535D01*
X150983D01*
Y6519D01*
X149967D01*
Y11319D02*
Y12335D01*
X150983D01*
Y11319D01*
X149967D01*
X306892Y13972D02*
Y14988D01*
X307908D01*
Y13972D01*
X306892D01*
X303497D02*
Y14988D01*
X304513D01*
Y13972D01*
X303497D01*
X25882Y10217D02*
X26136D01*
X26390Y10471D01*
X26644Y10217D01*
X26898D01*
Y10471D01*
X26644Y10725D01*
X26898Y10979D01*
Y11233D01*
X26644D01*
X26390Y10979D01*
X26136Y11233D01*
X25882D01*
Y10979D01*
X26136Y10725D01*
X25882Y10471D01*
Y10217D01*
X20802D02*
X21056D01*
X21310Y10471D01*
X21564Y10217D01*
X21818D01*
Y10471D01*
X21564Y10725D01*
X21818Y10979D01*
Y11233D01*
X21564D01*
X21310Y10979D01*
X21056Y11233D01*
X20802D01*
Y10979D01*
X21056Y10725D01*
X20802Y10471D01*
Y10217D01*
X31307Y77506D02*
Y78522D01*
X32323D01*
Y77506D01*
X31307D01*
X36938Y78997D02*
Y80013D01*
X37954D01*
Y78997D01*
X36938D01*
X6564Y16455D02*
X6056Y17471D01*
X7072D01*
X6564Y16455D01*
X11898D02*
X11390Y17471D01*
X12406D01*
X11898Y16455D01*
Y33854D02*
X11390Y34870D01*
X12406D01*
X11898Y33854D01*
X6564D02*
X6056Y34870D01*
X7072D01*
X6564Y33854D01*
X20406Y29962D02*
Y30978D01*
X21422D01*
Y29962D01*
X20406D01*
X46191Y164805D02*
Y164551D01*
X46699D01*
Y164805D01*
X46953D01*
Y165313D01*
X46699D01*
Y165567D01*
X46191D01*
Y165313D01*
X45937D01*
Y164805D01*
X46191D01*
X51141D02*
Y164551D01*
X51649D01*
Y164805D01*
X51903D01*
Y165313D01*
X51649D01*
Y165567D01*
X51141D01*
Y165313D01*
X50887D01*
Y164805D01*
X51141D01*
X11492Y49031D02*
X11746D01*
X12000Y49285D01*
X12254Y49031D01*
X12508D01*
Y49285D01*
X12254Y49539D01*
X12508Y49793D01*
Y50047D01*
X12254D01*
X12000Y49793D01*
X11746Y50047D01*
X11492D01*
Y49793D01*
X11746Y49539D01*
X11492Y49285D01*
Y49031D01*
Y54111D02*
X11746D01*
X12000Y54365D01*
X12254Y54111D01*
X12508D01*
Y54365D01*
X12254Y54619D01*
X12508Y54873D01*
Y55127D01*
X12254D01*
X12000Y54873D01*
X11746Y55127D01*
X11492D01*
Y54873D01*
X11746Y54619D01*
X11492Y54365D01*
Y54111D01*
Y66031D02*
X11746D01*
X12000Y66285D01*
X12254Y66031D01*
X12508D01*
Y66285D01*
X12254Y66539D01*
X12508Y66793D01*
Y67047D01*
X12254D01*
X12000Y66793D01*
X11746Y67047D01*
X11492D01*
Y66793D01*
X11746Y66539D01*
X11492Y66285D01*
Y66031D01*
Y71111D02*
X11746D01*
X12000Y71365D01*
X12254Y71111D01*
X12508D01*
Y71365D01*
X12254Y71619D01*
X12508Y71873D01*
Y72127D01*
X12254D01*
X12000Y71873D01*
X11746Y72127D01*
X11492D01*
Y71873D01*
X11746Y71619D01*
X11492Y71365D01*
Y71111D01*
X58801Y99298D02*
Y98029D01*
X59436D01*
X59647Y98240D01*
Y99087D01*
X59436Y99298D01*
X58801D01*
X38481D02*
Y98029D01*
X39116D01*
X39327Y98240D01*
Y99087D01*
X39116Y99298D01*
X38481D01*
X56261D02*
Y98029D01*
X56896D01*
X57107Y98240D01*
Y99087D01*
X56896Y99298D01*
X56261D01*
X48641D02*
Y98029D01*
X49276D01*
X49487Y98240D01*
Y99087D01*
X49276Y99298D01*
X48641D01*
X53721D02*
Y98029D01*
X54356D01*
X54567Y98240D01*
Y99087D01*
X54356Y99298D01*
X53721D01*
X46101D02*
Y98029D01*
X46736D01*
X46947Y98240D01*
Y99087D01*
X46736Y99298D01*
X46101D01*
X51181D02*
Y98029D01*
X51816D01*
X52027Y98240D01*
Y99087D01*
X51816Y99298D01*
X51181D01*
X43561D02*
Y98029D01*
X44196D01*
X44407Y98240D01*
Y99087D01*
X44196Y99298D01*
X43561D01*
X41021D02*
Y98029D01*
X41656D01*
X41867Y98240D01*
Y99087D01*
X41656Y99298D01*
X41021D01*
X61341D02*
Y98029D01*
X61976D01*
X62187Y98240D01*
Y99087D01*
X61976Y99298D01*
X61341D01*
X63881D02*
Y98029D01*
X64516D01*
X64727Y98240D01*
Y99087D01*
X64516Y99298D01*
X63881D01*
X66421D02*
Y98029D01*
X67056D01*
X67267Y98240D01*
Y99087D01*
X67056Y99298D01*
X66421D01*
X71501D02*
Y98029D01*
X72136D01*
X72347Y98240D01*
Y99087D01*
X72136Y99298D01*
X71501D01*
X81661D02*
Y98029D01*
X82296D01*
X82507Y98240D01*
Y99087D01*
X82296Y99298D01*
X81661D01*
X79121D02*
Y98029D01*
X79756D01*
X79967Y98240D01*
Y99087D01*
X79756Y99298D01*
X79121D01*
X68961D02*
Y98029D01*
X69596D01*
X69807Y98240D01*
Y99087D01*
X69596Y99298D01*
X68961D01*
X74041D02*
Y98029D01*
X74676D01*
X74887Y98240D01*
Y99087D01*
X74676Y99298D01*
X74041D01*
X76581D02*
Y98029D01*
X77216D01*
X77427Y98240D01*
Y99087D01*
X77216Y99298D01*
X76581D01*
X56203Y37724D02*
Y38740D01*
X57219D01*
Y37724D01*
X56203D01*
X54206Y45153D02*
Y46169D01*
X55222D01*
Y45153D01*
X54206D01*
X46623Y70562D02*
X46115Y71578D01*
X47131D01*
X46623Y70562D01*
X46548Y75637D02*
X46040Y76653D01*
X47056D01*
X46548Y75637D01*
X45744Y64403D02*
Y65419D01*
X46760D01*
Y64403D01*
X45744D01*
X73533Y76896D02*
Y77912D01*
X74549D01*
Y76896D01*
X73533D01*
X46146Y60742D02*
Y61758D01*
X47162D01*
Y60742D01*
X46146D01*
X60881Y70562D02*
X60373Y71578D01*
X61389D01*
X60881Y70562D01*
X60806Y75637D02*
X60298Y76653D01*
X61314D01*
X60806Y75637D01*
X81153Y79127D02*
Y80143D01*
X82169D01*
Y79127D01*
X81153D01*
X158394Y99279D02*
Y98010D01*
X159029D01*
X159241Y98221D01*
Y99068D01*
X159029Y99279D01*
X158394D01*
X138074D02*
Y98010D01*
X138709D01*
X138921Y98221D01*
Y99068D01*
X138709Y99279D01*
X138074D01*
X155854D02*
Y98010D01*
X156489D01*
X156701Y98221D01*
Y99068D01*
X156489Y99279D01*
X155854D01*
X148234D02*
Y98010D01*
X148869D01*
X149081Y98221D01*
Y99068D01*
X148869Y99279D01*
X148234D01*
X153314D02*
Y98010D01*
X153949D01*
X154161Y98221D01*
Y99068D01*
X153949Y99279D01*
X153314D01*
X145694D02*
Y98010D01*
X146329D01*
X146541Y98221D01*
Y99068D01*
X146329Y99279D01*
X145694D01*
X150774D02*
Y98010D01*
X151409D01*
X151621Y98221D01*
Y99068D01*
X151409Y99279D01*
X150774D01*
X143154D02*
Y98010D01*
X143789D01*
X144001Y98221D01*
Y99068D01*
X143789Y99279D01*
X143154D01*
X140614D02*
Y98010D01*
X141249D01*
X141461Y98221D01*
Y99068D01*
X141249Y99279D01*
X140614D01*
X160934D02*
Y98010D01*
X161569D01*
X161781Y98221D01*
Y99068D01*
X161569Y99279D01*
X160934D01*
X163474D02*
Y98010D01*
X164109D01*
X164321Y98221D01*
Y99068D01*
X164109Y99279D01*
X163474D01*
X166014D02*
Y98010D01*
X166649D01*
X166861Y98221D01*
Y99068D01*
X166649Y99279D01*
X166014D01*
X171094D02*
Y98010D01*
X171729D01*
X171941Y98221D01*
Y99068D01*
X171729Y99279D01*
X171094D01*
X181254D02*
Y98010D01*
X181889D01*
X182101Y98221D01*
Y99068D01*
X181889Y99279D01*
X181254D01*
X178714D02*
Y98010D01*
X179349D01*
X179561Y98221D01*
Y99068D01*
X179349Y99279D01*
X178714D01*
X168554D02*
Y98010D01*
X169189D01*
X169401Y98221D01*
Y99068D01*
X169189Y99279D01*
X168554D01*
X173634D02*
Y98010D01*
X174269D01*
X174481Y98221D01*
Y99068D01*
X174269Y99279D01*
X173634D01*
X176174D02*
Y98010D01*
X176809D01*
X177021Y98221D01*
Y99068D01*
X176809Y99279D01*
X176174D01*
X275692D02*
Y98010D01*
X276326D01*
X276538Y98221D01*
Y99068D01*
X276326Y99279D01*
X275692D01*
X273152D02*
Y98010D01*
X273786D01*
X273998Y98221D01*
Y99068D01*
X273786Y99279D01*
X273152D01*
X268072D02*
Y98010D01*
X268706D01*
X268918Y98221D01*
Y99068D01*
X268706Y99279D01*
X268072D01*
X278232D02*
Y98010D01*
X278866D01*
X279078Y98221D01*
Y99068D01*
X278866Y99279D01*
X278232D01*
X280772D02*
Y98010D01*
X281406D01*
X281618Y98221D01*
Y99068D01*
X281406Y99279D01*
X280772D01*
X270612D02*
Y98010D01*
X271246D01*
X271458Y98221D01*
Y99068D01*
X271246Y99279D01*
X270612D01*
X265532D02*
Y98010D01*
X266166D01*
X266378Y98221D01*
Y99068D01*
X266166Y99279D01*
X265532D01*
X262992D02*
Y98010D01*
X263626D01*
X263838Y98221D01*
Y99068D01*
X263626Y99279D01*
X262992D01*
X260452D02*
Y98010D01*
X261086D01*
X261298Y98221D01*
Y99068D01*
X261086Y99279D01*
X260452D01*
X240132D02*
Y98010D01*
X240766D01*
X240978Y98221D01*
Y99068D01*
X240766Y99279D01*
X240132D01*
X242672D02*
Y98010D01*
X243306D01*
X243518Y98221D01*
Y99068D01*
X243306Y99279D01*
X242672D01*
X250292D02*
Y98010D01*
X250926D01*
X251138Y98221D01*
Y99068D01*
X250926Y99279D01*
X250292D01*
X245212D02*
Y98010D01*
X245846D01*
X246058Y98221D01*
Y99068D01*
X245846Y99279D01*
X245212D01*
X252832D02*
Y98010D01*
X253466D01*
X253678Y98221D01*
Y99068D01*
X253466Y99279D01*
X252832D01*
X247752D02*
Y98010D01*
X248386D01*
X248598Y98221D01*
Y99068D01*
X248386Y99279D01*
X247752D01*
X255372D02*
Y98010D01*
X256006D01*
X256218Y98221D01*
Y99068D01*
X256006Y99279D01*
X255372D01*
X237592D02*
Y98010D01*
X238226D01*
X238438Y98221D01*
Y99068D01*
X238226Y99279D01*
X237592D01*
X257912D02*
Y98010D01*
X258546D01*
X258758Y98221D01*
Y99068D01*
X258546Y99279D01*
X257912D01*
X44409Y113602D02*
X44197Y113813D01*
X43774D01*
X43562Y113602D01*
Y112755D01*
X43774Y112544D01*
X44197D01*
X44409Y112755D01*
Y108522D02*
X44197Y108733D01*
X43774D01*
X43562Y108522D01*
Y107675D01*
X43774Y107464D01*
X44197D01*
X44409Y107675D01*
X38409Y113602D02*
X38197Y113813D01*
X37774D01*
X37562Y113602D01*
Y112755D01*
X37774Y112544D01*
X38197D01*
X38409Y112755D01*
Y108522D02*
X38197Y108733D01*
X37774D01*
X37562Y108522D01*
Y107675D01*
X37774Y107464D01*
X38197D01*
X38409Y107675D01*
X78123Y113650D02*
X77912Y113862D01*
X77489D01*
X77277Y113650D01*
Y112804D01*
X77489Y112592D01*
X77912D01*
X78123Y112804D01*
Y108570D02*
X77912Y108782D01*
X77489D01*
X77277Y108570D01*
Y107724D01*
X77489Y107512D01*
X77912D01*
X78123Y107724D01*
X84123Y113650D02*
X83912Y113862D01*
X83489D01*
X83277Y113650D01*
Y112804D01*
X83489Y112592D01*
X83912D01*
X84123Y112804D01*
Y108570D02*
X83912Y108782D01*
X83489D01*
X83277Y108570D01*
Y107724D01*
X83489Y107512D01*
X83912D01*
X84123Y107724D01*
X284226Y114564D02*
X284015Y114776D01*
X283591D01*
X283380Y114564D01*
Y113718D01*
X283591Y113506D01*
X284015D01*
X284226Y113718D01*
Y109484D02*
X284015Y109696D01*
X283591D01*
X283380Y109484D01*
Y108638D01*
X283591Y108426D01*
X284015D01*
X284226Y108638D01*
X278226Y114564D02*
X278015Y114776D01*
X277591D01*
X277380Y114564D01*
Y113718D01*
X277591Y113506D01*
X278015D01*
X278226Y113718D01*
Y109484D02*
X278015Y109696D01*
X277591D01*
X277380Y109484D01*
Y108638D01*
X277591Y108426D01*
X278015D01*
X278226Y108638D01*
X237734Y114488D02*
X237522Y114700D01*
X237099D01*
X236888Y114488D01*
Y113642D01*
X237099Y113430D01*
X237522D01*
X237734Y113642D01*
Y109408D02*
X237522Y109620D01*
X237099D01*
X236888Y109408D01*
Y108562D01*
X237099Y108350D01*
X237522D01*
X237734Y108562D01*
X243734Y114488D02*
X243522Y114700D01*
X243099D01*
X242888Y114488D01*
Y113642D01*
X243099Y113430D01*
X243522D01*
X243734Y113642D01*
Y109408D02*
X243522Y109620D01*
X243099D01*
X242888Y109408D01*
Y108562D01*
X243099Y108350D01*
X243522D01*
X243734Y108562D01*
X247352Y63818D02*
Y64834D01*
X248368D01*
Y63818D01*
X247352D01*
X262443Y69811D02*
X261935Y70827D01*
X262951D01*
X262443Y69811D01*
X262368Y74886D02*
X261860Y75902D01*
X262876D01*
X262368Y74886D01*
X248151Y70052D02*
X247643Y71068D01*
X248659D01*
X248151Y70052D01*
X248076Y75127D02*
X247568Y76143D01*
X248584D01*
X248076Y75127D01*
X267419Y57221D02*
Y58237D01*
X268435D01*
Y57221D01*
X267419D01*
X254363D02*
Y58237D01*
X255379D01*
Y57221D01*
X254363D01*
X257494Y37280D02*
Y38296D01*
X258510D01*
Y37280D01*
X257494D01*
X277724Y76524D02*
Y77540D01*
X278740D01*
Y76524D01*
X277724D01*
X254715Y45597D02*
Y46613D01*
X255731D01*
Y45597D01*
X254715D01*
X16917Y174032D02*
Y175048D01*
X17933D01*
Y174032D01*
X16917D01*
X17120Y174235D02*
Y174845D01*
X17730D01*
Y174235D01*
X17120D01*
X16917Y164126D02*
Y165142D01*
X17933D01*
Y164126D01*
X16917D01*
X17120Y164329D02*
Y164939D01*
X17730D01*
Y164329D01*
X17120D01*
X5216Y87604D02*
Y88620D01*
X6232D01*
Y87604D01*
X5216D01*
X75881Y164729D02*
Y164475D01*
X76389D01*
Y164729D01*
X76643D01*
Y165237D01*
X76389D01*
Y165491D01*
X75881D01*
Y165237D01*
X75627D01*
Y164729D01*
X75881D01*
X70931D02*
Y164475D01*
X71439D01*
Y164729D01*
X71693D01*
Y165237D01*
X71439D01*
Y165491D01*
X70931D01*
Y165237D01*
X70677D01*
Y164729D01*
X70931D01*
X59492Y159130D02*
Y160146D01*
X60508D01*
Y159130D01*
X59492D01*
X59695Y159333D02*
Y159943D01*
X60305D01*
Y159333D01*
X59695D01*
X59492Y169036D02*
Y170052D01*
X60508D01*
Y169036D01*
X59492D01*
X59695Y169239D02*
Y169849D01*
X60305D01*
Y169239D01*
X59695D01*
X36492Y164126D02*
Y165142D01*
X37508D01*
Y164126D01*
X36492D01*
X36695Y164329D02*
Y164939D01*
X37305D01*
Y164329D01*
X36695D01*
X36492Y174032D02*
Y175048D01*
X37508D01*
Y174032D01*
X36492D01*
X36695Y174235D02*
Y174845D01*
X37305D01*
Y174235D01*
X36695D01*
X159385Y159130D02*
Y160146D01*
X160401D01*
Y159130D01*
X159385D01*
X159588Y159333D02*
Y159943D01*
X160198D01*
Y159333D01*
X159588D01*
X159385Y169036D02*
Y170052D01*
X160401D01*
Y169036D01*
X159385D01*
X159588Y169239D02*
Y169849D01*
X160198D01*
Y169239D01*
X159588D01*
X259486Y159130D02*
Y160146D01*
X260502D01*
Y159130D01*
X259486D01*
X259690Y159333D02*
Y159943D01*
X260299D01*
Y159333D01*
X259690D01*
X259486Y169036D02*
Y170052D01*
X260502D01*
Y169036D01*
X259486D01*
X259690Y169239D02*
Y169849D01*
X260299D01*
Y169239D01*
X259690D01*
X148615Y164750D02*
Y164496D01*
X149123D01*
Y164750D01*
X149377D01*
Y165258D01*
X149123D01*
Y165512D01*
X148615D01*
Y165258D01*
X148361D01*
Y164750D01*
X148615D01*
X143665D02*
Y164496D01*
X144173D01*
Y164750D01*
X144427D01*
Y165258D01*
X144173D01*
Y165512D01*
X143665D01*
Y165258D01*
X143411D01*
Y164750D01*
X143665D01*
X248804Y164780D02*
Y164526D01*
X249312D01*
Y164780D01*
X249566D01*
Y165288D01*
X249312D01*
Y165542D01*
X248804D01*
Y165288D01*
X248550D01*
Y164780D01*
X248804D01*
X243854D02*
Y164526D01*
X244362D01*
Y164780D01*
X244616D01*
Y165288D01*
X244362D01*
Y165542D01*
X243854D01*
Y165288D01*
X243600D01*
Y164780D01*
X243854D01*
X275615Y164805D02*
Y164551D01*
X276123D01*
Y164805D01*
X276377D01*
Y165313D01*
X276123D01*
Y165567D01*
X275615D01*
Y165313D01*
X275361D01*
Y164805D01*
X275615D01*
X270665D02*
Y164551D01*
X271173D01*
Y164805D01*
X271427D01*
Y165313D01*
X271173D01*
Y165567D01*
X270665D01*
Y165313D01*
X270411D01*
Y164805D01*
X270665D01*
X175717Y164750D02*
Y164496D01*
X176225D01*
Y164750D01*
X176479D01*
Y165258D01*
X176225D01*
Y165512D01*
X175717D01*
Y165258D01*
X175463D01*
Y164750D01*
X175717D01*
X160000Y139496D02*
X160254Y139750D01*
X160508D01*
X160254Y140004D01*
X160508Y140258D01*
X160254D01*
X160000Y140512D01*
X159746Y140258D01*
X159492D01*
X159746Y140004D01*
X159492Y139750D01*
X159746D01*
X160000Y139496D01*
Y139699D02*
X160152Y139851D01*
X160305D01*
X160152Y140004D01*
X160305Y140156D01*
X160152D01*
X160000Y140309D01*
X159848Y140156D01*
X159695D01*
X159848Y140004D01*
X159695Y139851D01*
X159848D01*
X160000Y139699D01*
Y149496D02*
X160254Y149750D01*
X160508D01*
X160254Y150004D01*
X160508Y150258D01*
X160254D01*
X160000Y150512D01*
X159746Y150258D01*
X159492D01*
X159746Y150004D01*
X159492Y149750D01*
X159746D01*
X160000Y149496D01*
Y149699D02*
X160152Y149851D01*
X160305D01*
X160152Y150004D01*
X160305Y150156D01*
X160152D01*
X160000Y150309D01*
X159848Y150156D01*
X159695D01*
X159848Y150004D01*
X159695Y149851D01*
X159848D01*
X160000Y149699D01*
X300000Y139496D02*
X300254Y139750D01*
X300508D01*
X300254Y140004D01*
X300508Y140258D01*
X300254D01*
X300000Y140512D01*
X299746Y140258D01*
X299492D01*
X299746Y140004D01*
X299492Y139750D01*
X299746D01*
X300000Y139496D01*
Y139699D02*
X300152Y139851D01*
X300305D01*
X300152Y140004D01*
X300305Y140156D01*
X300152D01*
X300000Y140309D01*
X299848Y140156D01*
X299695D01*
X299848Y140004D01*
X299695Y139851D01*
X299848D01*
X300000Y139699D01*
Y149496D02*
X300254Y149750D01*
X300508D01*
X300254Y150004D01*
X300508Y150258D01*
X300254D01*
X300000Y150512D01*
X299746Y150258D01*
X299492D01*
X299746Y150004D01*
X299492Y149750D01*
X299746D01*
X300000Y149496D01*
Y149699D02*
X300152Y149851D01*
X300305D01*
X300152Y150004D01*
X300305Y150156D01*
X300152D01*
X300000Y150309D01*
X299848Y150156D01*
X299695D01*
X299848Y150004D01*
X299695Y149851D01*
X299848D01*
X300000Y149699D01*
X20000Y138468D02*
X20254Y138722D01*
X20508D01*
X20254Y138976D01*
X20508Y139230D01*
X20254D01*
X20000Y139484D01*
X19746Y139230D01*
X19492D01*
X19746Y138976D01*
X19492Y138722D01*
X19746D01*
X20000Y138468D01*
Y138671D02*
X20152Y138824D01*
X20305D01*
X20152Y138976D01*
X20305Y139128D01*
X20152D01*
X20000Y139281D01*
X19848Y139128D01*
X19695D01*
X19848Y138976D01*
X19695Y138824D01*
X19848D01*
X20000Y138671D01*
Y149218D02*
X20254Y149472D01*
X20508D01*
X20254Y149726D01*
X20508Y149980D01*
X20254D01*
X20000Y150234D01*
X19746Y149980D01*
X19492D01*
X19746Y149726D01*
X19492Y149472D01*
X19746D01*
X20000Y149218D01*
Y149421D02*
X20152Y149574D01*
X20305D01*
X20152Y149726D01*
X20305Y149878D01*
X20152D01*
X20000Y150031D01*
X19848Y149878D01*
X19695D01*
X19848Y149726D01*
X19695Y149574D01*
X19848D01*
X20000Y149421D01*
X184158Y130369D02*
X184666Y130877D01*
X185174Y130369D01*
X184666Y129861D01*
X184158Y130369D01*
X189492D02*
X190000Y130877D01*
X190508Y130369D01*
X190000Y129861D01*
X189492Y130369D01*
X194826D02*
X195334Y130877D01*
X195842Y130369D01*
X195334Y129861D01*
X194826Y130369D01*
X164158D02*
X164666Y130877D01*
X165174Y130369D01*
X164666Y129861D01*
X164158Y130369D01*
X169492D02*
X170000Y130877D01*
X170508Y130369D01*
X170000Y129861D01*
X169492Y130369D01*
X174826D02*
X175334Y130877D01*
X175842Y130369D01*
X175334Y129861D01*
X174826Y130369D01*
X44158D02*
X44666Y130877D01*
X45174Y130369D01*
X44666Y129861D01*
X44158Y130369D01*
X49492D02*
X50000Y130877D01*
X50508Y130369D01*
X50000Y129861D01*
X49492Y130369D01*
X54826D02*
X55334Y130877D01*
X55842Y130369D01*
X55334Y129861D01*
X54826Y130369D01*
X24158D02*
X24666Y130877D01*
X25174Y130369D01*
X24666Y129861D01*
X24158Y130369D01*
X29492D02*
X30000Y130877D01*
X30508Y130369D01*
X30000Y129861D01*
X29492Y130369D01*
X34826D02*
X35334Y130877D01*
X35842Y130369D01*
X35334Y129861D01*
X34826Y130369D01*
X64158D02*
X64666Y130877D01*
X65174Y130369D01*
X64666Y129861D01*
X64158Y130369D01*
X69492D02*
X70000Y130877D01*
X70508Y130369D01*
X70000Y129861D01*
X69492Y130369D01*
X74826D02*
X75334Y130877D01*
X75842Y130369D01*
X75334Y129861D01*
X74826Y130369D01*
X284158D02*
X284666Y130877D01*
X285174Y130369D01*
X284666Y129861D01*
X284158Y130369D01*
X289492D02*
X290000Y130877D01*
X290508Y130369D01*
X290000Y129861D01*
X289492Y130369D01*
X294826D02*
X295334Y130877D01*
X295842Y130369D01*
X295334Y129861D01*
X294826Y130369D01*
X264158D02*
X264666Y130877D01*
X265174Y130369D01*
X264666Y129861D01*
X264158Y130369D01*
X269492D02*
X270000Y130877D01*
X270508Y130369D01*
X270000Y129861D01*
X269492Y130369D01*
X274826D02*
X275334Y130877D01*
X275842Y130369D01*
X275334Y129861D01*
X274826Y130369D01*
X144158D02*
X144666Y130877D01*
X145174Y130369D01*
X144666Y129861D01*
X144158Y130369D01*
X149492D02*
X150000Y130877D01*
X150508Y130369D01*
X150000Y129861D01*
X149492Y130369D01*
X154826D02*
X155334Y130877D01*
X155842Y130369D01*
X155334Y129861D01*
X154826Y130369D01*
X224158D02*
X224666Y130877D01*
X225174Y130369D01*
X224666Y129861D01*
X224158Y130369D01*
X229492D02*
X230000Y130877D01*
X230508Y130369D01*
X230000Y129861D01*
X229492Y130369D01*
X234826D02*
X235334Y130877D01*
X235842Y130369D01*
X235334Y129861D01*
X234826Y130369D01*
X244158D02*
X244666Y130877D01*
X245174Y130369D01*
X244666Y129861D01*
X244158Y130369D01*
X249492D02*
X250000Y130877D01*
X250508Y130369D01*
X250000Y129861D01*
X249492Y130369D01*
X254826D02*
X255334Y130877D01*
X255842Y130369D01*
X255334Y129861D01*
X254826Y130369D01*
X170767Y164750D02*
Y164496D01*
X171275D01*
Y164750D01*
X171529D01*
Y165258D01*
X171275D01*
Y165512D01*
X170767D01*
Y165258D01*
X170513D01*
Y164750D01*
X170767D01*
X308967Y59412D02*
X309221D01*
X309475Y59666D01*
X309729Y59412D01*
X309983D01*
Y59666D01*
X309729Y59920D01*
X309983Y60174D01*
Y60428D01*
X309729D01*
X309475Y60174D01*
X309221Y60428D01*
X308967D01*
Y60174D01*
X309221Y59920D01*
X308967Y59666D01*
Y59412D01*
Y64492D02*
X309221D01*
X309475Y64746D01*
X309729Y64492D01*
X309983D01*
Y64746D01*
X309729Y65000D01*
X309983Y65254D01*
Y65508D01*
X309729D01*
X309475Y65254D01*
X309221Y65508D01*
X308967D01*
Y65254D01*
X309221Y65000D01*
X308967Y64746D01*
Y64492D01*
Y69572D02*
X309221D01*
X309475Y69826D01*
X309729Y69572D01*
X309983D01*
Y69826D01*
X309729Y70080D01*
X309983Y70334D01*
Y70588D01*
X309729D01*
X309475Y70334D01*
X309221Y70588D01*
X308967D01*
Y70334D01*
X309221Y70080D01*
X308967Y69826D01*
Y69572D01*
Y84412D02*
X309221D01*
X309475Y84666D01*
X309729Y84412D01*
X309983D01*
Y84666D01*
X309729Y84920D01*
X309983Y85174D01*
Y85428D01*
X309729D01*
X309475Y85174D01*
X309221Y85428D01*
X308967D01*
Y85174D01*
X309221Y84920D01*
X308967Y84666D01*
Y84412D01*
Y89492D02*
X309221D01*
X309475Y89746D01*
X309729Y89492D01*
X309983D01*
Y89746D01*
X309729Y90000D01*
X309983Y90254D01*
Y90508D01*
X309729D01*
X309475Y90254D01*
X309221Y90508D01*
X308967D01*
Y90254D01*
X309221Y90000D01*
X308967Y89746D01*
Y89492D01*
Y94572D02*
X309221D01*
X309475Y94826D01*
X309729Y94572D01*
X309983D01*
Y94826D01*
X309729Y95080D01*
X309983Y95334D01*
Y95588D01*
X309729D01*
X309475Y95334D01*
X309221Y95588D01*
X308967D01*
Y95334D01*
X309221Y95080D01*
X308967Y94826D01*
Y94572D01*
X36938Y74292D02*
Y75308D01*
X37954D01*
Y74292D01*
X36938D01*
X196467Y4042D02*
Y5058D01*
X197483D01*
Y4042D01*
X196467D01*
X292677Y19836D02*
Y20852D01*
X293693D01*
Y19836D01*
X292677D01*
X292564Y29546D02*
Y30562D01*
X293580D01*
Y29546D01*
X292564D01*
X286967Y34567D02*
Y35583D01*
X287983D01*
Y34567D01*
X286967D01*
X173080Y7192D02*
X172572Y8208D01*
X173588D01*
X173080Y7192D01*
X170540D02*
X170032Y8208D01*
X171048D01*
X170540Y7192D01*
X168000D02*
X167492Y8208D01*
X168508D01*
X168000Y7192D01*
X165460D02*
X164952Y8208D01*
X165968D01*
X165460Y7192D01*
X162920D02*
X162412Y8208D01*
X163428D01*
X162920Y7192D01*
X160380D02*
X159872Y8208D01*
X160888D01*
X160380Y7192D01*
X147348Y63813D02*
Y64829D01*
X148364D01*
Y63813D01*
X147348D01*
X156500Y37829D02*
Y38845D01*
X157516D01*
Y37829D01*
X156500D01*
X162528Y70058D02*
X162020Y71074D01*
X163036D01*
X162528Y70058D01*
X162453Y75133D02*
X161945Y76149D01*
X162961D01*
X162453Y75133D01*
X292961Y45530D02*
X292453Y46546D01*
X293469D01*
X292961Y45530D01*
Y48070D02*
X292453Y49086D01*
X293469D01*
X292961Y48070D01*
Y50610D02*
X292453Y51626D01*
X293469D01*
X292961Y50610D01*
Y42990D02*
X292453Y44006D01*
X293469D01*
X292961Y42990D01*
X178206Y73809D02*
Y74825D01*
X179222D01*
Y73809D01*
X178206D01*
X153315Y57328D02*
Y58344D01*
X154331D01*
Y57328D01*
X153315D01*
X153866Y44220D02*
Y45236D01*
X154882D01*
Y44220D01*
X153866D01*
X228279Y57462D02*
X227771Y58478D01*
X228787D01*
X228279Y57462D01*
Y54922D02*
X227771Y55938D01*
X228787D01*
X228279Y54922D01*
Y52382D02*
X227771Y53398D01*
X228787D01*
X228279Y52382D01*
Y49842D02*
X227771Y50858D01*
X228787D01*
X228279Y49842D01*
Y47302D02*
X227771Y48318D01*
X228787D01*
X228279Y47302D01*
Y44762D02*
X227771Y45778D01*
X228787D01*
X228279Y44762D01*
X35037Y59797D02*
Y60813D01*
X36053D01*
Y59797D01*
X35037D01*
X34785Y45597D02*
Y46613D01*
X35801D01*
Y45597D01*
X34785D01*
X28257Y45597D02*
Y46613D01*
X29273D01*
Y45597D01*
X28257D01*
X28677Y59797D02*
Y60813D01*
X29693D01*
Y59797D01*
X28677D01*
X26517Y56177D02*
Y57193D01*
X27533D01*
Y56177D01*
X26517D01*
X292627Y13902D02*
Y14918D01*
X293643D01*
Y13902D01*
X292627D01*
X291298Y55125D02*
Y56141D01*
X292314D01*
Y55125D01*
X291298D01*
X276101Y34392D02*
Y35408D01*
X277117D01*
Y34392D01*
X276101D01*
X289672Y38570D02*
Y39586D01*
X290688D01*
Y38570D01*
X289672D01*
X291298Y58859D02*
Y59875D01*
X292314D01*
Y58859D01*
X291298D01*
X297808Y70920D02*
Y71936D01*
X298824D01*
Y70920D01*
X297808D01*
X284888Y72143D02*
Y73159D01*
X285904D01*
Y72143D01*
X284888D01*
X291273Y68451D02*
Y69467D01*
X292289D01*
Y68451D01*
X291273D01*
X236279Y57452D02*
X235771Y58468D01*
X236787D01*
X236279Y57452D01*
Y54912D02*
X235771Y55928D01*
X236787D01*
X236279Y54912D01*
Y52372D02*
X235771Y53388D01*
X236787D01*
X236279Y52372D01*
Y49832D02*
X235771Y50848D01*
X236787D01*
X236279Y49832D01*
Y47292D02*
X235771Y48308D01*
X236787D01*
X236279Y47292D01*
Y44752D02*
X235771Y45768D01*
X236787D01*
X236279Y44752D01*
X279047Y34664D02*
Y35680D01*
X280063D01*
Y34664D01*
X279047D01*
X148377Y75272D02*
X147869Y76288D01*
X148885D01*
X148377Y75272D01*
X148452Y70197D02*
X147944Y71213D01*
X148960D01*
X148452Y70197D01*
X183941Y108866D02*
X183729Y109077D01*
X183306D01*
X183094Y108866D01*
Y108019D01*
X183306Y107808D01*
X183729D01*
X183941Y108019D01*
Y113946D02*
X183729Y114157D01*
X183306D01*
X183094Y113946D01*
Y113099D01*
X183306Y112888D01*
X183729D01*
X183941Y113099D01*
X178124Y108739D02*
X177913Y108950D01*
X177489D01*
X177278Y108739D01*
Y107892D01*
X177489Y107681D01*
X177913D01*
X178124Y107892D01*
Y113819D02*
X177913Y114030D01*
X177489D01*
X177278Y113819D01*
Y112972D01*
X177489Y112761D01*
X177913D01*
X178124Y112972D01*
X143391Y108866D02*
X143180Y109077D01*
X142756D01*
X142545Y108866D01*
Y108019D01*
X142756Y107808D01*
X143180D01*
X143391Y108019D01*
Y113946D02*
X143180Y114157D01*
X142756D01*
X142545Y113946D01*
Y113099D01*
X142756Y112888D01*
X143180D01*
X143391Y113099D01*
X137956Y108866D02*
X137744Y109077D01*
X137321D01*
X137109Y108866D01*
Y108019D01*
X137321Y107808D01*
X137744D01*
X137956Y108019D01*
Y113946D02*
X137744Y114157D01*
X137321D01*
X137109Y113946D01*
Y113099D01*
X137321Y112888D01*
X137744D01*
X137956Y113099D01*
X1567Y172842D02*
X1821Y173350D01*
X1567Y173858D01*
X2075Y173604D01*
X2583Y173858D01*
X2329Y173350D01*
X2583Y172842D01*
X2075Y173096D01*
X1567Y172842D01*
X2692Y171692D02*
X2946Y172200D01*
X2692Y172708D01*
X3200Y172454D01*
X3708Y172708D01*
X3454Y172200D01*
X3708Y171692D01*
X3200Y171946D01*
X2692Y171692D01*
X1267Y174492D02*
X1521Y175000D01*
X1267Y175508D01*
X1775Y175254D01*
X2283Y175508D01*
X2029Y175000D01*
X2283Y174492D01*
X1775Y174746D01*
X1267Y174492D01*
X4492Y171092D02*
X4746Y171600D01*
X4492Y172108D01*
X5000Y171854D01*
X5508Y172108D01*
X5254Y171600D01*
X5508Y171092D01*
X5000Y171346D01*
X4492Y171092D01*
X303976Y145764D02*
X304230Y146018D01*
X304484D01*
X304230Y146272D01*
X304484Y146526D01*
X304230D01*
X303976Y146780D01*
X303722Y146526D01*
X303468D01*
X303722Y146272D01*
X303468Y146018D01*
X303722D01*
X303976Y145764D01*
X302976D02*
X303230Y146018D01*
X303484D01*
X303230Y146272D01*
X303484Y146526D01*
X303230D01*
X302976Y146780D01*
X302722Y146526D01*
X302468D01*
X302722Y146272D01*
X302468Y146018D01*
X302722D01*
X302976Y145764D01*
X301976D02*
X302230Y146018D01*
X302484D01*
X302230Y146272D01*
X302484Y146526D01*
X302230D01*
X301976Y146780D01*
X301722Y146526D01*
X301468D01*
X301722Y146272D01*
X301468Y146018D01*
X301722D01*
X301976Y145764D01*
Y144729D02*
X302230Y144983D01*
X302484D01*
X302230Y145237D01*
X302484Y145491D01*
X302230D01*
X301976Y145745D01*
X301722Y145491D01*
X301468D01*
X301722Y145237D01*
X301468Y144983D01*
X301722D01*
X301976Y144729D01*
X302976D02*
X303230Y144983D01*
X303484D01*
X303230Y145237D01*
X303484Y145491D01*
X303230D01*
X302976Y145745D01*
X302722Y145491D01*
X302468D01*
X302722Y145237D01*
X302468Y144983D01*
X302722D01*
X302976Y144729D01*
X303976D02*
X304230Y144983D01*
X304484D01*
X304230Y145237D01*
X304484Y145491D01*
X304230D01*
X303976Y145745D01*
X303722Y145491D01*
X303468D01*
X303722Y145237D01*
X303468Y144983D01*
X303722D01*
X303976Y144729D01*
Y142697D02*
X304230Y142951D01*
X304484D01*
X304230Y143205D01*
X304484Y143459D01*
X304230D01*
X303976Y143713D01*
X303722Y143459D01*
X303468D01*
X303722Y143205D01*
X303468Y142951D01*
X303722D01*
X303976Y142697D01*
X302976D02*
X303230Y142951D01*
X303484D01*
X303230Y143205D01*
X303484Y143459D01*
X303230D01*
X302976Y143713D01*
X302722Y143459D01*
X302468D01*
X302722Y143205D01*
X302468Y142951D01*
X302722D01*
X302976Y142697D01*
X301976D02*
X302230Y142951D01*
X302484D01*
X302230Y143205D01*
X302484Y143459D01*
X302230D01*
X301976Y143713D01*
X301722Y143459D01*
X301468D01*
X301722Y143205D01*
X301468Y142951D01*
X301722D01*
X301976Y142697D01*
Y143732D02*
X302230Y143986D01*
X302484D01*
X302230Y144240D01*
X302484Y144494D01*
X302230D01*
X301976Y144748D01*
X301722Y144494D01*
X301468D01*
X301722Y144240D01*
X301468Y143986D01*
X301722D01*
X301976Y143732D01*
X302976D02*
X303230Y143986D01*
X303484D01*
X303230Y144240D01*
X303484Y144494D01*
X303230D01*
X302976Y144748D01*
X302722Y144494D01*
X302468D01*
X302722Y144240D01*
X302468Y143986D01*
X302722D01*
X302976Y143732D01*
X303976D02*
X304230Y143986D01*
X304484D01*
X304230Y144240D01*
X304484Y144494D01*
X304230D01*
X303976Y144748D01*
X303722Y144494D01*
X303468D01*
X303722Y144240D01*
X303468Y143986D01*
X303722D01*
X303976Y143732D01*
X300993Y143734D02*
X301247Y143988D01*
X301501D01*
X301247Y144242D01*
X301501Y144496D01*
X301247D01*
X300993Y144750D01*
X300739Y144496D01*
X300485D01*
X300739Y144242D01*
X300485Y143988D01*
X300739D01*
X300993Y143734D01*
X299993D02*
X300247Y143988D01*
X300501D01*
X300247Y144242D01*
X300501Y144496D01*
X300247D01*
X299993Y144750D01*
X299739Y144496D01*
X299485D01*
X299739Y144242D01*
X299485Y143988D01*
X299739D01*
X299993Y143734D01*
X298993D02*
X299247Y143988D01*
X299501D01*
X299247Y144242D01*
X299501Y144496D01*
X299247D01*
X298993Y144750D01*
X298739Y144496D01*
X298485D01*
X298739Y144242D01*
X298485Y143988D01*
X298739D01*
X298993Y143734D01*
Y142699D02*
X299247Y142953D01*
X299501D01*
X299247Y143207D01*
X299501Y143461D01*
X299247D01*
X298993Y143715D01*
X298739Y143461D01*
X298485D01*
X298739Y143207D01*
X298485Y142953D01*
X298739D01*
X298993Y142699D01*
X299993D02*
X300247Y142953D01*
X300501D01*
X300247Y143207D01*
X300501Y143461D01*
X300247D01*
X299993Y143715D01*
X299739Y143461D01*
X299485D01*
X299739Y143207D01*
X299485Y142953D01*
X299739D01*
X299993Y142699D01*
X300993D02*
X301247Y142953D01*
X301501D01*
X301247Y143207D01*
X301501Y143461D01*
X301247D01*
X300993Y143715D01*
X300739Y143461D01*
X300485D01*
X300739Y143207D01*
X300485Y142953D01*
X300739D01*
X300993Y142699D01*
Y144731D02*
X301247Y144985D01*
X301501D01*
X301247Y145239D01*
X301501Y145493D01*
X301247D01*
X300993Y145747D01*
X300739Y145493D01*
X300485D01*
X300739Y145239D01*
X300485Y144985D01*
X300739D01*
X300993Y144731D01*
X299993D02*
X300247Y144985D01*
X300501D01*
X300247Y145239D01*
X300501Y145493D01*
X300247D01*
X299993Y145747D01*
X299739Y145493D01*
X299485D01*
X299739Y145239D01*
X299485Y144985D01*
X299739D01*
X299993Y144731D01*
X298993D02*
X299247Y144985D01*
X299501D01*
X299247Y145239D01*
X299501Y145493D01*
X299247D01*
X298993Y145747D01*
X298739Y145493D01*
X298485D01*
X298739Y145239D01*
X298485Y144985D01*
X298739D01*
X298993Y144731D01*
Y145766D02*
X299247Y146020D01*
X299501D01*
X299247Y146274D01*
X299501Y146528D01*
X299247D01*
X298993Y146782D01*
X298739Y146528D01*
X298485D01*
X298739Y146274D01*
X298485Y146020D01*
X298739D01*
X298993Y145766D01*
X299993D02*
X300247Y146020D01*
X300501D01*
X300247Y146274D01*
X300501Y146528D01*
X300247D01*
X299993Y146782D01*
X299739Y146528D01*
X299485D01*
X299739Y146274D01*
X299485Y146020D01*
X299739D01*
X299993Y145766D01*
X300993D02*
X301247Y146020D01*
X301501D01*
X301247Y146274D01*
X301501Y146528D01*
X301247D01*
X300993Y146782D01*
X300739Y146528D01*
X300485D01*
X300739Y146274D01*
X300485Y146020D01*
X300739D01*
X300993Y145766D01*
X110475Y81303D02*
X110729Y81557D01*
X110983D01*
X110729Y81811D01*
X110983Y82065D01*
X110729D01*
X110475Y82319D01*
X110221Y82065D01*
X109967D01*
X110221Y81811D01*
X109967Y81557D01*
X110221D01*
X110475Y81303D01*
X109475D02*
X109729Y81557D01*
X109983D01*
X109729Y81811D01*
X109983Y82065D01*
X109729D01*
X109475Y82319D01*
X109221Y82065D01*
X108967D01*
X109221Y81811D01*
X108967Y81557D01*
X109221D01*
X109475Y81303D01*
X108475D02*
X108729Y81557D01*
X108983D01*
X108729Y81811D01*
X108983Y82065D01*
X108729D01*
X108475Y82319D01*
X108221Y82065D01*
X107967D01*
X108221Y81811D01*
X107967Y81557D01*
X108221D01*
X108475Y81303D01*
Y80267D02*
X108729Y80521D01*
X108983D01*
X108729Y80775D01*
X108983Y81029D01*
X108729D01*
X108475Y81283D01*
X108221Y81029D01*
X107967D01*
X108221Y80775D01*
X107967Y80521D01*
X108221D01*
X108475Y80267D01*
X110475D02*
X110729Y80521D01*
X110983D01*
X110729Y80775D01*
X110983Y81029D01*
X110729D01*
X110475Y81283D01*
X110221Y81029D01*
X109967D01*
X110221Y80775D01*
X109967Y80521D01*
X110221D01*
X110475Y80267D01*
X108475Y79271D02*
X108729Y79525D01*
X108983D01*
X108729Y79779D01*
X108983Y80033D01*
X108729D01*
X108475Y80287D01*
X108221Y80033D01*
X107967D01*
X108221Y79779D01*
X107967Y79525D01*
X108221D01*
X108475Y79271D01*
X109475D02*
X109729Y79525D01*
X109983D01*
X109729Y79779D01*
X109983Y80033D01*
X109729D01*
X109475Y80287D01*
X109221Y80033D01*
X108967D01*
X109221Y79779D01*
X108967Y79525D01*
X109221D01*
X109475Y79271D01*
Y80267D02*
X109729Y80521D01*
X109983D01*
X109729Y80775D01*
X109983Y81029D01*
X109729D01*
X109475Y81283D01*
X109221Y81029D01*
X108967D01*
X109221Y80775D01*
X108967Y80521D01*
X109221D01*
X109475Y80267D01*
X110475Y79271D02*
X110729Y79525D01*
X110983D01*
X110729Y79779D01*
X110983Y80033D01*
X110729D01*
X110475Y80287D01*
X110221Y80033D01*
X109967D01*
X110221Y79779D01*
X109967Y79525D01*
X110221D01*
X110475Y79271D01*
X94072Y46312D02*
X94326Y46565D01*
X94580D01*
X94326Y46819D01*
X94580Y47074D01*
X94326D01*
X94072Y47327D01*
X93818Y47074D01*
X93564D01*
X93818Y46819D01*
X93564Y46565D01*
X93818D01*
X94072Y46312D01*
X93072D02*
X93326Y46565D01*
X93580D01*
X93326Y46819D01*
X93580Y47074D01*
X93326D01*
X93072Y47327D01*
X92818Y47074D01*
X92564D01*
X92818Y46819D01*
X92564Y46565D01*
X92818D01*
X93072Y46312D01*
X92072D02*
X92326Y46565D01*
X92580D01*
X92326Y46819D01*
X92580Y47074D01*
X92326D01*
X92072Y47327D01*
X91818Y47074D01*
X91564D01*
X91818Y46819D01*
X91564Y46565D01*
X91818D01*
X92072Y46312D01*
X94072Y47308D02*
X94326Y47562D01*
X94580D01*
X94326Y47816D01*
X94580Y48070D01*
X94326D01*
X94072Y48324D01*
X93818Y48070D01*
X93564D01*
X93818Y47816D01*
X93564Y47562D01*
X93818D01*
X94072Y47308D01*
X93072D02*
X93326Y47562D01*
X93580D01*
X93326Y47816D01*
X93580Y48070D01*
X93326D01*
X93072Y48324D01*
X92818Y48070D01*
X92564D01*
X92818Y47816D01*
X92564Y47562D01*
X92818D01*
X93072Y47308D01*
X92072D02*
X92326Y47562D01*
X92580D01*
X92326Y47816D01*
X92580Y48070D01*
X92326D01*
X92072Y48324D01*
X91818Y48070D01*
X91564D01*
X91818Y47816D01*
X91564Y47562D01*
X91818D01*
X92072Y47308D01*
Y48343D02*
X92326Y48597D01*
X92580D01*
X92326Y48852D01*
X92580Y49105D01*
X92326D01*
X92072Y49360D01*
X91818Y49105D01*
X91564D01*
X91818Y48852D01*
X91564Y48597D01*
X91818D01*
X92072Y48343D01*
X93072D02*
X93326Y48597D01*
X93580D01*
X93326Y48852D01*
X93580Y49105D01*
X93326D01*
X93072Y49360D01*
X92818Y49105D01*
X92564D01*
X92818Y48852D01*
X92564Y48597D01*
X92818D01*
X93072Y48343D01*
X94072D02*
X94326Y48597D01*
X94580D01*
X94326Y48852D01*
X94580Y49105D01*
X94326D01*
X94072Y49360D01*
X93818Y49105D01*
X93564D01*
X93818Y48852D01*
X93564Y48597D01*
X93818D01*
X94072Y48343D01*
X210722Y78237D02*
X210976Y78491D01*
X211230D01*
X210976Y78744D01*
X211230Y78998D01*
X210976D01*
X210722Y79253D01*
X210468Y78998D01*
X210214D01*
X210468Y78744D01*
X210214Y78491D01*
X210468D01*
X210722Y78237D01*
X209722D02*
X209976Y78491D01*
X210230D01*
X209976Y78744D01*
X210230Y78998D01*
X209976D01*
X209722Y79253D01*
X209468Y78998D01*
X209214D01*
X209468Y78744D01*
X209214Y78491D01*
X209468D01*
X209722Y78237D01*
X208722D02*
X208976Y78491D01*
X209230D01*
X208976Y78744D01*
X209230Y78998D01*
X208976D01*
X208722Y79253D01*
X208468Y78998D01*
X208214D01*
X208468Y78744D01*
X208214Y78491D01*
X208468D01*
X208722Y78237D01*
X210722Y79233D02*
X210976Y79487D01*
X211230D01*
X210976Y79741D01*
X211230Y79995D01*
X210976D01*
X210722Y80249D01*
X210468Y79995D01*
X210214D01*
X210468Y79741D01*
X210214Y79487D01*
X210468D01*
X210722Y79233D01*
X209722D02*
X209976Y79487D01*
X210230D01*
X209976Y79741D01*
X210230Y79995D01*
X209976D01*
X209722Y80249D01*
X209468Y79995D01*
X209214D01*
X209468Y79741D01*
X209214Y79487D01*
X209468D01*
X209722Y79233D01*
X208722D02*
X208976Y79487D01*
X209230D01*
X208976Y79741D01*
X209230Y79995D01*
X208976D01*
X208722Y80249D01*
X208468Y79995D01*
X208214D01*
X208468Y79741D01*
X208214Y79487D01*
X208468D01*
X208722Y79233D01*
Y80269D02*
X208976Y80522D01*
X209230D01*
X208976Y80776D01*
X209230Y81031D01*
X208976D01*
X208722Y81285D01*
X208468Y81031D01*
X208214D01*
X208468Y80776D01*
X208214Y80522D01*
X208468D01*
X208722Y80269D01*
X209722D02*
X209976Y80522D01*
X210230D01*
X209976Y80776D01*
X210230Y81031D01*
X209976D01*
X209722Y81285D01*
X209468Y81031D01*
X209214D01*
X209468Y80776D01*
X209214Y80522D01*
X209468D01*
X209722Y80269D01*
X210722D02*
X210976Y80522D01*
X211230D01*
X210976Y80776D01*
X211230Y81031D01*
X210976D01*
X210722Y81285D01*
X210468Y81031D01*
X210214D01*
X210468Y80776D01*
X210214Y80522D01*
X210468D01*
X210722Y80269D01*
X109492Y174492D02*
X109746D01*
X110000Y174746D01*
X110254Y174492D01*
X110508D01*
Y174746D01*
X110254Y175000D01*
X110508Y175254D01*
Y175508D01*
X110254D01*
X110000Y175254D01*
X109746Y175508D01*
X109492D01*
Y175254D01*
X109746Y175000D01*
X109492Y174746D01*
Y174492D01*
X109695Y174695D02*
X109848D01*
X110000Y174848D01*
X110152Y174695D01*
X110305D01*
Y174848D01*
X110152Y175000D01*
X110305Y175152D01*
Y175305D01*
X110152D01*
X110000Y175152D01*
X109848Y175305D01*
X109695D01*
Y175152D01*
X109848Y175000D01*
X109695Y174848D01*
Y174695D01*
X209492Y174492D02*
X209746D01*
X210000Y174746D01*
X210254Y174492D01*
X210508D01*
Y174746D01*
X210254Y175000D01*
X210508Y175254D01*
Y175508D01*
X210254D01*
X210000Y175254D01*
X209746Y175508D01*
X209492D01*
Y175254D01*
X209746Y175000D01*
X209492Y174746D01*
Y174492D01*
X209695Y174695D02*
X209848D01*
X210000Y174848D01*
X210152Y174695D01*
X210305D01*
Y174848D01*
X210152Y175000D01*
X210305Y175152D01*
Y175305D01*
X210152D01*
X210000Y175152D01*
X209848Y175305D01*
X209695D01*
Y175152D01*
X209848Y175000D01*
X209695Y174848D01*
Y174695D01*
X4492Y174496D02*
X4746D01*
X5000Y174750D01*
X5254Y174496D01*
X5508D01*
Y174750D01*
X5254Y175004D01*
X5508Y175258D01*
Y175512D01*
X5254D01*
X5000Y175258D01*
X4746Y175512D01*
X4492D01*
Y175258D01*
X4746Y175004D01*
X4492Y174750D01*
Y174496D01*
X4695Y174699D02*
X4848D01*
X5000Y174851D01*
X5152Y174699D01*
X5305D01*
Y174851D01*
X5152Y175004D01*
X5305Y175156D01*
Y175309D01*
X5152D01*
X5000Y175156D01*
X4848Y175309D01*
X4695D01*
Y175156D01*
X4848Y175004D01*
X4695Y174851D01*
Y174699D01*
X165835Y65542D02*
X166089Y65796D01*
X166343D01*
X166089Y66050D01*
X166343Y66304D01*
X166089D01*
X165835Y66558D01*
X165581Y66304D01*
X165327D01*
X165581Y66050D01*
X165327Y65796D01*
X165581D01*
X165835Y65542D01*
X170448Y65543D02*
X170702Y65797D01*
X170956D01*
X170702Y66051D01*
X170956Y66305D01*
X170702D01*
X170448Y66559D01*
X170194Y66305D01*
X169940D01*
X170194Y66051D01*
X169940Y65797D01*
X170194D01*
X170448Y65543D01*
X38800Y31692D02*
X39054Y31946D01*
X39308D01*
X39054Y32200D01*
X39308Y32454D01*
X39054D01*
X38800Y32708D01*
X38546Y32454D01*
X38292D01*
X38546Y32200D01*
X38292Y31946D01*
X38546D01*
X38800Y31692D01*
X71625Y31267D02*
X71879Y31521D01*
X72133D01*
X71879Y31775D01*
X72133Y32029D01*
X71879D01*
X71625Y32283D01*
X71371Y32029D01*
X71117D01*
X71371Y31775D01*
X71117Y31521D01*
X71371D01*
X71625Y31267D01*
X103373Y14626D02*
X103627Y14880D01*
X103881D01*
X103627Y15134D01*
X103881Y15388D01*
X103627D01*
X103373Y15642D01*
X103119Y15388D01*
X102865D01*
X103119Y15134D01*
X102865Y14880D01*
X103119D01*
X103373Y14626D01*
X83225Y22492D02*
X83479Y22746D01*
X83733D01*
X83479Y23000D01*
X83733Y23254D01*
X83479D01*
X83225Y23508D01*
X82971Y23254D01*
X82717D01*
X82971Y23000D01*
X82717Y22746D01*
X82971D01*
X83225Y22492D01*
X58150Y24631D02*
X58404Y24885D01*
X58658D01*
X58404Y25139D01*
X58658Y25393D01*
X58404D01*
X58150Y25647D01*
X57896Y25393D01*
X57642D01*
X57896Y25139D01*
X57642Y24885D01*
X57896D01*
X58150Y24631D01*
X26343Y33892D02*
X25835Y34908D01*
X26851D01*
X26343Y33892D01*
X46700Y8992D02*
X46954Y9246D01*
X47208D01*
X46954Y9500D01*
X47208Y9754D01*
X46954D01*
X46700Y10008D01*
X46446Y9754D01*
X46192D01*
X46446Y9500D01*
X46192Y9246D01*
X46446D01*
X46700Y8992D01*
X239129Y52372D02*
X239383Y52626D01*
X239637D01*
X239383Y52880D01*
X239637Y53134D01*
X239383D01*
X239129Y53388D01*
X238875Y53134D01*
X238621D01*
X238875Y52880D01*
X238621Y52626D01*
X238875D01*
X239129Y52372D01*
X283350Y16592D02*
X283604Y16846D01*
X283858D01*
X283604Y17100D01*
X283858Y17354D01*
X283604D01*
X283350Y17608D01*
X283096Y17354D01*
X282842D01*
X283096Y17100D01*
X282842Y16846D01*
X283096D01*
X283350Y16592D01*
X104373Y14626D02*
X104627Y14880D01*
X104881D01*
X104627Y15134D01*
X104881Y15388D01*
X104627D01*
X104373Y15642D01*
X104119Y15388D01*
X103865D01*
X104119Y15134D01*
X103865Y14880D01*
X104119D01*
X104373Y14626D01*
X84273Y14576D02*
X84527Y14830D01*
X84781D01*
X84527Y15084D01*
X84781Y15338D01*
X84527D01*
X84273Y15592D01*
X84019Y15338D01*
X83765D01*
X84019Y15084D01*
X83765Y14830D01*
X84019D01*
X84273Y14576D01*
X85273D02*
X85527Y14830D01*
X85781D01*
X85527Y15084D01*
X85781Y15338D01*
X85527D01*
X85273Y15592D01*
X85019Y15338D01*
X84765D01*
X85019Y15084D01*
X84765Y14830D01*
X85019D01*
X85273Y14576D01*
X65623Y14701D02*
X65877Y14955D01*
X66131D01*
X65877Y15209D01*
X66131Y15463D01*
X65877D01*
X65623Y15717D01*
X65369Y15463D01*
X65115D01*
X65369Y15209D01*
X65115Y14955D01*
X65369D01*
X65623Y14701D01*
X66623D02*
X66877Y14955D01*
X67131D01*
X66877Y15209D01*
X67131Y15463D01*
X66877D01*
X66623Y15717D01*
X66369Y15463D01*
X66115D01*
X66369Y15209D01*
X66115Y14955D01*
X66369D01*
X66623Y14701D01*
X46134Y14681D02*
X46388Y14935D01*
X46642D01*
X46388Y15189D01*
X46642Y15443D01*
X46388D01*
X46134Y15697D01*
X45880Y15443D01*
X45626D01*
X45880Y15189D01*
X45626Y14935D01*
X45880D01*
X46134Y14681D01*
X47134D02*
X47388Y14935D01*
X47642D01*
X47388Y15189D01*
X47642Y15443D01*
X47388D01*
X47134Y15697D01*
X46880Y15443D01*
X46626D01*
X46880Y15189D01*
X46626Y14935D01*
X46880D01*
X47134Y14681D01*
X46198Y2076D02*
X46452Y2330D01*
X46706D01*
X46452Y2584D01*
X46706Y2838D01*
X46452D01*
X46198Y3092D01*
X45944Y2838D01*
X45690D01*
X45944Y2584D01*
X45690Y2330D01*
X45944D01*
X46198Y2076D01*
X47198D02*
X47452Y2330D01*
X47706D01*
X47452Y2584D01*
X47706Y2838D01*
X47452D01*
X47198Y3092D01*
X46944Y2838D01*
X46690D01*
X46944Y2584D01*
X46690Y2330D01*
X46944D01*
X47198Y2076D01*
X75123Y2626D02*
X75377Y2880D01*
X75631D01*
X75377Y3134D01*
X75631Y3388D01*
X75377D01*
X75123Y3642D01*
X74869Y3388D01*
X74615D01*
X74869Y3134D01*
X74615Y2880D01*
X74869D01*
X75123Y2626D01*
X76123D02*
X76377Y2880D01*
X76631D01*
X76377Y3134D01*
X76631Y3388D01*
X76377D01*
X76123Y3642D01*
X75869Y3388D01*
X75615D01*
X75869Y3134D01*
X75615Y2880D01*
X75869D01*
X76123Y2626D01*
X65573Y2076D02*
X65827Y2330D01*
X66081D01*
X65827Y2584D01*
X66081Y2838D01*
X65827D01*
X65573Y3092D01*
X65319Y2838D01*
X65065D01*
X65319Y2584D01*
X65065Y2330D01*
X65319D01*
X65573Y2076D01*
X66573D02*
X66827Y2330D01*
X67081D01*
X66827Y2584D01*
X67081Y2838D01*
X66827D01*
X66573Y3092D01*
X66319Y2838D01*
X66065D01*
X66319Y2584D01*
X66065Y2330D01*
X66319D01*
X66573Y2076D01*
X55848Y2601D02*
X56102Y2855D01*
X56356D01*
X56102Y3109D01*
X56356Y3363D01*
X56102D01*
X55848Y3617D01*
X55594Y3363D01*
X55340D01*
X55594Y3109D01*
X55340Y2855D01*
X55594D01*
X55848Y2601D01*
X56848D02*
X57102Y2855D01*
X57356D01*
X57102Y3109D01*
X57356Y3363D01*
X57102D01*
X56848Y3617D01*
X56594Y3363D01*
X56340D01*
X56594Y3109D01*
X56340Y2855D01*
X56594D01*
X56848Y2601D01*
X104993Y25261D02*
X105247Y25515D01*
X105501D01*
X105247Y25769D01*
X105501Y26023D01*
X105247D01*
X104993Y26277D01*
X104739Y26023D01*
X104485D01*
X104739Y25769D01*
X104485Y25515D01*
X104739D01*
X104993Y25261D01*
X64150Y22200D02*
X64404Y22454D01*
X64658D01*
X64404Y22708D01*
X64658Y22962D01*
X64404D01*
X64150Y23216D01*
X63896Y22962D01*
X63642D01*
X63896Y22708D01*
X63642Y22454D01*
X63896D01*
X64150Y22200D01*
X259657Y33310D02*
X259911Y33564D01*
X260165D01*
X259911Y33818D01*
X260165Y34072D01*
X259911D01*
X259657Y34326D01*
X259403Y34072D01*
X259149D01*
X259403Y33818D01*
X259149Y33564D01*
X259403D01*
X259657Y33310D01*
X158175Y33317D02*
X158429Y33571D01*
X158683D01*
X158429Y33825D01*
X158683Y34079D01*
X158429D01*
X158175Y34333D01*
X157921Y34079D01*
X157667D01*
X157921Y33825D01*
X157667Y33571D01*
X157921D01*
X158175Y33317D01*
X18130Y145367D02*
X18384Y145621D01*
X18638D01*
X18384Y145875D01*
X18638Y146129D01*
X18384D01*
X18130Y146383D01*
X17876Y146129D01*
X17622D01*
X17876Y145875D01*
X17622Y145621D01*
X17876D01*
X18130Y145367D01*
X17130D02*
X17384Y145621D01*
X17638D01*
X17384Y145875D01*
X17638Y146129D01*
X17384D01*
X17130Y146383D01*
X16876Y146129D01*
X16622D01*
X16876Y145875D01*
X16622Y145621D01*
X16876D01*
X17130Y145367D01*
X16130D02*
X16384Y145621D01*
X16638D01*
X16384Y145875D01*
X16638Y146129D01*
X16384D01*
X16130Y146383D01*
X15876Y146129D01*
X15622D01*
X15876Y145875D01*
X15622Y145621D01*
X15876D01*
X16130Y145367D01*
Y144331D02*
X16384Y144585D01*
X16638D01*
X16384Y144839D01*
X16638Y145093D01*
X16384D01*
X16130Y145347D01*
X15876Y145093D01*
X15622D01*
X15876Y144839D01*
X15622Y144585D01*
X15876D01*
X16130Y144331D01*
X17130D02*
X17384Y144585D01*
X17638D01*
X17384Y144839D01*
X17638Y145093D01*
X17384D01*
X17130Y145347D01*
X16876Y145093D01*
X16622D01*
X16876Y144839D01*
X16622Y144585D01*
X16876D01*
X17130Y144331D01*
X18130D02*
X18384Y144585D01*
X18638D01*
X18384Y144839D01*
X18638Y145093D01*
X18384D01*
X18130Y145347D01*
X17876Y145093D01*
X17622D01*
X17876Y144839D01*
X17622Y144585D01*
X17876D01*
X18130Y144331D01*
Y142299D02*
X18384Y142553D01*
X18638D01*
X18384Y142807D01*
X18638Y143061D01*
X18384D01*
X18130Y143315D01*
X17876Y143061D01*
X17622D01*
X17876Y142807D01*
X17622Y142553D01*
X17876D01*
X18130Y142299D01*
X17130D02*
X17384Y142553D01*
X17638D01*
X17384Y142807D01*
X17638Y143061D01*
X17384D01*
X17130Y143315D01*
X16876Y143061D01*
X16622D01*
X16876Y142807D01*
X16622Y142553D01*
X16876D01*
X17130Y142299D01*
X16130D02*
X16384Y142553D01*
X16638D01*
X16384Y142807D01*
X16638Y143061D01*
X16384D01*
X16130Y143315D01*
X15876Y143061D01*
X15622D01*
X15876Y142807D01*
X15622Y142553D01*
X15876D01*
X16130Y142299D01*
Y143335D02*
X16384Y143589D01*
X16638D01*
X16384Y143843D01*
X16638Y144097D01*
X16384D01*
X16130Y144351D01*
X15876Y144097D01*
X15622D01*
X15876Y143843D01*
X15622Y143589D01*
X15876D01*
X16130Y143335D01*
X17130D02*
X17384Y143589D01*
X17638D01*
X17384Y143843D01*
X17638Y144097D01*
X17384D01*
X17130Y144351D01*
X16876Y144097D01*
X16622D01*
X16876Y143843D01*
X16622Y143589D01*
X16876D01*
X17130Y143335D01*
X18130D02*
X18384Y143589D01*
X18638D01*
X18384Y143843D01*
X18638Y144097D01*
X18384D01*
X18130Y144351D01*
X17876Y144097D01*
X17622D01*
X17876Y143843D01*
X17622Y143589D01*
X17876D01*
X18130Y143335D01*
X21113Y143333D02*
X21367Y143587D01*
X21621D01*
X21367Y143841D01*
X21621Y144095D01*
X21367D01*
X21113Y144349D01*
X20859Y144095D01*
X20605D01*
X20859Y143841D01*
X20605Y143587D01*
X20859D01*
X21113Y143333D01*
X20113D02*
X20367Y143587D01*
X20621D01*
X20367Y143841D01*
X20621Y144095D01*
X20367D01*
X20113Y144349D01*
X19859Y144095D01*
X19605D01*
X19859Y143841D01*
X19605Y143587D01*
X19859D01*
X20113Y143333D01*
X19113D02*
X19367Y143587D01*
X19621D01*
X19367Y143841D01*
X19621Y144095D01*
X19367D01*
X19113Y144349D01*
X18859Y144095D01*
X18605D01*
X18859Y143841D01*
X18605Y143587D01*
X18859D01*
X19113Y143333D01*
Y142297D02*
X19367Y142551D01*
X19621D01*
X19367Y142805D01*
X19621Y143059D01*
X19367D01*
X19113Y143313D01*
X18859Y143059D01*
X18605D01*
X18859Y142805D01*
X18605Y142551D01*
X18859D01*
X19113Y142297D01*
X20113D02*
X20367Y142551D01*
X20621D01*
X20367Y142805D01*
X20621Y143059D01*
X20367D01*
X20113Y143313D01*
X19859Y143059D01*
X19605D01*
X19859Y142805D01*
X19605Y142551D01*
X19859D01*
X20113Y142297D01*
X21113D02*
X21367Y142551D01*
X21621D01*
X21367Y142805D01*
X21621Y143059D01*
X21367D01*
X21113Y143313D01*
X20859Y143059D01*
X20605D01*
X20859Y142805D01*
X20605Y142551D01*
X20859D01*
X21113Y142297D01*
Y144329D02*
X21367Y144583D01*
X21621D01*
X21367Y144837D01*
X21621Y145091D01*
X21367D01*
X21113Y145345D01*
X20859Y145091D01*
X20605D01*
X20859Y144837D01*
X20605Y144583D01*
X20859D01*
X21113Y144329D01*
X20113D02*
X20367Y144583D01*
X20621D01*
X20367Y144837D01*
X20621Y145091D01*
X20367D01*
X20113Y145345D01*
X19859Y145091D01*
X19605D01*
X19859Y144837D01*
X19605Y144583D01*
X19859D01*
X20113Y144329D01*
X19113D02*
X19367Y144583D01*
X19621D01*
X19367Y144837D01*
X19621Y145091D01*
X19367D01*
X19113Y145345D01*
X18859Y145091D01*
X18605D01*
X18859Y144837D01*
X18605Y144583D01*
X18859D01*
X19113Y144329D01*
Y145365D02*
X19367Y145619D01*
X19621D01*
X19367Y145873D01*
X19621Y146127D01*
X19367D01*
X19113Y146381D01*
X18859Y146127D01*
X18605D01*
X18859Y145873D01*
X18605Y145619D01*
X18859D01*
X19113Y145365D01*
X20113D02*
X20367Y145619D01*
X20621D01*
X20367Y145873D01*
X20621Y146127D01*
X20367D01*
X20113Y146381D01*
X19859Y146127D01*
X19605D01*
X19859Y145873D01*
X19605Y145619D01*
X19859D01*
X20113Y145365D01*
X21113D02*
X21367Y145619D01*
X21621D01*
X21367Y145873D01*
X21621Y146127D01*
X21367D01*
X21113Y146381D01*
X20859Y146127D01*
X20605D01*
X20859Y145873D01*
X20605Y145619D01*
X20859D01*
X21113Y145365D01*
X314492Y174492D02*
X314746D01*
X315000Y174746D01*
X315254Y174492D01*
X315508D01*
Y174746D01*
X315254Y175000D01*
X315508Y175254D01*
Y175508D01*
X315254D01*
X315000Y175254D01*
X314746Y175508D01*
X314492D01*
Y175254D01*
X314746Y175000D01*
X314492Y174746D01*
Y174492D01*
X314695Y174695D02*
X314848D01*
X315000Y174848D01*
X315152Y174695D01*
X315305D01*
Y174848D01*
X315152Y175000D01*
X315305Y175152D01*
Y175305D01*
X315152D01*
X315000Y175152D01*
X314848Y175305D01*
X314695D01*
Y175152D01*
X314848Y175000D01*
X314695Y174848D01*
Y174695D01*
X88975Y8452D02*
X89229Y8706D01*
X89483D01*
X89229Y8960D01*
X89483Y9214D01*
X89229D01*
X88975Y9468D01*
X88721Y9214D01*
X88467D01*
X88721Y8960D01*
X88467Y8706D01*
X88721D01*
X88975Y8452D01*
X100150Y20167D02*
X100404Y20421D01*
X100658D01*
X100404Y20675D01*
X100658Y20929D01*
X100404D01*
X100150Y21183D01*
X99896Y20929D01*
X99642D01*
X99896Y20675D01*
X99642Y20421D01*
X99896D01*
X100150Y20167D01*
X58150Y33317D02*
X58404Y33571D01*
X58658D01*
X58404Y33825D01*
X58658Y34079D01*
X58404D01*
X58150Y34333D01*
X57896Y34079D01*
X57642D01*
X57896Y33825D01*
X57642Y33571D01*
X57896D01*
X58150Y33317D01*
X52060Y10542D02*
X52314Y10796D01*
X52568D01*
X52314Y11050D01*
X52568Y11304D01*
X52314D01*
X52060Y11558D01*
X51806Y11304D01*
X51552D01*
X51806Y11050D01*
X51552Y10796D01*
X51806D01*
X52060Y10542D01*
X45150Y21792D02*
X45404Y22046D01*
X45658D01*
X45404Y22300D01*
X45658Y22554D01*
X45404D01*
X45150Y22808D01*
X44896Y22554D01*
X44642D01*
X44896Y22300D01*
X44642Y22046D01*
X44896D01*
X45150Y21792D01*
X71350Y10925D02*
X71604Y11179D01*
X71858D01*
X71604Y11433D01*
X71858Y11687D01*
X71604D01*
X71350Y11941D01*
X71096Y11687D01*
X70842D01*
X71096Y11433D01*
X70842Y11179D01*
X71096D01*
X71350Y10925D01*
X65567Y9402D02*
X65821Y9910D01*
X65567Y10418D01*
X66075Y10164D01*
X66583Y10418D01*
X66329Y9910D01*
X66583Y9402D01*
X66075Y9656D01*
X65567Y9402D01*
X65770Y9605D02*
X65923Y9910D01*
X65770Y10214D01*
X66075Y10062D01*
X66380Y10214D01*
X66227Y9910D01*
X66380Y9605D01*
X66075Y9757D01*
X65770Y9605D01*
X263012Y101797D02*
X263266Y102051D01*
X263520D01*
X263266Y102305D01*
X263520Y102559D01*
X263266D01*
X263012Y102813D01*
X262758Y102559D01*
X262504D01*
X262758Y102305D01*
X262504Y102051D01*
X262758D01*
X263012Y101797D01*
X260472Y101805D02*
X260726Y102059D01*
X260980D01*
X260726Y102313D01*
X260980Y102567D01*
X260726D01*
X260472Y102821D01*
X260218Y102567D01*
X259964D01*
X260218Y102313D01*
X259964Y102059D01*
X260218D01*
X260472Y101805D01*
X163474Y101813D02*
X163728Y102067D01*
X163982D01*
X163728Y102321D01*
X163982Y102575D01*
X163728D01*
X163474Y102829D01*
X163220Y102575D01*
X162966D01*
X163220Y102321D01*
X162966Y102067D01*
X163220D01*
X163474Y101813D01*
X160985Y101839D02*
X161239Y102093D01*
X161493D01*
X161239Y102347D01*
X161493Y102601D01*
X161239D01*
X160985Y102855D01*
X160731Y102601D01*
X160477D01*
X160731Y102347D01*
X160477Y102093D01*
X160731D01*
X160985Y101839D01*
X61341Y101813D02*
X61595Y102067D01*
X61849D01*
X61595Y102321D01*
X61849Y102575D01*
X61595D01*
X61341Y102829D01*
X61087Y102575D01*
X60833D01*
X61087Y102321D01*
X60833Y102067D01*
X61087D01*
X61341Y101813D01*
X63881D02*
X64135Y102067D01*
X64389D01*
X64135Y102321D01*
X64389Y102575D01*
X64135D01*
X63881Y102829D01*
X63627Y102575D01*
X63373D01*
X63627Y102321D01*
X63373Y102067D01*
X63627D01*
X63881Y101813D01*
X245161Y86573D02*
X245415Y86827D01*
X245669D01*
X245415Y87081D01*
X245669Y87335D01*
X245415D01*
X245161Y87589D01*
X244907Y87335D01*
X244653D01*
X244907Y87081D01*
X244653Y86827D01*
X244907D01*
X245161Y86573D01*
X145694Y86472D02*
X145948Y86726D01*
X146202D01*
X145948Y86980D01*
X146202Y87234D01*
X145948D01*
X145694Y87488D01*
X145440Y87234D01*
X145186D01*
X145440Y86980D01*
X145186Y86726D01*
X145440D01*
X145694Y86472D01*
X43586Y87310D02*
X43840Y87564D01*
X44094D01*
X43840Y87818D01*
X44094Y88072D01*
X43840D01*
X43586Y88326D01*
X43332Y88072D01*
X43078D01*
X43332Y87818D01*
X43078Y87564D01*
X43332D01*
X43586Y87310D01*
X58004Y46281D02*
X58258Y46535D01*
X58512D01*
X58258Y46789D01*
X58512Y47043D01*
X58258D01*
X58004Y47297D01*
X57750Y47043D01*
X57496D01*
X57750Y46789D01*
X57496Y46535D01*
X57750D01*
X58004Y46281D01*
X64329Y46231D02*
X64583Y46485D01*
X64837D01*
X64583Y46739D01*
X64837Y46993D01*
X64583D01*
X64329Y47247D01*
X64075Y46993D01*
X63821D01*
X64075Y46739D01*
X63821Y46485D01*
X64075D01*
X64329Y46231D01*
X50196Y79553D02*
X50450Y79807D01*
X50704D01*
X50450Y80061D01*
X50704Y80315D01*
X50450D01*
X50196Y80569D01*
X49942Y80315D01*
X49688D01*
X49942Y80061D01*
X49688Y79807D01*
X49942D01*
X50196Y79553D01*
X50286Y66053D02*
X50540Y66307D01*
X50794D01*
X50540Y66561D01*
X50794Y66815D01*
X50540D01*
X50286Y67069D01*
X50032Y66815D01*
X49778D01*
X50032Y66561D01*
X49778Y66307D01*
X50032D01*
X50286Y66053D01*
X53416Y63266D02*
X53670Y63520D01*
X53924D01*
X53670Y63774D01*
X53924Y64028D01*
X53670D01*
X53416Y64282D01*
X53162Y64028D01*
X52908D01*
X53162Y63774D01*
X52908Y63520D01*
X53162D01*
X53416Y63266D01*
X64836Y66303D02*
X65090Y66557D01*
X65344D01*
X65090Y66811D01*
X65344Y67065D01*
X65090D01*
X64836Y67319D01*
X64582Y67065D01*
X64328D01*
X64582Y66811D01*
X64328Y66557D01*
X64582D01*
X64836Y66303D01*
X68876Y66343D02*
X69130Y66597D01*
X69384D01*
X69130Y66851D01*
X69384Y67105D01*
X69130D01*
X68876Y67359D01*
X68622Y67105D01*
X68368D01*
X68622Y66851D01*
X68368Y66597D01*
X68622D01*
X68876Y66343D01*
X54406Y66063D02*
X54660Y66317D01*
X54914D01*
X54660Y66571D01*
X54914Y66825D01*
X54660D01*
X54406Y67079D01*
X54152Y66825D01*
X53898D01*
X54152Y66571D01*
X53898Y66317D01*
X54152D01*
X54406Y66063D01*
X64686Y79587D02*
X64940Y79841D01*
X65194D01*
X64940Y80095D01*
X65194Y80349D01*
X64940D01*
X64686Y80603D01*
X64432Y80349D01*
X64178D01*
X64432Y80095D01*
X64178Y79841D01*
X64432D01*
X64686Y79587D01*
X268748Y79182D02*
X269002Y79436D01*
X269256D01*
X269002Y79690D01*
X269256Y79944D01*
X269002D01*
X268748Y80198D01*
X268494Y79944D01*
X268240D01*
X268494Y79690D01*
X268240Y79436D01*
X268494D01*
X268748Y79182D01*
X270564Y65696D02*
X270818Y65950D01*
X271072D01*
X270818Y66204D01*
X271072Y66458D01*
X270818D01*
X270564Y66712D01*
X270310Y66458D01*
X270056D01*
X270310Y66204D01*
X270056Y65950D01*
X270310D01*
X270564Y65696D01*
X267489Y63846D02*
X267743Y64100D01*
X267997D01*
X267743Y64354D01*
X267997Y64608D01*
X267743D01*
X267489Y64862D01*
X267235Y64608D01*
X266981D01*
X267235Y64354D01*
X266981Y64100D01*
X267235D01*
X267489Y63846D01*
X265938Y65712D02*
X266192Y65966D01*
X266446D01*
X266192Y66220D01*
X266446Y66474D01*
X266192D01*
X265938Y66728D01*
X265684Y66474D01*
X265430D01*
X265684Y66220D01*
X265430Y65966D01*
X265684D01*
X265938Y65712D01*
X254337Y79166D02*
X254591Y79420D01*
X254845D01*
X254591Y79674D01*
X254845Y79928D01*
X254591D01*
X254337Y80182D01*
X254083Y79928D01*
X253829D01*
X254083Y79674D01*
X253829Y79420D01*
X254083D01*
X254337Y79166D01*
X256187Y65676D02*
X256441Y65930D01*
X256695D01*
X256441Y66184D01*
X256695Y66438D01*
X256441D01*
X256187Y66692D01*
X255933Y66438D01*
X255679D01*
X255933Y66184D01*
X255679Y65930D01*
X255933D01*
X256187Y65676D01*
X252127Y65696D02*
X252381Y65950D01*
X252635D01*
X252381Y66204D01*
X252635Y66458D01*
X252381D01*
X252127Y66712D01*
X251873Y66458D01*
X251619D01*
X251873Y66204D01*
X251619Y65950D01*
X251873D01*
X252127Y65696D01*
X265622Y46027D02*
X265876Y46281D01*
X266130D01*
X265876Y46535D01*
X266130Y46789D01*
X265876D01*
X265622Y47043D01*
X265368Y46789D01*
X265114D01*
X265368Y46535D01*
X265114Y46281D01*
X265368D01*
X265622Y46027D01*
X259221Y45971D02*
X259475Y46225D01*
X259729D01*
X259475Y46479D01*
X259729Y46733D01*
X259475D01*
X259221Y46987D01*
X258967Y46733D01*
X258713D01*
X258967Y46479D01*
X258713Y46225D01*
X258967D01*
X259221Y45971D01*
X155893Y65423D02*
X156147Y65677D01*
X156401D01*
X156147Y65931D01*
X156401Y66185D01*
X156147D01*
X155893Y66439D01*
X155639Y66185D01*
X155385D01*
X155639Y65931D01*
X155385Y65677D01*
X155639D01*
X155893Y65423D01*
X152193D02*
X152447Y65677D01*
X152701D01*
X152447Y65931D01*
X152701Y66185D01*
X152447D01*
X152193Y66439D01*
X151939Y66185D01*
X151685D01*
X151939Y65931D01*
X151685Y65677D01*
X151939D01*
X152193Y65423D01*
X104514Y160558D02*
X104768Y160812D01*
X105022D01*
X104768Y161066D01*
X105022Y161320D01*
X104768D01*
X104514Y161574D01*
X104260Y161320D01*
X104006D01*
X104260Y161066D01*
X104006Y160812D01*
X104260D01*
X104514Y160558D01*
X103514D02*
X103768Y160812D01*
X104022D01*
X103768Y161066D01*
X104022Y161320D01*
X103768D01*
X103514Y161574D01*
X103260Y161320D01*
X103006D01*
X103260Y161066D01*
X103006Y160812D01*
X103260D01*
X103514Y160558D01*
X102514D02*
X102768Y160812D01*
X103022D01*
X102768Y161066D01*
X103022Y161320D01*
X102768D01*
X102514Y161574D01*
X102260Y161320D01*
X102006D01*
X102260Y161066D01*
X102006Y160812D01*
X102260D01*
X102514Y160558D01*
X101514D02*
X101768Y160812D01*
X102022D01*
X101768Y161066D01*
X102022Y161320D01*
X101768D01*
X101514Y161574D01*
X101260Y161320D01*
X101006D01*
X101260Y161066D01*
X101006Y160812D01*
X101260D01*
X101514Y160558D01*
X100514D02*
X100768Y160812D01*
X101022D01*
X100768Y161066D01*
X101022Y161320D01*
X100768D01*
X100514Y161574D01*
X100260Y161320D01*
X100006D01*
X100260Y161066D01*
X100006Y160812D01*
X100260D01*
X100514Y160558D01*
X99514D02*
X99768Y160812D01*
X100022D01*
X99768Y161066D01*
X100022Y161320D01*
X99768D01*
X99514Y161574D01*
X99260Y161320D01*
X99006D01*
X99260Y161066D01*
X99006Y160812D01*
X99260D01*
X99514Y160558D01*
X98514D02*
X98768Y160812D01*
X99022D01*
X98768Y161066D01*
X99022Y161320D01*
X98768D01*
X98514Y161574D01*
X98260Y161320D01*
X98006D01*
X98260Y161066D01*
X98006Y160812D01*
X98260D01*
X98514Y160558D01*
X97514D02*
X97768Y160812D01*
X98022D01*
X97768Y161066D01*
X98022Y161320D01*
X97768D01*
X97514Y161574D01*
X97260Y161320D01*
X97006D01*
X97260Y161066D01*
X97006Y160812D01*
X97260D01*
X97514Y160558D01*
Y159522D02*
X97768Y159776D01*
X98022D01*
X97768Y160030D01*
X98022Y160284D01*
X97768D01*
X97514Y160538D01*
X97260Y160284D01*
X97006D01*
X97260Y160030D01*
X97006Y159776D01*
X97260D01*
X97514Y159522D01*
X98514D02*
X98768Y159776D01*
X99022D01*
X98768Y160030D01*
X99022Y160284D01*
X98768D01*
X98514Y160538D01*
X98260Y160284D01*
X98006D01*
X98260Y160030D01*
X98006Y159776D01*
X98260D01*
X98514Y159522D01*
X99514D02*
X99768Y159776D01*
X100022D01*
X99768Y160030D01*
X100022Y160284D01*
X99768D01*
X99514Y160538D01*
X99260Y160284D01*
X99006D01*
X99260Y160030D01*
X99006Y159776D01*
X99260D01*
X99514Y159522D01*
X100514D02*
X100768Y159776D01*
X101022D01*
X100768Y160030D01*
X101022Y160284D01*
X100768D01*
X100514Y160538D01*
X100260Y160284D01*
X100006D01*
X100260Y160030D01*
X100006Y159776D01*
X100260D01*
X100514Y159522D01*
X101514D02*
X101768Y159776D01*
X102022D01*
X101768Y160030D01*
X102022Y160284D01*
X101768D01*
X101514Y160538D01*
X101260Y160284D01*
X101006D01*
X101260Y160030D01*
X101006Y159776D01*
X101260D01*
X101514Y159522D01*
X102514D02*
X102768Y159776D01*
X103022D01*
X102768Y160030D01*
X103022Y160284D01*
X102768D01*
X102514Y160538D01*
X102260Y160284D01*
X102006D01*
X102260Y160030D01*
X102006Y159776D01*
X102260D01*
X102514Y159522D01*
X103514D02*
X103768Y159776D01*
X104022D01*
X103768Y160030D01*
X104022Y160284D01*
X103768D01*
X103514Y160538D01*
X103260Y160284D01*
X103006D01*
X103260Y160030D01*
X103006Y159776D01*
X103260D01*
X103514Y159522D01*
X104514D02*
X104768Y159776D01*
X105022D01*
X104768Y160030D01*
X105022Y160284D01*
X104768D01*
X104514Y160538D01*
X104260Y160284D01*
X104006D01*
X104260Y160030D01*
X104006Y159776D01*
X104260D01*
X104514Y159522D01*
Y161554D02*
X104768Y161808D01*
X105022D01*
X104768Y162062D01*
X105022Y162316D01*
X104768D01*
X104514Y162570D01*
X104260Y162316D01*
X104006D01*
X104260Y162062D01*
X104006Y161808D01*
X104260D01*
X104514Y161554D01*
X103514D02*
X103768Y161808D01*
X104022D01*
X103768Y162062D01*
X104022Y162316D01*
X103768D01*
X103514Y162570D01*
X103260Y162316D01*
X103006D01*
X103260Y162062D01*
X103006Y161808D01*
X103260D01*
X103514Y161554D01*
X102514D02*
X102768Y161808D01*
X103022D01*
X102768Y162062D01*
X103022Y162316D01*
X102768D01*
X102514Y162570D01*
X102260Y162316D01*
X102006D01*
X102260Y162062D01*
X102006Y161808D01*
X102260D01*
X102514Y161554D01*
X101514D02*
X101768Y161808D01*
X102022D01*
X101768Y162062D01*
X102022Y162316D01*
X101768D01*
X101514Y162570D01*
X101260Y162316D01*
X101006D01*
X101260Y162062D01*
X101006Y161808D01*
X101260D01*
X101514Y161554D01*
X100514D02*
X100768Y161808D01*
X101022D01*
X100768Y162062D01*
X101022Y162316D01*
X100768D01*
X100514Y162570D01*
X100260Y162316D01*
X100006D01*
X100260Y162062D01*
X100006Y161808D01*
X100260D01*
X100514Y161554D01*
X99514D02*
X99768Y161808D01*
X100022D01*
X99768Y162062D01*
X100022Y162316D01*
X99768D01*
X99514Y162570D01*
X99260Y162316D01*
X99006D01*
X99260Y162062D01*
X99006Y161808D01*
X99260D01*
X99514Y161554D01*
X98514D02*
X98768Y161808D01*
X99022D01*
X98768Y162062D01*
X99022Y162316D01*
X98768D01*
X98514Y162570D01*
X98260Y162316D01*
X98006D01*
X98260Y162062D01*
X98006Y161808D01*
X98260D01*
X98514Y161554D01*
X97514D02*
X97768Y161808D01*
X98022D01*
X97768Y162062D01*
X98022Y162316D01*
X97768D01*
X97514Y162570D01*
X97260Y162316D01*
X97006D01*
X97260Y162062D01*
X97006Y161808D01*
X97260D01*
X97514Y161554D01*
Y162590D02*
X97768Y162844D01*
X98022D01*
X97768Y163098D01*
X98022Y163352D01*
X97768D01*
X97514Y163606D01*
X97260Y163352D01*
X97006D01*
X97260Y163098D01*
X97006Y162844D01*
X97260D01*
X97514Y162590D01*
X98514D02*
X98768Y162844D01*
X99022D01*
X98768Y163098D01*
X99022Y163352D01*
X98768D01*
X98514Y163606D01*
X98260Y163352D01*
X98006D01*
X98260Y163098D01*
X98006Y162844D01*
X98260D01*
X98514Y162590D01*
X99514D02*
X99768Y162844D01*
X100022D01*
X99768Y163098D01*
X100022Y163352D01*
X99768D01*
X99514Y163606D01*
X99260Y163352D01*
X99006D01*
X99260Y163098D01*
X99006Y162844D01*
X99260D01*
X99514Y162590D01*
X100514D02*
X100768Y162844D01*
X101022D01*
X100768Y163098D01*
X101022Y163352D01*
X100768D01*
X100514Y163606D01*
X100260Y163352D01*
X100006D01*
X100260Y163098D01*
X100006Y162844D01*
X100260D01*
X100514Y162590D01*
X101514D02*
X101768Y162844D01*
X102022D01*
X101768Y163098D01*
X102022Y163352D01*
X101768D01*
X101514Y163606D01*
X101260Y163352D01*
X101006D01*
X101260Y163098D01*
X101006Y162844D01*
X101260D01*
X101514Y162590D01*
X102514D02*
X102768Y162844D01*
X103022D01*
X102768Y163098D01*
X103022Y163352D01*
X102768D01*
X102514Y163606D01*
X102260Y163352D01*
X102006D01*
X102260Y163098D01*
X102006Y162844D01*
X102260D01*
X102514Y162590D01*
X103514D02*
X103768Y162844D01*
X104022D01*
X103768Y163098D01*
X104022Y163352D01*
X103768D01*
X103514Y163606D01*
X103260Y163352D01*
X103006D01*
X103260Y163098D01*
X103006Y162844D01*
X103260D01*
X103514Y162590D01*
X104514D02*
X104768Y162844D01*
X105022D01*
X104768Y163098D01*
X105022Y163352D01*
X104768D01*
X104514Y163606D01*
X104260Y163352D01*
X104006D01*
X104260Y163098D01*
X104006Y162844D01*
X104260D01*
X104514Y162590D01*
X96513D02*
X96767Y162844D01*
X97021D01*
X96767Y163098D01*
X97021Y163352D01*
X96767D01*
X96513Y163606D01*
X96259Y163352D01*
X96005D01*
X96259Y163098D01*
X96005Y162844D01*
X96259D01*
X96513Y162590D01*
X95513D02*
X95767Y162844D01*
X96021D01*
X95767Y163098D01*
X96021Y163352D01*
X95767D01*
X95513Y163606D01*
X95259Y163352D01*
X95005D01*
X95259Y163098D01*
X95005Y162844D01*
X95259D01*
X95513Y162590D01*
X94513D02*
X94767Y162844D01*
X95021D01*
X94767Y163098D01*
X95021Y163352D01*
X94767D01*
X94513Y163606D01*
X94259Y163352D01*
X94005D01*
X94259Y163098D01*
X94005Y162844D01*
X94259D01*
X94513Y162590D01*
X93513D02*
X93767Y162844D01*
X94021D01*
X93767Y163098D01*
X94021Y163352D01*
X93767D01*
X93513Y163606D01*
X93259Y163352D01*
X93005D01*
X93259Y163098D01*
X93005Y162844D01*
X93259D01*
X93513Y162590D01*
X92513D02*
X92767Y162844D01*
X93021D01*
X92767Y163098D01*
X93021Y163352D01*
X92767D01*
X92513Y163606D01*
X92259Y163352D01*
X92005D01*
X92259Y163098D01*
X92005Y162844D01*
X92259D01*
X92513Y162590D01*
X91513D02*
X91767Y162844D01*
X92021D01*
X91767Y163098D01*
X92021Y163352D01*
X91767D01*
X91513Y163606D01*
X91259Y163352D01*
X91005D01*
X91259Y163098D01*
X91005Y162844D01*
X91259D01*
X91513Y162590D01*
X90513D02*
X90767Y162844D01*
X91021D01*
X90767Y163098D01*
X91021Y163352D01*
X90767D01*
X90513Y163606D01*
X90259Y163352D01*
X90005D01*
X90259Y163098D01*
X90005Y162844D01*
X90259D01*
X90513Y162590D01*
X89513D02*
X89767Y162844D01*
X90021D01*
X89767Y163098D01*
X90021Y163352D01*
X89767D01*
X89513Y163606D01*
X89259Y163352D01*
X89005D01*
X89259Y163098D01*
X89005Y162844D01*
X89259D01*
X89513Y162590D01*
Y161554D02*
X89767Y161808D01*
X90021D01*
X89767Y162062D01*
X90021Y162316D01*
X89767D01*
X89513Y162570D01*
X89259Y162316D01*
X89005D01*
X89259Y162062D01*
X89005Y161808D01*
X89259D01*
X89513Y161554D01*
X90513D02*
X90767Y161808D01*
X91021D01*
X90767Y162062D01*
X91021Y162316D01*
X90767D01*
X90513Y162570D01*
X90259Y162316D01*
X90005D01*
X90259Y162062D01*
X90005Y161808D01*
X90259D01*
X90513Y161554D01*
X91513D02*
X91767Y161808D01*
X92021D01*
X91767Y162062D01*
X92021Y162316D01*
X91767D01*
X91513Y162570D01*
X91259Y162316D01*
X91005D01*
X91259Y162062D01*
X91005Y161808D01*
X91259D01*
X91513Y161554D01*
X92513D02*
X92767Y161808D01*
X93021D01*
X92767Y162062D01*
X93021Y162316D01*
X92767D01*
X92513Y162570D01*
X92259Y162316D01*
X92005D01*
X92259Y162062D01*
X92005Y161808D01*
X92259D01*
X92513Y161554D01*
X93513D02*
X93767Y161808D01*
X94021D01*
X93767Y162062D01*
X94021Y162316D01*
X93767D01*
X93513Y162570D01*
X93259Y162316D01*
X93005D01*
X93259Y162062D01*
X93005Y161808D01*
X93259D01*
X93513Y161554D01*
X94513D02*
X94767Y161808D01*
X95021D01*
X94767Y162062D01*
X95021Y162316D01*
X94767D01*
X94513Y162570D01*
X94259Y162316D01*
X94005D01*
X94259Y162062D01*
X94005Y161808D01*
X94259D01*
X94513Y161554D01*
X95513D02*
X95767Y161808D01*
X96021D01*
X95767Y162062D01*
X96021Y162316D01*
X95767D01*
X95513Y162570D01*
X95259Y162316D01*
X95005D01*
X95259Y162062D01*
X95005Y161808D01*
X95259D01*
X95513Y161554D01*
X96513D02*
X96767Y161808D01*
X97021D01*
X96767Y162062D01*
X97021Y162316D01*
X96767D01*
X96513Y162570D01*
X96259Y162316D01*
X96005D01*
X96259Y162062D01*
X96005Y161808D01*
X96259D01*
X96513Y161554D01*
Y159522D02*
X96767Y159776D01*
X97021D01*
X96767Y160030D01*
X97021Y160284D01*
X96767D01*
X96513Y160538D01*
X96259Y160284D01*
X96005D01*
X96259Y160030D01*
X96005Y159776D01*
X96259D01*
X96513Y159522D01*
X95513D02*
X95767Y159776D01*
X96021D01*
X95767Y160030D01*
X96021Y160284D01*
X95767D01*
X95513Y160538D01*
X95259Y160284D01*
X95005D01*
X95259Y160030D01*
X95005Y159776D01*
X95259D01*
X95513Y159522D01*
X94513D02*
X94767Y159776D01*
X95021D01*
X94767Y160030D01*
X95021Y160284D01*
X94767D01*
X94513Y160538D01*
X94259Y160284D01*
X94005D01*
X94259Y160030D01*
X94005Y159776D01*
X94259D01*
X94513Y159522D01*
X93513D02*
X93767Y159776D01*
X94021D01*
X93767Y160030D01*
X94021Y160284D01*
X93767D01*
X93513Y160538D01*
X93259Y160284D01*
X93005D01*
X93259Y160030D01*
X93005Y159776D01*
X93259D01*
X93513Y159522D01*
X92513D02*
X92767Y159776D01*
X93021D01*
X92767Y160030D01*
X93021Y160284D01*
X92767D01*
X92513Y160538D01*
X92259Y160284D01*
X92005D01*
X92259Y160030D01*
X92005Y159776D01*
X92259D01*
X92513Y159522D01*
X91513D02*
X91767Y159776D01*
X92021D01*
X91767Y160030D01*
X92021Y160284D01*
X91767D01*
X91513Y160538D01*
X91259Y160284D01*
X91005D01*
X91259Y160030D01*
X91005Y159776D01*
X91259D01*
X91513Y159522D01*
X90513D02*
X90767Y159776D01*
X91021D01*
X90767Y160030D01*
X91021Y160284D01*
X90767D01*
X90513Y160538D01*
X90259Y160284D01*
X90005D01*
X90259Y160030D01*
X90005Y159776D01*
X90259D01*
X90513Y159522D01*
X89513D02*
X89767Y159776D01*
X90021D01*
X89767Y160030D01*
X90021Y160284D01*
X89767D01*
X89513Y160538D01*
X89259Y160284D01*
X89005D01*
X89259Y160030D01*
X89005Y159776D01*
X89259D01*
X89513Y159522D01*
Y160558D02*
X89767Y160812D01*
X90021D01*
X89767Y161066D01*
X90021Y161320D01*
X89767D01*
X89513Y161574D01*
X89259Y161320D01*
X89005D01*
X89259Y161066D01*
X89005Y160812D01*
X89259D01*
X89513Y160558D01*
X90513D02*
X90767Y160812D01*
X91021D01*
X90767Y161066D01*
X91021Y161320D01*
X90767D01*
X90513Y161574D01*
X90259Y161320D01*
X90005D01*
X90259Y161066D01*
X90005Y160812D01*
X90259D01*
X90513Y160558D01*
X91513D02*
X91767Y160812D01*
X92021D01*
X91767Y161066D01*
X92021Y161320D01*
X91767D01*
X91513Y161574D01*
X91259Y161320D01*
X91005D01*
X91259Y161066D01*
X91005Y160812D01*
X91259D01*
X91513Y160558D01*
X92513D02*
X92767Y160812D01*
X93021D01*
X92767Y161066D01*
X93021Y161320D01*
X92767D01*
X92513Y161574D01*
X92259Y161320D01*
X92005D01*
X92259Y161066D01*
X92005Y160812D01*
X92259D01*
X92513Y160558D01*
X93513D02*
X93767Y160812D01*
X94021D01*
X93767Y161066D01*
X94021Y161320D01*
X93767D01*
X93513Y161574D01*
X93259Y161320D01*
X93005D01*
X93259Y161066D01*
X93005Y160812D01*
X93259D01*
X93513Y160558D01*
X94513D02*
X94767Y160812D01*
X95021D01*
X94767Y161066D01*
X95021Y161320D01*
X94767D01*
X94513Y161574D01*
X94259Y161320D01*
X94005D01*
X94259Y161066D01*
X94005Y160812D01*
X94259D01*
X94513Y160558D01*
X95513D02*
X95767Y160812D01*
X96021D01*
X95767Y161066D01*
X96021Y161320D01*
X95767D01*
X95513Y161574D01*
X95259Y161320D01*
X95005D01*
X95259Y161066D01*
X95005Y160812D01*
X95259D01*
X95513Y160558D01*
X96513D02*
X96767Y160812D01*
X97021D01*
X96767Y161066D01*
X97021Y161320D01*
X96767D01*
X96513Y161574D01*
X96259Y161320D01*
X96005D01*
X96259Y161066D01*
X96005Y160812D01*
X96259D01*
X96513Y160558D01*
X158316Y45988D02*
X158570Y46242D01*
X158824D01*
X158570Y46496D01*
X158824Y46750D01*
X158570D01*
X158316Y47004D01*
X158062Y46750D01*
X157808D01*
X158062Y46496D01*
X157808Y46242D01*
X158062D01*
X158316Y45988D01*
X164628Y46017D02*
X164882Y46271D01*
X165136D01*
X164882Y46525D01*
X165136Y46779D01*
X164882D01*
X164628Y47033D01*
X164374Y46779D01*
X164120D01*
X164374Y46525D01*
X164120Y46271D01*
X164374D01*
X164628Y46017D01*
X154953Y79298D02*
X155207Y79552D01*
X155461D01*
X155207Y79806D01*
X155461Y80060D01*
X155207D01*
X154953Y80314D01*
X154699Y80060D01*
X154445D01*
X154699Y79806D01*
X154445Y79552D01*
X154699D01*
X154953Y79298D01*
X168573D02*
X168827Y79552D01*
X169081D01*
X168827Y79806D01*
X169081Y80060D01*
X168827D01*
X168573Y80314D01*
X168319Y80060D01*
X168065D01*
X168319Y79806D01*
X168065Y79552D01*
X168319D01*
X168573Y79298D01*
D142*
X304913Y22505D02*
G03*
X304913Y22505I-508J0D01*
G01*
Y47495D02*
G03*
X304913Y47495I-508J0D01*
G01*
X6383Y132700D02*
G03*
X6383Y132700I-508J0D01*
G01*
X22724Y59275D02*
G03*
X22724Y59275I-508J0D01*
G01*
X22074Y59264D02*
G03*
X22074Y59264I-508J0D01*
G01*
X23374Y59275D02*
G03*
X23374Y59275I-508J0D01*
G01*
X126992Y775D02*
G03*
X126992Y775I-508J0D01*
G01*
X182858Y4180D02*
G03*
X182858Y4180I-508J0D01*
G01*
X182108Y4970D02*
G03*
X182108Y4970I-508J0D01*
G01*
X186308Y2425D02*
G03*
X186308Y2425I-508J0D01*
G01*
X183613Y3450D02*
G03*
X183613Y3450I-508J0D01*
G01*
X188533Y2425D02*
G03*
X188533Y2425I-508J0D01*
G01*
Y3450D02*
G03*
X188533Y3450I-508J0D01*
G01*
X185343Y8569D02*
G03*
X185343Y8569I-508J0D01*
G01*
X235607Y11630D02*
G03*
X235607Y11630I-508J0D01*
G01*
X236258D02*
G03*
X236258Y11630I-508J0D01*
G01*
X236908D02*
G03*
X236908Y11630I-508J0D01*
G01*
X32533Y119650D02*
G03*
X32533Y119650I-508J0D01*
G01*
X203915Y36515D02*
G03*
X203915Y36515I-508J0D01*
G01*
X130058Y29025D02*
G03*
X130058Y29025I-508J0D01*
G01*
X86912Y29775D02*
G03*
X86912Y29775I-508J0D01*
G01*
X83823Y28539D02*
G03*
X83823Y28539I-508J0D01*
G01*
X17851Y72509D02*
G03*
X17851Y72509I-508J0D01*
G01*
X17301Y73091D02*
G03*
X17301Y73091I-508J0D01*
G01*
X88904Y28539D02*
G03*
X88904Y28539I-508J0D01*
G01*
X302112Y64312D02*
G03*
X302112Y64312I-508J0D01*
G01*
X16699Y73649D02*
G03*
X16699Y73649I-508J0D01*
G01*
X81818Y31079D02*
G03*
X81818Y31079I-508J0D01*
G01*
X87375Y36579D02*
G03*
X87375Y36579I-508J0D01*
G01*
X111850Y37779D02*
G03*
X111850Y37779I-508J0D01*
G01*
X119308Y38509D02*
G03*
X119308Y38509I-508J0D01*
G01*
X140258Y35195D02*
G03*
X140258Y35195I-508J0D01*
G01*
X156333Y35400D02*
G03*
X156333Y35400I-508J0D01*
G01*
X198608Y35425D02*
G03*
X198608Y35425I-508J0D01*
G01*
X258510Y29278D02*
G03*
X258510Y29278I-508J0D01*
G01*
X258508Y31200D02*
G03*
X258508Y31200I-508J0D01*
G01*
X255783Y32375D02*
G03*
X255783Y32375I-508J0D01*
G01*
X174136Y12631D02*
G03*
X174136Y12631I-508J0D01*
G01*
X162658Y12915D02*
G03*
X162658Y12915I-508J0D01*
G01*
X175138Y12631D02*
G03*
X175138Y12631I-508J0D01*
G01*
X7433Y91125D02*
G03*
X7433Y91125I-508J0D01*
G01*
X10056Y78817D02*
G03*
X10056Y78817I-508J0D01*
G01*
X100753Y26800D02*
G03*
X100753Y26800I-508J0D01*
G01*
X205833Y29800D02*
G03*
X205833Y29800I-508J0D01*
G01*
X66344Y37926D02*
G03*
X66344Y37926I-508J0D01*
G01*
X165233Y21025D02*
G03*
X165233Y21025I-508J0D01*
G01*
X152283Y30275D02*
G03*
X152283Y30275I-508J0D01*
G01*
X156383Y28450D02*
G03*
X156383Y28450I-508J0D01*
G01*
X123283Y38775D02*
G03*
X123283Y38775I-508J0D01*
G01*
X118358Y39975D02*
G03*
X118358Y39975I-508J0D01*
G01*
X120508Y40975D02*
G03*
X120508Y40975I-508J0D01*
G01*
X200908Y30000D02*
G03*
X200908Y30000I-508J0D01*
G01*
Y18700D02*
G03*
X200908Y18700I-508J0D01*
G01*
X202903Y24357D02*
G03*
X202903Y24357I-508J0D01*
G01*
X213069Y27607D02*
G03*
X213069Y27607I-508J0D01*
G01*
X176683Y29299D02*
G03*
X176683Y29299I-508J0D01*
G01*
X67213Y35068D02*
G03*
X67213Y35068I-508J0D01*
G01*
X146133Y31925D02*
G03*
X146133Y31925I-508J0D01*
G01*
X185258Y19975D02*
G03*
X185258Y19975I-508J0D01*
G01*
X184359Y20705D02*
G03*
X184359Y20705I-508J0D01*
G01*
X185408Y29800D02*
G03*
X185408Y29800I-508J0D01*
G01*
X180859Y27568D02*
G03*
X180859Y27568I-508J0D01*
G01*
X172383Y28500D02*
G03*
X172383Y28500I-508J0D01*
G01*
X181976Y29299D02*
G03*
X181976Y29299I-508J0D01*
G01*
X178958Y29300D02*
G03*
X178958Y29300I-508J0D01*
G01*
X175283D02*
G03*
X175283Y29300I-508J0D01*
G01*
X119333Y14475D02*
G03*
X119333Y14475I-508J0D01*
G01*
X6232Y82922D02*
G03*
X6232Y82922I-508J0D01*
G01*
X313882Y42354D02*
G03*
X313882Y42354I-508J0D01*
G01*
X313932Y39677D02*
G03*
X313932Y39677I-508J0D01*
G01*
X298292Y15338D02*
G03*
X298292Y15338I-508J0D01*
G01*
X298266Y21338D02*
G03*
X298266Y21338I-508J0D01*
G01*
Y27363D02*
G03*
X298266Y27363I-508J0D01*
G01*
X269833Y32800D02*
G03*
X269833Y32800I-508J0D01*
G01*
X263720Y37683D02*
G03*
X263720Y37683I-508J0D01*
G01*
X262920D02*
G03*
X262920Y37683I-508J0D01*
G01*
X261345Y38688D02*
G03*
X261345Y38688I-508J0D01*
G01*
X269832Y33600D02*
G03*
X269832Y33600I-508J0D01*
G01*
X22402Y23338D02*
G03*
X22402Y23338I-508J0D01*
G01*
X40958Y43075D02*
G03*
X40958Y43075I-508J0D01*
G01*
X246726Y49700D02*
G03*
X246726Y49700I-508J0D01*
G01*
X219608Y16150D02*
G03*
X219608Y16150I-508J0D01*
G01*
X271208Y33800D02*
G03*
X271208Y33800I-508J0D01*
G01*
X275733Y32700D02*
G03*
X275733Y32700I-508J0D01*
G01*
X282603Y38300D02*
G03*
X282603Y38300I-508J0D01*
G01*
X245208Y39850D02*
G03*
X245208Y39850I-508J0D01*
G01*
X224133Y36400D02*
G03*
X224133Y36400I-508J0D01*
G01*
X219658Y36375D02*
G03*
X219658Y36375I-508J0D01*
G01*
X225258Y37500D02*
G03*
X225258Y37500I-508J0D01*
G01*
X227608Y38600D02*
G03*
X227608Y38600I-508J0D01*
G01*
X204899Y15071D02*
G03*
X204899Y15071I-508J0D01*
G01*
X148057Y19850D02*
G03*
X148057Y19850I-508J0D01*
G01*
X218558Y37525D02*
G03*
X218558Y37525I-508J0D01*
G01*
X178959Y16288D02*
G03*
X178959Y16288I-508J0D01*
G01*
X179746Y19975D02*
G03*
X179746Y19975I-508J0D01*
G01*
X193533Y38575D02*
G03*
X193533Y38575I-508J0D01*
G01*
X159208Y19245D02*
G03*
X159208Y19245I-508J0D01*
G01*
X211283Y17125D02*
G03*
X211283Y17125I-508J0D01*
G01*
X212863D02*
G03*
X212863Y17125I-508J0D01*
G01*
X204899Y16199D02*
G03*
X204899Y16199I-508J0D01*
G01*
X211268Y23375D02*
G03*
X211268Y23375I-508J0D01*
G01*
X189538Y11881D02*
G03*
X189538Y11881I-508J0D01*
G01*
X180249Y9132D02*
G03*
X180249Y9132I-508J0D01*
G01*
Y8100D02*
G03*
X180249Y8100I-508J0D01*
G01*
X177458Y6925D02*
G03*
X177458Y6925I-508J0D01*
G01*
X178480Y9746D02*
G03*
X178480Y9746I-508J0D01*
G01*
X181129Y5700D02*
G03*
X181129Y5700I-508J0D01*
G01*
X187508Y28125D02*
G03*
X187508Y28125I-508J0D01*
G01*
X188485Y28947D02*
G03*
X188485Y28947I-508J0D01*
G01*
X199008Y42925D02*
G03*
X199008Y42925I-508J0D01*
G01*
X200225Y40952D02*
G03*
X200225Y40952I-508J0D01*
G01*
X199008Y41800D02*
G03*
X199008Y41800I-508J0D01*
G01*
X181976Y27327D02*
G03*
X181976Y27327I-508J0D01*
G01*
X209998Y28975D02*
G03*
X209998Y28975I-508J0D01*
G01*
X116858Y38550D02*
G03*
X116858Y38550I-508J0D01*
G01*
X121933Y44800D02*
G03*
X121933Y44800I-508J0D01*
G01*
X147990Y25375D02*
G03*
X147990Y25375I-508J0D01*
G01*
X171083Y26850D02*
G03*
X171083Y26850I-508J0D01*
G01*
X169233Y21000D02*
G03*
X169233Y21000I-508J0D01*
G01*
X168108Y19625D02*
G03*
X168108Y19625I-508J0D01*
G01*
X160958Y40061D02*
G03*
X160958Y40061I-508J0D01*
G01*
X213833Y28475D02*
G03*
X213833Y28475I-508J0D01*
G01*
X175283Y24450D02*
G03*
X175283Y24450I-508J0D01*
G01*
X147990Y24132D02*
G03*
X147990Y24132I-508J0D01*
G01*
X164183Y20100D02*
G03*
X164183Y20100I-508J0D01*
G01*
X148024Y23066D02*
G03*
X148024Y23066I-508J0D01*
G01*
X148057Y21921D02*
G03*
X148057Y21921I-508J0D01*
G01*
X200908Y14050D02*
G03*
X200908Y14050I-508J0D01*
G01*
X163983Y16925D02*
G03*
X163983Y16925I-508J0D01*
G01*
X162708D02*
G03*
X162708Y16925I-508J0D01*
G01*
X148058Y20900D02*
G03*
X148058Y20900I-508J0D01*
G01*
X157264Y17450D02*
G03*
X157264Y17450I-508J0D01*
G01*
Y15631D02*
G03*
X157264Y15631I-508J0D01*
G01*
X161659Y16157D02*
G03*
X161659Y16157I-508J0D01*
G01*
X160633Y16150D02*
G03*
X160633Y16150I-508J0D01*
G01*
X159208Y16125D02*
G03*
X159208Y16125I-508J0D01*
G01*
X160733Y13050D02*
G03*
X160733Y13050I-508J0D01*
G01*
X158333Y11825D02*
G03*
X158333Y11825I-508J0D01*
G01*
X180015Y12980D02*
G03*
X180015Y12980I-508J0D01*
G01*
X180249Y16288D02*
G03*
X180249Y16288I-508J0D01*
G01*
X181883Y13742D02*
G03*
X181883Y13742I-508J0D01*
G01*
X181976Y25298D02*
G03*
X181976Y25298I-508J0D01*
G01*
Y26278D02*
G03*
X181976Y26278I-508J0D01*
G01*
X185859Y12631D02*
G03*
X185859Y12631I-508J0D01*
G01*
X186632Y14375D02*
G03*
X186632Y14375I-508J0D01*
G01*
X187010Y19238D02*
G03*
X187010Y19238I-508J0D01*
G01*
X185703Y15203D02*
G03*
X185703Y15203I-508J0D01*
G01*
X190466Y20608D02*
G03*
X190466Y20608I-508J0D01*
G01*
X192142Y22717D02*
G03*
X192142Y22717I-508J0D01*
G01*
X192472Y16332D02*
G03*
X192472Y16332I-508J0D01*
G01*
X193922Y18386D02*
G03*
X193922Y18386I-508J0D01*
G01*
X175608Y20400D02*
G03*
X175608Y20400I-508J0D01*
G01*
X148283Y31775D02*
G03*
X148283Y31775I-508J0D01*
G01*
X143029Y16602D02*
G03*
X143029Y16602I-508J0D01*
G01*
X142994Y15002D02*
G03*
X142994Y15002I-508J0D01*
G01*
Y13457D02*
G03*
X142994Y13457I-508J0D01*
G01*
X126759Y14267D02*
G03*
X126759Y14267I-508J0D01*
G01*
Y12577D02*
G03*
X126759Y12577I-508J0D01*
G01*
Y15886D02*
G03*
X126759Y15886I-508J0D01*
G01*
Y10932D02*
G03*
X126759Y10932I-508J0D01*
G01*
X126775Y7622D02*
G03*
X126775Y7622I-508J0D01*
G01*
X126759Y9322D02*
G03*
X126759Y9322I-508J0D01*
G01*
X143029Y5512D02*
G03*
X143029Y5512I-508J0D01*
G01*
X143029Y11827D02*
G03*
X143029Y11827I-508J0D01*
G01*
X143029Y10317D02*
G03*
X143029Y10317I-508J0D01*
G01*
X143064Y7008D02*
G03*
X143064Y7008I-508J0D01*
G01*
X143029Y8727D02*
G03*
X143029Y8727I-508J0D01*
G01*
X289284Y63982D02*
G03*
X289284Y63982I-508J0D01*
G01*
X286239Y65272D02*
G03*
X286239Y65272I-508J0D01*
G01*
X285684Y66982D02*
G03*
X285684Y66982I-508J0D01*
G01*
X18368Y23338D02*
G03*
X18368Y23338I-508J0D01*
G01*
X69508Y47075D02*
G03*
X69508Y47075I-508J0D01*
G01*
X67342Y44064D02*
G03*
X67342Y44064I-508J0D01*
G01*
X60012Y39114D02*
G03*
X60012Y39114I-508J0D01*
G01*
X268231Y42432D02*
G03*
X268231Y42432I-508J0D01*
G01*
X167268Y42170D02*
G03*
X167268Y42170I-508J0D01*
G01*
X282604Y53600D02*
G03*
X282604Y53600I-508J0D01*
G01*
X283811Y62712D02*
G03*
X283811Y62712I-508J0D01*
G01*
X285144Y57597D02*
G03*
X285144Y57597I-508J0D01*
G01*
X283816Y53600D02*
G03*
X283816Y53600I-508J0D01*
G01*
X285066Y59367D02*
G03*
X285066Y59367I-508J0D01*
G01*
X34073Y53975D02*
G03*
X34073Y53975I-508J0D01*
G01*
X298824Y66522D02*
G03*
X298824Y66522I-508J0D01*
G01*
X288954Y40368D02*
G03*
X288954Y40368I-508J0D01*
G01*
X281334D02*
G03*
X281334Y40368I-508J0D01*
G01*
X278159Y42508D02*
G03*
X278159Y42508I-508J0D01*
G01*
X280063Y37808D02*
G03*
X280063Y37808I-508J0D01*
G01*
X277049Y38261D02*
G03*
X277049Y38261I-508J0D01*
G01*
X283874Y39478D02*
G03*
X283874Y39478I-508J0D01*
G01*
D143*
X304710Y22505D02*
G03*
X304710Y22505I-305J0D01*
G01*
Y47495D02*
G03*
X304710Y47495I-305J0D01*
G01*
%TF.MD5,b3d997329beac3c1f77dca963a95dab6*%
M02*
