%TF.GenerationSoftware,Altium Limited,Altium Designer,26.1.1 (7)*%
G04 Layer_Color=255*
%FSLAX43Y43*%
%MOMM*%
%TF.SameCoordinates,F910D8A4-5627-44EB-A571-6FFAAA827985*%
%TF.FilePolarity,Positive*%
%TF.FileFunction,Pads,Top*%
%TF.Part,Single*%
G01*
G75*
%TA.AperFunction,SMDPad,CuDef*%
%ADD10R,4.000X2.000*%
%ADD11R,9.500X3.750*%
%ADD12R,0.800X1.250*%
%ADD13R,1.250X0.800*%
%ADD14R,1.100X1.200*%
%ADD15R,2.000X4.000*%
G04:AMPARAMS|DCode=16|XSize=1.65mm|YSize=0.6mm|CornerRadius=0.051mm|HoleSize=0mm|Usage=FLASHONLY|Rotation=90.000|XOffset=0mm|YOffset=0mm|HoleType=Round|Shape=RoundedRectangle|*
%AMROUNDEDRECTD16*
21,1,1.650,0.498,0,0,90.0*
21,1,1.548,0.600,0,0,90.0*
1,1,0.102,0.249,0.774*
1,1,0.102,0.249,-0.774*
1,1,0.102,-0.249,-0.774*
1,1,0.102,-0.249,0.774*
%
%ADD16ROUNDEDRECTD16*%
%ADD17R,7.500X3.000*%
%ADD18R,1.200X1.100*%
%TA.AperFunction,ComponentPad*%
%ADD27O,1.800X1.500*%
%ADD28C,1.800*%
%ADD29C,2.000*%
%ADD30C,3.550*%
%ADD31R,1.550X1.550*%
%ADD32C,1.550*%
%ADD33O,2.700X1.750*%
%ADD34C,3.700*%
%ADD35C,1.500*%
%ADD36R,1.500X1.500*%
%ADD37C,1.200*%
%ADD38C,1.524*%
%ADD39O,6.000X6.600*%
%ADD40C,2.500*%
%ADD41C,2.550*%
G04:AMPARAMS|DCode=42|XSize=2.55mm|YSize=2.55mm|CornerRadius=0.638mm|HoleSize=0mm|Usage=FLASHONLY|Rotation=0.000|XOffset=0mm|YOffset=0mm|HoleType=Round|Shape=RoundedRectangle|*
%AMROUNDEDRECTD42*
21,1,2.550,1.275,0,0,0.0*
21,1,1.275,2.550,0,0,0.0*
1,1,1.275,0.638,-0.638*
1,1,1.275,-0.638,-0.638*
1,1,1.275,-0.638,0.638*
1,1,1.275,0.638,0.638*
%
%ADD42ROUNDEDRECTD42*%
G04:AMPARAMS|DCode=43|XSize=2.55mm|YSize=2.55mm|CornerRadius=0.638mm|HoleSize=0mm|Usage=FLASHONLY|Rotation=270.000|XOffset=0mm|YOffset=0mm|HoleType=Round|Shape=RoundedRectangle|*
%AMROUNDEDRECTD43*
21,1,2.550,1.275,0,0,270.0*
21,1,1.275,2.550,0,0,270.0*
1,1,1.275,-0.638,-0.638*
1,1,1.275,-0.638,0.638*
1,1,1.275,0.638,0.638*
1,1,1.275,0.638,-0.638*
%
%ADD43ROUNDEDRECTD43*%
%ADD44O,1.905X2.159*%
G04:AMPARAMS|DCode=45|XSize=1.905mm|YSize=2.159mm|CornerRadius=0.476mm|HoleSize=0mm|Usage=FLASHONLY|Rotation=0.000|XOffset=0mm|YOffset=0mm|HoleType=Round|Shape=RoundedRectangle|*
%AMROUNDEDRECTD45*
21,1,1.905,1.206,0,0,0.0*
21,1,0.953,2.159,0,0,0.0*
1,1,0.953,0.476,-0.603*
1,1,0.953,-0.476,-0.603*
1,1,0.953,-0.476,0.603*
1,1,0.953,0.476,0.603*
%
%ADD45ROUNDEDRECTD45*%
%ADD46O,3.302X4.572*%
%ADD47O,2.500X1.500*%
%ADD48R,1.550X1.550*%
D10*
X165305Y64331D02*
D03*
X171528D02*
D03*
X70101Y65061D02*
D03*
X63878D02*
D03*
X55501Y64911D02*
D03*
X49278D02*
D03*
X257282Y64354D02*
D03*
X251059D02*
D03*
X271712D02*
D03*
X265489D02*
D03*
X157156Y64321D02*
D03*
X150933D02*
D03*
D11*
X32250Y34400D02*
D03*
Y28150D02*
D03*
X32125Y23111D02*
D03*
Y16861D02*
D03*
X273925Y22600D02*
D03*
Y28850D02*
D03*
D12*
X108929Y66255D02*
D03*
X106929D02*
D03*
X106880Y60366D02*
D03*
X108880D02*
D03*
X106880Y57366D02*
D03*
X108880D02*
D03*
X106880Y54366D02*
D03*
X108880D02*
D03*
X106905Y40216D02*
D03*
X108905D02*
D03*
X106905Y43216D02*
D03*
X108905D02*
D03*
X106905Y46216D02*
D03*
X108905D02*
D03*
X108929Y63245D02*
D03*
X106929D02*
D03*
X178851Y13742D02*
D03*
X180851D02*
D03*
X184007Y13742D02*
D03*
X182007D02*
D03*
X59542Y43851D02*
D03*
X61542D02*
D03*
X61532Y42062D02*
D03*
X59532D02*
D03*
X59542Y45661D02*
D03*
X61542D02*
D03*
Y40272D02*
D03*
X59542D02*
D03*
X260807Y43450D02*
D03*
X262807D02*
D03*
Y41670D02*
D03*
X260807D02*
D03*
X260812Y45175D02*
D03*
X262812D02*
D03*
X262812Y39895D02*
D03*
X260812D02*
D03*
X159813Y41938D02*
D03*
X161813D02*
D03*
Y43721D02*
D03*
X159813D02*
D03*
X161813Y45491D02*
D03*
X159813D02*
D03*
Y40118D02*
D03*
X161813D02*
D03*
D13*
X191982Y18479D02*
D03*
Y20479D02*
D03*
X176950Y7700D02*
D03*
Y9700D02*
D03*
X191982Y17149D02*
D03*
Y15149D02*
D03*
X185741Y15975D02*
D03*
Y13975D02*
D03*
X185741Y19021D02*
D03*
Y17021D02*
D03*
X180000Y19975D02*
D03*
Y17975D02*
D03*
D14*
X104430Y60366D02*
D03*
X102330D02*
D03*
X104430Y57366D02*
D03*
X102330D02*
D03*
X104430Y66254D02*
D03*
X102330D02*
D03*
X104430Y63245D02*
D03*
X102330D02*
D03*
X104430Y54366D02*
D03*
X102330D02*
D03*
X104455Y43216D02*
D03*
X102355D02*
D03*
X104455Y46216D02*
D03*
X102355D02*
D03*
X104455Y40216D02*
D03*
X102355D02*
D03*
D15*
X103850Y23675D02*
D03*
Y17452D02*
D03*
X66150Y23675D02*
D03*
Y17452D02*
D03*
X84800Y23675D02*
D03*
Y17452D02*
D03*
X66075Y4950D02*
D03*
Y12050D02*
D03*
X75625Y11675D02*
D03*
Y5452D02*
D03*
X275000Y53319D02*
D03*
Y46219D02*
D03*
X93125Y11300D02*
D03*
Y5077D02*
D03*
X46660Y23675D02*
D03*
Y17452D02*
D03*
X56350Y11675D02*
D03*
Y5452D02*
D03*
X46700Y4950D02*
D03*
Y12050D02*
D03*
D16*
X60521Y48476D02*
D03*
X64331D02*
D03*
X57981D02*
D03*
X59251D02*
D03*
X55441Y58226D02*
D03*
X56711D02*
D03*
X57981D02*
D03*
X59251D02*
D03*
X60521D02*
D03*
X61791D02*
D03*
X63061D02*
D03*
X64331D02*
D03*
X63061Y48476D02*
D03*
X61791D02*
D03*
X56711D02*
D03*
X55441D02*
D03*
X261812Y47979D02*
D03*
X265622D02*
D03*
X259272D02*
D03*
X260542D02*
D03*
X256732Y57729D02*
D03*
X258002D02*
D03*
X259272D02*
D03*
X260542D02*
D03*
X261812D02*
D03*
X263082D02*
D03*
X264352D02*
D03*
X265622D02*
D03*
X264352Y47979D02*
D03*
X263082D02*
D03*
X258002D02*
D03*
X256732D02*
D03*
X155738Y48086D02*
D03*
X157008D02*
D03*
X162088D02*
D03*
X163358D02*
D03*
X164628Y57836D02*
D03*
X163358D02*
D03*
X162088D02*
D03*
X160818D02*
D03*
X159548D02*
D03*
X158278D02*
D03*
X157008D02*
D03*
X155738D02*
D03*
X159548Y48086D02*
D03*
X158278D02*
D03*
X164628D02*
D03*
X160818D02*
D03*
D17*
X75575Y22200D02*
D03*
Y17200D02*
D03*
X93125D02*
D03*
Y22200D02*
D03*
X56300Y17200D02*
D03*
Y22200D02*
D03*
D18*
X276541Y42468D02*
D03*
Y40368D02*
D03*
D27*
X188161Y37987D02*
D03*
X181871Y38279D02*
D03*
D28*
X166439Y57836D02*
D03*
X148660Y13457D02*
D03*
X152871Y10317D02*
D03*
X148660Y5477D02*
D03*
Y16602D02*
D03*
Y8727D02*
D03*
X150683Y15002D02*
D03*
X150475Y7027D02*
D03*
Y11827D02*
D03*
X56711Y38232D02*
D03*
X54714Y45661D02*
D03*
X74041Y77404D02*
D03*
X81661Y79635D02*
D03*
X247860Y64326D02*
D03*
X267927Y57729D02*
D03*
X254871D02*
D03*
X258002Y37788D02*
D03*
X278232Y77032D02*
D03*
X255223Y46105D02*
D03*
X293185Y20344D02*
D03*
X293072Y30054D02*
D03*
X287475Y35075D02*
D03*
X147856Y64321D02*
D03*
X157008Y38337D02*
D03*
X178714Y74317D02*
D03*
X153823Y57836D02*
D03*
X154374Y44728D02*
D03*
X293135Y14410D02*
D03*
X291806Y55633D02*
D03*
X276609Y34900D02*
D03*
X290180Y39078D02*
D03*
X291806Y59367D02*
D03*
X285396Y72651D02*
D03*
X291781Y68959D02*
D03*
X279555Y35172D02*
D03*
D29*
X16700Y80466D02*
D03*
X46623Y71070D02*
D03*
X46548Y76145D02*
D03*
X46654Y61250D02*
D03*
X60881Y71070D02*
D03*
X60806Y76145D02*
D03*
X262443Y70319D02*
D03*
X262368Y75394D02*
D03*
X248151Y70560D02*
D03*
X248076Y75635D02*
D03*
X162528Y70566D02*
D03*
X162453Y75641D02*
D03*
X148377Y75780D02*
D03*
X148452Y70705D02*
D03*
D30*
X124666Y130369D02*
D03*
X130000D02*
D03*
X135334D02*
D03*
X95334D02*
D03*
X90000D02*
D03*
X84666D02*
D03*
X184666D02*
D03*
X190000D02*
D03*
X195334D02*
D03*
X164666D02*
D03*
X170000D02*
D03*
X175334D02*
D03*
X44666D02*
D03*
X50000D02*
D03*
X55334D02*
D03*
X24666D02*
D03*
X30000D02*
D03*
X35334D02*
D03*
X64666D02*
D03*
X70000D02*
D03*
X75334D02*
D03*
X284666D02*
D03*
X290000D02*
D03*
X295334D02*
D03*
X264666D02*
D03*
X270000D02*
D03*
X275334D02*
D03*
X144666D02*
D03*
X150000D02*
D03*
X155334D02*
D03*
X224666D02*
D03*
X230000D02*
D03*
X235334D02*
D03*
X244666D02*
D03*
X250000D02*
D03*
X255334D02*
D03*
D31*
X25775Y65845D02*
D03*
X302985Y29515D02*
D03*
X114300Y53870D02*
D03*
X292961Y43498D02*
D03*
X228279Y57970D02*
D03*
X236279Y57960D02*
D03*
D32*
X25775Y68385D02*
D03*
Y70925D02*
D03*
Y73465D02*
D03*
X302985Y34995D02*
D03*
Y32255D02*
D03*
Y37735D02*
D03*
Y40475D02*
D03*
X305825Y36365D02*
D03*
Y33625D02*
D03*
Y30885D02*
D03*
Y39105D02*
D03*
X114300Y51330D02*
D03*
Y48790D02*
D03*
Y46250D02*
D03*
Y43710D02*
D03*
Y41170D02*
D03*
X173080Y7700D02*
D03*
X170540D02*
D03*
X168000D02*
D03*
X165460D02*
D03*
X162920D02*
D03*
X292961Y46038D02*
D03*
Y48578D02*
D03*
Y51118D02*
D03*
X228279Y55430D02*
D03*
Y52890D02*
D03*
Y50350D02*
D03*
Y47810D02*
D03*
Y45270D02*
D03*
X236279Y55420D02*
D03*
Y52880D02*
D03*
Y50340D02*
D03*
Y47800D02*
D03*
Y45260D02*
D03*
D33*
X228024Y13500D02*
D03*
Y16040D02*
D03*
Y18580D02*
D03*
Y21120D02*
D03*
Y23660D02*
D03*
Y26200D02*
D03*
X235865Y26225D02*
D03*
Y23685D02*
D03*
Y21145D02*
D03*
Y18605D02*
D03*
Y16065D02*
D03*
Y13525D02*
D03*
D34*
X304405Y22505D02*
D03*
Y47495D02*
D03*
D35*
X202257Y45225D02*
D03*
X199717D02*
D03*
X217202D02*
D03*
X219742D02*
D03*
X193241Y45287D02*
D03*
X190701D02*
D03*
X208532Y45225D02*
D03*
X211072D02*
D03*
X184411Y45237D02*
D03*
X181871D02*
D03*
D36*
X197177Y45225D02*
D03*
X214662D02*
D03*
X188161Y45287D02*
D03*
X205992Y45225D02*
D03*
X179331Y45237D02*
D03*
D37*
X195524Y15981D02*
D03*
Y20861D02*
D03*
D38*
X4150Y166175D02*
D03*
X9100D02*
D03*
X29450Y158225D02*
D03*
X34400D02*
D03*
X46445Y165059D02*
D03*
X51395D02*
D03*
X76135Y164983D02*
D03*
X71185D02*
D03*
X148869Y165004D02*
D03*
X143919D02*
D03*
X249058Y165034D02*
D03*
X244108D02*
D03*
X275869Y165059D02*
D03*
X270919D02*
D03*
X175971Y165004D02*
D03*
X160000Y140004D02*
D03*
Y150004D02*
D03*
X300000Y140004D02*
D03*
Y150004D02*
D03*
X20000Y138976D02*
D03*
Y149726D02*
D03*
X171021Y165004D02*
D03*
D39*
X27250Y174540D02*
D03*
Y164634D02*
D03*
X17425Y174540D02*
D03*
Y164634D02*
D03*
X60000Y159638D02*
D03*
Y169544D02*
D03*
X37000Y164634D02*
D03*
Y174540D02*
D03*
X159893Y159638D02*
D03*
Y169544D02*
D03*
X259994Y159638D02*
D03*
Y169544D02*
D03*
D40*
X307400Y14480D02*
D03*
X304005D02*
D03*
X31815Y78014D02*
D03*
X37446Y79505D02*
D03*
X6564Y16963D02*
D03*
X11898D02*
D03*
Y34362D02*
D03*
X6564D02*
D03*
X20914Y30470D02*
D03*
X46252Y64911D02*
D03*
X5724Y88112D02*
D03*
X37446Y74800D02*
D03*
X35545Y60305D02*
D03*
X35293Y46105D02*
D03*
X28765Y46105D02*
D03*
X29185Y60305D02*
D03*
X27025Y56685D02*
D03*
X298316Y71428D02*
D03*
D41*
X26390Y10725D02*
D03*
X12000Y49539D02*
D03*
Y66539D02*
D03*
X309475Y65000D02*
D03*
Y70080D02*
D03*
Y90000D02*
D03*
Y95080D02*
D03*
D42*
X21310Y10725D02*
D03*
D43*
X12000Y54619D02*
D03*
Y71619D02*
D03*
X309475Y59920D02*
D03*
Y84920D02*
D03*
D44*
X58801Y98029D02*
D03*
X38481D02*
D03*
X56261D02*
D03*
X48641D02*
D03*
X53721D02*
D03*
X46101D02*
D03*
X51181D02*
D03*
X43561D02*
D03*
X41021D02*
D03*
X61341D02*
D03*
X63881D02*
D03*
X66421D02*
D03*
X71501D02*
D03*
X79121D02*
D03*
X68961D02*
D03*
X74041D02*
D03*
X76581D02*
D03*
X158394Y98010D02*
D03*
X138074D02*
D03*
X155854D02*
D03*
X148234D02*
D03*
X153314D02*
D03*
X145694D02*
D03*
X150774D02*
D03*
X143154D02*
D03*
X140614D02*
D03*
X160934D02*
D03*
X163474D02*
D03*
X166014D02*
D03*
X171094D02*
D03*
X178714D02*
D03*
X168554D02*
D03*
X173634D02*
D03*
X176174D02*
D03*
X275692D02*
D03*
X273152D02*
D03*
X268072D02*
D03*
X278232D02*
D03*
X270612D02*
D03*
X265532D02*
D03*
X262992D02*
D03*
X260452D02*
D03*
X240132D02*
D03*
X242672D02*
D03*
X250292D02*
D03*
X245212D02*
D03*
X252832D02*
D03*
X247752D02*
D03*
X255372D02*
D03*
X237592D02*
D03*
X257912D02*
D03*
D45*
X81661Y98029D02*
D03*
X181254Y98010D02*
D03*
X280772D02*
D03*
D46*
X43562Y112544D02*
D03*
Y107464D02*
D03*
X37562Y112544D02*
D03*
Y107464D02*
D03*
X77277Y112592D02*
D03*
Y107512D02*
D03*
X83277Y112592D02*
D03*
Y107512D02*
D03*
X283380Y113506D02*
D03*
Y108426D02*
D03*
X277380Y113506D02*
D03*
Y108426D02*
D03*
X236888Y113430D02*
D03*
Y108350D02*
D03*
X242888Y113430D02*
D03*
Y108350D02*
D03*
X183094Y107808D02*
D03*
Y112888D02*
D03*
X177278Y107681D02*
D03*
Y112761D02*
D03*
X142545Y107808D02*
D03*
Y112888D02*
D03*
X137109Y107808D02*
D03*
Y112888D02*
D03*
D47*
X196975Y4550D02*
D03*
D48*
X160380Y7700D02*
D03*
%TF.MD5,fb0b6c1b184d5b4810cbd88a488f0fb5*%
M02*
