%TF.GenerationSoftware,Altium Limited,Altium Designer,26.1.1 (7)*%
G04 Layer_Color=32896*
%FSLAX43Y43*%
%MOMM*%
%TF.SameCoordinates,F910D8A4-5627-44EB-A571-6FFAAA827985*%
%TF.FilePolarity,Positive*%
%TF.FileFunction,Other,Bottom_3D_Body*%
%TF.Part,Single*%
G01*
G75*
%TA.AperFunction,NonConductor*%
%ADD96C,0.200*%
D96*
X29475Y65550D02*
Y73150D01*
Y65550D02*
X35425D01*
Y73150D01*
X29475D02*
X35425D01*
X48808Y9047D02*
X55313D01*
X48808D02*
Y12552D01*
X55313D01*
Y9047D02*
Y12552D01*
X68098Y9330D02*
X74603D01*
X68098D02*
Y12835D01*
X74603D01*
Y9330D02*
Y12835D01*
X177601Y21881D02*
X187601D01*
X177601Y11881D02*
Y21881D01*
Y11881D02*
X187601D01*
Y21881D01*
X194039Y15742D02*
Y17742D01*
X192789D02*
X194039D01*
X192789Y15742D02*
Y17742D01*
Y15742D02*
X194039D01*
X192822Y18975D02*
Y20975D01*
Y18975D02*
X194072D01*
Y20975D01*
X192822D02*
X194072D01*
X315824Y39375D02*
Y40675D01*
X312924D02*
X315824D01*
X312924Y39375D02*
Y40675D01*
Y39375D02*
X315824D01*
X308699Y39425D02*
X311599D01*
X308699D02*
Y40725D01*
X311599D01*
Y39425D02*
Y40725D01*
X15625Y91425D02*
X18825D01*
Y93925D01*
X15625D02*
X18825D01*
X15625Y91425D02*
Y93925D01*
X44946Y80961D02*
X47866D01*
X44946D02*
Y85561D01*
X47866D01*
Y80961D02*
Y85561D01*
X62276Y81145D02*
Y85745D01*
X59356D02*
X62276D01*
X59356Y81145D02*
Y85745D01*
Y81145D02*
X62276D01*
X249190Y80904D02*
Y85504D01*
X246270D02*
X249190D01*
X246270Y80904D02*
Y85504D01*
Y80904D02*
X249190D01*
X263567Y80665D02*
Y85265D01*
X260647D02*
X263567D01*
X260647Y80665D02*
Y85265D01*
Y80665D02*
X263567D01*
X281103Y57647D02*
X283303D01*
X281103Y56197D02*
Y57647D01*
Y56197D02*
X283303D01*
Y57647D01*
X292246Y62117D02*
X296246D01*
Y67117D01*
X292246D02*
X296246D01*
X292246Y62117D02*
Y67117D01*
X163413Y80781D02*
Y85381D01*
X160493D02*
X163413D01*
X160493Y80781D02*
Y85381D01*
Y80781D02*
X163413D01*
X149603D02*
Y85381D01*
X146683D02*
X149603D01*
X146683Y80781D02*
Y85381D01*
Y80781D02*
X149603D01*
%TF.MD5,3f49fba594fcadaa02ac21a9d77281e1*%
M02*
