%TF.GenerationSoftware,Altium Limited,Altium Designer,26.1.1 (7)*%
G04 Layer_Color=32768*
%FSLAX43Y43*%
%MOMM*%
%TF.SameCoordinates,F910D8A4-5627-44EB-A571-6FFAAA827985*%
%TF.FilePolarity,Positive*%
%TF.FileFunction,Other,Bottom_Assembly*%
%TF.Part,Single*%
G01*
G75*
%TA.AperFunction,NonConductor*%
%ADD96C,0.200*%
%ADD113C,0.100*%
G36*
X32205Y69349D02*
X32222Y69348D01*
X32237Y69346D01*
X32251Y69344D01*
X32264Y69343D01*
X32276Y69340D01*
X32287Y69338D01*
X32297Y69336D01*
X32306Y69333D01*
X32313Y69332D01*
X32319Y69330D01*
X32323Y69328D01*
X32327Y69327D01*
X32329Y69326D01*
X32330D01*
X32350Y69316D01*
X32369Y69303D01*
X32383Y69290D01*
X32396Y69276D01*
X32407Y69264D01*
X32414Y69254D01*
X32416Y69250D01*
X32418Y69247D01*
X32420Y69246D01*
Y69245D01*
X32430Y69221D01*
X32437Y69197D01*
X32443Y69173D01*
X32446Y69149D01*
X32447Y69139D01*
X32448Y69129D01*
X32449Y69120D01*
Y69112D01*
X32450Y69106D01*
Y69098D01*
X32448Y69064D01*
X32446Y69050D01*
X32444Y69036D01*
X32442Y69022D01*
X32439Y69010D01*
X32436Y68999D01*
X32432Y68989D01*
X32429Y68979D01*
X32426Y68972D01*
X32423Y68964D01*
X32420Y68959D01*
X32418Y68954D01*
X32417Y68952D01*
X32415Y68950D01*
Y68949D01*
X32401Y68928D01*
X32385Y68912D01*
X32370Y68899D01*
X32356Y68888D01*
X32343Y68879D01*
X32333Y68874D01*
X32329Y68872D01*
X32326Y68870D01*
X32324Y68869D01*
X32323D01*
X32312Y68866D01*
X32300Y68862D01*
X32275Y68856D01*
X32249Y68853D01*
X32224Y68850D01*
X32213Y68849D01*
X32202Y68848D01*
X32193D01*
X32185Y68847D01*
X32178D01*
X32174D01*
X32170D01*
X32169D01*
X31799D01*
Y68932D01*
X32169D01*
X32190D01*
X32211Y68934D01*
X32228Y68936D01*
X32245Y68939D01*
X32260Y68941D01*
X32273Y68945D01*
X32285Y68948D01*
X32296Y68952D01*
X32304Y68955D01*
X32312Y68959D01*
X32318Y68963D01*
X32323Y68965D01*
X32327Y68968D01*
X32330Y68970D01*
X32331Y68971D01*
X32332Y68972D01*
X32339Y68980D01*
X32346Y68989D01*
X32356Y69010D01*
X32363Y69031D01*
X32368Y69053D01*
X32371Y69074D01*
X32372Y69082D01*
Y69090D01*
X32373Y69096D01*
Y69105D01*
X32372Y69124D01*
X32370Y69142D01*
X32367Y69159D01*
X32362Y69172D01*
X32358Y69183D01*
X32356Y69191D01*
X32353Y69196D01*
X32352Y69197D01*
X32344Y69210D01*
X32334Y69221D01*
X32323Y69231D01*
X32314Y69237D01*
X32305Y69243D01*
X32298Y69247D01*
X32294Y69249D01*
X32292Y69250D01*
X32284Y69253D01*
X32275Y69255D01*
X32256Y69258D01*
X32236Y69261D01*
X32215Y69263D01*
X32198Y69264D01*
X32189D01*
X32183Y69265D01*
X32177D01*
X32173D01*
X32170D01*
X32169D01*
X31799D01*
Y69350D01*
X32169D01*
X32187D01*
X32205Y69349D01*
D02*
G37*
G36*
X31883Y68419D02*
X31910Y68441D01*
X31939Y68462D01*
X31966Y68481D01*
X31993Y68498D01*
X32005Y68506D01*
X32016Y68512D01*
X32027Y68519D01*
X32035Y68523D01*
X32042Y68527D01*
X32047Y68530D01*
X32051Y68532D01*
X32052Y68533D01*
X32089Y68551D01*
X32125Y68568D01*
X32161Y68582D01*
X32176Y68587D01*
X32192Y68593D01*
X32206Y68598D01*
X32219Y68602D01*
X32230Y68606D01*
X32239Y68609D01*
X32248Y68611D01*
X32253Y68613D01*
X32257Y68614D01*
X32258D01*
X32296Y68623D01*
X32314Y68627D01*
X32331Y68630D01*
X32346Y68633D01*
X32362Y68635D01*
X32375Y68637D01*
X32388Y68639D01*
X32399Y68640D01*
X32409Y68641D01*
X32419Y68642D01*
X32426D01*
X32432Y68643D01*
X32435D01*
X32438D01*
X32439D01*
Y68562D01*
X32404Y68560D01*
X32371Y68555D01*
X32342Y68550D01*
X32328Y68547D01*
X32315Y68545D01*
X32304Y68543D01*
X32294Y68540D01*
X32285Y68538D01*
X32277Y68536D01*
X32272Y68535D01*
X32267Y68534D01*
X32264Y68533D01*
X32263D01*
X32221Y68519D01*
X32181Y68504D01*
X32162Y68497D01*
X32143Y68489D01*
X32126Y68481D01*
X32110Y68474D01*
X32095Y68467D01*
X32082Y68461D01*
X32071Y68455D01*
X32061Y68450D01*
X32052Y68446D01*
X32047Y68443D01*
X32043Y68441D01*
X32042Y68440D01*
X32023Y68429D01*
X32003Y68418D01*
X31986Y68407D01*
X31969Y68396D01*
X31954Y68386D01*
X31940Y68376D01*
X31927Y68365D01*
X31916Y68357D01*
X31905Y68349D01*
X31895Y68341D01*
X31888Y68334D01*
X31881Y68328D01*
X31876Y68325D01*
X31872Y68321D01*
X31870Y68319D01*
X31869Y68318D01*
X31807D01*
Y68732D01*
X31883D01*
Y68419D01*
D02*
G37*
G36*
X52703Y11915D02*
X52627D01*
Y12228D01*
X52600Y12206D01*
X52572Y12185D01*
X52544Y12166D01*
X52517Y12149D01*
X52505Y12142D01*
X52494Y12135D01*
X52484Y12129D01*
X52476Y12124D01*
X52468Y12120D01*
X52464Y12117D01*
X52460Y12116D01*
X52459Y12115D01*
X52422Y12096D01*
X52385Y12080D01*
X52350Y12066D01*
X52334Y12060D01*
X52318Y12055D01*
X52304Y12049D01*
X52292Y12045D01*
X52280Y12042D01*
X52271Y12039D01*
X52263Y12036D01*
X52257Y12034D01*
X52254Y12033D01*
X52253D01*
X52215Y12024D01*
X52196Y12020D01*
X52180Y12018D01*
X52164Y12015D01*
X52148Y12012D01*
X52135Y12010D01*
X52122Y12008D01*
X52111Y12007D01*
X52101Y12007D01*
X52092Y12006D01*
X52084D01*
X52079Y12005D01*
X52075D01*
X52072D01*
X52071D01*
Y12085D01*
X52107Y12088D01*
X52139Y12093D01*
X52169Y12097D01*
X52182Y12100D01*
X52195Y12103D01*
X52206Y12105D01*
X52217Y12107D01*
X52226Y12109D01*
X52233Y12111D01*
X52239Y12113D01*
X52243Y12114D01*
X52246Y12115D01*
X52247D01*
X52290Y12129D01*
X52329Y12143D01*
X52349Y12151D01*
X52367Y12158D01*
X52384Y12166D01*
X52401Y12174D01*
X52415Y12180D01*
X52428Y12187D01*
X52439Y12192D01*
X52450Y12197D01*
X52458Y12202D01*
X52464Y12204D01*
X52467Y12206D01*
X52468Y12207D01*
X52488Y12218D01*
X52507Y12229D01*
X52525Y12240D01*
X52541Y12252D01*
X52556Y12262D01*
X52571Y12272D01*
X52584Y12282D01*
X52595Y12290D01*
X52606Y12299D01*
X52615Y12306D01*
X52623Y12313D01*
X52629Y12319D01*
X52635Y12323D01*
X52638Y12326D01*
X52640Y12328D01*
X52641Y12329D01*
X52703D01*
Y11915D01*
D02*
G37*
G36*
X52714Y11657D02*
X52698Y11648D01*
X52684Y11638D01*
X52669Y11626D01*
X52656Y11615D01*
X52645Y11603D01*
X52635Y11595D01*
X52633Y11591D01*
X52630Y11589D01*
X52629Y11588D01*
X52628Y11587D01*
X52612Y11567D01*
X52598Y11548D01*
X52585Y11529D01*
X52574Y11511D01*
X52565Y11495D01*
X52562Y11489D01*
X52559Y11483D01*
X52556Y11479D01*
X52555Y11475D01*
X52553Y11473D01*
Y11472D01*
X52477D01*
X52483Y11486D01*
X52489Y11500D01*
X52496Y11514D01*
X52502Y11527D01*
X52508Y11538D01*
X52513Y11547D01*
X52516Y11553D01*
X52517Y11554D01*
Y11554D01*
X52527Y11571D01*
X52537Y11586D01*
X52547Y11599D01*
X52555Y11609D01*
X52562Y11618D01*
X52567Y11624D01*
X52571Y11628D01*
X52572Y11629D01*
X52071D01*
Y11708D01*
X52714D01*
Y11657D01*
D02*
G37*
G36*
X52711Y11218D02*
X52341D01*
X52320D01*
X52300Y11216D01*
X52282Y11214D01*
X52266Y11211D01*
X52251Y11209D01*
X52237Y11205D01*
X52225Y11202D01*
X52215Y11198D01*
X52206Y11195D01*
X52198Y11191D01*
X52193Y11187D01*
X52187Y11185D01*
X52183Y11182D01*
X52181Y11180D01*
X52180Y11179D01*
X52179Y11178D01*
X52171Y11170D01*
X52165Y11161D01*
X52155Y11140D01*
X52147Y11119D01*
X52143Y11097D01*
X52139Y11076D01*
X52138Y11068D01*
Y11060D01*
X52137Y11054D01*
Y11045D01*
X52138Y11026D01*
X52141Y11008D01*
X52144Y10991D01*
X52148Y10978D01*
X52152Y10967D01*
X52155Y10959D01*
X52157Y10954D01*
X52158Y10953D01*
X52167Y10940D01*
X52177Y10929D01*
X52187Y10919D01*
X52196Y10913D01*
X52206Y10907D01*
X52212Y10903D01*
X52217Y10901D01*
X52219Y10900D01*
X52227Y10897D01*
X52235Y10895D01*
X52255Y10892D01*
X52275Y10889D01*
X52295Y10887D01*
X52313Y10886D01*
X52321D01*
X52328Y10885D01*
X52333D01*
X52338D01*
X52341D01*
X52341D01*
X52711D01*
Y10800D01*
X52341D01*
X52323D01*
X52305Y10801D01*
X52289Y10802D01*
X52273Y10804D01*
X52259Y10806D01*
X52246Y10807D01*
X52234Y10810D01*
X52223Y10812D01*
X52213Y10814D01*
X52205Y10817D01*
X52197Y10818D01*
X52192Y10820D01*
X52187Y10822D01*
X52183Y10823D01*
X52182Y10824D01*
X52181D01*
X52160Y10834D01*
X52142Y10847D01*
X52127Y10860D01*
X52114Y10874D01*
X52104Y10886D01*
X52096Y10896D01*
X52095Y10900D01*
X52093Y10903D01*
X52091Y10904D01*
Y10905D01*
X52081Y10929D01*
X52073Y10953D01*
X52068Y10977D01*
X52064Y11001D01*
X52063Y11011D01*
X52062Y11021D01*
X52061Y11030D01*
Y11038D01*
X52060Y11044D01*
Y11052D01*
X52062Y11086D01*
X52064Y11100D01*
X52066Y11114D01*
X52069Y11128D01*
X52071Y11140D01*
X52074Y11151D01*
X52078Y11161D01*
X52082Y11171D01*
X52084Y11178D01*
X52087Y11186D01*
X52090Y11191D01*
X52093Y11196D01*
X52094Y11198D01*
X52096Y11200D01*
Y11201D01*
X52109Y11222D01*
X52125Y11238D01*
X52140Y11251D01*
X52155Y11262D01*
X52168Y11271D01*
X52178Y11276D01*
X52182Y11278D01*
X52184Y11280D01*
X52186Y11281D01*
X52187D01*
X52198Y11284D01*
X52210Y11288D01*
X52235Y11294D01*
X52261Y11297D01*
X52286Y11300D01*
X52297Y11301D01*
X52308Y11302D01*
X52317D01*
X52326Y11303D01*
X52332D01*
X52337D01*
X52341D01*
X52341D01*
X52711D01*
Y11218D01*
D02*
G37*
G36*
X71736Y12611D02*
X71754Y12610D01*
X71772Y12608D01*
X71787Y12606D01*
X71802Y12604D01*
X71816Y12601D01*
X71828Y12599D01*
X71838Y12596D01*
X71847Y12594D01*
X71856Y12591D01*
X71862Y12589D01*
X71867Y12587D01*
X71871Y12586D01*
X71872Y12585D01*
X71873D01*
X71895Y12574D01*
X71915Y12562D01*
X71932Y12548D01*
X71945Y12536D01*
X71956Y12524D01*
X71963Y12514D01*
X71966Y12511D01*
X71968Y12508D01*
X71969Y12507D01*
Y12506D01*
X71981Y12487D01*
X71989Y12467D01*
X71995Y12448D01*
X71999Y12430D01*
X72002Y12415D01*
X72003Y12408D01*
Y12403D01*
X72004Y12399D01*
Y12392D01*
X72003Y12377D01*
X72001Y12362D01*
X71998Y12347D01*
X71994Y12334D01*
X71984Y12309D01*
X71980Y12298D01*
X71974Y12289D01*
X71968Y12280D01*
X71963Y12272D01*
X71957Y12265D01*
X71953Y12259D01*
X71949Y12255D01*
X71946Y12252D01*
X71944Y12250D01*
X71944Y12249D01*
X71932Y12239D01*
X71920Y12231D01*
X71907Y12222D01*
X71895Y12216D01*
X71881Y12210D01*
X71868Y12206D01*
X71844Y12199D01*
X71832Y12196D01*
X71822Y12194D01*
X71811Y12194D01*
X71803Y12193D01*
X71797Y12192D01*
X71792D01*
X71788D01*
X71787D01*
X71770Y12193D01*
X71754Y12194D01*
X71738Y12196D01*
X71724Y12200D01*
X71711Y12205D01*
X71698Y12209D01*
X71687Y12214D01*
X71676Y12219D01*
X71667Y12224D01*
X71659Y12229D01*
X71652Y12233D01*
X71646Y12238D01*
X71641Y12242D01*
X71638Y12243D01*
X71637Y12245D01*
X71636Y12246D01*
X71626Y12256D01*
X71617Y12268D01*
X71609Y12279D01*
X71602Y12291D01*
X71597Y12302D01*
X71592Y12313D01*
X71586Y12334D01*
X71583Y12343D01*
X71581Y12353D01*
X71580Y12360D01*
X71579Y12367D01*
X71578Y12373D01*
Y12380D01*
X71579Y12398D01*
X71582Y12415D01*
X71586Y12429D01*
X71590Y12443D01*
X71594Y12453D01*
X71598Y12462D01*
X71601Y12467D01*
X71601Y12469D01*
X71611Y12484D01*
X71621Y12497D01*
X71631Y12508D01*
X71640Y12517D01*
X71650Y12524D01*
X71656Y12529D01*
X71661Y12533D01*
X71662Y12534D01*
X71655D01*
X71650D01*
X71648D01*
X71647D01*
X71628Y12533D01*
X71611Y12532D01*
X71595Y12530D01*
X71580Y12528D01*
X71568Y12525D01*
X71559Y12524D01*
X71555Y12523D01*
X71552D01*
X71552Y12522D01*
X71551D01*
X71534Y12517D01*
X71519Y12513D01*
X71506Y12508D01*
X71495Y12503D01*
X71487Y12500D01*
X71480Y12496D01*
X71476Y12494D01*
X71475Y12493D01*
X71465Y12486D01*
X71456Y12478D01*
X71449Y12471D01*
X71442Y12464D01*
X71437Y12458D01*
X71433Y12452D01*
X71431Y12449D01*
X71430Y12448D01*
X71425Y12438D01*
X71421Y12427D01*
X71418Y12416D01*
X71417Y12406D01*
X71416Y12398D01*
X71415Y12391D01*
Y12385D01*
X71416Y12370D01*
X71418Y12356D01*
X71422Y12344D01*
X71427Y12334D01*
X71430Y12327D01*
X71434Y12320D01*
X71437Y12317D01*
X71438Y12316D01*
X71448Y12306D01*
X71460Y12299D01*
X71473Y12292D01*
X71486Y12288D01*
X71497Y12284D01*
X71507Y12281D01*
X71511Y12280D01*
X71513D01*
X71515Y12280D01*
X71515D01*
X71509Y12204D01*
X71482Y12209D01*
X71459Y12217D01*
X71439Y12226D01*
X71422Y12235D01*
X71409Y12244D01*
X71404Y12249D01*
X71399Y12253D01*
X71396Y12255D01*
X71393Y12258D01*
X71393Y12259D01*
X71392Y12260D01*
X71384Y12269D01*
X71378Y12280D01*
X71368Y12300D01*
X71360Y12320D01*
X71356Y12340D01*
X71352Y12357D01*
X71351Y12365D01*
Y12371D01*
X71350Y12376D01*
Y12383D01*
X71352Y12409D01*
X71356Y12432D01*
X71362Y12453D01*
X71369Y12471D01*
X71372Y12478D01*
X71376Y12486D01*
X71380Y12491D01*
X71382Y12497D01*
X71384Y12500D01*
X71386Y12503D01*
X71388Y12505D01*
Y12506D01*
X71404Y12525D01*
X71421Y12541D01*
X71440Y12554D01*
X71457Y12565D01*
X71473Y12574D01*
X71480Y12578D01*
X71486Y12581D01*
X71491Y12583D01*
X71495Y12585D01*
X71497Y12586D01*
X71498D01*
X71512Y12590D01*
X71527Y12595D01*
X71559Y12601D01*
X71592Y12606D01*
X71624Y12609D01*
X71638Y12611D01*
X71651Y12611D01*
X71663D01*
X71674Y12612D01*
X71682D01*
X71688D01*
X71693D01*
X71694D01*
X71715D01*
X71736Y12611D01*
D02*
G37*
G36*
X72004Y11939D02*
X71988Y11930D01*
X71973Y11920D01*
X71958Y11908D01*
X71945Y11897D01*
X71934Y11886D01*
X71925Y11877D01*
X71922Y11874D01*
X71920Y11871D01*
X71919Y11870D01*
X71918Y11869D01*
X71902Y11850D01*
X71887Y11830D01*
X71874Y11812D01*
X71864Y11793D01*
X71855Y11777D01*
X71851Y11771D01*
X71848Y11765D01*
X71846Y11761D01*
X71845Y11757D01*
X71843Y11755D01*
Y11754D01*
X71767D01*
X71772Y11768D01*
X71779Y11782D01*
X71785Y11796D01*
X71792Y11809D01*
X71797Y11820D01*
X71802Y11829D01*
X71806Y11835D01*
X71807Y11836D01*
Y11837D01*
X71817Y11853D01*
X71827Y11868D01*
X71836Y11881D01*
X71845Y11891D01*
X71851Y11900D01*
X71857Y11906D01*
X71860Y11911D01*
X71861Y11912D01*
X71361D01*
Y11990D01*
X72004D01*
Y11939D01*
D02*
G37*
G36*
X72001Y11500D02*
X71631D01*
X71610D01*
X71589Y11498D01*
X71572Y11496D01*
X71555Y11494D01*
X71540Y11491D01*
X71527Y11487D01*
X71515Y11484D01*
X71504Y11481D01*
X71496Y11477D01*
X71488Y11473D01*
X71482Y11470D01*
X71477Y11467D01*
X71473Y11464D01*
X71470Y11462D01*
X71469Y11461D01*
X71468Y11460D01*
X71461Y11452D01*
X71454Y11443D01*
X71444Y11422D01*
X71437Y11401D01*
X71432Y11379D01*
X71429Y11359D01*
X71428Y11350D01*
Y11342D01*
X71427Y11336D01*
Y11327D01*
X71428Y11308D01*
X71430Y11290D01*
X71433Y11274D01*
X71438Y11261D01*
X71442Y11250D01*
X71444Y11241D01*
X71447Y11237D01*
X71448Y11235D01*
X71456Y11222D01*
X71466Y11211D01*
X71477Y11201D01*
X71486Y11195D01*
X71495Y11189D01*
X71502Y11185D01*
X71506Y11183D01*
X71508Y11182D01*
X71516Y11179D01*
X71525Y11177D01*
X71544Y11174D01*
X71564Y11171D01*
X71585Y11169D01*
X71602Y11168D01*
X71611D01*
X71617Y11167D01*
X71623D01*
X71627D01*
X71630D01*
X71631D01*
X72001D01*
Y11082D01*
X71631D01*
X71613D01*
X71595Y11083D01*
X71578Y11084D01*
X71563Y11086D01*
X71549Y11088D01*
X71536Y11090D01*
X71524Y11092D01*
X71513Y11094D01*
X71503Y11096D01*
X71494Y11099D01*
X71487Y11101D01*
X71481Y11103D01*
X71477Y11104D01*
X71473Y11105D01*
X71471Y11106D01*
X71470D01*
X71450Y11116D01*
X71431Y11129D01*
X71417Y11142D01*
X71404Y11156D01*
X71393Y11168D01*
X71386Y11178D01*
X71384Y11182D01*
X71382Y11185D01*
X71380Y11187D01*
Y11188D01*
X71370Y11211D01*
X71363Y11235D01*
X71357Y11260D01*
X71354Y11283D01*
X71353Y11293D01*
X71352Y11303D01*
X71351Y11312D01*
Y11320D01*
X71350Y11326D01*
Y11335D01*
X71352Y11368D01*
X71354Y11383D01*
X71356Y11397D01*
X71358Y11410D01*
X71361Y11422D01*
X71364Y11434D01*
X71368Y11444D01*
X71371Y11453D01*
X71374Y11460D01*
X71377Y11468D01*
X71380Y11473D01*
X71382Y11478D01*
X71383Y11481D01*
X71385Y11483D01*
Y11483D01*
X71399Y11504D01*
X71415Y11520D01*
X71429Y11533D01*
X71444Y11545D01*
X71457Y11553D01*
X71467Y11558D01*
X71471Y11560D01*
X71474Y11562D01*
X71476Y11563D01*
X71477D01*
X71488Y11567D01*
X71500Y11570D01*
X71525Y11576D01*
X71551Y11580D01*
X71576Y11582D01*
X71587Y11583D01*
X71598Y11584D01*
X71607D01*
X71615Y11585D01*
X71622D01*
X71626D01*
X71630D01*
X71631D01*
X72001D01*
Y11500D01*
D02*
G37*
G36*
X182601Y16974D02*
Y16956D01*
X182600Y16938D01*
X182599Y16921D01*
X182597Y16906D01*
X182596Y16892D01*
X182594Y16879D01*
X182591Y16867D01*
X182589Y16856D01*
X182587Y16846D01*
X182584Y16837D01*
X182583Y16830D01*
X182581Y16824D01*
X182579Y16820D01*
X182578Y16816D01*
X182577Y16814D01*
Y16813D01*
X182567Y16793D01*
X182554Y16774D01*
X182541Y16760D01*
X182527Y16747D01*
X182515Y16737D01*
X182505Y16729D01*
X182501Y16727D01*
X182498Y16725D01*
X182497Y16724D01*
X182496D01*
X182473Y16713D01*
X182449Y16706D01*
X182424Y16700D01*
X182400Y16697D01*
X182390Y16696D01*
X182380Y16695D01*
X182371Y16694D01*
X182363D01*
X182357Y16693D01*
X182349D01*
X182315Y16695D01*
X182301Y16697D01*
X182287Y16699D01*
X182273Y16701D01*
X182261Y16704D01*
X182250Y16707D01*
X182240Y16711D01*
X182230Y16714D01*
X182223Y16717D01*
X182216Y16720D01*
X182210Y16723D01*
X182205Y16725D01*
X182203Y16726D01*
X182201Y16728D01*
X182200D01*
X182180Y16742D01*
X182163Y16758D01*
X182150Y16773D01*
X182139Y16787D01*
X182130Y16800D01*
X182125Y16810D01*
X182123Y16814D01*
X182121Y16817D01*
X182120Y16819D01*
Y16820D01*
X182117Y16831D01*
X182113Y16843D01*
X182107Y16868D01*
X182104Y16894D01*
X182101Y16919D01*
X182100Y16930D01*
X182099Y16941D01*
Y16950D01*
X182098Y16958D01*
Y16965D01*
Y16970D01*
Y16973D01*
Y16974D01*
Y17344D01*
X182183D01*
Y16974D01*
Y16953D01*
X182185Y16933D01*
X182187Y16915D01*
X182190Y16898D01*
X182192Y16884D01*
X182196Y16870D01*
X182199Y16858D01*
X182203Y16847D01*
X182206Y16839D01*
X182210Y16831D01*
X182214Y16825D01*
X182216Y16820D01*
X182219Y16816D01*
X182221Y16813D01*
X182222Y16812D01*
X182223Y16811D01*
X182231Y16804D01*
X182241Y16798D01*
X182261Y16787D01*
X182282Y16780D01*
X182304Y16775D01*
X182325Y16772D01*
X182333Y16771D01*
X182341D01*
X182347Y16770D01*
X182356D01*
X182376Y16771D01*
X182393Y16774D01*
X182410Y16776D01*
X182423Y16781D01*
X182434Y16785D01*
X182442Y16787D01*
X182447Y16790D01*
X182449Y16791D01*
X182461Y16799D01*
X182473Y16810D01*
X182482Y16820D01*
X182488Y16829D01*
X182494Y16838D01*
X182498Y16845D01*
X182500Y16849D01*
X182501Y16851D01*
X182504Y16860D01*
X182506Y16868D01*
X182510Y16887D01*
X182512Y16908D01*
X182514Y16928D01*
X182515Y16945D01*
Y16954D01*
X182516Y16960D01*
Y16966D01*
Y16970D01*
Y16973D01*
Y16974D01*
Y17344D01*
X182601D01*
Y16974D01*
D02*
G37*
G36*
X181796Y17346D02*
X181811Y17345D01*
X181836Y17339D01*
X181848Y17336D01*
X181860Y17332D01*
X181870Y17327D01*
X181879Y17323D01*
X181886Y17318D01*
X181894Y17313D01*
X181900Y17310D01*
X181905Y17306D01*
X181909Y17303D01*
X181911Y17301D01*
X181913Y17300D01*
X181914Y17299D01*
X181922Y17289D01*
X181931Y17280D01*
X181937Y17270D01*
X181943Y17260D01*
X181952Y17240D01*
X181958Y17222D01*
X181961Y17206D01*
X181962Y17199D01*
X181963Y17193D01*
X181964Y17188D01*
Y17184D01*
Y17182D01*
Y17181D01*
X181963Y17165D01*
X181960Y17149D01*
X181957Y17135D01*
X181952Y17123D01*
X181948Y17114D01*
X181945Y17106D01*
X181942Y17103D01*
X181941Y17101D01*
X181931Y17090D01*
X181920Y17080D01*
X181908Y17070D01*
X181896Y17063D01*
X181885Y17057D01*
X181876Y17054D01*
X181873Y17052D01*
X181870Y17051D01*
X181869Y17050D01*
X181868D01*
X181889Y17043D01*
X181907Y17035D01*
X181922Y17025D01*
X181935Y17016D01*
X181946Y17007D01*
X181953Y16999D01*
X181957Y16994D01*
X181959Y16994D01*
Y16993D01*
X181969Y16976D01*
X181977Y16958D01*
X181983Y16942D01*
X181986Y16925D01*
X181988Y16910D01*
X181989Y16904D01*
Y16898D01*
X181990Y16895D01*
Y16891D01*
Y16889D01*
Y16888D01*
X181989Y16873D01*
X181987Y16859D01*
X181984Y16845D01*
X181981Y16831D01*
X181971Y16808D01*
X181967Y16797D01*
X181961Y16787D01*
X181956Y16778D01*
X181951Y16771D01*
X181946Y16764D01*
X181942Y16759D01*
X181938Y16754D01*
X181935Y16751D01*
X181934Y16749D01*
X181933Y16749D01*
X181922Y16738D01*
X181910Y16730D01*
X181897Y16723D01*
X181884Y16716D01*
X181872Y16712D01*
X181859Y16707D01*
X181834Y16700D01*
X181823Y16698D01*
X181812Y16696D01*
X181803Y16695D01*
X181795Y16694D01*
X181788Y16693D01*
X181779D01*
X181762Y16694D01*
X181746Y16696D01*
X181730Y16699D01*
X181715Y16701D01*
X181702Y16706D01*
X181689Y16711D01*
X181677Y16715D01*
X181667Y16721D01*
X181658Y16726D01*
X181650Y16731D01*
X181643Y16736D01*
X181637Y16740D01*
X181632Y16743D01*
X181629Y16746D01*
X181628Y16748D01*
X181627Y16749D01*
X181616Y16760D01*
X181607Y16771D01*
X181600Y16782D01*
X181593Y16794D01*
X181587Y16805D01*
X181582Y16817D01*
X181576Y16838D01*
X181573Y16848D01*
X181571Y16858D01*
X181570Y16866D01*
X181569Y16872D01*
X181568Y16878D01*
Y16883D01*
Y16885D01*
Y16886D01*
X181569Y16908D01*
X181573Y16927D01*
X181579Y16945D01*
X181584Y16959D01*
X181590Y16971D01*
X181595Y16981D01*
X181599Y16986D01*
X181600Y16987D01*
Y16988D01*
X181613Y17003D01*
X181627Y17016D01*
X181641Y17026D01*
X181655Y17035D01*
X181668Y17042D01*
X181679Y17046D01*
X181683Y17048D01*
X181686Y17049D01*
X181688Y17050D01*
X181689D01*
X181672Y17057D01*
X181658Y17066D01*
X181646Y17074D01*
X181636Y17082D01*
X181628Y17090D01*
X181623Y17095D01*
X181619Y17099D01*
X181618Y17101D01*
X181610Y17114D01*
X181604Y17127D01*
X181600Y17140D01*
X181597Y17153D01*
X181595Y17163D01*
X181594Y17171D01*
Y17177D01*
Y17178D01*
Y17178D01*
X181595Y17191D01*
X181596Y17203D01*
X181603Y17227D01*
X181611Y17247D01*
X181620Y17264D01*
X181629Y17278D01*
X181634Y17284D01*
X181638Y17289D01*
X181641Y17293D01*
X181644Y17296D01*
X181645Y17297D01*
X181646Y17298D01*
X181656Y17306D01*
X181666Y17314D01*
X181677Y17321D01*
X181689Y17326D01*
X181711Y17335D01*
X181733Y17340D01*
X181742Y17343D01*
X181751Y17344D01*
X181760Y17345D01*
X181767Y17346D01*
X181773Y17347D01*
X181781D01*
X181796Y17346D01*
D02*
G37*
G36*
X193775Y18294D02*
X193790D01*
X193804Y18293D01*
X193817Y18291D01*
X193830Y18290D01*
X193841Y18289D01*
X193852Y18288D01*
X193861Y18287D01*
X193869Y18285D01*
X193876Y18284D01*
X193881Y18283D01*
X193886Y18282D01*
X193889Y18281D01*
X193890Y18280D01*
X193891D01*
X193912Y18275D01*
X193930Y18268D01*
X193946Y18261D01*
X193960Y18255D01*
X193972Y18249D01*
X193980Y18245D01*
X193985Y18241D01*
X193987Y18240D01*
X194000Y18230D01*
X194012Y18220D01*
X194023Y18209D01*
X194032Y18199D01*
X194038Y18190D01*
X194043Y18182D01*
X194046Y18178D01*
X194047Y18177D01*
Y18176D01*
X194054Y18161D01*
X194059Y18145D01*
X194062Y18130D01*
X194065Y18117D01*
X194067Y18105D01*
X194068Y18094D01*
Y18086D01*
X194066Y18061D01*
X194062Y18038D01*
X194056Y18019D01*
X194049Y18002D01*
X194042Y17988D01*
X194039Y17983D01*
X194036Y17978D01*
X194034Y17974D01*
X194032Y17971D01*
X194030Y17971D01*
Y17970D01*
X194015Y17953D01*
X193998Y17939D01*
X193980Y17927D01*
X193963Y17918D01*
X193948Y17910D01*
X193941Y17907D01*
X193935Y17905D01*
X193930Y17903D01*
X193926Y17901D01*
X193925Y17900D01*
X193924D01*
X193910Y17897D01*
X193896Y17893D01*
X193865Y17887D01*
X193835Y17883D01*
X193806Y17880D01*
X193792Y17879D01*
X193780Y17878D01*
X193769D01*
X193759Y17877D01*
X193752D01*
X193745D01*
X193742D01*
X193741D01*
X193708Y17878D01*
X193678Y17880D01*
X193650Y17883D01*
X193624Y17887D01*
X193600Y17892D01*
X193579Y17897D01*
X193559Y17903D01*
X193543Y17909D01*
X193528Y17914D01*
X193515Y17921D01*
X193504Y17925D01*
X193496Y17930D01*
X193488Y17934D01*
X193484Y17937D01*
X193481Y17939D01*
X193480Y17940D01*
X193469Y17950D01*
X193459Y17961D01*
X193449Y17973D01*
X193442Y17985D01*
X193436Y17997D01*
X193430Y18009D01*
X193426Y18021D01*
X193423Y18032D01*
X193420Y18044D01*
X193418Y18054D01*
X193416Y18063D01*
X193415Y18070D01*
X193414Y18077D01*
Y18086D01*
X193416Y18111D01*
X193420Y18134D01*
X193426Y18154D01*
X193433Y18170D01*
X193439Y18184D01*
X193443Y18189D01*
X193446Y18193D01*
X193448Y18197D01*
X193449Y18200D01*
X193451Y18201D01*
Y18202D01*
X193467Y18218D01*
X193484Y18232D01*
X193502Y18244D01*
X193519Y18253D01*
X193534Y18261D01*
X193541Y18265D01*
X193547Y18266D01*
X193552Y18268D01*
X193556Y18270D01*
X193558Y18271D01*
X193558D01*
X193572Y18276D01*
X193586Y18279D01*
X193616Y18285D01*
X193646Y18289D01*
X193676Y18292D01*
X193689Y18293D01*
X193701Y18294D01*
X193712D01*
X193722Y18295D01*
X193730D01*
X193736D01*
X193740D01*
X193741D01*
X193758D01*
X193775Y18294D01*
D02*
G37*
G36*
X194068Y17625D02*
X194052Y17615D01*
X194037Y17605D01*
X194023Y17593D01*
X194010Y17582D01*
X193999Y17571D01*
X193989Y17563D01*
X193987Y17559D01*
X193984Y17556D01*
X193983Y17555D01*
X193982Y17554D01*
X193966Y17535D01*
X193951Y17516D01*
X193938Y17497D01*
X193928Y17479D01*
X193919Y17463D01*
X193915Y17456D01*
X193913Y17451D01*
X193910Y17446D01*
X193909Y17443D01*
X193907Y17441D01*
Y17440D01*
X193831D01*
X193837Y17454D01*
X193843Y17468D01*
X193850Y17481D01*
X193856Y17494D01*
X193862Y17505D01*
X193866Y17515D01*
X193870Y17520D01*
X193871Y17521D01*
Y17522D01*
X193881Y17539D01*
X193891Y17554D01*
X193901Y17566D01*
X193909Y17577D01*
X193915Y17586D01*
X193921Y17591D01*
X193925Y17596D01*
X193926Y17597D01*
X193425D01*
Y17676D01*
X194068D01*
Y17625D01*
D02*
G37*
G36*
X193649Y17223D02*
X193634Y17219D01*
X193620Y17214D01*
X193607Y17210D01*
X193595Y17205D01*
X193584Y17199D01*
X193575Y17194D01*
X193566Y17187D01*
X193558Y17182D01*
X193550Y17177D01*
X193545Y17172D01*
X193539Y17167D01*
X193534Y17163D01*
X193532Y17160D01*
X193529Y17157D01*
X193528Y17156D01*
X193527Y17155D01*
X193520Y17146D01*
X193514Y17136D01*
X193504Y17115D01*
X193497Y17096D01*
X193492Y17076D01*
X193488Y17060D01*
X193487Y17053D01*
Y17047D01*
X193486Y17041D01*
Y17035D01*
X193487Y17014D01*
X193491Y16993D01*
X193496Y16975D01*
X193501Y16958D01*
X193507Y16945D01*
X193509Y16940D01*
X193511Y16935D01*
X193513Y16931D01*
X193515Y16929D01*
X193516Y16927D01*
Y16926D01*
X193529Y16908D01*
X193543Y16893D01*
X193558Y16880D01*
X193573Y16870D01*
X193586Y16862D01*
X193597Y16856D01*
X193602Y16855D01*
X193605Y16853D01*
X193607Y16852D01*
X193607D01*
X193632Y16844D01*
X193656Y16839D01*
X193680Y16834D01*
X193702Y16831D01*
X193712Y16831D01*
X193721Y16830D01*
X193730D01*
X193736Y16829D01*
X193742D01*
X193746D01*
X193749D01*
X193750D01*
X193774Y16830D01*
X193796Y16831D01*
X193816Y16835D01*
X193835Y16839D01*
X193851Y16842D01*
X193857Y16843D01*
X193863Y16845D01*
X193867Y16846D01*
X193870Y16847D01*
X193872Y16848D01*
X193873D01*
X193894Y16857D01*
X193914Y16868D01*
X193929Y16879D01*
X193943Y16891D01*
X193954Y16901D01*
X193962Y16909D01*
X193966Y16916D01*
X193968Y16917D01*
Y16917D01*
X193980Y16937D01*
X193989Y16958D01*
X193996Y16978D01*
X193999Y16998D01*
X194002Y17015D01*
X194003Y17023D01*
Y17029D01*
X194004Y17034D01*
Y17041D01*
X194003Y17064D01*
X193999Y17086D01*
X193994Y17103D01*
X193988Y17119D01*
X193982Y17131D01*
X193977Y17140D01*
X193974Y17146D01*
X193972Y17148D01*
X193958Y17162D01*
X193942Y17176D01*
X193926Y17187D01*
X193909Y17197D01*
X193894Y17204D01*
X193887Y17207D01*
X193881Y17209D01*
X193877Y17211D01*
X193873Y17212D01*
X193871Y17213D01*
X193870D01*
X193889Y17297D01*
X193906Y17291D01*
X193921Y17285D01*
X193935Y17278D01*
X193949Y17272D01*
X193961Y17264D01*
X193972Y17256D01*
X193983Y17248D01*
X193992Y17241D01*
X193999Y17234D01*
X194007Y17227D01*
X194013Y17221D01*
X194018Y17216D01*
X194023Y17211D01*
X194025Y17208D01*
X194026Y17206D01*
X194027Y17205D01*
X194036Y17192D01*
X194044Y17179D01*
X194050Y17166D01*
X194056Y17152D01*
X194064Y17125D01*
X194070Y17100D01*
X194073Y17088D01*
X194073Y17077D01*
X194074Y17067D01*
X194075Y17059D01*
X194076Y17052D01*
Y17043D01*
X194074Y17013D01*
X194070Y16983D01*
X194064Y16957D01*
X194061Y16945D01*
X194057Y16934D01*
X194053Y16924D01*
X194049Y16915D01*
X194047Y16907D01*
X194044Y16900D01*
X194041Y16895D01*
X194039Y16892D01*
X194038Y16889D01*
X194037Y16888D01*
X194022Y16863D01*
X194003Y16842D01*
X193985Y16823D01*
X193966Y16807D01*
X193950Y16795D01*
X193942Y16791D01*
X193936Y16787D01*
X193931Y16783D01*
X193927Y16782D01*
X193925Y16781D01*
X193924Y16780D01*
X193895Y16767D01*
X193865Y16757D01*
X193836Y16751D01*
X193809Y16746D01*
X193797Y16745D01*
X193785Y16744D01*
X193776Y16743D01*
X193766D01*
X193760Y16742D01*
X193754D01*
X193751D01*
X193750D01*
X193717Y16744D01*
X193684Y16747D01*
X193656Y16752D01*
X193642Y16756D01*
X193630Y16758D01*
X193619Y16761D01*
X193608Y16765D01*
X193599Y16768D01*
X193592Y16770D01*
X193586Y16772D01*
X193582Y16773D01*
X193579Y16775D01*
X193578D01*
X193550Y16789D01*
X193525Y16805D01*
X193504Y16821D01*
X193496Y16830D01*
X193487Y16837D01*
X193480Y16844D01*
X193473Y16852D01*
X193468Y16858D01*
X193464Y16864D01*
X193460Y16868D01*
X193458Y16871D01*
X193457Y16873D01*
X193456Y16874D01*
X193448Y16887D01*
X193442Y16900D01*
X193432Y16928D01*
X193424Y16955D01*
X193420Y16982D01*
X193418Y16995D01*
X193416Y17006D01*
X193415Y17016D01*
Y17025D01*
X193414Y17032D01*
Y17042D01*
X193415Y17061D01*
X193417Y17078D01*
X193419Y17095D01*
X193423Y17111D01*
X193427Y17125D01*
X193432Y17139D01*
X193436Y17152D01*
X193442Y17164D01*
X193447Y17174D01*
X193451Y17185D01*
X193456Y17192D01*
X193460Y17199D01*
X193464Y17204D01*
X193466Y17209D01*
X193468Y17211D01*
X193469Y17211D01*
X193480Y17224D01*
X193491Y17236D01*
X193504Y17246D01*
X193517Y17256D01*
X193543Y17272D01*
X193569Y17285D01*
X193581Y17291D01*
X193592Y17296D01*
X193602Y17299D01*
X193610Y17302D01*
X193618Y17305D01*
X193623Y17307D01*
X193627Y17308D01*
X193628D01*
X193649Y17223D01*
D02*
G37*
G36*
X193145Y19973D02*
X193177Y19970D01*
X193206Y19965D01*
X193220Y19961D01*
X193232Y19958D01*
X193243Y19956D01*
X193253Y19952D01*
X193262Y19949D01*
X193270Y19947D01*
X193275Y19945D01*
X193280Y19944D01*
X193283Y19942D01*
X193283D01*
X193311Y19928D01*
X193336Y19912D01*
X193357Y19896D01*
X193366Y19887D01*
X193374Y19880D01*
X193381Y19872D01*
X193388Y19865D01*
X193393Y19859D01*
X193397Y19853D01*
X193401Y19849D01*
X193404Y19846D01*
X193405Y19844D01*
X193405Y19843D01*
X193413Y19830D01*
X193419Y19817D01*
X193430Y19789D01*
X193437Y19762D01*
X193442Y19735D01*
X193443Y19722D01*
X193445Y19711D01*
X193446Y19701D01*
Y19692D01*
X193447Y19685D01*
Y19675D01*
X193446Y19656D01*
X193444Y19639D01*
X193442Y19622D01*
X193439Y19606D01*
X193434Y19591D01*
X193430Y19578D01*
X193425Y19565D01*
X193419Y19553D01*
X193415Y19542D01*
X193410Y19532D01*
X193405Y19525D01*
X193401Y19517D01*
X193397Y19513D01*
X193395Y19508D01*
X193393Y19506D01*
X193393Y19505D01*
X193381Y19492D01*
X193370Y19481D01*
X193357Y19471D01*
X193344Y19461D01*
X193319Y19444D01*
X193293Y19431D01*
X193281Y19426D01*
X193270Y19421D01*
X193259Y19418D01*
X193251Y19415D01*
X193244Y19412D01*
X193238Y19410D01*
X193234Y19409D01*
X193234D01*
X193212Y19494D01*
X193227Y19498D01*
X193241Y19503D01*
X193254Y19507D01*
X193266Y19512D01*
X193277Y19517D01*
X193286Y19523D01*
X193295Y19529D01*
X193304Y19535D01*
X193311Y19540D01*
X193317Y19545D01*
X193322Y19550D01*
X193327Y19553D01*
X193330Y19557D01*
X193332Y19560D01*
X193333Y19561D01*
X193334Y19562D01*
X193342Y19571D01*
X193347Y19581D01*
X193357Y19602D01*
X193365Y19621D01*
X193369Y19640D01*
X193373Y19657D01*
X193374Y19664D01*
Y19670D01*
X193375Y19676D01*
Y19682D01*
X193374Y19703D01*
X193370Y19724D01*
X193366Y19742D01*
X193360Y19759D01*
X193355Y19772D01*
X193352Y19777D01*
X193350Y19782D01*
X193348Y19786D01*
X193346Y19788D01*
X193345Y19790D01*
Y19791D01*
X193332Y19809D01*
X193319Y19823D01*
X193303Y19836D01*
X193288Y19847D01*
X193275Y19855D01*
X193264Y19860D01*
X193259Y19862D01*
X193257Y19864D01*
X193255Y19865D01*
X193254D01*
X193230Y19872D01*
X193206Y19878D01*
X193182Y19883D01*
X193160Y19885D01*
X193149Y19886D01*
X193140Y19887D01*
X193132D01*
X193125Y19888D01*
X193120D01*
X193115D01*
X193112D01*
X193111D01*
X193087Y19887D01*
X193065Y19885D01*
X193045Y19882D01*
X193026Y19878D01*
X193011Y19875D01*
X193004Y19873D01*
X192999Y19872D01*
X192994Y19871D01*
X192991Y19870D01*
X192989Y19869D01*
X192988D01*
X192967Y19860D01*
X192948Y19849D01*
X192932Y19838D01*
X192918Y19826D01*
X192907Y19816D01*
X192900Y19808D01*
X192895Y19801D01*
X192893Y19800D01*
Y19799D01*
X192881Y19780D01*
X192872Y19759D01*
X192866Y19738D01*
X192862Y19719D01*
X192859Y19701D01*
X192858Y19694D01*
Y19688D01*
X192857Y19683D01*
Y19676D01*
X192858Y19652D01*
X192862Y19631D01*
X192867Y19614D01*
X192873Y19598D01*
X192879Y19586D01*
X192884Y19577D01*
X192888Y19571D01*
X192890Y19569D01*
X192903Y19554D01*
X192919Y19541D01*
X192936Y19529D01*
X192952Y19520D01*
X192967Y19513D01*
X192975Y19510D01*
X192980Y19508D01*
X192985Y19506D01*
X192988Y19504D01*
X192990Y19504D01*
X192991D01*
X192972Y19420D01*
X192955Y19426D01*
X192940Y19431D01*
X192927Y19439D01*
X192913Y19445D01*
X192901Y19453D01*
X192890Y19461D01*
X192878Y19468D01*
X192869Y19476D01*
X192862Y19483D01*
X192854Y19490D01*
X192848Y19496D01*
X192843Y19501D01*
X192839Y19505D01*
X192836Y19509D01*
X192835Y19511D01*
X192834Y19512D01*
X192826Y19525D01*
X192817Y19538D01*
X192811Y19551D01*
X192805Y19565D01*
X192797Y19592D01*
X192792Y19617D01*
X192789Y19629D01*
X192788Y19639D01*
X192787Y19650D01*
X192786Y19658D01*
X192785Y19664D01*
Y19674D01*
X192787Y19704D01*
X192792Y19734D01*
X192797Y19760D01*
X192801Y19772D01*
X192805Y19783D01*
X192808Y19793D01*
X192812Y19802D01*
X192815Y19810D01*
X192817Y19817D01*
X192820Y19822D01*
X192822Y19825D01*
X192823Y19828D01*
X192824Y19829D01*
X192840Y19854D01*
X192858Y19875D01*
X192877Y19894D01*
X192895Y19909D01*
X192912Y19921D01*
X192919Y19926D01*
X192926Y19930D01*
X192930Y19933D01*
X192934Y19935D01*
X192937Y19936D01*
X192938Y19937D01*
X192966Y19950D01*
X192996Y19959D01*
X193025Y19966D01*
X193052Y19970D01*
X193064Y19972D01*
X193076Y19973D01*
X193086Y19974D01*
X193095D01*
X193101Y19975D01*
X193107D01*
X193111D01*
X193111D01*
X193145Y19973D01*
D02*
G37*
G36*
X193267Y19337D02*
X193282Y19335D01*
X193295Y19333D01*
X193309Y19329D01*
X193332Y19320D01*
X193344Y19315D01*
X193353Y19309D01*
X193362Y19304D01*
X193369Y19299D01*
X193376Y19294D01*
X193381Y19290D01*
X193386Y19286D01*
X193389Y19284D01*
X193391Y19282D01*
X193392Y19281D01*
X193402Y19270D01*
X193410Y19258D01*
X193417Y19245D01*
X193424Y19232D01*
X193429Y19220D01*
X193433Y19207D01*
X193440Y19182D01*
X193442Y19171D01*
X193444Y19161D01*
X193445Y19151D01*
X193446Y19143D01*
X193447Y19137D01*
Y19127D01*
X193446Y19110D01*
X193444Y19094D01*
X193442Y19078D01*
X193439Y19063D01*
X193434Y19051D01*
X193430Y19038D01*
X193425Y19026D01*
X193419Y19015D01*
X193414Y19006D01*
X193409Y18998D01*
X193405Y18991D01*
X193400Y18985D01*
X193397Y18980D01*
X193394Y18978D01*
X193393Y18976D01*
X193392Y18975D01*
X193381Y18965D01*
X193369Y18955D01*
X193358Y18948D01*
X193346Y18941D01*
X193335Y18935D01*
X193323Y18930D01*
X193302Y18924D01*
X193292Y18921D01*
X193283Y18919D01*
X193274Y18918D01*
X193268Y18917D01*
X193262Y18916D01*
X193258D01*
X193255D01*
X193254D01*
X193233Y18917D01*
X193213Y18921D01*
X193196Y18927D01*
X193181Y18932D01*
X193169Y18938D01*
X193160Y18943D01*
X193154Y18947D01*
X193153Y18948D01*
X193152D01*
X193137Y18961D01*
X193124Y18975D01*
X193114Y18990D01*
X193105Y19003D01*
X193099Y19016D01*
X193094Y19027D01*
X193092Y19031D01*
X193091Y19034D01*
X193090Y19036D01*
Y19037D01*
X193083Y19020D01*
X193074Y19006D01*
X193066Y18994D01*
X193058Y18984D01*
X193050Y18977D01*
X193045Y18971D01*
X193041Y18967D01*
X193039Y18966D01*
X193026Y18958D01*
X193013Y18953D01*
X193001Y18948D01*
X192988Y18945D01*
X192977Y18943D01*
X192969Y18942D01*
X192964D01*
X192963D01*
X192962D01*
X192949Y18943D01*
X192937Y18944D01*
X192914Y18951D01*
X192893Y18959D01*
X192876Y18968D01*
X192862Y18978D01*
X192856Y18982D01*
X192851Y18986D01*
X192847Y18990D01*
X192844Y18992D01*
X192843Y18993D01*
X192842Y18994D01*
X192834Y19004D01*
X192826Y19014D01*
X192819Y19026D01*
X192814Y19037D01*
X192805Y19059D01*
X192800Y19081D01*
X192797Y19090D01*
X192796Y19100D01*
X192795Y19108D01*
X192794Y19115D01*
X192793Y19121D01*
Y19129D01*
X192794Y19144D01*
X192795Y19159D01*
X192801Y19185D01*
X192805Y19197D01*
X192808Y19208D01*
X192813Y19218D01*
X192817Y19227D01*
X192822Y19235D01*
X192827Y19242D01*
X192830Y19248D01*
X192834Y19253D01*
X192837Y19257D01*
X192840Y19259D01*
X192841Y19261D01*
X192842Y19262D01*
X192851Y19271D01*
X192860Y19279D01*
X192870Y19285D01*
X192880Y19291D01*
X192900Y19300D01*
X192918Y19306D01*
X192934Y19309D01*
X192941Y19310D01*
X192947Y19311D01*
X192952Y19312D01*
X192956D01*
X192958D01*
X192959D01*
X192976Y19311D01*
X192991Y19308D01*
X193005Y19305D01*
X193017Y19300D01*
X193026Y19296D01*
X193034Y19293D01*
X193038Y19290D01*
X193039Y19289D01*
X193050Y19279D01*
X193061Y19268D01*
X193070Y19256D01*
X193077Y19244D01*
X193083Y19233D01*
X193087Y19224D01*
X193088Y19221D01*
X193089Y19218D01*
X193090Y19217D01*
Y19216D01*
X193097Y19237D01*
X193105Y19255D01*
X193115Y19271D01*
X193124Y19284D01*
X193134Y19294D01*
X193141Y19301D01*
X193146Y19305D01*
X193147Y19307D01*
X193148D01*
X193164Y19317D01*
X193182Y19325D01*
X193198Y19331D01*
X193215Y19334D01*
X193230Y19336D01*
X193236Y19337D01*
X193242D01*
X193246Y19338D01*
X193249D01*
X193251D01*
X193252D01*
X193267Y19337D01*
D02*
G37*
G36*
X314828Y40832D02*
X314812Y40823D01*
X314798Y40813D01*
X314783Y40801D01*
X314770Y40790D01*
X314759Y40779D01*
X314750Y40770D01*
X314747Y40766D01*
X314744Y40764D01*
X314743Y40763D01*
X314742Y40762D01*
X314726Y40742D01*
X314712Y40723D01*
X314699Y40705D01*
X314688Y40686D01*
X314679Y40670D01*
X314676Y40664D01*
X314673Y40658D01*
X314670Y40654D01*
X314669Y40650D01*
X314667Y40648D01*
Y40647D01*
X314591D01*
X314597Y40661D01*
X314603Y40675D01*
X314610Y40689D01*
X314616Y40702D01*
X314622Y40713D01*
X314627Y40722D01*
X314630Y40728D01*
X314631Y40729D01*
Y40730D01*
X314641Y40746D01*
X314651Y40761D01*
X314661Y40774D01*
X314669Y40784D01*
X314676Y40793D01*
X314681Y40799D01*
X314685Y40803D01*
X314686Y40804D01*
X314186D01*
Y40883D01*
X314828D01*
Y40832D01*
D02*
G37*
G36*
X314825Y40025D02*
X314750D01*
Y40236D01*
X314186D01*
Y40321D01*
X314750D01*
Y40532D01*
X314825D01*
Y40025D01*
D02*
G37*
G36*
X310236Y41098D02*
X310650D01*
Y41035D01*
X310236Y40742D01*
X310164D01*
Y41020D01*
X310010D01*
Y41098D01*
X310164D01*
Y41185D01*
X310236D01*
Y41098D01*
D02*
G37*
G36*
X310027Y40681D02*
X310035Y40661D01*
X310046Y40643D01*
X310056Y40626D01*
X310064Y40612D01*
X310068Y40606D01*
X310071Y40601D01*
X310074Y40596D01*
X310076Y40594D01*
X310078Y40592D01*
Y40591D01*
X310096Y40608D01*
X310115Y40622D01*
X310133Y40635D01*
X310151Y40645D01*
X310166Y40653D01*
X310172Y40656D01*
X310178Y40658D01*
X310181Y40660D01*
X310185Y40662D01*
X310187Y40663D01*
X310188D01*
X310212Y40671D01*
X310237Y40677D01*
X310261Y40682D01*
X310283Y40684D01*
X310292Y40685D01*
X310302Y40686D01*
X310310D01*
X310317Y40687D01*
X310323D01*
X310327D01*
X310329D01*
X310330D01*
X310365Y40685D01*
X310397Y40682D01*
X310412Y40679D01*
X310426Y40675D01*
X310439Y40671D01*
X310451Y40669D01*
X310462Y40665D01*
X310472Y40661D01*
X310480Y40658D01*
X310488Y40655D01*
X310493Y40653D01*
X310497Y40651D01*
X310500Y40649D01*
X310500D01*
X310527Y40634D01*
X310551Y40617D01*
X310572Y40598D01*
X310588Y40582D01*
X310601Y40566D01*
X310607Y40559D01*
X310611Y40553D01*
X310614Y40547D01*
X310617Y40544D01*
X310618Y40542D01*
X310619Y40541D01*
X310626Y40527D01*
X310633Y40513D01*
X310644Y40486D01*
X310651Y40459D01*
X310656Y40435D01*
X310658Y40424D01*
X310659Y40412D01*
X310660Y40404D01*
Y40396D01*
X310661Y40389D01*
Y40364D01*
X310659Y40349D01*
X310655Y40319D01*
X310648Y40292D01*
X310645Y40280D01*
X310641Y40268D01*
X310637Y40258D01*
X310634Y40249D01*
X310630Y40241D01*
X310627Y40235D01*
X310624Y40229D01*
X310622Y40226D01*
X310622Y40223D01*
X310621Y40222D01*
X310604Y40197D01*
X310585Y40176D01*
X310565Y40156D01*
X310547Y40142D01*
X310529Y40129D01*
X310522Y40124D01*
X310515Y40120D01*
X310510Y40117D01*
X310506Y40115D01*
X310503Y40114D01*
X310502Y40113D01*
X310473Y40100D01*
X310442Y40091D01*
X310414Y40084D01*
X310387Y40080D01*
X310375Y40078D01*
X310364Y40077D01*
X310353Y40076D01*
X310345D01*
X310339Y40075D01*
X310334D01*
X310330D01*
X310329D01*
X310295Y40077D01*
X310263Y40081D01*
X310247Y40084D01*
X310233Y40087D01*
X310220Y40091D01*
X310208Y40094D01*
X310197Y40097D01*
X310187Y40101D01*
X310179Y40105D01*
X310171Y40107D01*
X310166Y40109D01*
X310162Y40111D01*
X310159Y40113D01*
X310158D01*
X310132Y40129D01*
X310108Y40146D01*
X310088Y40164D01*
X310071Y40181D01*
X310059Y40197D01*
X310053Y40204D01*
X310048Y40210D01*
X310046Y40215D01*
X310043Y40218D01*
X310042Y40220D01*
X310041Y40221D01*
X310034Y40235D01*
X310027Y40248D01*
X310017Y40276D01*
X310010Y40302D01*
X310005Y40326D01*
X310003Y40338D01*
X310001Y40348D01*
X310000Y40357D01*
Y40364D01*
X309999Y40371D01*
Y40379D01*
X310000Y40395D01*
X310001Y40411D01*
X310006Y40440D01*
X310012Y40467D01*
X310016Y40479D01*
X310020Y40490D01*
X310023Y40500D01*
X310026Y40510D01*
X310030Y40517D01*
X310033Y40524D01*
X310035Y40529D01*
X310037Y40534D01*
X310039Y40535D01*
Y40536D01*
X310021Y40562D01*
X310004Y40587D01*
X309991Y40610D01*
X309980Y40631D01*
X309975Y40640D01*
X309972Y40648D01*
X309968Y40656D01*
X309965Y40662D01*
X309963Y40668D01*
X309961Y40671D01*
X309961Y40673D01*
Y40674D01*
X310019Y40699D01*
X310027Y40681D01*
D02*
G37*
G36*
X17677Y92490D02*
X17664Y92472D01*
X17652Y92455D01*
X17640Y92441D01*
X17630Y92428D01*
X17621Y92419D01*
X17613Y92412D01*
X17609Y92407D01*
X17607Y92405D01*
X17599Y92399D01*
X17591Y92393D01*
X17574Y92383D01*
X17567Y92379D01*
X17562Y92375D01*
X17558Y92374D01*
X17556Y92373D01*
X17573Y92370D01*
X17588Y92367D01*
X17602Y92363D01*
X17616Y92359D01*
X17628Y92354D01*
X17639Y92349D01*
X17649Y92344D01*
X17659Y92339D01*
X17666Y92334D01*
X17673Y92329D01*
X17679Y92326D01*
X17684Y92322D01*
X17687Y92319D01*
X17690Y92316D01*
X17691Y92315D01*
X17692Y92314D01*
X17699Y92305D01*
X17707Y92296D01*
X17718Y92277D01*
X17725Y92257D01*
X17731Y92239D01*
X17734Y92223D01*
X17735Y92216D01*
Y92210D01*
X17736Y92205D01*
Y92202D01*
Y92200D01*
Y92199D01*
X17735Y92179D01*
X17733Y92162D01*
X17728Y92145D01*
X17723Y92131D01*
X17718Y92119D01*
X17714Y92110D01*
X17710Y92105D01*
X17709Y92104D01*
Y92103D01*
X17698Y92088D01*
X17687Y92075D01*
X17675Y92064D01*
X17664Y92056D01*
X17654Y92049D01*
X17646Y92045D01*
X17640Y92043D01*
X17639Y92042D01*
X17638D01*
X17630Y92039D01*
X17620Y92036D01*
X17599Y92032D01*
X17577Y92029D01*
X17557Y92026D01*
X17537Y92025D01*
X17529D01*
X17522Y92024D01*
X17225D01*
Y92664D01*
X17310D01*
Y92380D01*
X17419D01*
X17429Y92381D01*
X17437D01*
X17443Y92382D01*
X17448Y92383D01*
X17451D01*
X17453Y92384D01*
X17454D01*
X17469Y92388D01*
X17476Y92391D01*
X17481Y92394D01*
X17487Y92397D01*
X17490Y92399D01*
X17492Y92399D01*
X17493Y92400D01*
X17501Y92406D01*
X17508Y92412D01*
X17522Y92426D01*
X17528Y92433D01*
X17533Y92438D01*
X17536Y92442D01*
X17537Y92443D01*
X17546Y92456D01*
X17556Y92470D01*
X17566Y92485D01*
X17576Y92498D01*
X17585Y92511D01*
X17591Y92522D01*
X17594Y92525D01*
X17596Y92528D01*
X17598Y92530D01*
Y92531D01*
X17682Y92664D01*
X17787D01*
X17677Y92490D01*
D02*
G37*
G36*
X18568Y92673D02*
X18591Y92669D01*
X18611Y92663D01*
X18628Y92657D01*
X18641Y92650D01*
X18646Y92646D01*
X18651Y92644D01*
X18654Y92642D01*
X18657Y92640D01*
X18658Y92638D01*
X18659D01*
X18676Y92622D01*
X18689Y92606D01*
X18702Y92587D01*
X18711Y92571D01*
X18718Y92555D01*
X18722Y92548D01*
X18724Y92542D01*
X18726Y92537D01*
X18727Y92534D01*
X18728Y92532D01*
Y92531D01*
X18733Y92517D01*
X18737Y92503D01*
X18742Y92473D01*
X18747Y92443D01*
X18750Y92413D01*
X18751Y92400D01*
X18751Y92388D01*
Y92377D01*
X18752Y92367D01*
Y92360D01*
Y92353D01*
Y92350D01*
Y92349D01*
Y92331D01*
X18751Y92314D01*
Y92300D01*
X18751Y92285D01*
X18749Y92272D01*
X18748Y92259D01*
X18747Y92248D01*
X18745Y92238D01*
X18744Y92228D01*
X18742Y92220D01*
X18741Y92214D01*
X18740Y92208D01*
X18739Y92203D01*
X18738Y92201D01*
X18738Y92199D01*
Y92198D01*
X18732Y92178D01*
X18726Y92159D01*
X18718Y92143D01*
X18713Y92130D01*
X18706Y92118D01*
X18702Y92109D01*
X18699Y92105D01*
X18698Y92103D01*
X18688Y92089D01*
X18677Y92077D01*
X18666Y92067D01*
X18656Y92057D01*
X18647Y92051D01*
X18640Y92046D01*
X18635Y92044D01*
X18634Y92043D01*
X18633D01*
X18618Y92035D01*
X18603Y92031D01*
X18588Y92027D01*
X18574Y92024D01*
X18562Y92022D01*
X18552Y92021D01*
X18543D01*
X18518Y92023D01*
X18495Y92027D01*
X18476Y92033D01*
X18459Y92040D01*
X18445Y92047D01*
X18440Y92050D01*
X18435Y92054D01*
X18432Y92056D01*
X18429Y92057D01*
X18428Y92059D01*
X18427D01*
X18410Y92074D01*
X18396Y92092D01*
X18384Y92109D01*
X18375Y92126D01*
X18368Y92142D01*
X18364Y92148D01*
X18362Y92154D01*
X18360Y92159D01*
X18358Y92163D01*
X18358Y92165D01*
Y92166D01*
X18354Y92179D01*
X18350Y92193D01*
X18345Y92224D01*
X18340Y92254D01*
X18337Y92283D01*
X18336Y92297D01*
X18335Y92309D01*
Y92320D01*
X18334Y92330D01*
Y92338D01*
Y92344D01*
Y92348D01*
Y92349D01*
X18335Y92381D01*
X18337Y92412D01*
X18340Y92439D01*
X18345Y92465D01*
X18349Y92489D01*
X18355Y92510D01*
X18360Y92530D01*
X18366Y92546D01*
X18371Y92561D01*
X18378Y92574D01*
X18383Y92585D01*
X18387Y92594D01*
X18392Y92601D01*
X18395Y92606D01*
X18396Y92608D01*
X18397Y92609D01*
X18407Y92620D01*
X18419Y92631D01*
X18431Y92640D01*
X18443Y92647D01*
X18455Y92654D01*
X18467Y92659D01*
X18479Y92663D01*
X18490Y92667D01*
X18501Y92669D01*
X18511Y92671D01*
X18520Y92673D01*
X18528Y92674D01*
X18534Y92675D01*
X18543D01*
X18568Y92673D01*
D02*
G37*
G36*
X18064Y92674D02*
X18080Y92672D01*
X18096Y92669D01*
X18111Y92667D01*
X18124Y92662D01*
X18137Y92657D01*
X18149Y92653D01*
X18159Y92647D01*
X18168Y92642D01*
X18176Y92637D01*
X18183Y92632D01*
X18189Y92628D01*
X18194Y92625D01*
X18197Y92622D01*
X18199Y92620D01*
X18199Y92620D01*
X18210Y92608D01*
X18219Y92597D01*
X18226Y92586D01*
X18233Y92574D01*
X18239Y92563D01*
X18244Y92551D01*
X18250Y92530D01*
X18253Y92520D01*
X18255Y92510D01*
X18256Y92502D01*
X18257Y92496D01*
X18258Y92490D01*
Y92485D01*
Y92483D01*
Y92482D01*
X18257Y92461D01*
X18253Y92441D01*
X18248Y92424D01*
X18242Y92409D01*
X18236Y92397D01*
X18231Y92387D01*
X18227Y92382D01*
X18226Y92381D01*
Y92380D01*
X18213Y92365D01*
X18199Y92352D01*
X18185Y92342D01*
X18171Y92333D01*
X18158Y92326D01*
X18147Y92322D01*
X18143Y92320D01*
X18140Y92319D01*
X18138Y92318D01*
X18138D01*
X18154Y92311D01*
X18168Y92302D01*
X18180Y92294D01*
X18190Y92286D01*
X18198Y92278D01*
X18203Y92273D01*
X18207Y92269D01*
X18208Y92267D01*
X18216Y92254D01*
X18222Y92241D01*
X18226Y92228D01*
X18229Y92215D01*
X18231Y92205D01*
X18232Y92197D01*
Y92191D01*
Y92191D01*
Y92190D01*
X18231Y92177D01*
X18230Y92165D01*
X18224Y92142D01*
X18215Y92121D01*
X18206Y92104D01*
X18197Y92090D01*
X18192Y92084D01*
X18188Y92079D01*
X18185Y92075D01*
X18182Y92072D01*
X18181Y92071D01*
X18180Y92070D01*
X18170Y92062D01*
X18160Y92054D01*
X18149Y92047D01*
X18138Y92042D01*
X18115Y92033D01*
X18093Y92028D01*
X18084Y92025D01*
X18075Y92024D01*
X18066Y92023D01*
X18059Y92022D01*
X18053Y92021D01*
X18045D01*
X18030Y92022D01*
X18015Y92023D01*
X17990Y92029D01*
X17978Y92032D01*
X17966Y92036D01*
X17956Y92041D01*
X17947Y92045D01*
X17940Y92050D01*
X17932Y92055D01*
X17926Y92058D01*
X17921Y92062D01*
X17917Y92065D01*
X17915Y92068D01*
X17913Y92068D01*
X17912Y92069D01*
X17904Y92079D01*
X17895Y92088D01*
X17889Y92098D01*
X17883Y92108D01*
X17874Y92128D01*
X17868Y92146D01*
X17865Y92162D01*
X17864Y92169D01*
X17863Y92175D01*
X17862Y92180D01*
Y92184D01*
Y92186D01*
Y92187D01*
X17863Y92203D01*
X17866Y92219D01*
X17869Y92233D01*
X17874Y92245D01*
X17878Y92254D01*
X17881Y92262D01*
X17884Y92265D01*
X17885Y92267D01*
X17895Y92278D01*
X17906Y92289D01*
X17918Y92298D01*
X17930Y92305D01*
X17942Y92311D01*
X17950Y92314D01*
X17954Y92316D01*
X17956Y92317D01*
X17957Y92318D01*
X17958D01*
X17937Y92325D01*
X17919Y92333D01*
X17904Y92343D01*
X17891Y92352D01*
X17881Y92362D01*
X17873Y92369D01*
X17869Y92374D01*
X17868Y92375D01*
Y92375D01*
X17857Y92392D01*
X17849Y92410D01*
X17844Y92426D01*
X17840Y92443D01*
X17838Y92458D01*
X17837Y92464D01*
Y92470D01*
X17836Y92473D01*
Y92477D01*
Y92479D01*
Y92480D01*
X17837Y92495D01*
X17839Y92510D01*
X17842Y92523D01*
X17845Y92537D01*
X17855Y92560D01*
X17859Y92571D01*
X17865Y92581D01*
X17870Y92590D01*
X17875Y92597D01*
X17881Y92604D01*
X17884Y92609D01*
X17888Y92614D01*
X17891Y92617D01*
X17893Y92619D01*
X17893Y92620D01*
X17905Y92630D01*
X17917Y92638D01*
X17930Y92645D01*
X17942Y92652D01*
X17954Y92657D01*
X17967Y92661D01*
X17992Y92668D01*
X18003Y92670D01*
X18014Y92672D01*
X18023Y92673D01*
X18031Y92674D01*
X18038Y92675D01*
X18047D01*
X18064Y92674D01*
D02*
G37*
G36*
X46482Y84469D02*
X46498Y84480D01*
X46504Y84486D01*
X46511Y84490D01*
X46516Y84495D01*
X46520Y84499D01*
X46523Y84502D01*
X46524Y84502D01*
X46528Y84507D01*
X46533Y84513D01*
X46545Y84526D01*
X46559Y84540D01*
X46573Y84556D01*
X46585Y84571D01*
X46590Y84577D01*
X46596Y84583D01*
X46600Y84588D01*
X46602Y84591D01*
X46604Y84593D01*
X46605Y84594D01*
X46618Y84609D01*
X46630Y84624D01*
X46642Y84637D01*
X46652Y84649D01*
X46662Y84660D01*
X46672Y84669D01*
X46680Y84678D01*
X46687Y84686D01*
X46695Y84693D01*
X46700Y84698D01*
X46705Y84703D01*
X46710Y84708D01*
X46715Y84712D01*
X46717Y84714D01*
X46733Y84727D01*
X46747Y84738D01*
X46761Y84747D01*
X46772Y84755D01*
X46782Y84760D01*
X46789Y84764D01*
X46794Y84766D01*
X46796Y84767D01*
X46810Y84772D01*
X46823Y84776D01*
X46836Y84780D01*
X46847Y84782D01*
X46858Y84783D01*
X46865Y84784D01*
X46870D01*
X46871D01*
X46885Y84783D01*
X46898Y84781D01*
X46911Y84779D01*
X46922Y84775D01*
X46944Y84766D01*
X46962Y84757D01*
X46970Y84751D01*
X46977Y84747D01*
X46983Y84742D01*
X46988Y84737D01*
X46992Y84734D01*
X46995Y84732D01*
X46996Y84730D01*
X46997Y84729D01*
X47006Y84719D01*
X47015Y84708D01*
X47021Y84696D01*
X47027Y84684D01*
X47036Y84660D01*
X47042Y84636D01*
X47044Y84625D01*
X47046Y84615D01*
X47047Y84606D01*
X47048Y84599D01*
X47049Y84592D01*
Y84583D01*
X47048Y84566D01*
X47047Y84551D01*
X47044Y84536D01*
X47042Y84522D01*
X47038Y84509D01*
X47034Y84497D01*
X47030Y84486D01*
X47025Y84476D01*
X47020Y84466D01*
X47016Y84459D01*
X47012Y84453D01*
X47008Y84447D01*
X47006Y84442D01*
X47003Y84440D01*
X47002Y84438D01*
X47001Y84437D01*
X46992Y84428D01*
X46981Y84419D01*
X46970Y84411D01*
X46959Y84404D01*
X46937Y84393D01*
X46915Y84386D01*
X46905Y84383D01*
X46895Y84380D01*
X46886Y84379D01*
X46879Y84377D01*
X46872Y84376D01*
X46868D01*
X46865Y84375D01*
X46864D01*
X46856Y84455D01*
X46877Y84457D01*
X46895Y84461D01*
X46912Y84466D01*
X46925Y84473D01*
X46936Y84478D01*
X46944Y84484D01*
X46948Y84488D01*
X46950Y84490D01*
X46961Y84503D01*
X46969Y84518D01*
X46976Y84534D01*
X46980Y84548D01*
X46982Y84561D01*
X46983Y84572D01*
X46984Y84576D01*
Y84581D01*
X46983Y84600D01*
X46980Y84618D01*
X46974Y84633D01*
X46969Y84646D01*
X46962Y84656D01*
X46957Y84662D01*
X46954Y84667D01*
X46952Y84669D01*
X46939Y84680D01*
X46926Y84688D01*
X46913Y84695D01*
X46900Y84698D01*
X46890Y84701D01*
X46881Y84702D01*
X46875Y84703D01*
X46874D01*
X46873D01*
X46857Y84701D01*
X46839Y84698D01*
X46823Y84691D01*
X46809Y84685D01*
X46797Y84677D01*
X46786Y84671D01*
X46783Y84669D01*
X46780Y84667D01*
X46779Y84665D01*
X46778D01*
X46768Y84658D01*
X46758Y84649D01*
X46747Y84638D01*
X46736Y84627D01*
X46713Y84604D01*
X46691Y84581D01*
X46681Y84569D01*
X46672Y84559D01*
X46663Y84549D01*
X46656Y84540D01*
X46650Y84534D01*
X46646Y84528D01*
X46643Y84525D01*
X46642Y84524D01*
X46623Y84501D01*
X46604Y84479D01*
X46588Y84462D01*
X46574Y84448D01*
X46562Y84436D01*
X46553Y84428D01*
X46548Y84423D01*
X46547Y84421D01*
X46546D01*
X46530Y84408D01*
X46515Y84398D01*
X46501Y84389D01*
X46488Y84381D01*
X46477Y84376D01*
X46468Y84372D01*
X46463Y84370D01*
X46462Y84369D01*
X46461D01*
X46451Y84366D01*
X46442Y84364D01*
X46432Y84362D01*
X46424Y84361D01*
X46417Y84360D01*
X46411D01*
X46407D01*
X46406D01*
Y84784D01*
X46482D01*
Y84469D01*
D02*
G37*
G36*
X47049Y84119D02*
X47033Y84110D01*
X47018Y84099D01*
X47004Y84087D01*
X46991Y84076D01*
X46980Y84065D01*
X46970Y84057D01*
X46968Y84053D01*
X46965Y84050D01*
X46964Y84049D01*
X46963Y84049D01*
X46947Y84029D01*
X46932Y84010D01*
X46920Y83991D01*
X46909Y83973D01*
X46900Y83957D01*
X46896Y83951D01*
X46894Y83945D01*
X46891Y83940D01*
X46890Y83937D01*
X46888Y83935D01*
Y83934D01*
X46812D01*
X46818Y83948D01*
X46824Y83962D01*
X46831Y83975D01*
X46837Y83988D01*
X46843Y84000D01*
X46847Y84009D01*
X46851Y84014D01*
X46852Y84015D01*
Y84016D01*
X46862Y84033D01*
X46872Y84048D01*
X46882Y84061D01*
X46890Y84071D01*
X46896Y84080D01*
X46902Y84086D01*
X46906Y84090D01*
X46907Y84091D01*
X46406D01*
Y84170D01*
X47049D01*
Y84119D01*
D02*
G37*
G36*
X46761Y83789D02*
X46789Y83786D01*
X46815Y83781D01*
X46827Y83779D01*
X46837Y83777D01*
X46847Y83774D01*
X46856Y83772D01*
X46863Y83770D01*
X46870Y83767D01*
X46875Y83767D01*
X46879Y83765D01*
X46881Y83764D01*
X46882D01*
X46906Y83754D01*
X46927Y83742D01*
X46945Y83729D01*
X46961Y83717D01*
X46974Y83705D01*
X46983Y83696D01*
X46986Y83693D01*
X46989Y83690D01*
X46990Y83689D01*
X46991Y83688D01*
X47003Y83673D01*
X47012Y83657D01*
X47020Y83642D01*
X47027Y83627D01*
X47031Y83614D01*
X47034Y83604D01*
X47036Y83600D01*
Y83597D01*
X47037Y83595D01*
Y83595D01*
X47040Y83579D01*
X47042Y83560D01*
X47044Y83542D01*
X47045Y83523D01*
X47046Y83507D01*
Y83261D01*
X46406D01*
Y83491D01*
X46407Y83512D01*
X46408Y83532D01*
X46410Y83549D01*
X46412Y83564D01*
X46414Y83577D01*
X46415Y83586D01*
X46416Y83589D01*
X46417Y83592D01*
Y83594D01*
X46421Y83610D01*
X46427Y83625D01*
X46431Y83638D01*
X46437Y83649D01*
X46442Y83658D01*
X46445Y83665D01*
X46448Y83669D01*
X46449Y83670D01*
X46457Y83682D01*
X46467Y83693D01*
X46477Y83703D01*
X46486Y83711D01*
X46494Y83718D01*
X46501Y83724D01*
X46505Y83728D01*
X46507Y83729D01*
X46522Y83738D01*
X46538Y83747D01*
X46552Y83755D01*
X46567Y83760D01*
X46580Y83766D01*
X46590Y83769D01*
X46594Y83770D01*
X46597Y83771D01*
X46599Y83772D01*
X46600D01*
X46622Y83778D01*
X46644Y83782D01*
X46665Y83785D01*
X46686Y83788D01*
X46703Y83789D01*
X46711D01*
X46717Y83790D01*
X46722D01*
X46726D01*
X46728D01*
X46729D01*
X46761Y83789D01*
D02*
G37*
G36*
X61042Y84885D02*
X61456D01*
Y84821D01*
X61042Y84528D01*
X60970D01*
Y84806D01*
X60816D01*
Y84885D01*
X60970D01*
Y84972D01*
X61042D01*
Y84885D01*
D02*
G37*
G36*
X61459Y84302D02*
X61443Y84293D01*
X61428Y84283D01*
X61414Y84271D01*
X61401Y84260D01*
X61390Y84249D01*
X61380Y84241D01*
X61378Y84237D01*
X61375Y84234D01*
X61374Y84233D01*
X61373Y84232D01*
X61357Y84213D01*
X61342Y84193D01*
X61330Y84175D01*
X61319Y84156D01*
X61310Y84141D01*
X61306Y84134D01*
X61304Y84129D01*
X61301Y84124D01*
X61300Y84120D01*
X61298Y84118D01*
Y84118D01*
X61222D01*
X61228Y84131D01*
X61234Y84145D01*
X61241Y84159D01*
X61247Y84172D01*
X61253Y84183D01*
X61257Y84192D01*
X61261Y84198D01*
X61262Y84199D01*
Y84200D01*
X61272Y84217D01*
X61282Y84231D01*
X61292Y84244D01*
X61300Y84254D01*
X61306Y84264D01*
X61312Y84269D01*
X61316Y84274D01*
X61317Y84275D01*
X60816D01*
Y84353D01*
X61459D01*
Y84302D01*
D02*
G37*
G36*
X61171Y83972D02*
X61199Y83970D01*
X61225Y83965D01*
X61237Y83963D01*
X61247Y83960D01*
X61257Y83958D01*
X61266Y83956D01*
X61273Y83954D01*
X61280Y83951D01*
X61285Y83950D01*
X61289Y83948D01*
X61291Y83947D01*
X61292D01*
X61316Y83937D01*
X61337Y83925D01*
X61355Y83912D01*
X61371Y83900D01*
X61384Y83889D01*
X61393Y83880D01*
X61396Y83876D01*
X61399Y83873D01*
X61400Y83873D01*
X61401Y83872D01*
X61413Y83857D01*
X61422Y83841D01*
X61430Y83825D01*
X61437Y83811D01*
X61441Y83798D01*
X61444Y83788D01*
X61446Y83784D01*
Y83781D01*
X61447Y83779D01*
Y83778D01*
X61450Y83763D01*
X61452Y83744D01*
X61454Y83726D01*
X61455Y83707D01*
X61456Y83690D01*
Y83445D01*
X60816D01*
Y83675D01*
X60817Y83696D01*
X60818Y83715D01*
X60820Y83733D01*
X60822Y83748D01*
X60824Y83761D01*
X60825Y83770D01*
X60826Y83773D01*
X60827Y83775D01*
Y83777D01*
X60831Y83794D01*
X60837Y83809D01*
X60841Y83822D01*
X60847Y83833D01*
X60852Y83842D01*
X60855Y83849D01*
X60858Y83852D01*
X60859Y83854D01*
X60867Y83866D01*
X60877Y83876D01*
X60887Y83886D01*
X60896Y83895D01*
X60904Y83902D01*
X60911Y83908D01*
X60915Y83911D01*
X60917Y83912D01*
X60932Y83922D01*
X60948Y83931D01*
X60962Y83938D01*
X60977Y83944D01*
X60990Y83949D01*
X61000Y83953D01*
X61004Y83954D01*
X61007Y83955D01*
X61009Y83956D01*
X61010D01*
X61032Y83961D01*
X61054Y83966D01*
X61075Y83969D01*
X61096Y83971D01*
X61113Y83972D01*
X61121D01*
X61127Y83973D01*
X61132D01*
X61136D01*
X61138D01*
X61139D01*
X61171Y83972D01*
D02*
G37*
G36*
X248373Y84559D02*
X248357Y84550D01*
X248342Y84540D01*
X248327Y84528D01*
X248314Y84517D01*
X248303Y84506D01*
X248294Y84497D01*
X248291Y84494D01*
X248289Y84491D01*
X248288Y84490D01*
X248287Y84489D01*
X248271Y84469D01*
X248256Y84450D01*
X248243Y84432D01*
X248233Y84413D01*
X248224Y84397D01*
X248220Y84391D01*
X248217Y84385D01*
X248215Y84381D01*
X248214Y84377D01*
X248212Y84375D01*
Y84374D01*
X248136D01*
X248142Y84388D01*
X248148Y84402D01*
X248155Y84416D01*
X248161Y84429D01*
X248167Y84440D01*
X248171Y84449D01*
X248175Y84455D01*
X248176Y84456D01*
Y84457D01*
X248186Y84473D01*
X248196Y84488D01*
X248205Y84501D01*
X248214Y84511D01*
X248220Y84520D01*
X248226Y84526D01*
X248229Y84531D01*
X248230Y84531D01*
X247730D01*
Y84610D01*
X248373D01*
Y84559D01*
D02*
G37*
G36*
X247806Y83915D02*
X247822Y83926D01*
X247828Y83931D01*
X247835Y83936D01*
X247840Y83941D01*
X247844Y83944D01*
X247847Y83947D01*
X247848Y83948D01*
X247852Y83953D01*
X247857Y83958D01*
X247869Y83971D01*
X247883Y83986D01*
X247897Y84002D01*
X247909Y84016D01*
X247914Y84023D01*
X247920Y84028D01*
X247923Y84033D01*
X247926Y84037D01*
X247928Y84039D01*
X247929Y84040D01*
X247942Y84054D01*
X247954Y84069D01*
X247966Y84082D01*
X247976Y84094D01*
X247986Y84105D01*
X247996Y84114D01*
X248004Y84124D01*
X248011Y84131D01*
X248019Y84139D01*
X248024Y84144D01*
X248029Y84149D01*
X248033Y84153D01*
X248039Y84158D01*
X248041Y84160D01*
X248057Y84173D01*
X248070Y84184D01*
X248084Y84193D01*
X248095Y84200D01*
X248106Y84206D01*
X248113Y84210D01*
X248118Y84212D01*
X248119Y84212D01*
X248133Y84218D01*
X248147Y84222D01*
X248160Y84225D01*
X248171Y84227D01*
X248181Y84228D01*
X248189Y84229D01*
X248193D01*
X248195D01*
X248209Y84228D01*
X248222Y84226D01*
X248235Y84224D01*
X248246Y84221D01*
X248268Y84212D01*
X248286Y84202D01*
X248294Y84197D01*
X248301Y84192D01*
X248307Y84188D01*
X248312Y84183D01*
X248315Y84179D01*
X248319Y84177D01*
X248320Y84175D01*
X248321Y84175D01*
X248330Y84164D01*
X248339Y84153D01*
X248345Y84141D01*
X248351Y84129D01*
X248360Y84105D01*
X248366Y84081D01*
X248368Y84071D01*
X248370Y84061D01*
X248371Y84052D01*
X248372Y84044D01*
X248373Y84038D01*
Y84028D01*
X248372Y84012D01*
X248371Y83996D01*
X248368Y83981D01*
X248365Y83967D01*
X248362Y83955D01*
X248358Y83942D01*
X248353Y83931D01*
X248349Y83921D01*
X248344Y83912D01*
X248339Y83905D01*
X248336Y83898D01*
X248332Y83893D01*
X248329Y83888D01*
X248327Y83885D01*
X248326Y83883D01*
X248325Y83882D01*
X248315Y83873D01*
X248305Y83865D01*
X248294Y83857D01*
X248283Y83850D01*
X248261Y83839D01*
X248239Y83832D01*
X248229Y83829D01*
X248218Y83826D01*
X248210Y83824D01*
X248203Y83822D01*
X248196Y83821D01*
X248192D01*
X248189Y83820D01*
X248188D01*
X248180Y83901D01*
X248201Y83903D01*
X248219Y83906D01*
X248236Y83912D01*
X248249Y83918D01*
X248260Y83924D01*
X248267Y83930D01*
X248272Y83933D01*
X248274Y83935D01*
X248285Y83949D01*
X248293Y83964D01*
X248300Y83979D01*
X248303Y83993D01*
X248306Y84006D01*
X248307Y84017D01*
X248308Y84021D01*
Y84027D01*
X248307Y84046D01*
X248303Y84064D01*
X248298Y84078D01*
X248292Y84091D01*
X248286Y84102D01*
X248281Y84108D01*
X248278Y84113D01*
X248276Y84114D01*
X248263Y84126D01*
X248250Y84134D01*
X248237Y84140D01*
X248224Y84144D01*
X248214Y84147D01*
X248204Y84148D01*
X248199Y84149D01*
X248198D01*
X248197D01*
X248180Y84147D01*
X248163Y84143D01*
X248147Y84137D01*
X248132Y84130D01*
X248120Y84123D01*
X248110Y84116D01*
X248106Y84114D01*
X248104Y84113D01*
X248103Y84111D01*
X248102D01*
X248092Y84103D01*
X248081Y84094D01*
X248070Y84084D01*
X248059Y84073D01*
X248037Y84050D01*
X248015Y84027D01*
X248005Y84015D01*
X247996Y84004D01*
X247987Y83994D01*
X247980Y83986D01*
X247974Y83979D01*
X247970Y83974D01*
X247967Y83970D01*
X247966Y83969D01*
X247947Y83946D01*
X247928Y83925D01*
X247911Y83907D01*
X247898Y83894D01*
X247885Y83881D01*
X247877Y83873D01*
X247872Y83869D01*
X247871Y83867D01*
X247870D01*
X247854Y83854D01*
X247839Y83844D01*
X247824Y83834D01*
X247812Y83827D01*
X247800Y83821D01*
X247792Y83818D01*
X247787Y83816D01*
X247786Y83815D01*
X247785D01*
X247775Y83811D01*
X247765Y83809D01*
X247756Y83808D01*
X247748Y83807D01*
X247740Y83806D01*
X247735D01*
X247731D01*
X247730D01*
Y84230D01*
X247806D01*
Y83915D01*
D02*
G37*
G36*
X248084Y83732D02*
X248113Y83729D01*
X248139Y83724D01*
X248151Y83722D01*
X248161Y83720D01*
X248171Y83717D01*
X248180Y83715D01*
X248187Y83713D01*
X248193Y83710D01*
X248199Y83710D01*
X248203Y83708D01*
X248204Y83707D01*
X248205D01*
X248229Y83697D01*
X248251Y83685D01*
X248269Y83672D01*
X248285Y83660D01*
X248298Y83648D01*
X248307Y83639D01*
X248310Y83636D01*
X248313Y83633D01*
X248314Y83632D01*
X248314Y83631D01*
X248327Y83616D01*
X248336Y83600D01*
X248344Y83585D01*
X248351Y83570D01*
X248355Y83557D01*
X248358Y83547D01*
X248360Y83543D01*
Y83540D01*
X248361Y83538D01*
Y83538D01*
X248363Y83522D01*
X248366Y83503D01*
X248368Y83485D01*
X248369Y83466D01*
X248370Y83450D01*
Y83204D01*
X247730D01*
Y83434D01*
X247731Y83455D01*
X247732Y83475D01*
X247734Y83492D01*
X247736Y83507D01*
X247738Y83520D01*
X247738Y83529D01*
X247739Y83532D01*
X247740Y83535D01*
Y83537D01*
X247745Y83553D01*
X247751Y83568D01*
X247755Y83581D01*
X247761Y83592D01*
X247765Y83601D01*
X247769Y83608D01*
X247772Y83612D01*
X247773Y83613D01*
X247781Y83625D01*
X247791Y83636D01*
X247800Y83646D01*
X247810Y83654D01*
X247818Y83661D01*
X247824Y83667D01*
X247829Y83671D01*
X247831Y83672D01*
X247846Y83681D01*
X247861Y83690D01*
X247876Y83698D01*
X247891Y83703D01*
X247904Y83709D01*
X247914Y83712D01*
X247918Y83713D01*
X247921Y83714D01*
X247922Y83715D01*
X247923D01*
X247946Y83721D01*
X247968Y83725D01*
X247989Y83728D01*
X248009Y83731D01*
X248027Y83732D01*
X248034D01*
X248041Y83733D01*
X248045D01*
X248050D01*
X248052D01*
X248053D01*
X248084Y83732D01*
D02*
G37*
G36*
X262333Y84405D02*
X262747D01*
Y84341D01*
X262333Y84048D01*
X262261D01*
Y84327D01*
X262107D01*
Y84405D01*
X262261D01*
Y84492D01*
X262333D01*
Y84405D01*
D02*
G37*
G36*
X262183Y83676D02*
X262199Y83687D01*
X262205Y83692D01*
X262212Y83697D01*
X262217Y83702D01*
X262221Y83705D01*
X262224Y83708D01*
X262225Y83709D01*
X262229Y83714D01*
X262234Y83719D01*
X262246Y83732D01*
X262260Y83747D01*
X262274Y83763D01*
X262286Y83777D01*
X262291Y83784D01*
X262297Y83790D01*
X262300Y83794D01*
X262303Y83798D01*
X262305Y83800D01*
X262306Y83801D01*
X262319Y83815D01*
X262331Y83830D01*
X262343Y83843D01*
X262353Y83855D01*
X262363Y83866D01*
X262372Y83876D01*
X262381Y83885D01*
X262388Y83892D01*
X262396Y83900D01*
X262401Y83905D01*
X262406Y83910D01*
X262410Y83914D01*
X262416Y83919D01*
X262418Y83921D01*
X262433Y83934D01*
X262447Y83945D01*
X262461Y83954D01*
X262472Y83961D01*
X262482Y83967D01*
X262490Y83971D01*
X262494Y83973D01*
X262496Y83974D01*
X262510Y83979D01*
X262524Y83983D01*
X262537Y83986D01*
X262548Y83988D01*
X262558Y83989D01*
X262566Y83990D01*
X262570D01*
X262572D01*
X262586Y83989D01*
X262599Y83987D01*
X262612Y83986D01*
X262623Y83982D01*
X262645Y83973D01*
X262663Y83963D01*
X262671Y83958D01*
X262678Y83953D01*
X262684Y83949D01*
X262689Y83944D01*
X262692Y83940D01*
X262696Y83938D01*
X262697Y83937D01*
X262698Y83936D01*
X262707Y83925D01*
X262715Y83914D01*
X262722Y83902D01*
X262727Y83890D01*
X262737Y83866D01*
X262743Y83842D01*
X262745Y83832D01*
X262747Y83822D01*
X262748Y83813D01*
X262749Y83805D01*
X262750Y83799D01*
Y83790D01*
X262749Y83773D01*
X262748Y83757D01*
X262745Y83742D01*
X262742Y83729D01*
X262739Y83716D01*
X262735Y83704D01*
X262730Y83692D01*
X262726Y83682D01*
X262721Y83673D01*
X262716Y83666D01*
X262713Y83659D01*
X262709Y83654D01*
X262706Y83649D01*
X262703Y83646D01*
X262703Y83644D01*
X262702Y83643D01*
X262692Y83634D01*
X262682Y83626D01*
X262671Y83618D01*
X262660Y83611D01*
X262638Y83600D01*
X262616Y83593D01*
X262605Y83590D01*
X262595Y83587D01*
X262587Y83585D01*
X262580Y83583D01*
X262573Y83582D01*
X262568D01*
X262566Y83581D01*
X262565D01*
X262556Y83662D01*
X262578Y83664D01*
X262596Y83667D01*
X262613Y83673D01*
X262626Y83679D01*
X262637Y83685D01*
X262644Y83691D01*
X262649Y83694D01*
X262651Y83696D01*
X262662Y83710D01*
X262670Y83725D01*
X262677Y83741D01*
X262680Y83754D01*
X262683Y83767D01*
X262684Y83778D01*
X262685Y83782D01*
Y83788D01*
X262684Y83807D01*
X262680Y83825D01*
X262675Y83839D01*
X262669Y83852D01*
X262663Y83863D01*
X262658Y83869D01*
X262654Y83874D01*
X262653Y83876D01*
X262640Y83887D01*
X262627Y83895D01*
X262614Y83901D01*
X262601Y83905D01*
X262591Y83908D01*
X262581Y83909D01*
X262576Y83910D01*
X262575D01*
X262574D01*
X262557Y83908D01*
X262540Y83904D01*
X262524Y83898D01*
X262509Y83891D01*
X262497Y83884D01*
X262487Y83877D01*
X262483Y83876D01*
X262481Y83874D01*
X262480Y83872D01*
X262479D01*
X262469Y83864D01*
X262458Y83855D01*
X262447Y83845D01*
X262436Y83834D01*
X262414Y83811D01*
X262392Y83788D01*
X262382Y83776D01*
X262372Y83765D01*
X262364Y83755D01*
X262357Y83747D01*
X262351Y83741D01*
X262347Y83735D01*
X262344Y83731D01*
X262343Y83730D01*
X262323Y83707D01*
X262305Y83686D01*
X262288Y83668D01*
X262274Y83655D01*
X262262Y83643D01*
X262254Y83634D01*
X262249Y83630D01*
X262248Y83628D01*
X262247D01*
X262231Y83615D01*
X262216Y83605D01*
X262201Y83595D01*
X262188Y83588D01*
X262177Y83582D01*
X262169Y83579D01*
X262163Y83577D01*
X262163Y83576D01*
X262162D01*
X262151Y83572D01*
X262142Y83570D01*
X262133Y83569D01*
X262125Y83568D01*
X262117Y83567D01*
X262112D01*
X262108D01*
X262107D01*
Y83991D01*
X262183D01*
Y83676D01*
D02*
G37*
G36*
X262461Y83493D02*
X262490Y83490D01*
X262516Y83485D01*
X262528Y83483D01*
X262538Y83481D01*
X262548Y83478D01*
X262556Y83476D01*
X262564Y83474D01*
X262570Y83471D01*
X262576Y83471D01*
X262580Y83469D01*
X262581Y83468D01*
X262582D01*
X262606Y83458D01*
X262628Y83446D01*
X262646Y83433D01*
X262662Y83421D01*
X262675Y83410D01*
X262684Y83400D01*
X262687Y83397D01*
X262690Y83394D01*
X262690Y83393D01*
X262691Y83392D01*
X262703Y83377D01*
X262713Y83361D01*
X262721Y83346D01*
X262727Y83331D01*
X262732Y83318D01*
X262735Y83308D01*
X262737Y83304D01*
Y83301D01*
X262738Y83299D01*
Y83299D01*
X262740Y83283D01*
X262743Y83264D01*
X262745Y83246D01*
X262746Y83227D01*
X262747Y83211D01*
Y82965D01*
X262107D01*
Y83195D01*
X262108Y83216D01*
X262109Y83236D01*
X262111Y83253D01*
X262113Y83268D01*
X262115Y83281D01*
X262115Y83290D01*
X262116Y83293D01*
X262117Y83296D01*
Y83298D01*
X262122Y83314D01*
X262127Y83329D01*
X262132Y83342D01*
X262138Y83353D01*
X262142Y83362D01*
X262146Y83369D01*
X262149Y83373D01*
X262150Y83374D01*
X262158Y83386D01*
X262168Y83397D01*
X262177Y83407D01*
X262187Y83415D01*
X262195Y83422D01*
X262201Y83428D01*
X262206Y83432D01*
X262208Y83433D01*
X262223Y83442D01*
X262238Y83451D01*
X262253Y83459D01*
X262268Y83464D01*
X262281Y83470D01*
X262291Y83473D01*
X262295Y83474D01*
X262298Y83475D01*
X262299Y83476D01*
X262300D01*
X262323Y83482D01*
X262345Y83486D01*
X262366Y83489D01*
X262386Y83492D01*
X262404Y83493D01*
X262411D01*
X262418Y83494D01*
X262422D01*
X262427D01*
X262429D01*
X262430D01*
X262461Y83493D01*
D02*
G37*
G36*
X281380Y57575D02*
X281395Y57573D01*
X281410Y57570D01*
X281423Y57566D01*
X281448Y57556D01*
X281459Y57552D01*
X281468Y57546D01*
X281477Y57540D01*
X281485Y57535D01*
X281492Y57529D01*
X281498Y57525D01*
X281502Y57521D01*
X281505Y57518D01*
X281507Y57516D01*
X281508Y57516D01*
X281518Y57504D01*
X281526Y57492D01*
X281535Y57479D01*
X281541Y57467D01*
X281547Y57453D01*
X281551Y57440D01*
X281558Y57416D01*
X281561Y57404D01*
X281562Y57394D01*
X281563Y57383D01*
X281564Y57375D01*
X281565Y57369D01*
Y57364D01*
Y57360D01*
Y57359D01*
X281564Y57342D01*
X281562Y57326D01*
X281561Y57310D01*
X281557Y57296D01*
X281552Y57283D01*
X281548Y57270D01*
X281543Y57259D01*
X281537Y57248D01*
X281533Y57239D01*
X281528Y57231D01*
X281524Y57224D01*
X281519Y57218D01*
X281515Y57213D01*
X281513Y57210D01*
X281512Y57209D01*
X281511Y57208D01*
X281500Y57197D01*
X281489Y57189D01*
X281478Y57181D01*
X281466Y57174D01*
X281455Y57169D01*
X281444Y57164D01*
X281423Y57158D01*
X281414Y57155D01*
X281404Y57153D01*
X281397Y57152D01*
X281390Y57151D01*
X281384Y57150D01*
X281377D01*
X281359Y57151D01*
X281342Y57154D01*
X281328Y57158D01*
X281314Y57162D01*
X281304Y57166D01*
X281295Y57170D01*
X281290Y57173D01*
X281288Y57173D01*
X281273Y57183D01*
X281260Y57193D01*
X281249Y57203D01*
X281240Y57212D01*
X281233Y57222D01*
X281228Y57228D01*
X281224Y57233D01*
X281223Y57234D01*
Y57227D01*
Y57222D01*
Y57220D01*
Y57219D01*
X281224Y57200D01*
X281225Y57183D01*
X281227Y57167D01*
X281229Y57152D01*
X281231Y57140D01*
X281233Y57131D01*
X281234Y57127D01*
Y57124D01*
X281235Y57124D01*
Y57123D01*
X281240Y57106D01*
X281244Y57091D01*
X281249Y57078D01*
X281254Y57067D01*
X281257Y57059D01*
X281261Y57052D01*
X281263Y57048D01*
X281264Y57047D01*
X281271Y57037D01*
X281279Y57028D01*
X281286Y57021D01*
X281293Y57014D01*
X281299Y57009D01*
X281305Y57005D01*
X281308Y57003D01*
X281309Y57002D01*
X281319Y56997D01*
X281330Y56993D01*
X281341Y56990D01*
X281351Y56989D01*
X281359Y56988D01*
X281366Y56987D01*
X281372D01*
X281387Y56988D01*
X281401Y56990D01*
X281413Y56994D01*
X281423Y56999D01*
X281430Y57002D01*
X281437Y57006D01*
X281440Y57009D01*
X281441Y57010D01*
X281451Y57020D01*
X281458Y57032D01*
X281464Y57045D01*
X281469Y57058D01*
X281473Y57069D01*
X281476Y57079D01*
X281476Y57083D01*
Y57085D01*
X281477Y57087D01*
Y57087D01*
X281553Y57081D01*
X281548Y57054D01*
X281540Y57031D01*
X281531Y57011D01*
X281522Y56994D01*
X281513Y56981D01*
X281508Y56976D01*
X281504Y56971D01*
X281501Y56968D01*
X281499Y56965D01*
X281498Y56965D01*
X281497Y56964D01*
X281488Y56956D01*
X281477Y56950D01*
X281457Y56940D01*
X281437Y56932D01*
X281417Y56928D01*
X281400Y56924D01*
X281392Y56923D01*
X281386D01*
X281381Y56922D01*
X281374D01*
X281348Y56924D01*
X281325Y56928D01*
X281304Y56934D01*
X281286Y56941D01*
X281279Y56944D01*
X281271Y56948D01*
X281266Y56952D01*
X281260Y56954D01*
X281256Y56956D01*
X281254Y56958D01*
X281252Y56960D01*
X281251D01*
X281232Y56976D01*
X281216Y56993D01*
X281203Y57012D01*
X281192Y57029D01*
X281182Y57045D01*
X281179Y57052D01*
X281176Y57058D01*
X281174Y57063D01*
X281172Y57067D01*
X281171Y57069D01*
Y57070D01*
X281167Y57084D01*
X281162Y57099D01*
X281156Y57131D01*
X281151Y57164D01*
X281148Y57196D01*
X281146Y57210D01*
X281145Y57223D01*
Y57235D01*
X281145Y57246D01*
Y57254D01*
Y57260D01*
Y57265D01*
Y57266D01*
Y57287D01*
X281145Y57308D01*
X281147Y57326D01*
X281149Y57344D01*
X281151Y57359D01*
X281153Y57374D01*
X281156Y57388D01*
X281158Y57400D01*
X281161Y57410D01*
X281163Y57419D01*
X281166Y57428D01*
X281168Y57434D01*
X281170Y57439D01*
X281171Y57443D01*
X281172Y57444D01*
Y57445D01*
X281183Y57467D01*
X281195Y57487D01*
X281209Y57504D01*
X281221Y57517D01*
X281233Y57528D01*
X281243Y57535D01*
X281246Y57538D01*
X281249Y57540D01*
X281250Y57541D01*
X281251D01*
X281270Y57553D01*
X281290Y57561D01*
X281309Y57567D01*
X281327Y57571D01*
X281342Y57574D01*
X281349Y57575D01*
X281353D01*
X281358Y57576D01*
X281365D01*
X281380Y57575D01*
D02*
G37*
G36*
X281932Y57582D02*
X281962Y57577D01*
X281988Y57572D01*
X282000Y57568D01*
X282011Y57565D01*
X282021Y57561D01*
X282030Y57557D01*
X282038Y57554D01*
X282045Y57552D01*
X282050Y57549D01*
X282053Y57547D01*
X282056Y57546D01*
X282057Y57545D01*
X282082Y57529D01*
X282103Y57511D01*
X282122Y57492D01*
X282138Y57474D01*
X282150Y57457D01*
X282154Y57450D01*
X282158Y57443D01*
X282162Y57439D01*
X282163Y57435D01*
X282164Y57432D01*
X282165Y57431D01*
X282178Y57403D01*
X282187Y57373D01*
X282194Y57344D01*
X282199Y57317D01*
X282200Y57305D01*
X282201Y57293D01*
X282202Y57283D01*
Y57274D01*
X282203Y57268D01*
Y57262D01*
Y57259D01*
Y57258D01*
X282201Y57224D01*
X282198Y57192D01*
X282193Y57163D01*
X282189Y57149D01*
X282187Y57137D01*
X282184Y57126D01*
X282180Y57116D01*
X282177Y57107D01*
X282175Y57099D01*
X282173Y57094D01*
X282172Y57089D01*
X282170Y57087D01*
Y57086D01*
X282156Y57058D01*
X282140Y57033D01*
X282124Y57012D01*
X282115Y57003D01*
X282108Y56995D01*
X282101Y56988D01*
X282093Y56981D01*
X282087Y56976D01*
X282081Y56972D01*
X282077Y56968D01*
X282074Y56965D01*
X282072Y56965D01*
X282071Y56964D01*
X282058Y56956D01*
X282045Y56950D01*
X282017Y56940D01*
X281990Y56932D01*
X281963Y56928D01*
X281950Y56926D01*
X281939Y56924D01*
X281929Y56923D01*
X281920D01*
X281913Y56922D01*
X281903D01*
X281884Y56923D01*
X281867Y56925D01*
X281850Y56927D01*
X281834Y56930D01*
X281819Y56935D01*
X281806Y56940D01*
X281793Y56944D01*
X281781Y56950D01*
X281770Y56954D01*
X281760Y56959D01*
X281753Y56964D01*
X281746Y56968D01*
X281741Y56972D01*
X281736Y56974D01*
X281734Y56976D01*
X281733Y56977D01*
X281721Y56988D01*
X281709Y56999D01*
X281699Y57012D01*
X281689Y57025D01*
X281672Y57050D01*
X281660Y57076D01*
X281654Y57088D01*
X281649Y57099D01*
X281646Y57110D01*
X281643Y57118D01*
X281640Y57125D01*
X281638Y57131D01*
X281637Y57135D01*
Y57136D01*
X281722Y57157D01*
X281726Y57142D01*
X281731Y57128D01*
X281735Y57115D01*
X281740Y57103D01*
X281746Y57092D01*
X281751Y57083D01*
X281758Y57074D01*
X281763Y57065D01*
X281768Y57058D01*
X281773Y57052D01*
X281778Y57047D01*
X281782Y57042D01*
X281785Y57039D01*
X281788Y57037D01*
X281789Y57036D01*
X281790Y57035D01*
X281799Y57027D01*
X281809Y57022D01*
X281830Y57012D01*
X281849Y57004D01*
X281868Y57000D01*
X281885Y56996D01*
X281892Y56995D01*
X281898D01*
X281904Y56994D01*
X281910D01*
X281931Y56995D01*
X281952Y56999D01*
X281970Y57003D01*
X281987Y57009D01*
X282000Y57014D01*
X282005Y57017D01*
X282010Y57019D01*
X282014Y57021D01*
X282016Y57023D01*
X282018Y57024D01*
X282019D01*
X282037Y57037D01*
X282052Y57050D01*
X282064Y57066D01*
X282075Y57081D01*
X282083Y57094D01*
X282089Y57105D01*
X282090Y57110D01*
X282092Y57112D01*
X282093Y57114D01*
Y57115D01*
X282101Y57139D01*
X282106Y57163D01*
X282111Y57187D01*
X282113Y57210D01*
X282114Y57220D01*
X282115Y57229D01*
Y57237D01*
X282116Y57244D01*
Y57249D01*
Y57254D01*
Y57257D01*
Y57258D01*
X282115Y57282D01*
X282113Y57304D01*
X282110Y57324D01*
X282106Y57343D01*
X282103Y57358D01*
X282101Y57365D01*
X282100Y57370D01*
X282099Y57375D01*
X282098Y57378D01*
X282097Y57380D01*
Y57381D01*
X282088Y57402D01*
X282077Y57421D01*
X282066Y57437D01*
X282054Y57451D01*
X282044Y57462D01*
X282036Y57469D01*
X282029Y57474D01*
X282028Y57476D01*
X282027D01*
X282008Y57488D01*
X281987Y57497D01*
X281966Y57504D01*
X281947Y57507D01*
X281930Y57510D01*
X281922Y57511D01*
X281916D01*
X281911Y57512D01*
X281904D01*
X281880Y57511D01*
X281859Y57507D01*
X281842Y57502D01*
X281826Y57496D01*
X281814Y57490D01*
X281805Y57485D01*
X281799Y57481D01*
X281797Y57479D01*
X281783Y57466D01*
X281769Y57450D01*
X281758Y57433D01*
X281748Y57417D01*
X281741Y57402D01*
X281738Y57394D01*
X281736Y57389D01*
X281734Y57384D01*
X281733Y57381D01*
X281732Y57379D01*
Y57378D01*
X281648Y57397D01*
X281654Y57414D01*
X281660Y57429D01*
X281667Y57443D01*
X281673Y57456D01*
X281681Y57468D01*
X281689Y57479D01*
X281697Y57491D01*
X281704Y57500D01*
X281711Y57507D01*
X281718Y57515D01*
X281724Y57521D01*
X281729Y57526D01*
X281733Y57530D01*
X281737Y57533D01*
X281739Y57534D01*
X281740Y57535D01*
X281753Y57543D01*
X281766Y57552D01*
X281779Y57558D01*
X281793Y57564D01*
X281820Y57572D01*
X281845Y57577D01*
X281857Y57580D01*
X281868Y57581D01*
X281878Y57582D01*
X281886Y57583D01*
X281893Y57584D01*
X281902D01*
X281932Y57582D01*
D02*
G37*
G36*
X295079Y64616D02*
X295094Y64614D01*
X295110Y64611D01*
X295125Y64608D01*
X295139Y64603D01*
X295151Y64599D01*
X295163Y64593D01*
X295173Y64587D01*
X295183Y64583D01*
X295191Y64577D01*
X295199Y64573D01*
X295204Y64568D01*
X295209Y64564D01*
X295213Y64562D01*
X295215Y64560D01*
X295215Y64559D01*
X295227Y64548D01*
X295236Y64536D01*
X295244Y64524D01*
X295252Y64512D01*
X295257Y64501D01*
X295263Y64488D01*
X295270Y64466D01*
X295272Y64456D01*
X295274Y64447D01*
X295276Y64439D01*
X295277Y64431D01*
X295277Y64426D01*
Y64421D01*
Y64418D01*
Y64417D01*
X295277Y64395D01*
X295273Y64375D01*
X295267Y64357D01*
X295262Y64342D01*
X295256Y64330D01*
X295251Y64321D01*
X295247Y64316D01*
X295246Y64314D01*
X295233Y64300D01*
X295219Y64288D01*
X295204Y64279D01*
X295190Y64271D01*
X295177Y64266D01*
X295167Y64262D01*
X295163Y64261D01*
X295160Y64260D01*
X295158Y64259D01*
X295157D01*
X295173Y64251D01*
X295186Y64243D01*
X295197Y64233D01*
X295206Y64225D01*
X295214Y64218D01*
X295219Y64211D01*
X295222Y64207D01*
X295223Y64206D01*
X295230Y64193D01*
X295236Y64180D01*
X295240Y64167D01*
X295243Y64155D01*
X295245Y64145D01*
X295246Y64137D01*
Y64132D01*
Y64130D01*
X295245Y64114D01*
X295242Y64098D01*
X295239Y64084D01*
X295234Y64072D01*
X295229Y64062D01*
X295226Y64054D01*
X295223Y64049D01*
X295222Y64047D01*
X295213Y64034D01*
X295202Y64022D01*
X295191Y64011D01*
X295179Y64002D01*
X295170Y63996D01*
X295162Y63990D01*
X295156Y63987D01*
X295155Y63986D01*
X295154D01*
X295138Y63979D01*
X295121Y63973D01*
X295105Y63969D01*
X295090Y63966D01*
X295078Y63964D01*
X295068Y63963D01*
X295044D01*
X295031Y63965D01*
X295007Y63970D01*
X294985Y63977D01*
X294967Y63985D01*
X294958Y63989D01*
X294952Y63993D01*
X294946Y63997D01*
X294941Y64000D01*
X294937Y64003D01*
X294934Y64005D01*
X294933Y64006D01*
X294932Y64007D01*
X294914Y64024D01*
X294900Y64044D01*
X294889Y64064D01*
X294880Y64084D01*
X294874Y64102D01*
X294872Y64109D01*
X294870Y64116D01*
X294869Y64121D01*
X294868Y64125D01*
X294867Y64128D01*
Y64129D01*
X294946Y64143D01*
X294949Y64122D01*
X294955Y64105D01*
X294961Y64090D01*
X294968Y64078D01*
X294974Y64069D01*
X294980Y64062D01*
X294983Y64058D01*
X294984Y64057D01*
X294996Y64047D01*
X295009Y64040D01*
X295021Y64035D01*
X295033Y64032D01*
X295044Y64030D01*
X295053Y64028D01*
X295060D01*
X295077Y64029D01*
X295092Y64033D01*
X295105Y64037D01*
X295116Y64042D01*
X295124Y64047D01*
X295130Y64052D01*
X295135Y64056D01*
X295136Y64057D01*
X295146Y64068D01*
X295154Y64080D01*
X295158Y64092D01*
X295162Y64103D01*
X295164Y64113D01*
X295166Y64121D01*
Y64126D01*
Y64127D01*
Y64128D01*
Y64138D01*
X295164Y64147D01*
X295159Y64163D01*
X295153Y64177D01*
X295145Y64189D01*
X295138Y64197D01*
X295131Y64204D01*
X295127Y64207D01*
X295126Y64208D01*
X295125D01*
X295109Y64217D01*
X295094Y64223D01*
X295079Y64228D01*
X295065Y64231D01*
X295053Y64232D01*
X295043Y64234D01*
X295031D01*
X295027Y64233D01*
X295022D01*
X295013Y64303D01*
X295025Y64300D01*
X295036Y64298D01*
X295045Y64296D01*
X295054Y64295D01*
X295060Y64294D01*
X295068D01*
X295088Y64296D01*
X295105Y64300D01*
X295121Y64305D01*
X295134Y64312D01*
X295144Y64318D01*
X295152Y64324D01*
X295156Y64328D01*
X295158Y64329D01*
X295170Y64343D01*
X295179Y64358D01*
X295186Y64373D01*
X295190Y64388D01*
X295192Y64400D01*
X295193Y64410D01*
X295194Y64414D01*
Y64416D01*
Y64418D01*
Y64419D01*
X295192Y64439D01*
X295188Y64458D01*
X295182Y64474D01*
X295175Y64488D01*
X295167Y64499D01*
X295162Y64507D01*
X295157Y64513D01*
X295155Y64514D01*
X295141Y64527D01*
X295125Y64537D01*
X295109Y64543D01*
X295094Y64548D01*
X295081Y64550D01*
X295071Y64551D01*
X295068Y64552D01*
X295062D01*
X295045Y64551D01*
X295030Y64548D01*
X295016Y64543D01*
X295005Y64537D01*
X294995Y64533D01*
X294988Y64528D01*
X294984Y64525D01*
X294983Y64524D01*
X294971Y64511D01*
X294962Y64496D01*
X294954Y64480D01*
X294947Y64464D01*
X294943Y64450D01*
X294941Y64443D01*
X294940Y64438D01*
X294939Y64433D01*
X294938Y64429D01*
X294937Y64427D01*
Y64427D01*
X294859Y64437D01*
X294860Y64451D01*
X294863Y64465D01*
X294872Y64491D01*
X294882Y64513D01*
X294887Y64523D01*
X294893Y64532D01*
X294898Y64540D01*
X294904Y64547D01*
X294909Y64553D01*
X294913Y64558D01*
X294916Y64562D01*
X294919Y64564D01*
X294921Y64566D01*
X294921Y64567D01*
X294933Y64575D01*
X294944Y64584D01*
X294955Y64590D01*
X294967Y64596D01*
X294990Y64605D01*
X295012Y64611D01*
X295022Y64612D01*
X295031Y64614D01*
X295040Y64615D01*
X295047Y64616D01*
X295053Y64617D01*
X295061D01*
X295079Y64616D01*
D02*
G37*
G36*
X294531Y64615D02*
X294546Y64613D01*
X294560Y64611D01*
X294574Y64609D01*
X294586Y64606D01*
X294597Y64603D01*
X294607Y64599D01*
X294616Y64596D01*
X294624Y64593D01*
X294631Y64590D01*
X294637Y64587D01*
X294641Y64585D01*
X294644Y64584D01*
X294646Y64582D01*
X294647D01*
X294667Y64568D01*
X294684Y64552D01*
X294697Y64537D01*
X294708Y64523D01*
X294716Y64510D01*
X294722Y64500D01*
X294724Y64496D01*
X294725Y64493D01*
X294726Y64491D01*
Y64490D01*
X294730Y64479D01*
X294734Y64467D01*
X294739Y64442D01*
X294743Y64416D01*
X294746Y64391D01*
X294747Y64380D01*
X294748Y64369D01*
Y64360D01*
X294749Y64352D01*
Y64345D01*
Y64341D01*
Y64337D01*
Y64336D01*
Y63966D01*
X294664D01*
Y64336D01*
Y64357D01*
X294662Y64378D01*
X294660Y64395D01*
X294657Y64412D01*
X294654Y64427D01*
X294651Y64440D01*
X294648Y64452D01*
X294644Y64463D01*
X294640Y64471D01*
X294637Y64479D01*
X294633Y64485D01*
X294630Y64490D01*
X294627Y64494D01*
X294626Y64497D01*
X294625Y64498D01*
X294624Y64499D01*
X294615Y64506D01*
X294606Y64513D01*
X294586Y64523D01*
X294565Y64530D01*
X294542Y64535D01*
X294522Y64538D01*
X294514Y64539D01*
X294505D01*
X294500Y64540D01*
X294491D01*
X294471Y64539D01*
X294454Y64537D01*
X294437Y64534D01*
X294424Y64529D01*
X294413Y64525D01*
X294405Y64523D01*
X294400Y64520D01*
X294398Y64519D01*
X294385Y64511D01*
X294374Y64501D01*
X294365Y64490D01*
X294358Y64481D01*
X294353Y64472D01*
X294348Y64465D01*
X294346Y64461D01*
X294345Y64459D01*
X294343Y64451D01*
X294341Y64442D01*
X294337Y64423D01*
X294334Y64402D01*
X294333Y64382D01*
X294332Y64365D01*
Y64356D01*
X294331Y64350D01*
Y64344D01*
Y64340D01*
Y64337D01*
Y64336D01*
Y63966D01*
X294246D01*
Y64336D01*
Y64354D01*
X294247Y64372D01*
X294247Y64389D01*
X294249Y64404D01*
X294251Y64418D01*
X294253Y64431D01*
X294256Y64443D01*
X294258Y64454D01*
X294259Y64464D01*
X294262Y64473D01*
X294264Y64480D01*
X294266Y64486D01*
X294268Y64490D01*
X294269Y64494D01*
X294270Y64496D01*
Y64497D01*
X294280Y64517D01*
X294293Y64536D01*
X294306Y64550D01*
X294320Y64563D01*
X294332Y64574D01*
X294342Y64581D01*
X294345Y64583D01*
X294348Y64585D01*
X294350Y64586D01*
X294351D01*
X294374Y64597D01*
X294398Y64604D01*
X294423Y64610D01*
X294446Y64613D01*
X294456Y64614D01*
X294467Y64615D01*
X294476Y64616D01*
X294483D01*
X294490Y64617D01*
X294498D01*
X294531Y64615D01*
D02*
G37*
G36*
X162339Y84611D02*
X162357Y84609D01*
X162375Y84607D01*
X162390Y84605D01*
X162405Y84603D01*
X162419Y84601D01*
X162431Y84598D01*
X162441Y84595D01*
X162450Y84593D01*
X162459Y84590D01*
X162465Y84588D01*
X162470Y84587D01*
X162474Y84585D01*
X162475Y84584D01*
X162476D01*
X162498Y84573D01*
X162518Y84561D01*
X162535Y84547D01*
X162548Y84535D01*
X162559Y84523D01*
X162566Y84514D01*
X162569Y84510D01*
X162571Y84507D01*
X162572Y84506D01*
Y84505D01*
X162584Y84486D01*
X162592Y84466D01*
X162598Y84447D01*
X162602Y84429D01*
X162605Y84414D01*
X162606Y84407D01*
Y84403D01*
X162607Y84398D01*
Y84392D01*
X162606Y84376D01*
X162604Y84361D01*
X162601Y84346D01*
X162597Y84333D01*
X162587Y84308D01*
X162583Y84297D01*
X162577Y84288D01*
X162571Y84279D01*
X162566Y84271D01*
X162560Y84264D01*
X162556Y84258D01*
X162552Y84254D01*
X162549Y84251D01*
X162547Y84249D01*
X162547Y84248D01*
X162535Y84238D01*
X162523Y84230D01*
X162510Y84221D01*
X162498Y84215D01*
X162484Y84209D01*
X162471Y84205D01*
X162447Y84198D01*
X162435Y84196D01*
X162425Y84194D01*
X162414Y84193D01*
X162406Y84192D01*
X162400Y84191D01*
X162395D01*
X162391D01*
X162390D01*
X162373Y84192D01*
X162357Y84194D01*
X162341Y84196D01*
X162327Y84199D01*
X162314Y84204D01*
X162301Y84208D01*
X162290Y84213D01*
X162279Y84219D01*
X162270Y84223D01*
X162262Y84228D01*
X162255Y84233D01*
X162249Y84237D01*
X162244Y84241D01*
X162241Y84243D01*
X162240Y84245D01*
X162239Y84245D01*
X162229Y84256D01*
X162220Y84267D01*
X162212Y84278D01*
X162205Y84290D01*
X162200Y84301D01*
X162195Y84312D01*
X162189Y84333D01*
X162186Y84343D01*
X162184Y84352D01*
X162183Y84359D01*
X162182Y84367D01*
X162181Y84372D01*
Y84380D01*
X162182Y84397D01*
X162185Y84414D01*
X162189Y84429D01*
X162193Y84442D01*
X162197Y84453D01*
X162201Y84461D01*
X162204Y84466D01*
X162204Y84468D01*
X162214Y84483D01*
X162224Y84496D01*
X162234Y84507D01*
X162243Y84516D01*
X162253Y84523D01*
X162259Y84528D01*
X162264Y84532D01*
X162265Y84533D01*
X162258D01*
X162253D01*
X162251D01*
X162250D01*
X162231Y84532D01*
X162214Y84531D01*
X162198Y84529D01*
X162183Y84527D01*
X162171Y84525D01*
X162162Y84523D01*
X162158Y84522D01*
X162155D01*
X162155Y84521D01*
X162154D01*
X162137Y84516D01*
X162122Y84512D01*
X162109Y84507D01*
X162098Y84503D01*
X162090Y84499D01*
X162083Y84495D01*
X162079Y84493D01*
X162078Y84492D01*
X162068Y84485D01*
X162059Y84478D01*
X162052Y84470D01*
X162045Y84463D01*
X162040Y84457D01*
X162036Y84452D01*
X162034Y84448D01*
X162033Y84447D01*
X162028Y84437D01*
X162024Y84426D01*
X162021Y84416D01*
X162020Y84405D01*
X162019Y84397D01*
X162018Y84391D01*
Y84384D01*
X162019Y84369D01*
X162021Y84355D01*
X162025Y84343D01*
X162030Y84333D01*
X162033Y84326D01*
X162037Y84319D01*
X162040Y84316D01*
X162041Y84315D01*
X162051Y84306D01*
X162063Y84298D01*
X162076Y84292D01*
X162089Y84287D01*
X162100Y84283D01*
X162110Y84281D01*
X162114Y84280D01*
X162116D01*
X162118Y84279D01*
X162118D01*
X162112Y84203D01*
X162085Y84208D01*
X162062Y84216D01*
X162042Y84225D01*
X162025Y84234D01*
X162012Y84244D01*
X162007Y84248D01*
X162002Y84252D01*
X161999Y84255D01*
X161996Y84257D01*
X161996Y84258D01*
X161995Y84259D01*
X161987Y84269D01*
X161981Y84279D01*
X161971Y84299D01*
X161963Y84319D01*
X161959Y84339D01*
X161955Y84356D01*
X161954Y84364D01*
Y84370D01*
X161953Y84375D01*
Y84382D01*
X161955Y84408D01*
X161959Y84431D01*
X161965Y84453D01*
X161972Y84470D01*
X161975Y84478D01*
X161979Y84485D01*
X161983Y84490D01*
X161985Y84496D01*
X161987Y84500D01*
X161989Y84503D01*
X161991Y84504D01*
Y84505D01*
X162007Y84524D01*
X162024Y84540D01*
X162043Y84553D01*
X162060Y84564D01*
X162076Y84574D01*
X162083Y84577D01*
X162089Y84580D01*
X162094Y84582D01*
X162098Y84584D01*
X162100Y84585D01*
X162101D01*
X162115Y84589D01*
X162130Y84594D01*
X162162Y84601D01*
X162195Y84605D01*
X162227Y84608D01*
X162241Y84610D01*
X162254Y84611D01*
X162266D01*
X162277Y84612D01*
X162285D01*
X162291D01*
X162296D01*
X162297D01*
X162318D01*
X162339Y84611D01*
D02*
G37*
G36*
X162607Y83939D02*
X162591Y83929D01*
X162576Y83919D01*
X162561Y83907D01*
X162548Y83896D01*
X162537Y83885D01*
X162528Y83877D01*
X162525Y83873D01*
X162523Y83870D01*
X162522Y83869D01*
X162521Y83868D01*
X162505Y83849D01*
X162490Y83829D01*
X162477Y83811D01*
X162467Y83792D01*
X162458Y83777D01*
X162454Y83770D01*
X162451Y83765D01*
X162449Y83760D01*
X162448Y83756D01*
X162446Y83755D01*
Y83754D01*
X162370D01*
X162376Y83767D01*
X162382Y83781D01*
X162388Y83795D01*
X162395Y83808D01*
X162400Y83819D01*
X162405Y83828D01*
X162409Y83834D01*
X162410Y83835D01*
Y83836D01*
X162420Y83853D01*
X162430Y83867D01*
X162439Y83880D01*
X162448Y83890D01*
X162454Y83900D01*
X162460Y83905D01*
X162463Y83910D01*
X162464Y83911D01*
X161964D01*
Y83989D01*
X162607D01*
Y83939D01*
D02*
G37*
G36*
X162318Y83608D02*
X162347Y83606D01*
X162373Y83601D01*
X162385Y83599D01*
X162395Y83596D01*
X162405Y83594D01*
X162413Y83592D01*
X162421Y83590D01*
X162427Y83587D01*
X162433Y83586D01*
X162437Y83584D01*
X162438Y83583D01*
X162439D01*
X162463Y83573D01*
X162485Y83561D01*
X162503Y83548D01*
X162519Y83536D01*
X162532Y83525D01*
X162541Y83516D01*
X162544Y83512D01*
X162547Y83510D01*
X162547Y83509D01*
X162548Y83508D01*
X162560Y83493D01*
X162570Y83477D01*
X162578Y83461D01*
X162584Y83447D01*
X162589Y83434D01*
X162592Y83424D01*
X162594Y83420D01*
Y83417D01*
X162595Y83415D01*
Y83414D01*
X162597Y83399D01*
X162600Y83380D01*
X162602Y83362D01*
X162603Y83343D01*
X162604Y83326D01*
Y83081D01*
X161964D01*
Y83311D01*
X161965Y83332D01*
X161966Y83351D01*
X161968Y83369D01*
X161970Y83384D01*
X161971Y83397D01*
X161972Y83406D01*
X161973Y83409D01*
X161974Y83412D01*
Y83413D01*
X161979Y83430D01*
X161984Y83445D01*
X161989Y83458D01*
X161995Y83469D01*
X161999Y83478D01*
X162003Y83485D01*
X162006Y83488D01*
X162007Y83490D01*
X162015Y83502D01*
X162025Y83512D01*
X162034Y83522D01*
X162044Y83531D01*
X162052Y83538D01*
X162058Y83544D01*
X162063Y83547D01*
X162065Y83548D01*
X162080Y83558D01*
X162095Y83567D01*
X162110Y83574D01*
X162125Y83580D01*
X162138Y83585D01*
X162148Y83589D01*
X162152Y83590D01*
X162155Y83591D01*
X162156Y83592D01*
X162157D01*
X162180Y83597D01*
X162202Y83602D01*
X162223Y83605D01*
X162243Y83608D01*
X162261Y83608D01*
X162268D01*
X162275Y83609D01*
X162279D01*
X162284D01*
X162286D01*
X162287D01*
X162318Y83608D01*
D02*
G37*
G36*
X148774Y84196D02*
X148699D01*
Y84510D01*
X148672Y84488D01*
X148643Y84466D01*
X148615Y84448D01*
X148589Y84430D01*
X148577Y84423D01*
X148566Y84417D01*
X148555Y84410D01*
X148547Y84405D01*
X148540Y84402D01*
X148535Y84399D01*
X148531Y84397D01*
X148530Y84396D01*
X148493Y84378D01*
X148456Y84361D01*
X148421Y84347D01*
X148406Y84342D01*
X148390Y84336D01*
X148376Y84331D01*
X148363Y84327D01*
X148352Y84323D01*
X148343Y84320D01*
X148334Y84318D01*
X148329Y84316D01*
X148325Y84315D01*
X148324D01*
X148286Y84306D01*
X148268Y84302D01*
X148251Y84299D01*
X148235Y84296D01*
X148220Y84294D01*
X148207Y84292D01*
X148194Y84290D01*
X148183Y84289D01*
X148173Y84288D01*
X148163Y84287D01*
X148156D01*
X148150Y84286D01*
X148147D01*
X148144D01*
X148143D01*
Y84367D01*
X148178Y84369D01*
X148210Y84374D01*
X148240Y84379D01*
X148254Y84381D01*
X148267Y84384D01*
X148278Y84386D01*
X148288Y84389D01*
X148297Y84391D01*
X148305Y84392D01*
X148310Y84394D01*
X148315Y84395D01*
X148318Y84396D01*
X148319D01*
X148361Y84410D01*
X148401Y84425D01*
X148420Y84432D01*
X148439Y84440D01*
X148455Y84448D01*
X148472Y84455D01*
X148487Y84462D01*
X148500Y84468D01*
X148511Y84474D01*
X148521Y84478D01*
X148529Y84483D01*
X148535Y84486D01*
X148539Y84488D01*
X148540Y84489D01*
X148559Y84500D01*
X148578Y84511D01*
X148596Y84522D01*
X148613Y84533D01*
X148627Y84543D01*
X148642Y84553D01*
X148655Y84564D01*
X148666Y84572D01*
X148677Y84580D01*
X148687Y84588D01*
X148694Y84595D01*
X148701Y84601D01*
X148706Y84604D01*
X148710Y84608D01*
X148712Y84610D01*
X148713Y84611D01*
X148774D01*
Y84196D01*
D02*
G37*
G36*
X148786Y83939D02*
X148770Y83929D01*
X148755Y83919D01*
X148740Y83907D01*
X148727Y83896D01*
X148716Y83885D01*
X148707Y83877D01*
X148704Y83873D01*
X148701Y83870D01*
X148701Y83869D01*
X148700Y83868D01*
X148684Y83849D01*
X148669Y83829D01*
X148656Y83811D01*
X148646Y83792D01*
X148637Y83777D01*
X148633Y83770D01*
X148630Y83765D01*
X148627Y83760D01*
X148627Y83756D01*
X148625Y83755D01*
Y83754D01*
X148549D01*
X148554Y83767D01*
X148561Y83781D01*
X148567Y83795D01*
X148574Y83808D01*
X148579Y83819D01*
X148584Y83828D01*
X148588Y83834D01*
X148589Y83835D01*
Y83836D01*
X148599Y83853D01*
X148609Y83867D01*
X148618Y83880D01*
X148627Y83890D01*
X148633Y83900D01*
X148639Y83905D01*
X148642Y83910D01*
X148643Y83911D01*
X148143D01*
Y83989D01*
X148786D01*
Y83939D01*
D02*
G37*
G36*
X148497Y83608D02*
X148526Y83606D01*
X148552Y83601D01*
X148564Y83599D01*
X148574Y83596D01*
X148584Y83594D01*
X148592Y83592D01*
X148600Y83590D01*
X148606Y83587D01*
X148612Y83586D01*
X148615Y83584D01*
X148617Y83583D01*
X148618D01*
X148642Y83573D01*
X148664Y83561D01*
X148682Y83548D01*
X148698Y83536D01*
X148711Y83525D01*
X148720Y83516D01*
X148723Y83512D01*
X148725Y83510D01*
X148726Y83509D01*
X148727Y83508D01*
X148739Y83493D01*
X148749Y83477D01*
X148757Y83461D01*
X148763Y83447D01*
X148768Y83434D01*
X148771Y83424D01*
X148773Y83420D01*
Y83417D01*
X148774Y83415D01*
Y83414D01*
X148776Y83399D01*
X148779Y83380D01*
X148781Y83362D01*
X148782Y83343D01*
X148783Y83326D01*
Y83081D01*
X148143D01*
Y83311D01*
X148144Y83332D01*
X148145Y83351D01*
X148147Y83369D01*
X148149Y83384D01*
X148150Y83397D01*
X148151Y83406D01*
X148152Y83409D01*
X148153Y83412D01*
Y83413D01*
X148158Y83430D01*
X148163Y83445D01*
X148168Y83458D01*
X148173Y83469D01*
X148178Y83478D01*
X148182Y83485D01*
X148185Y83488D01*
X148186Y83490D01*
X148194Y83502D01*
X148204Y83512D01*
X148213Y83522D01*
X148223Y83531D01*
X148231Y83538D01*
X148237Y83544D01*
X148242Y83547D01*
X148244Y83548D01*
X148259Y83558D01*
X148274Y83567D01*
X148289Y83574D01*
X148304Y83580D01*
X148317Y83585D01*
X148327Y83589D01*
X148331Y83590D01*
X148333Y83591D01*
X148335Y83592D01*
X148336D01*
X148358Y83597D01*
X148381Y83602D01*
X148402Y83605D01*
X148422Y83608D01*
X148440Y83608D01*
X148447D01*
X148454Y83609D01*
X148458D01*
X148463D01*
X148465D01*
X148466D01*
X148497Y83608D01*
D02*
G37*
%LPC*%
G36*
X71797Y12525D02*
X71794D01*
X71792D01*
X71791D01*
X71767Y12524D01*
X71746Y12520D01*
X71728Y12514D01*
X71713Y12508D01*
X71701Y12500D01*
X71693Y12495D01*
X71687Y12491D01*
X71686Y12489D01*
X71673Y12476D01*
X71663Y12461D01*
X71657Y12446D01*
X71652Y12431D01*
X71650Y12419D01*
X71649Y12409D01*
X71648Y12405D01*
Y12400D01*
X71650Y12380D01*
X71653Y12363D01*
X71660Y12347D01*
X71667Y12333D01*
X71674Y12323D01*
X71680Y12315D01*
X71684Y12310D01*
X71686Y12308D01*
X71700Y12296D01*
X71717Y12287D01*
X71734Y12281D01*
X71749Y12277D01*
X71763Y12274D01*
X71769Y12273D01*
X71774D01*
X71779Y12272D01*
X71782D01*
X71784D01*
X71785D01*
X71809Y12274D01*
X71831Y12278D01*
X71850Y12284D01*
X71866Y12292D01*
X71879Y12298D01*
X71888Y12304D01*
X71891Y12306D01*
X71894Y12308D01*
X71895Y12310D01*
X71895D01*
X71903Y12317D01*
X71910Y12325D01*
X71920Y12341D01*
X71929Y12356D01*
X71933Y12371D01*
X71937Y12383D01*
X71938Y12393D01*
X71939Y12397D01*
Y12412D01*
X71937Y12421D01*
X71932Y12438D01*
X71926Y12452D01*
X71920Y12465D01*
X71912Y12476D01*
X71906Y12483D01*
X71901Y12488D01*
X71900Y12489D01*
X71899D01*
X71883Y12501D01*
X71866Y12511D01*
X71847Y12517D01*
X71830Y12521D01*
X71815Y12524D01*
X71809Y12525D01*
X71802D01*
X71797Y12525D01*
D02*
G37*
G36*
X181787Y17282D02*
X181779D01*
X181763Y17281D01*
X181749Y17277D01*
X181737Y17273D01*
X181726Y17267D01*
X181717Y17262D01*
X181711Y17257D01*
X181706Y17253D01*
X181705Y17252D01*
X181695Y17240D01*
X181688Y17228D01*
X181682Y17216D01*
X181678Y17205D01*
X181677Y17195D01*
X181675Y17187D01*
Y17181D01*
Y17180D01*
Y17179D01*
X181676Y17165D01*
X181679Y17151D01*
X181684Y17139D01*
X181689Y17129D01*
X181695Y17120D01*
X181700Y17115D01*
X181703Y17110D01*
X181704Y17109D01*
X181715Y17100D01*
X181728Y17092D01*
X181740Y17088D01*
X181752Y17084D01*
X181763Y17082D01*
X181772Y17081D01*
X181777Y17080D01*
X181779D01*
X181796Y17081D01*
X181811Y17085D01*
X181824Y17090D01*
X181835Y17095D01*
X181843Y17100D01*
X181849Y17104D01*
X181854Y17108D01*
X181855Y17109D01*
X181864Y17120D01*
X181872Y17133D01*
X181876Y17145D01*
X181880Y17157D01*
X181882Y17167D01*
X181883Y17176D01*
X181884Y17181D01*
Y17182D01*
Y17183D01*
X181883Y17198D01*
X181879Y17211D01*
X181874Y17223D01*
X181869Y17233D01*
X181864Y17241D01*
X181860Y17248D01*
X181856Y17252D01*
X181855Y17252D01*
X181843Y17263D01*
X181831Y17270D01*
X181818Y17275D01*
X181806Y17278D01*
X181795Y17280D01*
X181787Y17282D01*
D02*
G37*
G36*
X181787Y17017D02*
X181782D01*
X181762Y17015D01*
X181743Y17011D01*
X181726Y17005D01*
X181713Y16998D01*
X181702Y16991D01*
X181693Y16984D01*
X181689Y16981D01*
X181687Y16979D01*
X181674Y16964D01*
X181665Y16948D01*
X181658Y16933D01*
X181653Y16919D01*
X181651Y16905D01*
X181650Y16895D01*
X181649Y16891D01*
Y16888D01*
Y16886D01*
Y16885D01*
X181651Y16866D01*
X181654Y16847D01*
X181661Y16832D01*
X181667Y16819D01*
X181674Y16809D01*
X181680Y16800D01*
X181684Y16796D01*
X181686Y16794D01*
X181701Y16782D01*
X181715Y16773D01*
X181731Y16767D01*
X181746Y16762D01*
X181759Y16760D01*
X181770Y16759D01*
X181774Y16758D01*
X181779D01*
X181792Y16759D01*
X181805Y16761D01*
X181817Y16763D01*
X181827Y16766D01*
X181836Y16769D01*
X181842Y16772D01*
X181846Y16774D01*
X181848Y16774D01*
X181859Y16782D01*
X181868Y16789D01*
X181876Y16798D01*
X181883Y16806D01*
X181888Y16812D01*
X181892Y16818D01*
X181894Y16823D01*
X181895Y16823D01*
X181899Y16835D01*
X181903Y16847D01*
X181906Y16858D01*
X181908Y16868D01*
X181909Y16876D01*
X181910Y16883D01*
Y16886D01*
Y16888D01*
X181908Y16908D01*
X181904Y16925D01*
X181898Y16941D01*
X181891Y16955D01*
X181885Y16965D01*
X181879Y16973D01*
X181875Y16978D01*
X181873Y16980D01*
X181860Y16992D01*
X181844Y17001D01*
X181829Y17007D01*
X181814Y17012D01*
X181801Y17015D01*
X181791Y17016D01*
X181787Y17017D01*
D02*
G37*
G36*
X193755Y18215D02*
X193747D01*
X193742D01*
X193742D01*
X193741D01*
X193712D01*
X193686Y18213D01*
X193663Y18211D01*
X193641Y18209D01*
X193622Y18206D01*
X193605Y18203D01*
X193590Y18199D01*
X193576Y18196D01*
X193565Y18192D01*
X193556Y18189D01*
X193547Y18186D01*
X193541Y18182D01*
X193536Y18180D01*
X193534Y18179D01*
X193532Y18177D01*
X193531D01*
X193521Y18169D01*
X193514Y18162D01*
X193507Y18155D01*
X193501Y18147D01*
X193492Y18131D01*
X193485Y18118D01*
X193482Y18105D01*
X193480Y18095D01*
X193479Y18092D01*
Y18086D01*
X193480Y18076D01*
X193481Y18067D01*
X193487Y18049D01*
X193496Y18033D01*
X193505Y18020D01*
X193514Y18009D01*
X193522Y18001D01*
X193529Y17996D01*
X193530Y17995D01*
X193531D01*
X193542Y17988D01*
X193555Y17983D01*
X193570Y17977D01*
X193585Y17973D01*
X193602Y17970D01*
X193620Y17967D01*
X193656Y17962D01*
X193672Y17960D01*
X193688Y17959D01*
X193703Y17959D01*
X193715D01*
X193726Y17958D01*
X193734D01*
X193739D01*
X193741D01*
X193769Y17959D01*
X193795Y17959D01*
X193819Y17961D01*
X193841Y17964D01*
X193861Y17967D01*
X193878Y17971D01*
X193894Y17974D01*
X193908Y17978D01*
X193920Y17982D01*
X193930Y17984D01*
X193938Y17988D01*
X193946Y17991D01*
X193950Y17994D01*
X193954Y17995D01*
X193956Y17997D01*
X193957D01*
X193965Y18004D01*
X193973Y18010D01*
X193978Y18018D01*
X193984Y18025D01*
X193992Y18040D01*
X193998Y18054D01*
X194000Y18066D01*
X194002Y18076D01*
X194003Y18080D01*
Y18085D01*
X194002Y18095D01*
X194001Y18106D01*
X193999Y18115D01*
X193995Y18123D01*
X193987Y18139D01*
X193977Y18153D01*
X193967Y18163D01*
X193959Y18171D01*
X193955Y18174D01*
X193952Y18176D01*
X193951Y18178D01*
X193950D01*
X193939Y18184D01*
X193926Y18190D01*
X193912Y18195D01*
X193896Y18199D01*
X193879Y18203D01*
X193862Y18205D01*
X193827Y18210D01*
X193809Y18212D01*
X193793Y18213D01*
X193779Y18214D01*
X193766D01*
X193755Y18215D01*
D02*
G37*
G36*
X192959Y19232D02*
X192958D01*
X192957D01*
X192942Y19231D01*
X192929Y19227D01*
X192917Y19223D01*
X192907Y19217D01*
X192899Y19212D01*
X192892Y19208D01*
X192889Y19204D01*
X192888Y19203D01*
X192878Y19191D01*
X192870Y19179D01*
X192866Y19166D01*
X192862Y19154D01*
X192860Y19143D01*
X192858Y19135D01*
Y19127D01*
X192859Y19112D01*
X192863Y19097D01*
X192867Y19085D01*
X192873Y19074D01*
X192878Y19065D01*
X192883Y19059D01*
X192887Y19054D01*
X192888Y19053D01*
X192900Y19043D01*
X192912Y19036D01*
X192924Y19030D01*
X192935Y19027D01*
X192945Y19025D01*
X192953Y19023D01*
X192959D01*
X192960D01*
X192961D01*
X192976Y19024D01*
X192989Y19027D01*
X193001Y19032D01*
X193012Y19038D01*
X193020Y19043D01*
X193025Y19048D01*
X193030Y19051D01*
X193031Y19052D01*
X193040Y19063D01*
X193048Y19076D01*
X193052Y19088D01*
X193056Y19100D01*
X193058Y19112D01*
X193059Y19120D01*
X193060Y19125D01*
Y19127D01*
X193059Y19144D01*
X193055Y19159D01*
X193050Y19172D01*
X193045Y19183D01*
X193040Y19191D01*
X193036Y19198D01*
X193032Y19202D01*
X193031Y19203D01*
X193020Y19212D01*
X193007Y19220D01*
X192995Y19224D01*
X192983Y19228D01*
X192973Y19230D01*
X192964Y19231D01*
X192959Y19232D01*
D02*
G37*
G36*
X193258Y19258D02*
X193254D01*
X193252D01*
X193233Y19256D01*
X193215Y19252D01*
X193199Y19247D01*
X193185Y19239D01*
X193175Y19233D01*
X193167Y19227D01*
X193162Y19223D01*
X193160Y19222D01*
X193148Y19208D01*
X193139Y19192D01*
X193133Y19177D01*
X193128Y19162D01*
X193125Y19149D01*
X193124Y19139D01*
X193123Y19136D01*
Y19130D01*
X193125Y19110D01*
X193129Y19091D01*
X193136Y19075D01*
X193142Y19061D01*
X193149Y19050D01*
X193156Y19041D01*
X193160Y19037D01*
X193161Y19035D01*
X193176Y19022D01*
X193192Y19013D01*
X193208Y19006D01*
X193221Y19002D01*
X193235Y18999D01*
X193246Y18998D01*
X193249Y18997D01*
X193252D01*
X193254D01*
X193255D01*
X193274Y18999D01*
X193293Y19002D01*
X193308Y19009D01*
X193321Y19015D01*
X193332Y19022D01*
X193340Y19028D01*
X193344Y19032D01*
X193346Y19034D01*
X193358Y19049D01*
X193368Y19063D01*
X193373Y19079D01*
X193378Y19094D01*
X193381Y19107D01*
X193381Y19118D01*
X193382Y19122D01*
Y19127D01*
X193381Y19140D01*
X193380Y19153D01*
X193377Y19165D01*
X193374Y19175D01*
X193371Y19184D01*
X193368Y19190D01*
X193367Y19194D01*
X193366Y19196D01*
X193358Y19207D01*
X193351Y19216D01*
X193343Y19224D01*
X193334Y19231D01*
X193328Y19236D01*
X193322Y19240D01*
X193318Y19242D01*
X193317Y19243D01*
X193305Y19247D01*
X193294Y19251D01*
X193283Y19254D01*
X193272Y19256D01*
X193264Y19257D01*
X193258Y19258D01*
D02*
G37*
G36*
X310523Y41020D02*
X310236D01*
Y40818D01*
X310523Y41020D01*
D02*
G37*
G36*
X310342Y40600D02*
X310337D01*
X310333D01*
X310330D01*
X310329D01*
X310304Y40599D01*
X310281Y40597D01*
X310260Y40594D01*
X310240Y40588D01*
X310222Y40583D01*
X310206Y40576D01*
X310190Y40570D01*
X310176Y40563D01*
X310164Y40556D01*
X310154Y40549D01*
X310145Y40543D01*
X310138Y40537D01*
X310132Y40533D01*
X310128Y40529D01*
X310126Y40526D01*
X310125Y40525D01*
X310140Y40506D01*
X310152Y40486D01*
X310162Y40466D01*
X310171Y40447D01*
X310178Y40430D01*
X310181Y40423D01*
X310182Y40416D01*
X310184Y40412D01*
X310185Y40408D01*
X310186Y40405D01*
Y40404D01*
X310125Y40383D01*
X310120Y40400D01*
X310115Y40415D01*
X310108Y40429D01*
X310103Y40442D01*
X310097Y40452D01*
X310093Y40461D01*
X310089Y40465D01*
X310088Y40467D01*
X310083Y40452D01*
X310079Y40437D01*
X310075Y40423D01*
X310073Y40409D01*
X310072Y40398D01*
X310071Y40389D01*
Y40381D01*
X310072Y40363D01*
X310074Y40347D01*
X310078Y40331D01*
X310082Y40315D01*
X310087Y40302D01*
X310093Y40289D01*
X310098Y40277D01*
X310105Y40266D01*
X310111Y40256D01*
X310117Y40248D01*
X310122Y40240D01*
X310128Y40234D01*
X310132Y40229D01*
X310135Y40226D01*
X310137Y40224D01*
X310138Y40223D01*
X310151Y40212D01*
X310166Y40203D01*
X310181Y40194D01*
X310196Y40188D01*
X310212Y40181D01*
X310228Y40177D01*
X310259Y40169D01*
X310273Y40167D01*
X310287Y40166D01*
X310299Y40164D01*
X310309Y40163D01*
X310317Y40162D01*
X310324D01*
X310328D01*
X310329D01*
X310353Y40163D01*
X310375Y40165D01*
X310395Y40167D01*
X310414Y40172D01*
X310431Y40177D01*
X310447Y40181D01*
X310462Y40187D01*
X310475Y40193D01*
X310486Y40199D01*
X310496Y40204D01*
X310504Y40209D01*
X310511Y40215D01*
X310516Y40218D01*
X310520Y40221D01*
X310522Y40223D01*
X310523Y40224D01*
X310535Y40236D01*
X310544Y40249D01*
X310553Y40262D01*
X310561Y40275D01*
X310567Y40289D01*
X310573Y40302D01*
X310576Y40314D01*
X310580Y40326D01*
X310583Y40338D01*
X310585Y40348D01*
X310586Y40357D01*
X310587Y40365D01*
X310588Y40372D01*
Y40381D01*
X310587Y40404D01*
X310584Y40426D01*
X310578Y40446D01*
X310573Y40462D01*
X310566Y40476D01*
X310563Y40482D01*
X310561Y40486D01*
X310559Y40491D01*
X310558Y40494D01*
X310556Y40495D01*
Y40496D01*
X310543Y40513D01*
X310528Y40529D01*
X310513Y40543D01*
X310499Y40554D01*
X310486Y40562D01*
X310475Y40569D01*
X310471Y40571D01*
X310468Y40572D01*
X310466Y40573D01*
X310465D01*
X310443Y40583D01*
X310420Y40589D01*
X310397Y40594D01*
X310376Y40596D01*
X310366Y40598D01*
X310357Y40599D01*
X310350D01*
X310342Y40600D01*
D02*
G37*
G36*
X17501Y92307D02*
X17310D01*
Y92095D01*
X17512D01*
X17537Y92096D01*
X17558Y92100D01*
X17576Y92105D01*
X17590Y92110D01*
X17602Y92116D01*
X17610Y92120D01*
X17614Y92124D01*
X17616Y92125D01*
X17627Y92137D01*
X17635Y92149D01*
X17641Y92162D01*
X17646Y92173D01*
X17648Y92184D01*
X17648Y92192D01*
X17649Y92198D01*
Y92199D01*
Y92200D01*
X17648Y92211D01*
X17647Y92222D01*
X17644Y92231D01*
X17641Y92240D01*
X17637Y92247D01*
X17635Y92252D01*
X17633Y92256D01*
X17632Y92257D01*
X17625Y92266D01*
X17617Y92275D01*
X17609Y92281D01*
X17600Y92287D01*
X17593Y92290D01*
X17587Y92293D01*
X17584Y92295D01*
X17582Y92296D01*
X17569Y92300D01*
X17554Y92302D01*
X17539Y92304D01*
X17525Y92305D01*
X17512Y92306D01*
X17501Y92307D01*
D02*
G37*
G36*
X18549Y92610D02*
X18543D01*
X18533Y92609D01*
X18524Y92608D01*
X18506Y92602D01*
X18491Y92594D01*
X18477Y92584D01*
X18467Y92575D01*
X18458Y92567D01*
X18454Y92560D01*
X18452Y92559D01*
Y92559D01*
X18445Y92547D01*
X18440Y92534D01*
X18434Y92520D01*
X18431Y92504D01*
X18427Y92487D01*
X18424Y92470D01*
X18420Y92434D01*
X18418Y92417D01*
X18417Y92401D01*
X18416Y92387D01*
Y92375D01*
X18415Y92363D01*
Y92355D01*
Y92350D01*
Y92349D01*
X18416Y92320D01*
X18417Y92294D01*
X18419Y92270D01*
X18421Y92248D01*
X18424Y92228D01*
X18428Y92211D01*
X18432Y92195D01*
X18435Y92181D01*
X18439Y92169D01*
X18442Y92159D01*
X18445Y92151D01*
X18448Y92143D01*
X18451Y92139D01*
X18453Y92135D01*
X18455Y92133D01*
Y92132D01*
X18461Y92124D01*
X18468Y92117D01*
X18475Y92111D01*
X18482Y92105D01*
X18497Y92097D01*
X18511Y92092D01*
X18523Y92089D01*
X18533Y92087D01*
X18537Y92086D01*
X18542D01*
X18553Y92087D01*
X18563Y92088D01*
X18572Y92091D01*
X18580Y92094D01*
X18596Y92103D01*
X18610Y92112D01*
X18620Y92122D01*
X18628Y92130D01*
X18631Y92134D01*
X18633Y92137D01*
X18635Y92138D01*
Y92139D01*
X18641Y92150D01*
X18647Y92163D01*
X18653Y92178D01*
X18656Y92193D01*
X18660Y92210D01*
X18663Y92228D01*
X18667Y92263D01*
X18669Y92280D01*
X18670Y92296D01*
X18671Y92311D01*
Y92323D01*
X18672Y92334D01*
Y92342D01*
Y92347D01*
Y92348D01*
Y92349D01*
Y92377D01*
X18670Y92403D01*
X18668Y92426D01*
X18666Y92448D01*
X18664Y92467D01*
X18660Y92485D01*
X18656Y92499D01*
X18653Y92513D01*
X18650Y92524D01*
X18646Y92534D01*
X18643Y92542D01*
X18640Y92548D01*
X18638Y92553D01*
X18636Y92556D01*
X18634Y92558D01*
Y92559D01*
X18627Y92568D01*
X18619Y92575D01*
X18612Y92583D01*
X18604Y92588D01*
X18589Y92597D01*
X18575Y92604D01*
X18562Y92608D01*
X18553Y92609D01*
X18549Y92610D01*
D02*
G37*
G36*
X18052D02*
X18047D01*
X18034Y92609D01*
X18021Y92608D01*
X18009Y92605D01*
X17999Y92602D01*
X17991Y92599D01*
X17984Y92596D01*
X17980Y92595D01*
X17979Y92594D01*
X17967Y92586D01*
X17958Y92579D01*
X17950Y92571D01*
X17943Y92562D01*
X17938Y92556D01*
X17934Y92550D01*
X17932Y92546D01*
X17931Y92545D01*
X17927Y92533D01*
X17923Y92522D01*
X17920Y92510D01*
X17918Y92500D01*
X17917Y92492D01*
X17917Y92485D01*
Y92482D01*
Y92480D01*
X17918Y92461D01*
X17922Y92443D01*
X17928Y92427D01*
X17935Y92413D01*
X17942Y92403D01*
X17947Y92395D01*
X17951Y92390D01*
X17953Y92388D01*
X17966Y92376D01*
X17982Y92367D01*
X17997Y92361D01*
X18012Y92356D01*
X18025Y92353D01*
X18035Y92352D01*
X18039Y92351D01*
X18044D01*
X18064Y92353D01*
X18083Y92357D01*
X18100Y92363D01*
X18113Y92370D01*
X18125Y92377D01*
X18133Y92384D01*
X18138Y92387D01*
X18139Y92389D01*
X18152Y92404D01*
X18162Y92420D01*
X18168Y92436D01*
X18173Y92449D01*
X18175Y92463D01*
X18176Y92473D01*
X18177Y92477D01*
Y92480D01*
Y92482D01*
Y92483D01*
X18175Y92502D01*
X18172Y92521D01*
X18165Y92536D01*
X18159Y92549D01*
X18152Y92559D01*
X18146Y92568D01*
X18142Y92572D01*
X18140Y92574D01*
X18126Y92586D01*
X18111Y92595D01*
X18095Y92601D01*
X18080Y92606D01*
X18067Y92608D01*
X18056Y92609D01*
X18052Y92610D01*
D02*
G37*
G36*
X18049Y92288D02*
X18047D01*
X18030Y92287D01*
X18015Y92283D01*
X18003Y92278D01*
X17991Y92273D01*
X17983Y92268D01*
X17977Y92264D01*
X17972Y92260D01*
X17971Y92259D01*
X17962Y92248D01*
X17954Y92235D01*
X17950Y92223D01*
X17946Y92211D01*
X17944Y92201D01*
X17943Y92192D01*
X17942Y92187D01*
Y92186D01*
Y92185D01*
X17943Y92170D01*
X17947Y92157D01*
X17952Y92145D01*
X17957Y92135D01*
X17962Y92127D01*
X17966Y92120D01*
X17970Y92117D01*
X17971Y92116D01*
X17983Y92105D01*
X17995Y92098D01*
X18008Y92093D01*
X18020Y92090D01*
X18031Y92088D01*
X18040Y92086D01*
X18047D01*
X18063Y92087D01*
X18077Y92091D01*
X18089Y92095D01*
X18101Y92101D01*
X18109Y92106D01*
X18115Y92111D01*
X18120Y92115D01*
X18121Y92116D01*
X18131Y92128D01*
X18138Y92140D01*
X18144Y92152D01*
X18148Y92163D01*
X18150Y92173D01*
X18151Y92181D01*
Y92187D01*
Y92188D01*
Y92189D01*
X18150Y92203D01*
X18147Y92217D01*
X18142Y92229D01*
X18137Y92240D01*
X18131Y92248D01*
X18126Y92253D01*
X18123Y92258D01*
X18122Y92259D01*
X18111Y92268D01*
X18098Y92276D01*
X18086Y92280D01*
X18074Y92284D01*
X18063Y92286D01*
X18054Y92287D01*
X18049Y92288D01*
D02*
G37*
G36*
X46740Y83703D02*
X46736D01*
X46732D01*
X46731D01*
X46705Y83702D01*
X46681Y83700D01*
X46660Y83697D01*
X46641Y83694D01*
X46634Y83693D01*
X46627Y83691D01*
X46621Y83689D01*
X46616Y83688D01*
X46613Y83687D01*
X46610Y83686D01*
X46608Y83685D01*
X46607D01*
X46589Y83679D01*
X46574Y83671D01*
X46560Y83663D01*
X46548Y83656D01*
X46539Y83649D01*
X46532Y83644D01*
X46528Y83640D01*
X46527Y83639D01*
X46519Y83630D01*
X46513Y83620D01*
X46507Y83611D01*
X46502Y83602D01*
X46498Y83594D01*
X46495Y83587D01*
X46494Y83583D01*
X46493Y83581D01*
X46490Y83567D01*
X46487Y83550D01*
X46485Y83534D01*
X46484Y83518D01*
X46483Y83504D01*
X46482Y83497D01*
Y83346D01*
X46970D01*
Y83494D01*
X46969Y83506D01*
Y83518D01*
X46969Y83529D01*
X46966Y83547D01*
X46964Y83562D01*
X46961Y83574D01*
X46958Y83583D01*
X46957Y83587D01*
X46957Y83589D01*
X46948Y83606D01*
X46938Y83621D01*
X46926Y83635D01*
X46914Y83647D01*
X46903Y83657D01*
X46894Y83664D01*
X46890Y83666D01*
X46887Y83668D01*
X46885Y83669D01*
X46884D01*
X46874Y83675D01*
X46862Y83681D01*
X46838Y83689D01*
X46812Y83694D01*
X46787Y83699D01*
X46776Y83700D01*
X46765Y83701D01*
X46756Y83702D01*
X46748D01*
X46740Y83703D01*
D02*
G37*
G36*
X61329Y84806D02*
X61042D01*
Y84605D01*
X61329Y84806D01*
D02*
G37*
G36*
X61150Y83886D02*
X61146D01*
X61142D01*
X61141D01*
X61115Y83886D01*
X61091Y83884D01*
X61070Y83881D01*
X61051Y83878D01*
X61044Y83876D01*
X61037Y83874D01*
X61031Y83873D01*
X61026Y83872D01*
X61023Y83871D01*
X61020Y83870D01*
X61018Y83869D01*
X61017D01*
X60999Y83862D01*
X60984Y83855D01*
X60970Y83847D01*
X60958Y83839D01*
X60949Y83833D01*
X60942Y83827D01*
X60938Y83824D01*
X60937Y83823D01*
X60929Y83813D01*
X60923Y83804D01*
X60917Y83795D01*
X60912Y83786D01*
X60908Y83777D01*
X60905Y83771D01*
X60904Y83766D01*
X60903Y83764D01*
X60900Y83751D01*
X60897Y83734D01*
X60895Y83717D01*
X60894Y83702D01*
X60893Y83688D01*
X60892Y83681D01*
Y83530D01*
X61380D01*
Y83677D01*
X61379Y83690D01*
Y83702D01*
X61379Y83713D01*
X61376Y83731D01*
X61374Y83746D01*
X61371Y83758D01*
X61368Y83766D01*
X61367Y83771D01*
X61367Y83773D01*
X61358Y83789D01*
X61348Y83805D01*
X61336Y83819D01*
X61324Y83831D01*
X61313Y83840D01*
X61304Y83848D01*
X61300Y83849D01*
X61297Y83851D01*
X61295Y83853D01*
X61294D01*
X61284Y83859D01*
X61272Y83864D01*
X61248Y83873D01*
X61222Y83878D01*
X61197Y83883D01*
X61186Y83884D01*
X61175Y83885D01*
X61166Y83886D01*
X61158D01*
X61150Y83886D01*
D02*
G37*
G36*
X248064Y83646D02*
X248059D01*
X248056D01*
X248055D01*
X248029Y83645D01*
X248005Y83643D01*
X247984Y83640D01*
X247965Y83637D01*
X247958Y83636D01*
X247951Y83634D01*
X247945Y83632D01*
X247940Y83631D01*
X247936Y83630D01*
X247934Y83629D01*
X247932Y83628D01*
X247931D01*
X247913Y83622D01*
X247898Y83614D01*
X247884Y83606D01*
X247872Y83599D01*
X247862Y83592D01*
X247856Y83587D01*
X247852Y83583D01*
X247850Y83582D01*
X247843Y83573D01*
X247836Y83563D01*
X247831Y83554D01*
X247825Y83545D01*
X247822Y83537D01*
X247819Y83530D01*
X247818Y83526D01*
X247817Y83524D01*
X247813Y83510D01*
X247811Y83493D01*
X247809Y83477D01*
X247808Y83461D01*
X247807Y83447D01*
X247806Y83440D01*
Y83289D01*
X248294D01*
Y83437D01*
X248293Y83449D01*
Y83461D01*
X248292Y83472D01*
X248290Y83490D01*
X248288Y83505D01*
X248285Y83517D01*
X248282Y83526D01*
X248281Y83530D01*
X248280Y83532D01*
X248272Y83549D01*
X248262Y83564D01*
X248250Y83578D01*
X248238Y83590D01*
X248227Y83599D01*
X248217Y83607D01*
X248214Y83609D01*
X248211Y83611D01*
X248209Y83612D01*
X248208D01*
X248198Y83618D01*
X248186Y83624D01*
X248162Y83632D01*
X248136Y83637D01*
X248111Y83642D01*
X248100Y83643D01*
X248089Y83644D01*
X248080Y83645D01*
X248071D01*
X248064Y83646D01*
D02*
G37*
G36*
X262619Y84327D02*
X262333D01*
Y84125D01*
X262619Y84327D01*
D02*
G37*
G36*
X262441Y83407D02*
X262436D01*
X262433D01*
X262432D01*
X262406Y83406D01*
X262382Y83404D01*
X262360Y83401D01*
X262342Y83398D01*
X262335Y83397D01*
X262328Y83395D01*
X262322Y83393D01*
X262317Y83392D01*
X262313Y83391D01*
X262310Y83390D01*
X262309Y83389D01*
X262308D01*
X262290Y83383D01*
X262274Y83375D01*
X262261Y83367D01*
X262249Y83360D01*
X262239Y83353D01*
X262233Y83348D01*
X262229Y83344D01*
X262227Y83343D01*
X262220Y83334D01*
X262213Y83324D01*
X262208Y83315D01*
X262202Y83306D01*
X262199Y83298D01*
X262196Y83291D01*
X262195Y83287D01*
X262194Y83285D01*
X262190Y83271D01*
X262188Y83254D01*
X262186Y83238D01*
X262185Y83222D01*
X262184Y83208D01*
X262183Y83201D01*
Y83050D01*
X262671D01*
Y83198D01*
X262670Y83210D01*
Y83222D01*
X262669Y83233D01*
X262666Y83251D01*
X262665Y83266D01*
X262662Y83278D01*
X262659Y83287D01*
X262658Y83291D01*
X262657Y83293D01*
X262649Y83310D01*
X262639Y83325D01*
X262627Y83339D01*
X262615Y83351D01*
X262604Y83361D01*
X262594Y83368D01*
X262591Y83370D01*
X262588Y83372D01*
X262586Y83373D01*
X262585D01*
X262575Y83379D01*
X262563Y83385D01*
X262539Y83393D01*
X262513Y83398D01*
X262488Y83403D01*
X262477Y83404D01*
X262466Y83405D01*
X262457Y83406D01*
X262448D01*
X262441Y83407D01*
D02*
G37*
G36*
X281360Y57511D02*
X281345D01*
X281336Y57509D01*
X281319Y57504D01*
X281305Y57498D01*
X281292Y57492D01*
X281281Y57484D01*
X281274Y57478D01*
X281269Y57473D01*
X281268Y57472D01*
Y57471D01*
X281255Y57455D01*
X281246Y57438D01*
X281240Y57419D01*
X281236Y57402D01*
X281233Y57387D01*
X281232Y57381D01*
Y57374D01*
X281231Y57369D01*
Y57366D01*
Y57364D01*
Y57363D01*
X281233Y57339D01*
X281237Y57318D01*
X281243Y57300D01*
X281249Y57285D01*
X281256Y57273D01*
X281262Y57265D01*
X281266Y57259D01*
X281268Y57258D01*
X281281Y57245D01*
X281296Y57235D01*
X281311Y57229D01*
X281326Y57224D01*
X281338Y57222D01*
X281348Y57221D01*
X281352Y57220D01*
X281357D01*
X281377Y57222D01*
X281394Y57225D01*
X281410Y57232D01*
X281424Y57239D01*
X281434Y57246D01*
X281442Y57252D01*
X281447Y57256D01*
X281449Y57258D01*
X281461Y57272D01*
X281470Y57289D01*
X281476Y57306D01*
X281480Y57321D01*
X281483Y57335D01*
X281484Y57341D01*
Y57346D01*
X281485Y57351D01*
Y57354D01*
Y57356D01*
Y57357D01*
X281483Y57381D01*
X281479Y57403D01*
X281473Y57422D01*
X281465Y57438D01*
X281459Y57451D01*
X281452Y57460D01*
X281451Y57463D01*
X281449Y57466D01*
X281447Y57467D01*
Y57467D01*
X281439Y57475D01*
X281432Y57482D01*
X281416Y57492D01*
X281401Y57501D01*
X281386Y57505D01*
X281374Y57509D01*
X281364Y57510D01*
X281360Y57511D01*
D02*
G37*
G36*
X162400Y84525D02*
X162397D01*
X162395D01*
X162394D01*
X162370Y84523D01*
X162349Y84519D01*
X162331Y84514D01*
X162316Y84507D01*
X162304Y84500D01*
X162296Y84494D01*
X162290Y84490D01*
X162289Y84489D01*
X162276Y84475D01*
X162266Y84460D01*
X162260Y84445D01*
X162255Y84430D01*
X162253Y84418D01*
X162252Y84408D01*
X162251Y84404D01*
Y84399D01*
X162253Y84380D01*
X162256Y84362D01*
X162263Y84346D01*
X162270Y84332D01*
X162277Y84322D01*
X162283Y84314D01*
X162287Y84309D01*
X162289Y84307D01*
X162303Y84295D01*
X162320Y84286D01*
X162337Y84281D01*
X162352Y84276D01*
X162366Y84273D01*
X162372Y84272D01*
X162377D01*
X162382Y84271D01*
X162385D01*
X162387D01*
X162388D01*
X162412Y84273D01*
X162434Y84277D01*
X162453Y84283D01*
X162469Y84291D01*
X162482Y84297D01*
X162491Y84304D01*
X162494Y84306D01*
X162497Y84307D01*
X162498Y84309D01*
X162498D01*
X162506Y84317D01*
X162513Y84324D01*
X162523Y84340D01*
X162532Y84355D01*
X162536Y84370D01*
X162540Y84382D01*
X162541Y84392D01*
X162542Y84396D01*
Y84411D01*
X162540Y84420D01*
X162535Y84437D01*
X162529Y84452D01*
X162523Y84465D01*
X162515Y84475D01*
X162509Y84482D01*
X162504Y84487D01*
X162503Y84489D01*
X162502D01*
X162486Y84501D01*
X162469Y84510D01*
X162450Y84516D01*
X162433Y84520D01*
X162418Y84523D01*
X162412Y84524D01*
X162405D01*
X162400Y84525D01*
D02*
G37*
G36*
X162298Y83522D02*
X162293D01*
X162290D01*
X162289D01*
X162263Y83522D01*
X162239Y83520D01*
X162217Y83517D01*
X162199Y83514D01*
X162192Y83512D01*
X162185Y83510D01*
X162179Y83509D01*
X162174Y83508D01*
X162170Y83507D01*
X162167Y83506D01*
X162166Y83505D01*
X162165D01*
X162147Y83498D01*
X162131Y83491D01*
X162118Y83483D01*
X162106Y83475D01*
X162096Y83469D01*
X162090Y83463D01*
X162086Y83460D01*
X162084Y83459D01*
X162077Y83449D01*
X162070Y83440D01*
X162065Y83431D01*
X162059Y83422D01*
X162056Y83413D01*
X162053Y83407D01*
X162052Y83402D01*
X162051Y83400D01*
X162047Y83387D01*
X162045Y83370D01*
X162043Y83353D01*
X162042Y83338D01*
X162041Y83324D01*
X162040Y83317D01*
Y83166D01*
X162528D01*
Y83314D01*
X162527Y83326D01*
Y83338D01*
X162526Y83349D01*
X162523Y83367D01*
X162522Y83382D01*
X162519Y83394D01*
X162516Y83402D01*
X162515Y83407D01*
X162514Y83409D01*
X162506Y83425D01*
X162496Y83441D01*
X162484Y83455D01*
X162472Y83467D01*
X162461Y83476D01*
X162451Y83484D01*
X162448Y83485D01*
X162445Y83487D01*
X162443Y83489D01*
X162442D01*
X162432Y83495D01*
X162420Y83500D01*
X162396Y83509D01*
X162370Y83514D01*
X162345Y83519D01*
X162334Y83520D01*
X162323Y83521D01*
X162314Y83522D01*
X162305D01*
X162298Y83522D01*
D02*
G37*
G36*
X148477D02*
X148472D01*
X148468D01*
X148468D01*
X148442Y83522D01*
X148418Y83520D01*
X148396Y83517D01*
X148378Y83514D01*
X148370Y83512D01*
X148364Y83510D01*
X148357Y83509D01*
X148353Y83508D01*
X148349Y83507D01*
X148346Y83506D01*
X148345Y83505D01*
X148344D01*
X148326Y83498D01*
X148310Y83491D01*
X148296Y83483D01*
X148284Y83475D01*
X148275Y83469D01*
X148269Y83463D01*
X148265Y83460D01*
X148263Y83459D01*
X148256Y83449D01*
X148249Y83440D01*
X148244Y83431D01*
X148238Y83422D01*
X148235Y83413D01*
X148232Y83407D01*
X148231Y83402D01*
X148230Y83400D01*
X148226Y83387D01*
X148223Y83370D01*
X148222Y83353D01*
X148221Y83338D01*
X148220Y83324D01*
X148219Y83317D01*
Y83166D01*
X148707D01*
Y83314D01*
X148706Y83326D01*
Y83338D01*
X148705Y83349D01*
X148702Y83367D01*
X148701Y83382D01*
X148698Y83394D01*
X148695Y83402D01*
X148694Y83407D01*
X148693Y83409D01*
X148685Y83425D01*
X148675Y83441D01*
X148663Y83455D01*
X148651Y83467D01*
X148639Y83476D01*
X148630Y83484D01*
X148627Y83485D01*
X148624Y83487D01*
X148622Y83489D01*
X148621D01*
X148611Y83495D01*
X148599Y83500D01*
X148575Y83509D01*
X148549Y83514D01*
X148524Y83519D01*
X148513Y83520D01*
X148502Y83521D01*
X148492Y83522D01*
X148484D01*
X148477Y83522D01*
D02*
G37*
%LPD*%
D96*
X29225Y62900D02*
Y75800D01*
Y62900D02*
X35675D01*
Y75800D01*
X29225D02*
X35675D01*
X48308Y6103D02*
X55813D01*
X48308D02*
Y15497D01*
X55813D01*
Y6103D02*
Y15497D01*
X67598Y6385D02*
X75103D01*
X67598D02*
Y15779D01*
X75103D01*
Y6385D02*
Y15779D01*
X175516Y23967D02*
X189686D01*
X175516Y9796D02*
Y23967D01*
Y9796D02*
X189686D01*
Y23967D01*
X194189Y15436D02*
Y18048D01*
X192639D02*
X194189D01*
X192639Y15436D02*
Y18048D01*
Y15436D02*
X194189D01*
X192672Y18669D02*
Y21281D01*
Y18669D02*
X194222D01*
Y21281D01*
X192672D02*
X194222D01*
X316324Y37696D02*
Y42354D01*
X312424D02*
X316324D01*
X312424Y37696D02*
Y42354D01*
Y37696D02*
X316324D01*
X308199Y37772D02*
X312099D01*
X308199D02*
Y42378D01*
X312099D01*
Y37772D02*
Y42378D01*
X14922Y91072D02*
X19528D01*
Y94278D01*
X14922D02*
X19528D01*
X14922Y91072D02*
Y94278D01*
X44846Y79911D02*
X47966D01*
X44846D02*
Y86611D01*
X47966D01*
Y79911D02*
Y86611D01*
X62376Y80095D02*
Y86795D01*
X59256D02*
X62376D01*
X59256Y80095D02*
Y86795D01*
Y80095D02*
X62376D01*
X249290Y79854D02*
Y86554D01*
X246170D02*
X249290D01*
X246170Y79854D02*
Y86554D01*
Y79854D02*
X249290D01*
X263667Y79615D02*
Y86315D01*
X260547D02*
X263667D01*
X260547Y79615D02*
Y86315D01*
Y79615D02*
X263667D01*
X280803Y57772D02*
X283603D01*
X280803Y56072D02*
Y57772D01*
Y56072D02*
X283603D01*
Y57772D01*
X290691Y61867D02*
X297801D01*
Y67367D01*
X290691D02*
X297801D01*
X290691Y61867D02*
Y67367D01*
X163513Y79731D02*
Y86431D01*
X160393D02*
X163513D01*
X160393Y79731D02*
Y86431D01*
Y79731D02*
X163513D01*
X149703D02*
Y86431D01*
X146583D02*
X149703D01*
X146583Y79731D02*
Y86431D01*
Y79731D02*
X149703D01*
D113*
X285928Y126242D02*
X288976D01*
X285928Y127766D02*
X288976D01*
X285928Y126242D02*
Y127766D01*
X288976Y126242D02*
Y127766D01*
X245796Y126242D02*
X248844D01*
X245796Y127766D02*
X248844D01*
X245796Y126242D02*
Y127766D01*
X248844Y126242D02*
Y127766D01*
X225882Y126242D02*
X228930D01*
X225882Y127766D02*
X228930D01*
X225882Y126242D02*
Y127766D01*
X228930Y126242D02*
Y127766D01*
X185852Y126248D02*
X188900D01*
X185852Y127772D02*
X188900D01*
X185852Y126248D02*
Y127772D01*
X188900Y126248D02*
Y127772D01*
X165837Y126299D02*
X168885D01*
X165837Y127823D02*
X168885D01*
X165837Y126299D02*
Y127823D01*
X168885Y126299D02*
Y127823D01*
X145898Y126299D02*
X148946D01*
X145898Y127823D02*
X148946D01*
X145898Y126299D02*
Y127823D01*
X148946Y126299D02*
Y127823D01*
X125755Y126274D02*
X128803D01*
X125755Y127798D02*
X128803D01*
X125755Y126274D02*
Y127798D01*
X128803Y126274D02*
Y127798D01*
X85915Y126242D02*
X88964D01*
X85915Y127766D02*
X88964D01*
X85915Y126242D02*
Y127766D01*
X88964Y126242D02*
Y127766D01*
X186562Y3226D02*
Y6274D01*
X185038Y3226D02*
Y6274D01*
Y3226D02*
X186562D01*
X185038Y6274D02*
X186562D01*
X186861Y8362D02*
X189909D01*
X186861Y6838D02*
X189909D01*
Y8362D01*
X186861Y6838D02*
Y8362D01*
X206951Y16337D02*
X209999D01*
X206951Y14813D02*
X209999D01*
Y16337D01*
X206951Y14813D02*
Y16337D01*
X181109Y42717D02*
X182633D01*
X181109Y39669D02*
X182633D01*
X181109D02*
Y42717D01*
X182633Y39669D02*
Y42717D01*
X179319D02*
X180843D01*
X179319Y39669D02*
X180843D01*
X179319D02*
Y42717D01*
X180843Y39669D02*
Y42717D01*
X188923Y39603D02*
Y42651D01*
X187399Y39603D02*
Y42651D01*
Y39603D02*
X188923D01*
X187399Y42651D02*
X188923D01*
X191463Y39603D02*
Y42651D01*
X189939Y39603D02*
Y42651D01*
Y39603D02*
X191463D01*
X189939Y42651D02*
X191463D01*
X178327Y12980D02*
Y14504D01*
X181375Y12980D02*
Y14504D01*
X178327D02*
X181375D01*
X178327Y12980D02*
X181375D01*
X176188Y7176D02*
X177712D01*
X176188Y10224D02*
X177712D01*
X176188Y7176D02*
Y10224D01*
X177712Y7176D02*
Y10224D01*
X191220Y14625D02*
X192744D01*
X191220Y17673D02*
X192744D01*
X191220Y14625D02*
Y17673D01*
X192744Y14625D02*
Y17673D01*
X184531Y12980D02*
Y14504D01*
X181483Y12980D02*
Y14504D01*
Y12980D02*
X184531D01*
X181483Y14504D02*
X184531D01*
X184979Y16499D02*
X186503D01*
X184979Y13451D02*
X186503D01*
Y16499D01*
X184979Y13451D02*
Y16499D01*
X184978Y19545D02*
X186502D01*
X184978Y16497D02*
X186502D01*
Y19545D01*
X184978Y16497D02*
Y19545D01*
X179238Y20499D02*
X180762D01*
X179238Y17451D02*
X180762D01*
Y20499D01*
X179238Y17451D02*
Y20499D01*
X184446Y27263D02*
Y30311D01*
X182922Y27263D02*
Y30311D01*
Y27263D02*
X184446D01*
X182922Y30311D02*
X184446D01*
X23300Y75300D02*
Y80000D01*
X20950Y75300D02*
Y80000D01*
Y75300D02*
X23300D01*
X20950Y80000D02*
X23300D01*
X124296Y3760D02*
Y5284D01*
X127344Y3760D02*
Y5284D01*
X124296Y3760D02*
X127344D01*
X124296Y5284D02*
X127344D01*
X124296Y6840D02*
X127344D01*
X124296Y5316D02*
X127344D01*
Y6840D01*
X124296Y5316D02*
Y6840D01*
Y8385D02*
X127344D01*
X124296Y6861D02*
X127344D01*
Y8385D01*
X124296Y6861D02*
Y8385D01*
X141372Y11065D02*
X144420D01*
X141372Y12589D02*
X144420D01*
X141372Y11065D02*
Y12589D01*
X144420Y11065D02*
Y12589D01*
X141372Y9555D02*
X144420D01*
X141372Y11079D02*
X144420D01*
X141372Y9555D02*
Y11079D01*
X144420Y9555D02*
Y11079D01*
X141372Y12695D02*
X144420D01*
X141372Y14219D02*
X144420D01*
X141372Y12695D02*
Y14219D01*
X144420Y12695D02*
Y14219D01*
X124296Y11694D02*
X127344D01*
X124296Y10170D02*
X127344D01*
Y11694D01*
X124296Y10170D02*
Y11694D01*
Y10054D02*
X127344D01*
X124296Y8530D02*
X127344D01*
Y10054D01*
X124296Y8530D02*
Y10054D01*
X141372Y15840D02*
X144420D01*
X141372Y17364D02*
X144420D01*
X141372Y15840D02*
Y17364D01*
X144420Y15840D02*
Y17364D01*
X141372Y14240D02*
X144420D01*
X141372Y15764D02*
X144420D01*
X141372Y14240D02*
Y15764D01*
X144420Y14240D02*
Y15764D01*
X124296Y13339D02*
X127344D01*
X124296Y11815D02*
X127344D01*
Y13339D01*
X124296Y11815D02*
Y13339D01*
Y16648D02*
X127344D01*
X124296Y15124D02*
X127344D01*
Y16648D01*
X124296Y15124D02*
Y16648D01*
Y15029D02*
X127344D01*
X124296Y13505D02*
X127344D01*
Y15029D01*
X124296Y13505D02*
Y15029D01*
X141372Y6295D02*
X144420D01*
X141372Y7819D02*
X144420D01*
X141372Y6295D02*
Y7819D01*
X144420Y6295D02*
Y7819D01*
X141372Y4750D02*
X144420D01*
X141372Y6274D02*
X144420D01*
X141372Y4750D02*
Y6274D01*
X144420Y4750D02*
Y6274D01*
X141372Y7965D02*
X144420D01*
X141372Y9489D02*
X144420D01*
X141372Y7965D02*
Y9489D01*
X144420Y7965D02*
Y9489D01*
X130500Y21325D02*
Y23675D01*
X135200Y21325D02*
Y23675D01*
X130500Y21325D02*
X135200D01*
X130500Y23675D02*
X135200D01*
X308650Y35838D02*
Y37362D01*
X311698Y35838D02*
Y37362D01*
X308650Y35838D02*
X311698D01*
X308650Y37362D02*
X311698D01*
X8214Y89036D02*
X9738D01*
X8214Y85988D02*
X9738D01*
X8214D02*
Y89036D01*
X9738Y85988D02*
Y89036D01*
X21050Y66688D02*
X23400D01*
X21050Y61988D02*
X23400D01*
X21050D02*
Y66688D01*
X23400Y61988D02*
Y66688D01*
X18324Y20714D02*
X21372D01*
X18324Y22238D02*
X21372D01*
X18324Y20714D02*
Y22238D01*
X21372Y20714D02*
Y22238D01*
X18324Y24100D02*
X21372D01*
X18324Y22576D02*
X21372D01*
Y24100D01*
X18324Y22576D02*
Y24100D01*
X16176Y85063D02*
Y86587D01*
X19224Y85063D02*
Y86587D01*
X16176Y85063D02*
X19224D01*
X16176Y86587D02*
X19224D01*
X25332Y84424D02*
X26856D01*
X25332Y81376D02*
X26856D01*
X25332D02*
Y84424D01*
X26856Y81376D02*
Y84424D01*
X19788Y90474D02*
X21312D01*
X19788Y87426D02*
X21312D01*
X19788D02*
Y90474D01*
X21312Y87426D02*
Y90474D01*
X38551Y103236D02*
X41599D01*
X38551Y104760D02*
X41599D01*
X38551Y103236D02*
Y104760D01*
X41599Y103236D02*
Y104760D01*
X59018Y44899D02*
X62066D01*
X59018Y46423D02*
X62066D01*
Y44899D02*
Y46423D01*
X59018Y44899D02*
Y46423D01*
Y39510D02*
X62066D01*
X59018Y41034D02*
X62066D01*
Y39510D02*
Y41034D01*
X59018Y39510D02*
Y41034D01*
X81823Y103514D02*
Y105038D01*
X78775Y103514D02*
Y105038D01*
X81823D01*
X78775Y103514D02*
X81823D01*
X62576Y79170D02*
X66676D01*
X62576Y87695D02*
X66676D01*
Y79170D02*
Y87695D01*
X62576Y79170D02*
Y87695D01*
X65861Y71281D02*
Y75981D01*
X63511Y71281D02*
Y75981D01*
Y71281D02*
X65861D01*
X63511Y75981D02*
X65861D01*
X48146Y78986D02*
Y87511D01*
X52246Y78986D02*
Y87511D01*
X48146D02*
X52246D01*
X48146Y78986D02*
X52246D01*
X57066Y69395D02*
Y77920D01*
X52966Y69395D02*
Y77920D01*
Y69395D02*
X57066D01*
X52966Y77920D02*
X57066D01*
X49146Y75995D02*
X51496D01*
X49146Y71295D02*
X51496D01*
X49146D02*
Y75995D01*
X51496Y71295D02*
Y75995D01*
X60896Y32643D02*
Y34993D01*
X65596Y32643D02*
Y34993D01*
X60896Y32643D02*
X65596D01*
X60896Y34993D02*
X65596D01*
X68308Y40242D02*
Y41766D01*
X65260Y40242D02*
Y41766D01*
X68308D01*
X65260Y40242D02*
X68308D01*
X65310Y46388D02*
Y47912D01*
X68358Y46388D02*
Y47912D01*
X65310Y46388D02*
X68358D01*
X65310Y47912D02*
X68358D01*
X65260Y38321D02*
Y39845D01*
X68308Y38321D02*
Y39845D01*
X65260Y38321D02*
X68308D01*
X65260Y39845D02*
X68308D01*
X67576Y77906D02*
X71676D01*
X67576Y69381D02*
X71676D01*
X67576D02*
Y77906D01*
X71676Y69381D02*
Y77906D01*
X260288Y44412D02*
X263336D01*
X260288Y45936D02*
X263336D01*
Y44412D02*
Y45936D01*
X260288Y44412D02*
Y45936D01*
X260288Y39132D02*
X263336D01*
X260288Y40656D02*
X263336D01*
Y39132D02*
Y40656D01*
X260288Y39132D02*
Y40656D01*
X250612Y75274D02*
X252962D01*
X250612Y70574D02*
X252962D01*
X250612D02*
Y75274D01*
X252962Y70574D02*
Y75274D01*
X249652Y78684D02*
Y87209D01*
X253752Y78684D02*
Y87209D01*
X249652D02*
X253752D01*
X249652Y78684D02*
X253752D01*
X258507Y68964D02*
Y77489D01*
X254407Y68964D02*
Y77489D01*
Y68964D02*
X258507D01*
X254407Y77489D02*
X258507D01*
X238328Y104506D02*
X241376D01*
X238328Y106030D02*
X241376D01*
X238328Y104506D02*
Y106030D01*
X241376Y104506D02*
Y106030D01*
X266200Y38571D02*
X269248D01*
X266200Y40095D02*
X269248D01*
X266200Y38571D02*
Y40095D01*
X269248Y38571D02*
Y40095D01*
X281864Y104480D02*
Y106004D01*
X278816Y104480D02*
Y106004D01*
X281864D01*
X278816Y104480D02*
X281864D01*
X266200Y38393D02*
X269248D01*
X266200Y36869D02*
X269248D01*
Y38393D01*
X266200Y36869D02*
Y38393D01*
X266235Y45937D02*
X269283D01*
X266235Y44413D02*
X269283D01*
Y45937D01*
X266235Y44413D02*
Y45937D01*
X263907Y78690D02*
X268007D01*
X263907Y87215D02*
X268007D01*
Y78690D02*
Y87215D01*
X263907Y78690D02*
Y87215D01*
X268648Y77429D02*
X272748D01*
X268648Y68904D02*
X272748D01*
X268648D02*
Y77429D01*
X272748Y68904D02*
Y77429D01*
X267263Y70544D02*
Y75244D01*
X264913Y70544D02*
Y75244D01*
Y70544D02*
X267263D01*
X264913Y75244D02*
X267263D01*
X262089Y32058D02*
Y34408D01*
X266789Y32058D02*
Y34408D01*
X262089Y32058D02*
X266789D01*
X262089Y34408D02*
X266789D01*
X20000Y104775D02*
X24100D01*
X20000Y113300D02*
X24100D01*
Y104775D02*
Y113300D01*
X20000Y104775D02*
Y113300D01*
X6452Y84160D02*
X9500D01*
X6452Y85684D02*
X9500D01*
X6452Y84160D02*
Y85684D01*
X9500Y84160D02*
Y85684D01*
X190516Y8997D02*
X193564D01*
X190516Y7473D02*
X193564D01*
Y8997D01*
X190516Y7473D02*
Y8997D01*
X190501Y9134D02*
X193549D01*
X190501Y10658D02*
X193549D01*
X190501Y9134D02*
Y10658D01*
X193549Y9134D02*
Y10658D01*
X192278Y2026D02*
Y5074D01*
X193802Y2026D02*
Y5074D01*
X192278D02*
X193802D01*
X192278Y2026D02*
X193802D01*
X15450Y98175D02*
X19550D01*
X15450Y106700D02*
X19550D01*
Y98175D02*
Y106700D01*
X15450Y98175D02*
Y106700D01*
X19950Y91600D02*
X24050D01*
X19950Y100125D02*
X24050D01*
Y91600D02*
Y100125D01*
X19950Y91600D02*
Y100125D01*
X68834Y126172D02*
Y127696D01*
X65786Y126172D02*
Y127696D01*
X68834D01*
X65786Y126172D02*
X68834D01*
X49022Y126242D02*
Y127766D01*
X45974Y126242D02*
Y127766D01*
X49022D01*
X45974Y126242D02*
X49022D01*
X28956Y126274D02*
Y127798D01*
X25908Y126274D02*
Y127798D01*
X28956D01*
X25908Y126274D02*
X28956D01*
X143904Y124480D02*
X145428D01*
X143904Y127528D02*
X145428D01*
Y124480D02*
Y127528D01*
X143904Y124480D02*
Y127528D01*
X123876Y124480D02*
X125400D01*
X123876Y127528D02*
X125400D01*
Y124480D02*
Y127528D01*
X123876Y124480D02*
Y127528D01*
X243904Y124480D02*
X245428D01*
X243904Y127528D02*
X245428D01*
Y124480D02*
Y127528D01*
X243904Y124480D02*
Y127528D01*
X163904Y124480D02*
X165428D01*
X163904Y127528D02*
X165428D01*
Y124480D02*
Y127528D01*
X163904Y124480D02*
Y127528D01*
X183947Y124480D02*
X185471D01*
X183947Y127528D02*
X185471D01*
Y124480D02*
Y127528D01*
X183947Y124480D02*
Y127528D01*
X223901Y124480D02*
X225425D01*
X223901Y127528D02*
X225425D01*
Y124480D02*
Y127528D01*
X223901Y124480D02*
Y127528D01*
X283870Y124480D02*
X285394D01*
X283870Y127528D02*
X285394D01*
Y124480D02*
Y127528D01*
X283870Y124480D02*
Y127528D01*
X263904Y124480D02*
X265428D01*
X263904Y127528D02*
X265428D01*
Y124480D02*
Y127528D01*
X263904Y124480D02*
Y127528D01*
X23876Y124480D02*
X25400D01*
X23876Y127528D02*
X25400D01*
Y124480D02*
Y127528D01*
X23876Y124480D02*
Y127528D01*
X43904Y124480D02*
X45428D01*
X43904Y127528D02*
X45428D01*
Y124480D02*
Y127528D01*
X43904Y124480D02*
Y127528D01*
X83904Y124480D02*
X85428D01*
X83904Y127528D02*
X85428D01*
Y124480D02*
Y127528D01*
X83904Y124480D02*
Y127528D01*
X63904Y124480D02*
X65428D01*
X63904Y127528D02*
X65428D01*
Y124480D02*
Y127528D01*
X63904Y124480D02*
Y127528D01*
X3592Y158630D02*
X6640D01*
X3592Y160154D02*
X6640D01*
X3592Y158630D02*
Y160154D01*
X6640Y158630D02*
Y160154D01*
X268859Y126242D02*
Y127766D01*
X265811Y126242D02*
Y127766D01*
X268859D01*
X265811Y126242D02*
X268859D01*
X312623Y42759D02*
Y44283D01*
X309575Y42759D02*
Y44283D01*
X312623D01*
X309575Y42759D02*
X312623D01*
X160975Y32175D02*
Y34525D01*
X165675Y32175D02*
Y34525D01*
X160975Y32175D02*
X165675D01*
X160975Y34525D02*
X165675D01*
X168233Y38411D02*
Y39935D01*
X165185Y38411D02*
Y39935D01*
X168233D01*
X165185Y38411D02*
X168233D01*
X165185Y36506D02*
Y38030D01*
X168233Y36506D02*
Y38030D01*
X165185Y36506D02*
X168233D01*
X165185Y38030D02*
X168233D01*
X165338Y44380D02*
Y45904D01*
X168386Y44380D02*
Y45904D01*
X165338Y44380D02*
X168386D01*
X165338Y45904D02*
X168386D01*
X201225Y19800D02*
X203575D01*
X201225Y24500D02*
X203575D01*
Y19800D02*
Y24500D01*
X201225Y19800D02*
Y24500D01*
X206951Y18112D02*
X209999D01*
X206951Y16588D02*
X209999D01*
Y18112D01*
X206951Y16588D02*
Y18112D01*
X85625Y6800D02*
Y15200D01*
X92225Y6800D02*
Y15200D01*
X85625D02*
X92225D01*
X85625Y6800D02*
X92225D01*
X181703Y103495D02*
Y105019D01*
X178655Y103495D02*
Y105019D01*
X181703D01*
X178655Y103495D02*
X181703D01*
X32233Y45581D02*
X33757D01*
X32233Y48629D02*
X33757D01*
Y45581D02*
Y48629D01*
X32233Y45581D02*
Y48629D01*
X34137Y56151D02*
Y59199D01*
X32613Y56151D02*
Y59199D01*
Y56151D02*
X34137D01*
X32613Y59199D02*
X34137D01*
X32127Y56151D02*
Y59199D01*
X30603Y56151D02*
Y59199D01*
Y56151D02*
X32127D01*
X30603Y59199D02*
X32127D01*
X281334Y39602D02*
X282858D01*
X281334Y36554D02*
X282858D01*
X281334D02*
Y39602D01*
X282858Y36554D02*
Y39602D01*
X277283Y36554D02*
Y39602D01*
X275758Y36554D02*
Y39602D01*
Y36554D02*
X277283D01*
X275758Y39602D02*
X277283D01*
X278794D02*
X280318D01*
X278794Y36554D02*
X280318D01*
X278794D02*
Y39602D01*
X280318Y36554D02*
Y39602D01*
X283874D02*
X285398D01*
X283874Y36554D02*
X285398D01*
X283874D02*
Y39602D01*
X285398Y36554D02*
Y39602D01*
X294626Y13663D02*
Y15187D01*
X297674Y13663D02*
Y15187D01*
X294626Y13663D02*
X297674D01*
X294626Y15187D02*
X297674D01*
Y23427D02*
Y24951D01*
X294626Y23427D02*
Y24951D01*
X297674D01*
X294626Y23427D02*
X297674D01*
X294626Y21490D02*
Y23014D01*
X297674Y21490D02*
Y23014D01*
X294626Y21490D02*
X297674D01*
X294626Y23014D02*
X297674D01*
X297674Y17263D02*
Y18787D01*
X294626Y17263D02*
Y18787D01*
X297674D01*
X294626Y17263D02*
X297674D01*
X297685Y29292D02*
Y30816D01*
X294637Y29292D02*
Y30816D01*
X297685D01*
X294637Y29292D02*
X297685D01*
X294637Y25663D02*
Y27187D01*
X297685Y25663D02*
Y27187D01*
X294637Y25663D02*
X297685D01*
X294637Y27187D02*
X297685D01*
X297392Y67745D02*
X300440D01*
X297392Y69269D02*
X300440D01*
X297392Y67745D02*
Y69269D01*
X300440Y67745D02*
Y69269D01*
X301040Y62675D02*
Y64199D01*
X297992Y62675D02*
Y64199D01*
X301040D01*
X297992Y62675D02*
X301040D01*
X289700Y66220D02*
Y67744D01*
X286652Y66220D02*
Y67744D01*
X289700D01*
X286652Y66220D02*
X289700D01*
Y64490D02*
Y66014D01*
X286652Y64490D02*
Y66014D01*
X289700D01*
X286652Y64490D02*
X289700D01*
X286652Y61950D02*
X289700D01*
X286652Y63474D02*
X289700D01*
X286652Y61950D02*
Y63474D01*
X289700Y61950D02*
Y63474D01*
X286652Y58605D02*
X289700D01*
X286652Y60129D02*
X289700D01*
X286652Y58605D02*
Y60129D01*
X289700Y58605D02*
Y60129D01*
X282872Y71249D02*
X285920D01*
X282872Y69725D02*
X285920D01*
Y71249D01*
X282872Y69725D02*
Y71249D01*
X172953Y68891D02*
Y77416D01*
X168853Y68891D02*
Y77416D01*
Y68891D02*
X172953D01*
X168853Y77416D02*
X172953D01*
X163803Y78806D02*
Y87331D01*
X167903Y78806D02*
Y87331D01*
X163803D02*
X167903D01*
X163803Y78806D02*
X167903D01*
X154853Y77416D02*
X158953D01*
X154853Y68891D02*
X158953D01*
X154853D02*
Y77416D01*
X158953Y68891D02*
Y77416D01*
X138251Y103495D02*
X141299D01*
X138251Y105019D02*
X141299D01*
X138251Y103495D02*
Y105019D01*
X141299Y103495D02*
Y105019D01*
X149923Y78806D02*
Y87331D01*
X154023Y78806D02*
Y87331D01*
X149923D02*
X154023D01*
X149923Y78806D02*
X154023D01*
X165098Y75491D02*
X167448D01*
X165098Y70791D02*
X167448D01*
X165098D02*
Y75491D01*
X167448Y70791D02*
Y75491D01*
X159289Y44728D02*
Y46252D01*
X162337Y44728D02*
Y46252D01*
X159289D02*
X162337D01*
X159289Y44728D02*
X162337D01*
X159289Y39356D02*
Y40880D01*
X162337Y39356D02*
Y40880D01*
X159289D02*
X162337D01*
X159289Y39356D02*
X162337D01*
X151018Y75491D02*
X153368D01*
X151018Y70791D02*
X153368D01*
X151018D02*
Y75491D01*
X153368Y70791D02*
Y75491D01*
X96850Y16475D02*
Y24875D01*
X103450Y16475D02*
Y24875D01*
X96850D02*
X103450D01*
X96850Y16475D02*
X103450D01*
X312850Y42759D02*
X315898D01*
X312850Y44283D02*
X315898D01*
X312850Y42759D02*
Y44283D01*
X315898Y42759D02*
Y44283D01*
X312850Y35838D02*
Y37362D01*
X315898Y35838D02*
Y37362D01*
X312850Y35838D02*
X315898D01*
X312850Y37362D02*
X315898D01*
X288427Y126654D02*
Y127354D01*
X288077D01*
X287960Y127237D01*
Y127004D01*
X288077Y126887D01*
X288427D01*
X288194D02*
X287960Y126654D01*
X287727D02*
X287494D01*
X287610D01*
Y127354D01*
X287727Y127237D01*
X287144Y126654D02*
X286911D01*
X287027D01*
Y127354D01*
X287144Y127237D01*
X286561Y127354D02*
X286094D01*
Y127237D01*
X286561Y126770D01*
Y126654D01*
X248295D02*
Y127354D01*
X247945D01*
X247828Y127237D01*
Y127004D01*
X247945Y126887D01*
X248295D01*
X248062D02*
X247828Y126654D01*
X247595D02*
X247362D01*
X247478D01*
Y127354D01*
X247595Y127237D01*
X247012Y126654D02*
X246779D01*
X246895D01*
Y127354D01*
X247012Y127237D01*
X246429D02*
X246312Y127354D01*
X246079D01*
X245962Y127237D01*
Y126770D01*
X246079Y126654D01*
X246312D01*
X246429Y126770D01*
Y127237D01*
X228381Y126654D02*
Y127354D01*
X228031D01*
X227915Y127237D01*
Y127004D01*
X228031Y126887D01*
X228381D01*
X228148D02*
X227915Y126654D01*
X227681D02*
X227448D01*
X227565D01*
Y127354D01*
X227681Y127237D01*
X227098D02*
X226982Y127354D01*
X226748D01*
X226632Y127237D01*
Y126770D01*
X226748Y126654D01*
X226982D01*
X227098Y126770D01*
Y127237D01*
X226398Y126770D02*
X226282Y126654D01*
X226049D01*
X225932Y126770D01*
Y127237D01*
X226049Y127354D01*
X226282D01*
X226398Y127237D01*
Y127120D01*
X226282Y127004D01*
X225932D01*
X188351Y126660D02*
Y127360D01*
X188001D01*
X187884Y127243D01*
Y127010D01*
X188001Y126893D01*
X188351D01*
X188118D02*
X187884Y126660D01*
X187651D02*
X187418D01*
X187534D01*
Y127360D01*
X187651Y127243D01*
X187068D02*
X186951Y127360D01*
X186718D01*
X186601Y127243D01*
Y126777D01*
X186718Y126660D01*
X186951D01*
X187068Y126777D01*
Y127243D01*
X185902Y126660D02*
X186368D01*
X185902Y127127D01*
Y127243D01*
X186018Y127360D01*
X186251D01*
X186368Y127243D01*
X168336Y126711D02*
Y127411D01*
X167986D01*
X167869Y127294D01*
Y127061D01*
X167986Y126944D01*
X168336D01*
X168102D02*
X167869Y126711D01*
X167636D02*
X167403D01*
X167519D01*
Y127411D01*
X167636Y127294D01*
X167053D02*
X166936Y127411D01*
X166703D01*
X166586Y127294D01*
Y126828D01*
X166703Y126711D01*
X166936D01*
X167053Y126828D01*
Y127294D01*
X166353D02*
X166236Y127411D01*
X166003D01*
X165886Y127294D01*
Y127178D01*
X166003Y127061D01*
X166120D01*
X166003D01*
X165886Y126944D01*
Y126828D01*
X166003Y126711D01*
X166236D01*
X166353Y126828D01*
X148397Y126711D02*
Y127411D01*
X148047D01*
X147930Y127294D01*
Y127061D01*
X148047Y126944D01*
X148397D01*
X148163D02*
X147930Y126711D01*
X147697Y126828D02*
X147580Y126711D01*
X147347D01*
X147230Y126828D01*
Y127294D01*
X147347Y127411D01*
X147580D01*
X147697Y127294D01*
Y127178D01*
X147580Y127061D01*
X147230D01*
X146997Y127294D02*
X146880Y127411D01*
X146647D01*
X146531Y127294D01*
Y127178D01*
X146647Y127061D01*
X146531Y126944D01*
Y126828D01*
X146647Y126711D01*
X146880D01*
X146997Y126828D01*
Y126944D01*
X146880Y127061D01*
X146997Y127178D01*
Y127294D01*
X146880Y127061D02*
X146647D01*
X128254Y126686D02*
Y127385D01*
X127905D01*
X127788Y127269D01*
Y127035D01*
X127905Y126919D01*
X128254D01*
X128021D02*
X127788Y126686D01*
X127555Y126802D02*
X127438Y126686D01*
X127205D01*
X127088Y126802D01*
Y127269D01*
X127205Y127385D01*
X127438D01*
X127555Y127269D01*
Y127152D01*
X127438Y127035D01*
X127088D01*
X126855Y126802D02*
X126738Y126686D01*
X126505D01*
X126388Y126802D01*
Y127269D01*
X126505Y127385D01*
X126738D01*
X126855Y127269D01*
Y127152D01*
X126738Y127035D01*
X126388D01*
X88414Y126654D02*
Y127354D01*
X88065D01*
X87948Y127237D01*
Y127004D01*
X88065Y126887D01*
X88414D01*
X88181D02*
X87948Y126654D01*
X87715Y126770D02*
X87598Y126654D01*
X87365D01*
X87248Y126770D01*
Y127237D01*
X87365Y127354D01*
X87598D01*
X87715Y127237D01*
Y127120D01*
X87598Y127004D01*
X87248D01*
X87015Y126654D02*
X86782D01*
X86898D01*
Y127354D01*
X87015Y127237D01*
X186150Y5725D02*
X185450D01*
Y5375D01*
X185567Y5258D01*
X185800D01*
X185917Y5375D01*
Y5725D01*
Y5492D02*
X186150Y5258D01*
X185450Y4559D02*
Y5025D01*
X185800D01*
X185683Y4792D01*
Y4675D01*
X185800Y4559D01*
X186033D01*
X186150Y4675D01*
Y4909D01*
X186033Y5025D01*
X185567Y4325D02*
X185450Y4209D01*
Y3976D01*
X185567Y3859D01*
X186033D01*
X186150Y3976D01*
Y4209D01*
X186033Y4325D01*
X185567D01*
X187410Y7950D02*
Y7250D01*
X187760D01*
X187877Y7367D01*
Y7600D01*
X187760Y7717D01*
X187410D01*
X187644D02*
X187877Y7950D01*
X188577Y7250D02*
X188110D01*
Y7600D01*
X188343Y7483D01*
X188460D01*
X188577Y7600D01*
Y7833D01*
X188460Y7950D01*
X188227D01*
X188110Y7833D01*
X189277Y7950D02*
X188810D01*
X189277Y7483D01*
Y7367D01*
X189160Y7250D01*
X188927D01*
X188810Y7367D01*
X207500Y15925D02*
Y15225D01*
X207850D01*
X207967Y15341D01*
Y15575D01*
X207850Y15691D01*
X207500D01*
X207733D02*
X207967Y15925D01*
X208200D02*
X208433D01*
X208316D01*
Y15225D01*
X208200Y15341D01*
X209133Y15925D02*
Y15225D01*
X208783Y15575D01*
X209250D01*
X182221Y42168D02*
X181521D01*
Y41819D01*
X181638Y41702D01*
X181871D01*
X181988Y41819D01*
Y42168D01*
Y41935D02*
X182221Y41702D01*
Y41002D02*
Y41469D01*
X181754Y41002D01*
X181638D01*
X181521Y41119D01*
Y41352D01*
X181638Y41469D01*
X182221Y40302D02*
Y40769D01*
X181754Y40302D01*
X181638D01*
X181521Y40419D01*
Y40652D01*
X181638Y40769D01*
X180431Y42168D02*
X179731D01*
Y41819D01*
X179848Y41702D01*
X180081D01*
X180198Y41819D01*
Y42168D01*
Y41935D02*
X180431Y41702D01*
Y41002D02*
Y41469D01*
X179965Y41002D01*
X179848D01*
X179731Y41119D01*
Y41352D01*
X179848Y41469D01*
X180315Y40769D02*
X180431Y40652D01*
Y40419D01*
X180315Y40302D01*
X179848D01*
X179731Y40419D01*
Y40652D01*
X179848Y40769D01*
X179965D01*
X180081Y40652D01*
Y40302D01*
X188511Y42102D02*
X187811D01*
Y41752D01*
X187928Y41636D01*
X188161D01*
X188278Y41752D01*
Y42102D01*
Y41869D02*
X188511Y41636D01*
X187928Y41402D02*
X187811Y41286D01*
Y41052D01*
X187928Y40936D01*
X188044D01*
X188161Y41052D01*
Y41169D01*
Y41052D01*
X188278Y40936D01*
X188394D01*
X188511Y41052D01*
Y41286D01*
X188394Y41402D01*
X187928Y40703D02*
X187811Y40586D01*
Y40353D01*
X187928Y40236D01*
X188394D01*
X188511Y40353D01*
Y40586D01*
X188394Y40703D01*
X187928D01*
X191051Y42102D02*
X190351D01*
Y41752D01*
X190468Y41636D01*
X190701D01*
X190818Y41752D01*
Y42102D01*
Y41869D02*
X191051Y41636D01*
Y40936D02*
Y41402D01*
X190585Y40936D01*
X190468D01*
X190351Y41052D01*
Y41286D01*
X190468Y41402D01*
Y40703D02*
X190351Y40586D01*
Y40353D01*
X190468Y40236D01*
X190585D01*
X190701Y40353D01*
Y40469D01*
Y40353D01*
X190818Y40236D01*
X190934D01*
X191051Y40353D01*
Y40586D01*
X190934Y40703D01*
X179343Y13975D02*
X179226Y14092D01*
X178993D01*
X178876Y13975D01*
Y13508D01*
X178993Y13392D01*
X179226D01*
X179343Y13508D01*
X179576Y13392D02*
X179809D01*
X179693D01*
Y14092D01*
X179576Y13975D01*
X180626Y14092D02*
X180159D01*
Y13742D01*
X180392Y13858D01*
X180509D01*
X180626Y13742D01*
Y13508D01*
X180509Y13392D01*
X180276D01*
X180159Y13508D01*
X176717Y8192D02*
X176600Y8075D01*
Y7842D01*
X176717Y7725D01*
X177184D01*
X177300Y7842D01*
Y8075D01*
X177184Y8192D01*
X177300Y8425D02*
Y8658D01*
Y8541D01*
X176600D01*
X176717Y8425D01*
Y9008D02*
X176600Y9125D01*
Y9358D01*
X176717Y9474D01*
X176834D01*
X176950Y9358D01*
X177067Y9474D01*
X177184D01*
X177300Y9358D01*
Y9125D01*
X177184Y9008D01*
X177067D01*
X176950Y9125D01*
X176834Y9008D01*
X176717D01*
X176950Y9125D02*
Y9358D01*
X191749Y15641D02*
X191633Y15524D01*
Y15291D01*
X191749Y15174D01*
X192216D01*
X192332Y15291D01*
Y15524D01*
X192216Y15641D01*
X192332Y16224D02*
X191633D01*
X191982Y15874D01*
Y16340D01*
X191749Y16574D02*
X191633Y16690D01*
Y16923D01*
X191749Y17040D01*
X191866D01*
X191982Y16923D01*
X192099Y17040D01*
X192216D01*
X192332Y16923D01*
Y16690D01*
X192216Y16574D01*
X192099D01*
X191982Y16690D01*
X191866Y16574D01*
X191749D01*
X191982Y16690D02*
Y16923D01*
X183516Y13509D02*
X183632Y13392D01*
X183866D01*
X183982Y13509D01*
Y13975D01*
X183866Y14092D01*
X183632D01*
X183516Y13975D01*
X183282Y14092D02*
X183049D01*
X183166D01*
Y13392D01*
X183282Y13509D01*
X182699D02*
X182583Y13392D01*
X182349D01*
X182233Y13509D01*
Y13625D01*
X182349Y13742D01*
X182466D01*
X182349D01*
X182233Y13859D01*
Y13975D01*
X182349Y14092D01*
X182583D01*
X182699Y13975D01*
X185974Y15484D02*
X186090Y15600D01*
Y15833D01*
X185974Y15950D01*
X185507D01*
X185391Y15833D01*
Y15600D01*
X185507Y15484D01*
X185391Y15250D02*
Y15017D01*
Y15134D01*
X186090D01*
X185974Y15250D01*
X186090Y14667D02*
Y14201D01*
X185974D01*
X185507Y14667D01*
X185391D01*
X185974Y18529D02*
X186090Y18646D01*
Y18879D01*
X185974Y18996D01*
X185507D01*
X185390Y18879D01*
Y18646D01*
X185507Y18529D01*
X185390Y18296D02*
Y18063D01*
Y18179D01*
X186090D01*
X185974Y18296D01*
X185390Y17363D02*
X186090D01*
X185740Y17713D01*
Y17246D01*
X180233Y19484D02*
X180350Y19600D01*
Y19833D01*
X180233Y19950D01*
X179767D01*
X179650Y19833D01*
Y19600D01*
X179767Y19484D01*
X179650Y19250D02*
Y19017D01*
Y19134D01*
X180350D01*
X180233Y19250D01*
X179650Y18201D02*
Y18667D01*
X180116Y18201D01*
X180233D01*
X180350Y18317D01*
Y18551D01*
X180233Y18667D01*
X184034Y29762D02*
X183334D01*
Y29412D01*
X183451Y29296D01*
X183684D01*
X183801Y29412D01*
Y29762D01*
Y29529D02*
X184034Y29296D01*
X183334Y28596D02*
Y29062D01*
X183684D01*
X183568Y28829D01*
Y28713D01*
X183684Y28596D01*
X183917D01*
X184034Y28713D01*
Y28946D01*
X183917Y29062D01*
Y28363D02*
X184034Y28246D01*
Y28013D01*
X183917Y27896D01*
X183451D01*
X183334Y28013D01*
Y28246D01*
X183451Y28363D01*
X183568D01*
X183684Y28246D01*
Y27896D01*
X21867Y78108D02*
X21750Y78225D01*
Y78458D01*
X21867Y78575D01*
X22333D01*
X22450Y78458D01*
Y78225D01*
X22333Y78108D01*
X21867Y77875D02*
X21750Y77759D01*
Y77525D01*
X21867Y77409D01*
X21983D01*
X22100Y77525D01*
Y77642D01*
Y77525D01*
X22217Y77409D01*
X22333D01*
X22450Y77525D01*
Y77759D01*
X22333Y77875D01*
X22450Y76709D02*
Y77175D01*
X21983Y76709D01*
X21867D01*
X21750Y76826D01*
Y77059D01*
X21867Y77175D01*
X124845Y4872D02*
Y4172D01*
X125195D01*
X125312Y4289D01*
Y4522D01*
X125195Y4638D01*
X124845D01*
X125079D02*
X125312Y4872D01*
X125545Y4289D02*
X125662Y4172D01*
X125895D01*
X126012Y4289D01*
Y4405D01*
X125895Y4522D01*
X125778D01*
X125895D01*
X126012Y4638D01*
Y4755D01*
X125895Y4872D01*
X125662D01*
X125545Y4755D01*
X126245Y4289D02*
X126362Y4172D01*
X126595D01*
X126711Y4289D01*
Y4405D01*
X126595Y4522D01*
X126478D01*
X126595D01*
X126711Y4638D01*
Y4755D01*
X126595Y4872D01*
X126362D01*
X126245Y4755D01*
X124845Y6428D02*
Y5728D01*
X125195D01*
X125312Y5845D01*
Y6078D01*
X125195Y6194D01*
X124845D01*
X125079D02*
X125312Y6428D01*
X125545Y5845D02*
X125662Y5728D01*
X125895D01*
X126012Y5845D01*
Y5961D01*
X125895Y6078D01*
X125778D01*
X125895D01*
X126012Y6194D01*
Y6311D01*
X125895Y6428D01*
X125662D01*
X125545Y6311D01*
X126595Y6428D02*
Y5728D01*
X126245Y6078D01*
X126711D01*
X124845Y7973D02*
Y7273D01*
X125195D01*
X125312Y7390D01*
Y7623D01*
X125195Y7739D01*
X124845D01*
X125079D02*
X125312Y7973D01*
X125545Y7390D02*
X125662Y7273D01*
X125895D01*
X126012Y7390D01*
Y7506D01*
X125895Y7623D01*
X125778D01*
X125895D01*
X126012Y7739D01*
Y7856D01*
X125895Y7973D01*
X125662D01*
X125545Y7856D01*
X126711Y7273D02*
X126245D01*
Y7623D01*
X126478Y7506D01*
X126595D01*
X126711Y7623D01*
Y7856D01*
X126595Y7973D01*
X126362D01*
X126245Y7856D01*
X143871Y11477D02*
Y12177D01*
X143522D01*
X143405Y12060D01*
Y11827D01*
X143522Y11710D01*
X143871D01*
X143638D02*
X143405Y11477D01*
X143172D02*
X142938D01*
X143055D01*
Y12177D01*
X143172Y12060D01*
X142588Y11594D02*
X142472Y11477D01*
X142239D01*
X142122Y11594D01*
Y12060D01*
X142239Y12177D01*
X142472D01*
X142588Y12060D01*
Y11944D01*
X142472Y11827D01*
X142122D01*
X143871Y9967D02*
Y10667D01*
X143522D01*
X143405Y10550D01*
Y10317D01*
X143522Y10200D01*
X143871D01*
X143638D02*
X143405Y9967D01*
X143172D02*
X142938D01*
X143055D01*
Y10667D01*
X143172Y10550D01*
X142588D02*
X142472Y10667D01*
X142239D01*
X142122Y10550D01*
Y10434D01*
X142239Y10317D01*
X142122Y10200D01*
Y10084D01*
X142239Y9967D01*
X142472D01*
X142588Y10084D01*
Y10200D01*
X142472Y10317D01*
X142588Y10434D01*
Y10550D01*
X142472Y10317D02*
X142239D01*
X143871Y13107D02*
Y13807D01*
X143522D01*
X143405Y13690D01*
Y13457D01*
X143522Y13340D01*
X143871D01*
X143638D02*
X143405Y13107D01*
X142705D02*
X143172D01*
X142705Y13574D01*
Y13690D01*
X142822Y13807D01*
X143055D01*
X143172Y13690D01*
X142472D02*
X142355Y13807D01*
X142122D01*
X142005Y13690D01*
Y13224D01*
X142122Y13107D01*
X142355D01*
X142472Y13224D01*
Y13690D01*
X124845Y11282D02*
Y10582D01*
X125195D01*
X125312Y10699D01*
Y10932D01*
X125195Y11049D01*
X124845D01*
X125079D02*
X125312Y11282D01*
X125895D02*
Y10582D01*
X125545Y10932D01*
X126012D01*
X126711Y11282D02*
X126245D01*
X126711Y10815D01*
Y10699D01*
X126595Y10582D01*
X126362D01*
X126245Y10699D01*
X124845Y9642D02*
Y8943D01*
X125195D01*
X125312Y9059D01*
Y9292D01*
X125195Y9409D01*
X124845D01*
X125079D02*
X125312Y9642D01*
X125545Y9059D02*
X125662Y8943D01*
X125895D01*
X126012Y9059D01*
Y9176D01*
X125895Y9292D01*
X125778D01*
X125895D01*
X126012Y9409D01*
Y9526D01*
X125895Y9642D01*
X125662D01*
X125545Y9526D01*
X126245Y8943D02*
X126711D01*
Y9059D01*
X126245Y9526D01*
Y9642D01*
X143871Y16252D02*
Y16952D01*
X143522D01*
X143405Y16835D01*
Y16602D01*
X143522Y16485D01*
X143871D01*
X143638D02*
X143405Y16252D01*
X143172Y16835D02*
X143055Y16952D01*
X142822D01*
X142705Y16835D01*
Y16719D01*
X142822Y16602D01*
X142938D01*
X142822D01*
X142705Y16485D01*
Y16369D01*
X142822Y16252D01*
X143055D01*
X143172Y16369D01*
X142472Y16252D02*
X142239D01*
X142355D01*
Y16952D01*
X142472Y16835D01*
X143871Y14652D02*
Y15352D01*
X143522D01*
X143405Y15235D01*
Y15002D01*
X143522Y14885D01*
X143871D01*
X143638D02*
X143405Y14652D01*
X142705D02*
X143172D01*
X142705Y15118D01*
Y15235D01*
X142822Y15352D01*
X143055D01*
X143172Y15235D01*
X142472Y14652D02*
X142239D01*
X142355D01*
Y15352D01*
X142472Y15235D01*
X124845Y12927D02*
Y12227D01*
X125195D01*
X125312Y12344D01*
Y12577D01*
X125195Y12694D01*
X124845D01*
X125079D02*
X125312Y12927D01*
X125895D02*
Y12227D01*
X125545Y12577D01*
X126012D01*
X126245Y12344D02*
X126362Y12227D01*
X126595D01*
X126711Y12344D01*
Y12460D01*
X126595Y12577D01*
X126478D01*
X126595D01*
X126711Y12694D01*
Y12810D01*
X126595Y12927D01*
X126362D01*
X126245Y12810D01*
X124845Y16236D02*
Y15537D01*
X125195D01*
X125312Y15653D01*
Y15886D01*
X125195Y16003D01*
X124845D01*
X125079D02*
X125312Y16236D01*
X125895D02*
Y15537D01*
X125545Y15886D01*
X126012D01*
X126711Y15537D02*
X126245D01*
Y15886D01*
X126478Y15770D01*
X126595D01*
X126711Y15886D01*
Y16120D01*
X126595Y16236D01*
X126362D01*
X126245Y16120D01*
X124845Y14617D02*
Y13917D01*
X125195D01*
X125312Y14034D01*
Y14267D01*
X125195Y14384D01*
X124845D01*
X125079D02*
X125312Y14617D01*
X125895D02*
Y13917D01*
X125545Y14267D01*
X126012D01*
X126595Y14617D02*
Y13917D01*
X126245Y14267D01*
X126711D01*
X143871Y6707D02*
Y7407D01*
X143522D01*
X143405Y7290D01*
Y7057D01*
X143522Y6940D01*
X143871D01*
X143638D02*
X143405Y6707D01*
X143172D02*
X142938D01*
X143055D01*
Y7407D01*
X143172Y7290D01*
X142122Y7407D02*
X142355Y7290D01*
X142588Y7057D01*
Y6824D01*
X142472Y6707D01*
X142239D01*
X142122Y6824D01*
Y6940D01*
X142239Y7057D01*
X142588D01*
X143871Y5162D02*
Y5862D01*
X143522D01*
X143405Y5745D01*
Y5512D01*
X143522Y5395D01*
X143871D01*
X143638D02*
X143405Y5162D01*
X143172D02*
X142938D01*
X143055D01*
Y5862D01*
X143172Y5745D01*
X142122Y5862D02*
X142588D01*
Y5512D01*
X142355Y5629D01*
X142239D01*
X142122Y5512D01*
Y5279D01*
X142239Y5162D01*
X142472D01*
X142588Y5279D01*
X143871Y8377D02*
Y9077D01*
X143522D01*
X143405Y8960D01*
Y8727D01*
X143522Y8610D01*
X143871D01*
X143638D02*
X143405Y8377D01*
X143172D02*
X142938D01*
X143055D01*
Y9077D01*
X143172Y8960D01*
X142588Y9077D02*
X142122D01*
Y8960D01*
X142588Y8493D01*
Y8377D01*
X132392Y22242D02*
X132275Y22125D01*
X132042D01*
X131925Y22242D01*
Y22708D01*
X132042Y22825D01*
X132275D01*
X132392Y22708D01*
X132625Y22125D02*
X133091D01*
Y22242D01*
X132625Y22708D01*
Y22825D01*
X309199Y36950D02*
Y36250D01*
X309549D01*
X309665Y36367D01*
Y36600D01*
X309549Y36717D01*
X309199D01*
X309432D02*
X309665Y36950D01*
X310248D02*
Y36250D01*
X309899Y36600D01*
X310365D01*
X310598Y36367D02*
X310715Y36250D01*
X310948D01*
X311065Y36367D01*
Y36483D01*
X310948Y36600D01*
X311065Y36717D01*
Y36833D01*
X310948Y36950D01*
X310715D01*
X310598Y36833D01*
Y36717D01*
X310715Y36600D01*
X310598Y36483D01*
Y36367D01*
X310715Y36600D02*
X310948D01*
X9326Y88487D02*
X8626D01*
Y88137D01*
X8742Y88021D01*
X8976D01*
X9092Y88137D01*
Y88487D01*
Y88254D02*
X9326Y88021D01*
X8626Y87321D02*
X8742Y87554D01*
X8976Y87788D01*
X9209D01*
X9326Y87671D01*
Y87438D01*
X9209Y87321D01*
X9092D01*
X8976Y87438D01*
Y87788D01*
X8626Y86621D02*
X8742Y86855D01*
X8976Y87088D01*
X9209D01*
X9326Y86971D01*
Y86738D01*
X9209Y86621D01*
X9092D01*
X8976Y86738D01*
Y87088D01*
X21967Y64797D02*
X21850Y64914D01*
Y65147D01*
X21967Y65263D01*
X22433D01*
X22550Y65147D01*
Y64914D01*
X22433Y64797D01*
X21967Y64564D02*
X21850Y64447D01*
Y64214D01*
X21967Y64097D01*
X22083D01*
X22200Y64214D01*
Y64330D01*
Y64214D01*
X22317Y64097D01*
X22433D01*
X22550Y64214D01*
Y64447D01*
X22433Y64564D01*
X21967Y63864D02*
X21850Y63747D01*
Y63514D01*
X21967Y63397D01*
X22433D01*
X22550Y63514D01*
Y63747D01*
X22433Y63864D01*
X21967D01*
X20823Y21126D02*
Y21825D01*
X20473D01*
X20357Y21709D01*
Y21475D01*
X20473Y21359D01*
X20823D01*
X20590D02*
X20357Y21126D01*
X19657Y21825D02*
X19890Y21709D01*
X20123Y21475D01*
Y21242D01*
X20007Y21126D01*
X19773D01*
X19657Y21242D01*
Y21359D01*
X19773Y21475D01*
X20123D01*
X19424Y21709D02*
X19307Y21825D01*
X19074D01*
X18957Y21709D01*
Y21592D01*
X19074Y21475D01*
X18957Y21359D01*
Y21242D01*
X19074Y21126D01*
X19307D01*
X19424Y21242D01*
Y21359D01*
X19307Y21475D01*
X19424Y21592D01*
Y21709D01*
X19307Y21475D02*
X19074D01*
X18873Y23688D02*
Y22988D01*
X19223D01*
X19340Y23105D01*
Y23338D01*
X19223Y23455D01*
X18873D01*
X19106D02*
X19340Y23688D01*
X20039Y22988D02*
X19806Y23105D01*
X19573Y23338D01*
Y23571D01*
X19689Y23688D01*
X19923D01*
X20039Y23571D01*
Y23455D01*
X19923Y23338D01*
X19573D01*
X20273Y22988D02*
X20739D01*
Y23105D01*
X20273Y23571D01*
Y23688D01*
X16725Y86175D02*
Y85475D01*
X17075D01*
X17192Y85592D01*
Y85825D01*
X17075Y85942D01*
X16725D01*
X16958D02*
X17192Y86175D01*
X17425Y85475D02*
X17891D01*
Y85592D01*
X17425Y86058D01*
Y86175D01*
X18125Y86058D02*
X18241Y86175D01*
X18474D01*
X18591Y86058D01*
Y85592D01*
X18474Y85475D01*
X18241D01*
X18125Y85592D01*
Y85708D01*
X18241Y85825D01*
X18591D01*
X26444Y83875D02*
X25744D01*
Y83525D01*
X25861Y83408D01*
X26094D01*
X26211Y83525D01*
Y83875D01*
Y83642D02*
X26444Y83408D01*
X25744Y83175D02*
Y82709D01*
X25861D01*
X26327Y83175D01*
X26444D01*
X25744Y82009D02*
Y82475D01*
X26094D01*
X25977Y82242D01*
Y82126D01*
X26094Y82009D01*
X26327D01*
X26444Y82126D01*
Y82359D01*
X26327Y82475D01*
X20900Y89925D02*
X20200D01*
Y89575D01*
X20317Y89458D01*
X20550D01*
X20667Y89575D01*
Y89925D01*
Y89692D02*
X20900Y89458D01*
X20200Y89225D02*
Y88759D01*
X20317D01*
X20783Y89225D01*
X20900D01*
X20317Y88525D02*
X20200Y88409D01*
Y88176D01*
X20317Y88059D01*
X20433D01*
X20550Y88176D01*
X20667Y88059D01*
X20783D01*
X20900Y88176D01*
Y88409D01*
X20783Y88525D01*
X20667D01*
X20550Y88409D01*
X20433Y88525D01*
X20317D01*
X20550Y88409D02*
Y88176D01*
X41050Y103648D02*
Y104348D01*
X40700D01*
X40583Y104231D01*
Y103998D01*
X40700Y103881D01*
X41050D01*
X40817D02*
X40583Y103648D01*
X39884Y104348D02*
X40117Y104231D01*
X40350Y103998D01*
Y103765D01*
X40234Y103648D01*
X40000D01*
X39884Y103765D01*
Y103881D01*
X40000Y103998D01*
X40350D01*
X39650Y103648D02*
X39417D01*
X39534D01*
Y104348D01*
X39650Y104231D01*
X60034Y45894D02*
X59917Y46010D01*
X59684D01*
X59567Y45894D01*
Y45427D01*
X59684Y45311D01*
X59917D01*
X60034Y45427D01*
X60734Y46010D02*
X60500Y45894D01*
X60267Y45661D01*
Y45427D01*
X60384Y45311D01*
X60617D01*
X60734Y45427D01*
Y45544D01*
X60617Y45661D01*
X60267D01*
X61433Y46010D02*
X60967D01*
Y45661D01*
X61200Y45777D01*
X61317D01*
X61433Y45661D01*
Y45427D01*
X61317Y45311D01*
X61084D01*
X60967Y45427D01*
X60034Y40505D02*
X59917Y40621D01*
X59684D01*
X59567Y40505D01*
Y40038D01*
X59684Y39922D01*
X59917D01*
X60034Y40038D01*
X60734Y40621D02*
X60500Y40505D01*
X60267Y40272D01*
Y40038D01*
X60384Y39922D01*
X60617D01*
X60734Y40038D01*
Y40155D01*
X60617Y40272D01*
X60267D01*
X61317Y39922D02*
Y40621D01*
X60967Y40272D01*
X61433D01*
X81274Y103926D02*
Y104626D01*
X80924D01*
X80808Y104509D01*
Y104276D01*
X80924Y104159D01*
X81274D01*
X81041D02*
X80808Y103926D01*
X80574Y104509D02*
X80458Y104626D01*
X80224D01*
X80108Y104509D01*
Y104392D01*
X80224Y104276D01*
X80108Y104159D01*
Y104042D01*
X80224Y103926D01*
X80458D01*
X80574Y104042D01*
Y104159D01*
X80458Y104276D01*
X80574Y104392D01*
Y104509D01*
X80458Y104276D02*
X80224D01*
X79875Y103926D02*
X79641D01*
X79758D01*
Y104626D01*
X79875Y104509D01*
X64626Y83445D02*
X65326D01*
Y83794D01*
X65210Y83911D01*
X64976D01*
X64860Y83794D01*
Y83445D01*
Y83678D02*
X64626Y83911D01*
X65326Y84144D02*
Y84611D01*
X65210D01*
X64743Y84144D01*
X64626D01*
X65326Y84844D02*
Y85311D01*
X65210D01*
X64743Y84844D01*
X64626D01*
X64428Y74089D02*
X64312Y74206D01*
Y74439D01*
X64428Y74556D01*
X64895D01*
X65011Y74439D01*
Y74206D01*
X64895Y74089D01*
X64428Y73856D02*
X64312Y73739D01*
Y73506D01*
X64428Y73390D01*
X64545D01*
X64662Y73506D01*
Y73623D01*
Y73506D01*
X64778Y73390D01*
X64895D01*
X65011Y73506D01*
Y73739D01*
X64895Y73856D01*
Y73156D02*
X65011Y73040D01*
Y72806D01*
X64895Y72690D01*
X64428D01*
X64312Y72806D01*
Y73040D01*
X64428Y73156D01*
X64545D01*
X64662Y73040D01*
Y72690D01*
X50196Y83261D02*
X50896D01*
Y83611D01*
X50780Y83727D01*
X50546D01*
X50430Y83611D01*
Y83261D01*
Y83494D02*
X50196Y83727D01*
X50896Y84427D02*
X50780Y84194D01*
X50546Y83961D01*
X50313D01*
X50196Y84077D01*
Y84310D01*
X50313Y84427D01*
X50430D01*
X50546Y84310D01*
Y83961D01*
X50780Y84660D02*
X50896Y84777D01*
Y85010D01*
X50780Y85127D01*
X50313D01*
X50196Y85010D01*
Y84777D01*
X50313Y84660D01*
X50780D01*
X55016Y73645D02*
X54317D01*
Y73295D01*
X54433Y73178D01*
X54667D01*
X54783Y73295D01*
Y73645D01*
Y73412D02*
X55016Y73178D01*
X54317Y72479D02*
X54433Y72712D01*
X54667Y72945D01*
X54900D01*
X55016Y72828D01*
Y72595D01*
X54900Y72479D01*
X54783D01*
X54667Y72595D01*
Y72945D01*
X55016Y71779D02*
Y72245D01*
X54550Y71779D01*
X54433D01*
X54317Y71895D01*
Y72129D01*
X54433Y72245D01*
X50063Y74103D02*
X49947Y74220D01*
Y74453D01*
X50063Y74570D01*
X50530D01*
X50646Y74453D01*
Y74220D01*
X50530Y74103D01*
X49947Y73404D02*
X50063Y73637D01*
X50297Y73870D01*
X50530D01*
X50646Y73753D01*
Y73520D01*
X50530Y73404D01*
X50413D01*
X50297Y73520D01*
Y73870D01*
X50646Y73170D02*
Y72937D01*
Y73054D01*
X49947D01*
X50063Y73170D01*
X62788Y33559D02*
X62671Y33443D01*
X62438D01*
X62321Y33559D01*
Y34026D01*
X62438Y34143D01*
X62671D01*
X62788Y34026D01*
X63021Y34143D02*
X63254D01*
X63137D01*
Y33443D01*
X63021Y33559D01*
X63604Y34026D02*
X63721Y34143D01*
X63954D01*
X64070Y34026D01*
Y33559D01*
X63954Y33443D01*
X63721D01*
X63604Y33559D01*
Y33676D01*
X63721Y33793D01*
X64070D01*
X67759Y40654D02*
Y41353D01*
X67409D01*
X67292Y41237D01*
Y41003D01*
X67409Y40887D01*
X67759D01*
X67525D02*
X67292Y40654D01*
X67059Y41237D02*
X66942Y41353D01*
X66709D01*
X66592Y41237D01*
Y41120D01*
X66709Y41003D01*
X66592Y40887D01*
Y40770D01*
X66709Y40654D01*
X66942D01*
X67059Y40770D01*
Y40887D01*
X66942Y41003D01*
X67059Y41120D01*
Y41237D01*
X66942Y41003D02*
X66709D01*
X66359Y41237D02*
X66242Y41353D01*
X66009D01*
X65893Y41237D01*
Y41120D01*
X66009Y41003D01*
X65893Y40887D01*
Y40770D01*
X66009Y40654D01*
X66242D01*
X66359Y40770D01*
Y40887D01*
X66242Y41003D01*
X66359Y41120D01*
Y41237D01*
X66242Y41003D02*
X66009D01*
X65859Y47500D02*
Y46800D01*
X66208D01*
X66325Y46917D01*
Y47150D01*
X66208Y47267D01*
X65859D01*
X66092D02*
X66325Y47500D01*
X66558Y46800D02*
X67025D01*
Y46917D01*
X66558Y47383D01*
Y47500D01*
X67725Y46800D02*
X67491Y46917D01*
X67258Y47150D01*
Y47383D01*
X67375Y47500D01*
X67608D01*
X67725Y47383D01*
Y47267D01*
X67608Y47150D01*
X67258D01*
X65809Y39433D02*
Y38733D01*
X66158D01*
X66275Y38850D01*
Y39083D01*
X66158Y39199D01*
X65809D01*
X66042D02*
X66275Y39433D01*
X66508Y38850D02*
X66625Y38733D01*
X66858D01*
X66975Y38850D01*
Y38966D01*
X66858Y39083D01*
X66975Y39199D01*
Y39316D01*
X66858Y39433D01*
X66625D01*
X66508Y39316D01*
Y39199D01*
X66625Y39083D01*
X66508Y38966D01*
Y38850D01*
X66625Y39083D02*
X66858D01*
X67558Y39433D02*
Y38733D01*
X67208Y39083D01*
X67675D01*
X69626Y73631D02*
X68927D01*
Y73281D01*
X69043Y73164D01*
X69277D01*
X69393Y73281D01*
Y73631D01*
Y73398D02*
X69626Y73164D01*
X69043Y72931D02*
X68927Y72814D01*
Y72581D01*
X69043Y72465D01*
X69160D01*
X69277Y72581D01*
X69393Y72465D01*
X69510D01*
X69626Y72581D01*
Y72814D01*
X69510Y72931D01*
X69393D01*
X69277Y72814D01*
X69160Y72931D01*
X69043D01*
X69277Y72814D02*
Y72581D01*
X69626Y71765D02*
Y72231D01*
X69160Y71765D01*
X69043D01*
X68927Y71881D01*
Y72115D01*
X69043Y72231D01*
X261304Y45408D02*
X261187Y45524D01*
X260954D01*
X260837Y45408D01*
Y44941D01*
X260954Y44824D01*
X261187D01*
X261304Y44941D01*
X261537Y44824D02*
X261770D01*
X261654D01*
Y45524D01*
X261537Y45408D01*
X262587Y44824D02*
X262120D01*
X262587Y45291D01*
Y45408D01*
X262470Y45524D01*
X262237D01*
X262120Y45408D01*
X262820Y45524D02*
X263286D01*
Y45408D01*
X262820Y44941D01*
Y44824D01*
X261304Y40128D02*
X261187Y40244D01*
X260954D01*
X260837Y40128D01*
Y39661D01*
X260954Y39544D01*
X261187D01*
X261304Y39661D01*
X261537Y39544D02*
X261770D01*
X261654D01*
Y40244D01*
X261537Y40128D01*
X262587Y39544D02*
X262120D01*
X262587Y40011D01*
Y40128D01*
X262470Y40244D01*
X262237D01*
X262120Y40128D01*
X263286Y40244D02*
X263053Y40128D01*
X262820Y39894D01*
Y39661D01*
X262937Y39544D01*
X263170D01*
X263286Y39661D01*
Y39778D01*
X263170Y39894D01*
X262820D01*
X251529Y73383D02*
X251412Y73500D01*
Y73733D01*
X251529Y73849D01*
X251995D01*
X252112Y73733D01*
Y73500D01*
X251995Y73383D01*
X252112Y73150D02*
Y72916D01*
Y73033D01*
X251412D01*
X251529Y73150D01*
X252112Y72100D02*
Y72567D01*
X251646Y72100D01*
X251529D01*
X251412Y72217D01*
Y72450D01*
X251529Y72567D01*
X252112Y71400D02*
Y71867D01*
X251646Y71400D01*
X251529D01*
X251412Y71517D01*
Y71750D01*
X251529Y71867D01*
X251702Y82959D02*
X252402D01*
Y83309D01*
X252285Y83426D01*
X252052D01*
X251935Y83309D01*
Y82959D01*
Y83193D02*
X251702Y83426D01*
Y83659D02*
Y83892D01*
Y83776D01*
X252402D01*
X252285Y83659D01*
Y84242D02*
X252402Y84359D01*
Y84592D01*
X252285Y84709D01*
X252169D01*
X252052Y84592D01*
Y84476D01*
Y84592D01*
X251935Y84709D01*
X251819D01*
X251702Y84592D01*
Y84359D01*
X251819Y84242D01*
X251702Y84942D02*
Y85175D01*
Y85059D01*
X252402D01*
X252285Y84942D01*
X256457Y73214D02*
X255757D01*
Y72865D01*
X255874Y72748D01*
X256107D01*
X256224Y72865D01*
Y73214D01*
Y72981D02*
X256457Y72748D01*
Y72515D02*
Y72281D01*
Y72398D01*
X255757D01*
X255874Y72515D01*
Y71932D02*
X255757Y71815D01*
Y71582D01*
X255874Y71465D01*
X255991D01*
X256107Y71582D01*
Y71698D01*
Y71582D01*
X256224Y71465D01*
X256340D01*
X256457Y71582D01*
Y71815D01*
X256340Y71932D01*
X255757Y70765D02*
X255874Y70999D01*
X256107Y71232D01*
X256340D01*
X256457Y71115D01*
Y70882D01*
X256340Y70765D01*
X256224D01*
X256107Y70882D01*
Y71232D01*
X240827Y104918D02*
Y105618D01*
X240477D01*
X240361Y105501D01*
Y105268D01*
X240477Y105151D01*
X240827D01*
X240594D02*
X240361Y104918D01*
X240127D02*
X239894D01*
X240011D01*
Y105618D01*
X240127Y105501D01*
X239544D02*
X239428Y105618D01*
X239194D01*
X239078Y105501D01*
Y105384D01*
X239194Y105268D01*
X239311D01*
X239194D01*
X239078Y105151D01*
Y105034D01*
X239194Y104918D01*
X239428D01*
X239544Y105034D01*
X238378Y105618D02*
X238844D01*
Y105268D01*
X238611Y105384D01*
X238495D01*
X238378Y105268D01*
Y105034D01*
X238495Y104918D01*
X238728D01*
X238844Y105034D01*
X268699Y38983D02*
Y39683D01*
X268350D01*
X268233Y39566D01*
Y39333D01*
X268350Y39216D01*
X268699D01*
X268466D02*
X268233Y38983D01*
X268000D02*
X267766D01*
X267883D01*
Y39683D01*
X268000Y39566D01*
X267067Y38983D02*
Y39683D01*
X267417Y39333D01*
X266950D01*
X266717Y39566D02*
X266600Y39683D01*
X266367D01*
X266250Y39566D01*
Y39450D01*
X266367Y39333D01*
X266483D01*
X266367D01*
X266250Y39216D01*
Y39100D01*
X266367Y38983D01*
X266600D01*
X266717Y39100D01*
X281315Y104892D02*
Y105592D01*
X280965D01*
X280848Y105476D01*
Y105242D01*
X280965Y105126D01*
X281315D01*
X281082D02*
X280848Y104892D01*
X280615D02*
X280382D01*
X280498D01*
Y105592D01*
X280615Y105476D01*
X279565Y105592D02*
X280032D01*
Y105242D01*
X279799Y105359D01*
X279682D01*
X279565Y105242D01*
Y105009D01*
X279682Y104892D01*
X279915D01*
X280032Y105009D01*
X278866Y104892D02*
X279332D01*
X278866Y105359D01*
Y105476D01*
X278982Y105592D01*
X279215D01*
X279332Y105476D01*
X266749Y37981D02*
Y37282D01*
X267099D01*
X267216Y37398D01*
Y37631D01*
X267099Y37748D01*
X266749D01*
X266983D02*
X267216Y37981D01*
X267449D02*
X267682D01*
X267566D01*
Y37282D01*
X267449Y37398D01*
X268382Y37981D02*
Y37282D01*
X268032Y37631D01*
X268499D01*
X268732Y37398D02*
X268849Y37282D01*
X269082D01*
X269199Y37398D01*
Y37865D01*
X269082Y37981D01*
X268849D01*
X268732Y37865D01*
Y37398D01*
X266784Y45525D02*
Y44826D01*
X267134D01*
X267251Y44942D01*
Y45175D01*
X267134Y45292D01*
X266784D01*
X267017D02*
X267251Y45525D01*
X267484D02*
X267717D01*
X267601D01*
Y44826D01*
X267484Y44942D01*
X268067D02*
X268184Y44826D01*
X268417D01*
X268534Y44942D01*
Y45059D01*
X268417Y45175D01*
X268300D01*
X268417D01*
X268534Y45292D01*
Y45409D01*
X268417Y45525D01*
X268184D01*
X268067Y45409D01*
X269233Y45525D02*
X268767D01*
X269233Y45059D01*
Y44942D01*
X269117Y44826D01*
X268884D01*
X268767Y44942D01*
X265957Y82965D02*
X266657D01*
Y83315D01*
X266540Y83431D01*
X266307D01*
X266190Y83315D01*
Y82965D01*
Y83198D02*
X265957Y83431D01*
Y83665D02*
Y83898D01*
Y83781D01*
X266657D01*
X266540Y83665D01*
X265957Y84598D02*
X266657D01*
X266307Y84248D01*
Y84714D01*
X266074Y84948D02*
X265957Y85064D01*
Y85297D01*
X266074Y85414D01*
X266540D01*
X266657Y85297D01*
Y85064D01*
X266540Y84948D01*
X266424D01*
X266307Y85064D01*
Y85414D01*
X270698Y73154D02*
X269998D01*
Y72805D01*
X270115Y72688D01*
X270348D01*
X270465Y72805D01*
Y73154D01*
Y72921D02*
X270698Y72688D01*
Y72455D02*
Y72221D01*
Y72338D01*
X269998D01*
X270115Y72455D01*
X269998Y71405D02*
Y71872D01*
X270348D01*
X270231Y71638D01*
Y71522D01*
X270348Y71405D01*
X270581D01*
X270698Y71522D01*
Y71755D01*
X270581Y71872D01*
X270115Y71172D02*
X269998Y71055D01*
Y70822D01*
X270115Y70705D01*
X270231D01*
X270348Y70822D01*
Y70938D01*
Y70822D01*
X270465Y70705D01*
X270581D01*
X270698Y70822D01*
Y71055D01*
X270581Y71172D01*
X265830Y73353D02*
X265713Y73470D01*
Y73703D01*
X265830Y73819D01*
X266296D01*
X266413Y73703D01*
Y73470D01*
X266296Y73353D01*
X266413Y73120D02*
Y72886D01*
Y73003D01*
X265713D01*
X265830Y73120D01*
X266413Y72187D02*
X265713D01*
X266063Y72537D01*
Y72070D01*
X266413Y71370D02*
Y71837D01*
X265946Y71370D01*
X265830D01*
X265713Y71487D01*
Y71720D01*
X265830Y71837D01*
X263981Y32975D02*
X263864Y32859D01*
X263631D01*
X263514Y32975D01*
Y33442D01*
X263631Y33558D01*
X263864D01*
X263981Y33442D01*
X264681Y33558D02*
X264214D01*
X264681Y33092D01*
Y32975D01*
X264564Y32859D01*
X264331D01*
X264214Y32975D01*
X264914D02*
X265031Y32859D01*
X265264D01*
X265380Y32975D01*
Y33092D01*
X265264Y33209D01*
X265147D01*
X265264D01*
X265380Y33325D01*
Y33442D01*
X265264Y33558D01*
X265031D01*
X264914Y33442D01*
X22050Y109050D02*
X22750D01*
Y109400D01*
X22633Y109517D01*
X22400D01*
X22283Y109400D01*
Y109050D01*
Y109283D02*
X22050Y109517D01*
X22750Y109750D02*
Y110216D01*
X22633D01*
X22167Y109750D01*
X22050D01*
X22633Y110450D02*
X22750Y110566D01*
Y110799D01*
X22633Y110916D01*
X22167D01*
X22050Y110799D01*
Y110566D01*
X22167Y110450D01*
X22633D01*
X8951Y84572D02*
Y85271D01*
X8601D01*
X8484Y85155D01*
Y84921D01*
X8601Y84805D01*
X8951D01*
X8717D02*
X8484Y84572D01*
X7784Y85271D02*
X8018Y85155D01*
X8251Y84921D01*
Y84688D01*
X8134Y84572D01*
X7901D01*
X7784Y84688D01*
Y84805D01*
X7901Y84921D01*
X8251D01*
X7201Y84572D02*
Y85271D01*
X7551Y84921D01*
X7085D01*
X191065Y8585D02*
Y7885D01*
X191415D01*
X191531Y8002D01*
Y8235D01*
X191415Y8352D01*
X191065D01*
X191298D02*
X191531Y8585D01*
X192231Y7885D02*
X191998Y8002D01*
X191765Y8235D01*
Y8468D01*
X191881Y8585D01*
X192115D01*
X192231Y8468D01*
Y8352D01*
X192115Y8235D01*
X191765D01*
X192931Y7885D02*
X192464D01*
Y8235D01*
X192698Y8118D01*
X192814D01*
X192931Y8235D01*
Y8468D01*
X192814Y8585D01*
X192581D01*
X192464Y8468D01*
X193000Y9546D02*
Y10246D01*
X192650D01*
X192533Y10129D01*
Y9896D01*
X192650Y9779D01*
X193000D01*
X192766D02*
X192533Y9546D01*
X191833Y10246D02*
X192067Y10129D01*
X192300Y9896D01*
Y9663D01*
X192183Y9546D01*
X191950D01*
X191833Y9663D01*
Y9779D01*
X191950Y9896D01*
X192300D01*
X191600Y10129D02*
X191483Y10246D01*
X191250D01*
X191134Y10129D01*
Y10012D01*
X191250Y9896D01*
X191367D01*
X191250D01*
X191134Y9779D01*
Y9663D01*
X191250Y9546D01*
X191483D01*
X191600Y9663D01*
X192690Y2575D02*
X193390D01*
Y2925D01*
X193273Y3042D01*
X193040D01*
X192923Y2925D01*
Y2575D01*
Y2808D02*
X192690Y3042D01*
X193390Y3741D02*
Y3275D01*
X193040D01*
X193156Y3508D01*
Y3625D01*
X193040Y3741D01*
X192807D01*
X192690Y3625D01*
Y3391D01*
X192807Y3275D01*
X193390Y3975D02*
Y4441D01*
X193273D01*
X192807Y3975D01*
X192690D01*
X17500Y102450D02*
X18200D01*
Y102800D01*
X18083Y102917D01*
X17850D01*
X17733Y102800D01*
Y102450D01*
Y102683D02*
X17500Y102917D01*
X18200Y103150D02*
Y103616D01*
X18083D01*
X17617Y103150D01*
X17500D01*
Y103850D02*
Y104083D01*
Y103966D01*
X18200D01*
X18083Y103850D01*
X22000Y95875D02*
X22700D01*
Y96225D01*
X22583Y96342D01*
X22350D01*
X22233Y96225D01*
Y95875D01*
Y96108D02*
X22000Y96342D01*
X22700Y96575D02*
Y97041D01*
X22583D01*
X22117Y96575D01*
X22000D01*
Y97624D02*
X22700D01*
X22350Y97275D01*
Y97741D01*
X68285Y126584D02*
Y127284D01*
X67935D01*
X67818Y127167D01*
Y126934D01*
X67935Y126817D01*
X68285D01*
X68052D02*
X67818Y126584D01*
X67585Y126701D02*
X67469Y126584D01*
X67235D01*
X67119Y126701D01*
Y127167D01*
X67235Y127284D01*
X67469D01*
X67585Y127167D01*
Y127051D01*
X67469Y126934D01*
X67119D01*
X66885Y127167D02*
X66769Y127284D01*
X66536D01*
X66419Y127167D01*
Y127051D01*
X66536Y126934D01*
X66652D01*
X66536D01*
X66419Y126817D01*
Y126701D01*
X66536Y126584D01*
X66769D01*
X66885Y126701D01*
X48473Y126654D02*
Y127354D01*
X48123D01*
X48006Y127237D01*
Y127004D01*
X48123Y126887D01*
X48473D01*
X48240D02*
X48006Y126654D01*
X47773Y127237D02*
X47657Y127354D01*
X47423D01*
X47307Y127237D01*
Y127120D01*
X47423Y127004D01*
X47307Y126887D01*
Y126770D01*
X47423Y126654D01*
X47657D01*
X47773Y126770D01*
Y126887D01*
X47657Y127004D01*
X47773Y127120D01*
Y127237D01*
X47657Y127004D02*
X47423D01*
X46607Y127354D02*
X46840Y127237D01*
X47073Y127004D01*
Y126770D01*
X46957Y126654D01*
X46724D01*
X46607Y126770D01*
Y126887D01*
X46724Y127004D01*
X47073D01*
X28407Y126686D02*
Y127385D01*
X28057D01*
X27940Y127269D01*
Y127035D01*
X28057Y126919D01*
X28407D01*
X28174D02*
X27940Y126686D01*
X27707Y127269D02*
X27591Y127385D01*
X27357D01*
X27241Y127269D01*
Y127152D01*
X27357Y127035D01*
X27241Y126919D01*
Y126802D01*
X27357Y126686D01*
X27591D01*
X27707Y126802D01*
Y126919D01*
X27591Y127035D01*
X27707Y127152D01*
Y127269D01*
X27591Y127035D02*
X27357D01*
X27007Y127385D02*
X26541D01*
Y127269D01*
X27007Y126802D01*
Y126686D01*
X144316Y125029D02*
X145016D01*
Y125379D01*
X144899Y125495D01*
X144666D01*
X144549Y125379D01*
Y125029D01*
Y125262D02*
X144316Y125495D01*
X144433Y125729D02*
X144316Y125845D01*
Y126078D01*
X144433Y126195D01*
X144899D01*
X145016Y126078D01*
Y125845D01*
X144899Y125729D01*
X144783D01*
X144666Y125845D01*
Y126195D01*
X145016Y126428D02*
Y126895D01*
X144899D01*
X144433Y126428D01*
X144316D01*
X124288Y125029D02*
X124988D01*
Y125379D01*
X124871Y125495D01*
X124638D01*
X124521Y125379D01*
Y125029D01*
Y125262D02*
X124288Y125495D01*
X124404Y125729D02*
X124288Y125845D01*
Y126078D01*
X124404Y126195D01*
X124871D01*
X124988Y126078D01*
Y125845D01*
X124871Y125729D01*
X124754D01*
X124638Y125845D01*
Y126195D01*
X124288Y126778D02*
X124988D01*
X124638Y126428D01*
Y126895D01*
X244316Y125029D02*
X245016D01*
Y125379D01*
X244899Y125495D01*
X244666D01*
X244549Y125379D01*
Y125029D01*
Y125262D02*
X244316Y125495D01*
Y125729D02*
Y125962D01*
Y125845D01*
X245016D01*
X244899Y125729D01*
Y126312D02*
X245016Y126428D01*
Y126662D01*
X244899Y126778D01*
X244433D01*
X244316Y126662D01*
Y126428D01*
X244433Y126312D01*
X244899D01*
X245016Y127478D02*
X244899Y127245D01*
X244666Y127011D01*
X244433D01*
X244316Y127128D01*
Y127361D01*
X244433Y127478D01*
X244549D01*
X244666Y127361D01*
Y127011D01*
X164316Y125029D02*
X165016D01*
Y125379D01*
X164899Y125495D01*
X164666D01*
X164549Y125379D01*
Y125029D01*
Y125262D02*
X164316Y125495D01*
Y125729D02*
Y125962D01*
Y125845D01*
X165016D01*
X164899Y125729D01*
Y126312D02*
X165016Y126428D01*
Y126662D01*
X164899Y126778D01*
X164433D01*
X164316Y126662D01*
Y126428D01*
X164433Y126312D01*
X164899D01*
Y127011D02*
X165016Y127128D01*
Y127361D01*
X164899Y127478D01*
X164433D01*
X164316Y127361D01*
Y127128D01*
X164433Y127011D01*
X164899D01*
X184359Y125029D02*
X185059D01*
Y125379D01*
X184942Y125495D01*
X184709D01*
X184592Y125379D01*
Y125029D01*
Y125262D02*
X184359Y125495D01*
Y125729D02*
Y125962D01*
Y125845D01*
X185059D01*
X184942Y125729D01*
Y126312D02*
X185059Y126428D01*
Y126662D01*
X184942Y126778D01*
X184475D01*
X184359Y126662D01*
Y126428D01*
X184475Y126312D01*
X184942D01*
X184359Y127011D02*
Y127245D01*
Y127128D01*
X185059D01*
X184942Y127011D01*
X224313Y125029D02*
X225013D01*
Y125379D01*
X224896Y125495D01*
X224663D01*
X224546Y125379D01*
Y125029D01*
Y125262D02*
X224313Y125495D01*
Y125729D02*
Y125962D01*
Y125845D01*
X225013D01*
X224896Y125729D01*
Y126312D02*
X225013Y126428D01*
Y126662D01*
X224896Y126778D01*
X224430D01*
X224313Y126662D01*
Y126428D01*
X224430Y126312D01*
X224896D01*
X225013Y127478D02*
Y127011D01*
X224663D01*
X224780Y127245D01*
Y127361D01*
X224663Y127478D01*
X224430D01*
X224313Y127361D01*
Y127128D01*
X224430Y127011D01*
X284282Y125029D02*
X284982D01*
Y125379D01*
X284866Y125495D01*
X284632D01*
X284516Y125379D01*
Y125029D01*
Y125262D02*
X284282Y125495D01*
Y125729D02*
Y125962D01*
Y125845D01*
X284982D01*
X284866Y125729D01*
X284282Y126312D02*
Y126545D01*
Y126428D01*
X284982D01*
X284866Y126312D01*
X284282Y127245D02*
X284982D01*
X284632Y126895D01*
Y127361D01*
X264316Y125029D02*
X265016D01*
Y125379D01*
X264899Y125495D01*
X264666D01*
X264549Y125379D01*
Y125029D01*
Y125262D02*
X264316Y125495D01*
Y125729D02*
Y125962D01*
Y125845D01*
X265016D01*
X264899Y125729D01*
X264316Y126312D02*
Y126545D01*
Y126428D01*
X265016D01*
X264899Y126312D01*
X264316Y127361D02*
Y126895D01*
X264783Y127361D01*
X264899D01*
X265016Y127245D01*
Y127011D01*
X264899Y126895D01*
X24288Y125029D02*
X24988D01*
Y125379D01*
X24871Y125495D01*
X24638D01*
X24521Y125379D01*
Y125029D01*
Y125262D02*
X24288Y125495D01*
X24871Y125729D02*
X24988Y125845D01*
Y126078D01*
X24871Y126195D01*
X24755D01*
X24638Y126078D01*
X24521Y126195D01*
X24405D01*
X24288Y126078D01*
Y125845D01*
X24405Y125729D01*
X24521D01*
X24638Y125845D01*
X24755Y125729D01*
X24871D01*
X24638Y125845D02*
Y126078D01*
X24871Y126428D02*
X24988Y126545D01*
Y126778D01*
X24871Y126895D01*
X24755D01*
X24638Y126778D01*
Y126662D01*
Y126778D01*
X24521Y126895D01*
X24405D01*
X24288Y126778D01*
Y126545D01*
X24405Y126428D01*
X44316Y125029D02*
X45016D01*
Y125379D01*
X44899Y125495D01*
X44666D01*
X44549Y125379D01*
Y125029D01*
Y125262D02*
X44316Y125495D01*
X44899Y125729D02*
X45016Y125845D01*
Y126078D01*
X44899Y126195D01*
X44783D01*
X44666Y126078D01*
X44549Y126195D01*
X44433D01*
X44316Y126078D01*
Y125845D01*
X44433Y125729D01*
X44549D01*
X44666Y125845D01*
X44783Y125729D01*
X44899D01*
X44666Y125845D02*
Y126078D01*
X45016Y126895D02*
Y126428D01*
X44666D01*
X44783Y126662D01*
Y126778D01*
X44666Y126895D01*
X44433D01*
X44316Y126778D01*
Y126545D01*
X44433Y126428D01*
X64316Y125029D02*
X65016D01*
Y125379D01*
X64899Y125495D01*
X64666D01*
X64549Y125379D01*
Y125029D01*
Y125262D02*
X64316Y125495D01*
X64899Y125729D02*
X65016Y125845D01*
Y126078D01*
X64899Y126195D01*
X64783D01*
X64666Y126078D01*
X64549Y126195D01*
X64433D01*
X64316Y126078D01*
Y125845D01*
X64433Y125729D01*
X64549D01*
X64666Y125845D01*
X64783Y125729D01*
X64899D01*
X64666Y125845D02*
Y126078D01*
X64433Y126428D02*
X64316Y126545D01*
Y126778D01*
X64433Y126895D01*
X64899D01*
X65016Y126778D01*
Y126545D01*
X64899Y126428D01*
X64783D01*
X64666Y126545D01*
Y126895D01*
X6091Y159042D02*
Y159742D01*
X5741D01*
X5624Y159625D01*
Y159392D01*
X5741Y159276D01*
X6091D01*
X5857D02*
X5624Y159042D01*
X4924Y159742D02*
X5158Y159625D01*
X5391Y159392D01*
Y159159D01*
X5274Y159042D01*
X5041D01*
X4924Y159159D01*
Y159276D01*
X5041Y159392D01*
X5391D01*
X4691Y159159D02*
X4574Y159042D01*
X4341D01*
X4225Y159159D01*
Y159625D01*
X4341Y159742D01*
X4574D01*
X4691Y159625D01*
Y159509D01*
X4574Y159392D01*
X4225D01*
X268310Y126654D02*
Y127354D01*
X267960D01*
X267843Y127237D01*
Y127004D01*
X267960Y126887D01*
X268310D01*
X268077D02*
X267843Y126654D01*
X267610D02*
X267377D01*
X267494D01*
Y127354D01*
X267610Y127237D01*
X267027Y126654D02*
X266794D01*
X266910D01*
Y127354D01*
X267027Y127237D01*
X265977Y127354D02*
X266211Y127237D01*
X266444Y127004D01*
Y126770D01*
X266327Y126654D01*
X266094D01*
X265977Y126770D01*
Y126887D01*
X266094Y127004D01*
X266444D01*
X312074Y43171D02*
Y43871D01*
X311724D01*
X311607Y43754D01*
Y43521D01*
X311724Y43405D01*
X312074D01*
X311840D02*
X311607Y43171D01*
X310907Y43871D02*
X311374D01*
Y43521D01*
X311141Y43638D01*
X311024D01*
X310907Y43521D01*
Y43288D01*
X311024Y43171D01*
X311257D01*
X311374Y43288D01*
X310324Y43171D02*
Y43871D01*
X310674Y43521D01*
X310207D01*
X162867Y33092D02*
X162750Y32975D01*
X162517D01*
X162400Y33092D01*
Y33558D01*
X162517Y33675D01*
X162750D01*
X162867Y33558D01*
X163566Y33675D02*
X163100D01*
X163566Y33208D01*
Y33092D01*
X163450Y32975D01*
X163216D01*
X163100Y33092D01*
X163800Y33675D02*
X164033D01*
X163916D01*
Y32975D01*
X163800Y33092D01*
X167684Y38823D02*
Y39523D01*
X167334D01*
X167218Y39406D01*
Y39173D01*
X167334Y39057D01*
X167684D01*
X167451D02*
X167218Y38823D01*
X166984D02*
X166751D01*
X166868D01*
Y39523D01*
X166984Y39406D01*
X166401Y38823D02*
X166168D01*
X166285D01*
Y39523D01*
X166401Y39406D01*
X165818D02*
X165701Y39523D01*
X165468D01*
X165352Y39406D01*
Y39290D01*
X165468Y39173D01*
X165585D01*
X165468D01*
X165352Y39057D01*
Y38940D01*
X165468Y38823D01*
X165701D01*
X165818Y38940D01*
X165734Y37618D02*
Y36918D01*
X166084D01*
X166201Y37035D01*
Y37268D01*
X166084Y37385D01*
X165734D01*
X165967D02*
X166201Y37618D01*
X166434D02*
X166667D01*
X166551D01*
Y36918D01*
X166434Y37035D01*
X167017Y37618D02*
X167250D01*
X167134D01*
Y36918D01*
X167017Y37035D01*
X167600Y37618D02*
X167833D01*
X167717D01*
Y36918D01*
X167600Y37035D01*
X165887Y45492D02*
Y44792D01*
X166236D01*
X166353Y44909D01*
Y45142D01*
X166236Y45259D01*
X165887D01*
X166120D02*
X166353Y45492D01*
X166586D02*
X166820D01*
X166703D01*
Y44792D01*
X166586Y44909D01*
X167169D02*
X167286Y44792D01*
X167519D01*
X167636Y44909D01*
Y45376D01*
X167519Y45492D01*
X167286D01*
X167169Y45376D01*
Y44909D01*
X168219Y45492D02*
Y44792D01*
X167869Y45142D01*
X168336D01*
X202658Y21692D02*
X202775Y21575D01*
Y21342D01*
X202658Y21225D01*
X202192D01*
X202075Y21342D01*
Y21575D01*
X202192Y21692D01*
X202775Y22392D02*
Y21925D01*
X202425D01*
X202542Y22158D01*
Y22275D01*
X202425Y22392D01*
X202192D01*
X202075Y22275D01*
Y22042D01*
X202192Y21925D01*
X207500Y17700D02*
Y17001D01*
X207850D01*
X207967Y17117D01*
Y17350D01*
X207850Y17467D01*
X207500D01*
X207733D02*
X207967Y17700D01*
X208200D02*
X208433D01*
X208316D01*
Y17001D01*
X208200Y17117D01*
X208783D02*
X208900Y17001D01*
X209133D01*
X209249Y17117D01*
Y17234D01*
X209133Y17350D01*
X209016D01*
X209133D01*
X209249Y17467D01*
Y17584D01*
X209133Y17700D01*
X208900D01*
X208783Y17584D01*
X88925Y11700D02*
Y11117D01*
X88808Y11000D01*
X88575D01*
X88458Y11117D01*
Y11700D01*
X88225Y11117D02*
X88109Y11000D01*
X87875D01*
X87759Y11117D01*
Y11583D01*
X87875Y11700D01*
X88109D01*
X88225Y11583D01*
Y11467D01*
X88109Y11350D01*
X87759D01*
X181154Y103907D02*
Y104607D01*
X180804D01*
X180687Y104490D01*
Y104257D01*
X180804Y104140D01*
X181154D01*
X180920D02*
X180687Y103907D01*
X180454D02*
X180221D01*
X180337D01*
Y104607D01*
X180454Y104490D01*
X179871Y103907D02*
X179638D01*
X179754D01*
Y104607D01*
X179871Y104490D01*
X179288D02*
X179171Y104607D01*
X178938D01*
X178821Y104490D01*
Y104373D01*
X178938Y104257D01*
X178821Y104140D01*
Y104023D01*
X178938Y103907D01*
X179171D01*
X179288Y104023D01*
Y104140D01*
X179171Y104257D01*
X179288Y104373D01*
Y104490D01*
X179171Y104257D02*
X178938D01*
X32645Y46130D02*
X33345D01*
Y46480D01*
X33228Y46596D01*
X32995D01*
X32878Y46480D01*
Y46130D01*
Y46363D02*
X32645Y46596D01*
X33345Y47296D02*
Y46829D01*
X32995D01*
X33112Y47063D01*
Y47179D01*
X32995Y47296D01*
X32762D01*
X32645Y47179D01*
Y46946D01*
X32762Y46829D01*
X33228Y47529D02*
X33345Y47646D01*
Y47879D01*
X33228Y47996D01*
X33112D01*
X32995Y47879D01*
Y47763D01*
Y47879D01*
X32878Y47996D01*
X32762D01*
X32645Y47879D01*
Y47646D01*
X32762Y47529D01*
X33725Y58650D02*
X33026D01*
Y58300D01*
X33142Y58183D01*
X33375D01*
X33492Y58300D01*
Y58650D01*
Y58416D02*
X33725Y58183D01*
X33026Y57483D02*
Y57950D01*
X33375D01*
X33259Y57717D01*
Y57600D01*
X33375Y57483D01*
X33609D01*
X33725Y57600D01*
Y57833D01*
X33609Y57950D01*
X33725Y57250D02*
Y57017D01*
Y57134D01*
X33026D01*
X33142Y57250D01*
X31715Y58650D02*
X31016D01*
Y58300D01*
X31132Y58183D01*
X31365D01*
X31482Y58300D01*
Y58650D01*
Y58416D02*
X31715Y58183D01*
Y57600D02*
X31016D01*
X31365Y57950D01*
Y57483D01*
X31599Y57250D02*
X31715Y57134D01*
Y56900D01*
X31599Y56784D01*
X31132D01*
X31016Y56900D01*
Y57134D01*
X31132Y57250D01*
X31249D01*
X31365Y57134D01*
Y56784D01*
X282446Y39053D02*
X281746D01*
Y38703D01*
X281862Y38586D01*
X282096D01*
X282212Y38703D01*
Y39053D01*
Y38820D02*
X282446Y38586D01*
Y37887D02*
Y38353D01*
X281979Y37887D01*
X281862D01*
X281746Y38003D01*
Y38237D01*
X281862Y38353D01*
X281746Y37187D02*
Y37653D01*
X282096D01*
X281979Y37420D01*
Y37304D01*
X282096Y37187D01*
X282329D01*
X282446Y37304D01*
Y37537D01*
X282329Y37653D01*
X276870Y39053D02*
X276171D01*
Y38703D01*
X276287Y38586D01*
X276521D01*
X276637Y38703D01*
Y39053D01*
Y38820D02*
X276870Y38586D01*
X276287Y38353D02*
X276171Y38237D01*
Y38003D01*
X276287Y37887D01*
X276404D01*
X276521Y38003D01*
Y38120D01*
Y38003D01*
X276637Y37887D01*
X276754D01*
X276870Y38003D01*
Y38237D01*
X276754Y38353D01*
Y37653D02*
X276870Y37537D01*
Y37304D01*
X276754Y37187D01*
X276287D01*
X276171Y37304D01*
Y37537D01*
X276287Y37653D01*
X276404D01*
X276521Y37537D01*
Y37187D01*
X279906Y39053D02*
X279206D01*
Y38703D01*
X279323Y38586D01*
X279556D01*
X279672Y38703D01*
Y39053D01*
Y38820D02*
X279906Y38586D01*
Y38003D02*
X279206D01*
X279556Y38353D01*
Y37887D01*
X279323Y37653D02*
X279206Y37537D01*
Y37304D01*
X279323Y37187D01*
X279789D01*
X279906Y37304D01*
Y37537D01*
X279789Y37653D01*
X279323D01*
X284986Y39053D02*
X284286D01*
Y38703D01*
X284402Y38586D01*
X284636D01*
X284752Y38703D01*
Y39053D01*
Y38820D02*
X284986Y38586D01*
Y37887D02*
Y38353D01*
X284519Y37887D01*
X284402D01*
X284286Y38003D01*
Y38237D01*
X284402Y38353D01*
Y37653D02*
X284286Y37537D01*
Y37304D01*
X284402Y37187D01*
X284519D01*
X284636Y37304D01*
X284752Y37187D01*
X284869D01*
X284986Y37304D01*
Y37537D01*
X284869Y37653D01*
X284752D01*
X284636Y37537D01*
X284519Y37653D01*
X284402D01*
X284636Y37537D02*
Y37304D01*
X295175Y14775D02*
Y14075D01*
X295525D01*
X295642Y14192D01*
Y14425D01*
X295525Y14542D01*
X295175D01*
X295408D02*
X295642Y14775D01*
X296341Y14075D02*
X296108Y14192D01*
X295875Y14425D01*
Y14659D01*
X295991Y14775D01*
X296225D01*
X296341Y14659D01*
Y14542D01*
X296225Y14425D01*
X295875D01*
X297125Y23839D02*
Y24539D01*
X296775D01*
X296658Y24422D01*
Y24189D01*
X296775Y24072D01*
X297125D01*
X296892D02*
X296658Y23839D01*
X295959D02*
X296425D01*
X295959Y24306D01*
Y24422D01*
X296075Y24539D01*
X296309D01*
X296425Y24422D01*
X295175Y22603D02*
Y21903D01*
X295525D01*
X295641Y22019D01*
Y22253D01*
X295525Y22369D01*
X295175D01*
X295408D02*
X295641Y22603D01*
X296341Y21903D02*
X295875D01*
Y22253D01*
X296108Y22136D01*
X296224D01*
X296341Y22253D01*
Y22486D01*
X296224Y22603D01*
X295991D01*
X295875Y22486D01*
X297125Y17675D02*
Y18375D01*
X296775D01*
X296658Y18258D01*
Y18025D01*
X296775Y17908D01*
X297125D01*
X296892D02*
X296658Y17675D01*
X296425Y18258D02*
X296309Y18375D01*
X296075D01*
X295959Y18258D01*
Y18142D01*
X296075Y18025D01*
X296192D01*
X296075D01*
X295959Y17908D01*
Y17792D01*
X296075Y17675D01*
X296309D01*
X296425Y17792D01*
X297136Y29704D02*
Y30403D01*
X296786D01*
X296669Y30287D01*
Y30053D01*
X296786Y29937D01*
X297136D01*
X296902D02*
X296669Y29704D01*
X296436D02*
X296203D01*
X296319D01*
Y30403D01*
X296436Y30287D01*
X295186Y26775D02*
Y26075D01*
X295536D01*
X295652Y26192D01*
Y26425D01*
X295536Y26542D01*
X295186D01*
X295419D02*
X295652Y26775D01*
X296236D02*
Y26075D01*
X295886Y26425D01*
X296352D01*
X299891Y68157D02*
Y68856D01*
X299541D01*
X299424Y68740D01*
Y68507D01*
X299541Y68390D01*
X299891D01*
X299657D02*
X299424Y68157D01*
X298724D02*
X299191D01*
X298724Y68623D01*
Y68740D01*
X298841Y68856D01*
X299074D01*
X299191Y68740D01*
X298141Y68157D02*
Y68856D01*
X298491Y68507D01*
X298025D01*
X300491Y63087D02*
Y63787D01*
X300141D01*
X300024Y63670D01*
Y63437D01*
X300141Y63320D01*
X300491D01*
X300257D02*
X300024Y63087D01*
X299441D02*
Y63787D01*
X299791Y63437D01*
X299324D01*
X299091Y63087D02*
X298858D01*
X298974D01*
Y63787D01*
X299091Y63670D01*
X289151Y66632D02*
Y67332D01*
X288801D01*
X288684Y67215D01*
Y66982D01*
X288801Y66865D01*
X289151D01*
X288917D02*
X288684Y66632D01*
X287984D02*
X288451D01*
X287984Y67099D01*
Y67215D01*
X288101Y67332D01*
X288334D01*
X288451Y67215D01*
X287285Y67332D02*
X287518Y67215D01*
X287751Y66982D01*
Y66749D01*
X287634Y66632D01*
X287401D01*
X287285Y66749D01*
Y66865D01*
X287401Y66982D01*
X287751D01*
X289151Y64902D02*
Y65602D01*
X288801D01*
X288684Y65485D01*
Y65252D01*
X288801Y65135D01*
X289151D01*
X288917D02*
X288684Y64902D01*
X288451Y65485D02*
X288334Y65602D01*
X288101D01*
X287984Y65485D01*
Y65369D01*
X288101Y65252D01*
X288218D01*
X288101D01*
X287984Y65135D01*
Y65019D01*
X288101Y64902D01*
X288334D01*
X288451Y65019D01*
X287285Y64902D02*
X287751D01*
X287285Y65369D01*
Y65485D01*
X287401Y65602D01*
X287634D01*
X287751Y65485D01*
X289151Y62362D02*
Y63062D01*
X288801D01*
X288684Y62945D01*
Y62712D01*
X288801Y62595D01*
X289151D01*
X288917D02*
X288684Y62362D01*
X288451Y62945D02*
X288334Y63062D01*
X288101D01*
X287984Y62945D01*
Y62829D01*
X288101Y62712D01*
X288218D01*
X288101D01*
X287984Y62595D01*
Y62479D01*
X288101Y62362D01*
X288334D01*
X288451Y62479D01*
X287285Y63062D02*
X287518Y62945D01*
X287751Y62712D01*
Y62479D01*
X287634Y62362D01*
X287401D01*
X287285Y62479D01*
Y62595D01*
X287401Y62712D01*
X287751D01*
X289151Y59017D02*
Y59717D01*
X288801D01*
X288684Y59600D01*
Y59367D01*
X288801Y59250D01*
X289151D01*
X288917D02*
X288684Y59017D01*
X287984D02*
X288451D01*
X287984Y59483D01*
Y59600D01*
X288101Y59717D01*
X288334D01*
X288451Y59600D01*
X287751Y59717D02*
X287285D01*
Y59600D01*
X287751Y59133D01*
Y59017D01*
X283421Y70837D02*
Y70137D01*
X283771D01*
X283887Y70254D01*
Y70487D01*
X283771Y70604D01*
X283421D01*
X283654D02*
X283887Y70837D01*
X284120Y70254D02*
X284237Y70137D01*
X284470D01*
X284587Y70254D01*
Y70370D01*
X284470Y70487D01*
X284354D01*
X284470D01*
X284587Y70604D01*
Y70720D01*
X284470Y70837D01*
X284237D01*
X284120Y70720D01*
X284820Y70254D02*
X284937Y70137D01*
X285170D01*
X285287Y70254D01*
Y70370D01*
X285170Y70487D01*
X285287Y70604D01*
Y70720D01*
X285170Y70837D01*
X284937D01*
X284820Y70720D01*
Y70604D01*
X284937Y70487D01*
X284820Y70370D01*
Y70254D01*
X284937Y70487D02*
X285170D01*
X170903Y73141D02*
X170203D01*
Y72791D01*
X170320Y72674D01*
X170553D01*
X170670Y72791D01*
Y73141D01*
Y72907D02*
X170903Y72674D01*
Y72441D02*
Y72208D01*
Y72324D01*
X170203D01*
X170320Y72441D01*
X170903Y71858D02*
Y71624D01*
Y71741D01*
X170203D01*
X170320Y71858D01*
X170786Y71274D02*
X170903Y71158D01*
Y70925D01*
X170786Y70808D01*
X170320D01*
X170203Y70925D01*
Y71158D01*
X170320Y71274D01*
X170436D01*
X170553Y71158D01*
Y70808D01*
X165853Y83081D02*
X166553D01*
Y83430D01*
X166436Y83547D01*
X166203D01*
X166086Y83430D01*
Y83081D01*
Y83314D02*
X165853Y83547D01*
Y83780D02*
Y84014D01*
Y83897D01*
X166553D01*
X166436Y83780D01*
X165853Y84363D02*
Y84597D01*
Y84480D01*
X166553D01*
X166436Y84363D01*
X166553Y85413D02*
Y84947D01*
X166203D01*
X166320Y85180D01*
Y85296D01*
X166203Y85413D01*
X165970D01*
X165853Y85296D01*
Y85063D01*
X165970Y84947D01*
X156903Y73141D02*
X156203D01*
Y72791D01*
X156320Y72674D01*
X156553D01*
X156670Y72791D01*
Y73141D01*
Y72907D02*
X156903Y72674D01*
X156786Y72441D02*
X156903Y72324D01*
Y72091D01*
X156786Y71974D01*
X156320D01*
X156203Y72091D01*
Y72324D01*
X156320Y72441D01*
X156436D01*
X156553Y72324D01*
Y71974D01*
X156203Y71274D02*
X156320Y71508D01*
X156553Y71741D01*
X156786D01*
X156903Y71624D01*
Y71391D01*
X156786Y71274D01*
X156670D01*
X156553Y71391D01*
Y71741D01*
X140750Y103907D02*
Y104607D01*
X140400D01*
X140284Y104490D01*
Y104257D01*
X140400Y104140D01*
X140750D01*
X140517D02*
X140284Y103907D01*
X140050Y104023D02*
X139934Y103907D01*
X139701D01*
X139584Y104023D01*
Y104490D01*
X139701Y104607D01*
X139934D01*
X140050Y104490D01*
Y104373D01*
X139934Y104257D01*
X139584D01*
X138884Y104607D02*
X139351D01*
Y104257D01*
X139117Y104373D01*
X139001D01*
X138884Y104257D01*
Y104023D01*
X139001Y103907D01*
X139234D01*
X139351Y104023D01*
X151973Y83081D02*
X152673D01*
Y83430D01*
X152556Y83547D01*
X152323D01*
X152206Y83430D01*
Y83081D01*
Y83314D02*
X151973Y83547D01*
X152090Y83780D02*
X151973Y83897D01*
Y84130D01*
X152090Y84247D01*
X152556D01*
X152673Y84130D01*
Y83897D01*
X152556Y83780D01*
X152440D01*
X152323Y83897D01*
Y84247D01*
X151973Y84947D02*
Y84480D01*
X152440Y84947D01*
X152556D01*
X152673Y84830D01*
Y84597D01*
X152556Y84480D01*
X166015Y73599D02*
X165898Y73716D01*
Y73949D01*
X166015Y74066D01*
X166481D01*
X166598Y73949D01*
Y73716D01*
X166481Y73599D01*
X166598Y73366D02*
Y73133D01*
Y73249D01*
X165898D01*
X166015Y73366D01*
X166598Y72783D02*
Y72549D01*
Y72666D01*
X165898D01*
X166015Y72783D01*
Y72199D02*
X165898Y72083D01*
Y71850D01*
X166015Y71733D01*
X166481D01*
X166598Y71850D01*
Y72083D01*
X166481Y72199D01*
X166015D01*
X160305Y45724D02*
X160188Y45840D01*
X159955D01*
X159838Y45724D01*
Y45257D01*
X159955Y45140D01*
X160188D01*
X160305Y45257D01*
X160538D02*
X160654Y45140D01*
X160888D01*
X161004Y45257D01*
Y45724D01*
X160888Y45840D01*
X160654D01*
X160538Y45724D01*
Y45607D01*
X160654Y45490D01*
X161004D01*
X161238Y45724D02*
X161354Y45840D01*
X161587D01*
X161704Y45724D01*
Y45607D01*
X161587Y45490D01*
X161704Y45374D01*
Y45257D01*
X161587Y45140D01*
X161354D01*
X161238Y45257D01*
Y45374D01*
X161354Y45490D01*
X161238Y45607D01*
Y45724D01*
X161354Y45490D02*
X161587D01*
X160305Y40351D02*
X160188Y40468D01*
X159955D01*
X159838Y40351D01*
Y39884D01*
X159955Y39768D01*
X160188D01*
X160305Y39884D01*
X160538D02*
X160654Y39768D01*
X160888D01*
X161004Y39884D01*
Y40351D01*
X160888Y40468D01*
X160654D01*
X160538Y40351D01*
Y40234D01*
X160654Y40118D01*
X161004D01*
X161238Y40468D02*
X161704D01*
Y40351D01*
X161238Y39884D01*
Y39768D01*
X151935Y73599D02*
X151818Y73716D01*
Y73949D01*
X151935Y74066D01*
X152401D01*
X152518Y73949D01*
Y73716D01*
X152401Y73599D01*
Y73366D02*
X152518Y73249D01*
Y73016D01*
X152401Y72899D01*
X151935D01*
X151818Y73016D01*
Y73249D01*
X151935Y73366D01*
X152051D01*
X152168Y73249D01*
Y72899D01*
X152518Y72199D02*
Y72666D01*
X152051Y72199D01*
X151935D01*
X151818Y72316D01*
Y72549D01*
X151935Y72666D01*
X100150Y21375D02*
Y20792D01*
X100033Y20675D01*
X99800D01*
X99683Y20792D01*
Y21375D01*
X99450Y20675D02*
X99217D01*
X99334D01*
Y21375D01*
X99450Y21258D01*
X98867Y20675D02*
X98634D01*
X98750D01*
Y21375D01*
X98867Y21258D01*
X315349Y43171D02*
Y43871D01*
X314999D01*
X314882Y43754D01*
Y43521D01*
X314999Y43405D01*
X315349D01*
X315116D02*
X314882Y43171D01*
X314182Y43871D02*
X314649D01*
Y43521D01*
X314416Y43638D01*
X314299D01*
X314182Y43521D01*
Y43288D01*
X314299Y43171D01*
X314532D01*
X314649Y43288D01*
X313483Y43871D02*
X313716Y43754D01*
X313949Y43521D01*
Y43288D01*
X313833Y43171D01*
X313599D01*
X313483Y43288D01*
Y43405D01*
X313599Y43521D01*
X313949D01*
X313399Y36950D02*
Y36250D01*
X313749D01*
X313865Y36367D01*
Y36600D01*
X313749Y36717D01*
X313399D01*
X313632D02*
X313865Y36950D01*
X314565Y36250D02*
X314099D01*
Y36600D01*
X314332Y36483D01*
X314448D01*
X314565Y36600D01*
Y36833D01*
X314448Y36950D01*
X314215D01*
X314099Y36833D01*
X315265Y36250D02*
X314798D01*
Y36600D01*
X315032Y36483D01*
X315148D01*
X315265Y36600D01*
Y36833D01*
X315148Y36950D01*
X314915D01*
X314798Y36833D01*
%TF.MD5,e45dc0ddd0d0023eb1e65fa3496094a7*%
M02*
