M48
;Layer_Color=9474304
;FILE_FORMAT=4:3
METRIC,LZ
;TYPE=PLATED
T01F00S00C0.300
T02F00S00C0.500
T03F00S00C0.540
T04F00S00C0.700
T05F00S00C0.711
T06F00S00C0.762
T07F00S00C0.950
T08F00S00C1.000
T09F00S00C1.040
T10F00S00C1.100
T11F00S00C1.450
T12F00S00C1.700
T13F00S00C1.778
T14F00S00C2.159
T15F00S00C3.170
T16F00S00C4.000
;TYPE=NON_PLATED
T17F00S00C4.000
%
T01
X0297783Y0015338
X0297758Y0021338
X02364Y001163
X023575
X0235099
X02191Y001615
X0212355Y0017125
X0210775
X021076Y0023375
X0202395Y0024357
X02004Y00187
Y001405
X0204391Y0015071
Y0016199
X0191964Y0016332
X0193414Y0018386
X0189958Y0020608
X0191634Y0022717
X0186502Y0019238
X018475Y0019975
X0183851Y0020705
X0185195Y0015203
X0186124Y0014375
X0185351Y0012631
X018903Y0011881
X0184835Y0008569
X0183105Y000345
X01858Y0002425
X0188025
Y000345
X018235Y000418
X01816Y000497
X0180621Y00057
X0179741Y00081
Y0009132
X0177972Y0009746
X017695Y0006925
X017463Y0012631
X0173628
X0179507Y001298
X0181375Y0013742
X0179741Y0016288
X0178451
X0179238Y0019975
X01751Y00204
X0174775Y002445
X0170575Y002685
X0168725Y0021
X01676Y0019625
X0164725Y0021025
X0163675Y00201
X0163475Y0016925
X01622
X0161151Y0016157
X0160125Y001615
X01587Y0016125
X0156756Y0015631
Y001745
X01587Y0019245
X0160225Y001305
X016215Y0012915
X0157825Y0011825
X0147549Y001985
X014755Y00209
X0147549Y0021921
X0147516Y0023066
X0147482Y0024132
Y0025375
X0181468Y0025298
Y0026278
X0142521Y0016602
X0142486Y0015002
Y0013457
X0142521Y0011827
X0142521Y0010317
Y0008727
X0142556Y0007008
X0142521Y0005512
X0126267Y0007622
X0126251Y0009322
Y0010932
Y0012577
Y0014267
Y0015886
X0118825Y0014475
X0126484Y0000775
X0100245Y00268
X0021894Y0023338
X001786
X0021566Y0059264
X0022216Y0059275
X0022866
X0033565Y0053975
X004045Y0043075
X0059504Y0039114
X0065836Y0037926
X0066705Y0035068
X0066834Y0044064
X0069Y0047075
X008131Y0031079
X0083315Y0028539
X0086404Y0029775
X0088396Y0028539
X0086867Y0036579
X0111342Y0037779
X011635Y003855
X01188Y0038509
X011785Y0039975
X012Y0040975
X0122775Y0038775
X0121425Y00448
X012955Y0029025
X013975Y0035195
X0145625Y0031925
X0147775Y0031775
X0151775Y0030275
X0155875Y002845
X0155825Y00354
X016045Y0040061
X016676Y004217
X0171875Y00285
X0174775Y00293
X0176175Y0029299
X017845Y00293
X0181468Y0029299
Y0027327
X0180351Y0027568
X01849Y00298
X0187Y0028125
X0187977Y0028947
X02004Y003
X0205325Y00298
X020949Y0028975
X0213325Y0028475
X0212561Y0027607
X021915Y0036375
X021805Y0037525
X0203407Y0036515
X01981Y0035425
X01985Y00418
Y0042925
X0199717Y0040952
X0193025Y0038575
X0223625Y00364
X022475Y00375
X02271Y00386
X02447Y003985
X0246218Y00497
X0260837Y0038688
X0258Y00312
X0258002Y0029278
X0255275Y0032375
X0262412Y0037683
X0263212
X0267723Y0042432
X0277651Y0042508
X0280826Y0040368
X0282095Y00383
X0283366Y0039478
X0279555Y0037808
X0276541Y0038261
X0275225Y00327
X02707Y00338
X0269324Y00336
X0269325Y00328
X0288446Y0040368
X0283308Y00536
X0282096
X0284636Y0057597
X0284558Y0059367
X0283303Y0062712
X0285731Y0065272
X0288776Y0063982
X0298316Y0066522
X0297758Y0027363
X0313424Y0039677
X0313374Y0042354
X0301604Y0064312
X0285176Y0066982
X0017343Y0072509
X0016793Y0073091
X0016191Y0073649
X0009548Y0078817
X0005724Y0082922
X0006925Y0091125
X0005875Y01327
X0032025Y011965
T02
X028335Y00171
X0104373Y0015134
X0103373
X0104993Y0025769
X010015Y0020675
X0083225Y0023
X0084273Y0015084
X0085273
X0088975Y000896
X0076123Y0003134
X0075123
X0066573Y0002584
X0065573
X0065623Y0015209
X0066623
X007135Y0011433
X006415Y0022708
X005815Y0025139
X004515Y00223
X0046134Y0015189
X0047134
X00467Y00095
X005206Y001105
X0055848Y0003109
X0056848
X0047198Y0002584
X0046198
X00388Y00322
X005815Y0033825
X0058004Y0046789
X0053416Y0063774
X0054406Y0066571
X0050286Y0066561
X0064329Y0046739
X0071625Y0031775
X0092072Y0046819
Y0047816
X0093072
Y0046819
X0094072
Y0047816
Y0048852
X0093072
X0092072
X0158316Y0046496
X0164628Y0046525
X0158175Y0033825
X0155893Y0065931
X0152193
X0165835Y006605
X0170448Y0066051
X0252127Y0066204
X0256187Y0066184
X0259221Y0046479
X0259657Y0033818
X0239129Y005288
X0265622Y0046535
X0267489Y0064354
X0265938Y006622
X0270564Y0066204
X0268748Y007969
X0263012Y0102305
X0260472Y0102313
X0254337Y0079674
X0245161Y0087081
X0210722Y0080776
X0209722
X0208722
Y0079741
Y0078744
X0209722
Y0079741
X0210722
Y0078744
X0168573Y0079806
X0154953
X0145694Y008698
X0160985Y0102347
X0163474Y0102321
X0110475Y0081811
X0109475
X0108475
Y0080775
Y0079779
X0109475
Y0080775
X0110475
Y0079779
X0064686Y0080095
X0064836Y0066811
X0068876Y0066851
X0063881Y0102321
X0061341
X0043586Y0087818
X0050196Y0080061
X0021113Y0142805
X0020113
X0019113
X001813Y0142807
X001713
X001613
Y0143843
Y0144839
X001713
Y0143843
X001813
X0019113Y0143841
Y0144837
X001813Y0144839
Y0145875
X0019113Y0145873
X0020113
X0021113
Y0144837
Y0143841
X0020113
Y0144837
X001713Y0145875
X001613
X0298993Y0145239
Y0144242
X0299993
Y0145239
X0300993
Y0144242
Y0143207
X0299993
X0298993
X0301976Y0143205
X0302976
X0303976
Y014424
Y0145237
X0302976
Y014424
X0301976
Y0145237
Y0146272
X0302976
X0303976
X0300993Y0146274
X0299993
X0298993
X0104514Y016003
X0103514
Y0161066
Y0162062
X0104514
Y0161066
Y0163098
X0103514
X0102514
X0101514
X0100514
X0099514
X0098514
X0097514
X0096513
X0095513
X0094513
X0093513
X0092513
X0091513
X0090513
X0089513
Y0162062
Y0161066
X0090513
Y0162062
X0091513
Y0161066
X0092513
Y0162062
X0093513
Y0161066
X0094513
Y0162062
X0095513
Y0161066
X0096513
Y0162062
X0097514
Y0161066
X0098514
Y0162062
X0099514
Y0161066
X0100514
Y0162062
X0101514
Y0161066
X0102514
Y0162062
Y016003
X0101514
X0100514
X0099514
X0098514
X0097514
X0096513
X0095513
X0094513
X0093513
X0092513
X0091513
X0090513
X0089513
T03
X0066075Y000991
T04
X0195524Y0015981
Y0020861
T05
X00032Y01722
X0002075Y017335
X0001775Y0175
X0005Y01716
T06
X0270919Y0165059
X0275869
X0249058Y0165034
X0244108
X0175971Y0165004
X0171021
X0148869
X0143919
X0076135Y0164983
X0071185
X0051395Y0165059
X0046445
X00344Y0158225
X002945
X00091Y0166175
X000415
T07
X0304005Y001448
X03074
X0293135Y001441
X0293185Y0020344
X0196975Y000455
X0150475Y0007027
X014866Y0005477
Y0008727
Y0013457
Y0016602
X0150683Y0015002
X0150475Y0011827
X0152871Y0010317
X0020914Y003047
X0028765Y0046105
X0035293Y0046105
X0035545Y0060305
X0029185
X0027025Y0056685
X0046654Y006125
X0046252Y0064911
X0054714Y0045661
X0056711Y0038232
X0157008Y0038337
X0154374Y0044728
X0153823Y0057836
X0147856Y0064321
X0166439Y0057836
X0181871Y0038279
X0188161Y0037987
X0258002Y0037788
X0255223Y0046105
X0254871Y0057729
X024786Y0064326
X0267927Y0057729
X0291806Y0059367
Y0055633
X029018Y0039078
X0287475Y0035075
X0279555Y0035172
X0276609Y00349
X0293072Y0030054
X0291781Y0068959
X0298316Y0071428
X0285396Y0072651
X0278232Y0077032
X0178714Y0074317
X0081661Y0079635
X0074041Y0077404
X0037446Y0079505
Y00748
X0031815Y0078014
X00167Y0080466
X0005724Y0088112
T08
X0228024Y00135
Y001604
Y001858
Y002112
Y002366
Y00262
X0235865Y0026225
Y0023685
Y0021145
Y0018605
Y0016065
Y0013525
X017308Y00077
X017054
X0168
X016546
X016292
X016038
X0011898Y0016963
X0006564
Y0034362
X0011898
X0026343Y00344
X0025775Y0065845
X01143Y005387
Y005133
Y004879
Y004625
Y004371
Y004117
X0179331Y0045237
X0181871
X0184411
X0188161Y0045287
X0190701
X0193241
X0197177Y0045225
X0199717
X0202257
X0205992
X0208532
X0211072
X0214662
X0217202
X0219742
X0228279Y004527
Y004781
Y005035
Y005289
Y005543
Y005797
X0236279Y005796
Y005542
Y005288
Y005034
Y00478
Y004526
X0292961Y0046038
Y0048578
Y0051118
Y0043498
X0262443Y0070319
X0262368Y0075394
X0248076Y0075635
X0248151Y007056
X0162528Y0070566
X0162453Y0075641
X0148377Y007578
X0148452Y0070705
X0060881Y007107
X0060806Y0076145
X0046548
X0046623Y007107
X0025775Y0070925
Y0068385
Y0073465
T09
X0302985Y0029515
Y0032255
Y0034995
Y0037735
Y0040475
X0305825Y0039105
Y0036365
Y0033625
Y0030885
T10
X0262992Y009801
X0265532
X0268072
X0270612
X0273152
X0275692
X0278232
X0280772
X0260452
X0257912
X0255372
X0252832
X0250292
X0247752
X0245212
X0242672
X0240132
X0237592
X0181254
X0178714
X0176174
X0173634
X0171094
X0168554
X0166014
X0163474
X0160934
X0158394
X0155854
X0153314
X0150774
X0148234
X0145694
X0143154
X0140614
X0138074
X0081661Y0098029
X0079121
X0076581
X0074041
X0071501
X0068961
X0066421
X0063881
X0061341
X0058801
X0056261
X0053721
X0051181
X0048641
X0046101
X0043561
X0041021
X0038481
T11
X0024666Y0130369
X003
X0035334
X0044666
X005
X0055334
X0064666
X007
X0075334
X0084666
X009
X0095334
X0124666
X013
X0135334
X0144666
X015
X0155334
X0164666
X017
X0175334
X0184666
X019
X0195334
X0224666
X023
X0235334
X0244666
X025
X0255334
X0264666
X027
X0275334
X0284666
X029
X0295334
T12
X002639Y0010725
X002131
X0012Y0049539
Y0054619
Y0066539
X0309475Y0065
Y005992
Y007008
Y008492
Y009
Y009508
X0012Y0071619
T13
X0037562Y0107464
Y0112544
X0043562
Y0107464
X0077277Y0107512
Y0112592
X0083277
Y0107512
X0137109Y0107808
Y0112888
X0142545
Y0107808
X0177278Y0107681
Y0112761
X0183094Y0112888
Y0107808
X0236888Y010835
Y011343
X0242888
Y010835
X027738Y0108426
Y0113506
X028338
Y0108426
T14
X0259994Y0159638
Y0169544
X0159893
Y0159638
X006
Y0169544
X0037Y0164634
X002725
Y017454
X0037
X0017425
Y0164634
T15
X0304405Y0022505
Y0047495
T16
X0315Y0175
X021
X011
X0005Y0175004
T17
X002Y0138976
X016Y0140004
X03
Y0150004
X016
X002Y0149726
M30
