%TF.GenerationSoftware,Altium Limited,Altium Designer,26.1.1 (7)*%
G04 Layer_Color=16711935*
%FSLAX43Y43*%
%MOMM*%
%TF.SameCoordinates,F910D8A4-5627-44EB-A571-6FFAAA827985*%
%TF.FilePolarity,Positive*%
%TF.FileFunction,Keep-out,Top*%
%TF.Part,Single*%
G01*
G75*
%TA.AperFunction,NonConductor*%
%ADD96C,0.200*%
%ADD97C,0.254*%
D96*
X292305Y117425D02*
G03*
X292305Y115425I0J-1000D01*
G01*
X29120Y115508D02*
G03*
X29120Y117508I0J1000D01*
G01*
X23561D02*
G03*
X23561Y115508I0J-1000D01*
G01*
X13588Y117484D02*
G03*
X13588Y115484I0J-1000D01*
G01*
X19147D02*
G03*
X19147Y117484I0J1000D01*
G01*
X8000Y115425D02*
G03*
X8000Y117425I0J1000D01*
G01*
X2441D02*
G03*
X2441Y115425I0J-1000D01*
G01*
X151981Y117386D02*
G03*
X151981Y115386I0J-1000D01*
G01*
X167580D02*
G03*
X167580Y117386I0J1000D01*
G01*
X88340Y117436D02*
G03*
X88340Y115436I0J-1000D01*
G01*
X103940D02*
G03*
X103940Y117436I0J1000D01*
G01*
X116190Y117386D02*
G03*
X116190Y115386I0J-1000D01*
G01*
X131790D02*
G03*
X131790Y117386I0J1000D01*
G01*
X52794Y117450D02*
G03*
X52794Y115450I0J-1000D01*
G01*
X68393D02*
G03*
X68393Y117450I0J1000D01*
G01*
X188165Y117361D02*
G03*
X188165Y115361I0J-1000D01*
G01*
X203765D02*
G03*
X203765Y117361I0J1000D01*
G01*
X215965Y117386D02*
G03*
X215965Y115386I0J-1000D01*
G01*
X231565D02*
G03*
X231565Y117386I0J1000D01*
G01*
X251265Y117436D02*
G03*
X251265Y115436I0J-1000D01*
G01*
X266865D02*
G03*
X266865Y117436I0J1000D01*
G01*
X307904Y115425D02*
G03*
X307904Y117425I0J1000D01*
G01*
X54537Y54881D02*
G03*
X54537Y51881I0J-1500D01*
G01*
X65136D02*
G03*
X65136Y54881I0J1500D01*
G01*
X266427Y51384D02*
G03*
X266427Y54384I0J1500D01*
G01*
X255828D02*
G03*
X255828Y51384I0J-1500D01*
G01*
X320000Y175004D02*
G03*
X315000Y180004I-5000J0D01*
G01*
X5000D02*
G03*
X0Y175004I0J-5000D01*
G01*
X315000Y0D02*
G03*
X320000Y5000I0J5000D01*
G01*
X0D02*
G03*
X5000Y0I5000J0D01*
G01*
X154883Y54501D02*
G03*
X154883Y51501I0J-1500D01*
G01*
X165483D02*
G03*
X165483Y54501I0J1500D01*
G01*
X23561Y117508D02*
X29120D01*
X23561Y115508D02*
X29120D01*
X13588Y115483D02*
X19147D01*
X13588Y117483D02*
X19147D01*
X2441Y117425D02*
X8000D01*
X2441Y115425D02*
X8000D01*
X52794Y115450D02*
X68393Y115450D01*
X151981Y115385D02*
X167580Y115385D01*
X151981Y117385D02*
X167580Y117385D01*
X88340Y115435D02*
X103940Y115435D01*
X88340Y117435D02*
X103940Y117435D01*
X116190Y115385D02*
X131790Y115385D01*
X116190Y117385D02*
X131790Y117385D01*
X52794Y117450D02*
X68393Y117450D01*
X188165Y115360D02*
X203765Y115360D01*
X188165Y117360D02*
X203765Y117360D01*
X215965Y115385D02*
X231565Y115385D01*
X215965Y117385D02*
X231565Y117385D01*
X251265Y115435D02*
X266865Y115435D01*
X251265Y117435D02*
X266865Y117435D01*
X292305Y117425D02*
X307904Y117425D01*
X292305Y115425D02*
X307904Y115425D01*
X54537Y54881D02*
X65136D01*
X54540Y51881D02*
X65136D01*
X255828Y54384D02*
X266427D01*
X255830Y51384D02*
X266427D01*
X-0Y175004D02*
X-0Y5000D01*
X5000Y180011D02*
X315000Y180011D01*
X5000Y0D02*
X315000Y0D01*
X319999Y5000D02*
X319999Y175004D01*
X154886Y51501D02*
X165483D01*
X154883Y54501D02*
X165483D01*
D97*
X112000Y5000D02*
G03*
X112000Y5000I-2000J0D01*
G01*
Y110004D02*
G03*
X112000Y110004I-2000J0D01*
G01*
X212000D02*
G03*
X212000Y110004I-2000J0D01*
G01*
Y5000D02*
G03*
X212000Y5000I-2000J0D01*
G01*
X317000Y110004D02*
G03*
X317000Y110004I-2000J0D01*
G01*
X7000D02*
G03*
X7000Y110004I-2000J0D01*
G01*
Y5000D02*
G03*
X7000Y5000I-2000J0D01*
G01*
X317000D02*
G03*
X317000Y5000I-2000J0D01*
G01*
%TF.MD5,0f14bad3149a4c7eb18b2395f773a2d8*%
M02*
