%TF.GenerationSoftware,Altium Limited,Altium Designer,26.1.1 (7)*%
G04 Layer_Color=128*
%FSLAX43Y43*%
%MOMM*%
%TF.SameCoordinates,F910D8A4-5627-44EB-A571-6FFAAA827985*%
%TF.FilePolarity,Positive*%
%TF.FileFunction,Paste,Bot*%
%TF.Part,Single*%
G01*
G75*
%TA.AperFunction,SMDPad,CuDef*%
%ADD12R,0.800X1.250*%
%ADD13R,1.250X0.800*%
%ADD56R,0.600X1.800*%
G04:AMPARAMS|DCode=57|XSize=2.2mm|YSize=4mm|CornerRadius=0.649mm|HoleSize=0mm|Usage=FLASHONLY|Rotation=90.000|XOffset=0mm|YOffset=0mm|HoleType=Round|Shape=RoundedRectangle|*
%AMROUNDEDRECTD57*
21,1,2.200,2.702,0,0,90.0*
21,1,0.902,4.000,0,0,90.0*
1,1,1.298,1.351,0.451*
1,1,1.298,1.351,-0.451*
1,1,1.298,-1.351,-0.451*
1,1,1.298,-1.351,0.451*
%
%ADD57ROUNDEDRECTD57*%
G04:AMPARAMS|DCode=58|XSize=2.6mm|YSize=1.2mm|CornerRadius=0.6mm|HoleSize=0mm|Usage=FLASHONLY|Rotation=90.000|XOffset=0mm|YOffset=0mm|HoleType=Round|Shape=RoundedRectangle|*
%AMROUNDEDRECTD58*
21,1,2.600,0.000,0,0,90.0*
21,1,1.400,1.200,0,0,90.0*
1,1,1.200,0.000,0.700*
1,1,1.200,0.000,-0.700*
1,1,1.200,0.000,-0.700*
1,1,1.200,0.000,0.700*
%
%ADD58ROUNDEDRECTD58*%
%ADD59R,1.200X2.600*%
%ADD60R,2.400X2.400*%
%ADD61O,0.650X1.900*%
%ADD62R,1.788X0.312*%
G04:AMPARAMS|DCode=63|XSize=1.788mm|YSize=0.312mm|CornerRadius=0.156mm|HoleSize=0mm|Usage=FLASHONLY|Rotation=180.000|XOffset=0mm|YOffset=0mm|HoleType=Round|Shape=RoundedRectangle|*
%AMROUNDEDRECTD63*
21,1,1.788,0.000,0,0,180.0*
21,1,1.476,0.312,0,0,180.0*
1,1,0.312,-0.738,0.000*
1,1,0.312,0.738,0.000*
1,1,0.312,0.738,0.000*
1,1,0.312,-0.738,0.000*
%
%ADD63ROUNDEDRECTD63*%
G04:AMPARAMS|DCode=64|XSize=0.312mm|YSize=1.788mm|CornerRadius=0.156mm|HoleSize=0mm|Usage=FLASHONLY|Rotation=180.000|XOffset=0mm|YOffset=0mm|HoleType=Round|Shape=RoundedRectangle|*
%AMROUNDEDRECTD64*
21,1,0.312,1.476,0,0,180.0*
21,1,0.000,1.788,0,0,180.0*
1,1,0.312,0.000,0.738*
1,1,0.312,0.000,0.738*
1,1,0.312,0.000,-0.738*
1,1,0.312,0.000,-0.738*
%
%ADD64ROUNDEDRECTD64*%
%ADD65R,1.262X0.958*%
%ADD66R,2.500X2.200*%
G04:AMPARAMS|DCode=67|XSize=0.55mm|YSize=1.7mm|CornerRadius=0.05mm|HoleSize=0mm|Usage=FLASHONLY|Rotation=90.000|XOffset=0mm|YOffset=0mm|HoleType=Round|Shape=RoundedRectangle|*
%AMROUNDEDRECTD67*
21,1,0.550,1.601,0,0,90.0*
21,1,0.451,1.700,0,0,90.0*
1,1,0.099,0.800,0.226*
1,1,0.099,0.800,-0.226*
1,1,0.099,-0.800,-0.226*
1,1,0.099,-0.800,0.226*
%
%ADD67ROUNDEDRECTD67*%
%ADD68R,2.200X2.500*%
%ADD69R,0.616X1.308*%
G04:AMPARAMS|DCode=70|XSize=1.308mm|YSize=0.616mm|CornerRadius=0.308mm|HoleSize=0mm|Usage=FLASHONLY|Rotation=90.000|XOffset=0mm|YOffset=0mm|HoleType=Round|Shape=RoundedRectangle|*
%AMROUNDEDRECTD70*
21,1,1.308,0.000,0,0,90.0*
21,1,0.692,0.616,0,0,90.0*
1,1,0.616,0.000,0.346*
1,1,0.616,0.000,-0.346*
1,1,0.616,0.000,-0.346*
1,1,0.616,0.000,0.346*
%
%ADD70ROUNDEDRECTD70*%
G04:AMPARAMS|DCode=71|XSize=1.655mm|YSize=0.602mm|CornerRadius=0.301mm|HoleSize=0mm|Usage=FLASHONLY|Rotation=90.000|XOffset=0mm|YOffset=0mm|HoleType=Round|Shape=RoundedRectangle|*
%AMROUNDEDRECTD71*
21,1,1.655,0.000,0,0,90.0*
21,1,1.053,0.602,0,0,90.0*
1,1,0.602,0.000,0.526*
1,1,0.602,0.000,-0.526*
1,1,0.602,0.000,-0.526*
1,1,0.602,0.000,0.526*
%
%ADD71ROUNDEDRECTD71*%
%ADD72R,0.602X1.655*%
%ADD73R,0.900X0.650*%
%ADD74R,1.205X2.706*%
%ADD75R,3.050X1.016*%
%ADD76R,8.380X10.660*%
%ADD77R,3.200X1.520*%
%ADD78R,0.600X1.050*%
%ADD79R,1.700X2.500*%
%ADD80R,1.450X1.800*%
%ADD81O,1.500X0.600*%
%ADD82R,1.500X0.600*%
%ADD83R,0.950X1.900*%
%ADD84R,3.250X1.900*%
%ADD85R,0.950X1.350*%
%ADD86O,0.700X2.600*%
%ADD87R,2.400X2.400*%
%ADD88R,1.980X0.530*%
D12*
X286452Y127004D02*
D03*
X288452D02*
D03*
X246320D02*
D03*
X248320D02*
D03*
X226406D02*
D03*
X228406D02*
D03*
X186376Y127010D02*
D03*
X188376D02*
D03*
X166361Y127061D02*
D03*
X168361D02*
D03*
X146422D02*
D03*
X148422D02*
D03*
X126279Y127036D02*
D03*
X128279D02*
D03*
X86439Y127004D02*
D03*
X88439D02*
D03*
X187386Y5700D02*
D03*
X189386D02*
D03*
X189385Y7600D02*
D03*
X187385D02*
D03*
X46700Y8105D02*
D03*
X44700D02*
D03*
X209475Y15574D02*
D03*
X207475D02*
D03*
X189977Y25942D02*
D03*
X187977D02*
D03*
X124820Y4522D02*
D03*
X126820D02*
D03*
Y6077D02*
D03*
X124820D02*
D03*
X126820Y7622D02*
D03*
X124820D02*
D03*
X141896Y11827D02*
D03*
X143896D02*
D03*
X141896Y10317D02*
D03*
X143896D02*
D03*
X141896Y13457D02*
D03*
X143896D02*
D03*
X126820Y10932D02*
D03*
X124820D02*
D03*
X126820Y9292D02*
D03*
X124820D02*
D03*
X141896Y16602D02*
D03*
X143896D02*
D03*
X141896Y15002D02*
D03*
X143896D02*
D03*
X126820Y12577D02*
D03*
X124820D02*
D03*
X126820Y15886D02*
D03*
X124820D02*
D03*
X126820Y14267D02*
D03*
X124820D02*
D03*
X129421Y19077D02*
D03*
X131421D02*
D03*
X141896Y7057D02*
D03*
X143896D02*
D03*
X141896Y5512D02*
D03*
X143896D02*
D03*
X141896Y8727D02*
D03*
X143896D02*
D03*
X309174Y36600D02*
D03*
X311174D02*
D03*
X20848Y25040D02*
D03*
X18848D02*
D03*
Y21476D02*
D03*
X20848D02*
D03*
X20848Y23338D02*
D03*
X18848D02*
D03*
X16327Y31440D02*
D03*
X14327D02*
D03*
X16700Y85825D02*
D03*
X18700D02*
D03*
X16723Y87913D02*
D03*
X18723D02*
D03*
X16725Y89975D02*
D03*
X18725D02*
D03*
X39075Y103998D02*
D03*
X41075D02*
D03*
X53366Y66531D02*
D03*
X51366D02*
D03*
X61796Y37253D02*
D03*
X59796D02*
D03*
X67876Y66811D02*
D03*
X65876D02*
D03*
X81299Y104276D02*
D03*
X79299D02*
D03*
X67784Y41004D02*
D03*
X65784D02*
D03*
X65834Y47150D02*
D03*
X67834D02*
D03*
X65784Y39083D02*
D03*
X67784D02*
D03*
X269457Y66204D02*
D03*
X267457D02*
D03*
X262812Y36734D02*
D03*
X260812D02*
D03*
X253087Y66164D02*
D03*
X255087D02*
D03*
X238852Y105268D02*
D03*
X240852D02*
D03*
X266724Y39333D02*
D03*
X268724D02*
D03*
X281340Y105243D02*
D03*
X279340D02*
D03*
X268724Y37631D02*
D03*
X266724D02*
D03*
X268759Y45175D02*
D03*
X266759D02*
D03*
X8002Y161979D02*
D03*
X10002D02*
D03*
X8798Y78817D02*
D03*
X6798D02*
D03*
X6976Y84922D02*
D03*
X8976D02*
D03*
X193040Y8235D02*
D03*
X191040D02*
D03*
X191025Y9896D02*
D03*
X193025D02*
D03*
X191064Y6465D02*
D03*
X193064D02*
D03*
X68310Y126934D02*
D03*
X66310D02*
D03*
X48498Y127004D02*
D03*
X46498D02*
D03*
X28432Y127036D02*
D03*
X26432D02*
D03*
X4116Y159392D02*
D03*
X6116D02*
D03*
X268335Y127004D02*
D03*
X266335D02*
D03*
X312099Y43521D02*
D03*
X310099D02*
D03*
X159811Y38030D02*
D03*
X161811D02*
D03*
X167709Y39173D02*
D03*
X165709D02*
D03*
Y37268D02*
D03*
X167709D02*
D03*
X165862Y45142D02*
D03*
X167862D02*
D03*
X209475Y17350D02*
D03*
X207475D02*
D03*
X181179Y104257D02*
D03*
X179179D02*
D03*
X33365Y55148D02*
D03*
X31365D02*
D03*
X33365Y60305D02*
D03*
X31365D02*
D03*
X295150Y16193D02*
D03*
X297150D02*
D03*
X295150Y14425D02*
D03*
X297150D02*
D03*
Y24189D02*
D03*
X295150D02*
D03*
X295150Y22252D02*
D03*
X297150D02*
D03*
X295150Y20348D02*
D03*
X297150D02*
D03*
Y18025D02*
D03*
X295150D02*
D03*
X295161Y28224D02*
D03*
X297161D02*
D03*
X297161Y30054D02*
D03*
X295161D02*
D03*
X295161Y26425D02*
D03*
X297161D02*
D03*
X297916Y68507D02*
D03*
X299916D02*
D03*
X300516Y63437D02*
D03*
X298516D02*
D03*
X289176Y66982D02*
D03*
X287176D02*
D03*
X289176Y65252D02*
D03*
X287176D02*
D03*
Y62712D02*
D03*
X289176D02*
D03*
X287176Y59367D02*
D03*
X289176D02*
D03*
X285396Y70487D02*
D03*
X283396D02*
D03*
X138775Y104257D02*
D03*
X140775D02*
D03*
X169353Y66050D02*
D03*
X167353D02*
D03*
X155073Y65950D02*
D03*
X153073D02*
D03*
X313374Y43521D02*
D03*
X315374D02*
D03*
X313374Y36600D02*
D03*
X315374D02*
D03*
D13*
X185800Y3750D02*
D03*
Y5750D02*
D03*
X181871Y42193D02*
D03*
Y40193D02*
D03*
X180081D02*
D03*
Y42193D02*
D03*
X188161Y42127D02*
D03*
Y40127D02*
D03*
X190701D02*
D03*
Y42127D02*
D03*
X183684Y29787D02*
D03*
Y27787D02*
D03*
X28125Y74900D02*
D03*
Y72900D02*
D03*
X8975Y88512D02*
D03*
Y86512D02*
D03*
X100150Y13550D02*
D03*
Y15550D02*
D03*
X69060Y3333D02*
D03*
Y5333D02*
D03*
X26094Y83900D02*
D03*
Y81900D02*
D03*
X20550Y89950D02*
D03*
Y87950D02*
D03*
X66150Y19681D02*
D03*
Y21681D02*
D03*
X71350Y3333D02*
D03*
Y5333D02*
D03*
X28150Y63900D02*
D03*
Y65900D02*
D03*
X46599Y72645D02*
D03*
Y74645D02*
D03*
X60857D02*
D03*
Y72645D02*
D03*
X262418Y71894D02*
D03*
Y73894D02*
D03*
X248127Y74135D02*
D03*
Y72135D02*
D03*
X193040Y2550D02*
D03*
Y4550D02*
D03*
X144666Y125004D02*
D03*
Y127004D02*
D03*
X124638Y125004D02*
D03*
Y127004D02*
D03*
X244666Y125004D02*
D03*
Y127004D02*
D03*
X164666Y125004D02*
D03*
Y127004D02*
D03*
X184709Y125004D02*
D03*
Y127004D02*
D03*
X224663Y125004D02*
D03*
Y127004D02*
D03*
X284633Y125004D02*
D03*
Y127004D02*
D03*
X264666Y125004D02*
D03*
Y127004D02*
D03*
X24638Y125004D02*
D03*
Y127004D02*
D03*
X44666Y125004D02*
D03*
Y127004D02*
D03*
X84666Y125004D02*
D03*
Y127004D02*
D03*
X64666Y125004D02*
D03*
Y127004D02*
D03*
X4354Y157874D02*
D03*
Y155874D02*
D03*
X6183Y157874D02*
D03*
Y155874D02*
D03*
X205725Y20175D02*
D03*
Y22175D02*
D03*
X84800Y19575D02*
D03*
Y21575D02*
D03*
X32995Y46105D02*
D03*
Y48105D02*
D03*
X33375Y56675D02*
D03*
Y58675D02*
D03*
X31365Y56675D02*
D03*
Y58675D02*
D03*
X31185Y48105D02*
D03*
Y46105D02*
D03*
X35293Y53325D02*
D03*
Y51325D02*
D03*
X282095Y39078D02*
D03*
Y37078D02*
D03*
X276520D02*
D03*
Y39078D02*
D03*
X279555Y37078D02*
D03*
Y39078D02*
D03*
X284635D02*
D03*
Y37078D02*
D03*
X162503Y74141D02*
D03*
Y72141D02*
D03*
X148427Y72140D02*
D03*
Y74140D02*
D03*
X295483Y43648D02*
D03*
Y45648D02*
D03*
X86625Y5825D02*
D03*
Y3825D02*
D03*
X49771Y5100D02*
D03*
Y3100D02*
D03*
X88925Y5825D02*
D03*
Y3825D02*
D03*
X97850Y13550D02*
D03*
Y15550D02*
D03*
X46661Y21525D02*
D03*
Y19525D02*
D03*
X52011Y5100D02*
D03*
Y3100D02*
D03*
D56*
X30545Y74800D02*
D03*
X31815D02*
D03*
X33085D02*
D03*
X34355D02*
D03*
Y63900D02*
D03*
X33085D02*
D03*
X31815D02*
D03*
X30545D02*
D03*
D57*
X52060Y14195D02*
D03*
X71350Y14477D02*
D03*
D58*
X49770Y7405D02*
D03*
X52060D02*
D03*
X69060Y7687D02*
D03*
X71350D02*
D03*
D59*
X54350Y7405D02*
D03*
X73640Y7687D02*
D03*
D60*
X172034Y89771D02*
D03*
X167153D02*
D03*
X267167Y89904D02*
D03*
X272048D02*
D03*
X252927Y89864D02*
D03*
X257808D02*
D03*
X70797Y90131D02*
D03*
X65916D02*
D03*
X56317D02*
D03*
X51436D02*
D03*
X153193Y89761D02*
D03*
X158074D02*
D03*
D61*
X212030Y20225D02*
D03*
X210760D02*
D03*
X209490D02*
D03*
X208220D02*
D03*
X212030Y27525D02*
D03*
X210760D02*
D03*
X209490D02*
D03*
X208220D02*
D03*
D62*
X188292Y20631D02*
D03*
D63*
Y20131D02*
D03*
Y19631D02*
D03*
Y19131D02*
D03*
Y18631D02*
D03*
Y18131D02*
D03*
Y17631D02*
D03*
Y17131D02*
D03*
Y16631D02*
D03*
Y16131D02*
D03*
Y15631D02*
D03*
Y15131D02*
D03*
Y14631D02*
D03*
Y14131D02*
D03*
Y13631D02*
D03*
Y13131D02*
D03*
X176910D02*
D03*
Y13631D02*
D03*
Y14131D02*
D03*
Y14631D02*
D03*
Y15131D02*
D03*
Y15631D02*
D03*
Y16131D02*
D03*
Y16631D02*
D03*
Y17131D02*
D03*
Y17631D02*
D03*
Y18131D02*
D03*
Y18631D02*
D03*
Y19131D02*
D03*
Y19631D02*
D03*
Y20131D02*
D03*
Y20631D02*
D03*
D64*
X186351Y11190D02*
D03*
X185851D02*
D03*
X185351D02*
D03*
X184851D02*
D03*
X184351D02*
D03*
X183851D02*
D03*
X183351D02*
D03*
X182851D02*
D03*
X182351D02*
D03*
X181851D02*
D03*
X181351D02*
D03*
X180851D02*
D03*
X180351D02*
D03*
X179851D02*
D03*
X179351D02*
D03*
X178851D02*
D03*
Y22573D02*
D03*
X179351D02*
D03*
X179851D02*
D03*
X180351D02*
D03*
X180851D02*
D03*
X181351D02*
D03*
X181851D02*
D03*
X182351D02*
D03*
X182851D02*
D03*
X183351D02*
D03*
X183851D02*
D03*
X184351D02*
D03*
X184851D02*
D03*
X185351D02*
D03*
X185851D02*
D03*
X186351D02*
D03*
D65*
X193414Y16015D02*
D03*
Y17469D02*
D03*
X193447Y20702D02*
D03*
Y19248D02*
D03*
D66*
X22125Y74200D02*
D03*
Y81100D02*
D03*
X22225Y67788D02*
D03*
Y60888D02*
D03*
X64686Y70181D02*
D03*
Y77081D02*
D03*
X50321Y77095D02*
D03*
Y70195D02*
D03*
X251787Y76374D02*
D03*
Y69474D02*
D03*
X266088Y69444D02*
D03*
Y76344D02*
D03*
X202400Y18700D02*
D03*
Y25600D02*
D03*
X166273Y76591D02*
D03*
Y69691D02*
D03*
X152193Y76591D02*
D03*
Y69691D02*
D03*
D67*
X138471Y16942D02*
D03*
Y15672D02*
D03*
Y14402D02*
D03*
Y13132D02*
D03*
Y11862D02*
D03*
Y10592D02*
D03*
Y9322D02*
D03*
Y8052D02*
D03*
Y6782D02*
D03*
Y5512D02*
D03*
X129171Y16942D02*
D03*
Y15672D02*
D03*
Y14402D02*
D03*
Y13132D02*
D03*
Y11862D02*
D03*
Y10592D02*
D03*
Y9322D02*
D03*
Y8052D02*
D03*
Y6782D02*
D03*
Y5512D02*
D03*
D68*
X129400Y22500D02*
D03*
X136300D02*
D03*
X59796Y33818D02*
D03*
X66696D02*
D03*
X260989Y33233D02*
D03*
X267889D02*
D03*
X159875Y33350D02*
D03*
X166775D02*
D03*
D69*
X315324Y38850D02*
D03*
D70*
X313424D02*
D03*
X314374Y41200D02*
D03*
D71*
X310149Y41050D02*
D03*
X309199Y39100D02*
D03*
D72*
X311099D02*
D03*
D73*
X6598Y81000D02*
D03*
Y81950D02*
D03*
Y82900D02*
D03*
X8998D02*
D03*
Y81000D02*
D03*
X31165Y52325D02*
D03*
X33565Y51375D02*
D03*
Y53275D02*
D03*
X31165D02*
D03*
Y51375D02*
D03*
D74*
X15774Y92675D02*
D03*
X18676D02*
D03*
D75*
X16335Y21636D02*
D03*
Y23338D02*
D03*
Y25040D02*
D03*
Y26742D02*
D03*
Y28444D02*
D03*
D76*
X6030Y25040D02*
D03*
D77*
X25004Y20481D02*
D03*
Y26691D02*
D03*
D78*
X66834Y45214D02*
D03*
X65884Y42914D02*
D03*
X67784D02*
D03*
X268725Y41053D02*
D03*
X266825D02*
D03*
X267775Y43353D02*
D03*
X166760Y43320D02*
D03*
X165810Y41020D02*
D03*
X167710D02*
D03*
D79*
X46406Y85261D02*
D03*
Y81261D02*
D03*
X60816Y81445D02*
D03*
Y85445D02*
D03*
X247730Y81204D02*
D03*
Y85204D02*
D03*
X262107Y80965D02*
D03*
Y84965D02*
D03*
X161953Y81081D02*
D03*
Y85081D02*
D03*
X148143Y81081D02*
D03*
Y85081D02*
D03*
D80*
X63401Y80170D02*
D03*
Y86720D02*
D03*
X65851Y80170D02*
D03*
Y86720D02*
D03*
X51421Y86536D02*
D03*
Y79986D02*
D03*
X48971Y86536D02*
D03*
Y79986D02*
D03*
X53791Y70370D02*
D03*
Y76920D02*
D03*
X56241Y70370D02*
D03*
Y76920D02*
D03*
X70851Y76906D02*
D03*
Y70356D02*
D03*
X68401Y76906D02*
D03*
Y70356D02*
D03*
X252927Y86234D02*
D03*
Y79684D02*
D03*
X250477Y86234D02*
D03*
Y79684D02*
D03*
X255232Y69939D02*
D03*
Y76489D02*
D03*
X257682Y69939D02*
D03*
Y76489D02*
D03*
X264732Y79690D02*
D03*
Y86240D02*
D03*
X267182Y79690D02*
D03*
Y86240D02*
D03*
X271923Y76429D02*
D03*
Y69879D02*
D03*
X269473Y76429D02*
D03*
Y69879D02*
D03*
X20825Y105775D02*
D03*
Y112325D02*
D03*
X23275Y105775D02*
D03*
Y112325D02*
D03*
X16275Y99175D02*
D03*
Y105725D02*
D03*
X18725Y99175D02*
D03*
Y105725D02*
D03*
X20775Y92600D02*
D03*
Y99150D02*
D03*
X23225Y92600D02*
D03*
Y99150D02*
D03*
X169678Y69866D02*
D03*
Y76416D02*
D03*
X172128Y69866D02*
D03*
Y76416D02*
D03*
X167078Y86356D02*
D03*
Y79806D02*
D03*
X164628Y86356D02*
D03*
Y79806D02*
D03*
X158128Y76416D02*
D03*
Y69866D02*
D03*
X155678Y76416D02*
D03*
Y69866D02*
D03*
X153198Y86356D02*
D03*
Y79806D02*
D03*
X150748Y86356D02*
D03*
Y79806D02*
D03*
D81*
X8034Y160450D02*
D03*
X14034Y159180D02*
D03*
Y157910D02*
D03*
Y156640D02*
D03*
X8034Y159180D02*
D03*
Y157910D02*
D03*
Y156640D02*
D03*
D82*
X14034Y160450D02*
D03*
D83*
X86625Y7950D02*
D03*
X91225D02*
D03*
X88925D02*
D03*
X97850Y17625D02*
D03*
X102450D02*
D03*
X100150D02*
D03*
D84*
X88925Y14050D02*
D03*
X100150Y23725D02*
D03*
D85*
X282953Y56922D02*
D03*
X281453D02*
D03*
D86*
X288446Y42143D02*
D03*
X285906D02*
D03*
X284636D02*
D03*
X283366D02*
D03*
X282096D02*
D03*
X280826D02*
D03*
X288446Y51393D02*
D03*
X287176D02*
D03*
X285906D02*
D03*
X284636D02*
D03*
X283366D02*
D03*
X282096D02*
D03*
X280826D02*
D03*
X279556D02*
D03*
X287176Y42143D02*
D03*
X279556D02*
D03*
D87*
X302946Y71428D02*
D03*
Y66547D02*
D03*
Y57581D02*
D03*
Y62462D02*
D03*
D88*
X291781Y62712D02*
D03*
Y63982D02*
D03*
Y65252D02*
D03*
Y66522D02*
D03*
X296711D02*
D03*
Y65252D02*
D03*
Y63982D02*
D03*
Y62712D02*
D03*
%TF.MD5,ea90dcf3092fdc01d3acccc15286becb*%
M02*
