%TF.GenerationSoftware,Altium Limited,Altium Designer,26.1.1 (7)*%
G04 Layer_Color=65535*
%FSLAX43Y43*%
%MOMM*%
%TF.SameCoordinates,F910D8A4-5627-44EB-A571-6FFAAA827985*%
%TF.FilePolarity,Positive*%
%TF.FileFunction,Legend,Top*%
%TF.Part,Single*%
G01*
G75*
%TA.AperFunction,NonConductor*%
%ADD92C,2.000*%
%ADD93C,0.250*%
%ADD95C,0.500*%
%ADD96C,0.200*%
%ADD97C,0.254*%
%ADD99C,0.635*%
%ADD110C,0.400*%
%ADD111C,0.508*%
%ADD112R,20.066X1.143*%
D92*
X113000Y5000D02*
G03*
X113000Y5000I-3000J0D01*
G01*
Y110004D02*
G03*
X113000Y110004I-3000J0D01*
G01*
X213000D02*
G03*
X213000Y110004I-3000J0D01*
G01*
Y5000D02*
G03*
X213000Y5000I-3000J0D01*
G01*
X318000Y110004D02*
G03*
X318000Y110004I-3000J0D01*
G01*
X8000D02*
G03*
X8000Y110004I-3000J0D01*
G01*
Y5000D02*
G03*
X8000Y5000I-3000J0D01*
G01*
X318000D02*
G03*
X318000Y5000I-3000J0D01*
G01*
D93*
X25900Y63255D02*
G03*
X25900Y63255I-125J0D01*
G01*
X32375Y36775D02*
G03*
X32375Y36775I-125J0D01*
G01*
X32250Y25486D02*
G03*
X32250Y25486I-125J0D01*
G01*
X300750Y29520D02*
G03*
X300750Y29520I-125J0D01*
G01*
X197302Y48925D02*
G03*
X197302Y48925I-125J0D01*
G01*
X214787D02*
G03*
X214787Y48925I-125J0D01*
G01*
X188286Y48987D02*
G03*
X188286Y48987I-125J0D01*
G01*
X206117Y48925D02*
G03*
X206117Y48925I-125J0D01*
G01*
X179456Y48937D02*
G03*
X179456Y48937I-125J0D01*
G01*
X110575Y53870D02*
G03*
X110575Y53870I-125J0D01*
G01*
X105655Y60341D02*
G03*
X105655Y60341I-125J0D01*
G01*
Y57341D02*
G03*
X105655Y57341I-125J0D01*
G01*
Y66229D02*
G03*
X105655Y66229I-125J0D01*
G01*
Y63220D02*
G03*
X105655Y63220I-125J0D01*
G01*
Y54341D02*
G03*
X105655Y54341I-125J0D01*
G01*
X105680Y43191D02*
G03*
X105680Y43191I-125J0D01*
G01*
Y46191D02*
G03*
X105680Y46191I-125J0D01*
G01*
Y40191D02*
G03*
X105680Y40191I-125J0D01*
G01*
X66200Y2350D02*
G03*
X66200Y2350I-125J0D01*
G01*
X55566Y47101D02*
G03*
X55566Y47101I-125J0D01*
G01*
X256857Y46604D02*
G03*
X256857Y46604I-125J0D01*
G01*
X75700Y15233D02*
G03*
X75700Y15233I-125J0D01*
G01*
X160505Y3850D02*
G03*
X160505Y3850I-125J0D01*
G01*
X293086Y40908D02*
G03*
X293086Y40908I-125J0D01*
G01*
X274050Y20225D02*
G03*
X274050Y20225I-125J0D01*
G01*
X224554Y57970D02*
G03*
X224554Y57970I-125J0D01*
G01*
X276641Y39268D02*
G03*
X276641Y39268I-125J0D01*
G01*
X232554Y57960D02*
G03*
X232554Y57960I-125J0D01*
G01*
X155863Y46711D02*
G03*
X155863Y46711I-125J0D01*
G01*
X275125Y43619D02*
G03*
X275125Y43619I-125J0D01*
G01*
X93250Y15233D02*
G03*
X93250Y15233I-125J0D01*
G01*
X56425D02*
G03*
X56425Y15233I-125J0D01*
G01*
X46825Y2350D02*
G03*
X46825Y2350I-125J0D01*
G01*
D95*
X17353Y16963D02*
G03*
X17353Y16963I-8122J0D01*
G01*
Y34362D02*
G03*
X17353Y34362I-8122J0D01*
G01*
X55711Y50676D02*
G03*
X55711Y50676I-250J0D01*
G01*
X257002Y50179D02*
G03*
X257002Y50179I-250J0D01*
G01*
X156008Y50286D02*
G03*
X156008Y50286I-250J0D01*
G01*
X20076Y104276D02*
X100076D01*
X20076Y83826D02*
X100076D01*
X20076D02*
Y104276D01*
X100076Y83826D02*
Y104276D01*
X119669Y104257D02*
X199669D01*
X119669Y83807D02*
X199669D01*
X119669D02*
Y104257D01*
X199669Y83807D02*
Y104257D01*
X299187Y83807D02*
Y104257D01*
X219187Y83807D02*
Y104257D01*
Y83807D02*
X299187D01*
X219187Y104257D02*
X299187D01*
X457Y116418D02*
X319583Y116418D01*
X303590Y65918D02*
X303257Y65584D01*
Y64918D01*
X303590Y64585D01*
X304923D01*
X305256Y64918D01*
Y65584D01*
X304923Y65918D01*
X304257D01*
Y65251D01*
X303359Y90558D02*
X303026Y90225D01*
Y89558D01*
X303359Y89225D01*
X304692D01*
X305025Y89558D01*
Y90225D01*
X304692Y90558D01*
X304025D01*
Y89891D01*
X303236Y59332D02*
X305236D01*
Y60331D01*
X304902Y60665D01*
X304569D01*
X304236Y60331D01*
Y59332D01*
Y60331D01*
X303903Y60665D01*
X303570D01*
X303236Y60331D01*
Y59332D01*
X303026Y84325D02*
X305025D01*
Y85325D01*
X304692Y85658D01*
X304359D01*
X304025Y85325D01*
Y84325D01*
Y85325D01*
X303692Y85658D01*
X303359D01*
X303026Y85325D01*
Y84325D01*
X305129Y69566D02*
X303796D01*
X303129Y70233D01*
X303796Y70899D01*
X305129D01*
X304129D01*
Y69566D01*
X304925Y94425D02*
X303592D01*
X302926Y95091D01*
X303592Y95758D01*
X304925D01*
X303925D01*
Y94425D01*
X247610Y110146D02*
Y109146D01*
X248360D01*
X248110Y109646D01*
Y109896D01*
X248360Y110146D01*
X248860D01*
X249110Y109896D01*
Y109396D01*
X248860Y109146D01*
X249360Y110646D02*
Y111645D01*
X247610Y113145D02*
Y112145D01*
X249110D01*
Y113145D01*
X248360Y112145D02*
Y112645D01*
X31711Y108511D02*
Y109011D01*
Y108761D01*
X30212D01*
X30462Y108511D01*
X31961Y109761D02*
Y110760D01*
X30462Y112260D02*
X30212Y112010D01*
Y111510D01*
X30462Y111260D01*
X31461D01*
X31711Y111510D01*
Y112010D01*
X31461Y112260D01*
X30962D01*
Y111760D01*
X50253Y108333D02*
Y108833D01*
Y108583D01*
X48754D01*
X49004Y108333D01*
X50503Y109583D02*
Y110582D01*
X48754Y112082D02*
Y111082D01*
X50253D01*
Y112082D01*
X49504Y111082D02*
Y111582D01*
X88429Y108749D02*
Y107749D01*
X87430Y108749D01*
X87180D01*
X86930Y108499D01*
Y107999D01*
X87180Y107749D01*
X88679Y109249D02*
Y110248D01*
X86930Y111748D02*
Y110748D01*
X88429D01*
Y111748D01*
X87680Y110748D02*
Y111248D01*
X69887Y109384D02*
Y108384D01*
X68888Y109384D01*
X68638D01*
X68388Y109134D01*
Y108634D01*
X68638Y108384D01*
X70137Y109884D02*
Y110883D01*
X68638Y112383D02*
X68388Y112133D01*
Y111633D01*
X68638Y111383D01*
X69638D01*
X69887Y111633D01*
Y112133D01*
X69638Y112383D01*
X69138D01*
Y111883D01*
X230491Y109815D02*
Y108816D01*
X231241D01*
X230991Y109316D01*
Y109566D01*
X231241Y109815D01*
X231740D01*
X231990Y109566D01*
Y109066D01*
X231740Y108816D01*
X232240Y110315D02*
Y111315D01*
X230741Y112814D02*
X230491Y112565D01*
Y112065D01*
X230741Y111815D01*
X231740D01*
X231990Y112065D01*
Y112565D01*
X231740Y112814D01*
X231241D01*
Y112315D01*
X270902Y110196D02*
X271152Y109697D01*
X271652Y109197D01*
X272152D01*
X272402Y109447D01*
Y109947D01*
X272152Y110196D01*
X271902D01*
X271652Y109947D01*
Y109197D01*
X272652Y110696D02*
Y111696D01*
X271152Y113196D02*
X270902Y112946D01*
Y112446D01*
X271152Y112196D01*
X272152D01*
X272402Y112446D01*
Y112946D01*
X272152Y113196D01*
X271652D01*
Y112696D01*
X288352Y110222D02*
X288602Y109722D01*
X289102Y109222D01*
X289602D01*
X289851Y109472D01*
Y109972D01*
X289602Y110222D01*
X289352D01*
X289102Y109972D01*
Y109222D01*
X290101Y110722D02*
Y111721D01*
X288352Y113221D02*
Y112221D01*
X289851D01*
Y113221D01*
X289102Y112221D02*
Y112721D01*
X130360Y108765D02*
X130110Y109015D01*
Y109515D01*
X130360Y109765D01*
X130610D01*
X130860Y109515D01*
Y109265D01*
Y109515D01*
X131110Y109765D01*
X131360D01*
X131609Y109515D01*
Y109015D01*
X131360Y108765D01*
X131859Y110265D02*
Y111264D01*
X130360Y112764D02*
X130110Y112514D01*
Y112014D01*
X130360Y111764D01*
X131360D01*
X131609Y112014D01*
Y112514D01*
X131360Y112764D01*
X130860D01*
Y112264D01*
X147962Y108384D02*
X147712Y108634D01*
Y109134D01*
X147962Y109384D01*
X148212D01*
X148462Y109134D01*
Y108884D01*
Y109134D01*
X148712Y109384D01*
X148962D01*
X149212Y109134D01*
Y108634D01*
X148962Y108384D01*
X149462Y109884D02*
Y110883D01*
X147712Y112383D02*
Y111383D01*
X149212D01*
Y112383D01*
X148462Y111383D02*
Y111883D01*
X189090Y109362D02*
X187590D01*
X188340Y108613D01*
Y109612D01*
X189340Y110112D02*
Y111112D01*
X187590Y112611D02*
Y111612D01*
X189090D01*
Y112611D01*
X188340Y111612D02*
Y112111D01*
X172326Y109261D02*
X170826D01*
X171576Y108511D01*
Y109511D01*
X172576Y110011D02*
Y111010D01*
X171076Y112510D02*
X170826Y112260D01*
Y111760D01*
X171076Y111510D01*
X172076D01*
X172326Y111760D01*
Y112260D01*
X172076Y112510D01*
X171576D01*
Y112010D01*
D96*
X197849Y21771D02*
G03*
X193199Y21771I-2325J0D01*
G01*
Y15071D02*
G03*
X197849Y15071I2325J0D01*
G01*
X20550Y63730D02*
Y75580D01*
X26800D01*
Y63730D02*
Y64695D01*
Y66995D02*
Y67235D01*
Y69535D02*
Y69775D01*
Y72075D02*
Y72315D01*
Y74615D02*
Y75580D01*
X20550Y63730D02*
X26800D01*
X301275Y19595D02*
Y50405D01*
X319895D01*
Y19595D02*
Y50405D01*
X301275Y19595D02*
X319895D01*
X195737Y48500D02*
X203697D01*
X195737Y42550D02*
Y48500D01*
Y42550D02*
X203697D01*
Y48500D01*
X221182Y42550D02*
Y48500D01*
X213222Y42550D02*
X221182D01*
X213222D02*
Y48500D01*
X221182D01*
X186721Y48562D02*
X194681D01*
X186721Y42612D02*
Y48562D01*
Y42612D02*
X194681D01*
Y48562D01*
X212512Y42550D02*
Y48500D01*
X204552Y42550D02*
X212512D01*
X204552D02*
Y48500D01*
X212512D01*
X177891Y48512D02*
X185851D01*
X177891Y42562D02*
Y48512D01*
Y42562D02*
X185851D01*
Y48512D01*
X117050Y39720D02*
Y55320D01*
X110950Y39720D02*
X117050D01*
X110950D02*
Y55320D01*
X117050D01*
X193199Y15071D02*
Y21771D01*
X197849Y15071D02*
Y21771D01*
X106405Y65492D02*
X109453D01*
Y67016D01*
X106405Y65492D02*
Y67016D01*
X109453D01*
X106356Y61128D02*
X109404D01*
X106356Y59604D02*
Y61128D01*
X109404Y59604D02*
Y61128D01*
X106356Y59604D02*
X109404D01*
X106356Y58128D02*
X109404D01*
X106356Y56604D02*
Y58128D01*
X109404Y56604D02*
Y58128D01*
X106356Y56604D02*
X109404D01*
X106356Y55128D02*
X109404D01*
X106356Y53604D02*
Y55128D01*
X109404Y53604D02*
Y55128D01*
X106356Y53604D02*
X109404D01*
X106381Y40978D02*
X109429D01*
X106381Y39454D02*
Y40978D01*
X109429Y39454D02*
Y40978D01*
X106381Y39454D02*
X109429D01*
X106381Y43978D02*
X109429D01*
X106381Y42454D02*
Y43978D01*
X109429Y42454D02*
Y43978D01*
X106381Y42454D02*
X109429D01*
X106381Y46978D02*
X109429D01*
X106381Y45454D02*
Y46978D01*
X109429Y45454D02*
Y46978D01*
X106381Y45454D02*
X109429D01*
X106405Y62483D02*
X109453D01*
Y64007D01*
X106405Y62483D02*
Y64007D01*
X109453D01*
X191220Y17955D02*
Y21003D01*
Y17955D02*
X192744D01*
X191220Y21003D02*
X192744D01*
Y17955D02*
Y21003D01*
X103255Y61041D02*
X103505D01*
X103255Y59691D02*
X103505D01*
X103255Y56691D02*
X103505D01*
X103255Y58041D02*
X103505D01*
X103255Y65579D02*
X103505D01*
X103255Y66929D02*
X103505D01*
X103255Y62570D02*
X103505D01*
X103255Y63920D02*
X103505D01*
X103255Y55041D02*
X103505D01*
X103255Y53691D02*
X103505D01*
X103280Y42541D02*
X103530D01*
X103280Y43891D02*
X103530D01*
X103280Y46891D02*
X103530D01*
X103280Y45541D02*
X103530D01*
X103280Y39541D02*
X103530D01*
X103280Y40891D02*
X103530D01*
X178327Y14504D02*
X181375D01*
X178327Y12980D02*
Y14504D01*
X181375Y12980D02*
Y14504D01*
X178327Y12980D02*
X181375D01*
X176188Y7176D02*
Y10224D01*
Y7176D02*
X177712D01*
X176188Y10224D02*
X177712D01*
Y7176D02*
Y10224D01*
X191220Y14625D02*
Y17673D01*
Y14625D02*
X192744D01*
X191220Y17673D02*
X192744D01*
Y14625D02*
Y17673D01*
X181483Y12980D02*
X184531D01*
Y14504D01*
X181483Y12980D02*
Y14504D01*
X184531D01*
X186503Y13451D02*
Y16499D01*
X184979D02*
X186503D01*
X184979Y13451D02*
X186503D01*
X184979D02*
Y16499D01*
X186502Y16497D02*
Y19545D01*
X184978D02*
X186502D01*
X184978Y16497D02*
X186502D01*
X184978D02*
Y19545D01*
X180762Y17451D02*
Y20499D01*
X179238D02*
X180762D01*
X179238Y17451D02*
X180762D01*
X179238D02*
Y20499D01*
X1000Y168875D02*
X12275D01*
Y163425D02*
Y168875D01*
X1000Y163425D02*
X12275D01*
X1000D02*
Y168875D01*
X26300Y160925D02*
X37575D01*
Y155475D02*
Y160925D01*
X26300Y155475D02*
X37575D01*
X26300D02*
Y160925D01*
X17595Y575D02*
Y12875D01*
X30105Y575D02*
Y12875D01*
X17595Y575D02*
X30105D01*
X17595Y12875D02*
X30105D01*
X16195Y2304D02*
X17595Y575D01*
X16195Y3475D02*
X17595D01*
X16195Y2304D02*
Y3475D01*
X30105Y575D02*
X31505Y2304D01*
X30105Y3475D02*
X31505D01*
Y2304D02*
Y3475D01*
X67775Y12750D02*
X69325D01*
X62825D02*
X64375D01*
X61825Y11750D02*
X62825Y12750D01*
X69325D02*
X70325Y11750D01*
Y4250D02*
Y11750D01*
X61825Y4250D02*
Y11750D01*
Y4250D02*
X64375D01*
X67775D02*
X70325D01*
X43295Y167759D02*
X54570D01*
Y162309D02*
Y167759D01*
X43295Y162309D02*
X54570D01*
X43295D02*
Y167759D01*
X1850Y58334D02*
X14150D01*
X1850Y45824D02*
X14150D01*
X1850D02*
Y58334D01*
X14150Y45824D02*
Y58334D01*
X1850D02*
X3579Y59734D01*
X4750Y58334D02*
Y59734D01*
X3579D02*
X4750D01*
X1850Y45824D02*
X3579Y44424D01*
X4750D02*
Y45824D01*
X3579Y44424D02*
X4750D01*
X1850Y75334D02*
X14150D01*
X1850Y62824D02*
X14150D01*
X1850D02*
Y75334D01*
X14150Y62824D02*
Y75334D01*
X1850D02*
X3579Y76734D01*
X4750Y75334D02*
Y76734D01*
X3579D02*
X4750D01*
X1850Y62824D02*
X3579Y61424D01*
X4750D02*
Y62824D01*
X3579Y61424D02*
X4750D01*
X46598Y73995D02*
Y74595D01*
X45898Y73995D02*
X46598D01*
Y72695D02*
Y73995D01*
X47298D01*
X45891Y73288D02*
X47306D01*
X45891D02*
X46598Y73995D01*
X47306Y73288D01*
X45498Y75320D02*
X47698D01*
Y71895D02*
Y75320D01*
X45498Y71895D02*
Y75320D01*
Y71895D02*
X47698D01*
X60856Y73995D02*
Y74595D01*
X60156Y73995D02*
X60856D01*
Y72695D02*
Y73995D01*
X61556D01*
X60149Y73288D02*
X61564D01*
X60149D02*
X60856Y73995D01*
X61564Y73288D01*
X59756Y75320D02*
X61956D01*
Y71895D02*
Y75320D01*
X59756Y71895D02*
Y75320D01*
Y71895D02*
X61956D01*
X54636Y49851D02*
X65136D01*
Y56851D01*
X54636D02*
X65136D01*
X54636Y49851D02*
Y56851D01*
X59018Y43089D02*
X62066D01*
Y44613D01*
X59018Y43089D02*
Y44613D01*
X62066D01*
X59008Y41300D02*
X62056D01*
Y42824D01*
X59008Y41300D02*
Y42824D01*
X62056D01*
X59018Y44899D02*
X62066D01*
Y46423D01*
X59018Y44899D02*
Y46423D01*
X62066D01*
X59018Y39510D02*
X62066D01*
Y41034D01*
X59018Y39510D02*
Y41034D01*
X62066D01*
X262418Y73244D02*
Y73844D01*
X261718Y73244D02*
X262418D01*
Y71944D02*
Y73244D01*
X263118D01*
X261711Y72537D02*
X263125D01*
X261711D02*
X262418Y73244D01*
X263125Y72537D01*
X261318Y74569D02*
X263518D01*
Y71144D02*
Y74569D01*
X261318Y71144D02*
Y74569D01*
Y71144D02*
X263518D01*
X248126Y73485D02*
Y74085D01*
X247426Y73485D02*
X248126D01*
Y72185D02*
Y73485D01*
X248826D01*
X247419Y72778D02*
X248834D01*
X247419D02*
X248126Y73485D01*
X248834Y72778D01*
X247026Y74810D02*
X249226D01*
Y71385D02*
Y74810D01*
X247026Y71385D02*
Y74810D01*
Y71385D02*
X249226D01*
X255927Y49354D02*
X266427D01*
Y56354D01*
X255927D02*
X266427D01*
X255927Y49354D02*
Y56354D01*
X260283Y42687D02*
X263331D01*
Y44211D01*
X260283Y42687D02*
Y44211D01*
X263331D01*
X260283Y40908D02*
X263331D01*
Y42432D01*
X260283Y40908D02*
Y42432D01*
X263331D01*
X260288Y44412D02*
X263336D01*
Y45936D01*
X260288Y44412D02*
Y45936D01*
X263336D01*
X260288Y39132D02*
X263336D01*
Y40656D01*
X260288Y39132D02*
Y40656D01*
X263336D01*
X68035Y162233D02*
Y167683D01*
Y162233D02*
X79310D01*
Y167683D01*
X68035D02*
X79310D01*
X140769Y162254D02*
Y167704D01*
Y162254D02*
X152044D01*
Y167704D01*
X140769D02*
X152044D01*
X240958Y162284D02*
Y167734D01*
Y162284D02*
X252233D01*
Y167734D01*
X240958D02*
X252233D01*
X267769Y162309D02*
Y167759D01*
Y162309D02*
X279044D01*
Y167759D01*
X267769D02*
X279044D01*
X0Y155004D02*
X320000D01*
Y135004D02*
Y155004D01*
X-0Y135004D02*
X0Y155004D01*
X-0Y135004D02*
X320000D01*
X167871Y167704D02*
X179146D01*
Y162254D02*
Y167704D01*
X167871Y162254D02*
X179146D01*
X167871D02*
Y167704D01*
X316725Y75195D02*
X317896D01*
X316725Y73795D02*
Y75195D01*
X317896D02*
X319625Y73795D01*
X316725Y54805D02*
X317896D01*
X316725D02*
Y56205D01*
X317896Y54805D02*
X319625Y56205D01*
X307325D02*
Y73795D01*
X319625Y56205D02*
Y73795D01*
X307325D02*
X319625D01*
X307325Y56205D02*
X319625D01*
X316725Y100195D02*
X317896D01*
X316725Y98795D02*
Y100195D01*
X317896D02*
X319625Y98795D01*
X316725Y79805D02*
X317896D01*
X316725D02*
Y81205D01*
X317896Y79805D02*
X319625Y81205D01*
X307325D02*
Y98795D01*
X319625Y81205D02*
Y98795D01*
X307325D02*
X319625D01*
X307325Y81205D02*
X319625D01*
X158930Y4350D02*
Y10450D01*
Y4350D02*
X174530D01*
Y10450D01*
X158930D02*
X174530D01*
X162503Y73491D02*
Y74091D01*
X161803Y73491D02*
X162503D01*
Y72191D02*
Y73491D01*
X163203D01*
X161796Y72783D02*
X163210D01*
X161796D02*
X162503Y73491D01*
X163210Y72783D01*
X161403Y74816D02*
X163603D01*
Y71391D02*
Y74816D01*
X161403Y71391D02*
Y74816D01*
Y71391D02*
X163603D01*
X287736Y41383D02*
Y53233D01*
X293986D01*
Y41383D02*
Y42348D01*
Y44648D02*
Y44888D01*
Y47188D02*
Y47428D01*
Y49728D02*
Y49968D01*
Y52268D02*
Y53233D01*
X287736Y41383D02*
X293986D01*
X231029Y43820D02*
Y59420D01*
X224929Y43820D02*
X231029D01*
X224929D02*
Y59420D01*
X231029D01*
X277216Y41293D02*
Y41543D01*
X275866Y41293D02*
Y41543D01*
X239029Y43810D02*
Y59410D01*
X232929Y43810D02*
X239029D01*
X232929D02*
Y59410D01*
X239029D01*
X147327Y71530D02*
X149527D01*
X147327D02*
Y74955D01*
X149527Y71530D02*
Y74955D01*
X147327D02*
X149527D01*
X148427Y73630D02*
X149134Y72923D01*
X147720D02*
X148427Y73630D01*
X147720Y72923D02*
X149134D01*
X148427Y73630D02*
X149127D01*
X148427Y72330D02*
Y73630D01*
X147727D02*
X148427D01*
Y74230D01*
X154933Y49461D02*
Y56461D01*
X165433D01*
Y49461D02*
Y56461D01*
X154933Y49461D02*
X165433D01*
X159289Y42700D02*
X162337D01*
X159289Y41176D02*
Y42700D01*
X162337Y41176D02*
Y42700D01*
X159289Y41176D02*
X162337D01*
X159289Y44482D02*
X162337D01*
X159289Y42958D02*
Y44482D01*
X162337Y42958D02*
Y44482D01*
X159289Y42958D02*
X162337D01*
X159289Y46252D02*
X162337D01*
X159289Y44728D02*
Y46252D01*
X162337Y44728D02*
Y46252D01*
X159289Y44728D02*
X162337D01*
X159289Y40880D02*
X162337D01*
X159289Y39356D02*
Y40880D01*
X162337Y39356D02*
Y40880D01*
X159289Y39356D02*
X162337D01*
X276700Y54019D02*
X278250D01*
X271750D02*
X273300D01*
X270750Y53019D02*
X271750Y54019D01*
X278250D02*
X279250Y53019D01*
Y45519D02*
Y53019D01*
X270750Y45519D02*
Y53019D01*
Y45519D02*
X273300D01*
X276700D02*
X279250D01*
X48400Y12750D02*
X49950D01*
X43450D02*
X45000D01*
X42450Y11750D02*
X43450Y12750D01*
X49950D02*
X50950Y11750D01*
Y4250D02*
Y11750D01*
X42450Y4250D02*
Y11750D01*
Y4250D02*
X45000D01*
X48400D02*
X50950D01*
X60699Y91231D02*
X61813D01*
X61256Y90674D02*
Y91788D01*
X60761Y92171D02*
X60699Y92295D01*
X60514Y92481D01*
X61813D01*
X60823Y93186D02*
X60761D01*
X60638Y93248D01*
X60576Y93310D01*
X60514Y93434D01*
Y93682D01*
X60576Y93805D01*
X60638Y93867D01*
X60761Y93929D01*
X60885D01*
X61009Y93867D01*
X61195Y93744D01*
X61813Y93125D01*
Y93991D01*
X60514Y94282D02*
X61813Y94777D01*
X60514Y95272D02*
X61813Y94777D01*
X58284Y92267D02*
X58160Y92205D01*
X58037Y92081D01*
X57975Y91957D01*
Y91710D01*
X58037Y91586D01*
X58160Y91462D01*
X58284Y91400D01*
X58470Y91338D01*
X58779D01*
X58965Y91400D01*
X59089Y91462D01*
X59213Y91586D01*
X59275Y91710D01*
Y91957D01*
X59213Y92081D01*
X59089Y92205D01*
X58965Y92267D01*
X58779D01*
Y91957D02*
Y92267D01*
X57975Y92564D02*
X59275D01*
X57975D02*
X59275Y93430D01*
X57975D02*
X59275D01*
X57975Y93789D02*
X59275D01*
X57975D02*
Y94222D01*
X58037Y94408D01*
X58160Y94532D01*
X58284Y94594D01*
X58470Y94656D01*
X58779D01*
X58965Y94594D01*
X59089Y94532D01*
X59213Y94408D01*
X59275Y94222D01*
Y93789D01*
X55744Y92243D02*
X55620Y92181D01*
X55497Y92057D01*
X55435Y91933D01*
Y91686D01*
X55497Y91562D01*
X55620Y91438D01*
X55744Y91376D01*
X55930Y91314D01*
X56239D01*
X56425Y91376D01*
X56549Y91438D01*
X56673Y91562D01*
X56735Y91686D01*
Y91933D01*
X56673Y92057D01*
X56549Y92181D01*
X56425Y92243D01*
X56239D01*
Y91933D02*
Y92243D01*
X55435Y92540D02*
X56735D01*
X55435D02*
X56735Y93406D01*
X55435D02*
X56735D01*
X55435Y93765D02*
X56735D01*
X55435D02*
Y94198D01*
X55497Y94384D01*
X55620Y94508D01*
X55744Y94570D01*
X55930Y94632D01*
X56239D01*
X56425Y94570D01*
X56549Y94508D01*
X56673Y94384D01*
X56735Y94198D01*
Y93765D01*
X63239Y91231D02*
X64353D01*
X63796Y90674D02*
Y91788D01*
X63301Y92171D02*
X63239Y92295D01*
X63054Y92481D01*
X64353D01*
X63363Y93186D02*
X63301D01*
X63178Y93248D01*
X63116Y93310D01*
X63054Y93434D01*
Y93682D01*
X63116Y93805D01*
X63178Y93867D01*
X63301Y93929D01*
X63425D01*
X63549Y93867D01*
X63735Y93744D01*
X64353Y93125D01*
Y93991D01*
X63054Y94282D02*
X64353Y94777D01*
X63054Y95272D02*
X64353Y94777D01*
X46148Y96368D02*
Y95254D01*
X46643Y94870D02*
X46705Y94746D01*
X46891Y94561D01*
X45591D01*
X46891Y93608D02*
X46829Y93793D01*
X46705Y93855D01*
X46581D01*
X46457Y93793D01*
X46395Y93670D01*
X46333Y93422D01*
X46272Y93236D01*
X46148Y93113D01*
X46024Y93051D01*
X45838D01*
X45715Y93113D01*
X45653Y93174D01*
X45591Y93360D01*
Y93608D01*
X45653Y93793D01*
X45715Y93855D01*
X45838Y93917D01*
X46024D01*
X46148Y93855D01*
X46272Y93731D01*
X46333Y93546D01*
X46395Y93298D01*
X46457Y93174D01*
X46581Y93113D01*
X46705D01*
X46829Y93174D01*
X46891Y93360D01*
Y93608D01*
Y92760D02*
X45591Y92265D01*
X46891Y91769D02*
X45591Y92265D01*
X45158Y91602D02*
Y90612D01*
X46581Y90383D02*
X46643D01*
X46767Y90321D01*
X46829Y90259D01*
X46891Y90136D01*
Y89888D01*
X46829Y89764D01*
X46767Y89702D01*
X46643Y89640D01*
X46519D01*
X46395Y89702D01*
X46210Y89826D01*
X45591Y90445D01*
Y89578D01*
X43608Y96368D02*
Y95254D01*
X44103Y94870D02*
X44165Y94746D01*
X44351Y94560D01*
X43051D01*
X44351Y93607D02*
X44289Y93793D01*
X44165Y93855D01*
X44041D01*
X43918Y93793D01*
X43856Y93669D01*
X43794Y93422D01*
X43732Y93236D01*
X43608Y93112D01*
X43484Y93050D01*
X43299D01*
X43175Y93112D01*
X43113Y93174D01*
X43051Y93360D01*
Y93607D01*
X43113Y93793D01*
X43175Y93855D01*
X43299Y93917D01*
X43484D01*
X43608Y93855D01*
X43732Y93731D01*
X43794Y93545D01*
X43856Y93298D01*
X43918Y93174D01*
X44041Y93112D01*
X44165D01*
X44289Y93174D01*
X44351Y93360D01*
Y93607D01*
Y92759D02*
X43051Y92264D01*
X44351Y91769D02*
X43051Y92264D01*
X42618Y91602D02*
Y90612D01*
X44041Y90383D02*
X44103D01*
X44227Y90321D01*
X44289Y90259D01*
X44351Y90135D01*
Y89888D01*
X44289Y89764D01*
X44227Y89702D01*
X44103Y89640D01*
X43980D01*
X43856Y89702D01*
X43670Y89826D01*
X43051Y90445D01*
Y89578D01*
X41625Y95811D02*
X40511D01*
X41068Y96368D02*
Y95254D01*
X41563Y94870D02*
X41625Y94746D01*
X41811Y94560D01*
X40511D01*
X41811Y93607D02*
X41749Y93793D01*
X41625Y93855D01*
X41501D01*
X41378Y93793D01*
X41316Y93669D01*
X41254Y93422D01*
X41192Y93236D01*
X41068Y93112D01*
X40944Y93050D01*
X40759D01*
X40635Y93112D01*
X40573Y93174D01*
X40511Y93360D01*
Y93607D01*
X40573Y93793D01*
X40635Y93855D01*
X40759Y93917D01*
X40944D01*
X41068Y93855D01*
X41192Y93731D01*
X41254Y93545D01*
X41316Y93298D01*
X41378Y93174D01*
X41501Y93112D01*
X41625D01*
X41749Y93174D01*
X41811Y93360D01*
Y93607D01*
Y92759D02*
X40511Y92264D01*
X41811Y91769D02*
X40511Y92264D01*
X40078Y91602D02*
Y90612D01*
X41501Y90383D02*
X41563D01*
X41687Y90321D01*
X41749Y90259D01*
X41811Y90135D01*
Y89888D01*
X41749Y89764D01*
X41687Y89702D01*
X41563Y89640D01*
X41440D01*
X41316Y89702D01*
X41130Y89826D01*
X40511Y90445D01*
Y89578D01*
X39085Y95811D02*
X37971D01*
X38528Y96368D02*
Y95254D01*
X39023Y94870D02*
X39085Y94746D01*
X39271Y94560D01*
X37971D01*
X39271Y93607D02*
X39209Y93793D01*
X39085Y93855D01*
X38961D01*
X38838Y93793D01*
X38776Y93669D01*
X38714Y93422D01*
X38652Y93236D01*
X38528Y93112D01*
X38404Y93050D01*
X38219D01*
X38095Y93112D01*
X38033Y93174D01*
X37971Y93360D01*
Y93607D01*
X38033Y93793D01*
X38095Y93855D01*
X38219Y93917D01*
X38404D01*
X38528Y93855D01*
X38652Y93731D01*
X38714Y93545D01*
X38776Y93298D01*
X38838Y93174D01*
X38961Y93112D01*
X39085D01*
X39209Y93174D01*
X39271Y93360D01*
Y93607D01*
Y92759D02*
X37971Y92264D01*
X39271Y91769D02*
X37971Y92264D01*
X37538Y91602D02*
Y90612D01*
X38961Y90383D02*
X39023D01*
X39147Y90321D01*
X39209Y90259D01*
X39271Y90135D01*
Y89888D01*
X39209Y89764D01*
X39147Y89702D01*
X39023Y89640D01*
X38900D01*
X38776Y89702D01*
X38590Y89826D01*
X37971Y90445D01*
Y89578D01*
X82261Y95532D02*
X81147D01*
X81704Y96089D02*
Y94975D01*
X82199Y94591D02*
X82261Y94467D01*
X82447Y94282D01*
X81147D01*
X82447Y93329D02*
X82385Y93514D01*
X82261Y93576D01*
X82137D01*
X82014Y93514D01*
X81952Y93391D01*
X81890Y93143D01*
X81828Y92957D01*
X81704Y92834D01*
X81580Y92772D01*
X81395D01*
X81271Y92834D01*
X81209Y92895D01*
X81147Y93081D01*
Y93329D01*
X81209Y93514D01*
X81271Y93576D01*
X81395Y93638D01*
X81580D01*
X81704Y93576D01*
X81828Y93452D01*
X81890Y93267D01*
X81952Y93019D01*
X82014Y92895D01*
X82137Y92834D01*
X82261D01*
X82385Y92895D01*
X82447Y93081D01*
Y93329D01*
Y92481D02*
X81147Y91986D01*
X82447Y91491D02*
X81147Y91986D01*
X80714Y91323D02*
Y90333D01*
X82199Y90166D02*
X82261Y90042D01*
X82447Y89857D01*
X81147D01*
X79721Y95532D02*
X78607D01*
X79164Y96089D02*
Y94975D01*
X79660Y94591D02*
X79721Y94467D01*
X79907Y94282D01*
X78607D01*
X79907Y93329D02*
X79845Y93514D01*
X79721Y93576D01*
X79598D01*
X79474Y93514D01*
X79412Y93391D01*
X79350Y93143D01*
X79288Y92957D01*
X79164Y92834D01*
X79041Y92772D01*
X78855D01*
X78731Y92834D01*
X78669Y92895D01*
X78607Y93081D01*
Y93329D01*
X78669Y93514D01*
X78731Y93576D01*
X78855Y93638D01*
X79041D01*
X79164Y93576D01*
X79288Y93452D01*
X79350Y93267D01*
X79412Y93019D01*
X79474Y92895D01*
X79598Y92834D01*
X79721D01*
X79845Y92895D01*
X79907Y93081D01*
Y93329D01*
Y92481D02*
X78607Y91986D01*
X79907Y91491D02*
X78607Y91986D01*
X78174Y91323D02*
Y90333D01*
X79660Y90166D02*
X79721Y90042D01*
X79907Y89857D01*
X78607D01*
X76625Y96089D02*
Y94975D01*
X77120Y94591D02*
X77182Y94467D01*
X77367Y94282D01*
X76068D01*
X77367Y93329D02*
X77305Y93514D01*
X77182Y93576D01*
X77058D01*
X76934Y93514D01*
X76872Y93391D01*
X76810Y93143D01*
X76748Y92957D01*
X76625Y92834D01*
X76501Y92772D01*
X76315D01*
X76191Y92834D01*
X76129Y92895D01*
X76068Y93081D01*
Y93329D01*
X76129Y93514D01*
X76191Y93576D01*
X76315Y93638D01*
X76501D01*
X76625Y93576D01*
X76748Y93452D01*
X76810Y93267D01*
X76872Y93019D01*
X76934Y92895D01*
X77058Y92834D01*
X77182D01*
X77305Y92895D01*
X77367Y93081D01*
Y93329D01*
Y92481D02*
X76068Y91986D01*
X77367Y91490D02*
X76068Y91986D01*
X75634Y91323D02*
Y90333D01*
X77120Y90166D02*
X77182Y90042D01*
X77367Y89857D01*
X76068D01*
X74085Y96089D02*
Y94975D01*
X74580Y94591D02*
X74642Y94467D01*
X74827Y94282D01*
X73528D01*
X74827Y93329D02*
X74766Y93514D01*
X74642Y93576D01*
X74518D01*
X74394Y93514D01*
X74332Y93391D01*
X74270Y93143D01*
X74208Y92957D01*
X74085Y92834D01*
X73961Y92772D01*
X73775D01*
X73651Y92834D01*
X73590Y92895D01*
X73528Y93081D01*
Y93329D01*
X73590Y93514D01*
X73651Y93576D01*
X73775Y93638D01*
X73961D01*
X74085Y93576D01*
X74208Y93452D01*
X74270Y93267D01*
X74332Y93019D01*
X74394Y92895D01*
X74518Y92834D01*
X74642D01*
X74766Y92895D01*
X74827Y93081D01*
Y93329D01*
Y92481D02*
X73528Y91986D01*
X74827Y91491D02*
X73528Y91986D01*
X73094Y91323D02*
Y90333D01*
X74580Y90166D02*
X74642Y90042D01*
X74827Y89857D01*
X73528D01*
X160294Y91212D02*
X161408D01*
X160851Y90655D02*
Y91769D01*
X160356Y92152D02*
X160294Y92276D01*
X160108Y92462D01*
X161408D01*
X160418Y93167D02*
X160356D01*
X160232Y93229D01*
X160170Y93291D01*
X160108Y93415D01*
Y93662D01*
X160170Y93786D01*
X160232Y93848D01*
X160356Y93910D01*
X160480D01*
X160603Y93848D01*
X160789Y93724D01*
X161408Y93105D01*
Y93972D01*
X160108Y94263D02*
X161408Y94758D01*
X160108Y95253D02*
X161408Y94758D01*
X157878Y92223D02*
X157754Y92162D01*
X157630Y92038D01*
X157568Y91914D01*
Y91666D01*
X157630Y91543D01*
X157754Y91419D01*
X157878Y91357D01*
X158063Y91295D01*
X158373D01*
X158558Y91357D01*
X158682Y91419D01*
X158806Y91543D01*
X158868Y91666D01*
Y91914D01*
X158806Y92038D01*
X158682Y92162D01*
X158558Y92223D01*
X158373D01*
Y91914D02*
Y92223D01*
X157568Y92521D02*
X158868D01*
X157568D02*
X158868Y93387D01*
X157568D02*
X158868D01*
X157568Y93746D02*
X158868D01*
X157568D02*
Y94179D01*
X157630Y94365D01*
X157754Y94489D01*
X157878Y94551D01*
X158063Y94612D01*
X158373D01*
X158558Y94551D01*
X158682Y94489D01*
X158806Y94365D01*
X158868Y94179D01*
Y93746D01*
X155338Y92224D02*
X155214Y92162D01*
X155090Y92038D01*
X155028Y91914D01*
Y91667D01*
X155090Y91543D01*
X155214Y91419D01*
X155338Y91357D01*
X155523Y91295D01*
X155833D01*
X156018Y91357D01*
X156142Y91419D01*
X156266Y91543D01*
X156328Y91667D01*
Y91914D01*
X156266Y92038D01*
X156142Y92162D01*
X156018Y92224D01*
X155833D01*
Y91914D02*
Y92224D01*
X155028Y92521D02*
X156328D01*
X155028D02*
X156328Y93387D01*
X155028D02*
X156328D01*
X155028Y93746D02*
X156328D01*
X155028D02*
Y94179D01*
X155090Y94365D01*
X155214Y94489D01*
X155338Y94551D01*
X155523Y94613D01*
X155833D01*
X156018Y94551D01*
X156142Y94489D01*
X156266Y94365D01*
X156328Y94179D01*
Y93746D01*
X162834Y91212D02*
X163948D01*
X163391Y90655D02*
Y91769D01*
X162896Y92152D02*
X162834Y92276D01*
X162648Y92462D01*
X163948D01*
X162958Y93167D02*
X162896D01*
X162772Y93229D01*
X162710Y93291D01*
X162648Y93415D01*
Y93662D01*
X162710Y93786D01*
X162772Y93848D01*
X162896Y93910D01*
X163020D01*
X163143Y93848D01*
X163329Y93724D01*
X163948Y93105D01*
Y93972D01*
X162648Y94263D02*
X163948Y94758D01*
X162648Y95253D02*
X163948Y94758D01*
X145741Y96349D02*
Y95235D01*
X146236Y94851D02*
X146298Y94728D01*
X146484Y94542D01*
X145184D01*
X146484Y93589D02*
X146422Y93774D01*
X146298Y93836D01*
X146174D01*
X146051Y93774D01*
X145989Y93651D01*
X145927Y93403D01*
X145865Y93217D01*
X145741Y93094D01*
X145617Y93032D01*
X145432D01*
X145308Y93094D01*
X145246Y93155D01*
X145184Y93341D01*
Y93589D01*
X145246Y93774D01*
X145308Y93836D01*
X145432Y93898D01*
X145617D01*
X145741Y93836D01*
X145865Y93713D01*
X145927Y93527D01*
X145989Y93279D01*
X146051Y93155D01*
X146174Y93094D01*
X146298D01*
X146422Y93155D01*
X146484Y93341D01*
Y93589D01*
Y92741D02*
X145184Y92246D01*
X146484Y91751D02*
X145184Y92246D01*
X144751Y91583D02*
Y90593D01*
X146174Y90364D02*
X146236D01*
X146360Y90302D01*
X146422Y90240D01*
X146484Y90117D01*
Y89869D01*
X146422Y89745D01*
X146360Y89683D01*
X146236Y89621D01*
X146112D01*
X145989Y89683D01*
X145803Y89807D01*
X145184Y90426D01*
Y89560D01*
X143202Y96349D02*
Y95235D01*
X143697Y94851D02*
X143759Y94727D01*
X143944Y94541D01*
X142645D01*
X143944Y93588D02*
X143882Y93774D01*
X143759Y93836D01*
X143635D01*
X143511Y93774D01*
X143449Y93650D01*
X143387Y93403D01*
X143325Y93217D01*
X143202Y93093D01*
X143078Y93031D01*
X142892D01*
X142768Y93093D01*
X142707Y93155D01*
X142645Y93341D01*
Y93588D01*
X142707Y93774D01*
X142768Y93836D01*
X142892Y93898D01*
X143078D01*
X143202Y93836D01*
X143325Y93712D01*
X143387Y93526D01*
X143449Y93279D01*
X143511Y93155D01*
X143635Y93093D01*
X143759D01*
X143882Y93155D01*
X143944Y93341D01*
Y93588D01*
Y92740D02*
X142645Y92245D01*
X143944Y91750D02*
X142645Y92245D01*
X142211Y91583D02*
Y90593D01*
X143635Y90364D02*
X143697D01*
X143821Y90302D01*
X143882Y90240D01*
X143944Y90116D01*
Y89869D01*
X143882Y89745D01*
X143821Y89683D01*
X143697Y89621D01*
X143573D01*
X143449Y89683D01*
X143264Y89807D01*
X142645Y90426D01*
Y89559D01*
X141219Y95792D02*
X140105D01*
X140662Y96349D02*
Y95235D01*
X141157Y94851D02*
X141219Y94727D01*
X141404Y94541D01*
X140105D01*
X141404Y93588D02*
X141342Y93774D01*
X141219Y93836D01*
X141095D01*
X140971Y93774D01*
X140909Y93650D01*
X140847Y93403D01*
X140785Y93217D01*
X140662Y93093D01*
X140538Y93031D01*
X140352D01*
X140228Y93093D01*
X140167Y93155D01*
X140105Y93341D01*
Y93588D01*
X140167Y93774D01*
X140228Y93836D01*
X140352Y93898D01*
X140538D01*
X140662Y93836D01*
X140785Y93712D01*
X140847Y93526D01*
X140909Y93279D01*
X140971Y93155D01*
X141095Y93093D01*
X141219D01*
X141342Y93155D01*
X141404Y93341D01*
Y93588D01*
Y92740D02*
X140105Y92245D01*
X141404Y91750D02*
X140105Y92245D01*
X139671Y91583D02*
Y90593D01*
X141095Y90364D02*
X141157D01*
X141281Y90302D01*
X141342Y90240D01*
X141404Y90116D01*
Y89869D01*
X141342Y89745D01*
X141281Y89683D01*
X141157Y89621D01*
X141033D01*
X140909Y89683D01*
X140724Y89807D01*
X140105Y90426D01*
Y89559D01*
X138679Y95792D02*
X137565D01*
X138122Y96349D02*
Y95235D01*
X138617Y94851D02*
X138679Y94727D01*
X138864Y94541D01*
X137565D01*
X138864Y93588D02*
X138802Y93774D01*
X138679Y93836D01*
X138555D01*
X138431Y93774D01*
X138369Y93650D01*
X138307Y93403D01*
X138245Y93217D01*
X138122Y93093D01*
X137998Y93031D01*
X137812D01*
X137688Y93093D01*
X137627Y93155D01*
X137565Y93341D01*
Y93588D01*
X137627Y93774D01*
X137688Y93836D01*
X137812Y93898D01*
X137998D01*
X138122Y93836D01*
X138245Y93712D01*
X138307Y93526D01*
X138369Y93279D01*
X138431Y93155D01*
X138555Y93093D01*
X138679D01*
X138802Y93155D01*
X138864Y93341D01*
Y93588D01*
Y92740D02*
X137565Y92245D01*
X138864Y91750D02*
X137565Y92245D01*
X137131Y91583D02*
Y90593D01*
X138555Y90364D02*
X138617D01*
X138741Y90302D01*
X138802Y90240D01*
X138864Y90116D01*
Y89869D01*
X138802Y89745D01*
X138741Y89683D01*
X138617Y89621D01*
X138493D01*
X138369Y89683D01*
X138184Y89807D01*
X137565Y90426D01*
Y89559D01*
X181857Y95513D02*
X180743D01*
X181300Y96070D02*
Y94956D01*
X181795Y94572D02*
X181857Y94448D01*
X182043Y94263D01*
X180743D01*
X182043Y93310D02*
X181981Y93495D01*
X181857Y93557D01*
X181733D01*
X181609Y93495D01*
X181547Y93371D01*
X181486Y93124D01*
X181424Y92938D01*
X181300Y92814D01*
X181176Y92752D01*
X180990D01*
X180867Y92814D01*
X180805Y92876D01*
X180743Y93062D01*
Y93310D01*
X180805Y93495D01*
X180867Y93557D01*
X180990Y93619D01*
X181176D01*
X181300Y93557D01*
X181424Y93433D01*
X181486Y93248D01*
X181547Y93000D01*
X181609Y92876D01*
X181733Y92814D01*
X181857D01*
X181981Y92876D01*
X182043Y93062D01*
Y93310D01*
Y92462D02*
X180743Y91966D01*
X182043Y91471D02*
X180743Y91966D01*
X180310Y91304D02*
Y90314D01*
X181795Y90147D02*
X181857Y90023D01*
X182043Y89837D01*
X180743D01*
X179317Y95513D02*
X178203D01*
X178760Y96070D02*
Y94956D01*
X179255Y94572D02*
X179317Y94448D01*
X179503Y94263D01*
X178203D01*
X179503Y93310D02*
X179441Y93495D01*
X179317Y93557D01*
X179193D01*
X179069Y93495D01*
X179008Y93371D01*
X178946Y93124D01*
X178884Y92938D01*
X178760Y92814D01*
X178636Y92753D01*
X178451D01*
X178327Y92814D01*
X178265Y92876D01*
X178203Y93062D01*
Y93310D01*
X178265Y93495D01*
X178327Y93557D01*
X178451Y93619D01*
X178636D01*
X178760Y93557D01*
X178884Y93433D01*
X178946Y93248D01*
X179008Y93000D01*
X179069Y92876D01*
X179193Y92814D01*
X179317D01*
X179441Y92876D01*
X179503Y93062D01*
Y93310D01*
Y92462D02*
X178203Y91966D01*
X179503Y91471D02*
X178203Y91966D01*
X177770Y91304D02*
Y90314D01*
X179255Y90147D02*
X179317Y90023D01*
X179503Y89837D01*
X178203D01*
X176220Y96070D02*
Y94956D01*
X176715Y94572D02*
X176777Y94448D01*
X176963Y94263D01*
X175663D01*
X176963Y93310D02*
X176901Y93495D01*
X176777Y93557D01*
X176653D01*
X176530Y93495D01*
X176468Y93371D01*
X176406Y93124D01*
X176344Y92938D01*
X176220Y92814D01*
X176096Y92752D01*
X175911D01*
X175787Y92814D01*
X175725Y92876D01*
X175663Y93062D01*
Y93310D01*
X175725Y93495D01*
X175787Y93557D01*
X175911Y93619D01*
X176096D01*
X176220Y93557D01*
X176344Y93433D01*
X176406Y93248D01*
X176468Y93000D01*
X176530Y92876D01*
X176653Y92814D01*
X176777D01*
X176901Y92876D01*
X176963Y93062D01*
Y93310D01*
Y92462D02*
X175663Y91966D01*
X176963Y91471D02*
X175663Y91966D01*
X175230Y91304D02*
Y90314D01*
X176715Y90147D02*
X176777Y90023D01*
X176963Y89837D01*
X175663D01*
X173680Y96070D02*
Y94956D01*
X174175Y94572D02*
X174237Y94448D01*
X174423Y94263D01*
X173123D01*
X174423Y93310D02*
X174361Y93495D01*
X174237Y93557D01*
X174113D01*
X173990Y93495D01*
X173928Y93371D01*
X173866Y93124D01*
X173804Y92938D01*
X173680Y92814D01*
X173556Y92753D01*
X173371D01*
X173247Y92814D01*
X173185Y92876D01*
X173123Y93062D01*
Y93310D01*
X173185Y93495D01*
X173247Y93557D01*
X173371Y93619D01*
X173556D01*
X173680Y93557D01*
X173804Y93433D01*
X173866Y93248D01*
X173928Y93000D01*
X173990Y92876D01*
X174113Y92814D01*
X174237D01*
X174361Y92876D01*
X174423Y93062D01*
Y93310D01*
Y92462D02*
X173123Y91966D01*
X174423Y91471D02*
X173123Y91966D01*
X172690Y91304D02*
Y90314D01*
X174175Y90147D02*
X174237Y90023D01*
X174423Y89837D01*
X173123D01*
X273195Y96070D02*
Y94956D01*
X273690Y94572D02*
X273752Y94449D01*
X273937Y94263D01*
X272638D01*
X273937Y93310D02*
X273876Y93496D01*
X273752Y93557D01*
X273628D01*
X273504Y93496D01*
X273442Y93372D01*
X273380Y93124D01*
X273318Y92939D01*
X273195Y92815D01*
X273071Y92753D01*
X272885D01*
X272761Y92815D01*
X272700Y92877D01*
X272638Y93062D01*
Y93310D01*
X272700Y93496D01*
X272761Y93557D01*
X272885Y93619D01*
X273071D01*
X273195Y93557D01*
X273318Y93434D01*
X273380Y93248D01*
X273442Y93000D01*
X273504Y92877D01*
X273628Y92815D01*
X273752D01*
X273876Y92877D01*
X273937Y93062D01*
Y93310D01*
Y92462D02*
X272638Y91967D01*
X273937Y91472D02*
X272638Y91967D01*
X272204Y91305D02*
Y90314D01*
X273690Y90147D02*
X273752Y90023D01*
X273937Y89838D01*
X272638D01*
X275735Y96070D02*
Y94956D01*
X276230Y94572D02*
X276292Y94449D01*
X276477Y94263D01*
X275178D01*
X276477Y93310D02*
X276415Y93495D01*
X276292Y93557D01*
X276168D01*
X276044Y93495D01*
X275982Y93372D01*
X275920Y93124D01*
X275858Y92938D01*
X275735Y92815D01*
X275611Y92753D01*
X275425D01*
X275301Y92815D01*
X275239Y92876D01*
X275178Y93062D01*
Y93310D01*
X275239Y93495D01*
X275301Y93557D01*
X275425Y93619D01*
X275611D01*
X275735Y93557D01*
X275858Y93433D01*
X275920Y93248D01*
X275982Y93000D01*
X276044Y92876D01*
X276168Y92815D01*
X276292D01*
X276415Y92876D01*
X276477Y93062D01*
Y93310D01*
Y92462D02*
X275178Y91967D01*
X276477Y91472D02*
X275178Y91967D01*
X274744Y91304D02*
Y90314D01*
X276230Y90147D02*
X276292Y90023D01*
X276477Y89838D01*
X275178D01*
X278831Y95513D02*
X277717D01*
X278274Y96070D02*
Y94956D01*
X278770Y94572D02*
X278831Y94449D01*
X279017Y94263D01*
X277717D01*
X279017Y93310D02*
X278955Y93495D01*
X278831Y93557D01*
X278708D01*
X278584Y93495D01*
X278522Y93372D01*
X278460Y93124D01*
X278398Y92938D01*
X278274Y92815D01*
X278151Y92753D01*
X277965D01*
X277841Y92815D01*
X277779Y92876D01*
X277717Y93062D01*
Y93310D01*
X277779Y93495D01*
X277841Y93557D01*
X277965Y93619D01*
X278151D01*
X278274Y93557D01*
X278398Y93433D01*
X278460Y93248D01*
X278522Y93000D01*
X278584Y92876D01*
X278708Y92815D01*
X278831D01*
X278955Y92876D01*
X279017Y93062D01*
Y93310D01*
Y92462D02*
X277717Y91967D01*
X279017Y91472D02*
X277717Y91967D01*
X277284Y91304D02*
Y90314D01*
X278770Y90147D02*
X278831Y90023D01*
X279017Y89838D01*
X277717D01*
X281371Y95513D02*
X280257D01*
X280814Y96070D02*
Y94956D01*
X281309Y94572D02*
X281371Y94448D01*
X281557Y94263D01*
X280257D01*
X281557Y93310D02*
X281495Y93495D01*
X281371Y93557D01*
X281247D01*
X281124Y93495D01*
X281062Y93372D01*
X281000Y93124D01*
X280938Y92938D01*
X280814Y92815D01*
X280690Y92753D01*
X280505D01*
X280381Y92815D01*
X280319Y92876D01*
X280257Y93062D01*
Y93310D01*
X280319Y93495D01*
X280381Y93557D01*
X280505Y93619D01*
X280690D01*
X280814Y93557D01*
X280938Y93433D01*
X281000Y93248D01*
X281062Y93000D01*
X281124Y92876D01*
X281247Y92815D01*
X281371D01*
X281495Y92876D01*
X281557Y93062D01*
Y93310D01*
Y92462D02*
X280257Y91967D01*
X281557Y91471D02*
X280257Y91967D01*
X279824Y91304D02*
Y90314D01*
X281309Y90147D02*
X281371Y90023D01*
X281557Y89838D01*
X280257D01*
X238195Y95792D02*
X237081D01*
X237638Y96349D02*
Y95235D01*
X238133Y94851D02*
X238195Y94727D01*
X238381Y94541D01*
X237081D01*
X238381Y93588D02*
X238319Y93774D01*
X238195Y93836D01*
X238072D01*
X237948Y93774D01*
X237886Y93650D01*
X237824Y93403D01*
X237762Y93217D01*
X237638Y93093D01*
X237514Y93031D01*
X237329D01*
X237205Y93093D01*
X237143Y93155D01*
X237081Y93341D01*
Y93588D01*
X237143Y93774D01*
X237205Y93836D01*
X237329Y93898D01*
X237514D01*
X237638Y93836D01*
X237762Y93712D01*
X237824Y93526D01*
X237886Y93279D01*
X237948Y93155D01*
X238072Y93093D01*
X238195D01*
X238319Y93155D01*
X238381Y93341D01*
Y93588D01*
Y92740D02*
X237081Y92245D01*
X238381Y91750D02*
X237081Y92245D01*
X236648Y91583D02*
Y90593D01*
X238072Y90364D02*
X238133D01*
X238257Y90302D01*
X238319Y90240D01*
X238381Y90116D01*
Y89869D01*
X238319Y89745D01*
X238257Y89683D01*
X238133Y89621D01*
X238010D01*
X237886Y89683D01*
X237700Y89807D01*
X237081Y90426D01*
Y89559D01*
X240735Y95792D02*
X239621D01*
X240178Y96349D02*
Y95235D01*
X240673Y94851D02*
X240735Y94727D01*
X240921Y94541D01*
X239621D01*
X240921Y93588D02*
X240859Y93774D01*
X240735Y93836D01*
X240611D01*
X240488Y93774D01*
X240426Y93650D01*
X240364Y93403D01*
X240302Y93217D01*
X240178Y93093D01*
X240054Y93031D01*
X239869D01*
X239745Y93093D01*
X239683Y93155D01*
X239621Y93341D01*
Y93588D01*
X239683Y93774D01*
X239745Y93836D01*
X239869Y93898D01*
X240054D01*
X240178Y93836D01*
X240302Y93712D01*
X240364Y93526D01*
X240426Y93279D01*
X240488Y93155D01*
X240611Y93093D01*
X240735D01*
X240859Y93155D01*
X240921Y93341D01*
Y93588D01*
Y92740D02*
X239621Y92245D01*
X240921Y91750D02*
X239621Y92245D01*
X239188Y91583D02*
Y90593D01*
X240611Y90364D02*
X240673D01*
X240797Y90302D01*
X240859Y90240D01*
X240921Y90116D01*
Y89869D01*
X240859Y89745D01*
X240797Y89683D01*
X240673Y89621D01*
X240549D01*
X240426Y89683D01*
X240240Y89807D01*
X239621Y90426D01*
Y89559D01*
X242718Y96349D02*
Y95235D01*
X243213Y94851D02*
X243275Y94727D01*
X243461Y94542D01*
X242161D01*
X243461Y93588D02*
X243399Y93774D01*
X243275Y93836D01*
X243151D01*
X243027Y93774D01*
X242965Y93650D01*
X242903Y93403D01*
X242842Y93217D01*
X242718Y93093D01*
X242594Y93031D01*
X242408D01*
X242285Y93093D01*
X242223Y93155D01*
X242161Y93341D01*
Y93588D01*
X242223Y93774D01*
X242285Y93836D01*
X242408Y93898D01*
X242594D01*
X242718Y93836D01*
X242842Y93712D01*
X242903Y93527D01*
X242965Y93279D01*
X243027Y93155D01*
X243151Y93093D01*
X243275D01*
X243399Y93155D01*
X243461Y93341D01*
Y93588D01*
Y92741D02*
X242161Y92245D01*
X243461Y91750D02*
X242161Y92245D01*
X241728Y91583D02*
Y90593D01*
X243151Y90364D02*
X243213D01*
X243337Y90302D01*
X243399Y90240D01*
X243461Y90116D01*
Y89869D01*
X243399Y89745D01*
X243337Y89683D01*
X243213Y89621D01*
X243089D01*
X242965Y89683D01*
X242780Y89807D01*
X242161Y90426D01*
Y89559D01*
X245257Y96349D02*
Y95235D01*
X245752Y94851D02*
X245814Y94727D01*
X246000Y94542D01*
X244700D01*
X246000Y93589D02*
X245938Y93774D01*
X245814Y93836D01*
X245690D01*
X245567Y93774D01*
X245505Y93650D01*
X245443Y93403D01*
X245381Y93217D01*
X245257Y93093D01*
X245133Y93032D01*
X244948D01*
X244824Y93093D01*
X244762Y93155D01*
X244700Y93341D01*
Y93589D01*
X244762Y93774D01*
X244824Y93836D01*
X244948Y93898D01*
X245133D01*
X245257Y93836D01*
X245381Y93712D01*
X245443Y93527D01*
X245505Y93279D01*
X245567Y93155D01*
X245690Y93093D01*
X245814D01*
X245938Y93155D01*
X246000Y93341D01*
Y93589D01*
Y92741D02*
X244700Y92246D01*
X246000Y91750D02*
X244700Y92246D01*
X244267Y91583D02*
Y90593D01*
X245690Y90364D02*
X245752D01*
X245876Y90302D01*
X245938Y90240D01*
X246000Y90116D01*
Y89869D01*
X245938Y89745D01*
X245876Y89683D01*
X245752Y89621D01*
X245629D01*
X245505Y89683D01*
X245319Y89807D01*
X244700Y90426D01*
Y89559D01*
X262349Y91236D02*
X263463D01*
X262906Y90679D02*
Y91793D01*
X262411Y92176D02*
X262349Y92300D01*
X262164Y92486D01*
X263463D01*
X262473Y93191D02*
X262411D01*
X262287Y93253D01*
X262225Y93315D01*
X262164Y93439D01*
Y93687D01*
X262225Y93810D01*
X262287Y93872D01*
X262411Y93934D01*
X262535D01*
X262659Y93872D01*
X262844Y93748D01*
X263463Y93130D01*
Y93996D01*
X262164Y94287D02*
X263463Y94782D01*
X262164Y95277D02*
X263463Y94782D01*
X254855Y92248D02*
X254731Y92186D01*
X254607Y92062D01*
X254545Y91938D01*
Y91691D01*
X254607Y91567D01*
X254731Y91443D01*
X254855Y91381D01*
X255041Y91319D01*
X255350D01*
X255536Y91381D01*
X255659Y91443D01*
X255783Y91567D01*
X255845Y91691D01*
Y91938D01*
X255783Y92062D01*
X255659Y92186D01*
X255536Y92248D01*
X255350D01*
Y91938D02*
Y92248D01*
X254545Y92545D02*
X255845D01*
X254545D02*
X255845Y93411D01*
X254545D02*
X255845D01*
X254545Y93770D02*
X255845D01*
X254545D02*
Y94203D01*
X254607Y94389D01*
X254731Y94513D01*
X254855Y94575D01*
X255041Y94637D01*
X255350D01*
X255536Y94575D01*
X255659Y94513D01*
X255783Y94389D01*
X255845Y94203D01*
Y93770D01*
X257395Y92247D02*
X257271Y92186D01*
X257147Y92062D01*
X257085Y91938D01*
Y91690D01*
X257147Y91567D01*
X257271Y91443D01*
X257395Y91381D01*
X257581Y91319D01*
X257890D01*
X258076Y91381D01*
X258199Y91443D01*
X258323Y91567D01*
X258385Y91690D01*
Y91938D01*
X258323Y92062D01*
X258199Y92186D01*
X258076Y92247D01*
X257890D01*
Y91938D02*
Y92247D01*
X257085Y92545D02*
X258385D01*
X257085D02*
X258385Y93411D01*
X257085D02*
X258385D01*
X257085Y93770D02*
X258385D01*
X257085D02*
Y94203D01*
X257147Y94389D01*
X257271Y94513D01*
X257395Y94575D01*
X257581Y94636D01*
X257890D01*
X258076Y94575D01*
X258199Y94513D01*
X258323Y94389D01*
X258385Y94203D01*
Y93770D01*
X259809Y91236D02*
X260923D01*
X260366Y90679D02*
Y91793D01*
X259871Y92176D02*
X259809Y92300D01*
X259624Y92486D01*
X260923D01*
X259933Y93191D02*
X259871D01*
X259747Y93253D01*
X259685Y93315D01*
X259624Y93439D01*
Y93687D01*
X259685Y93810D01*
X259747Y93872D01*
X259871Y93934D01*
X259995D01*
X260119Y93872D01*
X260304Y93748D01*
X260923Y93130D01*
Y93996D01*
X259624Y94287D02*
X260923Y94782D01*
X259624Y95277D02*
X260923Y94782D01*
D97*
X231072Y26327D02*
G03*
X231072Y26327I-254J0D01*
G01*
X238913Y26352D02*
G03*
X238913Y26352I-254J0D01*
G01*
X119967Y127575D02*
X140033D01*
X119967Y133544D02*
X140033D01*
Y127575D02*
Y133544D01*
X119967Y127575D02*
Y133544D01*
X79967Y127575D02*
Y133544D01*
X100033Y127575D02*
Y133544D01*
X79967D02*
X100033D01*
X79967Y127575D02*
X100033D01*
X172671Y65791D02*
Y65855D01*
X225738Y11087D02*
Y28613D01*
X231580Y11087D02*
Y28613D01*
X225738Y11087D02*
X231580D01*
X225738Y28613D02*
X231580D01*
X233579Y28638D02*
X239421D01*
X233579Y11112D02*
X239421D01*
Y28638D01*
X233579Y11112D02*
Y28638D01*
X32076Y161332D02*
Y177588D01*
X22424Y161332D02*
Y177588D01*
Y161332D02*
X32076D01*
X22424Y177588D02*
X32076D01*
Y161332D02*
Y180509D01*
X22424Y161332D02*
Y180509D01*
Y161332D02*
X32076D01*
X22424Y180509D02*
X32076D01*
X102326Y24818D02*
X102390D01*
X64626D02*
X64689D01*
X83276D02*
X83340D01*
X74101Y12818D02*
X74164D01*
X71244Y66521D02*
Y66585D01*
X56644Y66371D02*
Y66435D01*
X258425Y65815D02*
Y65878D01*
X272855Y65815D02*
Y65878D01*
X158299Y65781D02*
Y65845D01*
X22251Y161332D02*
Y177588D01*
X12599Y161332D02*
Y177588D01*
Y161332D02*
X22251D01*
X12599Y177588D02*
X22251D01*
Y161332D02*
Y180509D01*
X12599Y161332D02*
Y180509D01*
Y161332D02*
X22251D01*
X12599Y180509D02*
X22251D01*
X55174Y175513D02*
X64826D01*
X55174Y156336D02*
X64826D01*
X55174D02*
Y175513D01*
X64826Y156336D02*
Y175513D01*
X55174Y172592D02*
X64826D01*
X55174Y156336D02*
X64826D01*
X55174D02*
Y172592D01*
X64826Y156336D02*
Y172592D01*
X32174Y180509D02*
X41826D01*
X32174Y161332D02*
X41826D01*
X32174D02*
Y180509D01*
X41826Y161332D02*
Y180509D01*
X32174Y177588D02*
X41826D01*
X32174Y161332D02*
X41826D01*
X32174D02*
Y177588D01*
X41826Y161332D02*
Y177588D01*
X155067Y175513D02*
X164719D01*
X155067Y156336D02*
X164719D01*
X155067D02*
Y175513D01*
X164719Y156336D02*
Y175513D01*
X155067Y172592D02*
X164719D01*
X155067Y156336D02*
X164719D01*
X155067D02*
Y172592D01*
X164719Y156336D02*
Y172592D01*
X255168Y175513D02*
X264820D01*
X255168Y156336D02*
X264820D01*
X255168D02*
Y175513D01*
X264820Y156336D02*
Y175513D01*
X255168Y172592D02*
X264820D01*
X255168Y156336D02*
X264820D01*
X255168D02*
Y172592D01*
X264820Y156336D02*
Y172592D01*
X179967Y127575D02*
X200033D01*
X179967Y133544D02*
X200033D01*
Y127575D02*
Y133544D01*
X179967Y127575D02*
Y133544D01*
X159967Y127575D02*
X180033D01*
X159967Y133544D02*
X180033D01*
Y127575D02*
Y133544D01*
X159967Y127575D02*
Y133544D01*
X39967Y127575D02*
X60033D01*
X39967Y133544D02*
X60033D01*
Y127575D02*
Y133544D01*
X39967Y127575D02*
Y133544D01*
X19967Y127575D02*
X40033D01*
X19967Y133544D02*
X40033D01*
Y127575D02*
Y133544D01*
X19967Y127575D02*
Y133544D01*
X59967Y127575D02*
X80033D01*
X59967Y133544D02*
X80033D01*
Y127575D02*
Y133544D01*
X59967Y127575D02*
Y133544D01*
X279967Y127575D02*
X300033D01*
X279967Y133544D02*
X300033D01*
Y127575D02*
Y133544D01*
X279967Y127575D02*
Y133544D01*
X259967Y127575D02*
X280033D01*
X259967Y133544D02*
X280033D01*
Y127575D02*
Y133544D01*
X259967Y127575D02*
Y133544D01*
X139967Y127575D02*
X160033D01*
X139967Y133544D02*
X160033D01*
Y127575D02*
Y133544D01*
X139967Y127575D02*
Y133544D01*
X219967Y127575D02*
X240033D01*
X219967Y133544D02*
X240033D01*
Y127575D02*
Y133544D01*
X219967Y127575D02*
Y133544D01*
X239967Y127575D02*
X260033D01*
X239967Y133544D02*
X260033D01*
Y127575D02*
Y133544D01*
X239967Y127575D02*
Y133544D01*
X91601Y12443D02*
X91664D01*
X45136Y24818D02*
X45200D01*
X54826Y12818D02*
X54889D01*
X118783Y51836D02*
X118250D01*
Y51436D01*
X118517Y51569D01*
X118650D01*
X118783Y51436D01*
Y51169D01*
X118650Y51036D01*
X118384D01*
X118250Y51169D01*
X119050Y51836D02*
Y51303D01*
X119317Y51036D01*
X119583Y51303D01*
Y51836D01*
X119850Y51036D02*
X120116D01*
X119983D01*
Y51836D01*
X119850Y51702D01*
X117996Y54604D02*
Y54071D01*
X118263Y53804D01*
X118529Y54071D01*
Y54604D01*
X118796Y54470D02*
X118929Y54604D01*
X119196D01*
X119329Y54470D01*
Y54337D01*
X119196Y54204D01*
X119063D01*
X119196D01*
X119329Y54071D01*
Y53937D01*
X119196Y53804D01*
X118929D01*
X118796Y53937D01*
X119596Y54604D02*
Y54071D01*
X119862Y53804D01*
X120129Y54071D01*
Y54604D01*
X172730Y1837D02*
X172596Y1704D01*
Y1437D01*
X172730Y1304D01*
X173263D01*
X173396Y1437D01*
Y1704D01*
X173263Y1837D01*
X172996D01*
Y1571D01*
X173396Y2104D02*
X172596D01*
X173396Y2637D01*
X172596D01*
Y2903D02*
X173396D01*
Y3303D01*
X173263Y3437D01*
X172730D01*
X172596Y3303D01*
Y2903D01*
X223195Y16419D02*
X223062Y16553D01*
X222795D01*
X222662Y16419D01*
Y15886D01*
X222795Y15753D01*
X223062D01*
X223195Y15886D01*
X223995Y16419D02*
X223862Y16553D01*
X223595D01*
X223462Y16419D01*
Y16286D01*
X223595Y16153D01*
X223862D01*
X223995Y16019D01*
Y15886D01*
X223862Y15753D01*
X223595D01*
X223462Y15886D01*
X224795Y15753D02*
X224261D01*
X224795Y16286D01*
Y16419D01*
X224661Y16553D01*
X224395D01*
X224261Y16419D01*
X222491Y20620D02*
Y21420D01*
X222758Y21154D01*
X223025Y21420D01*
Y20620D01*
X223291Y21420D02*
X223558D01*
X223424D01*
Y20620D01*
X223291D01*
X223558D01*
X224491Y21287D02*
X224357Y21420D01*
X224091D01*
X223958Y21287D01*
Y21154D01*
X224091Y21020D01*
X224357D01*
X224491Y20887D01*
Y20754D01*
X224357Y20620D01*
X224091D01*
X223958Y20754D01*
X225157Y21420D02*
X224891D01*
X224757Y21287D01*
Y20754D01*
X224891Y20620D01*
X225157D01*
X225290Y20754D01*
Y21287D01*
X225157Y21420D01*
X222491Y23160D02*
Y23960D01*
X222758Y23694D01*
X223025Y23960D01*
Y23160D01*
X223691Y23960D02*
X223424D01*
X223291Y23827D01*
Y23294D01*
X223424Y23160D01*
X223691D01*
X223824Y23294D01*
Y23827D01*
X223691Y23960D01*
X224624Y23827D02*
X224491Y23960D01*
X224224D01*
X224091Y23827D01*
Y23694D01*
X224224Y23560D01*
X224491D01*
X224624Y23427D01*
Y23294D01*
X224491Y23160D01*
X224224D01*
X224091Y23294D01*
X224891Y23960D02*
X225157D01*
X225024D01*
Y23160D01*
X224891D01*
X225157D01*
X223025Y18747D02*
X222891Y18880D01*
X222625D01*
X222491Y18747D01*
Y18614D01*
X222625Y18480D01*
X222891D01*
X223025Y18347D01*
Y18214D01*
X222891Y18080D01*
X222625D01*
X222491Y18214D01*
X223824Y18747D02*
X223691Y18880D01*
X223424D01*
X223291Y18747D01*
Y18214D01*
X223424Y18080D01*
X223691D01*
X223824Y18214D01*
X224091Y18880D02*
Y18080D01*
Y18347D01*
X224624Y18880D01*
X224224Y18480D01*
X224624Y18080D01*
X241059Y26752D02*
X240926Y26885D01*
X240659D01*
X240526Y26752D01*
Y26219D01*
X240659Y26086D01*
X240926D01*
X241059Y26219D01*
Y26486D01*
X240793D01*
X241326Y26086D02*
Y26885D01*
X241859Y26086D01*
Y26885D01*
X242126D02*
Y26086D01*
X242526D01*
X242659Y26219D01*
Y26752D01*
X242526Y26885D01*
X242126D01*
X241169Y13908D02*
X240635D01*
Y13508D01*
X240902Y13642D01*
X241035D01*
X241169Y13508D01*
Y13242D01*
X241035Y13109D01*
X240769D01*
X240635Y13242D01*
X241435Y13908D02*
Y13375D01*
X241702Y13109D01*
X241968Y13375D01*
Y13908D01*
X242235Y13109D02*
X242501D01*
X242368D01*
Y13908D01*
X242235Y13775D01*
X240767Y45632D02*
X240634Y45766D01*
X240367D01*
X240234Y45632D01*
Y45099D01*
X240367Y44966D01*
X240634D01*
X240767Y45099D01*
Y45366D01*
X240501D01*
X241034Y44966D02*
Y45766D01*
X241567Y44966D01*
Y45766D01*
X241833D02*
Y44966D01*
X242233D01*
X242367Y45099D01*
Y45632D01*
X242233Y45766D01*
X241833D01*
X240229Y58479D02*
Y57946D01*
X240496Y57679D01*
X240762Y57946D01*
Y58479D01*
X241029Y58345D02*
X241162Y58479D01*
X241429D01*
X241562Y58345D01*
Y58212D01*
X241429Y58079D01*
X241295D01*
X241429D01*
X241562Y57946D01*
Y57812D01*
X241429Y57679D01*
X241162D01*
X241029Y57812D01*
X241828Y58479D02*
Y57946D01*
X242095Y57679D01*
X242362Y57946D01*
Y58479D01*
X217131Y49837D02*
X216998Y49704D01*
Y49437D01*
X217131Y49304D01*
X217265D01*
X217398Y49437D01*
Y49704D01*
X217531Y49837D01*
X217664D01*
X217798Y49704D01*
Y49437D01*
X217664Y49304D01*
X216998Y50637D02*
Y50104D01*
X217798D01*
Y50637D01*
X217398Y50104D02*
Y50370D01*
X217798Y50903D02*
X216998D01*
X217798Y51437D01*
X216998D01*
X217131Y52236D02*
X216998Y52103D01*
Y51837D01*
X217131Y51703D01*
X217265D01*
X217398Y51837D01*
Y52103D01*
X217531Y52236D01*
X217664D01*
X217798Y52103D01*
Y51837D01*
X217664Y51703D01*
X217931Y52503D02*
Y53036D01*
X217131Y53303D02*
X216998Y53436D01*
Y53703D01*
X217131Y53836D01*
X217265D01*
X217398Y53703D01*
Y53569D01*
Y53703D01*
X217531Y53836D01*
X217664D01*
X217798Y53703D01*
Y53436D01*
X217664Y53303D01*
X219488Y49791D02*
X219355Y49658D01*
Y49391D01*
X219488Y49258D01*
X220021D01*
X220154Y49391D01*
Y49658D01*
X220021Y49791D01*
X219755D01*
Y49524D01*
X220154Y50057D02*
X219355D01*
X220154Y50591D01*
X219355D01*
Y50857D02*
X220154D01*
Y51257D01*
X220021Y51390D01*
X219488D01*
X219355Y51257D01*
Y50857D01*
X199413Y49487D02*
X199280Y49354D01*
Y49087D01*
X199413Y48954D01*
X199546D01*
X199680Y49087D01*
Y49354D01*
X199813Y49487D01*
X199946D01*
X200080Y49354D01*
Y49087D01*
X199946Y48954D01*
X199280Y50287D02*
Y49754D01*
X200080D01*
Y50287D01*
X199680Y49754D02*
Y50020D01*
X200080Y50553D02*
X199280D01*
X200080Y51087D01*
X199280D01*
X199413Y51886D02*
X199280Y51753D01*
Y51487D01*
X199413Y51353D01*
X199546D01*
X199680Y51487D01*
Y51753D01*
X199813Y51886D01*
X199946D01*
X200080Y51753D01*
Y51487D01*
X199946Y51353D01*
X200213Y52153D02*
Y52686D01*
X200080Y52953D02*
Y53219D01*
Y53086D01*
X199280D01*
X199413Y52953D01*
X205606Y50239D02*
Y49706D01*
X206006D01*
X205873Y49973D01*
Y50106D01*
X206006Y50239D01*
X206273D01*
X206406Y50106D01*
Y49839D01*
X206273Y49706D01*
X205606Y50506D02*
X206139D01*
X206406Y50772D01*
X206139Y51039D01*
X205606D01*
X208009Y49487D02*
X207875Y49354D01*
Y49087D01*
X208009Y48954D01*
X208142D01*
X208275Y49087D01*
Y49354D01*
X208408Y49487D01*
X208542D01*
X208675Y49354D01*
Y49087D01*
X208542Y48954D01*
X207875Y50287D02*
Y49754D01*
X208675D01*
Y50287D01*
X208275Y49754D02*
Y50020D01*
X208675Y50553D02*
X207875D01*
X208675Y51087D01*
X207875D01*
X208009Y51886D02*
X207875Y51753D01*
Y51487D01*
X208009Y51353D01*
X208142D01*
X208275Y51487D01*
Y51753D01*
X208408Y51886D01*
X208542D01*
X208675Y51753D01*
Y51487D01*
X208542Y51353D01*
X208808Y52153D02*
Y52686D01*
X208675Y53486D02*
Y52953D01*
X208142Y53486D01*
X208009D01*
X207875Y53353D01*
Y53086D01*
X208009Y52953D01*
X210863Y49716D02*
X210730Y49583D01*
Y49316D01*
X210863Y49183D01*
X211396D01*
X211529Y49316D01*
Y49583D01*
X211396Y49716D01*
X211130D01*
Y49449D01*
X211529Y49982D02*
X210730D01*
X211529Y50516D01*
X210730D01*
Y50782D02*
X211529D01*
Y51182D01*
X211396Y51315D01*
X210863D01*
X210730Y51182D01*
Y50782D01*
X201988Y49666D02*
X201855Y49533D01*
Y49266D01*
X201988Y49133D01*
X202521D01*
X202654Y49266D01*
Y49533D01*
X202521Y49666D01*
X202255D01*
Y49399D01*
X202654Y49932D02*
X201855D01*
X202654Y50466D01*
X201855D01*
Y50732D02*
X202654D01*
Y51132D01*
X202521Y51265D01*
X201988D01*
X201855Y51132D01*
Y50732D01*
X214231Y50314D02*
Y49781D01*
X214631D01*
X214498Y50048D01*
Y50181D01*
X214631Y50314D01*
X214898D01*
X215031Y50181D01*
Y49914D01*
X214898Y49781D01*
X214231Y50581D02*
X214764D01*
X215031Y50847D01*
X214764Y51114D01*
X214231D01*
X193278Y49875D02*
Y49342D01*
X193678D01*
X193545Y49609D01*
Y49742D01*
X193678Y49875D01*
X193945D01*
X194078Y49742D01*
Y49475D01*
X193945Y49342D01*
X193278Y50142D02*
X193811D01*
X194078Y50409D01*
X193811Y50675D01*
X193278D01*
X181317Y49495D02*
Y50028D01*
Y49762D01*
X182117D01*
X181317Y50295D02*
Y50561D01*
Y50428D01*
X182117D01*
Y50295D01*
Y50561D01*
Y50961D02*
X181317D01*
X181584Y51228D01*
X181317Y51494D01*
X182117D01*
Y51761D02*
Y52028D01*
Y51894D01*
X181317D01*
X181451Y51761D01*
X190147Y49596D02*
Y50129D01*
Y49863D01*
X190947D01*
X190147Y50396D02*
Y50663D01*
Y50529D01*
X190947D01*
Y50396D01*
Y50663D01*
Y51062D02*
X190147D01*
X190414Y51329D01*
X190147Y51596D01*
X190947D01*
Y52395D02*
Y51862D01*
X190414Y52395D01*
X190281D01*
X190147Y52262D01*
Y51995D01*
X190281Y51862D01*
X187790Y50489D02*
X187656Y50356D01*
Y50089D01*
X187790Y49956D01*
X188323D01*
X188456Y50089D01*
Y50356D01*
X188323Y50489D01*
X188056D01*
Y50223D01*
X188456Y50756D02*
X187656D01*
X188456Y51289D01*
X187656D01*
Y51556D02*
X188456D01*
Y51955D01*
X188323Y52089D01*
X187790D01*
X187656Y51955D01*
Y51556D01*
X184107Y50028D02*
Y49495D01*
X184507D01*
X184374Y49762D01*
Y49895D01*
X184507Y50028D01*
X184774D01*
X184907Y49895D01*
Y49628D01*
X184774Y49495D01*
X184107Y50295D02*
X184640D01*
X184907Y50561D01*
X184640Y50828D01*
X184107D01*
X178990Y50239D02*
X178856Y50106D01*
Y49839D01*
X178990Y49706D01*
X179523D01*
X179656Y49839D01*
Y50106D01*
X179523Y50239D01*
X179256D01*
Y49973D01*
X179656Y50506D02*
X178856D01*
X179656Y51039D01*
X178856D01*
Y51306D02*
X179656D01*
Y51705D01*
X179523Y51839D01*
X178990D01*
X178856Y51705D01*
Y51306D01*
X118044Y49426D02*
Y48626D01*
X118577D01*
X119377Y49426D02*
X118844D01*
Y48626D01*
X119377D01*
X118844Y49026D02*
X119111D01*
X119644Y49426D02*
Y48626D01*
X120044D01*
X120177Y48759D01*
Y49292D01*
X120044Y49426D01*
X119644D01*
X120444Y48493D02*
X120977D01*
X121776Y49426D02*
X121510Y49292D01*
X121243Y49026D01*
Y48759D01*
X121377Y48626D01*
X121643D01*
X121776Y48759D01*
Y48893D01*
X121643Y49026D01*
X121243D01*
X118801Y41271D02*
X118668Y41404D01*
X118401D01*
X118268Y41271D01*
Y40738D01*
X118401Y40605D01*
X118668D01*
X118801Y40738D01*
Y41005D01*
X118534D01*
X119068Y40605D02*
Y41404D01*
X119601Y40605D01*
Y41404D01*
X119867D02*
Y40605D01*
X120267D01*
X120400Y40738D01*
Y41271D01*
X120267Y41404D01*
X119867D01*
X118143Y46801D02*
Y46001D01*
X118677D01*
X119476Y46801D02*
X118943D01*
Y46001D01*
X119476D01*
X118943Y46401D02*
X119210D01*
X119743Y46801D02*
Y46001D01*
X120143D01*
X120276Y46134D01*
Y46668D01*
X120143Y46801D01*
X119743D01*
X120543Y45868D02*
X121076D01*
X121876Y46801D02*
X121342D01*
Y46401D01*
X121609Y46534D01*
X121742D01*
X121876Y46401D01*
Y46134D01*
X121742Y46001D01*
X121476D01*
X121342Y46134D01*
X118214Y44395D02*
Y43595D01*
X118747D01*
X119547Y44395D02*
X119014D01*
Y43595D01*
X119547D01*
X119014Y43995D02*
X119280D01*
X119813Y44395D02*
Y43595D01*
X120213D01*
X120347Y43728D01*
Y44261D01*
X120213Y44395D01*
X119813D01*
X120613Y43462D02*
X121146D01*
X121813Y43595D02*
Y44395D01*
X121413Y43995D01*
X121946D01*
X14575Y979D02*
X15241D01*
X15574Y1312D01*
X15241Y1645D01*
X14575D01*
X14741Y2645D02*
X14575Y2479D01*
Y2145D01*
X14741Y1979D01*
X15408D01*
X15574Y2145D01*
Y2479D01*
X15408Y2645D01*
X14741Y3645D02*
X14575Y3478D01*
Y3145D01*
X14741Y2978D01*
X15408D01*
X15574Y3145D01*
Y3478D01*
X15408Y3645D01*
X15741Y3978D02*
Y4644D01*
X14741Y5644D02*
X14575Y5478D01*
Y5144D01*
X14741Y4978D01*
X14908D01*
X15075Y5144D01*
Y5478D01*
X15241Y5644D01*
X15408D01*
X15574Y5478D01*
Y5144D01*
X15408Y4978D01*
X14575Y6644D02*
Y5977D01*
X15574D01*
Y6644D01*
X15075Y5977D02*
Y6311D01*
X15574Y6977D02*
X14575D01*
Y7477D01*
X14741Y7644D01*
X15075D01*
X15241Y7477D01*
Y6977D01*
Y7310D02*
X15574Y7644D01*
X14575Y7977D02*
X15241D01*
X15574Y8310D01*
X15241Y8643D01*
X14575D01*
Y9476D02*
Y9143D01*
X14741Y8976D01*
X15408D01*
X15574Y9143D01*
Y9476D01*
X15408Y9643D01*
X14741D01*
X14575Y9476D01*
X32505Y1965D02*
X32339Y1799D01*
Y1466D01*
X32505Y1299D01*
X33172D01*
X33338Y1466D01*
Y1799D01*
X33172Y1965D01*
X32838D01*
Y1632D01*
X33338Y2299D02*
X32339D01*
X33338Y2965D01*
X32339D01*
Y3298D02*
X33338D01*
Y3798D01*
X33172Y3965D01*
X32505D01*
X32339Y3798D01*
Y3298D01*
X6437Y14677D02*
X5904D01*
X13168Y14918D02*
X12635D01*
X12901Y14651D02*
Y15185D01*
X13168Y32317D02*
X12635D01*
X12901Y32050D02*
Y32584D01*
X6437Y32076D02*
X5904D01*
X563Y55083D02*
X396Y54916D01*
Y54583D01*
X563Y54416D01*
X1229D01*
X1396Y54583D01*
Y54916D01*
X1229Y55083D01*
X896D01*
Y54749D01*
X1396Y55416D02*
X396D01*
X1396Y56082D01*
X396D01*
Y56415D02*
X1396D01*
Y56915D01*
X1229Y57082D01*
X563D01*
X396Y56915D01*
Y56415D01*
X563Y71647D02*
X396Y71481D01*
Y71147D01*
X563Y70981D01*
X1229D01*
X1396Y71147D01*
Y71481D01*
X1229Y71647D01*
X896D01*
Y71314D01*
X1396Y71980D02*
X396D01*
X1396Y72647D01*
X396D01*
Y72980D02*
X1396D01*
Y73480D01*
X1229Y73646D01*
X563D01*
X396Y73480D01*
Y72980D01*
Y65590D02*
X1063D01*
X1396Y65923D01*
X1063Y66257D01*
X396D01*
X563Y67256D02*
X396Y67090D01*
Y66756D01*
X563Y66590D01*
X1229D01*
X1396Y66756D01*
Y67090D01*
X1229Y67256D01*
X563Y68256D02*
X396Y68089D01*
Y67756D01*
X563Y67590D01*
X1229D01*
X1396Y67756D01*
Y68089D01*
X1229Y68256D01*
X396Y47818D02*
X1063D01*
X1396Y48152D01*
X1063Y48485D01*
X396D01*
X563Y49485D02*
X396Y49318D01*
Y48985D01*
X563Y48818D01*
X1229D01*
X1396Y48985D01*
Y49318D01*
X1229Y49485D01*
X563Y50484D02*
X396Y50318D01*
Y49984D01*
X563Y49818D01*
X1229D01*
X1396Y49984D01*
Y50318D01*
X1229Y50484D01*
X10247Y170804D02*
X11746D01*
X10996D01*
Y171804D01*
X10247D01*
X11746D01*
X10247Y172304D02*
X11246D01*
X11746Y172803D01*
X11246Y173303D01*
X10247D01*
X11996Y173803D02*
Y174803D01*
X10247Y175303D02*
X11246D01*
X11746Y175802D01*
X11246Y176302D01*
X10247D01*
X10496Y177802D02*
X10247Y177552D01*
Y177052D01*
X10496Y176802D01*
X11496D01*
X11746Y177052D01*
Y177552D01*
X11496Y177802D01*
X10496Y179301D02*
X10247Y179051D01*
Y178551D01*
X10496Y178302D01*
X11496D01*
X11746Y178551D01*
Y179051D01*
X11496Y179301D01*
X42497Y170393D02*
X43997D01*
X43247D01*
Y171393D01*
X42497D01*
X43997D01*
X42497Y171893D02*
X43497D01*
X43997Y172393D01*
X43497Y172893D01*
X42497D01*
X44247Y173392D02*
Y174392D01*
X42747Y175892D02*
X42497Y175642D01*
Y175142D01*
X42747Y174892D01*
X43747D01*
X43997Y175142D01*
Y175642D01*
X43747Y175892D01*
X43247D01*
Y175392D01*
X43997Y176391D02*
X42497D01*
X43997Y177391D01*
X42497D01*
Y177891D02*
X43997D01*
Y178641D01*
X43747Y178891D01*
X42747D01*
X42497Y178641D01*
Y177891D01*
X240234Y48306D02*
Y47506D01*
X240767D01*
X241567Y48306D02*
X241034D01*
Y47506D01*
X241567D01*
X241034Y47906D02*
X241300D01*
X241833Y48306D02*
Y47506D01*
X242233D01*
X242367Y47639D01*
Y48172D01*
X242233Y48306D01*
X241833D01*
X242633Y48172D02*
X242767Y48306D01*
X243033D01*
X243166Y48172D01*
Y48039D01*
X243033Y47906D01*
X242900D01*
X243033D01*
X243166Y47772D01*
Y47639D01*
X243033Y47506D01*
X242767D01*
X242633Y47639D01*
X240234Y50684D02*
Y49884D01*
X240767D01*
X241567Y50684D02*
X241034D01*
Y49884D01*
X241567D01*
X241034Y50284D02*
X241300D01*
X241833Y50684D02*
Y49884D01*
X242233D01*
X242367Y50018D01*
Y50551D01*
X242233Y50684D01*
X241833D01*
X243166Y49884D02*
X242633D01*
X243166Y50418D01*
Y50551D01*
X243033Y50684D01*
X242767D01*
X242633Y50551D01*
X240229Y52954D02*
Y52154D01*
X240762D01*
X241562Y52954D02*
X241029D01*
Y52154D01*
X241562D01*
X241029Y52554D02*
X241295D01*
X241828Y52954D02*
Y52154D01*
X242228D01*
X242362Y52287D01*
Y52820D01*
X242228Y52954D01*
X241828D01*
X242628Y52154D02*
X242895D01*
X242762D01*
Y52954D01*
X242628Y52820D01*
X240802Y55926D02*
X240269D01*
Y55526D01*
X240536Y55659D01*
X240669D01*
X240802Y55526D01*
Y55259D01*
X240669Y55126D01*
X240402D01*
X240269Y55259D01*
X241069Y55926D02*
Y55392D01*
X241335Y55126D01*
X241602Y55392D01*
Y55926D01*
X241869Y55126D02*
X242135D01*
X242002D01*
Y55926D01*
X241869Y55792D01*
X222429Y47779D02*
Y46979D01*
X222829D01*
X222962Y47112D01*
Y47645D01*
X222829Y47779D01*
X222429D01*
X223229D02*
X223495D01*
X223362D01*
Y46979D01*
X223229D01*
X223495D01*
X223895D02*
Y47779D01*
X224295D01*
X224428Y47645D01*
Y47379D01*
X224295Y47246D01*
X223895D01*
X224162D02*
X224428Y46979D01*
X222804Y50358D02*
X223337D01*
X223071D01*
Y49558D01*
X223604Y50358D02*
X224137Y49558D01*
Y50358D02*
X223604Y49558D01*
X222804Y52304D02*
Y53104D01*
X223204D01*
X223337Y52970D01*
Y52704D01*
X223204Y52571D01*
X222804D01*
X223071D02*
X223337Y52304D01*
X223604Y53104D02*
X224137Y52304D01*
Y53104D02*
X223604Y52304D01*
X162321Y1304D02*
X163121D01*
Y1704D01*
X162988Y1837D01*
X162455D01*
X162321Y1704D01*
Y1304D01*
Y2104D02*
Y2370D01*
Y2237D01*
X163121D01*
Y2104D01*
Y2370D01*
X162321Y3170D02*
Y2903D01*
X162455Y2770D01*
X162988D01*
X163121Y2903D01*
Y3170D01*
X162988Y3303D01*
X162455D01*
X162321Y3170D01*
X165080Y1837D02*
X164946Y1704D01*
Y1437D01*
X165080Y1304D01*
X165213D01*
X165346Y1437D01*
Y1704D01*
X165479Y1837D01*
X165613D01*
X165746Y1704D01*
Y1437D01*
X165613Y1304D01*
X165080Y2637D02*
X164946Y2504D01*
Y2237D01*
X165080Y2104D01*
X165613D01*
X165746Y2237D01*
Y2504D01*
X165613Y2637D01*
X164946Y2903D02*
X165746D01*
X165479D01*
X164946Y3437D01*
X165346Y3037D01*
X165746Y3437D01*
X221704Y58504D02*
Y57971D01*
X221971Y57704D01*
X222237Y57971D01*
Y58504D01*
X222504Y58370D02*
X222637Y58504D01*
X222904D01*
X223037Y58370D01*
Y58237D01*
X222904Y58104D01*
X222770D01*
X222904D01*
X223037Y57971D01*
Y57837D01*
X222904Y57704D01*
X222637D01*
X222504Y57837D01*
X223303Y58504D02*
Y57971D01*
X223570Y57704D01*
X223837Y57971D01*
Y58504D01*
X223062Y55654D02*
X222529D01*
Y55254D01*
X222796Y55387D01*
X222929D01*
X223062Y55254D01*
Y54987D01*
X222929Y54854D01*
X222662D01*
X222529Y54987D01*
X223329Y55654D02*
Y55121D01*
X223595Y54854D01*
X223862Y55121D01*
Y55654D01*
X224128Y54854D02*
X224395D01*
X224262D01*
Y55654D01*
X224128Y55520D01*
X222824Y45028D02*
X222690Y45161D01*
X222424D01*
X222291Y45028D01*
Y44495D01*
X222424Y44362D01*
X222690D01*
X222824Y44495D01*
Y44762D01*
X222557D01*
X223090Y44362D02*
Y45161D01*
X223624Y44362D01*
Y45161D01*
X223890D02*
Y44362D01*
X224290D01*
X224423Y44495D01*
Y45028D01*
X224290Y45161D01*
X223890D01*
X241237Y18907D02*
X241104Y19040D01*
X240837D01*
X240704Y18907D01*
Y18773D01*
X240837Y18640D01*
X241104D01*
X241237Y18507D01*
Y18374D01*
X241104Y18240D01*
X240837D01*
X240704Y18374D01*
X242037Y18907D02*
X241904Y19040D01*
X241637D01*
X241504Y18907D01*
Y18374D01*
X241637Y18240D01*
X241904D01*
X242037Y18374D01*
X242303Y19040D02*
Y18240D01*
Y18507D01*
X242837Y19040D01*
X242437Y18640D01*
X242837Y18240D01*
X240704Y23320D02*
Y24120D01*
X240971Y23853D01*
X241237Y24120D01*
Y23320D01*
X241904Y24120D02*
X241637D01*
X241504Y23987D01*
Y23454D01*
X241637Y23320D01*
X241904D01*
X242037Y23454D01*
Y23987D01*
X241904Y24120D01*
X242837Y23987D02*
X242703Y24120D01*
X242437D01*
X242303Y23987D01*
Y23853D01*
X242437Y23720D01*
X242703D01*
X242837Y23587D01*
Y23454D01*
X242703Y23320D01*
X242437D01*
X242303Y23454D01*
X243103Y24120D02*
X243370D01*
X243237D01*
Y23320D01*
X243103D01*
X243370D01*
X240704Y20780D02*
Y21580D01*
X240971Y21313D01*
X241237Y21580D01*
Y20780D01*
X241504Y21580D02*
X241770D01*
X241637D01*
Y20780D01*
X241504D01*
X241770D01*
X242703Y21447D02*
X242570Y21580D01*
X242303D01*
X242170Y21447D01*
Y21313D01*
X242303Y21180D01*
X242570D01*
X242703Y21047D01*
Y20914D01*
X242570Y20780D01*
X242303D01*
X242170Y20914D01*
X243370Y21580D02*
X243103D01*
X242970Y21447D01*
Y20914D01*
X243103Y20780D01*
X243370D01*
X243503Y20914D01*
Y21447D01*
X243370Y21580D01*
X241237Y16367D02*
X241104Y16500D01*
X240837D01*
X240704Y16367D01*
Y15834D01*
X240837Y15700D01*
X241104D01*
X241237Y15834D01*
X242037Y16367D02*
X241904Y16500D01*
X241637D01*
X241504Y16367D01*
Y16233D01*
X241637Y16100D01*
X241904D01*
X242037Y15967D01*
Y15834D01*
X241904Y15700D01*
X241637D01*
X241504Y15834D01*
X242303Y16367D02*
X242437Y16500D01*
X242703D01*
X242837Y16367D01*
Y16233D01*
X242703Y16100D01*
X242570D01*
X242703D01*
X242837Y15967D01*
Y15834D01*
X242703Y15700D01*
X242437D01*
X242303Y15834D01*
X224062Y13829D02*
X223529D01*
Y13429D01*
X223796Y13562D01*
X223929D01*
X224062Y13429D01*
Y13162D01*
X223929Y13029D01*
X223662D01*
X223529Y13162D01*
X224329Y13829D02*
Y13296D01*
X224595Y13029D01*
X224862Y13296D01*
Y13829D01*
X225128Y13029D02*
X225395D01*
X225262D01*
Y13829D01*
X225128Y13695D01*
X223362Y26502D02*
X223229Y26635D01*
X222962D01*
X222829Y26502D01*
Y25969D01*
X222962Y25835D01*
X223229D01*
X223362Y25969D01*
Y26235D01*
X223096D01*
X223629Y25835D02*
Y26635D01*
X224162Y25835D01*
Y26635D01*
X224428D02*
Y25835D01*
X224828D01*
X224962Y25969D01*
Y26502D01*
X224828Y26635D01*
X224428D01*
X167705Y1837D02*
X167571Y1704D01*
Y1437D01*
X167705Y1304D01*
X167838D01*
X167971Y1437D01*
Y1704D01*
X168104Y1837D01*
X168238D01*
X168371Y1704D01*
Y1437D01*
X168238Y1304D01*
X167571Y2104D02*
X168371D01*
X168104Y2370D01*
X168371Y2637D01*
X167571D01*
Y3303D02*
Y3037D01*
X167705Y2903D01*
X168238D01*
X168371Y3037D01*
Y3303D01*
X168238Y3437D01*
X167705D01*
X167571Y3303D01*
X170871Y1354D02*
X170071D01*
Y1754D01*
X170205Y1887D01*
X170471D01*
X170604Y1754D01*
Y1354D01*
Y1621D02*
X170871Y1887D01*
X170071Y2154D02*
X170871Y2687D01*
X170071D02*
X170871Y2154D01*
X160096Y1254D02*
X160629D01*
X160896Y1521D01*
X160629Y1787D01*
X160096D01*
X160230Y2054D02*
X160096Y2187D01*
Y2454D01*
X160230Y2587D01*
X160363D01*
X160496Y2454D01*
Y2320D01*
Y2454D01*
X160629Y2587D01*
X160763D01*
X160896Y2454D01*
Y2187D01*
X160763Y2054D01*
X160096Y2853D02*
X160629D01*
X160896Y3120D01*
X160629Y3387D01*
X160096D01*
X203407Y39952D02*
X202607D01*
Y40352D01*
X202740Y40486D01*
X203007D01*
X203140Y40352D01*
Y39952D01*
X203407Y40752D02*
Y41019D01*
Y40885D01*
X202607D01*
X202740Y40752D01*
Y41419D02*
X202607Y41552D01*
Y41818D01*
X202740Y41952D01*
X202874D01*
X203007Y41818D01*
Y41685D01*
Y41818D01*
X203140Y41952D01*
X203274D01*
X203407Y41818D01*
Y41552D01*
X203274Y41419D01*
X1617Y162742D02*
X1484Y162875D01*
X1217D01*
X1084Y162742D01*
Y162208D01*
X1217Y162075D01*
X1484D01*
X1617Y162208D01*
X1883Y162742D02*
X2017Y162875D01*
X2283D01*
X2417Y162742D01*
Y162608D01*
X2283Y162475D01*
X2417Y162342D01*
Y162208D01*
X2283Y162075D01*
X2017D01*
X1883Y162208D01*
Y162342D01*
X2017Y162475D01*
X1883Y162608D01*
Y162742D01*
X2017Y162475D02*
X2283D01*
X2683Y162742D02*
X2816Y162875D01*
X3083D01*
X3216Y162742D01*
Y162208D01*
X3083Y162075D01*
X2816D01*
X2683Y162208D01*
Y162742D01*
X38484Y158454D02*
X38351Y158321D01*
Y158054D01*
X38484Y157921D01*
X39018D01*
X39151Y158054D01*
Y158321D01*
X39018Y158454D01*
X38351Y158720D02*
Y159254D01*
X38484D01*
X39018Y158720D01*
X39151D01*
X39018Y159520D02*
X39151Y159653D01*
Y159920D01*
X39018Y160053D01*
X38484D01*
X38351Y159920D01*
Y159653D01*
X38484Y159520D01*
X38618D01*
X38751Y159653D01*
Y160053D01*
X30600Y170342D02*
Y170075D01*
Y170208D01*
X31267D01*
X31400Y170075D01*
Y169942D01*
X31267Y169809D01*
X30733Y170608D02*
X30600Y170742D01*
Y171008D01*
X30733Y171141D01*
X30867D01*
X31000Y171008D01*
Y170875D01*
Y171008D01*
X31133Y171141D01*
X31267D01*
X31400Y171008D01*
Y170742D01*
X31267Y170608D01*
X762Y136071D02*
Y135272D01*
Y135672D01*
X1295D01*
Y136071D01*
Y135272D01*
X1562D02*
X1829D01*
X1695D01*
Y136071D01*
X1562Y135938D01*
X301165Y52243D02*
X300898D01*
X301032D01*
Y51577D01*
X300898Y51444D01*
X300765D01*
X300632Y51577D01*
X301965Y52243D02*
X301698Y52110D01*
X301432Y51843D01*
Y51577D01*
X301565Y51444D01*
X301831D01*
X301965Y51577D01*
Y51710D01*
X301831Y51843D01*
X301432D01*
X268450Y169280D02*
X268316Y169414D01*
X268050D01*
X267917Y169280D01*
Y168747D01*
X268050Y168614D01*
X268316D01*
X268450Y168747D01*
X268716Y169280D02*
X268850Y169414D01*
X269116D01*
X269250Y169280D01*
Y169147D01*
X269116Y169014D01*
X269250Y168880D01*
Y168747D01*
X269116Y168614D01*
X268850D01*
X268716Y168747D01*
Y168880D01*
X268850Y169014D01*
X268716Y169147D01*
Y169280D01*
X268850Y169014D02*
X269116D01*
X270049Y169414D02*
X269516D01*
Y169014D01*
X269783Y169147D01*
X269916D01*
X270049Y169014D01*
Y168747D01*
X269916Y168614D01*
X269649D01*
X269516Y168747D01*
X241653Y169255D02*
X241520Y169388D01*
X241253D01*
X241120Y169255D01*
Y168722D01*
X241253Y168588D01*
X241520D01*
X241653Y168722D01*
X241919Y169255D02*
X242053Y169388D01*
X242319D01*
X242453Y169255D01*
Y169122D01*
X242319Y168988D01*
X242453Y168855D01*
Y168722D01*
X242319Y168588D01*
X242053D01*
X241919Y168722D01*
Y168855D01*
X242053Y168988D01*
X241919Y169122D01*
Y169255D01*
X242053Y168988D02*
X242319D01*
X243119Y168588D02*
Y169388D01*
X242719Y168988D01*
X243252D01*
X168552Y169229D02*
X168418Y169363D01*
X168152D01*
X168018Y169229D01*
Y168696D01*
X168152Y168563D01*
X168418D01*
X168552Y168696D01*
X168818Y169229D02*
X168951Y169363D01*
X169218D01*
X169351Y169229D01*
Y169096D01*
X169218Y168963D01*
X169351Y168830D01*
Y168696D01*
X169218Y168563D01*
X168951D01*
X168818Y168696D01*
Y168830D01*
X168951Y168963D01*
X168818Y169096D01*
Y169229D01*
X168951Y168963D02*
X169218D01*
X169618Y169229D02*
X169751Y169363D01*
X170018D01*
X170151Y169229D01*
Y169096D01*
X170018Y168963D01*
X169885D01*
X170018D01*
X170151Y168830D01*
Y168696D01*
X170018Y168563D01*
X169751D01*
X169618Y168696D01*
X141450Y169229D02*
X141316Y169363D01*
X141050D01*
X140917Y169229D01*
Y168696D01*
X141050Y168563D01*
X141316D01*
X141450Y168696D01*
X141716Y169229D02*
X141850Y169363D01*
X142116D01*
X142250Y169229D01*
Y169096D01*
X142116Y168963D01*
X142250Y168830D01*
Y168696D01*
X142116Y168563D01*
X141850D01*
X141716Y168696D01*
Y168830D01*
X141850Y168963D01*
X141716Y169096D01*
Y169229D01*
X141850Y168963D02*
X142116D01*
X142516Y168563D02*
X142783D01*
X142649D01*
Y169363D01*
X142516Y169229D01*
X68730Y169204D02*
X68596Y169337D01*
X68330D01*
X68196Y169204D01*
Y168671D01*
X68330Y168538D01*
X68596D01*
X68730Y168671D01*
X68996Y168538D02*
X69263D01*
X69129D01*
Y169337D01*
X68996Y169204D01*
X69663Y168538D02*
X69929D01*
X69796D01*
Y169337D01*
X69663Y169204D01*
X48870Y169161D02*
X48737Y169295D01*
X48470D01*
X48337Y169161D01*
Y168628D01*
X48470Y168495D01*
X48737D01*
X48870Y168628D01*
X49136Y169295D02*
X49670D01*
Y169161D01*
X49136Y168628D01*
Y168495D01*
X49936Y169161D02*
X50069Y169295D01*
X50336D01*
X50469Y169161D01*
Y169028D01*
X50336Y168895D01*
X50469Y168762D01*
Y168628D01*
X50336Y168495D01*
X50069D01*
X49936Y168628D01*
Y168762D01*
X50069Y168895D01*
X49936Y169028D01*
Y169161D01*
X50069Y168895D02*
X50336D01*
X288567Y126546D02*
Y126013D01*
X288833Y125747D01*
X289100Y126013D01*
Y126546D01*
X289367D02*
X289900D01*
X289633D01*
Y125747D01*
X290166D02*
X290433D01*
X290300D01*
Y126546D01*
X290166Y126413D01*
X291366Y125747D02*
X290833D01*
X291366Y126280D01*
Y126413D01*
X291233Y126546D01*
X290966D01*
X290833Y126413D01*
X268583Y126496D02*
Y125963D01*
X268850Y125696D01*
X269116Y125963D01*
Y126496D01*
X269383D02*
X269916D01*
X269650D01*
Y125696D01*
X270183D02*
X270449D01*
X270316D01*
Y126496D01*
X270183Y126362D01*
X270849Y125696D02*
X271116D01*
X270983D01*
Y126496D01*
X270849Y126362D01*
X248790Y126546D02*
Y126013D01*
X249057Y125747D01*
X249324Y126013D01*
Y126546D01*
X249590D02*
X250123D01*
X249857D01*
Y125747D01*
X250390D02*
X250657D01*
X250523D01*
Y126546D01*
X250390Y126413D01*
X251056D02*
X251190Y126546D01*
X251456D01*
X251590Y126413D01*
Y125880D01*
X251456Y125747D01*
X251190D01*
X251056Y125880D01*
Y126413D01*
X228804Y126800D02*
Y126267D01*
X229070Y126001D01*
X229337Y126267D01*
Y126800D01*
X229603D02*
X230137D01*
X229870D01*
Y126001D01*
X230403Y126134D02*
X230536Y126001D01*
X230803D01*
X230936Y126134D01*
Y126667D01*
X230803Y126800D01*
X230536D01*
X230403Y126667D01*
Y126534D01*
X230536Y126401D01*
X230936D01*
X188934Y126546D02*
Y126013D01*
X189200Y125747D01*
X189467Y126013D01*
Y126546D01*
X189733D02*
X190267D01*
X190000D01*
Y125747D01*
X190533Y126413D02*
X190666Y126546D01*
X190933D01*
X191066Y126413D01*
Y126280D01*
X190933Y126147D01*
X191066Y126013D01*
Y125880D01*
X190933Y125747D01*
X190666D01*
X190533Y125880D01*
Y126013D01*
X190666Y126147D01*
X190533Y126280D01*
Y126413D01*
X190666Y126147D02*
X190933D01*
X168758Y126343D02*
Y125810D01*
X169025Y125544D01*
X169291Y125810D01*
Y126343D01*
X169558D02*
X170091D01*
X169824D01*
Y125544D01*
X170358Y126343D02*
X170891D01*
Y126210D01*
X170358Y125677D01*
Y125544D01*
X148844Y126216D02*
Y125683D01*
X149111Y125417D01*
X149378Y125683D01*
Y126216D01*
X149644D02*
X150177D01*
X149911D01*
Y125417D01*
X150977Y126216D02*
X150711Y126083D01*
X150444Y125816D01*
Y125550D01*
X150577Y125417D01*
X150844D01*
X150977Y125550D01*
Y125683D01*
X150844Y125816D01*
X150444D01*
X128855Y126597D02*
Y126064D01*
X129121Y125798D01*
X129388Y126064D01*
Y126597D01*
X129654D02*
X130188D01*
X129921D01*
Y125798D01*
X130987Y126597D02*
X130454D01*
Y126197D01*
X130721Y126331D01*
X130854D01*
X130987Y126197D01*
Y125931D01*
X130854Y125798D01*
X130587D01*
X130454Y125931D01*
X88799Y126419D02*
Y125886D01*
X89065Y125620D01*
X89332Y125886D01*
Y126419D01*
X89599D02*
X90132D01*
X89865D01*
Y125620D01*
X90798D02*
Y126419D01*
X90398Y126020D01*
X90932D01*
X68934Y126597D02*
Y126064D01*
X69200Y125798D01*
X69467Y126064D01*
Y126597D01*
X69733D02*
X70267D01*
X70000D01*
Y125798D01*
X70533Y126464D02*
X70666Y126597D01*
X70933D01*
X71066Y126464D01*
Y126331D01*
X70933Y126197D01*
X70800D01*
X70933D01*
X71066Y126064D01*
Y125931D01*
X70933Y125798D01*
X70666D01*
X70533Y125931D01*
X48895Y126673D02*
Y126140D01*
X49162Y125874D01*
X49429Y126140D01*
Y126673D01*
X49695D02*
X50228D01*
X49962D01*
Y125874D01*
X51028D02*
X50495D01*
X51028Y126407D01*
Y126540D01*
X50895Y126673D01*
X50628D01*
X50495Y126540D01*
X28988Y126623D02*
Y126090D01*
X29255Y125823D01*
X29521Y126090D01*
Y126623D01*
X29788D02*
X30321D01*
X30054D01*
Y125823D01*
X30588D02*
X30854D01*
X30721D01*
Y126623D01*
X30588Y126489D01*
X20597Y77339D02*
Y76672D01*
X20730Y76539D01*
X20997D01*
X21130Y76672D01*
Y77339D01*
X21397Y76539D02*
X21663D01*
X21530D01*
Y77339D01*
X21397Y77205D01*
X22596Y76539D02*
X22063D01*
X22596Y77072D01*
Y77205D01*
X22463Y77339D01*
X22196D01*
X22063Y77205D01*
X12284Y80865D02*
X12818D01*
X12551D01*
Y80066D01*
X13084D02*
Y80865D01*
X13484D01*
X13617Y80732D01*
Y80466D01*
X13484Y80332D01*
X13084D01*
X14417Y80865D02*
X14151Y80732D01*
X13884Y80466D01*
Y80199D01*
X14017Y80066D01*
X14284D01*
X14417Y80199D01*
Y80332D01*
X14284Y80466D01*
X13884D01*
X14684Y80199D02*
X14817Y80066D01*
X15084D01*
X15217Y80199D01*
Y80732D01*
X15084Y80865D01*
X14817D01*
X14684Y80732D01*
Y80599D01*
X14817Y80466D01*
X15217D01*
X36054Y82030D02*
X36587D01*
X36320D01*
Y81230D01*
X36853D02*
Y82030D01*
X37253D01*
X37387Y81897D01*
Y81630D01*
X37253Y81497D01*
X36853D01*
X38186Y82030D02*
X37920Y81897D01*
X37653Y81630D01*
Y81364D01*
X37787Y81230D01*
X38053D01*
X38186Y81364D01*
Y81497D01*
X38053Y81630D01*
X37653D01*
X38453Y82030D02*
X38986D01*
Y81897D01*
X38453Y81364D01*
Y81230D01*
X30349Y80775D02*
X30882D01*
X30615D01*
Y79975D01*
X31149D02*
Y80775D01*
X31548D01*
X31682Y80642D01*
Y80375D01*
X31548Y80242D01*
X31149D01*
X32481Y80775D02*
X32215Y80642D01*
X31948Y80375D01*
Y80108D01*
X32082Y79975D01*
X32348D01*
X32481Y80108D01*
Y80242D01*
X32348Y80375D01*
X31948D01*
X33281Y80775D02*
X33015Y80642D01*
X32748Y80375D01*
Y80108D01*
X32881Y79975D01*
X33148D01*
X33281Y80108D01*
Y80242D01*
X33148Y80375D01*
X32748D01*
X299009Y14950D02*
X299542D01*
X299275D01*
Y14150D01*
X299809D02*
Y14950D01*
X300208D01*
X300342Y14817D01*
Y14550D01*
X300208Y14417D01*
X299809D01*
X301141Y14950D02*
X300875Y14817D01*
X300608Y14550D01*
Y14283D01*
X300742Y14150D01*
X301008D01*
X301141Y14283D01*
Y14417D01*
X301008Y14550D01*
X300608D01*
X301941Y14950D02*
X301408D01*
Y14550D01*
X301675Y14683D01*
X301808D01*
X301941Y14550D01*
Y14283D01*
X301808Y14150D01*
X301541D01*
X301408Y14283D01*
X309009Y15125D02*
X309542D01*
X309275D01*
Y14325D01*
X309809D02*
Y15125D01*
X310208D01*
X310342Y14992D01*
Y14725D01*
X310208Y14592D01*
X309809D01*
X311141Y15125D02*
X310875Y14992D01*
X310608Y14725D01*
Y14458D01*
X310742Y14325D01*
X311008D01*
X311141Y14458D01*
Y14592D01*
X311008Y14725D01*
X310608D01*
X311808Y14325D02*
Y15125D01*
X311408Y14725D01*
X311941D01*
X1255Y88680D02*
X1788D01*
X1522D01*
Y87880D01*
X2055D02*
Y88680D01*
X2455D01*
X2588Y88547D01*
Y88280D01*
X2455Y88147D01*
X2055D01*
X3388Y88680D02*
X3121Y88547D01*
X2855Y88280D01*
Y88013D01*
X2988Y87880D01*
X3255D01*
X3388Y88013D01*
Y88147D01*
X3255Y88280D01*
X2855D01*
X4188Y87880D02*
X3655D01*
X4188Y88413D01*
Y88547D01*
X4054Y88680D01*
X3788D01*
X3655Y88547D01*
X20525Y32342D02*
Y32875D01*
Y32609D01*
X21325D01*
Y33142D02*
X20525D01*
Y33542D01*
X20658Y33675D01*
X20925D01*
X21058Y33542D01*
Y33142D01*
X20525Y34475D02*
X20658Y34208D01*
X20925Y33942D01*
X21192D01*
X21325Y34075D01*
Y34341D01*
X21192Y34475D01*
X21058D01*
X20925Y34341D01*
Y33942D01*
X21325Y34741D02*
Y35008D01*
Y34875D01*
X20525D01*
X20658Y34741D01*
X1801Y42983D02*
Y43783D01*
X2201D01*
X2334Y43649D01*
Y43383D01*
X2201Y43250D01*
X1801D01*
X2601Y42983D02*
X2867D01*
X2734D01*
Y43783D01*
X2601Y43649D01*
X3267D02*
X3400Y43783D01*
X3667D01*
X3800Y43649D01*
Y43116D01*
X3667Y42983D01*
X3400D01*
X3267Y43116D01*
Y43649D01*
X18059Y13325D02*
Y14125D01*
X18458D01*
X18592Y13992D01*
Y13725D01*
X18458Y13592D01*
X18059D01*
X18858Y13458D02*
X18992Y13325D01*
X19258D01*
X19391Y13458D01*
Y13992D01*
X19258Y14125D01*
X18992D01*
X18858Y13992D01*
Y13858D01*
X18992Y13725D01*
X19391D01*
X1880Y77425D02*
Y78225D01*
X2280D01*
X2413Y78092D01*
Y77825D01*
X2280Y77692D01*
X1880D01*
X2680Y78092D02*
X2813Y78225D01*
X3080D01*
X3213Y78092D01*
Y77959D01*
X3080Y77825D01*
X3213Y77692D01*
Y77559D01*
X3080Y77425D01*
X2813D01*
X2680Y77559D01*
Y77692D01*
X2813Y77825D01*
X2680Y77959D01*
Y78092D01*
X2813Y77825D02*
X3080D01*
X307363Y101177D02*
Y101977D01*
X307763D01*
X307896Y101843D01*
Y101577D01*
X307763Y101443D01*
X307363D01*
X308163Y101977D02*
X308696D01*
Y101843D01*
X308163Y101310D01*
Y101177D01*
X307363Y76183D02*
Y76983D01*
X307763D01*
X307896Y76850D01*
Y76583D01*
X307763Y76450D01*
X307363D01*
X308696Y76983D02*
X308429Y76850D01*
X308163Y76583D01*
Y76316D01*
X308296Y76183D01*
X308562D01*
X308696Y76316D01*
Y76450D01*
X308562Y76583D01*
X308163D01*
X35084Y14325D02*
Y13525D01*
X35617D01*
X36416D02*
X35883D01*
X36416Y14058D01*
Y14192D01*
X36283Y14325D01*
X36017D01*
X35883Y14192D01*
X35967Y37725D02*
Y36925D01*
X36500D01*
X36767D02*
X37033D01*
X36900D01*
Y37725D01*
X36767Y37592D01*
X253667Y174225D02*
X253400D01*
X253533D01*
Y173558D01*
X253400Y173425D01*
X253267D01*
X253134Y173558D01*
X254466Y174225D02*
X253933D01*
Y173825D01*
X254200Y173958D01*
X254333D01*
X254466Y173825D01*
Y173558D01*
X254333Y173425D01*
X254067D01*
X253933Y173558D01*
X153142Y173975D02*
X152875D01*
X153008D01*
Y173308D01*
X152875Y173175D01*
X152742D01*
X152609Y173308D01*
X153808Y173175D02*
Y173975D01*
X153408Y173575D01*
X153941D01*
X53512Y174222D02*
X53245D01*
X53378D01*
Y173556D01*
X53245Y173423D01*
X53112D01*
X52978Y173556D01*
X53778Y174222D02*
X54311D01*
Y174089D01*
X53778Y173556D01*
Y173423D01*
X62592Y15492D02*
X62459Y15625D01*
X62192D01*
X62059Y15492D01*
Y14958D01*
X62192Y14825D01*
X62459D01*
X62592Y14958D01*
X63392Y15625D02*
X63125Y15492D01*
X62858Y15225D01*
Y14958D01*
X62992Y14825D01*
X63258D01*
X63392Y14958D01*
Y15092D01*
X63258Y15225D01*
X62858D01*
X63658Y15492D02*
X63791Y15625D01*
X64058D01*
X64191Y15492D01*
Y15358D01*
X64058Y15225D01*
X64191Y15092D01*
Y14958D01*
X64058Y14825D01*
X63791D01*
X63658Y14958D01*
Y15092D01*
X63791Y15225D01*
X63658Y15358D01*
Y15492D01*
X63791Y15225D02*
X64058D01*
X77892Y3401D02*
X77759Y3534D01*
X77492D01*
X77359Y3401D01*
Y2868D01*
X77492Y2735D01*
X77759D01*
X77892Y2868D01*
X78692Y3534D02*
X78425Y3401D01*
X78158Y3134D01*
Y2868D01*
X78292Y2735D01*
X78558D01*
X78692Y2868D01*
Y3001D01*
X78558Y3134D01*
X78158D01*
X78958Y3534D02*
X79491D01*
Y3401D01*
X78958Y2868D01*
Y2735D01*
X62317Y3367D02*
X62184Y3500D01*
X61917D01*
X61784Y3367D01*
Y2833D01*
X61917Y2700D01*
X62184D01*
X62317Y2833D01*
X63117Y3500D02*
X62850Y3367D01*
X62583Y3100D01*
Y2833D01*
X62717Y2700D01*
X62983D01*
X63117Y2833D01*
Y2967D01*
X62983Y3100D01*
X62583D01*
X63383Y3367D02*
X63516Y3500D01*
X63783D01*
X63916Y3367D01*
Y3233D01*
X63783Y3100D01*
X63650D01*
X63783D01*
X63916Y2967D01*
Y2833D01*
X63783Y2700D01*
X63516D01*
X63383Y2833D01*
X2167Y24992D02*
X2034Y25125D01*
X1767D01*
X1634Y24992D01*
Y24458D01*
X1767Y24325D01*
X2034D01*
X2167Y24458D01*
X2967Y25125D02*
X2433D01*
Y24725D01*
X2700Y24858D01*
X2833D01*
X2967Y24725D01*
Y24458D01*
X2833Y24325D01*
X2567D01*
X2433Y24458D01*
X3766Y25125D02*
X3233D01*
Y24725D01*
X3500Y24858D01*
X3633D01*
X3766Y24725D01*
Y24458D01*
X3633Y24325D01*
X3366D01*
X3233Y24458D01*
X100379Y15417D02*
X100246Y15550D01*
X99979D01*
X99846Y15417D01*
Y14883D01*
X99979Y14750D01*
X100246D01*
X100379Y14883D01*
X100645Y15417D02*
X100779Y15550D01*
X101045D01*
X101179Y15417D01*
Y15283D01*
X101045Y15150D01*
X100912D01*
X101045D01*
X101179Y15017D01*
Y14883D01*
X101045Y14750D01*
X100779D01*
X100645Y14883D01*
X101445Y15550D02*
X101978D01*
Y15417D01*
X101445Y14883D01*
Y14750D01*
X1642Y41742D02*
X1509Y41875D01*
X1242D01*
X1109Y41742D01*
Y41208D01*
X1242Y41075D01*
X1509D01*
X1642Y41208D01*
X2308Y41075D02*
Y41875D01*
X1908Y41475D01*
X2442D01*
X2708Y41875D02*
X3241D01*
Y41742D01*
X2708Y41208D01*
Y41075D01*
X75109Y25125D02*
Y24325D01*
X75642D01*
X76308D02*
Y25125D01*
X75908Y24725D01*
X76441D01*
X45114Y59543D02*
X45647D01*
X45380D01*
Y58744D01*
X45913D02*
Y59543D01*
X46313D01*
X46447Y59410D01*
Y59144D01*
X46313Y59010D01*
X45913D01*
X46713Y59410D02*
X46846Y59543D01*
X47113D01*
X47246Y59410D01*
Y59277D01*
X47113Y59144D01*
X46980D01*
X47113D01*
X47246Y59010D01*
Y58877D01*
X47113Y58744D01*
X46846D01*
X46713Y58877D01*
X48046Y59543D02*
X47779Y59410D01*
X47513Y59144D01*
Y58877D01*
X47646Y58744D01*
X47913D01*
X48046Y58877D01*
Y59010D01*
X47913Y59144D01*
X47513D01*
X250032Y58129D02*
X250565D01*
X250298D01*
Y57330D01*
X250831D02*
Y58129D01*
X251231D01*
X251365Y57996D01*
Y57729D01*
X251231Y57596D01*
X250831D01*
X252164Y58129D02*
X251631D01*
Y57729D01*
X251898Y57863D01*
X252031D01*
X252164Y57729D01*
Y57463D01*
X252031Y57330D01*
X251764D01*
X251631Y57463D01*
X252964Y58129D02*
X252697Y57996D01*
X252431Y57729D01*
Y57463D01*
X252564Y57330D01*
X252831D01*
X252964Y57463D01*
Y57596D01*
X252831Y57729D01*
X252431D01*
X143559Y64825D02*
X144092D01*
X143825D01*
Y64025D01*
X144359D02*
Y64825D01*
X144758D01*
X144892Y64692D01*
Y64425D01*
X144758Y64292D01*
X144359D01*
X145691Y64825D02*
X145158D01*
Y64425D01*
X145425Y64558D01*
X145558D01*
X145691Y64425D01*
Y64158D01*
X145558Y64025D01*
X145292D01*
X145158Y64158D01*
X146491Y64025D02*
X145958D01*
X146491Y64558D01*
Y64692D01*
X146358Y64825D01*
X146091D01*
X145958Y64692D01*
X73652Y75778D02*
X74185D01*
X73918D01*
Y74978D01*
X74451D02*
Y75778D01*
X74851D01*
X74985Y75645D01*
Y75378D01*
X74851Y75245D01*
X74451D01*
X75651Y74978D02*
Y75778D01*
X75251Y75378D01*
X75784D01*
X76051Y75112D02*
X76184Y74978D01*
X76451D01*
X76584Y75112D01*
Y75645D01*
X76451Y75778D01*
X76184D01*
X76051Y75645D01*
Y75511D01*
X76184Y75378D01*
X76584D01*
X41859Y65200D02*
X42392D01*
X42125D01*
Y64400D01*
X42659D02*
Y65200D01*
X43058D01*
X43192Y65067D01*
Y64800D01*
X43058Y64667D01*
X42659D01*
X43858Y64400D02*
Y65200D01*
X43458Y64800D01*
X43991D01*
X44658Y64400D02*
Y65200D01*
X44258Y64800D01*
X44791D01*
X152871Y38737D02*
X153404D01*
X153138D01*
Y37937D01*
X153671D02*
Y38737D01*
X154071D01*
X154204Y38604D01*
Y38337D01*
X154071Y38204D01*
X153671D01*
X154870Y37937D02*
Y38737D01*
X154471Y38337D01*
X155004D01*
X155803Y37937D02*
X155270D01*
X155803Y38471D01*
Y38604D01*
X155670Y38737D01*
X155404D01*
X155270Y38604D01*
X251542Y46550D02*
X252075D01*
X251809D01*
Y45750D01*
X252342D02*
Y46550D01*
X252742D01*
X252875Y46417D01*
Y46150D01*
X252742Y46017D01*
X252342D01*
X253541Y45750D02*
Y46550D01*
X253142Y46150D01*
X253675D01*
X253941Y45750D02*
X254208D01*
X254075D01*
Y46550D01*
X253941Y46417D01*
X253409Y38075D02*
X253942D01*
X253675D01*
Y37275D01*
X254209D02*
Y38075D01*
X254608D01*
X254742Y37942D01*
Y37675D01*
X254608Y37542D01*
X254209D01*
X255408Y37275D02*
Y38075D01*
X255008Y37675D01*
X255541D01*
X255808Y37942D02*
X255941Y38075D01*
X256208D01*
X256341Y37942D01*
Y37408D01*
X256208Y37275D01*
X255941D01*
X255808Y37408D01*
Y37942D01*
X107020Y67469D02*
Y68269D01*
X107419D01*
X107553Y68135D01*
Y67869D01*
X107419Y67735D01*
X107020D01*
X107286D02*
X107553Y67469D01*
X108219D02*
Y68269D01*
X107819Y67869D01*
X108352D01*
X108619Y68269D02*
X109152D01*
Y68135D01*
X108619Y67602D01*
Y67469D01*
X106745Y64394D02*
Y65194D01*
X107145D01*
X107278Y65061D01*
Y64794D01*
X107145Y64661D01*
X106745D01*
X107012D02*
X107278Y64394D01*
X107945D02*
Y65194D01*
X107545Y64794D01*
X108078D01*
X108878Y65194D02*
X108611Y65061D01*
X108345Y64794D01*
Y64528D01*
X108478Y64394D01*
X108744D01*
X108878Y64528D01*
Y64661D01*
X108744Y64794D01*
X108345D01*
X40400Y170117D02*
Y169850D01*
Y169983D01*
X41067D01*
X41200Y169850D01*
Y169717D01*
X41067Y169584D01*
X41200Y170916D02*
Y170383D01*
X40667Y170916D01*
X40533D01*
X40400Y170783D01*
Y170517D01*
X40533Y170383D01*
X13300Y169975D02*
Y169708D01*
Y169842D01*
X13967D01*
X14100Y169708D01*
Y169575D01*
X13967Y169442D01*
X14100Y170242D02*
Y170508D01*
Y170375D01*
X13300D01*
X13433Y170242D01*
X101011Y66771D02*
X100212D01*
Y66371D01*
X100345Y66238D01*
X100878D01*
X101011Y66371D01*
Y66771D01*
X100345Y65971D02*
X100212Y65838D01*
Y65571D01*
X100345Y65438D01*
X100878D01*
X101011Y65571D01*
Y65838D01*
X100878Y65971D01*
X100745D01*
X100611Y65838D01*
Y65438D01*
X101113Y63860D02*
X100313D01*
Y63460D01*
X100446Y63327D01*
X100980D01*
X101113Y63460D01*
Y63860D01*
Y63060D02*
Y62527D01*
X100980D01*
X100446Y63060D01*
X100313D01*
X175134Y7675D02*
X175001Y7541D01*
Y7275D01*
X175134Y7142D01*
X175667D01*
X175801Y7275D01*
Y7541D01*
X175667Y7675D01*
X175801Y7941D02*
Y8208D01*
Y8075D01*
X175001D01*
X175134Y7941D01*
Y8608D02*
X175001Y8741D01*
Y9008D01*
X175134Y9141D01*
X175267D01*
X175401Y9008D01*
X175534Y9141D01*
X175667D01*
X175801Y9008D01*
Y8741D01*
X175667Y8608D01*
X175534D01*
X175401Y8741D01*
X175267Y8608D01*
X175134D01*
X175401Y8741D02*
Y9008D01*
X186920Y14358D02*
X186786Y14225D01*
Y13959D01*
X186920Y13825D01*
X187453D01*
X187586Y13959D01*
Y14225D01*
X187453Y14358D01*
X187586Y14625D02*
Y14892D01*
Y14758D01*
X186786D01*
X186920Y14625D01*
X186786Y15292D02*
Y15825D01*
X186920D01*
X187453Y15292D01*
X187586D01*
X179274Y12305D02*
X179141Y12438D01*
X178874D01*
X178741Y12305D01*
Y11772D01*
X178874Y11639D01*
X179141D01*
X179274Y11772D01*
X179541Y11639D02*
X179807D01*
X179674D01*
Y12438D01*
X179541Y12305D01*
X180740Y12438D02*
X180207D01*
Y12038D01*
X180474Y12172D01*
X180607D01*
X180740Y12038D01*
Y11772D01*
X180607Y11639D01*
X180340D01*
X180207Y11772D01*
X186919Y17600D02*
X186786Y17467D01*
Y17200D01*
X186919Y17067D01*
X187453D01*
X187586Y17200D01*
Y17467D01*
X187453Y17600D01*
X187586Y17867D02*
Y18133D01*
Y18000D01*
X186786D01*
X186919Y17867D01*
X187586Y18933D02*
X186786D01*
X187186Y18533D01*
Y19066D01*
X182495Y12305D02*
X182362Y12438D01*
X182095D01*
X181962Y12305D01*
Y11772D01*
X182095Y11639D01*
X182362D01*
X182495Y11772D01*
X182762Y11639D02*
X183028D01*
X182895D01*
Y12438D01*
X182762Y12305D01*
X183428D02*
X183561Y12438D01*
X183828D01*
X183961Y12305D01*
Y12172D01*
X183828Y12038D01*
X183695D01*
X183828D01*
X183961Y11905D01*
Y11772D01*
X183828Y11639D01*
X183561D01*
X183428Y11772D01*
X178085Y18508D02*
X177951Y18375D01*
Y18109D01*
X178085Y17975D01*
X178618D01*
X178751Y18109D01*
Y18375D01*
X178618Y18508D01*
X178751Y18775D02*
Y19042D01*
Y18908D01*
X177951D01*
X178085Y18775D01*
X178751Y19975D02*
Y19442D01*
X178218Y19975D01*
X178085D01*
X177951Y19841D01*
Y19575D01*
X178085Y19442D01*
X294683Y41359D02*
X295349D01*
X295483Y41492D01*
Y41758D01*
X295349Y41892D01*
X294683D01*
X295483Y42691D02*
Y42158D01*
X294949Y42691D01*
X294816D01*
X294683Y42558D01*
Y42292D01*
X294816Y42158D01*
X269309Y58129D02*
X269842D01*
X269575D01*
Y57330D01*
X270109D02*
Y58129D01*
X270508D01*
X270642Y57996D01*
Y57729D01*
X270508Y57596D01*
X270109D01*
X271441Y58129D02*
X270908D01*
Y57729D01*
X271175Y57863D01*
X271308D01*
X271441Y57729D01*
Y57463D01*
X271308Y57330D01*
X271042D01*
X270908Y57463D01*
X271708D02*
X271841Y57330D01*
X272108D01*
X272241Y57463D01*
Y57996D01*
X272108Y58129D01*
X271841D01*
X271708Y57996D01*
Y57863D01*
X271841Y57729D01*
X272241D01*
X276990Y75556D02*
X277524D01*
X277257D01*
Y74757D01*
X277790D02*
Y75556D01*
X278190D01*
X278323Y75423D01*
Y75157D01*
X278190Y75023D01*
X277790D01*
X279123Y75556D02*
X278590D01*
Y75157D01*
X278856Y75290D01*
X278990D01*
X279123Y75157D01*
Y74890D01*
X278990Y74757D01*
X278723D01*
X278590Y74890D01*
X279390Y75423D02*
X279523Y75556D01*
X279790D01*
X279923Y75423D01*
Y75290D01*
X279790Y75157D01*
X279923Y75023D01*
Y74890D01*
X279790Y74757D01*
X279523D01*
X279390Y74890D01*
Y75023D01*
X279523Y75157D01*
X279390Y75290D01*
Y75423D01*
X279523Y75157D02*
X279790D01*
X245244Y62652D02*
X245777D01*
X245511D01*
Y61853D01*
X246044D02*
Y62652D01*
X246444D01*
X246577Y62519D01*
Y62253D01*
X246444Y62119D01*
X246044D01*
X247377Y62652D02*
X246844D01*
Y62253D01*
X247110Y62386D01*
X247243D01*
X247377Y62253D01*
Y61986D01*
X247243Y61853D01*
X246977D01*
X246844Y61986D01*
X247643Y62652D02*
X248176D01*
Y62519D01*
X247643Y61986D01*
Y61853D01*
X166459Y56454D02*
X166992D01*
X166726D01*
Y55654D01*
X167259D02*
Y56454D01*
X167659D01*
X167792Y56321D01*
Y56054D01*
X167659Y55921D01*
X167259D01*
X168592Y56454D02*
X168059D01*
Y56054D01*
X168325Y56187D01*
X168458D01*
X168592Y56054D01*
Y55788D01*
X168458Y55654D01*
X168192D01*
X168059Y55788D01*
X169258Y55654D02*
Y56454D01*
X168858Y56054D01*
X169392D01*
X179969Y74594D02*
X180502D01*
X180236D01*
Y73794D01*
X180769D02*
Y74594D01*
X181169D01*
X181302Y74460D01*
Y74194D01*
X181169Y74061D01*
X180769D01*
X182102Y74594D02*
X181569D01*
Y74194D01*
X181835Y74327D01*
X181968D01*
X182102Y74194D01*
Y73927D01*
X181968Y73794D01*
X181702D01*
X181569Y73927D01*
X182368Y74460D02*
X182502Y74594D01*
X182768D01*
X182902Y74460D01*
Y74327D01*
X182768Y74194D01*
X182635D01*
X182768D01*
X182902Y74061D01*
Y73927D01*
X182768Y73794D01*
X182502D01*
X182368Y73927D01*
X149467Y58235D02*
X150000D01*
X149733D01*
Y57436D01*
X150267D02*
Y58235D01*
X150666D01*
X150800Y58102D01*
Y57836D01*
X150666Y57702D01*
X150267D01*
X151599Y58235D02*
X151066D01*
Y57836D01*
X151333Y57969D01*
X151466D01*
X151599Y57836D01*
Y57569D01*
X151466Y57436D01*
X151200D01*
X151066Y57569D01*
X151866Y58102D02*
X151999Y58235D01*
X152266D01*
X152399Y58102D01*
Y57569D01*
X152266Y57436D01*
X151999D01*
X151866Y57569D01*
Y58102D01*
X83351Y80116D02*
X83884D01*
X83617D01*
Y79316D01*
X84150D02*
Y80116D01*
X84550D01*
X84683Y79983D01*
Y79716D01*
X84550Y79583D01*
X84150D01*
X85350Y79316D02*
Y80116D01*
X84950Y79716D01*
X85483D01*
X85750Y79983D02*
X85883Y80116D01*
X86150D01*
X86283Y79983D01*
Y79850D01*
X86150Y79716D01*
X86283Y79583D01*
Y79450D01*
X86150Y79316D01*
X85883D01*
X85750Y79450D01*
Y79583D01*
X85883Y79716D01*
X85750Y79850D01*
Y79983D01*
X85883Y79716D02*
X86150D01*
X52567Y44334D02*
Y44867D01*
Y44600D01*
X53367D01*
Y45134D02*
X52567D01*
Y45533D01*
X52700Y45667D01*
X52967D01*
X53100Y45533D01*
Y45134D01*
X53367Y46333D02*
X52567D01*
X52967Y45933D01*
Y46467D01*
X52567Y46733D02*
Y47266D01*
X52700D01*
X53233Y46733D01*
X53367D01*
X54761Y36793D02*
Y37326D01*
Y37059D01*
X55561D01*
Y37593D02*
X54761D01*
Y37993D01*
X54894Y38126D01*
X55161D01*
X55294Y37993D01*
Y37593D01*
X55561Y38792D02*
X54761D01*
X55161Y38392D01*
Y38926D01*
X54761Y39725D02*
X54894Y39459D01*
X55161Y39192D01*
X55428D01*
X55561Y39325D01*
Y39592D01*
X55428Y39725D01*
X55294D01*
X55161Y39592D01*
Y39192D01*
X150259Y45128D02*
X150792D01*
X150525D01*
Y44329D01*
X151059D02*
Y45128D01*
X151458D01*
X151592Y44995D01*
Y44728D01*
X151458Y44595D01*
X151059D01*
X152258Y44329D02*
Y45128D01*
X151858Y44728D01*
X152391D01*
X152658Y44995D02*
X152791Y45128D01*
X153058D01*
X153191Y44995D01*
Y44862D01*
X153058Y44728D01*
X152925D01*
X153058D01*
X153191Y44595D01*
Y44462D01*
X153058Y44329D01*
X152791D01*
X152658Y44462D01*
X144538Y17002D02*
X145072D01*
X144805D01*
Y16202D01*
X145338D02*
Y17002D01*
X145738D01*
X145871Y16869D01*
Y16602D01*
X145738Y16469D01*
X145338D01*
X146138Y16869D02*
X146271Y17002D01*
X146538D01*
X146671Y16869D01*
Y16735D01*
X146538Y16602D01*
X146405D01*
X146538D01*
X146671Y16469D01*
Y16336D01*
X146538Y16202D01*
X146271D01*
X146138Y16336D01*
X146938Y16202D02*
X147204D01*
X147071D01*
Y17002D01*
X146938Y16869D01*
X151759Y15450D02*
X152292D01*
X152025D01*
Y14650D01*
X152559D02*
Y15450D01*
X152958D01*
X153092Y15317D01*
Y15050D01*
X152958Y14917D01*
X152559D01*
X153891Y14650D02*
X153358D01*
X153891Y15183D01*
Y15317D01*
X153758Y15450D01*
X153492D01*
X153358Y15317D01*
X154158Y15450D02*
X154691D01*
Y15317D01*
X154158Y14783D01*
Y14650D01*
X144472Y13857D02*
X145005D01*
X144738D01*
Y13057D01*
X145272D02*
Y13857D01*
X145671D01*
X145805Y13724D01*
Y13457D01*
X145671Y13324D01*
X145272D01*
X146071Y13057D02*
X146338D01*
X146205D01*
Y13857D01*
X146071Y13724D01*
X146738Y13191D02*
X146871Y13057D01*
X147138D01*
X147271Y13191D01*
Y13724D01*
X147138Y13857D01*
X146871D01*
X146738Y13724D01*
Y13590D01*
X146871Y13457D01*
X147271D01*
X151472Y12227D02*
X152005D01*
X151738D01*
Y11427D01*
X152272D02*
Y12227D01*
X152671D01*
X152805Y12094D01*
Y11827D01*
X152671Y11694D01*
X152272D01*
X153071Y11427D02*
X153338D01*
X153205D01*
Y12227D01*
X153071Y12094D01*
X153738D02*
X153871Y12227D01*
X154138D01*
X154271Y12094D01*
Y11960D01*
X154138Y11827D01*
X154271Y11694D01*
Y11560D01*
X154138Y11427D01*
X153871D01*
X153738Y11560D01*
Y11694D01*
X153871Y11827D01*
X153738Y11960D01*
Y12094D01*
X153871Y11827D02*
X154138D01*
X154125Y10590D02*
X154659D01*
X154392D01*
Y9790D01*
X154925D02*
Y10590D01*
X155325D01*
X155458Y10457D01*
Y10190D01*
X155325Y10057D01*
X154925D01*
X155725Y9790D02*
X155992D01*
X155858D01*
Y10590D01*
X155725Y10457D01*
X156391Y10590D02*
X156925D01*
Y10457D01*
X156391Y9923D01*
Y9790D01*
X144472Y9127D02*
X145005D01*
X144738D01*
Y8327D01*
X145272D02*
Y9127D01*
X145671D01*
X145805Y8994D01*
Y8727D01*
X145671Y8594D01*
X145272D01*
X146071Y8327D02*
X146338D01*
X146205D01*
Y9127D01*
X146071Y8994D01*
X147271Y9127D02*
X146738D01*
Y8727D01*
X147004Y8860D01*
X147138D01*
X147271Y8727D01*
Y8460D01*
X147138Y8327D01*
X146871D01*
X146738Y8460D01*
X151700Y7427D02*
X152234D01*
X151967D01*
Y6627D01*
X152500D02*
Y7427D01*
X152900D01*
X153033Y7294D01*
Y7027D01*
X152900Y6894D01*
X152500D01*
X153300Y6627D02*
X153567D01*
X153433D01*
Y7427D01*
X153300Y7294D01*
X154500Y6627D02*
X153966D01*
X154500Y7160D01*
Y7294D01*
X154366Y7427D01*
X154100D01*
X153966Y7294D01*
X144805Y5877D02*
X145338D01*
X145072D01*
Y5077D01*
X145605D02*
Y5877D01*
X146005D01*
X146138Y5744D01*
Y5477D01*
X146005Y5344D01*
X145605D01*
X146804Y5077D02*
Y5877D01*
X146405Y5477D01*
X146938D01*
X227696Y60880D02*
X227429D01*
X227562D01*
Y60213D01*
X227429Y60080D01*
X227296D01*
X227163Y60213D01*
X228362Y60080D02*
Y60880D01*
X227962Y60480D01*
X228495D01*
X228762Y60746D02*
X228895Y60880D01*
X229162D01*
X229295Y60746D01*
Y60613D01*
X229162Y60480D01*
X229295Y60347D01*
Y60213D01*
X229162Y60080D01*
X228895D01*
X228762Y60213D01*
Y60347D01*
X228895Y60480D01*
X228762Y60613D01*
Y60746D01*
X228895Y60480D02*
X229162D01*
X220910Y39977D02*
X220110D01*
Y40377D01*
X220243Y40511D01*
X220510D01*
X220643Y40377D01*
Y39977D01*
X220910Y40777D02*
Y41044D01*
Y40910D01*
X220110D01*
X220243Y40777D01*
X220110Y41977D02*
Y41444D01*
X220510D01*
X220377Y41710D01*
Y41843D01*
X220510Y41977D01*
X220777D01*
X220910Y41843D01*
Y41577D01*
X220777Y41444D01*
X212264Y40027D02*
X211464D01*
Y40427D01*
X211597Y40561D01*
X211864D01*
X211997Y40427D01*
Y40027D01*
X212264Y40827D02*
Y41094D01*
Y40960D01*
X211464D01*
X211597Y40827D01*
X212264Y41893D02*
X211464D01*
X211864Y41494D01*
Y42027D01*
X198489Y4950D02*
X199022D01*
X198755D01*
Y4150D01*
X199288D02*
Y4950D01*
X199688D01*
X199822Y4817D01*
Y4550D01*
X199688Y4417D01*
X199288D01*
X200088Y4817D02*
X200221Y4950D01*
X200488D01*
X200621Y4817D01*
Y4683D01*
X200488Y4550D01*
X200355D01*
X200488D01*
X200621Y4417D01*
Y4283D01*
X200488Y4150D01*
X200221D01*
X200088Y4283D01*
X201288Y4150D02*
Y4950D01*
X200888Y4550D01*
X201421D01*
X297117Y103175D02*
Y102508D01*
X297250Y102375D01*
X297517D01*
X297650Y102508D01*
Y103175D01*
X297917Y102375D02*
X298183D01*
X298050D01*
Y103175D01*
X297917Y103042D01*
X197327Y103388D02*
Y102722D01*
X197460Y102588D01*
X197726D01*
X197860Y102722D01*
Y103388D01*
X198659D02*
X198393Y103255D01*
X198126Y102988D01*
Y102722D01*
X198260Y102588D01*
X198526D01*
X198659Y102722D01*
Y102855D01*
X198526Y102988D01*
X198126D01*
X97047Y103332D02*
Y102666D01*
X97181Y102533D01*
X97447D01*
X97580Y102666D01*
Y103332D01*
X97847Y102533D02*
X98114D01*
X97980D01*
Y103332D01*
X97847Y103199D01*
X98514D02*
X98647Y103332D01*
X98913D01*
X99047Y103199D01*
Y102666D01*
X98913Y102533D01*
X98647D01*
X98514Y102666D01*
Y103199D01*
X194911Y25541D02*
Y25408D01*
X195178Y25141D01*
X195444Y25408D01*
Y25541D01*
X195178Y25141D02*
Y24741D01*
X195711D02*
X195977D01*
X195844D01*
Y25541D01*
X195711Y25408D01*
X260098Y71408D02*
X260631D01*
X260898Y71675D01*
X260631Y71941D01*
X260098D01*
Y72208D02*
X260898D01*
Y72608D01*
X260764Y72741D01*
X260231D01*
X260098Y72608D01*
Y72208D01*
X260898Y73541D02*
Y73008D01*
X260365Y73541D01*
X260231D01*
X260098Y73408D01*
Y73141D01*
X260231Y73008D01*
X260098Y73807D02*
Y74341D01*
X260231D01*
X260764Y73807D01*
X260898D01*
X245877Y71459D02*
X246410D01*
X246676Y71725D01*
X246410Y71992D01*
X245877D01*
Y72259D02*
X246676D01*
Y72659D01*
X246543Y72792D01*
X246010D01*
X245877Y72659D01*
Y72259D01*
X246676Y73592D02*
Y73058D01*
X246143Y73592D01*
X246010D01*
X245877Y73458D01*
Y73192D01*
X246010Y73058D01*
Y73858D02*
X245877Y73991D01*
Y74258D01*
X246010Y74391D01*
X246143D01*
X246276Y74258D01*
Y74125D01*
Y74258D01*
X246410Y74391D01*
X246543D01*
X246676Y74258D01*
Y73991D01*
X246543Y73858D01*
X160093Y71741D02*
X160626D01*
X160893Y72008D01*
X160626Y72274D01*
X160093D01*
Y72541D02*
X160893D01*
Y72941D01*
X160760Y73074D01*
X160226D01*
X160093Y72941D01*
Y72541D01*
X160893Y73340D02*
Y73607D01*
Y73474D01*
X160093D01*
X160226Y73340D01*
X160093Y74007D02*
Y74540D01*
X160226D01*
X160760Y74007D01*
X160893D01*
X146017Y71860D02*
X146550D01*
X146817Y72127D01*
X146550Y72393D01*
X146017D01*
Y72660D02*
X146817D01*
Y73060D01*
X146684Y73193D01*
X146151D01*
X146017Y73060D01*
Y72660D01*
X146817Y73460D02*
Y73726D01*
Y73593D01*
X146017D01*
X146151Y73460D01*
Y74126D02*
X146017Y74259D01*
Y74526D01*
X146151Y74659D01*
X146284D01*
X146417Y74526D01*
Y74393D01*
Y74526D01*
X146550Y74659D01*
X146684D01*
X146817Y74526D01*
Y74259D01*
X146684Y74126D01*
X58387Y72438D02*
X58920D01*
X59186Y72705D01*
X58920Y72972D01*
X58387D01*
Y73238D02*
X59186D01*
Y73638D01*
X59053Y73771D01*
X58520D01*
X58387Y73638D01*
Y73238D01*
X58520Y74038D02*
X58387Y74171D01*
Y74438D01*
X58520Y74571D01*
X58653D01*
X58786Y74438D01*
X58920Y74571D01*
X59053D01*
X59186Y74438D01*
Y74171D01*
X59053Y74038D01*
X58920D01*
X58786Y74171D01*
X58653Y74038D01*
X58520D01*
X58786Y74171D02*
Y74438D01*
X44172Y72445D02*
X44705D01*
X44971Y72711D01*
X44705Y72978D01*
X44172D01*
Y73245D02*
X44971D01*
Y73644D01*
X44838Y73778D01*
X44305D01*
X44172Y73644D01*
Y73245D01*
X44971Y74444D02*
X44172D01*
X44571Y74044D01*
Y74577D01*
X254189Y48158D02*
X254855D01*
X254988Y48291D01*
Y48558D01*
X254855Y48691D01*
X254189D01*
X254322Y48958D02*
X254189Y49091D01*
Y49357D01*
X254322Y49491D01*
X254455D01*
X254589Y49357D01*
Y49224D01*
Y49357D01*
X254722Y49491D01*
X254855D01*
X254988Y49357D01*
Y49091D01*
X254855Y48958D01*
X254988Y50290D02*
Y49757D01*
X254455Y50290D01*
X254322D01*
X254189Y50157D01*
Y49891D01*
X254322Y49757D01*
X153574Y49127D02*
X154241D01*
X154374Y49260D01*
Y49527D01*
X154241Y49660D01*
X153574D01*
X154374Y50460D02*
Y49926D01*
X153841Y50460D01*
X153708D01*
X153574Y50326D01*
Y50060D01*
X153708Y49926D01*
X154374Y50726D02*
Y50993D01*
Y50859D01*
X153574D01*
X153708Y50726D01*
X53181Y48851D02*
X53847D01*
X53980Y48984D01*
Y49251D01*
X53847Y49384D01*
X53181D01*
X53980Y49651D02*
Y49917D01*
Y49784D01*
X53181D01*
X53314Y49651D01*
Y50317D02*
X53181Y50451D01*
Y50717D01*
X53314Y50850D01*
X53447D01*
X53581Y50717D01*
Y50584D01*
Y50717D01*
X53714Y50850D01*
X53847D01*
X53980Y50717D01*
Y50451D01*
X53847Y50317D01*
X36004Y72675D02*
X36537D01*
X36270D01*
Y71875D01*
X36803D02*
Y72675D01*
X37203D01*
X37337Y72542D01*
Y72275D01*
X37203Y72142D01*
X36803D01*
X37603Y72542D02*
X37737Y72675D01*
X38003D01*
X38136Y72542D01*
Y72408D01*
X38003Y72275D01*
X37870D01*
X38003D01*
X38136Y72142D01*
Y72008D01*
X38003Y71875D01*
X37737D01*
X37603Y72008D01*
X38403Y72542D02*
X38536Y72675D01*
X38803D01*
X38936Y72542D01*
Y72008D01*
X38803Y71875D01*
X38536D01*
X38403Y72008D01*
Y72542D01*
X37049Y60735D02*
X37582D01*
X37315D01*
Y59935D01*
X37849D02*
Y60735D01*
X38248D01*
X38382Y60601D01*
Y60335D01*
X38248Y60201D01*
X37849D01*
X39181Y59935D02*
X38648D01*
X39181Y60468D01*
Y60601D01*
X39048Y60735D01*
X38782D01*
X38648Y60601D01*
X39981Y60735D02*
X39715Y60601D01*
X39448Y60335D01*
Y60068D01*
X39581Y59935D01*
X39848D01*
X39981Y60068D01*
Y60201D01*
X39848Y60335D01*
X39448D01*
X36984Y44621D02*
Y45154D01*
Y44887D01*
X37783D01*
Y45420D02*
X36984D01*
Y45820D01*
X37117Y45954D01*
X37383D01*
X37517Y45820D01*
Y45420D01*
X37783Y46753D02*
Y46220D01*
X37250Y46753D01*
X37117D01*
X36984Y46620D01*
Y46353D01*
X37117Y46220D01*
X36984Y47553D02*
Y47020D01*
X37383D01*
X37250Y47286D01*
Y47420D01*
X37383Y47553D01*
X37650D01*
X37783Y47420D01*
Y47153D01*
X37650Y47020D01*
X26183Y44639D02*
Y45172D01*
Y44905D01*
X26983D01*
Y45438D02*
X26183D01*
Y45838D01*
X26317Y45972D01*
X26583D01*
X26717Y45838D01*
Y45438D01*
X26983Y46771D02*
Y46238D01*
X26450Y46771D01*
X26317D01*
X26183Y46638D01*
Y46371D01*
X26317Y46238D01*
Y47038D02*
X26183Y47171D01*
Y47438D01*
X26317Y47571D01*
X26450D01*
X26583Y47438D01*
Y47304D01*
Y47438D01*
X26717Y47571D01*
X26850D01*
X26983Y47438D01*
Y47171D01*
X26850Y47038D01*
X24675Y60705D02*
X25208D01*
X24942D01*
Y59905D01*
X25475D02*
Y60705D01*
X25875D01*
X26008Y60571D01*
Y60305D01*
X25875Y60172D01*
X25475D01*
X26808Y59905D02*
X26275D01*
X26808Y60438D01*
Y60571D01*
X26675Y60705D01*
X26408D01*
X26275Y60571D01*
X27608Y59905D02*
X27074D01*
X27608Y60438D01*
Y60571D01*
X27474Y60705D01*
X27208D01*
X27074Y60571D01*
X22866Y57085D02*
X23399D01*
X23133D01*
Y56285D01*
X23666D02*
Y57085D01*
X24066D01*
X24199Y56951D01*
Y56685D01*
X24066Y56551D01*
X23666D01*
X24999Y56285D02*
X24466D01*
X24999Y56818D01*
Y56951D01*
X24866Y57085D01*
X24599D01*
X24466Y56951D01*
X25265Y56285D02*
X25532D01*
X25399D01*
Y57085D01*
X25265Y56951D01*
X296849Y73800D02*
X297383D01*
X297116D01*
Y73000D01*
X297649D02*
Y73800D01*
X298049D01*
X298182Y73667D01*
Y73400D01*
X298049Y73267D01*
X297649D01*
X298982Y73000D02*
X298449D01*
X298982Y73533D01*
Y73667D01*
X298849Y73800D01*
X298582D01*
X298449Y73667D01*
X299249D02*
X299382Y73800D01*
X299649D01*
X299782Y73667D01*
Y73133D01*
X299649Y73000D01*
X299382D01*
X299249Y73133D01*
Y73667D01*
X178253Y38679D02*
X178786D01*
X178519D01*
Y37879D01*
X179053D02*
Y38679D01*
X179452D01*
X179586Y38546D01*
Y38279D01*
X179452Y38146D01*
X179053D01*
X179852Y38546D02*
X179986Y38679D01*
X180252D01*
X180385Y38546D01*
Y38412D01*
X180252Y38279D01*
X180385Y38146D01*
Y38012D01*
X180252Y37879D01*
X179986D01*
X179852Y38012D01*
Y38146D01*
X179986Y38279D01*
X179852Y38412D01*
Y38546D01*
X179986Y38279D02*
X180252D01*
X189635Y38395D02*
X190168D01*
X189901D01*
Y37595D01*
X190434D02*
Y38395D01*
X190834D01*
X190968Y38262D01*
Y37995D01*
X190834Y37862D01*
X190434D01*
X191234Y38395D02*
X191767D01*
Y38262D01*
X191234Y37728D01*
Y37595D01*
X293493Y59767D02*
X294026D01*
X293759D01*
Y58967D01*
X294292D02*
Y59767D01*
X294692D01*
X294825Y59633D01*
Y59367D01*
X294692Y59234D01*
X294292D01*
X295092Y58967D02*
X295359D01*
X295225D01*
Y59767D01*
X295092Y59633D01*
X296292Y59767D02*
X296025Y59633D01*
X295758Y59367D01*
Y59100D01*
X295892Y58967D01*
X296158D01*
X296292Y59100D01*
Y59234D01*
X296158Y59367D01*
X295758D01*
X289214Y35335D02*
X289747D01*
X289481D01*
Y34535D01*
X290014D02*
Y35335D01*
X290414D01*
X290547Y35201D01*
Y34935D01*
X290414Y34801D01*
X290014D01*
X290813Y34535D02*
X291080D01*
X290947D01*
Y35335D01*
X290813Y35201D01*
X291880Y34535D02*
Y35335D01*
X291480Y34935D01*
X292013D01*
X283996Y75025D02*
X284529D01*
X284263D01*
Y74225D01*
X284796D02*
Y75025D01*
X285196D01*
X285329Y74892D01*
Y74625D01*
X285196Y74492D01*
X284796D01*
X285596Y74225D02*
X285862D01*
X285729D01*
Y75025D01*
X285596Y74892D01*
X286262D02*
X286395Y75025D01*
X286662D01*
X286795Y74892D01*
Y74758D01*
X286662Y74625D01*
X286529D01*
X286662D01*
X286795Y74492D01*
Y74358D01*
X286662Y74225D01*
X286395D01*
X286262Y74358D01*
X291786Y37812D02*
Y38345D01*
Y38078D01*
X292586D01*
Y38611D02*
X291786D01*
Y39011D01*
X291919Y39145D01*
X292186D01*
X292319Y39011D01*
Y38611D01*
X292586Y39411D02*
Y39678D01*
Y39545D01*
X291786D01*
X291919Y39411D01*
X292586Y40078D02*
Y40344D01*
Y40211D01*
X291786D01*
X291919Y40078D01*
X281096Y35475D02*
X281629D01*
X281363D01*
Y34675D01*
X281896D02*
Y35475D01*
X282296D01*
X282429Y35342D01*
Y35075D01*
X282296Y34942D01*
X281896D01*
X282695Y34675D02*
X282962D01*
X282829D01*
Y35475D01*
X282695Y35342D01*
X283362D02*
X283495Y35475D01*
X283762D01*
X283895Y35342D01*
Y34808D01*
X283762Y34675D01*
X283495D01*
X283362Y34808D01*
Y35342D01*
X290472Y71481D02*
X291006D01*
X290739D01*
Y70681D01*
X291272D02*
Y71481D01*
X291672D01*
X291805Y71347D01*
Y71081D01*
X291672Y70947D01*
X291272D01*
X292072Y70814D02*
X292205Y70681D01*
X292472D01*
X292605Y70814D01*
Y71347D01*
X292472Y71481D01*
X292205D01*
X292072Y71347D01*
Y71214D01*
X292205Y71081D01*
X292605D01*
X272859Y35300D02*
X273392D01*
X273125D01*
Y34500D01*
X273658D02*
Y35300D01*
X274058D01*
X274192Y35167D01*
Y34900D01*
X274058Y34767D01*
X273658D01*
X274991Y35300D02*
X274725Y35167D01*
X274458Y34900D01*
Y34633D01*
X274591Y34500D01*
X274858D01*
X274991Y34633D01*
Y34767D01*
X274858Y34900D01*
X274458D01*
X293609Y56075D02*
X294142D01*
X293875D01*
Y55275D01*
X294408D02*
Y56075D01*
X294808D01*
X294942Y55942D01*
Y55675D01*
X294808Y55542D01*
X294408D01*
X295741Y56075D02*
X295208D01*
Y55675D01*
X295475Y55808D01*
X295608D01*
X295741Y55675D01*
Y55408D01*
X295608Y55275D01*
X295341D01*
X295208Y55408D01*
X289218Y14760D02*
X289752D01*
X289485D01*
Y13960D01*
X290018D02*
Y14760D01*
X290418D01*
X290551Y14627D01*
Y14360D01*
X290418Y14227D01*
X290018D01*
X290818Y14627D02*
X290951Y14760D01*
X291218D01*
X291351Y14627D01*
Y14493D01*
X291218Y14360D01*
X291084D01*
X291218D01*
X291351Y14227D01*
Y14094D01*
X291218Y13960D01*
X290951D01*
X290818Y14094D01*
X289303Y20744D02*
X289836D01*
X289569D01*
Y19944D01*
X290102D02*
Y20744D01*
X290502D01*
X290636Y20610D01*
Y20344D01*
X290502Y20210D01*
X290102D01*
X291435Y19944D02*
X290902D01*
X291435Y20477D01*
Y20610D01*
X291302Y20744D01*
X291035D01*
X290902Y20610D01*
X289153Y30453D02*
X289686D01*
X289420D01*
Y29654D01*
X289953D02*
Y30453D01*
X290353D01*
X290486Y30320D01*
Y30054D01*
X290353Y29920D01*
X289953D01*
X290753Y29654D02*
X291019D01*
X290886D01*
Y30453D01*
X290753Y30320D01*
X256868Y41397D02*
Y42196D01*
X257267D01*
X257401Y42063D01*
Y41797D01*
X257267Y41663D01*
X256868D01*
X257134D02*
X257401Y41397D01*
X257667D02*
X257934D01*
X257801D01*
Y42196D01*
X257667Y42063D01*
X258734Y41397D02*
Y42196D01*
X258334Y41797D01*
X258867D01*
X259134Y42196D02*
X259667D01*
Y42063D01*
X259134Y41530D01*
Y41397D01*
X256888Y43050D02*
Y43849D01*
X257288D01*
X257421Y43716D01*
Y43449D01*
X257288Y43316D01*
X256888D01*
X257154D02*
X257421Y43050D01*
X257687D02*
X257954D01*
X257821D01*
Y43849D01*
X257687Y43716D01*
X258754Y43050D02*
Y43849D01*
X258354Y43449D01*
X258887D01*
X259687Y43849D02*
X259420Y43716D01*
X259154Y43449D01*
Y43183D01*
X259287Y43050D01*
X259553D01*
X259687Y43183D01*
Y43316D01*
X259553Y43449D01*
X259154D01*
X156063Y41538D02*
Y42338D01*
X156463D01*
X156597Y42205D01*
Y41938D01*
X156463Y41805D01*
X156063D01*
X156330D02*
X156597Y41538D01*
X156863D02*
X157130D01*
X156996D01*
Y42338D01*
X156863Y42205D01*
X157530D02*
X157663Y42338D01*
X157930D01*
X158063Y42205D01*
Y41671D01*
X157930Y41538D01*
X157663D01*
X157530Y41671D01*
Y42205D01*
X158329D02*
X158463Y42338D01*
X158729D01*
X158863Y42205D01*
Y42071D01*
X158729Y41938D01*
X158863Y41805D01*
Y41671D01*
X158729Y41538D01*
X158463D01*
X158329Y41671D01*
Y41805D01*
X158463Y41938D01*
X158329Y42071D01*
Y42205D01*
X158463Y41938D02*
X158729D01*
X156063Y43321D02*
Y44120D01*
X156463D01*
X156597Y43987D01*
Y43721D01*
X156463Y43587D01*
X156063D01*
X156330D02*
X156597Y43321D01*
X156863D02*
X157130D01*
X156996D01*
Y44120D01*
X156863Y43987D01*
X157530D02*
X157663Y44120D01*
X157930D01*
X158063Y43987D01*
Y43454D01*
X157930Y43321D01*
X157663D01*
X157530Y43454D01*
Y43987D01*
X158329Y44120D02*
X158863D01*
Y43987D01*
X158329Y43454D01*
Y43321D01*
X56330Y41576D02*
Y42376D01*
X56730D01*
X56863Y42242D01*
Y41976D01*
X56730Y41843D01*
X56330D01*
X56597D02*
X56863Y41576D01*
X57130Y42376D02*
X57663D01*
Y42242D01*
X57130Y41709D01*
Y41576D01*
X57930Y42242D02*
X58063Y42376D01*
X58329D01*
X58463Y42242D01*
Y42109D01*
X58329Y41976D01*
X58196D01*
X58329D01*
X58463Y41843D01*
Y41709D01*
X58329Y41576D01*
X58063D01*
X57930Y41709D01*
X56330Y43452D02*
Y44251D01*
X56730D01*
X56863Y44118D01*
Y43851D01*
X56730Y43718D01*
X56330D01*
X56597D02*
X56863Y43452D01*
X57130Y44251D02*
X57663D01*
Y44118D01*
X57130Y43585D01*
Y43452D01*
X58463D02*
X57930D01*
X58463Y43985D01*
Y44118D01*
X58329Y44251D01*
X58063D01*
X57930Y44118D01*
X190799Y18189D02*
X189999D01*
Y18589D01*
X190132Y18722D01*
X190399D01*
X190532Y18589D01*
Y18189D01*
Y18455D02*
X190799Y18722D01*
X189999Y19522D02*
Y18989D01*
X190399D01*
X190265Y19255D01*
Y19389D01*
X190399Y19522D01*
X190665D01*
X190799Y19389D01*
Y19122D01*
X190665Y18989D01*
X190132Y19788D02*
X189999Y19922D01*
Y20188D01*
X190132Y20322D01*
X190265D01*
X190399Y20188D01*
X190532Y20322D01*
X190665D01*
X190799Y20188D01*
Y19922D01*
X190665Y19788D01*
X190532D01*
X190399Y19922D01*
X190265Y19788D01*
X190132D01*
X190399Y19922D02*
Y20188D01*
X106889Y44241D02*
Y45040D01*
X107289D01*
X107422Y44907D01*
Y44641D01*
X107289Y44507D01*
X106889D01*
X107155D02*
X107422Y44241D01*
X107688D02*
X107955D01*
X107822D01*
Y45040D01*
X107688Y44907D01*
X108355Y44241D02*
X108621D01*
X108488D01*
Y45040D01*
X108355Y44907D01*
X107263Y61381D02*
Y62181D01*
X107662D01*
X107796Y62048D01*
Y61781D01*
X107662Y61648D01*
X107263D01*
X107529D02*
X107796Y61381D01*
X108062Y61515D02*
X108196Y61381D01*
X108462D01*
X108596Y61515D01*
Y62048D01*
X108462Y62181D01*
X108196D01*
X108062Y62048D01*
Y61915D01*
X108196Y61781D01*
X108596D01*
X106955Y47266D02*
Y48065D01*
X107355D01*
X107489Y47932D01*
Y47666D01*
X107355Y47532D01*
X106955D01*
X107222D02*
X107489Y47266D01*
X107755D02*
X108022D01*
X107888D01*
Y48065D01*
X107755Y47932D01*
X108955Y47266D02*
X108422D01*
X108955Y47799D01*
Y47932D01*
X108821Y48065D01*
X108555D01*
X108422Y47932D01*
X106905Y41216D02*
Y42015D01*
X107305D01*
X107439Y41882D01*
Y41616D01*
X107305Y41482D01*
X106905D01*
X107172D02*
X107439Y41216D01*
X107705D02*
X107972D01*
X107838D01*
Y42015D01*
X107705Y41882D01*
X108372D02*
X108505Y42015D01*
X108771D01*
X108905Y41882D01*
Y41349D01*
X108771Y41216D01*
X108505D01*
X108372Y41349D01*
Y41882D01*
X107289Y58366D02*
Y59165D01*
X107688D01*
X107822Y59032D01*
Y58766D01*
X107688Y58632D01*
X107289D01*
X107555D02*
X107822Y58366D01*
X108088Y59032D02*
X108222Y59165D01*
X108488D01*
X108622Y59032D01*
Y58899D01*
X108488Y58766D01*
X108622Y58632D01*
Y58499D01*
X108488Y58366D01*
X108222D01*
X108088Y58499D01*
Y58632D01*
X108222Y58766D01*
X108088Y58899D01*
Y59032D01*
X108222Y58766D02*
X108488D01*
X107364Y55441D02*
Y56240D01*
X107763D01*
X107897Y56107D01*
Y55841D01*
X107763Y55707D01*
X107364D01*
X107630D02*
X107897Y55441D01*
X108163Y56240D02*
X108697D01*
Y56107D01*
X108163Y55574D01*
Y55441D01*
X194391Y40651D02*
X193591D01*
Y41050D01*
X193724Y41184D01*
X193991D01*
X194124Y41050D01*
Y40651D01*
X193591Y41984D02*
Y41450D01*
X193991D01*
X193858Y41717D01*
Y41850D01*
X193991Y41984D01*
X194258D01*
X194391Y41850D01*
Y41584D01*
X194258Y41450D01*
X185341Y40671D02*
X184541D01*
Y41070D01*
X184675Y41204D01*
X184941D01*
X185075Y41070D01*
Y40671D01*
X185341Y41870D02*
X184541D01*
X184941Y41470D01*
Y42004D01*
X55633Y25281D02*
Y24481D01*
X56167D01*
X56433Y25281D02*
X56966D01*
Y25147D01*
X56433Y24614D01*
Y24481D01*
X91544Y25307D02*
Y24507D01*
X92077D01*
X92877Y25307D02*
X92610Y25174D01*
X92344Y24907D01*
Y24640D01*
X92477Y24507D01*
X92744D01*
X92877Y24640D01*
Y24774D01*
X92744Y24907D01*
X92344D01*
X267375Y25064D02*
X268175D01*
Y25597D01*
X267508Y25863D02*
X267375Y25997D01*
Y26263D01*
X267508Y26396D01*
X267642D01*
X267775Y26263D01*
Y26130D01*
Y26263D01*
X267908Y26396D01*
X268042D01*
X268175Y26263D01*
Y25997D01*
X268042Y25863D01*
X235446Y61035D02*
X235179D01*
X235312D01*
Y60368D01*
X235179Y60235D01*
X235046D01*
X234913Y60368D01*
X236245Y61035D02*
X235712D01*
Y60635D01*
X235979Y60768D01*
X236112D01*
X236245Y60635D01*
Y60368D01*
X236112Y60235D01*
X235846D01*
X235712Y60368D01*
X236512Y60901D02*
X236645Y61035D01*
X236912D01*
X237045Y60901D01*
Y60768D01*
X236912Y60635D01*
X236779D01*
X236912D01*
X237045Y60502D01*
Y60368D01*
X236912Y60235D01*
X236645D01*
X236512Y60368D01*
X156717Y7900D02*
X156450D01*
X156584D01*
Y7233D01*
X156450Y7100D01*
X156317D01*
X156184Y7233D01*
X157517Y7900D02*
X156983D01*
Y7500D01*
X157250Y7633D01*
X157383D01*
X157517Y7500D01*
Y7233D01*
X157383Y7100D01*
X157117D01*
X156983Y7233D01*
X158316Y7100D02*
X157783D01*
X158316Y7633D01*
Y7767D01*
X158183Y7900D01*
X157916D01*
X157783Y7767D01*
X112992Y57003D02*
X112725D01*
X112859D01*
Y56337D01*
X112725Y56204D01*
X112592D01*
X112459Y56337D01*
X113658Y56204D02*
Y57003D01*
X113258Y56604D01*
X113792D01*
X114058Y56337D02*
X114191Y56204D01*
X114458D01*
X114591Y56337D01*
Y56870D01*
X114458Y57003D01*
X114191D01*
X114058Y56870D01*
Y56737D01*
X114191Y56604D01*
X114591D01*
X286468Y110348D02*
Y110081D01*
Y110215D01*
X287134D01*
X287267Y110081D01*
Y109948D01*
X287134Y109815D01*
X287267Y111014D02*
X286468D01*
X286868Y110615D01*
Y111148D01*
X286601Y111414D02*
X286468Y111548D01*
Y111814D01*
X286601Y111948D01*
X287134D01*
X287267Y111814D01*
Y111548D01*
X287134Y111414D01*
X286601D01*
X273514Y110348D02*
Y110081D01*
Y110215D01*
X274180D01*
X274313Y110081D01*
Y109948D01*
X274180Y109815D01*
X273647Y110615D02*
X273514Y110748D01*
Y111014D01*
X273647Y111148D01*
X273780D01*
X273914Y111014D01*
Y110881D01*
Y111014D01*
X274047Y111148D01*
X274180D01*
X274313Y111014D01*
Y110748D01*
X274180Y110615D01*
X273647Y111414D02*
X273514Y111548D01*
Y111814D01*
X273647Y111948D01*
X273780D01*
X273914Y111814D01*
X274047Y111948D01*
X274180D01*
X274313Y111814D01*
Y111548D01*
X274180Y111414D01*
X274047D01*
X273914Y111548D01*
X273780Y111414D01*
X273647D01*
X273914Y111548D02*
Y111814D01*
X245879Y110272D02*
Y110005D01*
Y110139D01*
X246545D01*
X246678Y110005D01*
Y109872D01*
X246545Y109739D01*
X246012Y110538D02*
X245879Y110672D01*
Y110938D01*
X246012Y111072D01*
X246145D01*
X246278Y110938D01*
Y110805D01*
Y110938D01*
X246412Y111072D01*
X246545D01*
X246678Y110938D01*
Y110672D01*
X246545Y110538D01*
X245879Y111871D02*
X246012Y111605D01*
X246278Y111338D01*
X246545D01*
X246678Y111471D01*
Y111738D01*
X246545Y111871D01*
X246412D01*
X246278Y111738D01*
Y111338D01*
X233102Y110373D02*
Y110107D01*
Y110240D01*
X233769D01*
X233902Y110107D01*
Y109974D01*
X233769Y109840D01*
X233236Y110640D02*
X233102Y110773D01*
Y111040D01*
X233236Y111173D01*
X233369D01*
X233502Y111040D01*
Y110907D01*
Y111040D01*
X233635Y111173D01*
X233769D01*
X233902Y111040D01*
Y110773D01*
X233769Y110640D01*
X233902Y111840D02*
X233102D01*
X233502Y111440D01*
Y111973D01*
X186112Y110024D02*
Y109758D01*
Y109891D01*
X186779D01*
X186912Y109758D01*
Y109624D01*
X186779Y109491D01*
X186246Y110291D02*
X186112Y110424D01*
Y110691D01*
X186246Y110824D01*
X186379D01*
X186512Y110691D01*
Y110557D01*
Y110691D01*
X186645Y110824D01*
X186779D01*
X186912Y110691D01*
Y110424D01*
X186779Y110291D01*
X186912Y111090D02*
Y111357D01*
Y111224D01*
X186112D01*
X186246Y111090D01*
X173387Y109789D02*
Y109523D01*
Y109656D01*
X174053D01*
X174187Y109523D01*
Y109389D01*
X174053Y109256D01*
X174187Y110589D02*
Y110056D01*
X173654Y110589D01*
X173520D01*
X173387Y110456D01*
Y110189D01*
X173520Y110056D01*
X174053Y110856D02*
X174187Y110989D01*
Y111255D01*
X174053Y111389D01*
X173520D01*
X173387Y111255D01*
Y110989D01*
X173520Y110856D01*
X173654D01*
X173787Y110989D01*
Y111389D01*
X145803Y110069D02*
Y109802D01*
Y109935D01*
X146469D01*
X146602Y109802D01*
Y109669D01*
X146469Y109535D01*
X146602Y110868D02*
Y110335D01*
X146069Y110868D01*
X145936D01*
X145803Y110735D01*
Y110469D01*
X145936Y110335D01*
X145803Y111668D02*
X145936Y111402D01*
X146202Y111135D01*
X146469D01*
X146602Y111268D01*
Y111535D01*
X146469Y111668D01*
X146336D01*
X146202Y111535D01*
Y111135D01*
X132950Y109891D02*
Y109624D01*
Y109758D01*
X133617D01*
X133750Y109624D01*
Y109491D01*
X133617Y109358D01*
X133750Y110691D02*
Y110157D01*
X133217Y110691D01*
X133083D01*
X132950Y110557D01*
Y110291D01*
X133083Y110157D01*
X133750Y111357D02*
X132950D01*
X133350Y110957D01*
Y111490D01*
X86300Y109361D02*
Y109095D01*
Y109228D01*
X86967D01*
X87100Y109095D01*
Y108962D01*
X86967Y108828D01*
X87100Y110161D02*
Y109628D01*
X86567Y110161D01*
X86433D01*
X86300Y110028D01*
Y109761D01*
X86433Y109628D01*
X87100Y110428D02*
Y110694D01*
Y110561D01*
X86300D01*
X86433Y110428D01*
X72711Y109625D02*
Y109358D01*
Y109492D01*
X73378D01*
X73511Y109358D01*
Y109225D01*
X73378Y109092D01*
X73511Y109892D02*
Y110158D01*
Y110025D01*
X72711D01*
X72844Y109892D01*
X73378Y110558D02*
X73511Y110691D01*
Y110958D01*
X73378Y111091D01*
X72844D01*
X72711Y110958D01*
Y110691D01*
X72844Y110558D01*
X72978D01*
X73111Y110691D01*
Y111091D01*
X46971Y109653D02*
Y109386D01*
Y109519D01*
X47638D01*
X47771Y109386D01*
Y109253D01*
X47638Y109120D01*
X47771Y109919D02*
Y110186D01*
Y110053D01*
X46971D01*
X47104Y109919D01*
X46971Y111119D02*
X47104Y110852D01*
X47371Y110586D01*
X47638D01*
X47771Y110719D01*
Y110986D01*
X47638Y111119D01*
X47504D01*
X47371Y110986D01*
Y110586D01*
X33128Y109791D02*
Y109525D01*
Y109658D01*
X33795D01*
X33928Y109525D01*
Y109391D01*
X33795Y109258D01*
X33928Y110058D02*
Y110324D01*
Y110191D01*
X33128D01*
X33261Y110058D01*
X33928Y111124D02*
X33128D01*
X33528Y110724D01*
Y111257D01*
X236033Y29925D02*
X235767D01*
X235900D01*
Y29258D01*
X235767Y29125D01*
X235634D01*
X235500Y29258D01*
X236300Y29125D02*
X236567D01*
X236433D01*
Y29925D01*
X236300Y29792D01*
X236967D02*
X237100Y29925D01*
X237366D01*
X237500Y29792D01*
Y29658D01*
X237366Y29525D01*
X237233D01*
X237366D01*
X237500Y29392D01*
Y29258D01*
X237366Y29125D01*
X237100D01*
X236967Y29258D01*
X227867Y29900D02*
X227601D01*
X227734D01*
Y29233D01*
X227601Y29100D01*
X227468D01*
X227334Y29233D01*
X228134Y29100D02*
X228401D01*
X228267D01*
Y29900D01*
X228134Y29767D01*
X228800D02*
X228934Y29900D01*
X229200D01*
X229334Y29767D01*
Y29233D01*
X229200Y29100D01*
X228934D01*
X228800Y29233D01*
Y29767D01*
X274181Y40877D02*
X274980D01*
Y41276D01*
X274847Y41410D01*
X274314D01*
X274181Y41276D01*
Y40877D01*
X274314Y41676D02*
X274181Y41810D01*
Y42076D01*
X274314Y42209D01*
X274447D01*
X274581Y42076D01*
X274714Y42209D01*
X274847D01*
X274980Y42076D01*
Y41810D01*
X274847Y41676D01*
X274714D01*
X274581Y41810D01*
X274447Y41676D01*
X274314D01*
X274581Y41810D02*
Y42076D01*
X100965Y46857D02*
X100165D01*
Y46457D01*
X100298Y46324D01*
X100832D01*
X100965Y46457D01*
Y46857D01*
Y45524D02*
X100832Y45791D01*
X100565Y46057D01*
X100298D01*
X100165Y45924D01*
Y45658D01*
X100298Y45524D01*
X100432D01*
X100565Y45658D01*
Y46057D01*
X100965Y44059D02*
X100165D01*
Y43659D01*
X100298Y43526D01*
X100832D01*
X100965Y43659D01*
Y44059D01*
Y42726D02*
Y43260D01*
X100565D01*
X100698Y42993D01*
Y42860D01*
X100565Y42726D01*
X100298D01*
X100165Y42860D01*
Y43126D01*
X100298Y43260D01*
X100965Y40882D02*
X100165D01*
Y40482D01*
X100298Y40349D01*
X100832D01*
X100965Y40482D01*
Y40882D01*
X100165Y39683D02*
X100965D01*
X100565Y40082D01*
Y39549D01*
X100940Y61007D02*
X100140D01*
Y60607D01*
X100273Y60474D01*
X100807D01*
X100940Y60607D01*
Y61007D01*
X100807Y60207D02*
X100940Y60074D01*
Y59807D01*
X100807Y59674D01*
X100673D01*
X100540Y59807D01*
Y59941D01*
Y59807D01*
X100407Y59674D01*
X100273D01*
X100140Y59807D01*
Y60074D01*
X100273Y60207D01*
X100940Y57882D02*
X100140D01*
Y57482D01*
X100273Y57349D01*
X100807D01*
X100940Y57482D01*
Y57882D01*
X100140Y56549D02*
Y57082D01*
X100673Y56549D01*
X100807D01*
X100940Y56682D01*
Y56949D01*
X100807Y57082D01*
X100940Y54799D02*
X100140D01*
Y54399D01*
X100273Y54266D01*
X100807D01*
X100940Y54399D01*
Y54799D01*
X100140Y53999D02*
Y53732D01*
Y53866D01*
X100940D01*
X100807Y53999D01*
X264756Y59847D02*
X264622Y59981D01*
X264356D01*
X264223Y59847D01*
Y59314D01*
X264356Y59181D01*
X264622D01*
X264756Y59314D01*
X265022Y59181D02*
X265289D01*
X265156D01*
Y59981D01*
X265022Y59847D01*
X265689D02*
X265822Y59981D01*
X266089D01*
X266222Y59847D01*
Y59714D01*
X266089Y59581D01*
X265955D01*
X266089D01*
X266222Y59448D01*
Y59314D01*
X266089Y59181D01*
X265822D01*
X265689Y59314D01*
X266488D02*
X266622Y59181D01*
X266888D01*
X267022Y59314D01*
Y59847D01*
X266888Y59981D01*
X266622D01*
X266488Y59847D01*
Y59714D01*
X266622Y59581D01*
X267022D01*
X257385Y45441D02*
X257251Y45574D01*
X256985D01*
X256852Y45441D01*
Y44908D01*
X256985Y44775D01*
X257251D01*
X257385Y44908D01*
X257651Y44775D02*
X257918D01*
X257785D01*
Y45574D01*
X257651Y45441D01*
X258851Y44775D02*
X258318D01*
X258851Y45308D01*
Y45441D01*
X258718Y45574D01*
X258451D01*
X258318Y45441D01*
X259117Y45574D02*
X259651D01*
Y45441D01*
X259117Y44908D01*
Y44775D01*
X257401Y40031D02*
X257267Y40164D01*
X257001D01*
X256868Y40031D01*
Y39498D01*
X257001Y39365D01*
X257267D01*
X257401Y39498D01*
X257667Y39365D02*
X257934D01*
X257801D01*
Y40164D01*
X257667Y40031D01*
X258867Y39365D02*
X258334D01*
X258867Y39898D01*
Y40031D01*
X258734Y40164D01*
X258467D01*
X258334Y40031D01*
X259667Y40164D02*
X259400Y40031D01*
X259134Y39764D01*
Y39498D01*
X259267Y39365D01*
X259533D01*
X259667Y39498D01*
Y39631D01*
X259533Y39764D01*
X259134D01*
X250259Y59767D02*
X250126Y59901D01*
X249859D01*
X249726Y59767D01*
Y59234D01*
X249859Y59101D01*
X250126D01*
X250259Y59234D01*
X250526Y59101D02*
X250793D01*
X250659D01*
Y59901D01*
X250526Y59767D01*
X251192Y59101D02*
X251459D01*
X251326D01*
Y59901D01*
X251192Y59767D01*
X251859Y59901D02*
X252392D01*
Y59767D01*
X251859Y59234D01*
Y59101D01*
X173759Y62417D02*
X173625Y62550D01*
X173359D01*
X173225Y62417D01*
Y61883D01*
X173359Y61750D01*
X173625D01*
X173759Y61883D01*
X174025Y61750D02*
X174292D01*
X174158D01*
Y62550D01*
X174025Y62417D01*
X174692D02*
X174825Y62550D01*
X175092D01*
X175225Y62417D01*
Y61883D01*
X175092Y61750D01*
X174825D01*
X174692Y61883D01*
Y62417D01*
X175891Y61750D02*
Y62550D01*
X175491Y62150D01*
X176025D01*
X157192Y45717D02*
X157059Y45850D01*
X156792D01*
X156659Y45717D01*
Y45183D01*
X156792Y45050D01*
X157059D01*
X157192Y45183D01*
X157458D02*
X157592Y45050D01*
X157858D01*
X157992Y45183D01*
Y45717D01*
X157858Y45850D01*
X157592D01*
X157458Y45717D01*
Y45583D01*
X157592Y45450D01*
X157992D01*
X158258Y45717D02*
X158391Y45850D01*
X158658D01*
X158791Y45717D01*
Y45583D01*
X158658Y45450D01*
X158791Y45317D01*
Y45183D01*
X158658Y45050D01*
X158391D01*
X158258Y45183D01*
Y45317D01*
X158391Y45450D01*
X158258Y45583D01*
Y45717D01*
X158391Y45450D02*
X158658D01*
X157220Y40327D02*
X157087Y40460D01*
X156820D01*
X156687Y40327D01*
Y39794D01*
X156820Y39661D01*
X157087D01*
X157220Y39794D01*
X157486D02*
X157620Y39661D01*
X157886D01*
X158020Y39794D01*
Y40327D01*
X157886Y40460D01*
X157620D01*
X157486Y40327D01*
Y40194D01*
X157620Y40061D01*
X158020D01*
X158286Y40460D02*
X158819D01*
Y40327D01*
X158286Y39794D01*
Y39661D01*
X150400Y59744D02*
X150267Y59878D01*
X150000D01*
X149867Y59744D01*
Y59211D01*
X150000Y59078D01*
X150267D01*
X150400Y59211D01*
X150666Y59744D02*
X150800Y59878D01*
X151066D01*
X151200Y59744D01*
Y59611D01*
X151066Y59478D01*
X151200Y59344D01*
Y59211D01*
X151066Y59078D01*
X150800D01*
X150666Y59211D01*
Y59344D01*
X150800Y59478D01*
X150666Y59611D01*
Y59744D01*
X150800Y59478D02*
X151066D01*
X151466Y59744D02*
X151599Y59878D01*
X151866D01*
X151999Y59744D01*
Y59611D01*
X151866Y59478D01*
X151999Y59344D01*
Y59211D01*
X151866Y59078D01*
X151599D01*
X151466Y59211D01*
Y59344D01*
X151599Y59478D01*
X151466Y59611D01*
Y59744D01*
X151599Y59478D02*
X151866D01*
X63425Y60417D02*
X63292Y60550D01*
X63025D01*
X62892Y60417D01*
Y59883D01*
X63025Y59750D01*
X63292D01*
X63425Y59883D01*
X63692Y60550D02*
X64225D01*
Y60417D01*
X63692Y59883D01*
Y59750D01*
X64491D02*
X64758D01*
X64625D01*
Y60550D01*
X64491Y60417D01*
X56863Y45927D02*
X56730Y46061D01*
X56463D01*
X56330Y45927D01*
Y45394D01*
X56463Y45261D01*
X56730D01*
X56863Y45394D01*
X57663Y46061D02*
X57396Y45927D01*
X57130Y45661D01*
Y45394D01*
X57263Y45261D01*
X57530D01*
X57663Y45394D01*
Y45527D01*
X57530Y45661D01*
X57130D01*
X58463Y46061D02*
X57930D01*
Y45661D01*
X58196Y45794D01*
X58329D01*
X58463Y45661D01*
Y45394D01*
X58329Y45261D01*
X58063D01*
X57930Y45394D01*
X56863Y40607D02*
X56730Y40741D01*
X56463D01*
X56330Y40607D01*
Y40074D01*
X56463Y39941D01*
X56730D01*
X56863Y40074D01*
X57663Y40741D02*
X57396Y40607D01*
X57130Y40341D01*
Y40074D01*
X57263Y39941D01*
X57530D01*
X57663Y40074D01*
Y40208D01*
X57530Y40341D01*
X57130D01*
X58329Y39941D02*
Y40741D01*
X57930Y40341D01*
X58463D01*
X50745Y60242D02*
X50612Y60375D01*
X50345D01*
X50212Y60242D01*
Y59708D01*
X50345Y59575D01*
X50612D01*
X50745Y59708D01*
X51545Y60375D02*
X51012D01*
Y59975D01*
X51278Y60108D01*
X51412D01*
X51545Y59975D01*
Y59708D01*
X51412Y59575D01*
X51145D01*
X51012Y59708D01*
X51812Y60242D02*
X51945Y60375D01*
X52211D01*
X52345Y60242D01*
Y60108D01*
X52211Y59975D01*
X52345Y59842D01*
Y59708D01*
X52211Y59575D01*
X51945D01*
X51812Y59708D01*
Y59842D01*
X51945Y59975D01*
X51812Y60108D01*
Y60242D01*
X51945Y59975D02*
X52211D01*
X43050Y15456D02*
X42917Y15589D01*
X42650D01*
X42517Y15456D01*
Y14923D01*
X42650Y14789D01*
X42917D01*
X43050Y14923D01*
X43850Y15589D02*
X43317D01*
Y15189D01*
X43583Y15323D01*
X43717D01*
X43850Y15189D01*
Y14923D01*
X43717Y14789D01*
X43450D01*
X43317Y14923D01*
X44116Y14789D02*
X44383D01*
X44250D01*
Y15589D01*
X44116Y15456D01*
X58692Y3467D02*
X58559Y3600D01*
X58292D01*
X58159Y3467D01*
Y2933D01*
X58292Y2800D01*
X58559D01*
X58692Y2933D01*
X59492Y3600D02*
X58958D01*
Y3200D01*
X59225Y3333D01*
X59358D01*
X59492Y3200D01*
Y2933D01*
X59358Y2800D01*
X59092D01*
X58958Y2933D01*
X59758Y3467D02*
X59891Y3600D01*
X60158D01*
X60291Y3467D01*
Y2933D01*
X60158Y2800D01*
X59891D01*
X59758Y2933D01*
Y3467D01*
X42967Y3517D02*
X42834Y3650D01*
X42567D01*
X42434Y3517D01*
Y2983D01*
X42567Y2850D01*
X42834D01*
X42967Y2983D01*
X43633Y2850D02*
Y3650D01*
X43233Y3250D01*
X43767D01*
X44033Y2983D02*
X44166Y2850D01*
X44433D01*
X44566Y2983D01*
Y3517D01*
X44433Y3650D01*
X44166D01*
X44033Y3517D01*
Y3383D01*
X44166Y3250D01*
X44566D01*
X190051Y15543D02*
X189918Y15409D01*
Y15143D01*
X190051Y15009D01*
X190584D01*
X190717Y15143D01*
Y15409D01*
X190584Y15543D01*
X190717Y16209D02*
X189918D01*
X190317Y15809D01*
Y16342D01*
X190051Y16609D02*
X189918Y16742D01*
Y17009D01*
X190051Y17142D01*
X190184D01*
X190317Y17009D01*
X190451Y17142D01*
X190584D01*
X190717Y17009D01*
Y16742D01*
X190584Y16609D01*
X190451D01*
X190317Y16742D01*
X190184Y16609D01*
X190051D01*
X190317Y16742D02*
Y17009D01*
X81617Y15542D02*
X81484Y15675D01*
X81217D01*
X81084Y15542D01*
Y15008D01*
X81217Y14875D01*
X81484D01*
X81617Y15008D01*
X82283Y14875D02*
Y15675D01*
X81883Y15275D01*
X82417D01*
X83083Y14875D02*
Y15675D01*
X82683Y15275D01*
X83216D01*
X95342Y3042D02*
X95209Y3175D01*
X94942D01*
X94809Y3042D01*
Y2508D01*
X94942Y2375D01*
X95209D01*
X95342Y2508D01*
X96008Y2375D02*
Y3175D01*
X95608Y2775D01*
X96142D01*
X96408Y3042D02*
X96541Y3175D01*
X96808D01*
X96941Y3042D01*
Y2908D01*
X96808Y2775D01*
X96675D01*
X96808D01*
X96941Y2642D01*
Y2508D01*
X96808Y2375D01*
X96541D01*
X96408Y2508D01*
X279990Y49092D02*
X279857Y48958D01*
Y48692D01*
X279990Y48559D01*
X280524D01*
X280657Y48692D01*
Y48958D01*
X280524Y49092D01*
X279990Y49358D02*
X279857Y49492D01*
Y49758D01*
X279990Y49891D01*
X280124D01*
X280257Y49758D01*
Y49625D01*
Y49758D01*
X280390Y49891D01*
X280524D01*
X280657Y49758D01*
Y49492D01*
X280524Y49358D01*
X279990Y50158D02*
X279857Y50291D01*
Y50558D01*
X279990Y50691D01*
X280124D01*
X280257Y50558D01*
Y50425D01*
Y50558D01*
X280390Y50691D01*
X280524D01*
X280657Y50558D01*
Y50291D01*
X280524Y50158D01*
D99*
X43562Y110004D02*
X45721D01*
X41403D02*
X43562D01*
X37562D02*
X39721D01*
X35403D02*
X37562D01*
X77277Y110052D02*
X79436D01*
X75118D02*
X77277D01*
X83277D02*
X85436D01*
X81118D02*
X83277D01*
X283380Y110966D02*
X285539D01*
X281221D02*
X283380D01*
X277380D02*
X279539D01*
X275221D02*
X277380D01*
X236888Y110890D02*
X239047D01*
X234729D02*
X236888D01*
X242888D02*
X245047D01*
X240729D02*
X242888D01*
X180935Y110348D02*
X183094D01*
X185253D01*
X175119Y110221D02*
X177278D01*
X179437D01*
X140386Y110348D02*
X142545D01*
X144704D01*
X134950D02*
X137109D01*
X139268D01*
D110*
X172671Y62807D02*
Y63188D01*
X170258Y60394D02*
X172671Y62807D01*
X164162Y60394D02*
X170258D01*
X164162D02*
Y63188D01*
Y65474D02*
Y68395D01*
X170131D02*
X172671Y65855D01*
X164162Y68395D02*
X170131D01*
X172671Y65474D02*
Y65791D01*
X102390Y24818D02*
X102707D01*
X99786Y16309D02*
Y22278D01*
X102326Y24818D01*
X99786Y16309D02*
X102707D01*
X104993D02*
X107787D01*
Y22405D01*
X105374Y24818D02*
X107787Y22405D01*
X104993Y24818D02*
X105374D01*
X64689D02*
X65007D01*
X62086Y16309D02*
Y22278D01*
X64626Y24818D01*
X62086Y16309D02*
X65007D01*
X67293D02*
X70087D01*
Y22405D01*
X67674Y24818D02*
X70087Y22405D01*
X67293Y24818D02*
X67674D01*
X83340D02*
X83657D01*
X80736Y16309D02*
Y22278D01*
X83276Y24818D01*
X80736Y16309D02*
X83657D01*
X85943D02*
X88737D01*
Y22405D01*
X86324Y24818D02*
X88737Y22405D01*
X85943Y24818D02*
X86324D01*
X74164Y12818D02*
X74482D01*
X71561Y4309D02*
Y10278D01*
X74101Y12818D01*
X71561Y4309D02*
X74482D01*
X76768D02*
X79562D01*
Y10405D01*
X77149Y12818D02*
X79562Y10405D01*
X76768Y12818D02*
X77149D01*
X71244Y66204D02*
Y66521D01*
X62735Y69125D02*
X68704D01*
X71244Y66585D01*
X62735Y66204D02*
Y69125D01*
Y61124D02*
Y63918D01*
Y61124D02*
X68831D01*
X71244Y63537D01*
Y63918D01*
X56644Y66054D02*
Y66371D01*
X48135Y68975D02*
X54104D01*
X56644Y66435D01*
X48135Y66054D02*
Y68975D01*
Y60974D02*
Y63768D01*
Y60974D02*
X54231D01*
X56644Y63387D01*
Y63768D01*
X258425Y65497D02*
Y65815D01*
X249916Y68418D02*
X255885D01*
X258425Y65878D01*
X249916Y65497D02*
Y68418D01*
Y60417D02*
Y63211D01*
Y60417D02*
X256012D01*
X258425Y62830D01*
Y63211D01*
X272855Y65497D02*
Y65815D01*
X264346Y68418D02*
X270315D01*
X272855Y65878D01*
X264346Y65497D02*
Y68418D01*
Y60417D02*
Y63211D01*
Y60417D02*
X270442D01*
X272855Y62830D01*
Y63211D01*
X158299Y65464D02*
Y65781D01*
X149790Y68385D02*
X155759D01*
X158299Y65845D01*
X149790Y65464D02*
Y68385D01*
Y60384D02*
Y63178D01*
Y60384D02*
X155886D01*
X158299Y62797D01*
Y63178D01*
X91664Y12443D02*
X91982D01*
X89061Y3934D02*
Y9903D01*
X91601Y12443D01*
X89061Y3934D02*
X91982D01*
X94268D02*
X97062D01*
Y10030D01*
X94649Y12443D02*
X97062Y10030D01*
X94268Y12443D02*
X94649D01*
X45200Y24818D02*
X45517D01*
X42596Y16309D02*
Y22278D01*
X45136Y24818D01*
X42596Y16309D02*
X45517D01*
X47803D02*
X50597D01*
Y22405D01*
X48184Y24818D02*
X50597Y22405D01*
X47803Y24818D02*
X48184D01*
X54889Y12818D02*
X55207D01*
X52286Y4309D02*
Y10278D01*
X54826Y12818D01*
X52286Y4309D02*
X55207D01*
X57493D02*
X60287D01*
Y10405D01*
X57874Y12818D02*
X60287Y10405D01*
X57493Y12818D02*
X57874D01*
D111*
X41403Y105305D02*
Y114703D01*
X45721Y105305D02*
Y114703D01*
X41403Y105305D02*
X45721D01*
X41403Y114703D02*
X45721D01*
X35403Y105305D02*
Y114703D01*
X39721Y105305D02*
Y114703D01*
X35403Y105305D02*
X39721D01*
X35403Y114703D02*
X39721D01*
X75118Y105353D02*
Y114751D01*
X79436Y105353D02*
Y114751D01*
X75118Y105353D02*
X79436D01*
X75118Y114751D02*
X79436D01*
X81118Y105353D02*
Y114751D01*
X85436Y105353D02*
Y114751D01*
X81118Y105353D02*
X85436D01*
X81118Y114751D02*
X85436D01*
X281221Y106267D02*
Y115665D01*
X285539Y106267D02*
Y115665D01*
X281221Y106267D02*
X285539D01*
X281221Y115665D02*
X285539D01*
X275221Y106267D02*
Y115665D01*
X279539Y106267D02*
Y115665D01*
X275221Y106267D02*
X279539D01*
X275221Y115665D02*
X279539D01*
X234729Y106191D02*
Y115589D01*
X239047Y106191D02*
Y115589D01*
X234729Y106191D02*
X239047D01*
X234729Y115589D02*
X239047D01*
X240729Y106191D02*
Y115589D01*
X245047Y106191D02*
Y115589D01*
X240729Y106191D02*
X245047D01*
X240729Y115589D02*
X245047D01*
X180935Y115047D02*
X185253D01*
X180935Y105649D02*
X185253D01*
Y115047D01*
X180935Y105649D02*
Y115047D01*
X175119Y114920D02*
X179437D01*
X175119Y105522D02*
X179437D01*
Y114920D01*
X175119Y105522D02*
Y114920D01*
X140386Y115047D02*
X144704D01*
X140386Y105649D02*
X144704D01*
Y115047D01*
X140386Y105649D02*
Y115047D01*
X134950D02*
X139268D01*
X134950Y105649D02*
X139268D01*
Y115047D01*
X134950Y105649D02*
Y115047D01*
D112*
X130000Y132972D02*
D03*
X90000Y132972D02*
D03*
X190000Y132972D02*
D03*
X170000D02*
D03*
X50000Y132972D02*
D03*
X30000Y132973D02*
D03*
X70000Y132972D02*
D03*
X290000Y132972D02*
D03*
X270000D02*
D03*
X150000Y132972D02*
D03*
X230000Y132972D02*
D03*
X250000Y132972D02*
D03*
%TF.MD5,7abb70052fed7980efda52e9b7f26de7*%
M02*
