%TF.GenerationSoftware,Altium Limited,Altium Designer,26.1.1 (7)*%
G04 Layer_Color=0*
%FSLAX43Y43*%
%MOMM*%
%TF.SameCoordinates,F910D8A4-5627-44EB-A571-6FFAAA827985*%
%TF.FilePolarity,Positive*%
%TF.FileFunction,Profile,NP*%
%TF.Part,Single*%
G01*
G75*
%TA.AperFunction,Profile*%
%ADD118C,0.025*%
G36*
X292305Y115425D02*
X307904Y115425D01*
Y115425D01*
X308036D01*
X308290Y115493D01*
X308518Y115625D01*
X308704Y115811D01*
X308836Y116039D01*
X308904Y116294D01*
Y116557D01*
X308836Y116811D01*
X308704Y117039D01*
X308518Y117225D01*
X308290Y117357D01*
X308036Y117425D01*
X307904D01*
D01*
Y117425D01*
X292305Y117425D01*
Y117425D01*
X292174D01*
X291919Y117357D01*
X291691Y117225D01*
X291505Y117039D01*
X291373Y116811D01*
X291305Y116557D01*
Y116294D01*
X291373Y116039D01*
X291505Y115811D01*
X291691Y115625D01*
X291919Y115493D01*
X292174Y115425D01*
X292305D01*
Y115425D01*
D02*
G37*
G36*
X5000Y3000D02*
X4803D01*
X4417Y3077D01*
X4053Y3228D01*
X3725Y3447D01*
X3447Y3725D01*
X3228Y4053D01*
X3077Y4417D01*
X3000Y4803D01*
Y5000D01*
Y5197D01*
X3077Y5583D01*
X3228Y5947D01*
X3447Y6275D01*
X3725Y6554D01*
X4053Y6772D01*
X4417Y6923D01*
X4803Y7000D01*
X5000D01*
X5197D01*
X5583Y6923D01*
X5947Y6772D01*
X6275Y6554D01*
X6554Y6275D01*
X6772Y5947D01*
X6923Y5583D01*
X7000Y5197D01*
Y5000D01*
Y4803D01*
X6923Y4417D01*
X6772Y4053D01*
X6554Y3725D01*
X6275Y3447D01*
X5947Y3228D01*
X5583Y3077D01*
X5197Y3000D01*
X5000D01*
D01*
D02*
G37*
G36*
X23561Y115508D02*
X29120D01*
Y115508D01*
X29251D01*
X29506Y115576D01*
X29734Y115708D01*
X29920Y115894D01*
X30052Y116122D01*
X30120Y116377D01*
Y116640D01*
X30052Y116894D01*
X29920Y117122D01*
X29734Y117308D01*
X29506Y117440D01*
X29251Y117508D01*
X29120D01*
D01*
Y117508D01*
X23561D01*
Y117508D01*
X23429D01*
X23175Y117440D01*
X22947Y117308D01*
X22760Y117122D01*
X22629Y116894D01*
X22561Y116640D01*
Y116377D01*
X22629Y116122D01*
X22760Y115894D01*
X22947Y115708D01*
X23175Y115576D01*
X23429Y115508D01*
X23561D01*
Y115508D01*
D02*
G37*
G36*
X13588Y115483D02*
X19147D01*
Y115484D01*
X19279D01*
X19533Y115552D01*
X19761Y115683D01*
X19948Y115870D01*
X20079Y116098D01*
X20147Y116352D01*
Y116615D01*
X20079Y116870D01*
X19948Y117098D01*
X19761Y117284D01*
X19533Y117415D01*
X19279Y117484D01*
X19147D01*
D01*
Y117483D01*
X13588D01*
Y117484D01*
X13457D01*
X13202Y117415D01*
X12974Y117284D01*
X12788Y117098D01*
X12656Y116870D01*
X12588Y116615D01*
Y116352D01*
X12656Y116098D01*
X12788Y115870D01*
X12974Y115683D01*
X13202Y115552D01*
X13457Y115484D01*
X13588D01*
Y115483D01*
D02*
G37*
G36*
X2441Y115425D02*
X8000D01*
Y115425D01*
X8132D01*
X8386Y115493D01*
X8614Y115625D01*
X8800Y115811D01*
X8932Y116039D01*
X9000Y116294D01*
Y116557D01*
X8932Y116811D01*
X8800Y117039D01*
X8614Y117225D01*
X8386Y117357D01*
X8132Y117425D01*
X8000D01*
D01*
Y117425D01*
X2441D01*
Y117425D01*
X2309D01*
X2055Y117357D01*
X1827Y117225D01*
X1641Y117039D01*
X1509Y116811D01*
X1441Y116557D01*
Y116294D01*
X1509Y116039D01*
X1641Y115811D01*
X1827Y115625D01*
X2055Y115493D01*
X2309Y115425D01*
X2441D01*
Y115425D01*
D02*
G37*
G36*
X52794Y115450D02*
X52662D01*
X52408Y115518D01*
X52180Y115650D01*
X51994Y115836D01*
X51862Y116064D01*
X51794Y116319D01*
Y116582D01*
X51862Y116836D01*
X51994Y117064D01*
X52180Y117250D01*
X52408Y117382D01*
X52662Y117450D01*
X52794D01*
D01*
Y117450D01*
X68393Y117450D01*
Y117450D01*
X68525D01*
X68779Y117382D01*
X69007Y117250D01*
X69193Y117064D01*
X69325Y116836D01*
X69393Y116582D01*
Y116319D01*
X69325Y116064D01*
X69193Y115836D01*
X69007Y115650D01*
X68779Y115518D01*
X68525Y115450D01*
X68393D01*
D01*
Y115450D01*
X52794Y115450D01*
D02*
G37*
G36*
X88340Y115435D02*
X103940Y115435D01*
Y115436D01*
X104071D01*
X104325Y115504D01*
X104554Y115635D01*
X104740Y115822D01*
X104871Y116050D01*
X104940Y116304D01*
Y116567D01*
X104871Y116822D01*
X104740Y117050D01*
X104554Y117236D01*
X104325Y117367D01*
X104071Y117436D01*
X103940D01*
D01*
Y117435D01*
X88340Y117435D01*
Y117436D01*
X88209D01*
X87954Y117367D01*
X87726Y117236D01*
X87540Y117050D01*
X87409Y116822D01*
X87340Y116567D01*
Y116304D01*
X87409Y116050D01*
X87540Y115822D01*
X87726Y115635D01*
X87954Y115504D01*
X88209Y115436D01*
X88340D01*
Y115435D01*
D02*
G37*
G36*
X116190Y115385D02*
X131790Y115385D01*
Y115386D01*
X131921D01*
X132175Y115454D01*
X132404Y115585D01*
X132590Y115771D01*
X132721Y116000D01*
X132790Y116254D01*
Y116517D01*
X132721Y116771D01*
X132590Y117000D01*
X132404Y117186D01*
X132175Y117317D01*
X131921Y117386D01*
X131790D01*
D01*
Y117385D01*
X116190Y117385D01*
Y117386D01*
X116059D01*
X115804Y117317D01*
X115576Y117186D01*
X115390Y117000D01*
X115259Y116771D01*
X115190Y116517D01*
Y116254D01*
X115259Y116000D01*
X115390Y115771D01*
X115576Y115585D01*
X115804Y115454D01*
X116059Y115386D01*
X116190D01*
Y115385D01*
D02*
G37*
G36*
X151981Y115386D02*
X151850D01*
X151595Y115454D01*
X151367Y115585D01*
X151181Y115771D01*
X151050Y116000D01*
X150981Y116254D01*
Y116517D01*
X151050Y116771D01*
X151181Y117000D01*
X151367Y117186D01*
X151595Y117317D01*
X151850Y117386D01*
X151981D01*
D01*
Y117385D01*
X167580Y117385D01*
Y117386D01*
X167712D01*
X167966Y117317D01*
X168194Y117186D01*
X168381Y117000D01*
X168512Y116771D01*
X168580Y116517D01*
Y116254D01*
X168512Y116000D01*
X168381Y115771D01*
X168194Y115585D01*
X167966Y115454D01*
X167712Y115386D01*
X167580D01*
D01*
Y115385D01*
X151981Y115386D01*
D02*
G37*
G36*
X188165Y115360D02*
X203765Y115360D01*
Y115361D01*
X203896D01*
X204150Y115429D01*
X204379Y115560D01*
X204565Y115746D01*
X204696Y115975D01*
X204765Y116229D01*
Y116492D01*
X204696Y116746D01*
X204565Y116975D01*
X204379Y117161D01*
X204150Y117292D01*
X203896Y117361D01*
X203765D01*
D01*
Y117360D01*
X188165Y117360D01*
Y117361D01*
X188034D01*
X187779Y117292D01*
X187551Y117161D01*
X187365Y116975D01*
X187234Y116746D01*
X187165Y116492D01*
Y116229D01*
X187234Y115975D01*
X187365Y115746D01*
X187551Y115560D01*
X187779Y115429D01*
X188034Y115361D01*
X188165D01*
Y115360D01*
D02*
G37*
G36*
X215965Y115385D02*
X231565Y115385D01*
Y115386D01*
X231696D01*
X231950Y115454D01*
X232179Y115585D01*
X232365Y115771D01*
X232496Y116000D01*
X232565Y116254D01*
Y116517D01*
X232496Y116771D01*
X232365Y117000D01*
X232179Y117186D01*
X231950Y117317D01*
X231696Y117386D01*
X231565D01*
D01*
Y117385D01*
X215965Y117385D01*
Y117386D01*
X215834D01*
X215579Y117317D01*
X215351Y117186D01*
X215165Y117000D01*
X215034Y116771D01*
X214965Y116517D01*
Y116254D01*
X215034Y116000D01*
X215165Y115771D01*
X215351Y115585D01*
X215579Y115454D01*
X215834Y115386D01*
X215965D01*
Y115385D01*
D02*
G37*
G36*
X251265Y115435D02*
X266865Y115435D01*
Y115436D01*
X266996D01*
X267250Y115504D01*
X267479Y115635D01*
X267665Y115822D01*
X267796Y116050D01*
X267865Y116304D01*
Y116567D01*
X267796Y116822D01*
X267665Y117050D01*
X267479Y117236D01*
X267250Y117367D01*
X266996Y117436D01*
X266865D01*
D01*
Y117435D01*
X251265Y117435D01*
Y117436D01*
X251134D01*
X250879Y117367D01*
X250651Y117236D01*
X250465Y117050D01*
X250334Y116822D01*
X250265Y116567D01*
Y116304D01*
X250334Y116050D01*
X250465Y115822D01*
X250651Y115635D01*
X250879Y115504D01*
X251134Y115436D01*
X251265D01*
Y115435D01*
D02*
G37*
G36*
X313000Y5000D02*
Y4803D01*
X313077Y4417D01*
X313228Y4053D01*
X313447Y3725D01*
X313725Y3447D01*
X314053Y3228D01*
X314417Y3077D01*
X314803Y3000D01*
X315000D01*
X315197D01*
X315583Y3077D01*
X315947Y3228D01*
X316275Y3447D01*
X316553Y3725D01*
X316772Y4053D01*
X316923Y4417D01*
X317000Y4803D01*
Y5000D01*
Y5197D01*
X316923Y5583D01*
X316772Y5947D01*
X316553Y6275D01*
X316275Y6554D01*
X315947Y6772D01*
X315583Y6923D01*
X315197Y7000D01*
X315000D01*
X314803D01*
X314417Y6923D01*
X314053Y6772D01*
X313725Y6554D01*
X313447Y6275D01*
X313228Y5947D01*
X313077Y5583D01*
X313000Y5197D01*
Y5000D01*
D01*
D02*
G37*
G36*
X208000D02*
Y4803D01*
X208077Y4417D01*
X208228Y4053D01*
X208446Y3725D01*
X208725Y3447D01*
X209053Y3228D01*
X209417Y3077D01*
X209803Y3000D01*
X210000D01*
X210197D01*
X210583Y3077D01*
X210947Y3228D01*
X211275Y3447D01*
X211553Y3725D01*
X211772Y4053D01*
X211923Y4417D01*
X212000Y4803D01*
Y5000D01*
Y5197D01*
X211923Y5583D01*
X211772Y5947D01*
X211553Y6275D01*
X211275Y6554D01*
X210947Y6772D01*
X210583Y6923D01*
X210197Y7000D01*
X210000D01*
X209803D01*
X209417Y6923D01*
X209053Y6772D01*
X208725Y6554D01*
X208446Y6275D01*
X208228Y5947D01*
X208077Y5583D01*
X208000Y5197D01*
Y5000D01*
D01*
D02*
G37*
G36*
X108000D02*
Y4803D01*
X108077Y4417D01*
X108228Y4053D01*
X108447Y3725D01*
X108725Y3447D01*
X109053Y3228D01*
X109417Y3077D01*
X109803Y3000D01*
X110000D01*
X110197D01*
X110583Y3077D01*
X110947Y3228D01*
X111275Y3447D01*
X111553Y3725D01*
X111772Y4053D01*
X111923Y4417D01*
X112000Y4803D01*
Y5000D01*
Y5197D01*
X111923Y5583D01*
X111772Y5947D01*
X111553Y6275D01*
X111275Y6554D01*
X110947Y6772D01*
X110583Y6923D01*
X110197Y7000D01*
X110000D01*
X109803D01*
X109417Y6923D01*
X109053Y6772D01*
X108725Y6554D01*
X108447Y6275D01*
X108228Y5947D01*
X108077Y5583D01*
X108000Y5197D01*
Y5000D01*
D01*
D02*
G37*
G36*
X110000Y108004D02*
X109803D01*
X109417Y108081D01*
X109053Y108231D01*
X108725Y108450D01*
X108447Y108729D01*
X108228Y109056D01*
X108077Y109420D01*
X108000Y109807D01*
Y110004D01*
Y110201D01*
X108077Y110587D01*
X108228Y110951D01*
X108447Y111279D01*
X108725Y111557D01*
X109053Y111776D01*
X109417Y111927D01*
X109803Y112004D01*
X110000D01*
X110197D01*
X110583Y111927D01*
X110947Y111776D01*
X111275Y111557D01*
X111553Y111279D01*
X111772Y110951D01*
X111923Y110587D01*
X112000Y110201D01*
Y110004D01*
Y109807D01*
X111923Y109420D01*
X111772Y109056D01*
X111553Y108729D01*
X111275Y108450D01*
X110947Y108231D01*
X110583Y108081D01*
X110197Y108004D01*
X110000D01*
D01*
D02*
G37*
G36*
X208000Y110004D02*
Y109807D01*
X208077Y109420D01*
X208228Y109056D01*
X208446Y108729D01*
X208725Y108450D01*
X209053Y108231D01*
X209417Y108081D01*
X209803Y108004D01*
X210000D01*
X210197D01*
X210583Y108081D01*
X210947Y108231D01*
X211275Y108450D01*
X211553Y108729D01*
X211772Y109056D01*
X211923Y109420D01*
X212000Y109807D01*
Y110004D01*
Y110201D01*
X211923Y110587D01*
X211772Y110951D01*
X211553Y111279D01*
X211275Y111557D01*
X210947Y111776D01*
X210583Y111927D01*
X210197Y112004D01*
X210000D01*
X209803D01*
X209417Y111927D01*
X209053Y111776D01*
X208725Y111557D01*
X208446Y111279D01*
X208228Y110951D01*
X208077Y110587D01*
X208000Y110201D01*
Y110004D01*
D01*
D02*
G37*
G36*
X65136Y51881D02*
X54537D01*
X54389D01*
X54099Y51938D01*
X53826Y52052D01*
X53581Y52216D01*
X53372Y52425D01*
X53208Y52670D01*
X53094Y52943D01*
X53037Y53233D01*
Y53529D01*
X53094Y53818D01*
X53208Y54091D01*
X53372Y54337D01*
X53581Y54546D01*
X53826Y54710D01*
X54099Y54823D01*
X54389Y54881D01*
X54537D01*
D01*
X65136D01*
X65284D01*
X65574Y54823D01*
X65847Y54710D01*
X66092Y54546D01*
X66301Y54337D01*
X66465Y54091D01*
X66578Y53818D01*
X66636Y53529D01*
Y53233D01*
X66578Y52943D01*
X66465Y52670D01*
X66301Y52425D01*
X66092Y52216D01*
X65847Y52052D01*
X65574Y51938D01*
X65284Y51881D01*
X65136D01*
D01*
D02*
G37*
G36*
X266427Y51384D02*
X255828D01*
X255680D01*
X255390Y51442D01*
X255117Y51555D01*
X254871Y51719D01*
X254662Y51928D01*
X254498Y52174D01*
X254385Y52447D01*
X254328Y52737D01*
Y53032D01*
X254385Y53322D01*
X254498Y53595D01*
X254662Y53841D01*
X254871Y54050D01*
X255117Y54214D01*
X255390Y54327D01*
X255680Y54384D01*
X255828D01*
D01*
X266427D01*
X266574D01*
X266864Y54327D01*
X267137Y54214D01*
X267383Y54050D01*
X267592Y53841D01*
X267756Y53595D01*
X267869Y53322D01*
X267927Y53032D01*
Y52737D01*
X267869Y52447D01*
X267756Y52174D01*
X267592Y51928D01*
X267383Y51719D01*
X267137Y51555D01*
X266864Y51442D01*
X266574Y51384D01*
X266427D01*
D01*
D02*
G37*
G36*
X313000Y110004D02*
Y109807D01*
X313077Y109420D01*
X313228Y109056D01*
X313447Y108729D01*
X313725Y108450D01*
X314053Y108231D01*
X314417Y108081D01*
X314803Y108004D01*
X315000D01*
X315197D01*
X315583Y108081D01*
X315947Y108231D01*
X316275Y108450D01*
X316553Y108729D01*
X316772Y109056D01*
X316923Y109420D01*
X317000Y109807D01*
Y110004D01*
Y110201D01*
X316923Y110587D01*
X316772Y110951D01*
X316553Y111279D01*
X316275Y111557D01*
X315947Y111776D01*
X315583Y111927D01*
X315197Y112004D01*
X315000D01*
X314803D01*
X314417Y111927D01*
X314053Y111776D01*
X313725Y111557D01*
X313447Y111279D01*
X313228Y110951D01*
X313077Y110587D01*
X313000Y110201D01*
Y110004D01*
D01*
D02*
G37*
G36*
X5000Y108004D02*
X4803D01*
X4417Y108081D01*
X4053Y108231D01*
X3725Y108450D01*
X3447Y108729D01*
X3228Y109056D01*
X3077Y109420D01*
X3000Y109807D01*
Y110004D01*
Y110201D01*
X3077Y110587D01*
X3228Y110951D01*
X3447Y111279D01*
X3725Y111557D01*
X4053Y111776D01*
X4417Y111927D01*
X4803Y112004D01*
X5000D01*
X5197D01*
X5583Y111927D01*
X5947Y111776D01*
X6275Y111557D01*
X6554Y111279D01*
X6772Y110951D01*
X6923Y110587D01*
X7000Y110201D01*
Y110004D01*
Y109807D01*
X6923Y109420D01*
X6772Y109056D01*
X6554Y108729D01*
X6275Y108450D01*
X5947Y108231D01*
X5583Y108081D01*
X5197Y108004D01*
X5000D01*
D01*
D02*
G37*
G36*
X165483Y51501D02*
X154883D01*
X154736D01*
X154446Y51558D01*
X154173Y51671D01*
X153927Y51835D01*
X153718Y52044D01*
X153554Y52290D01*
X153441Y52563D01*
X153383Y52853D01*
Y53148D01*
X153441Y53438D01*
X153554Y53711D01*
X153718Y53957D01*
X153927Y54166D01*
X154173Y54330D01*
X154446Y54443D01*
X154736Y54501D01*
X154883D01*
D01*
X165483D01*
X165630D01*
X165920Y54443D01*
X166193Y54330D01*
X166439Y54166D01*
X166648Y53957D01*
X166812Y53711D01*
X166925Y53438D01*
X166983Y53148D01*
Y52853D01*
X166925Y52563D01*
X166812Y52290D01*
X166648Y52044D01*
X166439Y51835D01*
X166193Y51671D01*
X165920Y51558D01*
X165630Y51501D01*
X165483D01*
D01*
D02*
G37*
D118*
X0Y5000D02*
X-0Y175004D01*
D02*
G02*
X5000Y180004I5000J-0D01*
G01*
Y180011D01*
X315000Y180011D01*
Y180004D01*
D02*
G02*
X320000Y175004I0J-5000D01*
G01*
X319999D01*
X319999Y5000D01*
X320000D01*
D02*
G02*
X315000Y0I-5000J0D01*
G01*
X5000D01*
D02*
G02*
X0Y5000I0J5000D01*
G01*
%TF.MD5,15e88de657f0a83551d33ee0442c48aa*%
M02*
