%TF.GenerationSoftware,Altium Limited,Altium Designer,26.1.1 (7)*%
G04 Layer_Physical_Order=1*
G04 Layer_Color=255*
%FSLAX43Y43*%
%MOMM*%
%TF.SameCoordinates,F910D8A4-5627-44EB-A571-6FFAAA827985*%
%TF.FilePolarity,Positive*%
%TF.FileFunction,Copper,L1,Top,Signal*%
%TF.Part,Single*%
G01*
G75*
%TA.AperFunction,SMDPad,CuDef*%
%ADD10R,4.000X2.000*%
%ADD11R,9.500X3.750*%
%ADD12R,0.800X1.250*%
%ADD13R,1.250X0.800*%
%ADD14R,1.100X1.200*%
%ADD15R,2.000X4.000*%
G04:AMPARAMS|DCode=16|XSize=1.65mm|YSize=0.6mm|CornerRadius=0.051mm|HoleSize=0mm|Usage=FLASHONLY|Rotation=90.000|XOffset=0mm|YOffset=0mm|HoleType=Round|Shape=RoundedRectangle|*
%AMROUNDEDRECTD16*
21,1,1.650,0.498,0,0,90.0*
21,1,1.548,0.600,0,0,90.0*
1,1,0.102,0.249,0.774*
1,1,0.102,0.249,-0.774*
1,1,0.102,-0.249,-0.774*
1,1,0.102,-0.249,0.774*
%
%ADD16ROUNDEDRECTD16*%
%ADD17R,7.500X3.000*%
%ADD18R,1.200X1.100*%
%TA.AperFunction,Conductor*%
%ADD19C,0.300*%
%ADD20C,1.000*%
%ADD21C,0.360*%
%ADD22C,0.500*%
%ADD23C,2.000*%
%ADD24C,0.800*%
%ADD25C,0.400*%
%ADD26C,0.600*%
%TA.AperFunction,ComponentPad*%
%ADD27O,1.800X1.500*%
%ADD28C,1.800*%
%ADD29C,2.000*%
%ADD30C,3.550*%
%ADD31R,1.550X1.550*%
%ADD32C,1.550*%
%ADD33O,2.700X1.750*%
%ADD34C,3.700*%
%ADD35C,1.500*%
%ADD36R,1.500X1.500*%
%ADD37C,1.200*%
%ADD38C,1.524*%
%ADD39O,6.000X6.600*%
%ADD40C,2.500*%
%ADD41C,2.550*%
G04:AMPARAMS|DCode=42|XSize=2.55mm|YSize=2.55mm|CornerRadius=0.638mm|HoleSize=0mm|Usage=FLASHONLY|Rotation=0.000|XOffset=0mm|YOffset=0mm|HoleType=Round|Shape=RoundedRectangle|*
%AMROUNDEDRECTD42*
21,1,2.550,1.275,0,0,0.0*
21,1,1.275,2.550,0,0,0.0*
1,1,1.275,0.638,-0.638*
1,1,1.275,-0.638,-0.638*
1,1,1.275,-0.638,0.638*
1,1,1.275,0.638,0.638*
%
%ADD42ROUNDEDRECTD42*%
G04:AMPARAMS|DCode=43|XSize=2.55mm|YSize=2.55mm|CornerRadius=0.638mm|HoleSize=0mm|Usage=FLASHONLY|Rotation=270.000|XOffset=0mm|YOffset=0mm|HoleType=Round|Shape=RoundedRectangle|*
%AMROUNDEDRECTD43*
21,1,2.550,1.275,0,0,270.0*
21,1,1.275,2.550,0,0,270.0*
1,1,1.275,-0.638,-0.638*
1,1,1.275,-0.638,0.638*
1,1,1.275,0.638,0.638*
1,1,1.275,0.638,-0.638*
%
%ADD43ROUNDEDRECTD43*%
%ADD44O,1.905X2.159*%
G04:AMPARAMS|DCode=45|XSize=1.905mm|YSize=2.159mm|CornerRadius=0.476mm|HoleSize=0mm|Usage=FLASHONLY|Rotation=0.000|XOffset=0mm|YOffset=0mm|HoleType=Round|Shape=RoundedRectangle|*
%AMROUNDEDRECTD45*
21,1,1.905,1.206,0,0,0.0*
21,1,0.953,2.159,0,0,0.0*
1,1,0.953,0.476,-0.603*
1,1,0.953,-0.476,-0.603*
1,1,0.953,-0.476,0.603*
1,1,0.953,0.476,0.603*
%
%ADD45ROUNDEDRECTD45*%
%ADD46O,3.302X4.572*%
%ADD47O,2.500X1.500*%
%ADD48R,1.550X1.550*%
%TA.AperFunction,ViaPad*%
%ADD49C,0.600*%
%ADD50C,0.800*%
%ADD51C,1.270*%
%ADD52C,1.000*%
%ADD53C,9.000*%
%ADD54C,2.000*%
%ADD55C,0.700*%
G36*
X319999Y180003D02*
Y176704D01*
X319889Y177029D01*
X319582Y177649D01*
X319198Y178225D01*
X318742Y178745D01*
X318221Y179202D01*
X317646Y179586D01*
X317025Y179892D01*
X316700Y180003D01*
X319999Y180003D01*
D02*
G37*
G36*
X30250Y174840D02*
Y135004D01*
X24250D01*
X285Y135004D01*
X285Y174877D01*
X412Y175004D01*
X581D01*
X585Y175000D01*
X625Y174692D01*
X744Y174405D01*
X933Y174158D01*
X1180Y173969D01*
X1467Y173850D01*
X1775Y173810D01*
X2961D01*
X3009Y173692D01*
X2358Y173042D01*
X2169Y172795D01*
X2050Y172508D01*
X2010Y172200D01*
X2050Y171892D01*
X2169Y171605D01*
X2358Y171358D01*
X2605Y171169D01*
X2892Y171050D01*
X3200Y171010D01*
X3508Y171050D01*
X3795Y171169D01*
X4042Y171358D01*
X4883Y172199D01*
X5000Y172151D01*
Y165681D01*
X11506Y159175D01*
X22472D01*
X24250Y160953D01*
Y174840D01*
X27250Y177840D01*
X30250Y174840D01*
D02*
G37*
G36*
X314962Y179726D02*
X315000Y179718D01*
Y179721D01*
X315616Y179681D01*
X316221Y179560D01*
X316805Y179362D01*
X317359Y179089D01*
X317872Y178746D01*
X318336Y178340D01*
X318743Y177876D01*
X319085Y177363D01*
X319358Y176809D01*
X319557Y176225D01*
X319677Y175620D01*
X319716Y175019D01*
X319713Y175004D01*
X319713Y135004D01*
X297550D01*
Y149175D01*
X271700Y175025D01*
X248250D01*
X232150Y158925D01*
X187975D01*
X171875Y175025D01*
X148000D01*
X131900Y158925D01*
X117794Y158925D01*
X96993Y179726D01*
X314962Y179726D01*
D02*
G37*
G36*
X191775Y145895D02*
X191775Y130369D01*
X189097D01*
X186461Y133005D01*
X173761D01*
X171126Y130369D01*
X168726D01*
X166272Y132823D01*
X158949D01*
X156495Y130369D01*
X154172D01*
X151506Y133035D01*
X139193D01*
X136528Y130369D01*
X133559D01*
X133559Y151229D01*
X155174Y172844D01*
X164826D01*
X191775Y145895D01*
D02*
G37*
G36*
X291775Y145895D02*
X291775Y130369D01*
X288894D01*
X286258Y133005D01*
X273634D01*
X270998Y130369D01*
X268726D01*
X266272Y132823D01*
X259563D01*
X257109Y130369D01*
X254419D01*
X251753Y133035D01*
X239775D01*
X237109Y130369D01*
X233559D01*
X233559Y151229D01*
X255174Y172844D01*
X264826D01*
X291775Y145895D01*
D02*
G37*
G36*
X91775Y144430D02*
X91775Y130369D01*
X89215D01*
X86579Y133005D01*
X73787D01*
X71151Y130369D01*
X68828D01*
X66374Y132823D01*
X59563D01*
X57109Y130369D01*
X54274D01*
X51608Y133035D01*
X42702D01*
X38202Y128534D01*
X33559D01*
Y147412D01*
X58991Y172844D01*
X63361D01*
X91775Y144430D01*
D02*
G37*
G36*
X119967Y149639D02*
Y129801D01*
X122194Y127575D01*
X170770D01*
X174882Y131687D01*
X177848D01*
X181960Y127575D01*
X190765D01*
X196246Y133055D01*
X216254D01*
X221734Y127575D01*
X270815D01*
X275178Y131938D01*
X277922D01*
X282285Y127575D01*
X290765D01*
X295128Y131938D01*
X300033D01*
X300033Y125418D01*
X294115Y119500D01*
X73559Y119500D01*
Y130358D01*
X75334Y132144D01*
X78011D01*
X82580Y127575D01*
X92589D01*
X95326Y130312D01*
Y145827D01*
X66493Y174661D01*
X53645D01*
X39472Y160487D01*
X34036D01*
Y179346D01*
X90260D01*
X119967Y149639D01*
D02*
G37*
G36*
X39475Y82100D02*
Y70150D01*
X23691D01*
X15700Y78141D01*
Y95075D01*
X17575Y96950D01*
X24625D01*
X39475Y82100D01*
D02*
G37*
G36*
X319713Y58204D02*
X306919D01*
X296519Y47803D01*
X292961D01*
X292956Y47808D01*
X283061D01*
X277758Y53111D01*
Y70783D01*
X304725Y97750D01*
X319713D01*
X319713Y58204D01*
D02*
G37*
G36*
X186417Y28540D02*
X186432Y28526D01*
X186485Y28397D01*
X186420Y28240D01*
Y28021D01*
X184033Y25634D01*
X181952D01*
X181799Y25788D01*
X181952Y25941D01*
X183645D01*
X183645Y25941D01*
X183774Y25967D01*
X183883Y26040D01*
X186389Y28546D01*
X186417Y28540D01*
D02*
G37*
G36*
X179859Y27240D02*
X180015Y27085D01*
Y24134D01*
X180015Y24134D01*
X180040Y24005D01*
X180113Y23896D01*
X183271Y20738D01*
Y20590D01*
X183333Y20438D01*
X183258Y20311D01*
X182434D01*
X179717Y23029D01*
Y27253D01*
X179844Y27278D01*
X179859Y27240D01*
D02*
G37*
G36*
X179033Y28914D02*
X179044Y28908D01*
Y22890D01*
X179044Y22890D01*
X179069Y22761D01*
X179142Y22652D01*
X182057Y19737D01*
X182057Y19737D01*
X182166Y19664D01*
X182295Y19639D01*
X184205D01*
X184244Y19586D01*
X184180Y19459D01*
X181361D01*
X180805Y20015D01*
Y20555D01*
X179195D01*
Y20555D01*
X179123D01*
X178909Y20467D01*
X178905Y20462D01*
X178788Y20511D01*
Y28817D01*
X178917Y28946D01*
X179033Y28914D01*
D02*
G37*
G36*
X7550Y125000D02*
X12350Y120200D01*
Y116839D01*
X12341Y116818D01*
X12297Y116484D01*
X12341Y116149D01*
X12350Y116128D01*
Y98750D01*
X11100Y97500D01*
X11100Y79592D01*
X11189Y79503D01*
Y78768D01*
X8015Y75594D01*
X7906Y75452D01*
X7838Y75287D01*
X7814Y75109D01*
Y66539D01*
Y53053D01*
X7838Y52876D01*
X7906Y52710D01*
X8015Y52568D01*
X10610Y49973D01*
X10545Y49730D01*
Y49347D01*
X10644Y48977D01*
X10836Y48645D01*
X11107Y48375D01*
X11314Y48255D01*
Y35676D01*
X11020Y35506D01*
X10754Y35240D01*
X10565Y34914D01*
X10468Y34550D01*
Y34173D01*
X10565Y33810D01*
X10754Y33484D01*
X11020Y33217D01*
X11346Y33029D01*
X11710Y32932D01*
X12086D01*
X12450Y33029D01*
X12776Y33217D01*
X13042Y33484D01*
X13230Y33810D01*
X13328Y34173D01*
Y34550D01*
X13230Y34914D01*
X13042Y35240D01*
X12776Y35506D01*
X12686Y35558D01*
Y48255D01*
X12893Y48375D01*
X13164Y48645D01*
X13356Y48977D01*
X13455Y49347D01*
Y49730D01*
X13356Y50100D01*
X13164Y50432D01*
X12893Y50703D01*
X12562Y50895D01*
X12192Y50994D01*
X11808D01*
X11588Y50935D01*
X9186Y53337D01*
Y65853D01*
X10716D01*
X10836Y65645D01*
X11107Y65375D01*
X11438Y65183D01*
X11808Y65084D01*
X12192D01*
X12562Y65183D01*
X12893Y65375D01*
X13164Y65645D01*
X13356Y65977D01*
X13455Y66347D01*
Y66730D01*
X13356Y67100D01*
X13164Y67432D01*
X12893Y67703D01*
X12562Y67895D01*
X12192Y67994D01*
X11808D01*
X11438Y67895D01*
X11107Y67703D01*
X10836Y67432D01*
X10716Y67225D01*
X9186D01*
Y74825D01*
X12360Y77999D01*
X12427Y78086D01*
X12582Y78110D01*
X21532Y69160D01*
X25020D01*
X25072Y69033D01*
X25011Y68971D01*
X24885Y68754D01*
X24820Y68511D01*
Y68259D01*
X24885Y68016D01*
X25011Y67799D01*
X25189Y67621D01*
X25406Y67495D01*
X25649Y67430D01*
X25901D01*
X26144Y67495D01*
X26361Y67621D01*
X26539Y67799D01*
X26665Y68016D01*
X26730Y68259D01*
Y68511D01*
X26665Y68754D01*
X26539Y68971D01*
X26478Y69033D01*
X26530Y69160D01*
X33346Y69160D01*
X40750Y61756D01*
X50625Y51881D01*
X53567D01*
X53852Y51728D01*
X54188Y51627D01*
X54537Y51592D01*
Y51592D01*
X54540Y51595D01*
X65136D01*
Y51592D01*
X65485Y51627D01*
X65820Y51728D01*
X66106Y51881D01*
X68006D01*
X99900Y83775D01*
X119725D01*
X151999Y51501D01*
X153914D01*
X154199Y51348D01*
X154534Y51246D01*
X154883Y51212D01*
Y51212D01*
X154886Y51215D01*
X165483D01*
Y51212D01*
X165832Y51246D01*
X166167Y51348D01*
X166452Y51501D01*
X167351D01*
X199625Y83775D01*
X219535D01*
X251925Y51384D01*
X254858D01*
X255143Y51232D01*
X255479Y51130D01*
X255828Y51096D01*
Y51096D01*
X255830Y51099D01*
X266427D01*
Y51096D01*
X266776Y51130D01*
X267111Y51232D01*
X267396Y51384D01*
X272801D01*
X272850Y51267D01*
X272413Y50831D01*
X272304Y50689D01*
X272236Y50523D01*
X272213Y50346D01*
Y30905D01*
X268995D01*
Y26795D01*
X278855D01*
Y30905D01*
X273584D01*
Y50062D01*
X274662Y51139D01*
X274955D01*
X275000Y51133D01*
X275349D01*
X280930Y45553D01*
X281072Y45444D01*
X281237Y45375D01*
X281415Y45352D01*
X292296D01*
X292374Y45274D01*
X292592Y45148D01*
X292835Y45083D01*
X293086D01*
X293329Y45148D01*
X293547Y45274D01*
X293725Y45452D01*
X293851Y45669D01*
X293916Y45912D01*
Y46038D01*
X297663D01*
X306000Y54375D01*
X319713D01*
X319713Y7012D01*
X319589Y6988D01*
X319494Y7216D01*
X319166Y7784D01*
X318767Y8304D01*
X318304Y8767D01*
X317784Y9166D01*
X317216Y9494D01*
X316611Y9745D01*
X315978Y9914D01*
X315328Y10000D01*
X314672D01*
X314022Y9914D01*
X313389Y9745D01*
X312784Y9494D01*
X312216Y9166D01*
X311696Y8767D01*
X311233Y8304D01*
X310834Y7784D01*
X310506Y7216D01*
X310255Y6611D01*
X310086Y5978D01*
X310000Y5328D01*
Y4672D01*
X310086Y4022D01*
X310255Y3389D01*
X310506Y2784D01*
X310834Y2216D01*
X311233Y1696D01*
X311696Y1233D01*
X312216Y834D01*
X312784Y506D01*
X313015Y410D01*
X312991Y285D01*
X279666Y285D01*
X279613Y412D01*
X292646Y13445D01*
X292718Y13404D01*
X292993Y13330D01*
X293277D01*
X293552Y13404D01*
X293798Y13546D01*
X293999Y13747D01*
X294141Y13993D01*
X294215Y14268D01*
Y14552D01*
X294141Y14827D01*
X293999Y15073D01*
X293798Y15274D01*
X293552Y15417D01*
X293277Y15490D01*
X292993D01*
X292718Y15417D01*
X292472Y15274D01*
X292271Y15073D01*
X292128Y14827D01*
X292055Y14552D01*
Y14268D01*
X292128Y13993D01*
X292170Y13921D01*
X279110Y861D01*
X192364D01*
X188788Y4438D01*
X188679Y4511D01*
X188550Y4536D01*
X188550Y4536D01*
X182937D01*
X182937Y4537D01*
X183005Y4664D01*
X193150D01*
X195350Y2463D01*
X195350Y2463D01*
X195459Y2391D01*
X195588Y2365D01*
X195588Y2365D01*
X198106D01*
X198106Y2365D01*
X198235Y2391D01*
X198344Y2463D01*
X205544Y9664D01*
X282841D01*
X282841Y9664D01*
X282970Y9689D01*
X283079Y9762D01*
X292696Y19379D01*
X292768Y19337D01*
X293043Y19264D01*
X293327D01*
X293602Y19337D01*
X293848Y19479D01*
X294049Y19681D01*
X294191Y19927D01*
X294265Y20201D01*
Y20486D01*
X294191Y20761D01*
X294049Y21007D01*
X293848Y21208D01*
X293602Y21350D01*
X293327Y21424D01*
X293043D01*
X292768Y21350D01*
X292522Y21208D01*
X292321Y21007D01*
X292178Y20761D01*
X292105Y20486D01*
Y20201D01*
X292178Y19927D01*
X292220Y19855D01*
X282702Y10336D01*
X205405D01*
X205405Y10336D01*
X205276Y10311D01*
X205167Y10238D01*
X205167Y10238D01*
X197967Y3038D01*
X195727D01*
X193529Y5237D01*
X193529Y5242D01*
X193568Y5364D01*
X195799D01*
X195842Y5237D01*
X195812Y5213D01*
X195663Y5019D01*
X195569Y4793D01*
X195537Y4550D01*
X195569Y4307D01*
X195663Y4081D01*
X195812Y3887D01*
X196006Y3738D01*
X196232Y3644D01*
X196475Y3612D01*
X197475D01*
X197718Y3644D01*
X197944Y3738D01*
X198138Y3887D01*
X198287Y4081D01*
X198381Y4307D01*
X198413Y4550D01*
X198381Y4793D01*
X198287Y5019D01*
X198138Y5213D01*
X197944Y5362D01*
X197718Y5456D01*
X197475Y5488D01*
X196593D01*
X196541Y5615D01*
X201489Y10564D01*
X279725D01*
X279725Y10564D01*
X279854Y10589D01*
X279963Y10662D01*
X293310Y24009D01*
X293310Y24009D01*
X293383Y24119D01*
X293409Y24247D01*
Y29026D01*
X293489Y29047D01*
X293735Y29189D01*
X293937Y29390D01*
X294079Y29637D01*
X294152Y29911D01*
Y30196D01*
X294079Y30470D01*
X293937Y30717D01*
X293735Y30918D01*
X293489Y31060D01*
X293215Y31134D01*
X292930D01*
X292655Y31060D01*
X292409Y30918D01*
X292208Y30717D01*
X292066Y30470D01*
X291992Y30196D01*
Y29911D01*
X292066Y29637D01*
X292208Y29390D01*
X292409Y29189D01*
X292655Y29047D01*
X292736Y29026D01*
Y24387D01*
X279586Y11236D01*
X231033D01*
X230994Y11363D01*
X231067Y11412D01*
X234824Y15169D01*
X234858Y15143D01*
X235115Y15037D01*
X235390Y15001D01*
X236340D01*
X236615Y15037D01*
X236872Y15143D01*
X237092Y15313D01*
X237262Y15533D01*
X237368Y15790D01*
X237404Y16065D01*
X237368Y16340D01*
X237262Y16597D01*
X237092Y16817D01*
X237035Y16862D01*
X237078Y16989D01*
X239600D01*
X239600Y16989D01*
X239729Y17014D01*
X239838Y17087D01*
X251692Y28941D01*
X257518D01*
X257674Y28786D01*
X257887Y28698D01*
X258117D01*
X258331Y28786D01*
X258494Y28949D01*
X258582Y29162D01*
Y29393D01*
X258494Y29606D01*
X258331Y29769D01*
X258117Y29858D01*
X257887D01*
X257674Y29769D01*
X257518Y29614D01*
X251553D01*
X251424Y29588D01*
X251315Y29515D01*
X251315Y29515D01*
X239461Y17661D01*
X237052D01*
X237009Y17788D01*
X237092Y17853D01*
X237262Y18073D01*
X237368Y18330D01*
X237404Y18605D01*
X237368Y18880D01*
X237262Y19137D01*
X237092Y19357D01*
X236872Y19527D01*
X236615Y19633D01*
X236340Y19669D01*
X235390D01*
X235115Y19633D01*
X234858Y19527D01*
X234638Y19357D01*
X234468Y19137D01*
X234377Y18916D01*
X229501D01*
X229420Y19112D01*
X229251Y19332D01*
X229031Y19502D01*
X228774Y19608D01*
X228499Y19644D01*
X227549D01*
X227274Y19608D01*
X227017Y19502D01*
X226797Y19332D01*
X226627Y19112D01*
X226575Y18986D01*
X213880D01*
X213751Y18961D01*
X213642Y18888D01*
X213642Y18888D01*
X212459Y17705D01*
X212240D01*
X212026Y17617D01*
X211863Y17454D01*
X211775Y17240D01*
Y17010D01*
X211863Y16796D01*
X211997Y16663D01*
X211955Y16536D01*
X211175D01*
X211133Y16663D01*
X211267Y16796D01*
X211355Y17010D01*
Y17240D01*
X211267Y17454D01*
X211104Y17617D01*
X211096Y17620D01*
Y22892D01*
X211252Y23047D01*
X211340Y23260D01*
Y23491D01*
X211252Y23704D01*
X211089Y23867D01*
X210875Y23955D01*
X210645D01*
X210431Y23867D01*
X210268Y23704D01*
X210180Y23491D01*
Y23260D01*
X210268Y23047D01*
X210424Y22892D01*
Y17594D01*
X210283Y17454D01*
X210195Y17240D01*
Y17010D01*
X210283Y16796D01*
X210417Y16663D01*
X210375Y16536D01*
X204875D01*
X204719Y16691D01*
X204506Y16779D01*
X204275D01*
X204062Y16691D01*
X203899Y16528D01*
X203811Y16315D01*
Y16084D01*
X203899Y15871D01*
X204062Y15708D01*
X204084Y15699D01*
Y15572D01*
X204062Y15563D01*
X203899Y15400D01*
X203811Y15187D01*
Y14956D01*
X203899Y14743D01*
X204062Y14580D01*
X204275Y14491D01*
X204506D01*
X204719Y14580D01*
X204875Y14735D01*
X218021D01*
X218021Y14735D01*
X218150Y14760D01*
X218259Y14833D01*
X218996Y15570D01*
X219215D01*
X219429Y15658D01*
X219592Y15821D01*
X219680Y16035D01*
Y16265D01*
X219592Y16479D01*
X219429Y16642D01*
X219215Y16730D01*
X218985D01*
X218771Y16642D01*
X218608Y16479D01*
X218520Y16265D01*
Y16046D01*
X217882Y15408D01*
X204875D01*
X204719Y15563D01*
X204698Y15572D01*
Y15699D01*
X204719Y15708D01*
X204875Y15863D01*
X216174D01*
X216174Y15863D01*
X216303Y15889D01*
X216412Y15961D01*
X217439Y16989D01*
X226843D01*
X226887Y16862D01*
X226797Y16792D01*
X226627Y16572D01*
X226609Y16526D01*
X221090D01*
X221090Y16526D01*
X220961Y16501D01*
X220852Y16428D01*
X220852Y16428D01*
X218161Y13736D01*
X201125D01*
X201027Y13717D01*
X200953Y13782D01*
X200932Y13818D01*
X200980Y13935D01*
Y14165D01*
X200892Y14379D01*
X200729Y14542D01*
X200515Y14630D01*
X200285D01*
X200071Y14542D01*
X199908Y14379D01*
X199820Y14165D01*
Y13946D01*
X194779Y8905D01*
X185319D01*
X185164Y9060D01*
X184950Y9149D01*
X184720D01*
X184507Y9060D01*
X184343Y8897D01*
X184255Y8684D01*
Y8453D01*
X184343Y8240D01*
X184507Y8077D01*
X184539Y8063D01*
X184514Y7936D01*
X182601D01*
X181167Y9370D01*
X181058Y9443D01*
X180929Y9469D01*
X180929Y9469D01*
X180224D01*
X180069Y9624D01*
X179856Y9712D01*
X179625D01*
X179412Y9624D01*
X179380Y9592D01*
X179263Y9641D01*
Y10399D01*
X179263Y10399D01*
X179237Y10528D01*
X179164Y10637D01*
X179164Y10637D01*
X176508Y13293D01*
Y28812D01*
X176667Y28970D01*
X176755Y29184D01*
Y29414D01*
X176667Y29627D01*
X176504Y29791D01*
X176393Y29837D01*
X176418Y29964D01*
X178204D01*
X178230Y29837D01*
X178121Y29792D01*
X177958Y29629D01*
X177870Y29415D01*
Y29185D01*
X177958Y28971D01*
X178115Y28815D01*
Y16771D01*
X177959Y16616D01*
X177871Y16403D01*
Y16172D01*
X177959Y15959D01*
X178123Y15796D01*
X178336Y15708D01*
X178566D01*
X178780Y15796D01*
X178943Y15959D01*
X179031Y16172D01*
Y16403D01*
X178943Y16616D01*
X178788Y16771D01*
Y19439D01*
X178905Y19488D01*
X178909Y19483D01*
X179123Y19395D01*
X179353D01*
X179353Y19395D01*
X180185D01*
X180824Y18756D01*
X180771Y18629D01*
X180127D01*
Y18102D01*
X180879D01*
Y18552D01*
X181006Y18619D01*
X181012Y18616D01*
X181179Y18582D01*
X182231D01*
Y15641D01*
X179377D01*
X179209Y15608D01*
X179067Y15513D01*
X178616Y15062D01*
X178521Y14920D01*
X178488Y14752D01*
Y14547D01*
X178271D01*
Y12937D01*
X178811D01*
X178958Y12790D01*
X179016Y12651D01*
X179179Y12488D01*
X179392Y12400D01*
X179623D01*
X179836Y12488D01*
X179999Y12651D01*
X180078Y12843D01*
X180197Y12863D01*
X180214Y12863D01*
X180724D01*
Y13615D01*
X180197D01*
Y13162D01*
X180070Y13137D01*
X179999Y13308D01*
X179836Y13472D01*
X179623Y13560D01*
X179440D01*
Y13592D01*
X179431Y13634D01*
Y14547D01*
X179431D01*
X179457Y14663D01*
X179558Y14764D01*
X183442D01*
X183532Y14674D01*
X183490Y14547D01*
X183427D01*
Y12937D01*
X183967D01*
X184525Y12379D01*
X184667Y12284D01*
X184835Y12250D01*
X184912D01*
X185023Y12140D01*
X185236Y12051D01*
X185466D01*
X185680Y12140D01*
X185843Y12303D01*
X185931Y12516D01*
Y12747D01*
X185843Y12960D01*
X185680Y13123D01*
X185466Y13211D01*
X185236D01*
X185033Y13127D01*
X185017D01*
X184587Y13557D01*
Y14547D01*
X184440D01*
Y14825D01*
X184406Y14993D01*
X184311Y15135D01*
X183933Y15513D01*
X183791Y15608D01*
X183623Y15641D01*
X183107D01*
Y18582D01*
X184936D01*
Y18441D01*
X186546D01*
Y18658D01*
X186618D01*
X186831Y18746D01*
X186884Y18800D01*
X188587D01*
X188755Y18833D01*
X188897Y18928D01*
X189998Y20028D01*
X190073D01*
X190286Y20117D01*
X190363Y20193D01*
X191177D01*
Y19899D01*
X192787D01*
Y20415D01*
X195380Y23008D01*
X199962D01*
Y19082D01*
X199908Y19029D01*
X199820Y18815D01*
Y18585D01*
X199908Y18371D01*
X200071Y18208D01*
X200285Y18120D01*
X200515D01*
X200729Y18208D01*
X200892Y18371D01*
X200980Y18585D01*
Y18815D01*
X200892Y19029D01*
X200838Y19082D01*
Y23446D01*
Y29618D01*
X200892Y29671D01*
X200980Y29885D01*
Y30115D01*
X200892Y30329D01*
X200729Y30492D01*
X200515Y30580D01*
X200285D01*
X200071Y30492D01*
X199908Y30329D01*
X199820Y30115D01*
Y29885D01*
X199908Y29671D01*
X199962Y29618D01*
Y23885D01*
X195198D01*
X195031Y23851D01*
X194888Y23756D01*
X192199Y21067D01*
X192132D01*
X192090Y21059D01*
X192025D01*
X191982Y21067D01*
X191326D01*
X191314Y21070D01*
X190317D01*
X190286Y21100D01*
X190073Y21188D01*
X189843D01*
X189629Y21100D01*
X189466Y20937D01*
X189378Y20724D01*
Y20648D01*
X188406Y19676D01*
X186884D01*
X186831Y19730D01*
X186618Y19818D01*
X186387D01*
X186174Y19730D01*
X186054Y19609D01*
X185891D01*
X185848Y19601D01*
X185360D01*
X185275Y19728D01*
X185330Y19860D01*
Y20090D01*
X185242Y20304D01*
X185079Y20467D01*
X184865Y20555D01*
X184635D01*
X184537Y20515D01*
X184484Y20552D01*
X184431Y20608D01*
Y20820D01*
X184342Y21034D01*
X184179Y21197D01*
X183966Y21285D01*
X183735D01*
X183693Y21268D01*
X180688Y24273D01*
Y27083D01*
X180781Y27166D01*
X180919Y27137D01*
X180977Y26999D01*
X181090Y26885D01*
X181126Y26802D01*
X181090Y26719D01*
X180977Y26606D01*
X180888Y26393D01*
Y26162D01*
X180977Y25949D01*
X181138Y25788D01*
X180977Y25626D01*
X180888Y25413D01*
Y25182D01*
X180977Y24969D01*
X181140Y24806D01*
X181353Y24718D01*
X181584D01*
X181797Y24806D01*
X181952Y24961D01*
X184173D01*
X184173Y24961D01*
X184301Y24987D01*
X184411Y25060D01*
X186896Y27545D01*
X187115D01*
X187329Y27633D01*
X187492Y27796D01*
X187580Y28010D01*
Y28240D01*
X187507Y28417D01*
X187614Y28489D01*
X187648Y28455D01*
X187861Y28367D01*
X188092D01*
X188305Y28455D01*
X188468Y28619D01*
X188557Y28832D01*
Y29063D01*
X188468Y29276D01*
X188305Y29439D01*
X188092Y29527D01*
X187861D01*
X187648Y29439D01*
X187493Y29284D01*
X186314D01*
X186314Y29284D01*
X186186Y29258D01*
X186076Y29185D01*
X183505Y26614D01*
X181952D01*
X181847Y26719D01*
X181811Y26802D01*
X181847Y26885D01*
X181960Y26999D01*
X182048Y27212D01*
Y27442D01*
X181960Y27656D01*
X181805Y27811D01*
Y28815D01*
X181960Y28970D01*
X182048Y29184D01*
Y29414D01*
X181960Y29627D01*
X181797Y29791D01*
X181584Y29879D01*
X181353D01*
X181140Y29791D01*
X180977Y29627D01*
X180888Y29414D01*
Y29184D01*
X180977Y28970D01*
X181132Y28815D01*
Y27813D01*
X181038Y27730D01*
X180900Y27759D01*
X180843Y27897D01*
X180680Y28060D01*
X180466Y28148D01*
X180236D01*
X180023Y28060D01*
X179859Y27897D01*
X179844Y27859D01*
X179717Y27884D01*
Y29595D01*
X179717Y29595D01*
X179691Y29724D01*
X179618Y29833D01*
X179618Y29833D01*
X178913Y30538D01*
X178804Y30611D01*
X178823Y30737D01*
X257643D01*
X257671Y30708D01*
X257885Y30620D01*
X258115D01*
X258329Y30708D01*
X258492Y30871D01*
X258580Y31085D01*
Y31315D01*
X258492Y31529D01*
X258329Y31692D01*
X258115Y31780D01*
X257885D01*
X257671Y31692D01*
X257593Y31613D01*
X150950D01*
X150782Y31580D01*
X150640Y31485D01*
X127216Y8061D01*
X126649D01*
X126595Y8114D01*
X126382Y8202D01*
X126151D01*
X125938Y8114D01*
X125775Y7951D01*
X125687Y7738D01*
Y7507D01*
X125775Y7294D01*
X125938Y7131D01*
X126151Y7042D01*
X126382D01*
X126595Y7131D01*
X126649Y7184D01*
X127397D01*
X127565Y7217D01*
X127707Y7312D01*
X151132Y30737D01*
X151250D01*
X151299Y30619D01*
X151283Y30604D01*
X151195Y30390D01*
Y30160D01*
X151283Y29946D01*
X151446Y29783D01*
X151660Y29695D01*
X151890D01*
X152104Y29783D01*
X152267Y29946D01*
X152274Y29964D01*
X174529D01*
X174555Y29837D01*
X174446Y29792D01*
X174283Y29629D01*
X174195Y29415D01*
Y29185D01*
X174283Y28971D01*
X174439Y28816D01*
Y24934D01*
X174283Y24779D01*
X174195Y24565D01*
Y24335D01*
X174283Y24121D01*
X174446Y23958D01*
X174660Y23870D01*
X174890D01*
X175104Y23958D01*
X175267Y24121D01*
X175355Y24335D01*
Y24565D01*
X175267Y24779D01*
X175111Y24934D01*
Y28816D01*
X175267Y28971D01*
X175355Y29185D01*
Y29415D01*
X175267Y29629D01*
X175104Y29792D01*
X174995Y29837D01*
X175021Y29964D01*
X175932D01*
X175957Y29837D01*
X175846Y29791D01*
X175683Y29627D01*
X175595Y29414D01*
Y29184D01*
X175683Y28970D01*
X175836Y28818D01*
Y13153D01*
X175836Y13153D01*
X175861Y13024D01*
X175934Y12915D01*
X178590Y10259D01*
Y10103D01*
X178470Y10076D01*
X178463Y10076D01*
X178301Y10238D01*
X178088Y10326D01*
X177857D01*
X177746Y10280D01*
X176145D01*
Y9295D01*
X176028Y9246D01*
X174966Y10307D01*
Y12148D01*
X175122Y12303D01*
X175210Y12516D01*
Y12747D01*
X175122Y12960D01*
X174959Y13123D01*
X174745Y13211D01*
X174515D01*
X174301Y13123D01*
X174138Y12960D01*
X174050Y12747D01*
Y12516D01*
X174138Y12303D01*
X174294Y12148D01*
Y10168D01*
X174294Y10168D01*
X174319Y10039D01*
X174392Y9930D01*
X175810Y8512D01*
X175810Y8512D01*
X175919Y8439D01*
X175975Y8428D01*
X176057Y8365D01*
X176071Y8289D01*
Y7827D01*
X176950D01*
X177829D01*
Y8045D01*
X177946Y8094D01*
X179328Y6712D01*
X179328Y6712D01*
X179437Y6639D01*
X179566Y6614D01*
X179566Y6614D01*
X196075D01*
X196075Y6614D01*
X196204Y6639D01*
X196313Y6712D01*
X200914Y11314D01*
X201146D01*
X201185Y11187D01*
X201112Y11138D01*
X201112Y11138D01*
X196011Y6036D01*
X181105D01*
X180950Y6192D01*
X180736Y6280D01*
X180506D01*
X180293Y6192D01*
X180129Y6029D01*
X180041Y5815D01*
Y5585D01*
X180129Y5371D01*
X180293Y5208D01*
X180506Y5120D01*
X180736D01*
X180930Y5200D01*
X180991Y5162D01*
X181033Y5116D01*
X181020Y5085D01*
Y4855D01*
X181108Y4641D01*
X181271Y4478D01*
X181485Y4390D01*
X181672D01*
X181752Y4312D01*
X181770Y4275D01*
Y4065D01*
X181833Y3913D01*
X181757Y3786D01*
X128434D01*
X119161Y13059D01*
Y13991D01*
X119317Y14146D01*
X119405Y14360D01*
Y14590D01*
X119317Y14804D01*
X119154Y14967D01*
X118940Y15055D01*
X118710D01*
X118496Y14967D01*
X118333Y14804D01*
X118245Y14590D01*
Y14360D01*
X118333Y14146D01*
X118489Y13991D01*
Y12920D01*
X118489Y12920D01*
X118514Y12791D01*
X118587Y12682D01*
X128057Y3212D01*
X128057Y3212D01*
X128166Y3139D01*
X128295Y3114D01*
X182621D01*
X182776Y2958D01*
X182945Y2888D01*
X182920Y2761D01*
X127930D01*
X117986Y12705D01*
Y17050D01*
X117986Y17050D01*
X117961Y17179D01*
X117888Y17288D01*
X117888Y17288D01*
X106399Y28776D01*
X106290Y28849D01*
X106161Y28875D01*
X106161Y28875D01*
X88880D01*
X88724Y29030D01*
X88511Y29119D01*
X88280D01*
X88067Y29030D01*
X87904Y28867D01*
X87816Y28654D01*
Y28423D01*
X87904Y28210D01*
X88067Y28047D01*
X88280Y27959D01*
X88511D01*
X88724Y28047D01*
X88880Y28202D01*
X106022D01*
X117314Y16911D01*
Y12566D01*
X117314Y12566D01*
X117339Y12437D01*
X117412Y12328D01*
X127553Y2187D01*
X127662Y2114D01*
X127791Y2089D01*
X127791Y2089D01*
X185316D01*
X185471Y1933D01*
X185685Y1845D01*
X185915D01*
X186129Y1933D01*
X186292Y2096D01*
X186380Y2310D01*
Y2540D01*
X186292Y2754D01*
X186129Y2917D01*
X185960Y2987D01*
X185985Y3114D01*
X187541D01*
X187634Y3020D01*
X187684Y2938D01*
X187634Y2855D01*
X187533Y2754D01*
X187445Y2540D01*
Y2364D01*
X186223Y1142D01*
X126937D01*
X126812Y1267D01*
X126599Y1355D01*
X126369D01*
X126155Y1267D01*
X125992Y1104D01*
X125904Y890D01*
Y660D01*
X125992Y446D01*
X126036Y403D01*
X125987Y285D01*
X7009Y285D01*
X6985Y410D01*
X7216Y506D01*
X7784Y834D01*
X8304Y1233D01*
X8767Y1696D01*
X9166Y2216D01*
X9494Y2784D01*
X9745Y3389D01*
X9914Y4022D01*
X10000Y4672D01*
Y5328D01*
X9914Y5978D01*
X9745Y6611D01*
X9494Y7216D01*
X9166Y7784D01*
X8767Y8304D01*
X8304Y8767D01*
X7784Y9166D01*
X7216Y9494D01*
X6611Y9745D01*
X5978Y9914D01*
X5328Y10000D01*
X4672D01*
X4022Y9914D01*
X3389Y9745D01*
X2784Y9494D01*
X2216Y9166D01*
X1696Y8767D01*
X1233Y8304D01*
X834Y7784D01*
X506Y7216D01*
X410Y6984D01*
X285Y7009D01*
X285Y98950D01*
X306D01*
X306Y99006D01*
X9600Y108300D01*
Y117225D01*
X2625Y124200D01*
Y133051D01*
X7550D01*
Y125000D01*
D02*
G37*
G36*
X234468Y18073D02*
X234638Y17853D01*
X234721Y17788D01*
X234678Y17661D01*
X229232D01*
X229192Y17782D01*
X229251Y17828D01*
X229420Y18048D01*
X229501Y18244D01*
X234398D01*
X234468Y18073D01*
D02*
G37*
G36*
X226521Y18305D02*
X226627Y18048D01*
X226797Y17828D01*
X226856Y17782D01*
X226815Y17661D01*
X217300D01*
X217300Y17661D01*
X217171Y17636D01*
X217062Y17563D01*
X217062Y17563D01*
X216035Y16536D01*
X212755D01*
X212713Y16663D01*
X212847Y16796D01*
X212935Y17010D01*
Y17229D01*
X214019Y18314D01*
X226520D01*
X226521Y18305D01*
D02*
G37*
G36*
X234695Y16862D02*
X234638Y16817D01*
X234468Y16597D01*
X234362Y16340D01*
X234326Y16065D01*
X234362Y15790D01*
X234400Y15697D01*
X230690Y11986D01*
X200775D01*
X200646Y11961D01*
X200537Y11888D01*
X200537Y11888D01*
X195936Y7286D01*
X195667D01*
X195614Y7413D01*
X201264Y13064D01*
X218300D01*
X218300Y13064D01*
X218429Y13089D01*
X218538Y13162D01*
X221229Y15854D01*
X226509D01*
X226521Y15765D01*
X226627Y15508D01*
X226797Y15288D01*
X227017Y15118D01*
X227274Y15012D01*
X227549Y14976D01*
X228499D01*
X228774Y15012D01*
X229031Y15118D01*
X229251Y15288D01*
X229420Y15508D01*
X229527Y15765D01*
X229563Y16040D01*
X229527Y16315D01*
X229420Y16572D01*
X229251Y16792D01*
X229161Y16862D01*
X229204Y16989D01*
X234652D01*
X234695Y16862D01*
D02*
G37*
G36*
X200629Y13379D02*
X195186Y7936D01*
X185156D01*
X185131Y8063D01*
X185164Y8077D01*
X185319Y8232D01*
X194919D01*
X194919Y8232D01*
X195048Y8258D01*
X195157Y8331D01*
X200296Y13470D01*
X200515D01*
X200557Y13487D01*
X200629Y13379D01*
D02*
G37*
G36*
X182172Y7413D02*
X182120Y7286D01*
X179705D01*
X179589Y7403D01*
X179602Y7445D01*
X179651Y7520D01*
X179856D01*
X180069Y7608D01*
X180232Y7771D01*
X180321Y7985D01*
Y8215D01*
X180232Y8429D01*
X180128Y8533D01*
X180082Y8616D01*
X180128Y8699D01*
X180224Y8796D01*
X180790D01*
X182172Y7413D01*
D02*
G37*
G36*
X191862Y412D02*
X191809Y285D01*
X186410D01*
X186398Y412D01*
X186515Y436D01*
X186635Y515D01*
X187964Y1845D01*
X188140D01*
X188354Y1933D01*
X188517Y2096D01*
X188605Y2310D01*
Y2540D01*
X188517Y2754D01*
X188416Y2855D01*
X188366Y2938D01*
X188416Y3020D01*
X188517Y3121D01*
X188605Y3335D01*
Y3490D01*
X188732Y3542D01*
X191862Y412D01*
D02*
G37*
G36*
X418Y2354D02*
X802Y1779D01*
X1258Y1258D01*
X1779Y802D01*
X2354Y418D01*
X2943Y127D01*
X2914Y0D01*
X-0D01*
Y2914D01*
X127Y2944D01*
X418Y2354D01*
D02*
G37*
G36*
X319895Y2701D02*
Y127D01*
X319839Y0D01*
X317086D01*
X317056Y127D01*
X317646Y418D01*
X318221Y802D01*
X318742Y1258D01*
X319198Y1779D01*
X319582Y2354D01*
X319768Y2731D01*
X319895Y2701D01*
D02*
G37*
%LPC*%
G36*
X20215Y151906D02*
X19785D01*
X19364Y151822D01*
X18967Y151658D01*
X18610Y151419D01*
X18307Y151116D01*
X18068Y150759D01*
X17904Y150362D01*
X17820Y149941D01*
Y149511D01*
X17904Y149090D01*
X18068Y148693D01*
X18307Y148336D01*
X18610Y148033D01*
X18967Y147794D01*
X19364Y147630D01*
X19785Y147546D01*
X20215D01*
X20636Y147630D01*
X21033Y147794D01*
X21390Y148033D01*
X21693Y148336D01*
X21932Y148693D01*
X22096Y149090D01*
X22180Y149511D01*
Y149941D01*
X22096Y150362D01*
X21932Y150759D01*
X21693Y151116D01*
X21390Y151419D01*
X21033Y151658D01*
X20636Y151822D01*
X20215Y151906D01*
D02*
G37*
G36*
Y141156D02*
X19785D01*
X19364Y141072D01*
X18967Y140908D01*
X18610Y140669D01*
X18307Y140366D01*
X18068Y140009D01*
X17904Y139612D01*
X17820Y139191D01*
Y138761D01*
X17904Y138340D01*
X18068Y137943D01*
X18307Y137586D01*
X18610Y137283D01*
X18967Y137044D01*
X19364Y136880D01*
X19785Y136796D01*
X20215D01*
X20636Y136880D01*
X21033Y137044D01*
X21390Y137283D01*
X21693Y137586D01*
X21932Y137943D01*
X22096Y138340D01*
X22180Y138761D01*
Y139191D01*
X22096Y139612D01*
X21932Y140009D01*
X21693Y140366D01*
X21390Y140669D01*
X21033Y140908D01*
X20636Y141072D01*
X20215Y141156D01*
D02*
G37*
G36*
X300215Y152184D02*
X299785D01*
X299364Y152100D01*
X298967Y151936D01*
X298610Y151697D01*
X298307Y151393D01*
X298068Y151036D01*
X297904Y150640D01*
X297820Y150219D01*
Y149789D01*
X297904Y149368D01*
X298068Y148971D01*
X298307Y148614D01*
X298610Y148310D01*
X298967Y148072D01*
X299364Y147908D01*
X299785Y147824D01*
X300215D01*
X300636Y147908D01*
X301033Y148072D01*
X301390Y148310D01*
X301693Y148614D01*
X301932Y148971D01*
X302096Y149368D01*
X302180Y149789D01*
Y150219D01*
X302096Y150640D01*
X301932Y151036D01*
X301693Y151393D01*
X301390Y151697D01*
X301033Y151936D01*
X300636Y152100D01*
X300215Y152184D01*
D02*
G37*
G36*
Y142184D02*
X299785D01*
X299364Y142100D01*
X298967Y141936D01*
X298610Y141697D01*
X298307Y141393D01*
X298068Y141036D01*
X297904Y140640D01*
X297820Y140219D01*
Y139789D01*
X297904Y139368D01*
X298068Y138971D01*
X298307Y138614D01*
X298610Y138310D01*
X298967Y138072D01*
X299364Y137908D01*
X299785Y137824D01*
X300215D01*
X300636Y137908D01*
X301033Y138072D01*
X301390Y138310D01*
X301693Y138614D01*
X301932Y138971D01*
X302096Y139368D01*
X302180Y139789D01*
Y140219D01*
X302096Y140640D01*
X301932Y141036D01*
X301693Y141393D01*
X301390Y141697D01*
X301033Y141936D01*
X300636Y142100D01*
X300215Y142184D01*
D02*
G37*
G36*
X160229Y153504D02*
X159771D01*
X159316Y153444D01*
X158873Y153325D01*
X158449Y153150D01*
X158051Y152920D01*
X157687Y152641D01*
X157363Y152316D01*
X157084Y151952D01*
X156854Y151555D01*
X156679Y151131D01*
X156560Y150688D01*
X156500Y150233D01*
Y150004D01*
Y149774D01*
X156560Y149320D01*
X156679Y148876D01*
X156854Y148452D01*
X157084Y148055D01*
X157363Y147691D01*
X157687Y147367D01*
X158051Y147087D01*
X158449Y146858D01*
X158873Y146682D01*
X159316Y146564D01*
X159771Y146504D01*
X160229D01*
X160684Y146564D01*
X161127Y146682D01*
X161551Y146858D01*
X161949Y147087D01*
X162313Y147367D01*
X162637Y147691D01*
X162916Y148055D01*
X163146Y148452D01*
X163321Y148876D01*
X163440Y149320D01*
X163500Y149774D01*
Y150004D01*
Y150233D01*
X163440Y150688D01*
X163321Y151131D01*
X163146Y151555D01*
X162916Y151952D01*
X162637Y152316D01*
X162313Y152641D01*
X161949Y152920D01*
X161551Y153150D01*
X161127Y153325D01*
X160684Y153444D01*
X160229Y153504D01*
D02*
G37*
G36*
X160256Y143581D02*
X159797D01*
X159342Y143521D01*
X158899Y143402D01*
X158475Y143226D01*
X158078Y142997D01*
X157714Y142718D01*
X157390Y142393D01*
X157110Y142029D01*
X156881Y141632D01*
X156705Y141208D01*
X156587Y140765D01*
X156527Y140310D01*
Y140081D01*
Y139851D01*
X156587Y139396D01*
X156705Y138953D01*
X156881Y138529D01*
X157110Y138132D01*
X157390Y137768D01*
X157714Y137444D01*
X158078Y137164D01*
X158475Y136935D01*
X158899Y136759D01*
X159342Y136641D01*
X159797Y136581D01*
X160256D01*
X160711Y136641D01*
X161154Y136759D01*
X161578Y136935D01*
X161975Y137164D01*
X162339Y137444D01*
X162664Y137768D01*
X162943Y138132D01*
X163173Y138529D01*
X163348Y138953D01*
X163467Y139396D01*
X163527Y139851D01*
Y140081D01*
Y140310D01*
X163467Y140765D01*
X163348Y141208D01*
X163173Y141632D01*
X162943Y142029D01*
X162664Y142393D01*
X162339Y142718D01*
X161975Y142997D01*
X161578Y143226D01*
X161154Y143402D01*
X160711Y143521D01*
X160256Y143581D01*
D02*
G37*
G36*
X37635Y80935D02*
X37258D01*
X36895Y80838D01*
X36568Y80649D01*
X36302Y80383D01*
X36114Y80057D01*
X36016Y79693D01*
Y79317D01*
X36114Y78953D01*
X36302Y78627D01*
X36568Y78361D01*
X36895Y78173D01*
X37258Y78075D01*
X37635D01*
X37998Y78173D01*
X38325Y78361D01*
X38591Y78627D01*
X38779Y78953D01*
X38876Y79317D01*
Y79693D01*
X38779Y80057D01*
X38591Y80383D01*
X38325Y80649D01*
X37998Y80838D01*
X37635Y80935D01*
D02*
G37*
G36*
X32003Y79444D02*
X31627D01*
X31263Y79347D01*
X30937Y79158D01*
X30671Y78892D01*
X30482Y78566D01*
X30385Y78202D01*
Y77826D01*
X30482Y77462D01*
X30671Y77136D01*
X30937Y76870D01*
X31263Y76682D01*
X31627Y76584D01*
X32003D01*
X32367Y76682D01*
X32693Y76870D01*
X32959Y77136D01*
X33148Y77462D01*
X33245Y77826D01*
Y78202D01*
X33148Y78566D01*
X32959Y78892D01*
X32693Y79158D01*
X32367Y79347D01*
X32003Y79444D01*
D02*
G37*
G36*
X25901Y74420D02*
X25649D01*
X25406Y74355D01*
X25189Y74229D01*
X25011Y74051D01*
X24885Y73834D01*
X24820Y73591D01*
Y73339D01*
X24885Y73096D01*
X25011Y72879D01*
X25189Y72701D01*
X25406Y72575D01*
X25649Y72510D01*
X25901D01*
X26144Y72575D01*
X26361Y72701D01*
X26539Y72879D01*
X26665Y73096D01*
X26730Y73339D01*
Y73591D01*
X26665Y73834D01*
X26539Y74051D01*
X26361Y74229D01*
X26144Y74355D01*
X25901Y74420D01*
D02*
G37*
G36*
X309667Y96535D02*
X309283D01*
X308913Y96436D01*
X308582Y96244D01*
X308311Y95973D01*
X308119Y95642D01*
X308020Y95272D01*
Y94888D01*
X308119Y94518D01*
X308311Y94187D01*
X308582Y93916D01*
X308913Y93724D01*
X309283Y93625D01*
X309667D01*
X310037Y93724D01*
X310368Y93916D01*
X310639Y94187D01*
X310831Y94518D01*
X310930Y94888D01*
Y95272D01*
X310831Y95642D01*
X310639Y95973D01*
X310368Y96244D01*
X310037Y96436D01*
X309667Y96535D01*
D02*
G37*
G36*
X309725Y91556D02*
Y90250D01*
X311031D01*
X310989Y90459D01*
X310871Y90746D01*
X310698Y91004D01*
X310479Y91223D01*
X310221Y91396D01*
X309934Y91514D01*
X309725Y91556D01*
D02*
G37*
G36*
X309225Y91556D02*
X309016Y91514D01*
X308729Y91396D01*
X308471Y91223D01*
X308252Y91004D01*
X308079Y90746D01*
X307961Y90459D01*
X307919Y90250D01*
X309225D01*
Y91556D01*
D02*
G37*
G36*
Y89750D02*
X307919D01*
X307961Y89541D01*
X308079Y89254D01*
X308252Y88996D01*
X308471Y88777D01*
X308729Y88604D01*
X309016Y88486D01*
X309225Y88444D01*
Y89750D01*
D02*
G37*
G36*
X311031D02*
X309725D01*
Y88444D01*
X309934Y88486D01*
X310221Y88604D01*
X310479Y88777D01*
X310698Y88996D01*
X310871Y89254D01*
X310989Y89541D01*
X311031Y89750D01*
D02*
G37*
G36*
X310112Y86382D02*
X308837D01*
X308624Y86354D01*
X308425Y86272D01*
X308254Y86141D01*
X308123Y85970D01*
X308041Y85771D01*
X308013Y85558D01*
Y84283D01*
X308041Y84069D01*
X308123Y83870D01*
X308254Y83699D01*
X308425Y83568D01*
X308624Y83486D01*
X308837Y83458D01*
X310112D01*
X310326Y83486D01*
X310525Y83568D01*
X310696Y83699D01*
X310827Y83870D01*
X310909Y84069D01*
X310937Y84283D01*
Y85558D01*
X310909Y85771D01*
X310827Y85970D01*
X310696Y86141D01*
X310525Y86272D01*
X310326Y86354D01*
X310112Y86382D01*
D02*
G37*
G36*
X309667Y71535D02*
X309283D01*
X308913Y71436D01*
X308582Y71244D01*
X308311Y70973D01*
X308119Y70642D01*
X308020Y70272D01*
Y69888D01*
X308119Y69518D01*
X308311Y69187D01*
X308582Y68916D01*
X308913Y68724D01*
X309283Y68625D01*
X309667D01*
X310037Y68724D01*
X310368Y68916D01*
X310639Y69187D01*
X310831Y69518D01*
X310930Y69888D01*
Y70272D01*
X310831Y70642D01*
X310639Y70973D01*
X310368Y71244D01*
X310037Y71436D01*
X309667Y71535D01*
D02*
G37*
G36*
X291923Y70039D02*
X291638D01*
X291364Y69965D01*
X291118Y69823D01*
X290916Y69622D01*
X290774Y69376D01*
X290701Y69101D01*
Y68816D01*
X290774Y68542D01*
X290916Y68296D01*
X291118Y68094D01*
X291364Y67952D01*
X291638Y67879D01*
X291923D01*
X292198Y67952D01*
X292444Y68094D01*
X292645Y68296D01*
X292787Y68542D01*
X292861Y68816D01*
Y69101D01*
X292787Y69376D01*
X292645Y69622D01*
X292444Y69823D01*
X292198Y69965D01*
X291923Y70039D01*
D02*
G37*
G36*
X309725Y66556D02*
Y65250D01*
X311031D01*
X310989Y65459D01*
X310871Y65746D01*
X310698Y66004D01*
X310479Y66223D01*
X310221Y66396D01*
X309934Y66514D01*
X309725Y66556D01*
D02*
G37*
G36*
X309225Y66556D02*
X309016Y66514D01*
X308729Y66396D01*
X308471Y66223D01*
X308252Y66004D01*
X308079Y65746D01*
X307961Y65459D01*
X307919Y65250D01*
X309225D01*
Y66556D01*
D02*
G37*
G36*
Y64750D02*
X307919D01*
X307961Y64541D01*
X308079Y64254D01*
X308252Y63996D01*
X308471Y63777D01*
X308729Y63604D01*
X309016Y63486D01*
X309225Y63444D01*
Y64750D01*
D02*
G37*
G36*
X311031D02*
X309725D01*
Y63444D01*
X309934Y63486D01*
X310221Y63604D01*
X310479Y63777D01*
X310698Y63996D01*
X310871Y64254D01*
X310989Y64541D01*
X311031Y64750D01*
D02*
G37*
G36*
X285291Y67562D02*
X285060D01*
X284847Y67474D01*
X284684Y67311D01*
X284596Y67097D01*
Y67022D01*
X284248Y66674D01*
X284153Y66532D01*
X284119Y66364D01*
Y59749D01*
X284066Y59696D01*
X283978Y59482D01*
Y59252D01*
X284066Y59038D01*
X284229Y58875D01*
X284442Y58787D01*
X284673D01*
X284886Y58875D01*
X285049Y59038D01*
X285138Y59252D01*
Y59482D01*
X285049Y59696D01*
X284996Y59749D01*
Y66182D01*
X285216Y66402D01*
X285291D01*
X285504Y66490D01*
X285667Y66653D01*
X285756Y66867D01*
Y67097D01*
X285667Y67311D01*
X285504Y67474D01*
X285291Y67562D01*
D02*
G37*
G36*
X310112Y61382D02*
X308837D01*
X308624Y61354D01*
X308425Y61272D01*
X308254Y61141D01*
X308123Y60970D01*
X308041Y60771D01*
X308013Y60557D01*
Y59283D01*
X308041Y59069D01*
X308123Y58870D01*
X308254Y58699D01*
X308425Y58568D01*
X308624Y58486D01*
X308837Y58458D01*
X310112D01*
X310326Y58486D01*
X310525Y58568D01*
X310696Y58699D01*
X310827Y58870D01*
X310909Y59069D01*
X310937Y59283D01*
Y60557D01*
X310909Y60771D01*
X310827Y60970D01*
X310696Y61141D01*
X310525Y61272D01*
X310326Y61354D01*
X310112Y61382D01*
D02*
G37*
G36*
X291948Y60447D02*
X291663D01*
X291389Y60373D01*
X291143Y60231D01*
X290941Y60030D01*
X290799Y59784D01*
X290726Y59509D01*
Y59225D01*
X290799Y58950D01*
X290941Y58704D01*
X291143Y58503D01*
X291389Y58360D01*
X291663Y58287D01*
X291948D01*
X292223Y58360D01*
X292469Y58503D01*
X292670Y58704D01*
X292812Y58950D01*
X292886Y59225D01*
Y59509D01*
X292812Y59784D01*
X292670Y60030D01*
X292469Y60231D01*
X292223Y60373D01*
X291948Y60447D01*
D02*
G37*
G36*
X285846Y65852D02*
X285615D01*
X285402Y65764D01*
X285239Y65601D01*
X285151Y65387D01*
Y65157D01*
X285239Y64943D01*
X285292Y64890D01*
Y58796D01*
X284673Y58177D01*
X284520D01*
X284307Y58089D01*
X284144Y57926D01*
X284056Y57712D01*
Y57482D01*
X284144Y57268D01*
X284307Y57105D01*
X284520Y57017D01*
X284751D01*
X284964Y57105D01*
X285127Y57268D01*
X285214Y57477D01*
X286041Y58304D01*
X286136Y58446D01*
X286169Y58614D01*
Y64890D01*
X286222Y64943D01*
X286311Y65157D01*
Y65387D01*
X286222Y65601D01*
X286059Y65764D01*
X285846Y65852D01*
D02*
G37*
G36*
X291948Y56713D02*
X291663D01*
X291389Y56640D01*
X291143Y56497D01*
X290941Y56296D01*
X290799Y56050D01*
X290726Y55775D01*
Y55491D01*
X290799Y55216D01*
X290941Y54970D01*
X291143Y54769D01*
X291389Y54627D01*
X291663Y54553D01*
X291948D01*
X292223Y54627D01*
X292469Y54769D01*
X292670Y54970D01*
X292812Y55216D01*
X292886Y55491D01*
Y55775D01*
X292812Y56050D01*
X292670Y56296D01*
X292469Y56497D01*
X292223Y56640D01*
X291948Y56713D01*
D02*
G37*
G36*
X285538Y73731D02*
X285253D01*
X284979Y73658D01*
X284733Y73515D01*
X284531Y73314D01*
X284389Y73068D01*
X284316Y72793D01*
Y72509D01*
X284389Y72234D01*
X284531Y71988D01*
X284733Y71787D01*
X284979Y71645D01*
X285253Y71571D01*
X285538D01*
X285788Y71638D01*
X288337Y69090D01*
Y64364D01*
X288284Y64311D01*
X288196Y64097D01*
Y63867D01*
X288284Y63653D01*
X288337Y63600D01*
Y57765D01*
X284611Y54038D01*
X283689D01*
X283636Y54092D01*
X283423Y54180D01*
X283192D01*
X282979Y54092D01*
X282816Y53929D01*
X282770Y53819D01*
X282633D01*
X282587Y53929D01*
X282534Y53982D01*
Y61323D01*
X283343Y62132D01*
X283419D01*
X283632Y62220D01*
X283795Y62384D01*
X283883Y62597D01*
Y62828D01*
X283795Y63041D01*
X283632Y63204D01*
X283419Y63292D01*
X283188D01*
X282975Y63204D01*
X282811Y63041D01*
X282723Y62828D01*
Y62752D01*
X281786Y61815D01*
X281691Y61672D01*
X281657Y61505D01*
Y53982D01*
X281604Y53929D01*
X281516Y53715D01*
Y53485D01*
X281604Y53271D01*
X281767Y53108D01*
X281980Y53020D01*
X282211D01*
X282424Y53108D01*
X282587Y53271D01*
X282633Y53381D01*
X282770D01*
X282816Y53271D01*
X282979Y53108D01*
X283192Y53020D01*
X283423D01*
X283636Y53108D01*
X283689Y53162D01*
X284792D01*
X284960Y53195D01*
X285102Y53290D01*
X289086Y57273D01*
X289181Y57415D01*
X289214Y57583D01*
Y63600D01*
X289267Y63653D01*
X289356Y63867D01*
Y64097D01*
X289267Y64311D01*
X289214Y64364D01*
Y69271D01*
X289181Y69439D01*
X289086Y69581D01*
X286408Y72258D01*
X286476Y72509D01*
Y72793D01*
X286402Y73068D01*
X286260Y73314D01*
X286059Y73515D01*
X285812Y73658D01*
X285538Y73731D01*
D02*
G37*
G36*
X293086Y52073D02*
X292835D01*
X292592Y52008D01*
X292374Y51882D01*
X292196Y51704D01*
X292071Y51487D01*
X292006Y51244D01*
Y50992D01*
X292071Y50749D01*
X292196Y50532D01*
X292374Y50354D01*
X292592Y50228D01*
X292835Y50163D01*
X293086D01*
X293329Y50228D01*
X293547Y50354D01*
X293725Y50532D01*
X293851Y50749D01*
X293916Y50992D01*
Y51244D01*
X293851Y51487D01*
X293725Y51704D01*
X293547Y51882D01*
X293329Y52008D01*
X293086Y52073D01*
D02*
G37*
G36*
X5913Y89542D02*
X5536D01*
X5172Y89445D01*
X4846Y89257D01*
X4580Y88990D01*
X4392Y88664D01*
X4294Y88301D01*
Y87924D01*
X4392Y87560D01*
X4580Y87234D01*
X4846Y86968D01*
X5172Y86780D01*
X5286Y86749D01*
Y83304D01*
X5233Y83251D01*
X5144Y83038D01*
Y82807D01*
X5233Y82594D01*
X5396Y82430D01*
X5609Y82342D01*
X5840D01*
X6053Y82430D01*
X6216Y82594D01*
X6304Y82807D01*
Y83038D01*
X6216Y83251D01*
X6163Y83304D01*
Y86749D01*
X6276Y86780D01*
X6602Y86968D01*
X6869Y87234D01*
X7057Y87560D01*
X7154Y87924D01*
Y88301D01*
X7057Y88664D01*
X6869Y88990D01*
X6602Y89257D01*
X6276Y89445D01*
X5913Y89542D01*
D02*
G37*
G36*
X7040Y91705D02*
X6810D01*
X6596Y91617D01*
X6433Y91454D01*
X6345Y91240D01*
Y91010D01*
X6433Y90796D01*
X6596Y90633D01*
X6810Y90545D01*
X6885D01*
X9109Y88321D01*
Y79199D01*
X9056Y79146D01*
X8968Y78932D01*
Y78702D01*
X9056Y78488D01*
X9219Y78325D01*
X9432Y78237D01*
X9663D01*
X9876Y78325D01*
X10040Y78488D01*
X10128Y78702D01*
Y78932D01*
X10040Y79146D01*
X9986Y79199D01*
Y88502D01*
X9953Y88670D01*
X9858Y88812D01*
X7505Y91165D01*
Y91240D01*
X7417Y91454D01*
X7254Y91617D01*
X7040Y91705D01*
D02*
G37*
G36*
X12637Y73404D02*
X12250D01*
Y71869D01*
X13785D01*
Y72256D01*
X13746Y72553D01*
X13631Y72830D01*
X13449Y73068D01*
X13211Y73250D01*
X12934Y73365D01*
X12637Y73404D01*
D02*
G37*
G36*
X11750D02*
X11363D01*
X11066Y73365D01*
X10789Y73250D01*
X10551Y73068D01*
X10369Y72830D01*
X10254Y72553D01*
X10215Y72256D01*
Y71869D01*
X11750D01*
Y73404D01*
D02*
G37*
G36*
X13785Y71369D02*
X12250D01*
Y69834D01*
X12637D01*
X12934Y69873D01*
X13211Y69988D01*
X13449Y70170D01*
X13631Y70408D01*
X13746Y70684D01*
X13785Y70981D01*
Y71369D01*
D02*
G37*
G36*
X11750D02*
X10215D01*
Y70981D01*
X10254Y70684D01*
X10369Y70408D01*
X10551Y70170D01*
X10789Y69988D01*
X11066Y69873D01*
X11363Y69834D01*
X11750D01*
Y71369D01*
D02*
G37*
G36*
X107509Y67060D02*
X106349D01*
Y66744D01*
X105160D01*
Y67034D01*
X103700D01*
Y65474D01*
X105160D01*
Y65765D01*
X106349D01*
Y65450D01*
X107509D01*
Y67060D01*
D02*
G37*
G36*
X103134Y67108D02*
X102457D01*
Y66381D01*
X103134D01*
Y67108D01*
D02*
G37*
G36*
X102203D02*
X101526D01*
Y66381D01*
X102203D01*
Y67108D01*
D02*
G37*
G36*
X26804Y66874D02*
X25902D01*
Y65972D01*
X26804D01*
Y66874D01*
D02*
G37*
G36*
X25648D02*
X24746D01*
Y65972D01*
X25648D01*
Y66874D01*
D02*
G37*
G36*
X103134Y66127D02*
X102457D01*
Y65400D01*
X103134D01*
Y66127D01*
D02*
G37*
G36*
X102203D02*
X101526D01*
Y65400D01*
X102203D01*
Y66127D01*
D02*
G37*
G36*
X26804Y65718D02*
X25902D01*
Y64816D01*
X26804D01*
Y65718D01*
D02*
G37*
G36*
X25648D02*
X24746D01*
Y64816D01*
X25648D01*
Y65718D01*
D02*
G37*
G36*
X107509Y64050D02*
X106349D01*
Y63734D01*
X105160D01*
Y64025D01*
X103700D01*
Y62465D01*
X105160D01*
Y62755D01*
X106349D01*
Y62440D01*
X107509D01*
Y64050D01*
D02*
G37*
G36*
X103134Y64099D02*
X102457D01*
Y63372D01*
X103134D01*
Y64099D01*
D02*
G37*
G36*
X102203D02*
X101526D01*
Y63372D01*
X102203D01*
Y64099D01*
D02*
G37*
G36*
X103134Y63118D02*
X102457D01*
Y62391D01*
X103134D01*
Y63118D01*
D02*
G37*
G36*
X102203D02*
X101526D01*
Y62391D01*
X102203D01*
Y63118D01*
D02*
G37*
G36*
X107460Y61171D02*
X106300D01*
Y60957D01*
X105160D01*
Y61146D01*
X103700D01*
Y59586D01*
X105160D01*
Y59774D01*
X106300D01*
Y59561D01*
X107460D01*
Y60309D01*
X107471Y60366D01*
X107460Y60423D01*
Y61171D01*
D02*
G37*
G36*
X103134Y61220D02*
X102457D01*
Y60493D01*
X103134D01*
Y61220D01*
D02*
G37*
G36*
X102203D02*
X101526D01*
Y60493D01*
X102203D01*
Y61220D01*
D02*
G37*
G36*
X103134Y60239D02*
X102457D01*
Y59512D01*
X103134D01*
Y60239D01*
D02*
G37*
G36*
X102203D02*
X101526D01*
Y59512D01*
X102203D01*
Y60239D01*
D02*
G37*
G36*
X35734Y61735D02*
X35357D01*
X34993Y61637D01*
X34667Y61449D01*
X34401Y61183D01*
X34213Y60857D01*
X34115Y60493D01*
Y60117D01*
X34213Y59753D01*
X34401Y59427D01*
X34667Y59161D01*
X34993Y58972D01*
X35357Y58875D01*
X35734D01*
X36097Y58972D01*
X36423Y59161D01*
X36690Y59427D01*
X36878Y59753D01*
X36975Y60117D01*
Y60493D01*
X36878Y60857D01*
X36690Y61183D01*
X36423Y61449D01*
X36097Y61637D01*
X35734Y61735D01*
D02*
G37*
G36*
X29374D02*
X28997D01*
X28633Y61637D01*
X28307Y61449D01*
X28041Y61183D01*
X27853Y60857D01*
X27755Y60493D01*
Y60117D01*
X27853Y59753D01*
X28041Y59427D01*
X28307Y59161D01*
X28633Y58972D01*
X28997Y58875D01*
X29374D01*
X29737Y58972D01*
X30063Y59161D01*
X30330Y59427D01*
X30518Y59753D01*
X30615Y60117D01*
Y60493D01*
X30518Y60857D01*
X30330Y61183D01*
X30063Y61449D01*
X29737Y61637D01*
X29374Y61735D01*
D02*
G37*
G36*
X107460Y58171D02*
X106300D01*
Y57957D01*
X105160D01*
Y58146D01*
X103700D01*
Y56586D01*
X105160D01*
Y56774D01*
X106300D01*
Y56561D01*
X107460D01*
Y57309D01*
X107471Y57366D01*
X107460Y57422D01*
Y58171D01*
D02*
G37*
G36*
X103134Y58220D02*
X102457D01*
Y57493D01*
X103134D01*
Y58220D01*
D02*
G37*
G36*
X102203D02*
X101526D01*
Y57493D01*
X102203D01*
Y58220D01*
D02*
G37*
G36*
X229234Y58925D02*
X227324D01*
Y57015D01*
X229234D01*
Y58925D01*
D02*
G37*
G36*
X237234Y58915D02*
X235324D01*
Y57005D01*
X237234D01*
Y58915D01*
D02*
G37*
G36*
X103134Y57239D02*
X102457D01*
Y56512D01*
X103134D01*
Y57239D01*
D02*
G37*
G36*
X102203D02*
X101526D01*
Y56512D01*
X102203D01*
Y57239D01*
D02*
G37*
G36*
X27214Y58115D02*
X26837D01*
X26473Y58017D01*
X26147Y57829D01*
X25881Y57563D01*
X25693Y57237D01*
X25595Y56873D01*
Y56496D01*
X25693Y56133D01*
X25881Y55807D01*
X26147Y55540D01*
X26473Y55352D01*
X26837Y55255D01*
X27214D01*
X27577Y55352D01*
X27903Y55540D01*
X28170Y55807D01*
X28358Y56133D01*
X28455Y56496D01*
Y56873D01*
X28358Y57237D01*
X28170Y57563D01*
X27903Y57829D01*
X27577Y58017D01*
X27214Y58115D01*
D02*
G37*
G36*
X107460Y55171D02*
X106300D01*
Y54957D01*
X105160D01*
Y55146D01*
X103700D01*
Y53586D01*
X105160D01*
Y53774D01*
X106300D01*
Y53561D01*
X107460D01*
Y54309D01*
X107471Y54366D01*
X107460Y54422D01*
Y55171D01*
D02*
G37*
G36*
X12637Y56404D02*
X12250D01*
Y54869D01*
X13785D01*
Y55256D01*
X13746Y55553D01*
X13631Y55830D01*
X13449Y56068D01*
X13211Y56250D01*
X12934Y56365D01*
X12637Y56404D01*
D02*
G37*
G36*
X11750D02*
X11363D01*
X11066Y56365D01*
X10789Y56250D01*
X10551Y56068D01*
X10369Y55830D01*
X10254Y55553D01*
X10215Y55256D01*
Y54869D01*
X11750D01*
Y56404D01*
D02*
G37*
G36*
X103134Y55220D02*
X102457D01*
Y54493D01*
X103134D01*
Y55220D01*
D02*
G37*
G36*
X102203D02*
X101526D01*
Y54493D01*
X102203D01*
Y55220D01*
D02*
G37*
G36*
X228405Y56385D02*
X228153D01*
X227910Y56320D01*
X227692Y56194D01*
X227515Y56016D01*
X227389Y55798D01*
X227324Y55556D01*
Y55304D01*
X227389Y55061D01*
X227515Y54843D01*
X227692Y54666D01*
X227910Y54540D01*
X228153Y54475D01*
X228405D01*
X228647Y54540D01*
X228865Y54666D01*
X229043Y54843D01*
X229169Y55061D01*
X229234Y55304D01*
Y55556D01*
X229169Y55798D01*
X229043Y56016D01*
X228865Y56194D01*
X228647Y56320D01*
X228405Y56385D01*
D02*
G37*
G36*
X236405Y56375D02*
X236153D01*
X235910Y56310D01*
X235692Y56184D01*
X235515Y56006D01*
X235389Y55788D01*
X235324Y55546D01*
Y55294D01*
X235389Y55051D01*
X235515Y54833D01*
X235692Y54656D01*
X235910Y54530D01*
X236153Y54465D01*
X236405D01*
X236647Y54530D01*
X236865Y54656D01*
X237043Y54833D01*
X237169Y55051D01*
X237234Y55294D01*
Y55546D01*
X237169Y55788D01*
X237043Y56006D01*
X236865Y56184D01*
X236647Y56310D01*
X236405Y56375D01*
D02*
G37*
G36*
X103134Y54239D02*
X102457D01*
Y53512D01*
X103134D01*
Y54239D01*
D02*
G37*
G36*
X102203D02*
X101526D01*
Y53512D01*
X102203D01*
Y54239D01*
D02*
G37*
G36*
X13785Y54369D02*
X12250D01*
Y52834D01*
X12637D01*
X12934Y52873D01*
X13211Y52988D01*
X13449Y53170D01*
X13631Y53408D01*
X13746Y53684D01*
X13785Y53981D01*
Y54369D01*
D02*
G37*
G36*
X11750D02*
X10215D01*
Y53981D01*
X10254Y53684D01*
X10369Y53408D01*
X10551Y53170D01*
X10789Y52988D01*
X11066Y52873D01*
X11363Y52834D01*
X11750D01*
Y54369D01*
D02*
G37*
G36*
X111775Y69891D02*
X111775Y69891D01*
X101000D01*
X100774Y69846D01*
X100582Y69718D01*
X100582Y69718D01*
X82080Y51216D01*
X54050D01*
X54050Y51216D01*
X53824Y51171D01*
X53632Y51043D01*
X53632Y51043D01*
X38382Y35793D01*
X38254Y35601D01*
X38209Y35375D01*
X38209Y35375D01*
Y32536D01*
X38166Y32462D01*
X38120Y32290D01*
Y32110D01*
X38166Y31938D01*
X38256Y31782D01*
X38382Y31656D01*
X38538Y31566D01*
X38710Y31520D01*
X38890D01*
X39062Y31566D01*
X39218Y31656D01*
X39344Y31782D01*
X39434Y31938D01*
X39480Y32110D01*
Y32290D01*
X39434Y32462D01*
X39391Y32536D01*
Y35130D01*
X54295Y50034D01*
X82325D01*
X82325Y50034D01*
X82551Y50079D01*
X82743Y50207D01*
X101245Y68709D01*
X111530D01*
X130557Y49682D01*
X130557Y49682D01*
X130749Y49554D01*
X130975Y49509D01*
X130975Y49509D01*
X213650D01*
X213650Y49509D01*
X213876Y49554D01*
X214068Y49682D01*
X224695Y60309D01*
X237780D01*
X238537Y59551D01*
Y53216D01*
X238495Y53142D01*
X238449Y52969D01*
Y52790D01*
X238495Y52617D01*
X238585Y52462D01*
X238711Y52336D01*
X238866Y52246D01*
X239039Y52200D01*
X239218D01*
X239391Y52246D01*
X239546Y52336D01*
X239673Y52462D01*
X239762Y52617D01*
X239809Y52790D01*
Y52969D01*
X239762Y53142D01*
X239720Y53216D01*
Y59796D01*
X239720Y59796D01*
X239675Y60022D01*
X239547Y60214D01*
X239547Y60214D01*
X238443Y61318D01*
X238251Y61446D01*
X238025Y61491D01*
X238025Y61491D01*
X224450D01*
X224224Y61446D01*
X224032Y61318D01*
X224032Y61318D01*
X213405Y50691D01*
X131220D01*
X112193Y69718D01*
X112001Y69846D01*
X111775Y69891D01*
D02*
G37*
G36*
X114426Y52285D02*
X114174D01*
X113931Y52220D01*
X113714Y52094D01*
X113536Y51916D01*
X113410Y51699D01*
X113345Y51456D01*
Y51204D01*
X113410Y50961D01*
X113536Y50744D01*
X113714Y50566D01*
X113931Y50440D01*
X114174Y50375D01*
X114426D01*
X114669Y50440D01*
X114886Y50566D01*
X115064Y50744D01*
X115190Y50961D01*
X115255Y51204D01*
Y51456D01*
X115190Y51699D01*
X115064Y51916D01*
X114886Y52094D01*
X114669Y52220D01*
X114426Y52285D01*
D02*
G37*
G36*
X59500Y49561D02*
X59378D01*
Y48603D01*
X59811D01*
Y49250D01*
X59788Y49369D01*
X59720Y49470D01*
X59619Y49537D01*
X59500Y49561D01*
D02*
G37*
G36*
X59124D02*
X59002D01*
X58883Y49537D01*
X58783Y49470D01*
X58715Y49369D01*
X58691Y49250D01*
Y48603D01*
X59124D01*
Y49561D01*
D02*
G37*
G36*
X159797Y49171D02*
X159675D01*
Y48213D01*
X160108D01*
Y48860D01*
X160084Y48979D01*
X160017Y49079D01*
X159916Y49147D01*
X159797Y49171D01*
D02*
G37*
G36*
X159421D02*
X159299D01*
X159180Y49147D01*
X159079Y49079D01*
X159012Y48979D01*
X158988Y48860D01*
Y48213D01*
X159421D01*
Y49171D01*
D02*
G37*
G36*
X260791Y49064D02*
X260669D01*
Y48106D01*
X261102D01*
Y48753D01*
X261078Y48872D01*
X261011Y48973D01*
X260910Y49041D01*
X260791Y49064D01*
D02*
G37*
G36*
X260415D02*
X260293D01*
X260174Y49041D01*
X260073Y48973D01*
X260006Y48872D01*
X259982Y48753D01*
Y48106D01*
X260415D01*
Y49064D01*
D02*
G37*
G36*
X114426Y49745D02*
X114174D01*
X113931Y49680D01*
X113714Y49554D01*
X113536Y49376D01*
X113410Y49159D01*
X113345Y48916D01*
Y48664D01*
X113389Y48499D01*
X111519Y46629D01*
X109485D01*
Y47021D01*
X108325D01*
Y45411D01*
X109485D01*
Y45752D01*
X111700D01*
X111868Y45785D01*
X112010Y45880D01*
X114009Y47879D01*
X114174Y47835D01*
X114426D01*
X114669Y47900D01*
X114886Y48026D01*
X115064Y48204D01*
X115190Y48421D01*
X115255Y48664D01*
Y48916D01*
X115190Y49159D01*
X115064Y49376D01*
X114886Y49554D01*
X114669Y49680D01*
X114426Y49745D01*
D02*
G37*
G36*
X304617Y49645D02*
X304555D01*
Y47645D01*
X306555D01*
Y47707D01*
X306472Y48122D01*
X306310Y48513D01*
X306075Y48866D01*
X305776Y49165D01*
X305423Y49400D01*
X305032Y49562D01*
X304617Y49645D01*
D02*
G37*
G36*
X304255D02*
X304193D01*
X303778Y49562D01*
X303387Y49400D01*
X303034Y49165D01*
X302735Y48866D01*
X302500Y48513D01*
X302338Y48122D01*
X302255Y47707D01*
Y47645D01*
X304255D01*
Y49645D01*
D02*
G37*
G36*
X63310Y49485D02*
X62812D01*
X62722Y49467D01*
X62646Y49416D01*
X62595Y49340D01*
X62577Y49250D01*
Y47702D01*
X62595Y47612D01*
X62646Y47535D01*
X62722Y47484D01*
X62812Y47466D01*
X63310D01*
X63401Y47484D01*
X63477Y47535D01*
X63528Y47612D01*
X63546Y47702D01*
Y49250D01*
X63528Y49340D01*
X63477Y49416D01*
X63401Y49467D01*
X63310Y49485D01*
D02*
G37*
G36*
X59811Y48349D02*
X59378D01*
Y47391D01*
X59500D01*
X59619Y47415D01*
X59720Y47482D01*
X59788Y47583D01*
X59811Y47702D01*
Y48349D01*
D02*
G37*
G36*
X59124D02*
X58691D01*
Y47702D01*
X58715Y47583D01*
X58783Y47482D01*
X58883Y47415D01*
X59002Y47391D01*
X59124D01*
Y48349D01*
D02*
G37*
G36*
X163607Y49095D02*
X163109D01*
X163019Y49077D01*
X162942Y49026D01*
X162891Y48950D01*
X162873Y48860D01*
Y47312D01*
X162891Y47221D01*
X162942Y47145D01*
X163019Y47094D01*
X163109Y47076D01*
X163607D01*
X163697Y47094D01*
X163774Y47145D01*
X163825Y47221D01*
X163843Y47312D01*
Y48860D01*
X163825Y48950D01*
X163774Y49026D01*
X163697Y49077D01*
X163607Y49095D01*
D02*
G37*
G36*
X160108Y47959D02*
X159675D01*
Y47001D01*
X159797D01*
X159916Y47024D01*
X160017Y47092D01*
X160084Y47193D01*
X160108Y47312D01*
Y47959D01*
D02*
G37*
G36*
X159421D02*
X158988D01*
Y47312D01*
X159012Y47193D01*
X159079Y47092D01*
X159180Y47024D01*
X159299Y47001D01*
X159421D01*
Y47959D01*
D02*
G37*
G36*
X264601Y48989D02*
X264103D01*
X264013Y48971D01*
X263937Y48920D01*
X263885Y48844D01*
X263868Y48753D01*
Y47205D01*
X263885Y47115D01*
X263937Y47039D01*
X264013Y46988D01*
X264103Y46970D01*
X264601D01*
X264691Y46988D01*
X264768Y47039D01*
X264819Y47115D01*
X264837Y47205D01*
Y48753D01*
X264819Y48844D01*
X264768Y48920D01*
X264691Y48971D01*
X264601Y48989D01*
D02*
G37*
G36*
X261102Y47852D02*
X260669D01*
Y46894D01*
X260791D01*
X260910Y46918D01*
X261011Y46986D01*
X261078Y47086D01*
X261102Y47205D01*
Y47852D01*
D02*
G37*
G36*
X260415D02*
X259982D01*
Y47205D01*
X260006Y47086D01*
X260073Y46986D01*
X260174Y46918D01*
X260293Y46894D01*
X260415D01*
Y47852D01*
D02*
G37*
G36*
X107485Y47021D02*
X106325D01*
Y46807D01*
X105185D01*
Y46996D01*
X103725D01*
Y45436D01*
X105185D01*
Y45624D01*
X106325D01*
Y45411D01*
X107485D01*
Y46159D01*
X107496Y46216D01*
X107485Y46273D01*
Y47021D01*
D02*
G37*
G36*
X259521Y48989D02*
X259023D01*
X258933Y48971D01*
X258857Y48920D01*
X258806Y48844D01*
X258788Y48753D01*
Y47205D01*
X258806Y47115D01*
X258820Y47094D01*
X258803Y47024D01*
X258677Y46897D01*
X258587Y46742D01*
X258568Y46669D01*
X258441Y46686D01*
Y47073D01*
X258469Y47115D01*
X258487Y47205D01*
Y48753D01*
X258469Y48844D01*
X258418Y48920D01*
X258341Y48971D01*
X258251Y48989D01*
X257753D01*
X257663Y48971D01*
X257587Y48920D01*
X257536Y48844D01*
X257518Y48753D01*
Y47205D01*
X257536Y47115D01*
X257564Y47073D01*
Y38782D01*
X257339Y38652D01*
X257138Y38451D01*
X256996Y38205D01*
X256922Y37930D01*
Y37646D01*
X256996Y37371D01*
X257138Y37125D01*
X257339Y36924D01*
X257585Y36782D01*
X257860Y36708D01*
X258144D01*
X258419Y36782D01*
X258665Y36924D01*
X258866Y37125D01*
X259009Y37371D01*
X259082Y37646D01*
Y37930D01*
X259009Y38205D01*
X258866Y38451D01*
X258665Y38652D01*
X258441Y38782D01*
Y46273D01*
X258568Y46290D01*
X258587Y46217D01*
X258677Y46062D01*
X258803Y45935D01*
X258958Y45846D01*
X259131Y45799D01*
X259310D01*
X259483Y45846D01*
X259638Y45935D01*
X259765Y46062D01*
X259854Y46217D01*
X259901Y46390D01*
Y46569D01*
X259854Y46742D01*
X259765Y46897D01*
X259682Y46980D01*
X259688Y47039D01*
X259739Y47115D01*
X259757Y47205D01*
Y48753D01*
X259739Y48844D01*
X259688Y48920D01*
X259611Y48971D01*
X259521Y48989D01*
D02*
G37*
G36*
X256981D02*
X256483D01*
X256393Y48971D01*
X256317Y48920D01*
X256266Y48844D01*
X256248Y48753D01*
Y47205D01*
X256266Y47115D01*
X256294Y47073D01*
Y46664D01*
X256167Y46630D01*
X256087Y46768D01*
X255886Y46969D01*
X255640Y47111D01*
X255365Y47185D01*
X255081D01*
X254806Y47111D01*
X254560Y46969D01*
X254359Y46768D01*
X254216Y46522D01*
X254143Y46247D01*
Y45963D01*
X254216Y45688D01*
X254359Y45442D01*
X254560Y45241D01*
X254806Y45099D01*
X255081Y45025D01*
X255365D01*
X255640Y45099D01*
X255886Y45241D01*
X256087Y45442D01*
X256217Y45667D01*
X256518D01*
X256686Y45700D01*
X256828Y45795D01*
X257042Y46009D01*
X257137Y46151D01*
X257171Y46319D01*
Y47073D01*
X257199Y47115D01*
X257217Y47205D01*
Y48753D01*
X257199Y48844D01*
X257148Y48920D01*
X257071Y48971D01*
X256981Y48989D01*
D02*
G37*
G36*
X162337Y49095D02*
X161839D01*
X161749Y49077D01*
X161672Y49026D01*
X161621Y48950D01*
X161603Y48860D01*
Y47312D01*
X161621Y47221D01*
X161650Y47179D01*
Y46981D01*
X161503Y46835D01*
X161408Y46692D01*
X161383Y46569D01*
X161256Y46582D01*
Y47179D01*
X161285Y47221D01*
X161303Y47312D01*
Y48860D01*
X161285Y48950D01*
X161234Y49026D01*
X161157Y49077D01*
X161067Y49095D01*
X160569D01*
X160479Y49077D01*
X160402Y49026D01*
X160351Y48950D01*
X160333Y48860D01*
Y47312D01*
X160351Y47221D01*
X160380Y47179D01*
Y46370D01*
X159940D01*
Y45491D01*
X159813D01*
Y45364D01*
X159159D01*
Y44612D01*
X159159D01*
Y44600D01*
X159159D01*
Y43848D01*
X159813D01*
Y43594D01*
X159159D01*
Y42842D01*
X159159D01*
Y42817D01*
X159159D01*
Y42065D01*
X160467D01*
Y42157D01*
X160594Y42210D01*
X160801Y42003D01*
X160943Y41908D01*
X161111Y41875D01*
X161233D01*
Y41133D01*
X161375D01*
Y40923D01*
X161233D01*
Y39313D01*
X162393D01*
Y39680D01*
X164707D01*
X164875Y39713D01*
X165017Y39808D01*
X166800Y41590D01*
X166875D01*
X167088Y41679D01*
X167252Y41842D01*
X167340Y42055D01*
Y42286D01*
X167252Y42499D01*
X167088Y42662D01*
X166875Y42750D01*
X166645D01*
X166431Y42662D01*
X166268Y42499D01*
X166180Y42286D01*
Y42210D01*
X164526Y40556D01*
X162393D01*
Y40923D01*
X162251D01*
Y41133D01*
X162393D01*
Y42743D01*
X161705D01*
X161663Y42751D01*
X161292D01*
X161256Y42787D01*
Y42916D01*
X162393D01*
Y44526D01*
X162251D01*
Y44686D01*
X162393D01*
Y46296D01*
X162384D01*
X162331Y46423D01*
X162398Y46490D01*
X162493Y46632D01*
X162526Y46800D01*
Y47179D01*
X162555Y47221D01*
X162573Y47312D01*
Y48860D01*
X162555Y48950D01*
X162504Y49026D01*
X162427Y49077D01*
X162337Y49095D01*
D02*
G37*
G36*
X62040Y49485D02*
X61542D01*
X61452Y49467D01*
X61376Y49416D01*
X61325Y49340D01*
X61307Y49250D01*
Y47702D01*
X61325Y47612D01*
X61353Y47570D01*
Y47437D01*
X61276Y47361D01*
X61181Y47219D01*
X61148Y47051D01*
Y46556D01*
X61089Y46496D01*
X60961Y46538D01*
X60960Y46592D01*
Y47570D01*
X60988Y47612D01*
X61006Y47702D01*
Y49250D01*
X60988Y49340D01*
X60937Y49416D01*
X60861Y49467D01*
X60770Y49485D01*
X60272D01*
X60182Y49467D01*
X60106Y49416D01*
X60055Y49340D01*
X60037Y49250D01*
Y47702D01*
X60055Y47612D01*
X60083Y47570D01*
Y46540D01*
X59669D01*
Y45661D01*
X59542D01*
Y45534D01*
X58888D01*
Y44782D01*
X58888D01*
X58888Y44730D01*
X58888D01*
Y43978D01*
X59542D01*
Y43724D01*
X58888D01*
Y42972D01*
X58888Y42972D01*
X58878Y42941D01*
X58878Y42941D01*
X58878Y42848D01*
Y42189D01*
X59532D01*
Y41935D01*
X58878D01*
Y41274D01*
X58878Y41183D01*
X58888Y41060D01*
Y40399D01*
X60196D01*
Y41060D01*
X60196Y41151D01*
X60186Y41274D01*
Y41981D01*
X60313Y42034D01*
X60486Y41861D01*
X60629Y41766D01*
X60796Y41732D01*
X60952D01*
Y41257D01*
X61043D01*
Y41077D01*
X60962D01*
Y39467D01*
X62122D01*
Y39792D01*
X63052D01*
X63239Y39830D01*
X63398Y39936D01*
X66946Y43484D01*
X66949D01*
X67162Y43572D01*
X67325Y43735D01*
X67414Y43948D01*
Y44179D01*
X67325Y44392D01*
X67162Y44555D01*
X66949Y44644D01*
X66718D01*
X66505Y44555D01*
X66342Y44392D01*
X66254Y44179D01*
Y44176D01*
X62849Y40771D01*
X62122D01*
Y41077D01*
X62022D01*
Y41257D01*
X62112D01*
Y42867D01*
X61064D01*
X61022Y42919D01*
X61082Y43046D01*
X62122D01*
Y44656D01*
X62025D01*
Y44856D01*
X62122D01*
Y46466D01*
X62025D01*
Y46869D01*
X62101Y46946D01*
X62196Y47088D01*
X62230Y47256D01*
Y47570D01*
X62258Y47612D01*
X62276Y47702D01*
Y49250D01*
X62258Y49340D01*
X62207Y49416D01*
X62131Y49467D01*
X62040Y49485D01*
D02*
G37*
G36*
X276254Y48473D02*
X275250D01*
Y46469D01*
X276254D01*
Y48473D01*
D02*
G37*
G36*
X274750D02*
X273746D01*
Y46469D01*
X274750D01*
Y48473D01*
D02*
G37*
G36*
X263331Y48989D02*
X262833D01*
X262743Y48971D01*
X262667Y48920D01*
X262616Y48844D01*
X262598Y48753D01*
Y47938D01*
X262596Y47932D01*
Y46717D01*
X262467Y46587D01*
X262372Y46445D01*
X262245Y46460D01*
Y47066D01*
X262279Y47115D01*
X262297Y47205D01*
Y48753D01*
X262279Y48844D01*
X262228Y48920D01*
X262151Y48971D01*
X262061Y48989D01*
X261563D01*
X261473Y48971D01*
X261397Y48920D01*
X261346Y48844D01*
X261328Y48753D01*
Y47205D01*
X261346Y47115D01*
X261369Y47081D01*
Y46054D01*
X260939D01*
Y45175D01*
X260812D01*
Y45048D01*
X260158D01*
Y44329D01*
X260153D01*
Y43577D01*
X260807D01*
Y43323D01*
X260153D01*
Y42571D01*
X260153D01*
Y42549D01*
X260153D01*
Y41797D01*
X261461D01*
Y41884D01*
X261588Y41937D01*
X261790Y41735D01*
X261932Y41640D01*
X262100Y41606D01*
X262227D01*
Y40865D01*
X262369D01*
Y40700D01*
X262232D01*
Y39090D01*
X263392D01*
Y39456D01*
X265186D01*
X265354Y39489D01*
X265496Y39584D01*
X267763Y41852D01*
X267838D01*
X268051Y41940D01*
X268215Y42103D01*
X268303Y42316D01*
Y42547D01*
X268215Y42760D01*
X268051Y42923D01*
X267838Y43012D01*
X267607D01*
X267394Y42923D01*
X267231Y42760D01*
X267143Y42547D01*
Y42472D01*
X265004Y40333D01*
X263392D01*
Y40700D01*
X263245D01*
Y40865D01*
X263387D01*
Y42475D01*
X262699D01*
X262657Y42483D01*
X262360D01*
X262326Y42518D01*
X262379Y42645D01*
X263387D01*
Y44255D01*
X263387D01*
X263392Y44370D01*
X263392D01*
X263392Y44379D01*
Y45980D01*
X263242D01*
X263226Y46107D01*
X263345Y46225D01*
X263440Y46367D01*
X263473Y46535D01*
Y47023D01*
X263498Y47039D01*
X263549Y47115D01*
X263567Y47205D01*
Y48753D01*
X263549Y48844D01*
X263498Y48920D01*
X263421Y48971D01*
X263331Y48989D01*
D02*
G37*
G36*
X103159Y47070D02*
X102482D01*
Y46343D01*
X103159D01*
Y47070D01*
D02*
G37*
G36*
X102228D02*
X101551D01*
Y46343D01*
X102228D01*
Y47070D01*
D02*
G37*
G36*
X58230Y49485D02*
X57732D01*
X57642Y49467D01*
X57566Y49416D01*
X57515Y49340D01*
X57497Y49250D01*
Y47702D01*
X57515Y47612D01*
X57566Y47535D01*
X57594Y47516D01*
Y47337D01*
X57586Y47333D01*
X57460Y47206D01*
X57370Y47051D01*
X57324Y46878D01*
Y46699D01*
X57370Y46526D01*
X57460Y46371D01*
X57586Y46244D01*
X57741Y46155D01*
X57914Y46109D01*
X58093D01*
X58266Y46155D01*
X58421Y46244D01*
X58548Y46371D01*
X58638Y46526D01*
X58684Y46699D01*
Y46878D01*
X58638Y47051D01*
X58548Y47206D01*
X58421Y47333D01*
X58369Y47363D01*
Y47516D01*
X58397Y47535D01*
X58448Y47612D01*
X58466Y47702D01*
Y49250D01*
X58448Y49340D01*
X58397Y49416D01*
X58321Y49467D01*
X58230Y49485D01*
D02*
G37*
G36*
X64580D02*
X64082D01*
X63992Y49467D01*
X63916Y49416D01*
X63865Y49340D01*
X63847Y49250D01*
Y47702D01*
X63865Y47612D01*
X63893Y47570D01*
Y47264D01*
X63785Y47156D01*
X63695Y47001D01*
X63649Y46828D01*
Y46649D01*
X63695Y46476D01*
X63785Y46321D01*
X63911Y46194D01*
X64066Y46105D01*
X64239Y46059D01*
X64418D01*
X64591Y46105D01*
X64746Y46194D01*
X64873Y46321D01*
X64963Y46476D01*
X65009Y46649D01*
Y46828D01*
X64963Y47001D01*
X64873Y47156D01*
X64770Y47259D01*
Y47570D01*
X64798Y47612D01*
X64816Y47702D01*
Y49250D01*
X64798Y49340D01*
X64747Y49416D01*
X64671Y49467D01*
X64580Y49485D01*
D02*
G37*
G36*
X265871Y48989D02*
X265373D01*
X265283Y48971D01*
X265207Y48920D01*
X265156Y48844D01*
X265138Y48753D01*
Y47205D01*
X265156Y47115D01*
X265184Y47073D01*
Y47058D01*
X265078Y46953D01*
X264988Y46798D01*
X264942Y46625D01*
Y46446D01*
X264988Y46273D01*
X265078Y46118D01*
X265205Y45991D01*
X265360Y45902D01*
X265533Y45855D01*
X265712D01*
X265885Y45902D01*
X266040Y45991D01*
X266166Y46118D01*
X266256Y46273D01*
X266302Y46446D01*
Y46625D01*
X266256Y46798D01*
X266166Y46953D01*
X266061Y47058D01*
Y47073D01*
X266089Y47115D01*
X266107Y47205D01*
Y48753D01*
X266089Y48844D01*
X266038Y48920D01*
X265961Y48971D01*
X265871Y48989D01*
D02*
G37*
G36*
X164877Y49095D02*
X164379D01*
X164289Y49077D01*
X164212Y49026D01*
X164161Y48950D01*
X164143Y48860D01*
Y47312D01*
X164161Y47221D01*
X164190Y47179D01*
Y47048D01*
X164084Y46942D01*
X163994Y46787D01*
X163948Y46614D01*
Y46435D01*
X163994Y46262D01*
X164084Y46107D01*
X164210Y45980D01*
X164366Y45891D01*
X164538Y45845D01*
X164718D01*
X164890Y45891D01*
X165046Y45980D01*
X165172Y46107D01*
X165262Y46262D01*
X165308Y46435D01*
Y46614D01*
X165262Y46787D01*
X165172Y46942D01*
X165066Y47048D01*
Y47179D01*
X165095Y47221D01*
X165113Y47312D01*
Y48860D01*
X165095Y48950D01*
X165044Y49026D01*
X164967Y49077D01*
X164877Y49095D01*
D02*
G37*
G36*
X158527D02*
X158029D01*
X157939Y49077D01*
X157862Y49026D01*
X157811Y48950D01*
X157793Y48860D01*
Y47312D01*
X157811Y47221D01*
X157857Y47153D01*
X157863Y47138D01*
X157866Y47008D01*
X157771Y46913D01*
X157682Y46758D01*
X157636Y46585D01*
Y46406D01*
X157682Y46233D01*
X157771Y46078D01*
X157898Y45951D01*
X158053Y45862D01*
X158226Y45816D01*
X158405D01*
X158578Y45862D01*
X158733Y45951D01*
X158860Y46078D01*
X158949Y46233D01*
X158996Y46406D01*
Y46585D01*
X158949Y46758D01*
X158860Y46913D01*
X158746Y47027D01*
X158731Y47059D01*
X158721Y47186D01*
X158745Y47221D01*
X158763Y47312D01*
Y48860D01*
X158745Y48950D01*
X158694Y49026D01*
X158617Y49077D01*
X158527Y49095D01*
D02*
G37*
G36*
X59415Y46540D02*
X58888D01*
Y45788D01*
X59415D01*
Y46540D01*
D02*
G37*
G36*
X155987Y49095D02*
X155489D01*
X155399Y49077D01*
X155322Y49026D01*
X155271Y48950D01*
X155253Y48860D01*
Y47312D01*
X155271Y47221D01*
X155300Y47179D01*
Y46274D01*
X154767Y45741D01*
X154516Y45808D01*
X154232D01*
X153957Y45735D01*
X153711Y45593D01*
X153510Y45392D01*
X153368Y45145D01*
X153294Y44871D01*
Y44586D01*
X153368Y44312D01*
X153510Y44065D01*
X153711Y43864D01*
X153957Y43722D01*
X154232Y43648D01*
X154516D01*
X154791Y43722D01*
X155037Y43864D01*
X155238Y44065D01*
X155380Y44312D01*
X155454Y44586D01*
Y44871D01*
X155387Y45121D01*
X156048Y45782D01*
X156143Y45925D01*
X156176Y46092D01*
Y47179D01*
X156205Y47221D01*
X156223Y47312D01*
Y48860D01*
X156205Y48950D01*
X156154Y49026D01*
X156077Y49077D01*
X155987Y49095D01*
D02*
G37*
G36*
X159686Y46370D02*
X159159D01*
Y45618D01*
X159686D01*
Y46370D01*
D02*
G37*
G36*
X189165Y46291D02*
X188288D01*
Y45414D01*
X189165D01*
Y46291D01*
D02*
G37*
G36*
X188034D02*
X187157D01*
Y45414D01*
X188034D01*
Y46291D01*
D02*
G37*
G36*
X228414Y46299D02*
X228406D01*
Y45397D01*
X229308D01*
Y45405D01*
X229238Y45667D01*
X229102Y45902D01*
X228911Y46093D01*
X228676Y46229D01*
X228414Y46299D01*
D02*
G37*
G36*
X228152D02*
X228143D01*
X227882Y46229D01*
X227647Y46093D01*
X227455Y45902D01*
X227320Y45667D01*
X227250Y45405D01*
Y45397D01*
X228152D01*
Y46299D01*
D02*
G37*
G36*
X236414Y46289D02*
X236406D01*
Y45387D01*
X237308D01*
Y45395D01*
X237238Y45657D01*
X237102Y45892D01*
X236911Y46083D01*
X236676Y46219D01*
X236414Y46289D01*
D02*
G37*
G36*
X236152D02*
X236143D01*
X235882Y46219D01*
X235647Y46083D01*
X235455Y45892D01*
X235320Y45657D01*
X235250Y45395D01*
Y45387D01*
X236152D01*
Y46289D01*
D02*
G37*
G36*
X180335Y46241D02*
X179458D01*
Y45364D01*
X180335D01*
Y46241D01*
D02*
G37*
G36*
X179204D02*
X178327D01*
Y45364D01*
X179204D01*
Y46241D01*
D02*
G37*
G36*
X103159Y46089D02*
X102482D01*
Y45362D01*
X103159D01*
Y46089D01*
D02*
G37*
G36*
X102228D02*
X101551D01*
Y45362D01*
X102228D01*
Y46089D01*
D02*
G37*
G36*
X211204Y46229D02*
X211199D01*
Y45352D01*
X212076D01*
Y45357D01*
X212008Y45613D01*
X211875Y45841D01*
X211688Y46028D01*
X211459Y46161D01*
X211204Y46229D01*
D02*
G37*
G36*
X219874D02*
X219869D01*
Y45352D01*
X220746D01*
Y45357D01*
X220678Y45613D01*
X220545Y45841D01*
X220358Y46028D01*
X220129Y46161D01*
X219874Y46229D01*
D02*
G37*
G36*
X202389D02*
X202384D01*
Y45352D01*
X203261D01*
Y45357D01*
X203193Y45613D01*
X203060Y45841D01*
X202873Y46028D01*
X202644Y46161D01*
X202389Y46229D01*
D02*
G37*
G36*
X202130D02*
X202125D01*
X201869Y46161D01*
X201640Y46028D01*
X201454Y45841D01*
X201321Y45613D01*
X201253Y45357D01*
Y45352D01*
X202130D01*
Y46229D01*
D02*
G37*
G36*
X219615D02*
X219610D01*
X219354Y46161D01*
X219125Y46028D01*
X218939Y45841D01*
X218806Y45613D01*
X218738Y45357D01*
Y45352D01*
X219615D01*
Y46229D01*
D02*
G37*
G36*
X210945D02*
X210940D01*
X210684Y46161D01*
X210455Y46028D01*
X210269Y45841D01*
X210136Y45613D01*
X210068Y45357D01*
Y45352D01*
X210945D01*
Y46229D01*
D02*
G37*
G36*
X306555Y47345D02*
X304555D01*
Y45345D01*
X304617D01*
X305032Y45428D01*
X305423Y45590D01*
X305776Y45825D01*
X306075Y46124D01*
X306310Y46477D01*
X306472Y46868D01*
X306555Y47283D01*
Y47345D01*
D02*
G37*
G36*
X304255D02*
X302255D01*
Y47283D01*
X302338Y46868D01*
X302500Y46477D01*
X302735Y46124D01*
X303034Y45825D01*
X303387Y45590D01*
X303778Y45428D01*
X304193Y45345D01*
X304255D01*
Y47345D01*
D02*
G37*
G36*
X260685Y46054D02*
X260158D01*
Y45302D01*
X260685D01*
Y46054D01*
D02*
G37*
G36*
X114426Y47205D02*
X114174D01*
X113931Y47140D01*
X113714Y47014D01*
X113536Y46836D01*
X113410Y46619D01*
X113345Y46376D01*
Y46124D01*
X113410Y45881D01*
X113427Y45853D01*
X111101Y43527D01*
X109485D01*
Y44021D01*
X108325D01*
Y42411D01*
X109485D01*
Y42854D01*
X111240D01*
X111240Y42854D01*
X111369Y42880D01*
X111478Y42952D01*
X113903Y45377D01*
X113931Y45360D01*
X114174Y45295D01*
X114426D01*
X114669Y45360D01*
X114886Y45486D01*
X115064Y45664D01*
X115190Y45881D01*
X115255Y46124D01*
Y46376D01*
X115190Y46619D01*
X115064Y46836D01*
X114886Y47014D01*
X114669Y47140D01*
X114426Y47205D01*
D02*
G37*
G36*
X33681Y54555D02*
X33450D01*
X33237Y54466D01*
X33074Y54303D01*
X32985Y54090D01*
Y53859D01*
X33074Y53646D01*
X33237Y53483D01*
X33450Y53395D01*
X33525D01*
X34964Y51956D01*
Y47497D01*
X34741Y47437D01*
X34414Y47249D01*
X34148Y46983D01*
X33960Y46657D01*
X33863Y46293D01*
Y45917D01*
X33960Y45553D01*
X34148Y45227D01*
X34414Y44961D01*
X34741Y44772D01*
X35104Y44675D01*
X35481D01*
X35844Y44772D01*
X36171Y44961D01*
X36437Y45227D01*
X36625Y45553D01*
X36723Y45917D01*
Y46293D01*
X36625Y46657D01*
X36437Y46983D01*
X36171Y47249D01*
X35844Y47437D01*
X35841Y47438D01*
Y52138D01*
X35808Y52305D01*
X35713Y52448D01*
X34145Y54015D01*
Y54090D01*
X34057Y54303D01*
X33894Y54466D01*
X33681Y54555D01*
D02*
G37*
G36*
X55690Y49485D02*
X55192D01*
X55102Y49467D01*
X55026Y49416D01*
X54975Y49340D01*
X54957Y49250D01*
Y48445D01*
X54953Y48426D01*
Y47634D01*
X54514Y47195D01*
X54419Y47052D01*
X54385Y46885D01*
Y46691D01*
X54297Y46667D01*
X54051Y46525D01*
X53850Y46324D01*
X53708Y46078D01*
X53634Y45803D01*
Y45519D01*
X53708Y45244D01*
X53850Y44998D01*
X54051Y44797D01*
X54297Y44654D01*
X54572Y44581D01*
X54856D01*
X55131Y44654D01*
X55377Y44797D01*
X55578Y44998D01*
X55720Y45244D01*
X55794Y45519D01*
Y45803D01*
X55720Y46078D01*
X55578Y46324D01*
X55377Y46525D01*
X55278Y46582D01*
X55268Y46709D01*
X55701Y47142D01*
X55796Y47284D01*
X55830Y47452D01*
Y47517D01*
X55857Y47535D01*
X55908Y47612D01*
X55926Y47702D01*
Y49250D01*
X55908Y49340D01*
X55857Y49416D01*
X55781Y49467D01*
X55690Y49485D01*
D02*
G37*
G36*
X193363Y46217D02*
X193119D01*
X192882Y46154D01*
X192670Y46031D01*
X192497Y45858D01*
X192374Y45646D01*
X192311Y45410D01*
Y45165D01*
X192374Y44928D01*
X192497Y44716D01*
X192670Y44543D01*
X192882Y44420D01*
X193119Y44357D01*
X193363D01*
X193600Y44420D01*
X193812Y44543D01*
X193985Y44716D01*
X194108Y44928D01*
X194171Y45165D01*
Y45410D01*
X194108Y45646D01*
X193985Y45858D01*
X193812Y46031D01*
X193600Y46154D01*
X193363Y46217D01*
D02*
G37*
G36*
X190823D02*
X190579D01*
X190342Y46154D01*
X190130Y46031D01*
X189957Y45858D01*
X189834Y45646D01*
X189771Y45410D01*
Y45165D01*
X189834Y44928D01*
X189957Y44716D01*
X190130Y44543D01*
X190342Y44420D01*
X190579Y44357D01*
X190823D01*
X191060Y44420D01*
X191272Y44543D01*
X191445Y44716D01*
X191568Y44928D01*
X191631Y45165D01*
Y45410D01*
X191568Y45646D01*
X191445Y45858D01*
X191272Y46031D01*
X191060Y46154D01*
X190823Y46217D01*
D02*
G37*
G36*
X184533Y46167D02*
X184289D01*
X184052Y46104D01*
X183840Y45981D01*
X183667Y45808D01*
X183544Y45596D01*
X183481Y45360D01*
Y45115D01*
X183544Y44878D01*
X183667Y44666D01*
X183840Y44493D01*
X184052Y44370D01*
X184289Y44307D01*
X184533D01*
X184770Y44370D01*
X184982Y44493D01*
X185155Y44666D01*
X185278Y44878D01*
X185341Y45115D01*
Y45360D01*
X185278Y45596D01*
X185155Y45808D01*
X184982Y45981D01*
X184770Y46104D01*
X184533Y46167D01*
D02*
G37*
G36*
X217324Y46155D02*
X217080D01*
X216843Y46092D01*
X216631Y45969D01*
X216458Y45796D01*
X216335Y45584D01*
X216272Y45347D01*
Y45103D01*
X216335Y44866D01*
X216458Y44654D01*
X216631Y44481D01*
X216843Y44358D01*
X217080Y44295D01*
X217324D01*
X217561Y44358D01*
X217773Y44481D01*
X217946Y44654D01*
X218069Y44866D01*
X218132Y45103D01*
Y45347D01*
X218069Y45584D01*
X217946Y45796D01*
X217773Y45969D01*
X217561Y46092D01*
X217324Y46155D01*
D02*
G37*
G36*
X215592D02*
X213732D01*
Y44295D01*
X215592D01*
Y46155D01*
D02*
G37*
G36*
X208654D02*
X208410D01*
X208173Y46092D01*
X207961Y45969D01*
X207788Y45796D01*
X207665Y45584D01*
X207602Y45347D01*
Y45103D01*
X207665Y44866D01*
X207788Y44654D01*
X207961Y44481D01*
X208173Y44358D01*
X208410Y44295D01*
X208654D01*
X208891Y44358D01*
X209103Y44481D01*
X209276Y44654D01*
X209399Y44866D01*
X209462Y45103D01*
Y45347D01*
X209399Y45584D01*
X209276Y45796D01*
X209103Y45969D01*
X208891Y46092D01*
X208654Y46155D01*
D02*
G37*
G36*
X206922D02*
X205062D01*
Y44295D01*
X206922D01*
Y46155D01*
D02*
G37*
G36*
X199839D02*
X199595D01*
X199358Y46092D01*
X199146Y45969D01*
X198973Y45796D01*
X198850Y45584D01*
X198787Y45347D01*
Y45103D01*
X198850Y44866D01*
X198973Y44654D01*
X199146Y44481D01*
X199358Y44358D01*
X199595Y44295D01*
X199839D01*
X200076Y44358D01*
X200288Y44481D01*
X200461Y44654D01*
X200584Y44866D01*
X200647Y45103D01*
Y45347D01*
X200584Y45584D01*
X200461Y45796D01*
X200288Y45969D01*
X200076Y46092D01*
X199839Y46155D01*
D02*
G37*
G36*
X198107D02*
X196247D01*
Y44295D01*
X198107D01*
Y46155D01*
D02*
G37*
G36*
X189165Y45160D02*
X188288D01*
Y44283D01*
X189165D01*
Y45160D01*
D02*
G37*
G36*
X188034D02*
X187157D01*
Y44283D01*
X188034D01*
Y45160D01*
D02*
G37*
G36*
X229308Y45143D02*
X228406D01*
Y44241D01*
X228414D01*
X228676Y44311D01*
X228911Y44446D01*
X229102Y44638D01*
X229238Y44873D01*
X229308Y45134D01*
Y45143D01*
D02*
G37*
G36*
X228152D02*
X227250D01*
Y45134D01*
X227320Y44873D01*
X227455Y44638D01*
X227647Y44446D01*
X227882Y44311D01*
X228143Y44241D01*
X228152D01*
Y45143D01*
D02*
G37*
G36*
X180335Y45110D02*
X179458D01*
Y44233D01*
X180335D01*
Y45110D01*
D02*
G37*
G36*
X179204D02*
X178327D01*
Y44233D01*
X179204D01*
Y45110D01*
D02*
G37*
G36*
X237308Y45133D02*
X236406D01*
Y44231D01*
X236414D01*
X236676Y44301D01*
X236911Y44436D01*
X237102Y44628D01*
X237238Y44863D01*
X237308Y45124D01*
Y45133D01*
D02*
G37*
G36*
X236152D02*
X235250D01*
Y45124D01*
X235320Y44863D01*
X235455Y44628D01*
X235647Y44436D01*
X235882Y44301D01*
X236143Y44231D01*
X236152D01*
Y45133D01*
D02*
G37*
G36*
X220746Y45098D02*
X219869D01*
Y44221D01*
X219874D01*
X220129Y44289D01*
X220358Y44422D01*
X220545Y44609D01*
X220678Y44837D01*
X220746Y45093D01*
Y45098D01*
D02*
G37*
G36*
X219615D02*
X218738D01*
Y45093D01*
X218806Y44837D01*
X218939Y44609D01*
X219125Y44422D01*
X219354Y44289D01*
X219610Y44221D01*
X219615D01*
Y45098D01*
D02*
G37*
G36*
X212076D02*
X211199D01*
Y44221D01*
X211204D01*
X211459Y44289D01*
X211688Y44422D01*
X211875Y44609D01*
X212008Y44837D01*
X212076Y45093D01*
Y45098D01*
D02*
G37*
G36*
X210945D02*
X210068D01*
Y45093D01*
X210136Y44837D01*
X210269Y44609D01*
X210455Y44422D01*
X210684Y44289D01*
X210940Y44221D01*
X210945D01*
Y45098D01*
D02*
G37*
G36*
X203261D02*
X202384D01*
Y44221D01*
X202389D01*
X202644Y44289D01*
X202873Y44422D01*
X203060Y44609D01*
X203193Y44837D01*
X203261Y45093D01*
Y45098D01*
D02*
G37*
G36*
X202130D02*
X201253D01*
Y45093D01*
X201321Y44837D01*
X201454Y44609D01*
X201640Y44422D01*
X201869Y44289D01*
X202125Y44221D01*
X202130D01*
Y45098D01*
D02*
G37*
G36*
X109509Y64050D02*
X108349D01*
Y62440D01*
X109509D01*
Y62908D01*
X112041D01*
X121089Y53861D01*
Y45284D01*
X120933Y45129D01*
X120845Y44915D01*
Y44685D01*
X120933Y44471D01*
X121096Y44308D01*
X121310Y44220D01*
X121540D01*
X121754Y44308D01*
X121917Y44471D01*
X122005Y44685D01*
Y44915D01*
X121917Y45129D01*
X121761Y45284D01*
Y54000D01*
X121736Y54129D01*
X121663Y54238D01*
X121663Y54238D01*
X112418Y63483D01*
X112309Y63556D01*
X112180Y63581D01*
X112180Y63581D01*
X109509D01*
Y64050D01*
D02*
G37*
G36*
X276254Y45969D02*
X275250D01*
Y43965D01*
X276254D01*
Y45969D01*
D02*
G37*
G36*
X274750D02*
X273746D01*
Y43965D01*
X274750D01*
Y45969D01*
D02*
G37*
G36*
X107485Y44021D02*
X106325D01*
Y43807D01*
X105185D01*
Y43996D01*
X103725D01*
Y42436D01*
X105185D01*
Y42624D01*
X106325D01*
Y42411D01*
X107485D01*
Y43159D01*
X107496Y43216D01*
X107485Y43273D01*
Y44021D01*
D02*
G37*
G36*
X293990Y44527D02*
X293088D01*
Y43625D01*
X293990D01*
Y44527D01*
D02*
G37*
G36*
X292834D02*
X291932D01*
Y43625D01*
X292834D01*
Y44527D01*
D02*
G37*
G36*
X103159Y44070D02*
X102482D01*
Y43343D01*
X103159D01*
Y44070D01*
D02*
G37*
G36*
X102228D02*
X101551D01*
Y43343D01*
X102228D01*
Y44070D01*
D02*
G37*
G36*
X114426Y44665D02*
X114174D01*
X113931Y44600D01*
X113714Y44474D01*
X113536Y44296D01*
X113410Y44079D01*
X113345Y43836D01*
Y43584D01*
X113410Y43341D01*
X113427Y43313D01*
X110641Y40527D01*
X109485D01*
Y41021D01*
X108325D01*
Y39411D01*
X109485D01*
Y39854D01*
X110780D01*
X110780Y39854D01*
X110909Y39880D01*
X111018Y39952D01*
X113903Y42837D01*
X113931Y42820D01*
X114174Y42755D01*
X114426D01*
X114669Y42820D01*
X114886Y42946D01*
X115064Y43124D01*
X115190Y43341D01*
X115255Y43584D01*
Y43836D01*
X115190Y44079D01*
X115064Y44296D01*
X114886Y44474D01*
X114669Y44600D01*
X114426Y44665D01*
D02*
G37*
G36*
X277395Y43272D02*
X276668D01*
Y42595D01*
X277395D01*
Y43272D01*
D02*
G37*
G36*
X276414D02*
X275687D01*
Y42595D01*
X276414D01*
Y43272D01*
D02*
G37*
G36*
X28954Y47535D02*
X28577D01*
X28213Y47437D01*
X27887Y47249D01*
X27621Y46983D01*
X27433Y46657D01*
X27335Y46293D01*
Y45916D01*
X27433Y45553D01*
X27621Y45227D01*
X27887Y44960D01*
X28213Y44772D01*
X28577Y44675D01*
X28954D01*
X29317Y44772D01*
X29510Y44884D01*
X31582Y42812D01*
X31582Y42812D01*
X31691Y42739D01*
X31820Y42714D01*
X39991D01*
X40121Y42583D01*
X40335Y42495D01*
X40565D01*
X40779Y42583D01*
X40942Y42746D01*
X41030Y42960D01*
Y43190D01*
X40942Y43404D01*
X40779Y43567D01*
X40565Y43655D01*
X40335D01*
X40121Y43567D01*
X39958Y43404D01*
X39951Y43386D01*
X31959D01*
X29986Y45360D01*
X30098Y45553D01*
X30195Y45916D01*
Y46293D01*
X30098Y46657D01*
X29910Y46983D01*
X29643Y47249D01*
X29317Y47437D01*
X28954Y47535D01*
D02*
G37*
G36*
X293990Y43371D02*
X293088D01*
Y42469D01*
X293990D01*
Y43371D01*
D02*
G37*
G36*
X292834D02*
X291932D01*
Y42469D01*
X292834D01*
Y43371D01*
D02*
G37*
G36*
X103159Y43089D02*
X102482D01*
Y42362D01*
X103159D01*
Y43089D01*
D02*
G37*
G36*
X102228D02*
X101551D01*
Y42362D01*
X102228D01*
Y43089D01*
D02*
G37*
G36*
X277395Y42341D02*
X276668D01*
Y41664D01*
X277395D01*
Y42341D01*
D02*
G37*
G36*
X276414D02*
X275687D01*
Y41664D01*
X276414D01*
Y42341D01*
D02*
G37*
G36*
X114435Y42199D02*
X114427D01*
Y41297D01*
X115329D01*
Y41305D01*
X115259Y41567D01*
X115123Y41802D01*
X114932Y41993D01*
X114697Y42129D01*
X114435Y42199D01*
D02*
G37*
G36*
X114173D02*
X114165D01*
X113903Y42129D01*
X113668Y41993D01*
X113477Y41802D01*
X113341Y41567D01*
X113271Y41305D01*
Y41297D01*
X114173D01*
Y42199D01*
D02*
G37*
G36*
X107485Y41021D02*
X106325D01*
Y40807D01*
X105185D01*
Y40996D01*
X103725D01*
Y39436D01*
X105185D01*
Y39624D01*
X106325D01*
Y39411D01*
X107485D01*
Y40159D01*
X107496Y40216D01*
X107485Y40273D01*
Y41021D01*
D02*
G37*
G36*
X288561Y40948D02*
X288330D01*
X288117Y40860D01*
X288064Y40806D01*
X281207D01*
X281154Y40860D01*
X280941Y40948D01*
X280710D01*
X280497Y40860D01*
X280386Y40749D01*
X280365D01*
X280197Y40716D01*
X280055Y40621D01*
X276352Y36917D01*
X276257Y36775D01*
X276223Y36607D01*
Y36005D01*
X276097Y35880D01*
X276033D01*
X275865Y35846D01*
X275723Y35751D01*
X275628Y35609D01*
X275594Y35441D01*
Y35284D01*
X275529Y35042D01*
Y34758D01*
X275603Y34483D01*
X275745Y34237D01*
X275946Y34036D01*
X276193Y33894D01*
X276467Y33820D01*
X276752D01*
X277026Y33894D01*
X277272Y34036D01*
X277474Y34237D01*
X277616Y34483D01*
X277689Y34758D01*
Y35042D01*
X277616Y35317D01*
X277474Y35563D01*
X277272Y35764D01*
X277100Y35864D01*
Y36425D01*
X280535Y39861D01*
X280710Y39788D01*
X280750D01*
X280798Y39671D01*
X279515Y38388D01*
X279440D01*
X279227Y38300D01*
X279064Y38137D01*
X278975Y37923D01*
Y37693D01*
X279064Y37479D01*
X279117Y37426D01*
Y36166D01*
X278892Y36036D01*
X278691Y35835D01*
X278549Y35589D01*
X278475Y35314D01*
Y35030D01*
X278549Y34755D01*
X278691Y34509D01*
X278892Y34308D01*
X279139Y34165D01*
X279413Y34092D01*
X279698D01*
X279972Y34165D01*
X280219Y34308D01*
X280420Y34509D01*
X280562Y34755D01*
X280635Y35030D01*
Y35314D01*
X280562Y35589D01*
X280420Y35835D01*
X280219Y36036D01*
X279994Y36166D01*
Y37426D01*
X280047Y37479D01*
X280135Y37693D01*
Y37768D01*
X281407Y39040D01*
X282984D01*
X283037Y38986D01*
X283250Y38898D01*
X283481D01*
X283694Y38986D01*
X283857Y39149D01*
X283946Y39363D01*
Y39593D01*
X283857Y39807D01*
X283852Y39812D01*
X283900Y39930D01*
X288064D01*
X288117Y39876D01*
X288330Y39788D01*
X288561D01*
X288774Y39876D01*
X288937Y40039D01*
X289026Y40253D01*
Y40483D01*
X288937Y40697D01*
X288774Y40860D01*
X288561Y40948D01*
D02*
G37*
G36*
X109460Y61171D02*
X108300D01*
Y59561D01*
X109460D01*
Y59981D01*
X113368D01*
X119681Y53668D01*
Y41471D01*
X119671Y41467D01*
X119508Y41304D01*
X119420Y41090D01*
Y40860D01*
X119508Y40646D01*
X119671Y40483D01*
X119885Y40395D01*
X120115D01*
X120329Y40483D01*
X120492Y40646D01*
X120580Y40860D01*
Y41090D01*
X120492Y41304D01*
X120354Y41442D01*
Y53808D01*
X120328Y53936D01*
X120255Y54046D01*
X113746Y60555D01*
X113636Y60628D01*
X113508Y60654D01*
X113508Y60654D01*
X109460D01*
Y61171D01*
D02*
G37*
G36*
X103159Y41070D02*
X102482D01*
Y40343D01*
X103159D01*
Y41070D01*
D02*
G37*
G36*
X102228D02*
X101551D01*
Y40343D01*
X102228D01*
Y41070D01*
D02*
G37*
G36*
X160467Y41811D02*
X159159D01*
Y41124D01*
X159159Y41059D01*
X159159Y40932D01*
Y40245D01*
X160467D01*
Y40932D01*
X160467Y40997D01*
X160467Y41124D01*
Y41811D01*
D02*
G37*
G36*
X115329Y41043D02*
X114427D01*
Y40141D01*
X114435D01*
X114697Y40211D01*
X114932Y40347D01*
X115123Y40538D01*
X115259Y40773D01*
X115329Y41035D01*
Y41043D01*
D02*
G37*
G36*
X114173D02*
X113271D01*
Y41035D01*
X113341Y40773D01*
X113477Y40538D01*
X113668Y40347D01*
X113903Y40211D01*
X114165Y40141D01*
X114173D01*
Y41043D01*
D02*
G37*
G36*
X261461Y41543D02*
X260153D01*
Y40898D01*
X260153Y40791D01*
X260158Y40666D01*
Y40022D01*
X261466D01*
Y40666D01*
X261466Y40774D01*
X261461Y40898D01*
Y41543D01*
D02*
G37*
G36*
X303111Y41430D02*
X302859D01*
X302616Y41365D01*
X302399Y41239D01*
X302221Y41061D01*
X302095Y40844D01*
X302030Y40601D01*
Y40349D01*
X302095Y40106D01*
X302221Y39889D01*
X302399Y39711D01*
X302616Y39585D01*
X302859Y39520D01*
X303111D01*
X303354Y39585D01*
X303571Y39711D01*
X303749Y39889D01*
X303875Y40106D01*
X303940Y40349D01*
Y40601D01*
X303875Y40844D01*
X303749Y41061D01*
X303571Y41239D01*
X303354Y41365D01*
X303111Y41430D01*
D02*
G37*
G36*
X60196Y40145D02*
X59669D01*
Y39393D01*
X60196D01*
Y40145D01*
D02*
G37*
G36*
X59415D02*
X58888D01*
Y39393D01*
X59415D01*
Y40145D01*
D02*
G37*
G36*
X103159Y40089D02*
X102482D01*
Y39362D01*
X103159D01*
Y40089D01*
D02*
G37*
G36*
X102228D02*
X101551D01*
Y39362D01*
X102228D01*
Y40089D01*
D02*
G37*
G36*
X160467Y39991D02*
X159940D01*
Y39239D01*
X160467D01*
Y39991D01*
D02*
G37*
G36*
X159686D02*
X159159D01*
Y39239D01*
X159686D01*
Y39991D01*
D02*
G37*
G36*
X261466Y39768D02*
X260939D01*
Y39016D01*
X261466D01*
Y39768D01*
D02*
G37*
G36*
X260685D02*
X260158D01*
Y39016D01*
X260685D01*
Y39768D01*
D02*
G37*
G36*
X227215Y39180D02*
X226985D01*
X226771Y39092D01*
X226608Y38929D01*
X226601Y38911D01*
X193509D01*
X193354Y39067D01*
X193140Y39155D01*
X192910D01*
X192696Y39067D01*
X192533Y38904D01*
X192445Y38690D01*
Y38460D01*
X192533Y38246D01*
X192696Y38083D01*
X192910Y37995D01*
X193140D01*
X193354Y38083D01*
X193509Y38239D01*
X226641D01*
X226771Y38108D01*
X226985Y38020D01*
X227215D01*
X227429Y38108D01*
X227592Y38271D01*
X227680Y38485D01*
Y38715D01*
X227592Y38929D01*
X227429Y39092D01*
X227215Y39180D01*
D02*
G37*
G36*
X303111Y38690D02*
X302859D01*
X302616Y38625D01*
X302399Y38499D01*
X302226Y38326D01*
X297860D01*
X297860Y38326D01*
X297634Y38281D01*
X297442Y38153D01*
X286607Y27318D01*
X286479Y27126D01*
X286434Y26900D01*
X286434Y26900D01*
Y20995D01*
X283203Y17765D01*
X283088Y17734D01*
X282932Y17644D01*
X282806Y17518D01*
X282716Y17362D01*
X282670Y17190D01*
Y17010D01*
X282716Y16838D01*
X282806Y16682D01*
X282932Y16556D01*
X283088Y16466D01*
X283260Y16420D01*
X283440D01*
X283612Y16466D01*
X283768Y16556D01*
X283894Y16682D01*
X283984Y16838D01*
X283996Y16885D01*
X287443Y20332D01*
X287443Y20332D01*
X287571Y20524D01*
X287616Y20750D01*
X287616Y20750D01*
Y26655D01*
X298105Y37144D01*
X302226D01*
X302399Y36971D01*
X302616Y36845D01*
X302859Y36780D01*
X303111D01*
X303354Y36845D01*
X303571Y36971D01*
X303749Y37149D01*
X303875Y37366D01*
X303940Y37609D01*
Y37861D01*
X303875Y38104D01*
X303749Y38321D01*
X303571Y38499D01*
X303354Y38625D01*
X303111Y38690D01*
D02*
G37*
G36*
X304249Y43064D02*
X299128D01*
X298951Y43041D01*
X298785Y42972D01*
X298643Y42863D01*
X283710Y27930D01*
X283601Y27787D01*
X283532Y27622D01*
X283509Y27445D01*
Y21704D01*
X276141Y14336D01*
X237016D01*
X236872Y14447D01*
X236615Y14553D01*
X236340Y14589D01*
X235390D01*
X235115Y14553D01*
X234858Y14447D01*
X234638Y14277D01*
X234468Y14057D01*
X234362Y13800D01*
X234326Y13525D01*
X234362Y13250D01*
X234468Y12993D01*
X234638Y12773D01*
X234858Y12603D01*
X235115Y12497D01*
X235390Y12461D01*
X236340D01*
X236615Y12497D01*
X236872Y12603D01*
X237092Y12773D01*
X237239Y12964D01*
X276425D01*
X276603Y12988D01*
X276768Y13056D01*
X276910Y13165D01*
X284680Y20935D01*
X284789Y21077D01*
X284857Y21242D01*
X284880Y21420D01*
Y27160D01*
X299412Y41692D01*
X303965D01*
X305139Y40518D01*
Y39770D01*
X305061Y39691D01*
X304935Y39474D01*
X304870Y39231D01*
Y38979D01*
X304935Y38736D01*
X305061Y38519D01*
X305239Y38341D01*
X305456Y38215D01*
X305699Y38150D01*
X305951D01*
X306194Y38215D01*
X306411Y38341D01*
X306589Y38519D01*
X306715Y38736D01*
X306780Y38979D01*
Y39231D01*
X306715Y39474D01*
X306589Y39691D01*
X306511Y39770D01*
Y40802D01*
X306487Y40979D01*
X306419Y41145D01*
X306310Y41287D01*
X304734Y42863D01*
X304592Y42972D01*
X304426Y43041D01*
X304249Y43064D01*
D02*
G37*
G36*
X109509Y67060D02*
X108349D01*
Y65450D01*
X109509D01*
Y65918D01*
X110506D01*
X122439Y53986D01*
Y39259D01*
X122283Y39104D01*
X122195Y38890D01*
Y38660D01*
X122283Y38446D01*
X122446Y38283D01*
X122546Y38242D01*
X122521Y38115D01*
X119393D01*
X119317Y38242D01*
X119380Y38393D01*
Y38624D01*
X119292Y38837D01*
X119161Y38967D01*
Y53550D01*
X119161Y53550D01*
X119136Y53679D01*
X119063Y53788D01*
X115271Y57579D01*
X115162Y57652D01*
X115034Y57678D01*
X115034Y57678D01*
X109460D01*
Y58171D01*
X108300D01*
Y56561D01*
X109460D01*
Y57005D01*
X114894D01*
X118489Y53411D01*
Y40281D01*
X118362Y40256D01*
X118342Y40304D01*
X118187Y40458D01*
Y53109D01*
X118162Y53238D01*
X118089Y53347D01*
X118089Y53347D01*
X115505Y55930D01*
X115396Y56003D01*
X115267Y56029D01*
X115267Y56029D01*
X111419D01*
X111290Y56003D01*
X111181Y55930D01*
X111181Y55930D01*
X109953Y54702D01*
X109460D01*
Y55171D01*
X108300D01*
Y53561D01*
X109460D01*
Y54029D01*
X110092D01*
X110092Y54029D01*
X110221Y54055D01*
X110330Y54128D01*
X111558Y55356D01*
X115128D01*
X117514Y52969D01*
Y40460D01*
X117358Y40304D01*
X117270Y40090D01*
Y39860D01*
X117358Y39646D01*
X117521Y39483D01*
X117735Y39395D01*
X117965D01*
X118179Y39483D01*
X118342Y39646D01*
X118362Y39694D01*
X118489Y39669D01*
Y39007D01*
X118471Y39000D01*
X118308Y38837D01*
X118220Y38624D01*
Y38393D01*
X118283Y38242D01*
X118207Y38115D01*
X116901D01*
X116850Y38242D01*
X116930Y38435D01*
Y38665D01*
X116842Y38879D01*
X116763Y38957D01*
Y51845D01*
X116730Y52013D01*
X116635Y52155D01*
X115255Y53535D01*
Y54825D01*
X113345D01*
Y52915D01*
X114635D01*
X115887Y51663D01*
Y38907D01*
X115858Y38879D01*
X115770Y38665D01*
Y38435D01*
X115850Y38242D01*
X115799Y38115D01*
X111825D01*
X111670Y38270D01*
X111457Y38359D01*
X111226D01*
X111013Y38270D01*
X110850Y38107D01*
X110762Y37894D01*
Y37663D01*
X110850Y37450D01*
X111013Y37287D01*
X111226Y37199D01*
X111457D01*
X111670Y37287D01*
X111825Y37442D01*
X140182D01*
X141312Y36312D01*
X141421Y36239D01*
X141550Y36214D01*
X141550Y36214D01*
X202904D01*
X202915Y36187D01*
X203078Y36024D01*
X203291Y35935D01*
X203522D01*
X203735Y36024D01*
X203899Y36187D01*
X203987Y36400D01*
Y36631D01*
X203899Y36844D01*
X203735Y37007D01*
X203522Y37095D01*
X203291D01*
X203078Y37007D01*
X202958Y36886D01*
X141689D01*
X140559Y38016D01*
X140450Y38089D01*
X140321Y38115D01*
X140321Y38115D01*
X123029D01*
X123004Y38242D01*
X123104Y38283D01*
X123267Y38446D01*
X123355Y38660D01*
Y38890D01*
X123267Y39104D01*
X123111Y39259D01*
Y54125D01*
X123086Y54254D01*
X123013Y54363D01*
X123013Y54363D01*
X110883Y66492D01*
X110774Y66565D01*
X110646Y66591D01*
X110646Y66591D01*
X109509D01*
Y67060D01*
D02*
G37*
G36*
X290322Y40158D02*
X290037D01*
X289763Y40084D01*
X289517Y39942D01*
X289315Y39741D01*
X289173Y39495D01*
X289100Y39220D01*
Y38936D01*
X289173Y38661D01*
X289315Y38415D01*
X289517Y38214D01*
X289763Y38072D01*
X290037Y37998D01*
X290322D01*
X290596Y38072D01*
X290843Y38214D01*
X291044Y38415D01*
X291186Y38661D01*
X291260Y38936D01*
Y39220D01*
X291186Y39495D01*
X291044Y39741D01*
X290843Y39942D01*
X290596Y40084D01*
X290322Y40158D01*
D02*
G37*
G36*
X277321Y41098D02*
X275761D01*
Y39638D01*
X275855D01*
Y38261D01*
X275878Y38084D01*
X275947Y37918D01*
X276056Y37776D01*
X276198Y37667D01*
X276363Y37599D01*
X276541Y37575D01*
X276718Y37599D01*
X276884Y37667D01*
X277026Y37776D01*
X277135Y37918D01*
X277203Y38084D01*
X277227Y38261D01*
Y39638D01*
X277321D01*
Y41098D01*
D02*
G37*
G36*
X182021Y39217D02*
X181721D01*
X181478Y39185D01*
X181252Y39091D01*
X181058Y38942D01*
X180908Y38748D01*
X180815Y38522D01*
X180783Y38279D01*
X180815Y38036D01*
X180908Y37810D01*
X181058Y37616D01*
X181252Y37467D01*
X181478Y37373D01*
X181721Y37341D01*
X182021D01*
X182264Y37373D01*
X182490Y37467D01*
X182684Y37616D01*
X182833Y37810D01*
X182927Y38036D01*
X182959Y38279D01*
X182927Y38522D01*
X182833Y38748D01*
X182684Y38942D01*
X182490Y39091D01*
X182264Y39185D01*
X182021Y39217D01*
D02*
G37*
G36*
X157257Y49095D02*
X156759D01*
X156669Y49077D01*
X156592Y49026D01*
X156541Y48950D01*
X156523Y48860D01*
Y47312D01*
X156541Y47221D01*
X156570Y47179D01*
Y39331D01*
X156345Y39201D01*
X156144Y39000D01*
X156002Y38754D01*
X155928Y38479D01*
Y38195D01*
X156002Y37920D01*
X156144Y37674D01*
X156345Y37473D01*
X156591Y37331D01*
X156866Y37257D01*
X157150D01*
X157425Y37331D01*
X157671Y37473D01*
X157872Y37674D01*
X158014Y37920D01*
X158088Y38195D01*
Y38479D01*
X158014Y38754D01*
X157872Y39000D01*
X157671Y39201D01*
X157446Y39331D01*
Y47179D01*
X157475Y47221D01*
X157493Y47312D01*
Y48860D01*
X157475Y48950D01*
X157424Y49026D01*
X157347Y49077D01*
X157257Y49095D01*
D02*
G37*
G36*
X56960Y49485D02*
X56462D01*
X56372Y49467D01*
X56296Y49416D01*
X56245Y49340D01*
X56227Y49250D01*
Y47702D01*
X56245Y47612D01*
X56273Y47570D01*
Y39226D01*
X56048Y39096D01*
X55847Y38895D01*
X55705Y38649D01*
X55631Y38374D01*
Y38090D01*
X55705Y37815D01*
X55847Y37569D01*
X56048Y37368D01*
X56295Y37226D01*
X56569Y37152D01*
X56854D01*
X57128Y37226D01*
X57375Y37368D01*
X57576Y37569D01*
X57718Y37815D01*
X57791Y38090D01*
Y38374D01*
X57718Y38649D01*
X57576Y38895D01*
X57375Y39096D01*
X57150Y39226D01*
Y47570D01*
X57178Y47612D01*
X57196Y47702D01*
Y49250D01*
X57178Y49340D01*
X57127Y49416D01*
X57051Y49467D01*
X56960Y49485D01*
D02*
G37*
G36*
X188311Y38925D02*
X188011D01*
X187768Y38893D01*
X187542Y38799D01*
X187348Y38650D01*
X187198Y38456D01*
X187105Y38230D01*
X187073Y37987D01*
X187105Y37744D01*
X187198Y37518D01*
X187348Y37324D01*
X187542Y37175D01*
X187768Y37081D01*
X188011Y37049D01*
X188311D01*
X188554Y37081D01*
X188780Y37175D01*
X188974Y37324D01*
X189123Y37518D01*
X189217Y37744D01*
X189249Y37987D01*
X189217Y38230D01*
X189123Y38456D01*
X188974Y38650D01*
X188780Y38799D01*
X188554Y38893D01*
X188311Y38925D01*
D02*
G37*
G36*
X218165Y38105D02*
X217935D01*
X217721Y38017D01*
X217558Y37854D01*
X217470Y37640D01*
Y37410D01*
X217558Y37196D01*
X217721Y37033D01*
X217935Y36945D01*
X218165D01*
X218379Y37033D01*
X218509Y37164D01*
X224266D01*
X224421Y37008D01*
X224635Y36920D01*
X224865D01*
X225079Y37008D01*
X225242Y37171D01*
X225330Y37385D01*
Y37615D01*
X225242Y37829D01*
X225079Y37992D01*
X224865Y38080D01*
X224635D01*
X224421Y37992D01*
X224266Y37836D01*
X218549D01*
X218542Y37854D01*
X218379Y38017D01*
X218165Y38105D01*
D02*
G37*
G36*
X223740Y36980D02*
X223510D01*
X223296Y36892D01*
X223133Y36729D01*
X223126Y36711D01*
X219634D01*
X219479Y36867D01*
X219265Y36955D01*
X219035D01*
X218821Y36867D01*
X218658Y36704D01*
X218570Y36490D01*
Y36260D01*
X218658Y36046D01*
X218821Y35883D01*
X219035Y35795D01*
X219265D01*
X219479Y35883D01*
X219634Y36039D01*
X223166D01*
X223296Y35908D01*
X223510Y35820D01*
X223740D01*
X223954Y35908D01*
X224117Y36071D01*
X224205Y36285D01*
Y36515D01*
X224117Y36729D01*
X223954Y36892D01*
X223740Y36980D01*
D02*
G37*
G36*
X305951Y37320D02*
X305699D01*
X305456Y37255D01*
X305239Y37129D01*
X305061Y36951D01*
X304935Y36734D01*
X304870Y36491D01*
Y36239D01*
X304935Y35996D01*
X305061Y35779D01*
X305239Y35601D01*
X305456Y35475D01*
X305699Y35410D01*
X305951D01*
X306194Y35475D01*
X306411Y35601D01*
X306589Y35779D01*
X306715Y35996D01*
X306780Y36239D01*
Y36491D01*
X306715Y36734D01*
X306589Y36951D01*
X306411Y37129D01*
X306194Y37255D01*
X305951Y37320D01*
D02*
G37*
G36*
X86982Y37159D02*
X86751D01*
X86538Y37070D01*
X86375Y36907D01*
X86287Y36694D01*
Y36463D01*
X86375Y36250D01*
X86538Y36087D01*
X86751Y35999D01*
X86982D01*
X87195Y36087D01*
X87249Y36140D01*
X139840D01*
X140890Y35090D01*
X141032Y34995D01*
X141200Y34962D01*
X155443D01*
X155496Y34908D01*
X155710Y34820D01*
X155940D01*
X156154Y34908D01*
X156232Y34987D01*
X197718D01*
X197771Y34933D01*
X197985Y34845D01*
X198215D01*
X198429Y34933D01*
X198592Y35096D01*
X198680Y35310D01*
Y35540D01*
X198592Y35754D01*
X198429Y35917D01*
X198215Y36005D01*
X197985D01*
X197771Y35917D01*
X197718Y35863D01*
X156182D01*
X156154Y35892D01*
X155940Y35980D01*
X155710D01*
X155496Y35892D01*
X155443Y35838D01*
X141382D01*
X140331Y36889D01*
X140189Y36984D01*
X140021Y37017D01*
X87249D01*
X87195Y37070D01*
X86982Y37159D01*
D02*
G37*
G36*
X65951Y38506D02*
X65720D01*
X65507Y38417D01*
X65344Y38254D01*
X65256Y38041D01*
Y37810D01*
X65344Y37597D01*
X65507Y37434D01*
X65720Y37346D01*
X65940D01*
X68328Y34957D01*
X68328Y34957D01*
X68438Y34884D01*
X68566Y34859D01*
X68566Y34859D01*
X139266D01*
X139421Y34703D01*
X139635Y34615D01*
X139865D01*
X140079Y34703D01*
X140242Y34866D01*
X140330Y35080D01*
Y35310D01*
X140242Y35524D01*
X140079Y35687D01*
X139865Y35775D01*
X139635D01*
X139421Y35687D01*
X139266Y35531D01*
X68706D01*
X66416Y37822D01*
Y38041D01*
X66327Y38254D01*
X66164Y38417D01*
X65951Y38506D01*
D02*
G37*
G36*
X6814Y36096D02*
Y34612D01*
X8298D01*
X8247Y34872D01*
X8115Y35191D01*
X7923Y35477D01*
X7679Y35721D01*
X7393Y35912D01*
X7074Y36044D01*
X6814Y36096D01*
D02*
G37*
G36*
X6314D02*
X6053Y36044D01*
X5735Y35912D01*
X5448Y35721D01*
X5204Y35477D01*
X5013Y35191D01*
X4881Y34872D01*
X4829Y34612D01*
X6314D01*
Y36096D01*
D02*
G37*
G36*
X158265Y34505D02*
X158085D01*
X157913Y34459D01*
X157826Y34409D01*
X129550D01*
X129550Y34409D01*
X129550Y34409D01*
X58499D01*
X58412Y34459D01*
X58240Y34505D01*
X58060D01*
X57888Y34459D01*
X57732Y34369D01*
X57606Y34243D01*
X57516Y34087D01*
X57470Y33915D01*
Y33735D01*
X57516Y33563D01*
X57559Y33489D01*
Y25475D01*
X57516Y25402D01*
X57470Y25229D01*
Y25050D01*
X57516Y24877D01*
X57559Y24804D01*
Y23880D01*
X52370D01*
Y22891D01*
X47840D01*
Y25855D01*
X45480D01*
Y23029D01*
X45353Y22949D01*
X45240Y22980D01*
X45060D01*
X44888Y22934D01*
X44732Y22844D01*
X44606Y22718D01*
X44516Y22562D01*
X44470Y22390D01*
Y22210D01*
X44516Y22038D01*
X44606Y21882D01*
X44732Y21756D01*
X44888Y21666D01*
X45060Y21620D01*
X45240D01*
X45353Y21651D01*
X45480Y21571D01*
Y21495D01*
X47840D01*
Y21709D01*
X52370D01*
Y20520D01*
X60230D01*
Y23880D01*
X58741D01*
Y24804D01*
X58784Y24877D01*
X58830Y25050D01*
Y25229D01*
X58784Y25402D01*
X58741Y25475D01*
Y33226D01*
X128959D01*
Y29025D01*
X128970Y28968D01*
Y28910D01*
X128992Y28856D01*
X129004Y28799D01*
X129036Y28750D01*
X129058Y28696D01*
X129099Y28655D01*
X129132Y28607D01*
X129180Y28574D01*
X129221Y28533D01*
X129275Y28511D01*
X129324Y28479D01*
X129381Y28467D01*
X129435Y28445D01*
X129493D01*
X129550Y28434D01*
X129607Y28445D01*
X129665D01*
X129719Y28467D01*
X129776Y28479D01*
X129825Y28511D01*
X129879Y28533D01*
X129920Y28574D01*
X129968Y28607D01*
X130001Y28655D01*
X130042Y28696D01*
X130064Y28750D01*
X130096Y28799D01*
X130108Y28856D01*
X130130Y28910D01*
Y28968D01*
X130141Y29025D01*
Y33226D01*
X157852D01*
X157913Y33191D01*
X158085Y33145D01*
X158265D01*
X158437Y33191D01*
X158498Y33226D01*
X259322D01*
X259395Y33184D01*
X259477Y33162D01*
X268995Y23644D01*
Y20545D01*
X278855D01*
Y24655D01*
X269656D01*
X260313Y33998D01*
X260291Y34080D01*
X260202Y34235D01*
X260075Y34362D01*
X259920Y34451D01*
X259747Y34498D01*
X259568D01*
X259395Y34451D01*
X259322Y34409D01*
X158524D01*
X158437Y34459D01*
X158265Y34505D01*
D02*
G37*
G36*
X303111Y35950D02*
X302859D01*
X302616Y35885D01*
X302399Y35759D01*
X302221Y35581D01*
X302095Y35364D01*
X302030Y35121D01*
Y34869D01*
X302095Y34626D01*
X302221Y34409D01*
X302399Y34231D01*
X302616Y34105D01*
X302859Y34040D01*
X303111D01*
X303354Y34105D01*
X303571Y34231D01*
X303749Y34409D01*
X303875Y34626D01*
X303940Y34869D01*
Y35121D01*
X303875Y35364D01*
X303749Y35581D01*
X303571Y35759D01*
X303354Y35885D01*
X303111Y35950D01*
D02*
G37*
G36*
X287617Y36155D02*
X287333D01*
X287058Y36081D01*
X286812Y35939D01*
X286611Y35738D01*
X286469Y35492D01*
X286395Y35217D01*
Y34933D01*
X286469Y34658D01*
X286611Y34412D01*
X286812Y34211D01*
X287058Y34069D01*
X287333Y33995D01*
X287617D01*
X287892Y34069D01*
X288138Y34211D01*
X288339Y34412D01*
X288481Y34658D01*
X288555Y34933D01*
Y35217D01*
X288481Y35492D01*
X288339Y35738D01*
X288138Y35939D01*
X287892Y36081D01*
X287617Y36155D01*
D02*
G37*
G36*
X228405Y53845D02*
X228153D01*
X227910Y53780D01*
X227692Y53654D01*
X227515Y53476D01*
X227389Y53258D01*
X227324Y53016D01*
Y52764D01*
X227389Y52521D01*
X227406Y52492D01*
X226537Y51624D01*
X226464Y51515D01*
X226439Y51386D01*
X226439Y51386D01*
Y50007D01*
X219693Y43261D01*
X198984D01*
X198829Y43417D01*
X198615Y43505D01*
X198385D01*
X198171Y43417D01*
X198008Y43254D01*
X197920Y43040D01*
Y42810D01*
X198008Y42596D01*
X198171Y42433D01*
X198189Y42426D01*
Y42299D01*
X198171Y42292D01*
X198008Y42129D01*
X197920Y41915D01*
Y41685D01*
X198008Y41471D01*
X198171Y41308D01*
X198385Y41220D01*
X198615D01*
X198829Y41308D01*
X198984Y41464D01*
X199229D01*
X199281Y41337D01*
X199225Y41281D01*
X199137Y41067D01*
Y40837D01*
X199225Y40624D01*
X199388Y40460D01*
X199437Y40440D01*
X199411Y40313D01*
X187415D01*
X182761Y44967D01*
X182801Y45115D01*
Y45360D01*
X182738Y45596D01*
X182615Y45808D01*
X182442Y45981D01*
X182230Y46104D01*
X181993Y46167D01*
X181749D01*
X181512Y46104D01*
X181300Y45981D01*
X181127Y45808D01*
X181004Y45596D01*
X180941Y45360D01*
Y45115D01*
X181004Y44878D01*
X181127Y44666D01*
X181300Y44493D01*
X181512Y44370D01*
X181749Y44307D01*
X181993D01*
X182141Y44347D01*
X186923Y39565D01*
X187065Y39470D01*
X187233Y39437D01*
X244293D01*
X244371Y39358D01*
X244585Y39270D01*
X244815D01*
X245029Y39358D01*
X245192Y39521D01*
X245280Y39735D01*
Y39965D01*
X245192Y40179D01*
X245029Y40342D01*
X244815Y40430D01*
X244585D01*
X244371Y40342D01*
X244343Y40313D01*
X200023D01*
X199997Y40440D01*
X200046Y40460D01*
X200201Y40616D01*
X221421D01*
X221421Y40616D01*
X221550Y40641D01*
X221659Y40714D01*
X227881Y46937D01*
X227910Y46920D01*
X228153Y46855D01*
X228405D01*
X228647Y46920D01*
X228865Y47046D01*
X229043Y47223D01*
X229169Y47441D01*
X229234Y47684D01*
Y47936D01*
X229169Y48178D01*
X229152Y48207D01*
X229658Y48714D01*
X235697D01*
X235731Y48587D01*
X235692Y48564D01*
X235515Y48386D01*
X235389Y48168D01*
X235324Y47926D01*
Y47674D01*
X235389Y47431D01*
X235515Y47214D01*
X235692Y47036D01*
X235910Y46910D01*
X236153Y46845D01*
X236405D01*
X236647Y46910D01*
X236865Y47036D01*
X237043Y47214D01*
X237169Y47431D01*
X237234Y47674D01*
Y47926D01*
X237169Y48168D01*
X237043Y48386D01*
X236865Y48564D01*
X236826Y48587D01*
X236860Y48714D01*
X245550D01*
X245550Y48714D01*
X245679Y48739D01*
X245788Y48812D01*
X246098Y49122D01*
X246103Y49120D01*
X246333D01*
X246547Y49208D01*
X246710Y49371D01*
X246798Y49585D01*
Y49815D01*
X246710Y50029D01*
X246547Y50192D01*
X246333Y50280D01*
X246103D01*
X245890Y50192D01*
X245726Y50029D01*
X245638Y49815D01*
Y49614D01*
X245411Y49386D01*
X236791D01*
X236757Y49513D01*
X236865Y49576D01*
X237043Y49754D01*
X237169Y49971D01*
X237234Y50214D01*
Y50466D01*
X237169Y50708D01*
X237043Y50926D01*
X236865Y51104D01*
X236792Y51146D01*
X236826Y51273D01*
X249826D01*
X251312Y49787D01*
X251421Y49714D01*
X251550Y49689D01*
X251550Y49689D01*
X267470D01*
X270364Y46795D01*
Y34284D01*
X270208Y34129D01*
X270120Y33915D01*
Y33685D01*
X270208Y33471D01*
X270371Y33308D01*
X270585Y33220D01*
X270815D01*
X271029Y33308D01*
X271192Y33471D01*
X271280Y33685D01*
Y33915D01*
X271192Y34129D01*
X271036Y34284D01*
Y46934D01*
X271036Y46934D01*
X271011Y47063D01*
X270938Y47172D01*
X270938Y47172D01*
X267847Y50263D01*
X267738Y50336D01*
X267609Y50361D01*
X267609Y50361D01*
X251689D01*
X250203Y51848D01*
X250094Y51921D01*
X249965Y51946D01*
X249965Y51946D01*
X236826D01*
X236792Y52073D01*
X236865Y52116D01*
X237043Y52293D01*
X237169Y52511D01*
X237234Y52754D01*
Y53006D01*
X237169Y53248D01*
X237043Y53466D01*
X236865Y53644D01*
X236647Y53770D01*
X236405Y53835D01*
X236153D01*
X235910Y53770D01*
X235692Y53644D01*
X235515Y53466D01*
X235389Y53248D01*
X235324Y53006D01*
Y52754D01*
X235389Y52511D01*
X235515Y52293D01*
X235692Y52116D01*
X235766Y52073D01*
X235732Y51946D01*
X229539D01*
X229539Y51946D01*
X229410Y51921D01*
X229301Y51848D01*
X228676Y51223D01*
X228647Y51240D01*
X228405Y51305D01*
X228153D01*
X227910Y51240D01*
X227692Y51114D01*
X227515Y50936D01*
X227389Y50718D01*
X227324Y50476D01*
Y50224D01*
X227389Y49981D01*
X227406Y49952D01*
X227221Y49768D01*
X227104Y49830D01*
X227111Y49868D01*
X227111Y49868D01*
Y51247D01*
X227881Y52017D01*
X227910Y52000D01*
X228153Y51935D01*
X228405D01*
X228647Y52000D01*
X228865Y52126D01*
X229043Y52304D01*
X229169Y52521D01*
X229234Y52764D01*
Y53016D01*
X229169Y53258D01*
X229043Y53476D01*
X228865Y53654D01*
X228647Y53780D01*
X228405Y53845D01*
D02*
G37*
G36*
X282211Y38880D02*
X281980D01*
X281767Y38792D01*
X281604Y38629D01*
X281516Y38415D01*
Y38185D01*
X281604Y37971D01*
X281708Y37867D01*
Y34331D01*
X280465Y33087D01*
X275658D01*
X275554Y33192D01*
X275340Y33280D01*
X275110D01*
X274896Y33192D01*
X274733Y33029D01*
X274645Y32815D01*
Y32585D01*
X274733Y32371D01*
X274896Y32208D01*
X275110Y32120D01*
X275340D01*
X275554Y32208D01*
X275658Y32313D01*
X280625D01*
X280773Y32342D01*
X280899Y32426D01*
X282369Y33897D01*
X282453Y34022D01*
X282483Y34170D01*
Y37867D01*
X282587Y37971D01*
X282675Y38185D01*
Y38415D01*
X282587Y38629D01*
X282424Y38792D01*
X282211Y38880D01*
D02*
G37*
G36*
X305951Y34580D02*
X305699D01*
X305456Y34515D01*
X305239Y34389D01*
X305061Y34211D01*
X304935Y33994D01*
X304870Y33751D01*
Y33499D01*
X304935Y33256D01*
X305061Y33039D01*
X305239Y32861D01*
X305456Y32735D01*
X305699Y32670D01*
X305951D01*
X306194Y32735D01*
X306411Y32861D01*
X306589Y33039D01*
X306715Y33256D01*
X306780Y33499D01*
Y33751D01*
X306715Y33994D01*
X306589Y34211D01*
X306411Y34389D01*
X306194Y34515D01*
X305951Y34580D01*
D02*
G37*
G36*
X8298Y34112D02*
X6814D01*
Y32627D01*
X7074Y32679D01*
X7393Y32811D01*
X7679Y33002D01*
X7923Y33246D01*
X8115Y33533D01*
X8247Y33851D01*
X8298Y34112D01*
D02*
G37*
G36*
X6314D02*
X4829D01*
X4881Y33851D01*
X5013Y33533D01*
X5204Y33246D01*
X5448Y33002D01*
X5735Y32811D01*
X6053Y32679D01*
X6314Y32627D01*
Y34112D01*
D02*
G37*
G36*
X37180Y36455D02*
X27320D01*
Y35590D01*
X26343D01*
X26266Y35580D01*
X26188D01*
X26112Y35560D01*
X26035Y35550D01*
X25963Y35520D01*
X25888Y35500D01*
X25820Y35461D01*
X25748Y35431D01*
X25686Y35383D01*
X25618Y35344D01*
X25563Y35289D01*
X25501Y35242D01*
X25454Y35180D01*
X25399Y35125D01*
X25360Y35057D01*
X25312Y34995D01*
X25282Y34923D01*
X25243Y34855D01*
X25223Y34780D01*
X25193Y34708D01*
X25183Y34631D01*
X25163Y34555D01*
Y34477D01*
X25153Y34400D01*
X25163Y34323D01*
Y34245D01*
X25183Y34169D01*
X25193Y34092D01*
X25223Y34020D01*
X25243Y33945D01*
X25282Y33877D01*
X25312Y33805D01*
X25360Y33743D01*
X25399Y33675D01*
X25454Y33620D01*
X25501Y33558D01*
X25563Y33511D01*
X25618Y33456D01*
X25686Y33417D01*
X25748Y33369D01*
X25820Y33339D01*
X25888Y33300D01*
X25963Y33280D01*
X26035Y33250D01*
X26112Y33240D01*
X26188Y33220D01*
X26266D01*
X26343Y33210D01*
X27320D01*
Y32345D01*
X37180D01*
Y36455D01*
D02*
G37*
G36*
X255390Y32955D02*
X255160D01*
X254946Y32867D01*
X254893Y32813D01*
X150075D01*
X149907Y32780D01*
X149765Y32685D01*
X126840Y9760D01*
X126633D01*
X126580Y9814D01*
X126367Y9902D01*
X126136D01*
X125923Y9814D01*
X125760Y9651D01*
X125671Y9437D01*
Y9207D01*
X125760Y8993D01*
X125923Y8830D01*
X126136Y8742D01*
X126367D01*
X126580Y8830D01*
X126633Y8884D01*
X127022D01*
X127190Y8917D01*
X127332Y9012D01*
X150257Y31937D01*
X254893D01*
X254946Y31883D01*
X255160Y31795D01*
X255390D01*
X255604Y31883D01*
X255767Y32046D01*
X255855Y32260D01*
Y32490D01*
X255767Y32704D01*
X255604Y32867D01*
X255390Y32955D01*
D02*
G37*
G36*
X303111Y33210D02*
X302859D01*
X302616Y33145D01*
X302399Y33019D01*
X302221Y32841D01*
X302095Y32624D01*
X302030Y32381D01*
Y32129D01*
X302095Y31886D01*
X302221Y31669D01*
X302399Y31491D01*
X302616Y31365D01*
X302859Y31300D01*
X303111D01*
X303354Y31365D01*
X303571Y31491D01*
X303749Y31669D01*
X303875Y31886D01*
X303940Y32129D01*
Y32381D01*
X303875Y32624D01*
X303749Y32841D01*
X303571Y33019D01*
X303354Y33145D01*
X303111Y33210D01*
D02*
G37*
G36*
X305951Y31840D02*
X305699D01*
X305456Y31775D01*
X305239Y31649D01*
X305061Y31471D01*
X304935Y31254D01*
X304870Y31011D01*
Y30759D01*
X304935Y30516D01*
X305061Y30299D01*
X305239Y30121D01*
X305456Y29995D01*
X305699Y29930D01*
X305951D01*
X306194Y29995D01*
X306411Y30121D01*
X306589Y30299D01*
X306715Y30516D01*
X306780Y30759D01*
Y31011D01*
X306715Y31254D01*
X306589Y31471D01*
X306411Y31649D01*
X306194Y31775D01*
X305951Y31840D01*
D02*
G37*
G36*
X304060Y30590D02*
X303135D01*
Y29665D01*
X304060D01*
Y30590D01*
D02*
G37*
G36*
X302835D02*
X301910D01*
Y29665D01*
X302835D01*
Y30590D01*
D02*
G37*
G36*
X21103Y31900D02*
X20726D01*
X20362Y31802D01*
X20036Y31614D01*
X19770Y31348D01*
X19582Y31022D01*
X19484Y30658D01*
Y30282D01*
X19542Y30067D01*
X17375Y27901D01*
X17266Y27759D01*
X17198Y27593D01*
X17174Y27416D01*
Y23338D01*
X17198Y23160D01*
X17266Y22995D01*
X17375Y22853D01*
X17517Y22744D01*
X17683Y22675D01*
X17860Y22652D01*
X18038Y22675D01*
X18203Y22744D01*
X18345Y22853D01*
X18454Y22995D01*
X18523Y23160D01*
X18546Y23338D01*
Y27132D01*
X20512Y29097D01*
X20726Y29040D01*
X21103D01*
X21466Y29137D01*
X21792Y29326D01*
X22059Y29592D01*
X22247Y29918D01*
X22344Y30282D01*
Y30658D01*
X22247Y31022D01*
X22059Y31348D01*
X21792Y31614D01*
X21466Y31802D01*
X21103Y31900D01*
D02*
G37*
G36*
X304060Y29365D02*
X303135D01*
Y28440D01*
X304060D01*
Y29365D01*
D02*
G37*
G36*
X302835D02*
X301910D01*
Y28440D01*
X302835D01*
Y29365D01*
D02*
G37*
G36*
X236340Y27364D02*
X235992D01*
Y26352D01*
X237462D01*
X237440Y26520D01*
X237326Y26794D01*
X237145Y27030D01*
X236909Y27211D01*
X236635Y27325D01*
X236340Y27364D01*
D02*
G37*
G36*
X235738D02*
X235390D01*
X235095Y27325D01*
X234821Y27211D01*
X234585Y27030D01*
X234404Y26794D01*
X234290Y26520D01*
X234268Y26352D01*
X235738D01*
Y27364D01*
D02*
G37*
G36*
X228499Y27339D02*
X228151D01*
Y26327D01*
X229621D01*
X229599Y26495D01*
X229485Y26769D01*
X229304Y27005D01*
X229068Y27186D01*
X228794Y27300D01*
X228499Y27339D01*
D02*
G37*
G36*
X227897D02*
X227549D01*
X227254Y27300D01*
X226980Y27186D01*
X226744Y27005D01*
X226563Y26769D01*
X226449Y26495D01*
X226427Y26327D01*
X227897D01*
Y27339D01*
D02*
G37*
G36*
X100360Y27380D02*
X100130D01*
X99916Y27292D01*
X99753Y27129D01*
X99665Y26915D01*
Y26840D01*
X98396Y25571D01*
X85980D01*
Y25855D01*
X83620D01*
Y23686D01*
X83225D01*
X83180Y23680D01*
X83135D01*
X83092Y23668D01*
X83047Y23663D01*
X83006Y23645D01*
X82963Y23634D01*
X82924Y23611D01*
X82882Y23594D01*
X82846Y23567D01*
X82807Y23544D01*
X82776Y23512D01*
X82740Y23485D01*
X82713Y23449D01*
X82681Y23418D01*
X82658Y23379D01*
X82631Y23343D01*
X82614Y23301D01*
X82591Y23262D01*
X82580Y23219D01*
X82562Y23178D01*
X82557Y23133D01*
X82545Y23090D01*
Y23045D01*
X82539Y23000D01*
X82545Y22955D01*
Y22910D01*
X82557Y22867D01*
X82562Y22822D01*
X82580Y22781D01*
X82591Y22738D01*
X82614Y22699D01*
X82631Y22657D01*
X82658Y22621D01*
X82681Y22582D01*
X82713Y22551D01*
X82740Y22515D01*
X82776Y22488D01*
X82807Y22456D01*
X82846Y22433D01*
X82882Y22406D01*
X82924Y22389D01*
X82963Y22366D01*
X83006Y22355D01*
X83047Y22337D01*
X83092Y22332D01*
X83135Y22320D01*
X83180D01*
X83225Y22314D01*
X83620D01*
Y21495D01*
X85980D01*
Y22339D01*
X89195D01*
Y20520D01*
X97055D01*
Y23880D01*
X89195D01*
Y23711D01*
X85980D01*
Y24694D01*
X98577D01*
X98745Y24727D01*
X98887Y24822D01*
X100285Y26220D01*
X100360D01*
X100574Y26308D01*
X100737Y26471D01*
X100825Y26685D01*
Y26915D01*
X100737Y27129D01*
X100574Y27292D01*
X100360Y27380D01*
D02*
G37*
G36*
X237462Y26098D02*
X235992D01*
Y25086D01*
X236340D01*
X236635Y25125D01*
X236909Y25239D01*
X237145Y25420D01*
X237326Y25656D01*
X237440Y25930D01*
X237462Y26098D01*
D02*
G37*
G36*
X235738D02*
X234268D01*
X234290Y25930D01*
X234404Y25656D01*
X234585Y25420D01*
X234821Y25239D01*
X235095Y25125D01*
X235390Y25086D01*
X235738D01*
Y26098D01*
D02*
G37*
G36*
X229621Y26073D02*
X228151D01*
Y25061D01*
X228499D01*
X228794Y25100D01*
X229068Y25214D01*
X229304Y25395D01*
X229485Y25631D01*
X229599Y25905D01*
X229621Y26073D01*
D02*
G37*
G36*
X227897D02*
X226427D01*
X226449Y25905D01*
X226563Y25631D01*
X226744Y25395D01*
X226980Y25214D01*
X227254Y25100D01*
X227549Y25061D01*
X227897D01*
Y26073D01*
D02*
G37*
G36*
X304617Y24655D02*
X304555D01*
Y22655D01*
X306555D01*
Y22717D01*
X306472Y23132D01*
X306310Y23523D01*
X306075Y23876D01*
X305776Y24175D01*
X305423Y24410D01*
X305032Y24572D01*
X304617Y24655D01*
D02*
G37*
G36*
X304255D02*
X304193D01*
X303778Y24572D01*
X303387Y24410D01*
X303034Y24175D01*
X302735Y23876D01*
X302500Y23523D01*
X302338Y23132D01*
X302255Y22717D01*
Y22655D01*
X304255D01*
Y24655D01*
D02*
G37*
G36*
X213440Y29055D02*
X213210D01*
X212996Y28967D01*
X212833Y28804D01*
X212745Y28591D01*
Y28360D01*
X212833Y28147D01*
X212996Y27984D01*
X213210Y27895D01*
X213429D01*
X217902Y23422D01*
X217902Y23422D01*
X218012Y23349D01*
X218140Y23324D01*
X226546D01*
X226627Y23128D01*
X226797Y22908D01*
X227017Y22738D01*
X227274Y22632D01*
X227549Y22596D01*
X228499D01*
X228774Y22632D01*
X229031Y22738D01*
X229251Y22908D01*
X229420Y23128D01*
X229501Y23324D01*
X234398D01*
X234468Y23153D01*
X234638Y22933D01*
X234858Y22763D01*
X235115Y22657D01*
X235390Y22621D01*
X236340D01*
X236615Y22657D01*
X236872Y22763D01*
X237092Y22933D01*
X237262Y23153D01*
X237368Y23410D01*
X237404Y23685D01*
X237368Y23960D01*
X237262Y24217D01*
X237092Y24437D01*
X236872Y24607D01*
X236615Y24713D01*
X236340Y24749D01*
X235390D01*
X235115Y24713D01*
X234858Y24607D01*
X234638Y24437D01*
X234468Y24217D01*
X234377Y23996D01*
X229501D01*
X229420Y24192D01*
X229251Y24412D01*
X229031Y24582D01*
X228774Y24688D01*
X228499Y24724D01*
X227549D01*
X227274Y24688D01*
X227017Y24582D01*
X226797Y24412D01*
X226627Y24192D01*
X226546Y23996D01*
X218280D01*
X213905Y28371D01*
Y28591D01*
X213817Y28804D01*
X213654Y28967D01*
X213440Y29055D01*
D02*
G37*
G36*
X105083Y26449D02*
X104903D01*
X104731Y26403D01*
X104575Y26313D01*
X104449Y26187D01*
X104359Y26031D01*
X104313Y25859D01*
Y25855D01*
X102670D01*
Y23111D01*
X101900D01*
X101722Y23087D01*
X101557Y23019D01*
X101415Y22910D01*
X99665Y21160D01*
X99638Y21124D01*
X99606Y21093D01*
X99583Y21054D01*
X99556Y21018D01*
X99539Y20976D01*
X99516Y20937D01*
X99505Y20894D01*
X99488Y20853D01*
X99482Y20808D01*
X99470Y20765D01*
Y20720D01*
X99464Y20675D01*
X99470Y20630D01*
Y20585D01*
X99482Y20542D01*
X99488Y20497D01*
X99505Y20456D01*
X99516Y20413D01*
X99539Y20374D01*
X99556Y20332D01*
X99583Y20296D01*
X99606Y20257D01*
X99638Y20226D01*
X99665Y20190D01*
X99701Y20163D01*
X99732Y20131D01*
X99771Y20108D01*
X99807Y20081D01*
X99849Y20064D01*
X99888Y20041D01*
X99931Y20030D01*
X99972Y20013D01*
X100017Y20007D01*
X100060Y19995D01*
X100105D01*
X100150Y19989D01*
X100195Y19995D01*
X100240D01*
X100283Y20007D01*
X100328Y20013D01*
X100369Y20030D01*
X100412Y20041D01*
X100451Y20064D01*
X100493Y20081D01*
X100529Y20108D01*
X100568Y20131D01*
X100599Y20163D01*
X100635Y20190D01*
X102184Y21739D01*
X102670D01*
Y21495D01*
X105030D01*
Y25089D01*
X105083D01*
X105255Y25135D01*
X105411Y25225D01*
X105537Y25351D01*
X105627Y25507D01*
X105673Y25679D01*
Y25859D01*
X105627Y26031D01*
X105537Y26187D01*
X105411Y26313D01*
X105255Y26403D01*
X105083Y26449D01*
D02*
G37*
G36*
X71625Y32461D02*
X71580Y32455D01*
X71535D01*
X71492Y32443D01*
X71447Y32438D01*
X71406Y32420D01*
X71363Y32409D01*
X71324Y32386D01*
X71282Y32369D01*
X71246Y32342D01*
X71207Y32319D01*
X71176Y32287D01*
X71140Y32260D01*
X65938Y27058D01*
X65829Y26916D01*
X65761Y26751D01*
X65737Y26573D01*
Y25855D01*
X64970D01*
Y23393D01*
X64150D01*
X64106Y23388D01*
X64061D01*
X64017Y23376D01*
X63973Y23370D01*
X63931Y23353D01*
X63888Y23341D01*
X63849Y23319D01*
X63807Y23302D01*
X63771Y23274D01*
X63733Y23252D01*
X63701Y23220D01*
X63665Y23193D01*
X63638Y23157D01*
X63606Y23125D01*
X63583Y23086D01*
X63556Y23050D01*
X63539Y23009D01*
X63516Y22970D01*
X63505Y22927D01*
X63488Y22885D01*
X63482Y22840D01*
X63470Y22797D01*
Y22752D01*
X63464Y22708D01*
X63470Y22663D01*
Y22618D01*
X63482Y22575D01*
X63488Y22530D01*
X63505Y22488D01*
X63516Y22445D01*
X63539Y22406D01*
X63556Y22365D01*
X63583Y22329D01*
X63606Y22290D01*
X63638Y22258D01*
X63665Y22223D01*
X63701Y22195D01*
X63733Y22163D01*
X63771Y22141D01*
X63807Y22114D01*
X63849Y22096D01*
X63888Y22074D01*
X63931Y22062D01*
X63973Y22045D01*
X64017Y22039D01*
X64061Y22028D01*
X64106D01*
X64150Y22022D01*
X64970D01*
Y21495D01*
X67330D01*
Y22022D01*
X71645D01*
Y20520D01*
X79505D01*
Y23880D01*
X71645D01*
Y23393D01*
X67330D01*
Y25855D01*
X67109D01*
Y26289D01*
X72110Y31290D01*
X72137Y31326D01*
X72169Y31357D01*
X72192Y31396D01*
X72219Y31432D01*
X72236Y31474D01*
X72259Y31513D01*
X72270Y31556D01*
X72287Y31597D01*
X72293Y31642D01*
X72305Y31685D01*
Y31730D01*
X72311Y31775D01*
X72305Y31820D01*
Y31865D01*
X72293Y31908D01*
X72287Y31953D01*
X72270Y31994D01*
X72259Y32037D01*
X72236Y32076D01*
X72219Y32118D01*
X72192Y32154D01*
X72169Y32193D01*
X72137Y32224D01*
X72110Y32260D01*
X72074Y32287D01*
X72043Y32319D01*
X72004Y32342D01*
X71968Y32369D01*
X71926Y32386D01*
X71887Y32409D01*
X71844Y32420D01*
X71803Y32438D01*
X71758Y32443D01*
X71715Y32455D01*
X71670D01*
X71625Y32461D01*
D02*
G37*
G36*
X306555Y22355D02*
X304555D01*
Y20355D01*
X304617D01*
X305032Y20438D01*
X305423Y20600D01*
X305776Y20835D01*
X306075Y21134D01*
X306310Y21487D01*
X306472Y21878D01*
X306555Y22293D01*
Y22355D01*
D02*
G37*
G36*
X304255D02*
X302255D01*
Y22293D01*
X302338Y21878D01*
X302500Y21487D01*
X302735Y21134D01*
X303034Y20835D01*
X303387Y20600D01*
X303778Y20438D01*
X304193Y20355D01*
X304255D01*
Y22355D01*
D02*
G37*
G36*
X195627Y21641D02*
X195422D01*
X195223Y21588D01*
X195045Y21485D01*
X194900Y21340D01*
X194797Y21162D01*
X194744Y20964D01*
Y20759D01*
X194797Y20560D01*
X194900Y20382D01*
X195045Y20237D01*
X195223Y20134D01*
X195422Y20081D01*
X195627D01*
X195825Y20134D01*
X196003Y20237D01*
X196148Y20382D01*
X196251Y20560D01*
X196304Y20759D01*
Y20964D01*
X196251Y21162D01*
X196148Y21340D01*
X196003Y21485D01*
X195825Y21588D01*
X195627Y21641D01*
D02*
G37*
G36*
X209605Y29555D02*
X209375D01*
X209161Y29467D01*
X208998Y29304D01*
X208910Y29091D01*
Y28860D01*
X208998Y28647D01*
X209161Y28484D01*
X209375Y28395D01*
X209594D01*
X217107Y20882D01*
X217107Y20882D01*
X217217Y20809D01*
X217345Y20784D01*
X217345Y20784D01*
X226546D01*
X226627Y20588D01*
X226797Y20368D01*
X227017Y20198D01*
X227274Y20092D01*
X227549Y20056D01*
X228499D01*
X228774Y20092D01*
X229031Y20198D01*
X229251Y20368D01*
X229420Y20588D01*
X229501Y20784D01*
X234398D01*
X234468Y20613D01*
X234638Y20393D01*
X234858Y20223D01*
X235115Y20117D01*
X235390Y20081D01*
X236340D01*
X236615Y20117D01*
X236872Y20223D01*
X237092Y20393D01*
X237262Y20613D01*
X237368Y20870D01*
X237404Y21145D01*
X237368Y21420D01*
X237262Y21677D01*
X237092Y21897D01*
X236872Y22067D01*
X236615Y22173D01*
X236340Y22209D01*
X235390D01*
X235115Y22173D01*
X234858Y22067D01*
X234638Y21897D01*
X234468Y21677D01*
X234377Y21456D01*
X229501D01*
X229420Y21652D01*
X229251Y21872D01*
X229031Y22042D01*
X228774Y22148D01*
X228499Y22184D01*
X227549D01*
X227274Y22148D01*
X227017Y22042D01*
X226797Y21872D01*
X226627Y21652D01*
X226546Y21456D01*
X217485D01*
X210070Y28871D01*
Y29091D01*
X209982Y29304D01*
X209819Y29467D01*
X209605Y29555D01*
D02*
G37*
G36*
X37180Y30205D02*
X27320D01*
Y26095D01*
X30935D01*
Y25166D01*
X27195D01*
Y23426D01*
X26219D01*
X25911Y23385D01*
X25624Y23267D01*
X25378Y23077D01*
X20453Y18153D01*
X12696D01*
X12450Y18295D01*
X12336Y18326D01*
Y18914D01*
X13259Y19837D01*
X18831D01*
X18999Y19870D01*
X19141Y19965D01*
X21934Y22758D01*
X22010D01*
X22223Y22846D01*
X22386Y23009D01*
X22474Y23222D01*
Y23453D01*
X22386Y23666D01*
X22223Y23830D01*
X22010Y23918D01*
X21779D01*
X21566Y23830D01*
X21403Y23666D01*
X21314Y23453D01*
Y23378D01*
X18650Y20713D01*
X13077D01*
X12909Y20680D01*
X12767Y20585D01*
X11588Y19406D01*
X11493Y19264D01*
X11459Y19096D01*
Y18326D01*
X11346Y18295D01*
X11020Y18107D01*
X10754Y17841D01*
X10565Y17515D01*
X10468Y17151D01*
Y16774D01*
X10565Y16411D01*
X10708Y16164D01*
Y13527D01*
X10748Y13219D01*
X10867Y12932D01*
X11056Y12686D01*
X13858Y9883D01*
X14105Y9694D01*
X14392Y9575D01*
X14700Y9535D01*
X20066D01*
X20089Y9504D01*
X20260Y9373D01*
X20459Y9291D01*
X20673Y9263D01*
X21948D01*
X22161Y9291D01*
X22360Y9373D01*
X22531Y9504D01*
X22662Y9675D01*
X22744Y9874D01*
X22772Y10087D01*
Y11363D01*
X22744Y11576D01*
X22662Y11775D01*
X22531Y11946D01*
X22360Y12077D01*
X22161Y12159D01*
X21948Y12187D01*
X20673D01*
X20459Y12159D01*
X20260Y12077D01*
X20089Y11946D01*
X20066Y11915D01*
X15193D01*
X13088Y14020D01*
Y15772D01*
X20946D01*
X21254Y15813D01*
X21541Y15932D01*
X21788Y16121D01*
X26712Y21046D01*
X31250D01*
X31327Y21056D01*
X37055D01*
Y25166D01*
X33315D01*
Y26095D01*
X37180D01*
Y30205D01*
D02*
G37*
G36*
X179873Y18629D02*
X179121D01*
Y18102D01*
X179873D01*
Y18629D01*
D02*
G37*
G36*
X105104Y19706D02*
X104100D01*
Y17702D01*
X105104D01*
Y19706D01*
D02*
G37*
G36*
X103600D02*
X102596D01*
Y17702D01*
X103600D01*
Y19706D01*
D02*
G37*
G36*
X67404D02*
X66400D01*
Y17702D01*
X67404D01*
Y19706D01*
D02*
G37*
G36*
X65900D02*
X64896D01*
Y17702D01*
X65900D01*
Y19706D01*
D02*
G37*
G36*
X47914D02*
X46910D01*
Y17702D01*
X47914D01*
Y19706D01*
D02*
G37*
G36*
X46410D02*
X45406D01*
Y17702D01*
X46410D01*
Y19706D01*
D02*
G37*
G36*
X86054D02*
X85050D01*
Y17702D01*
X86054D01*
Y19706D01*
D02*
G37*
G36*
X84550D02*
X83546D01*
Y17702D01*
X84550D01*
Y19706D01*
D02*
G37*
G36*
X180879Y17848D02*
X180127D01*
Y17321D01*
X180879D01*
Y17848D01*
D02*
G37*
G36*
X179873D02*
X179121D01*
Y17321D01*
X179873D01*
Y17848D01*
D02*
G37*
G36*
X6814Y18697D02*
Y17213D01*
X8298D01*
X8247Y17473D01*
X8115Y17792D01*
X7923Y18078D01*
X7679Y18322D01*
X7393Y18513D01*
X7074Y18645D01*
X6814Y18697D01*
D02*
G37*
G36*
X6314D02*
X6053Y18645D01*
X5735Y18513D01*
X5448Y18322D01*
X5204Y18078D01*
X5013Y17792D01*
X4881Y17473D01*
X4829Y17213D01*
X6314D01*
Y18697D01*
D02*
G37*
G36*
X186620Y17675D02*
X185868D01*
Y17148D01*
X186620D01*
Y17675D01*
D02*
G37*
G36*
X185614D02*
X184862D01*
Y17148D01*
X185614D01*
Y17675D01*
D02*
G37*
G36*
X148802Y17682D02*
X148518D01*
X148243Y17609D01*
X147997Y17466D01*
X147796Y17265D01*
X147666Y17041D01*
X142903D01*
X142850Y17094D01*
X142637Y17182D01*
X142406D01*
X142193Y17094D01*
X142030Y16931D01*
X141941Y16717D01*
Y16487D01*
X142030Y16273D01*
X142193Y16110D01*
X142406Y16022D01*
X142637D01*
X142850Y16110D01*
X142903Y16164D01*
X147666D01*
X147796Y15939D01*
X147997Y15738D01*
X148243Y15596D01*
X148349Y15567D01*
X148332Y15440D01*
X142868D01*
X142815Y15494D01*
X142602Y15582D01*
X142371D01*
X142158Y15494D01*
X141995Y15331D01*
X141906Y15117D01*
Y14887D01*
X141995Y14673D01*
X142158Y14510D01*
X142371Y14422D01*
X142602D01*
X142815Y14510D01*
X142868Y14564D01*
X148162D01*
X148196Y14437D01*
X147997Y14321D01*
X147796Y14120D01*
X147666Y13896D01*
X142868D01*
X142815Y13949D01*
X142602Y14037D01*
X142371D01*
X142158Y13949D01*
X141995Y13786D01*
X141906Y13573D01*
Y13342D01*
X141995Y13129D01*
X142158Y12965D01*
X142371Y12877D01*
X142602D01*
X142815Y12965D01*
X142868Y13019D01*
X147666D01*
X147796Y12794D01*
X147997Y12593D01*
X148243Y12451D01*
X148461Y12392D01*
X148444Y12265D01*
X142903D01*
X142850Y12319D01*
X142637Y12407D01*
X142406D01*
X142193Y12319D01*
X142030Y12156D01*
X141941Y11942D01*
Y11712D01*
X142030Y11498D01*
X142193Y11335D01*
X142406Y11247D01*
X142637D01*
X142850Y11335D01*
X142903Y11389D01*
X149481D01*
X149611Y11164D01*
X149812Y10963D01*
X149951Y10882D01*
X149917Y10755D01*
X142903D01*
X142850Y10809D01*
X142637Y10897D01*
X142406D01*
X142193Y10809D01*
X142030Y10646D01*
X141941Y10432D01*
Y10202D01*
X142030Y9988D01*
X142193Y9825D01*
X142406Y9737D01*
X142637D01*
X142850Y9825D01*
X142903Y9879D01*
X148294D01*
X148311Y9752D01*
X148243Y9733D01*
X147997Y9591D01*
X147796Y9390D01*
X147666Y9165D01*
X142903D01*
X142850Y9219D01*
X142637Y9307D01*
X142406D01*
X142193Y9219D01*
X142030Y9056D01*
X141941Y8842D01*
Y8612D01*
X142030Y8398D01*
X142193Y8235D01*
X142406Y8147D01*
X142637D01*
X142850Y8235D01*
X142903Y8289D01*
X147666D01*
X147796Y8064D01*
X147997Y7863D01*
X148243Y7721D01*
X148518Y7647D01*
X148802D01*
X149077Y7721D01*
X149323Y7863D01*
X149524Y8064D01*
X149666Y8310D01*
X149740Y8585D01*
Y8869D01*
X149666Y9144D01*
X149524Y9390D01*
X149323Y9591D01*
X149077Y9733D01*
X149009Y9752D01*
X149026Y9879D01*
X151877D01*
X152007Y9654D01*
X152208Y9453D01*
X152455Y9311D01*
X152729Y9237D01*
X153014D01*
X153288Y9311D01*
X153535Y9453D01*
X153736Y9654D01*
X153878Y9900D01*
X153951Y10175D01*
Y10459D01*
X153878Y10734D01*
X153736Y10980D01*
X153535Y11181D01*
X153288Y11323D01*
X153146Y11362D01*
X153163Y11489D01*
X157341D01*
X157496Y11333D01*
X157710Y11245D01*
X157940D01*
X158154Y11333D01*
X158317Y11496D01*
X158405Y11710D01*
Y11940D01*
X158317Y12154D01*
X158154Y12317D01*
X157940Y12405D01*
X157710D01*
X157496Y12317D01*
X157341Y12161D01*
X151504D01*
X151482Y12244D01*
X151339Y12490D01*
X151138Y12691D01*
X150892Y12833D01*
X150617Y12907D01*
X150333D01*
X150058Y12833D01*
X149812Y12691D01*
X149611Y12490D01*
X149481Y12265D01*
X148876D01*
X148859Y12392D01*
X149077Y12451D01*
X149323Y12593D01*
X149524Y12794D01*
X149666Y13040D01*
X149740Y13315D01*
Y13599D01*
X149666Y13874D01*
X149524Y14120D01*
X149323Y14321D01*
X149124Y14437D01*
X149158Y14564D01*
X149689D01*
X149818Y14339D01*
X150020Y14138D01*
X150266Y13996D01*
X150541Y13922D01*
X150825D01*
X151100Y13996D01*
X151172Y14037D01*
X152397Y12812D01*
X152397Y12812D01*
X152506Y12739D01*
X152635Y12714D01*
X159741D01*
X159896Y12558D01*
X160110Y12470D01*
X160340D01*
X160554Y12558D01*
X160717Y12721D01*
X160805Y12935D01*
Y13165D01*
X160717Y13379D01*
X160554Y13542D01*
X160340Y13630D01*
X160110D01*
X159896Y13542D01*
X159741Y13386D01*
X152774D01*
X151647Y14513D01*
X151689Y14585D01*
X151763Y14860D01*
Y15144D01*
X151689Y15419D01*
X151547Y15665D01*
X151346Y15866D01*
X151100Y16008D01*
X150825Y16082D01*
X150541D01*
X150266Y16008D01*
X150020Y15866D01*
X149818Y15665D01*
X149689Y15440D01*
X148988D01*
X148971Y15567D01*
X149077Y15596D01*
X149323Y15738D01*
X149524Y15939D01*
X149666Y16185D01*
X149740Y16460D01*
Y16744D01*
X149666Y17019D01*
X149524Y17265D01*
X149323Y17466D01*
X149077Y17609D01*
X148802Y17682D01*
D02*
G37*
G36*
X186620Y16894D02*
X185741D01*
X184862D01*
Y16367D01*
X184862D01*
Y16102D01*
X185741D01*
X186620D01*
Y16629D01*
X186620D01*
Y16894D01*
D02*
G37*
G36*
X205440Y30380D02*
X205210D01*
X204996Y30292D01*
X204833Y30129D01*
X204745Y29915D01*
Y29685D01*
X204833Y29471D01*
X204996Y29308D01*
X205014Y29301D01*
Y20139D01*
X201636Y16761D01*
X199583D01*
X199454Y16736D01*
X199345Y16663D01*
X199345Y16663D01*
X195019Y12336D01*
X191089D01*
X189213Y14213D01*
X189104Y14286D01*
X188975Y14312D01*
X188975Y14312D01*
X186704D01*
Y14490D01*
X186616Y14704D01*
X186453Y14867D01*
X186240Y14955D01*
X186009D01*
X185796Y14867D01*
X185632Y14704D01*
X185571Y14555D01*
X184936D01*
Y13395D01*
X186546D01*
Y13639D01*
X188836D01*
X190712Y11762D01*
X190712Y11762D01*
X190821Y11689D01*
X190950Y11664D01*
X195158D01*
X195158Y11664D01*
X195287Y11689D01*
X195396Y11762D01*
X199723Y16089D01*
X201775D01*
X201775Y16089D01*
X201904Y16114D01*
X202013Y16187D01*
X205588Y19762D01*
X205588Y19762D01*
X205661Y19871D01*
X205686Y20000D01*
X205686Y20000D01*
Y29341D01*
X205817Y29471D01*
X205905Y29685D01*
Y29915D01*
X205817Y30129D01*
X205654Y30292D01*
X205440Y30380D01*
D02*
G37*
G36*
X186620Y15848D02*
X185868D01*
Y15321D01*
X186620D01*
Y15848D01*
D02*
G37*
G36*
X185614D02*
X184862D01*
Y15321D01*
X185614D01*
Y15848D01*
D02*
G37*
G36*
X110620Y31956D02*
X86294D01*
X86126Y31923D01*
X85984Y31828D01*
X83274Y29119D01*
X83199D01*
X82986Y29030D01*
X82823Y28867D01*
X82735Y28654D01*
Y28423D01*
X82823Y28210D01*
X82986Y28047D01*
X83199Y27959D01*
X83430D01*
X83643Y28047D01*
X83806Y28210D01*
X83895Y28423D01*
Y28499D01*
X86475Y31079D01*
X110438D01*
X125671Y15846D01*
Y15771D01*
X125760Y15558D01*
X125923Y15394D01*
X126136Y15306D01*
X126367D01*
X126580Y15394D01*
X126743Y15558D01*
X126831Y15771D01*
Y16002D01*
X126743Y16215D01*
X126580Y16378D01*
X126367Y16466D01*
X126291D01*
X110930Y31828D01*
X110788Y31923D01*
X110620Y31956D01*
D02*
G37*
G36*
X192787Y19059D02*
X191177D01*
Y17899D01*
X191544D01*
Y17729D01*
X191177D01*
Y16569D01*
X191374D01*
X191445Y16463D01*
X191434Y16438D01*
Y16227D01*
X191515Y16032D01*
X191617Y15930D01*
X191564Y15803D01*
X191103D01*
Y15276D01*
X191982D01*
X192861D01*
Y15803D01*
X192364D01*
X192311Y15930D01*
X192413Y16032D01*
X192494Y16227D01*
Y16438D01*
X192483Y16463D01*
X192554Y16569D01*
X192787D01*
Y17729D01*
X192421D01*
Y17899D01*
X192787D01*
Y19059D01*
D02*
G37*
G36*
X8298Y16713D02*
X6814D01*
Y15228D01*
X7074Y15280D01*
X7393Y15412D01*
X7679Y15603D01*
X7923Y15847D01*
X8115Y16134D01*
X8247Y16452D01*
X8298Y16713D01*
D02*
G37*
G36*
X6314D02*
X4829D01*
X4881Y16452D01*
X5013Y16134D01*
X5204Y15847D01*
X5448Y15603D01*
X5735Y15412D01*
X6053Y15280D01*
X6314Y15228D01*
Y16713D01*
D02*
G37*
G36*
X195627Y16761D02*
X195422D01*
X195223Y16708D01*
X195045Y16605D01*
X194900Y16460D01*
X194797Y16282D01*
X194744Y16084D01*
Y15879D01*
X194797Y15680D01*
X194900Y15502D01*
X195045Y15357D01*
X195223Y15254D01*
X195422Y15201D01*
X195627D01*
X195825Y15254D01*
X196003Y15357D01*
X196148Y15502D01*
X196251Y15680D01*
X196304Y15879D01*
Y16084D01*
X196251Y16282D01*
X196148Y16460D01*
X196003Y16605D01*
X195825Y16708D01*
X195627Y16761D01*
D02*
G37*
G36*
X105104Y17202D02*
X104100D01*
Y15198D01*
X105104D01*
Y17202D01*
D02*
G37*
G36*
X103600D02*
X102596D01*
Y15198D01*
X103600D01*
Y17202D01*
D02*
G37*
G36*
X86054Y17202D02*
X85050D01*
Y15198D01*
X86054D01*
Y17202D01*
D02*
G37*
G36*
X84550D02*
X83546D01*
Y15198D01*
X84550D01*
Y17202D01*
D02*
G37*
G36*
X67404Y17202D02*
X66400D01*
Y15198D01*
X67404D01*
Y17202D01*
D02*
G37*
G36*
X65900D02*
X64896D01*
Y15198D01*
X65900D01*
Y17202D01*
D02*
G37*
G36*
X47914Y17202D02*
X46910D01*
Y15198D01*
X47914D01*
Y17202D01*
D02*
G37*
G36*
X46410D02*
X45406D01*
Y15198D01*
X46410D01*
Y17202D01*
D02*
G37*
G36*
X192861Y15022D02*
X192109D01*
Y14495D01*
X192861D01*
Y15022D01*
D02*
G37*
G36*
X191855D02*
X191103D01*
Y14495D01*
X191855D01*
Y15022D01*
D02*
G37*
G36*
X180724Y14621D02*
X180197D01*
Y13869D01*
X180724D01*
Y14621D01*
D02*
G37*
G36*
X182661Y14621D02*
X182134D01*
Y13869D01*
X182661D01*
Y14621D01*
D02*
G37*
G36*
X86519Y30355D02*
X86288D01*
X86075Y30267D01*
X85912Y30104D01*
X85824Y29890D01*
Y29660D01*
X85912Y29446D01*
X86075Y29283D01*
X86288Y29195D01*
X86519D01*
X86732Y29283D01*
X86835Y29387D01*
X109743D01*
X125173Y13957D01*
X125316Y13862D01*
X125483Y13828D01*
X125870D01*
X125923Y13775D01*
X126136Y13687D01*
X126367D01*
X126580Y13775D01*
X126743Y13938D01*
X126831Y14151D01*
Y14382D01*
X126743Y14595D01*
X126580Y14758D01*
X126367Y14847D01*
X126136D01*
X125923Y14758D01*
X125870Y14705D01*
X125665D01*
X110235Y30135D01*
X110093Y30230D01*
X109925Y30263D01*
X86735D01*
X86732Y30267D01*
X86519Y30355D01*
D02*
G37*
G36*
X307588Y15910D02*
X307212D01*
X306848Y15812D01*
X306522Y15624D01*
X306256Y15358D01*
X306067Y15032D01*
X305970Y14668D01*
Y14291D01*
X306067Y13928D01*
X306256Y13602D01*
X306522Y13335D01*
X306848Y13147D01*
X307212Y13050D01*
X307588D01*
X307952Y13147D01*
X308278Y13335D01*
X308544Y13602D01*
X308733Y13928D01*
X308830Y14291D01*
Y14668D01*
X308733Y15032D01*
X308544Y15358D01*
X308278Y15624D01*
X307952Y15812D01*
X307588Y15910D01*
D02*
G37*
G36*
X304193D02*
X303816D01*
X303453Y15812D01*
X303127Y15624D01*
X302860Y15358D01*
X302672Y15032D01*
X302575Y14668D01*
Y14291D01*
X302672Y13928D01*
X302860Y13602D01*
X303127Y13335D01*
X303453Y13147D01*
X303816Y13050D01*
X304193D01*
X304557Y13147D01*
X304883Y13335D01*
X305149Y13602D01*
X305337Y13928D01*
X305435Y14291D01*
Y14668D01*
X305337Y15032D01*
X305149Y15358D01*
X304883Y15624D01*
X304557Y15812D01*
X304193Y15910D01*
D02*
G37*
G36*
X182661Y13615D02*
X182134D01*
Y12863D01*
X182661D01*
Y13615D01*
D02*
G37*
G36*
X181505Y14621D02*
X180978D01*
Y13742D01*
Y12863D01*
X181353D01*
Y12863D01*
X181880D01*
Y13742D01*
X182007D01*
D01*
X181880D01*
Y14621D01*
X181505D01*
Y14621D01*
D02*
G37*
G36*
X145740Y32505D02*
X145510D01*
X145296Y32417D01*
X145133Y32254D01*
X145045Y32040D01*
Y31990D01*
X126211Y13157D01*
X126136D01*
X125923Y13069D01*
X125760Y12905D01*
X125671Y12692D01*
Y12461D01*
X125760Y12248D01*
X125923Y12085D01*
X126136Y11997D01*
X126367D01*
X126580Y12085D01*
X126743Y12248D01*
X126831Y12461D01*
Y12537D01*
X145640Y31345D01*
X145740D01*
X145954Y31433D01*
X146117Y31596D01*
X146205Y31810D01*
Y32040D01*
X146117Y32254D01*
X145954Y32417D01*
X145740Y32505D01*
D02*
G37*
G36*
X147890Y32355D02*
X147660D01*
X147446Y32267D01*
X147283Y32104D01*
X147195Y31890D01*
Y31815D01*
X126750Y11370D01*
X126633D01*
X126580Y11424D01*
X126367Y11512D01*
X126136D01*
X125923Y11424D01*
X125760Y11261D01*
X125671Y11047D01*
Y10817D01*
X125760Y10603D01*
X125923Y10440D01*
X126136Y10352D01*
X126367D01*
X126580Y10440D01*
X126633Y10494D01*
X126932D01*
X127100Y10527D01*
X127242Y10622D01*
X147815Y31195D01*
X147890D01*
X148104Y31283D01*
X148267Y31446D01*
X148355Y31660D01*
Y31890D01*
X148267Y32104D01*
X148104Y32267D01*
X147890Y32355D01*
D02*
G37*
G36*
X26545Y12300D02*
X26540D01*
Y10875D01*
X27965D01*
Y10880D01*
X27904Y11184D01*
X27786Y11471D01*
X27613Y11729D01*
X27394Y11948D01*
X27136Y12121D01*
X26849Y12239D01*
X26545Y12300D01*
D02*
G37*
G36*
X26240D02*
X26235D01*
X25931Y12239D01*
X25644Y12121D01*
X25386Y11948D01*
X25167Y11729D01*
X24994Y11471D01*
X24876Y11184D01*
X24815Y10880D01*
Y10875D01*
X26240D01*
Y12300D01*
D02*
G37*
G36*
X79505Y18880D02*
X71645D01*
Y15520D01*
X74939D01*
Y13855D01*
X74445D01*
Y12118D01*
X71350D01*
X71305Y12113D01*
X71260D01*
X71217Y12101D01*
X71172Y12095D01*
X71131Y12078D01*
X71088Y12066D01*
X71049Y12044D01*
X71007Y12027D01*
X70971Y11999D01*
X70932Y11977D01*
X70901Y11945D01*
X70865Y11918D01*
X70838Y11882D01*
X70806Y11850D01*
X70783Y11811D01*
X70756Y11775D01*
X70739Y11734D01*
X70716Y11695D01*
X70705Y11652D01*
X70688Y11610D01*
X70682Y11565D01*
X70670Y11522D01*
Y11477D01*
X70664Y11433D01*
X70670Y11388D01*
Y11343D01*
X70682Y11300D01*
X70688Y11255D01*
X70705Y11214D01*
X70716Y11170D01*
X70739Y11131D01*
X70756Y11090D01*
X70783Y11054D01*
X70806Y11015D01*
X70838Y10983D01*
X70865Y10948D01*
X70901Y10920D01*
X70932Y10888D01*
X70971Y10866D01*
X71007Y10839D01*
X71049Y10821D01*
X71088Y10799D01*
X71131Y10787D01*
X71172Y10770D01*
X71217Y10764D01*
X71260Y10753D01*
X71305D01*
X71350Y10747D01*
X74445D01*
Y9495D01*
X76805D01*
Y13855D01*
X76311D01*
Y15520D01*
X79505D01*
Y18880D01*
D02*
G37*
G36*
X60230D02*
X52370D01*
Y15520D01*
X55664D01*
Y13855D01*
X55170D01*
Y11736D01*
X52060D01*
X52016Y11730D01*
X51971D01*
X51927Y11718D01*
X51883Y11712D01*
X51841Y11695D01*
X51798Y11684D01*
X51759Y11661D01*
X51717Y11644D01*
X51682Y11617D01*
X51643Y11594D01*
X51611Y11562D01*
X51575Y11535D01*
X51548Y11499D01*
X51516Y11468D01*
X51494Y11429D01*
X51466Y11393D01*
X51449Y11351D01*
X51427Y11312D01*
X51415Y11269D01*
X51398Y11228D01*
X51392Y11183D01*
X51380Y11140D01*
Y11095D01*
X51375Y11050D01*
X51380Y11005D01*
Y10960D01*
X51392Y10917D01*
X51398Y10872D01*
X51415Y10831D01*
X51427Y10788D01*
X51449Y10749D01*
X51466Y10707D01*
X51494Y10671D01*
X51516Y10632D01*
X51548Y10601D01*
X51575Y10565D01*
X51611Y10538D01*
X51643Y10506D01*
X51682Y10483D01*
X51717Y10456D01*
X51759Y10439D01*
X51798Y10416D01*
X51841Y10405D01*
X51883Y10388D01*
X51927Y10382D01*
X51971Y10370D01*
X52016D01*
X52060Y10364D01*
X55170D01*
Y9495D01*
X57530D01*
Y13855D01*
X57036D01*
Y15520D01*
X60230D01*
Y18880D01*
D02*
G37*
G36*
X37055Y18916D02*
X27195D01*
Y14806D01*
X33455D01*
X33500Y14800D01*
X36180D01*
X37915Y13065D01*
X38057Y12956D01*
X38222Y12888D01*
X38400Y12864D01*
X45520D01*
Y9870D01*
X46014D01*
Y9500D01*
X46020Y9455D01*
Y9410D01*
X46032Y9367D01*
X46038Y9322D01*
X46055Y9281D01*
X46066Y9238D01*
X46089Y9199D01*
X46106Y9157D01*
X46133Y9121D01*
X46156Y9082D01*
X46188Y9051D01*
X46215Y9015D01*
X46251Y8988D01*
X46282Y8956D01*
X46321Y8933D01*
X46357Y8906D01*
X46399Y8889D01*
X46438Y8866D01*
X46481Y8855D01*
X46522Y8838D01*
X46567Y8832D01*
X46610Y8820D01*
X46655D01*
X46700Y8814D01*
X46745Y8820D01*
X46790D01*
X46833Y8832D01*
X46878Y8838D01*
X46919Y8855D01*
X46962Y8866D01*
X47001Y8889D01*
X47043Y8906D01*
X47079Y8933D01*
X47118Y8956D01*
X47149Y8988D01*
X47185Y9015D01*
X47212Y9051D01*
X47244Y9082D01*
X47267Y9121D01*
X47294Y9157D01*
X47311Y9199D01*
X47334Y9238D01*
X47345Y9281D01*
X47362Y9322D01*
X47368Y9367D01*
X47380Y9410D01*
Y9455D01*
X47386Y9500D01*
Y9870D01*
X47880D01*
Y10520D01*
X48330D01*
X50806Y8044D01*
X50948Y7935D01*
X51114Y7867D01*
X51291Y7843D01*
X58979D01*
X59157Y7867D01*
X59322Y7935D01*
X59464Y8044D01*
X63059Y11639D01*
X64895D01*
Y9870D01*
X65394D01*
X65395Y9865D01*
Y9820D01*
X65407Y9777D01*
X65413Y9732D01*
X65430Y9690D01*
X65441Y9647D01*
X65464Y9608D01*
X65481Y9567D01*
X65508Y9531D01*
X65531Y9492D01*
X65563Y9460D01*
X65590Y9425D01*
X65626Y9397D01*
X65657Y9365D01*
X65696Y9343D01*
X65732Y9316D01*
X65774Y9298D01*
X65813Y9276D01*
X65856Y9264D01*
X65897Y9247D01*
X65942Y9241D01*
X65985Y9230D01*
X66030D01*
X66075Y9224D01*
X66120Y9230D01*
X66165D01*
X66208Y9241D01*
X66253Y9247D01*
X66294Y9264D01*
X66337Y9276D01*
X66376Y9298D01*
X66418Y9316D01*
X66454Y9343D01*
X66493Y9365D01*
X66524Y9397D01*
X66560Y9425D01*
X66587Y9460D01*
X66619Y9492D01*
X66642Y9531D01*
X66669Y9567D01*
X66686Y9608D01*
X66709Y9647D01*
X66720Y9690D01*
X66738Y9732D01*
X66743Y9777D01*
X66755Y9820D01*
Y9865D01*
X66756Y9870D01*
X67255D01*
Y14230D01*
X64895D01*
Y13011D01*
X62775D01*
X62597Y12987D01*
X62432Y12919D01*
X62290Y12810D01*
X58695Y9215D01*
X51575D01*
X49099Y11691D01*
X48957Y11800D01*
X48792Y11869D01*
X48614Y11892D01*
X47880D01*
Y14230D01*
X46245D01*
X46200Y14236D01*
X38684D01*
X37055Y15865D01*
Y18916D01*
D02*
G37*
G36*
X27965Y10575D02*
X26540D01*
Y9150D01*
X26545D01*
X26849Y9211D01*
X27136Y9329D01*
X27394Y9502D01*
X27613Y9721D01*
X27786Y9979D01*
X27904Y10266D01*
X27965Y10570D01*
Y10575D01*
D02*
G37*
G36*
X26240D02*
X24815D01*
Y10570D01*
X24876Y10266D01*
X24994Y9979D01*
X25167Y9721D01*
X25386Y9502D01*
X25644Y9329D01*
X25931Y9211D01*
X26235Y9150D01*
X26240D01*
Y10575D01*
D02*
G37*
G36*
X155990Y29030D02*
X155760D01*
X155546Y28942D01*
X155383Y28779D01*
X155295Y28565D01*
Y28335D01*
X155383Y28121D01*
X155546Y27958D01*
X155760Y27870D01*
X155990D01*
X156204Y27958D01*
X156257Y28012D01*
X158976D01*
X165945Y21042D01*
Y13885D01*
X160715Y8655D01*
X159822D01*
X159773Y8772D01*
X164963Y13962D01*
X164963Y13962D01*
X165036Y14071D01*
X165061Y14200D01*
Y20541D01*
X165217Y20696D01*
X165305Y20910D01*
Y21140D01*
X165217Y21354D01*
X165054Y21517D01*
X164840Y21605D01*
X164610D01*
X164396Y21517D01*
X164233Y21354D01*
X164145Y21140D01*
Y20910D01*
X164233Y20696D01*
X164389Y20541D01*
Y14339D01*
X162857Y12808D01*
X162730Y12860D01*
Y13030D01*
X162642Y13244D01*
X162479Y13407D01*
X162265Y13495D01*
X162035D01*
X162018Y13488D01*
X160636Y14869D01*
X160527Y14942D01*
X160398Y14968D01*
X160398Y14968D01*
X158708D01*
X158068Y15608D01*
Y15804D01*
X158195Y15829D01*
X158208Y15796D01*
X158371Y15633D01*
X158585Y15545D01*
X158815D01*
X159029Y15633D01*
X159192Y15796D01*
X159280Y16010D01*
Y16240D01*
X159192Y16454D01*
X159061Y16584D01*
Y18786D01*
X159192Y18916D01*
X159256Y19071D01*
X159396Y19109D01*
X159398Y19108D01*
X159789Y18718D01*
Y16634D01*
X159633Y16479D01*
X159545Y16265D01*
Y16035D01*
X159633Y15821D01*
X159796Y15658D01*
X160010Y15570D01*
X160240D01*
X160454Y15658D01*
X160558Y15763D01*
X160634Y15812D01*
X160724Y15763D01*
X160822Y15665D01*
X161035Y15577D01*
X161266D01*
X161479Y15665D01*
X161642Y15828D01*
X161731Y16041D01*
Y16272D01*
X161675Y16407D01*
X161642Y16485D01*
X161734Y16571D01*
X161871Y16433D01*
X162085Y16345D01*
X162315D01*
X162529Y16433D01*
X162692Y16596D01*
X162774Y16795D01*
X162837Y16803D01*
X162901Y16795D01*
X162983Y16596D01*
X163146Y16433D01*
X163360Y16345D01*
X163590D01*
X163804Y16433D01*
X163967Y16596D01*
X164055Y16810D01*
Y17040D01*
X163967Y17254D01*
X163811Y17409D01*
Y19175D01*
X163786Y19304D01*
X163726Y19393D01*
X163752Y19478D01*
X163776Y19520D01*
X163790D01*
X164004Y19608D01*
X164167Y19771D01*
X164255Y19985D01*
Y20215D01*
X164167Y20429D01*
X164004Y20592D01*
X163790Y20680D01*
X163571D01*
X158638Y25613D01*
X158529Y25686D01*
X158400Y25711D01*
X158400Y25711D01*
X147966D01*
X147811Y25867D01*
X147598Y25955D01*
X147367D01*
X147154Y25867D01*
X146991Y25704D01*
X146902Y25490D01*
Y25260D01*
X146991Y25046D01*
X147154Y24883D01*
X147301Y24822D01*
Y24685D01*
X147154Y24624D01*
X146991Y24461D01*
X146902Y24248D01*
Y24017D01*
X146991Y23804D01*
X147129Y23665D01*
X147152Y23624D01*
X147139Y23509D01*
X147024Y23395D01*
X146936Y23182D01*
Y22951D01*
X147024Y22738D01*
X147188Y22574D01*
X147246Y22550D01*
Y22423D01*
X147221Y22413D01*
X147058Y22250D01*
X146969Y22036D01*
Y21806D01*
X147058Y21593D01*
X147157Y21493D01*
X147209Y21411D01*
X147157Y21327D01*
X147058Y21229D01*
X146970Y21015D01*
Y20785D01*
X147058Y20571D01*
X147172Y20458D01*
X147207Y20375D01*
X147172Y20292D01*
X147058Y20179D01*
X146969Y19965D01*
Y19735D01*
X147058Y19521D01*
X147221Y19358D01*
X147434Y19270D01*
X147665D01*
X147878Y19358D01*
X148033Y19514D01*
X156599D01*
X157395Y18718D01*
Y17756D01*
X157268Y17731D01*
X157248Y17779D01*
X157085Y17942D01*
X156872Y18030D01*
X156641D01*
X156428Y17942D01*
X156265Y17779D01*
X156176Y17565D01*
Y17335D01*
X156265Y17121D01*
X156420Y16966D01*
Y16115D01*
X156265Y15960D01*
X156176Y15747D01*
Y15516D01*
X156265Y15303D01*
X156428Y15140D01*
X156641Y15051D01*
X156872D01*
X157085Y15140D01*
X157248Y15303D01*
X157282Y15385D01*
X157414Y15372D01*
X157420Y15340D01*
X157493Y15231D01*
X158331Y14393D01*
X158331Y14393D01*
X158440Y14320D01*
X158569Y14295D01*
X158569Y14295D01*
X160259D01*
X161570Y12984D01*
Y12800D01*
X161658Y12587D01*
X161821Y12423D01*
X162035Y12335D01*
X162205D01*
X162257Y12208D01*
X155863Y5813D01*
X149688D01*
X149666Y5894D01*
X149524Y6140D01*
X149323Y6341D01*
X149115Y6462D01*
X149149Y6589D01*
X149481D01*
X149611Y6364D01*
X149812Y6163D01*
X150058Y6021D01*
X150333Y5947D01*
X150617D01*
X150892Y6021D01*
X151138Y6163D01*
X151339Y6364D01*
X151482Y6610D01*
X151555Y6885D01*
Y7169D01*
X151482Y7444D01*
X151339Y7690D01*
X151138Y7891D01*
X150892Y8033D01*
X150617Y8107D01*
X150333D01*
X150058Y8033D01*
X149812Y7891D01*
X149611Y7690D01*
X149481Y7465D01*
X142919D01*
X142885Y7499D01*
X142672Y7588D01*
X142441D01*
X142228Y7499D01*
X142065Y7336D01*
X141976Y7123D01*
Y6892D01*
X142065Y6679D01*
X142228Y6516D01*
X142441Y6427D01*
X142672D01*
X142885Y6516D01*
X142958Y6589D01*
X148171D01*
X148205Y6462D01*
X147997Y6341D01*
X147796Y6140D01*
X147666Y5915D01*
X142938D01*
X142850Y6004D01*
X142637Y6092D01*
X142406D01*
X142193Y6004D01*
X142030Y5841D01*
X141941Y5627D01*
Y5397D01*
X142030Y5183D01*
X142193Y5020D01*
X142406Y4932D01*
X142637D01*
X142850Y5020D01*
X142868Y5039D01*
X147666D01*
X147796Y4814D01*
X147997Y4613D01*
X148243Y4471D01*
X148518Y4397D01*
X148802D01*
X149077Y4471D01*
X149323Y4613D01*
X149524Y4814D01*
X149666Y5060D01*
X149688Y5141D01*
X156002D01*
X156002Y5141D01*
X156131Y5166D01*
X156240Y5239D01*
X159308Y8307D01*
X159425Y8258D01*
Y6745D01*
X161335D01*
Y8035D01*
X166694Y13394D01*
X166789Y13536D01*
X166822Y13704D01*
Y21224D01*
X166789Y21392D01*
X166694Y21534D01*
X159467Y28760D01*
X159325Y28855D01*
X159157Y28888D01*
X156257D01*
X156204Y28942D01*
X155990Y29030D01*
D02*
G37*
G36*
X171990Y29080D02*
X171760D01*
X171546Y28992D01*
X171383Y28829D01*
X171295Y28615D01*
Y28385D01*
X171383Y28171D01*
X171539Y28016D01*
Y9174D01*
X170937Y8573D01*
X170909Y8590D01*
X170666Y8655D01*
X170414D01*
X170171Y8590D01*
X169954Y8464D01*
X169776Y8286D01*
X169650Y8069D01*
X169585Y7826D01*
Y7574D01*
X169650Y7331D01*
X169776Y7114D01*
X169954Y6936D01*
X170171Y6810D01*
X170414Y6745D01*
X170666D01*
X170909Y6810D01*
X171126Y6936D01*
X171304Y7114D01*
X171430Y7331D01*
X171495Y7574D01*
Y7826D01*
X171430Y8069D01*
X171413Y8097D01*
X172113Y8797D01*
X172186Y8906D01*
X172211Y9035D01*
X172211Y9035D01*
Y28016D01*
X172367Y28171D01*
X172455Y28385D01*
Y28615D01*
X172367Y28829D01*
X172204Y28992D01*
X171990Y29080D01*
D02*
G37*
G36*
X167715Y20205D02*
X167485D01*
X167271Y20117D01*
X167108Y19954D01*
X167020Y19740D01*
Y19510D01*
X167108Y19296D01*
X167264Y19141D01*
Y12519D01*
X163317Y8573D01*
X163289Y8590D01*
X163046Y8655D01*
X162794D01*
X162551Y8590D01*
X162334Y8464D01*
X162156Y8286D01*
X162030Y8069D01*
X161965Y7826D01*
Y7574D01*
X162030Y7331D01*
X162156Y7114D01*
X162334Y6936D01*
X162551Y6810D01*
X162794Y6745D01*
X163046D01*
X163289Y6810D01*
X163506Y6936D01*
X163684Y7114D01*
X163810Y7331D01*
X163875Y7574D01*
Y7826D01*
X163810Y8069D01*
X163793Y8097D01*
X167838Y12142D01*
X167838Y12142D01*
X167911Y12251D01*
X167936Y12380D01*
X167936Y12380D01*
Y19141D01*
X168092Y19296D01*
X168180Y19510D01*
Y19740D01*
X168092Y19954D01*
X167929Y20117D01*
X167715Y20205D01*
D02*
G37*
G36*
X168840Y21580D02*
X168610D01*
X168396Y21492D01*
X168233Y21329D01*
X168145Y21115D01*
Y20885D01*
X168233Y20671D01*
X168389Y20516D01*
Y11104D01*
X165857Y8573D01*
X165829Y8590D01*
X165586Y8655D01*
X165334D01*
X165091Y8590D01*
X164874Y8464D01*
X164696Y8286D01*
X164570Y8069D01*
X164505Y7826D01*
Y7574D01*
X164570Y7331D01*
X164696Y7114D01*
X164874Y6936D01*
X165091Y6810D01*
X165334Y6745D01*
X165586D01*
X165829Y6810D01*
X166046Y6936D01*
X166224Y7114D01*
X166350Y7331D01*
X166415Y7574D01*
Y7826D01*
X166350Y8069D01*
X166333Y8097D01*
X168963Y10727D01*
X168963Y10727D01*
X169036Y10836D01*
X169061Y10965D01*
X169061Y10965D01*
Y20516D01*
X169217Y20671D01*
X169305Y20885D01*
Y21115D01*
X169217Y21329D01*
X169054Y21492D01*
X168840Y21580D01*
D02*
G37*
G36*
X170690Y27430D02*
X170460D01*
X170246Y27342D01*
X170083Y27179D01*
X169995Y26965D01*
Y26735D01*
X170083Y26521D01*
X170239Y26366D01*
Y10414D01*
X168397Y8573D01*
X168369Y8590D01*
X168126Y8655D01*
X167874D01*
X167631Y8590D01*
X167414Y8464D01*
X167236Y8286D01*
X167110Y8069D01*
X167045Y7826D01*
Y7574D01*
X167110Y7331D01*
X167236Y7114D01*
X167414Y6936D01*
X167631Y6810D01*
X167874Y6745D01*
X168126D01*
X168369Y6810D01*
X168586Y6936D01*
X168764Y7114D01*
X168890Y7331D01*
X168955Y7574D01*
Y7826D01*
X168890Y8069D01*
X168873Y8097D01*
X170813Y10037D01*
X170813Y10037D01*
X170886Y10146D01*
X170911Y10275D01*
Y26366D01*
X171067Y26521D01*
X171155Y26735D01*
Y26965D01*
X171067Y27179D01*
X170904Y27342D01*
X170690Y27430D01*
D02*
G37*
G36*
X81425Y31659D02*
X81195D01*
X80981Y31571D01*
X80818Y31408D01*
X80730Y31195D01*
Y30964D01*
X80818Y30751D01*
X80872Y30697D01*
Y15015D01*
X80905Y14847D01*
X81000Y14705D01*
X83890Y11815D01*
X84032Y11720D01*
X84200Y11687D01*
X91945D01*
Y10090D01*
X91501Y9646D01*
X88975D01*
X88931Y9640D01*
X88886D01*
X88842Y9628D01*
X88798Y9623D01*
X88756Y9605D01*
X88713Y9594D01*
X88674Y9571D01*
X88632Y9554D01*
X88597Y9527D01*
X88558Y9504D01*
X88526Y9472D01*
X88490Y9445D01*
X88463Y9409D01*
X88431Y9378D01*
X88409Y9339D01*
X88381Y9303D01*
X88364Y9261D01*
X88342Y9223D01*
X88330Y9179D01*
X88313Y9138D01*
X88307Y9093D01*
X88295Y9050D01*
Y9005D01*
X88289Y8960D01*
X88295Y8916D01*
Y8871D01*
X88307Y8827D01*
X88313Y8783D01*
X88330Y8741D01*
X88342Y8698D01*
X88364Y8659D01*
X88381Y8617D01*
X88409Y8582D01*
X88431Y8543D01*
X88463Y8511D01*
X88490Y8475D01*
X88526Y8448D01*
X88558Y8416D01*
X88597Y8393D01*
X88632Y8366D01*
X88674Y8349D01*
X88713Y8326D01*
X88756Y8315D01*
X88798Y8298D01*
X88842Y8292D01*
X88886Y8280D01*
X88931D01*
X88975Y8274D01*
X91785D01*
X91963Y8298D01*
X92128Y8366D01*
X92270Y8475D01*
X92915Y9120D01*
X94305D01*
Y13480D01*
X93761D01*
Y15520D01*
X97055D01*
Y18282D01*
X97055Y18282D01*
X97088Y18450D01*
X97055Y18618D01*
X97055Y18618D01*
Y18880D01*
X96692D01*
X96650Y18888D01*
X94375D01*
X94333Y18880D01*
X89195D01*
Y15520D01*
X92389D01*
Y13480D01*
X91945D01*
Y12563D01*
X84382D01*
X81748Y15197D01*
Y30697D01*
X81802Y30751D01*
X81890Y30964D01*
Y31195D01*
X81802Y31408D01*
X81639Y31571D01*
X81425Y31659D01*
D02*
G37*
G36*
X173215Y8729D02*
X173207D01*
Y7827D01*
X174109D01*
Y7835D01*
X174039Y8097D01*
X173903Y8332D01*
X173712Y8523D01*
X173477Y8659D01*
X173215Y8729D01*
D02*
G37*
G36*
X172953D02*
X172945D01*
X172683Y8659D01*
X172448Y8523D01*
X172257Y8332D01*
X172121Y8097D01*
X172051Y7835D01*
Y7827D01*
X172953D01*
Y8729D01*
D02*
G37*
G36*
X177829Y7573D02*
X177077D01*
Y7046D01*
X177829D01*
Y7573D01*
D02*
G37*
G36*
X176823D02*
X176071D01*
Y7046D01*
X176823D01*
Y7573D01*
D02*
G37*
G36*
X174109Y7573D02*
X173207D01*
Y6671D01*
X173215D01*
X173477Y6741D01*
X173712Y6877D01*
X173903Y7068D01*
X174039Y7303D01*
X174109Y7565D01*
Y7573D01*
D02*
G37*
G36*
X172953D02*
X172051D01*
Y7565D01*
X172121Y7303D01*
X172257Y7068D01*
X172448Y6877D01*
X172683Y6741D01*
X172945Y6671D01*
X172953D01*
Y7573D01*
D02*
G37*
G36*
X76879Y7706D02*
X75875D01*
Y5702D01*
X76879D01*
Y7706D01*
D02*
G37*
G36*
X75375D02*
X74371D01*
Y5702D01*
X75375D01*
Y7706D01*
D02*
G37*
G36*
X57604D02*
X56600D01*
Y5702D01*
X57604D01*
Y7706D01*
D02*
G37*
G36*
X56100D02*
X55096D01*
Y5702D01*
X56100D01*
Y7706D01*
D02*
G37*
G36*
X94379Y7331D02*
X93375D01*
Y5327D01*
X94379D01*
Y7331D01*
D02*
G37*
G36*
X92875D02*
X91871D01*
Y5327D01*
X92875D01*
Y7331D01*
D02*
G37*
G36*
X47954Y7204D02*
X46950D01*
Y5200D01*
X47954D01*
Y7204D01*
D02*
G37*
G36*
X46450D02*
X45446D01*
Y5200D01*
X46450D01*
Y7204D01*
D02*
G37*
G36*
X67329D02*
X66325D01*
Y5200D01*
X67329D01*
Y7204D01*
D02*
G37*
G36*
X65825D02*
X64821D01*
Y5200D01*
X65825D01*
Y7204D01*
D02*
G37*
G36*
X76879Y5202D02*
X75875D01*
Y3198D01*
X76879D01*
Y5202D01*
D02*
G37*
G36*
X75375D02*
X74371D01*
Y3198D01*
X75375D01*
Y5202D01*
D02*
G37*
G36*
X57604Y5202D02*
X56600D01*
Y3198D01*
X57604D01*
Y5202D01*
D02*
G37*
G36*
X56100D02*
X55096D01*
Y3198D01*
X56100D01*
Y5202D01*
D02*
G37*
G36*
X94379Y4827D02*
X93375D01*
Y2823D01*
X94379D01*
Y4827D01*
D02*
G37*
G36*
X92875D02*
X91871D01*
Y2823D01*
X92875D01*
Y4827D01*
D02*
G37*
G36*
X67329Y4700D02*
X66325D01*
Y2696D01*
X67329D01*
Y4700D01*
D02*
G37*
G36*
X65825D02*
X64821D01*
Y2696D01*
X65825D01*
Y4700D01*
D02*
G37*
G36*
X47954Y4700D02*
X46950D01*
Y2696D01*
X47954D01*
Y4700D01*
D02*
G37*
G36*
X46450D02*
X45446D01*
Y2696D01*
X46450D01*
Y4700D01*
D02*
G37*
G36*
X210262Y9000D02*
X209738D01*
X209218Y8932D01*
X208711Y8796D01*
X208227Y8595D01*
X207773Y8333D01*
X207357Y8014D01*
X206986Y7643D01*
X206667Y7227D01*
X206405Y6773D01*
X206204Y6289D01*
X206068Y5782D01*
X206000Y5262D01*
Y4738D01*
X206068Y4218D01*
X206204Y3711D01*
X206405Y3227D01*
X206667Y2773D01*
X206986Y2357D01*
X207357Y1986D01*
X207773Y1667D01*
X208227Y1405D01*
X208711Y1204D01*
X209218Y1068D01*
X209738Y1000D01*
X210262D01*
X210782Y1068D01*
X211289Y1204D01*
X211773Y1405D01*
X212227Y1667D01*
X212643Y1986D01*
X213014Y2357D01*
X213333Y2773D01*
X213595Y3227D01*
X213796Y3711D01*
X213932Y4218D01*
X214000Y4738D01*
Y5262D01*
X213932Y5782D01*
X213796Y6289D01*
X213595Y6773D01*
X213333Y7227D01*
X213014Y7643D01*
X212643Y8014D01*
X212227Y8333D01*
X211773Y8595D01*
X211289Y8796D01*
X210782Y8932D01*
X210262Y9000D01*
D02*
G37*
G36*
X110227D02*
X109703D01*
X109183Y8932D01*
X108677Y8796D01*
X108192Y8595D01*
X107738Y8333D01*
X107322Y8014D01*
X106951Y7643D01*
X106632Y7227D01*
X106370Y6773D01*
X106169Y6289D01*
X106034Y5782D01*
X105965Y5262D01*
Y4738D01*
X106034Y4218D01*
X106169Y3711D01*
X106370Y3227D01*
X106632Y2773D01*
X106951Y2357D01*
X107322Y1986D01*
X107738Y1667D01*
X108192Y1405D01*
X108677Y1204D01*
X109183Y1068D01*
X109703Y1000D01*
X110227D01*
X110747Y1068D01*
X111254Y1204D01*
X111738Y1405D01*
X112192Y1667D01*
X112608Y1986D01*
X112979Y2357D01*
X113298Y2773D01*
X113560Y3227D01*
X113761Y3711D01*
X113897Y4218D01*
X113965Y4738D01*
Y5262D01*
X113897Y5782D01*
X113761Y6289D01*
X113560Y6773D01*
X113298Y7227D01*
X112979Y7643D01*
X112608Y8014D01*
X112192Y8333D01*
X111738Y8595D01*
X111254Y8796D01*
X110747Y8932D01*
X110227Y9000D01*
D02*
G37*
%LPD*%
G36*
X235766Y51146D02*
X235692Y51104D01*
X235515Y50926D01*
X235389Y50708D01*
X235324Y50466D01*
Y50214D01*
X235389Y49971D01*
X235515Y49754D01*
X235692Y49576D01*
X235800Y49513D01*
X235766Y49386D01*
X229519D01*
X229390Y49361D01*
X229281Y49288D01*
X229281Y49288D01*
X228676Y48683D01*
X228647Y48700D01*
X228405Y48765D01*
X228153D01*
X227910Y48700D01*
X227692Y48574D01*
X227515Y48396D01*
X227389Y48178D01*
X227324Y47936D01*
Y47684D01*
X227389Y47441D01*
X227406Y47412D01*
X221282Y41289D01*
X200270D01*
X200235Y41337D01*
X200299Y41464D01*
X219729D01*
X219729Y41464D01*
X219858Y41489D01*
X219967Y41562D01*
X227881Y49477D01*
X227910Y49460D01*
X228153Y49395D01*
X228405D01*
X228647Y49460D01*
X228865Y49586D01*
X229043Y49764D01*
X229169Y49981D01*
X229234Y50224D01*
Y50476D01*
X229169Y50718D01*
X229152Y50747D01*
X229678Y51273D01*
X235732D01*
X235766Y51146D01*
D02*
G37*
G36*
X219932Y42479D02*
X219590Y42136D01*
X198984D01*
X198829Y42292D01*
X198811Y42299D01*
Y42426D01*
X198829Y42433D01*
X198984Y42589D01*
X219832D01*
X219832Y42589D01*
X219870Y42596D01*
X219932Y42479D01*
D02*
G37*
G36*
X158818Y24482D02*
X158737Y24383D01*
X158646Y24443D01*
X158518Y24469D01*
X158518Y24469D01*
X147966D01*
X147811Y24624D01*
X147664Y24685D01*
Y24822D01*
X147811Y24883D01*
X147966Y25039D01*
X158261D01*
X158818Y24482D01*
D02*
G37*
G36*
X158708Y23466D02*
X158627Y23367D01*
X158613Y23377D01*
X158484Y23403D01*
X158484Y23403D01*
X148000D01*
X147869Y23533D01*
X147847Y23575D01*
X147859Y23689D01*
X147966Y23796D01*
X158378D01*
X158708Y23466D01*
D02*
G37*
G36*
X161864Y19211D02*
Y17409D01*
X161708Y17254D01*
X161620Y17040D01*
Y16810D01*
X161676Y16675D01*
X161708Y16596D01*
X161617Y16511D01*
X161479Y16649D01*
X161469Y16653D01*
Y19168D01*
X161443Y19297D01*
X161370Y19406D01*
X161370Y19406D01*
X158513Y22263D01*
X158404Y22336D01*
X158275Y22361D01*
X158275Y22361D01*
X147975D01*
X147937Y22354D01*
X147878Y22413D01*
X147819Y22437D01*
Y22564D01*
X147845Y22574D01*
X148000Y22730D01*
X158344D01*
X161864Y19211D01*
D02*
G37*
G36*
X160796Y19029D02*
Y16622D01*
X160717Y16544D01*
X160642Y16495D01*
X160551Y16544D01*
X160461Y16634D01*
Y18857D01*
X160436Y18986D01*
X160363Y19095D01*
X160363Y19095D01*
X159793Y19665D01*
X159793Y19665D01*
X159793Y19665D01*
X158320Y21138D01*
X158211Y21211D01*
X158082Y21236D01*
X158082Y21236D01*
X148034D01*
X147942Y21328D01*
X147890Y21410D01*
X147942Y21494D01*
X148041Y21593D01*
X148081Y21689D01*
X158136D01*
X160796Y19029D01*
D02*
G37*
G36*
X158564Y19942D02*
X158526Y19801D01*
X158371Y19737D01*
X158208Y19574D01*
X158120Y19360D01*
Y19130D01*
X158208Y18916D01*
X158371Y18753D01*
X158389Y18746D01*
Y16624D01*
X158371Y16617D01*
X158208Y16454D01*
X158195Y16421D01*
X158068Y16446D01*
Y18857D01*
X158068Y18857D01*
X158042Y18986D01*
X157969Y19095D01*
X157969Y19095D01*
X156977Y20088D01*
X156867Y20161D01*
X156739Y20186D01*
X156739Y20186D01*
X148033D01*
X147928Y20292D01*
X147893Y20375D01*
X147928Y20458D01*
X148034Y20564D01*
X157943D01*
X158564Y19942D01*
D02*
G37*
%LPC*%
G36*
X228499Y14564D02*
X227549D01*
X227274Y14528D01*
X227017Y14422D01*
X226797Y14252D01*
X226627Y14032D01*
X226521Y13775D01*
X226485Y13500D01*
X226521Y13225D01*
X226627Y12968D01*
X226797Y12748D01*
X227017Y12578D01*
X227274Y12472D01*
X227549Y12436D01*
X228499D01*
X228774Y12472D01*
X229031Y12578D01*
X229251Y12748D01*
X229420Y12968D01*
X229527Y13225D01*
X229563Y13500D01*
X229527Y13775D01*
X229420Y14032D01*
X229251Y14252D01*
X229031Y14422D01*
X228774Y14528D01*
X228499Y14564D01*
D02*
G37*
%LPD*%
D10*
X165305Y64331D02*
D03*
X171528D02*
D03*
X70101Y65061D02*
D03*
X63878D02*
D03*
X55501Y64911D02*
D03*
X49278D02*
D03*
X257282Y64354D02*
D03*
X251059D02*
D03*
X271712D02*
D03*
X265489D02*
D03*
X157156Y64321D02*
D03*
X150933D02*
D03*
D11*
X32250Y34400D02*
D03*
Y28150D02*
D03*
X32125Y23111D02*
D03*
Y16861D02*
D03*
X273925Y22600D02*
D03*
Y28850D02*
D03*
D12*
X108929Y66255D02*
D03*
X106929D02*
D03*
X106880Y60366D02*
D03*
X108880D02*
D03*
X106880Y57366D02*
D03*
X108880D02*
D03*
X106880Y54366D02*
D03*
X108880D02*
D03*
X106905Y40216D02*
D03*
X108905D02*
D03*
X106905Y43216D02*
D03*
X108905D02*
D03*
X106905Y46216D02*
D03*
X108905D02*
D03*
X108929Y63245D02*
D03*
X106929D02*
D03*
X178851Y13742D02*
D03*
X180851D02*
D03*
X184007Y13742D02*
D03*
X182007D02*
D03*
X59542Y43851D02*
D03*
X61542D02*
D03*
X61532Y42062D02*
D03*
X59532D02*
D03*
X59542Y45661D02*
D03*
X61542D02*
D03*
Y40272D02*
D03*
X59542D02*
D03*
X260807Y43450D02*
D03*
X262807D02*
D03*
Y41670D02*
D03*
X260807D02*
D03*
X260812Y45175D02*
D03*
X262812D02*
D03*
X262812Y39895D02*
D03*
X260812D02*
D03*
X159813Y41938D02*
D03*
X161813D02*
D03*
Y43721D02*
D03*
X159813D02*
D03*
X161813Y45491D02*
D03*
X159813D02*
D03*
Y40118D02*
D03*
X161813D02*
D03*
D13*
X191982Y18479D02*
D03*
Y20479D02*
D03*
X176950Y7700D02*
D03*
Y9700D02*
D03*
X191982Y17149D02*
D03*
Y15149D02*
D03*
X185741Y15975D02*
D03*
Y13975D02*
D03*
X185741Y19021D02*
D03*
Y17021D02*
D03*
X180000Y19975D02*
D03*
Y17975D02*
D03*
D14*
X104430Y60366D02*
D03*
X102330D02*
D03*
X104430Y57366D02*
D03*
X102330D02*
D03*
X104430Y66254D02*
D03*
X102330D02*
D03*
X104430Y63245D02*
D03*
X102330D02*
D03*
X104430Y54366D02*
D03*
X102330D02*
D03*
X104455Y43216D02*
D03*
X102355D02*
D03*
X104455Y46216D02*
D03*
X102355D02*
D03*
X104455Y40216D02*
D03*
X102355D02*
D03*
D15*
X103850Y23675D02*
D03*
Y17452D02*
D03*
X66150Y23675D02*
D03*
Y17452D02*
D03*
X84800Y23675D02*
D03*
Y17452D02*
D03*
X66075Y4950D02*
D03*
Y12050D02*
D03*
X75625Y11675D02*
D03*
Y5452D02*
D03*
X275000Y53319D02*
D03*
Y46219D02*
D03*
X93125Y11300D02*
D03*
Y5077D02*
D03*
X46660Y23675D02*
D03*
Y17452D02*
D03*
X56350Y11675D02*
D03*
Y5452D02*
D03*
X46700Y4950D02*
D03*
Y12050D02*
D03*
D16*
X60521Y48476D02*
D03*
X64331D02*
D03*
X57981D02*
D03*
X59251D02*
D03*
X55441Y58226D02*
D03*
X56711D02*
D03*
X57981D02*
D03*
X59251D02*
D03*
X60521D02*
D03*
X61791D02*
D03*
X63061D02*
D03*
X64331D02*
D03*
X63061Y48476D02*
D03*
X61791D02*
D03*
X56711D02*
D03*
X55441D02*
D03*
X261812Y47979D02*
D03*
X265622D02*
D03*
X259272D02*
D03*
X260542D02*
D03*
X256732Y57729D02*
D03*
X258002D02*
D03*
X259272D02*
D03*
X260542D02*
D03*
X261812D02*
D03*
X263082D02*
D03*
X264352D02*
D03*
X265622D02*
D03*
X264352Y47979D02*
D03*
X263082D02*
D03*
X258002D02*
D03*
X256732D02*
D03*
X155738Y48086D02*
D03*
X157008D02*
D03*
X162088D02*
D03*
X163358D02*
D03*
X164628Y57836D02*
D03*
X163358D02*
D03*
X162088D02*
D03*
X160818D02*
D03*
X159548D02*
D03*
X158278D02*
D03*
X157008D02*
D03*
X155738D02*
D03*
X159548Y48086D02*
D03*
X158278D02*
D03*
X164628D02*
D03*
X160818D02*
D03*
D17*
X75575Y22200D02*
D03*
Y17200D02*
D03*
X93125D02*
D03*
Y22200D02*
D03*
X56300Y17200D02*
D03*
Y22200D02*
D03*
D18*
X276541Y42468D02*
D03*
Y40368D02*
D03*
D19*
X198106Y2701D02*
X205405Y10000D01*
X282841D01*
X293185Y20344D01*
X127791Y2425D02*
X185800D01*
X182350Y4180D02*
X182370Y4200D01*
X180621Y5700D02*
X196150D01*
X181600Y4970D02*
X181630Y5000D01*
X182370Y4200D02*
X188550D01*
X196150Y5700D02*
X201350Y10900D01*
X183105Y3450D02*
X188025D01*
X181630Y5000D02*
X193289D01*
X128295Y3450D02*
X183105D01*
X192225Y525D02*
X279250D01*
X188550Y4200D02*
X192225Y525D01*
X279250D02*
X293135Y14410D01*
X195588Y2701D02*
X198106D01*
X193289Y5000D02*
X195588Y2701D01*
X177766Y8750D02*
X179566Y6950D01*
X182462Y7600D02*
X195325D01*
X196075Y6950D02*
X200775Y11650D01*
X180929Y9132D02*
X182462Y7600D01*
X194919Y8569D02*
X200400Y14050D01*
X184835Y8569D02*
X194919D01*
X195325Y7600D02*
X201125Y13400D01*
X179566Y6950D02*
X196075D01*
X279725Y10900D02*
X293072Y24247D01*
X201350Y10900D02*
X279725D01*
X141550Y36550D02*
X203372D01*
X203407Y36515D01*
X88396Y28539D02*
X106161D01*
X117650Y17050D01*
X111342Y37779D02*
X140321D01*
X118825Y38534D02*
Y53550D01*
X140321Y37779D02*
X141550Y36550D01*
X118800Y38509D02*
X118825Y38534D01*
X68566Y35195D02*
X139750D01*
X65836Y37926D02*
X68566Y35195D01*
X239600Y17325D02*
X251553Y29278D01*
X258002D01*
X160398Y14631D02*
X162115Y12915D01*
X162150D01*
X158569Y14631D02*
X160398D01*
X174630Y10168D02*
Y12631D01*
X117650Y12566D02*
X127791Y2425D01*
X117650Y12566D02*
Y17050D01*
X188975Y13975D02*
X190950Y12000D01*
X185741Y13975D02*
X188975D01*
X190950Y12000D02*
X195158D01*
X205325Y29800D02*
X205350Y29775D01*
Y20000D02*
Y29775D01*
X201775Y16425D02*
X205350Y20000D01*
X199583Y16425D02*
X201775D01*
X195158Y12000D02*
X199583Y16425D01*
X118825Y12920D02*
X128295Y3450D01*
X164725Y14200D02*
Y21025D01*
X156002Y5477D02*
X164725Y14200D01*
X151775Y30275D02*
X151800Y30300D01*
X178675D01*
X179380Y29595D01*
X122775Y38775D02*
Y54125D01*
X117851Y39976D02*
Y53109D01*
X117850Y39975D02*
X117851Y39976D01*
X115267Y55692D02*
X117851Y53109D01*
X120017Y40992D02*
Y53808D01*
X120000Y40975D02*
X120017Y40992D01*
X113508Y60317D02*
X120017Y53808D01*
X118825Y12920D02*
Y14475D01*
X147482Y25375D02*
X158400D01*
X163675Y20100D01*
X176172Y13153D02*
Y29296D01*
X176175Y29299D01*
X110646Y66254D02*
X122775Y54125D01*
X115034Y57341D02*
X118825Y53550D01*
X179380Y22890D02*
Y29595D01*
Y22890D02*
X182295Y19975D01*
X184750D01*
X183780Y20705D02*
X183851D01*
X180351Y24134D02*
X183780Y20705D01*
X180351Y24134D02*
Y27568D01*
X171875Y9035D02*
Y28500D01*
X170540Y7700D02*
X171875Y9035D01*
X181468Y27327D02*
Y29299D01*
X178451Y16288D02*
Y29299D01*
X178450Y29300D02*
X178451Y29299D01*
X174775Y24450D02*
Y29300D01*
X162920Y7700D02*
X167600Y12380D01*
Y19625D01*
X168725Y10965D02*
Y21000D01*
X165460Y7700D02*
X168725Y10965D01*
X174630Y10168D02*
X176048Y8750D01*
X31820Y43050D02*
X40425D01*
X28765Y46105D02*
X31820Y43050D01*
X40425D02*
X40450Y43075D01*
X246200Y49700D02*
X246218D01*
X218021Y15071D02*
X219100Y16150D01*
X204391Y15071D02*
X218021D01*
X216174Y16199D02*
X217300Y17325D01*
X239600D01*
X204391Y16199D02*
X216174D01*
X270700Y33800D02*
Y46934D01*
X267609Y50025D02*
X270700Y46934D01*
X251550Y50025D02*
X267609D01*
X249965Y51610D02*
X251550Y50025D01*
X229539Y51610D02*
X249965D01*
X228279Y50350D02*
X229539Y51610D01*
X245550Y49050D02*
X246200Y49700D01*
X229519Y49050D02*
X245550D01*
X228279Y47810D02*
X229519Y49050D01*
X221421Y40952D02*
X228279Y47810D01*
X219150Y36375D02*
X223600D01*
X223625Y36400D01*
X218075Y37500D02*
X224750D01*
X227075Y38575D02*
X227100Y38600D01*
X193025Y38575D02*
X227075D01*
X218050Y37525D02*
X218075Y37500D01*
X221090Y16190D02*
X228024D01*
X218300Y13400D02*
X221090Y16190D01*
X230829Y11650D02*
X235244Y16065D01*
X108880Y54366D02*
X110092D01*
X111419Y55692D02*
X115267D01*
X110092Y54366D02*
X111419Y55692D01*
X157731Y15469D02*
X158569Y14631D01*
X157731Y15469D02*
Y18857D01*
X147549Y19850D02*
X156739D01*
X157731Y18857D01*
X147550Y20900D02*
X158082D01*
X159555Y19427D01*
X160125Y16150D02*
Y18857D01*
X159555Y19427D02*
Y19427D01*
Y19427D02*
X160125Y18857D01*
X158700Y19245D02*
X158725Y19220D01*
Y16150D02*
Y19220D01*
X210760Y17140D02*
X210775Y17125D01*
X210760Y17140D02*
Y23375D01*
X201125Y13400D02*
X218300D01*
X212355Y17125D02*
X213880Y18650D01*
X227954D01*
X228024Y18580D01*
X235244Y16065D02*
X235865D01*
X200775Y11650D02*
X230829D01*
X179741Y9132D02*
X180929D01*
X178926Y8914D02*
Y10399D01*
Y8914D02*
X179741Y8100D01*
X176048Y8750D02*
X177766D01*
X176172Y13153D02*
X178926Y10399D01*
X176950Y9700D02*
X176973Y9723D01*
X177949D02*
X177972Y9746D01*
X181468Y25298D02*
X184173D01*
X187000Y28125D01*
X186314Y28947D02*
X187977D01*
X219832Y42925D02*
X226775Y49868D01*
X198500Y42925D02*
X219832D01*
X226775Y51386D02*
X228279Y52890D01*
X226775Y49868D02*
Y51386D01*
X199717Y40952D02*
X221421D01*
X198500Y41800D02*
X219729D01*
X228279Y50350D01*
X181468Y26278D02*
X183645D01*
X186314Y28947D01*
X217345Y21120D02*
X235124D01*
X209490Y28975D02*
X217345Y21120D01*
X293072Y24247D02*
Y30054D01*
X108904Y57341D02*
X115034D01*
X108929Y66254D02*
X110646D01*
X108928Y60317D02*
X113508D01*
X112180Y63245D02*
X121425Y54000D01*
X108929Y63245D02*
X112180D01*
X121425Y44800D02*
Y54000D01*
X213325Y28475D02*
X218140Y23660D01*
X227946D01*
X228024Y18580D02*
X235124D01*
X170575Y10275D02*
Y26850D01*
X168000Y7700D02*
X170575Y10275D01*
X228024Y23660D02*
X235124D01*
X158518Y24132D02*
X163475Y19175D01*
X147482Y24132D02*
X158518D01*
X158484Y23066D02*
X162200Y19350D01*
X147975Y22025D02*
X158275D01*
X163475Y16925D02*
Y19175D01*
X147516Y23066D02*
X158484D01*
X158275Y22025D02*
X161132Y19168D01*
X147645Y22017D02*
X147967D01*
X147549Y21921D02*
X147645Y22017D01*
X148660Y5477D02*
X156002D01*
X161132Y16175D02*
Y19168D01*
X162200Y16925D02*
Y19350D01*
X147967Y22017D02*
X147975Y22025D01*
X108880Y57366D02*
X108904Y57341D01*
X156756Y15631D02*
Y17450D01*
X161132Y16175D02*
X161151Y16157D01*
X158700Y16125D02*
X158725Y16150D01*
X108880Y60366D02*
X108928Y60317D01*
X150683Y15002D02*
X152635Y13050D01*
X160225D01*
X150477Y11825D02*
X157825D01*
X150475Y11827D02*
X150477Y11825D01*
X108929Y63245D02*
X109179Y62995D01*
X106880Y54366D02*
X106880Y54366D01*
X111240Y43190D02*
X114300Y46250D01*
Y48790D02*
Y48790D01*
X184007Y13517D02*
Y13742D01*
X108905Y43190D02*
X111240D01*
X110780Y40190D02*
X114300Y43710D01*
X108905Y40190D02*
X110780D01*
X142521Y5512D02*
X142556Y5477D01*
Y7008D02*
X142576Y7027D01*
D20*
X12301Y75825D02*
Y77241D01*
X13425Y78365D01*
Y96275D02*
X17675Y100525D01*
X13425Y78365D02*
Y96275D01*
X12301Y71920D02*
Y75825D01*
X17675Y100525D02*
X56317D01*
X11875Y78484D02*
Y97025D01*
X17171Y102321D02*
X61341D01*
X11875Y97025D02*
X17171Y102321D01*
X12000Y71619D02*
X12301Y71920D01*
X8500Y75109D02*
X11875Y78484D01*
X173634Y73849D02*
Y98010D01*
X275000Y51819D02*
X275633D01*
X281415Y46038D02*
X292961D01*
X275633Y51819D02*
X281415Y46038D01*
X274372Y51819D02*
X274500D01*
X272898Y29883D02*
Y50346D01*
X274500Y51819D02*
X275000Y52319D01*
Y53319D01*
X272898Y50346D02*
X274372Y51819D01*
X270564Y66204D02*
Y69364D01*
X278232Y77032D02*
Y98010D01*
X270564Y69364D02*
X278232Y77032D01*
X270564Y64854D02*
Y66204D01*
X265489Y64354D02*
X265938D01*
X273152Y75108D02*
Y98010D01*
X265938Y67894D02*
X273152Y75108D01*
X265938Y64803D02*
Y67894D01*
Y64354D02*
X267489D01*
X299394Y66522D02*
X301604Y64312D01*
X298316Y66522D02*
X299394D01*
X309475Y65000D02*
Y65161D01*
X298316Y53933D02*
Y66522D01*
Y71428D01*
X81750Y122050D02*
X81819Y121981D01*
X283380Y120986D02*
X283435Y121041D01*
X173634Y98010D02*
X176174D01*
X242672D02*
X245212D01*
X256187Y64854D02*
Y66244D01*
X251231Y71200D02*
X256187Y66244D01*
Y64854D02*
X256687Y64354D01*
X257282D01*
X251231Y71200D02*
Y77252D01*
X278232Y98010D02*
X280772D01*
X271712Y64354D02*
X271727Y64340D01*
X170448Y64831D02*
Y66051D01*
X170948Y64331D02*
X171528D01*
X165875Y64900D02*
Y66000D01*
X170448Y64831D02*
X170948Y64331D01*
X46700Y11706D02*
X47200Y11206D01*
X48614D02*
X51291Y8529D01*
X58979D01*
X46700Y11706D02*
Y12050D01*
X47200Y11206D02*
X48614D01*
X47000Y11200D02*
Y11750D01*
X46700Y12050D02*
X47000Y11750D01*
X17860Y23338D02*
Y27416D01*
X20914Y30470D01*
X66423Y23948D02*
Y26573D01*
X71625Y31775D01*
X84800Y23025D02*
X93125D01*
X66150Y23675D02*
X66423Y23948D01*
X93075Y12975D02*
Y17200D01*
X91785Y8960D02*
X93125Y10300D01*
X88975Y8960D02*
X91785D01*
X93125Y10300D02*
Y11300D01*
X12000Y71619D02*
Y75825D01*
X83225Y23000D02*
X84775D01*
X284195Y21420D02*
Y27445D01*
X276425Y13650D02*
X284195Y21420D01*
Y27445D02*
X299128Y42378D01*
X32125Y16861D02*
X33500Y15486D01*
X36464D02*
X38400Y13550D01*
X46200D01*
X33500Y15486D02*
X36464D01*
X58979Y8529D02*
X62775Y12325D01*
X46700Y9500D02*
Y11000D01*
X46200Y13550D02*
X46857Y12893D01*
X299128Y42378D02*
X304249D01*
X235865Y13650D02*
X276425D01*
X62775Y12325D02*
X65933D01*
X66075Y12183D01*
X65650Y22708D02*
X66150Y23208D01*
X64150Y22708D02*
X65650D01*
X305825Y39105D02*
Y40802D01*
X304249Y42378D02*
X305825Y40802D01*
X271050Y28850D02*
X273925D01*
X104430Y60366D02*
X104430Y60366D01*
X104455Y43216D02*
X104455Y43216D01*
X104455Y40216D02*
X104455Y40216D01*
X292961Y48578D02*
X298316Y53933D01*
X70125Y65084D02*
X70137Y65073D01*
X69739Y64698D02*
X70101Y65061D01*
X178714Y74317D02*
Y98010D01*
X170448Y66051D02*
X178714Y74317D01*
X56317Y100525D02*
X59121D01*
X56261Y100469D02*
X56317Y100525D01*
X56261Y98029D02*
Y100469D01*
X59121Y100525D02*
X155854D01*
X58801Y100205D02*
X59121Y100525D01*
X58801Y98029D02*
Y100205D01*
X158394D02*
X158714Y100525D01*
X158394Y98010D02*
Y100205D01*
X155854Y100525D02*
X158714D01*
X158394Y98010D02*
X158554Y98170D01*
X155854Y98010D02*
Y100525D01*
X158714D02*
X255380D01*
X257912Y98010D02*
Y99939D01*
X255380Y100525D02*
X257326D01*
X257912Y99939D01*
X255372Y100516D02*
X255380Y100525D01*
X255372Y98010D02*
Y100516D01*
X103850Y22925D02*
Y23850D01*
X101900Y22425D02*
X103350D01*
X100150Y20675D02*
X101900Y22425D01*
X103350D02*
X103850Y22925D01*
X55850Y11050D02*
X56350Y11550D01*
Y11600D01*
X52060Y11050D02*
X55850D01*
X56350Y11600D02*
Y17175D01*
X56300Y17225D02*
X56350Y17175D01*
X66150Y23208D02*
X66650Y22708D01*
X75575D01*
Y17708D02*
X75625Y17658D01*
Y11433D02*
Y17658D01*
X71350Y11433D02*
X75625D01*
X66075Y9910D02*
Y12183D01*
X12000Y34464D02*
Y49539D01*
X11898Y34362D02*
X12000Y34464D01*
X8500Y66539D02*
Y75109D01*
Y66539D02*
X12000D01*
X8500Y53053D02*
Y66539D01*
Y53053D02*
X11793Y49760D01*
X260452Y102321D02*
X263012D01*
X163474D02*
X260352D01*
X161011D02*
X163474D01*
X63881D02*
X160960D01*
X61341D02*
X63881D01*
X160985Y102347D02*
X161011Y102321D01*
X160960D02*
X160985Y102347D01*
X61168Y98202D02*
X61341Y98029D01*
X63881D02*
Y98356D01*
X273152Y98010D02*
X275692D01*
X245161Y97959D02*
X245212Y98010D01*
X245161Y87081D02*
Y97959D01*
X237592Y90891D02*
X251231Y77252D01*
X237592Y90891D02*
Y98010D01*
X145694Y86980D02*
Y98010D01*
X43561Y98029D02*
X46101D01*
X38481D02*
X41021D01*
X237592Y98010D02*
X240132D01*
X43561Y87843D02*
X43586Y87818D01*
X43561Y87843D02*
Y98029D01*
X143154Y98010D02*
X145694D01*
X140614Y88555D02*
X152664Y76505D01*
X138074Y98010D02*
X140614D01*
Y88555D02*
Y98010D01*
X178714D02*
X181254D01*
X152664Y69160D02*
Y76505D01*
Y69160D02*
X155893Y65931D01*
X165835Y66050D02*
X173634Y73849D01*
X68876Y65561D02*
Y66851D01*
X81661Y79635D02*
Y98029D01*
X68876Y66851D02*
Y66851D01*
X81661Y79635D01*
X74041Y98029D02*
X76581D01*
X64836Y68199D02*
X74041Y77404D01*
Y98029D01*
X41021Y86111D02*
X49809Y77323D01*
X41021Y86111D02*
Y98029D01*
X49809Y71168D02*
X54406Y66571D01*
X49809Y71168D02*
Y77323D01*
X64836Y66811D02*
Y68199D01*
X79121Y98029D02*
X81661D01*
X68876Y65561D02*
X69376Y65061D01*
X69739D01*
X68876Y65561D02*
Y66851D01*
X54001Y64411D02*
X54501Y64911D01*
X54406Y65411D02*
X54906Y64911D01*
X54001Y64360D02*
Y64411D01*
X62878Y65061D02*
X64336D01*
X64836Y65561D01*
X62378D02*
X62878Y65061D01*
X64331Y64608D02*
X64378Y64561D01*
X64836Y65561D02*
Y66811D01*
X62378Y65561D02*
Y65932D01*
X46654Y64889D02*
X49256D01*
X49278Y64911D02*
X49786D01*
X49256Y64889D02*
X49278Y64911D01*
X54501D02*
X54906D01*
X54406Y65411D02*
Y66571D01*
X54906Y64911D02*
X55501D01*
X50286Y65411D02*
Y66561D01*
X49786Y64911D02*
X50286Y65411D01*
X53416Y63774D02*
X54001Y64360D01*
X265489Y64354D02*
X265622Y64221D01*
X270564Y64854D02*
X271064Y64354D01*
X271712D01*
X252127Y64854D02*
Y66204D01*
X251627Y64354D02*
X252127Y64854D01*
X248446Y64329D02*
X251034D01*
X251059Y64354D01*
X251627D01*
X148085Y64361D02*
X150893D01*
X152193Y65071D02*
Y65931D01*
X155893Y65071D02*
Y65931D01*
X275869Y165059D02*
X295334Y145595D01*
Y130369D02*
Y145595D01*
X86919Y165567D02*
X86995D01*
X86335Y164983D02*
X86919Y165567D01*
X195334Y130369D02*
Y145641D01*
X175971Y165004D02*
X195334Y145641D01*
X29185Y60305D02*
Y60490D01*
X276581Y42508D02*
X277651D01*
X276541Y42468D02*
X276581Y42508D01*
X276541Y38261D02*
Y40368D01*
D21*
X126484Y775D02*
X186375D01*
X188025Y2425D01*
D22*
X32025Y119650D02*
X75693D01*
X76093Y120050D01*
X65425Y56475D02*
X69394Y60444D01*
X62452Y56475D02*
X65425D01*
X69394Y60444D02*
Y64354D01*
X86404Y29775D02*
X86454Y29825D01*
X109925D01*
X86294Y31518D02*
X110620D01*
X83315Y28539D02*
X86294Y31518D01*
X76093Y120050D02*
Y128784D01*
X270564Y58085D02*
Y63604D01*
X263536Y55800D02*
X268279D01*
X270564Y58085D01*
X262787Y62824D02*
Y67449D01*
X268748Y73409D02*
Y79690D01*
X262787Y67449D02*
X268748Y73409D01*
X125483Y14267D02*
X126251D01*
X109925Y29825D02*
X125483Y14267D01*
X110620Y31518D02*
X126251Y15886D01*
X150933Y58217D02*
X153125Y56025D01*
X157796D01*
X150933Y58217D02*
Y64321D01*
X171528Y60003D02*
Y64331D01*
X162510Y56054D02*
X167579D01*
X171528Y60003D01*
X75334Y129543D02*
Y130369D01*
Y129543D02*
X76093Y128784D01*
X81310Y15015D02*
Y31079D01*
Y15015D02*
X84200Y12125D01*
X140021Y36579D02*
X141200Y35400D01*
X86867Y36579D02*
X140021D01*
X141200Y35400D02*
X155825D01*
X155850Y35425D01*
X198100D01*
X150950Y31175D02*
X257975D01*
X258000Y31200D01*
X150075Y32375D02*
X255275D01*
X200400Y18700D02*
Y23446D01*
X192381Y20629D02*
X195198Y23446D01*
X200400D01*
Y30000D01*
X192132Y20629D02*
X192381D01*
X191982Y20479D02*
X192132Y20629D01*
X165305Y64331D02*
X165875Y64900D01*
X6925Y91125D02*
X9548Y88502D01*
Y78817D02*
Y88502D01*
X5724Y82922D02*
Y88112D01*
X191317Y20629D02*
X191982D01*
X98577Y25132D02*
X100245Y26800D01*
X85550Y25132D02*
X98577D01*
X84800Y24382D02*
X85550Y25132D01*
X84800Y23675D02*
Y24382D01*
X84200Y12125D02*
X92375D01*
X93125Y11375D01*
Y11300D02*
Y11375D01*
X179238Y19975D02*
X180225D01*
X155875Y28450D02*
X159157D01*
X166384Y13704D02*
Y21224D01*
X159157Y28450D02*
X166384Y21224D01*
X160380Y7700D02*
X166384Y13704D01*
X94375Y18450D02*
X96650D01*
X93125Y17200D02*
X94375Y18450D01*
X127022Y9322D02*
X150075Y32375D01*
X126251Y9322D02*
X127022D01*
X126267Y7622D02*
X127397D01*
X150950Y31175D01*
X57931Y56851D02*
Y58176D01*
X53908Y56500D02*
X57581D01*
X57931Y56851D01*
X61841Y57086D02*
Y58176D01*
Y57086D02*
X62452Y56475D01*
X61791Y58226D02*
X61841Y58176D01*
X57931D02*
X57981Y58226D01*
X49278Y61129D02*
X53908Y56500D01*
X84775Y23000D02*
X84800Y23025D01*
X126251Y12577D02*
X145600Y31925D01*
X145625D01*
X182669Y19021D02*
X185741D01*
X182669Y15203D02*
Y19021D01*
X181179D02*
X182669D01*
X185741D02*
X185891Y19171D01*
X35402Y45120D02*
Y52138D01*
X33565Y53975D02*
X35402Y52138D01*
X260825Y38701D02*
X260837Y38688D01*
X260825Y38701D02*
Y39882D01*
X260807Y39900D02*
X260825Y39882D01*
X13077Y20275D02*
X18831D01*
X21894Y23338D01*
X11898Y16963D02*
Y19096D01*
X13077Y20275D01*
X244675Y39875D02*
X244700Y39850D01*
X187233Y39875D02*
X244675D01*
X181871Y45237D02*
X187233Y39875D01*
X179238Y19975D02*
X179238Y19975D01*
X176973Y9723D02*
X177949D01*
X185741Y15975D02*
Y17021D01*
X185741Y17021D02*
X185741Y17021D01*
Y15975D02*
X185741Y15975D01*
X276033Y34900D02*
Y35441D01*
X104944Y25769D02*
X104993D01*
X103850Y23850D02*
Y24675D01*
X104944Y25769D01*
X116325Y38575D02*
Y51845D01*
X114300Y53870D02*
X116325Y51845D01*
Y38575D02*
X116350Y38550D01*
X157008Y38125D02*
Y48086D01*
X159813Y40118D02*
X159842Y40089D01*
X160421D02*
X160450Y40061D01*
X159842Y40089D02*
X160421D01*
X159813Y40118D02*
Y43721D01*
X59532Y42062D02*
Y47101D01*
X59523Y40273D02*
X59532Y40282D01*
X59523Y39133D02*
Y40273D01*
X281225Y39478D02*
X283366D01*
X126932Y10932D02*
X147775Y31775D01*
X142521Y10317D02*
X152686D01*
X142486Y13457D02*
X148660D01*
X142521Y11827D02*
X150475D01*
X142486Y15002D02*
X150683D01*
X106880Y57366D02*
X106880Y57366D01*
X111700Y46190D02*
X114300Y48790D01*
X104455Y46216D02*
X104455Y46216D01*
X108905Y46190D02*
X111700D01*
X179450Y13037D02*
X179507Y12980D01*
X179331Y13037D02*
X179450D01*
X179001Y13367D02*
X179331Y13037D01*
X179001Y13367D02*
Y13592D01*
X178926Y13817D02*
Y14752D01*
X179377Y15203D01*
X180225Y19975D02*
X181179Y19021D01*
X180225Y19975D02*
X180225Y19975D01*
X184007Y13517D02*
X184835Y12689D01*
X184001Y13781D02*
Y14825D01*
X183623Y15203D02*
X184001Y14825D01*
X179377Y15203D02*
X182669D01*
X183623D01*
X185294Y12689D02*
X185351Y12631D01*
X184835Y12689D02*
X185294D01*
X191964Y16332D02*
X191973Y16341D01*
Y17275D01*
X191982Y17284D01*
X185891Y19171D02*
X186190D01*
X186502Y19238D02*
X188587D01*
X189958Y20608D01*
X189981Y20631D01*
X191314D02*
X191317Y20629D01*
X189981Y20631D02*
X191314D01*
X191982Y17284D02*
Y18436D01*
X147775Y31775D02*
Y31775D01*
X126251Y10932D02*
X126932D01*
X142521Y16602D02*
X142522Y16602D01*
X148660D01*
X142521Y8727D02*
X148660D01*
X142576Y7027D02*
X150475D01*
X142556Y5477D02*
X148660D01*
X288776Y63982D02*
Y69271D01*
X285396Y72651D02*
X288776Y69271D01*
Y57583D02*
Y63982D01*
X270564Y63604D02*
X270991Y64031D01*
X271388D01*
X271712Y64354D01*
X263082Y56254D02*
X263536Y55800D01*
X263082Y56254D02*
Y57729D01*
X284558Y59367D02*
Y66364D01*
X285176Y66982D01*
X285731Y58614D02*
Y65272D01*
X56711Y38232D02*
Y48476D01*
X50196Y80061D02*
X53873Y76384D01*
Y71148D02*
X58186Y66835D01*
X53873Y71148D02*
Y76384D01*
X69394Y64354D02*
X69739Y64698D01*
X58186Y62841D02*
Y66835D01*
X55441Y64851D02*
X55501Y64911D01*
X59504Y39114D02*
X59523Y39133D01*
X64329Y46739D02*
X64331Y46741D01*
X59532Y40282D02*
Y42062D01*
X61542Y40272D02*
Y40282D01*
X61791Y47256D02*
Y48476D01*
X61586Y43896D02*
Y47051D01*
X60521Y42446D02*
Y48476D01*
X64686Y70701D02*
Y80095D01*
X64331Y46741D02*
Y48476D01*
X60996Y62911D02*
Y67011D01*
X64331Y58226D02*
Y64608D01*
X63061Y58226D02*
Y60846D01*
X60996Y67011D02*
X64686Y70701D01*
X60996Y62911D02*
X63061Y60846D01*
X59257Y47377D02*
X59532Y47101D01*
X59257Y47377D02*
Y48471D01*
X56711Y58226D02*
Y61366D01*
X49278Y61129D02*
Y64911D01*
X61586Y47051D02*
X61791Y47256D01*
X60796Y42171D02*
X61423D01*
X60521Y42446D02*
X60796Y42171D01*
X61542Y43851D02*
X61586Y43896D01*
X61423Y42171D02*
X61532Y42062D01*
X59251Y48476D02*
X59257Y48471D01*
X54714Y45661D02*
X54824Y45771D01*
X55391Y48426D02*
X55441Y48476D01*
X55391Y47452D02*
Y48426D01*
X54824Y46885D02*
X55391Y47452D01*
X54824Y45771D02*
Y46885D01*
X56711Y61366D02*
X58186Y62841D01*
X55441Y58226D02*
Y64851D01*
X263035Y47932D02*
X263082Y47979D01*
X261807Y42338D02*
Y47974D01*
X262777Y43479D02*
X262807Y43450D01*
X263035Y46535D02*
Y47932D01*
X262777Y43479D02*
Y46277D01*
X263035Y46535D01*
X265622D02*
Y47979D01*
X262807Y39900D02*
X262812Y39894D01*
X262807Y39900D02*
Y41670D01*
X265186Y39894D02*
X267723Y42432D01*
X262812Y39894D02*
X265186D01*
X262100Y42045D02*
X262657D01*
X261807Y42338D02*
X262100Y42045D01*
X262657D02*
X262807Y41895D01*
X258002Y37788D02*
Y47979D01*
X260807Y39900D02*
Y41670D01*
Y43450D01*
Y45170D01*
X256518Y46105D02*
X256732Y46319D01*
X255680Y46105D02*
X256518D01*
X256732Y46319D02*
Y47979D01*
X260812Y45175D02*
Y46333D01*
X260542Y46603D02*
X260812Y46333D01*
X260542Y46603D02*
Y47979D01*
X261807Y47974D02*
X261812Y47979D01*
X259272Y56252D02*
Y57729D01*
X260207Y62454D02*
Y66534D01*
X254337Y72404D02*
X260207Y66534D01*
X258979Y55959D02*
X259272Y56252D01*
X258002Y60249D02*
X260207Y62454D01*
X256732Y63804D02*
X257282Y64354D01*
X265489D02*
X265938Y64803D01*
X262787Y62824D02*
X264352Y61259D01*
X254337Y72404D02*
Y79674D01*
X267927Y57729D02*
X268125D01*
X265622D02*
X267927D01*
X265622D02*
Y64221D01*
X264352Y57729D02*
Y61259D01*
X258002Y57729D02*
Y60249D01*
X253268Y55959D02*
X258979D01*
X254871Y57729D02*
X256732D01*
X251059Y58168D02*
X253268Y55959D01*
X256732Y57729D02*
Y63804D01*
X251059Y58168D02*
Y64354D01*
X150893Y64361D02*
X150933Y64321D01*
X151443D02*
X152193Y65071D01*
X150933Y64321D02*
X151443D01*
X155893Y65071D02*
X156643Y64321D01*
X157156D01*
X161813Y41938D02*
Y42163D01*
Y40118D02*
Y41938D01*
X164707Y40118D02*
X166760Y42170D01*
X161813Y40118D02*
X164707D01*
X161663Y42313D02*
X161813Y42163D01*
X160818Y42606D02*
X161111Y42313D01*
X161663D01*
X160818Y42606D02*
Y48086D01*
X155738Y46092D02*
Y48086D01*
X154374Y44728D02*
X155738Y46092D01*
X153823Y57836D02*
X155738D01*
X164628D02*
X166439D01*
X162088Y56476D02*
X162510Y56054D01*
X162088Y56476D02*
Y57836D01*
X164628Y63571D02*
X165378Y64321D01*
X164628Y57836D02*
Y63571D01*
X165378Y64321D02*
X165395D01*
X284792Y53600D02*
X288776Y57583D01*
X276279Y35441D02*
X276662Y35824D01*
Y36607D02*
X280365Y40311D01*
X280768D02*
X280826Y40368D01*
X276033Y35441D02*
X276279D01*
X280365Y40311D02*
X280768D01*
X276662Y35824D02*
Y36607D01*
X279555Y35172D02*
Y37808D01*
X282096Y61505D02*
X283303Y62712D01*
X282096Y53600D02*
Y61505D01*
X283308Y53600D02*
X284792D01*
X284636Y57597D02*
X284713D01*
X285731Y58614D01*
X164628Y46525D02*
Y48086D01*
X280826Y40368D02*
X288446D01*
X279555Y37808D02*
X281225Y39478D01*
X157796Y56025D02*
X158278Y56508D01*
Y57836D01*
X157008D02*
Y59526D01*
X159973Y62491D01*
Y66511D01*
X154953Y71531D02*
X159973Y66511D01*
X154953Y71531D02*
Y79806D01*
X162528Y66833D02*
X168573Y72878D01*
X162528Y61616D02*
Y66833D01*
X168573Y72878D02*
Y79806D01*
X162528Y61616D02*
X163358Y60786D01*
Y57836D02*
Y60786D01*
X155738Y63511D02*
X156488Y64261D01*
X155738Y57836D02*
Y63511D01*
X159813Y45491D02*
Y46446D01*
X159548Y46711D02*
X159813Y46446D01*
Y43721D02*
Y45491D01*
X159548Y46711D02*
Y48086D01*
X161813Y43721D02*
Y46525D01*
X162088Y46800D02*
Y48086D01*
X161813Y46525D02*
X162088Y46800D01*
D23*
X1775Y175000D02*
X3904D01*
X5000Y174000D02*
Y175004D01*
X3200Y172200D02*
X5000Y174000D01*
X3904Y175004D02*
X5000D01*
X83277Y112592D02*
Y122029D01*
Y107512D02*
Y112592D01*
X283380Y113506D02*
Y120986D01*
Y108426D02*
Y113506D01*
X183225Y122425D02*
Y123000D01*
X183094Y122294D02*
X183225Y122425D01*
X183094Y112888D02*
Y122294D01*
X32125Y23111D02*
Y28025D01*
X31250Y22236D02*
X32125Y23111D01*
X26343Y34400D02*
X32250D01*
X11898Y16963D02*
X20946D01*
X26219Y22236D02*
X31250D01*
X20946Y16963D02*
X26219Y22236D01*
X11898Y13527D02*
X14700Y10725D01*
X21310D01*
X11898Y13527D02*
Y16963D01*
X137109Y107808D02*
Y112888D01*
X177278Y107681D02*
Y112761D01*
X183094Y107808D02*
Y112888D01*
D24*
X129550Y29025D02*
Y33818D01*
X129550Y33818D02*
X129550Y33818D01*
X38800Y32200D02*
Y35375D01*
X54050Y50625D01*
X82325D01*
X101000Y69300D02*
X111775D01*
X82325Y50625D02*
X101000Y69300D01*
X130975Y50100D02*
X213650D01*
X111775Y69300D02*
X130975Y50100D01*
X269500Y23975D02*
X272550D01*
X273925Y22600D01*
X259657Y33818D02*
X269500Y23975D01*
X58157Y33818D02*
X129550D01*
X58150Y33825D02*
X58157Y33818D01*
X58150Y23225D02*
Y25139D01*
X283375Y17100D02*
X287025Y20750D01*
Y26900D02*
X297860Y37735D01*
X287025Y20750D02*
Y26900D01*
X224450Y60900D02*
X238025D01*
X213650Y50100D02*
X224450Y60900D01*
X283350Y17100D02*
X283375D01*
X239129Y52880D02*
Y59796D01*
X238025Y60900D02*
X239129Y59796D01*
X158182Y33818D02*
X259657D01*
X158175Y33825D02*
X158182Y33818D01*
X297860Y37735D02*
X302985D01*
X45150Y22300D02*
X56225D01*
X129550Y33818D02*
X158168D01*
X158175Y33825D01*
X104430Y57366D02*
X106880D01*
X104430Y60366D02*
X106880D01*
X104430Y54366D02*
X106880D01*
X104455Y46216D02*
X106905D01*
X104455Y43216D02*
X106905D01*
X104455Y40216D02*
X106905D01*
X58150Y25139D02*
Y33825D01*
X57150Y22225D02*
X58150Y23225D01*
X56300Y22225D02*
X57150D01*
X56225Y22300D02*
X56300Y22225D01*
D25*
X275225Y32700D02*
X280625D01*
X282095Y34170D01*
Y38300D01*
X57981Y46811D02*
Y48476D01*
Y46811D02*
X58004Y46789D01*
X259246Y47954D02*
X259272Y47979D01*
X259221Y46479D02*
X259246Y46505D01*
Y47954D01*
X158286Y46525D02*
Y48078D01*
X158278Y48086D02*
X158286Y48078D01*
Y46525D02*
X158316Y46496D01*
D26*
X102330Y40241D02*
Y54366D01*
X102355Y40216D02*
X102414Y40157D01*
X102330Y40241D02*
X102355Y40216D01*
X104430Y63245D02*
X106929D01*
X106929Y63245D01*
X102330Y54366D02*
Y57366D01*
Y60366D01*
Y63245D02*
Y66254D01*
Y60366D02*
Y63245D01*
X104430Y66254D02*
X106929D01*
X106929Y66255D01*
X61542Y40282D02*
X63052D01*
X66834Y44064D01*
X61532Y40282D02*
X61542D01*
X61532D02*
Y41737D01*
Y42062D01*
D27*
X188161Y37987D02*
D03*
X181871Y38279D02*
D03*
D28*
X166439Y57836D02*
D03*
X148660Y13457D02*
D03*
X152871Y10317D02*
D03*
X148660Y5477D02*
D03*
Y16602D02*
D03*
Y8727D02*
D03*
X150683Y15002D02*
D03*
X150475Y7027D02*
D03*
Y11827D02*
D03*
X56711Y38232D02*
D03*
X54714Y45661D02*
D03*
X74041Y77404D02*
D03*
X81661Y79635D02*
D03*
X247860Y64326D02*
D03*
X267927Y57729D02*
D03*
X254871D02*
D03*
X258002Y37788D02*
D03*
X278232Y77032D02*
D03*
X255223Y46105D02*
D03*
X293185Y20344D02*
D03*
X293072Y30054D02*
D03*
X287475Y35075D02*
D03*
X147856Y64321D02*
D03*
X157008Y38337D02*
D03*
X178714Y74317D02*
D03*
X153823Y57836D02*
D03*
X154374Y44728D02*
D03*
X293135Y14410D02*
D03*
X291806Y55633D02*
D03*
X276609Y34900D02*
D03*
X290180Y39078D02*
D03*
X291806Y59367D02*
D03*
X285396Y72651D02*
D03*
X291781Y68959D02*
D03*
X279555Y35172D02*
D03*
D29*
X16700Y80466D02*
D03*
X46623Y71070D02*
D03*
X46548Y76145D02*
D03*
X46654Y61250D02*
D03*
X60881Y71070D02*
D03*
X60806Y76145D02*
D03*
X262443Y70319D02*
D03*
X262368Y75394D02*
D03*
X248151Y70560D02*
D03*
X248076Y75635D02*
D03*
X162528Y70566D02*
D03*
X162453Y75641D02*
D03*
X148377Y75780D02*
D03*
X148452Y70705D02*
D03*
D30*
X124666Y130369D02*
D03*
X130000D02*
D03*
X135334D02*
D03*
X95334D02*
D03*
X90000D02*
D03*
X84666D02*
D03*
X184666D02*
D03*
X190000D02*
D03*
X195334D02*
D03*
X164666D02*
D03*
X170000D02*
D03*
X175334D02*
D03*
X44666D02*
D03*
X50000D02*
D03*
X55334D02*
D03*
X24666D02*
D03*
X30000D02*
D03*
X35334D02*
D03*
X64666D02*
D03*
X70000D02*
D03*
X75334D02*
D03*
X284666D02*
D03*
X290000D02*
D03*
X295334D02*
D03*
X264666D02*
D03*
X270000D02*
D03*
X275334D02*
D03*
X144666D02*
D03*
X150000D02*
D03*
X155334D02*
D03*
X224666D02*
D03*
X230000D02*
D03*
X235334D02*
D03*
X244666D02*
D03*
X250000D02*
D03*
X255334D02*
D03*
D31*
X25775Y65845D02*
D03*
X302985Y29515D02*
D03*
X114300Y53870D02*
D03*
X292961Y43498D02*
D03*
X228279Y57970D02*
D03*
X236279Y57960D02*
D03*
D32*
X25775Y68385D02*
D03*
Y70925D02*
D03*
Y73465D02*
D03*
X302985Y34995D02*
D03*
Y32255D02*
D03*
Y37735D02*
D03*
Y40475D02*
D03*
X305825Y36365D02*
D03*
Y33625D02*
D03*
Y30885D02*
D03*
Y39105D02*
D03*
X114300Y51330D02*
D03*
Y48790D02*
D03*
Y46250D02*
D03*
Y43710D02*
D03*
Y41170D02*
D03*
X173080Y7700D02*
D03*
X170540D02*
D03*
X168000D02*
D03*
X165460D02*
D03*
X162920D02*
D03*
X292961Y46038D02*
D03*
Y48578D02*
D03*
Y51118D02*
D03*
X228279Y55430D02*
D03*
Y52890D02*
D03*
Y50350D02*
D03*
Y47810D02*
D03*
Y45270D02*
D03*
X236279Y55420D02*
D03*
Y52880D02*
D03*
Y50340D02*
D03*
Y47800D02*
D03*
Y45260D02*
D03*
D33*
X228024Y13500D02*
D03*
Y16040D02*
D03*
Y18580D02*
D03*
Y21120D02*
D03*
Y23660D02*
D03*
Y26200D02*
D03*
X235865Y26225D02*
D03*
Y23685D02*
D03*
Y21145D02*
D03*
Y18605D02*
D03*
Y16065D02*
D03*
Y13525D02*
D03*
D34*
X304405Y22505D02*
D03*
Y47495D02*
D03*
D35*
X202257Y45225D02*
D03*
X199717D02*
D03*
X217202D02*
D03*
X219742D02*
D03*
X193241Y45287D02*
D03*
X190701D02*
D03*
X208532Y45225D02*
D03*
X211072D02*
D03*
X184411Y45237D02*
D03*
X181871D02*
D03*
D36*
X197177Y45225D02*
D03*
X214662D02*
D03*
X188161Y45287D02*
D03*
X205992Y45225D02*
D03*
X179331Y45237D02*
D03*
D37*
X195524Y15981D02*
D03*
Y20861D02*
D03*
D38*
X4150Y166175D02*
D03*
X9100D02*
D03*
X29450Y158225D02*
D03*
X34400D02*
D03*
X46445Y165059D02*
D03*
X51395D02*
D03*
X76135Y164983D02*
D03*
X71185D02*
D03*
X148869Y165004D02*
D03*
X143919D02*
D03*
X249058Y165034D02*
D03*
X244108D02*
D03*
X275869Y165059D02*
D03*
X270919D02*
D03*
X175971Y165004D02*
D03*
X160000Y140004D02*
D03*
Y150004D02*
D03*
X300000Y140004D02*
D03*
Y150004D02*
D03*
X20000Y138976D02*
D03*
Y149726D02*
D03*
X171021Y165004D02*
D03*
D39*
X27250Y174540D02*
D03*
Y164634D02*
D03*
X17425Y174540D02*
D03*
Y164634D02*
D03*
X60000Y159638D02*
D03*
Y169544D02*
D03*
X37000Y164634D02*
D03*
Y174540D02*
D03*
X159893Y159638D02*
D03*
Y169544D02*
D03*
X259994Y159638D02*
D03*
Y169544D02*
D03*
D40*
X307400Y14480D02*
D03*
X304005D02*
D03*
X31815Y78014D02*
D03*
X37446Y79505D02*
D03*
X6564Y16963D02*
D03*
X11898D02*
D03*
Y34362D02*
D03*
X6564D02*
D03*
X20914Y30470D02*
D03*
X46252Y64911D02*
D03*
X5724Y88112D02*
D03*
X37446Y74800D02*
D03*
X35545Y60305D02*
D03*
X35293Y46105D02*
D03*
X28765Y46105D02*
D03*
X29185Y60305D02*
D03*
X27025Y56685D02*
D03*
X298316Y71428D02*
D03*
D41*
X26390Y10725D02*
D03*
X12000Y49539D02*
D03*
Y66539D02*
D03*
X309475Y65000D02*
D03*
Y70080D02*
D03*
Y90000D02*
D03*
Y95080D02*
D03*
D42*
X21310Y10725D02*
D03*
D43*
X12000Y54619D02*
D03*
Y71619D02*
D03*
X309475Y59920D02*
D03*
Y84920D02*
D03*
D44*
X58801Y98029D02*
D03*
X38481D02*
D03*
X56261D02*
D03*
X48641D02*
D03*
X53721D02*
D03*
X46101D02*
D03*
X51181D02*
D03*
X43561D02*
D03*
X41021D02*
D03*
X61341D02*
D03*
X63881D02*
D03*
X66421D02*
D03*
X71501D02*
D03*
X79121D02*
D03*
X68961D02*
D03*
X74041D02*
D03*
X76581D02*
D03*
X158394Y98010D02*
D03*
X138074D02*
D03*
X155854D02*
D03*
X148234D02*
D03*
X153314D02*
D03*
X145694D02*
D03*
X150774D02*
D03*
X143154D02*
D03*
X140614D02*
D03*
X160934D02*
D03*
X163474D02*
D03*
X166014D02*
D03*
X171094D02*
D03*
X178714D02*
D03*
X168554D02*
D03*
X173634D02*
D03*
X176174D02*
D03*
X275692D02*
D03*
X273152D02*
D03*
X268072D02*
D03*
X278232D02*
D03*
X270612D02*
D03*
X265532D02*
D03*
X262992D02*
D03*
X260452D02*
D03*
X240132D02*
D03*
X242672D02*
D03*
X250292D02*
D03*
X245212D02*
D03*
X252832D02*
D03*
X247752D02*
D03*
X255372D02*
D03*
X237592D02*
D03*
X257912D02*
D03*
D45*
X81661Y98029D02*
D03*
X181254Y98010D02*
D03*
X280772D02*
D03*
D46*
X43562Y112544D02*
D03*
Y107464D02*
D03*
X37562Y112544D02*
D03*
Y107464D02*
D03*
X77277Y112592D02*
D03*
Y107512D02*
D03*
X83277Y112592D02*
D03*
Y107512D02*
D03*
X283380Y113506D02*
D03*
Y108426D02*
D03*
X277380Y113506D02*
D03*
Y108426D02*
D03*
X236888Y113430D02*
D03*
Y108350D02*
D03*
X242888Y113430D02*
D03*
Y108350D02*
D03*
X183094Y107808D02*
D03*
Y112888D02*
D03*
X177278Y107681D02*
D03*
Y112761D02*
D03*
X142545Y107808D02*
D03*
Y112888D02*
D03*
X137109Y107808D02*
D03*
Y112888D02*
D03*
D47*
X196975Y4550D02*
D03*
D48*
X160380Y7700D02*
D03*
D49*
X5875Y132700D02*
D03*
X66705Y35068D02*
D03*
X69000Y47075D02*
D03*
D50*
X22216Y59275D02*
D03*
X21566Y59264D02*
D03*
X22866Y59275D02*
D03*
X126484Y775D02*
D03*
X182350Y4180D02*
D03*
X181600Y4970D02*
D03*
X185800Y2425D02*
D03*
X183105Y3450D02*
D03*
X188025Y2425D02*
D03*
Y3450D02*
D03*
X184835Y8569D02*
D03*
X235099Y11630D02*
D03*
X235750D02*
D03*
X236400D02*
D03*
X32025Y119650D02*
D03*
X203407Y36515D02*
D03*
X129550Y29025D02*
D03*
X86404Y29775D02*
D03*
X83315Y28539D02*
D03*
X17343Y72509D02*
D03*
X16793Y73091D02*
D03*
X88396Y28539D02*
D03*
X301604Y64312D02*
D03*
X16191Y73649D02*
D03*
X81310Y31079D02*
D03*
X86867Y36579D02*
D03*
X111342Y37779D02*
D03*
X118800Y38509D02*
D03*
X139750Y35195D02*
D03*
X155825Y35400D02*
D03*
X198100Y35425D02*
D03*
X258002Y29278D02*
D03*
X258000Y31200D02*
D03*
X255275Y32375D02*
D03*
X173628Y12631D02*
D03*
X162150Y12915D02*
D03*
X174630Y12631D02*
D03*
X6925Y91125D02*
D03*
X9548Y78817D02*
D03*
X100245Y26800D02*
D03*
X205325Y29800D02*
D03*
X65836Y37926D02*
D03*
X164725Y21025D02*
D03*
X151775Y30275D02*
D03*
X155875Y28450D02*
D03*
X122775Y38775D02*
D03*
X117850Y39975D02*
D03*
X120000Y40975D02*
D03*
X200400Y30000D02*
D03*
Y18700D02*
D03*
X202395Y24357D02*
D03*
X212561Y27607D02*
D03*
X176175Y29299D02*
D03*
X145625Y31925D02*
D03*
X184750Y19975D02*
D03*
X183851Y20705D02*
D03*
X184900Y29800D02*
D03*
X180351Y27568D02*
D03*
X171875Y28500D02*
D03*
X181468Y29299D02*
D03*
X178450Y29300D02*
D03*
X174775D02*
D03*
X118825Y14475D02*
D03*
X5724Y82922D02*
D03*
X313374Y42354D02*
D03*
X313424Y39677D02*
D03*
X297783Y15338D02*
D03*
X297758Y21338D02*
D03*
Y27363D02*
D03*
X269325Y32800D02*
D03*
X263212Y37683D02*
D03*
X262412D02*
D03*
X260837Y38688D02*
D03*
X269324Y33600D02*
D03*
X21894Y23338D02*
D03*
X40450Y43075D02*
D03*
X246218Y49700D02*
D03*
X219100Y16150D02*
D03*
X270700Y33800D02*
D03*
X275225Y32700D02*
D03*
X282095Y38300D02*
D03*
X244700Y39850D02*
D03*
X223625Y36400D02*
D03*
X219150Y36375D02*
D03*
X224750Y37500D02*
D03*
X227100Y38600D02*
D03*
X204391Y15071D02*
D03*
X147549Y19850D02*
D03*
X218050Y37525D02*
D03*
X178451Y16288D02*
D03*
X179238Y19975D02*
D03*
X193025Y38575D02*
D03*
X158700Y19245D02*
D03*
X210775Y17125D02*
D03*
X212355D02*
D03*
X204391Y16199D02*
D03*
X210760Y23375D02*
D03*
X189030Y11881D02*
D03*
X179741Y9132D02*
D03*
Y8100D02*
D03*
X176950Y6925D02*
D03*
X177972Y9746D02*
D03*
X180621Y5700D02*
D03*
X187000Y28125D02*
D03*
X187977Y28947D02*
D03*
X198500Y42925D02*
D03*
X199717Y40952D02*
D03*
X198500Y41800D02*
D03*
X181468Y27327D02*
D03*
X209490Y28975D02*
D03*
X116350Y38550D02*
D03*
X121425Y44800D02*
D03*
X147482Y25375D02*
D03*
X170575Y26850D02*
D03*
X168725Y21000D02*
D03*
X167600Y19625D02*
D03*
X160450Y40061D02*
D03*
X213325Y28475D02*
D03*
X174775Y24450D02*
D03*
X147482Y24132D02*
D03*
X163675Y20100D02*
D03*
X147516Y23066D02*
D03*
X147549Y21921D02*
D03*
X200400Y14050D02*
D03*
X163475Y16925D02*
D03*
X162200D02*
D03*
X147550Y20900D02*
D03*
X156756Y17450D02*
D03*
Y15631D02*
D03*
X161151Y16157D02*
D03*
X160125Y16150D02*
D03*
X158700Y16125D02*
D03*
X160225Y13050D02*
D03*
X157825Y11825D02*
D03*
X179507Y12980D02*
D03*
X179741Y16288D02*
D03*
X181375Y13742D02*
D03*
X181468Y25298D02*
D03*
Y26278D02*
D03*
X185351Y12631D02*
D03*
X186124Y14375D02*
D03*
X186502Y19238D02*
D03*
X185195Y15203D02*
D03*
X189958Y20608D02*
D03*
X191634Y22717D02*
D03*
X193414Y18386D02*
D03*
X175100Y20400D02*
D03*
X147775Y31775D02*
D03*
X142521Y16602D02*
D03*
X142486Y15002D02*
D03*
Y13457D02*
D03*
X126251Y14267D02*
D03*
Y12577D02*
D03*
Y15886D02*
D03*
Y10932D02*
D03*
X126267Y7622D02*
D03*
X126251Y9322D02*
D03*
X142521Y5512D02*
D03*
X142521Y11827D02*
D03*
X142521Y10317D02*
D03*
X142556Y7008D02*
D03*
X142521Y8727D02*
D03*
X288776Y63982D02*
D03*
X285731Y65272D02*
D03*
X285176Y66982D02*
D03*
X17860Y23338D02*
D03*
X66834Y44064D02*
D03*
X59504Y39114D02*
D03*
X267723Y42432D02*
D03*
X166760Y42170D02*
D03*
X282096Y53600D02*
D03*
X283303Y62712D02*
D03*
X284636Y57597D02*
D03*
X283308Y53600D02*
D03*
X284558Y59367D02*
D03*
X33565Y53975D02*
D03*
X298316Y66522D02*
D03*
X288446Y40368D02*
D03*
X280826D02*
D03*
X277651Y42508D02*
D03*
X279555Y37808D02*
D03*
X276541Y38261D02*
D03*
X283366Y39478D02*
D03*
D51*
X2075Y173350D02*
D03*
X3200Y172200D02*
D03*
X1775Y175000D02*
D03*
X5000Y171600D02*
D03*
D52*
X303976Y146272D02*
D03*
X302976D02*
D03*
X301976D02*
D03*
Y145237D02*
D03*
X302976D02*
D03*
X303976D02*
D03*
Y143205D02*
D03*
X302976D02*
D03*
X301976D02*
D03*
Y144240D02*
D03*
X302976D02*
D03*
X303976D02*
D03*
X300993Y144242D02*
D03*
X299993D02*
D03*
X298993D02*
D03*
Y143207D02*
D03*
X299993D02*
D03*
X300993D02*
D03*
Y145239D02*
D03*
X299993D02*
D03*
X298993D02*
D03*
Y146274D02*
D03*
X299993D02*
D03*
X300993D02*
D03*
X110475Y81811D02*
D03*
X109475D02*
D03*
X108475D02*
D03*
Y80775D02*
D03*
X110475D02*
D03*
X108475Y79779D02*
D03*
X109475D02*
D03*
Y80775D02*
D03*
X110475Y79779D02*
D03*
X94072Y46819D02*
D03*
X93072D02*
D03*
X92072D02*
D03*
X94072Y47816D02*
D03*
X93072D02*
D03*
X92072D02*
D03*
Y48852D02*
D03*
X93072D02*
D03*
X94072D02*
D03*
X210722Y78744D02*
D03*
X209722D02*
D03*
X208722D02*
D03*
X210722Y79741D02*
D03*
X209722D02*
D03*
X208722D02*
D03*
Y80776D02*
D03*
X209722D02*
D03*
X210722D02*
D03*
X165835Y66050D02*
D03*
X170448Y66051D02*
D03*
X38800Y32200D02*
D03*
X71625Y31775D02*
D03*
X103373Y15134D02*
D03*
X83225Y23000D02*
D03*
X58150Y25139D02*
D03*
X46700Y9500D02*
D03*
X239129Y52880D02*
D03*
X283350Y17100D02*
D03*
X104373Y15134D02*
D03*
X84273Y15084D02*
D03*
X85273D02*
D03*
X65623Y15209D02*
D03*
X66623D02*
D03*
X46134Y15189D02*
D03*
X47134D02*
D03*
X46198Y2584D02*
D03*
X47198D02*
D03*
X75123Y3134D02*
D03*
X76123D02*
D03*
X65573Y2584D02*
D03*
X66573D02*
D03*
X55848Y3109D02*
D03*
X56848D02*
D03*
X104993Y25769D02*
D03*
X64150Y22708D02*
D03*
X259657Y33818D02*
D03*
X158175Y33825D02*
D03*
X18130Y145875D02*
D03*
X17130D02*
D03*
X16130D02*
D03*
Y144839D02*
D03*
X17130D02*
D03*
X18130D02*
D03*
Y142807D02*
D03*
X17130D02*
D03*
X16130D02*
D03*
Y143843D02*
D03*
X17130D02*
D03*
X18130D02*
D03*
X21113Y143841D02*
D03*
X20113D02*
D03*
X19113D02*
D03*
Y142805D02*
D03*
X20113D02*
D03*
X21113D02*
D03*
Y144837D02*
D03*
X20113D02*
D03*
X19113D02*
D03*
Y145873D02*
D03*
X20113D02*
D03*
X21113D02*
D03*
X88975Y8960D02*
D03*
X100150Y20675D02*
D03*
X58150Y33825D02*
D03*
X52060Y11050D02*
D03*
X45150Y22300D02*
D03*
X71350Y11433D02*
D03*
X66075Y9910D02*
D03*
X263012Y102305D02*
D03*
X260472Y102313D02*
D03*
X163474Y102321D02*
D03*
X160985Y102347D02*
D03*
X61341Y102321D02*
D03*
X63881D02*
D03*
X245161Y87081D02*
D03*
X145694Y86980D02*
D03*
X43586Y87818D02*
D03*
X58004Y46789D02*
D03*
X64329Y46739D02*
D03*
X50196Y80061D02*
D03*
X50286Y66561D02*
D03*
X53416Y63774D02*
D03*
X64836Y66811D02*
D03*
X68876Y66851D02*
D03*
X54406Y66571D02*
D03*
X64686Y80095D02*
D03*
X268748Y79690D02*
D03*
X270564Y66204D02*
D03*
X267489Y64354D02*
D03*
X265938Y66220D02*
D03*
X254337Y79674D02*
D03*
X256187Y66184D02*
D03*
X252127Y66204D02*
D03*
X265622Y46535D02*
D03*
X259221Y46479D02*
D03*
X155893Y65931D02*
D03*
X152193D02*
D03*
X104514Y161066D02*
D03*
X103514D02*
D03*
X102514D02*
D03*
X101514D02*
D03*
X100514D02*
D03*
X99514D02*
D03*
X98514D02*
D03*
X97514D02*
D03*
Y160030D02*
D03*
X98514D02*
D03*
X99514D02*
D03*
X100514D02*
D03*
X101514D02*
D03*
X102514D02*
D03*
X103514D02*
D03*
X104514D02*
D03*
Y162062D02*
D03*
X103514D02*
D03*
X102514D02*
D03*
X101514D02*
D03*
X100514D02*
D03*
X99514D02*
D03*
X98514D02*
D03*
X97514D02*
D03*
Y163098D02*
D03*
X98514D02*
D03*
X99514D02*
D03*
X100514D02*
D03*
X101514D02*
D03*
X102514D02*
D03*
X103514D02*
D03*
X104514D02*
D03*
X96513D02*
D03*
X95513D02*
D03*
X94513D02*
D03*
X93513D02*
D03*
X92513D02*
D03*
X91513D02*
D03*
X90513D02*
D03*
X89513D02*
D03*
Y162062D02*
D03*
X90513D02*
D03*
X91513D02*
D03*
X92513D02*
D03*
X93513D02*
D03*
X94513D02*
D03*
X95513D02*
D03*
X96513D02*
D03*
Y160030D02*
D03*
X95513D02*
D03*
X94513D02*
D03*
X93513D02*
D03*
X92513D02*
D03*
X91513D02*
D03*
X90513D02*
D03*
X89513D02*
D03*
Y161066D02*
D03*
X90513D02*
D03*
X91513D02*
D03*
X92513D02*
D03*
X93513D02*
D03*
X94513D02*
D03*
X95513D02*
D03*
X96513D02*
D03*
X158316Y46496D02*
D03*
X164628Y46525D02*
D03*
X154953Y79806D02*
D03*
X168573D02*
D03*
D53*
X110000Y175000D02*
D03*
X210000D02*
D03*
X5000Y175004D02*
D03*
X315000Y175000D02*
D03*
D54*
X26343Y34400D02*
D03*
D55*
X191964Y16332D02*
D03*
%TF.MD5,8bfc96c90e220bc9a663c7b7f8e0f02b*%
M02*
