%TF.GenerationSoftware,Altium Limited,Altium Designer,26.1.1 (7)*%
G04 Layer_Color=8388736*
%FSLAX43Y43*%
%MOMM*%
%TF.SameCoordinates,F910D8A4-5627-44EB-A571-6FFAAA827985*%
%TF.FilePolarity,Positive*%
%TF.FileFunction,Other,Mechanical_10*%
%TF.Part,Single*%
G01*
G75*
%TA.AperFunction,NonConductor*%
%ADD96C,0.200*%
G36*
X114191Y47441D02*
X114190D01*
X114189D01*
X114185D01*
X114179Y47440D01*
X114174Y47440D01*
X114167D01*
X114152Y47437D01*
X114135Y47434D01*
X114118Y47428D01*
X114104Y47423D01*
X114097Y47419D01*
X114092Y47415D01*
X114091Y47414D01*
X114088Y47410D01*
X114083Y47404D01*
X114079Y47397D01*
X114073Y47387D01*
X114069Y47376D01*
X114066Y47362D01*
X114065Y47347D01*
Y47342D01*
X114066Y47336D01*
X114067Y47328D01*
X114068Y47319D01*
X114070Y47310D01*
X114074Y47301D01*
X114079Y47292D01*
X114080Y47291D01*
X114081Y47288D01*
X114085Y47284D01*
X114089Y47279D01*
X114095Y47274D01*
X114102Y47269D01*
X114109Y47264D01*
X114118Y47260D01*
X114119D01*
X114123Y47258D01*
X114129Y47257D01*
X114138Y47256D01*
X114149Y47254D01*
X114163Y47253D01*
X114179Y47251D01*
X114199D01*
X114640D01*
Y47166D01*
X114203D01*
X114202D01*
X114200D01*
X114196D01*
X114190D01*
X114183Y47167D01*
X114176D01*
X114158Y47169D01*
X114138Y47171D01*
X114116Y47174D01*
X114097Y47180D01*
X114079Y47186D01*
X114078D01*
X114077Y47187D01*
X114071Y47190D01*
X114064Y47195D01*
X114054Y47201D01*
X114043Y47210D01*
X114032Y47220D01*
X114021Y47233D01*
X114012Y47248D01*
X114011Y47250D01*
X114008Y47256D01*
X114005Y47264D01*
X114001Y47276D01*
X113996Y47291D01*
X113993Y47307D01*
X113990Y47326D01*
X113989Y47346D01*
Y47354D01*
X113990Y47360D01*
X113991Y47367D01*
X113992Y47375D01*
X113995Y47394D01*
X114001Y47415D01*
X114009Y47436D01*
X114015Y47447D01*
X114021Y47457D01*
X114029Y47466D01*
X114037Y47476D01*
X114038Y47477D01*
X114039Y47477D01*
X114043Y47479D01*
X114046Y47482D01*
X114051Y47486D01*
X114057Y47489D01*
X114065Y47493D01*
X114073Y47498D01*
X114082Y47502D01*
X114093Y47505D01*
X114104Y47509D01*
X114117Y47513D01*
X114131Y47514D01*
X114147Y47517D01*
X114163Y47518D01*
X114180D01*
X114191Y47441D01*
D02*
G37*
G36*
X114640Y46793D02*
Y46729D01*
X114226D01*
Y46643D01*
X114153D01*
Y46729D01*
X114000D01*
Y46808D01*
X114153D01*
Y47086D01*
X114226D01*
X114640Y46793D01*
D02*
G37*
G36*
X114442Y46561D02*
X114450Y46560D01*
X114460Y46559D01*
X114471Y46558D01*
X114483Y46555D01*
X114507Y46548D01*
X114520Y46544D01*
X114533Y46538D01*
X114546Y46532D01*
X114558Y46523D01*
X114571Y46515D01*
X114582Y46505D01*
X114583Y46504D01*
X114585Y46502D01*
X114588Y46499D01*
X114592Y46495D01*
X114596Y46489D01*
X114602Y46482D01*
X114607Y46474D01*
X114613Y46465D01*
X114619Y46456D01*
X114623Y46445D01*
X114633Y46420D01*
X114637Y46407D01*
X114640Y46392D01*
X114642Y46377D01*
X114643Y46362D01*
Y46355D01*
X114642Y46350D01*
Y46346D01*
X114641Y46339D01*
X114638Y46324D01*
X114634Y46306D01*
X114628Y46287D01*
X114619Y46267D01*
X114608Y46248D01*
Y46247D01*
X114607Y46246D01*
X114605Y46243D01*
X114602Y46239D01*
X114594Y46230D01*
X114584Y46218D01*
X114570Y46206D01*
X114554Y46192D01*
X114534Y46180D01*
X114512Y46169D01*
X114511D01*
X114509Y46168D01*
X114506Y46166D01*
X114501Y46165D01*
X114495Y46163D01*
X114486Y46160D01*
X114477Y46158D01*
X114467Y46155D01*
X114455Y46153D01*
X114441Y46150D01*
X114426Y46148D01*
X114410Y46146D01*
X114393Y46144D01*
X114374Y46142D01*
X114354Y46141D01*
X114333D01*
X114332D01*
X114327D01*
X114321D01*
X114312D01*
X114302Y46142D01*
X114290D01*
X114276Y46143D01*
X114263Y46145D01*
X114231Y46148D01*
X114198Y46153D01*
X114166Y46159D01*
X114151Y46164D01*
X114137Y46168D01*
X114136D01*
X114134Y46169D01*
X114130Y46171D01*
X114125Y46173D01*
X114119Y46176D01*
X114112Y46179D01*
X114096Y46189D01*
X114079Y46200D01*
X114060Y46213D01*
X114043Y46229D01*
X114027Y46248D01*
Y46249D01*
X114025Y46251D01*
X114023Y46253D01*
X114021Y46257D01*
X114018Y46263D01*
X114015Y46268D01*
X114011Y46276D01*
X114008Y46283D01*
X114001Y46300D01*
X113994Y46322D01*
X113991Y46345D01*
X113989Y46371D01*
Y46378D01*
X113990Y46383D01*
Y46389D01*
X113991Y46397D01*
X113994Y46414D01*
X113999Y46434D01*
X114006Y46454D01*
X114017Y46474D01*
X114023Y46484D01*
X114031Y46494D01*
X114031Y46495D01*
X114032Y46496D01*
X114035Y46498D01*
X114038Y46501D01*
X114043Y46505D01*
X114048Y46509D01*
X114061Y46519D01*
X114078Y46528D01*
X114098Y46537D01*
X114121Y46545D01*
X114148Y46550D01*
X114154Y46474D01*
X114153D01*
X114152Y46473D01*
X114150D01*
X114146Y46472D01*
X114136Y46470D01*
X114125Y46466D01*
X114112Y46461D01*
X114099Y46455D01*
X114087Y46448D01*
X114077Y46438D01*
X114076Y46437D01*
X114073Y46434D01*
X114069Y46427D01*
X114066Y46420D01*
X114061Y46410D01*
X114057Y46398D01*
X114055Y46384D01*
X114054Y46369D01*
Y46362D01*
X114055Y46356D01*
X114055Y46348D01*
X114057Y46337D01*
X114060Y46327D01*
X114064Y46316D01*
X114069Y46306D01*
X114070Y46305D01*
X114072Y46301D01*
X114076Y46296D01*
X114081Y46290D01*
X114088Y46283D01*
X114095Y46276D01*
X114104Y46268D01*
X114114Y46261D01*
X114115Y46260D01*
X114119Y46258D01*
X114126Y46254D01*
X114134Y46251D01*
X114145Y46246D01*
X114158Y46241D01*
X114173Y46237D01*
X114190Y46232D01*
X114190D01*
X114191Y46231D01*
X114194D01*
X114198Y46230D01*
X114207Y46228D01*
X114219Y46226D01*
X114234Y46224D01*
X114250Y46222D01*
X114267Y46221D01*
X114286Y46220D01*
X114287D01*
X114289D01*
X114294D01*
X114301D01*
X114300Y46221D01*
X114295Y46225D01*
X114288Y46230D01*
X114279Y46237D01*
X114270Y46246D01*
X114260Y46257D01*
X114250Y46270D01*
X114240Y46285D01*
X114239Y46287D01*
X114237Y46292D01*
X114233Y46300D01*
X114229Y46311D01*
X114225Y46325D01*
X114221Y46339D01*
X114218Y46356D01*
X114217Y46374D01*
Y46381D01*
X114218Y46386D01*
X114219Y46394D01*
X114220Y46401D01*
X114222Y46411D01*
X114225Y46420D01*
X114231Y46441D01*
X114236Y46452D01*
X114241Y46463D01*
X114248Y46475D01*
X114256Y46486D01*
X114264Y46497D01*
X114275Y46508D01*
X114276Y46509D01*
X114277Y46510D01*
X114280Y46512D01*
X114285Y46516D01*
X114291Y46521D01*
X114298Y46525D01*
X114306Y46530D01*
X114315Y46534D01*
X114325Y46540D01*
X114337Y46545D01*
X114349Y46549D01*
X114362Y46554D01*
X114377Y46558D01*
X114393Y46559D01*
X114409Y46561D01*
X114426Y46562D01*
X114427D01*
X114431D01*
X114435D01*
X114442Y46561D01*
D02*
G37*
G36*
X102578Y60553D02*
X102585Y60552D01*
X102593Y60551D01*
X102603Y60549D01*
X102613Y60547D01*
X102635Y60542D01*
X102658Y60533D01*
X102670Y60527D01*
X102681Y60520D01*
X102692Y60512D01*
X102703Y60504D01*
X102704Y60503D01*
X102706Y60501D01*
X102709Y60498D01*
X102712Y60495D01*
X102716Y60490D01*
X102721Y60484D01*
X102726Y60477D01*
X102732Y60469D01*
X102737Y60459D01*
X102743Y60450D01*
X102753Y60428D01*
X102762Y60402D01*
X102764Y60388D01*
X102766Y60373D01*
X102688Y60363D01*
Y60364D01*
X102687Y60366D01*
X102686Y60370D01*
X102685Y60374D01*
X102684Y60380D01*
X102682Y60386D01*
X102677Y60400D01*
X102671Y60417D01*
X102663Y60433D01*
X102653Y60447D01*
X102642Y60460D01*
X102640Y60461D01*
X102637Y60465D01*
X102629Y60470D01*
X102620Y60474D01*
X102609Y60480D01*
X102595Y60484D01*
X102579Y60488D01*
X102563Y60489D01*
X102557D01*
X102553Y60488D01*
X102543Y60487D01*
X102530Y60484D01*
X102516Y60480D01*
X102500Y60473D01*
X102484Y60464D01*
X102469Y60451D01*
X102468Y60449D01*
X102463Y60444D01*
X102457Y60435D01*
X102450Y60424D01*
X102443Y60410D01*
X102437Y60395D01*
X102432Y60376D01*
X102431Y60356D01*
Y60355D01*
Y60353D01*
Y60350D01*
X102431Y60347D01*
X102432Y60336D01*
X102435Y60324D01*
X102439Y60310D01*
X102445Y60295D01*
X102455Y60280D01*
X102467Y60266D01*
X102468Y60264D01*
X102473Y60261D01*
X102480Y60255D01*
X102491Y60249D01*
X102504Y60242D01*
X102519Y60237D01*
X102537Y60233D01*
X102556Y60231D01*
X102565D01*
X102571Y60232D01*
X102579Y60233D01*
X102589Y60235D01*
X102600Y60237D01*
X102612Y60239D01*
X102603Y60170D01*
X102598D01*
X102594Y60171D01*
X102582D01*
X102572Y60169D01*
X102560Y60167D01*
X102546Y60165D01*
X102530Y60160D01*
X102516Y60153D01*
X102500Y60145D01*
X102499D01*
X102498Y60144D01*
X102493Y60140D01*
X102487Y60134D01*
X102480Y60126D01*
X102472Y60114D01*
X102466Y60100D01*
X102461Y60084D01*
X102459Y60075D01*
Y60065D01*
Y60064D01*
Y60063D01*
Y60057D01*
X102461Y60050D01*
X102463Y60040D01*
X102467Y60029D01*
X102471Y60017D01*
X102479Y60005D01*
X102489Y59993D01*
X102490Y59993D01*
X102494Y59989D01*
X102501Y59984D01*
X102509Y59979D01*
X102520Y59974D01*
X102533Y59969D01*
X102548Y59966D01*
X102565Y59965D01*
X102572D01*
X102580Y59967D01*
X102591Y59969D01*
X102603Y59972D01*
X102615Y59977D01*
X102628Y59984D01*
X102640Y59993D01*
X102641Y59994D01*
X102645Y59999D01*
X102651Y60006D01*
X102657Y60015D01*
X102664Y60027D01*
X102670Y60042D01*
X102676Y60059D01*
X102679Y60079D01*
X102758Y60066D01*
Y60065D01*
X102757Y60062D01*
X102756Y60058D01*
X102755Y60053D01*
X102753Y60046D01*
X102750Y60039D01*
X102745Y60021D01*
X102736Y60001D01*
X102725Y59981D01*
X102711Y59961D01*
X102693Y59944D01*
X102692Y59943D01*
X102690Y59942D01*
X102688Y59940D01*
X102684Y59937D01*
X102679Y59933D01*
X102673Y59930D01*
X102666Y59926D01*
X102658Y59921D01*
X102639Y59914D01*
X102618Y59907D01*
X102593Y59902D01*
X102580Y59900D01*
X102557D01*
X102547Y59901D01*
X102535Y59903D01*
X102520Y59906D01*
X102504Y59910D01*
X102487Y59916D01*
X102470Y59923D01*
X102469D01*
X102468Y59924D01*
X102463Y59927D01*
X102455Y59932D01*
X102445Y59939D01*
X102434Y59948D01*
X102423Y59958D01*
X102412Y59970D01*
X102403Y59984D01*
X102402Y59986D01*
X102399Y59991D01*
X102395Y59999D01*
X102391Y60009D01*
X102386Y60021D01*
X102382Y60035D01*
X102380Y60051D01*
X102379Y60067D01*
Y60068D01*
Y60074D01*
X102380Y60081D01*
X102382Y60091D01*
X102384Y60104D01*
X102389Y60116D01*
X102394Y60129D01*
X102402Y60142D01*
X102403Y60144D01*
X102406Y60148D01*
X102411Y60154D01*
X102419Y60162D01*
X102428Y60170D01*
X102439Y60179D01*
X102452Y60188D01*
X102468Y60196D01*
X102467D01*
X102465Y60197D01*
X102462Y60198D01*
X102458Y60199D01*
X102448Y60202D01*
X102435Y60208D01*
X102420Y60215D01*
X102406Y60225D01*
X102392Y60237D01*
X102379Y60251D01*
X102378Y60252D01*
X102374Y60258D01*
X102369Y60267D01*
X102363Y60279D01*
X102357Y60294D01*
X102352Y60312D01*
X102348Y60332D01*
X102347Y60354D01*
Y60355D01*
Y60358D01*
Y60362D01*
X102348Y60368D01*
X102349Y60375D01*
X102351Y60384D01*
X102353Y60393D01*
X102355Y60403D01*
X102362Y60425D01*
X102368Y60437D01*
X102373Y60448D01*
X102381Y60460D01*
X102389Y60472D01*
X102398Y60484D01*
X102409Y60496D01*
X102410Y60496D01*
X102412Y60498D01*
X102416Y60501D01*
X102420Y60505D01*
X102426Y60509D01*
X102433Y60514D01*
X102442Y60520D01*
X102452Y60524D01*
X102462Y60530D01*
X102474Y60535D01*
X102486Y60540D01*
X102500Y60545D01*
X102515Y60548D01*
X102530Y60551D01*
X102546Y60553D01*
X102564Y60554D01*
X102572D01*
X102578Y60553D01*
D02*
G37*
G36*
X103380Y59903D02*
X103134D01*
X103117Y59904D01*
X103099Y59905D01*
X103080Y59907D01*
X103062Y59909D01*
X103046Y59912D01*
X103045D01*
X103044Y59913D01*
X103041D01*
X103037Y59915D01*
X103027Y59918D01*
X103014Y59922D01*
X102999Y59929D01*
X102983Y59937D01*
X102968Y59946D01*
X102953Y59958D01*
X102952Y59959D01*
X102951Y59960D01*
X102948Y59963D01*
X102945Y59966D01*
X102935Y59975D01*
X102924Y59988D01*
X102912Y60004D01*
X102899Y60022D01*
X102887Y60043D01*
X102877Y60067D01*
Y60068D01*
X102876Y60070D01*
X102874Y60074D01*
X102873Y60079D01*
X102871Y60086D01*
X102869Y60093D01*
X102867Y60102D01*
X102864Y60112D01*
X102861Y60122D01*
X102860Y60134D01*
X102855Y60160D01*
X102852Y60189D01*
X102851Y60220D01*
Y60221D01*
Y60223D01*
Y60227D01*
Y60232D01*
X102852Y60238D01*
Y60246D01*
X102853Y60263D01*
X102856Y60284D01*
X102859Y60305D01*
X102863Y60327D01*
X102869Y60349D01*
Y60350D01*
X102870Y60352D01*
X102871Y60355D01*
X102872Y60359D01*
X102875Y60369D01*
X102881Y60382D01*
X102886Y60397D01*
X102894Y60411D01*
X102903Y60427D01*
X102912Y60442D01*
X102913Y60444D01*
X102917Y60448D01*
X102922Y60455D01*
X102930Y60463D01*
X102938Y60472D01*
X102948Y60482D01*
X102958Y60492D01*
X102970Y60500D01*
X102972Y60501D01*
X102976Y60504D01*
X102982Y60508D01*
X102992Y60512D01*
X103003Y60518D01*
X103016Y60522D01*
X103031Y60528D01*
X103047Y60533D01*
X103049D01*
X103052Y60533D01*
X103055Y60534D01*
X103064Y60535D01*
X103077Y60537D01*
X103092Y60539D01*
X103109Y60541D01*
X103129Y60542D01*
X103150Y60543D01*
X103380D01*
Y59903D01*
D02*
G37*
G36*
Y56914D02*
X103134D01*
X103117Y56915D01*
X103099Y56916D01*
X103080Y56918D01*
X103062Y56920D01*
X103046Y56923D01*
X103045D01*
X103044Y56924D01*
X103041D01*
X103037Y56926D01*
X103027Y56929D01*
X103014Y56933D01*
X102999Y56940D01*
X102983Y56948D01*
X102968Y56957D01*
X102953Y56969D01*
X102952Y56970D01*
X102951Y56971D01*
X102948Y56974D01*
X102945Y56977D01*
X102935Y56986D01*
X102924Y56999D01*
X102912Y57015D01*
X102899Y57033D01*
X102887Y57055D01*
X102877Y57079D01*
Y57079D01*
X102876Y57081D01*
X102874Y57085D01*
X102873Y57091D01*
X102871Y57097D01*
X102869Y57104D01*
X102867Y57113D01*
X102864Y57123D01*
X102861Y57133D01*
X102860Y57145D01*
X102855Y57171D01*
X102852Y57200D01*
X102851Y57231D01*
Y57232D01*
Y57234D01*
Y57238D01*
Y57243D01*
X102852Y57250D01*
Y57257D01*
X102853Y57275D01*
X102856Y57295D01*
X102859Y57316D01*
X102863Y57338D01*
X102869Y57361D01*
Y57361D01*
X102870Y57363D01*
X102871Y57366D01*
X102872Y57370D01*
X102875Y57380D01*
X102881Y57393D01*
X102886Y57408D01*
X102894Y57422D01*
X102903Y57438D01*
X102912Y57453D01*
X102913Y57455D01*
X102917Y57459D01*
X102922Y57466D01*
X102930Y57474D01*
X102938Y57484D01*
X102948Y57493D01*
X102958Y57503D01*
X102970Y57511D01*
X102972Y57512D01*
X102976Y57515D01*
X102982Y57519D01*
X102992Y57523D01*
X103003Y57529D01*
X103016Y57533D01*
X103031Y57539D01*
X103047Y57544D01*
X103049D01*
X103052Y57545D01*
X103055Y57545D01*
X103064Y57546D01*
X103077Y57548D01*
X103092Y57550D01*
X103109Y57552D01*
X103129Y57553D01*
X103150Y57554D01*
X103380D01*
Y56914D01*
D02*
G37*
G36*
X102778Y57553D02*
Y57549D01*
Y57544D01*
X102777Y57536D01*
X102776Y57528D01*
X102774Y57519D01*
X102773Y57509D01*
X102769Y57499D01*
Y57498D01*
X102768Y57497D01*
X102766Y57492D01*
X102762Y57484D01*
X102757Y57472D01*
X102750Y57459D01*
X102740Y57445D01*
X102730Y57430D01*
X102717Y57414D01*
Y57413D01*
X102715Y57412D01*
X102711Y57407D01*
X102702Y57398D01*
X102690Y57386D01*
X102676Y57373D01*
X102659Y57356D01*
X102638Y57337D01*
X102615Y57318D01*
X102614Y57317D01*
X102610Y57314D01*
X102604Y57310D01*
X102598Y57304D01*
X102590Y57297D01*
X102579Y57288D01*
X102569Y57279D01*
X102557Y57269D01*
X102534Y57247D01*
X102511Y57225D01*
X102500Y57214D01*
X102490Y57202D01*
X102480Y57192D01*
X102473Y57182D01*
Y57181D01*
X102471Y57180D01*
X102469Y57177D01*
X102468Y57174D01*
X102461Y57164D01*
X102454Y57152D01*
X102447Y57137D01*
X102441Y57121D01*
X102437Y57104D01*
X102435Y57087D01*
Y57086D01*
Y57085D01*
X102436Y57079D01*
X102437Y57070D01*
X102440Y57060D01*
X102443Y57047D01*
X102450Y57034D01*
X102458Y57021D01*
X102469Y57008D01*
X102471Y57006D01*
X102476Y57003D01*
X102482Y56998D01*
X102492Y56992D01*
X102505Y56986D01*
X102520Y56981D01*
X102538Y56977D01*
X102557Y56976D01*
X102563D01*
X102566Y56977D01*
X102578Y56978D01*
X102590Y56981D01*
X102604Y56984D01*
X102620Y56991D01*
X102635Y56999D01*
X102649Y57010D01*
X102651Y57012D01*
X102654Y57017D01*
X102660Y57024D01*
X102665Y57035D01*
X102672Y57048D01*
X102677Y57065D01*
X102681Y57083D01*
X102683Y57104D01*
X102763Y57096D01*
Y57095D01*
X102762Y57092D01*
Y57088D01*
X102762Y57081D01*
X102760Y57074D01*
X102758Y57066D01*
X102755Y57055D01*
X102752Y57045D01*
X102745Y57023D01*
X102734Y57001D01*
X102727Y56990D01*
X102719Y56979D01*
X102711Y56969D01*
X102701Y56959D01*
X102701Y56958D01*
X102699Y56957D01*
X102696Y56955D01*
X102691Y56952D01*
X102686Y56948D01*
X102679Y56944D01*
X102672Y56940D01*
X102663Y56935D01*
X102652Y56931D01*
X102641Y56926D01*
X102629Y56922D01*
X102616Y56919D01*
X102603Y56916D01*
X102588Y56913D01*
X102572Y56912D01*
X102555Y56911D01*
X102546D01*
X102540Y56912D01*
X102532Y56913D01*
X102523Y56914D01*
X102513Y56916D01*
X102503Y56918D01*
X102479Y56924D01*
X102455Y56933D01*
X102443Y56939D01*
X102431Y56945D01*
X102419Y56954D01*
X102409Y56963D01*
X102408Y56964D01*
X102407Y56965D01*
X102405Y56969D01*
X102401Y56972D01*
X102396Y56977D01*
X102392Y56983D01*
X102387Y56990D01*
X102382Y56998D01*
X102372Y57016D01*
X102363Y57038D01*
X102359Y57049D01*
X102357Y57062D01*
X102356Y57075D01*
X102355Y57089D01*
Y57091D01*
Y57095D01*
X102356Y57103D01*
X102357Y57113D01*
X102358Y57124D01*
X102362Y57137D01*
X102366Y57151D01*
X102371Y57165D01*
X102372Y57166D01*
X102374Y57171D01*
X102378Y57178D01*
X102383Y57189D01*
X102391Y57200D01*
X102400Y57214D01*
X102411Y57227D01*
X102424Y57243D01*
X102426Y57245D01*
X102431Y57251D01*
X102435Y57255D01*
X102440Y57260D01*
X102445Y57265D01*
X102453Y57273D01*
X102460Y57280D01*
X102469Y57288D01*
X102479Y57298D01*
X102490Y57308D01*
X102502Y57318D01*
X102515Y57330D01*
X102529Y57342D01*
X102544Y57355D01*
X102545Y57356D01*
X102547Y57358D01*
X102551Y57361D01*
X102555Y57364D01*
X102561Y57370D01*
X102567Y57375D01*
X102582Y57387D01*
X102598Y57401D01*
X102613Y57415D01*
X102626Y57427D01*
X102631Y57432D01*
X102636Y57436D01*
X102637Y57437D01*
X102639Y57440D01*
X102643Y57444D01*
X102648Y57449D01*
X102652Y57456D01*
X102658Y57462D01*
X102669Y57478D01*
X102354D01*
Y57554D01*
X102778D01*
Y57553D01*
D02*
G37*
G36*
X102588Y66442D02*
X102594D01*
X102602Y66441D01*
X102619Y66437D01*
X102639Y66433D01*
X102659Y66425D01*
X102679Y66415D01*
X102689Y66408D01*
X102699Y66401D01*
X102700Y66400D01*
X102701Y66399D01*
X102703Y66396D01*
X102706Y66394D01*
X102710Y66389D01*
X102714Y66384D01*
X102724Y66371D01*
X102733Y66354D01*
X102742Y66334D01*
X102750Y66310D01*
X102755Y66284D01*
X102679Y66277D01*
Y66278D01*
X102678Y66280D01*
Y66282D01*
X102677Y66286D01*
X102675Y66296D01*
X102671Y66307D01*
X102666Y66320D01*
X102660Y66333D01*
X102652Y66345D01*
X102643Y66355D01*
X102642Y66356D01*
X102639Y66359D01*
X102632Y66362D01*
X102625Y66366D01*
X102615Y66371D01*
X102603Y66374D01*
X102589Y66377D01*
X102574Y66378D01*
X102567D01*
X102561Y66377D01*
X102553Y66376D01*
X102542Y66374D01*
X102532Y66371D01*
X102521Y66368D01*
X102511Y66362D01*
X102510Y66361D01*
X102506Y66359D01*
X102501Y66356D01*
X102495Y66350D01*
X102488Y66344D01*
X102480Y66336D01*
X102473Y66328D01*
X102466Y66318D01*
X102465Y66317D01*
X102463Y66312D01*
X102459Y66306D01*
X102455Y66298D01*
X102451Y66286D01*
X102446Y66273D01*
X102442Y66259D01*
X102437Y66242D01*
Y66241D01*
X102436Y66240D01*
Y66237D01*
X102435Y66234D01*
X102433Y66224D01*
X102431Y66212D01*
X102429Y66198D01*
X102427Y66182D01*
X102426Y66164D01*
X102425Y66146D01*
Y66145D01*
Y66142D01*
Y66138D01*
Y66130D01*
X102426Y66132D01*
X102430Y66137D01*
X102435Y66143D01*
X102442Y66152D01*
X102451Y66162D01*
X102462Y66172D01*
X102475Y66182D01*
X102490Y66191D01*
X102492Y66192D01*
X102497Y66195D01*
X102505Y66199D01*
X102516Y66202D01*
X102529Y66207D01*
X102544Y66211D01*
X102561Y66213D01*
X102578Y66214D01*
X102586D01*
X102591Y66213D01*
X102599Y66212D01*
X102606Y66212D01*
X102615Y66210D01*
X102625Y66207D01*
X102646Y66200D01*
X102657Y66196D01*
X102668Y66190D01*
X102680Y66184D01*
X102691Y66175D01*
X102702Y66167D01*
X102713Y66157D01*
X102713Y66156D01*
X102715Y66154D01*
X102717Y66151D01*
X102721Y66147D01*
X102725Y66140D01*
X102730Y66134D01*
X102735Y66126D01*
X102739Y66116D01*
X102745Y66106D01*
X102750Y66095D01*
X102754Y66082D01*
X102759Y66069D01*
X102762Y66054D01*
X102764Y66039D01*
X102766Y66023D01*
X102767Y66005D01*
Y66004D01*
Y66001D01*
Y65996D01*
X102766Y65990D01*
X102765Y65981D01*
X102764Y65971D01*
X102762Y65961D01*
X102760Y65949D01*
X102753Y65925D01*
X102749Y65912D01*
X102743Y65898D01*
X102737Y65885D01*
X102728Y65873D01*
X102720Y65860D01*
X102710Y65849D01*
X102709Y65848D01*
X102707Y65846D01*
X102704Y65844D01*
X102700Y65840D01*
X102694Y65835D01*
X102687Y65830D01*
X102679Y65825D01*
X102670Y65819D01*
X102661Y65813D01*
X102650Y65808D01*
X102625Y65798D01*
X102612Y65795D01*
X102597Y65792D01*
X102582Y65790D01*
X102566Y65789D01*
X102560D01*
X102555Y65790D01*
X102551D01*
X102544Y65791D01*
X102529Y65794D01*
X102511Y65797D01*
X102492Y65804D01*
X102472Y65812D01*
X102453Y65823D01*
X102452D01*
X102451Y65825D01*
X102448Y65827D01*
X102444Y65830D01*
X102435Y65837D01*
X102423Y65847D01*
X102411Y65861D01*
X102397Y65878D01*
X102385Y65897D01*
X102374Y65919D01*
Y65920D01*
X102373Y65922D01*
X102371Y65926D01*
X102370Y65930D01*
X102368Y65937D01*
X102365Y65945D01*
X102363Y65955D01*
X102360Y65965D01*
X102357Y65977D01*
X102355Y65991D01*
X102353Y66005D01*
X102351Y66021D01*
X102349Y66039D01*
X102347Y66057D01*
X102346Y66077D01*
Y66099D01*
Y66100D01*
Y66104D01*
Y66111D01*
Y66119D01*
X102347Y66129D01*
Y66141D01*
X102348Y66155D01*
X102350Y66169D01*
X102353Y66200D01*
X102357Y66234D01*
X102364Y66265D01*
X102369Y66281D01*
X102373Y66295D01*
Y66296D01*
X102374Y66298D01*
X102376Y66301D01*
X102378Y66307D01*
X102381Y66312D01*
X102384Y66320D01*
X102394Y66335D01*
X102405Y66353D01*
X102418Y66371D01*
X102434Y66389D01*
X102453Y66405D01*
X102454D01*
X102455Y66407D01*
X102458Y66408D01*
X102462Y66410D01*
X102468Y66413D01*
X102473Y66417D01*
X102480Y66420D01*
X102488Y66423D01*
X102505Y66431D01*
X102527Y66437D01*
X102550Y66441D01*
X102576Y66443D01*
X102583D01*
X102588Y66442D01*
D02*
G37*
G36*
X103380Y65792D02*
X103134D01*
X103117Y65793D01*
X103099Y65794D01*
X103080Y65795D01*
X103062Y65798D01*
X103046Y65801D01*
X103045D01*
X103044Y65802D01*
X103041D01*
X103037Y65804D01*
X103027Y65807D01*
X103014Y65811D01*
X102999Y65818D01*
X102983Y65826D01*
X102968Y65835D01*
X102953Y65847D01*
X102952Y65848D01*
X102951Y65849D01*
X102948Y65852D01*
X102945Y65855D01*
X102935Y65864D01*
X102924Y65877D01*
X102912Y65893D01*
X102899Y65911D01*
X102887Y65932D01*
X102877Y65956D01*
Y65957D01*
X102876Y65959D01*
X102874Y65963D01*
X102873Y65968D01*
X102871Y65975D01*
X102869Y65982D01*
X102867Y65991D01*
X102864Y66001D01*
X102861Y66011D01*
X102860Y66023D01*
X102855Y66049D01*
X102852Y66077D01*
X102851Y66109D01*
Y66110D01*
Y66112D01*
Y66116D01*
Y66121D01*
X102852Y66127D01*
Y66135D01*
X102853Y66152D01*
X102856Y66173D01*
X102859Y66194D01*
X102863Y66216D01*
X102869Y66238D01*
Y66239D01*
X102870Y66241D01*
X102871Y66244D01*
X102872Y66248D01*
X102875Y66258D01*
X102881Y66271D01*
X102886Y66286D01*
X102894Y66300D01*
X102903Y66316D01*
X102912Y66331D01*
X102913Y66333D01*
X102917Y66337D01*
X102922Y66344D01*
X102930Y66352D01*
X102938Y66361D01*
X102948Y66371D01*
X102958Y66381D01*
X102970Y66389D01*
X102972Y66390D01*
X102976Y66393D01*
X102982Y66396D01*
X102992Y66401D01*
X103003Y66407D01*
X103016Y66411D01*
X103031Y66417D01*
X103047Y66421D01*
X103049D01*
X103052Y66422D01*
X103055Y66423D01*
X103064Y66424D01*
X103077Y66426D01*
X103092Y66428D01*
X103109Y66430D01*
X103129Y66431D01*
X103150Y66432D01*
X103380D01*
Y65792D01*
D02*
G37*
G36*
X102672Y63432D02*
Y63429D01*
Y63425D01*
X102671Y63420D01*
Y63412D01*
X102670Y63403D01*
X102669Y63393D01*
X102668Y63382D01*
X102666Y63369D01*
X102664Y63356D01*
X102662Y63340D01*
X102659Y63325D01*
X102656Y63308D01*
X102652Y63290D01*
X102643Y63252D01*
Y63251D01*
X102642Y63247D01*
X102640Y63241D01*
X102638Y63233D01*
X102635Y63224D01*
X102631Y63213D01*
X102627Y63200D01*
X102622Y63186D01*
X102616Y63170D01*
X102611Y63155D01*
X102597Y63119D01*
X102580Y63082D01*
X102562Y63045D01*
X102561Y63044D01*
X102559Y63041D01*
X102556Y63036D01*
X102553Y63029D01*
X102548Y63020D01*
X102541Y63010D01*
X102535Y62999D01*
X102528Y62987D01*
X102510Y62960D01*
X102492Y62933D01*
X102470Y62904D01*
X102448Y62877D01*
X102762D01*
Y62801D01*
X102347D01*
Y62863D01*
X102348Y62864D01*
X102350Y62866D01*
X102354Y62870D01*
X102357Y62875D01*
X102363Y62882D01*
X102370Y62889D01*
X102378Y62898D01*
X102386Y62910D01*
X102394Y62921D01*
X102405Y62934D01*
X102415Y62948D01*
X102425Y62963D01*
X102436Y62980D01*
X102447Y62997D01*
X102458Y63017D01*
X102469Y63036D01*
X102470Y63037D01*
X102472Y63041D01*
X102475Y63046D01*
X102480Y63055D01*
X102484Y63065D01*
X102490Y63076D01*
X102496Y63089D01*
X102503Y63104D01*
X102510Y63120D01*
X102518Y63137D01*
X102526Y63155D01*
X102533Y63175D01*
X102548Y63215D01*
X102562Y63257D01*
Y63258D01*
X102563Y63261D01*
X102564Y63265D01*
X102566Y63271D01*
X102567Y63278D01*
X102569Y63288D01*
X102572Y63298D01*
X102574Y63309D01*
X102577Y63322D01*
X102579Y63336D01*
X102584Y63365D01*
X102589Y63398D01*
X102591Y63433D01*
X102672D01*
Y63432D01*
D02*
G37*
G36*
X103380Y62793D02*
X103134D01*
X103117Y62794D01*
X103099Y62795D01*
X103080Y62797D01*
X103062Y62799D01*
X103046Y62802D01*
X103045D01*
X103044Y62803D01*
X103041D01*
X103037Y62805D01*
X103027Y62808D01*
X103014Y62812D01*
X102999Y62819D01*
X102983Y62827D01*
X102968Y62836D01*
X102953Y62848D01*
X102952Y62849D01*
X102951Y62850D01*
X102948Y62853D01*
X102945Y62856D01*
X102935Y62865D01*
X102924Y62878D01*
X102912Y62894D01*
X102899Y62912D01*
X102887Y62934D01*
X102877Y62958D01*
Y62959D01*
X102876Y62960D01*
X102874Y62964D01*
X102873Y62970D01*
X102871Y62976D01*
X102869Y62983D01*
X102867Y62992D01*
X102864Y63002D01*
X102861Y63012D01*
X102860Y63024D01*
X102855Y63050D01*
X102852Y63079D01*
X102851Y63110D01*
Y63111D01*
Y63113D01*
Y63118D01*
Y63122D01*
X102852Y63129D01*
Y63136D01*
X102853Y63154D01*
X102856Y63174D01*
X102859Y63195D01*
X102863Y63217D01*
X102869Y63240D01*
Y63241D01*
X102870Y63242D01*
X102871Y63245D01*
X102872Y63249D01*
X102875Y63259D01*
X102881Y63272D01*
X102886Y63287D01*
X102894Y63302D01*
X102903Y63317D01*
X102912Y63332D01*
X102913Y63334D01*
X102917Y63339D01*
X102922Y63345D01*
X102930Y63353D01*
X102938Y63363D01*
X102948Y63372D01*
X102958Y63382D01*
X102970Y63390D01*
X102972Y63391D01*
X102976Y63394D01*
X102982Y63398D01*
X102992Y63402D01*
X103003Y63408D01*
X103016Y63412D01*
X103031Y63418D01*
X103047Y63423D01*
X103049D01*
X103052Y63424D01*
X103055Y63424D01*
X103064Y63425D01*
X103077Y63427D01*
X103092Y63429D01*
X103109Y63431D01*
X103129Y63432D01*
X103150Y63433D01*
X103380D01*
Y62793D01*
D02*
G37*
G36*
Y53914D02*
X103134D01*
X103117Y53915D01*
X103099Y53916D01*
X103080Y53918D01*
X103062Y53920D01*
X103046Y53923D01*
X103045D01*
X103044Y53924D01*
X103041D01*
X103037Y53926D01*
X103027Y53929D01*
X103014Y53933D01*
X102999Y53940D01*
X102983Y53948D01*
X102968Y53957D01*
X102953Y53969D01*
X102952Y53970D01*
X102951Y53971D01*
X102948Y53974D01*
X102945Y53977D01*
X102935Y53986D01*
X102924Y53999D01*
X102912Y54015D01*
X102899Y54033D01*
X102887Y54055D01*
X102877Y54079D01*
Y54079D01*
X102876Y54081D01*
X102874Y54085D01*
X102873Y54091D01*
X102871Y54097D01*
X102869Y54104D01*
X102867Y54113D01*
X102864Y54123D01*
X102861Y54133D01*
X102860Y54145D01*
X102855Y54171D01*
X102852Y54200D01*
X102851Y54231D01*
Y54232D01*
Y54234D01*
Y54238D01*
Y54243D01*
X102852Y54250D01*
Y54257D01*
X102853Y54275D01*
X102856Y54295D01*
X102859Y54316D01*
X102863Y54338D01*
X102869Y54361D01*
Y54361D01*
X102870Y54363D01*
X102871Y54366D01*
X102872Y54370D01*
X102875Y54380D01*
X102881Y54393D01*
X102886Y54408D01*
X102894Y54422D01*
X102903Y54438D01*
X102912Y54453D01*
X102913Y54455D01*
X102917Y54459D01*
X102922Y54466D01*
X102930Y54474D01*
X102938Y54484D01*
X102948Y54493D01*
X102958Y54503D01*
X102970Y54511D01*
X102972Y54512D01*
X102976Y54515D01*
X102982Y54519D01*
X102992Y54523D01*
X103003Y54529D01*
X103016Y54533D01*
X103031Y54539D01*
X103047Y54544D01*
X103049D01*
X103052Y54545D01*
X103055Y54545D01*
X103064Y54546D01*
X103077Y54548D01*
X103092Y54550D01*
X103109Y54552D01*
X103129Y54553D01*
X103150Y54554D01*
X103380D01*
Y53914D01*
D02*
G37*
G36*
X102550Y54054D02*
X102551Y54055D01*
X102555Y54058D01*
X102561Y54064D01*
X102570Y54070D01*
X102580Y54079D01*
X102593Y54088D01*
X102608Y54098D01*
X102625Y54108D01*
X102626D01*
X102627Y54109D01*
X102632Y54113D01*
X102641Y54117D01*
X102652Y54123D01*
X102665Y54129D01*
X102679Y54136D01*
X102693Y54142D01*
X102707Y54148D01*
Y54072D01*
X102706D01*
X102704Y54070D01*
X102701Y54069D01*
X102696Y54067D01*
X102690Y54064D01*
X102684Y54060D01*
X102668Y54051D01*
X102650Y54041D01*
X102631Y54028D01*
X102612Y54013D01*
X102592Y53997D01*
X102591Y53996D01*
X102590Y53995D01*
X102588Y53993D01*
X102584Y53990D01*
X102576Y53981D01*
X102565Y53969D01*
X102553Y53957D01*
X102541Y53942D01*
X102531Y53927D01*
X102522Y53911D01*
X102471D01*
Y54554D01*
X102550D01*
Y54054D01*
D02*
G37*
G36*
X102602Y43403D02*
X102609Y43402D01*
X102617Y43401D01*
X102628Y43400D01*
X102638Y43397D01*
X102661Y43392D01*
X102684Y43384D01*
X102696Y43378D01*
X102708Y43372D01*
X102719Y43364D01*
X102730Y43356D01*
X102731Y43355D01*
X102733Y43354D01*
X102735Y43350D01*
X102738Y43347D01*
X102743Y43342D01*
X102748Y43336D01*
X102753Y43329D01*
X102758Y43321D01*
X102763Y43312D01*
X102769Y43302D01*
X102779Y43280D01*
X102787Y43254D01*
X102790Y43240D01*
X102792Y43225D01*
X102710Y43219D01*
Y43220D01*
Y43222D01*
X102709Y43225D01*
X102708Y43229D01*
X102705Y43239D01*
X102701Y43253D01*
X102696Y43267D01*
X102689Y43283D01*
X102679Y43297D01*
X102668Y43310D01*
X102666Y43311D01*
X102663Y43314D01*
X102655Y43319D01*
X102645Y43324D01*
X102634Y43330D01*
X102620Y43335D01*
X102604Y43338D01*
X102587Y43339D01*
X102581D01*
X102578Y43338D01*
X102566Y43337D01*
X102554Y43334D01*
X102538Y43329D01*
X102522Y43322D01*
X102505Y43311D01*
X102498Y43304D01*
X102491Y43297D01*
X102490Y43296D01*
X102489Y43295D01*
X102487Y43292D01*
X102484Y43289D01*
X102478Y43279D01*
X102470Y43266D01*
X102464Y43250D01*
X102457Y43231D01*
X102453Y43208D01*
X102451Y43196D01*
Y43183D01*
Y43182D01*
Y43180D01*
Y43176D01*
X102452Y43172D01*
Y43166D01*
X102453Y43160D01*
X102456Y43145D01*
X102460Y43127D01*
X102467Y43110D01*
X102476Y43093D01*
X102489Y43078D01*
Y43077D01*
X102491Y43076D01*
X102495Y43071D01*
X102504Y43065D01*
X102515Y43057D01*
X102530Y43051D01*
X102546Y43044D01*
X102566Y43040D01*
X102577Y43038D01*
X102594D01*
X102602Y43039D01*
X102611Y43040D01*
X102622Y43042D01*
X102633Y43045D01*
X102645Y43050D01*
X102657Y43055D01*
X102658Y43056D01*
X102662Y43058D01*
X102667Y43063D01*
X102675Y43067D01*
X102682Y43074D01*
X102689Y43082D01*
X102698Y43090D01*
X102704Y43101D01*
X102778Y43090D01*
X102716Y42761D01*
X102398D01*
Y42836D01*
X102654D01*
X102689Y43009D01*
X102688Y43008D01*
X102686Y43007D01*
X102683Y43005D01*
X102678Y43003D01*
X102673Y43000D01*
X102666Y42996D01*
X102652Y42989D01*
X102633Y42981D01*
X102613Y42975D01*
X102591Y42970D01*
X102579Y42968D01*
X102559D01*
X102554Y42969D01*
X102546Y42970D01*
X102538Y42971D01*
X102529Y42973D01*
X102518Y42976D01*
X102496Y42982D01*
X102484Y42987D01*
X102472Y42993D01*
X102460Y43000D01*
X102448Y43007D01*
X102437Y43017D01*
X102426Y43027D01*
X102425Y43028D01*
X102423Y43029D01*
X102420Y43032D01*
X102417Y43037D01*
X102412Y43043D01*
X102407Y43050D01*
X102402Y43058D01*
X102396Y43067D01*
X102392Y43078D01*
X102386Y43089D01*
X102382Y43102D01*
X102377Y43115D01*
X102373Y43128D01*
X102370Y43144D01*
X102369Y43160D01*
X102368Y43176D01*
Y43177D01*
Y43180D01*
Y43185D01*
X102369Y43191D01*
X102370Y43199D01*
X102370Y43207D01*
X102372Y43217D01*
X102374Y43227D01*
X102380Y43251D01*
X102389Y43276D01*
X102395Y43289D01*
X102402Y43301D01*
X102409Y43314D01*
X102419Y43326D01*
X102419Y43327D01*
X102421Y43330D01*
X102425Y43334D01*
X102430Y43338D01*
X102436Y43344D01*
X102444Y43351D01*
X102453Y43358D01*
X102463Y43365D01*
X102474Y43372D01*
X102487Y43379D01*
X102501Y43385D01*
X102516Y43392D01*
X102531Y43397D01*
X102549Y43400D01*
X102567Y43403D01*
X102587Y43404D01*
X102595D01*
X102602Y43403D01*
D02*
G37*
G36*
X103405Y42753D02*
X103159D01*
X103142Y42754D01*
X103124Y42755D01*
X103105Y42757D01*
X103087Y42760D01*
X103071Y42762D01*
X103070D01*
X103069Y42763D01*
X103066D01*
X103062Y42765D01*
X103052Y42768D01*
X103039Y42772D01*
X103024Y42779D01*
X103008Y42787D01*
X102993Y42796D01*
X102978Y42809D01*
X102977Y42809D01*
X102976Y42810D01*
X102973Y42813D01*
X102970Y42816D01*
X102960Y42825D01*
X102949Y42838D01*
X102937Y42854D01*
X102924Y42872D01*
X102912Y42894D01*
X102902Y42918D01*
Y42919D01*
X102901Y42920D01*
X102899Y42924D01*
X102898Y42930D01*
X102896Y42936D01*
X102894Y42943D01*
X102892Y42952D01*
X102889Y42962D01*
X102886Y42972D01*
X102885Y42984D01*
X102880Y43010D01*
X102877Y43039D01*
X102876Y43070D01*
Y43071D01*
Y43073D01*
Y43078D01*
Y43082D01*
X102877Y43089D01*
Y43096D01*
X102878Y43114D01*
X102881Y43134D01*
X102884Y43155D01*
X102888Y43177D01*
X102894Y43200D01*
Y43201D01*
X102895Y43202D01*
X102896Y43205D01*
X102897Y43209D01*
X102900Y43219D01*
X102906Y43232D01*
X102911Y43247D01*
X102919Y43262D01*
X102928Y43277D01*
X102937Y43292D01*
X102938Y43294D01*
X102942Y43299D01*
X102947Y43305D01*
X102955Y43313D01*
X102963Y43323D01*
X102973Y43332D01*
X102983Y43342D01*
X102995Y43350D01*
X102997Y43351D01*
X103001Y43354D01*
X103007Y43358D01*
X103017Y43362D01*
X103028Y43368D01*
X103041Y43372D01*
X103056Y43378D01*
X103072Y43383D01*
X103074D01*
X103077Y43384D01*
X103080Y43385D01*
X103089Y43385D01*
X103102Y43387D01*
X103117Y43389D01*
X103134Y43391D01*
X103154Y43392D01*
X103175Y43393D01*
X103405D01*
Y42753D01*
D02*
G37*
G36*
X102583Y46403D02*
X102591D01*
X102599Y46402D01*
X102608Y46400D01*
X102619Y46397D01*
X102630Y46395D01*
X102643Y46391D01*
X102656Y46386D01*
X102669Y46381D01*
X102683Y46373D01*
X102696Y46365D01*
X102709Y46356D01*
X102722Y46345D01*
X102734Y46332D01*
X102735Y46331D01*
X102737Y46328D01*
X102739Y46324D01*
X102743Y46318D01*
X102749Y46310D01*
X102753Y46300D01*
X102759Y46288D01*
X102764Y46275D01*
X102771Y46260D01*
X102776Y46242D01*
X102781Y46223D01*
X102786Y46201D01*
X102790Y46177D01*
X102793Y46152D01*
X102795Y46124D01*
X102796Y46094D01*
Y46093D01*
Y46092D01*
Y46090D01*
Y46086D01*
X102795Y46077D01*
Y46064D01*
X102794Y46049D01*
X102792Y46031D01*
X102790Y46012D01*
X102787Y45991D01*
X102784Y45969D01*
X102779Y45946D01*
X102774Y45924D01*
X102767Y45902D01*
X102759Y45881D01*
X102750Y45860D01*
X102739Y45841D01*
X102727Y45824D01*
X102726Y45823D01*
X102725Y45821D01*
X102721Y45818D01*
X102716Y45812D01*
X102711Y45807D01*
X102703Y45801D01*
X102694Y45794D01*
X102685Y45787D01*
X102674Y45781D01*
X102662Y45773D01*
X102648Y45768D01*
X102634Y45761D01*
X102618Y45757D01*
X102602Y45753D01*
X102584Y45751D01*
X102566Y45750D01*
X102558D01*
X102553Y45751D01*
X102546D01*
X102539Y45752D01*
X102521Y45756D01*
X102502Y45760D01*
X102481Y45768D01*
X102461Y45779D01*
X102451Y45785D01*
X102442Y45793D01*
X102441Y45794D01*
X102440Y45795D01*
X102437Y45797D01*
X102434Y45800D01*
X102430Y45805D01*
X102426Y45810D01*
X102416Y45823D01*
X102406Y45840D01*
X102396Y45860D01*
X102388Y45883D01*
X102382Y45909D01*
X102461Y45916D01*
Y45915D01*
X102462Y45914D01*
X102463Y45908D01*
X102466Y45900D01*
X102469Y45890D01*
X102473Y45879D01*
X102479Y45868D01*
X102485Y45858D01*
X102492Y45849D01*
X102493Y45847D01*
X102497Y45844D01*
X102504Y45838D01*
X102513Y45832D01*
X102525Y45826D01*
X102538Y45821D01*
X102554Y45817D01*
X102570Y45815D01*
X102577D01*
X102584Y45816D01*
X102592Y45818D01*
X102603Y45821D01*
X102615Y45824D01*
X102626Y45829D01*
X102637Y45836D01*
X102639Y45837D01*
X102643Y45841D01*
X102650Y45847D01*
X102658Y45857D01*
X102667Y45868D01*
X102677Y45881D01*
X102687Y45897D01*
X102696Y45916D01*
Y45917D01*
X102697Y45919D01*
X102698Y45921D01*
X102700Y45925D01*
X102701Y45931D01*
X102702Y45937D01*
X102704Y45944D01*
X102706Y45954D01*
X102709Y45964D01*
X102711Y45975D01*
X102713Y45987D01*
X102713Y46000D01*
X102715Y46015D01*
X102716Y46029D01*
X102717Y46046D01*
Y46063D01*
X102716Y46062D01*
X102713Y46056D01*
X102706Y46049D01*
X102698Y46040D01*
X102689Y46029D01*
X102676Y46018D01*
X102664Y46008D01*
X102649Y45999D01*
X102648D01*
X102647Y45998D01*
X102641Y45995D01*
X102633Y45992D01*
X102622Y45988D01*
X102609Y45984D01*
X102594Y45981D01*
X102578Y45979D01*
X102562Y45978D01*
X102554D01*
X102549Y45979D01*
X102542Y45980D01*
X102534Y45980D01*
X102525Y45982D01*
X102516Y45985D01*
X102494Y45992D01*
X102483Y45996D01*
X102472Y46003D01*
X102461Y46009D01*
X102449Y46017D01*
X102438Y46026D01*
X102428Y46036D01*
X102427Y46037D01*
X102425Y46039D01*
X102422Y46042D01*
X102419Y46046D01*
X102415Y46053D01*
X102410Y46059D01*
X102406Y46067D01*
X102400Y46077D01*
X102395Y46087D01*
X102390Y46098D01*
X102385Y46111D01*
X102381Y46124D01*
X102378Y46138D01*
X102375Y46153D01*
X102373Y46169D01*
X102372Y46186D01*
Y46187D01*
Y46188D01*
Y46191D01*
Y46196D01*
X102373Y46201D01*
Y46207D01*
X102376Y46222D01*
X102379Y46239D01*
X102383Y46258D01*
X102390Y46278D01*
X102399Y46298D01*
Y46299D01*
X102400Y46299D01*
X102402Y46302D01*
X102404Y46306D01*
X102409Y46315D01*
X102418Y46327D01*
X102428Y46340D01*
X102440Y46353D01*
X102455Y46366D01*
X102470Y46377D01*
X102471D01*
X102472Y46378D01*
X102475Y46380D01*
X102479Y46381D01*
X102488Y46385D01*
X102500Y46390D01*
X102516Y46396D01*
X102533Y46399D01*
X102553Y46403D01*
X102574Y46404D01*
X102578D01*
X102583Y46403D01*
D02*
G37*
G36*
X103405Y45753D02*
X103159D01*
X103142Y45754D01*
X103124Y45755D01*
X103105Y45757D01*
X103087Y45759D01*
X103071Y45762D01*
X103070D01*
X103069Y45763D01*
X103066D01*
X103062Y45765D01*
X103052Y45768D01*
X103039Y45772D01*
X103024Y45779D01*
X103008Y45787D01*
X102993Y45796D01*
X102978Y45809D01*
X102977Y45809D01*
X102976Y45810D01*
X102973Y45813D01*
X102970Y45816D01*
X102960Y45825D01*
X102949Y45838D01*
X102937Y45854D01*
X102924Y45872D01*
X102912Y45894D01*
X102902Y45918D01*
Y45919D01*
X102901Y45920D01*
X102899Y45924D01*
X102898Y45930D01*
X102896Y45936D01*
X102894Y45943D01*
X102892Y45952D01*
X102889Y45962D01*
X102886Y45972D01*
X102885Y45984D01*
X102880Y46010D01*
X102877Y46039D01*
X102876Y46070D01*
Y46071D01*
Y46073D01*
Y46078D01*
Y46082D01*
X102877Y46089D01*
Y46096D01*
X102878Y46114D01*
X102881Y46134D01*
X102884Y46155D01*
X102888Y46177D01*
X102894Y46200D01*
Y46201D01*
X102895Y46202D01*
X102896Y46205D01*
X102897Y46209D01*
X102900Y46219D01*
X102906Y46232D01*
X102911Y46247D01*
X102919Y46262D01*
X102928Y46277D01*
X102937Y46292D01*
X102938Y46294D01*
X102942Y46299D01*
X102947Y46305D01*
X102955Y46313D01*
X102963Y46323D01*
X102973Y46332D01*
X102983Y46342D01*
X102995Y46350D01*
X102997Y46351D01*
X103001Y46354D01*
X103007Y46358D01*
X103017Y46362D01*
X103028Y46368D01*
X103041Y46372D01*
X103056Y46378D01*
X103072Y46383D01*
X103074D01*
X103077Y46384D01*
X103080Y46385D01*
X103089Y46385D01*
X103102Y46387D01*
X103117Y46389D01*
X103134Y46391D01*
X103154Y46392D01*
X103175Y46393D01*
X103405D01*
Y45753D01*
D02*
G37*
G36*
Y39764D02*
X103159D01*
X103142Y39765D01*
X103124Y39766D01*
X103105Y39768D01*
X103087Y39771D01*
X103071Y39773D01*
X103070D01*
X103069Y39774D01*
X103066D01*
X103062Y39776D01*
X103052Y39779D01*
X103039Y39784D01*
X103024Y39790D01*
X103008Y39798D01*
X102993Y39808D01*
X102978Y39820D01*
X102977Y39821D01*
X102976Y39821D01*
X102973Y39824D01*
X102970Y39827D01*
X102960Y39836D01*
X102949Y39849D01*
X102937Y39865D01*
X102924Y39883D01*
X102912Y39905D01*
X102902Y39929D01*
Y39930D01*
X102901Y39931D01*
X102899Y39935D01*
X102898Y39941D01*
X102896Y39947D01*
X102894Y39955D01*
X102892Y39963D01*
X102889Y39973D01*
X102886Y39983D01*
X102885Y39995D01*
X102880Y40021D01*
X102877Y40050D01*
X102876Y40081D01*
Y40082D01*
Y40084D01*
Y40089D01*
Y40093D01*
X102877Y40100D01*
Y40107D01*
X102878Y40125D01*
X102881Y40145D01*
X102884Y40166D01*
X102888Y40188D01*
X102894Y40211D01*
Y40212D01*
X102895Y40213D01*
X102896Y40216D01*
X102897Y40220D01*
X102900Y40230D01*
X102906Y40243D01*
X102911Y40258D01*
X102919Y40273D01*
X102928Y40288D01*
X102937Y40303D01*
X102938Y40305D01*
X102942Y40310D01*
X102947Y40316D01*
X102955Y40324D01*
X102963Y40334D01*
X102973Y40343D01*
X102983Y40353D01*
X102995Y40361D01*
X102997Y40362D01*
X103001Y40365D01*
X103007Y40369D01*
X103017Y40373D01*
X103028Y40379D01*
X103041Y40384D01*
X103056Y40389D01*
X103072Y40394D01*
X103074D01*
X103077Y40395D01*
X103080Y40396D01*
X103089Y40397D01*
X103102Y40398D01*
X103117Y40400D01*
X103134Y40402D01*
X103154Y40403D01*
X103175Y40404D01*
X103405D01*
Y39764D01*
D02*
G37*
G36*
X102541Y40250D02*
X102819D01*
Y40178D01*
X102526Y39764D01*
X102462D01*
Y40178D01*
X102375D01*
Y40250D01*
X102462D01*
Y40404D01*
X102541D01*
Y40250D01*
D02*
G37*
G36*
X9616Y25039D02*
X9633Y25038D01*
X9649Y25036D01*
X9663Y25034D01*
X9676Y25032D01*
X9688Y25030D01*
X9699Y25028D01*
X9709Y25026D01*
X9717Y25023D01*
X9725Y25021D01*
X9730Y25019D01*
X9735Y25018D01*
X9738Y25017D01*
X9740Y25016D01*
X9741D01*
X9762Y25006D01*
X9780Y24993D01*
X9795Y24980D01*
X9808Y24966D01*
X9818Y24954D01*
X9825Y24944D01*
X9827Y24940D01*
X9829Y24937D01*
X9831Y24935D01*
Y24934D01*
X9841Y24911D01*
X9849Y24887D01*
X9854Y24862D01*
X9858Y24839D01*
X9859Y24829D01*
X9860Y24819D01*
X9861Y24810D01*
Y24802D01*
X9861Y24796D01*
Y24787D01*
X9860Y24754D01*
X9858Y24739D01*
X9856Y24725D01*
X9853Y24712D01*
X9850Y24700D01*
X9848Y24688D01*
X9844Y24678D01*
X9840Y24669D01*
X9837Y24662D01*
X9835Y24654D01*
X9832Y24649D01*
X9829Y24644D01*
X9828Y24641D01*
X9826Y24639D01*
Y24639D01*
X9812Y24618D01*
X9797Y24602D01*
X9782Y24589D01*
X9767Y24578D01*
X9754Y24569D01*
X9744Y24564D01*
X9740Y24562D01*
X9738Y24560D01*
X9736Y24559D01*
X9735D01*
X9724Y24555D01*
X9712Y24552D01*
X9687Y24546D01*
X9661Y24542D01*
X9636Y24540D01*
X9625Y24539D01*
X9614Y24538D01*
X9604D01*
X9596Y24537D01*
X9590D01*
X9585D01*
X9581D01*
X9580D01*
X9211D01*
Y24622D01*
X9580D01*
X9602D01*
X9622Y24624D01*
X9640Y24626D01*
X9656Y24628D01*
X9671Y24631D01*
X9685Y24635D01*
X9697Y24638D01*
X9707Y24641D01*
X9715Y24645D01*
X9724Y24649D01*
X9729Y24652D01*
X9735Y24655D01*
X9738Y24658D01*
X9741Y24660D01*
X9742Y24661D01*
X9743Y24662D01*
X9751Y24670D01*
X9757Y24679D01*
X9767Y24700D01*
X9775Y24721D01*
X9779Y24743D01*
X9783Y24763D01*
X9784Y24772D01*
Y24780D01*
X9785Y24786D01*
Y24795D01*
X9784Y24814D01*
X9781Y24832D01*
X9778Y24848D01*
X9774Y24861D01*
X9770Y24872D01*
X9767Y24881D01*
X9764Y24885D01*
X9763Y24887D01*
X9755Y24900D01*
X9745Y24911D01*
X9735Y24921D01*
X9726Y24927D01*
X9716Y24933D01*
X9710Y24937D01*
X9705Y24939D01*
X9703Y24940D01*
X9695Y24943D01*
X9687Y24945D01*
X9667Y24948D01*
X9647Y24951D01*
X9627Y24953D01*
X9609Y24954D01*
X9601D01*
X9594Y24955D01*
X9589D01*
X9584D01*
X9581D01*
X9580D01*
X9211D01*
Y25040D01*
X9580D01*
X9599D01*
X9616Y25039D01*
D02*
G37*
G36*
X9439Y24354D02*
X9432Y24340D01*
X9426Y24326D01*
X9420Y24313D01*
X9414Y24302D01*
X9409Y24293D01*
X9406Y24287D01*
X9405Y24286D01*
Y24285D01*
X9395Y24269D01*
X9384Y24254D01*
X9375Y24241D01*
X9367Y24231D01*
X9360Y24222D01*
X9355Y24216D01*
X9351Y24211D01*
X9350Y24210D01*
X9850D01*
Y24132D01*
X9208D01*
Y24183D01*
X9224Y24192D01*
X9238Y24202D01*
X9253Y24214D01*
X9266Y24225D01*
X9277Y24236D01*
X9286Y24245D01*
X9289Y24248D01*
X9292Y24251D01*
X9293Y24252D01*
X9294Y24253D01*
X9310Y24272D01*
X9324Y24292D01*
X9337Y24310D01*
X9347Y24329D01*
X9357Y24345D01*
X9360Y24351D01*
X9363Y24357D01*
X9366Y24361D01*
X9367Y24365D01*
X9369Y24367D01*
Y24368D01*
X9444D01*
X9439Y24354D01*
D02*
G37*
G36*
X9681Y23930D02*
X9696Y23928D01*
X9710Y23926D01*
X9724Y23922D01*
X9747Y23913D01*
X9758Y23908D01*
X9767Y23903D01*
X9776Y23897D01*
X9784Y23892D01*
X9790Y23887D01*
X9796Y23883D01*
X9800Y23879D01*
X9803Y23877D01*
X9805Y23875D01*
X9806Y23874D01*
X9816Y23863D01*
X9824Y23851D01*
X9832Y23838D01*
X9838Y23825D01*
X9843Y23813D01*
X9848Y23800D01*
X9854Y23775D01*
X9857Y23764D01*
X9859Y23754D01*
X9860Y23744D01*
X9861Y23736D01*
X9861Y23730D01*
Y23720D01*
X9861Y23703D01*
X9859Y23687D01*
X9856Y23671D01*
X9853Y23657D01*
X9849Y23644D01*
X9844Y23631D01*
X9839Y23619D01*
X9834Y23609D01*
X9828Y23599D01*
X9824Y23591D01*
X9819Y23585D01*
X9814Y23578D01*
X9812Y23573D01*
X9809Y23571D01*
X9807Y23569D01*
X9806Y23568D01*
X9795Y23558D01*
X9784Y23548D01*
X9773Y23541D01*
X9761Y23535D01*
X9750Y23528D01*
X9738Y23524D01*
X9716Y23517D01*
X9706Y23514D01*
X9697Y23512D01*
X9689Y23511D01*
X9682Y23511D01*
X9677Y23510D01*
X9672D01*
X9669D01*
X9668D01*
X9647Y23511D01*
X9628Y23514D01*
X9610Y23520D01*
X9595Y23525D01*
X9583Y23531D01*
X9574Y23536D01*
X9568Y23540D01*
X9567Y23541D01*
X9567D01*
X9552Y23554D01*
X9539Y23568D01*
X9529Y23583D01*
X9519Y23597D01*
X9513Y23610D01*
X9508Y23621D01*
X9506Y23624D01*
X9506Y23627D01*
X9505Y23629D01*
Y23630D01*
X9497Y23613D01*
X9489Y23599D01*
X9481Y23587D01*
X9472Y23577D01*
X9465Y23570D01*
X9459Y23564D01*
X9456Y23560D01*
X9454Y23560D01*
X9441Y23551D01*
X9428Y23546D01*
X9415Y23541D01*
X9402Y23538D01*
X9392Y23536D01*
X9383Y23536D01*
X9378D01*
X9377D01*
X9376D01*
X9363Y23536D01*
X9351Y23537D01*
X9328Y23544D01*
X9308Y23552D01*
X9290Y23561D01*
X9276Y23571D01*
X9271Y23575D01*
X9265Y23579D01*
X9261Y23583D01*
X9259Y23585D01*
X9258Y23586D01*
X9257Y23587D01*
X9248Y23597D01*
X9240Y23608D01*
X9234Y23619D01*
X9228Y23630D01*
X9220Y23652D01*
X9214Y23674D01*
X9212Y23683D01*
X9211Y23693D01*
X9210Y23701D01*
X9209Y23708D01*
X9208Y23714D01*
Y23722D01*
X9209Y23737D01*
X9210Y23752D01*
X9215Y23778D01*
X9219Y23790D01*
X9223Y23801D01*
X9227Y23811D01*
X9232Y23820D01*
X9236Y23828D01*
X9241Y23835D01*
X9245Y23842D01*
X9248Y23846D01*
X9251Y23850D01*
X9254Y23853D01*
X9255Y23855D01*
X9256Y23855D01*
X9265Y23864D01*
X9274Y23872D01*
X9285Y23879D01*
X9295Y23884D01*
X9314Y23893D01*
X9333Y23899D01*
X9348Y23903D01*
X9356Y23904D01*
X9361Y23904D01*
X9367Y23905D01*
X9371D01*
X9372D01*
X9373D01*
X9390Y23904D01*
X9406Y23902D01*
X9420Y23898D01*
X9432Y23893D01*
X9441Y23890D01*
X9448Y23886D01*
X9452Y23883D01*
X9454Y23882D01*
X9465Y23872D01*
X9475Y23861D01*
X9484Y23849D01*
X9492Y23837D01*
X9497Y23826D01*
X9501Y23818D01*
X9503Y23814D01*
X9504Y23811D01*
X9505Y23810D01*
Y23809D01*
X9511Y23830D01*
X9519Y23848D01*
X9530Y23864D01*
X9539Y23877D01*
X9548Y23887D01*
X9555Y23894D01*
X9560Y23898D01*
X9561Y23900D01*
X9562D01*
X9579Y23910D01*
X9596Y23918D01*
X9613Y23924D01*
X9629Y23928D01*
X9644Y23929D01*
X9651Y23930D01*
X9656D01*
X9660Y23931D01*
X9664D01*
X9665D01*
X9666D01*
X9681Y23930D01*
D02*
G37*
G36*
X167084Y7603D02*
Y7602D01*
Y7600D01*
Y7596D01*
Y7590D01*
X167083Y7583D01*
Y7576D01*
X167081Y7558D01*
X167079Y7538D01*
X167076Y7516D01*
X167070Y7497D01*
X167064Y7479D01*
Y7478D01*
X167063Y7477D01*
X167060Y7471D01*
X167055Y7464D01*
X167049Y7454D01*
X167040Y7443D01*
X167030Y7432D01*
X167017Y7421D01*
X167002Y7412D01*
X167000Y7411D01*
X166994Y7408D01*
X166986Y7405D01*
X166974Y7401D01*
X166959Y7396D01*
X166943Y7393D01*
X166924Y7390D01*
X166904Y7389D01*
X166895D01*
X166890Y7390D01*
X166883Y7391D01*
X166875Y7392D01*
X166856Y7395D01*
X166835Y7401D01*
X166814Y7409D01*
X166803Y7415D01*
X166793Y7421D01*
X166784Y7429D01*
X166774Y7437D01*
X166773Y7438D01*
X166773Y7439D01*
X166771Y7443D01*
X166768Y7446D01*
X166764Y7451D01*
X166761Y7457D01*
X166757Y7465D01*
X166752Y7473D01*
X166748Y7482D01*
X166745Y7493D01*
X166741Y7504D01*
X166737Y7517D01*
X166736Y7531D01*
X166733Y7547D01*
X166732Y7563D01*
Y7580D01*
X166809Y7591D01*
Y7590D01*
Y7589D01*
Y7585D01*
X166810Y7579D01*
X166810Y7574D01*
Y7567D01*
X166813Y7552D01*
X166816Y7535D01*
X166822Y7518D01*
X166827Y7504D01*
X166831Y7497D01*
X166835Y7492D01*
X166836Y7491D01*
X166840Y7488D01*
X166846Y7483D01*
X166853Y7479D01*
X166863Y7473D01*
X166874Y7469D01*
X166888Y7466D01*
X166903Y7465D01*
X166908D01*
X166914Y7466D01*
X166922Y7467D01*
X166931Y7468D01*
X166940Y7470D01*
X166949Y7474D01*
X166958Y7479D01*
X166959Y7480D01*
X166962Y7481D01*
X166966Y7485D01*
X166971Y7489D01*
X166976Y7495D01*
X166981Y7502D01*
X166986Y7509D01*
X166990Y7518D01*
Y7519D01*
X166992Y7523D01*
X166993Y7529D01*
X166994Y7538D01*
X166996Y7549D01*
X166997Y7563D01*
X166999Y7579D01*
Y7599D01*
Y8040D01*
X167084D01*
Y7603D01*
D02*
G37*
G36*
X167584Y7957D02*
X167328D01*
X167294Y7784D01*
X167295Y7785D01*
X167297Y7786D01*
X167300Y7787D01*
X167304Y7790D01*
X167310Y7793D01*
X167316Y7797D01*
X167331Y7804D01*
X167349Y7811D01*
X167370Y7818D01*
X167392Y7823D01*
X167403Y7824D01*
X167423D01*
X167429Y7823D01*
X167436Y7823D01*
X167445Y7822D01*
X167454Y7820D01*
X167464Y7817D01*
X167486Y7811D01*
X167498Y7806D01*
X167510Y7799D01*
X167522Y7793D01*
X167534Y7786D01*
X167545Y7776D01*
X167557Y7766D01*
X167557Y7765D01*
X167559Y7763D01*
X167562Y7761D01*
X167566Y7756D01*
X167570Y7749D01*
X167575Y7743D01*
X167581Y7735D01*
X167586Y7725D01*
X167591Y7715D01*
X167596Y7704D01*
X167601Y7691D01*
X167606Y7678D01*
X167609Y7664D01*
X167612Y7649D01*
X167614Y7633D01*
X167615Y7616D01*
Y7615D01*
Y7613D01*
Y7608D01*
X167614Y7602D01*
X167613Y7594D01*
X167612Y7586D01*
X167610Y7576D01*
X167608Y7565D01*
X167603Y7541D01*
X167594Y7516D01*
X167588Y7504D01*
X167581Y7492D01*
X167573Y7479D01*
X167564Y7467D01*
X167563Y7466D01*
X167561Y7463D01*
X167557Y7459D01*
X167553Y7455D01*
X167546Y7449D01*
X167539Y7442D01*
X167530Y7435D01*
X167520Y7428D01*
X167508Y7420D01*
X167496Y7414D01*
X167482Y7407D01*
X167467Y7401D01*
X167451Y7396D01*
X167434Y7393D01*
X167415Y7390D01*
X167396Y7389D01*
X167387D01*
X167381Y7390D01*
X167373Y7391D01*
X167365Y7392D01*
X167355Y7393D01*
X167345Y7395D01*
X167322Y7401D01*
X167299Y7409D01*
X167287Y7415D01*
X167275Y7421D01*
X167263Y7429D01*
X167252Y7437D01*
X167251Y7438D01*
X167250Y7439D01*
X167248Y7443D01*
X167244Y7446D01*
X167239Y7451D01*
X167235Y7456D01*
X167229Y7464D01*
X167225Y7472D01*
X167219Y7480D01*
X167214Y7491D01*
X167203Y7513D01*
X167195Y7539D01*
X167192Y7553D01*
X167190Y7567D01*
X167273Y7574D01*
Y7573D01*
Y7571D01*
X167274Y7568D01*
X167275Y7564D01*
X167277Y7553D01*
X167281Y7540D01*
X167287Y7526D01*
X167294Y7510D01*
X167303Y7496D01*
X167314Y7483D01*
X167316Y7482D01*
X167320Y7479D01*
X167327Y7474D01*
X167337Y7468D01*
X167349Y7463D01*
X167362Y7458D01*
X167378Y7455D01*
X167396Y7454D01*
X167401D01*
X167405Y7455D01*
X167416Y7455D01*
X167429Y7459D01*
X167445Y7464D01*
X167460Y7471D01*
X167477Y7482D01*
X167484Y7489D01*
X167492Y7496D01*
X167493Y7497D01*
X167494Y7498D01*
X167496Y7501D01*
X167498Y7504D01*
X167505Y7514D01*
X167512Y7527D01*
X167519Y7542D01*
X167525Y7562D01*
X167530Y7585D01*
X167532Y7597D01*
Y7610D01*
Y7611D01*
Y7613D01*
Y7616D01*
X167531Y7621D01*
Y7627D01*
X167530Y7633D01*
X167527Y7648D01*
X167522Y7665D01*
X167516Y7683D01*
X167507Y7700D01*
X167494Y7715D01*
Y7716D01*
X167492Y7717D01*
X167487Y7722D01*
X167479Y7728D01*
X167468Y7736D01*
X167453Y7742D01*
X167436Y7749D01*
X167417Y7753D01*
X167406Y7755D01*
X167388D01*
X167381Y7754D01*
X167372Y7753D01*
X167361Y7750D01*
X167349Y7748D01*
X167337Y7743D01*
X167325Y7737D01*
X167324Y7737D01*
X167321Y7735D01*
X167315Y7730D01*
X167308Y7725D01*
X167300Y7719D01*
X167293Y7711D01*
X167285Y7702D01*
X167278Y7692D01*
X167204Y7702D01*
X167266Y8031D01*
X167584D01*
Y7957D01*
D02*
G37*
G36*
X167915Y8042D02*
X167923Y8041D01*
X167932Y8040D01*
X167942Y8038D01*
X167952Y8036D01*
X167976Y8030D01*
X168000Y8020D01*
X168012Y8015D01*
X168024Y8008D01*
X168035Y8000D01*
X168046Y7991D01*
X168047Y7990D01*
X168048Y7989D01*
X168050Y7985D01*
X168054Y7982D01*
X168059Y7977D01*
X168063Y7970D01*
X168068Y7964D01*
X168073Y7956D01*
X168083Y7938D01*
X168092Y7916D01*
X168096Y7905D01*
X168097Y7892D01*
X168099Y7879D01*
X168100Y7865D01*
Y7863D01*
Y7859D01*
X168099Y7851D01*
X168098Y7841D01*
X168096Y7830D01*
X168093Y7817D01*
X168089Y7803D01*
X168084Y7789D01*
X168083Y7787D01*
X168081Y7783D01*
X168077Y7775D01*
X168072Y7765D01*
X168064Y7754D01*
X168055Y7740D01*
X168044Y7726D01*
X168031Y7711D01*
X168029Y7709D01*
X168024Y7703D01*
X168020Y7699D01*
X168015Y7694D01*
X168010Y7688D01*
X168002Y7681D01*
X167995Y7674D01*
X167986Y7665D01*
X167976Y7656D01*
X167965Y7646D01*
X167953Y7636D01*
X167940Y7624D01*
X167925Y7612D01*
X167911Y7599D01*
X167910Y7598D01*
X167908Y7596D01*
X167904Y7593D01*
X167900Y7590D01*
X167894Y7584D01*
X167888Y7578D01*
X167873Y7566D01*
X167857Y7553D01*
X167842Y7539D01*
X167829Y7527D01*
X167824Y7522D01*
X167819Y7517D01*
X167818Y7516D01*
X167815Y7514D01*
X167812Y7510D01*
X167807Y7504D01*
X167802Y7498D01*
X167797Y7492D01*
X167786Y7476D01*
X168101D01*
Y7400D01*
X167677D01*
Y7401D01*
Y7405D01*
Y7410D01*
X167678Y7418D01*
X167679Y7426D01*
X167680Y7435D01*
X167682Y7444D01*
X167686Y7455D01*
Y7455D01*
X167687Y7456D01*
X167689Y7462D01*
X167692Y7470D01*
X167698Y7481D01*
X167705Y7494D01*
X167715Y7509D01*
X167725Y7524D01*
X167738Y7540D01*
Y7541D01*
X167740Y7541D01*
X167744Y7547D01*
X167753Y7555D01*
X167765Y7567D01*
X167778Y7581D01*
X167796Y7598D01*
X167817Y7616D01*
X167840Y7636D01*
X167841Y7637D01*
X167845Y7639D01*
X167851Y7644D01*
X167857Y7650D01*
X167865Y7657D01*
X167876Y7665D01*
X167886Y7675D01*
X167898Y7685D01*
X167921Y7707D01*
X167944Y7729D01*
X167955Y7740D01*
X167965Y7751D01*
X167974Y7761D01*
X167982Y7772D01*
Y7773D01*
X167984Y7774D01*
X167986Y7776D01*
X167987Y7780D01*
X167994Y7790D01*
X168001Y7802D01*
X168008Y7817D01*
X168014Y7833D01*
X168018Y7850D01*
X168020Y7867D01*
Y7868D01*
Y7869D01*
X168019Y7874D01*
X168018Y7884D01*
X168015Y7894D01*
X168011Y7907D01*
X168005Y7920D01*
X167997Y7933D01*
X167986Y7945D01*
X167984Y7947D01*
X167979Y7951D01*
X167973Y7956D01*
X167962Y7962D01*
X167949Y7968D01*
X167935Y7973D01*
X167917Y7977D01*
X167898Y7978D01*
X167892D01*
X167888Y7977D01*
X167877Y7976D01*
X167864Y7973D01*
X167851Y7970D01*
X167835Y7963D01*
X167820Y7955D01*
X167806Y7944D01*
X167804Y7942D01*
X167801Y7937D01*
X167795Y7930D01*
X167790Y7919D01*
X167783Y7906D01*
X167778Y7889D01*
X167774Y7871D01*
X167772Y7849D01*
X167692Y7858D01*
Y7859D01*
X167692Y7861D01*
Y7866D01*
X167693Y7872D01*
X167695Y7880D01*
X167697Y7888D01*
X167700Y7898D01*
X167703Y7909D01*
X167710Y7931D01*
X167721Y7953D01*
X167728Y7964D01*
X167736Y7975D01*
X167744Y7985D01*
X167753Y7994D01*
X167754Y7995D01*
X167756Y7996D01*
X167759Y7999D01*
X167764Y8002D01*
X167769Y8006D01*
X167776Y8009D01*
X167783Y8014D01*
X167792Y8019D01*
X167802Y8023D01*
X167814Y8028D01*
X167826Y8031D01*
X167839Y8035D01*
X167852Y8038D01*
X167867Y8041D01*
X167883Y8042D01*
X167900Y8043D01*
X167909D01*
X167915Y8042D01*
D02*
G37*
G36*
X228170Y51541D02*
X228169D01*
X228167D01*
X228164D01*
X228158Y51540D01*
X228153Y51539D01*
X228146D01*
X228130Y51537D01*
X228114Y51534D01*
X228097Y51528D01*
X228082Y51523D01*
X228076Y51519D01*
X228070Y51514D01*
X228069Y51514D01*
X228067Y51510D01*
X228062Y51504D01*
X228057Y51497D01*
X228052Y51487D01*
X228048Y51476D01*
X228044Y51462D01*
X228044Y51447D01*
Y51441D01*
X228044Y51436D01*
X228045Y51428D01*
X228047Y51419D01*
X228049Y51410D01*
X228053Y51401D01*
X228057Y51392D01*
X228058Y51391D01*
X228060Y51388D01*
X228064Y51384D01*
X228068Y51379D01*
X228074Y51374D01*
X228081Y51368D01*
X228088Y51364D01*
X228097Y51360D01*
X228098D01*
X228102Y51358D01*
X228108Y51357D01*
X228117Y51355D01*
X228128Y51354D01*
X228142Y51353D01*
X228158Y51351D01*
X228178D01*
X228619D01*
Y51266D01*
X228182D01*
X228181D01*
X228179D01*
X228175D01*
X228169D01*
X228162Y51267D01*
X228155D01*
X228137Y51269D01*
X228117Y51270D01*
X228095Y51274D01*
X228076Y51280D01*
X228057Y51286D01*
X228057D01*
X228056Y51287D01*
X228050Y51290D01*
X228043Y51294D01*
X228032Y51301D01*
X228022Y51310D01*
X228011Y51320D01*
X228000Y51333D01*
X227991Y51348D01*
X227990Y51350D01*
X227987Y51355D01*
X227983Y51364D01*
X227980Y51376D01*
X227975Y51391D01*
X227971Y51407D01*
X227969Y51426D01*
X227968Y51446D01*
Y51454D01*
X227969Y51460D01*
X227970Y51467D01*
X227971Y51475D01*
X227974Y51494D01*
X227980Y51514D01*
X227988Y51536D01*
X227994Y51547D01*
X228000Y51557D01*
X228008Y51566D01*
X228016Y51576D01*
X228017Y51576D01*
X228018Y51577D01*
X228021Y51579D01*
X228025Y51582D01*
X228030Y51586D01*
X228036Y51589D01*
X228044Y51593D01*
X228052Y51598D01*
X228061Y51601D01*
X228072Y51605D01*
X228083Y51609D01*
X228096Y51612D01*
X228110Y51614D01*
X228126Y51617D01*
X228142Y51618D01*
X228159D01*
X228170Y51541D01*
D02*
G37*
G36*
X228619Y50893D02*
Y50829D01*
X228204D01*
Y50742D01*
X228132D01*
Y50829D01*
X227979D01*
Y50908D01*
X228132D01*
Y51186D01*
X228204D01*
X228619Y50893D01*
D02*
G37*
G36*
X228173Y50662D02*
X228179D01*
X228185Y50661D01*
X228200Y50659D01*
X228216Y50656D01*
X228233Y50650D01*
X228251Y50642D01*
X228267Y50632D01*
X228268D01*
X228269Y50630D01*
X228274Y50626D01*
X228281Y50619D01*
X228290Y50608D01*
X228300Y50595D01*
X228310Y50580D01*
X228318Y50562D01*
X228325Y50541D01*
Y50542D01*
X228326Y50543D01*
X228326Y50546D01*
X228328Y50549D01*
X228332Y50558D01*
X228338Y50569D01*
X228345Y50581D01*
X228354Y50593D01*
X228364Y50604D01*
X228375Y50614D01*
X228377Y50615D01*
X228381Y50618D01*
X228388Y50621D01*
X228398Y50625D01*
X228410Y50630D01*
X228424Y50633D01*
X228439Y50636D01*
X228456Y50637D01*
X228457D01*
X228459D01*
X228462D01*
X228468Y50636D01*
X228473Y50635D01*
X228481Y50634D01*
X228497Y50631D01*
X228515Y50625D01*
X228535Y50616D01*
X228545Y50610D01*
X228555Y50604D01*
X228564Y50595D01*
X228573Y50587D01*
X228574Y50586D01*
X228575Y50584D01*
X228578Y50582D01*
X228581Y50578D01*
X228584Y50573D01*
X228588Y50567D01*
X228593Y50559D01*
X228597Y50552D01*
X228602Y50543D01*
X228607Y50533D01*
X228610Y50521D01*
X228614Y50509D01*
X228620Y50484D01*
X228620Y50469D01*
X228621Y50454D01*
Y50446D01*
X228620Y50440D01*
X228620Y50433D01*
X228619Y50424D01*
X228618Y50415D01*
X228615Y50406D01*
X228609Y50384D01*
X228601Y50362D01*
X228596Y50350D01*
X228589Y50339D01*
X228581Y50329D01*
X228572Y50319D01*
X228571Y50318D01*
X228571Y50317D01*
X228568Y50314D01*
X228564Y50311D01*
X228559Y50307D01*
X228553Y50302D01*
X228539Y50293D01*
X228522Y50284D01*
X228501Y50276D01*
X228478Y50269D01*
X228466Y50268D01*
X228453Y50267D01*
X228452D01*
X228451D01*
X228446D01*
X228437Y50268D01*
X228427Y50270D01*
X228414Y50273D01*
X228401Y50277D01*
X228388Y50283D01*
X228375Y50291D01*
X228374Y50292D01*
X228370Y50296D01*
X228364Y50301D01*
X228357Y50309D01*
X228349Y50319D01*
X228340Y50331D01*
X228332Y50345D01*
X228325Y50362D01*
Y50361D01*
X228324Y50359D01*
X228323Y50356D01*
X228321Y50352D01*
X228316Y50341D01*
X228310Y50328D01*
X228301Y50314D01*
X228290Y50300D01*
X228277Y50286D01*
X228263Y50273D01*
X228262D01*
X228261Y50272D01*
X228255Y50268D01*
X228246Y50263D01*
X228234Y50257D01*
X228219Y50252D01*
X228202Y50246D01*
X228182Y50242D01*
X228161Y50241D01*
X228160D01*
X228157D01*
X228153D01*
X228147Y50242D01*
X228141Y50243D01*
X228132Y50244D01*
X228123Y50246D01*
X228113Y50249D01*
X228092Y50255D01*
X228080Y50260D01*
X228069Y50266D01*
X228057Y50273D01*
X228045Y50280D01*
X228034Y50289D01*
X228023Y50300D01*
X228022Y50301D01*
X228020Y50302D01*
X228018Y50305D01*
X228015Y50310D01*
X228010Y50316D01*
X228006Y50323D01*
X228001Y50331D01*
X227995Y50340D01*
X227990Y50350D01*
X227985Y50362D01*
X227981Y50375D01*
X227976Y50388D01*
X227973Y50403D01*
X227971Y50419D01*
X227969Y50435D01*
X227968Y50452D01*
Y50461D01*
X227969Y50468D01*
X227970Y50476D01*
X227971Y50485D01*
X227972Y50496D01*
X227975Y50507D01*
X227982Y50532D01*
X227986Y50545D01*
X227991Y50557D01*
X227997Y50570D01*
X228005Y50583D01*
X228013Y50595D01*
X228023Y50606D01*
X228024Y50607D01*
X228026Y50608D01*
X228029Y50611D01*
X228033Y50615D01*
X228039Y50619D01*
X228045Y50624D01*
X228053Y50629D01*
X228062Y50634D01*
X228071Y50640D01*
X228082Y50644D01*
X228106Y50654D01*
X228119Y50657D01*
X228133Y50660D01*
X228148Y50662D01*
X228163Y50663D01*
X228164D01*
X228166D01*
X228169D01*
X228173Y50662D01*
D02*
G37*
G36*
X276550Y42451D02*
X276556Y42450D01*
X276564Y42449D01*
X276574Y42447D01*
X276584Y42444D01*
X276605Y42438D01*
X276617Y42433D01*
X276628Y42427D01*
X276640Y42420D01*
X276651Y42413D01*
X276662Y42404D01*
X276673Y42393D01*
X276674Y42392D01*
X276676Y42391D01*
X276679Y42388D01*
X276682Y42383D01*
X276686Y42377D01*
X276691Y42370D01*
X276696Y42362D01*
X276701Y42353D01*
X276707Y42343D01*
X276711Y42331D01*
X276716Y42318D01*
X276721Y42305D01*
X276723Y42290D01*
X276726Y42274D01*
X276728Y42258D01*
X276729Y42241D01*
Y42232D01*
X276728Y42225D01*
X276727Y42217D01*
X276726Y42208D01*
X276724Y42197D01*
X276721Y42186D01*
X276715Y42161D01*
X276710Y42148D01*
X276706Y42136D01*
X276699Y42123D01*
X276692Y42110D01*
X276684Y42098D01*
X276673Y42087D01*
X276672Y42086D01*
X276671Y42085D01*
X276668Y42082D01*
X276663Y42078D01*
X276658Y42074D01*
X276651Y42069D01*
X276644Y42064D01*
X276635Y42059D01*
X276625Y42053D01*
X276614Y42049D01*
X276591Y42039D01*
X276577Y42036D01*
X276563Y42033D01*
X276549Y42031D01*
X276534Y42030D01*
X276533D01*
X276531D01*
X276527D01*
X276524Y42031D01*
X276518D01*
X276512Y42032D01*
X276497Y42034D01*
X276480Y42037D01*
X276464Y42043D01*
X276446Y42051D01*
X276429Y42061D01*
X276428D01*
X276427Y42063D01*
X276423Y42067D01*
X276415Y42074D01*
X276406Y42085D01*
X276397Y42098D01*
X276387Y42113D01*
X276378Y42131D01*
X276372Y42152D01*
Y42151D01*
X276371Y42150D01*
X276370Y42147D01*
X276368Y42144D01*
X276365Y42135D01*
X276359Y42124D01*
X276352Y42112D01*
X276342Y42100D01*
X276332Y42089D01*
X276321Y42079D01*
X276319Y42078D01*
X276316Y42075D01*
X276308Y42072D01*
X276299Y42068D01*
X276287Y42063D01*
X276273Y42060D01*
X276257Y42057D01*
X276241Y42056D01*
X276240D01*
X276238D01*
X276234D01*
X276229Y42057D01*
X276223Y42058D01*
X276216Y42059D01*
X276200Y42062D01*
X276182Y42068D01*
X276162Y42077D01*
X276152Y42083D01*
X276142Y42089D01*
X276133Y42098D01*
X276123Y42106D01*
X276122Y42107D01*
X276121Y42109D01*
X276119Y42111D01*
X276116Y42115D01*
X276112Y42120D01*
X276109Y42126D01*
X276104Y42134D01*
X276099Y42141D01*
X276095Y42150D01*
X276090Y42160D01*
X276086Y42172D01*
X276083Y42184D01*
X276077Y42209D01*
X276076Y42224D01*
X276075Y42239D01*
Y42247D01*
X276076Y42253D01*
X276077Y42260D01*
X276078Y42269D01*
X276079Y42278D01*
X276082Y42287D01*
X276087Y42309D01*
X276096Y42331D01*
X276101Y42343D01*
X276108Y42354D01*
X276116Y42364D01*
X276124Y42374D01*
X276125Y42375D01*
X276126Y42376D01*
X276129Y42379D01*
X276133Y42382D01*
X276138Y42386D01*
X276144Y42391D01*
X276158Y42400D01*
X276175Y42409D01*
X276195Y42417D01*
X276219Y42424D01*
X276231Y42425D01*
X276243Y42426D01*
X276244D01*
X276245D01*
X276251D01*
X276259Y42425D01*
X276269Y42423D01*
X276282Y42420D01*
X276295Y42416D01*
X276308Y42410D01*
X276321Y42402D01*
X276323Y42401D01*
X276327Y42397D01*
X276332Y42392D01*
X276340Y42384D01*
X276348Y42374D01*
X276356Y42362D01*
X276365Y42348D01*
X276372Y42331D01*
Y42332D01*
X276373Y42334D01*
X276374Y42337D01*
X276376Y42341D01*
X276380Y42352D01*
X276387Y42365D01*
X276396Y42379D01*
X276406Y42393D01*
X276419Y42407D01*
X276434Y42420D01*
X276435D01*
X276436Y42421D01*
X276441Y42425D01*
X276451Y42430D01*
X276463Y42436D01*
X276477Y42441D01*
X276495Y42447D01*
X276514Y42451D01*
X276536Y42452D01*
X276537D01*
X276539D01*
X276544D01*
X276550Y42451D01*
D02*
G37*
G36*
X276414Y41946D02*
X276421D01*
X276439Y41945D01*
X276459Y41942D01*
X276480Y41939D01*
X276502Y41935D01*
X276525Y41929D01*
X276525D01*
X276527Y41928D01*
X276530Y41927D01*
X276534Y41926D01*
X276544Y41923D01*
X276557Y41917D01*
X276572Y41912D01*
X276587Y41904D01*
X276602Y41895D01*
X276617Y41886D01*
X276619Y41885D01*
X276624Y41881D01*
X276630Y41876D01*
X276638Y41868D01*
X276648Y41860D01*
X276657Y41850D01*
X276667Y41840D01*
X276675Y41828D01*
X276676Y41826D01*
X276679Y41822D01*
X276683Y41816D01*
X276687Y41806D01*
X276693Y41795D01*
X276697Y41782D01*
X276703Y41767D01*
X276708Y41751D01*
Y41749D01*
X276709Y41746D01*
X276709Y41743D01*
X276710Y41734D01*
X276712Y41721D01*
X276714Y41706D01*
X276716Y41689D01*
X276717Y41669D01*
X276718Y41648D01*
Y41418D01*
X276078D01*
Y41664D01*
X276079Y41681D01*
X276080Y41699D01*
X276082Y41718D01*
X276084Y41736D01*
X276087Y41752D01*
Y41753D01*
X276088Y41755D01*
Y41757D01*
X276090Y41761D01*
X276093Y41771D01*
X276097Y41784D01*
X276104Y41799D01*
X276112Y41815D01*
X276121Y41830D01*
X276133Y41845D01*
X276134Y41846D01*
X276135Y41847D01*
X276138Y41850D01*
X276141Y41853D01*
X276150Y41863D01*
X276163Y41874D01*
X276179Y41886D01*
X276197Y41899D01*
X276219Y41911D01*
X276243Y41921D01*
X276243D01*
X276245Y41922D01*
X276249Y41924D01*
X276255Y41925D01*
X276261Y41927D01*
X276268Y41929D01*
X276277Y41931D01*
X276287Y41934D01*
X276297Y41937D01*
X276309Y41939D01*
X276335Y41943D01*
X276364Y41946D01*
X276395Y41947D01*
X276396D01*
X276398D01*
X276403D01*
X276407D01*
X276414Y41946D01*
D02*
G37*
G36*
X236170Y51531D02*
X236169D01*
X236167D01*
X236164D01*
X236158Y51530D01*
X236153Y51529D01*
X236146D01*
X236130Y51527D01*
X236114Y51524D01*
X236097Y51518D01*
X236082Y51513D01*
X236076Y51509D01*
X236070Y51504D01*
X236069Y51504D01*
X236067Y51500D01*
X236062Y51494D01*
X236057Y51487D01*
X236052Y51477D01*
X236048Y51466D01*
X236044Y51452D01*
X236044Y51437D01*
Y51431D01*
X236044Y51426D01*
X236045Y51418D01*
X236047Y51409D01*
X236049Y51400D01*
X236053Y51391D01*
X236057Y51382D01*
X236058Y51381D01*
X236060Y51378D01*
X236064Y51374D01*
X236068Y51369D01*
X236074Y51364D01*
X236081Y51358D01*
X236088Y51354D01*
X236097Y51350D01*
X236098D01*
X236102Y51348D01*
X236108Y51347D01*
X236117Y51345D01*
X236128Y51344D01*
X236142Y51343D01*
X236158Y51341D01*
X236178D01*
X236619D01*
Y51256D01*
X236182D01*
X236181D01*
X236179D01*
X236175D01*
X236169D01*
X236162Y51257D01*
X236155D01*
X236137Y51259D01*
X236117Y51260D01*
X236095Y51264D01*
X236076Y51270D01*
X236057Y51276D01*
X236057D01*
X236056Y51277D01*
X236050Y51280D01*
X236043Y51284D01*
X236032Y51291D01*
X236022Y51300D01*
X236011Y51310D01*
X236000Y51323D01*
X235991Y51338D01*
X235990Y51340D01*
X235987Y51345D01*
X235983Y51354D01*
X235980Y51366D01*
X235975Y51381D01*
X235971Y51397D01*
X235969Y51416D01*
X235968Y51436D01*
Y51444D01*
X235969Y51450D01*
X235970Y51457D01*
X235971Y51465D01*
X235974Y51484D01*
X235980Y51504D01*
X235988Y51526D01*
X235994Y51537D01*
X236000Y51547D01*
X236008Y51556D01*
X236016Y51565D01*
X236017Y51566D01*
X236018Y51567D01*
X236021Y51569D01*
X236025Y51572D01*
X236030Y51576D01*
X236036Y51579D01*
X236044Y51583D01*
X236052Y51588D01*
X236061Y51591D01*
X236072Y51595D01*
X236083Y51599D01*
X236096Y51602D01*
X236110Y51604D01*
X236126Y51607D01*
X236142Y51608D01*
X236159D01*
X236170Y51531D01*
D02*
G37*
G36*
X236153Y51067D02*
X236152D01*
X236150D01*
X236147Y51066D01*
X236142Y51065D01*
X236132Y51063D01*
X236118Y51059D01*
X236105Y51053D01*
X236089Y51046D01*
X236075Y51037D01*
X236062Y51026D01*
X236061Y51024D01*
X236057Y51020D01*
X236053Y51013D01*
X236047Y51002D01*
X236042Y50991D01*
X236037Y50977D01*
X236033Y50962D01*
X236032Y50944D01*
Y50939D01*
X236033Y50935D01*
X236034Y50924D01*
X236038Y50911D01*
X236043Y50895D01*
X236050Y50879D01*
X236061Y50863D01*
X236068Y50855D01*
X236075Y50848D01*
X236076Y50847D01*
X236077Y50846D01*
X236080Y50844D01*
X236082Y50842D01*
X236093Y50835D01*
X236105Y50828D01*
X236121Y50821D01*
X236141Y50815D01*
X236164Y50810D01*
X236176Y50808D01*
X236189D01*
X236190D01*
X236191D01*
X236195D01*
X236200Y50809D01*
X236205D01*
X236212Y50810D01*
X236227Y50813D01*
X236244Y50818D01*
X236262Y50824D01*
X236278Y50833D01*
X236294Y50846D01*
X236295D01*
X236296Y50848D01*
X236301Y50853D01*
X236307Y50861D01*
X236314Y50872D01*
X236321Y50887D01*
X236327Y50904D01*
X236332Y50923D01*
X236334Y50934D01*
Y50952D01*
X236333Y50959D01*
X236332Y50968D01*
X236329Y50979D01*
X236326Y50990D01*
X236322Y51002D01*
X236316Y51014D01*
X236315Y51015D01*
X236314Y51019D01*
X236309Y51025D01*
X236304Y51032D01*
X236298Y51039D01*
X236289Y51047D01*
X236281Y51055D01*
X236271Y51062D01*
X236281Y51136D01*
X236610Y51074D01*
Y50756D01*
X236535D01*
Y51012D01*
X236363Y51046D01*
X236363Y51045D01*
X236364Y51043D01*
X236366Y51040D01*
X236369Y51036D01*
X236372Y51030D01*
X236375Y51024D01*
X236383Y51009D01*
X236390Y50990D01*
X236397Y50970D01*
X236401Y50948D01*
X236403Y50937D01*
Y50916D01*
X236402Y50911D01*
X236401Y50904D01*
X236400Y50895D01*
X236399Y50886D01*
X236396Y50876D01*
X236389Y50854D01*
X236385Y50842D01*
X236378Y50830D01*
X236372Y50818D01*
X236364Y50806D01*
X236355Y50794D01*
X236345Y50783D01*
X236344Y50782D01*
X236342Y50781D01*
X236339Y50778D01*
X236335Y50774D01*
X236328Y50769D01*
X236322Y50765D01*
X236314Y50759D01*
X236304Y50754D01*
X236294Y50749D01*
X236283Y50744D01*
X236270Y50739D01*
X236257Y50734D01*
X236243Y50731D01*
X236228Y50728D01*
X236212Y50726D01*
X236195Y50725D01*
X236194D01*
X236191D01*
X236187D01*
X236180Y50726D01*
X236173Y50727D01*
X236165Y50728D01*
X236155Y50730D01*
X236144Y50732D01*
X236120Y50737D01*
X236095Y50746D01*
X236082Y50752D01*
X236070Y50759D01*
X236057Y50767D01*
X236045Y50776D01*
X236044Y50777D01*
X236042Y50779D01*
X236038Y50782D01*
X236033Y50787D01*
X236028Y50793D01*
X236020Y50801D01*
X236014Y50810D01*
X236007Y50820D01*
X235999Y50831D01*
X235993Y50844D01*
X235986Y50858D01*
X235980Y50873D01*
X235975Y50889D01*
X235971Y50906D01*
X235969Y50925D01*
X235968Y50944D01*
Y50953D01*
X235969Y50959D01*
X235970Y50966D01*
X235971Y50975D01*
X235971Y50985D01*
X235974Y50995D01*
X235980Y51018D01*
X235988Y51041D01*
X235994Y51053D01*
X236000Y51065D01*
X236008Y51076D01*
X236016Y51088D01*
X236017Y51088D01*
X236018Y51090D01*
X236021Y51092D01*
X236025Y51096D01*
X236030Y51100D01*
X236035Y51105D01*
X236043Y51111D01*
X236051Y51115D01*
X236059Y51121D01*
X236069Y51126D01*
X236092Y51137D01*
X236118Y51145D01*
X236131Y51148D01*
X236146Y51149D01*
X236153Y51067D01*
D02*
G37*
G36*
X236158Y50573D02*
X236157D01*
X236155Y50572D01*
X236152Y50571D01*
X236147Y50570D01*
X236142Y50569D01*
X236135Y50567D01*
X236121Y50562D01*
X236105Y50556D01*
X236089Y50548D01*
X236074Y50538D01*
X236061Y50527D01*
X236060Y50525D01*
X236057Y50522D01*
X236052Y50514D01*
X236047Y50505D01*
X236042Y50494D01*
X236037Y50480D01*
X236033Y50464D01*
X236032Y50448D01*
Y50442D01*
X236033Y50438D01*
X236034Y50428D01*
X236037Y50415D01*
X236042Y50401D01*
X236048Y50385D01*
X236057Y50369D01*
X236070Y50354D01*
X236072Y50352D01*
X236078Y50348D01*
X236086Y50342D01*
X236097Y50335D01*
X236111Y50328D01*
X236127Y50322D01*
X236145Y50317D01*
X236166Y50315D01*
X236167D01*
X236168D01*
X236171D01*
X236175Y50316D01*
X236185Y50317D01*
X236197Y50320D01*
X236212Y50324D01*
X236227Y50330D01*
X236241Y50340D01*
X236255Y50352D01*
X236257Y50353D01*
X236261Y50358D01*
X236266Y50365D01*
X236273Y50376D01*
X236279Y50389D01*
X236285Y50404D01*
X236289Y50422D01*
X236290Y50441D01*
Y50450D01*
X236289Y50456D01*
X236289Y50464D01*
X236287Y50474D01*
X236285Y50485D01*
X236282Y50497D01*
X236351Y50487D01*
Y50483D01*
X236351Y50479D01*
Y50467D01*
X236352Y50457D01*
X236354Y50445D01*
X236357Y50431D01*
X236362Y50415D01*
X236368Y50401D01*
X236376Y50385D01*
Y50384D01*
X236377Y50383D01*
X236381Y50378D01*
X236387Y50372D01*
X236396Y50364D01*
X236408Y50357D01*
X236422Y50351D01*
X236437Y50346D01*
X236447Y50344D01*
X236457D01*
X236458D01*
X236459D01*
X236464D01*
X236472Y50346D01*
X236482Y50348D01*
X236493Y50352D01*
X236505Y50356D01*
X236517Y50364D01*
X236528Y50374D01*
X236529Y50375D01*
X236533Y50379D01*
X236537Y50386D01*
X236543Y50394D01*
X236547Y50405D01*
X236552Y50418D01*
X236556Y50433D01*
X236557Y50450D01*
Y50457D01*
X236555Y50465D01*
X236553Y50476D01*
X236549Y50488D01*
X236545Y50500D01*
X236537Y50513D01*
X236528Y50525D01*
X236527Y50526D01*
X236522Y50530D01*
X236516Y50536D01*
X236507Y50542D01*
X236495Y50548D01*
X236480Y50555D01*
X236462Y50561D01*
X236442Y50564D01*
X236456Y50643D01*
X236457D01*
X236460Y50642D01*
X236463Y50641D01*
X236469Y50640D01*
X236475Y50638D01*
X236483Y50635D01*
X236500Y50630D01*
X236521Y50621D01*
X236541Y50610D01*
X236560Y50596D01*
X236578Y50578D01*
X236579Y50577D01*
X236580Y50575D01*
X236582Y50573D01*
X236584Y50569D01*
X236588Y50564D01*
X236592Y50558D01*
X236596Y50551D01*
X236600Y50543D01*
X236608Y50524D01*
X236615Y50503D01*
X236620Y50478D01*
X236621Y50465D01*
Y50442D01*
X236620Y50432D01*
X236619Y50420D01*
X236616Y50405D01*
X236611Y50389D01*
X236606Y50372D01*
X236598Y50355D01*
Y50354D01*
X236597Y50353D01*
X236595Y50348D01*
X236589Y50340D01*
X236583Y50330D01*
X236573Y50319D01*
X236563Y50308D01*
X236551Y50297D01*
X236537Y50288D01*
X236535Y50287D01*
X236531Y50284D01*
X236522Y50280D01*
X236512Y50276D01*
X236500Y50271D01*
X236486Y50267D01*
X236471Y50265D01*
X236455Y50264D01*
X236453D01*
X236448D01*
X236440Y50265D01*
X236430Y50266D01*
X236418Y50269D01*
X236405Y50274D01*
X236392Y50279D01*
X236379Y50287D01*
X236377Y50288D01*
X236374Y50291D01*
X236367Y50296D01*
X236360Y50303D01*
X236351Y50313D01*
X236342Y50324D01*
X236334Y50337D01*
X236326Y50352D01*
Y50352D01*
X236325Y50350D01*
X236324Y50347D01*
X236323Y50343D01*
X236319Y50333D01*
X236314Y50320D01*
X236306Y50305D01*
X236297Y50291D01*
X236285Y50277D01*
X236271Y50264D01*
X236269Y50263D01*
X236264Y50259D01*
X236254Y50254D01*
X236242Y50248D01*
X236228Y50242D01*
X236210Y50237D01*
X236190Y50233D01*
X236167Y50232D01*
X236167D01*
X236164D01*
X236159D01*
X236154Y50233D01*
X236146Y50234D01*
X236138Y50236D01*
X236129Y50238D01*
X236118Y50240D01*
X236096Y50247D01*
X236084Y50253D01*
X236073Y50258D01*
X236061Y50266D01*
X236049Y50274D01*
X236037Y50283D01*
X236026Y50294D01*
X236025Y50295D01*
X236023Y50297D01*
X236020Y50301D01*
X236017Y50305D01*
X236012Y50311D01*
X236008Y50318D01*
X236002Y50327D01*
X235997Y50337D01*
X235992Y50347D01*
X235986Y50359D01*
X235982Y50371D01*
X235977Y50385D01*
X235973Y50400D01*
X235971Y50415D01*
X235969Y50431D01*
X235968Y50449D01*
Y50457D01*
X235969Y50463D01*
X235970Y50470D01*
X235971Y50478D01*
X235972Y50487D01*
X235974Y50498D01*
X235980Y50520D01*
X235989Y50543D01*
X235995Y50555D01*
X236001Y50566D01*
X236009Y50577D01*
X236018Y50588D01*
X236019Y50589D01*
X236020Y50591D01*
X236023Y50594D01*
X236027Y50597D01*
X236032Y50601D01*
X236038Y50606D01*
X236044Y50611D01*
X236053Y50617D01*
X236062Y50622D01*
X236071Y50628D01*
X236093Y50638D01*
X236119Y50646D01*
X236133Y50649D01*
X236148Y50651D01*
X236158Y50573D01*
D02*
G37*
%LPC*%
G36*
X114226Y47010D02*
Y46808D01*
X114512D01*
X114226Y47010D01*
D02*
G37*
G36*
X114423Y46482D02*
X114423D01*
X114421D01*
X114418D01*
X114413Y46481D01*
X114408D01*
X114402Y46480D01*
X114388Y46477D01*
X114373Y46472D01*
X114356Y46467D01*
X114339Y46458D01*
X114325Y46446D01*
X114323Y46444D01*
X114319Y46439D01*
X114312Y46431D01*
X114306Y46421D01*
X114299Y46407D01*
X114292Y46391D01*
X114288Y46374D01*
X114287Y46354D01*
Y46349D01*
X114288Y46345D01*
X114288Y46335D01*
X114291Y46323D01*
X114296Y46308D01*
X114302Y46293D01*
X114312Y46278D01*
X114325Y46264D01*
X114326Y46263D01*
X114332Y46259D01*
X114340Y46253D01*
X114352Y46246D01*
X114367Y46239D01*
X114385Y46234D01*
X114406Y46230D01*
X114430Y46228D01*
X114431D01*
X114433D01*
X114436D01*
X114441Y46229D01*
X114447D01*
X114454Y46230D01*
X114469Y46233D01*
X114486Y46237D01*
X114505Y46243D01*
X114522Y46252D01*
X114538Y46264D01*
X114539D01*
X114540Y46266D01*
X114545Y46271D01*
X114551Y46278D01*
X114558Y46288D01*
X114565Y46301D01*
X114571Y46316D01*
X114576Y46333D01*
X114578Y46342D01*
Y46357D01*
X114577Y46361D01*
X114576Y46371D01*
X114572Y46383D01*
X114568Y46398D01*
X114559Y46413D01*
X114549Y46429D01*
X114542Y46436D01*
X114534Y46444D01*
X114533D01*
X114533Y46446D01*
X114530Y46448D01*
X114527Y46449D01*
X114518Y46456D01*
X114505Y46462D01*
X114489Y46470D01*
X114470Y46476D01*
X114447Y46480D01*
X114423Y46482D01*
D02*
G37*
G36*
X103295Y60467D02*
X103143D01*
X103137Y60466D01*
X103123Y60465D01*
X103107Y60464D01*
X103091Y60462D01*
X103074Y60459D01*
X103060Y60456D01*
X103058Y60455D01*
X103054Y60454D01*
X103047Y60451D01*
X103039Y60447D01*
X103030Y60442D01*
X103020Y60436D01*
X103011Y60430D01*
X103002Y60422D01*
X103001Y60421D01*
X102997Y60417D01*
X102992Y60410D01*
X102985Y60401D01*
X102978Y60389D01*
X102970Y60375D01*
X102962Y60360D01*
X102956Y60342D01*
Y60341D01*
X102955Y60339D01*
X102954Y60336D01*
X102953Y60333D01*
X102952Y60328D01*
X102950Y60322D01*
X102948Y60315D01*
X102946Y60308D01*
X102944Y60289D01*
X102941Y60268D01*
X102939Y60244D01*
X102938Y60218D01*
Y60217D01*
Y60214D01*
Y60209D01*
X102939Y60202D01*
Y60193D01*
X102940Y60184D01*
X102941Y60173D01*
X102942Y60162D01*
X102946Y60137D01*
X102952Y60111D01*
X102960Y60087D01*
X102966Y60075D01*
X102971Y60065D01*
Y60064D01*
X102973Y60062D01*
X102975Y60059D01*
X102977Y60055D01*
X102984Y60046D01*
X102994Y60035D01*
X103006Y60023D01*
X103019Y60011D01*
X103035Y60001D01*
X103052Y59993D01*
X103054Y59992D01*
X103058Y59991D01*
X103067Y59988D01*
X103079Y59985D01*
X103093Y59983D01*
X103112Y59981D01*
X103123Y59980D01*
X103135D01*
X103147Y59979D01*
X103295D01*
Y60467D01*
D02*
G37*
G36*
Y57478D02*
X103143D01*
X103137Y57477D01*
X103123Y57476D01*
X103107Y57475D01*
X103091Y57473D01*
X103074Y57471D01*
X103060Y57467D01*
X103058Y57466D01*
X103054Y57465D01*
X103047Y57462D01*
X103039Y57459D01*
X103030Y57453D01*
X103020Y57447D01*
X103011Y57441D01*
X103002Y57434D01*
X103001Y57432D01*
X102997Y57428D01*
X102992Y57422D01*
X102985Y57412D01*
X102978Y57400D01*
X102970Y57386D01*
X102962Y57371D01*
X102956Y57353D01*
Y57352D01*
X102955Y57350D01*
X102954Y57348D01*
X102953Y57344D01*
X102952Y57339D01*
X102950Y57333D01*
X102948Y57326D01*
X102946Y57319D01*
X102944Y57300D01*
X102941Y57279D01*
X102939Y57255D01*
X102938Y57229D01*
Y57228D01*
Y57225D01*
Y57220D01*
X102939Y57213D01*
Y57204D01*
X102940Y57195D01*
X102941Y57184D01*
X102942Y57173D01*
X102946Y57148D01*
X102952Y57122D01*
X102960Y57098D01*
X102966Y57086D01*
X102971Y57076D01*
Y57075D01*
X102973Y57073D01*
X102975Y57070D01*
X102977Y57067D01*
X102984Y57057D01*
X102994Y57046D01*
X103006Y57034D01*
X103019Y57022D01*
X103035Y57012D01*
X103052Y57004D01*
X103054Y57003D01*
X103058Y57002D01*
X103067Y56999D01*
X103079Y56996D01*
X103093Y56994D01*
X103112Y56992D01*
X103123Y56991D01*
X103135D01*
X103147Y56990D01*
X103295D01*
Y57478D01*
D02*
G37*
G36*
X102559Y66145D02*
X102553D01*
X102550Y66144D01*
X102540Y66143D01*
X102528Y66140D01*
X102513Y66136D01*
X102498Y66129D01*
X102483Y66120D01*
X102469Y66107D01*
X102468Y66105D01*
X102464Y66100D01*
X102458Y66091D01*
X102451Y66079D01*
X102444Y66065D01*
X102439Y66047D01*
X102435Y66026D01*
X102433Y66002D01*
Y66001D01*
Y65999D01*
Y65995D01*
X102434Y65991D01*
Y65984D01*
X102435Y65978D01*
X102438Y65963D01*
X102442Y65945D01*
X102448Y65927D01*
X102457Y65909D01*
X102469Y65894D01*
Y65893D01*
X102471Y65892D01*
X102476Y65887D01*
X102483Y65881D01*
X102493Y65873D01*
X102506Y65867D01*
X102521Y65860D01*
X102538Y65856D01*
X102547Y65854D01*
X102562D01*
X102566Y65855D01*
X102576Y65856D01*
X102588Y65859D01*
X102603Y65864D01*
X102618Y65872D01*
X102634Y65882D01*
X102641Y65890D01*
X102649Y65897D01*
Y65898D01*
X102651Y65899D01*
X102652Y65902D01*
X102654Y65905D01*
X102661Y65914D01*
X102667Y65927D01*
X102675Y65942D01*
X102681Y65962D01*
X102685Y65984D01*
X102687Y66008D01*
Y66009D01*
Y66011D01*
Y66014D01*
X102686Y66018D01*
Y66024D01*
X102685Y66029D01*
X102682Y66043D01*
X102677Y66059D01*
X102672Y66076D01*
X102663Y66092D01*
X102651Y66107D01*
X102649Y66109D01*
X102644Y66113D01*
X102636Y66119D01*
X102626Y66126D01*
X102612Y66133D01*
X102596Y66139D01*
X102578Y66143D01*
X102559Y66145D01*
D02*
G37*
G36*
X103295Y66356D02*
X103143D01*
X103137Y66355D01*
X103123Y66354D01*
X103107Y66353D01*
X103091Y66351D01*
X103074Y66348D01*
X103060Y66345D01*
X103058Y66344D01*
X103054Y66343D01*
X103047Y66340D01*
X103039Y66336D01*
X103030Y66331D01*
X103020Y66325D01*
X103011Y66319D01*
X103002Y66311D01*
X103001Y66310D01*
X102997Y66306D01*
X102992Y66299D01*
X102985Y66290D01*
X102978Y66278D01*
X102970Y66264D01*
X102962Y66249D01*
X102956Y66231D01*
Y66230D01*
X102955Y66228D01*
X102954Y66225D01*
X102953Y66222D01*
X102952Y66217D01*
X102950Y66211D01*
X102948Y66204D01*
X102946Y66197D01*
X102944Y66178D01*
X102941Y66157D01*
X102939Y66133D01*
X102938Y66107D01*
Y66106D01*
Y66102D01*
Y66098D01*
X102939Y66090D01*
Y66082D01*
X102940Y66073D01*
X102941Y66062D01*
X102942Y66051D01*
X102946Y66026D01*
X102952Y66000D01*
X102960Y65976D01*
X102966Y65964D01*
X102971Y65954D01*
Y65953D01*
X102973Y65951D01*
X102975Y65948D01*
X102977Y65944D01*
X102984Y65935D01*
X102994Y65924D01*
X103006Y65912D01*
X103019Y65900D01*
X103035Y65890D01*
X103052Y65881D01*
X103054Y65881D01*
X103058Y65880D01*
X103067Y65877D01*
X103079Y65874D01*
X103093Y65872D01*
X103112Y65869D01*
X103123Y65869D01*
X103135D01*
X103147Y65868D01*
X103295D01*
Y66356D01*
D02*
G37*
G36*
Y63357D02*
X103143D01*
X103137Y63356D01*
X103123Y63355D01*
X103107Y63354D01*
X103091Y63352D01*
X103074Y63350D01*
X103060Y63346D01*
X103058Y63345D01*
X103054Y63344D01*
X103047Y63341D01*
X103039Y63338D01*
X103030Y63332D01*
X103020Y63326D01*
X103011Y63320D01*
X103002Y63313D01*
X103001Y63311D01*
X102997Y63307D01*
X102992Y63301D01*
X102985Y63291D01*
X102978Y63279D01*
X102970Y63265D01*
X102962Y63250D01*
X102956Y63232D01*
Y63231D01*
X102955Y63229D01*
X102954Y63227D01*
X102953Y63223D01*
X102952Y63218D01*
X102950Y63212D01*
X102948Y63205D01*
X102946Y63198D01*
X102944Y63179D01*
X102941Y63158D01*
X102939Y63134D01*
X102938Y63108D01*
Y63107D01*
Y63104D01*
Y63099D01*
X102939Y63092D01*
Y63083D01*
X102940Y63074D01*
X102941Y63063D01*
X102942Y63052D01*
X102946Y63027D01*
X102952Y63001D01*
X102960Y62977D01*
X102966Y62965D01*
X102971Y62955D01*
Y62954D01*
X102973Y62952D01*
X102975Y62949D01*
X102977Y62946D01*
X102984Y62936D01*
X102994Y62925D01*
X103006Y62913D01*
X103019Y62901D01*
X103035Y62891D01*
X103052Y62883D01*
X103054Y62882D01*
X103058Y62881D01*
X103067Y62878D01*
X103079Y62875D01*
X103093Y62873D01*
X103112Y62871D01*
X103123Y62870D01*
X103135D01*
X103147Y62869D01*
X103295D01*
Y63357D01*
D02*
G37*
G36*
Y54478D02*
X103143D01*
X103137Y54477D01*
X103123Y54476D01*
X103107Y54475D01*
X103091Y54473D01*
X103074Y54471D01*
X103060Y54467D01*
X103058Y54466D01*
X103054Y54465D01*
X103047Y54462D01*
X103039Y54459D01*
X103030Y54453D01*
X103020Y54447D01*
X103011Y54441D01*
X103002Y54434D01*
X103001Y54432D01*
X102997Y54428D01*
X102992Y54422D01*
X102985Y54412D01*
X102978Y54400D01*
X102970Y54386D01*
X102962Y54371D01*
X102956Y54353D01*
Y54352D01*
X102955Y54350D01*
X102954Y54348D01*
X102953Y54344D01*
X102952Y54339D01*
X102950Y54333D01*
X102948Y54326D01*
X102946Y54319D01*
X102944Y54300D01*
X102941Y54279D01*
X102939Y54255D01*
X102938Y54229D01*
Y54228D01*
Y54225D01*
Y54220D01*
X102939Y54213D01*
Y54204D01*
X102940Y54195D01*
X102941Y54184D01*
X102942Y54173D01*
X102946Y54148D01*
X102952Y54122D01*
X102960Y54098D01*
X102966Y54086D01*
X102971Y54076D01*
Y54075D01*
X102973Y54073D01*
X102975Y54070D01*
X102977Y54067D01*
X102984Y54057D01*
X102994Y54046D01*
X103006Y54034D01*
X103019Y54022D01*
X103035Y54012D01*
X103052Y54004D01*
X103054Y54003D01*
X103058Y54002D01*
X103067Y53999D01*
X103079Y53996D01*
X103093Y53994D01*
X103112Y53992D01*
X103123Y53991D01*
X103135D01*
X103147Y53990D01*
X103295D01*
Y54478D01*
D02*
G37*
G36*
X103320Y43317D02*
X103168D01*
X103162Y43316D01*
X103148Y43315D01*
X103132Y43314D01*
X103116Y43312D01*
X103099Y43310D01*
X103085Y43306D01*
X103083Y43305D01*
X103079Y43304D01*
X103072Y43301D01*
X103064Y43298D01*
X103055Y43292D01*
X103045Y43286D01*
X103036Y43280D01*
X103027Y43273D01*
X103026Y43271D01*
X103022Y43267D01*
X103017Y43261D01*
X103010Y43251D01*
X103003Y43239D01*
X102995Y43225D01*
X102987Y43210D01*
X102981Y43192D01*
Y43191D01*
X102980Y43189D01*
X102979Y43187D01*
X102978Y43183D01*
X102977Y43178D01*
X102975Y43172D01*
X102973Y43165D01*
X102971Y43158D01*
X102969Y43139D01*
X102966Y43118D01*
X102964Y43094D01*
X102963Y43068D01*
Y43067D01*
Y43064D01*
Y43059D01*
X102964Y43052D01*
Y43043D01*
X102965Y43034D01*
X102966Y43023D01*
X102967Y43012D01*
X102971Y42987D01*
X102977Y42961D01*
X102985Y42937D01*
X102991Y42925D01*
X102996Y42915D01*
Y42914D01*
X102998Y42912D01*
X103000Y42909D01*
X103002Y42906D01*
X103009Y42896D01*
X103019Y42885D01*
X103031Y42873D01*
X103044Y42861D01*
X103060Y42851D01*
X103077Y42843D01*
X103079Y42842D01*
X103083Y42841D01*
X103092Y42838D01*
X103104Y42835D01*
X103118Y42833D01*
X103137Y42831D01*
X103148Y42830D01*
X103160D01*
X103172Y42829D01*
X103320D01*
Y43317D01*
D02*
G37*
G36*
X102575Y46339D02*
X102570D01*
X102566Y46338D01*
X102557Y46337D01*
X102545Y46335D01*
X102532Y46329D01*
X102517Y46323D01*
X102503Y46312D01*
X102495Y46307D01*
X102489Y46299D01*
Y46299D01*
X102487Y46298D01*
X102483Y46292D01*
X102478Y46283D01*
X102470Y46271D01*
X102464Y46255D01*
X102458Y46237D01*
X102455Y46215D01*
X102453Y46190D01*
Y46189D01*
Y46188D01*
Y46184D01*
X102454Y46179D01*
Y46174D01*
X102455Y46167D01*
X102457Y46152D01*
X102461Y46136D01*
X102468Y46118D01*
X102477Y46102D01*
X102489Y46086D01*
X102491Y46084D01*
X102495Y46079D01*
X102503Y46074D01*
X102513Y46066D01*
X102526Y46059D01*
X102541Y46054D01*
X102558Y46049D01*
X102578Y46047D01*
X102583D01*
X102587Y46048D01*
X102596Y46049D01*
X102609Y46052D01*
X102623Y46056D01*
X102639Y46064D01*
X102653Y46073D01*
X102668Y46086D01*
X102670Y46088D01*
X102674Y46092D01*
X102680Y46101D01*
X102687Y46113D01*
X102693Y46127D01*
X102700Y46144D01*
X102703Y46164D01*
X102705Y46186D01*
Y46188D01*
Y46192D01*
X102704Y46201D01*
X102703Y46211D01*
X102701Y46223D01*
X102698Y46236D01*
X102694Y46250D01*
X102689Y46263D01*
X102688Y46265D01*
X102685Y46270D01*
X102681Y46276D01*
X102676Y46285D01*
X102669Y46293D01*
X102661Y46303D01*
X102652Y46311D01*
X102640Y46320D01*
X102639Y46321D01*
X102635Y46323D01*
X102628Y46326D01*
X102620Y46329D01*
X102611Y46333D01*
X102600Y46336D01*
X102588Y46338D01*
X102575Y46339D01*
D02*
G37*
G36*
X103320Y46317D02*
X103168D01*
X103162Y46316D01*
X103148Y46315D01*
X103132Y46314D01*
X103116Y46312D01*
X103099Y46310D01*
X103085Y46306D01*
X103083Y46305D01*
X103079Y46304D01*
X103072Y46301D01*
X103064Y46298D01*
X103055Y46292D01*
X103045Y46286D01*
X103036Y46280D01*
X103027Y46273D01*
X103026Y46271D01*
X103022Y46267D01*
X103017Y46261D01*
X103010Y46251D01*
X103003Y46239D01*
X102995Y46225D01*
X102987Y46210D01*
X102981Y46192D01*
Y46191D01*
X102980Y46189D01*
X102979Y46187D01*
X102978Y46183D01*
X102977Y46178D01*
X102975Y46172D01*
X102973Y46165D01*
X102971Y46158D01*
X102969Y46139D01*
X102966Y46118D01*
X102964Y46094D01*
X102963Y46068D01*
Y46067D01*
Y46064D01*
Y46059D01*
X102964Y46052D01*
Y46043D01*
X102965Y46034D01*
X102966Y46023D01*
X102967Y46012D01*
X102971Y45987D01*
X102977Y45961D01*
X102985Y45937D01*
X102991Y45925D01*
X102996Y45915D01*
Y45914D01*
X102998Y45912D01*
X103000Y45909D01*
X103002Y45906D01*
X103009Y45896D01*
X103019Y45885D01*
X103031Y45873D01*
X103044Y45861D01*
X103060Y45851D01*
X103077Y45843D01*
X103079Y45842D01*
X103083Y45841D01*
X103092Y45838D01*
X103104Y45835D01*
X103118Y45833D01*
X103137Y45831D01*
X103148Y45830D01*
X103160D01*
X103172Y45829D01*
X103320D01*
Y46317D01*
D02*
G37*
G36*
Y40328D02*
X103168D01*
X103162Y40327D01*
X103148Y40326D01*
X103132Y40325D01*
X103116Y40323D01*
X103099Y40321D01*
X103085Y40317D01*
X103083Y40316D01*
X103079Y40315D01*
X103072Y40312D01*
X103064Y40309D01*
X103055Y40303D01*
X103045Y40298D01*
X103036Y40291D01*
X103027Y40284D01*
X103026Y40282D01*
X103022Y40278D01*
X103017Y40272D01*
X103010Y40262D01*
X103003Y40250D01*
X102995Y40237D01*
X102987Y40221D01*
X102981Y40203D01*
Y40202D01*
X102980Y40201D01*
X102979Y40198D01*
X102978Y40194D01*
X102977Y40189D01*
X102975Y40183D01*
X102973Y40176D01*
X102971Y40169D01*
X102969Y40151D01*
X102966Y40129D01*
X102964Y40105D01*
X102963Y40079D01*
Y40078D01*
Y40075D01*
Y40070D01*
X102964Y40063D01*
Y40054D01*
X102965Y40045D01*
X102966Y40034D01*
X102967Y40023D01*
X102971Y39998D01*
X102977Y39972D01*
X102985Y39948D01*
X102991Y39936D01*
X102996Y39926D01*
Y39925D01*
X102998Y39923D01*
X103000Y39920D01*
X103002Y39917D01*
X103009Y39907D01*
X103019Y39896D01*
X103031Y39884D01*
X103044Y39872D01*
X103060Y39862D01*
X103077Y39854D01*
X103079Y39853D01*
X103083Y39852D01*
X103092Y39849D01*
X103104Y39846D01*
X103118Y39845D01*
X103137Y39842D01*
X103148Y39841D01*
X103160D01*
X103172Y39840D01*
X103320D01*
Y40328D01*
D02*
G37*
G36*
X102742Y40178D02*
X102541D01*
Y39892D01*
X102742Y40178D01*
D02*
G37*
G36*
X9373Y23825D02*
X9372D01*
X9371D01*
X9357Y23824D01*
X9344Y23820D01*
X9332Y23816D01*
X9322Y23810D01*
X9313Y23806D01*
X9307Y23801D01*
X9303Y23797D01*
X9302Y23796D01*
X9292Y23784D01*
X9285Y23772D01*
X9280Y23759D01*
X9276Y23747D01*
X9274Y23736D01*
X9273Y23728D01*
Y23720D01*
X9273Y23705D01*
X9277Y23690D01*
X9282Y23678D01*
X9287Y23667D01*
X9293Y23659D01*
X9297Y23652D01*
X9301Y23647D01*
X9302Y23646D01*
X9314Y23636D01*
X9326Y23629D01*
X9338Y23623D01*
X9349Y23620D01*
X9359Y23618D01*
X9368Y23616D01*
X9373D01*
X9374D01*
X9375D01*
X9390Y23617D01*
X9404Y23621D01*
X9416Y23625D01*
X9426Y23631D01*
X9434Y23636D01*
X9440Y23641D01*
X9444Y23645D01*
X9445Y23646D01*
X9455Y23657D01*
X9462Y23670D01*
X9467Y23682D01*
X9470Y23694D01*
X9472Y23705D01*
X9473Y23713D01*
X9474Y23719D01*
Y23720D01*
X9473Y23737D01*
X9469Y23752D01*
X9465Y23765D01*
X9459Y23776D01*
X9455Y23784D01*
X9450Y23791D01*
X9446Y23795D01*
X9445Y23796D01*
X9434Y23806D01*
X9421Y23813D01*
X9409Y23818D01*
X9397Y23821D01*
X9387Y23823D01*
X9379Y23824D01*
X9373Y23825D01*
D02*
G37*
G36*
X9672Y23851D02*
X9668D01*
X9666D01*
X9647Y23849D01*
X9629Y23845D01*
X9614Y23840D01*
X9600Y23832D01*
X9590Y23826D01*
X9581Y23820D01*
X9577Y23817D01*
X9575Y23815D01*
X9563Y23801D01*
X9554Y23785D01*
X9547Y23770D01*
X9542Y23756D01*
X9540Y23743D01*
X9539Y23732D01*
X9538Y23729D01*
Y23723D01*
X9540Y23703D01*
X9543Y23684D01*
X9550Y23668D01*
X9556Y23654D01*
X9564Y23643D01*
X9570Y23634D01*
X9574Y23630D01*
X9576Y23628D01*
X9591Y23615D01*
X9606Y23606D01*
X9622Y23599D01*
X9636Y23595D01*
X9650Y23592D01*
X9660Y23591D01*
X9664Y23590D01*
X9666D01*
X9668D01*
X9669D01*
X9689Y23592D01*
X9707Y23596D01*
X9723Y23602D01*
X9736Y23609D01*
X9746Y23615D01*
X9754Y23622D01*
X9759Y23625D01*
X9761Y23627D01*
X9773Y23642D01*
X9782Y23657D01*
X9788Y23672D01*
X9792Y23687D01*
X9795Y23700D01*
X9796Y23711D01*
X9797Y23715D01*
Y23720D01*
X9796Y23733D01*
X9794Y23746D01*
X9791Y23758D01*
X9788Y23769D01*
X9786Y23777D01*
X9783Y23783D01*
X9781Y23787D01*
X9780Y23789D01*
X9773Y23800D01*
X9765Y23809D01*
X9757Y23818D01*
X9749Y23824D01*
X9742Y23830D01*
X9737Y23833D01*
X9732Y23835D01*
X9731Y23836D01*
X9719Y23841D01*
X9708Y23844D01*
X9697Y23847D01*
X9687Y23849D01*
X9678Y23850D01*
X9672Y23851D01*
D02*
G37*
G36*
X228204Y51110D02*
Y50908D01*
X228491D01*
X228204Y51110D01*
D02*
G37*
G36*
X228458Y50557D02*
X228457D01*
X228456D01*
X228450Y50556D01*
X228442Y50555D01*
X228432Y50553D01*
X228420Y50549D01*
X228408Y50545D01*
X228395Y50537D01*
X228384Y50528D01*
X228383Y50527D01*
X228379Y50522D01*
X228375Y50516D01*
X228370Y50508D01*
X228364Y50497D01*
X228360Y50484D01*
X228356Y50469D01*
X228355Y50452D01*
Y50450D01*
X228356Y50445D01*
X228357Y50436D01*
X228359Y50425D01*
X228363Y50413D01*
X228367Y50401D01*
X228375Y50388D01*
X228384Y50377D01*
X228385Y50376D01*
X228389Y50373D01*
X228395Y50368D01*
X228403Y50362D01*
X228413Y50357D01*
X228425Y50352D01*
X228439Y50349D01*
X228454Y50348D01*
X228455D01*
X228456D01*
X228461D01*
X228470Y50350D01*
X228480Y50351D01*
X228491Y50355D01*
X228503Y50361D01*
X228515Y50368D01*
X228527Y50378D01*
X228528Y50379D01*
X228532Y50384D01*
X228536Y50390D01*
X228542Y50399D01*
X228547Y50410D01*
X228552Y50422D01*
X228556Y50436D01*
X228557Y50452D01*
Y50460D01*
X228555Y50468D01*
X228553Y50479D01*
X228549Y50491D01*
X228545Y50504D01*
X228537Y50516D01*
X228527Y50528D01*
X228526Y50529D01*
X228522Y50533D01*
X228516Y50537D01*
X228508Y50542D01*
X228498Y50547D01*
X228486Y50552D01*
X228473Y50556D01*
X228458Y50557D01*
D02*
G37*
G36*
X228163Y50583D02*
X228161D01*
X228157D01*
X228151Y50582D01*
X228142Y50581D01*
X228132Y50579D01*
X228121Y50576D01*
X228110Y50572D01*
X228098Y50568D01*
X228097Y50567D01*
X228093Y50565D01*
X228087Y50561D01*
X228081Y50556D01*
X228072Y50549D01*
X228064Y50541D01*
X228057Y50532D01*
X228049Y50521D01*
X228048Y50519D01*
X228046Y50515D01*
X228044Y50509D01*
X228041Y50500D01*
X228038Y50490D01*
X228035Y50478D01*
X228033Y50465D01*
X228032Y50452D01*
Y50447D01*
X228033Y50443D01*
X228034Y50432D01*
X228037Y50419D01*
X228042Y50404D01*
X228047Y50388D01*
X228057Y50374D01*
X228069Y50359D01*
X228070Y50357D01*
X228075Y50353D01*
X228083Y50347D01*
X228093Y50340D01*
X228106Y50334D01*
X228122Y50327D01*
X228141Y50324D01*
X228160Y50322D01*
X228161D01*
X228163D01*
X228166D01*
X228169Y50323D01*
X228179Y50324D01*
X228193Y50326D01*
X228207Y50331D01*
X228223Y50338D01*
X228239Y50347D01*
X228253Y50360D01*
X228255Y50362D01*
X228259Y50366D01*
X228265Y50375D01*
X228273Y50386D01*
X228279Y50399D01*
X228286Y50416D01*
X228289Y50435D01*
X228291Y50455D01*
Y50460D01*
X228290Y50464D01*
X228289Y50474D01*
X228287Y50487D01*
X228282Y50502D01*
X228276Y50517D01*
X228266Y50533D01*
X228254Y50546D01*
X228253Y50548D01*
X228248Y50552D01*
X228240Y50558D01*
X228229Y50564D01*
X228216Y50571D01*
X228200Y50577D01*
X228182Y50581D01*
X228163Y50583D01*
D02*
G37*
G36*
X276243Y42345D02*
X276242D01*
X276241D01*
X276235D01*
X276227Y42343D01*
X276217Y42342D01*
X276206Y42338D01*
X276194Y42332D01*
X276182Y42325D01*
X276170Y42315D01*
X276169Y42314D01*
X276165Y42309D01*
X276160Y42303D01*
X276155Y42294D01*
X276149Y42283D01*
X276145Y42271D01*
X276141Y42257D01*
X276140Y42241D01*
Y42233D01*
X276142Y42225D01*
X276144Y42214D01*
X276147Y42202D01*
X276152Y42189D01*
X276159Y42177D01*
X276170Y42165D01*
X276170Y42164D01*
X276174Y42160D01*
X276181Y42156D01*
X276189Y42151D01*
X276199Y42146D01*
X276211Y42141D01*
X276224Y42137D01*
X276239Y42136D01*
X276240D01*
X276241D01*
X276246Y42137D01*
X276255Y42138D01*
X276265Y42140D01*
X276277Y42144D01*
X276289Y42148D01*
X276302Y42156D01*
X276313Y42165D01*
X276314Y42166D01*
X276317Y42171D01*
X276322Y42177D01*
X276327Y42185D01*
X276332Y42196D01*
X276337Y42209D01*
X276341Y42224D01*
X276341Y42241D01*
Y42243D01*
X276341Y42248D01*
X276340Y42257D01*
X276338Y42268D01*
X276334Y42280D01*
X276329Y42292D01*
X276322Y42305D01*
X276313Y42316D01*
X276312Y42317D01*
X276307Y42320D01*
X276302Y42325D01*
X276293Y42331D01*
X276283Y42336D01*
X276271Y42341D01*
X276257Y42344D01*
X276243Y42345D01*
D02*
G37*
G36*
X276537Y42371D02*
X276536D01*
X276534D01*
X276531D01*
X276527Y42370D01*
X276517Y42369D01*
X276503Y42367D01*
X276489Y42362D01*
X276474Y42355D01*
X276458Y42346D01*
X276443Y42333D01*
X276441Y42331D01*
X276438Y42327D01*
X276431Y42319D01*
X276424Y42307D01*
X276417Y42294D01*
X276411Y42277D01*
X276407Y42258D01*
X276405Y42238D01*
Y42233D01*
X276406Y42229D01*
X276407Y42219D01*
X276410Y42206D01*
X276415Y42191D01*
X276421Y42176D01*
X276430Y42160D01*
X276442Y42147D01*
X276444Y42145D01*
X276449Y42141D01*
X276457Y42135D01*
X276467Y42129D01*
X276481Y42122D01*
X276497Y42116D01*
X276514Y42112D01*
X276534Y42110D01*
X276536D01*
X276539D01*
X276546Y42111D01*
X276554Y42112D01*
X276564Y42114D01*
X276575Y42117D01*
X276587Y42121D01*
X276599Y42125D01*
X276599Y42126D01*
X276604Y42128D01*
X276610Y42132D01*
X276616Y42137D01*
X276624Y42144D01*
X276633Y42152D01*
X276640Y42161D01*
X276648Y42172D01*
X276648Y42174D01*
X276650Y42178D01*
X276653Y42184D01*
X276656Y42193D01*
X276659Y42203D01*
X276661Y42215D01*
X276663Y42228D01*
X276664Y42241D01*
Y42246D01*
X276663Y42250D01*
X276662Y42261D01*
X276660Y42274D01*
X276655Y42289D01*
X276649Y42305D01*
X276640Y42319D01*
X276628Y42334D01*
X276626Y42336D01*
X276622Y42340D01*
X276613Y42346D01*
X276603Y42353D01*
X276590Y42359D01*
X276574Y42366D01*
X276556Y42369D01*
X276537Y42371D01*
D02*
G37*
G36*
X276393Y41860D02*
X276392D01*
X276389D01*
X276384D01*
X276377Y41859D01*
X276368D01*
X276359Y41858D01*
X276348Y41857D01*
X276337Y41856D01*
X276312Y41852D01*
X276286Y41846D01*
X276262Y41838D01*
X276250Y41832D01*
X276240Y41827D01*
X276239D01*
X276237Y41825D01*
X276234Y41823D01*
X276231Y41821D01*
X276221Y41814D01*
X276210Y41804D01*
X276198Y41792D01*
X276186Y41779D01*
X276176Y41763D01*
X276168Y41746D01*
X276167Y41744D01*
X276166Y41740D01*
X276163Y41731D01*
X276160Y41719D01*
X276158Y41705D01*
X276156Y41686D01*
X276155Y41675D01*
Y41663D01*
X276154Y41651D01*
Y41503D01*
X276642D01*
Y41655D01*
X276641Y41661D01*
X276640Y41675D01*
X276639Y41691D01*
X276637Y41707D01*
X276635Y41724D01*
X276631Y41738D01*
X276630Y41740D01*
X276629Y41744D01*
X276626Y41751D01*
X276623Y41759D01*
X276617Y41768D01*
X276611Y41778D01*
X276605Y41787D01*
X276598Y41796D01*
X276596Y41797D01*
X276592Y41801D01*
X276586Y41806D01*
X276576Y41813D01*
X276564Y41820D01*
X276550Y41828D01*
X276535Y41836D01*
X276517Y41842D01*
X276516D01*
X276514Y41843D01*
X276512Y41844D01*
X276508Y41845D01*
X276503Y41846D01*
X276497Y41848D01*
X276490Y41850D01*
X276483Y41852D01*
X276464Y41854D01*
X276443Y41857D01*
X276419Y41859D01*
X276393Y41860D01*
D02*
G37*
%LPD*%
D96*
X117150Y39620D02*
Y55420D01*
X110850Y39620D02*
X117150D01*
X110850D02*
Y55420D01*
X117150D01*
X105080Y59591D02*
Y61141D01*
X101680D02*
X105080D01*
X101680Y59591D02*
Y61141D01*
Y59591D02*
X105080D01*
X101680Y56591D02*
X105080D01*
X101680D02*
Y58141D01*
X105080D01*
Y56591D02*
Y58141D01*
X101680Y65479D02*
X105080D01*
X101680D02*
Y67029D01*
X105080D01*
Y65479D02*
Y67029D01*
X101680Y62470D02*
X105080D01*
X101680D02*
Y64020D01*
X105080D01*
Y62470D02*
Y64020D01*
Y53591D02*
Y55141D01*
X101680D02*
X105080D01*
X101680Y53591D02*
Y55141D01*
Y53591D02*
X105080D01*
X101705Y42441D02*
X105105D01*
X101705D02*
Y43991D01*
X105105D01*
Y42441D02*
Y43991D01*
Y45441D02*
Y46991D01*
X101705D02*
X105105D01*
X101705Y45441D02*
Y46991D01*
Y45441D02*
X105105D01*
X101705Y39441D02*
X105105D01*
X101705D02*
Y40991D01*
X105105D01*
Y39441D02*
Y40991D01*
X1740Y30470D02*
X17960D01*
Y19610D02*
Y30470D01*
X1740Y19610D02*
X17960D01*
X1740D02*
Y30470D01*
X158830Y4250D02*
Y10550D01*
Y4250D02*
X174630D01*
Y10550D01*
X158830D02*
X174630D01*
X231129Y43720D02*
Y59520D01*
X224829Y43720D02*
X231129D01*
X224829D02*
Y59520D01*
X231129D01*
X275766Y39718D02*
X277316D01*
Y43118D01*
X275766D02*
X277316D01*
X275766Y39718D02*
Y43118D01*
X239129Y43710D02*
Y59510D01*
X232829Y43710D02*
X239129D01*
X232829D02*
Y59510D01*
X239129D01*
%TF.MD5,f0be97e6e269f3aaea57f671ea0adb39*%
M02*
