%TF.GenerationSoftware,Altium Limited,Altium Designer,26.1.1 (7)*%
G04 Layer_Color=0*
%FSLAX43Y43*%
%MOMM*%
%TF.SameCoordinates,F910D8A4-5627-44EB-A571-6FFAAA827985*%
%TF.FilePolarity,Positive*%
%TF.FileFunction,Plated,1,2,PTH,Drill*%
%TF.Part,Single*%
G01*
G75*
%TA.AperFunction,ComponentDrill*%
%ADD120C,0.950*%
%ADD121C,0.950*%
%ADD122C,1.450*%
%ADD123C,1.000*%
%ADD124C,3.170*%
%ADD125C,1.040*%
%ADD126C,1.000*%
%ADD127C,0.700*%
%ADD128C,0.762*%
%ADD129C,2.159*%
%ADD130C,1.700*%
%ADD131C,1.700*%
%ADD132C,1.100*%
%ADD133C,1.778*%
%TA.AperFunction,ViaDrill,NotFilled*%
%ADD134C,0.300*%
%ADD135C,0.711*%
%ADD136C,0.500*%
%ADD137C,4.000*%
%ADD138C,1.000*%
%ADD139C,0.540*%
D120*
X188161Y37987D02*
D03*
X181871Y38279D02*
D03*
X166439Y57836D02*
D03*
X148660Y13457D02*
D03*
X152871Y10317D02*
D03*
X148660Y16602D02*
D03*
Y8727D02*
D03*
X150683Y15002D02*
D03*
X150475Y7027D02*
D03*
Y11827D02*
D03*
X20914Y30470D02*
D03*
X56711Y38232D02*
D03*
X54714Y45661D02*
D03*
X46252Y64911D02*
D03*
X74041Y77404D02*
D03*
X46654Y61250D02*
D03*
X81661Y79635D02*
D03*
X247860Y64326D02*
D03*
X267927Y57729D02*
D03*
X254871D02*
D03*
X258002Y37788D02*
D03*
X278232Y77032D02*
D03*
X255223Y46105D02*
D03*
X293185Y20344D02*
D03*
X293072Y30054D02*
D03*
X157008Y38337D02*
D03*
X178714Y74317D02*
D03*
X153823Y57836D02*
D03*
X154374Y44728D02*
D03*
X293135Y14410D02*
D03*
X276609Y34900D02*
D03*
X298316Y71428D02*
D03*
X285396Y72651D02*
D03*
X279555Y35172D02*
D03*
D121*
X16700Y80466D02*
D03*
X148660Y5477D02*
D03*
X307400Y14480D02*
D03*
X304005D02*
D03*
X31815Y78014D02*
D03*
X37446Y79505D02*
D03*
X5724Y88112D02*
D03*
X37446Y74800D02*
D03*
X196975Y4550D02*
D03*
X287475Y35075D02*
D03*
X147856Y64321D02*
D03*
X35545Y60305D02*
D03*
X35293Y46105D02*
D03*
X28765Y46105D02*
D03*
X29185Y60305D02*
D03*
X27025Y56685D02*
D03*
X291806Y55633D02*
D03*
X290180Y39078D02*
D03*
X291806Y59367D02*
D03*
X291781Y68959D02*
D03*
D122*
X124666Y130369D02*
D03*
X130000D02*
D03*
X135334D02*
D03*
X95334D02*
D03*
X90000D02*
D03*
X84666D02*
D03*
X184666D02*
D03*
X190000D02*
D03*
X195334D02*
D03*
X164666D02*
D03*
X170000D02*
D03*
X175334D02*
D03*
X44666D02*
D03*
X50000D02*
D03*
X55334D02*
D03*
X24666D02*
D03*
X30000D02*
D03*
X35334D02*
D03*
X64666D02*
D03*
X70000D02*
D03*
X75334D02*
D03*
X284666D02*
D03*
X290000D02*
D03*
X295334D02*
D03*
X264666D02*
D03*
X270000D02*
D03*
X275334D02*
D03*
X144666D02*
D03*
X150000D02*
D03*
X155334D02*
D03*
X224666D02*
D03*
X230000D02*
D03*
X235334D02*
D03*
X244666D02*
D03*
X250000D02*
D03*
X255334D02*
D03*
D123*
X25775Y65845D02*
D03*
Y68385D02*
D03*
Y70925D02*
D03*
Y73465D02*
D03*
X228024Y13500D02*
D03*
Y16040D02*
D03*
Y18580D02*
D03*
Y21120D02*
D03*
Y23660D02*
D03*
Y26200D02*
D03*
X235865Y26225D02*
D03*
Y23685D02*
D03*
Y21145D02*
D03*
Y18605D02*
D03*
Y16065D02*
D03*
Y13525D02*
D03*
X114300Y53870D02*
D03*
Y51330D02*
D03*
Y48790D02*
D03*
Y46250D02*
D03*
Y43710D02*
D03*
Y41170D02*
D03*
X46623Y71070D02*
D03*
X46548Y76145D02*
D03*
X60881Y71070D02*
D03*
X60806Y76145D02*
D03*
X262443Y70319D02*
D03*
X262368Y75394D02*
D03*
X248151Y70560D02*
D03*
X248076Y75635D02*
D03*
X162528Y70566D02*
D03*
X162453Y75641D02*
D03*
X292961Y46038D02*
D03*
Y48578D02*
D03*
Y51118D02*
D03*
Y43498D02*
D03*
X228279Y57970D02*
D03*
Y55430D02*
D03*
Y52890D02*
D03*
Y50350D02*
D03*
Y47810D02*
D03*
Y45270D02*
D03*
X236279Y57960D02*
D03*
Y55420D02*
D03*
Y52880D02*
D03*
Y50340D02*
D03*
Y47800D02*
D03*
Y45260D02*
D03*
X148377Y75780D02*
D03*
X148452Y70705D02*
D03*
D124*
X304405Y22505D02*
D03*
Y47495D02*
D03*
D125*
X302985Y34995D02*
D03*
Y32255D02*
D03*
Y29515D02*
D03*
Y37735D02*
D03*
Y40475D02*
D03*
X305825Y36365D02*
D03*
Y33625D02*
D03*
Y30885D02*
D03*
Y39105D02*
D03*
D126*
X202257Y45225D02*
D03*
X199717D02*
D03*
X197177D02*
D03*
X214662D02*
D03*
X217202D02*
D03*
X219742D02*
D03*
X193241Y45287D02*
D03*
X190701D02*
D03*
X188161D02*
D03*
X205992Y45225D02*
D03*
X208532D02*
D03*
X211072D02*
D03*
X184411Y45237D02*
D03*
X181871D02*
D03*
X179331D02*
D03*
X6564Y16963D02*
D03*
X11898D02*
D03*
Y34362D02*
D03*
X6564D02*
D03*
X173080Y7700D02*
D03*
X170540D02*
D03*
X168000D02*
D03*
X165460D02*
D03*
X162920D02*
D03*
X160380D02*
D03*
D127*
X195524Y15981D02*
D03*
Y20861D02*
D03*
D128*
X4150Y166175D02*
D03*
X9100D02*
D03*
X29450Y158225D02*
D03*
X34400D02*
D03*
X46445Y165059D02*
D03*
X51395D02*
D03*
X76135Y164983D02*
D03*
X71185D02*
D03*
X148869Y165004D02*
D03*
X143919D02*
D03*
X249058Y165034D02*
D03*
X244108D02*
D03*
X275869Y165059D02*
D03*
X270919D02*
D03*
X175971Y165004D02*
D03*
X171021D02*
D03*
D129*
X27250Y174540D02*
D03*
Y164634D02*
D03*
X17425Y174540D02*
D03*
Y164634D02*
D03*
X60000Y159638D02*
D03*
Y169544D02*
D03*
X37000Y164634D02*
D03*
Y174540D02*
D03*
X159893Y159638D02*
D03*
Y169544D02*
D03*
X259994Y159638D02*
D03*
Y169544D02*
D03*
D130*
X26390Y10725D02*
D03*
X21310D02*
D03*
D131*
X12000Y49539D02*
D03*
Y54619D02*
D03*
Y66539D02*
D03*
Y71619D02*
D03*
X309475Y59920D02*
D03*
Y65000D02*
D03*
Y70080D02*
D03*
Y84920D02*
D03*
Y90000D02*
D03*
Y95080D02*
D03*
D132*
X58801Y98029D02*
D03*
X38481D02*
D03*
X56261D02*
D03*
X48641D02*
D03*
X53721D02*
D03*
X46101D02*
D03*
X51181D02*
D03*
X43561D02*
D03*
X41021D02*
D03*
X61341D02*
D03*
X63881D02*
D03*
X66421D02*
D03*
X71501D02*
D03*
X81661D02*
D03*
X79121D02*
D03*
X68961D02*
D03*
X74041D02*
D03*
X76581D02*
D03*
X158394Y98010D02*
D03*
X138074D02*
D03*
X155854D02*
D03*
X148234D02*
D03*
X153314D02*
D03*
X145694D02*
D03*
X150774D02*
D03*
X143154D02*
D03*
X140614D02*
D03*
X160934D02*
D03*
X163474D02*
D03*
X166014D02*
D03*
X171094D02*
D03*
X181254D02*
D03*
X178714D02*
D03*
X168554D02*
D03*
X173634D02*
D03*
X176174D02*
D03*
X275692D02*
D03*
X273152D02*
D03*
X268072D02*
D03*
X278232D02*
D03*
X280772D02*
D03*
X270612D02*
D03*
X265532D02*
D03*
X262992D02*
D03*
X260452D02*
D03*
X240132D02*
D03*
X242672D02*
D03*
X250292D02*
D03*
X245212D02*
D03*
X252832D02*
D03*
X247752D02*
D03*
X255372D02*
D03*
X237592D02*
D03*
X257912D02*
D03*
D133*
X43562Y112544D02*
D03*
Y107464D02*
D03*
X37562Y112544D02*
D03*
Y107464D02*
D03*
X77277Y112592D02*
D03*
Y107512D02*
D03*
X83277Y112592D02*
D03*
Y107512D02*
D03*
X283380Y113506D02*
D03*
Y108426D02*
D03*
X277380Y113506D02*
D03*
Y108426D02*
D03*
X236888Y113430D02*
D03*
Y108350D02*
D03*
X242888Y113430D02*
D03*
Y108350D02*
D03*
X183094Y107808D02*
D03*
Y112888D02*
D03*
X177278Y107681D02*
D03*
Y112761D02*
D03*
X142545Y107808D02*
D03*
Y112888D02*
D03*
X137109Y107808D02*
D03*
Y112888D02*
D03*
D134*
X5875Y132700D02*
D03*
X22216Y59275D02*
D03*
X21566Y59264D02*
D03*
X22866Y59275D02*
D03*
X126484Y775D02*
D03*
X182350Y4180D02*
D03*
X181600Y4970D02*
D03*
X185800Y2425D02*
D03*
X183105Y3450D02*
D03*
X188025Y2425D02*
D03*
Y3450D02*
D03*
X184835Y8569D02*
D03*
X235099Y11630D02*
D03*
X235750D02*
D03*
X236400D02*
D03*
X32025Y119650D02*
D03*
X203407Y36515D02*
D03*
X129550Y29025D02*
D03*
X86404Y29775D02*
D03*
X83315Y28539D02*
D03*
X17343Y72509D02*
D03*
X16793Y73091D02*
D03*
X88396Y28539D02*
D03*
X301604Y64312D02*
D03*
X16191Y73649D02*
D03*
X81310Y31079D02*
D03*
X86867Y36579D02*
D03*
X111342Y37779D02*
D03*
X118800Y38509D02*
D03*
X139750Y35195D02*
D03*
X155825Y35400D02*
D03*
X198100Y35425D02*
D03*
X258002Y29278D02*
D03*
X258000Y31200D02*
D03*
X255275Y32375D02*
D03*
X173628Y12631D02*
D03*
X162150Y12915D02*
D03*
X174630Y12631D02*
D03*
X6925Y91125D02*
D03*
X9548Y78817D02*
D03*
X100245Y26800D02*
D03*
X205325Y29800D02*
D03*
X65836Y37926D02*
D03*
X164725Y21025D02*
D03*
X151775Y30275D02*
D03*
X155875Y28450D02*
D03*
X122775Y38775D02*
D03*
X117850Y39975D02*
D03*
X120000Y40975D02*
D03*
X200400Y30000D02*
D03*
Y18700D02*
D03*
X202395Y24357D02*
D03*
X212561Y27607D02*
D03*
X176175Y29299D02*
D03*
X66705Y35068D02*
D03*
X145625Y31925D02*
D03*
X184750Y19975D02*
D03*
X183851Y20705D02*
D03*
X184900Y29800D02*
D03*
X180351Y27568D02*
D03*
X171875Y28500D02*
D03*
X181468Y29299D02*
D03*
X178450Y29300D02*
D03*
X174775D02*
D03*
X118825Y14475D02*
D03*
X5724Y82922D02*
D03*
X313374Y42354D02*
D03*
X313424Y39677D02*
D03*
X297783Y15338D02*
D03*
X297758Y21338D02*
D03*
Y27363D02*
D03*
X269325Y32800D02*
D03*
X263212Y37683D02*
D03*
X262412D02*
D03*
X260837Y38688D02*
D03*
X269324Y33600D02*
D03*
X21894Y23338D02*
D03*
X40450Y43075D02*
D03*
X246218Y49700D02*
D03*
X219100Y16150D02*
D03*
X270700Y33800D02*
D03*
X275225Y32700D02*
D03*
X282095Y38300D02*
D03*
X244700Y39850D02*
D03*
X223625Y36400D02*
D03*
X219150Y36375D02*
D03*
X224750Y37500D02*
D03*
X227100Y38600D02*
D03*
X204391Y15071D02*
D03*
X147549Y19850D02*
D03*
X218050Y37525D02*
D03*
X178451Y16288D02*
D03*
X179238Y19975D02*
D03*
X193025Y38575D02*
D03*
X158700Y19245D02*
D03*
X210775Y17125D02*
D03*
X212355D02*
D03*
X204391Y16199D02*
D03*
X210760Y23375D02*
D03*
X189030Y11881D02*
D03*
X179741Y9132D02*
D03*
Y8100D02*
D03*
X176950Y6925D02*
D03*
X177972Y9746D02*
D03*
X180621Y5700D02*
D03*
X187000Y28125D02*
D03*
X187977Y28947D02*
D03*
X198500Y42925D02*
D03*
X199717Y40952D02*
D03*
X198500Y41800D02*
D03*
X181468Y27327D02*
D03*
X209490Y28975D02*
D03*
X116350Y38550D02*
D03*
X121425Y44800D02*
D03*
X147482Y25375D02*
D03*
X170575Y26850D02*
D03*
X168725Y21000D02*
D03*
X167600Y19625D02*
D03*
X160450Y40061D02*
D03*
X213325Y28475D02*
D03*
X174775Y24450D02*
D03*
X147482Y24132D02*
D03*
X163675Y20100D02*
D03*
X147516Y23066D02*
D03*
X147549Y21921D02*
D03*
X200400Y14050D02*
D03*
X163475Y16925D02*
D03*
X162200D02*
D03*
X147550Y20900D02*
D03*
X156756Y17450D02*
D03*
Y15631D02*
D03*
X161151Y16157D02*
D03*
X160125Y16150D02*
D03*
X158700Y16125D02*
D03*
X160225Y13050D02*
D03*
X157825Y11825D02*
D03*
X179507Y12980D02*
D03*
X179741Y16288D02*
D03*
X181375Y13742D02*
D03*
X181468Y25298D02*
D03*
Y26278D02*
D03*
X185351Y12631D02*
D03*
X186124Y14375D02*
D03*
X186502Y19238D02*
D03*
X185195Y15203D02*
D03*
X189958Y20608D02*
D03*
X191634Y22717D02*
D03*
X191964Y16332D02*
D03*
X193414Y18386D02*
D03*
X175100Y20400D02*
D03*
X147775Y31775D02*
D03*
X142521Y16602D02*
D03*
X142486Y15002D02*
D03*
Y13457D02*
D03*
X126251Y14267D02*
D03*
Y12577D02*
D03*
Y15886D02*
D03*
Y10932D02*
D03*
X126267Y7622D02*
D03*
X126251Y9322D02*
D03*
X142521Y5512D02*
D03*
X142521Y11827D02*
D03*
X142521Y10317D02*
D03*
X142556Y7008D02*
D03*
X142521Y8727D02*
D03*
X288776Y63982D02*
D03*
X285731Y65272D02*
D03*
X285176Y66982D02*
D03*
X17860Y23338D02*
D03*
X69000Y47075D02*
D03*
X66834Y44064D02*
D03*
X59504Y39114D02*
D03*
X267723Y42432D02*
D03*
X166760Y42170D02*
D03*
X282096Y53600D02*
D03*
X283303Y62712D02*
D03*
X284636Y57597D02*
D03*
X283308Y53600D02*
D03*
X284558Y59367D02*
D03*
X33565Y53975D02*
D03*
X298316Y66522D02*
D03*
X288446Y40368D02*
D03*
X280826D02*
D03*
X277651Y42508D02*
D03*
X279555Y37808D02*
D03*
X276541Y38261D02*
D03*
X283366Y39478D02*
D03*
D135*
X2075Y173350D02*
D03*
X3200Y172200D02*
D03*
X1775Y175000D02*
D03*
X5000Y171600D02*
D03*
D136*
X303976Y146272D02*
D03*
X302976D02*
D03*
X301976D02*
D03*
Y145237D02*
D03*
X302976D02*
D03*
X303976D02*
D03*
Y143205D02*
D03*
X302976D02*
D03*
X301976D02*
D03*
Y144240D02*
D03*
X302976D02*
D03*
X303976D02*
D03*
X300993Y144242D02*
D03*
X299993D02*
D03*
X298993D02*
D03*
Y143207D02*
D03*
X299993D02*
D03*
X300993D02*
D03*
Y145239D02*
D03*
X299993D02*
D03*
X298993D02*
D03*
Y146274D02*
D03*
X299993D02*
D03*
X300993D02*
D03*
X110475Y81811D02*
D03*
X109475D02*
D03*
X108475D02*
D03*
Y80775D02*
D03*
X110475D02*
D03*
X108475Y79779D02*
D03*
X109475D02*
D03*
Y80775D02*
D03*
X110475Y79779D02*
D03*
X94072Y46819D02*
D03*
X93072D02*
D03*
X92072D02*
D03*
X94072Y47816D02*
D03*
X93072D02*
D03*
X92072D02*
D03*
Y48852D02*
D03*
X93072D02*
D03*
X94072D02*
D03*
X210722Y78744D02*
D03*
X209722D02*
D03*
X208722D02*
D03*
X210722Y79741D02*
D03*
X209722D02*
D03*
X208722D02*
D03*
Y80776D02*
D03*
X209722D02*
D03*
X210722D02*
D03*
X165835Y66050D02*
D03*
X170448Y66051D02*
D03*
X38800Y32200D02*
D03*
X71625Y31775D02*
D03*
X103373Y15134D02*
D03*
X83225Y23000D02*
D03*
X58150Y25139D02*
D03*
X46700Y9500D02*
D03*
X239129Y52880D02*
D03*
X283350Y17100D02*
D03*
X104373Y15134D02*
D03*
X84273Y15084D02*
D03*
X85273D02*
D03*
X65623Y15209D02*
D03*
X66623D02*
D03*
X46134Y15189D02*
D03*
X47134D02*
D03*
X46198Y2584D02*
D03*
X47198D02*
D03*
X75123Y3134D02*
D03*
X76123D02*
D03*
X65573Y2584D02*
D03*
X66573D02*
D03*
X55848Y3109D02*
D03*
X56848D02*
D03*
X104993Y25769D02*
D03*
X64150Y22708D02*
D03*
X259657Y33818D02*
D03*
X158175Y33825D02*
D03*
X18130Y145875D02*
D03*
X17130D02*
D03*
X16130D02*
D03*
Y144839D02*
D03*
X17130D02*
D03*
X18130D02*
D03*
Y142807D02*
D03*
X17130D02*
D03*
X16130D02*
D03*
Y143843D02*
D03*
X17130D02*
D03*
X18130D02*
D03*
X21113Y143841D02*
D03*
X20113D02*
D03*
X19113D02*
D03*
Y142805D02*
D03*
X20113D02*
D03*
X21113D02*
D03*
Y144837D02*
D03*
X20113D02*
D03*
X19113D02*
D03*
Y145873D02*
D03*
X20113D02*
D03*
X21113D02*
D03*
X88975Y8960D02*
D03*
X100150Y20675D02*
D03*
X58150Y33825D02*
D03*
X52060Y11050D02*
D03*
X45150Y22300D02*
D03*
X71350Y11433D02*
D03*
X263012Y102305D02*
D03*
X260472Y102313D02*
D03*
X163474Y102321D02*
D03*
X160985Y102347D02*
D03*
X61341Y102321D02*
D03*
X63881D02*
D03*
X245161Y87081D02*
D03*
X145694Y86980D02*
D03*
X43586Y87818D02*
D03*
X58004Y46789D02*
D03*
X64329Y46739D02*
D03*
X50196Y80061D02*
D03*
X50286Y66561D02*
D03*
X53416Y63774D02*
D03*
X64836Y66811D02*
D03*
X68876Y66851D02*
D03*
X54406Y66571D02*
D03*
X64686Y80095D02*
D03*
X268748Y79690D02*
D03*
X270564Y66204D02*
D03*
X267489Y64354D02*
D03*
X265938Y66220D02*
D03*
X254337Y79674D02*
D03*
X256187Y66184D02*
D03*
X252127Y66204D02*
D03*
X265622Y46535D02*
D03*
X259221Y46479D02*
D03*
X155893Y65931D02*
D03*
X152193D02*
D03*
X104514Y161066D02*
D03*
X103514D02*
D03*
X102514D02*
D03*
X101514D02*
D03*
X100514D02*
D03*
X99514D02*
D03*
X98514D02*
D03*
X97514D02*
D03*
Y160030D02*
D03*
X98514D02*
D03*
X99514D02*
D03*
X100514D02*
D03*
X101514D02*
D03*
X102514D02*
D03*
X103514D02*
D03*
X104514D02*
D03*
Y162062D02*
D03*
X103514D02*
D03*
X102514D02*
D03*
X101514D02*
D03*
X100514D02*
D03*
X99514D02*
D03*
X98514D02*
D03*
X97514D02*
D03*
Y163098D02*
D03*
X98514D02*
D03*
X99514D02*
D03*
X100514D02*
D03*
X101514D02*
D03*
X102514D02*
D03*
X103514D02*
D03*
X104514D02*
D03*
X96513D02*
D03*
X95513D02*
D03*
X94513D02*
D03*
X93513D02*
D03*
X92513D02*
D03*
X91513D02*
D03*
X90513D02*
D03*
X89513D02*
D03*
Y162062D02*
D03*
X90513D02*
D03*
X91513D02*
D03*
X92513D02*
D03*
X93513D02*
D03*
X94513D02*
D03*
X95513D02*
D03*
X96513D02*
D03*
Y160030D02*
D03*
X95513D02*
D03*
X94513D02*
D03*
X93513D02*
D03*
X92513D02*
D03*
X91513D02*
D03*
X90513D02*
D03*
X89513D02*
D03*
Y161066D02*
D03*
X90513D02*
D03*
X91513D02*
D03*
X92513D02*
D03*
X93513D02*
D03*
X94513D02*
D03*
X95513D02*
D03*
X96513D02*
D03*
X158316Y46496D02*
D03*
X164628Y46525D02*
D03*
X154953Y79806D02*
D03*
X168573D02*
D03*
D137*
X110000Y175000D02*
D03*
X210000D02*
D03*
X5000Y175004D02*
D03*
X315000Y175000D02*
D03*
D138*
X26343Y34400D02*
D03*
D139*
X66075Y9910D02*
D03*
%TF.MD5,9aa5588573778c4063900249f397b735*%
M02*
