%TF.GenerationSoftware,Altium Limited,Altium Designer,24.7.2 (38)*%
G04 Layer_Color=128*
%FSLAX43Y43*%
%MOMM*%
%TF.SameCoordinates,3DDE4B3C-03A5-4BC3-9972-2EF5A5DF1AA7*%
%TF.FilePolarity,Positive*%
%TF.FileFunction,Paste,Bot*%
%TF.Part,Single*%
G01*
G75*
%TA.AperFunction,SMDPad,CuDef*%
%ADD15R,1.250X0.800*%
%ADD62R,0.800X1.250*%
%ADD63R,1.800X0.600*%
%ADD64R,1.450X1.800*%
%ADD65R,2.500X2.200*%
%ADD66R,1.350X0.950*%
%ADD67R,0.950X1.350*%
D15*
X187900Y52143D02*
D03*
Y50143D02*
D03*
X182750Y50075D02*
D03*
Y48075D02*
D03*
X179275D02*
D03*
Y50075D02*
D03*
X184729Y68288D02*
D03*
Y66288D02*
D03*
X187750Y71965D02*
D03*
Y69965D02*
D03*
X181275Y68300D02*
D03*
Y70300D02*
D03*
X182975D02*
D03*
Y68300D02*
D03*
X182752Y90200D02*
D03*
Y88200D02*
D03*
X187700Y111925D02*
D03*
Y109925D02*
D03*
X184678Y47977D02*
D03*
Y45977D02*
D03*
X179100Y88200D02*
D03*
Y90200D02*
D03*
X188000Y91965D02*
D03*
Y89965D02*
D03*
X184475Y88125D02*
D03*
Y86125D02*
D03*
X180975Y90200D02*
D03*
Y88200D02*
D03*
X181025Y50075D02*
D03*
Y48075D02*
D03*
X179500Y70300D02*
D03*
Y68300D02*
D03*
X179325Y108401D02*
D03*
Y110401D02*
D03*
X181008Y110401D02*
D03*
Y108401D02*
D03*
X182725Y110401D02*
D03*
Y108401D02*
D03*
X184426Y108333D02*
D03*
Y106333D02*
D03*
X80000Y210525D02*
D03*
Y208525D02*
D03*
X81775Y208525D02*
D03*
Y210525D02*
D03*
X22099Y198985D02*
D03*
Y196985D02*
D03*
X45550Y194175D02*
D03*
Y196175D02*
D03*
X38625Y198746D02*
D03*
Y196746D02*
D03*
X35175Y178875D02*
D03*
Y176875D02*
D03*
X26560Y182728D02*
D03*
Y180728D02*
D03*
D62*
X186300Y48095D02*
D03*
X188300D02*
D03*
X186325Y68095D02*
D03*
X188325D02*
D03*
X186000Y88095D02*
D03*
X188000D02*
D03*
X185938Y108095D02*
D03*
X187938D02*
D03*
X81775Y206975D02*
D03*
X83775D02*
D03*
X29010Y182490D02*
D03*
X31010D02*
D03*
X37120Y180650D02*
D03*
X35120D02*
D03*
X31010Y180640D02*
D03*
X29010D02*
D03*
D63*
X35900Y198955D02*
D03*
Y197685D02*
D03*
Y196415D02*
D03*
Y195145D02*
D03*
X25000D02*
D03*
Y196415D02*
D03*
Y197685D02*
D03*
Y198955D02*
D03*
D64*
X140250Y169000D02*
D03*
Y162450D02*
D03*
X137800Y169000D02*
D03*
Y162450D02*
D03*
X81775Y204000D02*
D03*
Y197450D02*
D03*
X79325Y204000D02*
D03*
Y197450D02*
D03*
X81775Y190964D02*
D03*
Y184414D02*
D03*
X79325Y190964D02*
D03*
Y184414D02*
D03*
X77346Y197514D02*
D03*
Y190964D02*
D03*
X74896Y197514D02*
D03*
Y190964D02*
D03*
X77400Y210525D02*
D03*
Y203975D02*
D03*
X74950Y210525D02*
D03*
Y203975D02*
D03*
X137666Y175517D02*
D03*
Y182067D02*
D03*
X140116Y175517D02*
D03*
Y182067D02*
D03*
X142275Y168975D02*
D03*
Y175525D02*
D03*
X144725Y168975D02*
D03*
Y175525D02*
D03*
D65*
X41975Y198450D02*
D03*
Y191550D02*
D03*
X18750Y199950D02*
D03*
Y193050D02*
D03*
D66*
X83775Y210525D02*
D03*
Y209025D02*
D03*
X33190Y182140D02*
D03*
Y180640D02*
D03*
D67*
X38973Y177200D02*
D03*
X37473D02*
D03*
%TF.MD5,008b287ff0acafa2f9f7f3c00e749eb7*%
M02*
