%TF.GenerationSoftware,Altium Limited,Altium Designer,24.7.2 (38)*%
G04 Layer_Color=65535*
%FSLAX43Y43*%
%MOMM*%
%TF.SameCoordinates,3DDE4B3C-03A5-4BC3-9972-2EF5A5DF1AA7*%
%TF.FilePolarity,Positive*%
%TF.FileFunction,Legend,Top*%
%TF.Part,Single*%
G01*
G75*
%TA.AperFunction,NonConductor*%
%ADD79C,0.250*%
%ADD80C,1.016*%
%ADD81C,0.200*%
%ADD82C,0.762*%
%ADD83C,0.254*%
%ADD95C,0.500*%
%ADD96C,1.000*%
%ADD97C,0.381*%
%ADD98R,3.650X1.850*%
D79*
X177525Y53105D02*
G03*
X177525Y53105I-125J0D01*
G01*
Y93330D02*
G03*
X177525Y93330I-125J0D01*
G01*
Y113481D02*
G03*
X177525Y113481I-125J0D01*
G01*
X177625Y73440D02*
G03*
X177625Y73440I-125J0D01*
G01*
X24095Y190826D02*
G03*
X24095Y190826I-125J0D01*
G01*
X138625Y171367D02*
G03*
X138625Y171367I-125J0D01*
G01*
D80*
X164707Y212363D02*
G03*
X164827Y212363I120J-18288D01*
G01*
X137395Y194075D02*
X145523D01*
D81*
X176975Y46585D02*
Y54545D01*
X171025D02*
X176975D01*
X171025Y46585D02*
Y54545D01*
Y46585D02*
X176975D01*
Y86810D02*
Y94770D01*
X171025D02*
X176975D01*
X171025Y86810D02*
Y94770D01*
Y86810D02*
X176975D01*
Y106961D02*
Y114921D01*
X171025D02*
X176975D01*
X171025Y106961D02*
Y114921D01*
Y106961D02*
X176975D01*
X177075Y66920D02*
Y74880D01*
X171125D02*
X177075D01*
X171125Y66920D02*
Y74880D01*
Y66920D02*
X177075D01*
X159230Y54650D02*
Y70675D01*
X153355D02*
X159230D01*
X153355Y54650D02*
X159230D01*
X153355D02*
Y70675D01*
X159230Y112370D02*
Y128395D01*
X153355D02*
X159230D01*
X153355Y112370D02*
X159230D01*
X153355D02*
Y128395D01*
X134275Y167500D02*
Y168100D01*
X134975D01*
X134275D02*
Y169400D01*
X133575Y168100D02*
X134275D01*
X133568Y168807D02*
X134982D01*
X134275Y168100D02*
X134982Y168807D01*
X133568D02*
X134275Y168100D01*
X132450Y161250D02*
X136125D01*
X132450D02*
Y175600D01*
X136125Y161250D02*
Y175600D01*
X132450D02*
X136125D01*
X137763Y167476D02*
Y170524D01*
Y167476D02*
X139287D01*
X137763Y170524D02*
X139287D01*
Y167476D02*
Y170524D01*
X24445Y196051D02*
X36295D01*
Y189801D02*
Y196051D01*
X24445Y189801D02*
X25410D01*
X27710D02*
X27950D01*
X30250D02*
X30490D01*
X32790D02*
X33030D01*
X35330D02*
X36295D01*
X24445D02*
Y196051D01*
X139200Y173392D02*
Y173642D01*
X137850Y173392D02*
Y173642D01*
X15865Y204050D02*
Y212675D01*
X28615Y204050D02*
Y212675D01*
X15865D02*
X28615D01*
X15865Y204050D02*
X28615D01*
X2625Y189850D02*
X11250D01*
X2625Y202600D02*
X11250D01*
X2625Y189850D02*
Y202600D01*
X11250Y189850D02*
Y202600D01*
X133800Y205150D02*
Y212500D01*
Y203500D02*
Y204450D01*
Y203500D02*
X143800D01*
X133800Y212500D02*
X143800D01*
Y210350D02*
Y212500D01*
Y203500D02*
Y209650D01*
X144400Y209400D02*
Y210600D01*
X143800Y210350D02*
X144400Y210600D01*
X143800Y209650D02*
X144400Y209400D01*
X133200Y204200D02*
X133800Y204450D01*
X133200Y204200D02*
Y205400D01*
X133800Y205150D01*
X153355Y83190D02*
Y99215D01*
Y83190D02*
X159230D01*
X153355Y99215D02*
X159230D01*
Y83190D02*
Y99215D01*
X2840Y113230D02*
Y129255D01*
Y113230D02*
X8715D01*
X2840Y129255D02*
X8715D01*
Y113230D02*
Y129255D01*
X2750Y55700D02*
Y71725D01*
Y55700D02*
X8625D01*
X2750Y71725D02*
X8625D01*
Y55700D02*
Y71725D01*
X2790Y83880D02*
Y99905D01*
Y83880D02*
X8665D01*
X2790Y99905D02*
X8665D01*
Y83880D02*
Y99905D01*
X17785Y200866D02*
X17619Y200700D01*
Y200367D01*
X17785Y200200D01*
X18452D01*
X18618Y200367D01*
Y200700D01*
X18452Y200866D01*
X18118D01*
Y200533D01*
X18618Y201200D02*
X17619D01*
X18618Y201866D01*
X17619D01*
Y202199D02*
X18618D01*
Y202699D01*
X18452Y202866D01*
X17785D01*
X17619Y202699D01*
Y202199D01*
X20001Y198386D02*
Y198053D01*
X20168Y197886D01*
X20834D01*
X21001Y198053D01*
Y198386D01*
X20834Y198553D01*
X20168D01*
X20001Y198386D01*
Y198886D02*
X20834D01*
X21001Y199053D01*
Y199386D01*
X20834Y199553D01*
X20001D01*
Y199886D02*
Y200552D01*
Y200219D01*
X21001D01*
X21168Y200885D02*
Y201552D01*
X21001Y201885D02*
X20001D01*
X21001Y202552D01*
X20001D01*
X21001Y202885D02*
Y203218D01*
Y203051D01*
X20001D01*
X20168Y202885D01*
X22894Y198386D02*
Y198053D01*
X23061Y197886D01*
X23727D01*
X23894Y198053D01*
Y198386D01*
X23727Y198553D01*
X23061D01*
X22894Y198386D01*
Y198886D02*
X23727D01*
X23894Y199053D01*
Y199386D01*
X23727Y199553D01*
X22894D01*
Y199886D02*
Y200552D01*
Y200219D01*
X23894D01*
X24061Y200885D02*
Y201552D01*
X23894Y201885D02*
X22894D01*
Y202385D01*
X23061Y202552D01*
X23394D01*
X23561Y202385D01*
Y201885D01*
X23894Y202885D02*
Y203218D01*
Y203051D01*
X22894D01*
X23061Y202885D01*
X25459Y201866D02*
Y201200D01*
X25958D01*
X25792Y201533D01*
Y201700D01*
X25958Y201866D01*
X26292D01*
X26458Y201700D01*
Y201367D01*
X26292Y201200D01*
X25459Y202200D02*
X26125D01*
X26458Y202533D01*
X26125Y202866D01*
X25459D01*
X12050Y197140D02*
Y197807D01*
X12383Y198140D01*
X12716Y197807D01*
Y197140D01*
Y197640D01*
X12050D01*
X13049Y198140D02*
Y197140D01*
X13549D01*
X13716Y197307D01*
Y197973D01*
X13549Y198140D01*
X13049D01*
X14716Y197973D02*
X14549Y198140D01*
X14216D01*
X14049Y197973D01*
Y197307D01*
X14216Y197140D01*
X14549D01*
X14716Y197307D01*
X15049Y197140D02*
X15382D01*
X15215D01*
Y198140D01*
X15049Y197973D01*
X12050Y194394D02*
Y195061D01*
X12383Y195394D01*
X12716Y195061D01*
Y194394D01*
Y194894D01*
X12050D01*
X13049Y195394D02*
Y194394D01*
X13549D01*
X13716Y194561D01*
Y195227D01*
X13549Y195394D01*
X13049D01*
X14716Y195227D02*
X14549Y195394D01*
X14216D01*
X14049Y195227D01*
Y194561D01*
X14216Y194394D01*
X14549D01*
X14716Y194561D01*
X15049Y194394D02*
X15382D01*
X15215D01*
Y195394D01*
X15049Y195227D01*
X12716Y200519D02*
X12050D01*
Y200019D01*
X12383Y200186D01*
X12550D01*
X12716Y200019D01*
Y199686D01*
X12550Y199519D01*
X12216D01*
X12050Y199686D01*
X13049Y200519D02*
Y199852D01*
X13383Y199519D01*
X13716Y199852D01*
Y200519D01*
X12716Y192673D02*
X12550Y192840D01*
X12216D01*
X12050Y192673D01*
Y192007D01*
X12216Y191840D01*
X12550D01*
X12716Y192007D01*
Y192340D01*
X12383D01*
X13049Y191840D02*
Y192840D01*
X13716Y191840D01*
Y192840D01*
X14049D02*
Y191840D01*
X14549D01*
X14716Y192007D01*
Y192673D01*
X14549Y192840D01*
X14049D01*
D82*
X208255Y50051D02*
X216688D01*
X208255Y40602D02*
Y50254D01*
Y50051D02*
Y59779D01*
Y70051D02*
X216688D01*
X208255Y60602D02*
Y70254D01*
Y70051D02*
Y79779D01*
Y90051D02*
X216688D01*
X208255Y80602D02*
Y90254D01*
Y90051D02*
Y99779D01*
Y110051D02*
X216688D01*
X208255Y100602D02*
Y110254D01*
Y110051D02*
Y119779D01*
X37131Y155975D02*
X46859D01*
X27682D02*
X37334D01*
X37131Y147542D02*
Y155975D01*
D83*
X188646Y50965D02*
X191339D01*
X188672Y49060D02*
X191339D01*
X208255Y50254D02*
X216891D01*
X188646Y70965D02*
X191339D01*
X188672Y69060D02*
X191339D01*
X208255Y70254D02*
X216891D01*
X188646Y90965D02*
X191339D01*
X188672Y89060D02*
X191339D01*
X208255Y90254D02*
X216891D01*
X188646Y110965D02*
X191339D01*
X188672Y109060D02*
X191339D01*
X208255Y110254D02*
X216891D01*
X37334Y147339D02*
Y155975D01*
X36140Y172891D02*
Y175558D01*
X38045Y172891D02*
Y175584D01*
X152734Y106610D02*
Y134550D01*
X137876Y106610D02*
Y134550D01*
X152734D01*
X137876Y106610D02*
X152734D01*
X106190Y139280D02*
Y206159D01*
X120719Y139280D02*
Y206159D01*
X106190Y139280D02*
X120719D01*
X106190Y206159D02*
X120719D01*
X54603Y139230D02*
Y206159D01*
X125977Y139230D02*
Y206159D01*
X54603Y139230D02*
X125977D01*
X54603Y206159D02*
X125977D01*
X48888Y139331D02*
Y206146D01*
X69970Y139331D02*
Y206146D01*
X48888Y139331D02*
X69970D01*
X48888Y206146D02*
X69970D01*
X54705Y206133D02*
Y206159D01*
X54933Y206133D02*
Y206159D01*
X54705Y206133D02*
X54933D01*
X54705Y206159D02*
X54933D01*
X120491Y205930D02*
X120770D01*
X120491D02*
X120770D01*
X136090Y189630D02*
Y192170D01*
X131264D02*
X133296D01*
X131010Y189630D02*
Y192170D01*
Y189630D02*
X136090D01*
X133296Y192170D02*
X136090D01*
X131010D02*
X131264D01*
X152734Y48857D02*
Y76797D01*
X137876Y48857D02*
Y76797D01*
X152734D01*
X137876Y48857D02*
X152734D01*
Y77860D02*
Y105800D01*
X137876Y77860D02*
Y105800D01*
X152734D01*
X137876Y77860D02*
X152734D01*
X24219Y107043D02*
Y134983D01*
X9361Y107043D02*
Y134983D01*
X24219D01*
X9361Y107043D02*
X24219D01*
X24250Y49277D02*
Y77217D01*
X9391Y49277D02*
Y77217D01*
X24250D01*
X9391Y49277D02*
X24250D01*
Y78140D02*
Y106080D01*
X9391Y78140D02*
Y106080D01*
X24250D01*
X9391Y78140D02*
X24250D01*
X136095Y213812D02*
X135929Y213979D01*
X135596D01*
X135429Y213812D01*
Y213146D01*
X135596Y212979D01*
X135929D01*
X136095Y213146D01*
Y213479D01*
X135762D01*
X136429Y212979D02*
Y213979D01*
X137095Y212979D01*
Y213979D01*
X137428D02*
Y212979D01*
X137928D01*
X138095Y213146D01*
Y213812D01*
X137928Y213979D01*
X137428D01*
X139428D02*
Y213312D01*
X139761Y212979D01*
X140094Y213312D01*
Y213979D01*
X141094Y213812D02*
X140927Y213979D01*
X140594D01*
X140427Y213812D01*
Y213146D01*
X140594Y212979D01*
X140927D01*
X141094Y213146D01*
X142094Y213812D02*
X141927Y213979D01*
X141594D01*
X141427Y213812D01*
Y213146D01*
X141594Y212979D01*
X141927D01*
X142094Y213146D01*
X171055Y55520D02*
Y56320D01*
X171455D01*
X171588Y56186D01*
Y55920D01*
X171455Y55787D01*
X171055D01*
X172255Y55520D02*
Y56320D01*
X171855Y55920D01*
X172388D01*
X171055Y95754D02*
Y96553D01*
X171455D01*
X171588Y96420D01*
Y96153D01*
X171455Y96020D01*
X171055D01*
X172388Y95754D02*
X171855D01*
X172388Y96287D01*
Y96420D01*
X172255Y96553D01*
X171988D01*
X171855Y96420D01*
X171055Y115896D02*
Y116696D01*
X171455D01*
X171588Y116562D01*
Y116296D01*
X171455Y116162D01*
X171055D01*
X171855Y115896D02*
X172121D01*
X171988D01*
Y116696D01*
X171855Y116562D01*
X171157Y75865D02*
Y76665D01*
X171556D01*
X171690Y76532D01*
Y76265D01*
X171556Y76132D01*
X171157D01*
X171956Y76532D02*
X172090Y76665D01*
X172356D01*
X172490Y76532D01*
Y76399D01*
X172356Y76265D01*
X172223D01*
X172356D01*
X172490Y76132D01*
Y75999D01*
X172356Y75865D01*
X172090D01*
X171956Y75999D01*
X183903Y44125D02*
X184436D01*
X184170D01*
Y43325D01*
X184703D02*
Y44125D01*
X185103D01*
X185236Y43992D01*
Y43725D01*
X185103Y43592D01*
X184703D01*
X185502Y43325D02*
X185769D01*
X185636D01*
Y44125D01*
X185502Y43992D01*
X186569Y43325D02*
Y44125D01*
X186169Y43725D01*
X186702D01*
X180251Y53422D02*
X180784D01*
X180517D01*
Y52623D01*
X181050D02*
Y53422D01*
X181450D01*
X181583Y53289D01*
Y53023D01*
X181450Y52889D01*
X181050D01*
X181850Y52623D02*
X182117D01*
X181983D01*
Y53422D01*
X181850Y53289D01*
X182516D02*
X182650Y53422D01*
X182916D01*
X183050Y53289D01*
Y53156D01*
X182916Y53023D01*
X182783D01*
X182916D01*
X183050Y52889D01*
Y52756D01*
X182916Y52623D01*
X182650D01*
X182516Y52756D01*
X178009Y57750D02*
X178542D01*
X178275D01*
Y56950D01*
X178808D02*
Y57750D01*
X179208D01*
X179342Y57617D01*
Y57350D01*
X179208Y57217D01*
X178808D01*
X179608Y56950D02*
X179875D01*
X179742D01*
Y57750D01*
X179608Y57617D01*
X180275Y56950D02*
X180541D01*
X180408D01*
Y57750D01*
X180275Y57617D01*
X183929Y64955D02*
X184462D01*
X184196D01*
Y64155D01*
X184729D02*
Y64955D01*
X185129D01*
X185262Y64822D01*
Y64555D01*
X185129Y64422D01*
X184729D01*
X185529Y64155D02*
X185795D01*
X185662D01*
Y64955D01*
X185529Y64822D01*
X186195D02*
X186328Y64955D01*
X186595D01*
X186728Y64822D01*
Y64289D01*
X186595Y64155D01*
X186328D01*
X186195Y64289D01*
Y64822D01*
X180971Y73875D02*
X181504D01*
X181237D01*
Y73075D01*
X181770D02*
Y73875D01*
X182170D01*
X182304Y73742D01*
Y73475D01*
X182170Y73342D01*
X181770D01*
X182570Y73208D02*
X182703Y73075D01*
X182970D01*
X183103Y73208D01*
Y73742D01*
X182970Y73875D01*
X182703D01*
X182570Y73742D01*
Y73608D01*
X182703Y73475D01*
X183103D01*
X178546Y77925D02*
X179079D01*
X178813D01*
Y77125D01*
X179346D02*
Y77925D01*
X179746D01*
X179879Y77792D01*
Y77525D01*
X179746Y77392D01*
X179346D01*
X180145Y77792D02*
X180279Y77925D01*
X180545D01*
X180679Y77792D01*
Y77658D01*
X180545Y77525D01*
X180679Y77392D01*
Y77258D01*
X180545Y77125D01*
X180279D01*
X180145Y77258D01*
Y77392D01*
X180279Y77525D01*
X180145Y77658D01*
Y77792D01*
X180279Y77525D02*
X180545D01*
X184034Y84350D02*
X184567D01*
X184300D01*
Y83550D01*
X184833D02*
Y84350D01*
X185233D01*
X185367Y84217D01*
Y83950D01*
X185233Y83817D01*
X184833D01*
X185633Y84350D02*
X186166D01*
Y84217D01*
X185633Y83684D01*
Y83550D01*
X183450Y95487D02*
X183983D01*
X183717D01*
Y94687D01*
X184250D02*
Y95487D01*
X184650D01*
X184783Y95353D01*
Y95087D01*
X184650Y94953D01*
X184250D01*
X185583Y95487D02*
X185316Y95353D01*
X185050Y95087D01*
Y94820D01*
X185183Y94687D01*
X185450D01*
X185583Y94820D01*
Y94953D01*
X185450Y95087D01*
X185050D01*
X178116Y97061D02*
X178649D01*
X178383D01*
Y96262D01*
X178916D02*
Y97061D01*
X179316D01*
X179449Y96928D01*
Y96661D01*
X179316Y96528D01*
X178916D01*
X180249Y97061D02*
X179716D01*
Y96661D01*
X179982Y96795D01*
X180116D01*
X180249Y96661D01*
Y96395D01*
X180116Y96262D01*
X179849D01*
X179716Y96395D01*
X183773Y104600D02*
X184306D01*
X184040D01*
Y103800D01*
X184573D02*
Y104600D01*
X184973D01*
X185106Y104467D01*
Y104200D01*
X184973Y104067D01*
X184573D01*
X185373Y104467D02*
X185506Y104600D01*
X185773D01*
X185906Y104467D01*
Y104333D01*
X185773Y104200D01*
X185639D01*
X185773D01*
X185906Y104067D01*
Y103933D01*
X185773Y103800D01*
X185506D01*
X185373Y103933D01*
X183409Y116675D02*
X183942D01*
X183675D01*
Y115875D01*
X184208D02*
Y116675D01*
X184608D01*
X184742Y116542D01*
Y116275D01*
X184608Y116142D01*
X184208D01*
X185541Y115875D02*
X185008D01*
X185541Y116408D01*
Y116542D01*
X185408Y116675D01*
X185141D01*
X185008Y116542D01*
X178269Y117432D02*
X178802D01*
X178535D01*
Y116632D01*
X179068D02*
Y117432D01*
X179468D01*
X179602Y117299D01*
Y117032D01*
X179468Y116899D01*
X179068D01*
X179868Y116632D02*
X180135D01*
X180001D01*
Y117432D01*
X179868Y117299D01*
X190159Y118475D02*
Y117808D01*
X190292Y117675D01*
X190558D01*
X190692Y117808D01*
Y118475D01*
X191491Y117675D02*
X190958D01*
X191491Y118208D01*
Y118342D01*
X191358Y118475D01*
X191092D01*
X190958Y118342D01*
X189909Y98600D02*
Y97933D01*
X190042Y97800D01*
X190308D01*
X190442Y97933D01*
Y98600D01*
X190708Y98467D02*
X190842Y98600D01*
X191108D01*
X191241Y98467D01*
Y98333D01*
X191108Y98200D01*
X190975D01*
X191108D01*
X191241Y98067D01*
Y97933D01*
X191108Y97800D01*
X190842D01*
X190708Y97933D01*
X189634Y78775D02*
Y78108D01*
X189767Y77975D01*
X190033D01*
X190167Y78108D01*
Y78775D01*
X190833Y77975D02*
Y78775D01*
X190433Y78375D01*
X190966D01*
X189709Y58475D02*
Y57808D01*
X189842Y57675D01*
X190108D01*
X190242Y57808D01*
Y58475D01*
X191041D02*
X190508D01*
Y58075D01*
X190775Y58208D01*
X190908D01*
X191041Y58075D01*
Y57808D01*
X190908Y57675D01*
X190642D01*
X190508Y57808D01*
X5492Y204320D02*
X6158Y203320D01*
Y204320D02*
X5492Y203320D01*
X7158D02*
X6492D01*
X7158Y203987D01*
Y204153D01*
X6991Y204320D01*
X6658D01*
X6492Y204153D01*
X13809Y209900D02*
X14475Y208900D01*
Y209900D02*
X13809Y208900D01*
X14808D02*
X15141D01*
X14975D01*
Y209900D01*
X14808Y209733D01*
X130800Y167484D02*
X131467D01*
X131800Y167817D01*
X131467Y168150D01*
X130800D01*
Y168483D02*
X131800D01*
Y168983D01*
X131633Y169150D01*
X130967D01*
X130800Y168983D01*
Y168483D01*
X131800Y169483D02*
Y169816D01*
Y169650D01*
X130800D01*
X130967Y169483D01*
X21441Y191326D02*
Y190493D01*
X21607Y190326D01*
X21941D01*
X22107Y190493D01*
Y191326D01*
X22441Y191159D02*
X22607Y191326D01*
X22940D01*
X23107Y191159D01*
Y190992D01*
X22940Y190826D01*
X23107Y190659D01*
Y190493D01*
X22940Y190326D01*
X22607D01*
X22441Y190493D01*
Y190659D01*
X22607Y190826D01*
X22441Y190992D01*
Y191159D01*
X22607Y190826D02*
X22940D01*
X41209Y174725D02*
Y173892D01*
X41375Y173725D01*
X41708D01*
X41875Y173892D01*
Y174725D01*
X42208Y173725D02*
X42541D01*
X42375D01*
Y174725D01*
X42208Y174558D01*
X127609Y211400D02*
X128275D01*
X127942D01*
Y210400D01*
X128609D02*
Y211400D01*
X129108D01*
X129275Y211233D01*
Y210900D01*
X129108Y210733D01*
X128609D01*
X129608Y211233D02*
X129775Y211400D01*
X130108D01*
X130275Y211233D01*
Y211067D01*
X130108Y210900D01*
X129941D01*
X130108D01*
X130275Y210733D01*
Y210567D01*
X130108Y210400D01*
X129775D01*
X129608Y210567D01*
X130608Y210400D02*
X130941D01*
X130775D01*
Y211400D01*
X130608Y211233D01*
X40292Y201475D02*
X40959D01*
X40625D01*
Y200475D01*
X41292D02*
Y201475D01*
X41792D01*
X41958Y201308D01*
Y200975D01*
X41792Y200808D01*
X41292D01*
X42958Y200475D02*
X42292D01*
X42958Y201142D01*
Y201308D01*
X42791Y201475D01*
X42458D01*
X42292Y201308D01*
X43291Y201475D02*
X43958D01*
Y201308D01*
X43291Y200642D01*
Y200475D01*
X26737Y180378D02*
X27403D01*
X27070D01*
Y179378D01*
X27736D02*
Y180378D01*
X28236D01*
X28403Y180211D01*
Y179878D01*
X28236Y179711D01*
X27736D01*
X28736Y179378D02*
X29069D01*
X28903D01*
Y180378D01*
X28736Y180211D01*
X29569Y179545D02*
X29736Y179378D01*
X30069D01*
X30235Y179545D01*
Y180211D01*
X30069Y180378D01*
X29736D01*
X29569Y180211D01*
Y180045D01*
X29736Y179878D01*
X30235D01*
X20982Y184007D02*
X21648D01*
X21315D01*
Y183007D01*
X21982D02*
Y184007D01*
X22481D01*
X22648Y183840D01*
Y183507D01*
X22481Y183340D01*
X21982D01*
X22981Y183007D02*
X23314D01*
X23148D01*
Y184007D01*
X22981Y183840D01*
X23814D02*
X23981Y184007D01*
X24314D01*
X24481Y183840D01*
Y183674D01*
X24314Y183507D01*
X24481Y183340D01*
Y183174D01*
X24314Y183007D01*
X23981D01*
X23814Y183174D01*
Y183340D01*
X23981Y183507D01*
X23814Y183674D01*
Y183840D01*
X23981Y183507D02*
X24314D01*
X85401Y211800D02*
X86067D01*
X85734D01*
Y210800D01*
X86400D02*
Y211800D01*
X86900D01*
X87067Y211633D01*
Y211300D01*
X86900Y211133D01*
X86400D01*
X87400Y210800D02*
X87733D01*
X87567D01*
Y211800D01*
X87400Y211633D01*
X88233Y211800D02*
X88899D01*
Y211633D01*
X88233Y210967D01*
Y210800D01*
X36576Y212525D02*
X37242D01*
X36909D01*
Y211525D01*
X37575D02*
Y212525D01*
X38075D01*
X38242Y212358D01*
Y212025D01*
X38075Y211858D01*
X37575D01*
X38575Y211525D02*
X38908D01*
X38742D01*
Y212525D01*
X38575Y212358D01*
X40074Y212525D02*
X39408D01*
Y212025D01*
X39741Y212192D01*
X39908D01*
X40074Y212025D01*
Y211692D01*
X39908Y211525D01*
X39575D01*
X39408Y211692D01*
X31920Y178775D02*
X32587D01*
X32254D01*
Y177775D01*
X32920D02*
Y178775D01*
X33420D01*
X33587Y178608D01*
Y178275D01*
X33420Y178108D01*
X32920D01*
X33920Y177775D02*
X34253D01*
X34086D01*
Y178775D01*
X33920Y178608D01*
X35419Y177775D02*
X34753D01*
X35419Y178442D01*
Y178608D01*
X35253Y178775D01*
X34919D01*
X34753Y178608D01*
X158965Y173410D02*
X159631D01*
X159298D01*
Y172411D01*
X159964D02*
Y173410D01*
X160464D01*
X160631Y173244D01*
Y172911D01*
X160464Y172744D01*
X159964D01*
X161464Y172411D02*
Y173410D01*
X160964Y172911D01*
X161630D01*
X140895Y167792D02*
X139896D01*
Y168292D01*
X140062Y168459D01*
X140395D01*
X140562Y168292D01*
Y167792D01*
Y168125D02*
X140895Y168459D01*
Y169292D02*
X139896D01*
X140395Y168792D01*
Y169458D01*
X140895Y170458D02*
Y169791D01*
X140229Y170458D01*
X140062D01*
X139896Y170291D01*
Y169958D01*
X140062Y169791D01*
X161155Y60627D02*
X160155D01*
Y61127D01*
X160322Y61294D01*
X160655D01*
X160822Y61127D01*
Y60627D01*
Y60960D02*
X161155Y61294D01*
X160322Y61627D02*
X160155Y61793D01*
Y62127D01*
X160322Y62293D01*
X160488D01*
X160655Y62127D01*
Y61960D01*
Y62127D01*
X160822Y62293D01*
X160988D01*
X161155Y62127D01*
Y61793D01*
X160988Y61627D01*
X160155Y63293D02*
Y62626D01*
X160655D01*
X160488Y62960D01*
Y63126D01*
X160655Y63293D01*
X160988D01*
X161155Y63126D01*
Y62793D01*
X160988Y62626D01*
X2240Y61807D02*
X1240D01*
Y62307D01*
X1407Y62474D01*
X1740D01*
X1907Y62307D01*
Y61807D01*
Y62140D02*
X2240Y62474D01*
X1407Y62807D02*
X1240Y62973D01*
Y63307D01*
X1407Y63473D01*
X1573D01*
X1740Y63307D01*
Y63140D01*
Y63307D01*
X1907Y63473D01*
X2073D01*
X2240Y63307D01*
Y62973D01*
X2073Y62807D01*
X2240Y64306D02*
X1240D01*
X1740Y63806D01*
Y64473D01*
X161335Y89317D02*
X160335D01*
Y89817D01*
X160502Y89984D01*
X160835D01*
X161002Y89817D01*
Y89317D01*
Y89650D02*
X161335Y89984D01*
Y90983D02*
Y90317D01*
X160668Y90983D01*
X160502D01*
X160335Y90817D01*
Y90483D01*
X160502Y90317D01*
Y91316D02*
X160335Y91483D01*
Y91816D01*
X160502Y91983D01*
X161168D01*
X161335Y91816D01*
Y91483D01*
X161168Y91316D01*
X160502D01*
X2130Y90610D02*
X1130D01*
Y91110D01*
X1297Y91277D01*
X1630D01*
X1797Y91110D01*
Y90610D01*
Y90944D02*
X2130Y91277D01*
Y91610D02*
Y91943D01*
Y91777D01*
X1130D01*
X1297Y91610D01*
X1963Y92443D02*
X2130Y92610D01*
Y92943D01*
X1963Y93110D01*
X1297D01*
X1130Y92943D01*
Y92610D01*
X1297Y92443D01*
X1463D01*
X1630Y92610D01*
Y93110D01*
X161245Y119140D02*
X160245D01*
Y119640D01*
X160412Y119807D01*
X160745D01*
X160912Y119640D01*
Y119140D01*
Y119474D02*
X161245Y119807D01*
Y120140D02*
Y120473D01*
Y120307D01*
X160245D01*
X160412Y120140D01*
X160245Y121640D02*
X160412Y121306D01*
X160745Y120973D01*
X161078D01*
X161245Y121140D01*
Y121473D01*
X161078Y121640D01*
X160912D01*
X160745Y121473D01*
Y120973D01*
X2020Y119310D02*
X1020D01*
Y119810D01*
X1187Y119977D01*
X1520D01*
X1687Y119810D01*
Y119310D01*
Y119644D02*
X2020Y119977D01*
Y120310D02*
Y120643D01*
Y120477D01*
X1020D01*
X1187Y120310D01*
X1020Y121810D02*
Y121143D01*
X1520D01*
X1353Y121476D01*
Y121643D01*
X1520Y121810D01*
X1853D01*
X2020Y121643D01*
Y121310D01*
X1853Y121143D01*
X184217Y194600D02*
Y193600D01*
X184883D01*
X185883D02*
X185217D01*
X185883Y194267D01*
Y194433D01*
X185716Y194600D01*
X185383D01*
X185217Y194433D01*
X48984Y207900D02*
Y206900D01*
X49650D01*
X49983D02*
X50316D01*
X50150D01*
Y207900D01*
X49983Y207733D01*
X145208Y207750D02*
X144875D01*
X145042D01*
Y206917D01*
X144875Y206750D01*
X144709D01*
X144542Y206917D01*
X145542Y207750D02*
X146208D01*
Y207583D01*
X145542Y206917D01*
Y206750D01*
X133258Y193800D02*
X132925D01*
X133092D01*
Y192967D01*
X132925Y192800D01*
X132759D01*
X132592Y192967D01*
X134258Y193800D02*
X133592D01*
Y193300D01*
X133925Y193467D01*
X134091D01*
X134258Y193300D01*
Y192967D01*
X134091Y192800D01*
X133758D01*
X133592Y192967D01*
X139713Y172684D02*
X140713D01*
Y173184D01*
X140546Y173350D01*
X139880D01*
X139713Y173184D01*
Y172684D01*
X140546Y173684D02*
X140713Y173850D01*
Y174183D01*
X140546Y174350D01*
X139880D01*
X139713Y174183D01*
Y173850D01*
X139880Y173684D01*
X140047D01*
X140213Y173850D01*
Y174350D01*
X149459Y75650D02*
X149292Y75817D01*
X148959D01*
X148792Y75650D01*
Y74984D01*
X148959Y74817D01*
X149292D01*
X149459Y74984D01*
X150458Y74817D02*
X149792D01*
X150458Y75484D01*
Y75650D01*
X150292Y75817D01*
X149958D01*
X149792Y75650D01*
X150791D02*
X150958Y75817D01*
X151291D01*
X151458Y75650D01*
Y74984D01*
X151291Y74817D01*
X150958D01*
X150791Y74984D01*
Y75650D01*
X10667Y76390D02*
X10500Y76557D01*
X10167D01*
X10000Y76390D01*
Y75724D01*
X10167Y75557D01*
X10500D01*
X10667Y75724D01*
X11000Y75557D02*
X11333D01*
X11167D01*
Y76557D01*
X11000Y76390D01*
X11833Y75724D02*
X12000Y75557D01*
X12333D01*
X12500Y75724D01*
Y76390D01*
X12333Y76557D01*
X12000D01*
X11833Y76390D01*
Y76224D01*
X12000Y76057D01*
X12500D01*
X103467Y55163D02*
X103300Y55330D01*
X102967D01*
X102800Y55163D01*
Y54497D01*
X102967Y54330D01*
X103300D01*
X103467Y54497D01*
X103800Y54330D02*
X104133D01*
X103967D01*
Y55330D01*
X103800Y55163D01*
X104633D02*
X104800Y55330D01*
X105133D01*
X105300Y55163D01*
Y54997D01*
X105133Y54830D01*
X105300Y54663D01*
Y54497D01*
X105133Y54330D01*
X104800D01*
X104633Y54497D01*
Y54663D01*
X104800Y54830D01*
X104633Y54997D01*
Y55163D01*
X104800Y54830D02*
X105133D01*
X27867Y55133D02*
X27700Y55300D01*
X27367D01*
X27200Y55133D01*
Y54467D01*
X27367Y54300D01*
X27700D01*
X27867Y54467D01*
X28200Y54300D02*
X28533D01*
X28367D01*
Y55300D01*
X28200Y55133D01*
X29033Y55300D02*
X29700D01*
Y55133D01*
X29033Y54467D01*
Y54300D01*
X66407Y55080D02*
X66240Y55247D01*
X65907D01*
X65740Y55080D01*
Y54414D01*
X65907Y54247D01*
X66240D01*
X66407Y54414D01*
X66740Y54247D02*
X67073D01*
X66907D01*
Y55247D01*
X66740Y55080D01*
X68240Y55247D02*
X67906Y55080D01*
X67573Y54747D01*
Y54414D01*
X67740Y54247D01*
X68073D01*
X68240Y54414D01*
Y54580D01*
X68073Y54747D01*
X67573D01*
X149382Y104933D02*
X149215Y105100D01*
X148882D01*
X148715Y104933D01*
Y104267D01*
X148882Y104100D01*
X149215D01*
X149382Y104267D01*
X149715Y104100D02*
X150048D01*
X149882D01*
Y105100D01*
X149715Y104933D01*
X151048Y104100D02*
Y105100D01*
X150548Y104600D01*
X151215D01*
X10447Y105233D02*
X10280Y105400D01*
X9947D01*
X9780Y105233D01*
Y104567D01*
X9947Y104400D01*
X10280D01*
X10447Y104567D01*
X10780Y104400D02*
X11113D01*
X10947D01*
Y105400D01*
X10780Y105233D01*
X11613D02*
X11780Y105400D01*
X12113D01*
X12280Y105233D01*
Y105067D01*
X12113Y104900D01*
X11946D01*
X12113D01*
X12280Y104733D01*
Y104567D01*
X12113Y104400D01*
X11780D01*
X11613Y104567D01*
X102807Y94123D02*
X102640Y94290D01*
X102307D01*
X102140Y94123D01*
Y93457D01*
X102307Y93290D01*
X102640D01*
X102807Y93457D01*
X103140Y93290D02*
X103473D01*
X103307D01*
Y94290D01*
X103140Y94123D01*
X104640Y93290D02*
X103973D01*
X104640Y93957D01*
Y94123D01*
X104473Y94290D01*
X104140D01*
X103973Y94123D01*
X27683Y94083D02*
X27517Y94250D01*
X27184D01*
X27017Y94083D01*
Y93417D01*
X27184Y93250D01*
X27517D01*
X27683Y93417D01*
X28017Y93250D02*
X28350D01*
X28183D01*
Y94250D01*
X28017Y94083D01*
X28850Y93250D02*
X29183D01*
X29016D01*
Y94250D01*
X28850Y94083D01*
X65627Y93683D02*
X65460Y93850D01*
X65127D01*
X64960Y93683D01*
Y93017D01*
X65127Y92850D01*
X65460D01*
X65627Y93017D01*
X65960Y92850D02*
X66293D01*
X66127D01*
Y93850D01*
X65960Y93683D01*
X66793D02*
X66960Y93850D01*
X67293D01*
X67460Y93683D01*
Y93017D01*
X67293Y92850D01*
X66960D01*
X66793Y93017D01*
Y93683D01*
X150758Y121033D02*
X150592Y121200D01*
X150259D01*
X150092Y121033D01*
Y120367D01*
X150259Y120200D01*
X150592D01*
X150758Y120367D01*
X151092Y121033D02*
X151258Y121200D01*
X151591D01*
X151758Y121033D01*
Y120867D01*
X151591Y120700D01*
X151758Y120533D01*
Y120367D01*
X151591Y120200D01*
X151258D01*
X151092Y120367D01*
Y120533D01*
X151258Y120700D01*
X151092Y120867D01*
Y121033D01*
X151258Y120700D02*
X151591D01*
X10463Y134176D02*
X10297Y134343D01*
X9964D01*
X9797Y134176D01*
Y133510D01*
X9964Y133343D01*
X10297D01*
X10463Y133510D01*
X10797Y134343D02*
X11463D01*
Y134176D01*
X10797Y133510D01*
Y133343D01*
X103823Y133433D02*
X103657Y133600D01*
X103324D01*
X103157Y133433D01*
Y132767D01*
X103324Y132600D01*
X103657D01*
X103823Y132767D01*
X104823Y133600D02*
X104490Y133433D01*
X104157Y133100D01*
Y132767D01*
X104323Y132600D01*
X104656D01*
X104823Y132767D01*
Y132933D01*
X104656Y133100D01*
X104157D01*
X27408Y132008D02*
X27242Y132175D01*
X26909D01*
X26742Y132008D01*
Y131342D01*
X26909Y131175D01*
X27242D01*
X27408Y131342D01*
X28408Y132175D02*
X27742D01*
Y131675D01*
X28075Y131842D01*
X28241D01*
X28408Y131675D01*
Y131342D01*
X28241Y131175D01*
X27908D01*
X27742Y131342D01*
X66603Y132873D02*
X66437Y133040D01*
X66104D01*
X65937Y132873D01*
Y132207D01*
X66104Y132040D01*
X66437D01*
X66603Y132207D01*
X67436Y132040D02*
Y133040D01*
X66937Y132540D01*
X67603D01*
D95*
X62000Y119241D02*
G03*
X62000Y119241I-18000J0D01*
G01*
X99710Y119180D02*
G03*
X99710Y119180I-18000J0D01*
G01*
X99590Y79700D02*
G03*
X99590Y79700I-18000J0D01*
G01*
Y40757D02*
G03*
X99590Y40757I-18000J0D01*
G01*
X136870Y119180D02*
G03*
X136870Y119180I-18000J0D01*
G01*
X136600Y79700D02*
G03*
X136600Y79700I-18000J0D01*
G01*
X136710Y40757D02*
G03*
X136710Y40757I-18000J0D01*
G01*
X61850Y40732D02*
G03*
X61850Y40732I-18000J0D01*
G01*
X62000Y79839D02*
G03*
X62000Y79839I-18000J0D01*
G01*
X153355Y54650D02*
X159230D01*
X153355Y70675D02*
X159230D01*
X153355Y54650D02*
Y70675D01*
X159230Y54650D02*
Y70675D01*
X153355Y112370D02*
X159230D01*
X153355Y128395D02*
X159230D01*
X153355Y112370D02*
Y128395D01*
X159230Y112370D02*
Y128395D01*
Y83190D02*
Y99215D01*
X153355Y83190D02*
Y99215D01*
X159230D01*
X153355Y83190D02*
X159230D01*
X8715Y113230D02*
Y129255D01*
X2840Y113230D02*
Y129255D01*
X8715D01*
X2840Y113230D02*
X8715D01*
X8625Y55700D02*
Y71725D01*
X2750Y55700D02*
Y71725D01*
X8625D01*
X2750Y55700D02*
X8625D01*
X8665Y83880D02*
Y99905D01*
X2790Y83880D02*
Y99905D01*
X8665D01*
X2790Y83880D02*
X8665D01*
D96*
X102500Y5000D02*
G03*
X102500Y5000I-2500J0D01*
G01*
Y210000D02*
G03*
X102500Y210000I-2500J0D01*
G01*
X32500Y100000D02*
G03*
X32500Y100000I-2500J0D01*
G01*
X102500Y60000D02*
G03*
X102500Y60000I-2500J0D01*
G01*
Y100000D02*
G03*
X102500Y100000I-2500J0D01*
G01*
X237500Y130000D02*
G03*
X237500Y130000I-2500J0D01*
G01*
Y5000D02*
G03*
X237500Y5000I-2500J0D01*
G01*
X7500D02*
G03*
X7500Y5000I-2500J0D01*
G01*
X237500Y210000D02*
G03*
X237500Y210000I-2500J0D01*
G01*
X7500D02*
G03*
X7500Y210000I-2500J0D01*
G01*
X219425Y203898D02*
Y200566D01*
X221091Y198900D01*
X222757Y200566D01*
Y203898D01*
X227756Y203065D02*
X226923Y203898D01*
X225256D01*
X224423Y203065D01*
Y199733D01*
X225256Y198900D01*
X226923D01*
X227756Y199733D01*
X232754Y203065D02*
X231921Y203898D01*
X230255D01*
X229422Y203065D01*
Y199733D01*
X230255Y198900D01*
X231921D01*
X232754Y199733D01*
X7525Y177998D02*
Y174666D01*
X9191Y173000D01*
X10857Y174666D01*
Y177998D01*
X15856Y177165D02*
X15023Y177998D01*
X13356D01*
X12523Y177165D01*
Y173833D01*
X13356Y173000D01*
X15023D01*
X15856Y173833D01*
X20854Y177165D02*
X20021Y177998D01*
X18355D01*
X17522Y177165D01*
Y173833D01*
X18355Y173000D01*
X20021D01*
X20854Y173833D01*
X16232Y9890D02*
X15399Y10723D01*
X13733D01*
X12900Y9890D01*
Y6558D01*
X13733Y5725D01*
X15399D01*
X16232Y6558D01*
Y8224D01*
X14566D01*
X17898Y5725D02*
Y10723D01*
X21231Y5725D01*
Y10723D01*
X22897D02*
Y5725D01*
X25396D01*
X26229Y6558D01*
Y9890D01*
X25396Y10723D01*
X22897D01*
D97*
X188595Y46977D02*
Y53023D01*
X191466Y46977D02*
Y53023D01*
X188595Y46977D02*
X191466D01*
X188595Y53023D02*
X191466D01*
X188595Y66977D02*
Y73023D01*
X191466Y66977D02*
Y73023D01*
X188595Y66977D02*
X191466D01*
X188595Y73023D02*
X191466D01*
X188595Y86977D02*
Y93023D01*
X191466Y86977D02*
Y93023D01*
X188595Y86977D02*
X191466D01*
X188595Y93023D02*
X191466D01*
X188595Y106977D02*
Y113023D01*
X191466Y106977D02*
Y113023D01*
X188595Y106977D02*
X191466D01*
X188595Y113023D02*
X191466D01*
X40103Y172764D02*
Y175635D01*
X34057Y172764D02*
Y175635D01*
Y172764D02*
X40103D01*
X34057Y175635D02*
X40103D01*
D98*
X134299Y164851D02*
D03*
%TF.MD5,6db30ddb91b7fc2b5d763d02349a3c88*%
M02*
