%TF.GenerationSoftware,Altium Limited,Altium Designer,24.7.2 (38)*%
G04 Layer_Color=8388736*
%FSLAX43Y43*%
%MOMM*%
%TF.SameCoordinates,3DDE4B3C-03A5-4BC3-9972-2EF5A5DF1AA7*%
%TF.FilePolarity,Positive*%
%TF.FileFunction,Other,Top_Assembly*%
%TF.Part,Single*%
G01*
G75*
%TA.AperFunction,NonConductor*%
%ADD81C,0.200*%
%ADD106C,0.100*%
%ADD107R,3.675X1.300*%
G36*
X30873Y193207D02*
Y193206D01*
Y193202D01*
Y193198D01*
Y193191D01*
X30872Y193183D01*
Y193174D01*
X30871Y193162D01*
X30870Y193151D01*
X30867Y193126D01*
X30864Y193100D01*
X30858Y193076D01*
X30854Y193064D01*
X30851Y193052D01*
Y193051D01*
X30850Y193050D01*
X30848Y193047D01*
X30846Y193043D01*
X30841Y193033D01*
X30832Y193020D01*
X30821Y193005D01*
X30808Y192990D01*
X30792Y192975D01*
X30771Y192961D01*
X30770D01*
X30768Y192959D01*
X30766Y192958D01*
X30761Y192955D01*
X30756Y192953D01*
X30748Y192950D01*
X30741Y192947D01*
X30731Y192943D01*
X30721Y192940D01*
X30710Y192937D01*
X30698Y192934D01*
X30684Y192931D01*
X30670Y192929D01*
X30656Y192928D01*
X30622Y192926D01*
X30614D01*
X30608Y192927D01*
X30600D01*
X30591Y192928D01*
X30581Y192929D01*
X30571Y192929D01*
X30548Y192933D01*
X30523Y192939D01*
X30499Y192946D01*
X30475Y192956D01*
X30474D01*
X30473Y192958D01*
X30470Y192960D01*
X30466Y192962D01*
X30456Y192969D01*
X30444Y192979D01*
X30430Y192992D01*
X30417Y193007D01*
X30404Y193026D01*
X30394Y193046D01*
Y193047D01*
X30393Y193049D01*
X30392Y193052D01*
X30390Y193057D01*
X30388Y193063D01*
X30387Y193070D01*
X30384Y193078D01*
X30382Y193088D01*
X30380Y193100D01*
X30377Y193112D01*
X30376Y193125D01*
X30374Y193138D01*
X30372Y193154D01*
X30371Y193171D01*
X30370Y193188D01*
Y193207D01*
Y193577D01*
X30455D01*
Y193207D01*
Y193206D01*
Y193203D01*
Y193198D01*
Y193193D01*
X30456Y193186D01*
Y193178D01*
X30457Y193161D01*
X30459Y193140D01*
X30462Y193120D01*
X30465Y193100D01*
X30467Y193092D01*
X30470Y193084D01*
X30471Y193082D01*
X30473Y193077D01*
X30477Y193071D01*
X30483Y193062D01*
X30489Y193052D01*
X30499Y193042D01*
X30510Y193032D01*
X30523Y193024D01*
X30524Y193023D01*
X30529Y193020D01*
X30537Y193017D01*
X30548Y193014D01*
X30561Y193009D01*
X30578Y193006D01*
X30596Y193003D01*
X30615Y193002D01*
X30624D01*
X30630Y193003D01*
X30638D01*
X30646Y193004D01*
X30667Y193008D01*
X30689Y193013D01*
X30710Y193020D01*
X30731Y193030D01*
X30740Y193037D01*
X30748Y193044D01*
X30749Y193045D01*
X30750Y193046D01*
X30752Y193049D01*
X30755Y193052D01*
X30757Y193058D01*
X30761Y193064D01*
X30765Y193072D01*
X30768Y193080D01*
X30772Y193090D01*
X30775Y193102D01*
X30779Y193116D01*
X30781Y193131D01*
X30784Y193148D01*
X30786Y193165D01*
X30788Y193186D01*
Y193207D01*
Y193577D01*
X30873D01*
Y193207D01*
D02*
G37*
G36*
X31204Y193578D02*
X31211Y193578D01*
X31220Y193577D01*
X31229Y193576D01*
X31238Y193573D01*
X31260Y193567D01*
X31283Y193559D01*
X31294Y193554D01*
X31305Y193547D01*
X31315Y193539D01*
X31325Y193530D01*
X31326Y193529D01*
X31327Y193529D01*
X31330Y193526D01*
X31333Y193522D01*
X31337Y193517D01*
X31342Y193511D01*
X31351Y193497D01*
X31360Y193480D01*
X31369Y193459D01*
X31375Y193436D01*
X31376Y193424D01*
X31377Y193411D01*
Y193410D01*
Y193409D01*
Y193404D01*
X31376Y193395D01*
X31374Y193385D01*
X31371Y193372D01*
X31367Y193359D01*
X31361Y193346D01*
X31353Y193333D01*
X31352Y193332D01*
X31348Y193328D01*
X31343Y193322D01*
X31335Y193315D01*
X31325Y193307D01*
X31313Y193298D01*
X31299Y193290D01*
X31283Y193283D01*
X31283D01*
X31285Y193282D01*
X31288Y193281D01*
X31292Y193279D01*
X31303Y193274D01*
X31316Y193268D01*
X31330Y193259D01*
X31344Y193248D01*
X31358Y193235D01*
X31371Y193221D01*
Y193220D01*
X31372Y193219D01*
X31376Y193213D01*
X31381Y193204D01*
X31387Y193192D01*
X31393Y193177D01*
X31398Y193160D01*
X31402Y193140D01*
X31403Y193119D01*
Y193118D01*
Y193115D01*
Y193111D01*
X31402Y193105D01*
X31401Y193099D01*
X31400Y193090D01*
X31398Y193081D01*
X31395Y193071D01*
X31389Y193050D01*
X31384Y193038D01*
X31378Y193027D01*
X31371Y193015D01*
X31364Y193003D01*
X31355Y192992D01*
X31344Y192981D01*
X31344Y192980D01*
X31342Y192978D01*
X31339Y192976D01*
X31334Y192973D01*
X31328Y192968D01*
X31321Y192964D01*
X31313Y192959D01*
X31304Y192953D01*
X31294Y192948D01*
X31282Y192943D01*
X31269Y192939D01*
X31256Y192934D01*
X31241Y192931D01*
X31225Y192929D01*
X31209Y192927D01*
X31192Y192926D01*
X31183D01*
X31176Y192927D01*
X31168Y192928D01*
X31159Y192929D01*
X31148Y192930D01*
X31137Y192933D01*
X31112Y192940D01*
X31099Y192944D01*
X31087Y192949D01*
X31074Y192955D01*
X31062Y192963D01*
X31050Y192971D01*
X31038Y192981D01*
X31038Y192982D01*
X31036Y192984D01*
X31033Y192987D01*
X31029Y192991D01*
X31025Y192997D01*
X31020Y193003D01*
X31015Y193011D01*
X31010Y193020D01*
X31004Y193029D01*
X31000Y193040D01*
X30990Y193064D01*
X30987Y193077D01*
X30984Y193091D01*
X30982Y193106D01*
X30981Y193121D01*
Y193122D01*
Y193124D01*
Y193127D01*
X30982Y193131D01*
Y193137D01*
X30983Y193143D01*
X30985Y193158D01*
X30989Y193174D01*
X30994Y193191D01*
X31002Y193209D01*
X31013Y193225D01*
Y193226D01*
X31014Y193227D01*
X31018Y193232D01*
X31025Y193239D01*
X31036Y193248D01*
X31049Y193258D01*
X31064Y193268D01*
X31082Y193276D01*
X31103Y193283D01*
X31102D01*
X31101Y193284D01*
X31099Y193284D01*
X31095Y193286D01*
X31087Y193290D01*
X31075Y193296D01*
X31063Y193303D01*
X31051Y193312D01*
X31040Y193322D01*
X31030Y193333D01*
X31029Y193335D01*
X31026Y193339D01*
X31023Y193346D01*
X31019Y193356D01*
X31014Y193368D01*
X31011Y193382D01*
X31008Y193397D01*
X31007Y193414D01*
Y193415D01*
Y193417D01*
Y193420D01*
X31008Y193426D01*
X31009Y193431D01*
X31010Y193439D01*
X31013Y193455D01*
X31019Y193473D01*
X31028Y193492D01*
X31034Y193503D01*
X31040Y193513D01*
X31049Y193522D01*
X31057Y193531D01*
X31058Y193532D01*
X31060Y193533D01*
X31062Y193536D01*
X31066Y193539D01*
X31071Y193542D01*
X31077Y193546D01*
X31085Y193551D01*
X31092Y193555D01*
X31101Y193560D01*
X31111Y193565D01*
X31123Y193568D01*
X31135Y193572D01*
X31160Y193578D01*
X31175Y193578D01*
X31190Y193579D01*
X31198D01*
X31204Y193578D01*
D02*
G37*
%LPC*%
G36*
X31192Y193515D02*
X31185D01*
X31176Y193513D01*
X31165Y193511D01*
X31153Y193507D01*
X31140Y193503D01*
X31128Y193495D01*
X31116Y193485D01*
X31115Y193484D01*
X31111Y193480D01*
X31107Y193474D01*
X31102Y193466D01*
X31097Y193456D01*
X31092Y193443D01*
X31088Y193431D01*
X31087Y193416D01*
Y193415D01*
Y193414D01*
X31088Y193408D01*
X31089Y193400D01*
X31091Y193390D01*
X31095Y193378D01*
X31099Y193366D01*
X31107Y193353D01*
X31116Y193342D01*
X31117Y193341D01*
X31122Y193337D01*
X31128Y193333D01*
X31136Y193328D01*
X31148Y193322D01*
X31160Y193318D01*
X31175Y193314D01*
X31192Y193313D01*
X31194D01*
X31199Y193314D01*
X31208Y193315D01*
X31219Y193317D01*
X31231Y193321D01*
X31243Y193325D01*
X31256Y193333D01*
X31267Y193342D01*
X31268Y193343D01*
X31271Y193347D01*
X31276Y193353D01*
X31282Y193361D01*
X31287Y193371D01*
X31292Y193383D01*
X31295Y193397D01*
X31296Y193412D01*
Y193413D01*
Y193414D01*
Y193419D01*
X31295Y193428D01*
X31293Y193438D01*
X31289Y193449D01*
X31283Y193461D01*
X31276Y193473D01*
X31266Y193485D01*
X31265Y193486D01*
X31260Y193490D01*
X31254Y193494D01*
X31246Y193500D01*
X31234Y193505D01*
X31222Y193510D01*
X31208Y193514D01*
X31192Y193515D01*
D02*
G37*
G36*
X31189Y193249D02*
X31184D01*
X31180Y193248D01*
X31170Y193247D01*
X31157Y193245D01*
X31142Y193240D01*
X31127Y193234D01*
X31111Y193224D01*
X31098Y193212D01*
X31096Y193211D01*
X31092Y193206D01*
X31087Y193198D01*
X31080Y193187D01*
X31073Y193174D01*
X31067Y193158D01*
X31063Y193140D01*
X31062Y193121D01*
Y193119D01*
Y193115D01*
X31062Y193109D01*
X31063Y193100D01*
X31065Y193090D01*
X31068Y193079D01*
X31072Y193068D01*
X31076Y193056D01*
X31077Y193055D01*
X31079Y193051D01*
X31083Y193045D01*
X31088Y193039D01*
X31095Y193030D01*
X31103Y193022D01*
X31112Y193015D01*
X31124Y193007D01*
X31125Y193006D01*
X31129Y193004D01*
X31136Y193002D01*
X31144Y192999D01*
X31154Y192996D01*
X31166Y192993D01*
X31179Y192991D01*
X31192Y192990D01*
X31197D01*
X31201Y192991D01*
X31212Y192992D01*
X31225Y192995D01*
X31240Y193000D01*
X31256Y193005D01*
X31271Y193015D01*
X31285Y193027D01*
X31287Y193028D01*
X31291Y193033D01*
X31297Y193041D01*
X31304Y193051D01*
X31310Y193064D01*
X31317Y193080D01*
X31320Y193099D01*
X31322Y193118D01*
Y193119D01*
Y193121D01*
Y193124D01*
X31321Y193127D01*
X31320Y193137D01*
X31318Y193151D01*
X31313Y193165D01*
X31307Y193181D01*
X31297Y193197D01*
X31284Y193211D01*
X31283Y193213D01*
X31278Y193217D01*
X31270Y193223D01*
X31258Y193231D01*
X31245Y193237D01*
X31228Y193244D01*
X31209Y193247D01*
X31189Y193249D01*
D02*
G37*
%LPD*%
D81*
X24345Y196151D02*
X36395D01*
Y189701D02*
Y196151D01*
X24345Y189701D02*
X36395D01*
X24345D02*
Y196151D01*
D106*
X187138Y49619D02*
Y52667D01*
X188662Y49619D02*
Y52667D01*
X187138D02*
X188662D01*
X187138Y49619D02*
X188662D01*
X183966Y65764D02*
Y68812D01*
X185490Y65764D02*
Y68812D01*
X183966D02*
X185490D01*
X183966Y65764D02*
X185490D01*
X186988Y69441D02*
Y72489D01*
X188512Y69441D02*
Y72489D01*
X186988D02*
X188512D01*
X186988Y69441D02*
X188512D01*
X186938Y109401D02*
Y112449D01*
X188462Y109401D02*
Y112449D01*
X186938D02*
X188462D01*
X186938Y109401D02*
X188462D01*
X183915Y45453D02*
Y48501D01*
X185439Y45453D02*
Y48501D01*
X183915D02*
X185439D01*
X183915Y45453D02*
X185439D01*
X187238Y89441D02*
Y92489D01*
X188762Y89441D02*
Y92489D01*
X187238D02*
X188762D01*
X187238Y89441D02*
X188762D01*
X183713Y85601D02*
Y88649D01*
X185237Y85601D02*
Y88649D01*
X183713D02*
X185237D01*
X183713Y85601D02*
X185237D01*
X180213Y87676D02*
Y90724D01*
X181737Y87676D02*
Y90724D01*
X180213D02*
X181737D01*
X180213Y87676D02*
X181737D01*
X180263Y47551D02*
Y50599D01*
X181787Y47551D02*
Y50599D01*
X180263D02*
X181787D01*
X180263Y47551D02*
X181787D01*
X178738Y67776D02*
Y70824D01*
X180262Y67776D02*
Y70824D01*
X178738D02*
X180262D01*
X178738Y67776D02*
X180262D01*
X180246Y107877D02*
Y110925D01*
X181770Y107877D02*
Y110925D01*
X180246D02*
X181770D01*
X180246Y107877D02*
X181770D01*
X183664Y105809D02*
Y108857D01*
X185188Y105809D02*
Y108857D01*
X183664D02*
X185188D01*
X183664Y105809D02*
X185188D01*
X157067Y61026D02*
Y64074D01*
X155543Y61026D02*
Y64074D01*
X157067D01*
X155543Y61026D02*
X157067D01*
Y118746D02*
Y121794D01*
X155543Y118746D02*
Y121794D01*
X157067D01*
X155543Y118746D02*
X157067D01*
X132450Y161250D02*
Y175600D01*
X133538D01*
X135038D02*
X136125D01*
X133538D02*
X135038D01*
X136125Y161250D02*
Y175600D01*
X132450Y161250D02*
X136125D01*
X137763Y167476D02*
Y170524D01*
X139287Y167476D02*
Y170524D01*
X137763Y167476D02*
X139287D01*
X137763Y170524D02*
X139287D01*
X79238Y211049D02*
X80762D01*
X79238Y208001D02*
X80762D01*
X79238D02*
Y211049D01*
X80762Y208001D02*
Y211049D01*
X21338Y199509D02*
X22862D01*
X21338Y196461D02*
X22862D01*
X21338D02*
Y199509D01*
X22862Y196461D02*
Y199509D01*
X44788Y193651D02*
X46312D01*
X44788Y196699D02*
X46312D01*
Y193651D02*
Y196699D01*
X44788Y193651D02*
Y196699D01*
X37863Y199270D02*
X39387D01*
X37863Y196222D02*
X39387D01*
X37863D02*
Y199270D01*
X39387Y196222D02*
Y199270D01*
X25798Y183252D02*
X27322D01*
X25798Y180204D02*
X27322D01*
X25798D02*
Y183252D01*
X27322Y180204D02*
Y183252D01*
X155543Y89566D02*
X157067D01*
X155543Y92614D02*
X157067D01*
X155543Y89566D02*
Y92614D01*
X157067Y89566D02*
Y92614D01*
X5028Y119606D02*
X6552D01*
X5028Y122654D02*
X6552D01*
X5028Y119606D02*
Y122654D01*
X6552Y119606D02*
Y122654D01*
X4938Y62076D02*
X6462D01*
X4938Y65124D02*
X6462D01*
X4938Y62076D02*
Y65124D01*
X6462Y62076D02*
Y65124D01*
X4978Y90256D02*
X6502D01*
X4978Y93304D02*
X6502D01*
X4978Y90256D02*
Y93304D01*
X6502Y90256D02*
Y93304D01*
X188133Y50635D02*
X188250Y50518D01*
Y50285D01*
X188133Y50168D01*
X187667D01*
X187550Y50285D01*
Y50518D01*
X187667Y50635D01*
X188133Y50868D02*
X188250Y50984D01*
Y51218D01*
X188133Y51334D01*
X188016D01*
X187900Y51218D01*
Y51101D01*
Y51218D01*
X187783Y51334D01*
X187667D01*
X187550Y51218D01*
Y50984D01*
X187667Y50868D01*
X188133Y51568D02*
X188250Y51684D01*
Y51917D01*
X188133Y52034D01*
X188016D01*
X187900Y51917D01*
Y51801D01*
Y51917D01*
X187783Y52034D01*
X187667D01*
X187550Y51917D01*
Y51684D01*
X187667Y51568D01*
X184962Y66780D02*
X185078Y66663D01*
Y66430D01*
X184962Y66313D01*
X184495D01*
X184378Y66430D01*
Y66663D01*
X184495Y66780D01*
X184378Y67479D02*
Y67013D01*
X184845Y67479D01*
X184962D01*
X185078Y67363D01*
Y67129D01*
X184962Y67013D01*
X184495Y67713D02*
X184378Y67829D01*
Y68062D01*
X184495Y68179D01*
X184962D01*
X185078Y68062D01*
Y67829D01*
X184962Y67713D01*
X184845D01*
X184728Y67829D01*
Y68179D01*
X187983Y70457D02*
X188100Y70340D01*
Y70107D01*
X187983Y69990D01*
X187517D01*
X187400Y70107D01*
Y70340D01*
X187517Y70457D01*
X187400Y71156D02*
Y70690D01*
X187867Y71156D01*
X187983D01*
X188100Y71040D01*
Y70807D01*
X187983Y70690D01*
X188100Y71390D02*
Y71856D01*
X187983D01*
X187517Y71390D01*
X187400D01*
X187933Y110417D02*
X188050Y110300D01*
Y110067D01*
X187933Y109950D01*
X187467D01*
X187350Y110067D01*
Y110300D01*
X187467Y110417D01*
X187350Y110650D02*
Y110883D01*
Y110766D01*
X188050D01*
X187933Y110650D01*
X184911Y46469D02*
X185027Y46352D01*
Y46119D01*
X184911Y46002D01*
X184444D01*
X184327Y46119D01*
Y46352D01*
X184444Y46469D01*
X184911Y46702D02*
X185027Y46819D01*
Y47052D01*
X184911Y47169D01*
X184794D01*
X184677Y47052D01*
Y46935D01*
Y47052D01*
X184561Y47169D01*
X184444D01*
X184327Y47052D01*
Y46819D01*
X184444Y46702D01*
X185027Y47868D02*
X184911Y47635D01*
X184677Y47402D01*
X184444D01*
X184327Y47519D01*
Y47752D01*
X184444Y47868D01*
X184561D01*
X184677Y47752D01*
Y47402D01*
X188233Y90457D02*
X188350Y90340D01*
Y90107D01*
X188233Y89990D01*
X187767D01*
X187650Y90107D01*
Y90340D01*
X187767Y90457D01*
Y90690D02*
X187650Y90807D01*
Y91040D01*
X187767Y91156D01*
X188233D01*
X188350Y91040D01*
Y90807D01*
X188233Y90690D01*
X188117D01*
X188000Y90807D01*
Y91156D01*
X184708Y86617D02*
X184825Y86500D01*
Y86267D01*
X184708Y86150D01*
X184241D01*
X184125Y86267D01*
Y86500D01*
X184241Y86617D01*
X184125Y87316D02*
Y86850D01*
X184591Y87316D01*
X184708D01*
X184825Y87200D01*
Y86966D01*
X184708Y86850D01*
X184825Y88016D02*
X184708Y87783D01*
X184475Y87550D01*
X184241D01*
X184125Y87666D01*
Y87899D01*
X184241Y88016D01*
X184358D01*
X184475Y87899D01*
Y87550D01*
X181208Y88692D02*
X181325Y88575D01*
Y88342D01*
X181208Y88225D01*
X180742D01*
X180625Y88342D01*
Y88575D01*
X180742Y88692D01*
X180625Y89391D02*
Y88925D01*
X181092Y89391D01*
X181208D01*
X181325Y89275D01*
Y89041D01*
X181208Y88925D01*
X181325Y90091D02*
Y89625D01*
X180975D01*
X181092Y89858D01*
Y89974D01*
X180975Y90091D01*
X180742D01*
X180625Y89974D01*
Y89741D01*
X180742Y89625D01*
X181258Y48567D02*
X181375Y48450D01*
Y48217D01*
X181258Y48100D01*
X180792D01*
X180675Y48217D01*
Y48450D01*
X180792Y48567D01*
X181258Y48800D02*
X181375Y48916D01*
Y49150D01*
X181258Y49266D01*
X181142D01*
X181025Y49150D01*
Y49033D01*
Y49150D01*
X180908Y49266D01*
X180792D01*
X180675Y49150D01*
Y48916D01*
X180792Y48800D01*
X180675Y49849D02*
X181375D01*
X181025Y49500D01*
Y49966D01*
X179733Y68792D02*
X179850Y68675D01*
Y68442D01*
X179733Y68325D01*
X179267D01*
X179150Y68442D01*
Y68675D01*
X179267Y68792D01*
X179150Y69491D02*
Y69025D01*
X179617Y69491D01*
X179733D01*
X179850Y69375D01*
Y69141D01*
X179733Y69025D01*
Y69725D02*
X179850Y69841D01*
Y70074D01*
X179733Y70191D01*
X179617D01*
X179500Y70074D01*
X179383Y70191D01*
X179267D01*
X179150Y70074D01*
Y69841D01*
X179267Y69725D01*
X179383D01*
X179500Y69841D01*
X179617Y69725D01*
X179733D01*
X179500Y69841D02*
Y70074D01*
X181241Y108893D02*
X181358Y108776D01*
Y108543D01*
X181241Y108426D01*
X180774D01*
X180658Y108543D01*
Y108776D01*
X180774Y108893D01*
X180658Y109592D02*
Y109126D01*
X181124Y109592D01*
X181241D01*
X181358Y109476D01*
Y109242D01*
X181241Y109126D01*
X184659Y106825D02*
X184776Y106708D01*
Y106475D01*
X184659Y106358D01*
X184193D01*
X184076Y106475D01*
Y106708D01*
X184193Y106825D01*
X184659Y107058D02*
X184776Y107174D01*
Y107408D01*
X184659Y107524D01*
X184543D01*
X184426Y107408D01*
Y107291D01*
Y107408D01*
X184310Y107524D01*
X184193D01*
X184076Y107408D01*
Y107174D01*
X184193Y107058D01*
X156655Y61575D02*
X155955D01*
Y61925D01*
X156072Y62042D01*
X156305D01*
X156422Y61925D01*
Y61575D01*
Y61808D02*
X156655Y62042D01*
X156072Y62275D02*
X155955Y62391D01*
Y62625D01*
X156072Y62741D01*
X156188D01*
X156305Y62625D01*
Y62508D01*
Y62625D01*
X156422Y62741D01*
X156538D01*
X156655Y62625D01*
Y62391D01*
X156538Y62275D01*
X155955Y63441D02*
Y62975D01*
X156305D01*
X156188Y63208D01*
Y63324D01*
X156305Y63441D01*
X156538D01*
X156655Y63324D01*
Y63091D01*
X156538Y62975D01*
X156655Y119295D02*
X155955D01*
Y119645D01*
X156072Y119762D01*
X156305D01*
X156422Y119645D01*
Y119295D01*
Y119528D02*
X156655Y119762D01*
Y119995D02*
Y120228D01*
Y120111D01*
X155955D01*
X156072Y119995D01*
X155955Y121044D02*
X156072Y120811D01*
X156305Y120578D01*
X156538D01*
X156655Y120695D01*
Y120928D01*
X156538Y121044D01*
X156422D01*
X156305Y120928D01*
Y120578D01*
X133925Y167500D02*
X134392D01*
X134625Y167733D01*
X134392Y167967D01*
X133925D01*
Y168200D02*
X134625D01*
Y168550D01*
X134508Y168666D01*
X134042D01*
X133925Y168550D01*
Y168200D01*
X134625Y168900D02*
Y169133D01*
Y169016D01*
X133925D01*
X134042Y168900D01*
X138175Y169975D02*
X138875D01*
Y169625D01*
X138758Y169508D01*
X138525D01*
X138408Y169625D01*
Y169975D01*
Y169742D02*
X138175Y169508D01*
Y168925D02*
X138875D01*
X138525Y169275D01*
Y168809D01*
X138175Y168109D02*
Y168575D01*
X138642Y168109D01*
X138758D01*
X138875Y168226D01*
Y168459D01*
X138758Y168575D01*
X79767Y210033D02*
X79650Y210150D01*
Y210383D01*
X79767Y210500D01*
X80233D01*
X80350Y210383D01*
Y210150D01*
X80233Y210033D01*
X80350Y209334D02*
Y209800D01*
X79883Y209334D01*
X79767D01*
X79650Y209450D01*
Y209684D01*
X79767Y209800D01*
Y209100D02*
X79650Y208984D01*
Y208751D01*
X79767Y208634D01*
X79883D01*
X80000Y208751D01*
Y208867D01*
Y208751D01*
X80117Y208634D01*
X80233D01*
X80350Y208751D01*
Y208984D01*
X80233Y209100D01*
X21866Y198493D02*
X21750Y198610D01*
Y198843D01*
X21866Y198960D01*
X22333D01*
X22450Y198843D01*
Y198610D01*
X22333Y198493D01*
X21866Y198260D02*
X21750Y198144D01*
Y197910D01*
X21866Y197794D01*
X21983D01*
X22100Y197910D01*
Y198027D01*
Y197910D01*
X22216Y197794D01*
X22333D01*
X22450Y197910D01*
Y198144D01*
X22333Y198260D01*
X21866Y197560D02*
X21750Y197444D01*
Y197211D01*
X21866Y197094D01*
X22333D01*
X22450Y197211D01*
Y197444D01*
X22333Y197560D01*
X21866D01*
X45783Y194667D02*
X45900Y194550D01*
Y194317D01*
X45783Y194200D01*
X45317D01*
X45200Y194317D01*
Y194550D01*
X45317Y194667D01*
X45783Y194900D02*
X45900Y195016D01*
Y195250D01*
X45783Y195366D01*
X45667D01*
X45550Y195250D01*
Y195133D01*
Y195250D01*
X45433Y195366D01*
X45317D01*
X45200Y195250D01*
Y195016D01*
X45317Y194900D01*
X45200Y196066D02*
Y195600D01*
X45667Y196066D01*
X45783D01*
X45900Y195949D01*
Y195716D01*
X45783Y195600D01*
X38392Y198254D02*
X38275Y198371D01*
Y198604D01*
X38392Y198721D01*
X38858D01*
X38975Y198604D01*
Y198371D01*
X38858Y198254D01*
X38392Y198021D02*
X38275Y197904D01*
Y197671D01*
X38392Y197554D01*
X38508D01*
X38625Y197671D01*
Y197788D01*
Y197671D01*
X38742Y197554D01*
X38858D01*
X38975Y197671D01*
Y197904D01*
X38858Y198021D01*
X38275Y197321D02*
Y196855D01*
X38392D01*
X38858Y197321D01*
X38975D01*
X26327Y182237D02*
X26210Y182354D01*
Y182587D01*
X26327Y182703D01*
X26793D01*
X26910Y182587D01*
Y182354D01*
X26793Y182237D01*
X26910Y181537D02*
Y182004D01*
X26443Y181537D01*
X26327D01*
X26210Y181654D01*
Y181887D01*
X26327Y182004D01*
X26910Y181304D02*
Y181071D01*
Y181187D01*
X26210D01*
X26327Y181304D01*
X156655Y90115D02*
X155955D01*
Y90465D01*
X156072Y90582D01*
X156305D01*
X156422Y90465D01*
Y90115D01*
Y90348D02*
X156655Y90582D01*
Y91281D02*
Y90815D01*
X156188Y91281D01*
X156072D01*
X155955Y91165D01*
Y90931D01*
X156072Y90815D01*
Y91515D02*
X155955Y91631D01*
Y91864D01*
X156072Y91981D01*
X156538D01*
X156655Y91864D01*
Y91631D01*
X156538Y91515D01*
X156072D01*
X6140Y120155D02*
X5440D01*
Y120505D01*
X5557Y120622D01*
X5790D01*
X5907Y120505D01*
Y120155D01*
Y120388D02*
X6140Y120622D01*
Y120855D02*
Y121088D01*
Y120971D01*
X5440D01*
X5557Y120855D01*
X5440Y121904D02*
Y121438D01*
X5790D01*
X5673Y121671D01*
Y121788D01*
X5790Y121904D01*
X6023D01*
X6140Y121788D01*
Y121555D01*
X6023Y121438D01*
X6050Y62625D02*
X5350D01*
Y62975D01*
X5467Y63092D01*
X5700D01*
X5817Y62975D01*
Y62625D01*
Y62858D02*
X6050Y63092D01*
X5467Y63325D02*
X5350Y63441D01*
Y63675D01*
X5467Y63791D01*
X5583D01*
X5700Y63675D01*
Y63558D01*
Y63675D01*
X5817Y63791D01*
X5933D01*
X6050Y63675D01*
Y63441D01*
X5933Y63325D01*
X6050Y64374D02*
X5350D01*
X5700Y64025D01*
Y64491D01*
X6090Y90805D02*
X5390D01*
Y91155D01*
X5507Y91272D01*
X5740D01*
X5857Y91155D01*
Y90805D01*
Y91038D02*
X6090Y91272D01*
Y91505D02*
Y91738D01*
Y91621D01*
X5390D01*
X5507Y91505D01*
X5973Y92088D02*
X6090Y92205D01*
Y92438D01*
X5973Y92554D01*
X5507D01*
X5390Y92438D01*
Y92205D01*
X5507Y92088D01*
X5623D01*
X5740Y92205D01*
Y92554D01*
D107*
X134313Y163326D02*
D03*
%TF.MD5,4fd319126239330e4cc30799c60453fe*%
M02*
