%TF.GenerationSoftware,Altium Limited,Altium Designer,24.7.2 (38)*%
G04 Layer_Color=8388736*
%FSLAX43Y43*%
%MOMM*%
%TF.SameCoordinates,3DDE4B3C-03A5-4BC3-9972-2EF5A5DF1AA7*%
%TF.FilePolarity,Positive*%
%TF.FileFunction,Other,Mechanical_10*%
%TF.Part,Single*%
G01*
G75*
%TA.AperFunction,NonConductor*%
%ADD81C,0.200*%
G36*
X138400Y174550D02*
X138412D01*
X138426Y174549D01*
X138440Y174547D01*
X138471Y174544D01*
X138504Y174540D01*
X138536Y174533D01*
X138551Y174528D01*
X138565Y174524D01*
X138566D01*
X138568Y174523D01*
X138572Y174521D01*
X138577Y174519D01*
X138583Y174516D01*
X138590Y174513D01*
X138606Y174503D01*
X138624Y174492D01*
X138642Y174479D01*
X138660Y174463D01*
X138675Y174444D01*
Y174443D01*
X138677Y174441D01*
X138679Y174439D01*
X138681Y174435D01*
X138684Y174429D01*
X138687Y174424D01*
X138691Y174417D01*
X138694Y174409D01*
X138701Y174392D01*
X138708Y174370D01*
X138711Y174347D01*
X138713Y174321D01*
Y174314D01*
X138712Y174309D01*
Y174303D01*
X138711Y174295D01*
X138708Y174278D01*
X138703Y174258D01*
X138696Y174238D01*
X138686Y174218D01*
X138679Y174208D01*
X138672Y174198D01*
X138671Y174197D01*
X138670Y174196D01*
X138667Y174194D01*
X138664Y174191D01*
X138660Y174187D01*
X138654Y174183D01*
X138641Y174173D01*
X138624Y174164D01*
X138604Y174155D01*
X138581Y174147D01*
X138554Y174142D01*
X138548Y174218D01*
X138549D01*
X138551Y174219D01*
X138552D01*
X138556Y174220D01*
X138566Y174222D01*
X138577Y174226D01*
X138590Y174231D01*
X138603Y174237D01*
X138615Y174245D01*
X138625Y174254D01*
X138626Y174255D01*
X138629Y174258D01*
X138633Y174265D01*
X138637Y174272D01*
X138641Y174282D01*
X138645Y174294D01*
X138648Y174308D01*
X138649Y174323D01*
Y174330D01*
X138648Y174336D01*
X138647Y174344D01*
X138645Y174355D01*
X138642Y174365D01*
X138638Y174376D01*
X138633Y174386D01*
X138632Y174387D01*
X138630Y174391D01*
X138626Y174396D01*
X138621Y174402D01*
X138614Y174409D01*
X138607Y174417D01*
X138599Y174424D01*
X138588Y174431D01*
X138588Y174432D01*
X138583Y174434D01*
X138576Y174438D01*
X138568Y174441D01*
X138557Y174446D01*
X138544Y174451D01*
X138529Y174455D01*
X138513Y174460D01*
X138512D01*
X138511Y174461D01*
X138508D01*
X138504Y174462D01*
X138495Y174464D01*
X138483Y174466D01*
X138468Y174468D01*
X138453Y174470D01*
X138435Y174471D01*
X138416Y174472D01*
X138416D01*
X138413D01*
X138408D01*
X138401D01*
X138403Y174471D01*
X138407Y174467D01*
X138414Y174462D01*
X138423Y174455D01*
X138432Y174446D01*
X138442Y174435D01*
X138453Y174422D01*
X138462Y174407D01*
X138463Y174405D01*
X138465Y174400D01*
X138469Y174392D01*
X138473Y174381D01*
X138477Y174368D01*
X138481Y174353D01*
X138484Y174336D01*
X138485Y174319D01*
Y174311D01*
X138484Y174306D01*
X138483Y174298D01*
X138482Y174291D01*
X138480Y174282D01*
X138477Y174272D01*
X138471Y174251D01*
X138466Y174240D01*
X138461Y174229D01*
X138454Y174217D01*
X138446Y174206D01*
X138438Y174195D01*
X138428Y174184D01*
X138427Y174184D01*
X138425Y174182D01*
X138422Y174180D01*
X138417Y174176D01*
X138411Y174172D01*
X138404Y174167D01*
X138396Y174162D01*
X138387Y174158D01*
X138377Y174152D01*
X138366Y174147D01*
X138353Y174143D01*
X138340Y174138D01*
X138325Y174135D01*
X138309Y174133D01*
X138294Y174131D01*
X138276Y174130D01*
X138275D01*
X138271D01*
X138267D01*
X138260Y174131D01*
X138252Y174132D01*
X138242Y174133D01*
X138232Y174135D01*
X138220Y174137D01*
X138195Y174144D01*
X138183Y174148D01*
X138169Y174154D01*
X138156Y174160D01*
X138144Y174169D01*
X138131Y174177D01*
X138120Y174187D01*
X138119Y174188D01*
X138117Y174190D01*
X138114Y174193D01*
X138110Y174197D01*
X138106Y174203D01*
X138100Y174210D01*
X138096Y174218D01*
X138089Y174227D01*
X138084Y174236D01*
X138079Y174247D01*
X138069Y174272D01*
X138065Y174285D01*
X138062Y174300D01*
X138061Y174315D01*
X138060Y174331D01*
Y174337D01*
X138061Y174342D01*
Y174346D01*
X138061Y174353D01*
X138064Y174368D01*
X138068Y174386D01*
X138074Y174405D01*
X138083Y174425D01*
X138094Y174444D01*
Y174445D01*
X138096Y174446D01*
X138097Y174449D01*
X138100Y174453D01*
X138108Y174462D01*
X138118Y174474D01*
X138132Y174486D01*
X138148Y174500D01*
X138168Y174512D01*
X138190Y174523D01*
X138191D01*
X138193Y174524D01*
X138196Y174526D01*
X138201Y174527D01*
X138208Y174529D01*
X138216Y174532D01*
X138225Y174534D01*
X138235Y174537D01*
X138247Y174540D01*
X138261Y174542D01*
X138276Y174544D01*
X138292Y174546D01*
X138309Y174548D01*
X138328Y174550D01*
X138348Y174551D01*
X138369D01*
X138370D01*
X138375D01*
X138381D01*
X138390D01*
X138400Y174550D01*
D02*
G37*
G36*
X138398Y174045D02*
X138405D01*
X138423Y174044D01*
X138443Y174041D01*
X138465Y174038D01*
X138487Y174034D01*
X138509Y174028D01*
X138510D01*
X138512Y174027D01*
X138514Y174026D01*
X138518Y174025D01*
X138528Y174022D01*
X138541Y174016D01*
X138556Y174011D01*
X138571Y174003D01*
X138587Y173994D01*
X138601Y173985D01*
X138603Y173984D01*
X138608Y173980D01*
X138614Y173975D01*
X138623Y173967D01*
X138632Y173959D01*
X138641Y173949D01*
X138651Y173939D01*
X138660Y173927D01*
X138661Y173925D01*
X138663Y173921D01*
X138667Y173915D01*
X138672Y173905D01*
X138677Y173894D01*
X138682Y173881D01*
X138687Y173866D01*
X138692Y173850D01*
Y173848D01*
X138693Y173845D01*
X138694Y173842D01*
X138695Y173833D01*
X138697Y173820D01*
X138698Y173805D01*
X138700Y173788D01*
X138701Y173768D01*
X138702Y173747D01*
Y173517D01*
X138062D01*
Y173763D01*
X138063Y173780D01*
X138064Y173798D01*
X138066Y173816D01*
X138069Y173835D01*
X138072Y173851D01*
Y173852D01*
X138073Y173853D01*
Y173856D01*
X138074Y173860D01*
X138077Y173870D01*
X138082Y173883D01*
X138088Y173898D01*
X138097Y173914D01*
X138106Y173929D01*
X138118Y173944D01*
X138119Y173945D01*
X138120Y173946D01*
X138122Y173949D01*
X138125Y173952D01*
X138134Y173962D01*
X138147Y173973D01*
X138163Y173985D01*
X138182Y173998D01*
X138203Y174010D01*
X138227Y174020D01*
X138228D01*
X138230Y174021D01*
X138233Y174023D01*
X138239Y174024D01*
X138245Y174026D01*
X138253Y174028D01*
X138261Y174030D01*
X138271Y174033D01*
X138281Y174036D01*
X138294Y174037D01*
X138319Y174042D01*
X138348Y174045D01*
X138379Y174046D01*
X138380D01*
X138382D01*
X138387D01*
X138391D01*
X138398Y174045D01*
D02*
G37*
%LPC*%
G36*
X138272Y174464D02*
X138271D01*
X138269D01*
X138266D01*
X138261Y174463D01*
X138255D01*
X138248Y174462D01*
X138233Y174459D01*
X138216Y174455D01*
X138197Y174449D01*
X138180Y174440D01*
X138164Y174428D01*
X138163D01*
X138162Y174426D01*
X138158Y174421D01*
X138151Y174414D01*
X138144Y174404D01*
X138137Y174391D01*
X138131Y174376D01*
X138126Y174359D01*
X138124Y174350D01*
Y174335D01*
X138125Y174331D01*
X138126Y174321D01*
X138130Y174309D01*
X138134Y174294D01*
X138143Y174279D01*
X138153Y174263D01*
X138160Y174256D01*
X138168Y174248D01*
X138169D01*
X138170Y174246D01*
X138172Y174245D01*
X138175Y174243D01*
X138184Y174236D01*
X138197Y174230D01*
X138213Y174222D01*
X138232Y174216D01*
X138255Y174212D01*
X138279Y174210D01*
X138280D01*
X138281D01*
X138284D01*
X138289Y174211D01*
X138294D01*
X138300Y174212D01*
X138314Y174215D01*
X138330Y174220D01*
X138346Y174225D01*
X138363Y174234D01*
X138378Y174246D01*
X138379Y174248D01*
X138383Y174253D01*
X138390Y174261D01*
X138396Y174271D01*
X138404Y174285D01*
X138410Y174301D01*
X138414Y174319D01*
X138416Y174338D01*
Y174343D01*
X138415Y174347D01*
X138414Y174357D01*
X138411Y174369D01*
X138406Y174384D01*
X138400Y174399D01*
X138391Y174414D01*
X138378Y174428D01*
X138376Y174429D01*
X138370Y174433D01*
X138362Y174439D01*
X138350Y174446D01*
X138335Y174453D01*
X138318Y174458D01*
X138296Y174462D01*
X138272Y174464D01*
D02*
G37*
G36*
X138378Y173959D02*
X138377D01*
X138373D01*
X138368D01*
X138361Y173958D01*
X138353D01*
X138343Y173957D01*
X138332Y173956D01*
X138321Y173955D01*
X138296Y173951D01*
X138270Y173945D01*
X138246Y173937D01*
X138234Y173931D01*
X138224Y173926D01*
X138223D01*
X138221Y173924D01*
X138219Y173922D01*
X138215Y173920D01*
X138206Y173913D01*
X138195Y173903D01*
X138183Y173891D01*
X138171Y173878D01*
X138160Y173862D01*
X138152Y173845D01*
X138151Y173843D01*
X138150Y173839D01*
X138147Y173830D01*
X138145Y173818D01*
X138143Y173804D01*
X138140Y173785D01*
X138139Y173774D01*
Y173762D01*
X138138Y173750D01*
Y173602D01*
X138626D01*
Y173754D01*
X138625Y173760D01*
X138624Y173774D01*
X138624Y173790D01*
X138622Y173806D01*
X138619Y173823D01*
X138615Y173837D01*
X138614Y173839D01*
X138613Y173843D01*
X138611Y173850D01*
X138607Y173858D01*
X138601Y173867D01*
X138596Y173877D01*
X138589Y173886D01*
X138582Y173895D01*
X138580Y173896D01*
X138576Y173900D01*
X138570Y173905D01*
X138561Y173912D01*
X138549Y173919D01*
X138535Y173927D01*
X138519Y173935D01*
X138502Y173941D01*
X138501D01*
X138499Y173942D01*
X138496Y173943D01*
X138492Y173944D01*
X138488Y173945D01*
X138481Y173947D01*
X138475Y173949D01*
X138467Y173951D01*
X138449Y173953D01*
X138428Y173956D01*
X138404Y173958D01*
X138378Y173959D01*
D02*
G37*
%LPD*%
D81*
X137750Y171817D02*
X139300D01*
Y175217D01*
X137750D02*
X139300D01*
X137750Y171817D02*
Y175217D01*
%TF.MD5,497acc0065436abb64d6122b1952312c*%
M02*
