M48
;Layer_Color=9474304
;FILE_FORMAT=4:3
METRIC,LZ
;TYPE=PLATED
T01F00S00C0.500
T02F00S00C0.762
T03F00S00C0.900
T04F00S00C0.950
T05F00S00C1.000
T06F00S00C1.016
T07F00S00C1.300
T08F00S00C1.400
T09F00S00C1.500
T10F00S00C2.000
T11F00S00C2.032
T13F00S00C3.048
T14F00S00C3.556
T15F00S00C5.000
T16F00S00C7.000
%
T01
X0078825Y0208525
X0092975Y02024
X003735Y0197685
X002656Y018635
X0023504Y0196415
Y0197685
T02
X0190221Y0048095
Y005
Y0051905
Y0068095
Y007
Y0071905
Y0088095
Y009
Y0091905
Y0108095
Y011
Y0111905
X0038985Y0174009
X003708
X0035175
X013228Y01909
X013482
T03
X0026015Y02053
X0023475
X0020935
X0018395
X001Y02
Y019746
Y019492
Y019238
T04
X0188275Y0043725
X0184678Y0053023
X0179275Y0055175
X01795Y007525
X01791Y009425
X018445Y0092675
X0188Y00843
X0184729Y0073475
X0188325Y0064555
X0187938Y01042
X0184425Y011405
X0179275Y0114625
X0030834Y0176251
X002625Y0177825
X015995Y01704
X012905Y02085
X0086875Y0209025
X0041975Y0212025
X00386Y0200975
X0022622Y0181128
T05
X01737Y0048025
Y0050565
Y0053105
X01738Y006836
Y00709
Y007344
X01737Y008825
Y009079
Y009333
Y0108401
Y0110941
Y0113481
X003418Y0190826
X003164
X00291
X002656
T06
X0145305Y0050254
X001682Y0050674
Y007582
Y0079537
X0145305Y0079257
Y00754
Y0104403
Y0108007
Y0133153
X001679Y0133586
Y010844
X001682Y0104683
T07
X01363Y02085
X01413
T08
X0134275Y016245
Y017445
T09
X015628Y0052675
X0005675Y0053725
X0005725Y00737
X0005715Y0081905
X015628Y0081215
X015633Y007265
Y010119
X015628Y0110395
X015633Y013037
X0005815Y013123
X0005765Y0111255
X0005765Y010188
T10
X011871Y003555
Y0046091
X008159
Y003555
X004385Y0035525
Y0046066
X0044Y0074632
Y0085173
X008159Y0085034
Y0074493
X01186
Y0085034
X011887Y0113973
Y0124514
X008171
Y0113973
X0044Y0114034
Y0124575
T11
X0062274Y0147154
X0062325Y015734
X0113125Y0157365
X0113074Y0147205
X0113175Y0187921
X0113125Y0198081
X0062299Y0203034
X006235Y01929
T13
X0141459Y0191154
X0141332Y0196996
T14
X01647Y0194075
T15
X0054527Y0147231
Y0157314
X0120592Y0157543
X0120745Y0147332
X012077Y0188048
X0120872Y0198132
X0054451Y0203212
X0054578Y01929
T16
X0225Y0055
X0015Y0035
Y002
X0225Y0075
Y0095
Y0115
X0015Y015
Y0165
X0225Y016
Y0175
Y0145
Y019
M30
