%TF.GenerationSoftware,Altium Limited,Altium Designer,24.7.2 (38)*%
G04 Layer_Physical_Order=2*
G04 Layer_Color=16711680*
%FSLAX43Y43*%
%MOMM*%
%TF.SameCoordinates,3DDE4B3C-03A5-4BC3-9972-2EF5A5DF1AA7*%
%TF.FilePolarity,Positive*%
%TF.FileFunction,Copper,L2,Bot,Signal*%
%TF.Part,Single*%
G01*
G75*
%TA.AperFunction,Conductor*%
%ADD10C,1.000*%
%ADD11C,2.000*%
%ADD13C,5.000*%
%ADD14C,0.600*%
%TA.AperFunction,SMDPad,CuDef*%
%ADD15R,1.250X0.800*%
%TA.AperFunction,Conductor*%
%ADD17C,1.500*%
%ADD18R,18.454X8.875*%
%ADD19R,14.478X11.557*%
%ADD20R,37.674X7.618*%
%ADD24R,40.634X23.495*%
%ADD29R,16.475X10.825*%
%TA.AperFunction,NonConductor*%
%ADD33R,14.478X11.557*%
%TA.AperFunction,Conductor*%
%ADD34R,8.382X5.969*%
%ADD36R,16.150X30.477*%
%TA.AperFunction,ComponentPad*%
%ADD37C,5.000*%
%ADD38C,1.500*%
%ADD39R,1.500X1.500*%
%ADD40C,2.500*%
%ADD41O,1.778X1.524*%
%ADD42O,5.080X8.890*%
%ADD43C,14.000*%
%ADD44C,3.000*%
%ADD45C,8.000*%
%ADD46C,4.064*%
%ADD47C,2.032*%
%ADD48O,8.890X5.080*%
%ADD49O,1.524X1.778*%
%ADD50C,6.000*%
%ADD51O,6.600X4.826*%
%ADD52O,3.000X3.100*%
%ADD53C,1.600*%
%ADD54R,1.550X1.550*%
%ADD55C,1.550*%
%ADD56C,1.950*%
G04:AMPARAMS|DCode=57|XSize=1.95mm|YSize=1.95mm|CornerRadius=0.488mm|HoleSize=0mm|Usage=FLASHONLY|Rotation=180.000|XOffset=0mm|YOffset=0mm|HoleType=Round|Shape=RoundedRectangle|*
%AMROUNDEDRECTD57*
21,1,1.950,0.975,0,0,180.0*
21,1,0.975,1.950,0,0,180.0*
1,1,0.975,-0.488,0.488*
1,1,0.975,0.488,0.488*
1,1,0.975,0.488,-0.488*
1,1,0.975,-0.488,-0.488*
%
%ADD57ROUNDEDRECTD57*%
%TA.AperFunction,ViaPad*%
%ADD58C,1.000*%
%ADD59C,1.500*%
%ADD60C,0.800*%
%TA.AperFunction,Conductor*%
%ADD61C,0.500*%
%TA.AperFunction,SMDPad,CuDef*%
%ADD62R,0.800X1.250*%
%ADD63R,1.800X0.600*%
%ADD64R,1.450X1.800*%
%ADD65R,2.500X2.200*%
%ADD66R,1.350X0.950*%
%ADD67R,0.950X1.350*%
%TA.AperFunction,Conductor*%
%ADD68R,12.150X33.934*%
%ADD69R,12.275X33.966*%
%ADD70R,9.788X33.018*%
%ADD71R,45.560X7.618*%
%ADD72R,11.900X33.459*%
%ADD73R,22.859X33.566*%
%ADD74R,22.650X33.844*%
%ADD75R,40.145X9.593*%
%ADD76R,23.100X20.375*%
%ADD77R,40.145X13.268*%
%ADD78R,15.675X42.725*%
G36*
X36475Y155312D02*
Y149425D01*
X28550Y141500D01*
X2450Y141500D01*
Y143986D01*
X2522Y144101D01*
X17000D01*
X17070Y144115D01*
X17130Y144155D01*
X17170Y144215D01*
X17184Y144285D01*
Y155842D01*
X17170Y155912D01*
X17130Y155972D01*
X17070Y156012D01*
X17000Y156026D01*
X2522D01*
X2450Y156141D01*
Y171977D01*
X19810D01*
X36475Y155312D01*
D02*
G37*
G36*
X66925Y143075D02*
D01*
X66925Y126925D01*
X61200Y121200D01*
X11227Y121200D01*
X4427Y128000D01*
Y135387D01*
X24725D01*
Y135425D01*
X37725Y148425D01*
Y152409D01*
Y154959D01*
X48888D01*
Y135387D01*
X50150D01*
Y147775D01*
D01*
X50150Y207275D01*
X66925Y207275D01*
Y143075D01*
D02*
G37*
G36*
X125977Y199269D02*
Y144977D01*
X122875Y141875D01*
X96050D01*
Y138775D01*
X125950Y138775D01*
X184100Y196925D01*
X239562D01*
X239562Y137950D01*
X183750D01*
X166125Y120325D01*
X82075D01*
X79275Y123125D01*
Y168550D01*
X113175Y202450D01*
X122796D01*
X125977Y199269D01*
D02*
G37*
G36*
X129438Y108380D02*
X129429Y108254D01*
X121464Y102274D01*
X121350Y102331D01*
X121350Y116302D01*
X121467Y116351D01*
X129438Y108380D01*
D02*
G37*
G36*
X26979Y108767D02*
X26990Y108640D01*
X18140Y99790D01*
X18020Y99830D01*
X17325Y104555D01*
Y107655D01*
Y109755D01*
Y115466D01*
X17438Y115525D01*
X26979Y108767D01*
D02*
G37*
G36*
X41369Y115111D02*
Y109399D01*
Y107299D01*
Y104199D01*
X40675Y99475D01*
X40554Y99435D01*
X31704Y108285D01*
X31715Y108411D01*
X41256Y115170D01*
X41369Y115111D01*
D02*
G37*
G36*
X129183Y90468D02*
X121419Y82704D01*
X121292Y82713D01*
X115467Y90472D01*
X115524Y90586D01*
X129134D01*
X129183Y90468D01*
D02*
G37*
G36*
X35575Y75150D02*
X35564Y75024D01*
X26370Y68512D01*
X38680Y73780D01*
X38786Y73710D01*
Y43830D01*
X38668Y43782D01*
X17744Y64706D01*
X17768Y64830D01*
X25920Y68319D01*
X25910Y68324D01*
Y74036D01*
Y76136D01*
Y79236D01*
X26604Y83960D01*
X26725Y84000D01*
X35575Y75150D01*
D02*
G37*
G36*
X158150Y72100D02*
X129800Y43750D01*
X118700D01*
Y71050D01*
X130525Y82875D01*
X158150D01*
Y72100D01*
D02*
G37*
G36*
X191466Y44491D02*
X189125Y42150D01*
X175525D01*
X168300Y49375D01*
Y111950D01*
X176750Y120400D01*
X191466D01*
Y44491D01*
D02*
G37*
G36*
X214351Y100325D02*
X207925D01*
Y89365D01*
X214351D01*
Y80517D01*
X208200D01*
Y69650D01*
X214351D01*
Y60491D01*
X208200D01*
Y49365D01*
X216250D01*
Y37350D01*
Y12850D01*
X2450D01*
Y13987D01*
X2522Y14102D01*
X17000D01*
X17070Y14116D01*
X17130Y14155D01*
X17170Y14215D01*
X17184Y14285D01*
Y25842D01*
X17170Y25912D01*
X17130Y25972D01*
X17070Y26012D01*
X17000Y26026D01*
X2522D01*
X2450Y26141D01*
Y28986D01*
X2522Y29102D01*
X17000D01*
X17070Y29116D01*
X17130Y29155D01*
X17169Y29215D01*
X17183Y29285D01*
Y40842D01*
X17169Y40912D01*
X17130Y40972D01*
X17070Y41012D01*
X17000Y41026D01*
X2522D01*
X2450Y41141D01*
Y56025D01*
X18003Y56025D01*
X35403Y38625D01*
X131775D01*
X147775Y54625D01*
X156750D01*
X172750Y38625D01*
X190153D01*
X195175Y43647D01*
X195175Y105725D01*
X198815Y109365D01*
X214351D01*
Y100325D01*
D02*
G37*
%LPC*%
G36*
X184418Y117788D02*
X177569D01*
X177401Y117755D01*
X177259Y117660D01*
X174010Y114411D01*
X172770D01*
Y113521D01*
X170890Y111641D01*
X170781Y111499D01*
X170712Y111334D01*
X170689Y111156D01*
Y93330D01*
Y73230D01*
Y55430D01*
X170712Y55252D01*
X170781Y55087D01*
X170890Y54945D01*
X172770Y53065D01*
Y52175D01*
X174630D01*
Y53415D01*
X178184Y56969D01*
X178226Y56987D01*
X178227Y56987D01*
X183518D01*
X183519Y56987D01*
X183561Y56969D01*
X183561Y56969D01*
X187219Y53311D01*
X187219Y53311D01*
X187237Y53269D01*
X187237Y53268D01*
Y52723D01*
X187095D01*
Y51563D01*
X187413D01*
X187507Y51500D01*
X187675Y51467D01*
X189256D01*
X189271Y51430D01*
X189422Y51233D01*
X189619Y51082D01*
X189848Y50987D01*
X190094Y50955D01*
X190348D01*
X190594Y50987D01*
X190823Y51082D01*
X191020Y51233D01*
X191171Y51430D01*
X191266Y51659D01*
X191298Y51905D01*
X191266Y52151D01*
X191171Y52380D01*
X191020Y52577D01*
X190823Y52728D01*
X190594Y52823D01*
X190348Y52855D01*
X190094D01*
X189848Y52823D01*
X189619Y52728D01*
X189422Y52577D01*
X189271Y52380D01*
X189256Y52343D01*
X188705D01*
Y52723D01*
X188113D01*
Y53268D01*
X188112Y53274D01*
X188081Y53511D01*
X187987Y53737D01*
X187842Y53926D01*
X187839Y53931D01*
X184181Y57589D01*
X184176Y57592D01*
X183987Y57737D01*
X183761Y57831D01*
X183524Y57862D01*
X183518Y57863D01*
X178227D01*
X178221Y57862D01*
X177984Y57831D01*
X177758Y57737D01*
X177572Y57594D01*
X177565Y57590D01*
X177565Y57590D01*
X177564Y57589D01*
X177476Y57501D01*
X174010Y54035D01*
X173740D01*
X172061Y55714D01*
Y72754D01*
X172870D01*
Y72510D01*
X174730D01*
Y73640D01*
X178159Y77069D01*
X178201Y77087D01*
X178202Y77087D01*
X183693D01*
X183694Y77087D01*
X183736Y77069D01*
X187294Y73510D01*
X187312Y73468D01*
X187312Y73468D01*
Y72545D01*
X186945D01*
Y71385D01*
X188555D01*
Y71467D01*
X189256D01*
X189271Y71430D01*
X189422Y71233D01*
X189619Y71082D01*
X189848Y70987D01*
X190094Y70955D01*
X190348D01*
X190594Y70987D01*
X190823Y71082D01*
X191020Y71233D01*
X191171Y71430D01*
X191266Y71659D01*
X191298Y71905D01*
X191266Y72151D01*
X191171Y72380D01*
X191020Y72577D01*
X190823Y72728D01*
X190594Y72823D01*
X190348Y72855D01*
X190094D01*
X189848Y72823D01*
X189619Y72728D01*
X189422Y72577D01*
X189271Y72380D01*
X189256Y72343D01*
X188555D01*
Y72545D01*
X188189D01*
Y73468D01*
X188187Y73474D01*
X188156Y73711D01*
X188063Y73937D01*
X187919Y74123D01*
X187915Y74129D01*
X187915Y74129D01*
X187915Y74130D01*
X187826Y74219D01*
X184444Y77601D01*
X184356Y77689D01*
X184356Y77689D01*
X184355Y77690D01*
X184355Y77690D01*
X184348Y77694D01*
X184162Y77837D01*
X183936Y77931D01*
X183699Y77962D01*
X183693Y77963D01*
X178202D01*
X178196Y77962D01*
X177959Y77931D01*
X177733Y77837D01*
X177547Y77694D01*
X177539Y77689D01*
X174220Y74370D01*
X172870D01*
Y74126D01*
X172061D01*
Y92644D01*
X172770D01*
Y92400D01*
X174630D01*
Y93640D01*
X177213Y96223D01*
X183122D01*
X187187Y92159D01*
Y92115D01*
X187195Y92073D01*
Y91385D01*
X188805D01*
Y91527D01*
X189231D01*
X189271Y91430D01*
X189422Y91233D01*
X189619Y91082D01*
X189848Y90987D01*
X190094Y90955D01*
X190348D01*
X190594Y90987D01*
X190823Y91082D01*
X191020Y91233D01*
X191171Y91430D01*
X191266Y91659D01*
X191298Y91905D01*
X191266Y92151D01*
X191171Y92380D01*
X191020Y92577D01*
X190823Y92728D01*
X190594Y92823D01*
X190348Y92855D01*
X190094D01*
X189848Y92823D01*
X189619Y92728D01*
X189422Y92577D01*
X189289Y92404D01*
X188805D01*
Y92545D01*
X188005D01*
X187935Y92650D01*
X183614Y96971D01*
X183472Y97067D01*
X183304Y97100D01*
X177031D01*
X176864Y97067D01*
X176721Y96971D01*
X174010Y94260D01*
X172770D01*
Y94016D01*
X172061D01*
Y110872D01*
X173740Y112551D01*
X174630D01*
Y113791D01*
X177751Y116912D01*
X184418D01*
X184419Y116912D01*
X184461Y116894D01*
X184461Y116894D01*
X187262Y114093D01*
Y112505D01*
X186895D01*
Y111345D01*
X188505D01*
Y111467D01*
X189256D01*
X189271Y111430D01*
X189422Y111233D01*
X189619Y111082D01*
X189848Y110987D01*
X190094Y110955D01*
X190348D01*
X190594Y110987D01*
X190823Y111082D01*
X191020Y111233D01*
X191171Y111430D01*
X191266Y111659D01*
X191298Y111905D01*
X191266Y112151D01*
X191171Y112380D01*
X191020Y112577D01*
X190823Y112728D01*
X190594Y112823D01*
X190348Y112855D01*
X190094D01*
X189848Y112823D01*
X189619Y112728D01*
X189422Y112577D01*
X189271Y112380D01*
X189256Y112343D01*
X188505D01*
Y112505D01*
X188139D01*
Y114275D01*
X188105Y114443D01*
X188010Y114585D01*
X185081Y117514D01*
X185081Y117514D01*
X185081Y117514D01*
X185076Y117517D01*
X184887Y117662D01*
X184661Y117756D01*
X184424Y117787D01*
X184418Y117788D01*
D02*
G37*
G36*
X179463Y116055D02*
X179087D01*
X178723Y115958D01*
X178397Y115769D01*
X178131Y115503D01*
X177942Y115177D01*
X177845Y114813D01*
Y114437D01*
X177942Y114073D01*
X178131Y113747D01*
X178397Y113481D01*
X178723Y113292D01*
X178837Y113262D01*
Y110981D01*
X178520D01*
Y110839D01*
X177897D01*
X177485Y111251D01*
X177343Y111346D01*
X177175Y111379D01*
X174521D01*
X174444Y111512D01*
X174271Y111685D01*
X174059Y111808D01*
X173822Y111871D01*
X173578D01*
X173341Y111808D01*
X173129Y111685D01*
X172956Y111512D01*
X172833Y111300D01*
X172770Y111063D01*
Y110819D01*
X172833Y110582D01*
X172956Y110370D01*
X173129Y110197D01*
X173341Y110074D01*
X173578Y110011D01*
X173822D01*
X174059Y110074D01*
X174271Y110197D01*
X174444Y110370D01*
X174521Y110503D01*
X176993D01*
X177405Y110091D01*
X177547Y109996D01*
X177715Y109963D01*
X178520D01*
Y109821D01*
X180130D01*
Y109821D01*
X180203Y109821D01*
Y109821D01*
X181813D01*
Y109821D01*
X181920D01*
Y109821D01*
X183530D01*
Y110981D01*
X181920D01*
Y110981D01*
X181813D01*
Y110981D01*
X180203D01*
Y110981D01*
X180130Y110981D01*
Y110981D01*
X179713D01*
Y113262D01*
X179827Y113292D01*
X180153Y113481D01*
X180419Y113747D01*
X180608Y114073D01*
X180705Y114437D01*
Y114813D01*
X180608Y115177D01*
X180419Y115503D01*
X180153Y115769D01*
X179827Y115958D01*
X179463Y116055D01*
D02*
G37*
G36*
X184613Y115480D02*
X184237D01*
X183873Y115383D01*
X183547Y115194D01*
X183281Y114928D01*
X183092Y114602D01*
X182995Y114238D01*
Y113862D01*
X183092Y113498D01*
X183281Y113172D01*
X183547Y112906D01*
X183873Y112717D01*
X183988Y112687D01*
Y108913D01*
X183621D01*
X183530Y108981D01*
Y108981D01*
X181920D01*
Y107821D01*
X183530D01*
X183621Y107753D01*
Y107753D01*
X185231D01*
Y107753D01*
X185358Y107752D01*
Y107290D01*
X186518D01*
Y108900D01*
X185358D01*
Y108900D01*
X185231Y108901D01*
Y108913D01*
X184865D01*
Y112687D01*
X184977Y112717D01*
X185303Y112906D01*
X185569Y113172D01*
X185758Y113498D01*
X185855Y113862D01*
Y114238D01*
X185758Y114602D01*
X185569Y114928D01*
X185303Y115194D01*
X184977Y115383D01*
X184613Y115480D01*
D02*
G37*
G36*
X190348Y109045D02*
X190094D01*
X189848Y109013D01*
X189619Y108918D01*
X189422Y108767D01*
X189271Y108570D01*
X189256Y108533D01*
X188518D01*
Y108900D01*
X187358D01*
Y107290D01*
X187500D01*
Y105563D01*
X187386Y105533D01*
X187060Y105344D01*
X186794Y105078D01*
X186605Y104752D01*
X186508Y104388D01*
Y104012D01*
X186605Y103648D01*
X186794Y103322D01*
X187060Y103056D01*
X187386Y102867D01*
X187750Y102770D01*
X188126D01*
X188490Y102867D01*
X188816Y103056D01*
X189082Y103322D01*
X189271Y103648D01*
X189368Y104012D01*
Y104388D01*
X189271Y104752D01*
X189082Y105078D01*
X188816Y105344D01*
X188490Y105533D01*
X188376Y105563D01*
Y107290D01*
X188518D01*
Y107657D01*
X189256D01*
X189271Y107620D01*
X189422Y107423D01*
X189619Y107272D01*
X189848Y107177D01*
X190094Y107145D01*
X190348D01*
X190594Y107177D01*
X190823Y107272D01*
X191020Y107423D01*
X191171Y107620D01*
X191266Y107849D01*
X191298Y108095D01*
X191266Y108341D01*
X191171Y108570D01*
X191020Y108767D01*
X190823Y108918D01*
X190594Y109013D01*
X190348Y109045D01*
D02*
G37*
G36*
X179288Y95680D02*
X178912D01*
X178548Y95583D01*
X178222Y95394D01*
X177956Y95128D01*
X177767Y94802D01*
X177670Y94438D01*
Y94062D01*
X177767Y93698D01*
X177956Y93372D01*
X178222Y93106D01*
X178548Y92917D01*
X178662Y92887D01*
Y90780D01*
X178295D01*
Y90638D01*
X177382D01*
X177066Y90954D01*
X177066Y90954D01*
X177066Y90954D01*
X177061Y90957D01*
X176872Y91102D01*
X176646Y91196D01*
X176409Y91227D01*
X176403Y91228D01*
X174521D01*
X174444Y91361D01*
X174271Y91534D01*
X174059Y91657D01*
X173822Y91720D01*
X173578D01*
X173341Y91657D01*
X173129Y91534D01*
X172956Y91361D01*
X172833Y91149D01*
X172770Y90912D01*
Y90668D01*
X172833Y90431D01*
X172956Y90219D01*
X173129Y90046D01*
X173341Y89923D01*
X173578Y89860D01*
X173822D01*
X174059Y89923D01*
X174271Y90046D01*
X174444Y90219D01*
X174521Y90352D01*
X176403D01*
X176404Y90352D01*
X176446Y90334D01*
X176446Y90334D01*
X176890Y89890D01*
X177032Y89795D01*
X177200Y89762D01*
X178295D01*
Y89620D01*
X179905D01*
Y89762D01*
X180170D01*
Y89620D01*
X181780D01*
Y89762D01*
X181947D01*
Y89620D01*
X183557D01*
Y90780D01*
X181947D01*
Y90638D01*
X181780D01*
Y90780D01*
X180170D01*
Y90638D01*
X179905D01*
Y90780D01*
X179538D01*
Y92887D01*
X179652Y92917D01*
X179978Y93106D01*
X180244Y93372D01*
X180433Y93698D01*
X180530Y94062D01*
Y94438D01*
X180433Y94802D01*
X180244Y95128D01*
X179978Y95394D01*
X179652Y95583D01*
X179288Y95680D01*
D02*
G37*
G36*
X184638Y94105D02*
X184262D01*
X183898Y94008D01*
X183572Y93819D01*
X183306Y93553D01*
X183117Y93227D01*
X183020Y92863D01*
Y92487D01*
X183117Y92123D01*
X183306Y91797D01*
X183572Y91531D01*
X183898Y91342D01*
X184037Y91305D01*
Y88705D01*
X183670D01*
Y88705D01*
X183557Y88740D01*
Y88780D01*
X181947D01*
Y87620D01*
X183557D01*
X183557Y87620D01*
Y87620D01*
X183557Y87620D01*
X183670Y87585D01*
Y87545D01*
X185280D01*
Y87657D01*
X185420D01*
Y87290D01*
X186580D01*
Y88900D01*
X185420D01*
Y88534D01*
X185280D01*
Y88705D01*
X184913D01*
Y91319D01*
X185002Y91342D01*
X185328Y91531D01*
X185594Y91797D01*
X185783Y92123D01*
X185880Y92487D01*
Y92863D01*
X185783Y93227D01*
X185594Y93553D01*
X185328Y93819D01*
X185002Y94008D01*
X184638Y94105D01*
D02*
G37*
G36*
X190348Y89045D02*
X190094D01*
X189848Y89013D01*
X189619Y88918D01*
X189422Y88767D01*
X189271Y88570D01*
X189256Y88534D01*
X188580D01*
Y88900D01*
X187420D01*
Y87290D01*
X187562D01*
Y85663D01*
X187448Y85633D01*
X187122Y85444D01*
X186856Y85178D01*
X186668Y84852D01*
X186570Y84488D01*
Y84112D01*
X186668Y83748D01*
X186856Y83422D01*
X187122Y83156D01*
X187448Y82968D01*
X187812Y82870D01*
X188188D01*
X188552Y82968D01*
X188878Y83156D01*
X189144Y83422D01*
X189333Y83748D01*
X189430Y84112D01*
Y84488D01*
X189333Y84852D01*
X189144Y85178D01*
X188878Y85444D01*
X188552Y85633D01*
X188439Y85663D01*
Y87290D01*
X188580D01*
Y87657D01*
X189256D01*
X189271Y87620D01*
X189422Y87423D01*
X189619Y87272D01*
X189848Y87177D01*
X190094Y87145D01*
X190348D01*
X190594Y87177D01*
X190823Y87272D01*
X191020Y87423D01*
X191171Y87620D01*
X191266Y87849D01*
X191298Y88095D01*
X191266Y88341D01*
X191171Y88570D01*
X191020Y88767D01*
X190823Y88918D01*
X190594Y89013D01*
X190348Y89045D01*
D02*
G37*
G36*
X179688Y76680D02*
X179312D01*
X178948Y76583D01*
X178622Y76394D01*
X178356Y76128D01*
X178167Y75802D01*
X178070Y75438D01*
Y75062D01*
X178167Y74698D01*
X178356Y74372D01*
X178622Y74106D01*
X178948Y73917D01*
X179062Y73887D01*
Y70880D01*
X178695D01*
Y70738D01*
X177357D01*
X177031Y71064D01*
X177031Y71064D01*
X177031Y71064D01*
X177031Y71064D01*
X177030Y71065D01*
X177030Y71065D01*
X177021Y71071D01*
X176837Y71212D01*
X176611Y71306D01*
X176374Y71337D01*
X176368Y71338D01*
X174621D01*
X174544Y71471D01*
X174371Y71644D01*
X174159Y71767D01*
X173922Y71830D01*
X173678D01*
X173441Y71767D01*
X173229Y71644D01*
X173056Y71471D01*
X172933Y71259D01*
X172870Y71022D01*
Y70778D01*
X172933Y70541D01*
X173056Y70329D01*
X173229Y70156D01*
X173441Y70033D01*
X173678Y69970D01*
X173922D01*
X174159Y70033D01*
X174371Y70156D01*
X174544Y70329D01*
X174621Y70462D01*
X176368D01*
X176369Y70462D01*
X176411Y70444D01*
X176411Y70444D01*
X176865Y69990D01*
X176954Y69931D01*
X177007Y69895D01*
X177175Y69862D01*
X178695D01*
Y69720D01*
X180305D01*
Y69862D01*
X180470D01*
Y69720D01*
X182080D01*
Y69720D01*
X182170D01*
Y69720D01*
X183780D01*
Y70880D01*
X182170D01*
Y70880D01*
X182080D01*
Y70880D01*
X180470D01*
Y70738D01*
X180305D01*
Y70880D01*
X179938D01*
Y73887D01*
X180052Y73917D01*
X180378Y74106D01*
X180644Y74372D01*
X180833Y74698D01*
X180930Y75062D01*
Y75438D01*
X180833Y75802D01*
X180644Y76128D01*
X180378Y76394D01*
X180052Y76583D01*
X179688Y76680D01*
D02*
G37*
G36*
X184917Y74905D02*
X184540D01*
X184177Y74808D01*
X183851Y74619D01*
X183584Y74353D01*
X183396Y74027D01*
X183299Y73663D01*
Y73287D01*
X183396Y72923D01*
X183584Y72597D01*
X183851Y72331D01*
X184177Y72142D01*
X184290Y72112D01*
Y68868D01*
X183924D01*
Y68738D01*
X183780D01*
Y68880D01*
X182170D01*
Y67720D01*
X183780D01*
Y67862D01*
X183924D01*
Y67708D01*
X185534D01*
Y67850D01*
X185737D01*
X185745Y67843D01*
Y67290D01*
X186905D01*
Y68900D01*
X185745D01*
Y68848D01*
X185737Y68726D01*
X185534D01*
Y68868D01*
X185167D01*
Y72112D01*
X185281Y72142D01*
X185607Y72331D01*
X185873Y72597D01*
X186061Y72923D01*
X186159Y73287D01*
Y73663D01*
X186061Y74027D01*
X185873Y74353D01*
X185607Y74619D01*
X185281Y74808D01*
X184917Y74905D01*
D02*
G37*
G36*
X190348Y69045D02*
X190094D01*
X189848Y69013D01*
X189619Y68918D01*
X189422Y68767D01*
X189271Y68570D01*
X189256Y68533D01*
X188905D01*
Y68900D01*
X187745D01*
Y67290D01*
X187887D01*
Y65918D01*
X187773Y65888D01*
X187447Y65699D01*
X187181Y65433D01*
X186993Y65107D01*
X186895Y64743D01*
Y64367D01*
X186993Y64003D01*
X187181Y63677D01*
X187447Y63411D01*
X187773Y63223D01*
X188137Y63125D01*
X188513D01*
X188877Y63223D01*
X189203Y63411D01*
X189469Y63677D01*
X189658Y64003D01*
X189755Y64367D01*
Y64743D01*
X189658Y65107D01*
X189469Y65433D01*
X189203Y65699D01*
X188877Y65888D01*
X188764Y65918D01*
Y67290D01*
X188905D01*
Y67657D01*
X189256D01*
X189271Y67620D01*
X189422Y67423D01*
X189619Y67272D01*
X189848Y67177D01*
X190094Y67145D01*
X190348D01*
X190594Y67177D01*
X190823Y67272D01*
X191020Y67423D01*
X191171Y67620D01*
X191266Y67849D01*
X191298Y68095D01*
X191266Y68341D01*
X191171Y68570D01*
X191020Y68767D01*
X190823Y68918D01*
X190594Y69013D01*
X190348Y69045D01*
D02*
G37*
G36*
X179463Y56605D02*
X179087D01*
X178723Y56508D01*
X178397Y56319D01*
X178131Y56053D01*
X177942Y55727D01*
X177845Y55363D01*
Y54987D01*
X177942Y54623D01*
X178131Y54297D01*
X178397Y54031D01*
X178723Y53842D01*
X178837Y53812D01*
Y50655D01*
X178470D01*
Y50513D01*
X178207D01*
X177785Y50935D01*
X177643Y51030D01*
X177475Y51063D01*
X174486D01*
X174444Y51136D01*
X174271Y51309D01*
X174059Y51432D01*
X173822Y51495D01*
X173578D01*
X173341Y51432D01*
X173129Y51309D01*
X172956Y51136D01*
X172833Y50924D01*
X172770Y50687D01*
Y50443D01*
X172833Y50206D01*
X172956Y49994D01*
X173129Y49821D01*
X173341Y49698D01*
X173578Y49635D01*
X173822D01*
X174059Y49698D01*
X174271Y49821D01*
X174444Y49994D01*
X174555Y50187D01*
X177293D01*
X177715Y49765D01*
X177857Y49670D01*
X178025Y49637D01*
X178470D01*
Y49495D01*
X180080D01*
Y49637D01*
X180220D01*
Y49495D01*
X181830D01*
Y49495D01*
X181945D01*
Y49495D01*
X183555D01*
Y50655D01*
X181945D01*
Y50655D01*
X181830D01*
Y50655D01*
X180220D01*
Y50513D01*
X180080D01*
Y50655D01*
X179713D01*
Y53812D01*
X179827Y53842D01*
X180153Y54031D01*
X180419Y54297D01*
X180608Y54623D01*
X180705Y54987D01*
Y55363D01*
X180608Y55727D01*
X180419Y56053D01*
X180153Y56319D01*
X179827Y56508D01*
X179463Y56605D01*
D02*
G37*
G36*
X190348Y49045D02*
X190094D01*
X189848Y49013D01*
X189619Y48918D01*
X189422Y48767D01*
X189271Y48570D01*
X189256Y48533D01*
X188880D01*
Y48900D01*
X187720D01*
Y47290D01*
X187837D01*
Y45088D01*
X187723Y45058D01*
X187397Y44869D01*
X187131Y44603D01*
X186942Y44277D01*
X186845Y43913D01*
Y43537D01*
X186942Y43173D01*
X187131Y42847D01*
X187397Y42581D01*
X187723Y42392D01*
X188087Y42295D01*
X188463D01*
X188827Y42392D01*
X189153Y42581D01*
X189419Y42847D01*
X189608Y43173D01*
X189705Y43537D01*
Y43913D01*
X189608Y44277D01*
X189419Y44603D01*
X189153Y44869D01*
X188827Y45058D01*
X188713Y45088D01*
Y47290D01*
X188880D01*
Y47657D01*
X189256D01*
X189271Y47620D01*
X189422Y47423D01*
X189619Y47272D01*
X189848Y47177D01*
X190094Y47145D01*
X190348D01*
X190594Y47177D01*
X190823Y47272D01*
X191020Y47423D01*
X191171Y47620D01*
X191266Y47849D01*
X191298Y48095D01*
X191266Y48341D01*
X191171Y48570D01*
X191020Y48767D01*
X190823Y48918D01*
X190594Y49013D01*
X190348Y49045D01*
D02*
G37*
G36*
X184866Y54453D02*
X184489D01*
X184126Y54355D01*
X183800Y54167D01*
X183533Y53901D01*
X183345Y53575D01*
X183248Y53211D01*
Y52834D01*
X183345Y52471D01*
X183533Y52145D01*
X183800Y51878D01*
X184126Y51690D01*
X184239Y51660D01*
Y48557D01*
X183873D01*
Y48416D01*
X183555D01*
Y48655D01*
X181945D01*
Y47495D01*
X183555D01*
Y47539D01*
X183873D01*
Y47397D01*
X185483D01*
Y47657D01*
X185720D01*
Y47290D01*
X186880D01*
Y48900D01*
X185720D01*
Y48533D01*
X185483D01*
Y48557D01*
X185116D01*
Y51660D01*
X185230Y51690D01*
X185556Y51878D01*
X185822Y52145D01*
X186010Y52471D01*
X186108Y52834D01*
Y53211D01*
X186010Y53575D01*
X185822Y53901D01*
X185556Y54167D01*
X185230Y54355D01*
X184866Y54453D01*
D02*
G37*
%LPD*%
D10*
X85849Y212175D02*
G03*
X83775Y210525I0J-2129D01*
G01*
X92975Y205341D02*
G03*
X90674Y210897I-7861J0D01*
G01*
X18494Y188243D02*
G03*
X19201Y187950I707J707D01*
G01*
X14325Y192826D02*
G03*
X14617Y192120I1000J0D01*
G01*
X38973Y182163D02*
G03*
X38680Y182870I-1000J0D01*
G01*
X33893Y187657D02*
G03*
X33186Y187950I-707J-707D01*
G01*
X19218Y184532D02*
G03*
X18511Y184825I-707J-707D01*
G01*
X14907Y185118D02*
G03*
X15614Y184825I707J707D01*
G01*
X8400Y192037D02*
G03*
X8691Y191334I1000J2D01*
G01*
X15737Y186643D02*
G03*
X16444Y186350I707J707D01*
G01*
X8692Y193612D02*
G03*
X8400Y192906I708J-706D01*
G01*
X37120Y180839D02*
G03*
X37412Y180133I1000J0D01*
G01*
X90674Y210897D02*
G03*
X87591Y212175I-3078J-3068D01*
G01*
X61657Y184668D02*
G03*
X62364Y184375I707J707D01*
G01*
X82975Y204000D02*
G03*
X83775Y204800I0J800D01*
G01*
X19192Y195717D02*
G03*
X18900Y195011I708J-706D01*
G01*
X20774Y196885D02*
G03*
X20068Y196593I0J-1000D01*
G01*
X171375Y93330D02*
Y111156D01*
Y73230D02*
Y93330D01*
X173700D01*
X171375Y55430D02*
Y73230D01*
X171585Y73440D02*
X173800D01*
X171375Y55430D02*
X173700Y53105D01*
X171375Y111156D02*
X173700Y113481D01*
X190186Y69965D02*
X190221Y70000D01*
X74950Y210525D02*
X75470D01*
X77400D01*
X92975Y202400D02*
Y205341D01*
X81775Y210525D02*
X83775D01*
X85849Y212175D02*
X87591D01*
X19201Y187950D02*
X29100D01*
X14617Y192120D02*
X18494Y188243D01*
X14325Y192826D02*
Y199871D01*
X29100Y187950D02*
X33186D01*
X38973Y177200D02*
Y182163D01*
X33893Y187657D02*
X38680Y182870D01*
X26560Y184475D02*
X31010D01*
X26560D02*
Y186350D01*
Y182905D02*
Y184475D01*
X19218Y184532D02*
X23000Y180750D01*
X15614Y184825D02*
X18511D01*
X23022Y180728D02*
X26560D01*
X26736Y180640D02*
X27300D01*
X26560Y182905D02*
X26611Y182853D01*
Y182828D02*
Y182853D01*
X23725Y186350D02*
X24058Y186350D01*
X26560Y186350D01*
X16444D02*
X23725D01*
X27300Y180640D02*
X29010D01*
X8691Y191334D02*
X14907Y185118D01*
X8400Y192037D02*
Y192906D01*
X10000Y192380D02*
X15737Y186643D01*
X14196Y200000D02*
X18700D01*
X14196D02*
X14325Y199871D01*
X8692Y193612D02*
X10000Y194920D01*
X29100Y187950D02*
Y190826D01*
X37120Y180839D02*
Y182116D01*
X34761Y184475D02*
X37120Y182116D01*
X38985Y174009D02*
Y177200D01*
X33190Y184475D02*
X34761D01*
X37412Y180133D02*
X37473Y180072D01*
X10000Y200000D02*
X14196D01*
X10000Y194920D02*
Y197460D01*
X80000Y210525D02*
X81775D01*
X83775Y209025D02*
X86875D01*
X56735Y189590D02*
X61657Y184668D01*
X78825Y208525D02*
X80000D01*
X80000Y208525D01*
X83775Y206975D02*
Y208775D01*
X79325Y204000D02*
X82975D01*
X83775Y204800D02*
Y206975D01*
X77400Y210525D02*
X80000D01*
X74975Y204000D02*
X79325D01*
X81775Y208525D02*
X81775Y208525D01*
X81775Y208525D02*
X81775Y208525D01*
X80000D02*
X81775D01*
X81775Y206975D02*
Y208525D01*
X74950Y203975D02*
X74975Y204000D01*
X79325Y197450D02*
X81775D01*
X74961D02*
X79325D01*
X74896Y197514D02*
X74961Y197450D01*
X79325Y190964D02*
X81775D01*
X77346D02*
X79325D01*
X74896D02*
X77346D01*
X54578Y192162D02*
X56735Y190004D01*
Y189590D02*
Y190004D01*
X54578Y192162D02*
Y192900D01*
X20774Y196885D02*
X22099D01*
X37080Y176657D02*
X37473Y177050D01*
X37080Y174009D02*
Y176657D01*
X37473Y177050D02*
Y177200D01*
X18900Y193650D02*
Y195011D01*
X18750Y193050D02*
X18900Y193650D01*
X19192Y195717D02*
X20068Y196593D01*
X18900Y193050D02*
X24336D01*
X26560Y190826D01*
X31010Y184475D02*
X33190D01*
X31010Y182490D02*
Y184475D01*
X33190Y182140D02*
Y184475D01*
X37473Y177200D02*
Y180072D01*
X31534Y180650D02*
X35120D01*
X28709Y177825D02*
X31534Y180650D01*
X26250Y177825D02*
X28709D01*
X35120Y180650D02*
X35175Y180595D01*
Y178875D02*
Y180595D01*
X33076Y174009D02*
X35175D01*
X30610Y176475D02*
X33076Y174009D01*
X35175Y176875D02*
X35175Y176875D01*
Y174009D02*
Y176875D01*
X29010Y180640D02*
Y182490D01*
D11*
X141300Y208500D02*
X141332Y208468D01*
Y196996D02*
Y208468D01*
X142275Y175525D02*
X144725D01*
X137674D02*
X142275D01*
X137666Y175517D02*
X137674Y175525D01*
X142275Y168975D02*
X144725D01*
X137825D02*
X142275D01*
X137800Y169000D02*
X137825Y168975D01*
X137800Y162450D02*
X140250D01*
X134275D02*
X137800D01*
D13*
X118600Y74493D02*
X118710Y74383D01*
Y46091D02*
Y74383D01*
X81590Y85034D02*
X114112D01*
X81939Y46290D02*
X118961D01*
D14*
X35292Y201767D02*
G03*
X34000Y198638I3142J-3129D01*
G01*
X36011Y191726D02*
G03*
X36435Y191550I424J424D01*
G01*
X35512Y192225D02*
G03*
X35088Y192400I-423J-425D01*
G01*
X38016Y196415D02*
G03*
X38440Y196590I0J600D01*
G01*
X34000Y197015D02*
G03*
X34600Y196415I600J0D01*
G01*
X42744Y194351D02*
G03*
X43168Y194175I424J424D01*
G01*
X40496Y196599D02*
G03*
X40071Y196775I-424J-424D01*
G01*
X48975Y210575D02*
G03*
X40652Y207127I0J-11769D01*
G01*
X21627Y199658D02*
G03*
X20921Y199950I-706J-708D01*
G01*
X38397Y198920D02*
G03*
X38196Y198955I-201J-565D01*
G01*
X35030Y189976D02*
G03*
X35454Y189801I423J425D01*
G01*
X44514D02*
G03*
X44938Y189977I0J600D01*
G01*
X46800Y191838D02*
G03*
X46975Y192262I-425J423D01*
G01*
Y195575D02*
G03*
X46375Y196175I-600J0D01*
G01*
X22698Y195319D02*
G03*
X23118Y195145I422J426D01*
G01*
X22099Y196165D02*
G03*
X22274Y195743I600J1D01*
G01*
X34000Y197015D02*
Y198636D01*
X34000Y198638D02*
X34000Y198636D01*
X35292Y201767D02*
X40652Y207127D01*
X36435Y191550D02*
X44750D01*
X35512Y192225D02*
X36011Y191726D01*
X33214Y192400D02*
X35088D01*
X34600Y196415D02*
X35900D01*
X38016D01*
X38440Y196590D02*
X38440Y196590D01*
X38625Y196775D01*
X40496Y196599D02*
X42744Y194351D01*
X43168Y194175D02*
X43168D01*
X45550D01*
X38625Y196775D02*
X40071D01*
X48975Y210575D02*
X48977Y210575D01*
X74950D01*
X18750Y199950D02*
X20921D01*
X22200Y199085D02*
X22300Y198985D01*
X21627Y199658D02*
X22200Y199085D01*
X45550Y196175D02*
X46375D01*
X38612Y198920D02*
Y200963D01*
X35900Y197685D02*
X37350D01*
X35900Y198955D02*
X38196D01*
X38525Y198875D02*
X38612Y198787D01*
Y198920D01*
Y198787D02*
X38625Y198775D01*
X38600Y200975D02*
X38612Y200963D01*
X35900Y195145D02*
Y196415D01*
X34180Y190826D02*
X35030Y189976D01*
X35454Y189801D02*
X44514D01*
X44938Y189977D02*
X46800Y191838D01*
X46975Y192262D02*
Y195575D01*
X44250Y196175D02*
X45550D01*
X44750Y191550D02*
X45550Y192350D01*
Y194175D01*
X31640Y190826D02*
X33214Y192400D01*
X38397Y198920D02*
X38525Y198875D01*
X38625Y198775D02*
X41650D01*
X41975Y198450D01*
X42925Y197500D02*
X44250Y196175D01*
X42125Y198450D02*
X42925Y197650D01*
Y197500D02*
Y197650D01*
X41975Y198450D02*
X42125D01*
X23504Y196415D02*
X25000D01*
X23504Y197685D02*
X25000D01*
X22099Y196165D02*
X22099Y196885D01*
X22099Y196985D01*
X23118Y195145D02*
X25000D01*
X22274Y195743D02*
X22698Y195319D01*
X22300Y198985D02*
X24970D01*
D15*
X187900Y52143D02*
D03*
Y50143D02*
D03*
X182750Y50075D02*
D03*
Y48075D02*
D03*
X179275D02*
D03*
Y50075D02*
D03*
X184729Y68288D02*
D03*
Y66288D02*
D03*
X187750Y71965D02*
D03*
Y69965D02*
D03*
X181275Y68300D02*
D03*
Y70300D02*
D03*
X182975D02*
D03*
Y68300D02*
D03*
X182752Y90200D02*
D03*
Y88200D02*
D03*
X187700Y111925D02*
D03*
Y109925D02*
D03*
X184678Y47977D02*
D03*
Y45977D02*
D03*
X179100Y88200D02*
D03*
Y90200D02*
D03*
X188000Y91965D02*
D03*
Y89965D02*
D03*
X184475Y88125D02*
D03*
Y86125D02*
D03*
X180975Y90200D02*
D03*
Y88200D02*
D03*
X181025Y50075D02*
D03*
Y48075D02*
D03*
X179500Y70300D02*
D03*
Y68300D02*
D03*
X179325Y108401D02*
D03*
Y110401D02*
D03*
X181008Y110401D02*
D03*
Y108401D02*
D03*
X182725Y110401D02*
D03*
Y108401D02*
D03*
X184426Y108333D02*
D03*
Y106333D02*
D03*
X80000Y210525D02*
D03*
Y208525D02*
D03*
X81775Y208525D02*
D03*
Y210525D02*
D03*
X22099Y198985D02*
D03*
Y196985D02*
D03*
X45550Y194175D02*
D03*
Y196175D02*
D03*
X38625Y198746D02*
D03*
Y196746D02*
D03*
X35175Y178875D02*
D03*
Y176875D02*
D03*
X26560Y182728D02*
D03*
Y180728D02*
D03*
D17*
X109421Y207675D02*
G03*
X108361Y207236I0J-1500D01*
G01*
X123838Y207237D02*
G03*
X122779Y207675I-1059J-1062D01*
G01*
X132280Y188075D02*
G03*
X132719Y187015I1500J0D01*
G01*
X84918Y184414D02*
G03*
X85977Y184852I0J1500D01*
G01*
X132280Y198174D02*
G03*
X131842Y199233I-1500J0D01*
G01*
X141172Y190900D02*
G03*
X141205Y190901I-2J1150D01*
G01*
X85977Y184852D02*
X108361Y207236D01*
X109421Y207675D02*
X122779D01*
X123838Y207237D02*
X123839Y207236D01*
X131842Y199233D01*
X132280Y188075D02*
Y198174D01*
X132719Y187015D02*
X137666Y182067D01*
X140116D01*
X132280Y198174D02*
Y198174D01*
X81775Y184414D02*
X84918D01*
X134820Y190900D02*
X141172D01*
X141205D02*
Y190901D01*
Y190900D02*
X141459Y191154D01*
X62364Y184375D02*
X79777D01*
X79325Y184414D02*
X81775D01*
D18*
X218452Y115088D02*
D03*
X218477Y95088D02*
D03*
X218448Y55076D02*
D03*
X218498Y75088D02*
D03*
D19*
X232239Y174936D02*
D03*
X232239Y94936D02*
D03*
X232239Y74936D02*
D03*
X232239Y114937D02*
D03*
X232239Y54937D02*
D03*
X232239Y159936D02*
D03*
X232239Y189936D02*
D03*
X232239Y144937D02*
D03*
X9761Y165063D02*
D03*
D20*
X98898Y88044D02*
D03*
X100187Y112659D02*
D03*
X101073Y48369D02*
D03*
D24*
X137513Y100147D02*
D03*
D29*
X12462Y104729D02*
D03*
D33*
X9761Y150064D02*
D03*
X9761Y35064D02*
D03*
X9761Y20064D02*
D03*
D34*
X141206Y190583D02*
D03*
Y197567D02*
D03*
D36*
X10175Y156739D02*
D03*
D37*
X44000Y124575D02*
D03*
Y114034D02*
D03*
X81710Y124514D02*
D03*
Y113973D02*
D03*
X118870Y124514D02*
D03*
X81590Y85034D02*
D03*
Y74493D02*
D03*
Y46091D02*
D03*
Y35550D02*
D03*
X118870Y113973D02*
D03*
X118600Y74493D02*
D03*
Y85034D02*
D03*
X118710Y35550D02*
D03*
Y46091D02*
D03*
X43850Y35525D02*
D03*
Y46066D02*
D03*
X44000Y74632D02*
D03*
Y85173D02*
D03*
D38*
X173700Y48025D02*
D03*
Y50565D02*
D03*
Y88250D02*
D03*
Y90790D02*
D03*
Y108401D02*
D03*
Y110941D02*
D03*
X173800Y68360D02*
D03*
Y70900D02*
D03*
X26015Y205300D02*
D03*
X23475D02*
D03*
X20935D02*
D03*
X18395D02*
D03*
X10000Y200000D02*
D03*
Y197460D02*
D03*
Y194920D02*
D03*
Y192380D02*
D03*
D39*
X173700Y53105D02*
D03*
Y93330D02*
D03*
Y113481D02*
D03*
X173800Y73440D02*
D03*
D40*
X179275Y55175D02*
D03*
X188275Y43725D02*
D03*
X184678Y53023D02*
D03*
X184729Y73475D02*
D03*
X179500Y75250D02*
D03*
X188325Y64555D02*
D03*
X188000Y84300D02*
D03*
X184425Y114050D02*
D03*
X187938Y104200D02*
D03*
X179275Y114625D02*
D03*
X179100Y94250D02*
D03*
X184450Y92675D02*
D03*
X159950Y170400D02*
D03*
X129050Y208500D02*
D03*
X38600Y200975D02*
D03*
X41975Y212025D02*
D03*
X86875Y209025D02*
D03*
X26250Y177825D02*
D03*
X30834Y176251D02*
D03*
X22622Y181128D02*
D03*
D41*
X190221Y48095D02*
D03*
Y50000D02*
D03*
Y51905D02*
D03*
Y68095D02*
D03*
Y70000D02*
D03*
Y71905D02*
D03*
Y88095D02*
D03*
Y90000D02*
D03*
Y91905D02*
D03*
Y108095D02*
D03*
Y110000D02*
D03*
Y111905D02*
D03*
D42*
X211811Y44920D02*
D03*
Y55080D02*
D03*
Y64920D02*
D03*
Y75080D02*
D03*
Y84920D02*
D03*
Y95080D02*
D03*
Y104920D02*
D03*
Y115080D02*
D03*
D43*
X225000Y175000D02*
D03*
Y95000D02*
D03*
Y75000D02*
D03*
Y115000D02*
D03*
Y55000D02*
D03*
Y160000D02*
D03*
Y190000D02*
D03*
Y145000D02*
D03*
X15000Y150000D02*
D03*
Y165000D02*
D03*
Y35000D02*
D03*
Y20000D02*
D03*
D44*
X156280Y52675D02*
D03*
X156330Y72650D02*
D03*
X156280Y110395D02*
D03*
X156330Y130370D02*
D03*
Y101190D02*
D03*
X156280Y81215D02*
D03*
X5815Y131230D02*
D03*
X5765Y111255D02*
D03*
X5725Y73700D02*
D03*
X5675Y53725D02*
D03*
X5765Y101880D02*
D03*
X5715Y81905D02*
D03*
D45*
X120872Y198132D02*
D03*
X120770Y188048D02*
D03*
X120592Y157543D02*
D03*
X120745Y147332D02*
D03*
X54451Y203212D02*
D03*
X54578Y192900D02*
D03*
X54527Y157314D02*
D03*
Y147231D02*
D03*
D46*
X113074Y147205D02*
D03*
X113125Y157365D02*
D03*
X113175Y187921D02*
D03*
X113125Y198081D02*
D03*
X62299Y203034D02*
D03*
X62350Y192900D02*
D03*
X62325Y157340D02*
D03*
X62274Y147154D02*
D03*
D47*
X145305Y133153D02*
D03*
Y108007D02*
D03*
Y75400D02*
D03*
Y50254D02*
D03*
Y104403D02*
D03*
Y79257D02*
D03*
X16790Y133586D02*
D03*
Y108440D02*
D03*
X16820Y75820D02*
D03*
Y50674D02*
D03*
Y104683D02*
D03*
Y79537D02*
D03*
D48*
X42160Y152419D02*
D03*
X32000D02*
D03*
D49*
X38985Y174009D02*
D03*
X37080D02*
D03*
X35175D02*
D03*
D50*
X164700Y194075D02*
D03*
D51*
X141332Y196996D02*
D03*
X141459Y191154D02*
D03*
D52*
X134275Y174450D02*
D03*
Y162450D02*
D03*
D53*
X132280Y190900D02*
D03*
X134820D02*
D03*
D54*
X26560Y190826D02*
D03*
D55*
X29100D02*
D03*
X31640D02*
D03*
X34180D02*
D03*
D56*
X136300Y208500D02*
D03*
D57*
X141300D02*
D03*
D58*
X26560Y186350D02*
D03*
X37350Y197685D02*
D03*
X23504Y196415D02*
D03*
Y197685D02*
D03*
D59*
X92975Y202400D02*
D03*
D60*
X78825Y208525D02*
D03*
D61*
X176721Y70754D02*
G03*
X176368Y70900I-353J-354D01*
G01*
X187675Y53268D02*
G03*
X187529Y53621I-500J0D01*
G01*
X183871Y57279D02*
G03*
X183518Y57425I-354J-354D01*
G01*
X187421Y49651D02*
G03*
X187275Y49298I354J-353D01*
G01*
X187129Y46481D02*
G03*
X187275Y46835I-354J354D01*
G01*
X178227Y57425D02*
G03*
X177874Y57279I0J-500D01*
G01*
X185714Y108282D02*
G03*
X185493Y108333I-221J-449D01*
G01*
X184771Y117204D02*
G03*
X184418Y117350I-354J-354D01*
G01*
X181855Y86271D02*
G03*
X182207Y86125I353J354D01*
G01*
X180992Y87340D02*
G03*
X181138Y86987I500J0D01*
G01*
X185900Y86125D02*
G03*
X187000Y87225I0J1100D01*
G01*
X187492Y89762D02*
G03*
X187325Y89652I186J-464D01*
G01*
X187238Y89565D02*
G03*
X187000Y88989I580J-577D01*
G01*
X176756Y90644D02*
G03*
X176403Y90790I-354J-354D01*
G01*
X181250Y67645D02*
G03*
X181395Y67292I500J0D01*
G01*
X182254Y66434D02*
G03*
X182607Y66288I353J354D01*
G01*
X186786D02*
G03*
X187138Y66433I0J500D01*
G01*
X187180Y66475D02*
G03*
X187325Y66827I-354J353D01*
G01*
X178202Y77525D02*
G03*
X177849Y77379I0J-500D01*
G01*
X187750Y73468D02*
G03*
X187605Y73820I-500J0D01*
G01*
X184046Y77379D02*
G03*
X183693Y77525I-353J-354D01*
G01*
X186325Y68095D02*
G03*
X185737Y68288I-590J-807D01*
G01*
X187750Y71965D02*
Y73468D01*
X187810Y71905D02*
X190221D01*
X187750Y71965D02*
X187810Y71905D01*
X184475Y88095D02*
X186000D01*
X182857D02*
X184475D01*
X182752Y88200D02*
X182857Y88095D01*
X184425Y92700D02*
X184475Y92650D01*
Y88125D02*
Y92650D01*
X173855Y73385D02*
X177849Y77379D01*
X171375Y73230D02*
X171585Y73440D01*
X173700Y53105D02*
X177874Y57279D01*
X176721Y70754D02*
X176721Y70754D01*
X177175Y70300D01*
X173800Y70900D02*
X176368D01*
X173700Y68325D02*
X181250D01*
X187675Y51905D02*
Y53268D01*
X178227Y57425D02*
X183518D01*
X183871Y57279D02*
X187529Y53621D01*
X186625Y45977D02*
X187129Y46481D01*
X187275Y46835D02*
Y49298D01*
X187421Y49651D02*
X187675Y49905D01*
X184678Y47977D02*
Y53023D01*
X173700Y48025D02*
X173750Y48075D01*
X179275D01*
X181025D01*
X181025Y48075D02*
X181025Y48075D01*
X181025Y46977D02*
Y48075D01*
Y46977D02*
X182025Y45977D01*
X184678D01*
X186625D01*
X184678Y47977D02*
X184795Y48095D01*
X186300D01*
X182750Y48075D02*
X182848Y47977D01*
X184678D01*
X181025Y50075D02*
X182750D01*
X179275D02*
X181025D01*
X173760Y50625D02*
X177475D01*
X173700Y50565D02*
X173760Y50625D01*
X177475D02*
X178025Y50075D01*
X179275D01*
X179275Y50075D02*
Y55175D01*
X179275Y50075D02*
X179275Y50075D01*
X187675Y51905D02*
X190221D01*
X187675Y49905D02*
X190126D01*
X190221Y50000D01*
X188300Y48095D02*
X190221D01*
X188275Y48070D02*
X188300Y48095D01*
X188275Y43725D02*
Y48070D01*
X187938Y104200D02*
Y108095D01*
X185714Y108282D02*
X185788Y108245D01*
X184426Y108333D02*
X185493D01*
X185788Y108245D02*
X185938Y108095D01*
X183100Y108333D02*
X184426D01*
X182725Y108401D02*
X183100Y108333D01*
X184425Y114050D02*
X184426Y114049D01*
Y108333D02*
Y114049D01*
X179325Y110401D02*
X181008D01*
X177715D02*
X179325D01*
X179275Y110451D02*
X179325Y110401D01*
X179275Y110451D02*
Y114625D01*
X181008Y110401D02*
X182725D01*
X173700Y110941D02*
X177175D01*
X177715Y110401D01*
X173700Y108401D02*
X179325D01*
X179325Y108401D02*
X181008D01*
X179325Y108401D02*
X179325Y108401D01*
X181008Y107333D02*
Y108401D01*
X181008Y108401D01*
X181008Y107333D02*
X182008Y106333D01*
X184426D01*
X186338D01*
X186938Y106933D01*
X187325Y109775D02*
X187475Y109925D01*
X187325Y109550D02*
Y109775D01*
X186938Y106933D02*
Y109163D01*
X187475Y109925D02*
X187700D01*
X186938Y109163D02*
X187325Y109550D01*
X177569Y117350D02*
X184418D01*
X184771Y117204D02*
X187700Y114275D01*
X173700Y113481D02*
X177569Y117350D01*
X187700Y111925D02*
Y114275D01*
X187720Y111905D02*
X190221D01*
X187700Y111925D02*
X187720Y111905D01*
X187700Y109925D02*
X187775Y110000D01*
X190221D01*
X187938Y108095D02*
X187938Y108095D01*
X190221D01*
X181138Y86987D02*
X181855Y86271D01*
X182207Y86125D02*
X184475D01*
X180992Y87340D02*
Y88050D01*
X180975Y88200D02*
X180992Y88050D01*
X184475Y86125D02*
X185900D01*
X187000Y87225D02*
Y88638D01*
X187000Y88989D02*
X187000Y88638D01*
X187492Y89762D02*
X187625Y89815D01*
X187238Y89565D02*
X187325Y89652D01*
X187625Y89815D02*
X188000Y89965D01*
X190221Y88095D02*
X190221Y88095D01*
X188000Y88095D02*
X190221D01*
X188000Y84300D02*
Y88095D01*
X188000Y89965D02*
X188035Y90000D01*
X190221D01*
X190161Y91965D02*
X190221Y91905D01*
X188000Y91965D02*
X190161D01*
X187625Y92115D02*
X187775Y91965D01*
X183304Y96661D02*
X187625Y92340D01*
X187775Y91965D02*
X188000D01*
X187625Y92115D02*
Y92340D01*
X177031Y96661D02*
X183304D01*
X173700Y93330D02*
X177031Y96661D01*
X179100Y90200D02*
Y94250D01*
X179100Y90200D02*
X179100Y90200D01*
X173700Y90790D02*
X176403D01*
X176756Y90644D02*
X177200Y90200D01*
X179100D01*
X180975D02*
X182752D01*
X179100D02*
X180975D01*
X179100Y88200D02*
X180975D01*
X173750D02*
X179100D01*
X173700Y88250D02*
X173750Y88200D01*
X184729Y66288D02*
X186786D01*
X182607D02*
X184729D01*
X181250Y67645D02*
Y68150D01*
X181275Y68300D01*
X181395Y67292D02*
X182254Y66434D01*
X187138Y66433D02*
X187180Y66475D01*
X187325Y66827D02*
Y69540D01*
X187375Y69815D02*
X187525Y69965D01*
X187325Y69540D02*
X187375Y69590D01*
X187525Y69965D02*
X187750D01*
X187375Y69590D02*
Y69815D01*
X188325Y64555D02*
Y68095D01*
X188325Y68095D02*
X190221D01*
X187750Y69965D02*
X190186D01*
X178202Y77525D02*
X183693D01*
X184046Y77379D02*
X187605Y73820D01*
X184729Y68288D02*
X185737D01*
X184717Y68300D02*
X184729Y68288D01*
X182975Y68300D02*
X184717D01*
X184729Y68288D02*
Y73475D01*
X179500Y70300D02*
X179500Y70300D01*
X179500Y70300D02*
Y75250D01*
X181275Y70300D02*
X182975D01*
X179500D02*
X181275D01*
X177175D02*
X179500D01*
X181250Y68325D02*
X181275Y68300D01*
D62*
X186300Y48095D02*
D03*
X188300D02*
D03*
X186325Y68095D02*
D03*
X188325D02*
D03*
X186000Y88095D02*
D03*
X188000D02*
D03*
X185938Y108095D02*
D03*
X187938D02*
D03*
X81775Y206975D02*
D03*
X83775D02*
D03*
X29010Y182490D02*
D03*
X31010D02*
D03*
X37120Y180650D02*
D03*
X35120D02*
D03*
X31010Y180640D02*
D03*
X29010D02*
D03*
D63*
X35900Y198955D02*
D03*
Y197685D02*
D03*
Y196415D02*
D03*
Y195145D02*
D03*
X25000D02*
D03*
Y196415D02*
D03*
Y197685D02*
D03*
Y198955D02*
D03*
D64*
X140250Y169000D02*
D03*
Y162450D02*
D03*
X137800Y169000D02*
D03*
Y162450D02*
D03*
X81775Y204000D02*
D03*
Y197450D02*
D03*
X79325Y204000D02*
D03*
Y197450D02*
D03*
X81775Y190964D02*
D03*
Y184414D02*
D03*
X79325Y190964D02*
D03*
Y184414D02*
D03*
X77346Y197514D02*
D03*
Y190964D02*
D03*
X74896Y197514D02*
D03*
Y190964D02*
D03*
X77400Y210525D02*
D03*
Y203975D02*
D03*
X74950Y210525D02*
D03*
Y203975D02*
D03*
X137666Y175517D02*
D03*
Y182067D02*
D03*
X140116Y175517D02*
D03*
Y182067D02*
D03*
X142275Y168975D02*
D03*
Y175525D02*
D03*
X144725Y168975D02*
D03*
Y175525D02*
D03*
D65*
X41975Y198450D02*
D03*
Y191550D02*
D03*
X18750Y199950D02*
D03*
Y193050D02*
D03*
D66*
X83775Y210525D02*
D03*
Y209025D02*
D03*
X33190Y182140D02*
D03*
Y180640D02*
D03*
D67*
X38973Y177200D02*
D03*
X37473D02*
D03*
D68*
X115275Y99501D02*
D03*
D69*
X85187Y99517D02*
D03*
D70*
X114219Y60266D02*
D03*
D71*
X104245Y73356D02*
D03*
D72*
X85175Y60471D02*
D03*
D73*
X50180Y60350D02*
D03*
D74*
X50375Y99612D02*
D03*
D75*
X24298Y111846D02*
D03*
D76*
X15225Y73887D02*
D03*
D77*
X26773Y70534D02*
D03*
D78*
X10238Y34338D02*
D03*
%TF.MD5,126c56945d4fd3171c104193f1b8ce53*%
M02*
