%TF.GenerationSoftware,Altium Limited,Altium Designer,24.7.2 (38)*%
G04 Layer_Color=32768*
%FSLAX43Y43*%
%MOMM*%
%TF.SameCoordinates,3DDE4B3C-03A5-4BC3-9972-2EF5A5DF1AA7*%
%TF.FilePolarity,Positive*%
%TF.FileFunction,Other,Mechanical_15*%
%TF.Part,Single*%
G01*
G75*
%TA.AperFunction,NonConductor*%
%ADD81C,0.200*%
%ADD106C,0.100*%
%ADD109C,0.050*%
D81*
X137750Y171817D02*
X139300D01*
Y175217D01*
X137750D02*
X139300D01*
X137750Y171817D02*
Y175217D01*
D106*
X138025Y173517D02*
X139025D01*
X138525Y173017D02*
Y174017D01*
D109*
X170825Y46385D02*
X177175D01*
Y54745D01*
X170825D02*
X177175D01*
X170825Y46385D02*
Y54745D01*
X174000Y50065D02*
Y51065D01*
X173500Y50565D02*
X174500D01*
X170825Y86610D02*
X177175D01*
Y94970D01*
X170825D02*
X177175D01*
X170825Y86610D02*
Y94970D01*
X174000Y90290D02*
Y91290D01*
X173500Y90790D02*
X174500D01*
X170825Y106761D02*
X177175D01*
Y115121D01*
X170825D02*
X177175D01*
X170825Y106761D02*
Y115121D01*
X174000Y110441D02*
Y111441D01*
X173500Y110941D02*
X174500D01*
X170925Y66720D02*
X177275D01*
Y75080D01*
X170925D02*
X177275D01*
X170925Y66720D02*
Y75080D01*
X174100Y70400D02*
Y71400D01*
X173600Y70900D02*
X174600D01*
%TF.MD5,e7926f21855fa9917f0187ccac935445*%
M02*
