M48
;Layer_Color=9474304
;FILE_FORMAT=4:3
METRIC,LZ
;TYPE=PLATED
T12F00S00C2.286
%
G90
G05
T12
G00X0211811Y0046254
M15
G01Y0043586
M16
G00X0211811Y0056414
M15
G01Y0053746
M16
G00X0211811Y0066254
M15
G01Y0063586
M16
G00X0211811Y0076413
M15
G01Y0073746
M16
G00X0211811Y0086254
M15
G01Y0083587
M16
G00X0211811Y0096413
M15
G01Y0093746
M16
G00X0211811Y0106254
M15
G01Y0103587
M16
G00X0211811Y0116413
M15
G01Y0113746
M16
G00X0043493Y0152419
M15
G01X0040826
M16
G00X0033333Y0152419
M15
G01X0030667
M16
M17
M30
