%TF.GenerationSoftware,Altium Limited,Altium Designer,24.7.2 (38)*%
G04 Layer_Physical_Order=1*
G04 Layer_Color=255*
%FSLAX43Y43*%
%MOMM*%
%TF.SameCoordinates,3DDE4B3C-03A5-4BC3-9972-2EF5A5DF1AA7*%
%TF.FilePolarity,Positive*%
%TF.FileFunction,Copper,L1,Top,Signal*%
%TF.Part,Single*%
G01*
G75*
%TA.AperFunction,Conductor*%
%ADD10C,1.000*%
%ADD11C,2.000*%
%ADD12C,3.000*%
%ADD13C,5.000*%
%ADD14C,0.600*%
%TA.AperFunction,SMDPad,CuDef*%
%ADD15R,1.250X0.800*%
%ADD16R,1.200X1.100*%
%TA.AperFunction,Conductor*%
%ADD17C,1.500*%
%ADD18R,18.454X8.875*%
%ADD19R,14.478X11.557*%
%ADD20R,37.674X7.618*%
%ADD21R,12.275X33.923*%
%ADD22R,41.639X9.553*%
%ADD23R,12.525X33.684*%
%ADD24R,40.634X23.495*%
%ADD25R,12.250X33.440*%
%ADD26R,22.650X33.844*%
%ADD27R,22.859X33.793*%
%ADD28R,40.145X9.500*%
%ADD29R,16.475X10.825*%
%ADD30R,23.100X20.300*%
%ADD31R,40.145X13.393*%
%ADD32R,9.788X33.018*%
%TA.AperFunction,NonConductor*%
%ADD33R,14.478X11.557*%
%TA.AperFunction,Conductor*%
%ADD34R,8.382X5.969*%
%ADD35R,23.350X31.100*%
%ADD36R,16.150X30.477*%
%TA.AperFunction,ComponentPad*%
%ADD37C,5.000*%
%ADD38C,1.500*%
%ADD39R,1.500X1.500*%
%ADD40C,2.500*%
%ADD41O,1.778X1.524*%
%ADD42O,5.080X8.890*%
%ADD43C,14.000*%
%ADD44C,3.000*%
%ADD45C,8.000*%
%ADD46C,4.064*%
%ADD47C,2.032*%
%ADD48O,8.890X5.080*%
%ADD49O,1.524X1.778*%
%ADD50C,6.000*%
%ADD51O,6.600X4.826*%
%ADD52O,3.000X3.100*%
%ADD53C,1.600*%
%ADD54R,1.550X1.550*%
%ADD55C,1.550*%
%ADD56C,1.950*%
G04:AMPARAMS|DCode=57|XSize=1.95mm|YSize=1.95mm|CornerRadius=0.488mm|HoleSize=0mm|Usage=FLASHONLY|Rotation=180.000|XOffset=0mm|YOffset=0mm|HoleType=Round|Shape=RoundedRectangle|*
%AMROUNDEDRECTD57*
21,1,1.950,0.975,0,0,180.0*
21,1,0.975,1.950,0,0,180.0*
1,1,0.975,-0.488,0.488*
1,1,0.975,0.488,0.488*
1,1,0.975,0.488,-0.488*
1,1,0.975,-0.488,-0.488*
%
%ADD57ROUNDEDRECTD57*%
%TA.AperFunction,ViaPad*%
%ADD58C,1.000*%
%ADD59C,1.500*%
%ADD60C,0.800*%
G36*
X36475Y155312D02*
Y149425D01*
X28550Y141500D01*
X2450Y141500D01*
Y143986D01*
X2522Y144101D01*
X17000D01*
X17070Y144115D01*
X17130Y144155D01*
X17170Y144215D01*
X17184Y144285D01*
Y155842D01*
X17170Y155912D01*
X17130Y155972D01*
X17070Y156012D01*
X17000Y156026D01*
X2522D01*
X2450Y156141D01*
Y171977D01*
X19810D01*
X36475Y155312D01*
D02*
G37*
G36*
X67000Y143075D02*
D01*
X67000Y127000D01*
X61200Y121200D01*
X11227Y121200D01*
X4427Y128000D01*
Y135387D01*
X24725D01*
Y135400D01*
X37725Y148400D01*
Y152409D01*
Y154959D01*
X48888D01*
Y135387D01*
X50150D01*
Y147775D01*
X50150D01*
Y207212D01*
X67000D01*
Y143075D01*
D02*
G37*
G36*
X125977Y199269D02*
Y144977D01*
X122875Y141875D01*
X96050D01*
Y138775D01*
X125950Y138775D01*
X184100Y196925D01*
X239562D01*
X239562Y137950D01*
X183650D01*
X166025Y120325D01*
X82075D01*
X79275Y123125D01*
Y168550D01*
X113175Y202450D01*
X122796D01*
X125977Y199269D01*
D02*
G37*
G36*
X129427Y108413D02*
X129418Y108286D01*
X121453Y102306D01*
X121339Y102363D01*
X121339Y116335D01*
X121456Y116383D01*
X129427Y108413D01*
D02*
G37*
G36*
X26979Y108767D02*
X26990Y108640D01*
X18140Y99790D01*
X18020Y99830D01*
X17325Y104555D01*
Y107655D01*
Y109755D01*
Y115466D01*
X17438Y115525D01*
X26979Y108767D01*
D02*
G37*
G36*
X41369Y115111D02*
Y109399D01*
Y107299D01*
Y104199D01*
X40675Y99475D01*
X40554Y99435D01*
X31704Y108285D01*
X31715Y108411D01*
X41256Y115170D01*
X41369Y115111D01*
D02*
G37*
G36*
X129223Y90509D02*
X129158Y90443D01*
X129183Y90383D01*
X121419Y82619D01*
X121292Y82627D01*
X115467Y90386D01*
X115521Y90495D01*
X115507Y90513D01*
X115564Y90626D01*
X129175D01*
X129223Y90509D01*
D02*
G37*
G36*
X35575Y75150D02*
X35564Y75024D01*
X26534Y68628D01*
X38600Y73791D01*
X38706Y73721D01*
Y43910D01*
X38589Y43861D01*
X17712Y64738D01*
X17736Y64862D01*
X25910Y68360D01*
Y74036D01*
Y76136D01*
Y79236D01*
X26604Y83960D01*
X26725Y84000D01*
X35575Y75150D01*
D02*
G37*
G36*
X157850Y71950D02*
X129500Y43600D01*
X118400D01*
Y70900D01*
X130225Y82725D01*
X157850D01*
Y71950D01*
D02*
G37*
G36*
X191525Y44550D02*
X189125Y42150D01*
X175525D01*
X168300Y49375D01*
Y112000D01*
X176700Y120400D01*
X191525D01*
Y44550D01*
D02*
G37*
G36*
X214351Y100325D02*
X208200D01*
Y89276D01*
X214351D01*
Y80517D01*
X208200D01*
Y69328D01*
X214351D01*
Y60491D01*
X208200D01*
Y49365D01*
X216250D01*
Y38088D01*
Y12875D01*
X2450D01*
Y13987D01*
X2522Y14102D01*
X17000D01*
X17070Y14116D01*
X17130Y14155D01*
X17170Y14215D01*
X17184Y14285D01*
Y25842D01*
X17170Y25912D01*
X17130Y25972D01*
X17070Y26012D01*
X17000Y26026D01*
X2522D01*
X2450Y26141D01*
Y28986D01*
X2522Y29102D01*
X17000D01*
X17070Y29116D01*
X17130Y29155D01*
X17169Y29215D01*
X17183Y29285D01*
Y40842D01*
X17169Y40912D01*
X17130Y40972D01*
X17070Y41012D01*
X17000Y41026D01*
X2522D01*
X2450Y41141D01*
Y56025D01*
X18675Y56025D01*
X36200Y38500D01*
X131625D01*
X147843Y54718D01*
X156707D01*
X172925Y38500D01*
X190000D01*
X195125Y43625D01*
Y105675D01*
X198815Y109365D01*
X214351D01*
Y100325D01*
D02*
G37*
%LPC*%
G36*
X179463Y116055D02*
X179087D01*
X178723Y115958D01*
X178397Y115769D01*
X178131Y115503D01*
X177942Y115177D01*
X177845Y114813D01*
Y114437D01*
X177942Y114073D01*
X178131Y113747D01*
X178397Y113481D01*
X178723Y113292D01*
X179087Y113195D01*
X179463D01*
X179827Y113292D01*
X180153Y113481D01*
X180419Y113747D01*
X180608Y114073D01*
X180705Y114437D01*
Y114813D01*
X180608Y115177D01*
X180419Y115503D01*
X180153Y115769D01*
X179827Y115958D01*
X179463Y116055D01*
D02*
G37*
G36*
X184613Y115480D02*
X184237D01*
X183873Y115383D01*
X183547Y115194D01*
X183281Y114928D01*
X183092Y114602D01*
X182995Y114238D01*
Y113862D01*
X183092Y113498D01*
X183281Y113172D01*
X183547Y112906D01*
X183873Y112717D01*
X184237Y112620D01*
X184613D01*
X184977Y112717D01*
X185303Y112906D01*
X185569Y113172D01*
X185758Y113498D01*
X185855Y113862D01*
Y114238D01*
X185758Y114602D01*
X185569Y114928D01*
X185303Y115194D01*
X184977Y115383D01*
X184613Y115480D01*
D02*
G37*
G36*
X174630Y114411D02*
X172770D01*
Y112551D01*
X174630D01*
Y114411D01*
D02*
G37*
G36*
X190348Y112855D02*
X190094D01*
X189848Y112823D01*
X189619Y112728D01*
X189422Y112577D01*
X189271Y112380D01*
X189176Y112151D01*
X189144Y111905D01*
X189176Y111659D01*
X189271Y111430D01*
X189422Y111233D01*
X189619Y111082D01*
X189848Y110987D01*
X190094Y110955D01*
X190348D01*
X190594Y110987D01*
X190823Y111082D01*
X191020Y111233D01*
X191171Y111430D01*
X191266Y111659D01*
X191298Y111905D01*
X191266Y112151D01*
X191171Y112380D01*
X191020Y112577D01*
X190823Y112728D01*
X190594Y112823D01*
X190348Y112855D01*
D02*
G37*
G36*
X173822Y111871D02*
X173578D01*
X173341Y111808D01*
X173129Y111685D01*
X172956Y111512D01*
X172833Y111300D01*
X172770Y111063D01*
Y110819D01*
X172833Y110582D01*
X172956Y110370D01*
X173129Y110197D01*
X173341Y110074D01*
X173578Y110011D01*
X173822D01*
X174059Y110074D01*
X174271Y110197D01*
X174444Y110370D01*
X174567Y110582D01*
X174630Y110819D01*
Y111063D01*
X174567Y111300D01*
X174444Y111512D01*
X174271Y111685D01*
X174059Y111808D01*
X173822Y111871D01*
D02*
G37*
G36*
X190348Y109045D02*
X190094D01*
X189848Y109013D01*
X189619Y108918D01*
X189422Y108767D01*
X189271Y108570D01*
X189176Y108341D01*
X189144Y108095D01*
X189176Y107849D01*
X189271Y107620D01*
X189422Y107423D01*
X189619Y107272D01*
X189848Y107177D01*
X190094Y107145D01*
X190348D01*
X190594Y107177D01*
X190823Y107272D01*
X191020Y107423D01*
X191171Y107620D01*
X191266Y107849D01*
X191298Y108095D01*
X191266Y108341D01*
X191171Y108570D01*
X191020Y108767D01*
X190823Y108918D01*
X190594Y109013D01*
X190348Y109045D01*
D02*
G37*
G36*
X188126Y105630D02*
X187750D01*
X187386Y105533D01*
X187060Y105344D01*
X186794Y105078D01*
X186605Y104752D01*
X186508Y104388D01*
Y104012D01*
X186605Y103648D01*
X186794Y103322D01*
X187060Y103056D01*
X187386Y102867D01*
X187750Y102770D01*
X188126D01*
X188490Y102867D01*
X188816Y103056D01*
X189082Y103322D01*
X189271Y103648D01*
X189368Y104012D01*
Y104388D01*
X189271Y104752D01*
X189082Y105078D01*
X188816Y105344D01*
X188490Y105533D01*
X188126Y105630D01*
D02*
G37*
G36*
X179288Y95680D02*
X178912D01*
X178548Y95583D01*
X178222Y95394D01*
X177956Y95128D01*
X177767Y94802D01*
X177670Y94438D01*
Y94062D01*
X177767Y93698D01*
X177956Y93372D01*
X178222Y93106D01*
X178548Y92917D01*
X178912Y92820D01*
X179288D01*
X179652Y92917D01*
X179978Y93106D01*
X180244Y93372D01*
X180433Y93698D01*
X180530Y94062D01*
Y94438D01*
X180433Y94802D01*
X180244Y95128D01*
X179978Y95394D01*
X179652Y95583D01*
X179288Y95680D01*
D02*
G37*
G36*
X174630Y94260D02*
X172770D01*
Y92400D01*
X174630D01*
Y94260D01*
D02*
G37*
G36*
X184638Y94105D02*
X184262D01*
X183898Y94008D01*
X183572Y93819D01*
X183306Y93553D01*
X183117Y93227D01*
X183020Y92863D01*
Y92487D01*
X183117Y92123D01*
X183306Y91797D01*
X183572Y91531D01*
X183898Y91342D01*
X184262Y91245D01*
X184638D01*
X185002Y91342D01*
X185328Y91531D01*
X185594Y91797D01*
X185783Y92123D01*
X185880Y92487D01*
Y92863D01*
X185783Y93227D01*
X185594Y93553D01*
X185328Y93819D01*
X185002Y94008D01*
X184638Y94105D01*
D02*
G37*
G36*
X190348Y92855D02*
X190094D01*
X189848Y92823D01*
X189619Y92728D01*
X189422Y92577D01*
X189271Y92380D01*
X189176Y92151D01*
X189144Y91905D01*
X189176Y91659D01*
X189271Y91430D01*
X189422Y91233D01*
X189619Y91082D01*
X189848Y90987D01*
X190094Y90955D01*
X190348D01*
X190594Y90987D01*
X190823Y91082D01*
X191020Y91233D01*
X191171Y91430D01*
X191266Y91659D01*
X191298Y91905D01*
X191266Y92151D01*
X191171Y92380D01*
X191020Y92577D01*
X190823Y92728D01*
X190594Y92823D01*
X190348Y92855D01*
D02*
G37*
G36*
X173822Y91720D02*
X173578D01*
X173341Y91657D01*
X173129Y91534D01*
X172956Y91361D01*
X172833Y91149D01*
X172770Y90912D01*
Y90668D01*
X172833Y90431D01*
X172956Y90219D01*
X173129Y90046D01*
X173341Y89923D01*
X173578Y89860D01*
X173822D01*
X174059Y89923D01*
X174271Y90046D01*
X174444Y90219D01*
X174567Y90431D01*
X174630Y90668D01*
Y90912D01*
X174567Y91149D01*
X174444Y91361D01*
X174271Y91534D01*
X174059Y91657D01*
X173822Y91720D01*
D02*
G37*
G36*
X190348Y89045D02*
X190094D01*
X189848Y89013D01*
X189619Y88918D01*
X189422Y88767D01*
X189271Y88570D01*
X189176Y88341D01*
X189144Y88095D01*
X189176Y87849D01*
X189271Y87620D01*
X189422Y87423D01*
X189619Y87272D01*
X189848Y87177D01*
X190094Y87145D01*
X190348D01*
X190594Y87177D01*
X190823Y87272D01*
X191020Y87423D01*
X191171Y87620D01*
X191266Y87849D01*
X191298Y88095D01*
X191266Y88341D01*
X191171Y88570D01*
X191020Y88767D01*
X190823Y88918D01*
X190594Y89013D01*
X190348Y89045D01*
D02*
G37*
G36*
X188188Y85730D02*
X187812D01*
X187448Y85633D01*
X187122Y85444D01*
X186856Y85178D01*
X186668Y84852D01*
X186570Y84488D01*
Y84112D01*
X186668Y83748D01*
X186856Y83422D01*
X187122Y83156D01*
X187448Y82968D01*
X187812Y82870D01*
X188188D01*
X188552Y82968D01*
X188878Y83156D01*
X189144Y83422D01*
X189333Y83748D01*
X189430Y84112D01*
Y84488D01*
X189333Y84852D01*
X189144Y85178D01*
X188878Y85444D01*
X188552Y85633D01*
X188188Y85730D01*
D02*
G37*
G36*
X179688Y76680D02*
X179312D01*
X178948Y76583D01*
X178622Y76394D01*
X178356Y76128D01*
X178167Y75802D01*
X178070Y75438D01*
Y75062D01*
X178167Y74698D01*
X178356Y74372D01*
X178622Y74106D01*
X178948Y73917D01*
X179312Y73820D01*
X179688D01*
X180052Y73917D01*
X180378Y74106D01*
X180644Y74372D01*
X180833Y74698D01*
X180930Y75062D01*
Y75438D01*
X180833Y75802D01*
X180644Y76128D01*
X180378Y76394D01*
X180052Y76583D01*
X179688Y76680D01*
D02*
G37*
G36*
X174730Y74370D02*
X172870D01*
Y72510D01*
X174730D01*
Y74370D01*
D02*
G37*
G36*
X184917Y74905D02*
X184540D01*
X184177Y74808D01*
X183851Y74619D01*
X183584Y74353D01*
X183396Y74027D01*
X183299Y73663D01*
Y73287D01*
X183396Y72923D01*
X183584Y72597D01*
X183851Y72331D01*
X184177Y72142D01*
X184540Y72045D01*
X184917D01*
X185281Y72142D01*
X185607Y72331D01*
X185873Y72597D01*
X186061Y72923D01*
X186159Y73287D01*
Y73663D01*
X186061Y74027D01*
X185873Y74353D01*
X185607Y74619D01*
X185281Y74808D01*
X184917Y74905D01*
D02*
G37*
G36*
X190348Y72855D02*
X190094D01*
X189848Y72823D01*
X189619Y72728D01*
X189422Y72577D01*
X189271Y72380D01*
X189176Y72151D01*
X189144Y71905D01*
X189176Y71659D01*
X189271Y71430D01*
X189422Y71233D01*
X189619Y71082D01*
X189848Y70987D01*
X190094Y70955D01*
X190348D01*
X190594Y70987D01*
X190823Y71082D01*
X191020Y71233D01*
X191171Y71430D01*
X191266Y71659D01*
X191298Y71905D01*
X191266Y72151D01*
X191171Y72380D01*
X191020Y72577D01*
X190823Y72728D01*
X190594Y72823D01*
X190348Y72855D01*
D02*
G37*
G36*
X173922Y71830D02*
X173678D01*
X173441Y71767D01*
X173229Y71644D01*
X173056Y71471D01*
X172933Y71259D01*
X172870Y71022D01*
Y70778D01*
X172933Y70541D01*
X173056Y70329D01*
X173229Y70156D01*
X173441Y70033D01*
X173678Y69970D01*
X173922D01*
X174159Y70033D01*
X174371Y70156D01*
X174544Y70329D01*
X174667Y70541D01*
X174730Y70778D01*
Y71022D01*
X174667Y71259D01*
X174544Y71471D01*
X174371Y71644D01*
X174159Y71767D01*
X173922Y71830D01*
D02*
G37*
G36*
X190348Y69045D02*
X190094D01*
X189848Y69013D01*
X189619Y68918D01*
X189422Y68767D01*
X189271Y68570D01*
X189176Y68341D01*
X189144Y68095D01*
X189176Y67849D01*
X189271Y67620D01*
X189422Y67423D01*
X189619Y67272D01*
X189848Y67177D01*
X190094Y67145D01*
X190348D01*
X190594Y67177D01*
X190823Y67272D01*
X191020Y67423D01*
X191171Y67620D01*
X191266Y67849D01*
X191298Y68095D01*
X191266Y68341D01*
X191171Y68570D01*
X191020Y68767D01*
X190823Y68918D01*
X190594Y69013D01*
X190348Y69045D01*
D02*
G37*
G36*
X188513Y65985D02*
X188137D01*
X187773Y65888D01*
X187447Y65699D01*
X187181Y65433D01*
X186993Y65107D01*
X186895Y64743D01*
Y64367D01*
X186993Y64003D01*
X187181Y63677D01*
X187447Y63411D01*
X187773Y63223D01*
X188137Y63125D01*
X188513D01*
X188877Y63223D01*
X189203Y63411D01*
X189469Y63677D01*
X189658Y64003D01*
X189755Y64367D01*
Y64743D01*
X189658Y65107D01*
X189469Y65433D01*
X189203Y65699D01*
X188877Y65888D01*
X188513Y65985D01*
D02*
G37*
G36*
X179463Y56605D02*
X179087D01*
X178723Y56508D01*
X178397Y56319D01*
X178131Y56053D01*
X177942Y55727D01*
X177845Y55363D01*
Y54987D01*
X177942Y54623D01*
X178131Y54297D01*
X178397Y54031D01*
X178723Y53842D01*
X179087Y53745D01*
X179463D01*
X179827Y53842D01*
X180153Y54031D01*
X180419Y54297D01*
X180608Y54623D01*
X180705Y54987D01*
Y55363D01*
X180608Y55727D01*
X180419Y56053D01*
X180153Y56319D01*
X179827Y56508D01*
X179463Y56605D01*
D02*
G37*
G36*
X174630Y54035D02*
X172770D01*
Y52175D01*
X174630D01*
Y54035D01*
D02*
G37*
G36*
X184866Y54453D02*
X184489D01*
X184126Y54355D01*
X183800Y54167D01*
X183533Y53901D01*
X183345Y53575D01*
X183248Y53211D01*
Y52834D01*
X183345Y52471D01*
X183533Y52145D01*
X183800Y51878D01*
X184126Y51690D01*
X184489Y51593D01*
X184866D01*
X185230Y51690D01*
X185556Y51878D01*
X185822Y52145D01*
X186010Y52471D01*
X186108Y52834D01*
Y53211D01*
X186010Y53575D01*
X185822Y53901D01*
X185556Y54167D01*
X185230Y54355D01*
X184866Y54453D01*
D02*
G37*
G36*
X190348Y52855D02*
X190094D01*
X189848Y52823D01*
X189619Y52728D01*
X189422Y52577D01*
X189271Y52380D01*
X189176Y52151D01*
X189144Y51905D01*
X189176Y51659D01*
X189271Y51430D01*
X189422Y51233D01*
X189619Y51082D01*
X189848Y50987D01*
X190094Y50955D01*
X190348D01*
X190594Y50987D01*
X190823Y51082D01*
X191020Y51233D01*
X191171Y51430D01*
X191266Y51659D01*
X191298Y51905D01*
X191266Y52151D01*
X191171Y52380D01*
X191020Y52577D01*
X190823Y52728D01*
X190594Y52823D01*
X190348Y52855D01*
D02*
G37*
G36*
X173822Y51495D02*
X173578D01*
X173341Y51432D01*
X173129Y51309D01*
X172956Y51136D01*
X172833Y50924D01*
X172770Y50687D01*
Y50443D01*
X172833Y50206D01*
X172956Y49994D01*
X173129Y49821D01*
X173341Y49698D01*
X173578Y49635D01*
X173822D01*
X174059Y49698D01*
X174271Y49821D01*
X174444Y49994D01*
X174567Y50206D01*
X174630Y50443D01*
Y50687D01*
X174567Y50924D01*
X174444Y51136D01*
X174271Y51309D01*
X174059Y51432D01*
X173822Y51495D01*
D02*
G37*
G36*
X190348Y49045D02*
X190094D01*
X189848Y49013D01*
X189619Y48918D01*
X189422Y48767D01*
X189271Y48570D01*
X189176Y48341D01*
X189144Y48095D01*
X189176Y47849D01*
X189271Y47620D01*
X189422Y47423D01*
X189619Y47272D01*
X189848Y47177D01*
X190094Y47145D01*
X190348D01*
X190594Y47177D01*
X190823Y47272D01*
X191020Y47423D01*
X191171Y47620D01*
X191266Y47849D01*
X191298Y48095D01*
X191266Y48341D01*
X191171Y48570D01*
X191020Y48767D01*
X190823Y48918D01*
X190594Y49013D01*
X190348Y49045D01*
D02*
G37*
G36*
X188463Y45155D02*
X188087D01*
X187723Y45058D01*
X187397Y44869D01*
X187131Y44603D01*
X186942Y44277D01*
X186845Y43913D01*
Y43537D01*
X186942Y43173D01*
X187131Y42847D01*
X187397Y42581D01*
X187723Y42392D01*
X188087Y42295D01*
X188463D01*
X188827Y42392D01*
X189153Y42581D01*
X189419Y42847D01*
X189608Y43173D01*
X189705Y43537D01*
Y43913D01*
X189608Y44277D01*
X189419Y44603D01*
X189153Y44869D01*
X188827Y45058D01*
X188463Y45155D01*
D02*
G37*
%LPD*%
D10*
X171521Y106222D02*
G03*
X171375Y105869I354J-353D01*
G01*
X173598Y68316D02*
G03*
X173800Y68360I-2J500D01*
G01*
X171375Y49725D02*
G03*
X173075Y48025I1700J0D01*
G01*
X26540Y190490D02*
G03*
X26540Y190486I1000J0D01*
G01*
X76567Y210004D02*
G03*
X69795Y212025I-6773J-10340D01*
G01*
X15382Y197762D02*
G03*
X18395Y205034I-7270J7272D01*
G01*
X24333Y206982D02*
G03*
X23626Y207275I-707J-707D01*
G01*
X17689Y207275D02*
G03*
X16983Y206983I0J-1000D01*
G01*
X171375Y88250D02*
Y105869D01*
Y68316D02*
Y88250D01*
X173700D01*
X171521Y106222D02*
X173700Y108401D01*
X171375Y68316D02*
X173598D01*
X171375Y49725D02*
Y68316D01*
X173075Y48025D02*
X173700D01*
X26540Y190486D02*
X26560Y186350D01*
X26540Y190551D02*
X26560Y190826D01*
X26540Y190490D02*
Y190551D01*
X10000Y200000D02*
X16983Y206983D01*
X76567Y210004D02*
X78825Y208525D01*
X41975Y212025D02*
X69790D01*
X69795Y212025D01*
X18395Y205034D02*
X18395Y205300D01*
X10000Y192380D02*
X15382Y197762D01*
X17689Y207275D02*
X23626Y207275D01*
X16983Y206983D02*
X16983Y206983D01*
X134392Y174567D02*
X138525D01*
Y170235D02*
Y172467D01*
X26015Y205300D02*
X26024D01*
X24333Y206982D02*
X26015Y205300D01*
D11*
X114103Y208500D02*
G03*
X112689Y207914I0J-2000D01*
G01*
X130350Y207200D02*
G03*
X137896Y204075I7570J7606D01*
G01*
X152050Y198545D02*
G03*
X146529Y204075I-5527J3D01*
G01*
D02*
G03*
X146525Y204075I-6J-5527D01*
G01*
X139252Y181925D02*
G03*
X134275Y176952I0J-4977D01*
G01*
X144800Y181925D02*
G03*
X152050Y189171I-0J7250D01*
G01*
X224920Y55080D02*
X225000Y55000D01*
X211811Y75080D02*
X211891Y75000D01*
X211811Y95080D02*
X211891Y95000D01*
X224920Y115080D02*
X225000Y115000D01*
X114103Y208500D02*
X129050Y208500D01*
X93213Y188438D02*
X112689Y207914D01*
X129050Y208500D02*
X130350Y207200D01*
X73868Y169093D02*
X93213Y188438D01*
X137896Y204075D02*
X137899Y204075D01*
X146525D01*
X139252Y181925D02*
X139257Y181925D01*
X152050Y198545D02*
X152050Y189171D01*
X129050Y208500D02*
X136300D01*
X92975Y188675D02*
X93071Y188579D01*
X73425Y168022D02*
X73785Y168893D01*
X73425Y31150D02*
Y168022D01*
X92975Y188675D02*
Y202400D01*
X134275Y176952D02*
X134275Y174500D01*
X139257Y181925D02*
X144800Y181925D01*
X134275Y174450D02*
Y174500D01*
X72725Y30450D02*
X73425Y31150D01*
D12*
X133754Y74493D02*
G03*
X134460Y74785I0J1000D01*
G01*
X137239Y77150D02*
G03*
X136533Y76858I0J-1000D01*
G01*
X118600Y85034D02*
X118870Y85304D01*
X81590Y113853D02*
X81710Y113973D01*
X145305Y77150D02*
X156330D01*
X145305Y106163D02*
Y108007D01*
Y106163D02*
X156330D01*
X145305Y104403D02*
Y106163D01*
X156280Y110395D02*
X156330Y110345D01*
Y106163D02*
Y110345D01*
X43850Y46066D02*
X43950Y46166D01*
X5812Y77678D02*
X16820D01*
Y79537D01*
Y75820D02*
Y77678D01*
X5715Y77775D02*
Y81905D01*
Y73710D02*
Y77775D01*
X5812Y77678D01*
X5715Y73710D02*
X5725Y73700D01*
X145305Y75400D02*
Y77150D01*
X156330Y101190D02*
Y106163D01*
Y77150D02*
Y81165D01*
X145305Y77150D02*
Y79257D01*
X156330Y72650D02*
Y77150D01*
X156280Y81215D02*
X156330Y81165D01*
X118600Y74493D02*
X118710Y74383D01*
D13*
X20019Y77011D02*
G03*
X18102Y77677I-2565J-4292D01*
G01*
X22944Y75263D02*
G03*
X25496Y74557I2561J4295D01*
G01*
X118600Y74493D02*
X133754D01*
X81240Y85284D02*
X113762D01*
X81590Y85034D02*
Y113853D01*
X137239Y77150D02*
X145305D01*
X134460Y74785D02*
X136533Y76858D01*
X118870Y106163D02*
X145305D01*
X20019Y77011D02*
X22944Y75263D01*
X25502Y74557D02*
X43925D01*
X25496Y74557D02*
X25502Y74557D01*
X16966Y77825D02*
X18102Y77677D01*
X44000Y46216D02*
Y74632D01*
X118870Y85304D02*
Y106163D01*
X81590Y46091D02*
Y74493D01*
X81639Y46140D02*
X118661D01*
X118870Y113973D02*
X118870Y106163D01*
X118710Y46091D02*
Y74383D01*
D14*
X39523Y197685D02*
G03*
X39946Y197860I0J600D01*
G01*
X41725Y199639D02*
G03*
X41900Y200062I-425J423D01*
G01*
X42075Y211200D02*
G03*
X41900Y210776I425J-424D01*
G01*
X21820Y198755D02*
G03*
X22286Y197633I1598J6D01*
G01*
X21793Y204197D02*
G03*
X21617Y204618I-600J-3D01*
G01*
X22749Y204574D02*
G03*
X22573Y204148I424J-424D01*
G01*
X22599Y198835D02*
G03*
X22774Y198415I600J4D01*
G01*
X23474Y205299D02*
G03*
X23473Y205298I424J-424D01*
G01*
X23475Y205300D02*
G03*
X23474Y205299I423J-426D01*
G01*
X37350Y197685D02*
X39523D01*
X39946Y197860D02*
X41725Y199639D01*
X41900Y200062D02*
Y210776D01*
X42075Y211200D02*
X42200Y211325D01*
X21793Y204197D02*
X21820Y198755D01*
X22286Y197633D02*
X22287Y197632D01*
X23504Y196415D01*
X20935Y205300D02*
X21617Y204618D01*
X22774Y198415D02*
X23504Y197685D01*
X22749Y204574D02*
X23473Y205298D01*
X22573Y204148D02*
X22599Y198835D01*
D15*
X138525Y168000D02*
D03*
Y170000D02*
D03*
D16*
X138525Y174567D02*
D03*
Y172467D02*
D03*
D17*
X138525Y166700D02*
Y168000D01*
X134275Y162450D02*
X138525Y166700D01*
D18*
X218489Y75099D02*
D03*
X218439Y55088D02*
D03*
X218468Y95099D02*
D03*
X218443Y115099D02*
D03*
D19*
X232239Y174936D02*
D03*
X232239Y94936D02*
D03*
X232239Y74936D02*
D03*
X232239Y114937D02*
D03*
X232239Y54937D02*
D03*
X232239Y159936D02*
D03*
X232239Y189936D02*
D03*
X232239Y144937D02*
D03*
X9761Y165063D02*
D03*
D20*
X99839Y112562D02*
D03*
X100002Y73206D02*
D03*
X100773Y48219D02*
D03*
D21*
X84837Y99511D02*
D03*
D22*
X100530Y87327D02*
D03*
D23*
X115113Y99626D02*
D03*
D24*
X137163Y100397D02*
D03*
D25*
X85050Y60295D02*
D03*
D26*
X50250Y99737D02*
D03*
D27*
X50055Y60396D02*
D03*
D28*
X24173Y111925D02*
D03*
D29*
X12337Y104854D02*
D03*
D30*
X15100Y74050D02*
D03*
D31*
X26648Y70596D02*
D03*
D32*
X113919Y60116D02*
D03*
D33*
X9761Y150064D02*
D03*
X9761Y35064D02*
D03*
X9761Y20064D02*
D03*
D34*
X141206Y190583D02*
D03*
Y197567D02*
D03*
D35*
X14100Y28425D02*
D03*
D36*
X10175Y156739D02*
D03*
D37*
X44000Y124575D02*
D03*
Y114034D02*
D03*
X81710Y124514D02*
D03*
Y113973D02*
D03*
X118870Y124514D02*
D03*
X81590Y85034D02*
D03*
Y74493D02*
D03*
Y46091D02*
D03*
Y35550D02*
D03*
X118870Y113973D02*
D03*
X118600Y74493D02*
D03*
Y85034D02*
D03*
X118710Y35550D02*
D03*
Y46091D02*
D03*
X43850Y35525D02*
D03*
Y46066D02*
D03*
X44000Y74632D02*
D03*
Y85173D02*
D03*
D38*
X173700Y48025D02*
D03*
Y50565D02*
D03*
Y88250D02*
D03*
Y90790D02*
D03*
Y108401D02*
D03*
Y110941D02*
D03*
X173800Y68360D02*
D03*
Y70900D02*
D03*
X26015Y205300D02*
D03*
X23475D02*
D03*
X20935D02*
D03*
X18395D02*
D03*
X10000Y200000D02*
D03*
Y197460D02*
D03*
Y194920D02*
D03*
Y192380D02*
D03*
D39*
X173700Y53105D02*
D03*
Y93330D02*
D03*
Y113481D02*
D03*
X173800Y73440D02*
D03*
D40*
X179275Y55175D02*
D03*
X188275Y43725D02*
D03*
X184678Y53023D02*
D03*
X184729Y73475D02*
D03*
X179500Y75250D02*
D03*
X188325Y64555D02*
D03*
X188000Y84300D02*
D03*
X184425Y114050D02*
D03*
X187938Y104200D02*
D03*
X179275Y114625D02*
D03*
X179100Y94250D02*
D03*
X184450Y92675D02*
D03*
X159950Y170400D02*
D03*
X129050Y208500D02*
D03*
X38600Y200975D02*
D03*
X41975Y212025D02*
D03*
X86875Y209025D02*
D03*
X26250Y177825D02*
D03*
X30834Y176251D02*
D03*
X22622Y181128D02*
D03*
D41*
X190221Y48095D02*
D03*
Y50000D02*
D03*
Y51905D02*
D03*
Y68095D02*
D03*
Y70000D02*
D03*
Y71905D02*
D03*
Y88095D02*
D03*
Y90000D02*
D03*
Y91905D02*
D03*
Y108095D02*
D03*
Y110000D02*
D03*
Y111905D02*
D03*
D42*
X211811Y44920D02*
D03*
Y55080D02*
D03*
Y64920D02*
D03*
Y75080D02*
D03*
Y84920D02*
D03*
Y95080D02*
D03*
Y104920D02*
D03*
Y115080D02*
D03*
D43*
X225000Y175000D02*
D03*
Y95000D02*
D03*
Y75000D02*
D03*
Y115000D02*
D03*
Y55000D02*
D03*
Y160000D02*
D03*
Y190000D02*
D03*
Y145000D02*
D03*
X15000Y150000D02*
D03*
Y165000D02*
D03*
Y35000D02*
D03*
Y20000D02*
D03*
D44*
X156280Y52675D02*
D03*
X156330Y72650D02*
D03*
X156280Y110395D02*
D03*
X156330Y130370D02*
D03*
Y101190D02*
D03*
X156280Y81215D02*
D03*
X5815Y131230D02*
D03*
X5765Y111255D02*
D03*
X5725Y73700D02*
D03*
X5675Y53725D02*
D03*
X5765Y101880D02*
D03*
X5715Y81905D02*
D03*
D45*
X120872Y198132D02*
D03*
X120770Y188048D02*
D03*
X120592Y157543D02*
D03*
X120745Y147332D02*
D03*
X54451Y203212D02*
D03*
X54578Y192900D02*
D03*
X54527Y157314D02*
D03*
Y147231D02*
D03*
D46*
X113074Y147205D02*
D03*
X113125Y157365D02*
D03*
X113175Y187921D02*
D03*
X113125Y198081D02*
D03*
X62299Y203034D02*
D03*
X62350Y192900D02*
D03*
X62325Y157340D02*
D03*
X62274Y147154D02*
D03*
D47*
X145305Y133153D02*
D03*
Y108007D02*
D03*
Y75400D02*
D03*
Y50254D02*
D03*
Y104403D02*
D03*
Y79257D02*
D03*
X16790Y133586D02*
D03*
Y108440D02*
D03*
X16820Y75820D02*
D03*
Y50674D02*
D03*
Y104683D02*
D03*
Y79537D02*
D03*
D48*
X42160Y152419D02*
D03*
X32000D02*
D03*
D49*
X38985Y174009D02*
D03*
X37080D02*
D03*
X35175D02*
D03*
D50*
X164700Y194075D02*
D03*
D51*
X141332Y196996D02*
D03*
X141459Y191154D02*
D03*
D52*
X134275Y174450D02*
D03*
Y162450D02*
D03*
D53*
X132280Y190900D02*
D03*
X134820D02*
D03*
D54*
X26560Y190826D02*
D03*
D55*
X29100D02*
D03*
X31640D02*
D03*
X34180D02*
D03*
D56*
X136300Y208500D02*
D03*
D57*
X141300D02*
D03*
D58*
X26560Y186350D02*
D03*
X37350Y197685D02*
D03*
X23504Y196415D02*
D03*
Y197685D02*
D03*
D59*
X92975Y202400D02*
D03*
D60*
X78825Y208525D02*
D03*
%TF.MD5,3cfa3533b125b5eaa99271ab5afbe261*%
M02*
