%TF.GenerationSoftware,Altium Limited,Altium Designer,24.7.2 (38)*%
G04 Layer_Color=2752767*
%FSLAX43Y43*%
%MOMM*%
%TF.SameCoordinates,3DDE4B3C-03A5-4BC3-9972-2EF5A5DF1AA7*%
%TF.FilePolarity,Positive*%
%TF.FileFunction,Drawing*%
%TF.Part,Single*%
G01*
G75*
%TA.AperFunction,NonConductor*%
%ADD133C,0.127*%
%ADD134C,0.169*%
%ADD135C,0.102*%
D133*
X44000Y124067D02*
X43492Y125083D01*
X44508D01*
X44000Y124067D01*
Y124270D02*
X43695Y124880D01*
X44305D01*
X44000Y124270D01*
Y113526D02*
X43492Y114542D01*
X44508D01*
X44000Y113526D01*
Y113729D02*
X43695Y114339D01*
X44305D01*
X44000Y113729D01*
X173700Y47517D02*
X173192Y48533D01*
X174208D01*
X173700Y47517D01*
Y50057D02*
X173192Y51073D01*
X174208D01*
X173700Y50057D01*
Y52597D02*
X173192Y53613D01*
X174208D01*
X173700Y52597D01*
Y87742D02*
X173192Y88758D01*
X174208D01*
X173700Y87742D01*
Y90282D02*
X173192Y91298D01*
X174208D01*
X173700Y90282D01*
Y92822D02*
X173192Y93838D01*
X174208D01*
X173700Y92822D01*
Y107893D02*
X173192Y108909D01*
X174208D01*
X173700Y107893D01*
Y110433D02*
X173192Y111449D01*
X174208D01*
X173700Y110433D01*
Y112973D02*
X173192Y113989D01*
X174208D01*
X173700Y112973D01*
X173800Y67852D02*
X173292Y68868D01*
X174308D01*
X173800Y67852D01*
Y70392D02*
X173292Y71408D01*
X174308D01*
X173800Y70392D01*
Y72932D02*
X173292Y73948D01*
X174308D01*
X173800Y72932D01*
X178767Y54667D02*
Y55683D01*
X179783D01*
Y54667D01*
X178767D01*
X187767Y43217D02*
Y44233D01*
X188783D01*
Y43217D01*
X187767D01*
X184170Y52515D02*
Y53531D01*
X185186D01*
Y52515D01*
X184170D01*
X184221Y72967D02*
Y73983D01*
X185237D01*
Y72967D01*
X184221D01*
X178992Y74742D02*
Y75758D01*
X180008D01*
Y74742D01*
X178992D01*
X187817Y64047D02*
Y65063D01*
X188833D01*
Y64047D01*
X187817D01*
X187492Y83792D02*
Y84808D01*
X188508D01*
Y83792D01*
X187492D01*
X183917Y113542D02*
Y114558D01*
X184933D01*
Y113542D01*
X183917D01*
X187430Y103692D02*
Y104708D01*
X188446D01*
Y103692D01*
X187430D01*
X190221Y47587D02*
X190475Y47841D01*
X190729D01*
X190475Y48095D01*
X190729Y48349D01*
X190475D01*
X190221Y48603D01*
X189967Y48349D01*
X189713D01*
X189967Y48095D01*
X189713Y47841D01*
X189967D01*
X190221Y47587D01*
Y49492D02*
X190475Y49746D01*
X190729D01*
X190475Y50000D01*
X190729Y50254D01*
X190475D01*
X190221Y50508D01*
X189967Y50254D01*
X189713D01*
X189967Y50000D01*
X189713Y49746D01*
X189967D01*
X190221Y49492D01*
Y51397D02*
X190475Y51651D01*
X190729D01*
X190475Y51905D01*
X190729Y52159D01*
X190475D01*
X190221Y52413D01*
X189967Y52159D01*
X189713D01*
X189967Y51905D01*
X189713Y51651D01*
X189967D01*
X190221Y51397D01*
X211303Y44412D02*
X211557Y44920D01*
X211303Y45428D01*
X211811Y45174D01*
X212319Y45428D01*
X212065Y44920D01*
X212319Y44412D01*
X211811Y44666D01*
X211303Y44412D01*
Y54572D02*
X211557Y55080D01*
X211303Y55588D01*
X211811Y55334D01*
X212319Y55588D01*
X212065Y55080D01*
X212319Y54572D01*
X211811Y54826D01*
X211303Y54572D01*
X190221Y67587D02*
X190475Y67841D01*
X190729D01*
X190475Y68095D01*
X190729Y68349D01*
X190475D01*
X190221Y68603D01*
X189967Y68349D01*
X189713D01*
X189967Y68095D01*
X189713Y67841D01*
X189967D01*
X190221Y67587D01*
Y69492D02*
X190475Y69746D01*
X190729D01*
X190475Y70000D01*
X190729Y70254D01*
X190475D01*
X190221Y70508D01*
X189967Y70254D01*
X189713D01*
X189967Y70000D01*
X189713Y69746D01*
X189967D01*
X190221Y69492D01*
Y71397D02*
X190475Y71651D01*
X190729D01*
X190475Y71905D01*
X190729Y72159D01*
X190475D01*
X190221Y72413D01*
X189967Y72159D01*
X189713D01*
X189967Y71905D01*
X189713Y71651D01*
X189967D01*
X190221Y71397D01*
X211303Y64412D02*
X211557Y64920D01*
X211303Y65428D01*
X211811Y65174D01*
X212319Y65428D01*
X212065Y64920D01*
X212319Y64412D01*
X211811Y64666D01*
X211303Y64412D01*
Y74572D02*
X211557Y75080D01*
X211303Y75588D01*
X211811Y75334D01*
X212319Y75588D01*
X212065Y75080D01*
X212319Y74572D01*
X211811Y74826D01*
X211303Y74572D01*
X190221Y87587D02*
X190475Y87841D01*
X190729D01*
X190475Y88095D01*
X190729Y88349D01*
X190475D01*
X190221Y88603D01*
X189967Y88349D01*
X189713D01*
X189967Y88095D01*
X189713Y87841D01*
X189967D01*
X190221Y87587D01*
Y89492D02*
X190475Y89746D01*
X190729D01*
X190475Y90000D01*
X190729Y90254D01*
X190475D01*
X190221Y90508D01*
X189967Y90254D01*
X189713D01*
X189967Y90000D01*
X189713Y89746D01*
X189967D01*
X190221Y89492D01*
Y91397D02*
X190475Y91651D01*
X190729D01*
X190475Y91905D01*
X190729Y92159D01*
X190475D01*
X190221Y92413D01*
X189967Y92159D01*
X189713D01*
X189967Y91905D01*
X189713Y91651D01*
X189967D01*
X190221Y91397D01*
X211303Y84412D02*
X211557Y84920D01*
X211303Y85428D01*
X211811Y85174D01*
X212319Y85428D01*
X212065Y84920D01*
X212319Y84412D01*
X211811Y84666D01*
X211303Y84412D01*
Y94572D02*
X211557Y95080D01*
X211303Y95588D01*
X211811Y95334D01*
X212319Y95588D01*
X212065Y95080D01*
X212319Y94572D01*
X211811Y94826D01*
X211303Y94572D01*
X190221Y107587D02*
X190475Y107841D01*
X190729D01*
X190475Y108095D01*
X190729Y108349D01*
X190475D01*
X190221Y108603D01*
X189967Y108349D01*
X189713D01*
X189967Y108095D01*
X189713Y107841D01*
X189967D01*
X190221Y107587D01*
Y109492D02*
X190475Y109746D01*
X190729D01*
X190475Y110000D01*
X190729Y110254D01*
X190475D01*
X190221Y110508D01*
X189967Y110254D01*
X189713D01*
X189967Y110000D01*
X189713Y109746D01*
X189967D01*
X190221Y109492D01*
Y111397D02*
X190475Y111651D01*
X190729D01*
X190475Y111905D01*
X190729Y112159D01*
X190475D01*
X190221Y112413D01*
X189967Y112159D01*
X189713D01*
X189967Y111905D01*
X189713Y111651D01*
X189967D01*
X190221Y111397D01*
X211303Y104412D02*
X211557Y104920D01*
X211303Y105428D01*
X211811Y105174D01*
X212319Y105428D01*
X212065Y104920D01*
X212319Y104412D01*
X211811Y104666D01*
X211303Y104412D01*
Y114572D02*
X211557Y115080D01*
X211303Y115588D01*
X211811Y115334D01*
X212319Y115588D01*
X212065Y115080D01*
X212319Y114572D01*
X211811Y114826D01*
X211303Y114572D01*
X178767Y114117D02*
Y115133D01*
X179783D01*
Y114117D01*
X178767D01*
X178592Y93742D02*
Y94758D01*
X179608D01*
Y93742D01*
X178592D01*
X183942Y92167D02*
Y93183D01*
X184958D01*
Y92167D01*
X183942D01*
X155772Y52167D02*
Y53183D01*
X156788D01*
Y52167D01*
X155772D01*
X155975Y52370D02*
Y52980D01*
X156585D01*
Y52370D01*
X155975D01*
X155822Y72142D02*
Y73158D01*
X156838D01*
Y72142D01*
X155822D01*
X156025Y72345D02*
Y72955D01*
X156635D01*
Y72345D01*
X156025D01*
X81710Y124006D02*
X81202Y125022D01*
X82218D01*
X81710Y124006D01*
Y124209D02*
X81405Y124819D01*
X82015D01*
X81710Y124209D01*
Y113465D02*
X81202Y114481D01*
X82218D01*
X81710Y113465D01*
Y113668D02*
X81405Y114278D01*
X82015D01*
X81710Y113668D01*
X155772Y109887D02*
Y110903D01*
X156788D01*
Y109887D01*
X155772D01*
X155975Y110090D02*
Y110700D01*
X156585D01*
Y110090D01*
X155975D01*
X155822Y129862D02*
Y130878D01*
X156838D01*
Y129862D01*
X155822D01*
X156025Y130065D02*
Y130675D01*
X156635D01*
Y130065D01*
X156025D01*
X121718Y199190D02*
X121506Y199402D01*
X121083D01*
X120872Y199190D01*
Y198344D01*
X121083Y198132D01*
X121506D01*
X121718Y198344D01*
X121616Y189106D02*
X121405Y189318D01*
X120982D01*
X120770Y189106D01*
Y188260D01*
X120982Y188048D01*
X121405D01*
X121616Y188260D01*
X121439Y158601D02*
X121227Y158813D01*
X120804D01*
X120592Y158601D01*
Y157755D01*
X120804Y157543D01*
X121227D01*
X121439Y157755D01*
X121591Y148390D02*
X121379Y148602D01*
X120956D01*
X120745Y148390D01*
Y147544D01*
X120956Y147332D01*
X121379D01*
X121591Y147544D01*
X159442Y169892D02*
Y170908D01*
X160458D01*
Y169892D01*
X159442D01*
X118870Y124006D02*
X118362Y125022D01*
X119378D01*
X118870Y124006D01*
Y124209D02*
X118565Y124819D01*
X119175D01*
X118870Y124209D01*
X112566Y146697D02*
X112820D01*
X113074Y146951D01*
X113328Y146697D01*
X113582D01*
Y146951D01*
X113328Y147205D01*
X113582Y147459D01*
Y147713D01*
X113328D01*
X113074Y147459D01*
X112820Y147713D01*
X112566D01*
Y147459D01*
X112820Y147205D01*
X112566Y146951D01*
Y146697D01*
X112769Y146900D02*
X112921D01*
X113074Y147053D01*
X113226Y146900D01*
X113379D01*
Y147053D01*
X113226Y147205D01*
X113379Y147358D01*
Y147510D01*
X113226D01*
X113074Y147358D01*
X112921Y147510D01*
X112769D01*
Y147358D01*
X112921Y147205D01*
X112769Y147053D01*
Y146900D01*
X112617Y156857D02*
X112871D01*
X113125Y157111D01*
X113379Y156857D01*
X113633D01*
Y157111D01*
X113379Y157365D01*
X113633Y157619D01*
Y157873D01*
X113379D01*
X113125Y157619D01*
X112871Y157873D01*
X112617D01*
Y157619D01*
X112871Y157365D01*
X112617Y157111D01*
Y156857D01*
X112820Y157060D02*
X112972D01*
X113125Y157213D01*
X113277Y157060D01*
X113429D01*
Y157213D01*
X113277Y157365D01*
X113429Y157518D01*
Y157670D01*
X113277D01*
X113125Y157518D01*
X112972Y157670D01*
X112820D01*
Y157518D01*
X112972Y157365D01*
X112820Y157213D01*
Y157060D01*
X112667Y187413D02*
X112921D01*
X113175Y187667D01*
X113429Y187413D01*
X113683D01*
Y187667D01*
X113429Y187921D01*
X113683Y188175D01*
Y188429D01*
X113429D01*
X113175Y188175D01*
X112921Y188429D01*
X112667D01*
Y188175D01*
X112921Y187921D01*
X112667Y187667D01*
Y187413D01*
X112871Y187617D02*
X113023D01*
X113175Y187769D01*
X113328Y187617D01*
X113480D01*
Y187769D01*
X113328Y187921D01*
X113480Y188074D01*
Y188226D01*
X113328D01*
X113175Y188074D01*
X113023Y188226D01*
X112871D01*
Y188074D01*
X113023Y187921D01*
X112871Y187769D01*
Y187617D01*
X112617Y197573D02*
X112871D01*
X113125Y197827D01*
X113379Y197573D01*
X113633D01*
Y197827D01*
X113379Y198081D01*
X113633Y198335D01*
Y198589D01*
X113379D01*
X113125Y198335D01*
X112871Y198589D01*
X112617D01*
Y198335D01*
X112871Y198081D01*
X112617Y197827D01*
Y197573D01*
X112820Y197777D02*
X112972D01*
X113125Y197929D01*
X113277Y197777D01*
X113429D01*
Y197929D01*
X113277Y198081D01*
X113429Y198234D01*
Y198386D01*
X113277D01*
X113125Y198234D01*
X112972Y198386D01*
X112820D01*
Y198234D01*
X112972Y198081D01*
X112820Y197929D01*
Y197777D01*
X145305Y132645D02*
X145559Y132899D01*
X145813D01*
X145559Y133153D01*
X145813Y133407D01*
X145559D01*
X145305Y133661D01*
X145051Y133407D01*
X144797D01*
X145051Y133153D01*
X144797Y132899D01*
X145051D01*
X145305Y132645D01*
Y132848D02*
X145457Y133001D01*
X145610D01*
X145457Y133153D01*
X145610Y133305D01*
X145457D01*
X145305Y133458D01*
X145153Y133305D01*
X145000D01*
X145153Y133153D01*
X145000Y133001D01*
X145153D01*
X145305Y132848D01*
X81590Y84526D02*
X81082Y85542D01*
X82098D01*
X81590Y84526D01*
Y84729D02*
X81285Y85339D01*
X81895D01*
X81590Y84729D01*
Y73985D02*
X81082Y75001D01*
X82098D01*
X81590Y73985D01*
Y74188D02*
X81285Y74798D01*
X81895D01*
X81590Y74188D01*
Y45583D02*
X81082Y46599D01*
X82098D01*
X81590Y45583D01*
Y45786D02*
X81285Y46396D01*
X81895D01*
X81590Y45786D01*
Y35042D02*
X81082Y36058D01*
X82098D01*
X81590Y35042D01*
Y35245D02*
X81285Y35855D01*
X81895D01*
X81590Y35245D01*
X41652Y151911D02*
X41906Y152419D01*
X41652Y152927D01*
X42160Y152673D01*
X42668Y152927D01*
X42414Y152419D01*
X42668Y151911D01*
X42160Y152165D01*
X41652Y151911D01*
X31492D02*
X31746Y152419D01*
X31492Y152927D01*
X32000Y152673D01*
X32508Y152927D01*
X32254Y152419D01*
X32508Y151911D01*
X32000Y152165D01*
X31492Y151911D01*
X38985Y173501D02*
X39239Y173755D01*
X39493D01*
X39239Y174009D01*
X39493Y174263D01*
X39239D01*
X38985Y174517D01*
X38731Y174263D01*
X38477D01*
X38731Y174009D01*
X38477Y173755D01*
X38731D01*
X38985Y173501D01*
X37080D02*
X37334Y173755D01*
X37588D01*
X37334Y174009D01*
X37588Y174263D01*
X37334D01*
X37080Y174517D01*
X36826Y174263D01*
X36572D01*
X36826Y174009D01*
X36572Y173755D01*
X36826D01*
X37080Y173501D01*
X35175D02*
X35429Y173755D01*
X35683D01*
X35429Y174009D01*
X35683Y174263D01*
X35429D01*
X35175Y174517D01*
X34921Y174263D01*
X34667D01*
X34921Y174009D01*
X34667Y173755D01*
X34921D01*
X35175Y173501D01*
X145305Y107499D02*
X145559Y107753D01*
X145813D01*
X145559Y108007D01*
X145813Y108261D01*
X145559D01*
X145305Y108515D01*
X145051Y108261D01*
X144797D01*
X145051Y108007D01*
X144797Y107753D01*
X145051D01*
X145305Y107499D01*
Y107702D02*
X145457Y107855D01*
X145610D01*
X145457Y108007D01*
X145610Y108159D01*
X145457D01*
X145305Y108312D01*
X145153Y108159D01*
X145000D01*
X145153Y108007D01*
X145000Y107855D01*
X145153D01*
X145305Y107702D01*
X55297Y204270D02*
X55085Y204482D01*
X54662D01*
X54451Y204270D01*
Y203424D01*
X54662Y203212D01*
X55085D01*
X55297Y203424D01*
X55424Y193958D02*
X55212Y194169D01*
X54789D01*
X54578Y193958D01*
Y193111D01*
X54789Y192900D01*
X55212D01*
X55424Y193111D01*
X55373Y158372D02*
X55162Y158584D01*
X54738D01*
X54527Y158372D01*
Y157526D01*
X54738Y157314D01*
X55162D01*
X55373Y157526D01*
Y148289D02*
X55162Y148500D01*
X54738D01*
X54527Y148289D01*
Y147442D01*
X54738Y147231D01*
X55162D01*
X55373Y147442D01*
X61791Y202526D02*
X62045D01*
X62299Y202780D01*
X62553Y202526D01*
X62807D01*
Y202780D01*
X62553Y203034D01*
X62807Y203288D01*
Y203542D01*
X62553D01*
X62299Y203288D01*
X62045Y203542D01*
X61791D01*
Y203288D01*
X62045Y203034D01*
X61791Y202780D01*
Y202526D01*
X61994Y202730D02*
X62147D01*
X62299Y202882D01*
X62452Y202730D01*
X62604D01*
Y202882D01*
X62452Y203034D01*
X62604Y203187D01*
Y203339D01*
X62452D01*
X62299Y203187D01*
X62147Y203339D01*
X61994D01*
Y203187D01*
X62147Y203034D01*
X61994Y202882D01*
Y202730D01*
X61842Y192392D02*
X62096D01*
X62350Y192646D01*
X62604Y192392D01*
X62858D01*
Y192646D01*
X62604Y192900D01*
X62858Y193154D01*
Y193408D01*
X62604D01*
X62350Y193154D01*
X62096Y193408D01*
X61842D01*
Y193154D01*
X62096Y192900D01*
X61842Y192646D01*
Y192392D01*
X62045Y192595D02*
X62198D01*
X62350Y192747D01*
X62502Y192595D01*
X62655D01*
Y192747D01*
X62502Y192900D01*
X62655Y193052D01*
Y193205D01*
X62502D01*
X62350Y193052D01*
X62198Y193205D01*
X62045D01*
Y193052D01*
X62198Y192900D01*
X62045Y192747D01*
Y192595D01*
X61817Y156832D02*
X62071D01*
X62325Y157086D01*
X62579Y156832D01*
X62833D01*
Y157086D01*
X62579Y157340D01*
X62833Y157594D01*
Y157848D01*
X62579D01*
X62325Y157594D01*
X62071Y157848D01*
X61817D01*
Y157594D01*
X62071Y157340D01*
X61817Y157086D01*
Y156832D01*
X62020Y157035D02*
X62172D01*
X62325Y157187D01*
X62477Y157035D01*
X62629D01*
Y157187D01*
X62477Y157340D01*
X62629Y157492D01*
Y157645D01*
X62477D01*
X62325Y157492D01*
X62172Y157645D01*
X62020D01*
Y157492D01*
X62172Y157340D01*
X62020Y157187D01*
Y157035D01*
X61766Y146646D02*
X62020D01*
X62274Y146900D01*
X62528Y146646D01*
X62782D01*
Y146900D01*
X62528Y147154D01*
X62782Y147408D01*
Y147662D01*
X62528D01*
X62274Y147408D01*
X62020Y147662D01*
X61766D01*
Y147408D01*
X62020Y147154D01*
X61766Y146900D01*
Y146646D01*
X61969Y146850D02*
X62121D01*
X62274Y147002D01*
X62426Y146850D01*
X62579D01*
Y147002D01*
X62426Y147154D01*
X62579Y147307D01*
Y147459D01*
X62426D01*
X62274Y147307D01*
X62121Y147459D01*
X61969D01*
Y147307D01*
X62121Y147154D01*
X61969Y147002D01*
Y146850D01*
X164446Y193821D02*
Y193567D01*
X164954D01*
Y193821D01*
X165208D01*
Y194329D01*
X164954D01*
Y194583D01*
X164446D01*
Y194329D01*
X164192D01*
Y193821D01*
X164446D01*
X140824Y196488D02*
X141078D01*
X141332Y196742D01*
X141586Y196488D01*
X141840D01*
Y196742D01*
X141586Y196996D01*
X141840Y197250D01*
Y197504D01*
X141586D01*
X141332Y197250D01*
X141078Y197504D01*
X140824D01*
Y197250D01*
X141078Y196996D01*
X140824Y196742D01*
Y196488D01*
X140951Y190646D02*
X141205D01*
X141459Y190900D01*
X141713Y190646D01*
X141967D01*
Y190900D01*
X141713Y191154D01*
X141967Y191408D01*
Y191662D01*
X141713D01*
X141459Y191408D01*
X141205Y191662D01*
X140951D01*
Y191408D01*
X141205Y191154D01*
X140951Y190900D01*
Y190646D01*
X128542Y207992D02*
Y209008D01*
X129558D01*
Y207992D01*
X128542D01*
X133767Y173942D02*
X134021Y174450D01*
X133767Y174958D01*
X134275Y174704D01*
X134783Y174958D01*
X134529Y174450D01*
X134783Y173942D01*
X134275Y174196D01*
X133767Y173942D01*
X133970Y174145D02*
X134123Y174450D01*
X133970Y174755D01*
X134275Y174602D01*
X134580Y174755D01*
X134427Y174450D01*
X134580Y174145D01*
X134275Y174298D01*
X133970Y174145D01*
X133767Y161942D02*
X134021Y162450D01*
X133767Y162958D01*
X134275Y162704D01*
X134783Y162958D01*
X134529Y162450D01*
X134783Y161942D01*
X134275Y162196D01*
X133767Y161942D01*
X133970Y162145D02*
X134123Y162450D01*
X133970Y162755D01*
X134275Y162602D01*
X134580Y162755D01*
X134427Y162450D01*
X134580Y162145D01*
X134275Y162298D01*
X133970Y162145D01*
X132280Y190392D02*
X132534Y190646D01*
X132788D01*
X132534Y190900D01*
X132788Y191154D01*
X132534D01*
X132280Y191408D01*
X132026Y191154D01*
X131772D01*
X132026Y190900D01*
X131772Y190646D01*
X132026D01*
X132280Y190392D01*
X134820D02*
X135074Y190646D01*
X135328D01*
X135074Y190900D01*
X135328Y191154D01*
X135074D01*
X134820Y191408D01*
X134566Y191154D01*
X134312D01*
X134566Y190900D01*
X134312Y190646D01*
X134566D01*
X134820Y190392D01*
X38092Y200467D02*
Y201483D01*
X39108D01*
Y200467D01*
X38092D01*
X41467Y211517D02*
Y212533D01*
X42483D01*
Y211517D01*
X41467D01*
X86367Y208517D02*
Y209533D01*
X87383D01*
Y208517D01*
X86367D01*
X26560Y190318D02*
X26052Y191334D01*
X27068D01*
X26560Y190318D01*
X29100D02*
X28592Y191334D01*
X29608D01*
X29100Y190318D01*
X31640D02*
X31132Y191334D01*
X32148D01*
X31640Y190318D01*
X34180D02*
X33672Y191334D01*
X34688D01*
X34180Y190318D01*
X25742Y177317D02*
Y178333D01*
X26758D01*
Y177317D01*
X25742D01*
X30326Y175743D02*
Y176759D01*
X31342D01*
Y175743D01*
X30326D01*
X22114Y180620D02*
Y181636D01*
X23130D01*
Y180620D01*
X22114D01*
X25761Y205046D02*
Y204792D01*
X26269D01*
Y205046D01*
X26523D01*
Y205554D01*
X26269D01*
Y205808D01*
X25761D01*
Y205554D01*
X25507D01*
Y205046D01*
X25761D01*
X25863Y205148D02*
Y204995D01*
X26167D01*
Y205148D01*
X26320D01*
Y205452D01*
X26167D01*
Y205605D01*
X25863D01*
Y205452D01*
X25710D01*
Y205148D01*
X25863D01*
X23221Y205046D02*
Y204792D01*
X23729D01*
Y205046D01*
X23983D01*
Y205554D01*
X23729D01*
Y205808D01*
X23221D01*
Y205554D01*
X22967D01*
Y205046D01*
X23221D01*
X23323Y205148D02*
Y204995D01*
X23627D01*
Y205148D01*
X23780D01*
Y205452D01*
X23627D01*
Y205605D01*
X23323D01*
Y205452D01*
X23170D01*
Y205148D01*
X23323D01*
X20681Y205046D02*
Y204792D01*
X21189D01*
Y205046D01*
X21443D01*
Y205554D01*
X21189D01*
Y205808D01*
X20681D01*
Y205554D01*
X20427D01*
Y205046D01*
X20681D01*
X20783Y205148D02*
Y204995D01*
X21087D01*
Y205148D01*
X21240D01*
Y205452D01*
X21087D01*
Y205605D01*
X20783D01*
Y205452D01*
X20630D01*
Y205148D01*
X20783D01*
X18141Y205046D02*
Y204792D01*
X18649D01*
Y205046D01*
X18903D01*
Y205554D01*
X18649D01*
Y205808D01*
X18141D01*
Y205554D01*
X17887D01*
Y205046D01*
X18141D01*
X18243Y205148D02*
Y204995D01*
X18547D01*
Y205148D01*
X18700D01*
Y205452D01*
X18547D01*
Y205605D01*
X18243D01*
Y205452D01*
X18090D01*
Y205148D01*
X18243D01*
X9746Y199746D02*
Y199492D01*
X10254D01*
Y199746D01*
X10508D01*
Y200254D01*
X10254D01*
Y200508D01*
X9746D01*
Y200254D01*
X9492D01*
Y199746D01*
X9746D01*
X9848Y199848D02*
Y199695D01*
X10152D01*
Y199848D01*
X10305D01*
Y200152D01*
X10152D01*
Y200305D01*
X9848D01*
Y200152D01*
X9695D01*
Y199848D01*
X9848D01*
X9746Y197206D02*
Y196952D01*
X10254D01*
Y197206D01*
X10508D01*
Y197714D01*
X10254D01*
Y197968D01*
X9746D01*
Y197714D01*
X9492D01*
Y197206D01*
X9746D01*
X9848Y197308D02*
Y197155D01*
X10152D01*
Y197308D01*
X10305D01*
Y197612D01*
X10152D01*
Y197765D01*
X9848D01*
Y197612D01*
X9695D01*
Y197308D01*
X9848D01*
X9746Y194666D02*
Y194412D01*
X10254D01*
Y194666D01*
X10508D01*
Y195174D01*
X10254D01*
Y195428D01*
X9746D01*
Y195174D01*
X9492D01*
Y194666D01*
X9746D01*
X9848Y194768D02*
Y194615D01*
X10152D01*
Y194768D01*
X10305D01*
Y195072D01*
X10152D01*
Y195225D01*
X9848D01*
Y195072D01*
X9695D01*
Y194768D01*
X9848D01*
X9746Y192126D02*
Y191872D01*
X10254D01*
Y192126D01*
X10508D01*
Y192634D01*
X10254D01*
Y192888D01*
X9746D01*
Y192634D01*
X9492D01*
Y192126D01*
X9746D01*
X9848Y192228D02*
Y192075D01*
X10152D01*
Y192228D01*
X10305D01*
Y192532D01*
X10152D01*
Y192685D01*
X9848D01*
Y192532D01*
X9695D01*
Y192228D01*
X9848D01*
X145305Y74892D02*
X145559Y75146D01*
X145813D01*
X145559Y75400D01*
X145813Y75654D01*
X145559D01*
X145305Y75908D01*
X145051Y75654D01*
X144797D01*
X145051Y75400D01*
X144797Y75146D01*
X145051D01*
X145305Y74892D01*
Y75095D02*
X145457Y75248D01*
X145610D01*
X145457Y75400D01*
X145610Y75552D01*
X145457D01*
X145305Y75705D01*
X145153Y75552D01*
X145000D01*
X145153Y75400D01*
X145000Y75248D01*
X145153D01*
X145305Y75095D01*
Y49746D02*
X145559Y50000D01*
X145813D01*
X145559Y50254D01*
X145813Y50508D01*
X145559D01*
X145305Y50762D01*
X145051Y50508D01*
X144797D01*
X145051Y50254D01*
X144797Y50000D01*
X145051D01*
X145305Y49746D01*
Y49949D02*
X145457Y50102D01*
X145610D01*
X145457Y50254D01*
X145610Y50406D01*
X145457D01*
X145305Y50559D01*
X145153Y50406D01*
X145000D01*
X145153Y50254D01*
X145000Y50102D01*
X145153D01*
X145305Y49949D01*
X155822Y100682D02*
Y101698D01*
X156838D01*
Y100682D01*
X155822D01*
X156025Y100885D02*
Y101495D01*
X156635D01*
Y100885D01*
X156025D01*
X155772Y80707D02*
Y81723D01*
X156788D01*
Y80707D01*
X155772D01*
X155975Y80910D02*
Y81520D01*
X156585D01*
Y80910D01*
X155975D01*
X118870Y113465D02*
X118362Y114481D01*
X119378D01*
X118870Y113465D01*
Y113668D02*
X118565Y114278D01*
X119175D01*
X118870Y113668D01*
X145305Y103895D02*
X145559Y104149D01*
X145813D01*
X145559Y104403D01*
X145813Y104657D01*
X145559D01*
X145305Y104911D01*
X145051Y104657D01*
X144797D01*
X145051Y104403D01*
X144797Y104149D01*
X145051D01*
X145305Y103895D01*
Y104098D02*
X145457Y104251D01*
X145610D01*
X145457Y104403D01*
X145610Y104555D01*
X145457D01*
X145305Y104708D01*
X145153Y104555D01*
X145000D01*
X145153Y104403D01*
X145000Y104251D01*
X145153D01*
X145305Y104098D01*
Y78749D02*
X145559Y79003D01*
X145813D01*
X145559Y79257D01*
X145813Y79511D01*
X145559D01*
X145305Y79765D01*
X145051Y79511D01*
X144797D01*
X145051Y79257D01*
X144797Y79003D01*
X145051D01*
X145305Y78749D01*
Y78952D02*
X145457Y79105D01*
X145610D01*
X145457Y79257D01*
X145610Y79409D01*
X145457D01*
X145305Y79562D01*
X145153Y79409D01*
X145000D01*
X145153Y79257D01*
X145000Y79105D01*
X145153D01*
X145305Y78952D01*
X118600Y73985D02*
X118092Y75001D01*
X119108D01*
X118600Y73985D01*
Y74188D02*
X118295Y74798D01*
X118905D01*
X118600Y74188D01*
Y84526D02*
X118092Y85542D01*
X119108D01*
X118600Y84526D01*
Y84729D02*
X118295Y85339D01*
X118905D01*
X118600Y84729D01*
X118710Y35042D02*
X118202Y36058D01*
X119218D01*
X118710Y35042D01*
Y35245D02*
X118405Y35855D01*
X119015D01*
X118710Y35245D01*
Y45583D02*
X118202Y46599D01*
X119218D01*
X118710Y45583D01*
Y45786D02*
X118405Y46396D01*
X119015D01*
X118710Y45786D01*
X5307Y130722D02*
Y131738D01*
X6323D01*
Y130722D01*
X5307D01*
X5510Y130925D02*
Y131535D01*
X6120D01*
Y130925D01*
X5510D01*
X5257Y110747D02*
Y111763D01*
X6273D01*
Y110747D01*
X5257D01*
X5460Y110950D02*
Y111560D01*
X6070D01*
Y110950D01*
X5460D01*
X5217Y73192D02*
Y74208D01*
X6233D01*
Y73192D01*
X5217D01*
X5420Y73395D02*
Y74005D01*
X6030D01*
Y73395D01*
X5420D01*
X5167Y53217D02*
Y54233D01*
X6183D01*
Y53217D01*
X5167D01*
X5370Y53420D02*
Y54030D01*
X5980D01*
Y53420D01*
X5370D01*
X5257Y101372D02*
Y102388D01*
X6273D01*
Y101372D01*
X5257D01*
X5460Y101575D02*
Y102185D01*
X6070D01*
Y101575D01*
X5460D01*
X5207Y81397D02*
Y82413D01*
X6223D01*
Y81397D01*
X5207D01*
X5410Y81600D02*
Y82210D01*
X6020D01*
Y81600D01*
X5410D01*
X43850Y35017D02*
X43342Y36033D01*
X44358D01*
X43850Y35017D01*
Y35220D02*
X43545Y35830D01*
X44155D01*
X43850Y35220D01*
Y45558D02*
X43342Y46574D01*
X44358D01*
X43850Y45558D01*
Y45761D02*
X43545Y46371D01*
X44155D01*
X43850Y45761D01*
X44000Y74124D02*
X43492Y75140D01*
X44508D01*
X44000Y74124D01*
Y74328D02*
X43695Y74937D01*
X44305D01*
X44000Y74328D01*
Y84665D02*
X43492Y85681D01*
X44508D01*
X44000Y84665D01*
Y84869D02*
X43695Y85478D01*
X44305D01*
X44000Y84869D01*
X16790Y133078D02*
X17044Y133332D01*
X17298D01*
X17044Y133586D01*
X17298Y133840D01*
X17044D01*
X16790Y134094D01*
X16536Y133840D01*
X16282D01*
X16536Y133586D01*
X16282Y133332D01*
X16536D01*
X16790Y133078D01*
Y133281D02*
X16942Y133434D01*
X17095D01*
X16942Y133586D01*
X17095Y133738D01*
X16942D01*
X16790Y133891D01*
X16638Y133738D01*
X16485D01*
X16638Y133586D01*
X16485Y133434D01*
X16638D01*
X16790Y133281D01*
Y107932D02*
X17044Y108186D01*
X17298D01*
X17044Y108440D01*
X17298Y108694D01*
X17044D01*
X16790Y108948D01*
X16536Y108694D01*
X16282D01*
X16536Y108440D01*
X16282Y108186D01*
X16536D01*
X16790Y107932D01*
Y108135D02*
X16942Y108288D01*
X17095D01*
X16942Y108440D01*
X17095Y108592D01*
X16942D01*
X16790Y108745D01*
X16638Y108592D01*
X16485D01*
X16638Y108440D01*
X16485Y108288D01*
X16638D01*
X16790Y108135D01*
X16820Y75312D02*
X17074Y75566D01*
X17328D01*
X17074Y75820D01*
X17328Y76074D01*
X17074D01*
X16820Y76328D01*
X16566Y76074D01*
X16312D01*
X16566Y75820D01*
X16312Y75566D01*
X16566D01*
X16820Y75312D01*
Y75515D02*
X16972Y75668D01*
X17125D01*
X16972Y75820D01*
X17125Y75972D01*
X16972D01*
X16820Y76125D01*
X16668Y75972D01*
X16515D01*
X16668Y75820D01*
X16515Y75668D01*
X16668D01*
X16820Y75515D01*
Y50166D02*
X17074Y50420D01*
X17328D01*
X17074Y50674D01*
X17328Y50928D01*
X17074D01*
X16820Y51182D01*
X16566Y50928D01*
X16312D01*
X16566Y50674D01*
X16312Y50420D01*
X16566D01*
X16820Y50166D01*
Y50369D02*
X16972Y50522D01*
X17125D01*
X16972Y50674D01*
X17125Y50826D01*
X16972D01*
X16820Y50979D01*
X16668Y50826D01*
X16515D01*
X16668Y50674D01*
X16515Y50522D01*
X16668D01*
X16820Y50369D01*
Y104175D02*
X17074Y104429D01*
X17328D01*
X17074Y104683D01*
X17328Y104937D01*
X17074D01*
X16820Y105191D01*
X16566Y104937D01*
X16312D01*
X16566Y104683D01*
X16312Y104429D01*
X16566D01*
X16820Y104175D01*
Y104378D02*
X16972Y104531D01*
X17125D01*
X16972Y104683D01*
X17125Y104835D01*
X16972D01*
X16820Y104988D01*
X16668Y104835D01*
X16515D01*
X16668Y104683D01*
X16515Y104531D01*
X16668D01*
X16820Y104378D01*
Y79029D02*
X17074Y79283D01*
X17328D01*
X17074Y79537D01*
X17328Y79791D01*
X17074D01*
X16820Y80045D01*
X16566Y79791D01*
X16312D01*
X16566Y79537D01*
X16312Y79283D01*
X16566D01*
X16820Y79029D01*
Y79232D02*
X16972Y79385D01*
X17125D01*
X16972Y79537D01*
X17125Y79689D01*
X16972D01*
X16820Y79842D01*
X16668Y79689D01*
X16515D01*
X16668Y79537D01*
X16515Y79385D01*
X16668D01*
X16820Y79232D01*
X26560Y187620D02*
Y186350D01*
X27195D01*
X27406Y186562D01*
Y186773D01*
X27195Y186985D01*
X26560D01*
X27195D01*
X27406Y187196D01*
Y187408D01*
X27195Y187620D01*
X26560D01*
X92975Y203670D02*
Y202400D01*
X93610D01*
X93821Y202612D01*
Y202823D01*
X93610Y203035D01*
X92975D01*
X93610D01*
X93821Y203246D01*
Y203458D01*
X93610Y203670D01*
X92975D01*
X37350Y198955D02*
Y197685D01*
X37985D01*
X38196Y197897D01*
Y198108D01*
X37985Y198320D01*
X37350D01*
X37985D01*
X38196Y198531D01*
Y198743D01*
X37985Y198955D01*
X37350D01*
X78825Y209795D02*
Y208525D01*
X79460D01*
X79671Y208737D01*
Y208948D01*
X79460Y209160D01*
X78825D01*
X79460D01*
X79671Y209371D01*
Y209583D01*
X79460Y209795D01*
X78825D01*
X23504Y197685D02*
Y196415D01*
X24139D01*
X24351Y196627D01*
Y196838D01*
X24139Y197050D01*
X23504D01*
X24139D01*
X24351Y197261D01*
Y197473D01*
X24139Y197685D01*
X23504D01*
Y198955D02*
Y197685D01*
X24139D01*
X24351Y197897D01*
Y198108D01*
X24139Y198320D01*
X23504D01*
X24139D01*
X24351Y198531D01*
Y198743D01*
X24139Y198955D01*
X23504D01*
D134*
X225508Y175000D02*
G03*
X225508Y175000I-508J0D01*
G01*
Y95000D02*
G03*
X225508Y95000I-508J0D01*
G01*
Y75000D02*
G03*
X225508Y75000I-508J0D01*
G01*
Y115000D02*
G03*
X225508Y115000I-508J0D01*
G01*
Y55000D02*
G03*
X225508Y55000I-508J0D01*
G01*
Y160000D02*
G03*
X225508Y160000I-508J0D01*
G01*
Y190000D02*
G03*
X225508Y190000I-508J0D01*
G01*
Y145000D02*
G03*
X225508Y145000I-508J0D01*
G01*
X15508Y150000D02*
G03*
X15508Y150000I-508J0D01*
G01*
Y165000D02*
G03*
X15508Y165000I-508J0D01*
G01*
Y35000D02*
G03*
X15508Y35000I-508J0D01*
G01*
Y20000D02*
G03*
X15508Y20000I-508J0D01*
G01*
X136808Y208500D02*
G03*
X136808Y208500I-508J0D01*
G01*
X141808D02*
G03*
X141808Y208500I-508J0D01*
G01*
D135*
X136605D02*
G03*
X136605Y208500I-305J0D01*
G01*
X141605D02*
G03*
X141605Y208500I-305J0D01*
G01*
%TF.MD5,0db4a4fc00ca1f4174fcfa44a2af7d38*%
M02*
