%TF.GenerationSoftware,Altium Limited,Altium Designer,24.7.2 (38)*%
G04 Layer_Color=32768*
%FSLAX43Y43*%
%MOMM*%
%TF.SameCoordinates,3DDE4B3C-03A5-4BC3-9972-2EF5A5DF1AA7*%
%TF.FilePolarity,Positive*%
%TF.FileFunction,Other,Bottom_Assembly*%
%TF.Part,Single*%
G01*
G75*
%TA.AperFunction,NonConductor*%
%ADD81C,0.200*%
%ADD106C,0.100*%
G36*
X29630Y197703D02*
X29647Y197701D01*
X29664Y197697D01*
X29680Y197693D01*
X29694Y197686D01*
X29708Y197681D01*
X29720Y197673D01*
X29731Y197667D01*
X29740Y197660D01*
X29749Y197653D01*
X29757Y197647D01*
X29762Y197642D01*
X29767Y197636D01*
X29770Y197632D01*
X29772Y197631D01*
X29773Y197630D01*
X29785Y197613D01*
X29795Y197594D01*
X29805Y197573D01*
X29813Y197552D01*
X29819Y197530D01*
X29825Y197508D01*
X29830Y197485D01*
X29833Y197463D01*
X29836Y197442D01*
X29838Y197423D01*
X29840Y197405D01*
X29841Y197390D01*
Y197377D01*
X29842Y197368D01*
Y197364D01*
Y197362D01*
Y197361D01*
Y197360D01*
X29841Y197330D01*
X29839Y197302D01*
X29836Y197277D01*
X29831Y197252D01*
X29827Y197231D01*
X29822Y197212D01*
X29817Y197194D01*
X29810Y197178D01*
X29805Y197166D01*
X29799Y197154D01*
X29795Y197144D01*
X29789Y197136D01*
X29785Y197130D01*
X29782Y197126D01*
X29781Y197123D01*
X29780Y197122D01*
X29768Y197109D01*
X29755Y197098D01*
X29742Y197089D01*
X29729Y197080D01*
X29715Y197073D01*
X29702Y197068D01*
X29689Y197063D01*
X29676Y197059D01*
X29665Y197056D01*
X29654Y197054D01*
X29645Y197052D01*
X29636Y197051D01*
X29629D01*
X29624Y197050D01*
X29620D01*
X29598Y197051D01*
X29579Y197055D01*
X29562Y197058D01*
X29546Y197064D01*
X29534Y197068D01*
X29525Y197073D01*
X29521Y197074D01*
X29518Y197076D01*
X29517Y197077D01*
X29516D01*
X29500Y197088D01*
X29486Y197101D01*
X29474Y197114D01*
X29463Y197127D01*
X29455Y197139D01*
X29450Y197148D01*
X29448Y197152D01*
X29446Y197154D01*
X29445Y197155D01*
Y197156D01*
X29436Y197176D01*
X29429Y197196D01*
X29425Y197215D01*
X29422Y197232D01*
X29419Y197247D01*
Y197252D01*
X29418Y197258D01*
Y197263D01*
Y197265D01*
Y197267D01*
Y197268D01*
X29419Y197285D01*
X29421Y197301D01*
X29424Y197316D01*
X29427Y197330D01*
X29431Y197343D01*
X29436Y197356D01*
X29440Y197367D01*
X29446Y197377D01*
X29451Y197387D01*
X29456Y197395D01*
X29461Y197401D01*
X29465Y197408D01*
X29468Y197412D01*
X29471Y197415D01*
X29473Y197417D01*
X29474Y197418D01*
X29484Y197428D01*
X29495Y197437D01*
X29507Y197445D01*
X29518Y197451D01*
X29529Y197458D01*
X29540Y197462D01*
X29562Y197469D01*
X29571Y197472D01*
X29580Y197473D01*
X29587Y197474D01*
X29595Y197475D01*
X29600Y197476D01*
X29608D01*
X29624Y197475D01*
X29640Y197473D01*
X29655Y197470D01*
X29668Y197466D01*
X29679Y197461D01*
X29687Y197459D01*
X29693Y197456D01*
X29694Y197455D01*
X29695D01*
X29709Y197446D01*
X29722Y197436D01*
X29734Y197425D01*
X29744Y197414D01*
X29752Y197405D01*
X29758Y197398D01*
X29762Y197392D01*
X29763Y197391D01*
Y197408D01*
X29762Y197424D01*
X29761Y197439D01*
X29759Y197454D01*
X29758Y197467D01*
X29757Y197479D01*
X29755Y197490D01*
X29752Y197500D01*
X29750Y197509D01*
X29748Y197517D01*
X29746Y197523D01*
X29746Y197529D01*
X29744Y197533D01*
X29743Y197535D01*
X29742Y197537D01*
Y197538D01*
X29733Y197557D01*
X29723Y197573D01*
X29713Y197586D01*
X29704Y197597D01*
X29696Y197607D01*
X29689Y197613D01*
X29684Y197617D01*
X29683Y197618D01*
X29672Y197625D01*
X29660Y197630D01*
X29649Y197633D01*
X29638Y197636D01*
X29630Y197638D01*
X29623Y197639D01*
X29616D01*
X29599Y197637D01*
X29584Y197633D01*
X29571Y197628D01*
X29559Y197622D01*
X29549Y197616D01*
X29543Y197610D01*
X29539Y197607D01*
X29537Y197605D01*
X29531Y197596D01*
X29525Y197586D01*
X29519Y197575D01*
X29515Y197564D01*
X29512Y197554D01*
X29509Y197546D01*
X29508Y197540D01*
X29507Y197539D01*
Y197538D01*
X29428Y197545D01*
X29434Y197571D01*
X29442Y197594D01*
X29451Y197614D01*
X29462Y197631D01*
X29472Y197644D01*
X29476Y197649D01*
X29480Y197654D01*
X29483Y197656D01*
X29486Y197659D01*
X29487Y197660D01*
X29488Y197661D01*
X29497Y197669D01*
X29507Y197675D01*
X29527Y197686D01*
X29548Y197693D01*
X29567Y197698D01*
X29585Y197702D01*
X29592Y197703D01*
X29598D01*
X29604Y197704D01*
X29611D01*
X29630Y197703D01*
D02*
G37*
G36*
X30450Y197331D02*
Y197313D01*
X30449Y197295D01*
X30448Y197278D01*
X30446Y197263D01*
X30444Y197249D01*
X30443Y197236D01*
X30440Y197224D01*
X30438Y197213D01*
X30436Y197203D01*
X30433Y197194D01*
X30432Y197187D01*
X30430Y197181D01*
X30428Y197177D01*
X30427Y197173D01*
X30426Y197171D01*
Y197170D01*
X30416Y197150D01*
X30403Y197131D01*
X30390Y197117D01*
X30376Y197104D01*
X30364Y197093D01*
X30354Y197086D01*
X30350Y197084D01*
X30347Y197082D01*
X30346Y197080D01*
X30345D01*
X30322Y197070D01*
X30297Y197063D01*
X30272Y197057D01*
X30249Y197054D01*
X30239Y197053D01*
X30229Y197052D01*
X30220Y197051D01*
X30212D01*
X30206Y197050D01*
X30198D01*
X30164Y197052D01*
X30150Y197054D01*
X30136Y197056D01*
X30122Y197058D01*
X30110Y197061D01*
X30099Y197064D01*
X30089Y197068D01*
X30079Y197071D01*
X30072Y197074D01*
X30064Y197077D01*
X30059Y197080D01*
X30054Y197082D01*
X30052Y197083D01*
X30050Y197085D01*
X30049D01*
X30028Y197099D01*
X30012Y197115D01*
X29999Y197130D01*
X29988Y197144D01*
X29979Y197157D01*
X29974Y197167D01*
X29972Y197171D01*
X29970Y197174D01*
X29969Y197176D01*
Y197177D01*
X29966Y197188D01*
X29962Y197200D01*
X29956Y197225D01*
X29953Y197251D01*
X29950Y197276D01*
X29949Y197287D01*
X29948Y197298D01*
Y197307D01*
X29947Y197315D01*
Y197322D01*
Y197326D01*
Y197330D01*
Y197331D01*
Y197701D01*
X30032D01*
Y197331D01*
Y197310D01*
X30034Y197289D01*
X30036Y197272D01*
X30039Y197255D01*
X30041Y197240D01*
X30045Y197227D01*
X30048Y197215D01*
X30052Y197204D01*
X30055Y197196D01*
X30059Y197188D01*
X30063Y197182D01*
X30065Y197177D01*
X30068Y197173D01*
X30070Y197170D01*
X30071Y197169D01*
X30072Y197168D01*
X30080Y197161D01*
X30089Y197154D01*
X30110Y197144D01*
X30131Y197137D01*
X30153Y197132D01*
X30174Y197129D01*
X30182Y197128D01*
X30190D01*
X30196Y197127D01*
X30205D01*
X30224Y197128D01*
X30242Y197130D01*
X30259Y197133D01*
X30272Y197138D01*
X30283Y197142D01*
X30291Y197144D01*
X30296Y197147D01*
X30297Y197148D01*
X30310Y197156D01*
X30322Y197166D01*
X30331Y197177D01*
X30337Y197186D01*
X30343Y197195D01*
X30347Y197202D01*
X30349Y197206D01*
X30350Y197208D01*
X30353Y197216D01*
X30355Y197225D01*
X30358Y197244D01*
X30361Y197264D01*
X30363Y197285D01*
X30364Y197302D01*
Y197311D01*
X30365Y197317D01*
Y197323D01*
Y197327D01*
Y197330D01*
Y197331D01*
Y197701D01*
X30450D01*
Y197331D01*
D02*
G37*
G36*
X83473Y209773D02*
X83505Y209769D01*
X83534Y209765D01*
X83548Y209761D01*
X83560Y209758D01*
X83571Y209756D01*
X83581Y209752D01*
X83590Y209749D01*
X83597Y209747D01*
X83603Y209745D01*
X83608Y209744D01*
X83610Y209742D01*
X83611D01*
X83639Y209728D01*
X83664Y209712D01*
X83685Y209695D01*
X83694Y209687D01*
X83702Y209680D01*
X83709Y209672D01*
X83716Y209665D01*
X83721Y209659D01*
X83725Y209653D01*
X83729Y209649D01*
X83732Y209646D01*
X83732Y209644D01*
X83733Y209643D01*
X83741Y209630D01*
X83747Y209617D01*
X83757Y209589D01*
X83765Y209561D01*
X83769Y209535D01*
X83771Y209522D01*
X83773Y209511D01*
X83774Y209500D01*
Y209492D01*
X83775Y209485D01*
Y209475D01*
X83774Y209456D01*
X83772Y209438D01*
X83770Y209422D01*
X83767Y209406D01*
X83762Y209391D01*
X83757Y209377D01*
X83753Y209365D01*
X83747Y209352D01*
X83743Y209342D01*
X83738Y209332D01*
X83733Y209325D01*
X83729Y209317D01*
X83725Y209313D01*
X83723Y209308D01*
X83721Y209306D01*
X83720Y209305D01*
X83709Y209292D01*
X83698Y209281D01*
X83685Y209271D01*
X83672Y209261D01*
X83646Y209244D01*
X83621Y209231D01*
X83609Y209226D01*
X83597Y209221D01*
X83587Y209217D01*
X83579Y209215D01*
X83572Y209212D01*
X83566Y209210D01*
X83562Y209209D01*
X83561D01*
X83540Y209294D01*
X83555Y209298D01*
X83569Y209303D01*
X83582Y209307D01*
X83594Y209312D01*
X83605Y209317D01*
X83614Y209323D01*
X83623Y209329D01*
X83632Y209335D01*
X83639Y209340D01*
X83645Y209345D01*
X83650Y209350D01*
X83655Y209353D01*
X83658Y209357D01*
X83660Y209360D01*
X83661Y209361D01*
X83662Y209362D01*
X83670Y209371D01*
X83675Y209381D01*
X83685Y209401D01*
X83693Y209421D01*
X83697Y209440D01*
X83701Y209457D01*
X83702Y209463D01*
Y209470D01*
X83703Y209475D01*
Y209482D01*
X83702Y209503D01*
X83698Y209524D01*
X83694Y209542D01*
X83688Y209559D01*
X83683Y209572D01*
X83680Y209577D01*
X83678Y209582D01*
X83676Y209585D01*
X83674Y209588D01*
X83673Y209590D01*
Y209591D01*
X83660Y209609D01*
X83646Y209623D01*
X83631Y209636D01*
X83616Y209646D01*
X83603Y209655D01*
X83592Y209660D01*
X83587Y209662D01*
X83585Y209664D01*
X83583Y209665D01*
X83582D01*
X83558Y209672D01*
X83534Y209678D01*
X83510Y209683D01*
X83487Y209685D01*
X83477Y209686D01*
X83468Y209687D01*
X83460D01*
X83453Y209688D01*
X83448D01*
X83443D01*
X83440D01*
X83439D01*
X83415Y209687D01*
X83393Y209685D01*
X83373Y209682D01*
X83354Y209678D01*
X83339Y209675D01*
X83332Y209673D01*
X83327Y209671D01*
X83322Y209671D01*
X83319Y209670D01*
X83317Y209669D01*
X83316D01*
X83295Y209659D01*
X83276Y209649D01*
X83260Y209638D01*
X83246Y209626D01*
X83235Y209616D01*
X83228Y209608D01*
X83223Y209601D01*
X83221Y209600D01*
Y209599D01*
X83209Y209580D01*
X83200Y209559D01*
X83193Y209538D01*
X83190Y209519D01*
X83187Y209501D01*
X83186Y209494D01*
Y209487D01*
X83185Y209483D01*
Y209475D01*
X83186Y209452D01*
X83190Y209431D01*
X83195Y209414D01*
X83201Y209398D01*
X83207Y209386D01*
X83212Y209377D01*
X83216Y209371D01*
X83217Y209369D01*
X83231Y209354D01*
X83247Y209340D01*
X83264Y209329D01*
X83280Y209320D01*
X83295Y209313D01*
X83303Y209310D01*
X83308Y209308D01*
X83313Y209306D01*
X83316Y209304D01*
X83318Y209303D01*
X83319D01*
X83300Y209220D01*
X83283Y209226D01*
X83268Y209231D01*
X83254Y209239D01*
X83241Y209245D01*
X83229Y209253D01*
X83217Y209261D01*
X83206Y209268D01*
X83197Y209276D01*
X83190Y209283D01*
X83182Y209290D01*
X83176Y209296D01*
X83171Y209301D01*
X83167Y209305D01*
X83164Y209309D01*
X83163Y209311D01*
X83162Y209312D01*
X83154Y209325D01*
X83145Y209338D01*
X83139Y209351D01*
X83133Y209365D01*
X83125Y209392D01*
X83119Y209417D01*
X83117Y209429D01*
X83116Y209439D01*
X83115Y209450D01*
X83114Y209458D01*
X83113Y209464D01*
Y209474D01*
X83115Y209504D01*
X83119Y209534D01*
X83125Y209560D01*
X83129Y209572D01*
X83132Y209583D01*
X83136Y209593D01*
X83140Y209602D01*
X83143Y209610D01*
X83145Y209617D01*
X83148Y209622D01*
X83150Y209625D01*
X83151Y209628D01*
X83152Y209629D01*
X83168Y209654D01*
X83186Y209675D01*
X83205Y209694D01*
X83223Y209709D01*
X83240Y209721D01*
X83247Y209726D01*
X83254Y209730D01*
X83258Y209733D01*
X83262Y209735D01*
X83265Y209736D01*
X83266Y209737D01*
X83294Y209750D01*
X83324Y209759D01*
X83353Y209766D01*
X83380Y209770D01*
X83392Y209772D01*
X83404Y209773D01*
X83413Y209774D01*
X83423D01*
X83429Y209775D01*
X83435D01*
X83438D01*
X83439D01*
X83473Y209773D01*
D02*
G37*
G36*
X83764Y208724D02*
X83688D01*
Y209039D01*
X83672Y209028D01*
X83666Y209022D01*
X83659Y209018D01*
X83654Y209013D01*
X83650Y209009D01*
X83647Y209007D01*
X83646Y209006D01*
X83642Y209001D01*
X83637Y208996D01*
X83625Y208983D01*
X83611Y208968D01*
X83597Y208952D01*
X83585Y208937D01*
X83580Y208931D01*
X83574Y208925D01*
X83571Y208921D01*
X83568Y208917D01*
X83566Y208915D01*
X83565Y208914D01*
X83552Y208899D01*
X83540Y208885D01*
X83528Y208872D01*
X83518Y208860D01*
X83508Y208849D01*
X83499Y208839D01*
X83490Y208830D01*
X83483Y208823D01*
X83475Y208815D01*
X83470Y208810D01*
X83465Y208805D01*
X83461Y208801D01*
X83455Y208796D01*
X83453Y208794D01*
X83438Y208781D01*
X83424Y208770D01*
X83410Y208761D01*
X83399Y208753D01*
X83389Y208748D01*
X83381Y208744D01*
X83377Y208742D01*
X83375Y208741D01*
X83361Y208736D01*
X83347Y208732D01*
X83334Y208728D01*
X83323Y208727D01*
X83313Y208726D01*
X83305Y208725D01*
X83301D01*
X83299D01*
X83285Y208726D01*
X83272Y208727D01*
X83259Y208729D01*
X83248Y208733D01*
X83226Y208742D01*
X83208Y208752D01*
X83200Y208757D01*
X83193Y208762D01*
X83187Y208766D01*
X83182Y208771D01*
X83179Y208775D01*
X83175Y208776D01*
X83174Y208778D01*
X83173Y208779D01*
X83164Y208789D01*
X83156Y208801D01*
X83149Y208813D01*
X83144Y208825D01*
X83134Y208849D01*
X83128Y208873D01*
X83126Y208883D01*
X83124Y208893D01*
X83123Y208902D01*
X83122Y208910D01*
X83121Y208916D01*
Y208925D01*
X83122Y208942D01*
X83123Y208958D01*
X83126Y208973D01*
X83129Y208986D01*
X83132Y208999D01*
X83136Y209011D01*
X83141Y209022D01*
X83145Y209033D01*
X83150Y209042D01*
X83155Y209049D01*
X83158Y209056D01*
X83162Y209061D01*
X83165Y209066D01*
X83168Y209069D01*
X83169Y209070D01*
X83169Y209071D01*
X83179Y209081D01*
X83189Y209089D01*
X83200Y209097D01*
X83211Y209104D01*
X83233Y209115D01*
X83255Y209122D01*
X83266Y209125D01*
X83276Y209128D01*
X83284Y209130D01*
X83291Y209132D01*
X83298Y209132D01*
X83303D01*
X83305Y209133D01*
X83306D01*
X83315Y209053D01*
X83293Y209051D01*
X83275Y209047D01*
X83258Y209042D01*
X83245Y209035D01*
X83234Y209030D01*
X83227Y209024D01*
X83222Y209021D01*
X83220Y209019D01*
X83209Y209005D01*
X83201Y208990D01*
X83194Y208974D01*
X83191Y208960D01*
X83188Y208948D01*
X83187Y208936D01*
X83186Y208933D01*
Y208927D01*
X83187Y208908D01*
X83191Y208890D01*
X83196Y208875D01*
X83202Y208862D01*
X83208Y208852D01*
X83213Y208846D01*
X83217Y208841D01*
X83218Y208839D01*
X83231Y208828D01*
X83244Y208820D01*
X83257Y208813D01*
X83270Y208810D01*
X83280Y208807D01*
X83290Y208806D01*
X83295Y208805D01*
X83296D01*
X83297D01*
X83314Y208807D01*
X83331Y208811D01*
X83347Y208817D01*
X83362Y208824D01*
X83374Y208831D01*
X83384Y208838D01*
X83388Y208839D01*
X83390Y208841D01*
X83391Y208843D01*
X83392D01*
X83402Y208850D01*
X83413Y208860D01*
X83424Y208870D01*
X83435Y208881D01*
X83457Y208904D01*
X83479Y208927D01*
X83489Y208939D01*
X83499Y208949D01*
X83507Y208960D01*
X83514Y208968D01*
X83520Y208974D01*
X83524Y208980D01*
X83527Y208984D01*
X83528Y208985D01*
X83548Y209008D01*
X83566Y209029D01*
X83583Y209046D01*
X83597Y209060D01*
X83609Y209072D01*
X83617Y209081D01*
X83622Y209085D01*
X83623Y209087D01*
X83624D01*
X83640Y209100D01*
X83655Y209110D01*
X83670Y209120D01*
X83683Y209127D01*
X83694Y209132D01*
X83702Y209136D01*
X83708Y209138D01*
X83708Y209139D01*
X83709D01*
X83720Y209143D01*
X83729Y209144D01*
X83738Y209146D01*
X83746Y209147D01*
X83754Y209148D01*
X83759D01*
X83763D01*
X83764D01*
Y208724D01*
D02*
G37*
G36*
Y208226D02*
X83688D01*
Y208542D01*
X83672Y208531D01*
X83666Y208525D01*
X83659Y208520D01*
X83654Y208516D01*
X83650Y208512D01*
X83647Y208509D01*
X83646Y208508D01*
X83642Y208504D01*
X83637Y208498D01*
X83625Y208485D01*
X83611Y208470D01*
X83597Y208455D01*
X83585Y208440D01*
X83580Y208433D01*
X83574Y208428D01*
X83571Y208423D01*
X83568Y208420D01*
X83566Y208418D01*
X83565Y208417D01*
X83552Y208402D01*
X83540Y208387D01*
X83528Y208374D01*
X83518Y208362D01*
X83508Y208351D01*
X83499Y208342D01*
X83490Y208333D01*
X83483Y208325D01*
X83475Y208318D01*
X83470Y208312D01*
X83465Y208308D01*
X83461Y208303D01*
X83455Y208298D01*
X83453Y208297D01*
X83438Y208284D01*
X83424Y208273D01*
X83410Y208263D01*
X83399Y208256D01*
X83389Y208250D01*
X83381Y208247D01*
X83377Y208245D01*
X83375Y208244D01*
X83361Y208238D01*
X83347Y208235D01*
X83334Y208231D01*
X83323Y208229D01*
X83313Y208228D01*
X83305Y208227D01*
X83301D01*
X83299D01*
X83285Y208228D01*
X83272Y208230D01*
X83259Y208232D01*
X83248Y208236D01*
X83226Y208245D01*
X83208Y208254D01*
X83200Y208260D01*
X83193Y208264D01*
X83187Y208269D01*
X83182Y208274D01*
X83179Y208277D01*
X83175Y208279D01*
X83174Y208281D01*
X83173Y208282D01*
X83164Y208292D01*
X83156Y208303D01*
X83149Y208315D01*
X83144Y208327D01*
X83134Y208351D01*
X83128Y208375D01*
X83126Y208385D01*
X83124Y208396D01*
X83123Y208405D01*
X83122Y208412D01*
X83121Y208419D01*
Y208428D01*
X83122Y208445D01*
X83123Y208460D01*
X83126Y208475D01*
X83129Y208489D01*
X83132Y208502D01*
X83136Y208514D01*
X83141Y208525D01*
X83145Y208535D01*
X83150Y208544D01*
X83155Y208552D01*
X83158Y208558D01*
X83162Y208564D01*
X83165Y208568D01*
X83168Y208571D01*
X83169Y208573D01*
X83169Y208574D01*
X83179Y208583D01*
X83189Y208592D01*
X83200Y208600D01*
X83211Y208606D01*
X83233Y208617D01*
X83255Y208625D01*
X83266Y208628D01*
X83276Y208630D01*
X83284Y208632D01*
X83291Y208634D01*
X83298Y208635D01*
X83303D01*
X83305Y208636D01*
X83306D01*
X83315Y208556D01*
X83293Y208554D01*
X83275Y208550D01*
X83258Y208544D01*
X83245Y208538D01*
X83234Y208532D01*
X83227Y208527D01*
X83222Y208523D01*
X83220Y208521D01*
X83209Y208507D01*
X83201Y208493D01*
X83194Y208477D01*
X83191Y208463D01*
X83188Y208450D01*
X83187Y208439D01*
X83186Y208435D01*
Y208430D01*
X83187Y208410D01*
X83191Y208393D01*
X83196Y208378D01*
X83202Y208365D01*
X83208Y208355D01*
X83213Y208348D01*
X83217Y208344D01*
X83218Y208342D01*
X83231Y208331D01*
X83244Y208323D01*
X83257Y208316D01*
X83270Y208312D01*
X83280Y208310D01*
X83290Y208309D01*
X83295Y208308D01*
X83296D01*
X83297D01*
X83314Y208310D01*
X83331Y208313D01*
X83347Y208320D01*
X83362Y208326D01*
X83374Y208334D01*
X83384Y208340D01*
X83388Y208342D01*
X83390Y208344D01*
X83391Y208346D01*
X83392D01*
X83402Y208353D01*
X83413Y208362D01*
X83424Y208372D01*
X83435Y208384D01*
X83457Y208407D01*
X83479Y208430D01*
X83489Y208442D01*
X83499Y208452D01*
X83507Y208462D01*
X83514Y208470D01*
X83520Y208477D01*
X83524Y208482D01*
X83527Y208486D01*
X83528Y208487D01*
X83548Y208510D01*
X83566Y208531D01*
X83583Y208549D01*
X83597Y208563D01*
X83609Y208575D01*
X83617Y208583D01*
X83622Y208588D01*
X83623Y208590D01*
X83624D01*
X83640Y208603D01*
X83655Y208613D01*
X83670Y208622D01*
X83683Y208629D01*
X83694Y208635D01*
X83702Y208639D01*
X83708Y208641D01*
X83708Y208641D01*
X83709D01*
X83720Y208645D01*
X83729Y208647D01*
X83738Y208649D01*
X83746Y208650D01*
X83754Y208651D01*
X83759D01*
X83763D01*
X83764D01*
Y208226D01*
D02*
G37*
G36*
X32888Y181388D02*
X32920Y181384D01*
X32949Y181380D01*
X32963Y181376D01*
X32975Y181373D01*
X32986Y181371D01*
X32996Y181367D01*
X33005Y181364D01*
X33012Y181362D01*
X33018Y181359D01*
X33023Y181359D01*
X33025Y181357D01*
X33026D01*
X33054Y181343D01*
X33079Y181327D01*
X33100Y181311D01*
X33109Y181302D01*
X33117Y181295D01*
X33124Y181287D01*
X33131Y181280D01*
X33136Y181274D01*
X33140Y181268D01*
X33144Y181264D01*
X33147Y181261D01*
X33147Y181259D01*
X33148Y181258D01*
X33156Y181245D01*
X33162Y181232D01*
X33172Y181204D01*
X33180Y181176D01*
X33184Y181150D01*
X33186Y181137D01*
X33188Y181126D01*
X33189Y181115D01*
Y181107D01*
X33190Y181100D01*
Y181090D01*
X33189Y181071D01*
X33187Y181053D01*
X33185Y181037D01*
X33182Y181021D01*
X33177Y181006D01*
X33172Y180992D01*
X33168Y180980D01*
X33162Y180967D01*
X33158Y180957D01*
X33153Y180947D01*
X33148Y180940D01*
X33144Y180932D01*
X33140Y180928D01*
X33138Y180923D01*
X33136Y180921D01*
X33135Y180920D01*
X33124Y180907D01*
X33113Y180896D01*
X33100Y180886D01*
X33087Y180876D01*
X33062Y180859D01*
X33036Y180846D01*
X33024Y180841D01*
X33012Y180836D01*
X33002Y180833D01*
X32994Y180830D01*
X32987Y180827D01*
X32981Y180825D01*
X32977Y180824D01*
X32976D01*
X32955Y180909D01*
X32970Y180913D01*
X32984Y180918D01*
X32997Y180922D01*
X33009Y180927D01*
X33020Y180932D01*
X33029Y180938D01*
X33038Y180944D01*
X33047Y180950D01*
X33054Y180955D01*
X33060Y180960D01*
X33065Y180965D01*
X33070Y180968D01*
X33073Y180972D01*
X33075Y180975D01*
X33076Y180976D01*
X33077Y180977D01*
X33085Y180986D01*
X33090Y180996D01*
X33100Y181016D01*
X33108Y181036D01*
X33112Y181055D01*
X33116Y181072D01*
X33117Y181078D01*
Y181085D01*
X33118Y181090D01*
Y181097D01*
X33117Y181118D01*
X33113Y181139D01*
X33109Y181157D01*
X33103Y181174D01*
X33098Y181187D01*
X33095Y181192D01*
X33093Y181197D01*
X33091Y181200D01*
X33089Y181203D01*
X33088Y181205D01*
Y181206D01*
X33075Y181224D01*
X33062Y181238D01*
X33046Y181251D01*
X33031Y181262D01*
X33018Y181270D01*
X33007Y181275D01*
X33002Y181277D01*
X33000Y181279D01*
X32998Y181280D01*
X32997D01*
X32973Y181287D01*
X32949Y181293D01*
X32925Y181298D01*
X32902Y181300D01*
X32892Y181301D01*
X32883Y181302D01*
X32875D01*
X32868Y181303D01*
X32863D01*
X32858D01*
X32855D01*
X32854D01*
X32830Y181302D01*
X32808Y181300D01*
X32788Y181297D01*
X32769Y181293D01*
X32754Y181290D01*
X32747Y181288D01*
X32742Y181286D01*
X32737Y181286D01*
X32734Y181285D01*
X32732Y181284D01*
X32731D01*
X32710Y181274D01*
X32691Y181264D01*
X32675Y181253D01*
X32661Y181241D01*
X32650Y181231D01*
X32643Y181223D01*
X32638Y181216D01*
X32636Y181215D01*
Y181214D01*
X32624Y181195D01*
X32615Y181174D01*
X32608Y181153D01*
X32605Y181134D01*
X32602Y181116D01*
X32601Y181109D01*
Y181102D01*
X32600Y181098D01*
Y181090D01*
X32601Y181067D01*
X32605Y181046D01*
X32610Y181029D01*
X32616Y181013D01*
X32622Y181001D01*
X32627Y180992D01*
X32631Y180986D01*
X32632Y180984D01*
X32646Y180969D01*
X32662Y180955D01*
X32679Y180944D01*
X32695Y180935D01*
X32710Y180928D01*
X32718Y180925D01*
X32723Y180923D01*
X32728Y180921D01*
X32731Y180919D01*
X32733Y180918D01*
X32734D01*
X32715Y180835D01*
X32698Y180841D01*
X32683Y180846D01*
X32669Y180854D01*
X32656Y180860D01*
X32644Y180868D01*
X32632Y180876D01*
X32621Y180883D01*
X32612Y180891D01*
X32605Y180898D01*
X32597Y180905D01*
X32591Y180911D01*
X32586Y180916D01*
X32582Y180920D01*
X32579Y180924D01*
X32578Y180926D01*
X32577Y180927D01*
X32569Y180940D01*
X32560Y180953D01*
X32554Y180966D01*
X32548Y180980D01*
X32540Y181007D01*
X32535Y181032D01*
X32532Y181044D01*
X32531Y181054D01*
X32530Y181065D01*
X32529Y181073D01*
X32528Y181079D01*
Y181089D01*
X32530Y181119D01*
X32535Y181149D01*
X32540Y181175D01*
X32544Y181187D01*
X32547Y181198D01*
X32551Y181208D01*
X32555Y181217D01*
X32558Y181225D01*
X32560Y181232D01*
X32563Y181237D01*
X32565Y181240D01*
X32566Y181243D01*
X32567Y181244D01*
X32583Y181269D01*
X32601Y181290D01*
X32620Y181309D01*
X32638Y181324D01*
X32655Y181336D01*
X32662Y181341D01*
X32669Y181345D01*
X32673Y181348D01*
X32677Y181350D01*
X32680Y181351D01*
X32681Y181352D01*
X32709Y181365D01*
X32739Y181374D01*
X32768Y181381D01*
X32795Y181385D01*
X32807Y181387D01*
X32819Y181388D01*
X32829Y181389D01*
X32838D01*
X32844Y181390D01*
X32850D01*
X32853D01*
X32854D01*
X32888Y181388D01*
D02*
G37*
G36*
X33179Y180339D02*
X33103D01*
Y180654D01*
X33087Y180643D01*
X33081Y180637D01*
X33074Y180633D01*
X33069Y180628D01*
X33065Y180624D01*
X33062Y180622D01*
X33062Y180621D01*
X33057Y180616D01*
X33052Y180611D01*
X33040Y180598D01*
X33026Y180583D01*
X33012Y180567D01*
X33000Y180552D01*
X32995Y180546D01*
X32989Y180540D01*
X32986Y180536D01*
X32983Y180532D01*
X32981Y180530D01*
X32980Y180529D01*
X32967Y180514D01*
X32955Y180500D01*
X32943Y180487D01*
X32933Y180475D01*
X32923Y180464D01*
X32914Y180454D01*
X32905Y180445D01*
X32898Y180438D01*
X32890Y180430D01*
X32885Y180425D01*
X32880Y180420D01*
X32876Y180416D01*
X32870Y180411D01*
X32868Y180409D01*
X32853Y180396D01*
X32839Y180385D01*
X32825Y180376D01*
X32814Y180368D01*
X32804Y180363D01*
X32796Y180359D01*
X32792Y180357D01*
X32790Y180356D01*
X32776Y180351D01*
X32762Y180347D01*
X32749Y180343D01*
X32738Y180342D01*
X32728Y180341D01*
X32720Y180340D01*
X32716D01*
X32714D01*
X32700Y180341D01*
X32687Y180342D01*
X32674Y180344D01*
X32663Y180348D01*
X32641Y180357D01*
X32623Y180367D01*
X32615Y180372D01*
X32608Y180377D01*
X32602Y180381D01*
X32597Y180386D01*
X32594Y180390D01*
X32590Y180391D01*
X32589Y180393D01*
X32588Y180394D01*
X32579Y180404D01*
X32571Y180416D01*
X32564Y180428D01*
X32559Y180440D01*
X32549Y180464D01*
X32543Y180488D01*
X32541Y180498D01*
X32539Y180508D01*
X32538Y180517D01*
X32537Y180525D01*
X32536Y180531D01*
Y180540D01*
X32537Y180557D01*
X32538Y180573D01*
X32541Y180587D01*
X32544Y180601D01*
X32547Y180614D01*
X32551Y180626D01*
X32556Y180637D01*
X32560Y180648D01*
X32565Y180657D01*
X32570Y180664D01*
X32573Y180671D01*
X32577Y180676D01*
X32580Y180681D01*
X32583Y180684D01*
X32583Y180686D01*
X32584Y180686D01*
X32594Y180696D01*
X32604Y180704D01*
X32615Y180712D01*
X32626Y180719D01*
X32648Y180730D01*
X32670Y180737D01*
X32681Y180740D01*
X32691Y180743D01*
X32699Y180745D01*
X32706Y180747D01*
X32713Y180747D01*
X32718D01*
X32720Y180748D01*
X32721D01*
X32730Y180668D01*
X32708Y180666D01*
X32690Y180662D01*
X32673Y180657D01*
X32660Y180650D01*
X32649Y180645D01*
X32642Y180639D01*
X32637Y180636D01*
X32635Y180634D01*
X32624Y180620D01*
X32616Y180605D01*
X32609Y180589D01*
X32606Y180575D01*
X32603Y180563D01*
X32602Y180551D01*
X32601Y180548D01*
Y180542D01*
X32602Y180523D01*
X32606Y180505D01*
X32611Y180490D01*
X32617Y180477D01*
X32623Y180467D01*
X32628Y180461D01*
X32632Y180456D01*
X32633Y180454D01*
X32646Y180443D01*
X32659Y180435D01*
X32672Y180428D01*
X32685Y180425D01*
X32695Y180422D01*
X32705Y180421D01*
X32710Y180420D01*
X32711D01*
X32712D01*
X32729Y180422D01*
X32746Y180426D01*
X32762Y180432D01*
X32777Y180439D01*
X32789Y180446D01*
X32799Y180453D01*
X32803Y180454D01*
X32805Y180456D01*
X32806Y180458D01*
X32807D01*
X32817Y180465D01*
X32828Y180475D01*
X32839Y180485D01*
X32850Y180496D01*
X32872Y180519D01*
X32894Y180542D01*
X32904Y180554D01*
X32914Y180564D01*
X32922Y180575D01*
X32929Y180583D01*
X32935Y180589D01*
X32939Y180595D01*
X32942Y180599D01*
X32943Y180600D01*
X32963Y180623D01*
X32981Y180644D01*
X32998Y180661D01*
X33012Y180675D01*
X33024Y180687D01*
X33032Y180696D01*
X33037Y180700D01*
X33038Y180702D01*
X33039D01*
X33055Y180715D01*
X33070Y180725D01*
X33085Y180734D01*
X33098Y180742D01*
X33109Y180747D01*
X33117Y180751D01*
X33123Y180753D01*
X33123Y180754D01*
X33124D01*
X33135Y180758D01*
X33144Y180759D01*
X33153Y180761D01*
X33161Y180762D01*
X33169Y180763D01*
X33174D01*
X33178D01*
X33179D01*
Y180339D01*
D02*
G37*
G36*
X33025Y180003D02*
X33179D01*
Y179925D01*
X33025D01*
Y179838D01*
X32953D01*
Y179925D01*
X32539D01*
Y179988D01*
X32953Y180281D01*
X33025D01*
Y180003D01*
D02*
G37*
G36*
X37349Y177838D02*
X37359Y177823D01*
X37371Y177808D01*
X37383Y177795D01*
X37394Y177784D01*
X37402Y177775D01*
X37406Y177772D01*
X37408Y177770D01*
X37409Y177769D01*
X37410Y177768D01*
X37430Y177752D01*
X37449Y177737D01*
X37468Y177724D01*
X37486Y177714D01*
X37502Y177705D01*
X37508Y177701D01*
X37514Y177698D01*
X37519Y177696D01*
X37522Y177695D01*
X37524Y177693D01*
X37525D01*
Y177617D01*
X37511Y177623D01*
X37497Y177629D01*
X37483Y177635D01*
X37470Y177642D01*
X37459Y177647D01*
X37450Y177652D01*
X37445Y177656D01*
X37444Y177657D01*
X37443D01*
X37426Y177667D01*
X37411Y177677D01*
X37398Y177686D01*
X37388Y177695D01*
X37379Y177701D01*
X37373Y177707D01*
X37369Y177710D01*
X37368Y177711D01*
Y177211D01*
X37289D01*
Y177854D01*
X37340D01*
X37349Y177838D01*
D02*
G37*
G36*
X37074Y177513D02*
X37000Y177503D01*
X36993Y177513D01*
X36985Y177522D01*
X36978Y177530D01*
X36970Y177537D01*
X36963Y177541D01*
X36957Y177546D01*
X36954Y177548D01*
X36953Y177549D01*
X36941Y177554D01*
X36929Y177559D01*
X36918Y177561D01*
X36906Y177564D01*
X36897Y177565D01*
X36890Y177566D01*
X36872D01*
X36861Y177564D01*
X36842Y177560D01*
X36825Y177553D01*
X36810Y177547D01*
X36799Y177539D01*
X36791Y177533D01*
X36786Y177528D01*
X36784Y177527D01*
Y177526D01*
X36771Y177511D01*
X36762Y177494D01*
X36756Y177476D01*
X36751Y177459D01*
X36748Y177444D01*
X36747Y177438D01*
Y177432D01*
X36746Y177427D01*
Y177424D01*
Y177422D01*
Y177421D01*
Y177408D01*
X36748Y177396D01*
X36753Y177373D01*
X36759Y177353D01*
X36766Y177338D01*
X36773Y177325D01*
X36780Y177315D01*
X36783Y177312D01*
X36784Y177309D01*
X36785Y177308D01*
X36786Y177307D01*
X36794Y177300D01*
X36801Y177293D01*
X36818Y177282D01*
X36833Y177275D01*
X36849Y177270D01*
X36862Y177267D01*
X36873Y177266D01*
X36877Y177265D01*
X36882D01*
X36900Y177266D01*
X36916Y177269D01*
X36930Y177274D01*
X36941Y177279D01*
X36951Y177285D01*
X36958Y177290D01*
X36962Y177293D01*
X36964Y177294D01*
X36975Y177307D01*
X36984Y177321D01*
X36992Y177337D01*
X36997Y177351D01*
X37001Y177365D01*
X37004Y177375D01*
X37004Y177379D01*
X37005Y177382D01*
Y177384D01*
Y177385D01*
X37088Y177378D01*
X37086Y177364D01*
X37083Y177350D01*
X37075Y177324D01*
X37065Y177302D01*
X37059Y177292D01*
X37053Y177283D01*
X37049Y177275D01*
X37043Y177267D01*
X37039Y177262D01*
X37034Y177257D01*
X37030Y177254D01*
X37028Y177250D01*
X37027Y177249D01*
X37026Y177248D01*
X37015Y177240D01*
X37004Y177232D01*
X36992Y177226D01*
X36979Y177220D01*
X36956Y177212D01*
X36933Y177206D01*
X36923Y177204D01*
X36913Y177203D01*
X36905Y177202D01*
X36897Y177201D01*
X36891Y177200D01*
X36882D01*
X36863Y177201D01*
X36844Y177204D01*
X36827Y177207D01*
X36811Y177212D01*
X36796Y177218D01*
X36783Y177225D01*
X36770Y177231D01*
X36759Y177239D01*
X36748Y177246D01*
X36739Y177253D01*
X36732Y177260D01*
X36725Y177266D01*
X36721Y177270D01*
X36717Y177274D01*
X36715Y177277D01*
X36714Y177278D01*
X36705Y177290D01*
X36697Y177303D01*
X36690Y177315D01*
X36685Y177328D01*
X36675Y177353D01*
X36670Y177377D01*
X36668Y177387D01*
X36666Y177397D01*
X36665Y177405D01*
X36664Y177413D01*
X36663Y177419D01*
Y177424D01*
Y177427D01*
Y177427D01*
X36664Y177444D01*
X36666Y177460D01*
X36669Y177476D01*
X36673Y177489D01*
X36677Y177502D01*
X36682Y177515D01*
X36687Y177526D01*
X36692Y177537D01*
X36697Y177546D01*
X36703Y177554D01*
X36708Y177561D01*
X36712Y177567D01*
X36716Y177572D01*
X36719Y177574D01*
X36721Y177576D01*
X36722Y177577D01*
X36733Y177587D01*
X36744Y177597D01*
X36756Y177604D01*
X36768Y177610D01*
X36780Y177617D01*
X36792Y177622D01*
X36814Y177628D01*
X36824Y177631D01*
X36833Y177633D01*
X36842Y177634D01*
X36849Y177635D01*
X36855Y177635D01*
X36875D01*
X36886Y177634D01*
X36908Y177629D01*
X36929Y177623D01*
X36947Y177615D01*
X36962Y177608D01*
X36968Y177604D01*
X36974Y177601D01*
X36979Y177598D01*
X36981Y177597D01*
X36983Y177596D01*
X36984Y177595D01*
X36950Y177768D01*
X36694D01*
Y177843D01*
X37012D01*
X37074Y177513D01*
D02*
G37*
G36*
X37952Y177860D02*
X37982Y177855D01*
X38008Y177850D01*
X38020Y177846D01*
X38031Y177843D01*
X38041Y177839D01*
X38050Y177835D01*
X38058Y177832D01*
X38065Y177830D01*
X38070Y177827D01*
X38073Y177825D01*
X38076Y177824D01*
X38077Y177823D01*
X38102Y177807D01*
X38123Y177789D01*
X38142Y177770D01*
X38157Y177752D01*
X38169Y177735D01*
X38174Y177728D01*
X38178Y177721D01*
X38181Y177717D01*
X38183Y177713D01*
X38184Y177710D01*
X38185Y177709D01*
X38198Y177681D01*
X38207Y177651D01*
X38214Y177622D01*
X38218Y177595D01*
X38220Y177583D01*
X38221Y177571D01*
X38222Y177561D01*
Y177552D01*
X38223Y177546D01*
Y177540D01*
Y177537D01*
Y177536D01*
X38221Y177502D01*
X38217Y177470D01*
X38213Y177441D01*
X38209Y177427D01*
X38206Y177415D01*
X38204Y177404D01*
X38200Y177394D01*
X38197Y177385D01*
X38195Y177378D01*
X38193Y177372D01*
X38192Y177367D01*
X38190Y177365D01*
Y177364D01*
X38176Y177336D01*
X38160Y177311D01*
X38144Y177290D01*
X38135Y177281D01*
X38128Y177273D01*
X38120Y177266D01*
X38113Y177259D01*
X38107Y177254D01*
X38101Y177250D01*
X38097Y177246D01*
X38094Y177243D01*
X38092Y177243D01*
X38091Y177242D01*
X38078Y177234D01*
X38065Y177228D01*
X38037Y177218D01*
X38009Y177210D01*
X37983Y177206D01*
X37970Y177204D01*
X37959Y177202D01*
X37948Y177201D01*
X37940D01*
X37933Y177200D01*
X37923D01*
X37904Y177201D01*
X37886Y177203D01*
X37870Y177205D01*
X37854Y177208D01*
X37839Y177213D01*
X37825Y177218D01*
X37813Y177222D01*
X37800Y177228D01*
X37790Y177232D01*
X37780Y177237D01*
X37773Y177242D01*
X37765Y177246D01*
X37761Y177250D01*
X37756Y177252D01*
X37754Y177254D01*
X37753Y177255D01*
X37740Y177266D01*
X37729Y177277D01*
X37719Y177290D01*
X37709Y177303D01*
X37692Y177329D01*
X37679Y177354D01*
X37674Y177366D01*
X37669Y177378D01*
X37666Y177388D01*
X37663Y177396D01*
X37660Y177403D01*
X37658Y177409D01*
X37657Y177413D01*
Y177414D01*
X37742Y177435D01*
X37746Y177420D01*
X37751Y177406D01*
X37755Y177393D01*
X37760Y177381D01*
X37765Y177370D01*
X37771Y177361D01*
X37777Y177352D01*
X37783Y177343D01*
X37788Y177336D01*
X37793Y177330D01*
X37798Y177325D01*
X37801Y177320D01*
X37805Y177317D01*
X37808Y177315D01*
X37809Y177314D01*
X37810Y177313D01*
X37819Y177305D01*
X37829Y177300D01*
X37849Y177290D01*
X37869Y177282D01*
X37888Y177278D01*
X37905Y177274D01*
X37911Y177273D01*
X37918D01*
X37923Y177272D01*
X37930D01*
X37951Y177273D01*
X37972Y177277D01*
X37990Y177281D01*
X38007Y177287D01*
X38020Y177292D01*
X38025Y177295D01*
X38030Y177297D01*
X38033Y177299D01*
X38036Y177301D01*
X38038Y177302D01*
X38039D01*
X38057Y177315D01*
X38071Y177329D01*
X38084Y177344D01*
X38095Y177359D01*
X38103Y177372D01*
X38108Y177383D01*
X38110Y177388D01*
X38112Y177390D01*
X38113Y177392D01*
Y177393D01*
X38120Y177417D01*
X38126Y177441D01*
X38131Y177465D01*
X38133Y177488D01*
X38134Y177498D01*
X38135Y177507D01*
Y177515D01*
X38136Y177522D01*
Y177527D01*
Y177532D01*
Y177535D01*
Y177536D01*
X38135Y177560D01*
X38133Y177582D01*
X38130Y177602D01*
X38126Y177621D01*
X38123Y177636D01*
X38121Y177643D01*
X38119Y177648D01*
X38119Y177653D01*
X38118Y177656D01*
X38117Y177658D01*
Y177659D01*
X38107Y177680D01*
X38097Y177699D01*
X38086Y177715D01*
X38074Y177729D01*
X38064Y177740D01*
X38056Y177747D01*
X38049Y177752D01*
X38048Y177754D01*
X38047D01*
X38028Y177766D01*
X38007Y177775D01*
X37986Y177782D01*
X37967Y177785D01*
X37949Y177788D01*
X37942Y177789D01*
X37935D01*
X37931Y177790D01*
X37923D01*
X37900Y177789D01*
X37879Y177785D01*
X37862Y177780D01*
X37846Y177774D01*
X37834Y177768D01*
X37825Y177763D01*
X37819Y177759D01*
X37817Y177758D01*
X37802Y177744D01*
X37788Y177728D01*
X37777Y177711D01*
X37768Y177695D01*
X37761Y177680D01*
X37758Y177672D01*
X37756Y177667D01*
X37754Y177662D01*
X37752Y177659D01*
X37751Y177657D01*
Y177656D01*
X37668Y177675D01*
X37674Y177692D01*
X37679Y177707D01*
X37687Y177721D01*
X37693Y177734D01*
X37701Y177746D01*
X37709Y177758D01*
X37716Y177769D01*
X37724Y177778D01*
X37731Y177785D01*
X37738Y177793D01*
X37744Y177799D01*
X37749Y177804D01*
X37753Y177808D01*
X37757Y177811D01*
X37759Y177812D01*
X37760Y177813D01*
X37773Y177821D01*
X37786Y177830D01*
X37799Y177836D01*
X37813Y177842D01*
X37840Y177850D01*
X37865Y177855D01*
X37877Y177858D01*
X37887Y177859D01*
X37898Y177860D01*
X37906Y177861D01*
X37912Y177862D01*
X37922D01*
X37952Y177860D01*
D02*
G37*
%LPC*%
G36*
X29629Y197407D02*
X29623D01*
X29604Y197405D01*
X29586Y197400D01*
X29572Y197395D01*
X29559Y197387D01*
X29549Y197380D01*
X29541Y197374D01*
X29537Y197370D01*
X29535Y197368D01*
X29523Y197352D01*
X29513Y197336D01*
X29507Y197318D01*
X29503Y197301D01*
X29500Y197287D01*
X29500Y197280D01*
Y197275D01*
X29499Y197270D01*
Y197266D01*
Y197264D01*
Y197264D01*
X29500Y197239D01*
X29504Y197217D01*
X29510Y197199D01*
X29516Y197183D01*
X29524Y197171D01*
X29529Y197162D01*
X29533Y197156D01*
X29535Y197155D01*
Y197154D01*
X29541Y197147D01*
X29549Y197142D01*
X29563Y197131D01*
X29578Y197125D01*
X29591Y197119D01*
X29603Y197117D01*
X29612Y197116D01*
X29616Y197115D01*
X29621D01*
X29634Y197116D01*
X29646Y197117D01*
X29657Y197121D01*
X29666Y197125D01*
X29674Y197128D01*
X29681Y197131D01*
X29684Y197133D01*
X29686Y197134D01*
X29697Y197142D01*
X29707Y197151D01*
X29715Y197161D01*
X29721Y197169D01*
X29727Y197178D01*
X29731Y197184D01*
X29733Y197189D01*
X29734Y197191D01*
X29740Y197204D01*
X29744Y197218D01*
X29747Y197231D01*
X29749Y197243D01*
X29750Y197253D01*
X29751Y197262D01*
Y197266D01*
Y197268D01*
X29749Y197290D01*
X29746Y197310D01*
X29739Y197327D01*
X29733Y197341D01*
X29726Y197353D01*
X29720Y197362D01*
X29716Y197366D01*
X29714Y197368D01*
X29699Y197381D01*
X29684Y197390D01*
X29669Y197398D01*
X29655Y197402D01*
X29642Y197405D01*
X29633Y197406D01*
X29629Y197407D01*
D02*
G37*
G36*
X32953Y180205D02*
X32667Y180003D01*
X32953D01*
Y180205D01*
D02*
G37*
%LPD*%
D81*
X24000Y200275D02*
X36900D01*
X24000Y193825D02*
Y200275D01*
Y193825D02*
X36900D01*
Y200275D01*
X82925Y208375D02*
Y211175D01*
Y208375D02*
X84625D01*
Y211175D01*
X82925D02*
X84625D01*
X32340Y179990D02*
Y182790D01*
Y179990D02*
X34040D01*
Y182790D01*
X32340D02*
X34040D01*
X36823Y178050D02*
X39623D01*
X36823Y176350D02*
Y178050D01*
Y176350D02*
X39623D01*
Y178050D01*
D106*
X181988Y47551D02*
Y50599D01*
X183512Y47551D02*
Y50599D01*
X181988D02*
X183512D01*
X181988Y47551D02*
X183512D01*
X180037D02*
Y50599D01*
X178513Y47551D02*
Y50599D01*
Y47551D02*
X180037D01*
X178513Y50599D02*
X180037D01*
X185776Y47333D02*
X188824D01*
X185776Y48857D02*
X188824D01*
X185776Y47333D02*
Y48857D01*
X188824Y47333D02*
Y48857D01*
X182037Y67776D02*
Y70824D01*
X180513Y67776D02*
Y70824D01*
Y67776D02*
X182037D01*
X180513Y70824D02*
X182037D01*
X182213Y67776D02*
Y70824D01*
X183737Y67776D02*
Y70824D01*
X182213D02*
X183737D01*
X182213Y67776D02*
X183737D01*
X185801Y67333D02*
X188849D01*
X185801Y68857D02*
X188849D01*
X185801Y67333D02*
Y68857D01*
X188849Y67333D02*
Y68857D01*
X181990Y87676D02*
Y90724D01*
X183514Y87676D02*
Y90724D01*
X181990D02*
X183514D01*
X181990Y87676D02*
X183514D01*
X185476Y87333D02*
X188524D01*
X185476Y88857D02*
X188524D01*
X185476Y87333D02*
Y88857D01*
X188524Y87333D02*
Y88857D01*
X179862Y87676D02*
Y90724D01*
X178338Y87676D02*
Y90724D01*
Y87676D02*
X179862D01*
X178338Y90724D02*
X179862D01*
X180087Y107877D02*
Y110925D01*
X178563Y107877D02*
Y110925D01*
Y107877D02*
X180087D01*
X178563Y110925D02*
X180087D01*
X181963Y107877D02*
Y110925D01*
X183487Y107877D02*
Y110925D01*
X181963D02*
X183487D01*
X181963Y107877D02*
X183487D01*
X185414Y107333D02*
X188462D01*
X185414Y108857D02*
X188462D01*
X185414Y107333D02*
Y108857D01*
X188462Y107333D02*
Y108857D01*
X136975Y161450D02*
Y169975D01*
X141075Y161450D02*
Y169975D01*
X136975D02*
X141075D01*
X136975Y161450D02*
X141075D01*
X78500Y205000D02*
X82600D01*
X78500Y196475D02*
X82600D01*
X78500D02*
Y205000D01*
X82600Y196475D02*
Y205000D01*
X78500Y191964D02*
X82600D01*
X78500Y183439D02*
X82600D01*
X78500D02*
Y191964D01*
X82600Y183439D02*
Y191964D01*
X40800Y197350D02*
X43150D01*
X40800Y192650D02*
X43150D01*
X40800D02*
Y197350D01*
X43150Y192650D02*
Y197350D01*
X81251Y206213D02*
Y207737D01*
X84299Y206213D02*
Y207737D01*
X81251Y206213D02*
X84299D01*
X81251Y207737D02*
X84299D01*
X74071Y198514D02*
X78171D01*
X74071Y189989D02*
X78171D01*
X74071D02*
Y198514D01*
X78171Y189989D02*
Y198514D01*
X74125Y211525D02*
X78225D01*
X74125Y203000D02*
X78225D01*
X74125D02*
Y211525D01*
X78225Y203000D02*
Y211525D01*
X81013Y208001D02*
X82537D01*
X81013Y211049D02*
X82537D01*
Y208001D02*
Y211049D01*
X81013Y208001D02*
Y211049D01*
X17575Y198850D02*
X19925D01*
X17575Y194150D02*
X19925D01*
X17575D02*
Y198850D01*
X19925Y194150D02*
Y198850D01*
X136841Y174517D02*
X140941D01*
X136841Y183042D02*
X140941D01*
Y174517D02*
Y183042D01*
X136841Y174517D02*
Y183042D01*
X141450Y167975D02*
X145550D01*
X141450Y176500D02*
X145550D01*
Y167975D02*
Y176500D01*
X141450Y167975D02*
Y176500D01*
X28486Y181728D02*
Y183252D01*
X31534Y181728D02*
Y183252D01*
X28486Y181728D02*
X31534D01*
X28486Y183252D02*
X31534D01*
X34413Y179399D02*
X35937D01*
X34413Y176351D02*
X35937D01*
X34413D02*
Y179399D01*
X35937Y176351D02*
Y179399D01*
X37644Y179888D02*
Y181412D01*
X34596Y179888D02*
Y181412D01*
X37644D01*
X34596Y179888D02*
X37644D01*
X31534Y179878D02*
Y181402D01*
X28486Y179878D02*
Y181402D01*
X31534D01*
X28486Y179878D02*
X31534D01*
X182400Y48100D02*
X183100D01*
Y48450D01*
X182983Y48567D01*
X182750D01*
X182633Y48450D01*
Y48100D01*
Y48333D02*
X182400Y48567D01*
Y48800D02*
Y49033D01*
Y48916D01*
X183100D01*
X182983Y48800D01*
Y49383D02*
X183100Y49500D01*
Y49733D01*
X182983Y49849D01*
X182517D01*
X182400Y49733D01*
Y49500D01*
X182517Y49383D01*
X182983D01*
X179625Y50050D02*
X178925D01*
Y49700D01*
X179042Y49583D01*
X179275D01*
X179392Y49700D01*
Y50050D01*
Y49817D02*
X179625Y49583D01*
Y49350D02*
Y49117D01*
Y49234D01*
X178925D01*
X179042Y49350D01*
X179625Y48301D02*
Y48767D01*
X179158Y48301D01*
X179042D01*
X178925Y48417D01*
Y48650D01*
X179042Y48767D01*
X188275Y47745D02*
Y48445D01*
X187925D01*
X187808Y48328D01*
Y48095D01*
X187925Y47978D01*
X188275D01*
X188042D02*
X187808Y47745D01*
X187575D02*
X187342D01*
X187459D01*
Y48445D01*
X187575Y48328D01*
X186992Y47745D02*
X186759D01*
X186875D01*
Y48445D01*
X186992Y48328D01*
X181625Y70275D02*
X180925D01*
Y69925D01*
X181042Y69808D01*
X181275D01*
X181392Y69925D01*
Y70275D01*
Y70042D02*
X181625Y69808D01*
X181508Y69575D02*
X181625Y69459D01*
Y69225D01*
X181508Y69109D01*
X181042D01*
X180925Y69225D01*
Y69459D01*
X181042Y69575D01*
X181158D01*
X181275Y69459D01*
Y69109D01*
X182625Y68325D02*
X183325D01*
Y68675D01*
X183208Y68792D01*
X182975D01*
X182858Y68675D01*
Y68325D01*
Y68558D02*
X182625Y68792D01*
X183325Y69025D02*
Y69491D01*
X183208D01*
X182742Y69025D01*
X182625D01*
X188300Y67745D02*
Y68445D01*
X187950D01*
X187834Y68328D01*
Y68095D01*
X187950Y67978D01*
X188300D01*
X188067D02*
X187834Y67745D01*
X187600Y68328D02*
X187484Y68445D01*
X187251D01*
X187134Y68328D01*
Y68212D01*
X187251Y68095D01*
X187134Y67978D01*
Y67862D01*
X187251Y67745D01*
X187484D01*
X187600Y67862D01*
Y67978D01*
X187484Y68095D01*
X187600Y68212D01*
Y68328D01*
X187484Y68095D02*
X187251D01*
X182402Y88225D02*
X183102D01*
Y88575D01*
X182985Y88692D01*
X182752D01*
X182636Y88575D01*
Y88225D01*
Y88458D02*
X182402Y88692D01*
Y89275D02*
X183102D01*
X182752Y88925D01*
Y89391D01*
X187975Y87745D02*
Y88445D01*
X187625D01*
X187509Y88328D01*
Y88095D01*
X187625Y87978D01*
X187975D01*
X187742D02*
X187509Y87745D01*
X186809Y88445D02*
X187275D01*
Y88095D01*
X187042Y88212D01*
X186925D01*
X186809Y88095D01*
Y87862D01*
X186925Y87745D01*
X187159D01*
X187275Y87862D01*
X179450Y90175D02*
X178750D01*
Y89825D01*
X178867Y89708D01*
X179100D01*
X179217Y89825D01*
Y90175D01*
Y89942D02*
X179450Y89708D01*
X178750Y89009D02*
X178867Y89242D01*
X179100Y89475D01*
X179333D01*
X179450Y89359D01*
Y89125D01*
X179333Y89009D01*
X179217D01*
X179100Y89125D01*
Y89475D01*
X179675Y110376D02*
X178975D01*
Y110026D01*
X179092Y109909D01*
X179325D01*
X179442Y110026D01*
Y110376D01*
Y110143D02*
X179675Y109909D01*
X179092Y109676D02*
X178975Y109560D01*
Y109326D01*
X179092Y109210D01*
X179209D01*
X179325Y109326D01*
Y109443D01*
Y109326D01*
X179442Y109210D01*
X179558D01*
X179675Y109326D01*
Y109560D01*
X179558Y109676D01*
X182375Y108426D02*
X183075D01*
Y108776D01*
X182958Y108893D01*
X182725D01*
X182608Y108776D01*
Y108426D01*
Y108659D02*
X182375Y108893D01*
Y109126D02*
Y109359D01*
Y109242D01*
X183075D01*
X182958Y109126D01*
X187913Y107745D02*
Y108445D01*
X187563D01*
X187446Y108328D01*
Y108095D01*
X187563Y107978D01*
X187913D01*
X187680D02*
X187446Y107745D01*
X186747D02*
X187213D01*
X186747Y108212D01*
Y108328D01*
X186863Y108445D01*
X187097D01*
X187213Y108328D01*
X139025Y165725D02*
X139725D01*
Y166075D01*
X139608Y166192D01*
X139375D01*
X139258Y166075D01*
Y165725D01*
Y165958D02*
X139025Y166192D01*
X139608Y166425D02*
X139725Y166541D01*
Y166775D01*
X139608Y166891D01*
X139492D01*
X139375Y166775D01*
Y166658D01*
Y166775D01*
X139258Y166891D01*
X139142D01*
X139025Y166775D01*
Y166541D01*
X139142Y166425D01*
X139025Y167125D02*
Y167358D01*
Y167241D01*
X139725D01*
X139608Y167125D01*
X80550Y200725D02*
X79850D01*
Y200375D01*
X79967Y200258D01*
X80200D01*
X80317Y200375D01*
Y200725D01*
Y200492D02*
X80550Y200258D01*
X79967Y200025D02*
X79850Y199909D01*
Y199675D01*
X79967Y199559D01*
X80083D01*
X80200Y199675D01*
Y199792D01*
Y199675D01*
X80317Y199559D01*
X80433D01*
X80550Y199675D01*
Y199909D01*
X80433Y200025D01*
X79967Y199325D02*
X79850Y199209D01*
Y198976D01*
X79967Y198859D01*
X80083D01*
X80200Y198976D01*
Y199092D01*
Y198976D01*
X80317Y198859D01*
X80433D01*
X80550Y198976D01*
Y199209D01*
X80433Y199325D01*
X80550Y187689D02*
X79850D01*
Y187339D01*
X79967Y187223D01*
X80200D01*
X80317Y187339D01*
Y187689D01*
Y187456D02*
X80550Y187223D01*
Y186989D02*
Y186756D01*
Y186873D01*
X79850D01*
X79967Y186989D01*
X79850Y186406D02*
Y185940D01*
X79967D01*
X80433Y186406D01*
X80550D01*
X41717Y195458D02*
X41600Y195575D01*
Y195808D01*
X41717Y195925D01*
X42183D01*
X42300Y195808D01*
Y195575D01*
X42183Y195458D01*
X41717Y195225D02*
X41600Y195109D01*
Y194875D01*
X41717Y194759D01*
X41833D01*
X41950Y194875D01*
Y194992D01*
Y194875D01*
X42067Y194759D01*
X42183D01*
X42300Y194875D01*
Y195109D01*
X42183Y195225D01*
X41600Y194059D02*
Y194525D01*
X41950D01*
X41833Y194292D01*
Y194176D01*
X41950Y194059D01*
X42183D01*
X42300Y194176D01*
Y194409D01*
X42183Y194525D01*
X81800Y207325D02*
Y206625D01*
X82150D01*
X82266Y206742D01*
Y206975D01*
X82150Y207092D01*
X81800D01*
X82033D02*
X82266Y207325D01*
X82850D02*
Y206625D01*
X82500Y206975D01*
X82966D01*
X83199Y206742D02*
X83316Y206625D01*
X83549D01*
X83666Y206742D01*
Y206858D01*
X83549Y206975D01*
X83433D01*
X83549D01*
X83666Y207092D01*
Y207208D01*
X83549Y207325D01*
X83316D01*
X83199Y207208D01*
X76121Y194239D02*
X75422D01*
Y193889D01*
X75538Y193773D01*
X75772D01*
X75888Y193889D01*
Y194239D01*
Y194006D02*
X76121Y193773D01*
Y193073D02*
Y193539D01*
X75655Y193073D01*
X75538D01*
X75422Y193190D01*
Y193423D01*
X75538Y193539D01*
X76121Y192840D02*
Y192606D01*
Y192723D01*
X75422D01*
X75538Y192840D01*
X76175Y207250D02*
X75475D01*
Y206900D01*
X75592Y206783D01*
X75825D01*
X75942Y206900D01*
Y207250D01*
Y207017D02*
X76175Y206783D01*
Y206200D02*
X75475D01*
X75825Y206550D01*
Y206084D01*
X75475Y205384D02*
Y205850D01*
X75825D01*
X75708Y205617D01*
Y205501D01*
X75825Y205384D01*
X76058D01*
X76175Y205501D01*
Y205734D01*
X76058Y205850D01*
X81425Y208550D02*
X82125D01*
Y208900D01*
X82008Y209017D01*
X81775D01*
X81658Y208900D01*
Y208550D01*
Y208783D02*
X81425Y209017D01*
Y209600D02*
X82125D01*
X81775Y209250D01*
Y209716D01*
X82125Y210416D02*
X82008Y210183D01*
X81775Y209950D01*
X81541D01*
X81425Y210066D01*
Y210299D01*
X81541Y210416D01*
X81658D01*
X81775Y210299D01*
Y209950D01*
X18492Y196958D02*
X18375Y197075D01*
Y197308D01*
X18492Y197425D01*
X18958D01*
X19075Y197308D01*
Y197075D01*
X18958Y196958D01*
X18492Y196725D02*
X18375Y196609D01*
Y196375D01*
X18492Y196259D01*
X18608D01*
X18725Y196375D01*
Y196492D01*
Y196375D01*
X18842Y196259D01*
X18958D01*
X19075Y196375D01*
Y196609D01*
X18958Y196725D01*
X19075Y196025D02*
Y195792D01*
Y195909D01*
X18375D01*
X18492Y196025D01*
X138891Y178792D02*
X139591D01*
Y179142D01*
X139474Y179259D01*
X139241D01*
X139124Y179142D01*
Y178792D01*
Y179025D02*
X138891Y179259D01*
Y179492D02*
Y179725D01*
Y179609D01*
X139591D01*
X139474Y179492D01*
X138891Y180425D02*
X139591D01*
X139241Y180075D01*
Y180542D01*
X143500Y172250D02*
X144200D01*
Y172600D01*
X144083Y172717D01*
X143850D01*
X143733Y172600D01*
Y172250D01*
Y172483D02*
X143500Y172717D01*
Y172950D02*
Y173183D01*
Y173066D01*
X144200D01*
X144083Y172950D01*
Y173533D02*
X144200Y173650D01*
Y173883D01*
X144083Y173999D01*
X143967D01*
X143850Y173883D01*
X143733Y173999D01*
X143617D01*
X143500Y173883D01*
Y173650D01*
X143617Y173533D01*
X143733D01*
X143850Y173650D01*
X143967Y173533D01*
X144083D01*
X143850Y173650D02*
Y173883D01*
X29035Y182840D02*
Y182141D01*
X29385D01*
X29502Y182257D01*
Y182491D01*
X29385Y182607D01*
X29035D01*
X29268D02*
X29502Y182840D01*
X30085D02*
Y182141D01*
X29735Y182491D01*
X30201D01*
X30435Y182141D02*
X30901D01*
Y182257D01*
X30435Y182724D01*
Y182840D01*
X35525Y178850D02*
X34825D01*
Y178500D01*
X34942Y178383D01*
X35175D01*
X35292Y178500D01*
Y178850D01*
Y178617D02*
X35525Y178383D01*
X34942Y178150D02*
X34825Y178034D01*
Y177800D01*
X34942Y177684D01*
X35058D01*
X35175Y177800D01*
Y177917D01*
Y177800D01*
X35292Y177684D01*
X35408D01*
X35525Y177800D01*
Y178034D01*
X35408Y178150D01*
X34825Y177450D02*
Y176984D01*
X34942D01*
X35408Y177450D01*
X35525D01*
X37095Y180300D02*
Y181000D01*
X36745D01*
X36628Y180883D01*
Y180650D01*
X36745Y180533D01*
X37095D01*
X36862D02*
X36628Y180300D01*
X36045D02*
Y181000D01*
X36395Y180650D01*
X35929D01*
X35695Y180883D02*
X35579Y181000D01*
X35346D01*
X35229Y180883D01*
Y180766D01*
X35346Y180650D01*
X35229Y180533D01*
Y180416D01*
X35346Y180300D01*
X35579D01*
X35695Y180416D01*
Y180533D01*
X35579Y180650D01*
X35695Y180766D01*
Y180883D01*
X35579Y180650D02*
X35346D01*
X30985Y180290D02*
Y180990D01*
X30635D01*
X30518Y180873D01*
Y180640D01*
X30635Y180523D01*
X30985D01*
X30752D02*
X30518Y180290D01*
X29935D02*
Y180990D01*
X30285Y180640D01*
X29819D01*
X29236Y180290D02*
Y180990D01*
X29585Y180640D01*
X29119D01*
%TF.MD5,60616e052a28fb10dc0695811d1c55b0*%
M02*
