%TF.GenerationSoftware,Altium Limited,Altium Designer,24.7.2 (38)*%
G04 Layer_Color=0*
%FSLAX43Y43*%
%MOMM*%
%TF.SameCoordinates,3DDE4B3C-03A5-4BC3-9972-2EF5A5DF1AA7*%
%TF.FilePolarity,Positive*%
%TF.FileFunction,Profile,NP*%
%TF.Part,Single*%
G01*
G75*
%TA.AperFunction,Profile*%
%ADD110C,0.025*%
G36*
X233000Y5000D02*
Y4803D01*
X233077Y4417D01*
X233228Y4053D01*
X233447Y3725D01*
X233725Y3447D01*
X234053Y3228D01*
X234417Y3077D01*
X234803Y3000D01*
X235000D01*
X235197D01*
X235583Y3077D01*
X235947Y3228D01*
X236275Y3447D01*
X236553Y3725D01*
X236772Y4053D01*
X236923Y4417D01*
X237000Y4803D01*
Y5000D01*
Y5197D01*
X236923Y5583D01*
X236772Y5947D01*
X236553Y6275D01*
X236275Y6554D01*
X235947Y6772D01*
X235583Y6923D01*
X235197Y7000D01*
X235000D01*
X234803D01*
X234417Y6923D01*
X234053Y6772D01*
X233725Y6554D01*
X233447Y6275D01*
X233228Y5947D01*
X233077Y5583D01*
X233000Y5197D01*
Y5000D01*
D01*
D02*
G37*
G36*
Y210000D02*
Y209803D01*
X233077Y209417D01*
X233228Y209053D01*
X233447Y208725D01*
X233725Y208446D01*
X234053Y208228D01*
X234417Y208077D01*
X234803Y208000D01*
X235000D01*
X235197D01*
X235583Y208077D01*
X235947Y208228D01*
X236275Y208446D01*
X236553Y208725D01*
X236772Y209053D01*
X236923Y209417D01*
X237000Y209803D01*
Y210000D01*
Y210197D01*
X236923Y210583D01*
X236772Y210947D01*
X236553Y211275D01*
X236275Y211553D01*
X235947Y211772D01*
X235583Y211923D01*
X235197Y212000D01*
X235000D01*
X234803D01*
X234417Y211923D01*
X234053Y211772D01*
X233725Y211553D01*
X233447Y211275D01*
X233228Y210947D01*
X233077Y210583D01*
X233000Y210197D01*
Y210000D01*
D01*
D02*
G37*
G36*
Y130000D02*
Y129803D01*
X233077Y129417D01*
X233228Y129053D01*
X233447Y128725D01*
X233725Y128446D01*
X234053Y128228D01*
X234417Y128077D01*
X234803Y128000D01*
X235000D01*
X235197D01*
X235583Y128077D01*
X235947Y128228D01*
X236275Y128446D01*
X236553Y128725D01*
X236772Y129053D01*
X236923Y129417D01*
X237000Y129803D01*
Y130000D01*
Y130197D01*
X236923Y130583D01*
X236772Y130947D01*
X236553Y131275D01*
X236275Y131553D01*
X235947Y131772D01*
X235583Y131923D01*
X235197Y132000D01*
X235000D01*
X234803D01*
X234417Y131923D01*
X234053Y131772D01*
X233725Y131553D01*
X233447Y131275D01*
X233228Y130947D01*
X233077Y130583D01*
X233000Y130197D01*
Y130000D01*
D01*
D02*
G37*
G36*
X98000Y5000D02*
Y4803D01*
X98077Y4417D01*
X98228Y4053D01*
X98447Y3725D01*
X98725Y3447D01*
X99053Y3228D01*
X99417Y3077D01*
X99803Y3000D01*
X100000D01*
X100197D01*
X100583Y3077D01*
X100947Y3228D01*
X101275Y3447D01*
X101553Y3725D01*
X101772Y4053D01*
X101923Y4417D01*
X102000Y4803D01*
Y5000D01*
Y5197D01*
X101923Y5583D01*
X101772Y5947D01*
X101553Y6275D01*
X101275Y6554D01*
X100947Y6772D01*
X100583Y6923D01*
X100197Y7000D01*
X100000D01*
X99803D01*
X99417Y6923D01*
X99053Y6772D01*
X98725Y6554D01*
X98447Y6275D01*
X98228Y5947D01*
X98077Y5583D01*
X98000Y5197D01*
Y5000D01*
D01*
D02*
G37*
G36*
X100000Y208000D02*
X99803D01*
X99417Y208077D01*
X99053Y208228D01*
X98725Y208446D01*
X98447Y208725D01*
X98228Y209053D01*
X98077Y209417D01*
X98000Y209803D01*
Y210000D01*
Y210197D01*
X98077Y210583D01*
X98228Y210947D01*
X98447Y211275D01*
X98725Y211553D01*
X99053Y211772D01*
X99417Y211923D01*
X99803Y212000D01*
X100000D01*
X100197D01*
X100583Y211923D01*
X100947Y211772D01*
X101275Y211553D01*
X101553Y211275D01*
X101772Y210947D01*
X101923Y210583D01*
X102000Y210197D01*
Y210000D01*
Y209803D01*
X101923Y209417D01*
X101772Y209053D01*
X101553Y208725D01*
X101275Y208446D01*
X100947Y208228D01*
X100583Y208077D01*
X100197Y208000D01*
X100000D01*
D01*
D02*
G37*
G36*
X30000Y98000D02*
X29803D01*
X29417Y98077D01*
X29053Y98228D01*
X28725Y98447D01*
X28447Y98725D01*
X28228Y99053D01*
X28077Y99417D01*
X28000Y99803D01*
Y100000D01*
Y100197D01*
X28077Y100583D01*
X28228Y100947D01*
X28447Y101275D01*
X28725Y101553D01*
X29053Y101772D01*
X29417Y101923D01*
X29803Y102000D01*
X30000D01*
X30197D01*
X30583Y101923D01*
X30947Y101772D01*
X31275Y101553D01*
X31553Y101275D01*
X31772Y100947D01*
X31923Y100583D01*
X32000Y100197D01*
Y100000D01*
Y99803D01*
X31923Y99417D01*
X31772Y99053D01*
X31553Y98725D01*
X31275Y98447D01*
X30947Y98228D01*
X30583Y98077D01*
X30197Y98000D01*
X30000D01*
D01*
D02*
G37*
G36*
X5000Y208000D02*
X4803D01*
X4417Y208077D01*
X4053Y208228D01*
X3725Y208446D01*
X3447Y208725D01*
X3228Y209053D01*
X3077Y209417D01*
X3000Y209803D01*
Y210000D01*
Y210197D01*
X3077Y210583D01*
X3228Y210947D01*
X3447Y211275D01*
X3725Y211553D01*
X4053Y211772D01*
X4417Y211923D01*
X4803Y212000D01*
X5000D01*
X5197D01*
X5583Y211923D01*
X5947Y211772D01*
X6275Y211553D01*
X6554Y211275D01*
X6772Y210947D01*
X6923Y210583D01*
X7000Y210197D01*
Y210000D01*
Y209803D01*
X6923Y209417D01*
X6772Y209053D01*
X6554Y208725D01*
X6275Y208446D01*
X5947Y208228D01*
X5583Y208077D01*
X5197Y208000D01*
X5000D01*
D01*
D02*
G37*
G36*
X100000Y98000D02*
X99803D01*
X99417Y98077D01*
X99053Y98228D01*
X98725Y98447D01*
X98447Y98725D01*
X98228Y99053D01*
X98077Y99417D01*
X98000Y99803D01*
Y100000D01*
Y100197D01*
X98077Y100583D01*
X98228Y100947D01*
X98447Y101275D01*
X98725Y101553D01*
X99053Y101772D01*
X99417Y101923D01*
X99803Y102000D01*
X100000D01*
X100197D01*
X100583Y101923D01*
X100947Y101772D01*
X101275Y101553D01*
X101553Y101275D01*
X101772Y100947D01*
X101923Y100583D01*
X102000Y100197D01*
Y100000D01*
Y99803D01*
X101923Y99417D01*
X101772Y99053D01*
X101553Y98725D01*
X101275Y98447D01*
X100947Y98228D01*
X100583Y98077D01*
X100197Y98000D01*
X100000D01*
D01*
D02*
G37*
G36*
X98000Y60000D02*
Y59803D01*
X98077Y59417D01*
X98228Y59053D01*
X98447Y58725D01*
X98725Y58446D01*
X99053Y58228D01*
X99417Y58077D01*
X99803Y58000D01*
X100000D01*
X100197D01*
X100583Y58077D01*
X100947Y58228D01*
X101275Y58446D01*
X101553Y58725D01*
X101772Y59053D01*
X101923Y59417D01*
X102000Y59803D01*
Y60000D01*
Y60197D01*
X101923Y60583D01*
X101772Y60947D01*
X101553Y61275D01*
X101275Y61554D01*
X100947Y61772D01*
X100583Y61923D01*
X100197Y62000D01*
X100000D01*
X99803D01*
X99417Y61923D01*
X99053Y61772D01*
X98725Y61554D01*
X98447Y61275D01*
X98228Y60947D01*
X98077Y60583D01*
X98000Y60197D01*
Y60000D01*
D01*
D02*
G37*
G36*
X5000Y3000D02*
X4803D01*
X4417Y3077D01*
X4053Y3228D01*
X3725Y3447D01*
X3447Y3725D01*
X3228Y4053D01*
X3077Y4417D01*
X3000Y4803D01*
Y5000D01*
Y5197D01*
X3077Y5583D01*
X3228Y5947D01*
X3447Y6275D01*
X3725Y6554D01*
X4053Y6772D01*
X4417Y6923D01*
X4803Y7000D01*
X5000D01*
X5197D01*
X5583Y6923D01*
X5947Y6772D01*
X6275Y6554D01*
X6554Y6275D01*
X6772Y5947D01*
X6923Y5583D01*
X7000Y5197D01*
Y5000D01*
Y4803D01*
X6923Y4417D01*
X6772Y4053D01*
X6554Y3725D01*
X6275Y3447D01*
X5947Y3228D01*
X5583Y3077D01*
X5197Y3000D01*
X5000D01*
D01*
D02*
G37*
D110*
Y0D02*
G02*
X0Y5000I0J5000D01*
G01*
Y210000D01*
D02*
G02*
X5000Y215000I5000J0D01*
G01*
X235000D01*
D02*
G02*
X240000Y210000I0J-5000D01*
G01*
X240000Y5000D01*
D02*
G02*
X235000Y0I-5000J0D01*
G01*
X5000D01*
%TF.MD5,9a6def3cb3191e36528678b9217ef1f9*%
M02*
