%TF.GenerationSoftware,Altium Limited,Altium Designer,24.7.2 (38)*%
G04 Layer_Color=255*
%FSLAX43Y43*%
%MOMM*%
%TF.SameCoordinates,3DDE4B3C-03A5-4BC3-9972-2EF5A5DF1AA7*%
%TF.FilePolarity,Positive*%
%TF.FileFunction,Pads,Bot*%
%TF.Part,Single*%
G01*
G75*
%TA.AperFunction,SMDPad,CuDef*%
%ADD15R,1.250X0.800*%
%TA.AperFunction,ComponentPad*%
%ADD37C,5.000*%
%ADD38C,1.500*%
%ADD39R,1.500X1.500*%
%ADD40C,2.500*%
%ADD41O,1.778X1.524*%
%ADD42O,5.080X8.890*%
%ADD43C,14.000*%
%ADD44C,3.000*%
%ADD45C,8.000*%
%ADD46C,4.064*%
%ADD47C,2.032*%
%ADD48O,8.890X5.080*%
%ADD49O,1.524X1.778*%
%ADD50C,6.000*%
%ADD51O,6.600X4.826*%
%ADD52O,3.000X3.100*%
%ADD53C,1.600*%
%ADD54R,1.550X1.550*%
%ADD55C,1.550*%
%ADD56C,1.950*%
G04:AMPARAMS|DCode=57|XSize=1.95mm|YSize=1.95mm|CornerRadius=0.488mm|HoleSize=0mm|Usage=FLASHONLY|Rotation=180.000|XOffset=0mm|YOffset=0mm|HoleType=Round|Shape=RoundedRectangle|*
%AMROUNDEDRECTD57*
21,1,1.950,0.975,0,0,180.0*
21,1,0.975,1.950,0,0,180.0*
1,1,0.975,-0.488,0.488*
1,1,0.975,0.488,0.488*
1,1,0.975,0.488,-0.488*
1,1,0.975,-0.488,-0.488*
%
%ADD57ROUNDEDRECTD57*%
%TA.AperFunction,SMDPad,CuDef*%
%ADD62R,0.800X1.250*%
%ADD63R,1.800X0.600*%
%ADD64R,1.450X1.800*%
%ADD65R,2.500X2.200*%
%ADD66R,1.350X0.950*%
%ADD67R,0.950X1.350*%
D15*
X187900Y52143D02*
D03*
Y50143D02*
D03*
X182750Y50075D02*
D03*
Y48075D02*
D03*
X179275D02*
D03*
Y50075D02*
D03*
X184729Y68288D02*
D03*
Y66288D02*
D03*
X187750Y71965D02*
D03*
Y69965D02*
D03*
X181275Y68300D02*
D03*
Y70300D02*
D03*
X182975D02*
D03*
Y68300D02*
D03*
X182752Y90200D02*
D03*
Y88200D02*
D03*
X187700Y111925D02*
D03*
Y109925D02*
D03*
X184678Y47977D02*
D03*
Y45977D02*
D03*
X179100Y88200D02*
D03*
Y90200D02*
D03*
X188000Y91965D02*
D03*
Y89965D02*
D03*
X184475Y88125D02*
D03*
Y86125D02*
D03*
X180975Y90200D02*
D03*
Y88200D02*
D03*
X181025Y50075D02*
D03*
Y48075D02*
D03*
X179500Y70300D02*
D03*
Y68300D02*
D03*
X179325Y108401D02*
D03*
Y110401D02*
D03*
X181008Y110401D02*
D03*
Y108401D02*
D03*
X182725Y110401D02*
D03*
Y108401D02*
D03*
X184426Y108333D02*
D03*
Y106333D02*
D03*
X80000Y210525D02*
D03*
Y208525D02*
D03*
X81775Y208525D02*
D03*
Y210525D02*
D03*
X22099Y198985D02*
D03*
Y196985D02*
D03*
X45550Y194175D02*
D03*
Y196175D02*
D03*
X38625Y198746D02*
D03*
Y196746D02*
D03*
X35175Y178875D02*
D03*
Y176875D02*
D03*
X26560Y182728D02*
D03*
Y180728D02*
D03*
D37*
X44000Y124575D02*
D03*
Y114034D02*
D03*
X81710Y124514D02*
D03*
Y113973D02*
D03*
X118870Y124514D02*
D03*
X81590Y85034D02*
D03*
Y74493D02*
D03*
Y46091D02*
D03*
Y35550D02*
D03*
X118870Y113973D02*
D03*
X118600Y74493D02*
D03*
Y85034D02*
D03*
X118710Y35550D02*
D03*
Y46091D02*
D03*
X43850Y35525D02*
D03*
Y46066D02*
D03*
X44000Y74632D02*
D03*
Y85173D02*
D03*
D38*
X173700Y48025D02*
D03*
Y50565D02*
D03*
Y88250D02*
D03*
Y90790D02*
D03*
Y108401D02*
D03*
Y110941D02*
D03*
X173800Y68360D02*
D03*
Y70900D02*
D03*
X26015Y205300D02*
D03*
X23475D02*
D03*
X20935D02*
D03*
X18395D02*
D03*
X10000Y200000D02*
D03*
Y197460D02*
D03*
Y194920D02*
D03*
Y192380D02*
D03*
D39*
X173700Y53105D02*
D03*
Y93330D02*
D03*
Y113481D02*
D03*
X173800Y73440D02*
D03*
D40*
X179275Y55175D02*
D03*
X188275Y43725D02*
D03*
X184678Y53023D02*
D03*
X184729Y73475D02*
D03*
X179500Y75250D02*
D03*
X188325Y64555D02*
D03*
X188000Y84300D02*
D03*
X184425Y114050D02*
D03*
X187938Y104200D02*
D03*
X179275Y114625D02*
D03*
X179100Y94250D02*
D03*
X184450Y92675D02*
D03*
X159950Y170400D02*
D03*
X129050Y208500D02*
D03*
X38600Y200975D02*
D03*
X41975Y212025D02*
D03*
X86875Y209025D02*
D03*
X26250Y177825D02*
D03*
X30834Y176251D02*
D03*
X22622Y181128D02*
D03*
D41*
X190221Y48095D02*
D03*
Y50000D02*
D03*
Y51905D02*
D03*
Y68095D02*
D03*
Y70000D02*
D03*
Y71905D02*
D03*
Y88095D02*
D03*
Y90000D02*
D03*
Y91905D02*
D03*
Y108095D02*
D03*
Y110000D02*
D03*
Y111905D02*
D03*
D42*
X211811Y44920D02*
D03*
Y55080D02*
D03*
Y64920D02*
D03*
Y75080D02*
D03*
Y84920D02*
D03*
Y95080D02*
D03*
Y104920D02*
D03*
Y115080D02*
D03*
D43*
X225000Y175000D02*
D03*
Y95000D02*
D03*
Y75000D02*
D03*
Y115000D02*
D03*
Y55000D02*
D03*
Y160000D02*
D03*
Y190000D02*
D03*
Y145000D02*
D03*
X15000Y150000D02*
D03*
Y165000D02*
D03*
Y35000D02*
D03*
Y20000D02*
D03*
D44*
X156280Y52675D02*
D03*
X156330Y72650D02*
D03*
X156280Y110395D02*
D03*
X156330Y130370D02*
D03*
Y101190D02*
D03*
X156280Y81215D02*
D03*
X5815Y131230D02*
D03*
X5765Y111255D02*
D03*
X5725Y73700D02*
D03*
X5675Y53725D02*
D03*
X5765Y101880D02*
D03*
X5715Y81905D02*
D03*
D45*
X120872Y198132D02*
D03*
X120770Y188048D02*
D03*
X120592Y157543D02*
D03*
X120745Y147332D02*
D03*
X54451Y203212D02*
D03*
X54578Y192900D02*
D03*
X54527Y157314D02*
D03*
Y147231D02*
D03*
D46*
X113074Y147205D02*
D03*
X113125Y157365D02*
D03*
X113175Y187921D02*
D03*
X113125Y198081D02*
D03*
X62299Y203034D02*
D03*
X62350Y192900D02*
D03*
X62325Y157340D02*
D03*
X62274Y147154D02*
D03*
D47*
X145305Y133153D02*
D03*
Y108007D02*
D03*
Y75400D02*
D03*
Y50254D02*
D03*
Y104403D02*
D03*
Y79257D02*
D03*
X16790Y133586D02*
D03*
Y108440D02*
D03*
X16820Y75820D02*
D03*
Y50674D02*
D03*
Y104683D02*
D03*
Y79537D02*
D03*
D48*
X42160Y152419D02*
D03*
X32000D02*
D03*
D49*
X38985Y174009D02*
D03*
X37080D02*
D03*
X35175D02*
D03*
D50*
X164700Y194075D02*
D03*
D51*
X141332Y196996D02*
D03*
X141459Y191154D02*
D03*
D52*
X134275Y174450D02*
D03*
Y162450D02*
D03*
D53*
X132280Y190900D02*
D03*
X134820D02*
D03*
D54*
X26560Y190826D02*
D03*
D55*
X29100D02*
D03*
X31640D02*
D03*
X34180D02*
D03*
D56*
X136300Y208500D02*
D03*
D57*
X141300D02*
D03*
D62*
X186300Y48095D02*
D03*
X188300D02*
D03*
X186325Y68095D02*
D03*
X188325D02*
D03*
X186000Y88095D02*
D03*
X188000D02*
D03*
X185938Y108095D02*
D03*
X187938D02*
D03*
X81775Y206975D02*
D03*
X83775D02*
D03*
X29010Y182490D02*
D03*
X31010D02*
D03*
X37120Y180650D02*
D03*
X35120D02*
D03*
X31010Y180640D02*
D03*
X29010D02*
D03*
D63*
X35900Y198955D02*
D03*
Y197685D02*
D03*
Y196415D02*
D03*
Y195145D02*
D03*
X25000D02*
D03*
Y196415D02*
D03*
Y197685D02*
D03*
Y198955D02*
D03*
D64*
X140250Y169000D02*
D03*
Y162450D02*
D03*
X137800Y169000D02*
D03*
Y162450D02*
D03*
X81775Y204000D02*
D03*
Y197450D02*
D03*
X79325Y204000D02*
D03*
Y197450D02*
D03*
X81775Y190964D02*
D03*
Y184414D02*
D03*
X79325Y190964D02*
D03*
Y184414D02*
D03*
X77346Y197514D02*
D03*
Y190964D02*
D03*
X74896Y197514D02*
D03*
Y190964D02*
D03*
X77400Y210525D02*
D03*
Y203975D02*
D03*
X74950Y210525D02*
D03*
Y203975D02*
D03*
X137666Y175517D02*
D03*
Y182067D02*
D03*
X140116Y175517D02*
D03*
Y182067D02*
D03*
X142275Y168975D02*
D03*
Y175525D02*
D03*
X144725Y168975D02*
D03*
Y175525D02*
D03*
D65*
X41975Y198450D02*
D03*
Y191550D02*
D03*
X18750Y199950D02*
D03*
Y193050D02*
D03*
D66*
X83775Y210525D02*
D03*
Y209025D02*
D03*
X33190Y182140D02*
D03*
Y180640D02*
D03*
D67*
X38973Y177200D02*
D03*
X37473D02*
D03*
%TF.MD5,d40144b61d7137932a55547be4eaf3cf*%
M02*
