%TF.GenerationSoftware,Altium Limited,Altium Designer,25.3.3 (18)*%
G04 Layer_Color=32768*
%FSLAX45Y45*%
%MOMM*%
%TF.SameCoordinates,A4CA6E92-6A9D-4088-ADF9-EEBE24E4F9EE*%
%TF.FilePolarity,Positive*%
%TF.FileFunction,Other,Mechanical_15*%
%TF.Part,Single*%
G01*
G75*
%TA.AperFunction,NonConductor*%
%ADD72C,0.25400*%
D72*
X20800000Y1200000D02*
X20888223D01*
X20717262Y1201078D02*
X20805486D01*
X20800000Y1110705D02*
Y1200000D01*
Y1289294D01*
X11500000Y1200000D02*
X11588223D01*
X11417263Y1201078D02*
X11505487D01*
X11500000Y1110705D02*
Y1200000D01*
Y1289294D01*
X2400000Y1200000D02*
X2488223D01*
X2317263Y1201078D02*
X2405486D01*
X2400000Y1110705D02*
Y1200000D01*
Y1289294D01*
X26387500Y20155000D02*
X26475723D01*
X26304764Y20156078D02*
X26392987D01*
X26387500Y20065706D02*
Y20155000D01*
Y20244295D01*
X28704276Y28800000D02*
X28792499D01*
X28787015Y28798923D02*
X28875238D01*
X28792499Y28800000D02*
Y28889294D01*
Y28710706D02*
Y28800000D01*
X20704277D02*
X20792500D01*
X20787013Y28798923D02*
X20875237D01*
X20792500Y28800000D02*
Y28889294D01*
Y28710706D02*
Y28800000D01*
X26299277Y9825000D02*
X26387500D01*
X26382013Y9823922D02*
X26470236D01*
X26387500Y9825000D02*
Y9914295D01*
Y9735706D02*
Y9825000D01*
X2410000Y28710706D02*
Y28800000D01*
Y28889294D01*
X2404514Y28798923D02*
X2492737D01*
X2321777Y28800000D02*
X2410000D01*
X11552500Y28710706D02*
Y28800000D01*
Y28889294D01*
X11547013Y28798923D02*
X11635237D01*
X11464277Y28800000D02*
X11552500D01*
X28800000Y1200000D02*
Y1289294D01*
Y1110705D02*
Y1200000D01*
X28717264Y1201078D02*
X28805487D01*
X28800000Y1200000D02*
X28888223D01*
%TF.MD5,da4278fa93988e3e147989731c1cd1aa*%
M02*
