%TF.GenerationSoftware,Altium Limited,Altium Designer,25.3.3 (18)*%
G04 Layer_Color=32768*
%FSLAX45Y45*%
%MOMM*%
%TF.SameCoordinates,A4CA6E92-6A9D-4088-ADF9-EEBE24E4F9EE*%
%TF.FilePolarity,Positive*%
%TF.FileFunction,Other,Bottom_Assembly*%
%TF.Part,Single*%
G01*
G75*
%TA.AperFunction,NonConductor*%
%ADD71C,0.20000*%
%ADD73C,0.10000*%
%ADD130R,1.77500X0.67500*%
G36*
X1080507Y11062418D02*
X1082174Y11062251D01*
X1083757Y11062085D01*
X1085173Y11061918D01*
X1086506Y11061752D01*
X1087672Y11061502D01*
X1088755Y11061252D01*
X1089755Y11061085D01*
X1090588Y11060835D01*
X1091338Y11060669D01*
X1091921Y11060419D01*
X1092421Y11060335D01*
X1092754Y11060169D01*
X1092921Y11060085D01*
X1093004D01*
X1095087Y11059002D01*
X1096837Y11057753D01*
X1098419Y11056420D01*
X1099669Y11055087D01*
X1100669Y11053837D01*
X1101335Y11052837D01*
X1101585Y11052504D01*
X1101752Y11052171D01*
X1101919Y11052004D01*
Y11051921D01*
X1102918Y11049671D01*
X1103668Y11047172D01*
X1104251Y11044756D01*
X1104585Y11042423D01*
X1104751Y11041340D01*
X1104834Y11040340D01*
X1104918Y11039424D01*
Y11038674D01*
X1105001Y11038008D01*
Y11037175D01*
X1104918Y11035508D01*
X1104834Y11033842D01*
X1104668Y11032342D01*
X1104418Y11030926D01*
X1104168Y11029593D01*
X1103918Y11028427D01*
X1103585Y11027260D01*
X1103252Y11026261D01*
X1102918Y11025344D01*
X1102585Y11024511D01*
X1102335Y11023845D01*
X1102085Y11023261D01*
X1101835Y11022845D01*
X1101669Y11022512D01*
X1101502Y11022345D01*
Y11022262D01*
X1100835Y11021262D01*
X1100086Y11020262D01*
X1098503Y11018596D01*
X1097003Y11017263D01*
X1095504Y11016180D01*
X1094254Y11015347D01*
X1093671Y11015014D01*
X1093171Y11014764D01*
X1092838Y11014597D01*
X1092504Y11014430D01*
X1092338Y11014347D01*
X1092254D01*
X1091171Y11013930D01*
X1090005Y11013597D01*
X1087506Y11013014D01*
X1084923Y11012681D01*
X1082424Y11012348D01*
X1081340Y11012264D01*
X1080257Y11012181D01*
X1079341D01*
X1078508Y11012098D01*
X1077841D01*
X1077342D01*
X1077008D01*
X1076925D01*
X1039851D01*
Y11020595D01*
X1076842D01*
X1079008Y11020679D01*
X1081007Y11020762D01*
X1082840Y11020929D01*
X1084506Y11021179D01*
X1086006Y11021512D01*
X1087339Y11021845D01*
X1088505Y11022178D01*
X1089505Y11022595D01*
X1090421Y11022928D01*
X1091171Y11023345D01*
X1091838Y11023678D01*
X1092338Y11023928D01*
X1092671Y11024261D01*
X1092921Y11024428D01*
X1093087Y11024511D01*
X1093171Y11024594D01*
X1093921Y11025428D01*
X1094504Y11026344D01*
X1095087Y11027344D01*
X1095587Y11028343D01*
X1096337Y11030593D01*
X1096837Y11032759D01*
X1097003Y11033759D01*
X1097086Y11034758D01*
X1097170Y11035675D01*
X1097253Y11036425D01*
X1097336Y11037008D01*
Y11037924D01*
X1097253Y11039924D01*
X1097003Y11041673D01*
X1096670Y11043256D01*
X1096253Y11044589D01*
X1095920Y11045672D01*
X1095587Y11046505D01*
X1095337Y11047005D01*
X1095254Y11047089D01*
Y11047172D01*
X1094337Y11048505D01*
X1093421Y11049588D01*
X1092338Y11050504D01*
X1091421Y11051254D01*
X1090505Y11051837D01*
X1089838Y11052171D01*
X1089338Y11052421D01*
X1089255Y11052504D01*
X1089172D01*
X1088339Y11052754D01*
X1087506Y11053004D01*
X1085589Y11053337D01*
X1083507Y11053670D01*
X1081507Y11053837D01*
X1080591D01*
X1079674Y11053920D01*
X1078924D01*
X1078175Y11054004D01*
X1077675D01*
X1077175D01*
X1076925D01*
X1076842D01*
X1039851D01*
Y11062501D01*
X1076925D01*
X1078758D01*
X1080507Y11062418D01*
D02*
G37*
G36*
X1062762Y10993686D02*
X1062095Y10992269D01*
X1061429Y10990853D01*
X1060762Y10989603D01*
X1060179Y10988520D01*
X1059679Y10987604D01*
X1059513Y10987271D01*
X1059346Y10987021D01*
X1059263Y10986937D01*
Y10986854D01*
X1058263Y10985188D01*
X1057263Y10983772D01*
X1056347Y10982439D01*
X1055514Y10981355D01*
X1054847Y10980522D01*
X1054264Y10979856D01*
X1053931Y10979523D01*
X1053848Y10979356D01*
X1103918D01*
Y10971525D01*
X1039601D01*
Y10976607D01*
X1041184Y10977523D01*
X1042684Y10978606D01*
X1044183Y10979773D01*
X1045433Y10980856D01*
X1046599Y10981939D01*
X1047433Y10982772D01*
X1047766Y10983105D01*
X1048016Y10983355D01*
X1048099Y10983522D01*
X1048182Y10983605D01*
X1049765Y10985521D01*
X1051182Y10987437D01*
X1052515Y10989437D01*
X1053598Y10991186D01*
X1054431Y10992769D01*
X1054847Y10993436D01*
X1055097Y10994019D01*
X1055347Y10994435D01*
X1055514Y10994769D01*
X1055680Y10995019D01*
Y10995102D01*
X1063345D01*
X1062762Y10993686D01*
D02*
G37*
G36*
X40855139Y9136337D02*
X40823648D01*
X40824731Y9134837D01*
X40825314Y9134087D01*
X40825812Y9133504D01*
X40826312Y9132921D01*
X40826645Y9132504D01*
X40826895Y9132255D01*
X40826981Y9132171D01*
X40827396Y9131755D01*
X40827979Y9131171D01*
X40828561Y9130588D01*
X40829230Y9130005D01*
X40830728Y9128672D01*
X40832312Y9127339D01*
X40833728Y9126089D01*
X40834393Y9125506D01*
X40834894Y9125006D01*
X40835394Y9124673D01*
X40835727Y9124340D01*
X40835977Y9124173D01*
X40836060Y9124090D01*
X40837561Y9122757D01*
X40839059Y9121507D01*
X40840308Y9120424D01*
X40841559Y9119341D01*
X40842642Y9118341D01*
X40843643Y9117342D01*
X40844559Y9116509D01*
X40845309Y9115759D01*
X40846057Y9115092D01*
X40846640Y9114509D01*
X40847141Y9114009D01*
X40847559Y9113593D01*
X40847809Y9113259D01*
X40848056Y9113009D01*
X40848224Y9112926D01*
Y9112843D01*
X40849475Y9111343D01*
X40850558Y9109844D01*
X40851474Y9108511D01*
X40852222Y9107344D01*
X40852805Y9106428D01*
X40853140Y9105678D01*
X40853391Y9105178D01*
X40853473Y9105012D01*
X40853973Y9103595D01*
X40854388Y9102262D01*
X40854639Y9100929D01*
X40854889Y9099846D01*
X40854971Y9098846D01*
X40855057Y9098097D01*
Y9097597D01*
Y9097430D01*
X40854971Y9096014D01*
X40854807Y9094681D01*
X40854556Y9093431D01*
X40854224Y9092265D01*
X40853305Y9090099D01*
X40852890Y9089099D01*
X40852390Y9088266D01*
X40851807Y9087433D01*
X40851389Y9086766D01*
X40850891Y9086183D01*
X40850473Y9085683D01*
X40850140Y9085267D01*
X40849890Y9085017D01*
X40849725Y9084850D01*
X40849640Y9084767D01*
X40848557Y9083850D01*
X40847473Y9083100D01*
X40846307Y9082351D01*
X40845059Y9081767D01*
X40843808Y9081268D01*
X40842642Y9080851D01*
X40840308Y9080268D01*
X40839227Y9080018D01*
X40838226Y9079851D01*
X40837311Y9079768D01*
X40836478Y9079685D01*
X40835895Y9079601D01*
X40834979D01*
X40833310Y9079685D01*
X40831729Y9079768D01*
X40830228Y9080018D01*
X40828897Y9080351D01*
X40827563Y9080684D01*
X40826395Y9081101D01*
X40825314Y9081518D01*
X40824313Y9081934D01*
X40823398Y9082434D01*
X40822647Y9082851D01*
X40821982Y9083267D01*
X40821399Y9083600D01*
X40820981Y9083934D01*
X40820648Y9084184D01*
X40820480Y9084267D01*
X40820398Y9084350D01*
X40819397Y9085267D01*
X40818564Y9086266D01*
X40817816Y9087349D01*
X40817148Y9088516D01*
X40816565Y9089599D01*
X40816068Y9090765D01*
X40815317Y9093015D01*
X40814984Y9094014D01*
X40814734Y9095014D01*
X40814566Y9095847D01*
X40814398Y9096597D01*
X40814316Y9097263D01*
Y9097680D01*
X40814233Y9098013D01*
Y9098097D01*
X40822314Y9098930D01*
X40822482Y9096764D01*
X40822815Y9094931D01*
X40823398Y9093348D01*
X40824063Y9091932D01*
X40824646Y9090932D01*
X40825229Y9090099D01*
X40825562Y9089682D01*
X40825729Y9089515D01*
X40827063Y9088349D01*
X40828561Y9087516D01*
X40830145Y9086933D01*
X40831561Y9086516D01*
X40832812Y9086266D01*
X40833395Y9086183D01*
X40833893D01*
X40834229Y9086100D01*
X40834811D01*
X40836728Y9086266D01*
X40838477Y9086600D01*
X40839975Y9087099D01*
X40841226Y9087683D01*
X40842227Y9088349D01*
X40842975Y9088849D01*
X40843393Y9089182D01*
X40843558Y9089349D01*
X40844724Y9090599D01*
X40845557Y9091932D01*
X40846140Y9093181D01*
X40846558Y9094431D01*
X40846808Y9095514D01*
X40846890Y9096430D01*
X40846973Y9096764D01*
Y9096930D01*
Y9097097D01*
Y9097180D01*
Y9098013D01*
X40846808Y9098846D01*
X40846390Y9100596D01*
X40845807Y9102179D01*
X40845142Y9103595D01*
X40844391Y9104845D01*
X40844058Y9105345D01*
X40843808Y9105845D01*
X40843558Y9106178D01*
X40843393Y9106428D01*
X40843307Y9106594D01*
X40843225Y9106678D01*
X40842477Y9107677D01*
X40841559Y9108677D01*
X40840558Y9109760D01*
X40839474Y9110927D01*
X40837143Y9113176D01*
X40834811Y9115342D01*
X40833728Y9116342D01*
X40832645Y9117258D01*
X40831644Y9118091D01*
X40830811Y9118841D01*
X40830145Y9119424D01*
X40829562Y9119841D01*
X40829230Y9120174D01*
X40829147Y9120258D01*
X40826730Y9122257D01*
X40824646Y9124090D01*
X40822897Y9125756D01*
X40821481Y9127173D01*
X40820316Y9128339D01*
X40819482Y9129255D01*
X40819232Y9129589D01*
X40818982Y9129838D01*
X40818896Y9129922D01*
X40818814Y9130005D01*
X40817566Y9131588D01*
X40816483Y9133088D01*
X40815649Y9134504D01*
X40814899Y9135837D01*
X40814316Y9136920D01*
X40813983Y9137753D01*
X40813815Y9138086D01*
X40813733Y9138336D01*
X40813651Y9138420D01*
Y9138503D01*
X40813315Y9139503D01*
X40813065Y9140419D01*
X40812900Y9141336D01*
X40812817Y9142169D01*
X40812732Y9142918D01*
Y9143418D01*
Y9143752D01*
Y9143918D01*
X40855139D01*
Y9136337D01*
D02*
G37*
G36*
X40779492Y9144918D02*
X40781158Y9144835D01*
X40782657Y9144668D01*
X40784073Y9144418D01*
X40785406Y9144168D01*
X40786572Y9143918D01*
X40787741Y9143585D01*
X40788739Y9143252D01*
X40789655Y9142918D01*
X40790488Y9142585D01*
X40791156Y9142335D01*
X40791739Y9142085D01*
X40792154Y9141835D01*
X40792487Y9141669D01*
X40792654Y9141502D01*
X40792737D01*
X40793738Y9140836D01*
X40794739Y9140086D01*
X40796405Y9138503D01*
X40797736Y9137003D01*
X40798819Y9135504D01*
X40799652Y9134254D01*
X40799985Y9133671D01*
X40800235Y9133171D01*
X40800403Y9132838D01*
X40800571Y9132504D01*
X40800653Y9132338D01*
Y9132255D01*
X40801071Y9131171D01*
X40801404Y9130005D01*
X40801987Y9127506D01*
X40802319Y9124923D01*
X40802652Y9122424D01*
X40802737Y9121341D01*
X40802820Y9120258D01*
Y9119341D01*
X40802902Y9118508D01*
Y9117842D01*
Y9117342D01*
Y9117008D01*
Y9116925D01*
Y9079851D01*
X40794406D01*
Y9116842D01*
X40794321Y9119008D01*
X40794238Y9121007D01*
X40794070Y9122840D01*
X40793820Y9124507D01*
X40793488Y9126006D01*
X40793155Y9127339D01*
X40792822Y9128505D01*
X40792404Y9129505D01*
X40792072Y9130422D01*
X40791656Y9131171D01*
X40791321Y9131838D01*
X40791071Y9132338D01*
X40790738Y9132671D01*
X40790573Y9132921D01*
X40790488Y9133088D01*
X40790405Y9133171D01*
X40789572Y9133921D01*
X40788657Y9134504D01*
X40787656Y9135087D01*
X40786658Y9135587D01*
X40784406Y9136337D01*
X40782242Y9136837D01*
X40781241Y9137003D01*
X40780243Y9137087D01*
X40779324Y9137170D01*
X40778574Y9137253D01*
X40777991Y9137337D01*
X40777075D01*
X40775076Y9137253D01*
X40773328Y9137003D01*
X40771744Y9136670D01*
X40770410Y9136254D01*
X40769327Y9135920D01*
X40768494Y9135587D01*
X40767996Y9135337D01*
X40767911Y9135254D01*
X40767828D01*
X40766495Y9134337D01*
X40765411Y9133421D01*
X40764496Y9132338D01*
X40763745Y9131421D01*
X40763162Y9130505D01*
X40762830Y9129838D01*
X40762579Y9129339D01*
X40762497Y9129255D01*
Y9129172D01*
X40762247Y9128339D01*
X40761996Y9127506D01*
X40761664Y9125590D01*
X40761331Y9123507D01*
X40761163Y9121507D01*
Y9120591D01*
X40761081Y9119674D01*
Y9118925D01*
X40760995Y9118175D01*
Y9117675D01*
Y9117175D01*
Y9116925D01*
Y9116842D01*
Y9079851D01*
X40752499D01*
Y9116925D01*
Y9118758D01*
X40752582Y9120508D01*
X40752750Y9122174D01*
X40752914Y9123757D01*
X40753082Y9125173D01*
X40753247Y9126506D01*
X40753497Y9127672D01*
X40753748Y9128755D01*
X40753915Y9129755D01*
X40754166Y9130588D01*
X40754330Y9131338D01*
X40754581Y9131921D01*
X40754666Y9132421D01*
X40754831Y9132754D01*
X40754916Y9132921D01*
Y9133004D01*
X40755997Y9135087D01*
X40757248Y9136837D01*
X40758578Y9138420D01*
X40759912Y9139669D01*
X40761163Y9140669D01*
X40762164Y9141336D01*
X40762497Y9141585D01*
X40762830Y9141752D01*
X40762997Y9141919D01*
X40763080D01*
X40765329Y9142918D01*
X40767828Y9143668D01*
X40770245Y9144251D01*
X40772577Y9144585D01*
X40773660Y9144751D01*
X40774661Y9144835D01*
X40775577Y9144918D01*
X40776328D01*
X40776993Y9145001D01*
X40777826D01*
X40779492Y9144918D01*
D02*
G37*
D71*
X28017838Y2990000D02*
X28067838D01*
X28042838Y2965000D02*
Y3015000D01*
X28512839Y2990000D02*
X28562839D01*
X28537839Y2965000D02*
Y3015000D01*
X29307501Y27070001D02*
Y27120001D01*
X29282501Y27095001D02*
X29332501D01*
X22177499Y29367938D02*
Y29417938D01*
X22152499Y29392938D02*
X22202499D01*
X782500Y11707500D02*
X1427500D01*
Y10417500D02*
Y11707500D01*
X782500Y10417500D02*
X1427500D01*
X782500D02*
Y11707500D01*
X27112500Y850000D02*
X27162500D01*
X27137500Y825000D02*
Y875000D01*
X23337500Y667500D02*
Y717500D01*
X23312500Y692500D02*
X23362500D01*
X23337500Y1165000D02*
Y1215000D01*
X23312500Y1190000D02*
X23362500D01*
X26470001Y667500D02*
Y717500D01*
X26445001Y692500D02*
X26495001D01*
X27596707Y2842500D02*
Y2892500D01*
X27571707Y2867500D02*
X27621707D01*
X27311707Y2842500D02*
Y2892500D01*
X27286707Y2867500D02*
X27336707D01*
X19122499Y2717500D02*
Y2767500D01*
X19097501Y2742500D02*
X19147499D01*
X19382500Y2717500D02*
Y2767500D01*
X19357500Y2742500D02*
X19407500D01*
X6067500Y582500D02*
Y632500D01*
X6042500Y607500D02*
X6092500D01*
X5677500D02*
X5727500D01*
X5702500Y582500D02*
Y632500D01*
X9392500Y1142500D02*
X9442500D01*
X9417500Y1117500D02*
Y1167500D01*
X3690000Y1160000D02*
X3740000D01*
X3715000Y1135000D02*
Y1185000D01*
X20130000Y2860000D02*
Y2910000D01*
X20105000Y2885000D02*
X20155000D01*
X20625000Y2860000D02*
Y2910000D01*
X20600000Y2885000D02*
X20650000D01*
X9260000Y525000D02*
Y575000D01*
X9235000Y550000D02*
X9285000D01*
X9752500Y522500D02*
Y572500D01*
X9727500Y547500D02*
X9777500D01*
X26445001Y1195000D02*
X26495001D01*
X26470001Y1170000D02*
Y1220000D01*
X4489661Y505000D02*
Y555000D01*
X4464661Y530000D02*
X4514661D01*
X4982161Y505000D02*
Y555000D01*
X4957161Y530000D02*
X5007161D01*
X2105000Y2167500D02*
Y2217500D01*
X2080000Y2192500D02*
X2130000D01*
X2705000Y2170000D02*
Y2220000D01*
X2680000Y2195000D02*
X2730000D01*
X3005000Y2170000D02*
Y2220000D01*
X2980000Y2195000D02*
X3030000D01*
X1807500Y2162500D02*
Y2212500D01*
X1782500Y2187500D02*
X1832500D01*
X11495000Y2200000D02*
Y2250000D01*
X11470000Y2225000D02*
X11520000D01*
X11192500Y2202500D02*
Y2252500D01*
X11167500Y2227500D02*
X11217500D01*
X12097500D02*
Y2277500D01*
X12072500Y2252500D02*
X12122500D01*
X11797500Y2227500D02*
Y2277500D01*
X11772500Y2252500D02*
X11822500D01*
X22950000Y29355438D02*
X23000000D01*
X22975000Y29330438D02*
Y29380438D01*
X7655000Y28410001D02*
Y28460001D01*
X7630000Y28435001D02*
X7680000D01*
X8020000Y28412500D02*
Y28462500D01*
X7995000Y28437500D02*
X8045000D01*
X8937500Y28432501D02*
Y28482501D01*
X8912500Y28457501D02*
X8962500D01*
X4035000Y28582501D02*
X4085000D01*
X4060000Y28557501D02*
Y28607501D01*
X4925000Y29277499D02*
X4975000D01*
X4950000Y29252499D02*
Y29302499D01*
X4452500Y29252499D02*
Y29302499D01*
X4427500Y29277499D02*
X4477500D01*
X9557500Y28992499D02*
X9607500D01*
X9582500Y28967499D02*
Y29017499D01*
X9062500Y28992499D02*
X9112500D01*
X9087500Y28967499D02*
Y29017499D01*
X40107501Y8822500D02*
Y9467500D01*
X41397501D01*
Y8822500D02*
Y9467500D01*
X40107501Y8822500D02*
X41397501D01*
X27245001Y28760001D02*
X27295001D01*
X27270001Y28735001D02*
Y28785001D01*
X22972501Y28837936D02*
Y28887936D01*
X22947501Y28862936D02*
X22997501D01*
X26414999Y29205838D02*
Y29255838D01*
X26389999Y29230838D02*
X26439999D01*
X26417499Y28710837D02*
Y28760837D01*
X26392499Y28735837D02*
X26442499D01*
X19512500Y26987500D02*
Y27037500D01*
X19487500Y27012500D02*
X19537500D01*
X19752499Y26989999D02*
Y27039999D01*
X19727499Y27014999D02*
X19777499D01*
X21207500Y27152499D02*
X21257500D01*
X21232500Y27127499D02*
Y27177499D01*
X21712500Y27152499D02*
X21762500D01*
X21737500Y27127499D02*
Y27177499D01*
X28775000Y27089999D02*
X28825000D01*
X28800000Y27064999D02*
Y27114999D01*
X30279999Y27332501D02*
Y27382501D01*
X30254999Y27357501D02*
X30304999D01*
X30052499Y27332501D02*
Y27382501D01*
X30027499Y27357501D02*
X30077499D01*
X11225000Y27689999D02*
X11275000D01*
X11250000Y27664999D02*
Y27714999D01*
X12127500Y27689999D02*
X12177500D01*
X12152500Y27664999D02*
Y27714999D01*
X11852500Y27687500D02*
X11902500D01*
X11877500Y27662500D02*
Y27712500D01*
X10925000Y27689999D02*
X10975000D01*
X10950000Y27664999D02*
Y27714999D01*
X1785000Y27689999D02*
X1835000D01*
X1810000Y27664999D02*
Y27714999D01*
X2985000Y27689999D02*
X3035000D01*
X3010000Y27664999D02*
Y27714999D01*
X2722500Y27687500D02*
X2772500D01*
X2747500Y27662500D02*
Y27712500D01*
X2087500Y27689999D02*
X2137500D01*
X2112500Y27664999D02*
Y27714999D01*
X22605000Y447500D02*
Y497500D01*
X22580000Y472500D02*
X22630000D01*
D73*
X5402500Y29267499D02*
X5452500D01*
X5427500Y29242499D02*
Y29292499D01*
X5579900Y29191299D02*
Y29343701D01*
X5275100Y29191299D02*
Y29343701D01*
X5579900D01*
X5275100Y29191299D02*
X5579900D01*
X8590000Y28782501D02*
X8640000D01*
X8615000Y28757501D02*
Y28807501D01*
X8462600Y28706299D02*
Y28858701D01*
X8767400Y28706299D02*
Y28858701D01*
X8462600Y28706299D02*
X8767400D01*
X8462600Y28858701D02*
X8767400D01*
X3960000Y602500D02*
Y652500D01*
X3935000Y627500D02*
X3985000D01*
X3883800Y475100D02*
X4036200D01*
X3883800Y779900D02*
X4036200D01*
Y475100D02*
Y779900D01*
X3883800Y475100D02*
Y779900D01*
X25854999Y690000D02*
X25904999D01*
X25879999Y665000D02*
Y715000D01*
X25727600Y613800D02*
Y766200D01*
X26032401Y613800D02*
Y766200D01*
X25727600Y613800D02*
X26032401D01*
X25727600Y766200D02*
X26032401D01*
X23902499Y612500D02*
X23952499D01*
X23927499Y587500D02*
Y637500D01*
X24079900Y536300D02*
Y688700D01*
X23775101Y536300D02*
Y688700D01*
X24079900D01*
X23775101Y536300D02*
X24079900D01*
X8677500Y622500D02*
Y672500D01*
X8652500Y647500D02*
X8702500D01*
X8601300Y495100D02*
X8753700D01*
X8601300Y799900D02*
X8753700D01*
Y495100D02*
Y799900D01*
X8601300Y495100D02*
Y799900D01*
X16942500Y1517500D02*
Y1567500D01*
X16917500Y1542500D02*
X16967500D01*
X16866299Y1390100D02*
X17018700D01*
X16866299Y1694900D02*
X17018700D01*
Y1390100D02*
Y1694900D01*
X16866299Y1390100D02*
Y1694900D01*
X17130000Y1515000D02*
Y1565000D01*
X17105000Y1540000D02*
X17155000D01*
X17053799Y1387600D02*
X17206200D01*
X17053799Y1692400D02*
X17206200D01*
Y1387600D02*
Y1692400D01*
X17053799Y1387600D02*
Y1692400D01*
X16992493Y28434991D02*
Y28484991D01*
X16967493Y28459991D02*
X17017493D01*
X16916292Y28612393D02*
X17068692D01*
X16916292Y28307593D02*
X17068692D01*
X16916292D02*
Y28612393D01*
X17068692Y28307593D02*
Y28612393D01*
X16794992Y28439993D02*
Y28489993D01*
X16769992Y28464993D02*
X16819992D01*
X16718793Y28617392D02*
X16871191D01*
X16718793Y28312592D02*
X16871191D01*
X16718793D02*
Y28617392D01*
X16871191Y28312592D02*
Y28617392D01*
X17127499Y1182500D02*
Y1232500D01*
X17102499Y1207500D02*
X17152499D01*
X17051300Y1359900D02*
X17203700D01*
X17051300Y1055100D02*
X17203700D01*
X17051300D02*
Y1359900D01*
X17203700Y1055100D02*
Y1359900D01*
X16942238Y1181215D02*
Y1231215D01*
X16917238Y1206215D02*
X16967238D01*
X16866039Y1358615D02*
X17018439D01*
X16866039Y1053815D02*
X17018439D01*
X16866039D02*
Y1358615D01*
X17018439Y1053815D02*
Y1358615D01*
X16792493Y28772491D02*
Y28822491D01*
X16767493Y28797491D02*
X16817493D01*
X16716292Y28645093D02*
X16868692D01*
X16716292Y28949893D02*
X16868692D01*
Y28645093D02*
Y28949893D01*
X16716292Y28645093D02*
Y28949893D01*
X26485001Y29767499D02*
X26535001D01*
X26510001Y29742499D02*
Y29792499D01*
X26662399Y29691299D02*
Y29843701D01*
X26357599Y29691299D02*
Y29843701D01*
X26662399D01*
X26357599Y29691299D02*
X26662399D01*
X22222516Y28787500D02*
Y28837500D01*
X22197516Y28812500D02*
X22247516D01*
X22146317Y28964899D02*
X22298717D01*
X22146317Y28660101D02*
X22298717D01*
X22146317D02*
Y28964899D01*
X22298717Y28660101D02*
Y28964899D01*
X16989992Y28772491D02*
Y28822491D01*
X16964992Y28797491D02*
X17014992D01*
X16913792Y28645093D02*
X17066193D01*
X16913792Y28949893D02*
X17066193D01*
Y28645093D02*
Y28949893D01*
X16913792Y28645093D02*
Y28949893D01*
X28846637Y2760100D02*
Y3064900D01*
X28999039Y2760100D02*
Y3064900D01*
X28846637D02*
X28999039D01*
X28846637Y2760100D02*
X28999039D01*
X28897839Y2912500D02*
X28947839D01*
X28922839Y2887500D02*
Y2937500D01*
X27807837Y2755000D02*
Y3280000D01*
X28277838Y2755000D02*
Y3280000D01*
X27807837Y2755000D02*
X28277838D01*
X27807837Y3280000D02*
X28277838D01*
X28302838Y2755000D02*
Y3280000D01*
X28772839Y2755000D02*
Y3280000D01*
X28302838Y2755000D02*
X28772839D01*
X28302838Y3280000D02*
X28772839D01*
X29072501Y26804999D02*
X29542499D01*
X29072501Y27329999D02*
X29542499D01*
X29072501Y26804999D02*
Y27329999D01*
X29542499Y26804999D02*
Y27329999D01*
X22002499Y29200436D02*
X22352499D01*
X22002499Y29587936D02*
X22352499D01*
Y29200436D02*
Y29587936D01*
X22002499Y29200436D02*
Y29587936D01*
X22197501Y27464999D02*
X23050000D01*
X22197501Y27875000D02*
X23050000D01*
X22197501Y27464999D02*
Y27875000D01*
X23050000Y27464999D02*
Y27875000D01*
X22622050Y27645627D02*
Y27695627D01*
X22597050Y27670627D02*
X22647050D01*
X26707501Y27335001D02*
X27560001D01*
X26707501Y26925000D02*
X27560001D01*
Y27335001D01*
X26707501Y26925000D02*
Y27335001D01*
X27135449Y27104373D02*
Y27154373D01*
X27110449Y27129373D02*
X27160449D01*
X27245001Y27912500D02*
X28097501D01*
X27245001Y27502499D02*
X28097501D01*
Y27912500D01*
X27245001Y27502499D02*
Y27912500D01*
X27672949Y27681873D02*
Y27731873D01*
X27647949Y27706873D02*
X27697949D01*
X27312500Y655000D02*
Y1042500D01*
X26962500Y655000D02*
Y1042500D01*
Y655000D02*
X27312500D01*
X26962500Y1042500D02*
X27312500D01*
X23047501Y457500D02*
X23572501D01*
X23047501Y927500D02*
X23572501D01*
Y457500D02*
Y927500D01*
X23047501Y457500D02*
Y927500D01*
Y955000D02*
X23572501D01*
X23047501Y1425000D02*
X23572501D01*
Y955000D02*
Y1425000D01*
X23047501Y955000D02*
Y1425000D01*
X23775101Y853800D02*
X24079900D01*
X23775101Y1006200D02*
X24079900D01*
X23775101Y853800D02*
Y1006200D01*
X24079900Y853800D02*
Y1006200D01*
X23927499Y905000D02*
Y955000D01*
X23902499Y930000D02*
X23952499D01*
X25730099Y1018700D02*
X26034900D01*
X25730099Y866300D02*
X26034900D01*
Y1018700D01*
X25730099Y866300D02*
Y1018700D01*
X25882501Y917500D02*
Y967500D01*
X25857501Y942500D02*
X25907501D01*
X26235001Y927500D02*
X26760001D01*
X26235001Y457500D02*
X26760001D01*
X26235001D02*
Y927500D01*
X26760001Y457500D02*
Y927500D01*
X21864999Y295000D02*
Y765000D01*
X22099998Y295000D02*
Y765000D01*
X21864999D02*
X22099998D01*
X21864999Y295000D02*
X22099998D01*
X21982500Y505000D02*
Y555000D01*
X21957500Y530000D02*
X22007500D01*
X26095627Y2190450D02*
Y2240450D01*
X26070627Y2215450D02*
X26120627D01*
X25889999Y1787500D02*
X26300000D01*
X25889999Y2640000D02*
X26300000D01*
Y1787500D02*
Y2640000D01*
X25889999Y1787500D02*
Y2640000D01*
X22675000Y1727500D02*
Y2580000D01*
X23085001Y1727500D02*
Y2580000D01*
X22675000D02*
X23085001D01*
X22675000Y1727500D02*
X23085001D01*
X22855627Y2155450D02*
X22905627D01*
X22880627Y2130450D02*
Y2180450D01*
X21789999Y1630000D02*
Y2482500D01*
X22200000Y1630000D02*
Y2482500D01*
X21789999D02*
X22200000D01*
X21789999Y1630000D02*
X22200000D01*
X21970628Y2057950D02*
X22020628D01*
X21995628Y2032950D02*
Y2082950D01*
X27689206Y2572500D02*
Y3152500D01*
X27506705Y2572500D02*
Y3152500D01*
Y2572500D02*
X27689206D01*
X27506705Y3152500D02*
X27689206D01*
X27404205Y2572500D02*
Y3152500D01*
X27221707Y2572500D02*
Y3152500D01*
Y2572500D02*
X27404205D01*
X27221707Y3152500D02*
X27404205D01*
X19214999Y2447500D02*
Y3027500D01*
X19032500Y2447500D02*
Y3027500D01*
Y2447500D02*
X19214999D01*
X19032500Y3027500D02*
X19214999D01*
X19474998Y2447500D02*
Y3027500D01*
X19292499Y2447500D02*
Y3027500D01*
Y2447500D02*
X19474998D01*
X19292499Y3027500D02*
X19474998D01*
X5892500Y415000D02*
X6242500D01*
X5892500Y802500D02*
X6242500D01*
Y415000D02*
Y802500D01*
X5892500Y415000D02*
Y802500D01*
X4063800Y477600D02*
Y782400D01*
X4216200Y477600D02*
Y782400D01*
X4063800D02*
X4216200D01*
X4063800Y477600D02*
X4216200D01*
X4115000Y630000D02*
X4165000D01*
X4140000Y605000D02*
Y655000D01*
X8798800Y497600D02*
Y802400D01*
X8951200Y497600D02*
Y802400D01*
X8798800D02*
X8951200D01*
X8798800Y497600D02*
X8951200D01*
X8850000Y650000D02*
X8900000D01*
X8875000Y625000D02*
Y675000D01*
X10097500Y552500D02*
X10567500D01*
X10097500Y787500D02*
X10567500D01*
X10097500Y552500D02*
Y787500D01*
X10567500Y552500D02*
Y787500D01*
X10307500Y670000D02*
X10357500D01*
X10332500Y645000D02*
Y695000D01*
X3567500Y647500D02*
Y697500D01*
X3542500Y672500D02*
X3592500D01*
X3802500Y555000D02*
Y790000D01*
X3332500Y555000D02*
Y790000D01*
X3802500D01*
X3332500Y555000D02*
X3802500D01*
X5527500Y415000D02*
Y802500D01*
X5877500Y415000D02*
Y802500D01*
X5527500D02*
X5877500D01*
X5527500Y415000D02*
X5877500D01*
X27554999Y312500D02*
Y782500D01*
X27789999Y312500D02*
Y782500D01*
X27554999D02*
X27789999D01*
X27554999Y312500D02*
X27789999D01*
X27672501Y522500D02*
Y572500D01*
X27647501Y547500D02*
X27697501D01*
X9592500Y947500D02*
Y1335000D01*
X9242500Y947500D02*
Y1335000D01*
Y947500D02*
X9592500D01*
X9242500Y1335000D02*
X9592500D01*
X3890000Y965000D02*
Y1352500D01*
X3540000Y965000D02*
Y1352500D01*
Y965000D02*
X3890000D01*
X3540000Y1352500D02*
X3890000D01*
X19895000Y3175000D02*
X20364999D01*
X19895000Y2650000D02*
X20364999D01*
Y3175000D01*
X19895000Y2650000D02*
Y3175000D01*
X20389999D02*
X20860001D01*
X20389999Y2650000D02*
X20860001D01*
Y3175000D01*
X20389999Y2650000D02*
Y3175000D01*
X9025000Y840000D02*
X9495000D01*
X9025000Y315000D02*
X9495000D01*
Y840000D01*
X9025000Y315000D02*
Y840000D01*
X9517500Y837500D02*
X9987500D01*
X9517500Y312500D02*
X9987500D01*
Y837500D01*
X9517500Y312500D02*
Y837500D01*
X26760001Y960000D02*
Y1430000D01*
X26235001Y960000D02*
Y1430000D01*
Y960000D02*
X26760001D01*
X26235001Y1430000D02*
X26760001D01*
X4254661Y820000D02*
X4724661D01*
X4254661Y295000D02*
X4724661D01*
Y820000D01*
X4254661Y295000D02*
Y820000D01*
X4747161D02*
X5217161D01*
X4747161Y295000D02*
X5217161D01*
Y820000D01*
X4747161Y295000D02*
Y820000D01*
X15670100Y3856200D02*
X15974899D01*
X15670100Y3703800D02*
X15974899D01*
Y3856200D01*
X15670100Y3703800D02*
Y3856200D01*
X15822501Y3755000D02*
Y3805000D01*
X15797501Y3780000D02*
X15847501D01*
X15196300Y3532600D02*
Y3837400D01*
X15348700Y3532600D02*
Y3837400D01*
X15196300D02*
X15348700D01*
X15196300Y3532600D02*
X15348700D01*
X15247501Y3685000D02*
X15297501D01*
X15272501Y3660000D02*
Y3710000D01*
X13198801Y3512600D02*
Y3817400D01*
X13351199Y3512600D02*
Y3817400D01*
X13198801D02*
X13351199D01*
X13198801Y3512600D02*
X13351199D01*
X13250000Y3665000D02*
X13300000D01*
X13275000Y3640000D02*
Y3690000D01*
X11196300Y3535100D02*
Y3839900D01*
X11348700Y3535100D02*
Y3839900D01*
X11196300D02*
X11348700D01*
X11196300Y3535100D02*
X11348700D01*
X11247500Y3687500D02*
X11297500D01*
X11272500Y3662500D02*
Y3712500D01*
X11391300Y3372600D02*
Y3677400D01*
X11543700Y3372600D02*
Y3677400D01*
X11391300D02*
X11543700D01*
X11391300Y3372600D02*
X11543700D01*
X11442500Y3525000D02*
X11492500D01*
X11467500Y3500000D02*
Y3550000D01*
X6771300Y3202600D02*
Y3507400D01*
X6923700Y3202600D02*
Y3507400D01*
X6771300D02*
X6923700D01*
X6771300Y3202600D02*
X6923700D01*
X6822500Y3355000D02*
X6872500D01*
X6847500Y3330000D02*
Y3380000D01*
X7196300Y3555100D02*
Y3859900D01*
X7348700Y3555100D02*
Y3859900D01*
X7196300D02*
X7348700D01*
X7196300Y3555100D02*
X7348700D01*
X7247500Y3707500D02*
X7297500D01*
X7272500Y3682500D02*
Y3732500D01*
X4751300Y3190100D02*
Y3494900D01*
X4903700Y3190100D02*
Y3494900D01*
X4751300D02*
X4903700D01*
X4751300Y3190100D02*
X4903700D01*
X4802500Y3342500D02*
X4852500D01*
X4827500Y3317500D02*
Y3367500D01*
X4751300Y3752600D02*
Y4057400D01*
X4903700Y3752600D02*
Y4057400D01*
X4751300D02*
X4903700D01*
X4751300Y3752600D02*
X4903700D01*
X4802500Y3905000D02*
X4852500D01*
X4827500Y3880000D02*
Y3930000D01*
X3665100Y3861200D02*
X3969900D01*
X3665100Y3708800D02*
X3969900D01*
Y3861200D01*
X3665100Y3708800D02*
Y3861200D01*
X3817500Y3760000D02*
Y3810000D01*
X3792500Y3785000D02*
X3842500D01*
X2197500Y1897500D02*
Y2477500D01*
X2015000Y1897500D02*
Y2477500D01*
Y1897500D02*
X2197500D01*
X2015000Y2477500D02*
X2197500D01*
X2797500Y1900000D02*
Y2480000D01*
X2615000Y1900000D02*
Y2480000D01*
Y1900000D02*
X2797500D01*
X2615000Y2480000D02*
X2797500D01*
X3097500Y1900000D02*
Y2480000D01*
X2915000Y1900000D02*
Y2480000D01*
Y1900000D02*
X3097500D01*
X2915000Y2480000D02*
X3097500D01*
X1900000Y1892500D02*
Y2472500D01*
X1717500Y1892500D02*
Y2472500D01*
Y1892500D02*
X1900000D01*
X1717500Y2472500D02*
X1900000D01*
X11587500Y1930000D02*
Y2510000D01*
X11405000Y1930000D02*
Y2510000D01*
Y1930000D02*
X11587500D01*
X11405000Y2510000D02*
X11587500D01*
X11285000Y1932500D02*
Y2512500D01*
X11102500Y1932500D02*
Y2512500D01*
Y1932500D02*
X11285000D01*
X11102500Y2512500D02*
X11285000D01*
X12190000Y1957500D02*
Y2537500D01*
X12007500Y1957500D02*
Y2537500D01*
Y1957500D02*
X12190000D01*
X12007500Y2537500D02*
X12190000D01*
X11890000Y1957500D02*
Y2537500D01*
X11707500Y1957500D02*
Y2537500D01*
Y1957500D02*
X11890000D01*
X11707500Y2537500D02*
X11890000D01*
X31351199Y3540100D02*
Y3844900D01*
X31198801Y3540100D02*
Y3844900D01*
Y3540100D02*
X31351199D01*
X31198801Y3844900D02*
X31351199D01*
X31250000Y3692500D02*
X31300000D01*
X31275000Y3667500D02*
Y3717500D01*
X29351199Y3540100D02*
Y3844900D01*
X29198801Y3540100D02*
Y3844900D01*
Y3540100D02*
X29351199D01*
X29198801Y3844900D02*
X29351199D01*
X29250000Y3692500D02*
X29300000D01*
X29275000Y3667500D02*
Y3717500D01*
X27351199Y3540100D02*
Y3844900D01*
X27198801Y3540100D02*
Y3844900D01*
Y3540100D02*
X27351199D01*
X27198801Y3844900D02*
X27351199D01*
X27250000Y3692500D02*
X27300000D01*
X27275000Y3667500D02*
Y3717500D01*
X25351199Y3540100D02*
Y3844900D01*
X25198801Y3540100D02*
Y3844900D01*
Y3540100D02*
X25351199D01*
X25198801Y3844900D02*
X25351199D01*
X25250000Y3692500D02*
X25300000D01*
X25275000Y3667500D02*
Y3717500D01*
X17196300Y3540100D02*
Y3844900D01*
X17348700Y3540100D02*
Y3844900D01*
X17196300D02*
X17348700D01*
X17196300Y3540100D02*
X17348700D01*
X17247501Y3692500D02*
X17297501D01*
X17272501Y3667500D02*
Y3717500D01*
X23198801Y3537600D02*
Y3842400D01*
X23351199Y3537600D02*
Y3842400D01*
X23198801D02*
X23351199D01*
X23198801Y3537600D02*
X23351199D01*
X23250000Y3690000D02*
X23300000D01*
X23275000Y3665000D02*
Y3715000D01*
X19193800Y3540100D02*
Y3844900D01*
X19346201Y3540100D02*
Y3844900D01*
X19193800D02*
X19346201D01*
X19193800Y3540100D02*
X19346201D01*
X19245000Y3692500D02*
X19295000D01*
X19270000Y3667500D02*
Y3717500D01*
X1997500Y10290000D02*
Y10760000D01*
X1762500Y10290000D02*
Y10760000D01*
Y10290000D02*
X1997500D01*
X1762500Y10760000D02*
X1997500D01*
X22685001Y29120438D02*
Y29590436D01*
X23210001Y29120438D02*
Y29590436D01*
X22685001D02*
X23210001D01*
X22685001Y29120438D02*
X23210001D01*
X40007501Y7862500D02*
Y8097500D01*
X40477499Y7862500D02*
Y8097500D01*
X40007501Y7862500D02*
X40477499D01*
X40007501Y8097500D02*
X40477499D01*
X39216199Y8515100D02*
Y8819900D01*
X39063800Y8515100D02*
Y8819900D01*
Y8515100D02*
X39216199D01*
X39063800Y8819900D02*
X39216199D01*
X351200Y12227600D02*
Y12532400D01*
X198800Y12227600D02*
Y12532400D01*
Y12227600D02*
X351200D01*
X198800Y12532400D02*
X351200D01*
X39514999Y8857500D02*
Y9092500D01*
X39045001Y8857500D02*
Y9092500D01*
X39514999D01*
X39045001Y8857500D02*
X39514999D01*
X955900Y12693900D02*
X1159100D01*
X955900Y13151100D02*
X1159100D01*
Y12693900D02*
Y13151100D01*
X955900Y12693900D02*
Y13151100D01*
X3883700Y11487600D02*
Y11792400D01*
X3731300Y11487600D02*
Y11792400D01*
Y11487600D02*
X3883700D01*
X3731300Y11792400D02*
X3883700D01*
X7867600Y27736200D02*
X8172400D01*
X7867600Y27583801D02*
X8172400D01*
Y27736200D01*
X7867600Y27583801D02*
Y27736200D01*
X8020000Y27635001D02*
Y27685001D01*
X7995000Y27660001D02*
X8045000D01*
X7742500Y28177499D02*
X8212500D01*
X7742500Y27942499D02*
X8212500D01*
Y28177499D01*
X7742500Y27942499D02*
Y28177499D01*
X7952500Y28060001D02*
X8002500D01*
X7977500Y28035001D02*
Y28085001D01*
X7480000Y28242499D02*
X7830000D01*
X7480000Y28629999D02*
X7830000D01*
Y28242499D02*
Y28629999D01*
X7480000Y28242499D02*
Y28629999D01*
X7845000Y28245001D02*
X8195000D01*
X7845000Y28632501D02*
X8195000D01*
Y28245001D02*
Y28632501D01*
X7845000Y28245001D02*
Y28632501D01*
X8762500Y28264999D02*
X9112500D01*
X8762500Y28652499D02*
X9112500D01*
Y28264999D02*
Y28652499D01*
X8762500Y28264999D02*
Y28652499D01*
X3885000Y28389999D02*
Y28777499D01*
X4235000Y28389999D02*
Y28777499D01*
X3885000D02*
X4235000D01*
X3885000Y28389999D02*
X4235000D01*
X9882500Y28925000D02*
X10352500D01*
X9882500Y29160001D02*
X10352500D01*
X9882500Y28925000D02*
Y29160001D01*
X10352500Y28925000D02*
Y29160001D01*
X10092500Y29042499D02*
X10142500D01*
X10117500Y29017499D02*
Y29067499D01*
X3650000Y29204999D02*
X4120000D01*
X3650000Y29439999D02*
X4120000D01*
X3650000Y29204999D02*
Y29439999D01*
X4120000Y29204999D02*
Y29439999D01*
X3860000Y29322501D02*
X3910000D01*
X3885000Y29297501D02*
Y29347501D01*
X5185000Y28987500D02*
Y29512500D01*
X4715000Y28987500D02*
Y29512500D01*
X5185000D01*
X4715000Y28987500D02*
X5185000D01*
X4217500D02*
X4687500D01*
X4217500Y29512500D02*
X4687500D01*
X4217500Y28987500D02*
Y29512500D01*
X4687500Y28987500D02*
Y29512500D01*
X9817500Y28702499D02*
Y29227499D01*
X9347500Y28702499D02*
Y29227499D01*
X9817500D01*
X9347500Y28702499D02*
X9817500D01*
X9322500D02*
Y29227499D01*
X8852500Y28702499D02*
Y29227499D01*
X9322500D01*
X8852500Y28702499D02*
X9322500D01*
X27077499Y28585001D02*
Y28935001D01*
X27464999Y28585001D02*
Y28935001D01*
X27077499Y28585001D02*
X27464999D01*
X27077499Y28935001D02*
X27464999D01*
X27304999Y28962500D02*
X27775000D01*
X27304999Y29197501D02*
X27775000D01*
X27304999Y28962500D02*
Y29197501D01*
X27775000Y28962500D02*
Y29197501D01*
X27514999Y29079999D02*
X27564999D01*
X27539999Y29054999D02*
Y29104999D01*
X20132500Y29725000D02*
X20602499D01*
X20132500Y29960001D02*
X20602499D01*
X20132500Y29725000D02*
Y29960001D01*
X20602499Y29725000D02*
Y29960001D01*
X20342500Y29842499D02*
X20392500D01*
X20367500Y29817499D02*
Y29867499D01*
X22682500Y28627936D02*
X23207500D01*
X22682500Y29097937D02*
X23207500D01*
Y28627936D02*
Y29097937D01*
X22682500Y28627936D02*
Y29097937D01*
X26179999Y29465839D02*
X26704999D01*
X26179999Y28995837D02*
X26704999D01*
X26179999D02*
Y29465839D01*
X26704999Y28995837D02*
Y29465839D01*
X26182501Y28970837D02*
X26707501D01*
X26182501Y28500839D02*
X26707501D01*
X26182501D02*
Y28970837D01*
X26707501Y28500839D02*
Y28970837D01*
X19420000Y26727499D02*
Y27307501D01*
X19602499Y26727499D02*
Y27307501D01*
X19420000D02*
X19602499D01*
X19420000Y26727499D02*
X19602499D01*
X19660001Y26729999D02*
Y27310001D01*
X19842500Y26729999D02*
Y27310001D01*
X19660001D02*
X19842500D01*
X19660001Y26729999D02*
X19842500D01*
X19792500Y27517499D02*
Y28370001D01*
X19382500Y27517499D02*
Y28370001D01*
Y27517499D02*
X19792500D01*
X19382500Y28370001D02*
X19792500D01*
X19561871Y27942050D02*
X19611871D01*
X19586871Y27917050D02*
Y27967050D01*
X21467500Y26862500D02*
Y27387500D01*
X20997501Y26862500D02*
Y27387500D01*
X21467500D01*
X20997501Y26862500D02*
X21467500D01*
X21972501D02*
Y27387500D01*
X21502499Y26862500D02*
Y27387500D01*
X21972501D01*
X21502499Y26862500D02*
X21972501D01*
X29035001Y26800000D02*
Y27325000D01*
X28564999Y26800000D02*
Y27325000D01*
X29035001D01*
X28564999Y26800000D02*
X29035001D01*
X30187500Y27072501D02*
Y27652499D01*
X30370001Y27072501D02*
Y27652499D01*
X30187500D02*
X30370001D01*
X30187500Y27072501D02*
X30370001D01*
X29960001D02*
Y27652499D01*
X30142499Y27072501D02*
Y27652499D01*
X29960001D02*
X30142499D01*
X29960001Y27072501D02*
X30142499D01*
X22421201Y26152600D02*
Y26457401D01*
X22268800Y26152600D02*
Y26457401D01*
Y26152600D02*
X22421201D01*
X22268800Y26457401D02*
X22421201D01*
X22320000Y26304999D02*
X22370000D01*
X22345000Y26279999D02*
Y26329999D01*
X21932600Y26293701D02*
X22237399D01*
X21932600Y26141299D02*
X22237399D01*
Y26293701D01*
X21932600Y26141299D02*
Y26293701D01*
X22085001Y26192499D02*
Y26242499D01*
X22060001Y26217499D02*
X22110001D01*
X18423700Y26160101D02*
Y26464899D01*
X18271300Y26160101D02*
Y26464899D01*
Y26160101D02*
X18423700D01*
X18271300Y26464899D02*
X18423700D01*
X18322501Y26312500D02*
X18372501D01*
X18347501Y26287500D02*
Y26337500D01*
X19935100Y26141299D02*
X20239900D01*
X19935100Y26293701D02*
X20239900D01*
X19935100Y26141299D02*
Y26293701D01*
X20239900Y26141299D02*
Y26293701D01*
X20087500Y26192499D02*
Y26242499D01*
X20062500Y26217499D02*
X20112500D01*
X20421201Y26160101D02*
Y26464899D01*
X20268800Y26160101D02*
Y26464899D01*
Y26160101D02*
X20421201D01*
X20268800Y26464899D02*
X20421201D01*
X20320000Y26312500D02*
X20370000D01*
X20345000Y26287500D02*
Y26337500D01*
X13970100Y26133801D02*
X14274899D01*
X13970100Y26286200D02*
X14274899D01*
X13970100Y26133801D02*
Y26286200D01*
X14274899Y26133801D02*
Y26286200D01*
X14122501Y26185001D02*
Y26235001D01*
X14097501Y26210001D02*
X14147501D01*
X14300101Y26136301D02*
X14604900D01*
X14300101Y26288699D02*
X14604900D01*
X14300101Y26136301D02*
Y26288699D01*
X14604900Y26136301D02*
Y26288699D01*
X14452499Y26187500D02*
Y26237500D01*
X14427499Y26212500D02*
X14477499D01*
X12411200Y26500101D02*
Y26804901D01*
X12258800Y26500101D02*
Y26804901D01*
Y26500101D02*
X12411200D01*
X12258800Y26804901D02*
X12411200D01*
X12310000Y26652499D02*
X12360000D01*
X12335000Y26627499D02*
Y26677499D01*
X12295100Y26156299D02*
X12599900D01*
X12295100Y26308701D02*
X12599900D01*
X12295100Y26156299D02*
Y26308701D01*
X12599900Y26156299D02*
Y26308701D01*
X12447500Y26207501D02*
Y26257501D01*
X12422500Y26232501D02*
X12472500D01*
X11157500Y27404999D02*
X11340000D01*
X11157500Y27985001D02*
X11340000D01*
Y27404999D02*
Y27985001D01*
X11157500Y27404999D02*
Y27985001D01*
X12060000Y27404999D02*
X12242500D01*
X12060000Y27985001D02*
X12242500D01*
Y27404999D02*
Y27985001D01*
X12060000Y27404999D02*
Y27985001D01*
X11785000Y27402499D02*
X11967500D01*
X11785000Y27982501D02*
X11967500D01*
Y27402499D02*
Y27982501D01*
X11785000Y27402499D02*
Y27982501D01*
X10857500Y27404999D02*
X11040000D01*
X10857500Y27985001D02*
X11040000D01*
Y27404999D02*
Y27985001D01*
X10857500Y27404999D02*
Y27985001D01*
X10285100Y26171283D02*
X10589900D01*
X10285100Y26323685D02*
X10589900D01*
X10285100Y26171283D02*
Y26323685D01*
X10589900Y26171283D02*
Y26323685D01*
X10437500Y26222485D02*
Y26272485D01*
X10412500Y26247485D02*
X10462500D01*
X9955100Y26171283D02*
X10259900D01*
X9955100Y26323685D02*
X10259900D01*
X9955100Y26171283D02*
Y26323685D01*
X10259900Y26171283D02*
Y26323685D01*
X10107500Y26222485D02*
Y26272485D01*
X10082500Y26247485D02*
X10132500D01*
X10413700Y26505084D02*
Y26809885D01*
X10261300Y26505084D02*
Y26809885D01*
Y26505084D02*
X10413700D01*
X10261300Y26809885D02*
X10413700D01*
X10312500Y26657483D02*
X10362500D01*
X10337500Y26632483D02*
Y26682483D01*
X1717500Y27404999D02*
X1900000D01*
X1717500Y27985001D02*
X1900000D01*
Y27404999D02*
Y27985001D01*
X1717500Y27404999D02*
Y27985001D01*
X2917500Y27404999D02*
X3100000D01*
X2917500Y27985001D02*
X3100000D01*
Y27404999D02*
Y27985001D01*
X2917500Y27404999D02*
Y27985001D01*
X2655000Y27402499D02*
X2837500D01*
X2655000Y27982501D02*
X2837500D01*
Y27402499D02*
Y27982501D01*
X2655000Y27402499D02*
Y27982501D01*
X2020000Y27404999D02*
X2202500D01*
X2020000Y27985001D02*
X2202500D01*
Y27404999D02*
Y27985001D01*
X2020000Y27404999D02*
Y27985001D01*
X7965100Y26123801D02*
X8269900D01*
X7965100Y26276199D02*
X8269900D01*
X7965100Y26123801D02*
Y26276199D01*
X8269900Y26123801D02*
Y26276199D01*
X8117500Y26175000D02*
Y26225000D01*
X8092500Y26200000D02*
X8142500D01*
X8406200Y26475101D02*
Y26779901D01*
X8253800Y26475101D02*
Y26779901D01*
Y26475101D02*
X8406200D01*
X8253800Y26779901D02*
X8406200D01*
X8305000Y26627499D02*
X8355000D01*
X8330000Y26602499D02*
Y26652499D01*
X8292600Y26123801D02*
X8597400D01*
X8292600Y26276199D02*
X8597400D01*
X8292600Y26123801D02*
Y26276199D01*
X8597400Y26123801D02*
Y26276199D01*
X8445000Y26175000D02*
Y26225000D01*
X8420000Y26200000D02*
X8470000D01*
X2403700Y26487601D02*
Y26792401D01*
X2251300Y26487601D02*
Y26792401D01*
Y26487601D02*
X2403700D01*
X2251300Y26792401D02*
X2403700D01*
X2302500Y26639999D02*
X2352500D01*
X2327500Y26614999D02*
Y26664999D01*
X2295100Y26151285D02*
X2599900D01*
X2295100Y26303683D02*
X2599900D01*
X2295100Y26151285D02*
Y26303683D01*
X2599900Y26151285D02*
Y26303683D01*
X2447500Y26202484D02*
Y26252484D01*
X2422500Y26227484D02*
X2472500D01*
X4004531Y11551200D02*
X4309331D01*
X4004531Y11398800D02*
X4309331D01*
Y11551200D01*
X4004531Y11398800D02*
Y11551200D01*
X3545731Y11055101D02*
Y11359901D01*
X3698131Y11055101D02*
Y11359901D01*
X3545731D02*
X3698131D01*
X3545731Y11055101D02*
X3698131D01*
X38960098Y10468700D02*
X39264899D01*
X38960098Y10316300D02*
X39264899D01*
Y10468700D01*
X38960098Y10316300D02*
Y10468700D01*
X38156299Y9977600D02*
Y10282400D01*
X38308698Y9977600D02*
Y10282400D01*
X38156299D02*
X38308698D01*
X38156299Y9977600D02*
X38308698D01*
X14350000Y26602499D02*
Y26652499D01*
X14325000Y26627499D02*
X14375000D01*
X14273801Y26779901D02*
X14426199D01*
X14273801Y26475101D02*
X14426199D01*
X14273801D02*
Y26779901D01*
X14426199Y26475101D02*
Y26779901D01*
X16420000Y26202499D02*
X16470000D01*
X16445000Y26177499D02*
Y26227499D01*
X16597400Y26126300D02*
Y26278699D01*
X16292599Y26126300D02*
Y26278699D01*
X16597400D01*
X16292599Y26126300D02*
X16597400D01*
X16092500Y26202499D02*
X16142500D01*
X16117500Y26177499D02*
Y26227499D01*
X16269901Y26126300D02*
Y26278699D01*
X15965100Y26126300D02*
Y26278699D01*
X16269901D01*
X15965100Y26126300D02*
X16269901D01*
X16342500Y26600000D02*
Y26650000D01*
X16317500Y26625000D02*
X16367500D01*
X16266299Y26777399D02*
X16418700D01*
X16266299Y26472601D02*
X16418700D01*
X16266299D02*
Y26777399D01*
X16418700Y26472601D02*
Y26777399D01*
X8590000Y28972501D02*
X8640000D01*
X8615000Y28947501D02*
Y28997501D01*
X8462600Y28896301D02*
Y29048700D01*
X8767400Y28896301D02*
Y29048700D01*
X8462600Y28896301D02*
X8767400D01*
X8462600Y29048700D02*
X8767400D01*
X20792500Y27879999D02*
Y27929999D01*
X20767500Y27904999D02*
X20817500D01*
X20716299Y28057401D02*
X20868700D01*
X20716299Y27752600D02*
X20868700D01*
X20716299D02*
Y28057401D01*
X20868700Y27752600D02*
Y28057401D01*
X22089999Y27027499D02*
Y27077499D01*
X22064999Y27052499D02*
X22114999D01*
X22013800Y27204901D02*
X22166200D01*
X22013800Y26900101D02*
X22166200D01*
X22013800D02*
Y27204901D01*
X22166200Y26900101D02*
Y27204901D01*
X24345000Y26287500D02*
Y26337500D01*
X24320000Y26312500D02*
X24370000D01*
X24268800Y26464899D02*
X24421201D01*
X24268800Y26160101D02*
X24421201D01*
X24268800D02*
Y26464899D01*
X24421201Y26160101D02*
Y26464899D01*
X22403133Y28787936D02*
Y28837936D01*
X22378133Y28812936D02*
X22428133D01*
X22326932Y28965338D02*
X22479332D01*
X22326932Y28660538D02*
X22479332D01*
X22326932D02*
Y28965338D01*
X22479332Y28660538D02*
Y28965338D01*
X12095000Y26232501D02*
X12145000D01*
X12120000Y26207501D02*
Y26257501D01*
X12272400Y26156299D02*
Y26308701D01*
X11967600Y26156299D02*
Y26308701D01*
X12272400D01*
X11967600Y26156299D02*
X12272400D01*
X18060001Y26212500D02*
X18110001D01*
X18085001Y26187500D02*
Y26237500D01*
X18237399Y26136301D02*
Y26288699D01*
X17932600Y26136301D02*
Y26288699D01*
X18237399D01*
X17932600Y26136301D02*
X18237399D01*
X24064999Y26214999D02*
X24114999D01*
X24089999Y26189999D02*
Y26239999D01*
X24242400Y26138800D02*
Y26291199D01*
X23937601Y26138800D02*
Y26291199D01*
X24242400D01*
X23937601Y26138800D02*
X24242400D01*
X7994645Y27842499D02*
X8044645D01*
X8019645Y27817499D02*
Y27867499D01*
X7867245Y27766299D02*
Y27918701D01*
X8172045Y27766299D02*
Y27918701D01*
X7867245Y27766299D02*
X8172045D01*
X7867245Y27918701D02*
X8172045D01*
X32054999Y26217499D02*
X32104999D01*
X32079999Y26192499D02*
Y26242499D01*
X31927600Y26141299D02*
Y26293701D01*
X32232401Y26141299D02*
Y26293701D01*
X31927600Y26141299D02*
X32232401D01*
X31927600Y26293701D02*
X32232401D01*
X30050000Y26214999D02*
X30100000D01*
X30075000Y26189999D02*
Y26239999D01*
X29922601Y26138800D02*
Y26291199D01*
X30227399Y26138800D02*
Y26291199D01*
X29922601Y26138800D02*
X30227399D01*
X29922601Y26291199D02*
X30227399D01*
X28057501Y26210001D02*
X28107501D01*
X28082501Y26185001D02*
Y26235001D01*
X27930099Y26133801D02*
Y26286200D01*
X28234900Y26133801D02*
Y26286200D01*
X27930099Y26133801D02*
X28234900D01*
X27930099Y26286200D02*
X28234900D01*
X26060001Y26210001D02*
X26110001D01*
X26085001Y26185001D02*
Y26235001D01*
X25932599Y26133801D02*
Y26286200D01*
X26237399Y26133801D02*
Y26286200D01*
X25932599Y26133801D02*
X26237399D01*
X25932599Y26286200D02*
X26237399D01*
X6422500Y26252499D02*
X6472500D01*
X6447500Y26227499D02*
Y26277499D01*
X6599900Y26176300D02*
Y26328699D01*
X6295100Y26176300D02*
Y26328699D01*
X6599900D01*
X6295100Y26176300D02*
X6599900D01*
X6085000Y26254999D02*
X6135000D01*
X6110000Y26229999D02*
Y26279999D01*
X6262400Y26178799D02*
Y26331201D01*
X5957600Y26178799D02*
Y26331201D01*
X6262400D01*
X5957600Y26178799D02*
X6262400D01*
X6345000Y26675000D02*
Y26725000D01*
X6320000Y26700000D02*
X6370000D01*
X6268800Y26852399D02*
X6421200D01*
X6268800Y26547601D02*
X6421200D01*
X6268800D02*
Y26852399D01*
X6421200Y26547601D02*
Y26852399D01*
X26485001Y29572501D02*
X26535001D01*
X26510001Y29547501D02*
Y29597501D01*
X26357599Y29496301D02*
Y29648700D01*
X26662399Y29496301D02*
Y29648700D01*
X26357599Y29496301D02*
X26662399D01*
X26357599Y29648700D02*
X26662399D01*
X30050015Y27814999D02*
Y27864999D01*
X30025015Y27839999D02*
X30075015D01*
X29973816Y27992401D02*
X30126215D01*
X29973816Y27687601D02*
X30126215D01*
X29973816D02*
Y27992401D01*
X30126215Y27687601D02*
Y27992401D01*
X29652499Y26972501D02*
Y27022501D01*
X29627499Y26997501D02*
X29677499D01*
X29576300Y27149899D02*
X29728699D01*
X29576300Y26845099D02*
X29728699D01*
X29576300D02*
Y27149899D01*
X29728699Y26845099D02*
Y27149899D01*
X32347501Y26287500D02*
Y26337500D01*
X32322501Y26312500D02*
X32372501D01*
X32271301Y26160101D02*
X32423700D01*
X32271301Y26464899D02*
X32423700D01*
Y26160101D02*
Y26464899D01*
X32271301Y26160101D02*
Y26464899D01*
X30345001Y26287500D02*
Y26337500D01*
X30320001Y26312500D02*
X30370001D01*
X30268799Y26160101D02*
X30421201D01*
X30268799Y26464899D02*
X30421201D01*
Y26160101D02*
Y26464899D01*
X30268799Y26160101D02*
Y26464899D01*
X28347501Y26287500D02*
Y26337500D01*
X28322501Y26312500D02*
X28372501D01*
X28271301Y26160101D02*
X28423700D01*
X28271301Y26464899D02*
X28423700D01*
Y26160101D02*
Y26464899D01*
X28271301Y26160101D02*
Y26464899D01*
X26347501Y26287500D02*
Y26337500D01*
X26322501Y26312500D02*
X26372501D01*
X26271301Y26160101D02*
X26423700D01*
X26271301Y26464899D02*
X26423700D01*
Y26160101D02*
Y26464899D01*
X26271301Y26160101D02*
Y26464899D01*
X15035001Y3117500D02*
Y3167500D01*
X15010001Y3142500D02*
X15060001D01*
X14958800Y2990100D02*
X15111200D01*
X14958800Y3294900D02*
X15111200D01*
Y2990100D02*
Y3294900D01*
X14958800Y2990100D02*
Y3294900D01*
X21277499Y3667500D02*
Y3717500D01*
X21252499Y3692500D02*
X21302499D01*
X21201300Y3540100D02*
X21353700D01*
X21201300Y3844900D02*
X21353700D01*
Y3540100D02*
Y3844900D01*
X21201300Y3540100D02*
Y3844900D01*
X11782500Y3787500D02*
X11832500D01*
X11807500Y3762500D02*
Y3812500D01*
X11655100Y3711300D02*
Y3863700D01*
X11959900Y3711300D02*
Y3863700D01*
X11655100Y3711300D02*
X11959900D01*
X11655100Y3863700D02*
X11959900D01*
X19595000Y2215000D02*
Y2265000D01*
X19570000Y2240000D02*
X19620000D01*
X19518799Y2087600D02*
X19671199D01*
X19518799Y2392400D02*
X19671199D01*
Y2087600D02*
Y2392400D01*
X19518799Y2087600D02*
Y2392400D01*
X19662500Y3087500D02*
X19712500D01*
X19687500Y3062500D02*
Y3112500D01*
X19535100Y3011300D02*
Y3163700D01*
X19839900Y3011300D02*
Y3163700D01*
X19535100Y3011300D02*
X19839900D01*
X19535100Y3163700D02*
X19839900D01*
X21770000Y3780000D02*
X21820000D01*
X21795000Y3755000D02*
Y3805000D01*
X21947400Y3703800D02*
Y3856200D01*
X21642599Y3703800D02*
Y3856200D01*
X21947400D01*
X21642599Y3703800D02*
X21947400D01*
X19797501Y3780000D02*
X19847501D01*
X19822501Y3755000D02*
Y3805000D01*
X19670100Y3703800D02*
Y3856200D01*
X19974899Y3703800D02*
Y3856200D01*
X19670100Y3703800D02*
X19974899D01*
X19670100Y3856200D02*
X19974899D01*
X17797501Y3780000D02*
X17847501D01*
X17822501Y3755000D02*
Y3805000D01*
X17670100Y3703800D02*
Y3856200D01*
X17974899Y3703800D02*
Y3856200D01*
X17670100Y3703800D02*
X17974899D01*
X17670100Y3856200D02*
X17974899D01*
X23795000Y3785000D02*
X23845000D01*
X23820000Y3760000D02*
Y3810000D01*
X23667599Y3708800D02*
Y3861200D01*
X23972400Y3708800D02*
Y3861200D01*
X23667599Y3708800D02*
X23972400D01*
X23667599Y3861200D02*
X23972400D01*
X6427500Y1802500D02*
X6477500D01*
X6452500Y1777500D02*
Y1827500D01*
X6604900Y1726300D02*
Y1878700D01*
X6300100Y1726300D02*
Y1878700D01*
X6604900D01*
X6300100Y1726300D02*
X6604900D01*
X6430000Y1610000D02*
X6480000D01*
X6455000Y1585000D02*
Y1635000D01*
X6607400Y1533800D02*
Y1686200D01*
X6302600Y1533800D02*
Y1686200D01*
X6607400D01*
X6302600Y1533800D02*
X6607400D01*
X4422500Y26242484D02*
X4472500D01*
X4447500Y26217484D02*
Y26267484D01*
X4599900Y26166284D02*
Y26318683D01*
X4295100Y26166284D02*
Y26318683D01*
X4599900D01*
X4295100Y26166284D02*
X4599900D01*
X31814999Y3780000D02*
X31864999D01*
X31839999Y3755000D02*
Y3805000D01*
X31992401Y3703800D02*
Y3856200D01*
X31687601Y3703800D02*
Y3856200D01*
X31992401D01*
X31687601Y3703800D02*
X31992401D01*
X29804999Y3780000D02*
X29854999D01*
X29829999Y3755000D02*
Y3805000D01*
X29982401Y3703800D02*
Y3856200D01*
X29677600Y3703800D02*
Y3856200D01*
X29982401D01*
X29677600Y3703800D02*
X29982401D01*
X27795001Y3780000D02*
X27845001D01*
X27820001Y3755000D02*
Y3805000D01*
X27972400Y3703800D02*
Y3856200D01*
X27667599Y3703800D02*
Y3856200D01*
X27972400D01*
X27667599Y3703800D02*
X27972400D01*
X25787500Y3780000D02*
X25837500D01*
X25812500Y3755000D02*
Y3805000D01*
X25964899Y3703800D02*
Y3856200D01*
X25660101Y3703800D02*
Y3856200D01*
X25964899D01*
X25660101Y3703800D02*
X25964899D01*
X27595001Y2365000D02*
Y2415000D01*
X27570001Y2390000D02*
X27620001D01*
X27518799Y2237600D02*
X27671201D01*
X27518799Y2542400D02*
X27671201D01*
Y2237600D02*
Y2542400D01*
X27518799Y2237600D02*
Y2542400D01*
X6850000Y3885000D02*
Y3935000D01*
X6825000Y3910000D02*
X6875000D01*
X6773800Y3757600D02*
X6926200D01*
X6773800Y4062400D02*
X6926200D01*
Y3757600D02*
Y4062400D01*
X6773800Y3757600D02*
Y4062400D01*
X4082500Y26242484D02*
X4132500D01*
X4107500Y26217484D02*
Y26267484D01*
X4259900Y26166284D02*
Y26318683D01*
X3955100Y26166284D02*
Y26318683D01*
X4259900D01*
X3955100Y26166284D02*
X4259900D01*
X4347500Y26647501D02*
Y26697501D01*
X4322500Y26672501D02*
X4372500D01*
X4271300Y26824899D02*
X4423700D01*
X4271300Y26520099D02*
X4423700D01*
X4271300D02*
Y26824899D01*
X4423700Y26520099D02*
Y26824899D01*
X2057500Y26229999D02*
X2107500D01*
X2082500Y26204999D02*
Y26254999D01*
X2234900Y26153799D02*
Y26306201D01*
X1930100Y26153799D02*
Y26306201D01*
X2234900D01*
X1930100Y26153799D02*
X2234900D01*
X13480000Y3362500D02*
Y3412500D01*
X13455000Y3387500D02*
X13505000D01*
X13403799Y3235100D02*
X13556200D01*
X13403799Y3539900D02*
X13556200D01*
Y3235100D02*
Y3539900D01*
X13403799Y3235100D02*
Y3539900D01*
X13797501Y3767500D02*
X13847501D01*
X13822501Y3742500D02*
Y3792500D01*
X13670100Y3691300D02*
Y3843700D01*
X13974899Y3691300D02*
Y3843700D01*
X13670100Y3691300D02*
X13974899D01*
X13670100Y3843700D02*
X13974899D01*
X9275000Y3667500D02*
Y3717500D01*
X9250000Y3692500D02*
X9300000D01*
X9198800Y3540100D02*
X9351200D01*
X9198800Y3844900D02*
X9351200D01*
Y3540100D02*
Y3844900D01*
X9198800Y3540100D02*
Y3844900D01*
X9782500Y3795000D02*
X9832500D01*
X9807500Y3770000D02*
Y3820000D01*
X9655100Y3718800D02*
Y3871200D01*
X9959900Y3718800D02*
Y3871200D01*
X9655100Y3718800D02*
X9959900D01*
X9655100Y3871200D02*
X9959900D01*
X1275000Y3685000D02*
Y3735000D01*
X1250000Y3710000D02*
X1300000D01*
X1198800Y3557600D02*
X1351200D01*
X1198800Y3862400D02*
X1351200D01*
Y3557600D02*
Y3862400D01*
X1198800Y3557600D02*
Y3862400D01*
X1600000Y3590000D02*
X1650000D01*
X1625000Y3565000D02*
Y3615000D01*
X1472600Y3513800D02*
Y3666200D01*
X1777400Y3513800D02*
Y3666200D01*
X1472600Y3513800D02*
X1777400D01*
X1472600Y3666200D02*
X1777400D01*
X1525000Y3185000D02*
Y3235000D01*
X1500000Y3210000D02*
X1550000D01*
X1448800Y3057600D02*
X1601200D01*
X1448800Y3362400D02*
X1601200D01*
Y3057600D02*
Y3362400D01*
X1448800Y3057600D02*
Y3362400D01*
X9492500Y3175000D02*
Y3225000D01*
X9467500Y3200000D02*
X9517500D01*
X9416300Y3047600D02*
X9568700D01*
X9416300Y3352400D02*
X9568700D01*
Y3047600D02*
Y3352400D01*
X9416300Y3047600D02*
Y3352400D01*
X5277500Y3680000D02*
Y3730000D01*
X5252500Y3705000D02*
X5302500D01*
X5201300Y3552600D02*
X5353700D01*
X5201300Y3857400D02*
X5353700D01*
Y3552600D02*
Y3857400D01*
X5201300Y3552600D02*
Y3857400D01*
X3272500Y3662500D02*
Y3712500D01*
X3247500Y3687500D02*
X3297500D01*
X3196300Y3535100D02*
X3348700D01*
X3196300Y3839900D02*
X3348700D01*
Y3535100D02*
Y3839900D01*
X3196300Y3535100D02*
Y3839900D01*
X3715000Y3312500D02*
Y3362500D01*
X3690000Y3337500D02*
X3740000D01*
X3638800Y3185100D02*
X3791200D01*
X3638800Y3489900D02*
X3791200D01*
Y3185100D02*
Y3489900D01*
X3638800Y3185100D02*
Y3489900D01*
X5402500Y29079999D02*
X5452500D01*
X5427500Y29054999D02*
Y29104999D01*
X5579900Y29003799D02*
Y29156201D01*
X5275100Y29003799D02*
Y29156201D01*
X5579900D01*
X5275100Y29003799D02*
X5579900D01*
X39258801Y8822400D02*
X39411200D01*
X39258801Y8517600D02*
X39411200D01*
X39258801D02*
Y8822400D01*
X39411200Y8517600D02*
Y8822400D01*
X30088129Y2032950D02*
Y2082950D01*
X30063129Y2057950D02*
X30113126D01*
X29882501Y1630000D02*
X30292499D01*
X29882501Y2482500D02*
X30292499D01*
Y1630000D02*
Y2482500D01*
X29882501Y1630000D02*
Y2482500D01*
X22430000Y665000D02*
X22780000D01*
X22430000Y277500D02*
X22780000D01*
X22430000D02*
Y665000D01*
X22780000Y277500D02*
Y665000D01*
X6262500Y1262500D02*
X6732500D01*
X6262500Y1497500D02*
X6732500D01*
X6262500Y1262500D02*
Y1497500D01*
X6732500Y1262500D02*
Y1497500D01*
X6472500Y1380000D02*
X6522500D01*
X6497500Y1355000D02*
Y1405000D01*
X1057500Y12417500D02*
Y12467500D01*
X1032500Y12442500D02*
X1082499D01*
X955900Y12213900D02*
X1159100D01*
X955900Y12671100D02*
X1159100D01*
Y12213900D02*
Y12671100D01*
X955900Y12213900D02*
Y12671100D01*
X753784Y12230100D02*
X906184D01*
X753784Y12534900D02*
X906184D01*
Y12230100D02*
Y12534900D01*
X753784Y12230100D02*
Y12534900D01*
X3013231Y11362400D02*
X3165631D01*
X3013231Y11057600D02*
X3165631D01*
X3013231D02*
Y11362400D01*
X3165631Y11057600D02*
Y11362400D01*
X955900Y13656400D02*
Y14113600D01*
X1159100Y13656400D02*
Y14113600D01*
X955900D02*
X1159100D01*
X955900Y13656400D02*
X1159100D01*
X958400Y13176401D02*
Y13633600D01*
X1161600Y13176401D02*
Y13633600D01*
X958400D02*
X1161600D01*
X958400Y13176401D02*
X1161600D01*
X3190731Y11055101D02*
X3343131D01*
X3190731Y11359901D02*
X3343131D01*
Y11055101D02*
Y11359901D01*
X3190731Y11055101D02*
Y11359901D01*
X4183231Y11349901D02*
X4335631D01*
X4183231Y11045101D02*
X4335631D01*
X4183231D02*
Y11349901D01*
X4335631Y11045101D02*
Y11349901D01*
X902400Y12686300D02*
Y12838699D01*
X597600Y12686300D02*
Y12838699D01*
X902400D01*
X597600Y12686300D02*
X902400D01*
X38691299Y10629900D02*
X38843698D01*
X38691299Y10325100D02*
X38843698D01*
X38691299D02*
Y10629900D01*
X38843698Y10325100D02*
Y10629900D01*
X37448901Y9358400D02*
X37906100D01*
X37448901Y9561600D02*
X37906100D01*
X37448901Y9358400D02*
Y9561600D01*
X37906100Y9358400D02*
Y9561600D01*
X38092615Y9125811D02*
X38549814D01*
X38092615Y9329011D02*
X38549814D01*
X38092615Y9125811D02*
Y9329011D01*
X38549814Y9125811D02*
Y9329011D01*
X38571399Y9123400D02*
X39028601D01*
X38571399Y9326600D02*
X39028601D01*
X38571399Y9123400D02*
Y9326600D01*
X39028601Y9123400D02*
Y9326600D01*
X39441299Y8817400D02*
X39593701D01*
X39441299Y8512600D02*
X39593701D01*
X39441299D02*
Y8817400D01*
X39593701Y8512600D02*
Y8817400D01*
X37981299Y10282400D02*
X38133698D01*
X37981299Y9977600D02*
X38133698D01*
X37981299D02*
Y10282400D01*
X38133698Y9977600D02*
Y10282400D01*
X38513800Y9975100D02*
X38666199D01*
X38513800Y10279900D02*
X38666199D01*
Y9975100D02*
Y10279900D01*
X38513800Y9975100D02*
Y10279900D01*
X39141315Y10277400D02*
X39293716D01*
X39141315Y9972600D02*
X39293716D01*
X39141315D02*
Y10277400D01*
X39293716Y9972600D02*
Y10277400D01*
X39254999Y9225000D02*
X39304999D01*
X39279999Y9200000D02*
Y9250000D01*
X39508600Y9123400D02*
Y9326600D01*
X39051401Y9123400D02*
Y9326600D01*
X39508600D01*
X39051401Y9123400D02*
X39508600D01*
X41685001Y7862500D02*
Y8097500D01*
X41214999Y7862500D02*
Y8097500D01*
X41685001D01*
X41214999Y7862500D02*
X41685001D01*
X5427500Y29267499D02*
Y29337479D01*
X5392511D01*
X5380848Y29325815D01*
Y29302490D01*
X5392511Y29290826D01*
X5427500D01*
X5404174D02*
X5380848Y29267499D01*
X5357522D02*
X5334197D01*
X5345860D01*
Y29337479D01*
X5357522Y29325815D01*
X5252556Y29337479D02*
X5275882Y29325815D01*
X5299208Y29302490D01*
Y29279163D01*
X5287545Y29267499D01*
X5264219D01*
X5252556Y29279163D01*
Y29290826D01*
X5264219Y29302490D01*
X5299208D01*
X8615000Y28782501D02*
Y28712521D01*
X8649989D01*
X8661652Y28724185D01*
Y28747510D01*
X8649989Y28759174D01*
X8615000D01*
X8638326D02*
X8661652Y28782501D01*
X8684978D02*
X8708303D01*
X8696640D01*
Y28712521D01*
X8684978Y28724185D01*
X8778281Y28782501D02*
Y28712521D01*
X8743292Y28747510D01*
X8789944D01*
X8859921Y28712521D02*
X8836595Y28724185D01*
X8813270Y28747510D01*
Y28770837D01*
X8824933Y28782501D01*
X8848258D01*
X8859921Y28770837D01*
Y28759174D01*
X8848258Y28747510D01*
X8813270D01*
X3960000Y627500D02*
X4029977D01*
Y662489D01*
X4018315Y674152D01*
X3994989D01*
X3983326Y662489D01*
Y627500D01*
Y650826D02*
X3960000Y674152D01*
X4018315Y697477D02*
X4029977Y709140D01*
Y732466D01*
X4018315Y744129D01*
X4006652D01*
X3994989Y732466D01*
X3983326Y744129D01*
X3971663D01*
X3960000Y732466D01*
Y709140D01*
X3971663Y697477D01*
X3983326D01*
X3994989Y709140D01*
X4006652Y697477D01*
X4018315D01*
X3994989Y709140D02*
Y732466D01*
X25879999Y690000D02*
Y620022D01*
X25914990D01*
X25926651Y631685D01*
Y655011D01*
X25914990Y666674D01*
X25879999D01*
X25903326D02*
X25926651Y690000D01*
X25949979Y678337D02*
X25961639Y690000D01*
X25984967D01*
X25996628Y678337D01*
Y631685D01*
X25984967Y620022D01*
X25961639D01*
X25949979Y631685D01*
Y643348D01*
X25961639Y655011D01*
X25996628D01*
X23927499Y612500D02*
Y682477D01*
X23892511D01*
X23880849Y670815D01*
Y647489D01*
X23892511Y635826D01*
X23927499D01*
X23904173D02*
X23880849Y612500D01*
X23857523D02*
X23834196D01*
X23845860D01*
Y682477D01*
X23857523Y670815D01*
X23799208D02*
X23787544Y682477D01*
X23764220D01*
X23752556Y670815D01*
Y624163D01*
X23764220Y612500D01*
X23787544D01*
X23799208Y624163D01*
Y670815D01*
X8677500Y647500D02*
X8747478D01*
Y682489D01*
X8735815Y694152D01*
X8712489D01*
X8700826Y682489D01*
Y647500D01*
Y670826D02*
X8677500Y694152D01*
Y717478D02*
Y740803D01*
Y729141D01*
X8747478D01*
X8735815Y717478D01*
X8677500Y775792D02*
Y799118D01*
Y787455D01*
X8747478D01*
X8735815Y775792D01*
X16942500Y1542500D02*
X17012479D01*
Y1577489D01*
X17000815Y1589152D01*
X16977489D01*
X16965826Y1577489D01*
Y1542500D01*
Y1565826D02*
X16942500Y1589152D01*
Y1612477D02*
Y1635803D01*
Y1624140D01*
X17012479D01*
X17000815Y1612477D01*
X16942500Y1717444D02*
Y1670792D01*
X16989153Y1717444D01*
X17000815D01*
X17012479Y1705781D01*
Y1682455D01*
X17000815Y1670792D01*
X17130000Y1540000D02*
X17199979D01*
Y1574989D01*
X17188315Y1586652D01*
X17164989D01*
X17153326Y1574989D01*
Y1540000D01*
Y1563326D02*
X17130000Y1586652D01*
Y1609977D02*
Y1633303D01*
Y1621640D01*
X17199979D01*
X17188315Y1609977D01*
Y1668292D02*
X17199979Y1679955D01*
Y1703281D01*
X17188315Y1714944D01*
X17176653D01*
X17164989Y1703281D01*
Y1691618D01*
Y1703281D01*
X17153326Y1714944D01*
X17141663D01*
X17130000Y1703281D01*
Y1679955D01*
X17141663Y1668292D01*
X16992493Y28459991D02*
X16922514D01*
Y28425003D01*
X16934177Y28413339D01*
X16957503D01*
X16969167Y28425003D01*
Y28459991D01*
Y28436667D02*
X16992493Y28413339D01*
Y28390015D02*
Y28366687D01*
Y28378351D01*
X16922514D01*
X16934177Y28390015D01*
X16992493Y28296710D02*
X16922514D01*
X16957503Y28331699D01*
Y28285049D01*
X16934177Y28261722D02*
X16922514Y28250058D01*
Y28226733D01*
X16934177Y28215070D01*
X16945840D01*
X16957503Y28226733D01*
X16969167Y28215070D01*
X16980829D01*
X16992493Y28226733D01*
Y28250058D01*
X16980829Y28261722D01*
X16969167D01*
X16957503Y28250058D01*
X16945840Y28261722D01*
X16934177D01*
X16957503Y28250058D02*
Y28226733D01*
X16794992Y28464993D02*
X16725015D01*
Y28430002D01*
X16736678Y28418341D01*
X16760004D01*
X16771666Y28430002D01*
Y28464993D01*
Y28441666D02*
X16794992Y28418341D01*
Y28395013D02*
Y28371689D01*
Y28383350D01*
X16725015D01*
X16736678Y28395013D01*
X16794992Y28301712D02*
X16725015D01*
X16760004Y28336700D01*
Y28290048D01*
X16725015Y28266721D02*
Y28220071D01*
X16736678D01*
X16783328Y28266721D01*
X16794992D01*
X17127499Y1207500D02*
X17057523D01*
Y1172511D01*
X17069185Y1160848D01*
X17092511D01*
X17104173Y1172511D01*
Y1207500D01*
Y1184174D02*
X17127499Y1160848D01*
Y1137522D02*
Y1114197D01*
Y1125860D01*
X17057523D01*
X17069185Y1137522D01*
X17057523Y1032556D02*
Y1079208D01*
X17092511D01*
X17080849Y1055882D01*
Y1044219D01*
X17092511Y1032556D01*
X17115837D01*
X17127499Y1044219D01*
Y1067545D01*
X17115837Y1079208D01*
X16942238Y1206215D02*
X16872261D01*
Y1171226D01*
X16883923Y1159563D01*
X16907249D01*
X16918912Y1171226D01*
Y1206215D01*
Y1182889D02*
X16942238Y1159563D01*
Y1136237D02*
Y1112911D01*
Y1124574D01*
X16872261D01*
X16883923Y1136237D01*
X16942238Y1042934D02*
X16872261D01*
X16907249Y1077923D01*
Y1031271D01*
X16792493Y28797491D02*
X16862469D01*
Y28832480D01*
X16850807Y28844144D01*
X16827481D01*
X16815817Y28832480D01*
Y28797491D01*
Y28820819D02*
X16792493Y28844144D01*
Y28867468D02*
Y28890796D01*
Y28879132D01*
X16862469D01*
X16850807Y28867468D01*
X16792493Y28960773D02*
X16862469D01*
X16827481Y28925784D01*
Y28972437D01*
X16804155Y28995761D02*
X16792493Y29007425D01*
Y29030750D01*
X16804155Y29042413D01*
X16850807D01*
X16862469Y29030750D01*
Y29007425D01*
X16850807Y28995761D01*
X16839143D01*
X16827481Y29007425D01*
Y29042413D01*
X26510001Y29767499D02*
Y29837479D01*
X26475012D01*
X26463348Y29825815D01*
Y29802490D01*
X26475012Y29790826D01*
X26510001D01*
X26486673D02*
X26463348Y29767499D01*
X26440024D02*
X26416696D01*
X26428360D01*
Y29837479D01*
X26440024Y29825815D01*
X26381708D02*
X26370044Y29837479D01*
X26346719D01*
X26335056Y29825815D01*
Y29814151D01*
X26346719Y29802490D01*
X26335056Y29790826D01*
Y29779163D01*
X26346719Y29767499D01*
X26370044D01*
X26381708Y29779163D01*
Y29790826D01*
X26370044Y29802490D01*
X26381708Y29814151D01*
Y29825815D01*
X26370044Y29802490D02*
X26346719D01*
X22222516Y28812500D02*
X22152539D01*
Y28777512D01*
X22164201Y28765848D01*
X22187527D01*
X22199190Y28777512D01*
Y28812500D01*
Y28789175D02*
X22222516Y28765848D01*
Y28742523D02*
Y28719196D01*
Y28730859D01*
X22152539D01*
X22164201Y28742523D01*
X22222516Y28649219D02*
X22152539D01*
X22187527Y28684207D01*
Y28637555D01*
X22152539Y28567578D02*
Y28614230D01*
X22187527D01*
X22175864Y28590906D01*
Y28579242D01*
X22187527Y28567578D01*
X22210854D01*
X22222516Y28579242D01*
Y28602567D01*
X22210854Y28614230D01*
X16989992Y28797491D02*
X17059970D01*
Y28832480D01*
X17048306Y28844144D01*
X17024982D01*
X17013318Y28832480D01*
Y28797491D01*
Y28820819D02*
X16989992Y28844144D01*
Y28867468D02*
Y28890796D01*
Y28879132D01*
X17059970D01*
X17048306Y28867468D01*
X17059970Y28972437D02*
Y28925784D01*
X17024982D01*
X17036644Y28949109D01*
Y28960773D01*
X17024982Y28972437D01*
X17001656D01*
X16989992Y28960773D01*
Y28937448D01*
X17001656Y28925784D01*
X17048306Y28995761D02*
X17059970Y29007425D01*
Y29030750D01*
X17048306Y29042413D01*
X17001656D01*
X16989992Y29030750D01*
Y29007425D01*
X17001656Y28995761D01*
X17048306D01*
X28922839Y2912500D02*
X28992816D01*
Y2947489D01*
X28981152Y2959152D01*
X28957828D01*
X28946164Y2947489D01*
Y2912500D01*
Y2935826D02*
X28922839Y2959152D01*
Y3017466D02*
X28992816D01*
X28957828Y2982478D01*
Y3029129D01*
X28922839Y3099107D02*
Y3052455D01*
X28969489Y3099107D01*
X28981152D01*
X28992816Y3087444D01*
Y3064118D01*
X28981152Y3052455D01*
X28042838Y2920023D02*
Y2966674D01*
X28066165Y2990000D01*
X28089490Y2966674D01*
Y2920023D01*
X28112817D02*
X28159467D01*
X28136142D01*
Y2990000D01*
X28182794Y2931686D02*
X28194455Y2920023D01*
X28217783D01*
X28229446Y2931686D01*
Y2943348D01*
X28217783Y2955011D01*
X28206119D01*
X28217783D01*
X28229446Y2966674D01*
Y2978337D01*
X28217783Y2990000D01*
X28194455D01*
X28182794Y2978337D01*
X28537839Y2920023D02*
Y2966674D01*
X28561163Y2990000D01*
X28584488Y2966674D01*
Y2920023D01*
X28607816D02*
X28654468D01*
X28631140D01*
Y2990000D01*
X28724445Y2920023D02*
X28677792D01*
Y2955011D01*
X28701120Y2943348D01*
X28712781D01*
X28724445Y2955011D01*
Y2978337D01*
X28712781Y2990000D01*
X28689456D01*
X28677792Y2978337D01*
X29307501Y27164978D02*
Y27118326D01*
X29284174Y27095001D01*
X29260849Y27118326D01*
Y27164978D01*
X29237521D02*
X29190872D01*
X29214197D01*
Y27095001D01*
X29132556D02*
Y27164978D01*
X29167545Y27129990D01*
X29120892D01*
X29050916Y27095001D02*
X29097568D01*
X29050916Y27141653D01*
Y27153314D01*
X29062579Y27164978D01*
X29085904D01*
X29097568Y27153314D01*
X22247478Y29392938D02*
X22200826D01*
X22177499Y29416263D01*
X22200826Y29439587D01*
X22247478D01*
Y29462915D02*
X22177499D01*
Y29497903D01*
X22189163Y29509567D01*
X22235815D01*
X22247478Y29497903D01*
Y29462915D01*
X22177499Y29567880D02*
X22247478D01*
X22212489Y29532892D01*
Y29579544D01*
X22247478Y29649521D02*
Y29602869D01*
X22212489D01*
X22224152Y29626196D01*
Y29637857D01*
X22212489Y29649521D01*
X22189163D01*
X22177499Y29637857D01*
Y29614532D01*
X22189163Y29602869D01*
X22622501Y27670001D02*
Y27739978D01*
X22587511D01*
X22575848Y27728314D01*
Y27704990D01*
X22587511Y27693326D01*
X22622501D01*
X22599174D02*
X22575848Y27670001D01*
X22552522D02*
X22529198D01*
X22540860D01*
Y27739978D01*
X22552522Y27728314D01*
X22494208Y27670001D02*
X22470882D01*
X22482545D01*
Y27739978D01*
X22494208Y27728314D01*
X22435893D02*
X22424229Y27739978D01*
X22400905D01*
X22389243Y27728314D01*
Y27716653D01*
X22400905Y27704990D01*
X22389243Y27693326D01*
Y27681662D01*
X22400905Y27670001D01*
X22424229D01*
X22435893Y27681662D01*
Y27693326D01*
X22424229Y27704990D01*
X22435893Y27716653D01*
Y27728314D01*
X22424229Y27704990D02*
X22400905D01*
X27135001Y27129999D02*
Y27060022D01*
X27169989D01*
X27181653Y27071686D01*
Y27095010D01*
X27169989Y27106674D01*
X27135001D01*
X27158325D02*
X27181653Y27129999D01*
X27251630Y27060022D02*
X27204977D01*
Y27095010D01*
X27228302Y27083347D01*
X27239966D01*
X27251630Y27095010D01*
Y27118338D01*
X27239966Y27129999D01*
X27216641D01*
X27204977Y27118338D01*
X27274954Y27060022D02*
X27321606D01*
Y27071686D01*
X27274954Y27118338D01*
Y27129999D01*
X27672501Y27707501D02*
Y27637524D01*
X27707489D01*
X27719153Y27649185D01*
Y27672510D01*
X27707489Y27684174D01*
X27672501D01*
X27695825D02*
X27719153Y27707501D01*
X27742477Y27649185D02*
X27754141Y27637524D01*
X27777466D01*
X27789130Y27649185D01*
Y27660849D01*
X27777466Y27672510D01*
X27789130Y27684174D01*
Y27695837D01*
X27777466Y27707501D01*
X27754141D01*
X27742477Y27695837D01*
Y27684174D01*
X27754141Y27672510D01*
X27742477Y27660849D01*
Y27649185D01*
X27754141Y27672510D02*
X27777466D01*
X27812454Y27695837D02*
X27824118Y27707501D01*
X27847443D01*
X27859106Y27695837D01*
Y27649185D01*
X27847443Y27637524D01*
X27824118D01*
X27812454Y27649185D01*
Y27660849D01*
X27824118Y27672510D01*
X27859106D01*
X27067523Y850000D02*
X27114175D01*
X27137500Y826674D01*
X27114175Y803348D01*
X27067523D01*
Y780023D02*
X27137500D01*
Y745034D01*
X27125836Y733371D01*
X27079184D01*
X27067523Y745034D01*
Y780023D01*
X27137500Y663393D02*
Y710045D01*
X27090848Y663393D01*
X27079184D01*
X27067523Y675056D01*
Y698382D01*
X27079184Y710045D01*
Y640068D02*
X27067523Y628405D01*
Y605079D01*
X27079184Y593416D01*
X27090848D01*
X27102512Y605079D01*
Y616742D01*
Y605079D01*
X27114175Y593416D01*
X27125836D01*
X27137500Y605079D01*
Y628405D01*
X27125836Y640068D01*
X23407478Y692500D02*
X23360826D01*
X23337500Y715826D01*
X23360826Y739152D01*
X23407478D01*
Y762478D02*
Y809129D01*
Y785803D01*
X23337500D01*
Y832455D02*
Y855781D01*
Y844118D01*
X23407478D01*
X23395815Y832455D01*
Y890770D02*
X23407478Y902433D01*
Y925758D01*
X23395815Y937421D01*
X23349162D01*
X23337500Y925758D01*
Y902433D01*
X23349162Y890770D01*
X23395815D01*
X23407478Y1190000D02*
X23360826D01*
X23337500Y1213326D01*
X23360826Y1236652D01*
X23407478D01*
Y1259977D02*
Y1306629D01*
Y1283303D01*
X23337500D01*
Y1329955D02*
Y1353281D01*
Y1341618D01*
X23407478D01*
X23395815Y1329955D01*
X23407478Y1434921D02*
X23395815Y1411595D01*
X23372488Y1388270D01*
X23349162D01*
X23337500Y1399932D01*
Y1423258D01*
X23349162Y1434921D01*
X23360826D01*
X23372488Y1423258D01*
Y1388270D01*
X23927499Y930000D02*
Y999977D01*
X23892511D01*
X23880849Y988315D01*
Y964989D01*
X23892511Y953326D01*
X23927499D01*
X23904173D02*
X23880849Y930000D01*
X23810870Y999977D02*
X23834196Y988315D01*
X23857523Y964989D01*
Y941663D01*
X23845860Y930000D01*
X23822534D01*
X23810870Y941663D01*
Y953326D01*
X23822534Y964989D01*
X23857523D01*
X23740894Y999977D02*
X23787544D01*
Y964989D01*
X23764220Y976652D01*
X23752556D01*
X23740894Y964989D01*
Y941663D01*
X23752556Y930000D01*
X23775882D01*
X23787544Y941663D01*
X25882501Y942500D02*
Y872523D01*
X25917490D01*
X25929153Y884185D01*
Y907511D01*
X25917490Y919174D01*
X25882501D01*
X25905826D02*
X25929153Y942500D01*
X25987466D02*
Y872523D01*
X25952478Y907511D01*
X25999130D01*
X26057443Y942500D02*
Y872523D01*
X26022455Y907511D01*
X26069107D01*
X26400021Y692500D02*
X26446674D01*
X26470001Y669174D01*
X26446674Y645848D01*
X26400021D01*
Y622523D02*
Y575871D01*
Y599197D01*
X26470001D01*
X26400021Y552545D02*
Y505893D01*
X26411685D01*
X26458337Y552545D01*
X26470001D01*
X22040814Y576651D02*
X22052477Y564988D01*
Y541663D01*
X22040814Y530000D01*
X21994162D01*
X21982500Y541663D01*
Y564988D01*
X21994162Y576651D01*
X22040814Y599977D02*
X22052477Y611640D01*
Y634966D01*
X22040814Y646629D01*
X22029150D01*
X22017488Y634966D01*
Y623303D01*
Y634966D01*
X22005824Y646629D01*
X21994162D01*
X21982500Y634966D01*
Y611640D01*
X21994162Y599977D01*
X21982500Y704943D02*
X22052477D01*
X22017488Y669955D01*
Y716606D01*
X26095001Y2215000D02*
X26164978D01*
Y2249989D01*
X26153314Y2261652D01*
X26129990D01*
X26118326Y2249989D01*
Y2215000D01*
Y2238326D02*
X26095001Y2261652D01*
Y2331629D02*
Y2284977D01*
X26141653Y2331629D01*
X26153314D01*
X26164978Y2319966D01*
Y2296640D01*
X26153314Y2284977D01*
X26095001Y2401607D02*
Y2354955D01*
X26141653Y2401607D01*
X26153314D01*
X26164978Y2389944D01*
Y2366618D01*
X26153314Y2354955D01*
X22880000Y2155000D02*
X22949977D01*
Y2189989D01*
X22938315Y2201652D01*
X22914989D01*
X22903326Y2189989D01*
Y2155000D01*
Y2178326D02*
X22880000Y2201652D01*
X22949977Y2224978D02*
Y2271629D01*
X22938315D01*
X22891663Y2224978D01*
X22880000D01*
X22949977Y2341607D02*
X22938315Y2318281D01*
X22914989Y2294955D01*
X22891663D01*
X22880000Y2306618D01*
Y2329944D01*
X22891663Y2341607D01*
X22903326D01*
X22914989Y2329944D01*
Y2294955D01*
X21995000Y2057500D02*
X22064977D01*
Y2092489D01*
X22053316Y2104152D01*
X22029990D01*
X22018326Y2092489D01*
Y2057500D01*
Y2080826D02*
X21995000Y2104152D01*
X22064977Y2174129D02*
X22053316Y2150803D01*
X22029990Y2127478D01*
X22006664D01*
X21995000Y2139141D01*
Y2162466D01*
X22006664Y2174129D01*
X22018326D01*
X22029990Y2162466D01*
Y2127478D01*
X21995000Y2232444D02*
X22064977D01*
X22029990Y2197455D01*
Y2244107D01*
X27526727Y2867500D02*
X27573380D01*
X27596707Y2844174D01*
X27573380Y2820848D01*
X27526727D01*
Y2797522D02*
X27596707D01*
Y2762534D01*
X27585043Y2750871D01*
X27538391D01*
X27526727Y2762534D01*
Y2797522D01*
X27596707Y2680893D02*
Y2727545D01*
X27550055Y2680893D01*
X27538391D01*
X27526727Y2692556D01*
Y2715882D01*
X27538391Y2727545D01*
X27596707Y2657567D02*
Y2634242D01*
Y2645905D01*
X27526727D01*
X27538391Y2657567D01*
X27241727Y2867500D02*
X27288379D01*
X27311707Y2844174D01*
X27288379Y2820848D01*
X27241727D01*
Y2797522D02*
X27311707D01*
Y2762534D01*
X27300043Y2750871D01*
X27253391D01*
X27241727Y2762534D01*
Y2797522D01*
X27311707Y2680893D02*
Y2727545D01*
X27265054Y2680893D01*
X27253391D01*
X27241727Y2692556D01*
Y2715882D01*
X27253391Y2727545D01*
X27311707Y2610916D02*
Y2657567D01*
X27265054Y2610916D01*
X27253391D01*
X27241727Y2622579D01*
Y2645905D01*
X27253391Y2657567D01*
X19052522Y2742500D02*
X19099174D01*
X19122499Y2719174D01*
X19099174Y2695848D01*
X19052522D01*
Y2672522D02*
X19122499D01*
Y2637534D01*
X19110837Y2625871D01*
X19064185D01*
X19052522Y2637534D01*
Y2672522D01*
X19122499Y2555893D02*
Y2602545D01*
X19075848Y2555893D01*
X19064185D01*
X19052522Y2567556D01*
Y2590882D01*
X19064185Y2602545D01*
X19122499Y2497579D02*
X19052522D01*
X19087511Y2532567D01*
Y2485916D01*
X19312521Y2742500D02*
X19359174D01*
X19382500Y2719174D01*
X19359174Y2695848D01*
X19312521D01*
Y2672522D02*
X19382500D01*
Y2637534D01*
X19370837Y2625871D01*
X19324185D01*
X19312521Y2637534D01*
Y2672522D01*
X19382500Y2555893D02*
Y2602545D01*
X19335847Y2555893D01*
X19324185D01*
X19312521Y2567556D01*
Y2590882D01*
X19324185Y2602545D01*
X19312521Y2485916D02*
Y2532567D01*
X19347511D01*
X19335847Y2509242D01*
Y2497579D01*
X19347511Y2485916D01*
X19370837D01*
X19382500Y2497579D01*
Y2520905D01*
X19370837Y2532567D01*
X6137477Y607500D02*
X6090826D01*
X6067500Y630826D01*
X6090826Y654152D01*
X6137477D01*
Y677478D02*
Y724129D01*
Y700804D01*
X6067500D01*
Y747455D02*
Y770781D01*
Y759118D01*
X6137477D01*
X6125815Y747455D01*
X6079163Y805770D02*
X6067500Y817433D01*
Y840759D01*
X6079163Y852421D01*
X6125815D01*
X6137477Y840759D01*
Y817433D01*
X6125815Y805770D01*
X6114152D01*
X6102489Y817433D01*
Y852421D01*
X4140000Y630000D02*
X4209978D01*
Y664989D01*
X4198315Y676652D01*
X4174989D01*
X4163326Y664989D01*
Y630000D01*
Y653326D02*
X4140000Y676652D01*
Y699978D02*
Y723303D01*
Y711640D01*
X4209978D01*
X4198315Y699978D01*
X4209978Y758292D02*
Y804944D01*
X4198315D01*
X4151663Y758292D01*
X4140000D01*
X8875000Y650000D02*
X8944978D01*
Y684988D01*
X8933315Y696651D01*
X8909989D01*
X8898326Y684988D01*
Y650000D01*
Y673326D02*
X8875000Y696651D01*
X8944978Y719977D02*
Y766629D01*
X8933315D01*
X8886663Y719977D01*
X8875000D01*
Y824943D02*
X8944978D01*
X8909989Y789955D01*
Y836606D01*
X10285848Y728315D02*
X10297511Y739977D01*
X10320837D01*
X10332500Y728315D01*
Y681663D01*
X10320837Y670000D01*
X10297511D01*
X10285848Y681663D01*
X10262523Y728315D02*
X10250860Y739977D01*
X10227534D01*
X10215871Y728315D01*
Y716652D01*
X10227534Y704989D01*
X10239197D01*
X10227534D01*
X10215871Y693326D01*
Y681663D01*
X10227534Y670000D01*
X10250860D01*
X10262523Y681663D01*
X10192545Y739977D02*
X10145893D01*
Y728315D01*
X10192545Y681663D01*
Y670000D01*
X3520848Y730815D02*
X3532511Y742478D01*
X3555837D01*
X3567500Y730815D01*
Y684163D01*
X3555837Y672500D01*
X3532511D01*
X3520848Y684163D01*
X3497522Y672500D02*
X3474197D01*
X3485859D01*
Y742478D01*
X3497522Y730815D01*
X3392556Y672500D02*
X3439208D01*
X3392556Y719152D01*
Y730815D01*
X3404219Y742478D01*
X3427545D01*
X3439208Y730815D01*
X5772477Y607500D02*
X5725826D01*
X5702500Y630826D01*
X5725826Y654152D01*
X5772477D01*
Y677478D02*
Y724129D01*
Y700804D01*
X5702500D01*
Y747455D02*
Y770781D01*
Y759118D01*
X5772477D01*
X5760814Y747455D01*
Y805770D02*
X5772477Y817433D01*
Y840759D01*
X5760814Y852421D01*
X5749152D01*
X5737489Y840759D01*
X5725826Y852421D01*
X5714163D01*
X5702500Y840759D01*
Y817433D01*
X5714163Y805770D01*
X5725826D01*
X5737489Y817433D01*
X5749152Y805770D01*
X5760814D01*
X5737489Y817433D02*
Y840759D01*
X27730814Y594152D02*
X27742477Y582489D01*
Y559163D01*
X27730814Y547500D01*
X27684164D01*
X27672501Y559163D01*
Y582489D01*
X27684164Y594152D01*
X27672501Y617478D02*
Y640804D01*
Y629141D01*
X27742477D01*
X27730814Y617478D01*
X27742477Y722444D02*
Y675792D01*
X27707489D01*
X27719153Y699118D01*
Y710781D01*
X27707489Y722444D01*
X27684164D01*
X27672501Y710781D01*
Y687455D01*
X27684164Y675792D01*
X9347523Y1142500D02*
X9394174D01*
X9417500Y1119174D01*
X9394174Y1095848D01*
X9347523D01*
Y1072522D02*
X9417500D01*
Y1037534D01*
X9405837Y1025871D01*
X9359185D01*
X9347523Y1037534D01*
Y1072522D01*
X9417500Y955893D02*
Y1002545D01*
X9370848Y955893D01*
X9359185D01*
X9347523Y967556D01*
Y990882D01*
X9359185Y1002545D01*
X9347523Y885916D02*
X9359185Y909242D01*
X9382511Y932567D01*
X9405837D01*
X9417500Y920904D01*
Y897579D01*
X9405837Y885916D01*
X9394174D01*
X9382511Y897579D01*
Y932567D01*
X3645022Y1160000D02*
X3691674D01*
X3715000Y1136674D01*
X3691674Y1113348D01*
X3645022D01*
Y1090022D02*
X3715000D01*
Y1055034D01*
X3703337Y1043371D01*
X3656685D01*
X3645022Y1055034D01*
Y1090022D01*
X3715000Y1020045D02*
Y996719D01*
Y1008382D01*
X3645022D01*
X3656685Y1020045D01*
X3715000Y915079D02*
Y961730D01*
X3668348Y915079D01*
X3656685D01*
X3645022Y926742D01*
Y950067D01*
X3656685Y961730D01*
X20130000Y2815022D02*
Y2861674D01*
X20153326Y2885000D01*
X20176653Y2861674D01*
Y2815022D01*
X20199977D02*
X20246629D01*
X20223303D01*
Y2885000D01*
X20269955D02*
X20293282D01*
X20281618D01*
Y2815022D01*
X20269955Y2826685D01*
X20328268Y2815022D02*
X20374921D01*
Y2826685D01*
X20328268Y2873337D01*
Y2885000D01*
X20625000Y2815022D02*
Y2861674D01*
X20648326Y2885000D01*
X20671652Y2861674D01*
Y2815022D01*
X20694977D02*
X20741629D01*
X20718303D01*
Y2885000D01*
X20764955Y2873337D02*
X20776617Y2885000D01*
X20799944D01*
X20811607Y2873337D01*
Y2826685D01*
X20799944Y2815022D01*
X20776617D01*
X20764955Y2826685D01*
Y2838348D01*
X20776617Y2850011D01*
X20811607D01*
X9260000Y480022D02*
Y526674D01*
X9283326Y550000D01*
X9306652Y526674D01*
Y480022D01*
X9329978D02*
X9376629D01*
X9353303D01*
Y550000D01*
X9446607D02*
X9399955D01*
X9446607Y503348D01*
Y491685D01*
X9434944Y480022D01*
X9411618D01*
X9399955Y491685D01*
X9469933Y550000D02*
X9493258D01*
X9481595D01*
Y480022D01*
X9469933Y491685D01*
X9752500Y477522D02*
Y524174D01*
X9775826Y547500D01*
X9799152Y524174D01*
Y477522D01*
X9822477D02*
X9869129D01*
X9845803D01*
Y547500D01*
X9892455D02*
X9915781D01*
X9904118D01*
Y477522D01*
X9892455Y489185D01*
X9950770D02*
X9962432Y477522D01*
X9985758D01*
X9997421Y489185D01*
Y500848D01*
X9985758Y512511D01*
X9974095D01*
X9985758D01*
X9997421Y524174D01*
Y535837D01*
X9985758Y547500D01*
X9962432D01*
X9950770Y535837D01*
X26400021Y1195000D02*
X26446674D01*
X26470001Y1171674D01*
X26446674Y1148348D01*
X26400021D01*
Y1125022D02*
Y1078371D01*
Y1101697D01*
X26470001D01*
Y1020056D02*
X26400021D01*
X26435010Y1055045D01*
Y1008393D01*
X4489661Y460022D02*
Y506674D01*
X4512987Y530000D01*
X4536312Y506674D01*
Y460022D01*
X4559638D02*
X4606290D01*
X4582964D01*
Y530000D01*
X4676268D02*
X4629616D01*
X4676268Y483348D01*
Y471685D01*
X4664605Y460022D01*
X4641279D01*
X4629616Y471685D01*
X4982161Y460022D02*
Y506674D01*
X5005487Y530000D01*
X5028812Y506674D01*
Y460022D01*
X5052138D02*
X5098790D01*
X5075464D01*
Y530000D01*
X5122116D02*
X5145442D01*
X5133779D01*
Y460022D01*
X5122116Y471685D01*
X15822501Y3780000D02*
Y3710023D01*
X15857489D01*
X15869151Y3721685D01*
Y3745011D01*
X15857489Y3756674D01*
X15822501D01*
X15845827D02*
X15869151Y3780000D01*
X15892477Y3710023D02*
X15939130D01*
Y3721685D01*
X15892477Y3768337D01*
Y3780000D01*
X15962456Y3721685D02*
X15974118Y3710023D01*
X15997444D01*
X16009106Y3721685D01*
Y3733348D01*
X15997444Y3745011D01*
X16009106Y3756674D01*
Y3768337D01*
X15997444Y3780000D01*
X15974118D01*
X15962456Y3768337D01*
Y3756674D01*
X15974118Y3745011D01*
X15962456Y3733348D01*
Y3721685D01*
X15974118Y3745011D02*
X15997444D01*
X15272501Y3685000D02*
X15342477D01*
Y3719989D01*
X15330815Y3731652D01*
X15307489D01*
X15295827Y3719989D01*
Y3685000D01*
Y3708326D02*
X15272501Y3731652D01*
X15342477Y3754978D02*
Y3801629D01*
X15330815D01*
X15284163Y3754978D01*
X15272501D01*
X15284163Y3824955D02*
X15272501Y3836618D01*
Y3859944D01*
X15284163Y3871607D01*
X15330815D01*
X15342477Y3859944D01*
Y3836618D01*
X15330815Y3824955D01*
X15319151D01*
X15307489Y3836618D01*
Y3871607D01*
X13275000Y3665000D02*
X13344978D01*
Y3699989D01*
X13333315Y3711652D01*
X13309988D01*
X13298326Y3699989D01*
Y3665000D01*
Y3688326D02*
X13275000Y3711652D01*
Y3781629D02*
Y3734978D01*
X13321652Y3781629D01*
X13333315D01*
X13344978Y3769966D01*
Y3746640D01*
X13333315Y3734978D01*
X13344978Y3804955D02*
Y3851607D01*
X13333315D01*
X13286662Y3804955D01*
X13275000D01*
X11272500Y3687500D02*
X11342477D01*
Y3722489D01*
X11330815Y3734152D01*
X11307489D01*
X11295826Y3722489D01*
Y3687500D01*
Y3710826D02*
X11272500Y3734152D01*
X11342477Y3757478D02*
Y3804129D01*
X11330815D01*
X11284163Y3757478D01*
X11272500D01*
Y3874107D02*
Y3827455D01*
X11319152Y3874107D01*
X11330815D01*
X11342477Y3862444D01*
Y3839118D01*
X11330815Y3827455D01*
X11467500Y3525000D02*
X11537478D01*
Y3559989D01*
X11525815Y3571652D01*
X11502489D01*
X11490826Y3559989D01*
Y3525000D01*
Y3548326D02*
X11467500Y3571652D01*
X11537478Y3641629D02*
X11525815Y3618303D01*
X11502489Y3594978D01*
X11479163D01*
X11467500Y3606640D01*
Y3629966D01*
X11479163Y3641629D01*
X11490826D01*
X11502489Y3629966D01*
Y3594978D01*
X11525815Y3664955D02*
X11537478Y3676618D01*
Y3699944D01*
X11525815Y3711607D01*
X11479163D01*
X11467500Y3699944D01*
Y3676618D01*
X11479163Y3664955D01*
X11525815D01*
X6847500Y3355000D02*
X6917477D01*
Y3389989D01*
X6905814Y3401652D01*
X6882489D01*
X6870826Y3389989D01*
Y3355000D01*
Y3378326D02*
X6847500Y3401652D01*
Y3471629D02*
Y3424977D01*
X6894152Y3471629D01*
X6905814D01*
X6917477Y3459966D01*
Y3436640D01*
X6905814Y3424977D01*
Y3494955D02*
X6917477Y3506618D01*
Y3529944D01*
X6905814Y3541607D01*
X6894152D01*
X6882489Y3529944D01*
X6870826Y3541607D01*
X6859163D01*
X6847500Y3529944D01*
Y3506618D01*
X6859163Y3494955D01*
X6870826D01*
X6882489Y3506618D01*
X6894152Y3494955D01*
X6905814D01*
X6882489Y3506618D02*
Y3529944D01*
X7272500Y3707500D02*
X7342478D01*
Y3742489D01*
X7330815Y3754152D01*
X7307489D01*
X7295826Y3742489D01*
Y3707500D01*
Y3730826D02*
X7272500Y3754152D01*
X7330815Y3777478D02*
X7342478Y3789141D01*
Y3812466D01*
X7330815Y3824129D01*
X7319152D01*
X7307489Y3812466D01*
Y3800803D01*
Y3812466D01*
X7295826Y3824129D01*
X7284163D01*
X7272500Y3812466D01*
Y3789141D01*
X7284163Y3777478D01*
Y3847455D02*
X7272500Y3859118D01*
Y3882444D01*
X7284163Y3894107D01*
X7330815D01*
X7342478Y3882444D01*
Y3859118D01*
X7330815Y3847455D01*
X7319152D01*
X7307489Y3859118D01*
Y3894107D01*
X4827500Y3342500D02*
X4897478D01*
Y3377489D01*
X4885815Y3389152D01*
X4862489D01*
X4850826Y3377489D01*
Y3342500D01*
Y3365826D02*
X4827500Y3389152D01*
Y3447466D02*
X4897478D01*
X4862489Y3412478D01*
Y3459129D01*
X4827500Y3905000D02*
X4897478D01*
Y3939989D01*
X4885815Y3951652D01*
X4862489D01*
X4850826Y3939989D01*
Y3905000D01*
Y3928326D02*
X4827500Y3951652D01*
X4897478Y4021629D02*
Y3974978D01*
X4862489D01*
X4874152Y3998303D01*
Y4009966D01*
X4862489Y4021629D01*
X4839163D01*
X4827500Y4009966D01*
Y3986640D01*
X4839163Y3974978D01*
X3817500Y3785000D02*
Y3715023D01*
X3852489D01*
X3864152Y3726685D01*
Y3750011D01*
X3852489Y3761674D01*
X3817500D01*
X3840826D02*
X3864152Y3785000D01*
X3934129D02*
X3887478D01*
X3934129Y3738348D01*
Y3726685D01*
X3922466Y3715023D01*
X3899141D01*
X3887478Y3726685D01*
X2035023Y2192500D02*
X2081675D01*
X2105000Y2169174D01*
X2081675Y2145848D01*
X2035023D01*
Y2122522D02*
X2105000D01*
Y2087534D01*
X2093337Y2075871D01*
X2046686D01*
X2035023Y2087534D01*
Y2122522D01*
X2105000Y2052545D02*
Y2029219D01*
Y2040882D01*
X2035023D01*
X2046686Y2052545D01*
X2035023Y1947579D02*
Y1994230D01*
X2070012D01*
X2058349Y1970904D01*
Y1959241D01*
X2070012Y1947579D01*
X2093337D01*
X2105000Y1959241D01*
Y1982567D01*
X2093337Y1994230D01*
X2635023Y2195000D02*
X2681674D01*
X2705000Y2171674D01*
X2681674Y2148348D01*
X2635023D01*
Y2125022D02*
X2705000D01*
Y2090034D01*
X2693337Y2078371D01*
X2646686D01*
X2635023Y2090034D01*
Y2125022D01*
X2705000Y2055045D02*
Y2031719D01*
Y2043382D01*
X2635023D01*
X2646686Y2055045D01*
X2635023Y1996730D02*
Y1950079D01*
X2646686D01*
X2693337Y1996730D01*
X2705000D01*
X2935023Y2195000D02*
X2981675D01*
X3005000Y2171674D01*
X2981675Y2148348D01*
X2935023D01*
Y2125022D02*
X3005000D01*
Y2090034D01*
X2993337Y2078371D01*
X2946686D01*
X2935023Y2090034D01*
Y2125022D01*
X3005000Y2055045D02*
Y2031719D01*
Y2043382D01*
X2935023D01*
X2946686Y2055045D01*
X2993337Y1996730D02*
X3005000Y1985067D01*
Y1961742D01*
X2993337Y1950079D01*
X2946686D01*
X2935023Y1961742D01*
Y1985067D01*
X2946686Y1996730D01*
X2958349D01*
X2970012Y1985067D01*
Y1950079D01*
X1737523Y2187500D02*
X1784174D01*
X1807500Y2164174D01*
X1784174Y2140848D01*
X1737523D01*
Y2117522D02*
X1807500D01*
Y2082534D01*
X1795837Y2070871D01*
X1749186D01*
X1737523Y2082534D01*
Y2117522D01*
X1807500Y2047545D02*
Y2024219D01*
Y2035882D01*
X1737523D01*
X1749186Y2047545D01*
Y1989230D02*
X1737523Y1977567D01*
Y1954241D01*
X1749186Y1942579D01*
X1760849D01*
X1772512Y1954241D01*
Y1965904D01*
Y1954241D01*
X1784174Y1942579D01*
X1795837D01*
X1807500Y1954241D01*
Y1977567D01*
X1795837Y1989230D01*
X11425022Y2225000D02*
X11471674D01*
X11495000Y2201674D01*
X11471674Y2178348D01*
X11425022D01*
Y2155023D02*
X11495000D01*
Y2120034D01*
X11483337Y2108371D01*
X11436685D01*
X11425022Y2120034D01*
Y2155023D01*
X11436685Y2085045D02*
X11425022Y2073382D01*
Y2050056D01*
X11436685Y2038393D01*
X11448348D01*
X11460011Y2050056D01*
Y2061719D01*
Y2050056D01*
X11471674Y2038393D01*
X11483337D01*
X11495000Y2050056D01*
Y2073382D01*
X11483337Y2085045D01*
X11436685Y2015068D02*
X11425022Y2003405D01*
Y1980079D01*
X11436685Y1968416D01*
X11448348D01*
X11460011Y1980079D01*
Y1991742D01*
Y1980079D01*
X11471674Y1968416D01*
X11483337D01*
X11495000Y1980079D01*
Y2003405D01*
X11483337Y2015068D01*
X11122523Y2227500D02*
X11169174D01*
X11192500Y2204174D01*
X11169174Y2180849D01*
X11122523D01*
Y2157523D02*
X11192500D01*
Y2122534D01*
X11180837Y2110871D01*
X11134186D01*
X11122523Y2122534D01*
Y2157523D01*
X11134186Y2087545D02*
X11122523Y2075882D01*
Y2052556D01*
X11134186Y2040894D01*
X11145848D01*
X11157511Y2052556D01*
Y2064219D01*
Y2052556D01*
X11169174Y2040894D01*
X11180837D01*
X11192500Y2052556D01*
Y2075882D01*
X11180837Y2087545D01*
X11122523Y1970916D02*
Y2017568D01*
X11157511D01*
X11145848Y1994242D01*
Y1982579D01*
X11157511Y1970916D01*
X11180837D01*
X11192500Y1982579D01*
Y2005905D01*
X11180837Y2017568D01*
X12027523Y2252500D02*
X12074174D01*
X12097500Y2229174D01*
X12074174Y2205849D01*
X12027523D01*
Y2182523D02*
X12097500D01*
Y2147534D01*
X12085837Y2135871D01*
X12039185D01*
X12027523Y2147534D01*
Y2182523D01*
X12097500Y2065894D02*
Y2112545D01*
X12050848Y2065894D01*
X12039185D01*
X12027523Y2077556D01*
Y2100882D01*
X12039185Y2112545D01*
Y2042568D02*
X12027523Y2030905D01*
Y2007579D01*
X12039185Y1995916D01*
X12050848D01*
X12062511Y2007579D01*
X12074174Y1995916D01*
X12085837D01*
X12097500Y2007579D01*
Y2030905D01*
X12085837Y2042568D01*
X12074174D01*
X12062511Y2030905D01*
X12050848Y2042568D01*
X12039185D01*
X12062511Y2030905D02*
Y2007579D01*
X11727522Y2252500D02*
X11774174D01*
X11797500Y2229174D01*
X11774174Y2205849D01*
X11727522D01*
Y2182523D02*
X11797500D01*
Y2147534D01*
X11785837Y2135871D01*
X11739185D01*
X11727522Y2147534D01*
Y2182523D01*
X11739185Y2112545D02*
X11727522Y2100882D01*
Y2077556D01*
X11739185Y2065894D01*
X11750848D01*
X11762511Y2077556D01*
Y2089219D01*
Y2077556D01*
X11774174Y2065894D01*
X11785837D01*
X11797500Y2077556D01*
Y2100882D01*
X11785837Y2112545D01*
X11797500Y1995916D02*
Y2042568D01*
X11750848Y1995916D01*
X11739185D01*
X11727522Y2007579D01*
Y2030905D01*
X11739185Y2042568D01*
X31275000Y3692500D02*
X31205023D01*
Y3657511D01*
X31216684Y3645848D01*
X31240012D01*
X31251675Y3657511D01*
Y3692500D01*
Y3669174D02*
X31275000Y3645848D01*
X31216684Y3622523D02*
X31205023Y3610860D01*
Y3587534D01*
X31216684Y3575871D01*
X31228348D01*
X31240012Y3587534D01*
Y3599197D01*
Y3587534D01*
X31251675Y3575871D01*
X31263336D01*
X31275000Y3587534D01*
Y3610860D01*
X31263336Y3622523D01*
X31205023Y3505893D02*
Y3552545D01*
X31240012D01*
X31228348Y3529219D01*
Y3517556D01*
X31240012Y3505893D01*
X31263336D01*
X31275000Y3517556D01*
Y3540882D01*
X31263336Y3552545D01*
X29275000Y3692500D02*
X29205023D01*
Y3657511D01*
X29216687Y3645848D01*
X29240012D01*
X29251675Y3657511D01*
Y3692500D01*
Y3669174D02*
X29275000Y3645848D01*
X29216687Y3622523D02*
X29205023Y3610860D01*
Y3587534D01*
X29216687Y3575871D01*
X29228348D01*
X29240012Y3587534D01*
Y3599197D01*
Y3587534D01*
X29251675Y3575871D01*
X29263336D01*
X29275000Y3587534D01*
Y3610860D01*
X29263336Y3622523D01*
X29275000Y3517556D02*
X29205023D01*
X29240012Y3552545D01*
Y3505893D01*
X27275000Y3692500D02*
X27205023D01*
Y3657511D01*
X27216684Y3645848D01*
X27240012D01*
X27251675Y3657511D01*
Y3692500D01*
Y3669174D02*
X27275000Y3645848D01*
X27216684Y3622523D02*
X27205023Y3610860D01*
Y3587534D01*
X27216684Y3575871D01*
X27228348D01*
X27240012Y3587534D01*
Y3599197D01*
Y3587534D01*
X27251675Y3575871D01*
X27263336D01*
X27275000Y3587534D01*
Y3610860D01*
X27263336Y3622523D01*
X27216684Y3552545D02*
X27205023Y3540882D01*
Y3517556D01*
X27216684Y3505893D01*
X27228348D01*
X27240012Y3517556D01*
Y3529219D01*
Y3517556D01*
X27251675Y3505893D01*
X27263336D01*
X27275000Y3517556D01*
Y3540882D01*
X27263336Y3552545D01*
X25275000Y3692500D02*
X25205022D01*
Y3657511D01*
X25216685Y3645848D01*
X25240012D01*
X25251674Y3657511D01*
Y3692500D01*
Y3669174D02*
X25275000Y3645848D01*
Y3575871D02*
Y3622523D01*
X25228348Y3575871D01*
X25216685D01*
X25205022Y3587534D01*
Y3610860D01*
X25216685Y3622523D01*
X25263338Y3552545D02*
X25275000Y3540882D01*
Y3517556D01*
X25263338Y3505893D01*
X25216685D01*
X25205022Y3517556D01*
Y3540882D01*
X25216685Y3552545D01*
X25228348D01*
X25240012Y3540882D01*
Y3505893D01*
X17272501Y3692500D02*
X17342477D01*
Y3727489D01*
X17330815Y3739152D01*
X17307489D01*
X17295827Y3727489D01*
Y3692500D01*
Y3715826D02*
X17272501Y3739152D01*
X17342477Y3809129D02*
X17330815Y3785803D01*
X17307489Y3762478D01*
X17284163D01*
X17272501Y3774141D01*
Y3797466D01*
X17284163Y3809129D01*
X17295827D01*
X17307489Y3797466D01*
Y3762478D01*
X17330815Y3832455D02*
X17342477Y3844118D01*
Y3867444D01*
X17330815Y3879107D01*
X17319151D01*
X17307489Y3867444D01*
X17295827Y3879107D01*
X17284163D01*
X17272501Y3867444D01*
Y3844118D01*
X17284163Y3832455D01*
X17295827D01*
X17307489Y3844118D01*
X17319151Y3832455D01*
X17330815D01*
X17307489Y3844118D02*
Y3867444D01*
X23275000Y3690000D02*
X23344977D01*
Y3724989D01*
X23333315Y3736652D01*
X23309988D01*
X23298326Y3724989D01*
Y3690000D01*
Y3713326D02*
X23275000Y3736652D01*
X23344977Y3806629D02*
X23333315Y3783303D01*
X23309988Y3759977D01*
X23286662D01*
X23275000Y3771640D01*
Y3794966D01*
X23286662Y3806629D01*
X23298326D01*
X23309988Y3794966D01*
Y3759977D01*
X23344977Y3829955D02*
Y3876607D01*
X23333315D01*
X23286662Y3829955D01*
X23275000D01*
X19270000Y3692500D02*
X19339978D01*
Y3727489D01*
X19328316Y3739152D01*
X19304990D01*
X19293326Y3727489D01*
Y3692500D01*
Y3715826D02*
X19270000Y3739152D01*
X19339978Y3809129D02*
X19328316Y3785803D01*
X19304990Y3762478D01*
X19281664D01*
X19270000Y3774141D01*
Y3797466D01*
X19281664Y3809129D01*
X19293326D01*
X19304990Y3797466D01*
Y3762478D01*
X19281664Y3832455D02*
X19270000Y3844118D01*
Y3867444D01*
X19281664Y3879107D01*
X19328316D01*
X19339978Y3867444D01*
Y3844118D01*
X19328316Y3832455D01*
X19316652D01*
X19304990Y3844118D01*
Y3879107D01*
X1854186Y10570848D02*
X1842523Y10582511D01*
Y10605837D01*
X1854186Y10617500D01*
X1900837D01*
X1912500Y10605837D01*
Y10582511D01*
X1900837Y10570848D01*
X1912500Y10547522D02*
Y10524197D01*
Y10535860D01*
X1842523D01*
X1854186Y10547522D01*
X1842523Y10442556D02*
X1854186Y10465882D01*
X1877511Y10489208D01*
X1900837D01*
X1912500Y10477545D01*
Y10454219D01*
X1900837Y10442556D01*
X1889174D01*
X1877511Y10454219D01*
Y10489208D01*
X23044978Y29355438D02*
X22998326D01*
X22975000Y29378763D01*
X22998326Y29402087D01*
X23044978D01*
Y29425415D02*
Y29472067D01*
Y29448740D01*
X22975000D01*
Y29530380D02*
X23044978D01*
X23009988Y29495392D01*
Y29542044D01*
X22986662Y29565369D02*
X22975000Y29577032D01*
Y29600357D01*
X22986662Y29612021D01*
X23033315D01*
X23044978Y29600357D01*
Y29577032D01*
X23033315Y29565369D01*
X23021652D01*
X23009988Y29577032D01*
Y29612021D01*
X40196652Y7954186D02*
X40184988Y7942523D01*
X40161664D01*
X40150000Y7954186D01*
Y8000837D01*
X40161664Y8012500D01*
X40184988D01*
X40196652Y8000837D01*
X40266629Y7942523D02*
X40219977D01*
Y7977511D01*
X40243304Y7965848D01*
X40254965D01*
X40266629Y7977511D01*
Y8000837D01*
X40254965Y8012500D01*
X40231641D01*
X40219977Y8000837D01*
X40289954Y7954186D02*
X40301617Y7942523D01*
X40324945D01*
X40336606Y7954186D01*
Y8000837D01*
X40324945Y8012500D01*
X40301617D01*
X40289954Y8000837D01*
Y7954186D01*
X39175000Y8765000D02*
X39105023D01*
Y8730011D01*
X39116684Y8718348D01*
X39140012D01*
X39151675Y8730011D01*
Y8765000D01*
Y8741674D02*
X39175000Y8718348D01*
Y8695022D02*
Y8671697D01*
Y8683360D01*
X39105023D01*
X39116684Y8695022D01*
X39175000Y8590056D02*
Y8636708D01*
X39128348Y8590056D01*
X39116684D01*
X39105023Y8601719D01*
Y8625045D01*
X39116684Y8636708D01*
Y8566730D02*
X39105023Y8555067D01*
Y8531742D01*
X39116684Y8520079D01*
X39128348D01*
X39140012Y8531742D01*
X39151675Y8520079D01*
X39163336D01*
X39175000Y8531742D01*
Y8555067D01*
X39163336Y8566730D01*
X39151675D01*
X39140012Y8555067D01*
X39128348Y8566730D01*
X39116684D01*
X39140012Y8555067D02*
Y8531742D01*
X310000Y12477500D02*
X240022D01*
Y12442511D01*
X251685Y12430848D01*
X275011D01*
X286674Y12442511D01*
Y12477500D01*
Y12454174D02*
X310000Y12430848D01*
Y12407522D02*
Y12384196D01*
Y12395859D01*
X240022D01*
X251685Y12407522D01*
X310000Y12302556D02*
Y12349208D01*
X263348Y12302556D01*
X251685D01*
X240022Y12314219D01*
Y12337545D01*
X251685Y12349208D01*
X240022Y12279230D02*
Y12232579D01*
X251685D01*
X298337Y12279230D01*
X310000D01*
X39325848Y9000815D02*
X39337512Y9012478D01*
X39360837D01*
X39372501Y9000815D01*
Y8954163D01*
X39360837Y8942500D01*
X39337512D01*
X39325848Y8954163D01*
X39255872Y9012478D02*
X39279196Y9000815D01*
X39302521Y8977489D01*
Y8954163D01*
X39290860Y8942500D01*
X39267535D01*
X39255872Y8954163D01*
Y8965826D01*
X39267535Y8977489D01*
X39302521D01*
X39197556Y8942500D02*
Y9012478D01*
X39232544Y8977489D01*
X39185892D01*
X1022500Y12825000D02*
X1092477D01*
Y12859988D01*
X1080814Y12871651D01*
X1057488D01*
X1045825Y12859988D01*
Y12825000D01*
Y12848326D02*
X1022500Y12871651D01*
Y12894977D02*
Y12918303D01*
Y12906641D01*
X1092477D01*
X1080814Y12894977D01*
X1022500Y12999944D02*
Y12953291D01*
X1069151Y12999944D01*
X1080814D01*
X1092477Y12988281D01*
Y12964955D01*
X1080814Y12953291D01*
X1092477Y13069920D02*
Y13023270D01*
X1057488D01*
X1069151Y13046594D01*
Y13058258D01*
X1057488Y13069920D01*
X1034163D01*
X1022500Y13058258D01*
Y13034932D01*
X1034163Y13023270D01*
X3842500Y11737500D02*
X3772522D01*
Y11702511D01*
X3784185Y11690848D01*
X3807511D01*
X3819174Y11702511D01*
Y11737500D01*
Y11714174D02*
X3842500Y11690848D01*
X3772522Y11667523D02*
Y11620871D01*
X3784185D01*
X3830837Y11667523D01*
X3842500D01*
X3784185Y11597545D02*
X3772522Y11585882D01*
Y11562556D01*
X3784185Y11550893D01*
X3795848D01*
X3807511Y11562556D01*
Y11574219D01*
Y11562556D01*
X3819174Y11550893D01*
X3830837D01*
X3842500Y11562556D01*
Y11585882D01*
X3830837Y11597545D01*
X8080000Y27621460D02*
Y27691437D01*
X8045011D01*
X8033348Y27679773D01*
Y27656448D01*
X8045011Y27644785D01*
X8080000D01*
X8056674D02*
X8033348Y27621460D01*
X8010022Y27633124D02*
X7998359Y27621460D01*
X7975034D01*
X7963371Y27633124D01*
Y27679773D01*
X7975034Y27691437D01*
X7998359D01*
X8010022Y27679773D01*
Y27668112D01*
X7998359Y27656448D01*
X7963371D01*
X7940045Y27691437D02*
X7893393D01*
Y27679773D01*
X7940045Y27633124D01*
Y27621460D01*
X8024152Y28001685D02*
X8012489Y27990024D01*
X7989163D01*
X7977500Y28001685D01*
Y28048337D01*
X7989163Y28060001D01*
X8012489D01*
X8024152Y28048337D01*
X8082466Y28060001D02*
Y27990024D01*
X8047477Y28025012D01*
X8094129D01*
X8117455Y28001685D02*
X8129118Y27990024D01*
X8152444D01*
X8164107Y28001685D01*
Y28013348D01*
X8152444Y28025012D01*
X8140781D01*
X8152444D01*
X8164107Y28036673D01*
Y28048337D01*
X8152444Y28060001D01*
X8129118D01*
X8117455Y28048337D01*
X7770000Y28487479D02*
Y28440826D01*
X7746674Y28417499D01*
X7723348Y28440826D01*
Y28487479D01*
X7700022D02*
X7653371D01*
X7676697D01*
Y28417499D01*
X7595056D02*
Y28487479D01*
X7630045Y28452490D01*
X7583393D01*
X7513416Y28487479D02*
X7560067D01*
Y28452490D01*
X7536742Y28464151D01*
X7525079D01*
X7513416Y28452490D01*
Y28429163D01*
X7525079Y28417499D01*
X7548405D01*
X7560067Y28429163D01*
X8089977Y28437500D02*
X8043326D01*
X8020000Y28460825D01*
X8043326Y28484152D01*
X8089977D01*
Y28507477D02*
Y28554129D01*
Y28530804D01*
X8020000D01*
Y28612445D02*
X8089977D01*
X8054989Y28577454D01*
Y28624106D01*
X8089977Y28694083D02*
X8078315Y28670758D01*
X8054989Y28647433D01*
X8031663D01*
X8020000Y28659094D01*
Y28682422D01*
X8031663Y28694083D01*
X8043326D01*
X8054989Y28682422D01*
Y28647433D01*
X9007478Y28457501D02*
X8960826D01*
X8937500Y28480826D01*
X8960826Y28504153D01*
X9007478D01*
Y28527478D02*
X8937500D01*
Y28562466D01*
X8949163Y28574130D01*
X8995815D01*
X9007478Y28562466D01*
Y28527478D01*
X8937500Y28632443D02*
X9007478D01*
X8972489Y28597455D01*
Y28644107D01*
X9007478Y28667432D02*
Y28714084D01*
X8995815D01*
X8949163Y28667432D01*
X8937500D01*
X4129978Y28582501D02*
X4083326D01*
X4060000Y28605826D01*
X4083326Y28629153D01*
X4129978D01*
Y28652478D02*
X4060000D01*
Y28687466D01*
X4071663Y28699130D01*
X4118315D01*
X4129978Y28687466D01*
Y28652478D01*
Y28769107D02*
X4118315Y28745782D01*
X4094989Y28722455D01*
X4071663D01*
X4060000Y28734119D01*
Y28757443D01*
X4071663Y28769107D01*
X4083326D01*
X4094989Y28757443D01*
Y28722455D01*
X10070848Y29100815D02*
X10082511Y29112479D01*
X10105837D01*
X10117500Y29100815D01*
Y29054163D01*
X10105837Y29042499D01*
X10082511D01*
X10070848Y29054163D01*
X10012533Y29042499D02*
Y29112479D01*
X10047522Y29077490D01*
X10000871D01*
X9930893Y29112479D02*
X9954219Y29100815D01*
X9977545Y29077490D01*
Y29054163D01*
X9965882Y29042499D01*
X9942556D01*
X9930893Y29054163D01*
Y29065826D01*
X9942556Y29077490D01*
X9977545D01*
X3838348Y29380814D02*
X3850011Y29392477D01*
X3873337D01*
X3885000Y29380814D01*
Y29334164D01*
X3873337Y29322501D01*
X3850011D01*
X3838348Y29334164D01*
X3768371Y29322501D02*
X3815022D01*
X3768371Y29369153D01*
Y29380814D01*
X3780034Y29392477D01*
X3803359D01*
X3815022Y29380814D01*
X3745045Y29392477D02*
X3698393D01*
Y29380814D01*
X3745045Y29334164D01*
Y29322501D01*
X4950000Y29347479D02*
Y29300827D01*
X4926674Y29277499D01*
X4903348Y29300827D01*
Y29347479D01*
X4880022D02*
X4833371D01*
X4856697D01*
Y29277499D01*
X4810045Y29335815D02*
X4798382Y29347479D01*
X4775056D01*
X4763393Y29335815D01*
Y29324152D01*
X4775056Y29312488D01*
X4786719D01*
X4775056D01*
X4763393Y29300827D01*
Y29289163D01*
X4775056Y29277499D01*
X4798382D01*
X4810045Y29289163D01*
X4705079Y29277499D02*
Y29347479D01*
X4740067Y29312488D01*
X4693416D01*
X4452500Y29347479D02*
Y29300827D01*
X4429174Y29277499D01*
X4405848Y29300827D01*
Y29347479D01*
X4382522D02*
X4335871D01*
X4359197D01*
Y29277499D01*
X4312545Y29335815D02*
X4300882Y29347479D01*
X4277556D01*
X4265893Y29335815D01*
Y29324152D01*
X4277556Y29312488D01*
X4289219D01*
X4277556D01*
X4265893Y29300827D01*
Y29289163D01*
X4277556Y29277499D01*
X4300882D01*
X4312545Y29289163D01*
X4242567Y29277499D02*
X4219241D01*
X4230904D01*
Y29347479D01*
X4242567Y29335815D01*
X9582500Y29062476D02*
Y29015826D01*
X9559174Y28992499D01*
X9535848Y29015826D01*
Y29062476D01*
X9512522D02*
X9465871D01*
X9489196D01*
Y28992499D01*
X9395893Y29062476D02*
X9442545D01*
Y29027490D01*
X9419219Y29039151D01*
X9407556D01*
X9395893Y29027490D01*
Y29004163D01*
X9407556Y28992499D01*
X9430882D01*
X9442545Y29004163D01*
X9372567Y29050815D02*
X9360904Y29062476D01*
X9337578D01*
X9325916Y29050815D01*
Y29039151D01*
X9337578Y29027490D01*
X9325916Y29015826D01*
Y29004163D01*
X9337578Y28992499D01*
X9360904D01*
X9372567Y29004163D01*
Y29015826D01*
X9360904Y29027490D01*
X9372567Y29039151D01*
Y29050815D01*
X9360904Y29027490D02*
X9337578D01*
X9087500Y29062476D02*
Y29015826D01*
X9064174Y28992499D01*
X9040848Y29015826D01*
Y29062476D01*
X9017522D02*
X8970871D01*
X8994196D01*
Y28992499D01*
X8900893Y29062476D02*
X8947545D01*
Y29027490D01*
X8924219Y29039151D01*
X8912556D01*
X8900893Y29027490D01*
Y29004163D01*
X8912556Y28992499D01*
X8935882D01*
X8947545Y29004163D01*
X8842578Y28992499D02*
Y29062476D01*
X8877567Y29027490D01*
X8830916D01*
X27270001Y28690021D02*
Y28736673D01*
X27293326Y28760001D01*
X27316653Y28736673D01*
Y28690021D01*
X27339978D02*
Y28760001D01*
X27374966D01*
X27386630Y28748337D01*
Y28701685D01*
X27374966Y28690021D01*
X27339978D01*
X27444943Y28760001D02*
Y28690021D01*
X27409955Y28725012D01*
X27456607D01*
X27479932Y28701685D02*
X27491595Y28690021D01*
X27514920D01*
X27526584Y28701685D01*
Y28748337D01*
X27514920Y28760001D01*
X27491595D01*
X27479932Y28748337D01*
Y28701685D01*
X27493347Y29138315D02*
X27505011Y29149979D01*
X27528336D01*
X27539999Y29138315D01*
Y29091663D01*
X27528336Y29079999D01*
X27505011D01*
X27493347Y29091663D01*
X27470023Y29138315D02*
X27458359Y29149979D01*
X27435034D01*
X27423370Y29138315D01*
Y29126651D01*
X27435034Y29114990D01*
X27446698D01*
X27435034D01*
X27423370Y29103326D01*
Y29091663D01*
X27435034Y29079999D01*
X27458359D01*
X27470023Y29091663D01*
X27400046Y29138315D02*
X27388382Y29149979D01*
X27365057D01*
X27353394Y29138315D01*
Y29091663D01*
X27365057Y29079999D01*
X27388382D01*
X27400046Y29091663D01*
Y29138315D01*
X20320848Y29900815D02*
X20332510Y29912476D01*
X20355836D01*
X20367500Y29900815D01*
Y29854163D01*
X20355836Y29842499D01*
X20332510D01*
X20320848Y29854163D01*
X20262534Y29842499D02*
Y29912476D01*
X20297523Y29877490D01*
X20250871D01*
X20192557Y29842499D02*
Y29912476D01*
X20227545Y29877490D01*
X20180893D01*
X23042477Y28862936D02*
X22995827D01*
X22972501Y28886264D01*
X22995827Y28909589D01*
X23042477D01*
Y28932913D02*
Y28979565D01*
Y28956241D01*
X22972501D01*
X23042477Y29049542D02*
Y29002893D01*
X23007489D01*
X23019151Y29026218D01*
Y29037881D01*
X23007489Y29049542D01*
X22984163D01*
X22972501Y29037881D01*
Y29014554D01*
X22984163Y29002893D01*
X23042477Y29119522D02*
Y29072870D01*
X23007489D01*
X23019151Y29096194D01*
Y29107858D01*
X23007489Y29119522D01*
X22984163D01*
X22972501Y29107858D01*
Y29084531D01*
X22984163Y29072870D01*
X26345023Y29230838D02*
X26391675D01*
X26414999Y29207513D01*
X26391675Y29184186D01*
X26345023D01*
Y29160861D02*
Y29114209D01*
Y29137534D01*
X26414999D01*
Y29055893D02*
X26345023D01*
X26380011Y29090884D01*
Y29044232D01*
X26356686Y29020905D02*
X26345023Y29009244D01*
Y28985916D01*
X26356686Y28974255D01*
X26368347D01*
X26380011Y28985916D01*
Y28997580D01*
Y28985916D01*
X26391675Y28974255D01*
X26403336D01*
X26414999Y28985916D01*
Y29009244D01*
X26403336Y29020905D01*
X26347522Y28735837D02*
X26394174D01*
X26417499Y28712512D01*
X26394174Y28689188D01*
X26347522D01*
Y28665860D02*
Y28619208D01*
Y28642535D01*
X26417499D01*
X26359186Y28595883D02*
X26347522Y28584219D01*
Y28560895D01*
X26359186Y28549231D01*
X26370847D01*
X26382510Y28560895D01*
Y28572559D01*
Y28560895D01*
X26394174Y28549231D01*
X26405838D01*
X26417499Y28560895D01*
Y28584219D01*
X26405838Y28595883D01*
X26347522Y28479254D02*
X26359186Y28502579D01*
X26382510Y28525906D01*
X26405838D01*
X26417499Y28514243D01*
Y28490918D01*
X26405838Y28479254D01*
X26394174D01*
X26382510Y28490918D01*
Y28525906D01*
X19582477Y27012500D02*
X19535826D01*
X19512500Y27035825D01*
X19535826Y27059152D01*
X19582477D01*
Y27082477D02*
X19512500D01*
Y27117465D01*
X19524162Y27129129D01*
X19570815D01*
X19582477Y27117465D01*
Y27082477D01*
X19512500Y27187445D02*
X19582477D01*
X19547488Y27152454D01*
Y27199106D01*
X19582477Y27269083D02*
X19570815Y27245758D01*
X19547488Y27222433D01*
X19524162D01*
X19512500Y27234097D01*
Y27257422D01*
X19524162Y27269083D01*
X19535826D01*
X19547488Y27257422D01*
Y27222433D01*
X19822478Y27014999D02*
X19775826D01*
X19752499Y27038327D01*
X19775826Y27061652D01*
X19822478D01*
Y27084979D02*
X19752499D01*
Y27119968D01*
X19764163Y27131631D01*
X19810815D01*
X19822478Y27119968D01*
Y27084979D01*
X19752499Y27189944D02*
X19822478D01*
X19787489Y27154956D01*
Y27201608D01*
X19752499Y27259921D02*
X19822478D01*
X19787489Y27224933D01*
Y27271585D01*
X19587500Y27942499D02*
X19517523D01*
Y27907510D01*
X19529185Y27895847D01*
X19552512D01*
X19564174Y27907510D01*
Y27942499D01*
Y27919174D02*
X19587500Y27895847D01*
Y27872522D02*
Y27849197D01*
Y27860861D01*
X19517523D01*
X19529185Y27872522D01*
Y27814209D02*
X19517523Y27802545D01*
Y27779218D01*
X19529185Y27767557D01*
X19575838D01*
X19587500Y27779218D01*
Y27802545D01*
X19575838Y27814209D01*
X19529185D01*
X19517523Y27744232D02*
Y27697580D01*
X19529185D01*
X19575838Y27744232D01*
X19587500D01*
X21232500Y27222476D02*
Y27175827D01*
X21209174Y27152499D01*
X21185847Y27175827D01*
Y27222476D01*
X21162523D02*
X21115871D01*
X21139197D01*
Y27152499D01*
X21045892Y27222476D02*
X21092545D01*
Y27187488D01*
X21069218Y27199152D01*
X21057556D01*
X21045892Y27187488D01*
Y27164163D01*
X21057556Y27152499D01*
X21080882D01*
X21092545Y27164163D01*
X20975916Y27222476D02*
X20999242Y27210815D01*
X21022568Y27187488D01*
Y27164163D01*
X21010905Y27152499D01*
X20987579D01*
X20975916Y27164163D01*
Y27175827D01*
X20987579Y27187488D01*
X21022568D01*
X21737500Y27222476D02*
Y27175827D01*
X21714174Y27152499D01*
X21690848Y27175827D01*
Y27222476D01*
X21667523D02*
X21620871D01*
X21644197D01*
Y27152499D01*
X21562556D02*
Y27222476D01*
X21597545Y27187488D01*
X21550893D01*
X21527568Y27210815D02*
X21515906Y27222476D01*
X21492580D01*
X21480916Y27210815D01*
Y27199152D01*
X21492580Y27187488D01*
X21480916Y27175827D01*
Y27164163D01*
X21492580Y27152499D01*
X21515906D01*
X21527568Y27164163D01*
Y27175827D01*
X21515906Y27187488D01*
X21527568Y27199152D01*
Y27210815D01*
X21515906Y27187488D02*
X21492580D01*
X28800000Y27159979D02*
Y27113327D01*
X28776675Y27089999D01*
X28753348Y27113327D01*
Y27159979D01*
X28730023D02*
X28683371D01*
X28706696D01*
Y27089999D01*
X28660046Y27148315D02*
X28648383Y27159979D01*
X28625055D01*
X28613394Y27148315D01*
Y27136652D01*
X28625055Y27124988D01*
X28636719D01*
X28625055D01*
X28613394Y27113327D01*
Y27101663D01*
X28625055Y27089999D01*
X28648383D01*
X28660046Y27101663D01*
X28543417Y27159979D02*
X28590067D01*
Y27124988D01*
X28566742Y27136652D01*
X28555078D01*
X28543417Y27124988D01*
Y27101663D01*
X28555078Y27089999D01*
X28578403D01*
X28590067Y27101663D01*
X30349979Y27357501D02*
X30303326D01*
X30279999Y27380826D01*
X30303326Y27404153D01*
X30349979D01*
Y27427478D02*
X30279999D01*
Y27462466D01*
X30291663Y27474130D01*
X30338315D01*
X30349979Y27462466D01*
Y27427478D01*
X30279999Y27532443D02*
X30349979D01*
X30314990Y27497455D01*
Y27544107D01*
X30279999Y27614084D02*
Y27567432D01*
X30326651Y27614084D01*
X30338315D01*
X30349979Y27602420D01*
Y27579095D01*
X30338315Y27567432D01*
X30122479Y27357501D02*
X30075827D01*
X30052499Y27380826D01*
X30075827Y27404153D01*
X30122479D01*
Y27427478D02*
X30052499D01*
Y27462466D01*
X30064163Y27474130D01*
X30110815D01*
X30122479Y27462466D01*
Y27427478D01*
X30110815Y27497455D02*
X30122479Y27509119D01*
Y27532443D01*
X30110815Y27544107D01*
X30099152D01*
X30087488Y27532443D01*
Y27520782D01*
Y27532443D01*
X30075827Y27544107D01*
X30064163D01*
X30052499Y27532443D01*
Y27509119D01*
X30064163Y27497455D01*
Y27567432D02*
X30052499Y27579095D01*
Y27602420D01*
X30064163Y27614084D01*
X30110815D01*
X30122479Y27602420D01*
Y27579095D01*
X30110815Y27567432D01*
X30099152D01*
X30087488Y27579095D01*
Y27614084D01*
X22345000Y26304999D02*
X22275023D01*
Y26270010D01*
X22286685Y26258347D01*
X22310011D01*
X22321674Y26270010D01*
Y26304999D01*
Y26281674D02*
X22345000Y26258347D01*
Y26235022D02*
Y26211697D01*
Y26223361D01*
X22275023D01*
X22286685Y26235022D01*
X22345000Y26176709D02*
Y26153381D01*
Y26165045D01*
X22275023D01*
X22286685Y26176709D01*
Y26118393D02*
X22275023Y26106729D01*
Y26083405D01*
X22286685Y26071741D01*
X22298347D01*
X22310011Y26083405D01*
Y26095068D01*
Y26083405D01*
X22321674Y26071741D01*
X22333337D01*
X22345000Y26083405D01*
Y26106729D01*
X22333337Y26118393D01*
X22085001Y26217499D02*
Y26147522D01*
X22119989D01*
X22131651Y26159186D01*
Y26182510D01*
X22119989Y26194174D01*
X22085001D01*
X22108327D02*
X22131651Y26217499D01*
X22154977D02*
X22178304D01*
X22166640D01*
Y26147522D01*
X22154977Y26159186D01*
X22213292D02*
X22224956Y26147522D01*
X22248280D01*
X22259944Y26159186D01*
Y26205838D01*
X22248280Y26217499D01*
X22224956D01*
X22213292Y26205838D01*
Y26159186D01*
X22329921Y26217499D02*
X22283270D01*
X22329921Y26170847D01*
Y26159186D01*
X22318259Y26147522D01*
X22294933D01*
X22283270Y26159186D01*
X18347501Y26312500D02*
X18277522D01*
Y26277512D01*
X18289185Y26265848D01*
X18312511D01*
X18324174Y26277512D01*
Y26312500D01*
Y26289175D02*
X18347501Y26265848D01*
Y26242523D02*
Y26219196D01*
Y26230859D01*
X18277522D01*
X18289185Y26242523D01*
X18347501Y26184207D02*
Y26160883D01*
Y26172546D01*
X18277522D01*
X18289185Y26184207D01*
X18347501Y26125894D02*
Y26102567D01*
Y26114230D01*
X18277522D01*
X18289185Y26125894D01*
X20087500Y26217499D02*
Y26287479D01*
X20052512D01*
X20040848Y26275815D01*
Y26252490D01*
X20052512Y26240826D01*
X20087500D01*
X20064174D02*
X20040848Y26217499D01*
X20017523D02*
X19994197D01*
X20005859D01*
Y26287479D01*
X20017523Y26275815D01*
X19959209D02*
X19947545Y26287479D01*
X19924219D01*
X19912556Y26275815D01*
Y26229163D01*
X19924219Y26217499D01*
X19947545D01*
X19959209Y26229163D01*
Y26275815D01*
X19889230Y26217499D02*
X19865906D01*
X19877568D01*
Y26287479D01*
X19889230Y26275815D01*
X20345000Y26312500D02*
X20275021D01*
Y26277512D01*
X20286685Y26265848D01*
X20310011D01*
X20321674Y26277512D01*
Y26312500D01*
Y26289175D02*
X20345000Y26265848D01*
Y26242523D02*
Y26219196D01*
Y26230859D01*
X20275021D01*
X20286685Y26242523D01*
X20345000Y26184207D02*
Y26160883D01*
Y26172546D01*
X20275021D01*
X20286685Y26184207D01*
X20345000Y26079242D02*
Y26125894D01*
X20298347Y26079242D01*
X20286685D01*
X20275021Y26090906D01*
Y26114230D01*
X20286685Y26125894D01*
X14122501Y26210001D02*
Y26279977D01*
X14087511D01*
X14075848Y26268314D01*
Y26244989D01*
X14087511Y26233325D01*
X14122501D01*
X14099174D02*
X14075848Y26210001D01*
X14052522D02*
X14029196D01*
X14040858D01*
Y26279977D01*
X14052522Y26268314D01*
X13947556Y26210001D02*
X13994208D01*
X13947556Y26256653D01*
Y26268314D01*
X13959219Y26279977D01*
X13982545D01*
X13994208Y26268314D01*
X13877579Y26210001D02*
X13924229D01*
X13877579Y26256653D01*
Y26268314D01*
X13889241Y26279977D01*
X13912567D01*
X13924229Y26268314D01*
X14452499Y26212500D02*
Y26282477D01*
X14417511D01*
X14405849Y26270816D01*
Y26247488D01*
X14417511Y26235825D01*
X14452499D01*
X14429173D02*
X14405849Y26212500D01*
X14382523D02*
X14359196D01*
X14370859D01*
Y26282477D01*
X14382523Y26270816D01*
X14277556Y26212500D02*
X14324208D01*
X14277556Y26259152D01*
Y26270816D01*
X14289220Y26282477D01*
X14312544D01*
X14324208Y26270816D01*
X14219241Y26212500D02*
Y26282477D01*
X14254230Y26247488D01*
X14207579D01*
X12335000Y26652499D02*
X12265023D01*
Y26617511D01*
X12276686Y26605847D01*
X12300011D01*
X12311674Y26617511D01*
Y26652499D01*
Y26629175D02*
X12335000Y26605847D01*
Y26582523D02*
Y26559198D01*
Y26570859D01*
X12265023D01*
X12276686Y26582523D01*
Y26524207D02*
X12265023Y26512546D01*
Y26489218D01*
X12276686Y26477557D01*
X12323337D01*
X12335000Y26489218D01*
Y26512546D01*
X12323337Y26524207D01*
X12276686D01*
Y26454230D02*
X12265023Y26442566D01*
Y26419241D01*
X12276686Y26407578D01*
X12288349D01*
X12300011Y26419241D01*
Y26430905D01*
Y26419241D01*
X12311674Y26407578D01*
X12323337D01*
X12335000Y26419241D01*
Y26442566D01*
X12323337Y26454230D01*
X12447500Y26232501D02*
Y26302478D01*
X12412511D01*
X12400848Y26290814D01*
Y26267490D01*
X12412511Y26255826D01*
X12447500D01*
X12424174D02*
X12400848Y26232501D01*
X12377523D02*
X12354197D01*
X12365860D01*
Y26302478D01*
X12377523Y26290814D01*
X12319208D02*
X12307545Y26302478D01*
X12284219D01*
X12272556Y26290814D01*
Y26244162D01*
X12284219Y26232501D01*
X12307545D01*
X12319208Y26244162D01*
Y26290814D01*
X12202579Y26302478D02*
X12249231D01*
Y26267490D01*
X12225905Y26279153D01*
X12214242D01*
X12202579Y26267490D01*
Y26244162D01*
X12214242Y26232501D01*
X12237568D01*
X12249231Y26244162D01*
X11947478Y27687500D02*
X11900826D01*
X11877500Y27710825D01*
X11900826Y27734152D01*
X11947478D01*
Y27757477D02*
X11877500D01*
Y27792465D01*
X11889163Y27804129D01*
X11935815D01*
X11947478Y27792465D01*
Y27757477D01*
Y27874106D02*
Y27827454D01*
X11912489D01*
X11924152Y27850781D01*
Y27862445D01*
X11912489Y27874106D01*
X11889163D01*
X11877500Y27862445D01*
Y27839117D01*
X11889163Y27827454D01*
X11935815Y27897433D02*
X11947478Y27909097D01*
Y27932422D01*
X11935815Y27944083D01*
X11924152D01*
X11912489Y27932422D01*
Y27920758D01*
Y27932422D01*
X11900826Y27944083D01*
X11889163D01*
X11877500Y27932422D01*
Y27909097D01*
X11889163Y27897433D01*
X11319978Y27689999D02*
X11273326D01*
X11250000Y27713327D01*
X11273326Y27736652D01*
X11319978D01*
Y27759979D02*
X11250000D01*
Y27794965D01*
X11261663Y27806628D01*
X11308315D01*
X11319978Y27794965D01*
Y27759979D01*
Y27876608D02*
Y27829956D01*
X11284989D01*
X11296652Y27853281D01*
Y27864944D01*
X11284989Y27876608D01*
X11261663D01*
X11250000Y27864944D01*
Y27841617D01*
X11261663Y27829956D01*
X11250000Y27946585D02*
Y27899933D01*
X11296652Y27946585D01*
X11308315D01*
X11319978Y27934921D01*
Y27911594D01*
X11308315Y27899933D01*
X12222477Y27689999D02*
X12175826D01*
X12152500Y27713327D01*
X12175826Y27736652D01*
X12222477D01*
Y27759979D02*
X12152500D01*
Y27794965D01*
X12164163Y27806628D01*
X12210815D01*
X12222477Y27794965D01*
Y27759979D01*
Y27876608D02*
Y27829956D01*
X12187489D01*
X12199152Y27853281D01*
Y27864944D01*
X12187489Y27876608D01*
X12164163D01*
X12152500Y27864944D01*
Y27841617D01*
X12164163Y27829956D01*
X12222477Y27946585D02*
Y27899933D01*
X12187489D01*
X12199152Y27923257D01*
Y27934921D01*
X12187489Y27946585D01*
X12164163D01*
X12152500Y27934921D01*
Y27911594D01*
X12164163Y27899933D01*
X11019977Y27689999D02*
X10973326D01*
X10950000Y27713327D01*
X10973326Y27736652D01*
X11019977D01*
Y27759979D02*
X10950000D01*
Y27794965D01*
X10961663Y27806628D01*
X11008315D01*
X11019977Y27794965D01*
Y27759979D01*
X10950000Y27864944D02*
X11019977D01*
X10984989Y27829956D01*
Y27876608D01*
X11008315Y27899933D02*
X11019977Y27911594D01*
Y27934921D01*
X11008315Y27946585D01*
X10996652D01*
X10984989Y27934921D01*
X10973326Y27946585D01*
X10961663D01*
X10950000Y27934921D01*
Y27911594D01*
X10961663Y27899933D01*
X10973326D01*
X10984989Y27911594D01*
X10996652Y27899933D01*
X11008315D01*
X10984989Y27911594D02*
Y27934921D01*
X10437500Y26247485D02*
Y26317462D01*
X10402511D01*
X10390848Y26305798D01*
Y26282471D01*
X10402511Y26270810D01*
X10437500D01*
X10414174D02*
X10390848Y26247485D01*
X10367523D02*
X10344197D01*
X10355860D01*
Y26317462D01*
X10367523Y26305798D01*
X10309208Y26247485D02*
X10285882D01*
X10297545D01*
Y26317462D01*
X10309208Y26305798D01*
X10204242Y26317462D02*
X10227568Y26305798D01*
X10250893Y26282471D01*
Y26259146D01*
X10239230Y26247485D01*
X10215905D01*
X10204242Y26259146D01*
Y26270810D01*
X10215905Y26282471D01*
X10250893D01*
X10107500Y26247485D02*
Y26317462D01*
X10072511D01*
X10060848Y26305798D01*
Y26282471D01*
X10072511Y26270810D01*
X10107500D01*
X10084174D02*
X10060848Y26247485D01*
X10037522D02*
X10014197D01*
X10025860D01*
Y26317462D01*
X10037522Y26305798D01*
X9979208D02*
X9967545Y26317462D01*
X9944219D01*
X9932556Y26305798D01*
Y26259146D01*
X9944219Y26247485D01*
X9967545D01*
X9979208Y26259146D01*
Y26305798D01*
X9909230Y26259146D02*
X9897567Y26247485D01*
X9874242D01*
X9862579Y26259146D01*
Y26305798D01*
X9874242Y26317462D01*
X9897567D01*
X9909230Y26305798D01*
Y26294135D01*
X9897567Y26282471D01*
X9862579D01*
X10337500Y26657483D02*
X10267523D01*
Y26622495D01*
X10279185Y26610831D01*
X10302511D01*
X10314174Y26622495D01*
Y26657483D01*
Y26634158D02*
X10337500Y26610831D01*
Y26587506D02*
Y26564182D01*
Y26575842D01*
X10267523D01*
X10279185Y26587506D01*
Y26529193D02*
X10267523Y26517529D01*
Y26494202D01*
X10279185Y26482541D01*
X10325837D01*
X10337500Y26494202D01*
Y26517529D01*
X10325837Y26529193D01*
X10279185D01*
X10267523Y26412564D02*
X10279185Y26435889D01*
X10302511Y26459213D01*
X10325837D01*
X10337500Y26447552D01*
Y26424225D01*
X10325837Y26412564D01*
X10314174D01*
X10302511Y26424225D01*
Y26459213D01*
X1879977Y27689999D02*
X1833326D01*
X1810000Y27713327D01*
X1833326Y27736652D01*
X1879977D01*
Y27759979D02*
X1810000D01*
Y27794965D01*
X1821663Y27806628D01*
X1868315D01*
X1879977Y27794965D01*
Y27759979D01*
X1868315Y27829956D02*
X1879977Y27841617D01*
Y27864944D01*
X1868315Y27876608D01*
X1856652D01*
X1844989Y27864944D01*
Y27853281D01*
Y27864944D01*
X1833326Y27876608D01*
X1821663D01*
X1810000Y27864944D01*
Y27841617D01*
X1821663Y27829956D01*
X1879977Y27899933D02*
Y27946585D01*
X1868315D01*
X1821663Y27899933D01*
X1810000D01*
X3079978Y27689999D02*
X3033326D01*
X3010000Y27713327D01*
X3033326Y27736652D01*
X3079978D01*
Y27759979D02*
X3010000D01*
Y27794965D01*
X3021663Y27806628D01*
X3068315D01*
X3079978Y27794965D01*
Y27759979D01*
Y27829956D02*
Y27876608D01*
X3068315D01*
X3021663Y27829956D01*
X3010000D01*
X2787478Y27645001D02*
X2740826D01*
X2717500Y27668326D01*
X2740826Y27691653D01*
X2787478D01*
Y27714978D02*
X2717500D01*
Y27749966D01*
X2729163Y27761630D01*
X2775815D01*
X2787478Y27749966D01*
Y27714978D01*
X2729163Y27784955D02*
X2717500Y27796619D01*
Y27819943D01*
X2729163Y27831607D01*
X2775815D01*
X2787478Y27819943D01*
Y27796619D01*
X2775815Y27784955D01*
X2764152D01*
X2752489Y27796619D01*
Y27831607D01*
X2182477Y27689999D02*
X2135826D01*
X2112500Y27713327D01*
X2135826Y27736652D01*
X2182477D01*
Y27759979D02*
X2112500D01*
Y27794965D01*
X2124163Y27806628D01*
X2170815D01*
X2182477Y27794965D01*
Y27759979D01*
X2112500Y27829956D02*
Y27853281D01*
Y27841617D01*
X2182477D01*
X2170815Y27829956D01*
X2112500Y27888269D02*
Y27911594D01*
Y27899933D01*
X2182477D01*
X2170815Y27888269D01*
X8117500Y26200000D02*
Y26269977D01*
X8082511D01*
X8070848Y26258316D01*
Y26234988D01*
X8082511Y26223325D01*
X8117500D01*
X8094174D02*
X8070848Y26200000D01*
X8047523Y26258316D02*
X8035860Y26269977D01*
X8012534D01*
X8000871Y26258316D01*
Y26246652D01*
X8012534Y26234988D01*
X8000871Y26223325D01*
Y26211664D01*
X8012534Y26200000D01*
X8035860D01*
X8047523Y26211664D01*
Y26223325D01*
X8035860Y26234988D01*
X8047523Y26246652D01*
Y26258316D01*
X8035860Y26234988D02*
X8012534D01*
X7930893Y26269977D02*
X7977545D01*
Y26234988D01*
X7954219Y26246652D01*
X7942556D01*
X7930893Y26234988D01*
Y26211664D01*
X7942556Y26200000D01*
X7965882D01*
X7977545Y26211664D01*
X8330000Y26627499D02*
X8260023D01*
Y26592511D01*
X8271686Y26580847D01*
X8295011D01*
X8306674Y26592511D01*
Y26627499D01*
Y26604175D02*
X8330000Y26580847D01*
X8260023Y26557523D02*
Y26510870D01*
X8271686D01*
X8318337Y26557523D01*
X8330000D01*
Y26487546D02*
Y26464218D01*
Y26475882D01*
X8260023D01*
X8271686Y26487546D01*
X8445000Y26200000D02*
Y26269977D01*
X8410011D01*
X8398348Y26258316D01*
Y26234988D01*
X8410011Y26223325D01*
X8445000D01*
X8421674D02*
X8398348Y26200000D01*
X8375023Y26258316D02*
X8363360Y26269977D01*
X8340034D01*
X8328371Y26258316D01*
Y26246652D01*
X8340034Y26234988D01*
X8328371Y26223325D01*
Y26211664D01*
X8340034Y26200000D01*
X8363360D01*
X8375023Y26211664D01*
Y26223325D01*
X8363360Y26234988D01*
X8375023Y26246652D01*
Y26258316D01*
X8363360Y26234988D02*
X8340034D01*
X8270056Y26200000D02*
Y26269977D01*
X8305045Y26234988D01*
X8258393D01*
X2327500Y26639999D02*
X2257522D01*
Y26605011D01*
X2269185Y26593347D01*
X2292511D01*
X2304174Y26605011D01*
Y26639999D01*
Y26616675D02*
X2327500Y26593347D01*
X2269185Y26570023D02*
X2257522Y26558359D01*
Y26535034D01*
X2269185Y26523370D01*
X2280848D01*
X2292511Y26535034D01*
Y26546698D01*
Y26535034D01*
X2304174Y26523370D01*
X2315837D01*
X2327500Y26535034D01*
Y26558359D01*
X2315837Y26570023D01*
X2269185Y26500046D02*
X2257522Y26488382D01*
Y26465057D01*
X2269185Y26453394D01*
X2315837D01*
X2327500Y26465057D01*
Y26488382D01*
X2315837Y26500046D01*
X2269185D01*
X2447500Y26227484D02*
Y26297461D01*
X2412511D01*
X2400848Y26285797D01*
Y26262473D01*
X2412511Y26250809D01*
X2447500D01*
X2424174D02*
X2400848Y26227484D01*
X2377522Y26285797D02*
X2365859Y26297461D01*
X2342534D01*
X2330871Y26285797D01*
Y26274136D01*
X2342534Y26262473D01*
X2354196D01*
X2342534D01*
X2330871Y26250809D01*
Y26239148D01*
X2342534Y26227484D01*
X2365859D01*
X2377522Y26239148D01*
X2260893Y26227484D02*
X2307545D01*
X2260893Y26274136D01*
Y26285797D01*
X2272556Y26297461D01*
X2295882D01*
X2307545Y26285797D01*
X4059431Y11510000D02*
Y11440023D01*
X4094420D01*
X4106082Y11451686D01*
Y11475012D01*
X4094420Y11486675D01*
X4059431D01*
X4082757D02*
X4106082Y11510000D01*
X4129408D02*
X4152734D01*
X4141071D01*
Y11440023D01*
X4129408Y11451686D01*
X4222712Y11510000D02*
Y11440023D01*
X4187723Y11475012D01*
X4234375D01*
X4257700Y11451686D02*
X4269363Y11440023D01*
X4292689D01*
X4304352Y11451686D01*
Y11463349D01*
X4292689Y11475012D01*
X4281026D01*
X4292689D01*
X4304352Y11486675D01*
Y11498337D01*
X4292689Y11510000D01*
X4269363D01*
X4257700Y11498337D01*
X3586931Y11110001D02*
X3656908D01*
Y11144989D01*
X3645245Y11156652D01*
X3621919D01*
X3610256Y11144989D01*
Y11110001D01*
Y11133326D02*
X3586931Y11156652D01*
Y11179978D02*
Y11203304D01*
Y11191641D01*
X3656908D01*
X3645245Y11179978D01*
Y11238293D02*
X3656908Y11249956D01*
Y11273281D01*
X3645245Y11284944D01*
X3633582D01*
X3621919Y11273281D01*
Y11261619D01*
Y11273281D01*
X3610256Y11284944D01*
X3598594D01*
X3586931Y11273281D01*
Y11249956D01*
X3598594Y11238293D01*
X3586931Y11343259D02*
X3656908D01*
X3621919Y11308270D01*
Y11354922D01*
X39014999Y10427500D02*
Y10357523D01*
X39049988D01*
X39061652Y10369186D01*
Y10392511D01*
X39049988Y10404174D01*
X39014999D01*
X39038324D02*
X39061652Y10427500D01*
X39084976D02*
X39108304D01*
X39096640D01*
Y10357523D01*
X39084976Y10369186D01*
X39178281Y10427500D02*
Y10357523D01*
X39143292Y10392511D01*
X39189944D01*
X39248257Y10427500D02*
Y10357523D01*
X39213269Y10392511D01*
X39259921D01*
X38197498Y10032500D02*
X38267477D01*
Y10067489D01*
X38255814Y10079152D01*
X38232489D01*
X38220825Y10067489D01*
Y10032500D01*
Y10055826D02*
X38197498Y10079152D01*
Y10102478D02*
Y10125803D01*
Y10114141D01*
X38267477D01*
X38255814Y10102478D01*
X38197498Y10195781D02*
X38267477D01*
X38232489Y10160792D01*
Y10207444D01*
X38197498Y10277421D02*
Y10230770D01*
X38244150Y10277421D01*
X38255814D01*
X38267477Y10265758D01*
Y10242433D01*
X38255814Y10230770D01*
X14350000Y26627499D02*
X14280022D01*
Y26592511D01*
X14291685Y26580850D01*
X14315012D01*
X14326674Y26592511D01*
Y26627499D01*
Y26604175D02*
X14350000Y26580850D01*
Y26557523D02*
Y26534198D01*
Y26545859D01*
X14280022D01*
X14291685Y26557523D01*
X14350000Y26452557D02*
Y26499207D01*
X14303348Y26452557D01*
X14291685D01*
X14280022Y26464218D01*
Y26487546D01*
X14291685Y26499207D01*
Y26429230D02*
X14280022Y26417569D01*
Y26394241D01*
X14291685Y26382578D01*
X14303348D01*
X14315012Y26394241D01*
Y26405905D01*
Y26394241D01*
X14326674Y26382578D01*
X14338338D01*
X14350000Y26394241D01*
Y26417569D01*
X14338338Y26429230D01*
X16445000Y26202499D02*
Y26272476D01*
X16410011D01*
X16398347Y26260815D01*
Y26237488D01*
X16410011Y26225827D01*
X16445000D01*
X16421674D02*
X16398347Y26202499D01*
X16375021D02*
X16351697D01*
X16363359D01*
Y26272476D01*
X16375021Y26260815D01*
X16270056Y26202499D02*
X16316708D01*
X16270056Y26249152D01*
Y26260815D01*
X16281718Y26272476D01*
X16305045D01*
X16316708Y26260815D01*
X16246730Y26202499D02*
X16223404D01*
X16235068D01*
Y26272476D01*
X16246730Y26260815D01*
X16117500Y26202499D02*
Y26272476D01*
X16082510D01*
X16070848Y26260815D01*
Y26237488D01*
X16082510Y26225827D01*
X16117500D01*
X16094174D02*
X16070848Y26202499D01*
X16047522D02*
X16024196D01*
X16035860D01*
Y26272476D01*
X16047522Y26260815D01*
X15942557Y26202499D02*
X15989207D01*
X15942557Y26249152D01*
Y26260815D01*
X15954219Y26272476D01*
X15977545D01*
X15989207Y26260815D01*
X15919231D02*
X15907567Y26272476D01*
X15884241D01*
X15872578Y26260815D01*
Y26214163D01*
X15884241Y26202499D01*
X15907567D01*
X15919231Y26214163D01*
Y26260815D01*
X16342500Y26625000D02*
X16272522D01*
Y26590012D01*
X16284184Y26578348D01*
X16307510D01*
X16319174Y26590012D01*
Y26625000D01*
Y26601675D02*
X16342500Y26578348D01*
Y26555023D02*
Y26531696D01*
Y26543359D01*
X16272522D01*
X16284184Y26555023D01*
X16342500Y26496707D02*
Y26473383D01*
Y26485046D01*
X16272522D01*
X16284184Y26496707D01*
X16330836Y26438394D02*
X16342500Y26426730D01*
Y26403403D01*
X16330836Y26391742D01*
X16284184D01*
X16272522Y26403403D01*
Y26426730D01*
X16284184Y26438394D01*
X16295848D01*
X16307510Y26426730D01*
Y26391742D01*
X8615000Y28972501D02*
Y28902524D01*
X8649989D01*
X8661652Y28914185D01*
Y28937512D01*
X8649989Y28949173D01*
X8615000D01*
X8638326D02*
X8661652Y28972501D01*
X8684978D02*
X8708303D01*
X8696640D01*
Y28902524D01*
X8684978Y28914185D01*
X8743292Y28972501D02*
X8766618D01*
X8754955D01*
Y28902524D01*
X8743292Y28914185D01*
X8801607Y28902524D02*
X8848258D01*
Y28914185D01*
X8801607Y28960837D01*
Y28972501D01*
X20792500Y27904999D02*
X20722522D01*
Y27870010D01*
X20734184Y27858347D01*
X20757510D01*
X20769174Y27870010D01*
Y27904999D01*
Y27881674D02*
X20792500Y27858347D01*
Y27835022D02*
Y27811697D01*
Y27823361D01*
X20722522D01*
X20734184Y27835022D01*
X20792500Y27776709D02*
Y27753381D01*
Y27765045D01*
X20722522D01*
X20734184Y27776709D01*
X20722522Y27671741D02*
Y27718393D01*
X20757510D01*
X20745848Y27695068D01*
Y27683405D01*
X20757510Y27671741D01*
X20780836D01*
X20792500Y27683405D01*
Y27706729D01*
X20780836Y27718393D01*
X22089999Y27052499D02*
X22020023D01*
Y27017511D01*
X22031686Y27005847D01*
X22055013D01*
X22066673Y27017511D01*
Y27052499D01*
Y27029175D02*
X22089999Y27005847D01*
Y26982523D02*
Y26959198D01*
Y26970859D01*
X22020023D01*
X22031686Y26982523D01*
X22089999Y26924207D02*
Y26900882D01*
Y26912546D01*
X22020023D01*
X22031686Y26924207D01*
X22089999Y26830905D02*
X22020023D01*
X22055013Y26865894D01*
Y26819241D01*
X24345000Y26312500D02*
X24275023D01*
Y26277512D01*
X24286685Y26265848D01*
X24310011D01*
X24321674Y26277512D01*
Y26312500D01*
Y26289175D02*
X24345000Y26265848D01*
Y26242523D02*
Y26219196D01*
Y26230859D01*
X24275023D01*
X24286685Y26242523D01*
X24345000Y26184207D02*
Y26160883D01*
Y26172546D01*
X24275023D01*
X24286685Y26184207D01*
Y26125894D02*
X24275023Y26114230D01*
Y26090906D01*
X24286685Y26079242D01*
X24333337D01*
X24345000Y26090906D01*
Y26114230D01*
X24333337Y26125894D01*
X24286685D01*
X22403133Y28812936D02*
X22333154D01*
Y28777948D01*
X22344818Y28766284D01*
X22368143D01*
X22379807Y28777948D01*
Y28812936D01*
Y28789612D02*
X22403133Y28766284D01*
Y28742960D02*
Y28719632D01*
Y28731296D01*
X22333154D01*
X22344818Y28742960D01*
Y28684644D02*
X22333154Y28672983D01*
Y28649655D01*
X22344818Y28637994D01*
X22391469D01*
X22403133Y28649655D01*
Y28672983D01*
X22391469Y28684644D01*
X22344818D01*
Y28614667D02*
X22333154Y28603003D01*
Y28579678D01*
X22344818Y28568015D01*
X22356480D01*
X22368143Y28579678D01*
X22379807Y28568015D01*
X22391469D01*
X22403133Y28579678D01*
Y28603003D01*
X22391469Y28614667D01*
X22379807D01*
X22368143Y28603003D01*
X22356480Y28614667D01*
X22344818D01*
X22368143Y28603003D02*
Y28579678D01*
X12120000Y26232501D02*
Y26302478D01*
X12085011D01*
X12073348Y26290814D01*
Y26267490D01*
X12085011Y26255826D01*
X12120000D01*
X12096674D02*
X12073348Y26232501D01*
X12050023D02*
X12026697D01*
X12038360D01*
Y26302478D01*
X12050023Y26290814D01*
X11991708D02*
X11980045Y26302478D01*
X11956719D01*
X11945056Y26290814D01*
Y26244162D01*
X11956719Y26232501D01*
X11980045D01*
X11991708Y26244162D01*
Y26290814D01*
X11886742Y26232501D02*
Y26302478D01*
X11921731Y26267490D01*
X11875079D01*
X18085001Y26212500D02*
Y26282477D01*
X18050011D01*
X18038348Y26270816D01*
Y26247488D01*
X18050011Y26235825D01*
X18085001D01*
X18061674D02*
X18038348Y26212500D01*
X18015022D02*
X17991698D01*
X18003358D01*
Y26282477D01*
X18015022Y26270816D01*
X17956708D02*
X17945045Y26282477D01*
X17921719D01*
X17910056Y26270816D01*
Y26224164D01*
X17921719Y26212500D01*
X17945045D01*
X17956708Y26224164D01*
Y26270816D01*
X17886729D02*
X17875067Y26282477D01*
X17851743D01*
X17840079Y26270816D01*
Y26224164D01*
X17851743Y26212500D01*
X17875067D01*
X17886729Y26224164D01*
Y26270816D01*
X24089999Y26214999D02*
Y26284976D01*
X24055011D01*
X24043349Y26273315D01*
Y26249988D01*
X24055011Y26238327D01*
X24089999D01*
X24066673D02*
X24043349Y26214999D01*
X24020023Y26226663D02*
X24008360Y26214999D01*
X23985034D01*
X23973370Y26226663D01*
Y26273315D01*
X23985034Y26284976D01*
X24008360D01*
X24020023Y26273315D01*
Y26261652D01*
X24008360Y26249988D01*
X23973370D01*
X23950044Y26226663D02*
X23938382Y26214999D01*
X23915056D01*
X23903394Y26226663D01*
Y26273315D01*
X23915056Y26284976D01*
X23938382D01*
X23950044Y26273315D01*
Y26261652D01*
X23938382Y26249988D01*
X23903394D01*
X8019645Y27842499D02*
Y27772522D01*
X8054633D01*
X8066296Y27784186D01*
Y27807510D01*
X8054633Y27819174D01*
X8019645D01*
X8042970D02*
X8066296Y27842499D01*
X8089622Y27830838D02*
X8101285Y27842499D01*
X8124611D01*
X8136274Y27830838D01*
Y27784186D01*
X8124611Y27772522D01*
X8101285D01*
X8089622Y27784186D01*
Y27795847D01*
X8101285Y27807510D01*
X8136274D01*
X8159600Y27784186D02*
X8171263Y27772522D01*
X8194588D01*
X8206251Y27784186D01*
Y27795847D01*
X8194588Y27807510D01*
X8206251Y27819174D01*
Y27830838D01*
X8194588Y27842499D01*
X8171263D01*
X8159600Y27830838D01*
Y27819174D01*
X8171263Y27807510D01*
X8159600Y27795847D01*
Y27784186D01*
X8171263Y27807510D02*
X8194588D01*
X32079999Y26217499D02*
Y26147522D01*
X32114990D01*
X32126651Y26159186D01*
Y26182510D01*
X32114990Y26194174D01*
X32079999D01*
X32103326D02*
X32126651Y26217499D01*
X32149979Y26205838D02*
X32161642Y26217499D01*
X32184967D01*
X32196628Y26205838D01*
Y26159186D01*
X32184967Y26147522D01*
X32161642D01*
X32149979Y26159186D01*
Y26170847D01*
X32161642Y26182510D01*
X32196628D01*
X32266608Y26147522D02*
X32243280Y26159186D01*
X32219955Y26182510D01*
Y26205838D01*
X32231619Y26217499D01*
X32254944D01*
X32266608Y26205838D01*
Y26194174D01*
X32254944Y26182510D01*
X32219955D01*
X30075000Y26214999D02*
Y26145023D01*
X30109988D01*
X30121652Y26156686D01*
Y26180011D01*
X30109988Y26191675D01*
X30075000D01*
X30098325D02*
X30121652Y26214999D01*
X30144977Y26203336D02*
X30156641Y26214999D01*
X30179965D01*
X30191629Y26203336D01*
Y26156686D01*
X30179965Y26145023D01*
X30156641D01*
X30144977Y26156686D01*
Y26168347D01*
X30156641Y26180011D01*
X30191629D01*
X30261606Y26145023D02*
X30214954D01*
Y26180011D01*
X30238281Y26168347D01*
X30249945D01*
X30261606Y26180011D01*
Y26203336D01*
X30249945Y26214999D01*
X30226617D01*
X30214954Y26203336D01*
X28082501Y26210001D02*
Y26140021D01*
X28117490D01*
X28129153Y26151685D01*
Y26175012D01*
X28117490Y26186673D01*
X28082501D01*
X28105826D02*
X28129153Y26210001D01*
X28152478Y26198337D02*
X28164142Y26210001D01*
X28187466D01*
X28199130Y26198337D01*
Y26151685D01*
X28187466Y26140021D01*
X28164142D01*
X28152478Y26151685D01*
Y26163348D01*
X28164142Y26175012D01*
X28199130D01*
X28257443Y26210001D02*
Y26140021D01*
X28222455Y26175012D01*
X28269107D01*
X26085001Y26210001D02*
Y26140021D01*
X26119989D01*
X26131653Y26151685D01*
Y26175012D01*
X26119989Y26186673D01*
X26085001D01*
X26108325D02*
X26131653Y26210001D01*
X26154977Y26198337D02*
X26166641Y26210001D01*
X26189966D01*
X26201630Y26198337D01*
Y26151685D01*
X26189966Y26140021D01*
X26166641D01*
X26154977Y26151685D01*
Y26163348D01*
X26166641Y26175012D01*
X26201630D01*
X26224954Y26151685D02*
X26236618Y26140021D01*
X26259943D01*
X26271606Y26151685D01*
Y26163348D01*
X26259943Y26175012D01*
X26248282D01*
X26259943D01*
X26271606Y26186673D01*
Y26198337D01*
X26259943Y26210001D01*
X26236618D01*
X26224954Y26198337D01*
X6447500Y26252499D02*
Y26322479D01*
X6412511D01*
X6400849Y26310815D01*
Y26287488D01*
X6412511Y26275827D01*
X6447500D01*
X6424174D02*
X6400849Y26252499D01*
X6377523Y26264163D02*
X6365860Y26252499D01*
X6342534D01*
X6330871Y26264163D01*
Y26310815D01*
X6342534Y26322479D01*
X6365860D01*
X6377523Y26310815D01*
Y26299152D01*
X6365860Y26287488D01*
X6330871D01*
X6260893Y26252499D02*
X6307545D01*
X6260893Y26299152D01*
Y26310815D01*
X6272556Y26322479D01*
X6295882D01*
X6307545Y26310815D01*
X6110000Y26254999D02*
Y26324979D01*
X6075011D01*
X6063349Y26313315D01*
Y26289990D01*
X6075011Y26278326D01*
X6110000D01*
X6086674D02*
X6063349Y26254999D01*
X6040023Y26266663D02*
X6028360Y26254999D01*
X6005034D01*
X5993371Y26266663D01*
Y26313315D01*
X6005034Y26324979D01*
X6028360D01*
X6040023Y26313315D01*
Y26301651D01*
X6028360Y26289990D01*
X5993371D01*
X5970045Y26254999D02*
X5946719D01*
X5958382D01*
Y26324979D01*
X5970045Y26313315D01*
X6345000Y26700000D02*
X6275023D01*
Y26665012D01*
X6286685Y26653348D01*
X6310011D01*
X6321674Y26665012D01*
Y26700000D01*
Y26676675D02*
X6345000Y26653348D01*
X6333337Y26630023D02*
X6345000Y26618359D01*
Y26595035D01*
X6333337Y26583371D01*
X6286685D01*
X6275023Y26595035D01*
Y26618359D01*
X6286685Y26630023D01*
X6298348D01*
X6310011Y26618359D01*
Y26583371D01*
X6286685Y26560046D02*
X6275023Y26548383D01*
Y26525055D01*
X6286685Y26513394D01*
X6333337D01*
X6345000Y26525055D01*
Y26548383D01*
X6333337Y26560046D01*
X6286685D01*
X26510001Y29572501D02*
Y29502521D01*
X26544989D01*
X26556653Y29514185D01*
Y29537512D01*
X26544989Y29549173D01*
X26510001D01*
X26533325D02*
X26556653Y29572501D01*
X26579977Y29514185D02*
X26591641Y29502521D01*
X26614966D01*
X26626630Y29514185D01*
Y29525848D01*
X26614966Y29537512D01*
X26626630Y29549173D01*
Y29560837D01*
X26614966Y29572501D01*
X26591641D01*
X26579977Y29560837D01*
Y29549173D01*
X26591641Y29537512D01*
X26579977Y29525848D01*
Y29514185D01*
X26591641Y29537512D02*
X26614966D01*
X26649954Y29514185D02*
X26661618Y29502521D01*
X26684943D01*
X26696606Y29514185D01*
Y29525848D01*
X26684943Y29537512D01*
X26696606Y29549173D01*
Y29560837D01*
X26684943Y29572501D01*
X26661618D01*
X26649954Y29560837D01*
Y29549173D01*
X26661618Y29537512D01*
X26649954Y29525848D01*
Y29514185D01*
X26661618Y29537512D02*
X26684943D01*
X30050015Y27839999D02*
X29980038D01*
Y27805011D01*
X29991702Y27793347D01*
X30015027D01*
X30026691Y27805011D01*
Y27839999D01*
Y27816675D02*
X30050015Y27793347D01*
X29991702Y27770023D02*
X29980038Y27758359D01*
Y27735034D01*
X29991702Y27723370D01*
X30003366D01*
X30015027Y27735034D01*
X30026691Y27723370D01*
X30038354D01*
X30050015Y27735034D01*
Y27758359D01*
X30038354Y27770023D01*
X30026691D01*
X30015027Y27758359D01*
X30003366Y27770023D01*
X29991702D01*
X30015027Y27758359D02*
Y27735034D01*
X29980038Y27700046D02*
Y27653394D01*
X29991702D01*
X30038354Y27700046D01*
X30050015D01*
X29652499Y26997501D02*
X29582523D01*
Y26962512D01*
X29594186Y26950848D01*
X29617511D01*
X29629175Y26962512D01*
Y26997501D01*
Y26974173D02*
X29652499Y26950848D01*
X29594186Y26927521D02*
X29582523Y26915860D01*
Y26892535D01*
X29594186Y26880872D01*
X29605847D01*
X29617511Y26892535D01*
X29629175Y26880872D01*
X29640836D01*
X29652499Y26892535D01*
Y26915860D01*
X29640836Y26927521D01*
X29629175D01*
X29617511Y26915860D01*
X29605847Y26927521D01*
X29594186D01*
X29617511Y26915860D02*
Y26892535D01*
X29582523Y26810892D02*
X29594186Y26834219D01*
X29617511Y26857544D01*
X29640836D01*
X29652499Y26845883D01*
Y26822556D01*
X29640836Y26810892D01*
X29629175D01*
X29617511Y26822556D01*
Y26857544D01*
X32347501Y26312500D02*
X32417477D01*
Y26347488D01*
X32405814Y26359152D01*
X32382489D01*
X32370825Y26347488D01*
Y26312500D01*
Y26335825D02*
X32347501Y26359152D01*
X32405814Y26382477D02*
X32417477Y26394141D01*
Y26417465D01*
X32405814Y26429129D01*
X32394153D01*
X32382489Y26417465D01*
X32370825Y26429129D01*
X32359164D01*
X32347501Y26417465D01*
Y26394141D01*
X32359164Y26382477D01*
X32370825D01*
X32382489Y26394141D01*
X32394153Y26382477D01*
X32405814D01*
X32382489Y26394141D02*
Y26417465D01*
X32405814Y26452454D02*
X32417477Y26464117D01*
Y26487445D01*
X32405814Y26499106D01*
X32394153D01*
X32382489Y26487445D01*
Y26475781D01*
Y26487445D01*
X32370825Y26499106D01*
X32359164D01*
X32347501Y26487445D01*
Y26464117D01*
X32359164Y26452454D01*
X30345001Y26312500D02*
X30414978D01*
Y26347488D01*
X30403314Y26359152D01*
X30379990D01*
X30368326Y26347488D01*
Y26312500D01*
Y26335825D02*
X30345001Y26359152D01*
X30403314Y26382477D02*
X30414978Y26394141D01*
Y26417465D01*
X30403314Y26429129D01*
X30391653D01*
X30379990Y26417465D01*
X30368326Y26429129D01*
X30356662D01*
X30345001Y26417465D01*
Y26394141D01*
X30356662Y26382477D01*
X30368326D01*
X30379990Y26394141D01*
X30391653Y26382477D01*
X30403314D01*
X30379990Y26394141D02*
Y26417465D01*
X30345001Y26499106D02*
Y26452454D01*
X30391653Y26499106D01*
X30403314D01*
X30414978Y26487445D01*
Y26464117D01*
X30403314Y26452454D01*
X28347501Y26312500D02*
X28417477D01*
Y26347488D01*
X28405814Y26359152D01*
X28382489D01*
X28370825Y26347488D01*
Y26312500D01*
Y26335825D02*
X28347501Y26359152D01*
X28405814Y26382477D02*
X28417477Y26394141D01*
Y26417465D01*
X28405814Y26429129D01*
X28394153D01*
X28382489Y26417465D01*
X28370825Y26429129D01*
X28359164D01*
X28347501Y26417465D01*
Y26394141D01*
X28359164Y26382477D01*
X28370825D01*
X28382489Y26394141D01*
X28394153Y26382477D01*
X28405814D01*
X28382489Y26394141D02*
Y26417465D01*
X28347501Y26452454D02*
Y26475781D01*
Y26464117D01*
X28417477D01*
X28405814Y26452454D01*
X26347501Y26312500D02*
X26417477D01*
Y26347488D01*
X26405814Y26359152D01*
X26382489D01*
X26370825Y26347488D01*
Y26312500D01*
Y26335825D02*
X26347501Y26359152D01*
X26405814Y26382477D02*
X26417477Y26394141D01*
Y26417465D01*
X26405814Y26429129D01*
X26394153D01*
X26382489Y26417465D01*
X26370825Y26429129D01*
X26359164D01*
X26347501Y26417465D01*
Y26394141D01*
X26359164Y26382477D01*
X26370825D01*
X26382489Y26394141D01*
X26394153Y26382477D01*
X26405814D01*
X26382489Y26394141D02*
Y26417465D01*
X26405814Y26452454D02*
X26417477Y26464117D01*
Y26487445D01*
X26405814Y26499106D01*
X26359164D01*
X26347501Y26487445D01*
Y26464117D01*
X26359164Y26452454D01*
X26405814D01*
X15035001Y3142500D02*
X15104977D01*
Y3177489D01*
X15093314Y3189152D01*
X15069989D01*
X15058327Y3177489D01*
Y3142500D01*
Y3165826D02*
X15035001Y3189152D01*
X15104977Y3212477D02*
Y3259129D01*
X15093314D01*
X15046663Y3212477D01*
X15035001D01*
X15104977Y3282455D02*
Y3329107D01*
X15093314D01*
X15046663Y3282455D01*
X15035001D01*
X21277499Y3692500D02*
X21347478D01*
Y3727489D01*
X21335815Y3739152D01*
X21312489D01*
X21300826Y3727489D01*
Y3692500D01*
Y3715826D02*
X21277499Y3739152D01*
X21347478Y3762478D02*
Y3809129D01*
X21335815D01*
X21289163Y3762478D01*
X21277499D01*
X21335815Y3832455D02*
X21347478Y3844118D01*
Y3867444D01*
X21335815Y3879107D01*
X21289163D01*
X21277499Y3867444D01*
Y3844118D01*
X21289163Y3832455D01*
X21335815D01*
X11807500Y3787500D02*
Y3717522D01*
X11842489D01*
X11854152Y3729185D01*
Y3752511D01*
X11842489Y3764174D01*
X11807500D01*
X11830826D02*
X11854152Y3787500D01*
X11924129Y3717522D02*
X11900803Y3729185D01*
X11877477Y3752511D01*
Y3775837D01*
X11889140Y3787500D01*
X11912466D01*
X11924129Y3775837D01*
Y3764174D01*
X11912466Y3752511D01*
X11877477D01*
X11994107Y3717522D02*
X11970781Y3729185D01*
X11947455Y3752511D01*
Y3775837D01*
X11959118Y3787500D01*
X11982444D01*
X11994107Y3775837D01*
Y3764174D01*
X11982444Y3752511D01*
X11947455D01*
X19595000Y2240000D02*
X19664977D01*
Y2274989D01*
X19653314Y2286652D01*
X19629988D01*
X19618324Y2274989D01*
Y2240000D01*
Y2263326D02*
X19595000Y2286652D01*
X19664977Y2356629D02*
X19653314Y2333303D01*
X19629988Y2309978D01*
X19606662D01*
X19595000Y2321641D01*
Y2344966D01*
X19606662Y2356629D01*
X19618324D01*
X19629988Y2344966D01*
Y2309978D01*
X19653314Y2379955D02*
X19664977Y2391618D01*
Y2414944D01*
X19653314Y2426607D01*
X19641650D01*
X19629988Y2414944D01*
Y2403281D01*
Y2414944D01*
X19618324Y2426607D01*
X19606662D01*
X19595000Y2414944D01*
Y2391618D01*
X19606662Y2379955D01*
X19687500Y3087500D02*
Y3017522D01*
X19722488D01*
X19734152Y3029185D01*
Y3052511D01*
X19722488Y3064174D01*
X19687500D01*
X19710826D02*
X19734152Y3087500D01*
X19804129Y3017522D02*
X19780803Y3029185D01*
X19757477Y3052511D01*
Y3075837D01*
X19769141Y3087500D01*
X19792467D01*
X19804129Y3075837D01*
Y3064174D01*
X19792467Y3052511D01*
X19757477D01*
X19874107Y3087500D02*
X19827455D01*
X19874107Y3040848D01*
Y3029185D01*
X19862444Y3017522D01*
X19839117D01*
X19827455Y3029185D01*
X21795000Y3780000D02*
Y3849978D01*
X21760011D01*
X21748347Y3838315D01*
Y3814989D01*
X21760011Y3803326D01*
X21795000D01*
X21771674D02*
X21748347Y3780000D01*
X21678371Y3849978D02*
X21725023D01*
Y3814989D01*
X21701697Y3826652D01*
X21690034D01*
X21678371Y3814989D01*
Y3791663D01*
X21690034Y3780000D01*
X21713361D01*
X21725023Y3791663D01*
X21608392Y3849978D02*
X21631718Y3838315D01*
X21655045Y3814989D01*
Y3791663D01*
X21643382Y3780000D01*
X21620056D01*
X21608392Y3791663D01*
Y3803326D01*
X21620056Y3814989D01*
X21655045D01*
X19822501Y3780000D02*
Y3710023D01*
X19857489D01*
X19869151Y3721685D01*
Y3745011D01*
X19857489Y3756674D01*
X19822501D01*
X19845827D02*
X19869151Y3780000D01*
X19939130Y3710023D02*
X19892477D01*
Y3745011D01*
X19915804Y3733348D01*
X19927466D01*
X19939130Y3745011D01*
Y3768337D01*
X19927466Y3780000D01*
X19904141D01*
X19892477Y3768337D01*
X20009106Y3710023D02*
X19962456D01*
Y3745011D01*
X19985780Y3733348D01*
X19997444D01*
X20009106Y3745011D01*
Y3768337D01*
X19997444Y3780000D01*
X19974118D01*
X19962456Y3768337D01*
X17822501Y3780000D02*
Y3710023D01*
X17857489D01*
X17869151Y3721685D01*
Y3745011D01*
X17857489Y3756674D01*
X17822501D01*
X17845827D02*
X17869151Y3780000D01*
X17939130Y3710023D02*
X17892477D01*
Y3745011D01*
X17915804Y3733348D01*
X17927466D01*
X17939130Y3745011D01*
Y3768337D01*
X17927466Y3780000D01*
X17904140D01*
X17892477Y3768337D01*
X17997444Y3780000D02*
Y3710023D01*
X17962456Y3745011D01*
X18009106D01*
X23820000Y3785000D02*
Y3715023D01*
X23854990D01*
X23866652Y3726685D01*
Y3750011D01*
X23854990Y3761674D01*
X23820000D01*
X23843326D02*
X23866652Y3785000D01*
X23936629Y3715023D02*
X23889978D01*
Y3750011D01*
X23913303Y3738348D01*
X23924966D01*
X23936629Y3750011D01*
Y3773337D01*
X23924966Y3785000D01*
X23901640D01*
X23889978Y3773337D01*
X23959955Y3726685D02*
X23971619Y3715023D01*
X23994943D01*
X24006607Y3726685D01*
Y3738348D01*
X23994943Y3750011D01*
X23983281D01*
X23994943D01*
X24006607Y3761674D01*
Y3773337D01*
X23994943Y3785000D01*
X23971619D01*
X23959955Y3773337D01*
X6452500Y1802500D02*
Y1872478D01*
X6417511D01*
X6405848Y1860815D01*
Y1837489D01*
X6417511Y1825826D01*
X6452500D01*
X6429174D02*
X6405848Y1802500D01*
X6335871Y1872478D02*
X6382522D01*
Y1837489D01*
X6359197Y1849152D01*
X6347534D01*
X6335871Y1837489D01*
Y1814163D01*
X6347534Y1802500D01*
X6370859D01*
X6382522Y1814163D01*
X6265893Y1802500D02*
X6312545D01*
X6265893Y1849152D01*
Y1860815D01*
X6277556Y1872478D01*
X6300882D01*
X6312545Y1860815D01*
X6455000Y1610000D02*
Y1679978D01*
X6420011D01*
X6408348Y1668315D01*
Y1644989D01*
X6420011Y1633326D01*
X6455000D01*
X6431674D02*
X6408348Y1610000D01*
X6338371Y1679978D02*
X6385022D01*
Y1644989D01*
X6361696Y1656652D01*
X6350034D01*
X6338371Y1644989D01*
Y1621663D01*
X6350034Y1610000D01*
X6373359D01*
X6385022Y1621663D01*
X6315045Y1610000D02*
X6291719D01*
X6303382D01*
Y1679978D01*
X6315045Y1668315D01*
X4447500Y26242484D02*
Y26312460D01*
X4412511D01*
X4400848Y26300797D01*
Y26277472D01*
X4412511Y26265811D01*
X4447500D01*
X4424174D02*
X4400848Y26242484D01*
X4330871Y26312460D02*
X4377523D01*
Y26277472D01*
X4354197Y26289136D01*
X4342534D01*
X4330871Y26277472D01*
Y26254147D01*
X4342534Y26242484D01*
X4365860D01*
X4377523Y26254147D01*
X4307545Y26300797D02*
X4295882Y26312460D01*
X4272556D01*
X4260893Y26300797D01*
Y26254147D01*
X4272556Y26242484D01*
X4295882D01*
X4307545Y26254147D01*
Y26300797D01*
X31839999Y3780000D02*
Y3849978D01*
X31805011D01*
X31793347Y3838315D01*
Y3814989D01*
X31805011Y3803326D01*
X31839999D01*
X31816675D02*
X31793347Y3780000D01*
X31735034D02*
Y3849978D01*
X31770023Y3814989D01*
X31723370D01*
X31700046Y3791663D02*
X31688382Y3780000D01*
X31665057D01*
X31653394Y3791663D01*
Y3838315D01*
X31665057Y3849978D01*
X31688382D01*
X31700046Y3838315D01*
Y3826652D01*
X31688382Y3814989D01*
X31653394D01*
X29829999Y3780000D02*
Y3849978D01*
X29795010D01*
X29783347Y3838315D01*
Y3814989D01*
X29795010Y3803326D01*
X29829999D01*
X29806674D02*
X29783347Y3780000D01*
X29725034D02*
Y3849978D01*
X29760022Y3814989D01*
X29713370D01*
X29690045Y3838315D02*
X29678381Y3849978D01*
X29655057D01*
X29643393Y3838315D01*
Y3826652D01*
X29655057Y3814989D01*
X29643393Y3803326D01*
Y3791663D01*
X29655057Y3780000D01*
X29678381D01*
X29690045Y3791663D01*
Y3803326D01*
X29678381Y3814989D01*
X29690045Y3826652D01*
Y3838315D01*
X29678381Y3814989D02*
X29655057D01*
X27820001Y3780000D02*
Y3849978D01*
X27785010D01*
X27773349Y3838315D01*
Y3814989D01*
X27785010Y3803326D01*
X27820001D01*
X27796674D02*
X27773349Y3780000D01*
X27715033D02*
Y3849978D01*
X27750021Y3814989D01*
X27703372D01*
X27680045Y3849978D02*
X27633392D01*
Y3838315D01*
X27680045Y3791663D01*
Y3780000D01*
X25812500D02*
Y3849978D01*
X25777512D01*
X25765848Y3838315D01*
Y3814989D01*
X25777512Y3803326D01*
X25812500D01*
X25789175D02*
X25765848Y3780000D01*
X25707535D02*
Y3849978D01*
X25742523Y3814989D01*
X25695871D01*
X25625894Y3849978D02*
X25649219Y3838315D01*
X25672546Y3814989D01*
Y3791663D01*
X25660883Y3780000D01*
X25637555D01*
X25625894Y3791663D01*
Y3803326D01*
X25637555Y3814989D01*
X25672546D01*
X27595001Y2390000D02*
X27664978D01*
Y2424989D01*
X27653314Y2436651D01*
X27629990D01*
X27618326Y2424989D01*
Y2390000D01*
Y2413326D02*
X27595001Y2436651D01*
Y2494966D02*
X27664978D01*
X27629990Y2459977D01*
Y2506629D01*
X27653314Y2529955D02*
X27664978Y2541618D01*
Y2564944D01*
X27653314Y2576606D01*
X27641653D01*
X27629990Y2564944D01*
Y2553281D01*
Y2564944D01*
X27618326Y2576606D01*
X27606662D01*
X27595001Y2564944D01*
Y2541618D01*
X27606662Y2529955D01*
X6850000Y3910000D02*
X6919978D01*
Y3944989D01*
X6908315Y3956652D01*
X6884989D01*
X6873326Y3944989D01*
Y3910000D01*
Y3933326D02*
X6850000Y3956652D01*
Y4014966D02*
X6919978D01*
X6884989Y3979978D01*
Y4026629D01*
X6850000Y4049955D02*
Y4073281D01*
Y4061618D01*
X6919978D01*
X6908315Y4049955D01*
X4107500Y26242484D02*
Y26312460D01*
X4072511D01*
X4060848Y26300797D01*
Y26277472D01*
X4072511Y26265811D01*
X4107500D01*
X4084174D02*
X4060848Y26242484D01*
X4037523Y26300797D02*
X4025860Y26312460D01*
X4002534D01*
X3990871Y26300797D01*
Y26289136D01*
X4002534Y26277472D01*
X4014197D01*
X4002534D01*
X3990871Y26265811D01*
Y26254147D01*
X4002534Y26242484D01*
X4025860D01*
X4037523Y26254147D01*
X3967545Y26300797D02*
X3955882Y26312460D01*
X3932556D01*
X3920893Y26300797D01*
Y26289136D01*
X3932556Y26277472D01*
X3920893Y26265811D01*
Y26254147D01*
X3932556Y26242484D01*
X3955882D01*
X3967545Y26254147D01*
Y26265811D01*
X3955882Y26277472D01*
X3967545Y26289136D01*
Y26300797D01*
X3955882Y26277472D02*
X3932556D01*
X4347500Y26672501D02*
X4277523D01*
Y26637512D01*
X4289185Y26625848D01*
X4312511D01*
X4324174Y26637512D01*
Y26672501D01*
Y26649173D02*
X4347500Y26625848D01*
X4289185Y26602524D02*
X4277523Y26590860D01*
Y26567535D01*
X4289185Y26555872D01*
X4300848D01*
X4312511Y26567535D01*
Y26579196D01*
Y26567535D01*
X4324174Y26555872D01*
X4335837D01*
X4347500Y26567535D01*
Y26590860D01*
X4335837Y26602524D01*
X4277523Y26532544D02*
Y26485892D01*
X4289185D01*
X4335837Y26532544D01*
X4347500D01*
X2082500Y26229999D02*
Y26299979D01*
X2047511D01*
X2035848Y26288315D01*
Y26264990D01*
X2047511Y26253326D01*
X2082500D01*
X2059174D02*
X2035848Y26229999D01*
X2012522Y26288315D02*
X2000859Y26299979D01*
X1977534D01*
X1965871Y26288315D01*
Y26276651D01*
X1977534Y26264990D01*
X1989196D01*
X1977534D01*
X1965871Y26253326D01*
Y26241663D01*
X1977534Y26229999D01*
X2000859D01*
X2012522Y26241663D01*
X1942545Y26229999D02*
X1919219D01*
X1930882D01*
Y26299979D01*
X1942545Y26288315D01*
X13480000Y3387500D02*
X13549977D01*
Y3422489D01*
X13538315Y3434152D01*
X13514989D01*
X13503326Y3422489D01*
Y3387500D01*
Y3410826D02*
X13480000Y3434152D01*
Y3504129D02*
Y3457477D01*
X13526653Y3504129D01*
X13538315D01*
X13549977Y3492466D01*
Y3469140D01*
X13538315Y3457477D01*
X13549977Y3574107D02*
X13538315Y3550781D01*
X13514989Y3527455D01*
X13491663D01*
X13480000Y3539118D01*
Y3562444D01*
X13491663Y3574107D01*
X13503326D01*
X13514989Y3562444D01*
Y3527455D01*
X13822501Y3767500D02*
Y3697522D01*
X13857489D01*
X13869151Y3709185D01*
Y3732511D01*
X13857489Y3744174D01*
X13822501D01*
X13845827D02*
X13869151Y3767500D01*
X13939130D02*
X13892477D01*
X13939130Y3720848D01*
Y3709185D01*
X13927466Y3697522D01*
X13904140D01*
X13892477Y3709185D01*
X14009106Y3697522D02*
X13962456D01*
Y3732511D01*
X13985780Y3720848D01*
X13997444D01*
X14009106Y3732511D01*
Y3755837D01*
X13997444Y3767500D01*
X13974118D01*
X13962456Y3755837D01*
X9275000Y3692500D02*
X9344978D01*
Y3727489D01*
X9333315Y3739152D01*
X9309989D01*
X9298326Y3727489D01*
Y3692500D01*
Y3715826D02*
X9275000Y3739152D01*
Y3809129D02*
Y3762478D01*
X9321652Y3809129D01*
X9333315D01*
X9344978Y3797466D01*
Y3774141D01*
X9333315Y3762478D01*
X9275000Y3867444D02*
X9344978D01*
X9309989Y3832455D01*
Y3879107D01*
X9807500Y3795000D02*
Y3725023D01*
X9842489D01*
X9854152Y3736685D01*
Y3760011D01*
X9842489Y3771674D01*
X9807500D01*
X9830826D02*
X9854152Y3795000D01*
X9924129D02*
X9877478D01*
X9924129Y3748348D01*
Y3736685D01*
X9912466Y3725023D01*
X9889140D01*
X9877478Y3736685D01*
X9947455D02*
X9959118Y3725023D01*
X9982444D01*
X9994107Y3736685D01*
Y3748348D01*
X9982444Y3760011D01*
X9970781D01*
X9982444D01*
X9994107Y3771674D01*
Y3783337D01*
X9982444Y3795000D01*
X9959118D01*
X9947455Y3783337D01*
X1275000Y3710000D02*
X1344977D01*
Y3744989D01*
X1333315Y3756652D01*
X1309989D01*
X1298326Y3744989D01*
Y3710000D01*
Y3733326D02*
X1275000Y3756652D01*
Y3826629D02*
Y3779977D01*
X1321652Y3826629D01*
X1333315D01*
X1344977Y3814966D01*
Y3791640D01*
X1333315Y3779977D01*
X1275000Y3849955D02*
Y3873281D01*
Y3861618D01*
X1344977D01*
X1333315Y3849955D01*
X1625000Y3590000D02*
Y3520022D01*
X1659989D01*
X1671652Y3531685D01*
Y3555011D01*
X1659989Y3566674D01*
X1625000D01*
X1648326D02*
X1671652Y3590000D01*
X1741629D02*
X1694978D01*
X1741629Y3543348D01*
Y3531685D01*
X1729966Y3520022D01*
X1706640D01*
X1694978Y3531685D01*
X1764955D02*
X1776618Y3520022D01*
X1799944D01*
X1811607Y3531685D01*
Y3578337D01*
X1799944Y3590000D01*
X1776618D01*
X1764955Y3578337D01*
Y3531685D01*
X1525000Y3210000D02*
X1594978D01*
Y3244989D01*
X1583315Y3256652D01*
X1559989D01*
X1548326Y3244989D01*
Y3210000D01*
Y3233326D02*
X1525000Y3256652D01*
Y3279977D02*
Y3303303D01*
Y3291640D01*
X1594978D01*
X1583315Y3279977D01*
X1536663Y3338292D02*
X1525000Y3349955D01*
Y3373281D01*
X1536663Y3384944D01*
X1583315D01*
X1594978Y3373281D01*
Y3349955D01*
X1583315Y3338292D01*
X1571652D01*
X1559989Y3349955D01*
Y3384944D01*
X9492500Y3200000D02*
X9562477D01*
Y3234989D01*
X9550815Y3246652D01*
X9527489D01*
X9515826Y3234989D01*
Y3200000D01*
Y3223326D02*
X9492500Y3246652D01*
X9562477Y3269977D02*
Y3316629D01*
X9550815D01*
X9504163Y3269977D01*
X9492500D01*
X5277500Y3705000D02*
X5347477D01*
Y3739989D01*
X5335815Y3751652D01*
X5312489D01*
X5300826Y3739989D01*
Y3705000D01*
Y3728326D02*
X5277500Y3751652D01*
X5347477Y3821629D02*
X5335815Y3798303D01*
X5312489Y3774977D01*
X5289163D01*
X5277500Y3786640D01*
Y3809966D01*
X5289163Y3821629D01*
X5300826D01*
X5312489Y3809966D01*
Y3774977D01*
X3272500Y3687500D02*
X3342477D01*
Y3722489D01*
X3330815Y3734152D01*
X3307489D01*
X3295826Y3722489D01*
Y3687500D01*
Y3710826D02*
X3272500Y3734152D01*
X3330815Y3757478D02*
X3342477Y3769141D01*
Y3792466D01*
X3330815Y3804129D01*
X3319152D01*
X3307489Y3792466D01*
Y3780803D01*
Y3792466D01*
X3295826Y3804129D01*
X3284163D01*
X3272500Y3792466D01*
Y3769141D01*
X3284163Y3757478D01*
X3715000Y3337500D02*
X3784977D01*
Y3372489D01*
X3773315Y3384152D01*
X3749989D01*
X3738326Y3372489D01*
Y3337500D01*
Y3360826D02*
X3715000Y3384152D01*
Y3407478D02*
Y3430803D01*
Y3419140D01*
X3784977D01*
X3773315Y3407478D01*
X5427500Y29079999D02*
Y29149979D01*
X5392511D01*
X5380848Y29138315D01*
Y29114990D01*
X5392511Y29103326D01*
X5427500D01*
X5404174D02*
X5380848Y29079999D01*
X5357522Y29138315D02*
X5345860Y29149979D01*
X5322534D01*
X5310871Y29138315D01*
Y29126651D01*
X5322534Y29114990D01*
X5334197D01*
X5322534D01*
X5310871Y29103326D01*
Y29091663D01*
X5322534Y29079999D01*
X5345860D01*
X5357522Y29091663D01*
X5240893Y29149979D02*
X5264219Y29138315D01*
X5287545Y29114990D01*
Y29091663D01*
X5275882Y29079999D01*
X5252556D01*
X5240893Y29091663D01*
Y29103326D01*
X5252556Y29114990D01*
X5287545D01*
X39370001Y8767500D02*
X39300021D01*
Y8732511D01*
X39311685Y8720848D01*
X39335010D01*
X39346674Y8732511D01*
Y8767500D01*
Y8744174D02*
X39370001Y8720848D01*
Y8697522D02*
Y8674197D01*
Y8685859D01*
X39300021D01*
X39311685Y8697522D01*
Y8639208D02*
X39300021Y8627545D01*
Y8604219D01*
X39311685Y8592556D01*
X39323349D01*
X39335010Y8604219D01*
Y8615882D01*
Y8604219D01*
X39346674Y8592556D01*
X39358337D01*
X39370001Y8604219D01*
Y8627545D01*
X39358337Y8639208D01*
X39311685Y8569230D02*
X39300021Y8557567D01*
Y8534242D01*
X39311685Y8522579D01*
X39358337D01*
X39370001Y8534242D01*
Y8557567D01*
X39358337Y8569230D01*
X39311685D01*
X30087500Y2057500D02*
X30157477D01*
Y2092489D01*
X30145813Y2104152D01*
X30122488D01*
X30110825Y2092489D01*
Y2057500D01*
Y2080826D02*
X30087500Y2104152D01*
Y2162466D02*
X30157477D01*
X30122488Y2127478D01*
Y2174129D01*
X30157477Y2244107D02*
Y2197455D01*
X30122488D01*
X30134152Y2220781D01*
Y2232444D01*
X30122488Y2244107D01*
X30099164D01*
X30087500Y2232444D01*
Y2209118D01*
X30099164Y2197455D01*
X22535022Y472500D02*
X22581674D01*
X22605000Y449174D01*
X22581674Y425848D01*
X22535022D01*
Y402522D02*
X22605000D01*
Y367534D01*
X22593336Y355871D01*
X22546684D01*
X22535022Y367534D01*
Y402522D01*
X22605000Y285893D02*
Y332545D01*
X22558348Y285893D01*
X22546684D01*
X22535022Y297556D01*
Y320882D01*
X22546684Y332545D01*
X22535022Y262567D02*
Y215916D01*
X22546684D01*
X22593336Y262567D01*
X22605000D01*
X6450848Y1438315D02*
X6462511Y1449978D01*
X6485837D01*
X6497500Y1438315D01*
Y1391663D01*
X6485837Y1380000D01*
X6462511D01*
X6450848Y1391663D01*
X6427523Y1438315D02*
X6415860Y1449978D01*
X6392534D01*
X6380871Y1438315D01*
Y1426652D01*
X6392534Y1414989D01*
X6404197D01*
X6392534D01*
X6380871Y1403326D01*
Y1391663D01*
X6392534Y1380000D01*
X6415860D01*
X6427523Y1391663D01*
X6357545Y1380000D02*
X6334219D01*
X6345882D01*
Y1449978D01*
X6357545Y1438315D01*
X1057500Y12442500D02*
X1127477D01*
Y12477488D01*
X1115814Y12489151D01*
X1092488D01*
X1080825Y12477488D01*
Y12442500D01*
Y12465825D02*
X1057500Y12489151D01*
Y12512477D02*
Y12535803D01*
Y12524140D01*
X1127477D01*
X1115814Y12512477D01*
Y12570792D02*
X1127477Y12582455D01*
Y12605780D01*
X1115814Y12617443D01*
X1104151D01*
X1092488Y12605780D01*
Y12594118D01*
Y12605780D01*
X1080825Y12617443D01*
X1069162D01*
X1057500Y12605780D01*
Y12582455D01*
X1069162Y12570792D01*
X1115814Y12640769D02*
X1127477Y12652432D01*
Y12675758D01*
X1115814Y12687421D01*
X1104151D01*
X1092488Y12675758D01*
Y12664095D01*
Y12675758D01*
X1080825Y12687421D01*
X1069162D01*
X1057500Y12675758D01*
Y12652432D01*
X1069162Y12640769D01*
X794984Y12285000D02*
X864961D01*
Y12319989D01*
X853298Y12331652D01*
X829972D01*
X818310Y12319989D01*
Y12285000D01*
Y12308326D02*
X794984Y12331652D01*
Y12354978D02*
Y12378303D01*
Y12366640D01*
X864961D01*
X853298Y12354978D01*
Y12413292D02*
X864961Y12424955D01*
Y12448281D01*
X853298Y12459944D01*
X841635D01*
X829972Y12448281D01*
Y12436618D01*
Y12448281D01*
X818310Y12459944D01*
X806647D01*
X794984Y12448281D01*
Y12424955D01*
X806647Y12413292D01*
X794984Y12483270D02*
Y12506596D01*
Y12494933D01*
X864961D01*
X853298Y12483270D01*
X3124431Y11307500D02*
X3054453D01*
Y11272512D01*
X3066116Y11260849D01*
X3089442D01*
X3101105Y11272512D01*
Y11307500D01*
Y11284175D02*
X3124431Y11260849D01*
Y11237523D02*
Y11214197D01*
Y11225860D01*
X3054453D01*
X3066116Y11237523D01*
Y11179208D02*
X3054453Y11167545D01*
Y11144220D01*
X3066116Y11132557D01*
X3077779D01*
X3089442Y11144220D01*
Y11155882D01*
Y11144220D01*
X3101105Y11132557D01*
X3112768D01*
X3124431Y11144220D01*
Y11167545D01*
X3112768Y11179208D01*
X3054453Y11062579D02*
Y11109231D01*
X3089442D01*
X3077779Y11085905D01*
Y11074242D01*
X3089442Y11062579D01*
X3112768D01*
X3124431Y11074242D01*
Y11097568D01*
X3112768Y11109231D01*
X1022500Y13787500D02*
X1092478D01*
Y13822488D01*
X1080815Y13834151D01*
X1057489D01*
X1045826Y13822488D01*
Y13787500D01*
Y13810826D02*
X1022500Y13834151D01*
Y13892467D02*
X1092478D01*
X1057489Y13857477D01*
Y13904129D01*
X1080815Y13927455D02*
X1092478Y13939117D01*
Y13962444D01*
X1080815Y13974106D01*
X1034163D01*
X1022500Y13962444D01*
Y13939117D01*
X1034163Y13927455D01*
X1080815D01*
X1025000Y13307500D02*
X1094977D01*
Y13342490D01*
X1083314Y13354152D01*
X1059988D01*
X1048326Y13342490D01*
Y13307500D01*
Y13330826D02*
X1025000Y13354152D01*
X1094977Y13424129D02*
Y13377477D01*
X1059988D01*
X1071651Y13400803D01*
Y13412466D01*
X1059988Y13424129D01*
X1036663D01*
X1025000Y13412466D01*
Y13389140D01*
X1036663Y13377477D01*
Y13447455D02*
X1025000Y13459119D01*
Y13482443D01*
X1036663Y13494107D01*
X1083314D01*
X1094977Y13482443D01*
Y13459119D01*
X1083314Y13447455D01*
X1071651D01*
X1059988Y13459119D01*
Y13494107D01*
X3231931Y11110001D02*
X3301908D01*
Y11144989D01*
X3290245Y11156652D01*
X3266920D01*
X3255257Y11144989D01*
Y11110001D01*
Y11133326D02*
X3231931Y11156652D01*
Y11179978D02*
Y11203304D01*
Y11191641D01*
X3301908D01*
X3290245Y11179978D01*
X3231931Y11273281D02*
X3301908D01*
X3266920Y11238293D01*
Y11284944D01*
X3231931Y11308270D02*
Y11331596D01*
Y11319933D01*
X3301908D01*
X3290245Y11308270D01*
X4294431Y11295001D02*
X4224453D01*
Y11260012D01*
X4236116Y11248349D01*
X4259442D01*
X4271105Y11260012D01*
Y11295001D01*
Y11271675D02*
X4294431Y11248349D01*
Y11225023D02*
Y11201697D01*
Y11213360D01*
X4224453D01*
X4236116Y11225023D01*
Y11166708D02*
X4224453Y11155046D01*
Y11131720D01*
X4236116Y11120057D01*
X4247779D01*
X4259442Y11131720D01*
Y11143383D01*
Y11131720D01*
X4271105Y11120057D01*
X4282768D01*
X4294431Y11131720D01*
Y11155046D01*
X4282768Y11166708D01*
Y11096731D02*
X4294431Y11085068D01*
Y11061742D01*
X4282768Y11050079D01*
X4236116D01*
X4224453Y11061742D01*
Y11085068D01*
X4236116Y11096731D01*
X4247779D01*
X4259442Y11085068D01*
Y11050079D01*
X847500Y12727500D02*
Y12797478D01*
X812511D01*
X800848Y12785815D01*
Y12762489D01*
X812511Y12750826D01*
X847500D01*
X824174D02*
X800848Y12727500D01*
X777522D02*
X754197D01*
X765860D01*
Y12797478D01*
X777522Y12785815D01*
X672556Y12727500D02*
X719208D01*
X672556Y12774152D01*
Y12785815D01*
X684219Y12797478D01*
X707545D01*
X719208Y12785815D01*
X649230Y12739163D02*
X637567Y12727500D01*
X614242D01*
X602579Y12739163D01*
Y12785815D01*
X614242Y12797478D01*
X637567D01*
X649230Y12785815D01*
Y12774152D01*
X637567Y12762489D01*
X602579D01*
X38802499Y10575000D02*
X38732523D01*
Y10540011D01*
X38744186Y10528348D01*
X38767511D01*
X38779172Y10540011D01*
Y10575000D01*
Y10551674D02*
X38802499Y10528348D01*
X38732523Y10505022D02*
Y10458371D01*
X38744186D01*
X38790836Y10505022D01*
X38802499D01*
X38732523Y10388393D02*
Y10435045D01*
X38767511D01*
X38755847Y10411719D01*
Y10400056D01*
X38767511Y10388393D01*
X38790836D01*
X38802499Y10400056D01*
Y10423382D01*
X38790836Y10435045D01*
X37775000Y9425000D02*
Y9494977D01*
X37740012D01*
X37728348Y9483315D01*
Y9459989D01*
X37740012Y9448326D01*
X37775000D01*
X37751675D02*
X37728348Y9425000D01*
X37658371Y9494977D02*
X37705023D01*
Y9459989D01*
X37681696Y9471652D01*
X37670035D01*
X37658371Y9459989D01*
Y9436663D01*
X37670035Y9425000D01*
X37693359D01*
X37705023Y9436663D01*
X37635046Y9483315D02*
X37623383Y9494977D01*
X37600055D01*
X37588394Y9483315D01*
Y9471652D01*
X37600055Y9459989D01*
X37588394Y9448326D01*
Y9436663D01*
X37600055Y9425000D01*
X37623383D01*
X37635046Y9436663D01*
Y9448326D01*
X37623383Y9459989D01*
X37635046Y9471652D01*
Y9483315D01*
X37623383Y9459989D02*
X37600055D01*
X38418713Y9192411D02*
Y9262388D01*
X38383725D01*
X38372061Y9250725D01*
Y9227400D01*
X38383725Y9215737D01*
X38418713D01*
X38395389D02*
X38372061Y9192411D01*
X38302084Y9262388D02*
X38325412Y9250725D01*
X38348737Y9227400D01*
Y9204074D01*
X38337073Y9192411D01*
X38313748D01*
X38302084Y9204074D01*
Y9215737D01*
X38313748Y9227400D01*
X38348737D01*
X38278760Y9192411D02*
X38255432D01*
X38267096D01*
Y9262388D01*
X38278760Y9250725D01*
X38897501Y9190000D02*
Y9259977D01*
X38862512D01*
X38850848Y9248314D01*
Y9224989D01*
X38862512Y9213326D01*
X38897501D01*
X38874173D02*
X38850848Y9190000D01*
X38827521D02*
X38804196D01*
X38815860D01*
Y9259977D01*
X38827521Y9248314D01*
X38722556Y9190000D02*
X38769208D01*
X38722556Y9236652D01*
Y9248314D01*
X38734219Y9259977D01*
X38757544D01*
X38769208Y9248314D01*
X38652579Y9259977D02*
X38675903Y9248314D01*
X38699231Y9224989D01*
Y9201663D01*
X38687567Y9190000D01*
X38664240D01*
X38652579Y9201663D01*
Y9213326D01*
X38664240Y9224989D01*
X38699231D01*
X39552499Y8762500D02*
X39482523D01*
Y8727511D01*
X39494186Y8715848D01*
X39517511D01*
X39529175Y8727511D01*
Y8762500D01*
Y8739174D02*
X39552499Y8715848D01*
Y8692522D02*
Y8669197D01*
Y8680859D01*
X39482523D01*
X39494186Y8692522D01*
Y8634208D02*
X39482523Y8622545D01*
Y8599219D01*
X39494186Y8587556D01*
X39505847D01*
X39517511Y8599219D01*
Y8610882D01*
Y8599219D01*
X39529175Y8587556D01*
X39540836D01*
X39552499Y8599219D01*
Y8622545D01*
X39540836Y8634208D01*
X39552499Y8517579D02*
Y8564230D01*
X39505847Y8517579D01*
X39494186D01*
X39482523Y8529242D01*
Y8552567D01*
X39494186Y8564230D01*
X38092499Y10227500D02*
X38022522D01*
Y10192511D01*
X38034186Y10180848D01*
X38057510D01*
X38069174Y10192511D01*
Y10227500D01*
Y10204174D02*
X38092499Y10180848D01*
Y10157522D02*
Y10134197D01*
Y10145860D01*
X38022522D01*
X38034186Y10157522D01*
Y10099208D02*
X38022522Y10087545D01*
Y10064219D01*
X38034186Y10052556D01*
X38045847D01*
X38057510Y10064219D01*
Y10075882D01*
Y10064219D01*
X38069174Y10052556D01*
X38080835D01*
X38092499Y10064219D01*
Y10087545D01*
X38080835Y10099208D01*
X38034186Y10029230D02*
X38022522Y10017567D01*
Y9994242D01*
X38034186Y9982579D01*
X38045847D01*
X38057510Y9994242D01*
X38069174Y9982579D01*
X38080835D01*
X38092499Y9994242D01*
Y10017567D01*
X38080835Y10029230D01*
X38069174D01*
X38057510Y10017567D01*
X38045847Y10029230D01*
X38034186D01*
X38057510Y10017567D02*
Y9994242D01*
X38554999Y10030000D02*
X38624976D01*
Y10064989D01*
X38613315Y10076652D01*
X38589987D01*
X38578326Y10064989D01*
Y10030000D01*
Y10053326D02*
X38554999Y10076652D01*
Y10099978D02*
Y10123304D01*
Y10111641D01*
X38624976D01*
X38613315Y10099978D01*
Y10158292D02*
X38624976Y10169955D01*
Y10193281D01*
X38613315Y10204944D01*
X38601651D01*
X38589987Y10193281D01*
Y10181618D01*
Y10193281D01*
X38578326Y10204944D01*
X38566663D01*
X38554999Y10193281D01*
Y10169955D01*
X38566663Y10158292D01*
X38624976Y10228270D02*
Y10274922D01*
X38613315D01*
X38566663Y10228270D01*
X38554999D01*
X39252515Y10222500D02*
X39182538D01*
Y10187511D01*
X39194202Y10175848D01*
X39217526D01*
X39229190Y10187511D01*
Y10222500D01*
Y10199174D02*
X39252515Y10175848D01*
Y10152522D02*
Y10129197D01*
Y10140860D01*
X39182538D01*
X39194202Y10152522D01*
X39252515Y10059219D02*
X39182538D01*
X39217526Y10094208D01*
Y10047556D01*
X39194202Y10024230D02*
X39182538Y10012567D01*
Y9989242D01*
X39194202Y9977579D01*
X39240851D01*
X39252515Y9989242D01*
Y10012567D01*
X39240851Y10024230D01*
X39194202D01*
X39279999Y9225000D02*
Y9294978D01*
X39245010D01*
X39233347Y9283315D01*
Y9259989D01*
X39245010Y9248326D01*
X39279999D01*
X39256674D02*
X39233347Y9225000D01*
X39210022D02*
X39186697D01*
X39198358D01*
Y9294978D01*
X39210022Y9283315D01*
X39151709D02*
X39140045Y9294978D01*
X39116718D01*
X39105057Y9283315D01*
Y9271652D01*
X39116718Y9259989D01*
X39128381D01*
X39116718D01*
X39105057Y9248326D01*
Y9236663D01*
X39116718Y9225000D01*
X39140045D01*
X39151709Y9236663D01*
X39035080Y9294978D02*
X39058405Y9283315D01*
X39081729Y9259989D01*
Y9236663D01*
X39070068Y9225000D01*
X39046741D01*
X39035080Y9236663D01*
Y9248326D01*
X39046741Y9259989D01*
X39081729D01*
X41495847Y8005815D02*
X41507510Y8017477D01*
X41530838D01*
X41542499Y8005815D01*
Y7959163D01*
X41530838Y7947500D01*
X41507510D01*
X41495847Y7959163D01*
X41472522Y8005815D02*
X41460858Y8017477D01*
X41437534D01*
X41425870Y8005815D01*
Y7994152D01*
X41437534Y7982489D01*
X41449197D01*
X41437534D01*
X41425870Y7970826D01*
Y7959163D01*
X41437534Y7947500D01*
X41460858D01*
X41472522Y7959163D01*
X41402545Y8005815D02*
X41390881Y8017477D01*
X41367557D01*
X41355893Y8005815D01*
Y7994152D01*
X41367557Y7982489D01*
X41379218D01*
X41367557D01*
X41355893Y7970826D01*
Y7959163D01*
X41367557Y7947500D01*
X41390881D01*
X41402545Y7959163D01*
D130*
X27597977Y2943797D02*
D03*
X27312976Y2943791D02*
D03*
X19123755Y2818783D02*
D03*
X19383760D02*
D03*
X2106239Y2268792D02*
D03*
X2706251Y2271275D02*
D03*
X3006250Y2271274D02*
D03*
X1808729Y2263791D02*
D03*
X11496256Y2301295D02*
D03*
X11193770Y2303799D02*
D03*
X12098758Y2328782D02*
D03*
X11798753Y2328784D02*
D03*
X19511279Y26936221D02*
D03*
X19751270Y26938730D02*
D03*
X30278766Y27281229D02*
D03*
X30051273Y27281226D02*
D03*
X11248773Y27613727D02*
D03*
X12151269Y27613730D02*
D03*
X11876267Y27611234D02*
D03*
X10948763Y27613739D02*
D03*
X1808760Y27613739D02*
D03*
X3008766Y27613736D02*
D03*
X2746266Y27611234D02*
D03*
X2111264Y27613736D02*
D03*
%TF.MD5,dbc2a2627bd216f708cbd928bfb62bfd*%
M02*
