%TF.GenerationSoftware,Altium Limited,Altium Designer,25.3.3 (18)*%
G04 Layer_Color=8388736*
%FSLAX45Y45*%
%MOMM*%
%TF.SameCoordinates,A4CA6E92-6A9D-4088-ADF9-EEBE24E4F9EE*%
%TF.FilePolarity,Positive*%
%TF.FileFunction,Other,Top_3D_Body*%
%TF.Part,Single*%
G01*
G75*
%TA.AperFunction,NonConductor*%
%ADD71C,0.20000*%
%ADD73C,0.10000*%
%ADD128R,2.15000X1.05000*%
%ADD129R,1.05000X2.15000*%
D71*
X4522500Y26597501D02*
X4572500D01*
X4547500Y26572501D02*
Y26622501D01*
X10607500Y3410000D02*
X10657500D01*
X10632500Y3385000D02*
Y3435000D01*
X10335000Y392500D02*
Y442500D01*
X10310000Y417500D02*
X10360000D01*
X3565000Y387500D02*
Y437500D01*
X3540000Y412500D02*
X3590000D01*
X22230000Y527500D02*
X22280000D01*
X22255000Y502500D02*
Y552500D01*
X27389999Y550000D02*
X27439999D01*
X27414999Y525000D02*
Y575000D01*
X15247501Y3217500D02*
X15297501D01*
X15272501Y3192500D02*
Y3242500D01*
X13252499Y3222500D02*
X13302499D01*
X13277499Y3197500D02*
Y3247500D01*
X9250000Y3270000D02*
X9300000D01*
X9275000Y3245000D02*
Y3295000D01*
X7045000Y3432500D02*
X7095000D01*
X7070000Y3407500D02*
Y3457500D01*
X5025000Y3422500D02*
X5075000D01*
X5050000Y3397500D02*
Y3447500D01*
X3460000Y3412500D02*
X3510000D01*
X3485000Y3387500D02*
Y3437500D01*
X1250000Y3285000D02*
X1300000D01*
X1275000Y3260000D02*
Y3310000D01*
X40122501Y7065000D02*
X41307501D01*
X40122501D02*
Y7690000D01*
X41307501D01*
Y7065000D02*
Y7690000D01*
X10095000Y28792499D02*
X10145000D01*
X10120000Y28767499D02*
Y28817499D01*
X3860000Y29075000D02*
X3910000D01*
X3885000Y29050000D02*
Y29100000D01*
X27517499Y29325000D02*
X27567499D01*
X27542499Y29300000D02*
Y29350000D01*
X16545000Y26525000D02*
Y26575000D01*
X16520000Y26550000D02*
X16570000D01*
X14552127Y26522501D02*
Y26572501D01*
X14527127Y26547501D02*
X14577127D01*
X12545000Y26554999D02*
Y26604999D01*
X12520000Y26579999D02*
X12570000D01*
X10542500Y26562485D02*
Y26612485D01*
X10517500Y26587485D02*
X10567500D01*
X2517500Y26572501D02*
X2567500D01*
X2542500Y26547501D02*
Y26597501D01*
X8542500Y26529999D02*
Y26579999D01*
X8517500Y26554999D02*
X8567500D01*
X6550000Y26592499D02*
Y26642499D01*
X6525000Y26617499D02*
X6575000D01*
X20364999Y29577499D02*
Y29627499D01*
X20339999Y29602499D02*
X20389999D01*
X1950000Y10442500D02*
X2575000D01*
Y11627500D01*
X1950000D02*
X2575000D01*
X1950000Y10442500D02*
Y11627500D01*
D73*
X28437738Y2556300D02*
Y2708700D01*
X28132938Y2556300D02*
Y2708700D01*
X28437738D01*
X28132938Y2556300D02*
X28437738D01*
X28285339Y2607500D02*
Y2657500D01*
X28260339Y2632500D02*
X28310339D01*
X4477500Y26822501D02*
X4627500D01*
X4442500Y26362500D02*
X4655000D01*
X4442500D02*
Y26822501D01*
X4655000Y26362500D02*
Y26822501D01*
X4627500D02*
X4655000D01*
X4442500D02*
X4477500D01*
X10552500Y3185000D02*
X10702500D01*
X10525000Y3645000D02*
X10737500D01*
Y3185000D02*
Y3645000D01*
X10525000Y3185000D02*
Y3645000D01*
Y3185000D02*
X10552500D01*
X10702500D02*
X10737500D01*
X10110000Y347500D02*
Y497500D01*
X10570000Y312500D02*
Y525000D01*
X10110000Y312500D02*
X10570000D01*
X10110000Y525000D02*
X10570000D01*
X10110000Y497500D02*
Y525000D01*
Y312500D02*
Y347500D01*
X3790000Y332500D02*
Y482500D01*
X3330000Y305000D02*
Y517500D01*
X3790000D01*
X3330000Y305000D02*
X3790000D01*
Y332500D01*
Y482500D02*
Y517500D01*
X22175000Y302500D02*
X22325000D01*
X22147501Y762500D02*
X22360001D01*
Y302500D02*
Y762500D01*
X22147501Y302500D02*
Y762500D01*
Y302500D02*
X22175000D01*
X22325000D02*
X22360001D01*
X27345001Y775000D02*
X27495001D01*
X27310001Y315000D02*
X27522501D01*
X27310001D02*
Y775000D01*
X27522501Y315000D02*
Y775000D01*
X27495001D02*
X27522501D01*
X27310001D02*
X27345001D01*
X15192500Y2992500D02*
X15342500D01*
X15164999Y3452500D02*
X15377499D01*
Y2992500D02*
Y3452500D01*
X15164999Y2992500D02*
Y3452500D01*
Y2992500D02*
X15192500D01*
X15342500D02*
X15377499D01*
X13197501Y2997500D02*
X13347501D01*
X13170000Y3457500D02*
X13382500D01*
Y2997500D02*
Y3457500D01*
X13170000Y2997500D02*
Y3457500D01*
Y2997500D02*
X13197501D01*
X13347501D02*
X13382500D01*
X9195000Y3045000D02*
X9345000D01*
X9167500Y3505000D02*
X9380000D01*
Y3045000D02*
Y3505000D01*
X9167500Y3045000D02*
Y3505000D01*
Y3045000D02*
X9195000D01*
X9345000D02*
X9380000D01*
X6990000Y3207500D02*
X7140000D01*
X6962500Y3667500D02*
X7175000D01*
Y3207500D02*
Y3667500D01*
X6962500Y3207500D02*
Y3667500D01*
Y3207500D02*
X6990000D01*
X7140000D02*
X7175000D01*
X4970000Y3197500D02*
X5120000D01*
X4942500Y3657500D02*
X5155000D01*
Y3197500D02*
Y3657500D01*
X4942500Y3197500D02*
Y3657500D01*
Y3197500D02*
X4970000D01*
X5120000D02*
X5155000D01*
X3405000Y3187500D02*
X3555000D01*
X3377500Y3647500D02*
X3590000D01*
Y3187500D02*
Y3647500D01*
X3377500Y3187500D02*
Y3647500D01*
Y3187500D02*
X3405000D01*
X3555000D02*
X3590000D01*
X1195000Y3060000D02*
X1345000D01*
X1167500Y3520000D02*
X1380000D01*
Y3060000D02*
Y3520000D01*
X1167500Y3060000D02*
Y3520000D01*
Y3060000D02*
X1195000D01*
X1345000D02*
X1380000D01*
X573800Y12230100D02*
Y12534900D01*
X726200Y12230100D02*
Y12534900D01*
X573800D02*
X726200D01*
X573800Y12230100D02*
X726200D01*
X1488800Y11730100D02*
Y12034900D01*
X1641200Y11730100D02*
Y12034900D01*
X1488800D02*
X1641200D01*
X1488800Y11730100D02*
X1641200D01*
X1613700Y10615100D02*
Y10919900D01*
X1461300Y10615100D02*
Y10919900D01*
Y10615100D02*
X1613700D01*
X1461300Y10919900D02*
X1613700D01*
X2308700Y10627600D02*
Y10932400D01*
X2156300Y10627600D02*
Y10932400D01*
Y10627600D02*
X2308700D01*
X2156300Y10932400D02*
X2308700D01*
X3708700Y11487600D02*
Y11792400D01*
X3556300Y11487600D02*
Y11792400D01*
Y11487600D02*
X3708700D01*
X3556300Y11792400D02*
X3708700D01*
X3375100Y12008800D02*
X3679900D01*
X3375100Y12161200D02*
X3679900D01*
X3375100Y12008800D02*
Y12161200D01*
X3679900Y12008800D02*
Y12161200D01*
X40150101Y8626300D02*
X40454901D01*
X40150101Y8778700D02*
X40454901D01*
X40150101Y8626300D02*
Y8778700D01*
X40454901Y8626300D02*
Y8778700D01*
X9895000Y28687500D02*
Y28722501D01*
Y28872501D02*
Y28900000D01*
X10355000D01*
X9895000Y28687500D02*
X10355000D01*
Y28900000D01*
X9895000Y28722501D02*
Y28872501D01*
X4110000Y29145001D02*
Y29179999D01*
Y28967499D02*
Y28995001D01*
X3650000Y28967499D02*
X4110000D01*
X3650000Y29179999D02*
X4110000D01*
X3650000Y28967499D02*
Y29179999D01*
X4110000Y28995001D02*
Y29145001D01*
X41552600Y8286300D02*
X41857401D01*
X41552600Y8438700D02*
X41857401D01*
X41552600Y8286300D02*
Y8438700D01*
X41857401Y8286300D02*
Y8438700D01*
X27317499Y29220001D02*
Y29254999D01*
Y29404999D02*
Y29432501D01*
X27777499D01*
X27317499Y29220001D02*
X27777499D01*
Y29432501D01*
X27317499Y29254999D02*
Y29404999D01*
X28383801Y26990100D02*
X28536200D01*
X28383801Y27294901D02*
X28536200D01*
Y26990100D02*
Y27294901D01*
X28383801Y26990100D02*
Y27294901D01*
X28435001Y27142499D02*
X28485001D01*
X28460001Y27117499D02*
Y27167499D01*
X16439999Y26775000D02*
X16475000D01*
X16625000D02*
X16652499D01*
Y26314999D02*
Y26775000D01*
X16439999Y26314999D02*
Y26775000D01*
Y26314999D02*
X16652499D01*
X16475000Y26775000D02*
X16625000D01*
X14447125Y26772501D02*
X14482126D01*
X14632126D02*
X14659627D01*
Y26312500D02*
Y26772501D01*
X14447125Y26312500D02*
Y26772501D01*
Y26312500D02*
X14659627D01*
X14482126Y26772501D02*
X14632126D01*
X12440000Y26804999D02*
X12475000D01*
X12625000D02*
X12652500D01*
Y26345001D02*
Y26804999D01*
X12440000Y26345001D02*
Y26804999D01*
Y26345001D02*
X12652500D01*
X12475000Y26804999D02*
X12625000D01*
X10437500Y26812485D02*
X10472500D01*
X10622500D02*
X10650000D01*
Y26352484D02*
Y26812485D01*
X10437500Y26352484D02*
Y26812485D01*
Y26352484D02*
X10650000D01*
X10472500Y26812485D02*
X10622500D01*
X2472500Y26797501D02*
X2622500D01*
X2437500Y26337500D02*
X2650000D01*
X2437500D02*
Y26797501D01*
X2650000Y26337500D02*
Y26797501D01*
X2622500D02*
X2650000D01*
X2437500D02*
X2472500D01*
X8437500Y26779999D02*
X8472500D01*
X8622500D02*
X8650000D01*
Y26320001D02*
Y26779999D01*
X8437500Y26320001D02*
Y26779999D01*
Y26320001D02*
X8650000D01*
X8472500Y26779999D02*
X8622500D01*
X6445000Y26842499D02*
X6480000D01*
X6630000D02*
X6657500D01*
Y26382501D02*
Y26842499D01*
X6445000Y26382501D02*
Y26842499D01*
Y26382501D02*
X6657500D01*
X6480000Y26842499D02*
X6630000D01*
X39471198Y9972600D02*
Y10277400D01*
X39318799Y9972600D02*
Y10277400D01*
Y9972600D02*
X39471198D01*
X39318799Y10277400D02*
X39471198D01*
X20589999Y29522501D02*
Y29672501D01*
X20130000Y29495001D02*
Y29707501D01*
X20589999D01*
X20130000Y29495001D02*
X20589999D01*
Y29522501D01*
Y29672501D02*
Y29707501D01*
X20889999Y27172501D02*
Y27222501D01*
X20864999Y27197501D02*
X20914999D01*
X20813800Y27045099D02*
Y27349899D01*
X20966200Y27045099D02*
Y27349899D01*
X20813800D02*
X20966200D01*
X20813800Y27045099D02*
X20966200D01*
X20352499Y2500000D02*
X20402499D01*
X20377499Y2475000D02*
Y2525000D01*
X20225101Y2423800D02*
X20529900D01*
X20225101Y2576200D02*
X20529900D01*
X20225101Y2423800D02*
Y2576200D01*
X20529900Y2423800D02*
Y2576200D01*
X383800Y12230100D02*
X536200D01*
X383800Y12534900D02*
X536200D01*
Y12230100D02*
Y12534900D01*
X383800Y12230100D02*
Y12534900D01*
X4363231Y11349901D02*
X4515631D01*
X4363231Y11045101D02*
X4515631D01*
X4363231D02*
Y11349901D01*
X4515631Y11045101D02*
Y11349901D01*
X3368231Y11052600D02*
X3520631D01*
X3368231Y11357400D02*
X3520631D01*
Y11052600D02*
Y11357400D01*
X3368231Y11052600D02*
Y11357400D01*
X1668817Y12032400D02*
X1821217D01*
X1668817Y11727600D02*
X1821217D01*
X1668817D02*
Y12032400D01*
X1821217Y11727600D02*
Y12032400D01*
X39547601Y9151300D02*
Y9303700D01*
X39852399Y9151300D02*
Y9303700D01*
X39547601Y9151300D02*
X39852399D01*
X39547601Y9303700D02*
X39852399D01*
X38297400Y10501300D02*
Y10653700D01*
X37992599Y10501300D02*
Y10653700D01*
X38297400D01*
X37992599Y10501300D02*
X38297400D01*
X41347400Y8583800D02*
Y8736200D01*
X41042599Y8583800D02*
Y8736200D01*
X41347400D01*
X41042599Y8583800D02*
X41347400D01*
X38516299Y10629900D02*
X38668701D01*
X38516299Y10325100D02*
X38668701D01*
X38516299D02*
Y10629900D01*
X38668701Y10325100D02*
Y10629900D01*
X38336298Y9975100D02*
X38488699D01*
X38336298Y10279900D02*
X38488699D01*
Y9975100D02*
Y10279900D01*
X38336298Y9975100D02*
Y10279900D01*
X40150101Y8441300D02*
Y8593700D01*
X40454901Y8441300D02*
Y8593700D01*
X40150101Y8441300D02*
X40454901D01*
X40150101Y8593700D02*
X40454901D01*
X28329388Y2697149D02*
X28341052Y2708811D01*
X28364377D01*
X28376038Y2697149D01*
Y2650497D01*
X28364377Y2638834D01*
X28341052D01*
X28329388Y2650497D01*
X28306061Y2638834D02*
X28282736D01*
X28294400D01*
Y2708811D01*
X28306061Y2697149D01*
X28247748D02*
X28236084Y2708811D01*
X28212759D01*
X28201096Y2697149D01*
Y2685486D01*
X28212759Y2673823D01*
X28224420D01*
X28212759D01*
X28201096Y2662160D01*
Y2650497D01*
X28212759Y2638834D01*
X28236084D01*
X28247748Y2650497D01*
X4477523Y26597501D02*
X4524174D01*
X4547500Y26574173D01*
X4524174Y26550848D01*
X4477523D01*
Y26527524D02*
X4547500D01*
Y26492535D01*
X4535837Y26480872D01*
X4489186D01*
X4477523Y26492535D01*
Y26527524D01*
X4489186Y26457544D02*
X4477523Y26445883D01*
Y26422556D01*
X4489186Y26410892D01*
X4500849D01*
X4512511Y26422556D01*
X4524174Y26410892D01*
X4535837D01*
X4547500Y26422556D01*
Y26445883D01*
X4535837Y26457544D01*
X4524174D01*
X4512511Y26445883D01*
X4500849Y26457544D01*
X4489186D01*
X4512511Y26445883D02*
Y26422556D01*
X10702477Y3410000D02*
X10655826D01*
X10632500Y3433326D01*
X10655826Y3456652D01*
X10702477D01*
Y3479978D02*
X10632500D01*
Y3514966D01*
X10644163Y3526629D01*
X10690815D01*
X10702477Y3514966D01*
Y3479978D01*
X10690815Y3549955D02*
X10702477Y3561618D01*
Y3584944D01*
X10690815Y3596607D01*
X10679152D01*
X10667489Y3584944D01*
Y3573281D01*
Y3584944D01*
X10655826Y3596607D01*
X10644163D01*
X10632500Y3584944D01*
Y3561618D01*
X10644163Y3549955D01*
X10690815Y3619933D02*
X10702477Y3631595D01*
Y3654921D01*
X10690815Y3666584D01*
X10644163D01*
X10632500Y3654921D01*
Y3631595D01*
X10644163Y3619933D01*
X10690815D01*
X10335000Y347523D02*
Y394174D01*
X10358326Y417500D01*
X10381652Y394174D01*
Y347523D01*
X10404978D02*
Y417500D01*
X10439966D01*
X10451629Y405837D01*
Y359185D01*
X10439966Y347523D01*
X10404978D01*
X10474955Y359185D02*
X10486618Y347523D01*
X10509944D01*
X10521607Y359185D01*
Y370848D01*
X10509944Y382511D01*
X10498281D01*
X10509944D01*
X10521607Y394174D01*
Y405837D01*
X10509944Y417500D01*
X10486618D01*
X10474955Y405837D01*
X10544933Y417500D02*
X10568259D01*
X10556596D01*
Y347523D01*
X10544933Y359185D01*
X3565000Y482478D02*
Y435826D01*
X3541674Y412500D01*
X3518348Y435826D01*
Y482478D01*
X3495022D02*
Y412500D01*
X3460033D01*
X3448371Y424163D01*
Y470815D01*
X3460033Y482478D01*
X3495022D01*
X3425045Y412500D02*
X3401719D01*
X3413382D01*
Y482478D01*
X3425045Y470815D01*
X3320078Y482478D02*
X3343404Y470815D01*
X3366730Y447489D01*
Y424163D01*
X3355067Y412500D01*
X3331741D01*
X3320078Y424163D01*
Y435826D01*
X3331741Y447489D01*
X3366730D01*
X22324977Y527500D02*
X22278326D01*
X22255000Y550826D01*
X22278326Y574152D01*
X22324977D01*
Y597478D02*
X22255000D01*
Y632466D01*
X22266663Y644129D01*
X22313315D01*
X22324977Y632466D01*
Y597478D01*
X22255000Y714107D02*
Y667455D01*
X22301653Y714107D01*
X22313315D01*
X22324977Y702444D01*
Y679118D01*
X22313315Y667455D01*
X22266663Y737433D02*
X22255000Y749096D01*
Y772421D01*
X22266663Y784084D01*
X22313315D01*
X22324977Y772421D01*
Y749096D01*
X22313315Y737433D01*
X22301653D01*
X22289989Y749096D01*
Y784084D01*
X27345023Y550000D02*
X27391675D01*
X27414999Y526674D01*
X27391675Y503348D01*
X27345023D01*
Y480022D02*
X27414999D01*
Y445034D01*
X27403336Y433371D01*
X27356686D01*
X27345023Y445034D01*
Y480022D01*
X27414999Y363393D02*
Y410045D01*
X27368347Y363393D01*
X27356686D01*
X27345023Y375056D01*
Y398382D01*
X27356686Y410045D01*
Y340067D02*
X27345023Y328404D01*
Y305079D01*
X27356686Y293416D01*
X27403336D01*
X27414999Y305079D01*
Y328404D01*
X27403336Y340067D01*
X27356686D01*
X15342477Y3217500D02*
X15295827D01*
X15272501Y3240826D01*
X15295827Y3264152D01*
X15342477D01*
Y3287478D02*
X15272501D01*
Y3322466D01*
X15284163Y3334129D01*
X15330815D01*
X15342477Y3322466D01*
Y3287478D01*
X15330815Y3357455D02*
X15342477Y3369118D01*
Y3392444D01*
X15330815Y3404107D01*
X15319151D01*
X15307489Y3392444D01*
Y3380781D01*
Y3392444D01*
X15295827Y3404107D01*
X15284163D01*
X15272501Y3392444D01*
Y3369118D01*
X15284163Y3357455D01*
X15272501Y3462421D02*
X15342477D01*
X15307489Y3427433D01*
Y3474084D01*
X13347478Y3222500D02*
X13300826D01*
X13277499Y3245826D01*
X13300826Y3269152D01*
X13347478D01*
Y3292478D02*
X13277499D01*
Y3327466D01*
X13289163Y3339129D01*
X13335815D01*
X13347478Y3327466D01*
Y3292478D01*
X13277499Y3397444D02*
X13347478D01*
X13312489Y3362455D01*
Y3409107D01*
X9344978Y3270000D02*
X9298326D01*
X9275000Y3293326D01*
X9298326Y3316652D01*
X9344978D01*
Y3339978D02*
X9275000D01*
Y3374966D01*
X9286663Y3386629D01*
X9333315D01*
X9344978Y3374966D01*
Y3339978D01*
X9333315Y3409955D02*
X9344978Y3421618D01*
Y3444944D01*
X9333315Y3456607D01*
X9321652D01*
X9309989Y3444944D01*
Y3433281D01*
Y3444944D01*
X9298326Y3456607D01*
X9286663D01*
X9275000Y3444944D01*
Y3421618D01*
X9286663Y3409955D01*
X7139978Y3432500D02*
X7093326D01*
X7070000Y3455826D01*
X7093326Y3479152D01*
X7139978D01*
Y3502478D02*
X7070000D01*
Y3537466D01*
X7081663Y3549129D01*
X7128315D01*
X7139978Y3537466D01*
Y3502478D01*
X7070000Y3572455D02*
Y3595781D01*
Y3584118D01*
X7139978D01*
X7128315Y3572455D01*
Y3630770D02*
X7139978Y3642433D01*
Y3665758D01*
X7128315Y3677421D01*
X7116652D01*
X7104989Y3665758D01*
X7093326Y3677421D01*
X7081663D01*
X7070000Y3665758D01*
Y3642433D01*
X7081663Y3630770D01*
X7093326D01*
X7104989Y3642433D01*
X7116652Y3630770D01*
X7128315D01*
X7104989Y3642433D02*
Y3665758D01*
X5119978Y3422500D02*
X5073326D01*
X5050000Y3445826D01*
X5073326Y3469152D01*
X5119978D01*
Y3492477D02*
X5050000D01*
Y3527466D01*
X5061663Y3539129D01*
X5108315D01*
X5119978Y3527466D01*
Y3492477D01*
X5050000Y3609107D02*
Y3562455D01*
X5096652Y3609107D01*
X5108315D01*
X5119978Y3597444D01*
Y3574118D01*
X5108315Y3562455D01*
X3554977Y3412500D02*
X3508326D01*
X3485000Y3435826D01*
X3508326Y3459152D01*
X3554977D01*
Y3482477D02*
X3485000D01*
Y3517466D01*
X3496663Y3529129D01*
X3543314D01*
X3554977Y3517466D01*
Y3482477D01*
X3485000Y3552455D02*
Y3575781D01*
Y3564118D01*
X3554977D01*
X3543314Y3552455D01*
X1344977Y3285000D02*
X1298326D01*
X1275000Y3308326D01*
X1298326Y3331652D01*
X1344977D01*
Y3354978D02*
X1275000D01*
Y3389966D01*
X1286663Y3401629D01*
X1333315D01*
X1344977Y3389966D01*
Y3354978D01*
X1275000Y3424955D02*
Y3448281D01*
Y3436618D01*
X1344977D01*
X1333315Y3424955D01*
X1275000Y3518258D02*
X1344977D01*
X1309989Y3483270D01*
Y3529921D01*
X690814Y12401652D02*
X702477Y12389989D01*
Y12366663D01*
X690814Y12355000D01*
X644163D01*
X632500Y12366663D01*
Y12389989D01*
X644163Y12401652D01*
X702477Y12471630D02*
X690814Y12448304D01*
X667489Y12424978D01*
X644163D01*
X632500Y12436641D01*
Y12459967D01*
X644163Y12471630D01*
X655826D01*
X667489Y12459967D01*
Y12424978D01*
X632500Y12494955D02*
Y12518281D01*
Y12506618D01*
X702477D01*
X690814Y12494955D01*
X1588315Y11831652D02*
X1599978Y11819989D01*
Y11796663D01*
X1588315Y11785000D01*
X1541663D01*
X1530000Y11796663D01*
Y11819989D01*
X1541663Y11831652D01*
X1588315Y11854978D02*
X1599978Y11866641D01*
Y11889967D01*
X1588315Y11901629D01*
X1576652D01*
X1564989Y11889967D01*
Y11878304D01*
Y11889967D01*
X1553326Y11901629D01*
X1541663D01*
X1530000Y11889967D01*
Y11866641D01*
X1541663Y11854978D01*
X1599978Y11971607D02*
Y11924955D01*
X1564989D01*
X1576652Y11948281D01*
Y11959944D01*
X1564989Y11971607D01*
X1541663D01*
X1530000Y11959944D01*
Y11936618D01*
X1541663Y11924955D01*
X1514185Y10818348D02*
X1502523Y10830011D01*
Y10853337D01*
X1514185Y10865000D01*
X1560837D01*
X1572500Y10853337D01*
Y10830011D01*
X1560837Y10818348D01*
X1572500Y10795022D02*
Y10771697D01*
Y10783359D01*
X1502523D01*
X1514185Y10795022D01*
Y10736708D02*
X1502523Y10725045D01*
Y10701719D01*
X1514185Y10690056D01*
X1560837D01*
X1572500Y10701719D01*
Y10725045D01*
X1560837Y10736708D01*
X1514185D01*
X2209186Y10830849D02*
X2197523Y10842511D01*
Y10865837D01*
X2209186Y10877500D01*
X2255837D01*
X2267500Y10865837D01*
Y10842511D01*
X2255837Y10830849D01*
X2197523Y10760871D02*
Y10807523D01*
X2232511D01*
X2220848Y10784197D01*
Y10772534D01*
X2232511Y10760871D01*
X2255837D01*
X2267500Y10772534D01*
Y10795860D01*
X2255837Y10807523D01*
X2267500Y10690894D02*
Y10737545D01*
X2220848Y10690894D01*
X2209186D01*
X2197523Y10702556D01*
Y10725882D01*
X2209186Y10737545D01*
X3609185Y11690848D02*
X3597522Y11702511D01*
Y11725837D01*
X3609185Y11737500D01*
X3655837D01*
X3667500Y11725837D01*
Y11702511D01*
X3655837Y11690848D01*
X3597522Y11620871D02*
Y11667523D01*
X3632511D01*
X3620848Y11644197D01*
Y11632534D01*
X3632511Y11620871D01*
X3655837D01*
X3667500Y11632534D01*
Y11655860D01*
X3655837Y11667523D01*
X3597522Y11597545D02*
Y11550893D01*
X3609185D01*
X3655837Y11597545D01*
X3667500D01*
X3578348Y12108315D02*
X3590011Y12119978D01*
X3613337D01*
X3625000Y12108315D01*
Y12061663D01*
X3613337Y12050000D01*
X3590011D01*
X3578348Y12061663D01*
X3508371Y12119978D02*
X3555022D01*
Y12084989D01*
X3531697Y12096652D01*
X3520034D01*
X3508371Y12084989D01*
Y12061663D01*
X3520034Y12050000D01*
X3543359D01*
X3555022Y12061663D01*
X3485045Y12050000D02*
X3461719D01*
X3473382D01*
Y12119978D01*
X3485045Y12108315D01*
X40353348Y8725815D02*
X40365012Y8737478D01*
X40388336D01*
X40400000Y8725815D01*
Y8679163D01*
X40388336Y8667500D01*
X40365012D01*
X40353348Y8679163D01*
X40295035Y8667500D02*
Y8737478D01*
X40330023Y8702489D01*
X40283371D01*
X40260046Y8725815D02*
X40248383Y8737478D01*
X40225055D01*
X40213394Y8725815D01*
Y8679163D01*
X40225055Y8667500D01*
X40248383D01*
X40260046Y8679163D01*
Y8725815D01*
X10120000Y28722522D02*
Y28769174D01*
X10143326Y28792499D01*
X10166651Y28769174D01*
Y28722522D01*
X10189977D02*
Y28792499D01*
X10224966D01*
X10236629Y28780838D01*
Y28734186D01*
X10224966Y28722522D01*
X10189977D01*
X10306607D02*
X10259955D01*
Y28757510D01*
X10283281Y28745850D01*
X10294944D01*
X10306607Y28757510D01*
Y28780838D01*
X10294944Y28792499D01*
X10271618D01*
X10259955Y28780838D01*
X10329932Y28792499D02*
X10353258D01*
X10341595D01*
Y28722522D01*
X10329932Y28734186D01*
X3885000Y29144977D02*
Y29098325D01*
X3861674Y29075000D01*
X3838348Y29098325D01*
Y29144977D01*
X3815022D02*
Y29075000D01*
X3780034D01*
X3768371Y29086664D01*
Y29133316D01*
X3780034Y29144977D01*
X3815022D01*
X3745045Y29075000D02*
X3721719D01*
X3733382D01*
Y29144977D01*
X3745045Y29133316D01*
X3686730D02*
X3675067Y29144977D01*
X3651741D01*
X3640079Y29133316D01*
Y29086664D01*
X3651741Y29075000D01*
X3675067D01*
X3686730Y29086664D01*
Y29133316D01*
X41755847Y8385815D02*
X41767511Y8397477D01*
X41790836D01*
X41802499Y8385815D01*
Y8339163D01*
X41790836Y8327500D01*
X41767511D01*
X41755847Y8339163D01*
X41732523Y8385815D02*
X41720859Y8397477D01*
X41697534D01*
X41685870Y8385815D01*
Y8374152D01*
X41697534Y8362489D01*
X41709195D01*
X41697534D01*
X41685870Y8350826D01*
Y8339163D01*
X41697534Y8327500D01*
X41720859D01*
X41732523Y8339163D01*
X41615894Y8327500D02*
X41662546D01*
X41615894Y8374152D01*
Y8385815D01*
X41627557Y8397477D01*
X41650882D01*
X41662546Y8385815D01*
X27542499Y29255023D02*
Y29301675D01*
X27565826Y29325000D01*
X27589151Y29301675D01*
Y29255023D01*
X27612476D02*
Y29325000D01*
X27647467D01*
X27659128Y29313336D01*
Y29266684D01*
X27647467Y29255023D01*
X27612476D01*
X27682455Y29266684D02*
X27694119Y29255023D01*
X27717444D01*
X27729108Y29266684D01*
Y29278348D01*
X27717444Y29290012D01*
X27705780D01*
X27717444D01*
X27729108Y29301675D01*
Y29313336D01*
X27717444Y29325000D01*
X27694119D01*
X27682455Y29313336D01*
X27752432Y29266684D02*
X27764096Y29255023D01*
X27787421D01*
X27799084Y29266684D01*
Y29278348D01*
X27787421Y29290012D01*
X27799084Y29301675D01*
Y29313336D01*
X27787421Y29325000D01*
X27764096D01*
X27752432Y29313336D01*
Y29301675D01*
X27764096Y29290012D01*
X27752432Y29278348D01*
Y29266684D01*
X27764096Y29290012D02*
X27787421D01*
X28518314Y27189151D02*
X28529977Y27177490D01*
Y27154163D01*
X28518314Y27142499D01*
X28471664D01*
X28460001Y27154163D01*
Y27177490D01*
X28471664Y27189151D01*
X28460001Y27259128D02*
Y27212476D01*
X28506653Y27259128D01*
X28518314D01*
X28529977Y27247467D01*
Y27224139D01*
X28518314Y27212476D01*
Y27282455D02*
X28529977Y27294119D01*
Y27317444D01*
X28518314Y27329108D01*
X28506653D01*
X28494989Y27317444D01*
X28483325Y27329108D01*
X28471664D01*
X28460001Y27317444D01*
Y27294119D01*
X28471664Y27282455D01*
X28483325D01*
X28494989Y27294119D01*
X28506653Y27282455D01*
X28518314D01*
X28494989Y27294119D02*
Y27317444D01*
X16475021Y26550000D02*
X16521674D01*
X16545000Y26526675D01*
X16521674Y26503348D01*
X16475021D01*
Y26480023D02*
X16545000D01*
Y26445032D01*
X16533337Y26433371D01*
X16486685D01*
X16475021Y26445032D01*
Y26480023D01*
Y26363394D02*
Y26410046D01*
X16510011D01*
X16498347Y26386719D01*
Y26375055D01*
X16510011Y26363394D01*
X16533337D01*
X16545000Y26375055D01*
Y26398383D01*
X16533337Y26410046D01*
X16545000Y26305078D02*
X16475021D01*
X16510011Y26340067D01*
Y26293417D01*
X14482149Y26547501D02*
X14528801D01*
X14552127Y26524173D01*
X14528801Y26500848D01*
X14482149D01*
Y26477521D02*
X14552127D01*
Y26442532D01*
X14540463Y26430869D01*
X14493813D01*
X14482149Y26442532D01*
Y26477521D01*
Y26360892D02*
Y26407544D01*
X14517139D01*
X14505475Y26384219D01*
Y26372556D01*
X14517139Y26360892D01*
X14540463D01*
X14552127Y26372556D01*
Y26395883D01*
X14540463Y26407544D01*
X14482149Y26290915D02*
X14493813Y26314240D01*
X14517139Y26337567D01*
X14540463D01*
X14552127Y26325903D01*
Y26302579D01*
X14540463Y26290915D01*
X14528801D01*
X14517139Y26302579D01*
Y26337567D01*
X12475023Y26579999D02*
X12521674D01*
X12545000Y26556674D01*
X12521674Y26533347D01*
X12475023D01*
Y26510022D02*
X12545000D01*
Y26475034D01*
X12533337Y26463370D01*
X12486686D01*
X12475023Y26475034D01*
Y26510022D01*
X12545000Y26405057D02*
X12475023D01*
X12510012Y26440045D01*
Y26393393D01*
X12486686Y26370068D02*
X12475023Y26358405D01*
Y26335080D01*
X12486686Y26323416D01*
X12498349D01*
X12510012Y26335080D01*
Y26346741D01*
Y26335080D01*
X12521674Y26323416D01*
X12533337D01*
X12545000Y26335080D01*
Y26358405D01*
X12533337Y26370068D01*
X10472523Y26587485D02*
X10519174D01*
X10542500Y26564157D01*
X10519174Y26540833D01*
X10472523D01*
Y26517505D02*
X10542500D01*
Y26482516D01*
X10530837Y26470856D01*
X10484186D01*
X10472523Y26482516D01*
Y26517505D01*
Y26400876D02*
Y26447528D01*
X10507511D01*
X10495848Y26424203D01*
Y26412540D01*
X10507511Y26400876D01*
X10530837D01*
X10542500Y26412540D01*
Y26435867D01*
X10530837Y26447528D01*
X10484186Y26377551D02*
X10472523Y26365887D01*
Y26342563D01*
X10484186Y26330899D01*
X10530837D01*
X10542500Y26342563D01*
Y26365887D01*
X10530837Y26377551D01*
X10484186D01*
X2472522Y26572501D02*
X2519174D01*
X2542500Y26549173D01*
X2519174Y26525848D01*
X2472522D01*
Y26502521D02*
X2542500D01*
Y26467535D01*
X2530837Y26455872D01*
X2484185D01*
X2472522Y26467535D01*
Y26502521D01*
Y26385892D02*
Y26432544D01*
X2507511D01*
X2495848Y26409219D01*
Y26397556D01*
X2507511Y26385892D01*
X2530837D01*
X2542500Y26397556D01*
Y26420883D01*
X2530837Y26432544D01*
X8472523Y26554999D02*
X8519174D01*
X8542500Y26531674D01*
X8519174Y26508347D01*
X8472523D01*
Y26485022D02*
X8542500D01*
Y26450034D01*
X8530837Y26438370D01*
X8484185D01*
X8472523Y26450034D01*
Y26485022D01*
X8484185Y26415045D02*
X8472523Y26403381D01*
Y26380057D01*
X8484185Y26368393D01*
X8495848D01*
X8507511Y26380057D01*
Y26391718D01*
Y26380057D01*
X8519174Y26368393D01*
X8530837D01*
X8542500Y26380057D01*
Y26403381D01*
X8530837Y26415045D01*
X8472523Y26298416D02*
X8484185Y26321741D01*
X8507511Y26345068D01*
X8530837D01*
X8542500Y26333405D01*
Y26310080D01*
X8530837Y26298416D01*
X8519174D01*
X8507511Y26310080D01*
Y26345068D01*
X6480023Y26617499D02*
X6526674D01*
X6550000Y26594174D01*
X6526674Y26570850D01*
X6480023D01*
Y26547522D02*
X6550000D01*
Y26512534D01*
X6538337Y26500870D01*
X6491686D01*
X6480023Y26512534D01*
Y26547522D01*
X6550000Y26442557D02*
X6480023D01*
X6515011Y26477545D01*
Y26430893D01*
X6550000Y26407568D02*
Y26384241D01*
Y26395905D01*
X6480023D01*
X6491686Y26407568D01*
X39371686Y10175848D02*
X39360022Y10187511D01*
Y10210837D01*
X39371686Y10222500D01*
X39418335D01*
X39429999Y10210837D01*
Y10187511D01*
X39418335Y10175848D01*
X39360022Y10105871D02*
X39371686Y10129197D01*
X39395010Y10152522D01*
X39418335D01*
X39429999Y10140860D01*
Y10117534D01*
X39418335Y10105871D01*
X39406674D01*
X39395010Y10117534D01*
Y10152522D01*
X39371686Y10082545D02*
X39360022Y10070882D01*
Y10047556D01*
X39371686Y10035893D01*
X39418335D01*
X39429999Y10047556D01*
Y10070882D01*
X39418335Y10082545D01*
X39371686D01*
X20364999Y29672479D02*
Y29625827D01*
X20341673Y29602499D01*
X20318349Y29625827D01*
Y29672479D01*
X20295023D02*
Y29602499D01*
X20260034D01*
X20248370Y29614163D01*
Y29660815D01*
X20260034Y29672479D01*
X20295023D01*
X20190056Y29602499D02*
Y29672479D01*
X20225044Y29637488D01*
X20178394D01*
X20155067Y29614163D02*
X20143404Y29602499D01*
X20120079D01*
X20108417Y29614163D01*
Y29660815D01*
X20120079Y29672479D01*
X20143404D01*
X20155067Y29660815D01*
Y29649152D01*
X20143404Y29637488D01*
X20108417D01*
X20948315Y27244153D02*
X20959978Y27232489D01*
Y27209164D01*
X20948315Y27197501D01*
X20901663D01*
X20889999Y27209164D01*
Y27232489D01*
X20901663Y27244153D01*
X20889999Y27302466D02*
X20959978D01*
X20924989Y27267477D01*
Y27314130D01*
X20959978Y27337454D02*
Y27384106D01*
X20948315D01*
X20901663Y27337454D01*
X20889999D01*
X20330849Y2558314D02*
X20342511Y2569977D01*
X20365837D01*
X20377499Y2558314D01*
Y2511663D01*
X20365837Y2500000D01*
X20342511D01*
X20330849Y2511663D01*
X20307523Y2558314D02*
X20295860Y2569977D01*
X20272534D01*
X20260870Y2558314D01*
Y2546651D01*
X20272534Y2534989D01*
X20284196D01*
X20272534D01*
X20260870Y2523326D01*
Y2511663D01*
X20272534Y2500000D01*
X20295860D01*
X20307523Y2511663D01*
X20237544Y2558314D02*
X20225882Y2569977D01*
X20202556D01*
X20190894Y2558314D01*
Y2546651D01*
X20202556Y2534989D01*
X20190894Y2523326D01*
Y2511663D01*
X20202556Y2500000D01*
X20225882D01*
X20237544Y2511663D01*
Y2523326D01*
X20225882Y2534989D01*
X20237544Y2546651D01*
Y2558314D01*
X20225882Y2534989D02*
X20202556D01*
X483315Y12331652D02*
X494978Y12319989D01*
Y12296663D01*
X483315Y12285000D01*
X436663D01*
X425000Y12296663D01*
Y12319989D01*
X436663Y12331652D01*
X494978Y12401629D02*
X483315Y12378303D01*
X459989Y12354978D01*
X436663D01*
X425000Y12366640D01*
Y12389966D01*
X436663Y12401629D01*
X448326D01*
X459989Y12389966D01*
Y12354978D01*
X425000Y12471607D02*
Y12424955D01*
X471652Y12471607D01*
X483315D01*
X494978Y12459944D01*
Y12436618D01*
X483315Y12424955D01*
X4416116Y11248349D02*
X4404453Y11260012D01*
Y11283338D01*
X4416116Y11295001D01*
X4462768D01*
X4474430Y11283338D01*
Y11260012D01*
X4462768Y11248349D01*
X4404453Y11178371D02*
Y11225023D01*
X4439442D01*
X4427779Y11201697D01*
Y11190034D01*
X4439442Y11178371D01*
X4462768D01*
X4474430Y11190034D01*
Y11213360D01*
X4462768Y11225023D01*
Y11155046D02*
X4474430Y11143383D01*
Y11120057D01*
X4462768Y11108394D01*
X4416116D01*
X4404453Y11120057D01*
Y11143383D01*
X4416116Y11155046D01*
X4427779D01*
X4439442Y11143383D01*
Y11108394D01*
X3467745Y11154152D02*
X3479408Y11142489D01*
Y11119163D01*
X3467745Y11107501D01*
X3421094D01*
X3409431Y11119163D01*
Y11142489D01*
X3421094Y11154152D01*
X3479408Y11224130D02*
X3467745Y11200804D01*
X3444420Y11177478D01*
X3421094D01*
X3409431Y11189141D01*
Y11212467D01*
X3421094Y11224130D01*
X3432757D01*
X3444420Y11212467D01*
Y11177478D01*
X3479408Y11294107D02*
Y11247456D01*
X3444420D01*
X3456082Y11270781D01*
Y11282444D01*
X3444420Y11294107D01*
X3421094D01*
X3409431Y11282444D01*
Y11259118D01*
X3421094Y11247456D01*
X1721702Y11930848D02*
X1710039Y11942511D01*
Y11965837D01*
X1721702Y11977500D01*
X1768354D01*
X1780017Y11965837D01*
Y11942511D01*
X1768354Y11930848D01*
X1710039Y11860871D02*
Y11907523D01*
X1745028D01*
X1733365Y11884197D01*
Y11872534D01*
X1745028Y11860871D01*
X1768354D01*
X1780017Y11872534D01*
Y11895860D01*
X1768354Y11907523D01*
X1710039Y11790893D02*
Y11837545D01*
X1745028D01*
X1733365Y11814219D01*
Y11802556D01*
X1745028Y11790893D01*
X1768354D01*
X1780017Y11802556D01*
Y11825882D01*
X1768354Y11837545D01*
X39649152Y9204185D02*
X39637488Y9192522D01*
X39614163D01*
X39602499Y9204185D01*
Y9250837D01*
X39614163Y9262500D01*
X39637488D01*
X39649152Y9250837D01*
X39719128Y9192522D02*
X39695804Y9204185D01*
X39672479Y9227511D01*
Y9250837D01*
X39684140Y9262500D01*
X39707465D01*
X39719128Y9250837D01*
Y9239174D01*
X39707465Y9227511D01*
X39672479D01*
X39742456Y9204185D02*
X39754117Y9192522D01*
X39777444D01*
X39789108Y9204185D01*
Y9215848D01*
X39777444Y9227511D01*
X39765781D01*
X39777444D01*
X39789108Y9239174D01*
Y9250837D01*
X39777444Y9262500D01*
X39754117D01*
X39742456Y9250837D01*
X38195847Y10600815D02*
X38207510Y10612478D01*
X38230838D01*
X38242499Y10600815D01*
Y10554163D01*
X38230838Y10542500D01*
X38207510D01*
X38195847Y10554163D01*
X38125870Y10612478D02*
X38172522D01*
Y10577489D01*
X38149197Y10589152D01*
X38137534D01*
X38125870Y10577489D01*
Y10554163D01*
X38137534Y10542500D01*
X38160858D01*
X38172522Y10554163D01*
X38102545Y10600815D02*
X38090881Y10612478D01*
X38067557D01*
X38055893Y10600815D01*
Y10589152D01*
X38067557Y10577489D01*
X38079218D01*
X38067557D01*
X38055893Y10565826D01*
Y10554163D01*
X38067557Y10542500D01*
X38090881D01*
X38102545Y10554163D01*
X41245847Y8683315D02*
X41257510Y8694978D01*
X41280838D01*
X41292499Y8683315D01*
Y8636663D01*
X41280838Y8625000D01*
X41257510D01*
X41245847Y8636663D01*
X41175870Y8694978D02*
X41222522D01*
Y8659989D01*
X41199197Y8671652D01*
X41187534D01*
X41175870Y8659989D01*
Y8636663D01*
X41187534Y8625000D01*
X41210858D01*
X41222522Y8636663D01*
X41117557Y8625000D02*
Y8694978D01*
X41152545Y8659989D01*
X41105893D01*
X38569186Y10528349D02*
X38557523Y10540011D01*
Y10563337D01*
X38569186Y10575000D01*
X38615836D01*
X38627499Y10563337D01*
Y10540011D01*
X38615836Y10528349D01*
X38557523Y10458371D02*
Y10505023D01*
X38592511D01*
X38580847Y10481697D01*
Y10470034D01*
X38592511Y10458371D01*
X38615836D01*
X38627499Y10470034D01*
Y10493360D01*
X38615836Y10505023D01*
X38569186Y10435045D02*
X38557523Y10423382D01*
Y10400056D01*
X38569186Y10388393D01*
X38580847D01*
X38592511Y10400056D01*
X38604175Y10388393D01*
X38615836D01*
X38627499Y10400056D01*
Y10423382D01*
X38615836Y10435045D01*
X38604175D01*
X38592511Y10423382D01*
X38580847Y10435045D01*
X38569186D01*
X38592511Y10423382D02*
Y10400056D01*
X38435815Y10076652D02*
X38447476Y10064989D01*
Y10041663D01*
X38435815Y10030000D01*
X38389163D01*
X38377499Y10041663D01*
Y10064989D01*
X38389163Y10076652D01*
X38447476Y10146629D02*
X38435815Y10123304D01*
X38412488Y10099978D01*
X38389163D01*
X38377499Y10111641D01*
Y10134967D01*
X38389163Y10146629D01*
X38400824D01*
X38412488Y10134967D01*
Y10099978D01*
X38447476Y10216607D02*
X38435815Y10193281D01*
X38412488Y10169955D01*
X38389163D01*
X38377499Y10181618D01*
Y10204944D01*
X38389163Y10216607D01*
X38400824D01*
X38412488Y10204944D01*
Y10169955D01*
X40251651Y8494185D02*
X40239990Y8482522D01*
X40216663D01*
X40204999Y8494185D01*
Y8540837D01*
X40216663Y8552500D01*
X40239990D01*
X40251651Y8540837D01*
X40321628Y8482522D02*
X40274979D01*
Y8517511D01*
X40298303Y8505848D01*
X40309967D01*
X40321628Y8517511D01*
Y8540837D01*
X40309967Y8552500D01*
X40286642D01*
X40274979Y8540837D01*
X40391608Y8482522D02*
X40368280Y8494185D01*
X40344955Y8517511D01*
Y8540837D01*
X40356619Y8552500D01*
X40379944D01*
X40391608Y8540837D01*
Y8529174D01*
X40379944Y8517511D01*
X40344955D01*
D128*
X4549996Y26770032D02*
D03*
X10630030Y3237437D02*
D03*
X22252525Y354958D02*
D03*
X27417480Y722556D02*
D03*
X15270029Y3044938D02*
D03*
X13275002Y3049946D02*
D03*
X9272479Y3097446D02*
D03*
X7067518Y3259921D02*
D03*
X5047488Y3249949D02*
D03*
X3482512Y3239962D02*
D03*
X1272519Y3112447D02*
D03*
X16547519Y26722540D02*
D03*
X14554636Y26720023D02*
D03*
X12547513Y26752530D02*
D03*
X10545009Y26760010D02*
D03*
X2545071Y26745105D02*
D03*
X8545014Y26727536D02*
D03*
X6552508Y26790033D02*
D03*
D129*
X10162468Y419981D02*
D03*
X3737546Y410009D02*
D03*
X9947475Y28795013D02*
D03*
X4057522Y29072491D02*
D03*
X27369974Y29327505D02*
D03*
X20537526Y29600009D02*
D03*
%TF.MD5,f57396c78e25d4cc0e5f89dafa2b710f*%
M02*
