%TF.GenerationSoftware,Altium Limited,Altium Designer,25.3.3 (18)*%
G04 Layer_Color=32896*
%FSLAX45Y45*%
%MOMM*%
%TF.SameCoordinates,A4CA6E92-6A9D-4088-ADF9-EEBE24E4F9EE*%
%TF.FilePolarity,Positive*%
%TF.FileFunction,Legend,Bot*%
%TF.Part,Single*%
G01*
G75*
%TA.AperFunction,NonConductor*%
%ADD69C,0.25000*%
%ADD71C,0.20000*%
%ADD72C,0.25400*%
%ADD74C,0.76200*%
%ADD81R,1.72500X0.67500*%
%ADD82R,1.00000X1.00000*%
%ADD83R,1.00000X1.00000*%
%ADD84R,1.00000X1.00000*%
%ADD85R,1.00000X1.00000*%
%ADD86R,1.00000X1.00000*%
G36*
X25264999Y6935000D02*
Y6389400D01*
X25264999Y5522501D01*
X24187498Y4445000D01*
X17875000D01*
Y4877500D01*
X19932500Y6935001D01*
X25264999Y6935000D01*
D02*
G37*
G36*
X32467499Y7067500D02*
Y4772459D01*
X32170041Y4475000D01*
X31677499D01*
Y6867098D01*
X30107501D01*
Y4475000D01*
X25917499D01*
Y6445227D01*
X26432272Y6960000D01*
X28914999D01*
X29587500Y7632500D01*
X31902499D01*
X32467499Y7067500D01*
D02*
G37*
G36*
X25150000Y24475000D02*
X25150000Y23608099D01*
Y23062500D01*
X19817500Y23062498D01*
X17760001Y25120000D01*
Y25552499D01*
X24072499D01*
X25150000Y24475000D01*
D02*
G37*
G36*
X32352499Y25225041D02*
Y22930000D01*
X31787500Y22364999D01*
X29472501D01*
X28800000Y23037500D01*
X26317273D01*
X25802499Y23552274D01*
Y25522501D01*
X29992499D01*
Y23130402D01*
X31562500D01*
Y25522501D01*
X32055042D01*
X32352499Y25225041D01*
D02*
G37*
G36*
X37647733Y17007265D02*
X37647736Y13750235D01*
X37097501Y13200000D01*
Y12836307D01*
X37545001Y12388806D01*
Y11602500D01*
X36329999Y10387500D01*
X31185001D01*
X28792499Y12780000D01*
X27350000D01*
Y17192500D01*
X28747501D01*
X31117499Y19562500D01*
X35092499D01*
X37647733Y17007265D01*
D02*
G37*
%LPC*%
G36*
X31646249Y17877499D02*
X30992499D01*
X30745001Y17630000D01*
Y16216251D01*
X30989999Y15971249D01*
X31639999D01*
X31897501Y16228751D01*
Y17626250D01*
X31646249Y17877499D01*
D02*
G37*
G36*
X35288751Y17877499D02*
X34635001D01*
X34387500Y17630000D01*
Y16216251D01*
X34632501Y15971249D01*
X35282501D01*
X35539999Y16228749D01*
Y17626250D01*
X35288751Y17877499D01*
D02*
G37*
G36*
X31658749Y14127499D02*
X31004999D01*
X30757501Y13880000D01*
Y12466250D01*
X31002499Y12221250D01*
X31652499D01*
X31910001Y12478749D01*
Y13876250D01*
X31658749Y14127499D01*
D02*
G37*
G36*
X35293750Y14114999D02*
X34639999D01*
X34392499Y13867500D01*
Y12453751D01*
X34637500Y12208750D01*
X35287500D01*
X35545001Y12466250D01*
Y13863751D01*
X35293750Y14114999D01*
D02*
G37*
%LPD*%
D69*
X927000Y11760000D02*
G03*
X927000Y11760000I-12500J0D01*
G01*
X40067499Y8954500D02*
G03*
X40067499Y8954500I-12500J0D01*
G01*
D71*
X5275100Y29343701D02*
X5579900D01*
Y29191299D02*
Y29343701D01*
X5275100Y29191299D02*
Y29343701D01*
Y29191299D02*
X5579900D01*
X8462600Y28706299D02*
X8767400D01*
X8462600D02*
Y28858701D01*
X8767400Y28706299D02*
Y28858701D01*
X8462600D02*
X8767400D01*
X4036200Y475100D02*
Y779900D01*
X3883800Y475100D02*
X4036200D01*
X3883800Y779900D02*
X4036200D01*
X3883800Y475100D02*
Y779900D01*
X25727600Y613800D02*
X26032401D01*
X25727600D02*
Y766200D01*
X26032401Y613800D02*
Y766200D01*
X25727600D02*
X26032401D01*
X23775101Y688700D02*
X24079900D01*
Y536300D02*
Y688700D01*
X23775101Y536300D02*
Y688700D01*
Y536300D02*
X24079900D01*
X8753700Y495100D02*
Y799900D01*
X8601300Y495100D02*
X8753700D01*
X8601300Y799900D02*
X8753700D01*
X8601300Y495100D02*
Y799900D01*
X17018700Y1390100D02*
Y1694900D01*
X16866299Y1390100D02*
X17018700D01*
X16866299Y1694900D02*
X17018700D01*
X16866299Y1390100D02*
Y1694900D01*
X17206200Y1387600D02*
Y1692400D01*
X17053799Y1387600D02*
X17206200D01*
X17053799Y1692400D02*
X17206200D01*
X17053799Y1387600D02*
Y1692400D01*
X16916292Y28307593D02*
Y28612393D01*
X17068692D01*
X16916292Y28307593D02*
X17068692D01*
Y28612393D01*
X16718793Y28312592D02*
Y28617392D01*
X16871191D01*
X16718793Y28312592D02*
X16871191D01*
Y28617392D01*
X17051300Y1055100D02*
Y1359900D01*
X17203700D01*
X17051300Y1055100D02*
X17203700D01*
Y1359900D01*
X16866039Y1053815D02*
Y1358615D01*
X17018439D01*
X16866039Y1053815D02*
X17018439D01*
Y1358615D01*
X16868692Y28645093D02*
Y28949893D01*
X16716292Y28645093D02*
X16868692D01*
X16716292Y28949893D02*
X16868692D01*
X16716292Y28645093D02*
Y28949893D01*
X26357599Y29843701D02*
X26662399D01*
Y29691299D02*
Y29843701D01*
X26357599Y29691299D02*
Y29843701D01*
Y29691299D02*
X26662399D01*
X22146317Y28660101D02*
Y28964899D01*
X22298717D01*
X22146317Y28660101D02*
X22298717D01*
Y28964899D01*
X17066193Y28645093D02*
Y28949893D01*
X16913792Y28645093D02*
X17066193D01*
X16913792Y28949893D02*
X17066193D01*
X16913792Y28645093D02*
Y28949893D01*
X28846637Y2760100D02*
Y3064900D01*
X28999039D01*
X28846637Y2760100D02*
X28999039D01*
Y3064900D01*
X27807837Y2755000D02*
Y3280000D01*
Y2755000D02*
X28277838D01*
X27807837Y3280000D02*
X28277838D01*
Y2755000D02*
Y3280000D01*
X28302838Y2755000D02*
Y3280000D01*
Y2755000D02*
X28772839D01*
X28302838Y3280000D02*
X28772839D01*
Y2755000D02*
Y3280000D01*
X28132938Y2708700D02*
X28437738D01*
Y2556300D02*
Y2708700D01*
X28132938Y2556300D02*
Y2708700D01*
Y2556300D02*
X28437738D01*
X29072501Y26804999D02*
Y27329999D01*
Y26804999D02*
X29542499D01*
X29072501Y27329999D02*
X29542499D01*
Y26804999D02*
Y27329999D01*
X4445000Y26835001D02*
X4655000D01*
X4445000Y26362500D02*
X4655000D01*
Y26835001D01*
X4445000Y26362500D02*
Y26835001D01*
X4547500Y26497498D02*
Y26627499D01*
X4477500D02*
X4547500D01*
X4476789Y26556790D02*
X4618211D01*
X4476789D02*
X4547500Y26627499D01*
X4617500D01*
X4547500D02*
X4618211Y26556790D01*
X4547500Y26627499D02*
Y26687500D01*
X22022501Y29352936D02*
X22332500D01*
Y29432938D01*
X22022501Y29352936D02*
Y29432938D01*
X22332500D01*
X22197501Y27464999D02*
X23050000D01*
X22197501Y27470001D02*
Y27875000D01*
X23050000Y27464999D02*
Y27875000D01*
X22197501D02*
X23050000D01*
X26707501Y27335001D02*
X27560001D01*
Y26925000D02*
Y27329999D01*
X26707501Y26925000D02*
Y27335001D01*
Y26925000D02*
X27560001D01*
X27245001Y27912500D02*
X28097501D01*
Y27502499D02*
Y27907501D01*
X27245001Y27502499D02*
Y27912500D01*
Y27502499D02*
X28097501D01*
X807500Y11442500D02*
X1402500D01*
Y10682500D02*
Y11442500D01*
X807500Y10682500D02*
X1402500D01*
X807500D02*
Y11442500D01*
X10525000Y3172500D02*
X10735000D01*
X10525000Y3645000D02*
X10735000D01*
X10525000Y3172500D02*
Y3645000D01*
X10735000Y3172500D02*
Y3645000D01*
X10632500Y3380000D02*
Y3510001D01*
Y3380000D02*
X10702500D01*
X10561789Y3450711D02*
X10703211D01*
X10632500Y3380000D02*
X10703211Y3450711D01*
X10562500Y3380000D02*
X10632500D01*
X10561789Y3450711D02*
X10632500Y3380000D01*
Y3320001D02*
Y3380000D01*
X26982501Y810000D02*
X27292499D01*
Y890000D01*
X26982501Y810000D02*
Y890000D01*
X27292499D01*
X23047501Y457500D02*
X23572501D01*
Y927500D01*
X23047501Y457500D02*
Y927500D01*
X23572501D01*
X23047501Y955000D02*
X23572501D01*
Y1425000D01*
X23047501Y955000D02*
Y1425000D01*
X23572501D01*
X23775101Y853800D02*
X24079900D01*
X23775101D02*
Y1006200D01*
X24079900Y853800D02*
Y1006200D01*
X23775101D02*
X24079900D01*
X25730099Y1018700D02*
X26034900D01*
Y866300D02*
Y1018700D01*
X25730099Y866300D02*
Y1018700D01*
Y866300D02*
X26034900D01*
X26235001Y927500D02*
X26760001D01*
X26235001Y457500D02*
Y927500D01*
X26760001Y457500D02*
Y927500D01*
X26235001Y457500D02*
X26760001D01*
X21862498Y767500D02*
X22102499D01*
Y292500D02*
Y767500D01*
X21862498Y292500D02*
X22102499D01*
X21862498D02*
Y767500D01*
X26300000Y1787500D02*
Y2640000D01*
X25889999Y1787500D02*
X26300000D01*
X25895001Y2640000D02*
X26300000D01*
X25889999Y1787500D02*
Y2640000D01*
X22675000Y1727500D02*
Y2580000D01*
X22680000D02*
X23085001D01*
X22675000Y1727500D02*
X23085001D01*
Y2580000D01*
X21789999Y1630000D02*
Y2482500D01*
X21795000D02*
X22200000D01*
X21789999Y1630000D02*
X22200000D01*
Y2482500D01*
X27504205Y3157500D02*
X27686707D01*
X27504205Y2575000D02*
Y3157500D01*
Y2575000D02*
X27686707D01*
Y3157500D01*
X27219205D02*
X27401706D01*
X27219205Y2575000D02*
Y3157500D01*
Y2575000D02*
X27401706D01*
Y3157500D01*
X19030000Y3032500D02*
X19212500D01*
X19030000Y2450000D02*
Y3032500D01*
Y2450000D02*
X19212500D01*
Y3032500D01*
X19289999D02*
X19472501D01*
X19289999Y2450000D02*
Y3032500D01*
Y2450000D02*
X19472501D01*
Y3032500D01*
X5912500Y567500D02*
X6222500D01*
Y647500D01*
X5912500Y567500D02*
Y647500D01*
X6222500D01*
X4063800Y477600D02*
Y782400D01*
X4216200D01*
X4063800Y477600D02*
X4216200D01*
Y782400D01*
X8798800Y497600D02*
Y802400D01*
X8951200D01*
X8798800Y497600D02*
X8951200D01*
Y802400D01*
X10095000Y550000D02*
Y790000D01*
X10570000D01*
Y550000D02*
Y790000D01*
X10095000Y550000D02*
X10570000D01*
X10097500Y315000D02*
Y525000D01*
X10570000Y315000D02*
Y525000D01*
X10097500D02*
X10570000D01*
X10097500Y315000D02*
X10570000D01*
X10305000Y417500D02*
X10435001D01*
X10305000Y347500D02*
Y417500D01*
X10375711Y346789D02*
Y488211D01*
X10305000Y417500D02*
X10375711Y346789D01*
X10305000Y417500D02*
Y487500D01*
Y417500D02*
X10375711Y488211D01*
X10245001Y417500D02*
X10305000D01*
X3330000Y552500D02*
X3805000D01*
Y792500D01*
X3330000D02*
X3805000D01*
X3330000Y552500D02*
Y792500D01*
X3802500Y305000D02*
Y515000D01*
X3330000Y305000D02*
Y515000D01*
Y305000D02*
X3802500D01*
X3330000Y515000D02*
X3802500D01*
X3464999Y412500D02*
X3595000D01*
Y482500D01*
X3524289Y341789D02*
Y483211D01*
X3595000Y412500D01*
Y342500D02*
Y412500D01*
X3524289Y341789D02*
X3595000Y412500D01*
X3654999D01*
X5547500Y647500D02*
X5857500D01*
X5547500Y567500D02*
Y647500D01*
X5857500Y567500D02*
Y647500D01*
X5547500Y567500D02*
X5857500D01*
X22147501Y290000D02*
X22357500D01*
X22147501Y762500D02*
X22357500D01*
X22147501Y290000D02*
Y762500D01*
X22357500Y290000D02*
Y762500D01*
X22255000Y497500D02*
Y627501D01*
Y497500D02*
X22325000D01*
X22184290Y568211D02*
X22325711D01*
X22255000Y497500D02*
X22325711Y568211D01*
X22185001Y497500D02*
X22255000D01*
X22184290Y568211D02*
X22255000Y497500D01*
Y437501D02*
Y497500D01*
X27312500Y787500D02*
X27522501D01*
X27312500Y315000D02*
X27522501D01*
Y787500D01*
X27312500Y315000D02*
Y787500D01*
X27414999Y449999D02*
Y580000D01*
X27345001D02*
X27414999D01*
X27344290Y509289D02*
X27485712D01*
X27344290D02*
X27414999Y580000D01*
X27485001D01*
X27414999D02*
X27485712Y509289D01*
X27414999Y580000D02*
Y639999D01*
X27552499Y785000D02*
X27792499D01*
Y310000D02*
Y785000D01*
X27552499Y310000D02*
X27792499D01*
X27552499D02*
Y785000D01*
X9262500Y1102500D02*
X9572500D01*
Y1182500D01*
X9262500Y1102500D02*
Y1182500D01*
X9572500D01*
X3560000Y1120000D02*
X3870000D01*
Y1200000D01*
X3560000Y1120000D02*
Y1200000D01*
X3870000D01*
X20364999Y2650000D02*
Y3175000D01*
X19895000D02*
X20364999D01*
X19895000Y2650000D02*
X20364999D01*
X19895000D02*
Y3175000D01*
X20860001Y2650000D02*
Y3175000D01*
X20389999D02*
X20860001D01*
X20389999Y2650000D02*
X20860001D01*
X20389999D02*
Y3175000D01*
X9495000Y315000D02*
Y840000D01*
X9025000D02*
X9495000D01*
X9025000Y315000D02*
X9495000D01*
X9025000D02*
Y840000D01*
X9987500Y312500D02*
Y837500D01*
X9517500D02*
X9987500D01*
X9517500Y312500D02*
X9987500D01*
X9517500D02*
Y837500D01*
X26235001Y960000D02*
X26760001D01*
Y1430000D01*
X26235001Y960000D02*
Y1430000D01*
X26760001D01*
X4724661Y295000D02*
Y820000D01*
X4254661D02*
X4724661D01*
X4254661Y295000D02*
X4724661D01*
X4254661D02*
Y820000D01*
X5217161Y295000D02*
Y820000D01*
X4747161D02*
X5217161D01*
X4747161Y295000D02*
X5217161D01*
X4747161D02*
Y820000D01*
X15670100Y3856200D02*
X15974899D01*
Y3703800D02*
Y3856200D01*
X15670100Y3703800D02*
Y3856200D01*
Y3703800D02*
X15974899D01*
X15164999Y2980000D02*
X15375000D01*
X15164999Y3452500D02*
X15375000D01*
X15164999Y2980000D02*
Y3452500D01*
X15375000Y2980000D02*
Y3452500D01*
X15272501Y3187500D02*
Y3317501D01*
Y3187500D02*
X15342500D01*
X15201788Y3258211D02*
X15343211D01*
X15272501Y3187500D02*
X15343211Y3258211D01*
X15202499Y3187500D02*
X15272501D01*
X15201788Y3258211D02*
X15272501Y3187500D01*
Y3127501D02*
Y3187500D01*
X15196300Y3532600D02*
Y3837400D01*
X15348700D01*
X15196300Y3532600D02*
X15348700D01*
Y3837400D01*
X13170000Y2985000D02*
X13380000D01*
X13170000Y3457500D02*
X13380000D01*
X13170000Y2985000D02*
Y3457500D01*
X13380000Y2985000D02*
Y3457500D01*
X13277499Y3192500D02*
Y3322501D01*
Y3192500D02*
X13347501D01*
X13206789Y3263211D02*
X13348212D01*
X13277499Y3192500D02*
X13348212Y3263211D01*
X13207500Y3192500D02*
X13277499D01*
X13206789Y3263211D02*
X13277499Y3192500D01*
Y3132501D02*
Y3192500D01*
X13198801Y3512600D02*
Y3817400D01*
X13351199D01*
X13198801Y3512600D02*
X13351199D01*
Y3817400D01*
X11196300Y3535100D02*
Y3839900D01*
X11348700D01*
X11196300Y3535100D02*
X11348700D01*
Y3839900D01*
X11391300Y3372600D02*
Y3677400D01*
X11543700D01*
X11391300Y3372600D02*
X11543700D01*
Y3677400D01*
X9167500Y3032500D02*
X9377500D01*
X9167500Y3505000D02*
X9377500D01*
X9167500Y3032500D02*
Y3505000D01*
X9377500Y3032500D02*
Y3505000D01*
X9275000Y3240000D02*
Y3370001D01*
Y3240000D02*
X9345000D01*
X9204289Y3310711D02*
X9345711D01*
X9275000Y3240000D02*
X9345711Y3310711D01*
X9205000Y3240000D02*
X9275000D01*
X9204289Y3310711D02*
X9275000Y3240000D01*
Y3180001D02*
Y3240000D01*
X6962500Y3195000D02*
X7172500D01*
X6962500Y3667500D02*
X7172500D01*
X6962500Y3195000D02*
Y3667500D01*
X7172500Y3195000D02*
Y3667500D01*
X7070000Y3402500D02*
Y3532501D01*
Y3402500D02*
X7140000D01*
X6999289Y3473211D02*
X7140711D01*
X7070000Y3402500D02*
X7140711Y3473211D01*
X7000000Y3402500D02*
X7070000D01*
X6999289Y3473211D02*
X7070000Y3402500D01*
Y3342501D02*
Y3402500D01*
X6771300Y3202600D02*
Y3507400D01*
X6923700D01*
X6771300Y3202600D02*
X6923700D01*
Y3507400D01*
X7196300Y3555100D02*
Y3859900D01*
X7348700D01*
X7196300Y3555100D02*
X7348700D01*
Y3859900D01*
X4751300Y3190100D02*
Y3494900D01*
X4903700D01*
X4751300Y3190100D02*
X4903700D01*
Y3494900D01*
X4751300Y3752600D02*
Y4057400D01*
X4903700D01*
X4751300Y3752600D02*
X4903700D01*
Y4057400D01*
X4942500Y3185000D02*
X5152500D01*
X4942500Y3657500D02*
X5152500D01*
X4942500Y3185000D02*
Y3657500D01*
X5152500Y3185000D02*
Y3657500D01*
X5050000Y3392500D02*
Y3522501D01*
Y3392500D02*
X5120000D01*
X4979289Y3463211D02*
X5120711D01*
X5050000Y3392500D02*
X5120711Y3463211D01*
X4980000Y3392500D02*
X5050000D01*
X4979289Y3463211D02*
X5050000Y3392500D01*
Y3332501D02*
Y3392500D01*
X3665100Y3861200D02*
X3969900D01*
Y3708800D02*
Y3861200D01*
X3665100Y3708800D02*
Y3861200D01*
Y3708800D02*
X3969900D01*
X3377500Y3175000D02*
X3587500D01*
X3377500Y3647500D02*
X3587500D01*
X3377500Y3175000D02*
Y3647500D01*
X3587500Y3175000D02*
Y3647500D01*
X3485000Y3382500D02*
Y3512501D01*
Y3382500D02*
X3555000D01*
X3414289Y3453211D02*
X3555711D01*
X3485000Y3382500D02*
X3555711Y3453211D01*
X3415000Y3382500D02*
X3485000D01*
X3414289Y3453211D02*
X3485000Y3382500D01*
Y3322501D02*
Y3382500D01*
X1167500Y3047500D02*
X1377500D01*
X1167500Y3520000D02*
X1377500D01*
X1167500Y3047500D02*
Y3520000D01*
X1377500Y3047500D02*
Y3520000D01*
X1275000Y3255000D02*
Y3385001D01*
Y3255000D02*
X1345000D01*
X1204289Y3325711D02*
X1345711D01*
X1275000Y3255000D02*
X1345711Y3325711D01*
X1205000Y3255000D02*
X1275000D01*
X1204289Y3325711D02*
X1275000Y3255000D01*
Y3195001D02*
Y3255000D01*
X2012500Y2482500D02*
X2195000D01*
X2012500Y1900000D02*
Y2482500D01*
Y1900000D02*
X2195000D01*
Y2482500D01*
X2612500Y2485000D02*
X2795000D01*
X2612500Y1902500D02*
Y2485000D01*
Y1902500D02*
X2795000D01*
Y2485000D01*
X2912500D02*
X3095000D01*
X2912500Y1902500D02*
Y2485000D01*
Y1902500D02*
X3095000D01*
Y2485000D01*
X1715000Y2477500D02*
X1897500D01*
X1715000Y1895000D02*
Y2477500D01*
Y1895000D02*
X1897500D01*
Y2477500D01*
X11402500Y2515000D02*
X11585000D01*
X11402500Y1932500D02*
Y2515000D01*
Y1932500D02*
X11585000D01*
Y2515000D01*
X11100000Y2517500D02*
X11282500D01*
X11100000Y1935000D02*
Y2517500D01*
Y1935000D02*
X11282500D01*
Y2517500D01*
X12005000Y2542500D02*
X12187500D01*
X12005000Y1960000D02*
Y2542500D01*
Y1960000D02*
X12187500D01*
Y2542500D01*
X11705000D02*
X11887500D01*
X11705000Y1960000D02*
Y2542500D01*
Y1960000D02*
X11887500D01*
Y2542500D01*
X31351199Y3540100D02*
Y3844900D01*
X31198801Y3540100D02*
X31351199D01*
X31198801Y3844900D02*
X31351199D01*
X31198801Y3540100D02*
Y3844900D01*
X29351199Y3540100D02*
Y3844900D01*
X29198801Y3540100D02*
X29351199D01*
X29198801Y3844900D02*
X29351199D01*
X29198801Y3540100D02*
Y3844900D01*
X27351199Y3540100D02*
Y3844900D01*
X27198801Y3540100D02*
X27351199D01*
X27198801Y3844900D02*
X27351199D01*
X27198801Y3540100D02*
Y3844900D01*
X25351199Y3540100D02*
Y3844900D01*
X25198801Y3540100D02*
X25351199D01*
X25198801Y3844900D02*
X25351199D01*
X25198801Y3540100D02*
Y3844900D01*
X17196300Y3540100D02*
Y3844900D01*
X17348700D01*
X17196300Y3540100D02*
X17348700D01*
Y3844900D01*
X23198801Y3537600D02*
Y3842400D01*
X23351199D01*
X23198801Y3537600D02*
X23351199D01*
Y3842400D01*
X19193800Y3540100D02*
Y3844900D01*
X19346201D01*
X19193800Y3540100D02*
X19346201D01*
Y3844900D01*
X1650000Y10160000D02*
X1730000D01*
X1650000Y10890000D02*
X1730000D01*
X2030000Y10160000D02*
X2110000D01*
X1650000D02*
Y10890000D01*
X2030000D02*
X2110000D01*
Y10160000D02*
Y10890000D01*
X22685001Y29590436D02*
X23210001D01*
X22685001Y29120438D02*
Y29590436D01*
X23210001Y29120438D02*
Y29590436D01*
X22685001Y29120438D02*
X23210001D01*
X39877499Y8210000D02*
X40607501D01*
X39877499Y8130000D02*
Y8210000D01*
Y7750000D02*
X40607501D01*
Y8130000D02*
Y8210000D01*
X39877499Y7750000D02*
Y7830000D01*
X40607501Y7750000D02*
Y7830000D01*
X39216199Y8515100D02*
Y8819900D01*
X39063800Y8515100D02*
X39216199D01*
X39063800Y8819900D02*
X39216199D01*
X39063800Y8515100D02*
Y8819900D01*
X573800Y12230100D02*
Y12534900D01*
X726200D01*
X573800Y12230100D02*
X726200D01*
Y12534900D01*
X1488800Y11730100D02*
Y12034900D01*
X1641200D01*
X1488800Y11730100D02*
X1641200D01*
Y12034900D01*
X1613700Y10615100D02*
Y10919900D01*
X1461300Y10615100D02*
X1613700D01*
X1461300Y10919900D02*
X1613700D01*
X1461300Y10615100D02*
Y10919900D01*
X2308700Y10627600D02*
Y10932400D01*
X2156300Y10627600D02*
X2308700D01*
X2156300Y10932400D02*
X2308700D01*
X2156300Y10627600D02*
Y10932400D01*
X351200Y12227600D02*
Y12532400D01*
X198800Y12227600D02*
X351200D01*
X198800Y12532400D02*
X351200D01*
X198800Y12227600D02*
Y12532400D01*
X3708700Y11487600D02*
Y11792400D01*
X3556300Y11487600D02*
X3708700D01*
X3556300Y11792400D02*
X3708700D01*
X3556300Y11487600D02*
Y11792400D01*
X3375100Y12008800D02*
X3679900D01*
X3375100D02*
Y12161200D01*
X3679900Y12008800D02*
Y12161200D01*
X3375100D02*
X3679900D01*
X39042499Y8855000D02*
X39517499D01*
Y9095000D01*
X39042499D02*
X39517499D01*
X39042499Y8855000D02*
Y9095000D01*
X1159100Y12693900D02*
Y13151100D01*
X955900Y12693900D02*
X1159100D01*
X955900Y13151100D02*
X1159100D01*
X955900Y12693900D02*
Y13151100D01*
X2335000Y11255000D02*
Y11985000D01*
X2255000D02*
X2335000D01*
X1875000Y11255000D02*
Y11985000D01*
X2255000Y11255000D02*
X2335000D01*
X1875000Y11985000D02*
X1955000D01*
X1875000Y11255000D02*
X1955000D01*
X3883700Y11487600D02*
Y11792400D01*
X3731300Y11487600D02*
X3883700D01*
X3731300Y11792400D02*
X3883700D01*
X3731300Y11487600D02*
Y11792400D01*
X40150101Y8626300D02*
X40454901D01*
X40150101D02*
Y8778700D01*
X40454901Y8626300D02*
Y8778700D01*
X40150101D02*
X40454901D01*
X7867600Y27736200D02*
X8172400D01*
Y27583801D02*
Y27736200D01*
X7867600Y27583801D02*
Y27736200D01*
Y27583801D02*
X8172400D01*
X8215000Y27939999D02*
Y28179999D01*
X7740000Y27939999D02*
X8215000D01*
X7740000D02*
Y28179999D01*
X8215000D01*
X7500000Y28395001D02*
X7810000D01*
Y28475000D01*
X7500000Y28395001D02*
Y28475000D01*
X7810000D01*
X7865000Y28397501D02*
X8175000D01*
Y28477499D01*
X7865000Y28397501D02*
Y28477499D01*
X8175000D01*
X8782500Y28417499D02*
X9092500D01*
Y28497501D01*
X8782500Y28417499D02*
Y28497501D01*
X9092500D01*
X3905000Y28622501D02*
X4215000D01*
X3905000Y28542499D02*
Y28622501D01*
X4215000Y28542499D02*
Y28622501D01*
X3905000Y28542499D02*
X4215000D01*
X9880000Y28922501D02*
Y29162500D01*
X10355000D01*
Y28922501D02*
Y29162500D01*
X9880000Y28922501D02*
X10355000D01*
X10030001Y28792499D02*
X10090000D01*
X10160711Y28863211D01*
X10090000Y28792499D02*
Y28862500D01*
Y28792499D02*
X10160711Y28721790D01*
Y28863211D01*
X10090000Y28722501D02*
Y28792499D01*
X10220001D01*
X9882500Y28689999D02*
X10355000D01*
X9882500Y28900000D02*
X10355000D01*
Y28689999D02*
Y28900000D01*
X9882500Y28689999D02*
Y28900000D01*
X3647500Y29202499D02*
Y29442499D01*
X4122500D01*
Y29202499D02*
Y29442499D01*
X3647500Y29202499D02*
X4122500D01*
X3915000Y29075000D02*
X3974999D01*
X3844289Y29004288D02*
X3915000Y29075000D01*
Y29004999D02*
Y29075000D01*
X3844289Y29145712D02*
X3915000Y29075000D01*
X3844289Y29004288D02*
Y29145712D01*
X3915000Y29075000D02*
Y29145001D01*
X3784999Y29075000D02*
X3915000D01*
X3650000Y29177499D02*
X4122500D01*
X3650000Y28967499D02*
X4122500D01*
X3650000D02*
Y29177499D01*
X4122500Y28967499D02*
Y29177499D01*
X5185000Y28987500D02*
Y29512500D01*
X4715000D02*
X5185000D01*
X4715000Y28987500D02*
X5185000D01*
X4715000D02*
Y29512500D01*
X4217500Y28987500D02*
Y29512500D01*
Y28987500D02*
X4687500D01*
X4217500Y29512500D02*
X4687500D01*
Y28987500D02*
Y29512500D01*
X9817500Y28702499D02*
Y29227499D01*
X9347500D02*
X9817500D01*
X9347500Y28702499D02*
X9817500D01*
X9347500D02*
Y29227499D01*
X9322500Y28702499D02*
Y29227499D01*
X8852500D02*
X9322500D01*
X8852500Y28702499D02*
X9322500D01*
X8852500D02*
Y29227499D01*
X41552600Y8286300D02*
X41857401D01*
X41552600D02*
Y8438700D01*
X41857401Y8286300D02*
Y8438700D01*
X41552600D02*
X41857401D01*
X40372501Y8847500D02*
Y9442500D01*
X41132501D01*
Y8847500D02*
Y9442500D01*
X40372501Y8847500D02*
X41132501D01*
X27229999Y28604999D02*
Y28914999D01*
Y28604999D02*
X27310001D01*
X27229999Y28914999D02*
X27310001D01*
Y28604999D02*
Y28914999D01*
X27452502Y29325000D02*
X27512500D01*
X27583212Y29395712D01*
X27512500Y29325000D02*
Y29395001D01*
Y29325000D02*
X27583212Y29254288D01*
Y29395712D01*
X27512500Y29254999D02*
Y29325000D01*
X27642502D01*
X27304999Y29222501D02*
X27777499D01*
X27304999Y29432501D02*
X27777499D01*
Y29222501D02*
Y29432501D01*
X27304999Y29222501D02*
Y29432501D01*
X27302499Y28960001D02*
Y29200000D01*
X27777499D01*
Y28960001D02*
Y29200000D01*
X27302499Y28960001D02*
X27777499D01*
X20130000Y29722501D02*
Y29962500D01*
X20605000D01*
Y29722501D02*
Y29962500D01*
X20130000Y29722501D02*
X20605000D01*
X22682500Y28627936D02*
X23207500D01*
Y29097937D01*
X22682500Y28627936D02*
Y29097937D01*
X23207500D01*
X26179999Y29465839D02*
X26704999D01*
X26179999Y28995837D02*
Y29465839D01*
X26704999Y28995837D02*
Y29465839D01*
X26179999Y28995837D02*
X26704999D01*
X26182501Y28970837D02*
X26707501D01*
X26182501Y28500839D02*
Y28970837D01*
X26707501Y28500839D02*
Y28970837D01*
X26182501Y28500839D02*
X26707501D01*
X19422501Y26722501D02*
X19605000D01*
Y27304999D01*
X19422501D02*
X19605000D01*
X19422501Y26722501D02*
Y27304999D01*
X19662500Y26725000D02*
X19845000D01*
Y27307501D01*
X19662500D02*
X19845000D01*
X19662500Y26725000D02*
Y27307501D01*
X19792500Y27517499D02*
Y28370001D01*
X19382500Y27517499D02*
X19787500D01*
X19382500Y28370001D02*
X19792500D01*
X19382500Y27517499D02*
Y28370001D01*
X21467500Y26862500D02*
Y27387500D01*
X20997501D02*
X21467500D01*
X20997501Y26862500D02*
X21467500D01*
X20997501D02*
Y27387500D01*
X21972501Y26862500D02*
Y27387500D01*
X21502499D02*
X21972501D01*
X21502499Y26862500D02*
X21972501D01*
X21502499D02*
Y27387500D01*
X28536200Y26990100D02*
Y27294901D01*
X28383801Y26990100D02*
X28536200D01*
X28383801Y27294901D02*
X28536200D01*
X28383801Y26990100D02*
Y27294901D01*
X29035001Y26800000D02*
Y27325000D01*
X28564999D02*
X29035001D01*
X28564999Y26800000D02*
X29035001D01*
X28564999D02*
Y27325000D01*
X30189999Y27067499D02*
X30372501D01*
Y27650000D01*
X30189999D02*
X30372501D01*
X30189999Y27067499D02*
Y27650000D01*
X29962500Y27067499D02*
X30145001D01*
Y27650000D01*
X29962500D02*
X30145001D01*
X29962500Y27067499D02*
Y27650000D01*
X22421201Y26152600D02*
Y26457401D01*
X22268800Y26152600D02*
X22421201D01*
X22268800Y26457401D02*
X22421201D01*
X22268800Y26152600D02*
Y26457401D01*
X21932600Y26293701D02*
X22237399D01*
Y26141299D02*
Y26293701D01*
X21932600Y26141299D02*
Y26293701D01*
Y26141299D02*
X22237399D01*
X18423700Y26160101D02*
Y26464899D01*
X18271300Y26160101D02*
X18423700D01*
X18271300Y26464899D02*
X18423700D01*
X18271300Y26160101D02*
Y26464899D01*
X19935100Y26141299D02*
X20239900D01*
X19935100D02*
Y26293701D01*
X20239900Y26141299D02*
Y26293701D01*
X19935100D02*
X20239900D01*
X20421201Y26160101D02*
Y26464899D01*
X20268800Y26160101D02*
X20421201D01*
X20268800Y26464899D02*
X20421201D01*
X20268800Y26160101D02*
Y26464899D01*
X16545000Y26579999D02*
Y26639999D01*
Y26579999D02*
X16615710Y26509290D01*
X16545000Y26579999D02*
X16614999D01*
X16474289Y26509290D02*
X16545000Y26579999D01*
X16474289Y26509290D02*
X16615710D01*
X16475000Y26579999D02*
X16545000D01*
Y26450000D02*
Y26579999D01*
X16442500Y26314999D02*
Y26787500D01*
X16652499Y26314999D02*
Y26787500D01*
X16442500Y26314999D02*
X16652499D01*
X16442500Y26787500D02*
X16652499D01*
X14552127Y26577499D02*
Y26637500D01*
Y26577499D02*
X14622836Y26506790D01*
X14552127Y26577499D02*
X14622127D01*
X14481416Y26506790D02*
X14552127Y26577499D01*
X14481416Y26506790D02*
X14622836D01*
X14482126Y26577499D02*
X14552127D01*
Y26447498D02*
Y26577499D01*
X14449628Y26312500D02*
Y26785001D01*
X14659627Y26312500D02*
Y26785001D01*
X14449628Y26312500D02*
X14659627D01*
X14449628Y26785001D02*
X14659627D01*
X13970100Y26133801D02*
X14274899D01*
X13970100D02*
Y26286200D01*
X14274899Y26133801D02*
Y26286200D01*
X13970100D02*
X14274899D01*
X14300101Y26136301D02*
X14604900D01*
X14300101D02*
Y26288699D01*
X14604900Y26136301D02*
Y26288699D01*
X14300101D02*
X14604900D01*
X12411200Y26500101D02*
Y26804901D01*
X12258800Y26500101D02*
X12411200D01*
X12258800Y26804901D02*
X12411200D01*
X12258800Y26500101D02*
Y26804901D01*
X12545000Y26610001D02*
Y26669998D01*
Y26610001D02*
X12615711Y26539288D01*
X12545000Y26610001D02*
X12615000D01*
X12474290Y26539288D02*
X12545000Y26610001D01*
X12474290Y26539288D02*
X12615711D01*
X12475000Y26610001D02*
X12545000D01*
Y26479999D02*
Y26610001D01*
X12442500Y26345001D02*
Y26817499D01*
X12652500Y26345001D02*
Y26817499D01*
X12442500Y26345001D02*
X12652500D01*
X12442500Y26817499D02*
X12652500D01*
X12295100Y26156299D02*
X12599900D01*
X12295100D02*
Y26308701D01*
X12599900Y26156299D02*
Y26308701D01*
X12295100D02*
X12599900D01*
X11160000Y27400000D02*
Y27982501D01*
X11342500D01*
Y27400000D02*
Y27982501D01*
X11160000Y27400000D02*
X11342500D01*
X12062500D02*
Y27982501D01*
X12245000D01*
Y27400000D02*
Y27982501D01*
X12062500Y27400000D02*
X12245000D01*
X11787500Y27397501D02*
Y27979999D01*
X11970000D01*
Y27397501D02*
Y27979999D01*
X11787500Y27397501D02*
X11970000D01*
X10860000Y27400000D02*
Y27982501D01*
X11042500D01*
Y27400000D02*
Y27982501D01*
X10860000Y27400000D02*
X11042500D01*
X10285100Y26171283D02*
X10589900D01*
X10285100D02*
Y26323685D01*
X10589900Y26171283D02*
Y26323685D01*
X10285100D02*
X10589900D01*
X9955100Y26171283D02*
X10259900D01*
X9955100D02*
Y26323685D01*
X10259900Y26171283D02*
Y26323685D01*
X9955100D02*
X10259900D01*
X10413700Y26505084D02*
Y26809885D01*
X10261300Y26505084D02*
X10413700D01*
X10261300Y26809885D02*
X10413700D01*
X10261300Y26505084D02*
Y26809885D01*
X10542500Y26617484D02*
Y26677484D01*
Y26617484D02*
X10613211Y26546774D01*
X10542500Y26617484D02*
X10612500D01*
X10471789Y26546774D02*
X10542500Y26617484D01*
X10471789Y26546774D02*
X10613211D01*
X10472500Y26617484D02*
X10542500D01*
Y26487482D02*
Y26617484D01*
X10440000Y26352484D02*
Y26824985D01*
X10650000Y26352484D02*
Y26824985D01*
X10440000Y26352484D02*
X10650000D01*
X10440000Y26824985D02*
X10650000D01*
X1720000Y27400000D02*
Y27982501D01*
X1902500D01*
Y27400000D02*
Y27982501D01*
X1720000Y27400000D02*
X1902500D01*
X2920000D02*
Y27982501D01*
X3102500D01*
Y27400000D02*
Y27982501D01*
X2920000Y27400000D02*
X3102500D01*
X2657500Y27397501D02*
Y27979999D01*
X2840000D01*
Y27397501D02*
Y27979999D01*
X2657500Y27397501D02*
X2840000D01*
X2022500Y27400000D02*
Y27982501D01*
X2205000D01*
Y27400000D02*
Y27982501D01*
X2022500Y27400000D02*
X2205000D01*
X2440000Y26810001D02*
X2650000D01*
X2440000Y26337500D02*
X2650000D01*
Y26810001D01*
X2440000Y26337500D02*
Y26810001D01*
X2542500Y26472498D02*
Y26602499D01*
X2472500D02*
X2542500D01*
X2471789Y26531790D02*
X2613211D01*
X2471789D02*
X2542500Y26602499D01*
X2612500D01*
X2542500D02*
X2613211Y26531790D01*
X2542500Y26602499D02*
Y26662500D01*
X7965100Y26123801D02*
X8269900D01*
X7965100D02*
Y26276199D01*
X8269900Y26123801D02*
Y26276199D01*
X7965100D02*
X8269900D01*
X8406200Y26475101D02*
Y26779901D01*
X8253800Y26475101D02*
X8406200D01*
X8253800Y26779901D02*
X8406200D01*
X8253800Y26475101D02*
Y26779901D01*
X8292600Y26123801D02*
X8597400D01*
X8292600D02*
Y26276199D01*
X8597400Y26123801D02*
Y26276199D01*
X8292600D02*
X8597400D01*
X8542500Y26585001D02*
Y26644998D01*
Y26585001D02*
X8613211Y26514288D01*
X8542500Y26585001D02*
X8612500D01*
X8471789Y26514288D02*
X8542500Y26585001D01*
X8471789Y26514288D02*
X8613211D01*
X8472500Y26585001D02*
X8542500D01*
Y26454999D02*
Y26585001D01*
X8440000Y26320001D02*
Y26792499D01*
X8650000Y26320001D02*
Y26792499D01*
X8440000Y26320001D02*
X8650000D01*
X8440000Y26792499D02*
X8650000D01*
X6550000Y26647501D02*
Y26707501D01*
Y26647501D02*
X6620711Y26576788D01*
X6550000Y26647501D02*
X6620000D01*
X6479289Y26576788D02*
X6550000Y26647501D01*
X6479289Y26576788D02*
X6620711D01*
X6480000Y26647501D02*
X6550000D01*
Y26517499D02*
Y26647501D01*
X6447500Y26382501D02*
Y26854999D01*
X6657500Y26382501D02*
Y26854999D01*
X6447500Y26382501D02*
X6657500D01*
X6447500Y26854999D02*
X6657500D01*
X2403700Y26487601D02*
Y26792401D01*
X2251300Y26487601D02*
X2403700D01*
X2251300Y26792401D02*
X2403700D01*
X2251300Y26487601D02*
Y26792401D01*
X2295100Y26151285D02*
X2599900D01*
X2295100D02*
Y26303683D01*
X2599900Y26151285D02*
Y26303683D01*
X2295100D02*
X2599900D01*
X4004531Y11551200D02*
X4309331D01*
Y11398800D02*
Y11551200D01*
X4004531Y11398800D02*
Y11551200D01*
Y11398800D02*
X4309331D01*
X3545731Y11055101D02*
Y11359901D01*
X3698131D01*
X3545731Y11055101D02*
X3698131D01*
Y11359901D01*
X39471198Y9972600D02*
Y10277400D01*
X39318799Y9972600D02*
X39471198D01*
X39318799Y10277400D02*
X39471198D01*
X39318799Y9972600D02*
Y10277400D01*
X38960098Y10468700D02*
X39264899D01*
Y10316300D02*
Y10468700D01*
X38960098Y10316300D02*
Y10468700D01*
Y10316300D02*
X39264899D01*
X38156299Y9977600D02*
Y10282400D01*
X38308698D01*
X38156299Y9977600D02*
X38308698D01*
Y10282400D01*
X14273801Y26475101D02*
Y26779901D01*
X14426199D01*
X14273801Y26475101D02*
X14426199D01*
Y26779901D01*
X16292599Y26278699D02*
X16597400D01*
Y26126300D02*
Y26278699D01*
X16292599Y26126300D02*
Y26278699D01*
Y26126300D02*
X16597400D01*
X15965100Y26278699D02*
X16269901D01*
Y26126300D02*
Y26278699D01*
X15965100Y26126300D02*
Y26278699D01*
Y26126300D02*
X16269901D01*
X16266299Y26472601D02*
Y26777399D01*
X16418700D01*
X16266299Y26472601D02*
X16418700D01*
Y26777399D01*
X8462600Y28896301D02*
X8767400D01*
X8462600D02*
Y29048700D01*
X8767400Y28896301D02*
Y29048700D01*
X8462600D02*
X8767400D01*
X20716299Y27752600D02*
Y28057401D01*
X20868700D01*
X20716299Y27752600D02*
X20868700D01*
Y28057401D01*
X22013800Y26900101D02*
Y27204901D01*
X22166200D01*
X22013800Y26900101D02*
X22166200D01*
Y27204901D01*
X24268800Y26160101D02*
Y26464899D01*
X24421201D01*
X24268800Y26160101D02*
X24421201D01*
Y26464899D01*
X22326932Y28660538D02*
Y28965338D01*
X22479332D01*
X22326932Y28660538D02*
X22479332D01*
Y28965338D01*
X11967600Y26308701D02*
X12272400D01*
Y26156299D02*
Y26308701D01*
X11967600Y26156299D02*
Y26308701D01*
Y26156299D02*
X12272400D01*
X17932600Y26288699D02*
X18237399D01*
Y26136301D02*
Y26288699D01*
X17932600Y26136301D02*
Y26288699D01*
Y26136301D02*
X18237399D01*
X23937601Y26291199D02*
X24242400D01*
Y26138800D02*
Y26291199D01*
X23937601Y26138800D02*
Y26291199D01*
Y26138800D02*
X24242400D01*
X7867245Y27766299D02*
X8172045D01*
X7867245D02*
Y27918701D01*
X8172045Y27766299D02*
Y27918701D01*
X7867245D02*
X8172045D01*
X31927600Y26141299D02*
X32232401D01*
X31927600D02*
Y26293701D01*
X32232401Y26141299D02*
Y26293701D01*
X31927600D02*
X32232401D01*
X29922601Y26138800D02*
X30227399D01*
X29922601D02*
Y26291199D01*
X30227399Y26138800D02*
Y26291199D01*
X29922601D02*
X30227399D01*
X27930099Y26133801D02*
X28234900D01*
X27930099D02*
Y26286200D01*
X28234900Y26133801D02*
Y26286200D01*
X27930099D02*
X28234900D01*
X25932599Y26133801D02*
X26237399D01*
X25932599D02*
Y26286200D01*
X26237399Y26133801D02*
Y26286200D01*
X25932599D02*
X26237399D01*
X6295100Y26328699D02*
X6599900D01*
Y26176300D02*
Y26328699D01*
X6295100Y26176300D02*
Y26328699D01*
Y26176300D02*
X6599900D01*
X5957600Y26331201D02*
X6262400D01*
Y26178799D02*
Y26331201D01*
X5957600Y26178799D02*
Y26331201D01*
Y26178799D02*
X6262400D01*
X6268800Y26547601D02*
Y26852399D01*
X6421200D01*
X6268800Y26547601D02*
X6421200D01*
Y26852399D01*
X26357599Y29496301D02*
X26662399D01*
X26357599D02*
Y29648700D01*
X26662399Y29496301D02*
Y29648700D01*
X26357599D02*
X26662399D01*
X29973816Y27687601D02*
Y27992401D01*
X30126215D01*
X29973816Y27687601D02*
X30126215D01*
Y27992401D01*
X29576300Y26845099D02*
Y27149899D01*
X29728699D01*
X29576300Y26845099D02*
X29728699D01*
Y27149899D01*
X32423700Y26160101D02*
Y26464899D01*
X32271301Y26160101D02*
X32423700D01*
X32271301Y26464899D02*
X32423700D01*
X32271301Y26160101D02*
Y26464899D01*
X30421201Y26160101D02*
Y26464899D01*
X30268799Y26160101D02*
X30421201D01*
X30268799Y26464899D02*
X30421201D01*
X30268799Y26160101D02*
Y26464899D01*
X28423700Y26160101D02*
Y26464899D01*
X28271301Y26160101D02*
X28423700D01*
X28271301Y26464899D02*
X28423700D01*
X28271301Y26160101D02*
Y26464899D01*
X26423700Y26160101D02*
Y26464899D01*
X26271301Y26160101D02*
X26423700D01*
X26271301Y26464899D02*
X26423700D01*
X26271301Y26160101D02*
Y26464899D01*
X15111200Y2990100D02*
Y3294900D01*
X14958800Y2990100D02*
X15111200D01*
X14958800Y3294900D02*
X15111200D01*
X14958800Y2990100D02*
Y3294900D01*
X21353700Y3540100D02*
Y3844900D01*
X21201300Y3540100D02*
X21353700D01*
X21201300Y3844900D02*
X21353700D01*
X21201300Y3540100D02*
Y3844900D01*
X11655100Y3711300D02*
X11959900D01*
X11655100D02*
Y3863700D01*
X11959900Y3711300D02*
Y3863700D01*
X11655100D02*
X11959900D01*
X19671199Y2087600D02*
Y2392400D01*
X19518799Y2087600D02*
X19671199D01*
X19518799Y2392400D02*
X19671199D01*
X19518799Y2087600D02*
Y2392400D01*
X19535100Y3011300D02*
X19839900D01*
X19535100D02*
Y3163700D01*
X19839900Y3011300D02*
Y3163700D01*
X19535100D02*
X19839900D01*
X21642599Y3856200D02*
X21947400D01*
Y3703800D02*
Y3856200D01*
X21642599Y3703800D02*
Y3856200D01*
Y3703800D02*
X21947400D01*
X19670100D02*
X19974899D01*
X19670100D02*
Y3856200D01*
X19974899Y3703800D02*
Y3856200D01*
X19670100D02*
X19974899D01*
X17670100Y3703800D02*
X17974899D01*
X17670100D02*
Y3856200D01*
X17974899Y3703800D02*
Y3856200D01*
X17670100D02*
X17974899D01*
X23667599Y3708800D02*
X23972400D01*
X23667599D02*
Y3861200D01*
X23972400Y3708800D02*
Y3861200D01*
X23667599D02*
X23972400D01*
X6300100Y1878700D02*
X6604900D01*
Y1726300D02*
Y1878700D01*
X6300100Y1726300D02*
Y1878700D01*
Y1726300D02*
X6604900D01*
X6302600Y1686200D02*
X6607400D01*
Y1533800D02*
Y1686200D01*
X6302600Y1533800D02*
Y1686200D01*
Y1533800D02*
X6607400D01*
X4295100Y26318683D02*
X4599900D01*
Y26166284D02*
Y26318683D01*
X4295100Y26166284D02*
Y26318683D01*
Y26166284D02*
X4599900D01*
X31687601Y3856200D02*
X31992401D01*
Y3703800D02*
Y3856200D01*
X31687601Y3703800D02*
Y3856200D01*
Y3703800D02*
X31992401D01*
X29677600Y3856200D02*
X29982401D01*
Y3703800D02*
Y3856200D01*
X29677600Y3703800D02*
Y3856200D01*
Y3703800D02*
X29982401D01*
X27667599Y3856200D02*
X27972400D01*
Y3703800D02*
Y3856200D01*
X27667599Y3703800D02*
Y3856200D01*
Y3703800D02*
X27972400D01*
X25660101Y3856200D02*
X25964899D01*
Y3703800D02*
Y3856200D01*
X25660101Y3703800D02*
Y3856200D01*
Y3703800D02*
X25964899D01*
X27671201Y2237600D02*
Y2542400D01*
X27518799Y2237600D02*
X27671201D01*
X27518799Y2542400D02*
X27671201D01*
X27518799Y2237600D02*
Y2542400D01*
X6926200Y3757600D02*
Y4062400D01*
X6773800Y3757600D02*
X6926200D01*
X6773800Y4062400D02*
X6926200D01*
X6773800Y3757600D02*
Y4062400D01*
X3955100Y26318683D02*
X4259900D01*
Y26166284D02*
Y26318683D01*
X3955100Y26166284D02*
Y26318683D01*
Y26166284D02*
X4259900D01*
X4271300Y26520099D02*
Y26824899D01*
X4423700D01*
X4271300Y26520099D02*
X4423700D01*
Y26824899D01*
X1930100Y26306201D02*
X2234900D01*
Y26153799D02*
Y26306201D01*
X1930100Y26153799D02*
Y26306201D01*
Y26153799D02*
X2234900D01*
X13556200Y3235100D02*
Y3539900D01*
X13403799Y3235100D02*
X13556200D01*
X13403799Y3539900D02*
X13556200D01*
X13403799Y3235100D02*
Y3539900D01*
X13670100Y3691300D02*
X13974899D01*
X13670100D02*
Y3843700D01*
X13974899Y3691300D02*
Y3843700D01*
X13670100D02*
X13974899D01*
X9351200Y3540100D02*
Y3844900D01*
X9198800Y3540100D02*
X9351200D01*
X9198800Y3844900D02*
X9351200D01*
X9198800Y3540100D02*
Y3844900D01*
X9655100Y3718800D02*
X9959900D01*
X9655100D02*
Y3871200D01*
X9959900Y3718800D02*
Y3871200D01*
X9655100D02*
X9959900D01*
X1351200Y3557600D02*
Y3862400D01*
X1198800Y3557600D02*
X1351200D01*
X1198800Y3862400D02*
X1351200D01*
X1198800Y3557600D02*
Y3862400D01*
X1472600Y3513800D02*
X1777400D01*
X1472600D02*
Y3666200D01*
X1777400Y3513800D02*
Y3666200D01*
X1472600D02*
X1777400D01*
X1601200Y3057600D02*
Y3362400D01*
X1448800Y3057600D02*
X1601200D01*
X1448800Y3362400D02*
X1601200D01*
X1448800Y3057600D02*
Y3362400D01*
X9568700Y3047600D02*
Y3352400D01*
X9416300Y3047600D02*
X9568700D01*
X9416300Y3352400D02*
X9568700D01*
X9416300Y3047600D02*
Y3352400D01*
X5353700Y3552600D02*
Y3857400D01*
X5201300Y3552600D02*
X5353700D01*
X5201300Y3857400D02*
X5353700D01*
X5201300Y3552600D02*
Y3857400D01*
X3348700Y3535100D02*
Y3839900D01*
X3196300Y3535100D02*
X3348700D01*
X3196300Y3839900D02*
X3348700D01*
X3196300Y3535100D02*
Y3839900D01*
X3791200Y3185100D02*
Y3489900D01*
X3638800Y3185100D02*
X3791200D01*
X3638800Y3489900D02*
X3791200D01*
X3638800Y3185100D02*
Y3489900D01*
X5275100Y29156201D02*
X5579900D01*
Y29003799D02*
Y29156201D01*
X5275100Y29003799D02*
Y29156201D01*
Y29003799D02*
X5579900D01*
X20602499Y29495001D02*
Y29704999D01*
X20130000Y29495001D02*
Y29704999D01*
Y29495001D02*
X20602499D01*
X20130000Y29704999D02*
X20602499D01*
X20264999Y29602499D02*
X20395000D01*
Y29672501D01*
X20324289Y29531790D02*
Y29673212D01*
X20395000Y29602499D01*
Y29532501D02*
Y29602499D01*
X20324289Y29531790D02*
X20395000Y29602499D01*
X20454999D01*
X20813800Y27045099D02*
Y27349899D01*
X20966200D01*
X20813800Y27045099D02*
X20966200D01*
Y27349899D01*
X39258801Y8517600D02*
Y8822400D01*
X39411200D01*
X39258801Y8517600D02*
X39411200D01*
Y8822400D01*
X20225101Y2423800D02*
X20529900D01*
X20225101D02*
Y2576200D01*
X20529900Y2423800D02*
Y2576200D01*
X20225101D02*
X20529900D01*
X30292499Y1630000D02*
Y2482500D01*
X29882501Y1630000D02*
X30292499D01*
X29887500Y2482500D02*
X30292499D01*
X29882501Y1630000D02*
Y2482500D01*
X22450000Y512500D02*
X22760001D01*
X22450000Y432500D02*
Y512500D01*
X22760001Y432500D02*
Y512500D01*
X22450000Y432500D02*
X22760001D01*
X6260000Y1260000D02*
Y1500000D01*
X6735000D01*
Y1260000D02*
Y1500000D01*
X6260000Y1260000D02*
X6735000D01*
X1159100Y12213900D02*
Y12671100D01*
X955900Y12213900D02*
X1159100D01*
X955900Y12671100D02*
X1159100D01*
X955900Y12213900D02*
Y12671100D01*
X906184Y12230100D02*
Y12534900D01*
X753784Y12230100D02*
X906184D01*
X753784Y12534900D02*
X906184D01*
X753784Y12230100D02*
Y12534900D01*
X536200Y12230100D02*
Y12534900D01*
X383800Y12230100D02*
X536200D01*
X383800Y12534900D02*
X536200D01*
X383800Y12230100D02*
Y12534900D01*
X4363231Y11045101D02*
Y11349901D01*
X4515631D01*
X4363231Y11045101D02*
X4515631D01*
Y11349901D01*
X3520631Y11052600D02*
Y11357400D01*
X3368231Y11052600D02*
X3520631D01*
X3368231Y11357400D02*
X3520631D01*
X3368231Y11052600D02*
Y11357400D01*
X1668817Y11727600D02*
Y12032400D01*
X1821217D01*
X1668817Y11727600D02*
X1821217D01*
Y12032400D01*
X3013231Y11057600D02*
Y11362400D01*
X3165631D01*
X3013231Y11057600D02*
X3165631D01*
Y11362400D01*
X955900Y13656400D02*
Y14113600D01*
X1159100D01*
X955900Y13656400D02*
X1159100D01*
Y14113600D01*
X958400Y13176401D02*
Y13633600D01*
X1161600D01*
X958400Y13176401D02*
X1161600D01*
Y13633600D01*
X3343131Y11055101D02*
Y11359901D01*
X3190731Y11055101D02*
X3343131D01*
X3190731Y11359901D02*
X3343131D01*
X3190731Y11055101D02*
Y11359901D01*
X4183231Y11045101D02*
Y11349901D01*
X4335631D01*
X4183231Y11045101D02*
X4335631D01*
Y11349901D01*
X597600Y12838699D02*
X902400D01*
Y12686300D02*
Y12838699D01*
X597600Y12686300D02*
Y12838699D01*
Y12686300D02*
X902400D01*
X39547601Y9151300D02*
X39852399D01*
X39547601D02*
Y9303700D01*
X39852399Y9151300D02*
Y9303700D01*
X39547601D02*
X39852399D01*
X37992599Y10653700D02*
X38297400D01*
Y10501300D02*
Y10653700D01*
X37992599Y10501300D02*
Y10653700D01*
Y10501300D02*
X38297400D01*
X38691299Y10325100D02*
Y10629900D01*
X38843698D01*
X38691299Y10325100D02*
X38843698D01*
Y10629900D01*
X41042599Y8736200D02*
X41347400D01*
Y8583800D02*
Y8736200D01*
X41042599Y8583800D02*
Y8736200D01*
Y8583800D02*
X41347400D01*
X38516299Y10325100D02*
Y10629900D01*
X38668701D01*
X38516299Y10325100D02*
X38668701D01*
Y10629900D01*
X37448901Y9358400D02*
X37906100D01*
X37448901D02*
Y9561600D01*
X37906100Y9358400D02*
Y9561600D01*
X37448901D02*
X37906100D01*
X38092615Y9125811D02*
X38549814D01*
X38092615D02*
Y9329011D01*
X38549814Y9125811D02*
Y9329011D01*
X38092615D02*
X38549814D01*
X38571399Y9123400D02*
X39028601D01*
X38571399D02*
Y9326600D01*
X39028601Y9123400D02*
Y9326600D01*
X38571399D02*
X39028601D01*
X39441299Y8512600D02*
Y8817400D01*
X39593701D01*
X39441299Y8512600D02*
X39593701D01*
Y8817400D01*
X37981299Y9977600D02*
Y10282400D01*
X38133698D01*
X37981299Y9977600D02*
X38133698D01*
Y10282400D01*
X38666199Y9975100D02*
Y10279900D01*
X38513800Y9975100D02*
X38666199D01*
X38513800Y10279900D02*
X38666199D01*
X38513800Y9975100D02*
Y10279900D01*
X39141315Y9972600D02*
Y10277400D01*
X39293716D01*
X39141315Y9972600D02*
X39293716D01*
Y10277400D01*
X39051401Y9326600D02*
X39508600D01*
Y9123400D02*
Y9326600D01*
X39051401Y9123400D02*
Y9326600D01*
Y9123400D02*
X39508600D01*
X41085001Y7750000D02*
X41814999D01*
Y7830000D01*
X41085001Y8210000D02*
X41814999D01*
X41085001Y7750000D02*
Y7830000D01*
X41814999Y8130000D02*
Y8210000D01*
X41085001Y8130000D02*
Y8210000D01*
X38488699Y9975100D02*
Y10279900D01*
X38336298Y9975100D02*
X38488699D01*
X38336298Y10279900D02*
X38488699D01*
X38336298Y9975100D02*
Y10279900D01*
X40150101Y8441300D02*
X40454901D01*
X40150101D02*
Y8593700D01*
X40454901Y8441300D02*
Y8593700D01*
X40150101D02*
X40454901D01*
X38694998Y10295000D02*
X39104999D01*
X38694998Y9955000D02*
Y10295000D01*
Y9955000D02*
X39104999D01*
Y10295000D01*
X3734430Y11372500D02*
X4144431D01*
X3734430Y11032501D02*
Y11372500D01*
Y11032501D02*
X4144431D01*
Y11372500D01*
D72*
X451911Y14977994D02*
Y15949420D01*
X2369611Y14977994D02*
Y15949420D01*
X451911Y14977994D02*
X2369611D01*
X451911Y15949420D02*
X2369611D01*
X464609Y14971770D02*
X2369611Y14984219D01*
X451531Y13986073D02*
Y14957500D01*
X2369231Y13986073D02*
Y14957500D01*
X451531Y13986073D02*
X2369231D01*
X451531Y14957500D02*
X2369231D01*
X464229Y13979849D02*
X2369231Y13992300D01*
X17027487Y29279956D02*
X16947513D01*
Y29239966D01*
X16960841Y29226639D01*
X16987500D01*
X17000829Y29239966D01*
Y29279956D01*
Y29253296D02*
X17027487Y29226639D01*
Y29199979D02*
Y29173322D01*
Y29186652D01*
X16947513D01*
X16960841Y29199979D01*
X16947513Y29080020D02*
Y29133334D01*
X16987500D01*
X16974171Y29106677D01*
Y29093347D01*
X16987500Y29080020D01*
X17014159D01*
X17027487Y29093347D01*
Y29120007D01*
X17014159Y29133334D01*
X16960841Y29053360D02*
X16947513Y29040033D01*
Y29013373D01*
X16960841Y29000046D01*
X17014159D01*
X17027487Y29013373D01*
Y29040033D01*
X17014159Y29053360D01*
X16960841D01*
X16829987Y29279956D02*
X16750014D01*
Y29239966D01*
X16763342Y29226639D01*
X16789999D01*
X16803329Y29239966D01*
Y29279956D01*
Y29253296D02*
X16829987Y29226639D01*
Y29199979D02*
Y29173322D01*
Y29186652D01*
X16750014D01*
X16763342Y29199979D01*
X16829987Y29093347D02*
X16750014D01*
X16789999Y29133334D01*
Y29080020D01*
X16816658Y29053360D02*
X16829987Y29040033D01*
Y29013373D01*
X16816658Y29000046D01*
X16763342D01*
X16750014Y29013373D01*
Y29040033D01*
X16763342Y29053360D01*
X16776671D01*
X16789999Y29040033D01*
Y29000046D01*
X16955013Y27977545D02*
X17034987D01*
Y28017532D01*
X17021658Y28030862D01*
X16995000D01*
X16981671Y28017532D01*
Y27977545D01*
Y28004202D02*
X16955013Y28030862D01*
Y28057520D02*
Y28084177D01*
Y28070850D01*
X17034987D01*
X17021658Y28057520D01*
X16955013Y28164151D02*
X17034987D01*
X16995000Y28124164D01*
Y28177481D01*
X17021658Y28204138D02*
X17034987Y28217468D01*
Y28244125D01*
X17021658Y28257455D01*
X17008328D01*
X16995000Y28244125D01*
X16981671Y28257455D01*
X16968343D01*
X16955013Y28244125D01*
Y28217468D01*
X16968343Y28204138D01*
X16981671D01*
X16995000Y28217468D01*
X17008328Y28204138D01*
X17021658D01*
X16995000Y28217468D02*
Y28244125D01*
X16747513Y27985046D02*
X16827487D01*
Y28025031D01*
X16814159Y28038361D01*
X16787500D01*
X16774171Y28025031D01*
Y27985046D01*
Y28011703D02*
X16747513Y28038361D01*
Y28065018D02*
Y28091678D01*
Y28078348D01*
X16827487D01*
X16814159Y28065018D01*
X16747513Y28171652D02*
X16827487D01*
X16787500Y28131665D01*
Y28184982D01*
X16827487Y28211639D02*
Y28264954D01*
X16814159D01*
X16760841Y28211639D01*
X16747513D01*
X8747455Y28577512D02*
Y28657486D01*
X8707468D01*
X8694139Y28644159D01*
Y28617499D01*
X8707468Y28604172D01*
X8747455D01*
X8720797D02*
X8694139Y28577512D01*
X8667481D02*
X8640823D01*
X8654152D01*
Y28657486D01*
X8667481Y28644159D01*
X8560848Y28577512D02*
Y28657486D01*
X8600835Y28617499D01*
X8547519D01*
X8467545Y28657486D02*
X8494203Y28644159D01*
X8520861Y28617499D01*
Y28590842D01*
X8507532Y28577512D01*
X8480874D01*
X8467545Y28590842D01*
Y28604172D01*
X8480874Y28617499D01*
X8520861D01*
X22177513Y28325046D02*
X22257487D01*
Y28365033D01*
X22244157Y28378360D01*
X22217500D01*
X22204172Y28365033D01*
Y28325046D01*
Y28351703D02*
X22177513Y28378360D01*
Y28405020D02*
Y28431677D01*
Y28418350D01*
X22257487D01*
X22244157Y28405020D01*
X22177513Y28511652D02*
X22257487D01*
X22217500Y28471664D01*
Y28524982D01*
X22257487Y28604956D02*
Y28551639D01*
X22217500D01*
X22230829Y28578296D01*
Y28591626D01*
X22217500Y28604956D01*
X22190842D01*
X22177513Y28591626D01*
Y28564969D01*
X22190842Y28551639D01*
X26919968Y29737512D02*
Y29817487D01*
X26879980D01*
X26866653Y29804156D01*
Y29777499D01*
X26879980Y29764172D01*
X26919968D01*
X26893311D02*
X26866653Y29737512D01*
X26839993D02*
X26813336D01*
X26826663D01*
Y29817487D01*
X26839993Y29804156D01*
X26773349D02*
X26760019Y29817487D01*
X26733362D01*
X26720032Y29804156D01*
Y29790829D01*
X26733362Y29777499D01*
X26720032Y29764172D01*
Y29750842D01*
X26733362Y29737512D01*
X26760019D01*
X26773349Y29750842D01*
Y29764172D01*
X26760019Y29777499D01*
X26773349Y29790829D01*
Y29804156D01*
X26760019Y29777499D02*
X26733362D01*
X5839968Y29220013D02*
Y29299988D01*
X5799981D01*
X5786652Y29286658D01*
Y29260001D01*
X5799981Y29246671D01*
X5839968D01*
X5813310D02*
X5786652Y29220013D01*
X5759994D02*
X5733335D01*
X5746664D01*
Y29299988D01*
X5759994Y29286658D01*
X5640032Y29299988D02*
X5666690Y29286658D01*
X5693348Y29260001D01*
Y29233344D01*
X5680019Y29220013D01*
X5653361D01*
X5640032Y29233344D01*
Y29246671D01*
X5653361Y29260001D01*
X5693348D01*
X17087514Y812532D02*
X17167487D01*
Y852519D01*
X17154158Y865848D01*
X17127499D01*
X17114171Y852519D01*
Y812532D01*
Y839190D02*
X17087514Y865848D01*
Y892506D02*
Y919164D01*
Y905835D01*
X17167487D01*
X17154158Y892506D01*
X17167487Y1012467D02*
Y959151D01*
X17127499D01*
X17140829Y985809D01*
Y999138D01*
X17127499Y1012467D01*
X17100842D01*
X17087514Y999138D01*
Y972480D01*
X17100842Y959151D01*
X16895013Y802532D02*
X16974986D01*
Y842519D01*
X16961658Y855848D01*
X16935001D01*
X16921671Y842519D01*
Y802532D01*
Y829190D02*
X16895013Y855848D01*
Y882506D02*
Y909164D01*
Y895835D01*
X16974986D01*
X16961658Y882506D01*
X16895013Y989138D02*
X16974986D01*
X16935001Y949151D01*
Y1002467D01*
X17092513Y1732532D02*
X17172487D01*
Y1772519D01*
X17159158Y1785848D01*
X17132500D01*
X17119171Y1772519D01*
Y1732532D01*
Y1759190D02*
X17092513Y1785848D01*
Y1812506D02*
Y1839164D01*
Y1825835D01*
X17172487D01*
X17159158Y1812506D01*
Y1879151D02*
X17172487Y1892480D01*
Y1919138D01*
X17159158Y1932467D01*
X17145828D01*
X17132500Y1919138D01*
Y1905809D01*
Y1919138D01*
X17119171Y1932467D01*
X17105843D01*
X17092513Y1919138D01*
Y1892480D01*
X17105843Y1879151D01*
X16892513Y1740032D02*
X16972487D01*
Y1780019D01*
X16959158Y1793348D01*
X16932500D01*
X16919171Y1780019D01*
Y1740032D01*
Y1766690D02*
X16892513Y1793348D01*
Y1820006D02*
Y1846664D01*
Y1833335D01*
X16972487D01*
X16959158Y1820006D01*
X16892513Y1939967D02*
Y1886651D01*
X16945828Y1939967D01*
X16959158D01*
X16972487Y1926639D01*
Y1899980D01*
X16959158Y1886651D01*
X8632513Y855862D02*
X8712487D01*
Y895849D01*
X8699158Y909178D01*
X8672500D01*
X8659171Y895849D01*
Y855862D01*
Y882520D02*
X8632513Y909178D01*
Y935836D02*
Y962494D01*
Y949165D01*
X8712487D01*
X8699158Y935836D01*
X8632513Y1002481D02*
Y1029139D01*
Y1015810D01*
X8712487D01*
X8699158Y1002481D01*
X24339967Y582513D02*
Y662487D01*
X24299982D01*
X24286652Y649158D01*
Y622500D01*
X24299982Y609171D01*
X24339967D01*
X24313310D02*
X24286652Y582513D01*
X24259995D02*
X24233336D01*
X24246664D01*
Y662487D01*
X24259995Y649158D01*
X24193349D02*
X24180019Y662487D01*
X24153362D01*
X24140031Y649158D01*
Y595842D01*
X24153362Y582513D01*
X24180019D01*
X24193349Y595842D01*
Y649158D01*
X25674146Y655013D02*
Y734987D01*
X25634158D01*
X25620828Y721658D01*
Y695000D01*
X25634158Y681671D01*
X25674146D01*
X25647488D02*
X25620828Y655013D01*
X25594171Y668342D02*
X25580843Y655013D01*
X25554184D01*
X25540855Y668342D01*
Y721658D01*
X25554184Y734987D01*
X25580843D01*
X25594171Y721658D01*
Y708329D01*
X25580843Y695000D01*
X25540855D01*
X3925013Y850855D02*
X4004987D01*
Y890842D01*
X3991658Y904171D01*
X3965000D01*
X3951671Y890842D01*
Y850855D01*
Y877513D02*
X3925013Y904171D01*
X3991658Y930829D02*
X4004987Y944158D01*
Y970816D01*
X3991658Y984145D01*
X3978329D01*
X3965000Y970816D01*
X3951671Y984145D01*
X3938342D01*
X3925013Y970816D01*
Y944158D01*
X3938342Y930829D01*
X3951671D01*
X3965000Y944158D01*
X3978329Y930829D01*
X3991658D01*
X3965000Y944158D02*
Y970816D01*
X1230013Y12725045D02*
X1309987D01*
Y12765032D01*
X1296658Y12778361D01*
X1270000D01*
X1256671Y12765032D01*
Y12725045D01*
Y12751703D02*
X1230013Y12778361D01*
Y12805019D02*
Y12831677D01*
Y12818349D01*
X1309987D01*
X1296658Y12805019D01*
X1230013Y12924982D02*
Y12871664D01*
X1283329Y12924982D01*
X1296658D01*
X1309987Y12911652D01*
Y12884995D01*
X1296658Y12871664D01*
X1309987Y13004955D02*
Y12951639D01*
X1270000D01*
X1283329Y12978297D01*
Y12991626D01*
X1270000Y13004955D01*
X1243342D01*
X1230013Y12991626D01*
Y12964967D01*
X1243342Y12951639D01*
X1227513Y13255869D02*
X1307487D01*
Y13295856D01*
X1294158Y13309184D01*
X1267500D01*
X1254171Y13295856D01*
Y13255869D01*
Y13282526D02*
X1227513Y13309184D01*
X1307487Y13389159D02*
Y13335841D01*
X1267500D01*
X1280829Y13362500D01*
Y13375829D01*
X1267500Y13389159D01*
X1240842D01*
X1227513Y13375829D01*
Y13349171D01*
X1240842Y13335841D01*
Y13415816D02*
X1227513Y13429144D01*
Y13455803D01*
X1240842Y13469131D01*
X1294158D01*
X1307487Y13455803D01*
Y13429144D01*
X1294158Y13415816D01*
X1280829D01*
X1267500Y13429144D01*
Y13469131D01*
X1257513Y13698367D02*
X1337487D01*
Y13738354D01*
X1324158Y13751685D01*
X1297500D01*
X1284171Y13738354D01*
Y13698367D01*
Y13725026D02*
X1257513Y13751685D01*
Y13818329D02*
X1337487D01*
X1297500Y13778342D01*
Y13831657D01*
X1324158Y13858316D02*
X1337487Y13871645D01*
Y13898303D01*
X1324158Y13911632D01*
X1270842D01*
X1257513Y13898303D01*
Y13871645D01*
X1270842Y13858316D01*
X1324158D01*
X38937454Y9382513D02*
Y9462487D01*
X38897467D01*
X38884140Y9449158D01*
Y9422500D01*
X38897467Y9409171D01*
X38937454D01*
X38910797D02*
X38884140Y9382513D01*
X38857480D02*
X38830823D01*
X38844150D01*
Y9462487D01*
X38857480Y9449158D01*
X38737518Y9382513D02*
X38790836D01*
X38737518Y9435829D01*
Y9449158D01*
X38750848Y9462487D01*
X38777505D01*
X38790836Y9449158D01*
X38657544Y9462487D02*
X38684204Y9449158D01*
X38710861Y9422500D01*
Y9395842D01*
X38697531Y9382513D01*
X38670874D01*
X38657544Y9395842D01*
Y9409171D01*
X38670874Y9422500D01*
X38710861D01*
X38410803Y9380013D02*
Y9459987D01*
X38370816D01*
X38357486Y9446658D01*
Y9420000D01*
X38370816Y9406671D01*
X38410803D01*
X38384146D02*
X38357486Y9380013D01*
X38277512Y9459987D02*
X38304172Y9446658D01*
X38330829Y9420000D01*
Y9393342D01*
X38317499Y9380013D01*
X38290842D01*
X38277512Y9393342D01*
Y9406671D01*
X38290842Y9420000D01*
X38330829D01*
X38250854Y9380013D02*
X38224197D01*
X38237527D01*
Y9459987D01*
X38250854Y9446658D01*
X37804132Y9622513D02*
Y9702487D01*
X37764145D01*
X37750815Y9689158D01*
Y9662500D01*
X37764145Y9649171D01*
X37804132D01*
X37777475D02*
X37750815Y9622513D01*
X37670844Y9702487D02*
X37724158D01*
Y9662500D01*
X37697501Y9675829D01*
X37684171D01*
X37670844Y9662500D01*
Y9635842D01*
X37684171Y9622513D01*
X37710828D01*
X37724158Y9635842D01*
X37644183Y9689158D02*
X37630856Y9702487D01*
X37604196D01*
X37590869Y9689158D01*
Y9675829D01*
X37604196Y9662500D01*
X37590869Y9649171D01*
Y9635842D01*
X37604196Y9622513D01*
X37630856D01*
X37644183Y9635842D01*
Y9649171D01*
X37630856Y9662500D01*
X37644183Y9675829D01*
Y9689158D01*
X37630856Y9662500D02*
X37604196D01*
X39437454Y9365013D02*
Y9444987D01*
X39397467D01*
X39384137Y9431658D01*
Y9405000D01*
X39397467Y9391671D01*
X39437454D01*
X39410797D02*
X39384137Y9365013D01*
X39357480D02*
X39330823D01*
X39344150D01*
Y9444987D01*
X39357480Y9431658D01*
X39290836D02*
X39277505Y9444987D01*
X39250848D01*
X39237518Y9431658D01*
Y9418329D01*
X39250848Y9405000D01*
X39264178D01*
X39250848D01*
X39237518Y9391671D01*
Y9378342D01*
X39250848Y9365013D01*
X39277505D01*
X39290836Y9378342D01*
X39157544Y9444987D02*
X39184204Y9431658D01*
X39210861Y9405000D01*
Y9378342D01*
X39197531Y9365013D01*
X39170874D01*
X39157544Y9378342D01*
Y9391671D01*
X39170874Y9405000D01*
X39210861D01*
X1225013Y12300045D02*
X1304987D01*
Y12340032D01*
X1291658Y12353361D01*
X1265000D01*
X1251671Y12340032D01*
Y12300045D01*
Y12326703D02*
X1225013Y12353361D01*
Y12380019D02*
Y12406677D01*
Y12393349D01*
X1304987D01*
X1291658Y12380019D01*
Y12446665D02*
X1304987Y12459994D01*
Y12486652D01*
X1291658Y12499981D01*
X1278329D01*
X1265000Y12486652D01*
Y12473323D01*
Y12486652D01*
X1251671Y12499981D01*
X1238342D01*
X1225013Y12486652D01*
Y12459994D01*
X1238342Y12446665D01*
X1291658Y12526639D02*
X1304987Y12539968D01*
Y12566626D01*
X1291658Y12579955D01*
X1278329D01*
X1265000Y12566626D01*
Y12553297D01*
Y12566626D01*
X1251671Y12579955D01*
X1238342D01*
X1225013Y12566626D01*
Y12539968D01*
X1238342Y12526639D01*
X39709158Y7929184D02*
X39722488Y7915855D01*
Y7889197D01*
X39709158Y7875868D01*
X39655841D01*
X39642514Y7889197D01*
Y7915855D01*
X39655841Y7929184D01*
X39722488Y8009158D02*
Y7955842D01*
X39682501D01*
X39695828Y7982500D01*
Y7995829D01*
X39682501Y8009158D01*
X39655841D01*
X39642514Y7995829D01*
Y7969171D01*
X39655841Y7955842D01*
X39709158Y8035816D02*
X39722488Y8049145D01*
Y8075803D01*
X39709158Y8089132D01*
X39655841D01*
X39642514Y8075803D01*
Y8049145D01*
X39655841Y8035816D01*
X39709158D01*
X2499158Y11702513D02*
X2512487Y11689184D01*
Y11662526D01*
X2499158Y11649197D01*
X2445842D01*
X2432513Y11662526D01*
Y11689184D01*
X2445842Y11702513D01*
X2432513Y11769158D02*
X2512487D01*
X2472500Y11729171D01*
Y11782487D01*
X2432513Y11809145D02*
Y11835803D01*
Y11822474D01*
X2512487D01*
X2499158Y11809145D01*
X39094144Y9904987D02*
Y9838342D01*
X39080814Y9825013D01*
X39054156D01*
X39040829Y9838342D01*
Y9904987D01*
X39014169Y9891658D02*
X39000842Y9904987D01*
X38974182D01*
X38960855Y9891658D01*
Y9878329D01*
X38974182Y9865000D01*
X38960855Y9851671D01*
Y9838342D01*
X38974182Y9825013D01*
X39000842D01*
X39014169Y9838342D01*
Y9851671D01*
X39000842Y9865000D01*
X39014169Y9878329D01*
Y9891658D01*
X39000842Y9865000D02*
X38974182D01*
X3879145Y10984987D02*
Y10918342D01*
X3865816Y10905013D01*
X3839158D01*
X3825829Y10918342D01*
Y10984987D01*
X3799171D02*
X3745855D01*
Y10971659D01*
X3799171Y10918342D01*
Y10905013D01*
X40061646Y8892487D02*
Y8825842D01*
X40048315Y8812513D01*
X40021658D01*
X40008328Y8825842D01*
Y8892487D01*
X39928354Y8812513D02*
X39981671D01*
X39928354Y8865829D01*
Y8879158D01*
X39941684Y8892487D01*
X39968341D01*
X39981671Y8879158D01*
X768316Y11599987D02*
Y11533342D01*
X754987Y11520013D01*
X728329D01*
X715000Y11533342D01*
Y11599987D01*
X688342Y11520013D02*
X661684D01*
X675013D01*
Y11599987D01*
X688342Y11586658D01*
X39254953Y10507513D02*
Y10587487D01*
X39214966D01*
X39201639Y10574158D01*
Y10547500D01*
X39214966Y10534171D01*
X39254953D01*
X39228296D02*
X39201639Y10507513D01*
X39174979D02*
X39148322D01*
X39161652D01*
Y10587487D01*
X39174979Y10574158D01*
X39068347Y10507513D02*
Y10587487D01*
X39108334Y10547500D01*
X39055017D01*
X38988373Y10507513D02*
Y10587487D01*
X39028360Y10547500D01*
X38975043D01*
X4289955Y11600013D02*
Y11679987D01*
X4249968D01*
X4236639Y11666658D01*
Y11640000D01*
X4249968Y11626671D01*
X4289955D01*
X4263297D02*
X4236639Y11600013D01*
X4209981D02*
X4183323D01*
X4196651D01*
Y11679987D01*
X4209981Y11666658D01*
X4103348Y11600013D02*
Y11679987D01*
X4143335Y11640000D01*
X4090019D01*
X4063361Y11666658D02*
X4050032Y11679987D01*
X4023374D01*
X4010045Y11666658D01*
Y11653329D01*
X4023374Y11640000D01*
X4036703D01*
X4023374D01*
X4010045Y11626671D01*
Y11613342D01*
X4023374Y11600013D01*
X4050032D01*
X4063361Y11613342D01*
X38192514Y9652545D02*
X38272488D01*
Y9692533D01*
X38259158Y9705861D01*
X38232501D01*
X38219171Y9692533D01*
Y9652545D01*
Y9679203D02*
X38192514Y9705861D01*
Y9732520D02*
Y9759178D01*
Y9745849D01*
X38272488D01*
X38259158Y9732520D01*
X38192514Y9839152D02*
X38272488D01*
X38232501Y9799165D01*
Y9852481D01*
X38192514Y9932455D02*
Y9879139D01*
X38245828Y9932455D01*
X38259158D01*
X38272488Y9919126D01*
Y9892468D01*
X38259158Y9879139D01*
X3241944Y10743375D02*
X3321918D01*
Y10783362D01*
X3308589Y10796691D01*
X3281931D01*
X3268602Y10783362D01*
Y10743375D01*
Y10770033D02*
X3241944Y10796691D01*
Y10823349D02*
Y10850007D01*
Y10836678D01*
X3321918D01*
X3308589Y10823349D01*
X3241944Y10929981D02*
X3321918D01*
X3281931Y10889994D01*
Y10943310D01*
X3241944Y10969968D02*
Y10996626D01*
Y10983298D01*
X3321918D01*
X3308589Y10969968D01*
X39172513Y9650045D02*
X39252487D01*
Y9690032D01*
X39239157Y9703361D01*
X39212500D01*
X39199170Y9690032D01*
Y9650045D01*
Y9676703D02*
X39172513Y9703361D01*
Y9730019D02*
Y9756677D01*
Y9743349D01*
X39252487D01*
X39239157Y9730019D01*
X39172513Y9836652D02*
X39252487D01*
X39212500Y9796665D01*
Y9849981D01*
X39239157Y9876639D02*
X39252487Y9889968D01*
Y9916626D01*
X39239157Y9929955D01*
X39185840D01*
X39172513Y9916626D01*
Y9889968D01*
X39185840Y9876639D01*
X39239157D01*
X4216944Y10717546D02*
X4296918D01*
Y10757533D01*
X4283589Y10770862D01*
X4256931D01*
X4243602Y10757533D01*
Y10717546D01*
Y10744204D02*
X4216944Y10770862D01*
Y10797520D02*
Y10824178D01*
Y10810849D01*
X4296918D01*
X4283589Y10797520D01*
Y10864165D02*
X4296918Y10877495D01*
Y10904153D01*
X4283589Y10917482D01*
X4270260D01*
X4256931Y10904153D01*
Y10890824D01*
Y10904153D01*
X4243602Y10917482D01*
X4230273D01*
X4216944Y10904153D01*
Y10877495D01*
X4230273Y10864165D01*
Y10944140D02*
X4216944Y10957469D01*
Y10984127D01*
X4230273Y10997456D01*
X4283589D01*
X4296918Y10984127D01*
Y10957469D01*
X4283589Y10944140D01*
X4270260D01*
X4256931Y10957469D01*
Y10997456D01*
X38017511Y9657545D02*
X38097485D01*
Y9697533D01*
X38084158Y9710861D01*
X38057498D01*
X38044171Y9697533D01*
Y9657545D01*
Y9684203D02*
X38017511Y9710861D01*
Y9737520D02*
Y9764178D01*
Y9750849D01*
X38097485D01*
X38084158Y9737520D01*
Y9804165D02*
X38097485Y9817494D01*
Y9844152D01*
X38084158Y9857481D01*
X38070828D01*
X38057498Y9844152D01*
Y9830823D01*
Y9844152D01*
X38044171Y9857481D01*
X38030841D01*
X38017511Y9844152D01*
Y9817494D01*
X38030841Y9804165D01*
X38084158Y9884139D02*
X38097485Y9897468D01*
Y9924126D01*
X38084158Y9937455D01*
X38070828D01*
X38057498Y9924126D01*
X38044171Y9937455D01*
X38030841D01*
X38017511Y9924126D01*
Y9897468D01*
X38030841Y9884139D01*
X38044171D01*
X38057498Y9897468D01*
X38070828Y9884139D01*
X38084158D01*
X38057498Y9897468D02*
Y9924126D01*
X38550012Y9652545D02*
X38629987D01*
Y9692533D01*
X38616656Y9705861D01*
X38589999D01*
X38576669Y9692533D01*
Y9652545D01*
Y9679203D02*
X38550012Y9705861D01*
Y9732520D02*
Y9759178D01*
Y9745849D01*
X38629987D01*
X38616656Y9732520D01*
Y9799165D02*
X38629987Y9812494D01*
Y9839152D01*
X38616656Y9852481D01*
X38603329D01*
X38589999Y9839152D01*
Y9825823D01*
Y9839152D01*
X38576669Y9852481D01*
X38563342D01*
X38550012Y9839152D01*
Y9812494D01*
X38563342Y9799165D01*
X38629987Y9879139D02*
Y9932455D01*
X38616656D01*
X38563342Y9879139D01*
X38550012D01*
X3049427Y10737546D02*
X3129402D01*
Y10777533D01*
X3116073Y10790862D01*
X3089415D01*
X3076086Y10777533D01*
Y10737546D01*
Y10764204D02*
X3049427Y10790862D01*
Y10817520D02*
Y10844178D01*
Y10830849D01*
X3129402D01*
X3116073Y10817520D01*
Y10884165D02*
X3129402Y10897494D01*
Y10924152D01*
X3116073Y10937481D01*
X3102744D01*
X3089415Y10924152D01*
Y10910823D01*
Y10924152D01*
X3076086Y10937481D01*
X3062757D01*
X3049427Y10924152D01*
Y10897494D01*
X3062757Y10884165D01*
X3129402Y11017455D02*
Y10964139D01*
X3089415D01*
X3102744Y10990797D01*
Y11004127D01*
X3089415Y11017455D01*
X3062757D01*
X3049427Y11004127D01*
Y10977469D01*
X3062757Y10964139D01*
X3581944Y10727546D02*
X3661918D01*
Y10767533D01*
X3648589Y10780862D01*
X3621931D01*
X3608602Y10767533D01*
Y10727546D01*
Y10754204D02*
X3581944Y10780862D01*
Y10807520D02*
Y10834178D01*
Y10820849D01*
X3661918D01*
X3648589Y10807520D01*
Y10874165D02*
X3661918Y10887495D01*
Y10914153D01*
X3648589Y10927482D01*
X3635260D01*
X3621931Y10914153D01*
Y10900824D01*
Y10914153D01*
X3608602Y10927482D01*
X3595273D01*
X3581944Y10914153D01*
Y10887495D01*
X3595273Y10874165D01*
X3581944Y10994127D02*
X3661918D01*
X3621931Y10954140D01*
Y11007456D01*
X39487512Y8175045D02*
X39567487D01*
Y8215032D01*
X39554156Y8228361D01*
X39527499D01*
X39514172Y8215032D01*
Y8175045D01*
Y8201703D02*
X39487512Y8228361D01*
Y8255019D02*
Y8281677D01*
Y8268348D01*
X39567487D01*
X39554156Y8255019D01*
Y8321665D02*
X39567487Y8334994D01*
Y8361652D01*
X39554156Y8374981D01*
X39540829D01*
X39527499Y8361652D01*
Y8348323D01*
Y8361652D01*
X39514172Y8374981D01*
X39500842D01*
X39487512Y8361652D01*
Y8334994D01*
X39500842Y8321665D01*
X39487512Y8454955D02*
Y8401639D01*
X39540829Y8454955D01*
X39554156D01*
X39567487Y8441626D01*
Y8414968D01*
X39554156Y8401639D01*
X782497Y11920874D02*
X862471D01*
Y11960861D01*
X849142Y11974190D01*
X822484D01*
X809155Y11960861D01*
Y11920874D01*
Y11947532D02*
X782497Y11974190D01*
Y12000848D02*
Y12027506D01*
Y12014177D01*
X862471D01*
X849142Y12000848D01*
Y12067494D02*
X862471Y12080823D01*
Y12107481D01*
X849142Y12120810D01*
X835813D01*
X822484Y12107481D01*
Y12094152D01*
Y12107481D01*
X809155Y12120810D01*
X795826D01*
X782497Y12107481D01*
Y12080823D01*
X795826Y12067494D01*
X782497Y12147468D02*
Y12174126D01*
Y12160797D01*
X862471D01*
X849142Y12147468D01*
X39292514Y8192545D02*
X39372488D01*
Y8232532D01*
X39359158Y8245861D01*
X39332501D01*
X39319171Y8232532D01*
Y8192545D01*
Y8219203D02*
X39292514Y8245861D01*
Y8272519D02*
Y8299177D01*
Y8285849D01*
X39372488D01*
X39359158Y8272519D01*
Y8339165D02*
X39372488Y8352494D01*
Y8379152D01*
X39359158Y8392481D01*
X39345828D01*
X39332501Y8379152D01*
Y8365823D01*
Y8379152D01*
X39319171Y8392481D01*
X39305841D01*
X39292514Y8379152D01*
Y8352494D01*
X39305841Y8339165D01*
X39359158Y8419139D02*
X39372488Y8432468D01*
Y8459126D01*
X39359158Y8472455D01*
X39305841D01*
X39292514Y8459126D01*
Y8432468D01*
X39305841Y8419139D01*
X39359158D01*
X879955Y12885013D02*
Y12964987D01*
X839968D01*
X826639Y12951659D01*
Y12925000D01*
X839968Y12911671D01*
X879955D01*
X853297D02*
X826639Y12885013D01*
X799981D02*
X773323D01*
X786651D01*
Y12964987D01*
X799981Y12951659D01*
X680019Y12885013D02*
X733335D01*
X680019Y12938329D01*
Y12951659D01*
X693348Y12964987D01*
X720006D01*
X733335Y12951659D01*
X653361Y12898341D02*
X640032Y12885013D01*
X613374D01*
X600045Y12898341D01*
Y12951659D01*
X613374Y12964987D01*
X640032D01*
X653361Y12951659D01*
Y12938329D01*
X640032Y12925000D01*
X600045D01*
X39105014Y8182545D02*
X39184988D01*
Y8222532D01*
X39171658Y8235861D01*
X39145001D01*
X39131671Y8222532D01*
Y8182545D01*
Y8209203D02*
X39105014Y8235861D01*
Y8262519D02*
Y8289177D01*
Y8275849D01*
X39184988D01*
X39171658Y8262519D01*
X39105014Y8382481D02*
Y8329165D01*
X39158328Y8382481D01*
X39171658D01*
X39184988Y8369152D01*
Y8342494D01*
X39171658Y8329165D01*
Y8409139D02*
X39184988Y8422468D01*
Y8449126D01*
X39171658Y8462455D01*
X39158328D01*
X39145001Y8449126D01*
X39131671Y8462455D01*
X39118341D01*
X39105014Y8449126D01*
Y8422468D01*
X39118341Y8409139D01*
X39131671D01*
X39145001Y8422468D01*
X39158328Y8409139D01*
X39171658D01*
X39145001Y8422468D02*
Y8449126D01*
X212513Y11882545D02*
X292487D01*
Y11922532D01*
X279158Y11935861D01*
X252500D01*
X239171Y11922532D01*
Y11882545D01*
Y11909203D02*
X212513Y11935861D01*
Y11962519D02*
Y11989177D01*
Y11975849D01*
X292487D01*
X279158Y11962519D01*
X212513Y12082481D02*
Y12029165D01*
X265829Y12082481D01*
X279158D01*
X292487Y12069152D01*
Y12042494D01*
X279158Y12029165D01*
X292487Y12109139D02*
Y12162455D01*
X279158D01*
X225842Y12109139D01*
X212513D01*
X38732513Y10675868D02*
X38812488D01*
Y10715855D01*
X38799158Y10729184D01*
X38772501D01*
X38759171Y10715855D01*
Y10675868D01*
Y10702526D02*
X38732513Y10729184D01*
X38812488Y10755842D02*
Y10809158D01*
X38799158D01*
X38745844Y10755842D01*
X38732513D01*
X38812488Y10889132D02*
Y10835816D01*
X38772501D01*
X38785828Y10862474D01*
Y10875803D01*
X38772501Y10889132D01*
X38745844D01*
X38732513Y10875803D01*
Y10849145D01*
X38745844Y10835816D01*
X3770013Y11830867D02*
X3849987D01*
Y11870855D01*
X3836658Y11884183D01*
X3810000D01*
X3796671Y11870855D01*
Y11830867D01*
Y11857525D02*
X3770013Y11884183D01*
X3849987Y11910842D02*
Y11964158D01*
X3836658D01*
X3783342Y11910842D01*
X3770013D01*
X3836658Y11990816D02*
X3849987Y12004145D01*
Y12030803D01*
X3836658Y12044132D01*
X3823329D01*
X3810000Y12030803D01*
Y12017474D01*
Y12030803D01*
X3796671Y12044132D01*
X3783342D01*
X3770013Y12030803D01*
Y12004145D01*
X3783342Y11990816D01*
X38439157Y9764184D02*
X38452487Y9750855D01*
Y9724197D01*
X38439157Y9710868D01*
X38385840D01*
X38372513Y9724197D01*
Y9750855D01*
X38385840Y9764184D01*
X38452487Y9844158D02*
X38439157Y9817500D01*
X38412500Y9790842D01*
X38385840D01*
X38372513Y9804171D01*
Y9830829D01*
X38385840Y9844158D01*
X38399170D01*
X38412500Y9830829D01*
Y9790842D01*
X38452487Y9924133D02*
X38439157Y9897474D01*
X38412500Y9870816D01*
X38385840D01*
X38372513Y9884146D01*
Y9910804D01*
X38385840Y9924133D01*
X38399170D01*
X38412500Y9910804D01*
Y9870816D01*
X3466089Y10821684D02*
X3479418Y10808355D01*
Y10781697D01*
X3466089Y10768368D01*
X3412773D01*
X3399444Y10781697D01*
Y10808355D01*
X3412773Y10821684D01*
X3479418Y10901658D02*
X3466089Y10875000D01*
X3439431Y10848342D01*
X3412773D01*
X3399444Y10861671D01*
Y10888330D01*
X3412773Y10901658D01*
X3426102D01*
X3439431Y10888330D01*
Y10848342D01*
X3479418Y10981633D02*
Y10928316D01*
X3439431D01*
X3452760Y10954975D01*
Y10968304D01*
X3439431Y10981633D01*
X3412773D01*
X3399444Y10968304D01*
Y10941646D01*
X3412773Y10928316D01*
X39733316Y9001658D02*
X39746646Y9014987D01*
X39773303D01*
X39786633Y9001658D01*
Y8948342D01*
X39773303Y8935013D01*
X39746646D01*
X39733316Y8948342D01*
X39653342Y9014987D02*
X39679999Y9001658D01*
X39706659Y8975000D01*
Y8948342D01*
X39693329Y8935013D01*
X39666672D01*
X39653342Y8948342D01*
Y8961671D01*
X39666672Y8975000D01*
X39706659D01*
X39586697Y8935013D02*
Y9014987D01*
X39626685Y8975000D01*
X39573367D01*
X39745816Y9411642D02*
X39759146Y9424971D01*
X39785803D01*
X39799133Y9411642D01*
Y9358326D01*
X39785803Y9344997D01*
X39759146D01*
X39745816Y9358326D01*
X39665842Y9424971D02*
X39692499Y9411642D01*
X39719159Y9384984D01*
Y9358326D01*
X39705829Y9344997D01*
X39679172D01*
X39665842Y9358326D01*
Y9371655D01*
X39679172Y9384984D01*
X39719159D01*
X39639185Y9411642D02*
X39625854Y9424971D01*
X39599197D01*
X39585867Y9411642D01*
Y9398313D01*
X39599197Y9384984D01*
X39612527D01*
X39599197D01*
X39585867Y9371655D01*
Y9358326D01*
X39599197Y9344997D01*
X39625854D01*
X39639185Y9358326D01*
X489158Y11989184D02*
X502487Y11975855D01*
Y11949197D01*
X489158Y11935867D01*
X435842D01*
X422513Y11949197D01*
Y11975855D01*
X435842Y11989184D01*
X502487Y12069158D02*
X489158Y12042500D01*
X462500Y12015842D01*
X435842D01*
X422513Y12029171D01*
Y12055829D01*
X435842Y12069158D01*
X449171D01*
X462500Y12055829D01*
Y12015842D01*
X422513Y12149132D02*
Y12095816D01*
X475829Y12149132D01*
X489158D01*
X502487Y12135803D01*
Y12109145D01*
X489158Y12095816D01*
X686658Y12017513D02*
X699987Y12004184D01*
Y11977526D01*
X686658Y11964197D01*
X633342D01*
X620013Y11977526D01*
Y12004184D01*
X633342Y12017513D01*
X699987Y12097487D02*
X686658Y12070829D01*
X660000Y12044171D01*
X633342D01*
X620013Y12057500D01*
Y12084158D01*
X633342Y12097487D01*
X646671D01*
X660000Y12084158D01*
Y12044171D01*
X620013Y12124145D02*
Y12150803D01*
Y12137474D01*
X699987D01*
X686658Y12124145D01*
X39414157Y9761684D02*
X39427487Y9748355D01*
Y9721697D01*
X39414157Y9708368D01*
X39360843D01*
X39347513Y9721697D01*
Y9748355D01*
X39360843Y9761684D01*
X39427487Y9841658D02*
X39414157Y9815000D01*
X39387500Y9788342D01*
X39360843D01*
X39347513Y9801671D01*
Y9828329D01*
X39360843Y9841658D01*
X39374170D01*
X39387500Y9828329D01*
Y9788342D01*
X39414157Y9868316D02*
X39427487Y9881645D01*
Y9908304D01*
X39414157Y9921632D01*
X39360843D01*
X39347513Y9908304D01*
Y9881645D01*
X39360843Y9868316D01*
X39414157D01*
X4466089Y10834185D02*
X4479418Y10820856D01*
Y10794198D01*
X4466089Y10780868D01*
X4412773D01*
X4399444Y10794198D01*
Y10820856D01*
X4412773Y10834185D01*
X4479418Y10914159D02*
Y10860843D01*
X4439431D01*
X4452760Y10887501D01*
Y10900830D01*
X4439431Y10914159D01*
X4412773D01*
X4399444Y10900830D01*
Y10874172D01*
X4412773Y10860843D01*
Y10940817D02*
X4399444Y10954146D01*
Y10980804D01*
X4412773Y10994133D01*
X4466089D01*
X4479418Y10980804D01*
Y10954146D01*
X4466089Y10940817D01*
X4452760D01*
X4439431Y10954146D01*
Y10994133D01*
X38456659Y10421684D02*
X38469986Y10408355D01*
Y10381697D01*
X38456659Y10368368D01*
X38403342D01*
X38390012Y10381697D01*
Y10408355D01*
X38403342Y10421684D01*
X38469986Y10501658D02*
Y10448342D01*
X38429999D01*
X38443329Y10475000D01*
Y10488329D01*
X38429999Y10501658D01*
X38403342D01*
X38390012Y10488329D01*
Y10461671D01*
X38403342Y10448342D01*
X38456659Y10528316D02*
X38469986Y10541645D01*
Y10568303D01*
X38456659Y10581632D01*
X38443329D01*
X38429999Y10568303D01*
X38416672Y10581632D01*
X38403342D01*
X38390012Y10568303D01*
Y10541645D01*
X38403342Y10528316D01*
X38416672D01*
X38429999Y10541645D01*
X38443329Y10528316D01*
X38456659D01*
X38429999Y10541645D02*
Y10568303D01*
X3504158Y11576684D02*
X3517487Y11563355D01*
Y11536697D01*
X3504158Y11523368D01*
X3450842D01*
X3437513Y11536697D01*
Y11563355D01*
X3450842Y11576684D01*
X3517487Y11656658D02*
Y11603342D01*
X3477500D01*
X3490829Y11630000D01*
Y11643329D01*
X3477500Y11656658D01*
X3450842D01*
X3437513Y11643329D01*
Y11616671D01*
X3450842Y11603342D01*
X3517487Y11683316D02*
Y11736632D01*
X3504158D01*
X3450842Y11683316D01*
X3437513D01*
X40055817Y8541658D02*
X40069144Y8554987D01*
X40095804D01*
X40109131Y8541658D01*
Y8488342D01*
X40095804Y8475013D01*
X40069144D01*
X40055817Y8488342D01*
X39975842Y8554987D02*
X40029156D01*
Y8515000D01*
X40002499Y8528329D01*
X39989172D01*
X39975842Y8515000D01*
Y8488342D01*
X39989172Y8475013D01*
X40015829D01*
X40029156Y8488342D01*
X39895868Y8554987D02*
X39922525Y8541658D01*
X39949185Y8515000D01*
Y8488342D01*
X39935855Y8475013D01*
X39909198D01*
X39895868Y8488342D01*
Y8501671D01*
X39909198Y8515000D01*
X39949185D01*
X1771675Y12129184D02*
X1785004Y12115855D01*
Y12089197D01*
X1771675Y12075868D01*
X1718359D01*
X1705029Y12089197D01*
Y12115855D01*
X1718359Y12129184D01*
X1785004Y12209158D02*
Y12155842D01*
X1745017D01*
X1758345Y12182500D01*
Y12195829D01*
X1745017Y12209158D01*
X1718359D01*
X1705029Y12195829D01*
Y12169171D01*
X1718359Y12155842D01*
X1785004Y12289132D02*
Y12235816D01*
X1745017D01*
X1758345Y12262474D01*
Y12275803D01*
X1745017Y12289132D01*
X1718359D01*
X1705029Y12275803D01*
Y12249145D01*
X1718359Y12235816D01*
X40948315Y8694158D02*
X40961646Y8707487D01*
X40988303D01*
X41001633Y8694158D01*
Y8640842D01*
X40988303Y8627513D01*
X40961646D01*
X40948315Y8640842D01*
X40868341Y8707487D02*
X40921658D01*
Y8667500D01*
X40895001Y8680829D01*
X40881671D01*
X40868341Y8667500D01*
Y8640842D01*
X40881671Y8627513D01*
X40908328D01*
X40921658Y8640842D01*
X40801697Y8627513D02*
Y8707487D01*
X40841684Y8667500D01*
X40788367D01*
X37895816Y10604158D02*
X37909146Y10617487D01*
X37935803D01*
X37949133Y10604158D01*
Y10550842D01*
X37935803Y10537513D01*
X37909146D01*
X37895816Y10550842D01*
X37815842Y10617487D02*
X37869159D01*
Y10577500D01*
X37842499Y10590829D01*
X37829172D01*
X37815842Y10577500D01*
Y10550842D01*
X37829172Y10537513D01*
X37855829D01*
X37869159Y10550842D01*
X37789185Y10604158D02*
X37775854Y10617487D01*
X37749197D01*
X37735867Y10604158D01*
Y10590829D01*
X37749197Y10577500D01*
X37762527D01*
X37749197D01*
X37735867Y10564171D01*
Y10550842D01*
X37749197Y10537513D01*
X37775854D01*
X37789185Y10550842D01*
X2259158Y10401684D02*
X2272487Y10388355D01*
Y10361697D01*
X2259158Y10348368D01*
X2205842D01*
X2192513Y10361697D01*
Y10388355D01*
X2205842Y10401684D01*
X2272487Y10481658D02*
Y10428342D01*
X2232500D01*
X2245829Y10455000D01*
Y10468329D01*
X2232500Y10481658D01*
X2205842D01*
X2192513Y10468329D01*
Y10441671D01*
X2205842Y10428342D01*
X2192513Y10561632D02*
Y10508316D01*
X2245829Y10561632D01*
X2259158D01*
X2272487Y10548303D01*
Y10521645D01*
X2259158Y10508316D01*
X3267487Y12101658D02*
X3280816Y12114987D01*
X3307474D01*
X3320803Y12101658D01*
Y12048342D01*
X3307474Y12035013D01*
X3280816D01*
X3267487Y12048342D01*
X3187513Y12114987D02*
X3240829D01*
Y12075000D01*
X3214171Y12088329D01*
X3200841D01*
X3187513Y12075000D01*
Y12048342D01*
X3200841Y12035013D01*
X3227500D01*
X3240829Y12048342D01*
X3160854Y12035013D02*
X3134196D01*
X3147525D01*
Y12114987D01*
X3160854Y12101658D01*
X40053317Y8729158D02*
X40066644Y8742487D01*
X40093304D01*
X40106631Y8729158D01*
Y8675842D01*
X40093304Y8662513D01*
X40066644D01*
X40053317Y8675842D01*
X39986670Y8662513D02*
Y8742487D01*
X40026657Y8702500D01*
X39973343D01*
X39946683Y8729158D02*
X39933356Y8742487D01*
X39906696D01*
X39893369Y8729158D01*
Y8675842D01*
X39906696Y8662513D01*
X39933356D01*
X39946683Y8675842D01*
Y8729158D01*
X1591658Y12131684D02*
X1604987Y12118355D01*
Y12091697D01*
X1591658Y12078368D01*
X1538342D01*
X1525013Y12091697D01*
Y12118355D01*
X1538342Y12131684D01*
X1591658Y12158342D02*
X1604987Y12171671D01*
Y12198329D01*
X1591658Y12211658D01*
X1578329D01*
X1565000Y12198329D01*
Y12185000D01*
Y12198329D01*
X1551671Y12211658D01*
X1538342D01*
X1525013Y12198329D01*
Y12171671D01*
X1538342Y12158342D01*
X1604987Y12291632D02*
Y12238316D01*
X1565000D01*
X1578329Y12264974D01*
Y12278303D01*
X1565000Y12291632D01*
X1538342D01*
X1525013Y12278303D01*
Y12251645D01*
X1538342Y12238316D01*
X40921658Y7901684D02*
X40934988Y7888355D01*
Y7861697D01*
X40921658Y7848368D01*
X40868341D01*
X40855014Y7861697D01*
Y7888355D01*
X40868341Y7901684D01*
X40921658Y7928342D02*
X40934988Y7941671D01*
Y7968329D01*
X40921658Y7981658D01*
X40908328D01*
X40895001Y7968329D01*
Y7955000D01*
Y7968329D01*
X40881671Y7981658D01*
X40868341D01*
X40855014Y7968329D01*
Y7941671D01*
X40868341Y7928342D01*
X40921658Y8008316D02*
X40934988Y8021645D01*
Y8048303D01*
X40921658Y8061632D01*
X40908328D01*
X40895001Y8048303D01*
Y8034974D01*
Y8048303D01*
X40881671Y8061632D01*
X40868341D01*
X40855014Y8048303D01*
Y8021645D01*
X40868341Y8008316D01*
X41420816Y8396658D02*
X41434146Y8409987D01*
X41460803D01*
X41474133Y8396658D01*
Y8343342D01*
X41460803Y8330013D01*
X41434146D01*
X41420816Y8343342D01*
X41394159Y8396658D02*
X41380829Y8409987D01*
X41354172D01*
X41340842Y8396658D01*
Y8383329D01*
X41354172Y8370000D01*
X41367499D01*
X41354172D01*
X41340842Y8356671D01*
Y8343342D01*
X41354172Y8330013D01*
X41380829D01*
X41394159Y8343342D01*
X41260867Y8330013D02*
X41314185D01*
X41260867Y8383329D01*
Y8396658D01*
X41274197Y8409987D01*
X41300854D01*
X41314185Y8396658D01*
X1936652Y10021658D02*
X1949981Y10034987D01*
X1976639D01*
X1989968Y10021658D01*
Y9968342D01*
X1976639Y9955013D01*
X1949981D01*
X1936652Y9968342D01*
X1909994Y9955013D02*
X1883336D01*
X1896664D01*
Y10034987D01*
X1909994Y10021658D01*
X1790032Y10034987D02*
X1816690Y10021658D01*
X1843348Y9995000D01*
Y9968342D01*
X1830019Y9955013D01*
X1803361D01*
X1790032Y9968342D01*
Y9981671D01*
X1803361Y9995000D01*
X1843348D01*
X1566658Y11033348D02*
X1579987Y11020019D01*
Y10993361D01*
X1566658Y10980032D01*
X1513342D01*
X1500013Y10993361D01*
Y11020019D01*
X1513342Y11033348D01*
X1500013Y11060006D02*
Y11086664D01*
Y11073335D01*
X1579987D01*
X1566658Y11060006D01*
Y11126652D02*
X1579987Y11139981D01*
Y11166639D01*
X1566658Y11179968D01*
X1513342D01*
X1500013Y11166639D01*
Y11139981D01*
X1513342Y11126652D01*
X1566658D01*
X9709119Y29364987D02*
Y29311670D01*
X9682461Y29285013D01*
X9655803Y29311670D01*
Y29364987D01*
X9629145D02*
X9575829D01*
X9602487D01*
Y29285013D01*
X9495855Y29364987D02*
X9549171D01*
Y29325000D01*
X9522513Y29338330D01*
X9509183D01*
X9495855Y29325000D01*
Y29298343D01*
X9509183Y29285013D01*
X9535841D01*
X9549171Y29298343D01*
X9469196Y29351657D02*
X9455867Y29364987D01*
X9429209D01*
X9415880Y29351657D01*
Y29338330D01*
X9429209Y29325000D01*
X9415880Y29311670D01*
Y29298343D01*
X9429209Y29285013D01*
X9455867D01*
X9469196Y29298343D01*
Y29311670D01*
X9455867Y29325000D01*
X9469196Y29338330D01*
Y29351657D01*
X9455867Y29325000D02*
X9429209D01*
X21369119Y27529987D02*
Y27476672D01*
X21342461Y27450012D01*
X21315804Y27476672D01*
Y27529987D01*
X21289145D02*
X21235829D01*
X21262486D01*
Y27450012D01*
X21155855Y27529987D02*
X21209171D01*
Y27489999D01*
X21182513Y27503329D01*
X21169183D01*
X21155855Y27489999D01*
Y27463342D01*
X21169183Y27450012D01*
X21195842D01*
X21209171Y27463342D01*
X21075880Y27529987D02*
X21102539Y27516656D01*
X21129198Y27489999D01*
Y27463342D01*
X21115868Y27450012D01*
X21089211D01*
X21075880Y27463342D01*
Y27476672D01*
X21089211Y27489999D01*
X21129198D01*
X23329987Y28703818D02*
X23276671D01*
X23250014Y28730475D01*
X23276671Y28757132D01*
X23329987D01*
Y28783792D02*
Y28837109D01*
Y28810449D01*
X23250014D01*
X23329987Y28917081D02*
Y28863766D01*
X23289999D01*
X23303329Y28890424D01*
Y28903754D01*
X23289999Y28917081D01*
X23263342D01*
X23250014Y28903754D01*
Y28877094D01*
X23263342Y28863766D01*
X23329987Y28997055D02*
Y28943741D01*
X23289999D01*
X23303329Y28970398D01*
Y28983728D01*
X23289999Y28997055D01*
X23263342D01*
X23250014Y28983728D01*
Y28957068D01*
X23263342Y28943741D01*
X9251619Y29362488D02*
Y29309171D01*
X9224961Y29282513D01*
X9198303Y29309171D01*
Y29362488D01*
X9171645D02*
X9118329D01*
X9144987D01*
Y29282513D01*
X9038355Y29362488D02*
X9091671D01*
Y29322501D01*
X9065013Y29335828D01*
X9051683D01*
X9038355Y29322501D01*
Y29295844D01*
X9051683Y29282513D01*
X9078342D01*
X9091671Y29295844D01*
X8971709Y29282513D02*
Y29362488D01*
X9011696Y29322501D01*
X8958380D01*
X23332487Y29201318D02*
X23279172D01*
X23252513Y29227975D01*
X23279172Y29254633D01*
X23332487D01*
Y29281293D02*
Y29334607D01*
Y29307950D01*
X23252513D01*
Y29401254D02*
X23332487D01*
X23292500Y29361267D01*
Y29414581D01*
X23265842Y29441241D02*
X23252513Y29454568D01*
Y29481226D01*
X23265842Y29494556D01*
X23319157D01*
X23332487Y29481226D01*
Y29454568D01*
X23319157Y29441241D01*
X23305829D01*
X23292500Y29454568D01*
Y29494556D01*
X21886620Y27519986D02*
Y27466672D01*
X21859961Y27440012D01*
X21833302Y27466672D01*
Y27519986D01*
X21806645D02*
X21753329D01*
X21779987D01*
Y27440012D01*
X21686684D02*
Y27519986D01*
X21726671Y27479999D01*
X21673355D01*
X21646696Y27506659D02*
X21633368Y27519986D01*
X21606709D01*
X21593381Y27506659D01*
Y27493329D01*
X21606709Y27479999D01*
X21593381Y27466672D01*
Y27453342D01*
X21606709Y27440012D01*
X21633368D01*
X21646696Y27453342D01*
Y27466672D01*
X21633368Y27479999D01*
X21646696Y27493329D01*
Y27506659D01*
X21633368Y27479999D02*
X21606709D01*
X8181619Y28744986D02*
Y28691672D01*
X8154961Y28665012D01*
X8128303Y28691672D01*
Y28744986D01*
X8101645D02*
X8048329D01*
X8074987D01*
Y28665012D01*
X7981684D02*
Y28744986D01*
X8021671Y28704999D01*
X7968355D01*
X7888380Y28744986D02*
X7915039Y28731659D01*
X7941697Y28704999D01*
Y28678342D01*
X7928367Y28665012D01*
X7901709D01*
X7888380Y28678342D01*
Y28691672D01*
X7901709Y28704999D01*
X7941697D01*
X7806619Y28744986D02*
Y28691672D01*
X7779961Y28665012D01*
X7753303Y28691672D01*
Y28744986D01*
X7726645D02*
X7673329D01*
X7699987D01*
Y28665012D01*
X7606684D02*
Y28744986D01*
X7646671Y28704999D01*
X7593355D01*
X7513380Y28744986D02*
X7566697D01*
Y28704999D01*
X7540039Y28718329D01*
X7526709D01*
X7513380Y28704999D01*
Y28678342D01*
X7526709Y28665012D01*
X7553367D01*
X7566697Y28678342D01*
X26122488Y29078381D02*
X26069171D01*
X26042514Y29105038D01*
X26069171Y29131696D01*
X26122488D01*
Y29158356D02*
Y29211670D01*
Y29185013D01*
X26042514D01*
Y29278317D02*
X26122488D01*
X26082501Y29238330D01*
Y29291644D01*
X26109158Y29318304D02*
X26122488Y29331631D01*
Y29358292D01*
X26109158Y29371619D01*
X26095828D01*
X26082501Y29358292D01*
Y29344962D01*
Y29358292D01*
X26069171Y29371619D01*
X26055841D01*
X26042514Y29358292D01*
Y29331631D01*
X26055841Y29318304D01*
X29459119Y27467487D02*
Y27414172D01*
X29432462Y27387512D01*
X29405804Y27414172D01*
Y27467487D01*
X29379144D02*
X29325830D01*
X29352487D01*
Y27387512D01*
X29259183D02*
Y27467487D01*
X29299170Y27427499D01*
X29245856D01*
X29165881Y27387512D02*
X29219196D01*
X29165881Y27440829D01*
Y27454156D01*
X29179208Y27467487D01*
X29205865D01*
X29219196Y27454156D01*
X26124988Y28585880D02*
X26071671D01*
X26045013Y28612540D01*
X26071671Y28639197D01*
X26124988D01*
Y28665854D02*
Y28719171D01*
Y28692514D01*
X26045013D01*
X26111658Y28745828D02*
X26124988Y28759158D01*
Y28785815D01*
X26111658Y28799146D01*
X26098328D01*
X26085001Y28785815D01*
Y28772488D01*
Y28785815D01*
X26071671Y28799146D01*
X26058344D01*
X26045013Y28785815D01*
Y28759158D01*
X26058344Y28745828D01*
X26124988Y28879120D02*
X26111658Y28852460D01*
X26085001Y28825803D01*
X26058344D01*
X26045013Y28839133D01*
Y28865790D01*
X26058344Y28879120D01*
X26071671D01*
X26085001Y28865790D01*
Y28825803D01*
X28954120Y27457486D02*
Y27404172D01*
X28927460Y27377512D01*
X28900803Y27404172D01*
Y27457486D01*
X28874146D02*
X28820828D01*
X28847488D01*
Y27377512D01*
X28794171Y27444159D02*
X28780841Y27457486D01*
X28754184D01*
X28740854Y27444159D01*
Y27430829D01*
X28754184Y27417499D01*
X28767514D01*
X28754184D01*
X28740854Y27404172D01*
Y27390842D01*
X28754184Y27377512D01*
X28780841D01*
X28794171Y27390842D01*
X28660880Y27457486D02*
X28714197D01*
Y27417499D01*
X28687540Y27430829D01*
X28674210D01*
X28660880Y27417499D01*
Y27390842D01*
X28674210Y27377512D01*
X28700867D01*
X28714197Y27390842D01*
X5109119Y29639987D02*
Y29586670D01*
X5082461Y29560013D01*
X5055803Y29586670D01*
Y29639987D01*
X5029145D02*
X4975829D01*
X5002487D01*
Y29560013D01*
X4949171Y29626660D02*
X4935842Y29639987D01*
X4909183D01*
X4895855Y29626660D01*
Y29613330D01*
X4909183Y29600000D01*
X4922513D01*
X4909183D01*
X4895855Y29586670D01*
Y29573343D01*
X4909183Y29560013D01*
X4935842D01*
X4949171Y29573343D01*
X4829209Y29560013D02*
Y29639987D01*
X4869197Y29600000D01*
X4815880D01*
X4603290Y29642487D02*
Y29589172D01*
X4576632Y29562512D01*
X4549974Y29589172D01*
Y29642487D01*
X4523316D02*
X4470000D01*
X4496658D01*
Y29562512D01*
X4443342Y29629160D02*
X4430013Y29642487D01*
X4403355D01*
X4390026Y29629160D01*
Y29615829D01*
X4403355Y29602502D01*
X4416684D01*
X4403355D01*
X4390026Y29589172D01*
Y29575842D01*
X4403355Y29562512D01*
X4430013D01*
X4443342Y29575842D01*
X4363368Y29562512D02*
X4336710D01*
X4350039D01*
Y29642487D01*
X4363368Y29629160D01*
X14782487Y26425882D02*
X14729172D01*
X14702513Y26452539D01*
X14729172Y26479196D01*
X14782487D01*
Y26505856D02*
X14702513D01*
Y26545844D01*
X14715842Y26559171D01*
X14769157D01*
X14782487Y26545844D01*
Y26505856D01*
Y26639145D02*
Y26585828D01*
X14742500D01*
X14755829Y26612488D01*
Y26625815D01*
X14742500Y26639145D01*
X14715842D01*
X14702513Y26625815D01*
Y26599158D01*
X14715842Y26585828D01*
X14782487Y26719119D02*
X14769157Y26692462D01*
X14742500Y26665802D01*
X14715842D01*
X14702513Y26679132D01*
Y26705792D01*
X14715842Y26719119D01*
X14729172D01*
X14742500Y26705792D01*
Y26665802D01*
X12394987Y27583380D02*
X12341671D01*
X12315013Y27610040D01*
X12341671Y27636697D01*
X12394987D01*
Y27663354D02*
X12315013D01*
Y27703342D01*
X12328342Y27716672D01*
X12381658D01*
X12394987Y27703342D01*
Y27663354D01*
Y27796646D02*
Y27743329D01*
X12355000D01*
X12368329Y27769986D01*
Y27783316D01*
X12355000Y27796646D01*
X12328342D01*
X12315013Y27783316D01*
Y27756659D01*
X12328342Y27743329D01*
X12394987Y27876620D02*
Y27823303D01*
X12355000D01*
X12368329Y27849960D01*
Y27863290D01*
X12355000Y27876620D01*
X12328342D01*
X12315013Y27863290D01*
Y27836633D01*
X12328342Y27823303D01*
X16779987Y26388382D02*
X16726671D01*
X16700014Y26415039D01*
X16726671Y26441696D01*
X16779987D01*
Y26468356D02*
X16700014D01*
Y26508344D01*
X16713342Y26521671D01*
X16766658D01*
X16779987Y26508344D01*
Y26468356D01*
Y26601645D02*
Y26548328D01*
X16739999D01*
X16753329Y26574988D01*
Y26588315D01*
X16739999Y26601645D01*
X16713342D01*
X16700014Y26588315D01*
Y26561658D01*
X16713342Y26548328D01*
X16700014Y26668289D02*
X16779987D01*
X16739999Y26628302D01*
Y26681619D01*
X11737487Y27548380D02*
X11684171D01*
X11657513Y27575040D01*
X11684171Y27601697D01*
X11737487D01*
Y27628354D02*
X11657513D01*
Y27668341D01*
X11670842Y27681671D01*
X11724158D01*
X11737487Y27668341D01*
Y27628354D01*
Y27761646D02*
Y27708328D01*
X11697500D01*
X11710829Y27734988D01*
Y27748315D01*
X11697500Y27761646D01*
X11670842D01*
X11657513Y27748315D01*
Y27721658D01*
X11670842Y27708328D01*
X11724158Y27788303D02*
X11737487Y27801633D01*
Y27828290D01*
X11724158Y27841620D01*
X11710829D01*
X11697500Y27828290D01*
Y27814960D01*
Y27828290D01*
X11684171Y27841620D01*
X11670842D01*
X11657513Y27828290D01*
Y27801633D01*
X11670842Y27788303D01*
X11464987Y27555881D02*
X11411671D01*
X11385013Y27582538D01*
X11411671Y27609198D01*
X11464987D01*
Y27635855D02*
X11385013D01*
Y27675842D01*
X11398342Y27689172D01*
X11451658D01*
X11464987Y27675842D01*
Y27635855D01*
Y27769144D02*
Y27715829D01*
X11425000D01*
X11438329Y27742487D01*
Y27755817D01*
X11425000Y27769144D01*
X11398342D01*
X11385013Y27755817D01*
Y27729156D01*
X11398342Y27715829D01*
X11385013Y27849121D02*
Y27795804D01*
X11438329Y27849121D01*
X11451658D01*
X11464987Y27835791D01*
Y27809134D01*
X11451658Y27795804D01*
X10673290Y28844986D02*
Y28791672D01*
X10646632Y28765012D01*
X10619974Y28791672D01*
Y28844986D01*
X10593316D02*
Y28765012D01*
X10553329D01*
X10540000Y28778342D01*
Y28831659D01*
X10553329Y28844986D01*
X10593316D01*
X10460026D02*
X10513342D01*
Y28804999D01*
X10486684Y28818329D01*
X10473354D01*
X10460026Y28804999D01*
Y28778342D01*
X10473354Y28765012D01*
X10500013D01*
X10513342Y28778342D01*
X10433367Y28765012D02*
X10406709D01*
X10420038D01*
Y28844986D01*
X10433367Y28831659D01*
X10784987Y26415881D02*
X10731671D01*
X10705013Y26442538D01*
X10731671Y26469196D01*
X10784987D01*
Y26495856D02*
X10705013D01*
Y26535843D01*
X10718342Y26549170D01*
X10771658D01*
X10784987Y26535843D01*
Y26495856D01*
Y26629144D02*
Y26575830D01*
X10745000D01*
X10758329Y26602487D01*
Y26615817D01*
X10745000Y26629144D01*
X10718342D01*
X10705013Y26615817D01*
Y26589157D01*
X10718342Y26575830D01*
X10771658Y26655804D02*
X10784987Y26669135D01*
Y26695792D01*
X10771658Y26709119D01*
X10718342D01*
X10705013Y26695792D01*
Y26669135D01*
X10718342Y26655804D01*
X10771658D01*
X20071619Y29637488D02*
Y29584171D01*
X20044962Y29557513D01*
X20018303Y29584171D01*
Y29637488D01*
X19991644D02*
Y29557513D01*
X19951659D01*
X19938329Y29570844D01*
Y29624158D01*
X19951659Y29637488D01*
X19991644D01*
X19871684Y29557513D02*
Y29637488D01*
X19911671Y29597501D01*
X19858356D01*
X19831697Y29570844D02*
X19818369Y29557513D01*
X19791708D01*
X19778381Y29570844D01*
Y29624158D01*
X19791708Y29637488D01*
X19818369D01*
X19831697Y29624158D01*
Y29610828D01*
X19818369Y29597501D01*
X19778381D01*
X10812487Y27535880D02*
X10759171D01*
X10732513Y27562540D01*
X10759171Y27589197D01*
X10812487D01*
Y27615854D02*
X10732513D01*
Y27655841D01*
X10745842Y27669171D01*
X10799158D01*
X10812487Y27655841D01*
Y27615854D01*
X10732513Y27735815D02*
X10812487D01*
X10772500Y27695828D01*
Y27749146D01*
X10799158Y27775803D02*
X10812487Y27789133D01*
Y27815790D01*
X10799158Y27829120D01*
X10785829D01*
X10772500Y27815790D01*
X10759171Y27829120D01*
X10745842D01*
X10732513Y27815790D01*
Y27789133D01*
X10745842Y27775803D01*
X10759171D01*
X10772500Y27789133D01*
X10785829Y27775803D01*
X10799158D01*
X10772500Y27789133D02*
Y27815790D01*
X9066619Y28209988D02*
Y28156671D01*
X9039961Y28130014D01*
X9013303Y28156671D01*
Y28209988D01*
X8986645D02*
Y28130014D01*
X8946658D01*
X8933329Y28143341D01*
Y28196658D01*
X8946658Y28209988D01*
X8986645D01*
X8866684Y28130014D02*
Y28209988D01*
X8906671Y28170001D01*
X8853355D01*
X8826697Y28209988D02*
X8773380D01*
Y28196658D01*
X8826697Y28143341D01*
Y28130014D01*
X19302513Y27154120D02*
X19355829D01*
X19382487Y27127460D01*
X19355829Y27100803D01*
X19302513D01*
Y27074146D02*
X19382487D01*
Y27034158D01*
X19369157Y27020828D01*
X19315842D01*
X19302513Y27034158D01*
Y27074146D01*
X19382487Y26954184D02*
X19302513D01*
X19342500Y26994171D01*
Y26940854D01*
X19302513Y26860880D02*
X19315842Y26887540D01*
X19342500Y26914197D01*
X19369157D01*
X19382487Y26900867D01*
Y26874210D01*
X19369157Y26860880D01*
X19355829D01*
X19342500Y26874210D01*
Y26914197D01*
X22329118Y29682486D02*
Y29629172D01*
X22302461Y29602512D01*
X22275803Y29629172D01*
Y29682486D01*
X22249146D02*
Y29602512D01*
X22209158D01*
X22195828Y29615842D01*
Y29669159D01*
X22209158Y29682486D01*
X22249146D01*
X22129184Y29602512D02*
Y29682486D01*
X22169171Y29642499D01*
X22115855D01*
X22035880Y29682486D02*
X22089197D01*
Y29642499D01*
X22062540Y29655829D01*
X22049210D01*
X22035880Y29642499D01*
Y29615842D01*
X22049210Y29602512D01*
X22075867D01*
X22089197Y29615842D01*
X19900014Y27131619D02*
X19953329D01*
X19979987Y27104962D01*
X19953329Y27078302D01*
X19900014D01*
Y27051645D02*
X19979987D01*
Y27011658D01*
X19966658Y26998328D01*
X19913342D01*
X19900014Y27011658D01*
Y27051645D01*
X19979987Y26931683D02*
X19900014D01*
X19939999Y26971671D01*
Y26918356D01*
X19979987Y26851709D02*
X19900014D01*
X19939999Y26891696D01*
Y26838382D01*
X12794987Y26430881D02*
X12741671D01*
X12715013Y26457538D01*
X12741671Y26484198D01*
X12794987D01*
Y26510855D02*
X12715013D01*
Y26550842D01*
X12728342Y26564172D01*
X12781658D01*
X12794987Y26550842D01*
Y26510855D01*
X12715013Y26630817D02*
X12794987D01*
X12755000Y26590829D01*
Y26644144D01*
X12781658Y26670804D02*
X12794987Y26684134D01*
Y26710791D01*
X12781658Y26724121D01*
X12768329D01*
X12755000Y26710791D01*
Y26697461D01*
Y26710791D01*
X12741671Y26724121D01*
X12728342D01*
X12715013Y26710791D01*
Y26684134D01*
X12728342Y26670804D01*
X30427512Y27509119D02*
X30480829D01*
X30507486Y27482462D01*
X30480829Y27455804D01*
X30427512D01*
Y27429144D02*
X30507486D01*
Y27389157D01*
X30494159Y27375830D01*
X30440842D01*
X30427512Y27389157D01*
Y27429144D01*
X30507486Y27309183D02*
X30427512D01*
X30467499Y27349170D01*
Y27295856D01*
X30507486Y27215881D02*
Y27269196D01*
X30454172Y27215881D01*
X30440842D01*
X30427512Y27229208D01*
Y27255869D01*
X30440842Y27269196D01*
X6797487Y26501709D02*
X6744171D01*
X6717513Y26528369D01*
X6744171Y26555026D01*
X6797487D01*
Y26581683D02*
X6717513D01*
Y26621671D01*
X6730842Y26635001D01*
X6784158D01*
X6797487Y26621671D01*
Y26581683D01*
X6717513Y26701645D02*
X6797487D01*
X6757500Y26661658D01*
Y26714975D01*
X6717513Y26741632D02*
Y26768292D01*
Y26754962D01*
X6797487D01*
X6784158Y26741632D01*
X27029987Y28608380D02*
X26976672D01*
X26950012Y28635040D01*
X26976672Y28661697D01*
X27029987D01*
Y28688354D02*
X26950012D01*
Y28728342D01*
X26963342Y28741672D01*
X27016656D01*
X27029987Y28728342D01*
Y28688354D01*
X26950012Y28808316D02*
X27029987D01*
X26989999Y28768329D01*
Y28821646D01*
X27016656Y28848303D02*
X27029987Y28861633D01*
Y28888290D01*
X27016656Y28901620D01*
X26963342D01*
X26950012Y28888290D01*
Y28861633D01*
X26963342Y28848303D01*
X27016656D01*
X29835013Y27511618D02*
X29888330D01*
X29914987Y27484961D01*
X29888330Y27458304D01*
X29835013D01*
Y27431644D02*
X29914987D01*
Y27391656D01*
X29901657Y27378329D01*
X29848343D01*
X29835013Y27391656D01*
Y27431644D01*
X29848343Y27351672D02*
X29835013Y27338342D01*
Y27311685D01*
X29848343Y27298355D01*
X29861670D01*
X29875000Y27311685D01*
Y27325012D01*
Y27311685D01*
X29888330Y27298355D01*
X29901657D01*
X29914987Y27311685D01*
Y27338342D01*
X29901657Y27351672D01*
Y27271698D02*
X29914987Y27258368D01*
Y27231708D01*
X29901657Y27218381D01*
X29848343D01*
X29835013Y27231708D01*
Y27258368D01*
X29848343Y27271698D01*
X29861670D01*
X29875000Y27258368D01*
Y27218381D01*
X27259119Y29382486D02*
Y29329172D01*
X27232462Y29302512D01*
X27205804Y29329172D01*
Y29382486D01*
X27179144D02*
Y29302512D01*
X27139157D01*
X27125830Y29315842D01*
Y29369159D01*
X27139157Y29382486D01*
X27179144D01*
X27099170Y29369159D02*
X27085843Y29382486D01*
X27059183D01*
X27045856Y29369159D01*
Y29355829D01*
X27059183Y29342499D01*
X27072513D01*
X27059183D01*
X27045856Y29329172D01*
Y29315842D01*
X27059183Y29302512D01*
X27085843D01*
X27099170Y29315842D01*
X27019196Y29369159D02*
X27005869Y29382486D01*
X26979208D01*
X26965881Y29369159D01*
Y29355829D01*
X26979208Y29342499D01*
X26965881Y29329172D01*
Y29315842D01*
X26979208Y29302512D01*
X27005869D01*
X27019196Y29315842D01*
Y29329172D01*
X27005869Y29342499D01*
X27019196Y29355829D01*
Y29369159D01*
X27005869Y29342499D02*
X26979208D01*
X1659987Y27545880D02*
X1606671D01*
X1580013Y27572540D01*
X1606671Y27599197D01*
X1659987D01*
Y27625854D02*
X1580013D01*
Y27665842D01*
X1593342Y27679172D01*
X1646658D01*
X1659987Y27665842D01*
Y27625854D01*
X1646658Y27705829D02*
X1659987Y27719159D01*
Y27745816D01*
X1646658Y27759146D01*
X1633329D01*
X1620000Y27745816D01*
Y27732486D01*
Y27745816D01*
X1606671Y27759146D01*
X1593342D01*
X1580013Y27745816D01*
Y27719159D01*
X1593342Y27705829D01*
X1659987Y27785803D02*
Y27839120D01*
X1646658D01*
X1593342Y27785803D01*
X1580013D01*
X8777487Y26435880D02*
X8724171D01*
X8697513Y26462540D01*
X8724171Y26489197D01*
X8777487D01*
Y26515854D02*
X8697513D01*
Y26555841D01*
X8710842Y26569171D01*
X8764158D01*
X8777487Y26555841D01*
Y26515854D01*
X8764158Y26595828D02*
X8777487Y26609158D01*
Y26635815D01*
X8764158Y26649146D01*
X8750829D01*
X8737500Y26635815D01*
Y26622488D01*
Y26635815D01*
X8724171Y26649146D01*
X8710842D01*
X8697513Y26635815D01*
Y26609158D01*
X8710842Y26595828D01*
X8777487Y26729120D02*
X8764158Y26702460D01*
X8737500Y26675803D01*
X8710842D01*
X8697513Y26689133D01*
Y26715790D01*
X8710842Y26729120D01*
X8724171D01*
X8737500Y26715790D01*
Y26675803D01*
X2337487Y27520874D02*
X2284171D01*
X2257513Y27547531D01*
X2284171Y27574191D01*
X2337487D01*
Y27600848D02*
X2257513D01*
Y27640836D01*
X2270842Y27654163D01*
X2324158D01*
X2337487Y27640836D01*
Y27600848D01*
X2257513Y27680823D02*
Y27707480D01*
Y27694153D01*
X2337487D01*
X2324158Y27680823D01*
X2257513Y27747467D02*
Y27774127D01*
Y27760797D01*
X2337487D01*
X2324158Y27747467D01*
X4017455Y28914987D02*
Y28861670D01*
X3990797Y28835013D01*
X3964139Y28861670D01*
Y28914987D01*
X3937481D02*
Y28835013D01*
X3897493D01*
X3884164Y28848343D01*
Y28901657D01*
X3897493Y28914987D01*
X3937481D01*
X3857506Y28835013D02*
X3830848D01*
X3844177D01*
Y28914987D01*
X3857506Y28901657D01*
X3790861D02*
X3777532Y28914987D01*
X3750874D01*
X3737545Y28901657D01*
Y28848343D01*
X3750874Y28835013D01*
X3777532D01*
X3790861Y28848343D01*
Y28901657D01*
X2607487Y27578369D02*
X2554171D01*
X2527513Y27605026D01*
X2554171Y27631683D01*
X2607487D01*
Y27658344D02*
X2527513D01*
Y27698328D01*
X2540842Y27711658D01*
X2594158D01*
X2607487Y27698328D01*
Y27658344D01*
X2540842Y27738315D02*
X2527513Y27751645D01*
Y27778302D01*
X2540842Y27791632D01*
X2594158D01*
X2607487Y27778302D01*
Y27751645D01*
X2594158Y27738315D01*
X2580829D01*
X2567500Y27751645D01*
Y27791632D01*
X4772487Y26505865D02*
X4719171D01*
X4692513Y26532526D01*
X4719171Y26559183D01*
X4772487D01*
Y26585843D02*
X4692513D01*
Y26625830D01*
X4705842Y26639157D01*
X4759158D01*
X4772487Y26625830D01*
Y26585843D01*
X4759158Y26665817D02*
X4772487Y26679144D01*
Y26705804D01*
X4759158Y26719131D01*
X4745829D01*
X4732500Y26705804D01*
X4719171Y26719131D01*
X4705842D01*
X4692513Y26705804D01*
Y26679144D01*
X4705842Y26665817D01*
X4719171D01*
X4732500Y26679144D01*
X4745829Y26665817D01*
X4759158D01*
X4732500Y26679144D02*
Y26705804D01*
X3237487Y27605869D02*
X3184171D01*
X3157513Y27632526D01*
X3184171Y27659183D01*
X3237487D01*
Y27685843D02*
X3157513D01*
Y27725830D01*
X3170842Y27739157D01*
X3224158D01*
X3237487Y27725830D01*
Y27685843D01*
Y27765817D02*
Y27819131D01*
X3224158D01*
X3170842Y27765817D01*
X3157513D01*
X4056632Y28344986D02*
Y28291672D01*
X4029974Y28265012D01*
X4003316Y28291672D01*
Y28344986D01*
X3976658D02*
Y28265012D01*
X3936671D01*
X3923342Y28278342D01*
Y28331659D01*
X3936671Y28344986D01*
X3976658D01*
X3843368D02*
X3870026Y28331659D01*
X3896684Y28304999D01*
Y28278342D01*
X3883355Y28265012D01*
X3856697D01*
X3843368Y28278342D01*
Y28291672D01*
X3856697Y28304999D01*
X3896684D01*
X2789987Y26488367D02*
X2736671D01*
X2710013Y26515027D01*
X2736671Y26541684D01*
X2789987D01*
Y26568341D02*
X2710013D01*
Y26608328D01*
X2723342Y26621658D01*
X2776658D01*
X2789987Y26608328D01*
Y26568341D01*
Y26701633D02*
Y26648315D01*
X2750000D01*
X2763329Y26674973D01*
Y26688303D01*
X2750000Y26701633D01*
X2723342D01*
X2710013Y26688303D01*
Y26661646D01*
X2723342Y26648315D01*
X13129987Y3103368D02*
X13076671D01*
X13050014Y3130026D01*
X13076671Y3156684D01*
X13129987D01*
Y3183342D02*
X13050014D01*
Y3223329D01*
X13063342Y3236658D01*
X13116658D01*
X13129987Y3223329D01*
Y3183342D01*
X13050014Y3303303D02*
X13129987D01*
X13089999Y3263316D01*
Y3316632D01*
X9122487Y3140868D02*
X9069171D01*
X9042513Y3167526D01*
X9069171Y3194184D01*
X9122487D01*
Y3220842D02*
X9042513D01*
Y3260829D01*
X9055842Y3274158D01*
X9109158D01*
X9122487Y3260829D01*
Y3220842D01*
X9109158Y3300816D02*
X9122487Y3314145D01*
Y3340803D01*
X9109158Y3354132D01*
X9095829D01*
X9082500Y3340803D01*
Y3327474D01*
Y3340803D01*
X9069171Y3354132D01*
X9055842D01*
X9042513Y3340803D01*
Y3314145D01*
X9055842Y3300816D01*
X5294987Y3230868D02*
X5241671D01*
X5215013Y3257526D01*
X5241671Y3284184D01*
X5294987D01*
Y3310842D02*
X5215013D01*
Y3350829D01*
X5228342Y3364158D01*
X5281658D01*
X5294987Y3350829D01*
Y3310842D01*
X5215013Y3444132D02*
Y3390816D01*
X5268329Y3444132D01*
X5281658D01*
X5294987Y3430803D01*
Y3404145D01*
X5281658Y3390816D01*
X3329987Y3264197D02*
X3276671D01*
X3250013Y3290855D01*
X3276671Y3317513D01*
X3329987D01*
Y3344171D02*
X3250013D01*
Y3384158D01*
X3263342Y3397487D01*
X3316658D01*
X3329987Y3384158D01*
Y3344171D01*
X3250013Y3424145D02*
Y3450803D01*
Y3437474D01*
X3329987D01*
X3316658Y3424145D01*
X14934955Y26182513D02*
Y26262488D01*
X14894968D01*
X14881639Y26249158D01*
Y26222501D01*
X14894968Y26209171D01*
X14934955D01*
X14908298D02*
X14881639Y26182513D01*
X14854980D02*
X14828322D01*
X14841650D01*
Y26262488D01*
X14854980Y26249158D01*
X14735019Y26182513D02*
X14788335D01*
X14735019Y26235828D01*
Y26249158D01*
X14748347Y26262488D01*
X14775006D01*
X14788335Y26249158D01*
X14668375Y26182513D02*
Y26262488D01*
X14708360Y26222501D01*
X14655045D01*
X14150014Y26480045D02*
X14229987D01*
Y26520032D01*
X14216658Y26533362D01*
X14189999D01*
X14176671Y26520032D01*
Y26480045D01*
Y26506702D02*
X14150014Y26533362D01*
Y26560019D02*
Y26586679D01*
Y26573349D01*
X14229987D01*
X14216658Y26560019D01*
X14150014Y26679980D02*
Y26626666D01*
X14203329Y26679980D01*
X14216658D01*
X14229987Y26666653D01*
Y26639993D01*
X14216658Y26626666D01*
Y26706638D02*
X14229987Y26719968D01*
Y26746625D01*
X14216658Y26759955D01*
X14203329D01*
X14189999Y26746625D01*
Y26733298D01*
Y26746625D01*
X14176671Y26759955D01*
X14163342D01*
X14150014Y26746625D01*
Y26719968D01*
X14163342Y26706638D01*
X13937456Y26170013D02*
Y26249988D01*
X13897469D01*
X13884138Y26236658D01*
Y26210001D01*
X13897469Y26196671D01*
X13937456D01*
X13910797D02*
X13884138Y26170013D01*
X13857481D02*
X13830823D01*
X13844151D01*
Y26249988D01*
X13857481Y26236658D01*
X13737518Y26170013D02*
X13790836D01*
X13737518Y26223328D01*
Y26236658D01*
X13750848Y26249988D01*
X13777505D01*
X13790836Y26236658D01*
X13657545Y26170013D02*
X13710861D01*
X13657545Y26223328D01*
Y26236658D01*
X13670874Y26249988D01*
X13697533D01*
X13710861Y26236658D01*
X16891626Y26157513D02*
Y26237488D01*
X16851637D01*
X16838309Y26224158D01*
Y26197501D01*
X16851637Y26184171D01*
X16891626D01*
X16864967D02*
X16838309Y26157513D01*
X16811652D02*
X16784993D01*
X16798322D01*
Y26237488D01*
X16811652Y26224158D01*
X16691690Y26157513D02*
X16745006D01*
X16691690Y26210828D01*
Y26224158D01*
X16705019Y26237488D01*
X16731677D01*
X16745006Y26224158D01*
X16665031Y26157513D02*
X16638374D01*
X16651703D01*
Y26237488D01*
X16665031Y26224158D01*
X15914954Y26165012D02*
Y26244986D01*
X15874966D01*
X15861638Y26231659D01*
Y26204999D01*
X15874966Y26191672D01*
X15914954D01*
X15888297D02*
X15861638Y26165012D01*
X15834979D02*
X15808322D01*
X15821651D01*
Y26244986D01*
X15834979Y26231659D01*
X15715019Y26165012D02*
X15768335D01*
X15715019Y26218329D01*
Y26231659D01*
X15728348Y26244986D01*
X15755006D01*
X15768335Y26231659D01*
X15688361D02*
X15675032Y26244986D01*
X15648373D01*
X15635045Y26231659D01*
Y26178342D01*
X15648373Y26165012D01*
X15675032D01*
X15688361Y26178342D01*
Y26231659D01*
X16122513Y26481711D02*
X16202487D01*
Y26521698D01*
X16189159Y26535025D01*
X16162500D01*
X16149171Y26521698D01*
Y26481711D01*
Y26508368D02*
X16122513Y26535025D01*
Y26561685D02*
Y26588342D01*
Y26575012D01*
X16202487D01*
X16189159Y26561685D01*
X16122513Y26628329D02*
Y26654987D01*
Y26641656D01*
X16202487D01*
X16189159Y26628329D01*
X16135841Y26694974D02*
X16122513Y26708304D01*
Y26734961D01*
X16135841Y26748291D01*
X16189159D01*
X16202487Y26734961D01*
Y26708304D01*
X16189159Y26694974D01*
X16175829D01*
X16162500Y26708304D01*
Y26748291D01*
X22733292Y27932513D02*
Y28012488D01*
X22693303D01*
X22679974Y27999158D01*
Y27972501D01*
X22693303Y27959171D01*
X22733292D01*
X22706633D02*
X22679974Y27932513D01*
X22653316D02*
X22626659D01*
X22639987D01*
Y28012488D01*
X22653316Y27999158D01*
X22586671Y27932513D02*
X22560013D01*
X22573341D01*
Y28012488D01*
X22586671Y27999158D01*
X22520026D02*
X22506697Y28012488D01*
X22480038D01*
X22466710Y27999158D01*
Y27985828D01*
X22480038Y27972501D01*
X22466710Y27959171D01*
Y27945844D01*
X22480038Y27932513D01*
X22506697D01*
X22520026Y27945844D01*
Y27959171D01*
X22506697Y27972501D01*
X22520026Y27985828D01*
Y27999158D01*
X22506697Y27972501D02*
X22480038D01*
X8740790Y29095013D02*
Y29174988D01*
X8700803D01*
X8687474Y29161658D01*
Y29135001D01*
X8700803Y29121671D01*
X8740790D01*
X8714132D02*
X8687474Y29095013D01*
X8660816D02*
X8634158D01*
X8647487D01*
Y29174988D01*
X8660816Y29161658D01*
X8594171Y29095013D02*
X8567513D01*
X8580842D01*
Y29174988D01*
X8594171Y29161658D01*
X8527525Y29174988D02*
X8474209D01*
Y29161658D01*
X8527525Y29108344D01*
Y29095013D01*
X10895791Y26197498D02*
Y26277472D01*
X10855803D01*
X10842474Y26264142D01*
Y26237485D01*
X10855803Y26224155D01*
X10895791D01*
X10869132D02*
X10842474Y26197498D01*
X10815816D02*
X10789158D01*
X10802487D01*
Y26277472D01*
X10815816Y26264142D01*
X10749171Y26197498D02*
X10722513D01*
X10735842D01*
Y26277472D01*
X10749171Y26264142D01*
X10629210Y26277472D02*
X10655868Y26264142D01*
X10682526Y26237485D01*
Y26210825D01*
X10669197Y26197498D01*
X10642539D01*
X10629210Y26210825D01*
Y26224155D01*
X10642539Y26237485D01*
X10682526D01*
X20994987Y28035791D02*
X20915013D01*
Y27995804D01*
X20928342Y27982474D01*
X20955000D01*
X20968329Y27995804D01*
Y28035791D01*
Y28009131D02*
X20994987Y27982474D01*
Y27955817D02*
Y27929156D01*
Y27942487D01*
X20915013D01*
X20928342Y27955817D01*
X20994987Y27889172D02*
Y27862512D01*
Y27875842D01*
X20915013D01*
X20928342Y27889172D01*
X20915013Y27769208D02*
Y27822525D01*
X20955000D01*
X20941672Y27795868D01*
Y27782538D01*
X20955000Y27769208D01*
X20981657D01*
X20994987Y27782538D01*
Y27809195D01*
X20981657Y27822525D01*
X22212514Y26926709D02*
X22292488D01*
Y26966696D01*
X22279160Y26980026D01*
X22252501D01*
X22239171Y26966696D01*
Y26926709D01*
Y26953366D02*
X22212514Y26980026D01*
Y27006683D02*
Y27033344D01*
Y27020013D01*
X22292488D01*
X22279160Y27006683D01*
X22212514Y27073328D02*
Y27099988D01*
Y27086658D01*
X22292488D01*
X22279160Y27073328D01*
X22212514Y27179962D02*
X22292488D01*
X22252501Y27139975D01*
Y27193289D01*
X22460013Y26176709D02*
X22539987D01*
Y26216696D01*
X22526659Y26230026D01*
X22500000D01*
X22486671Y26216696D01*
Y26176709D01*
Y26203369D02*
X22460013Y26230026D01*
Y26256683D02*
Y26283344D01*
Y26270013D01*
X22539987D01*
X22526659Y26256683D01*
X22460013Y26323328D02*
Y26349988D01*
Y26336658D01*
X22539987D01*
X22526659Y26323328D01*
Y26389975D02*
X22539987Y26403305D01*
Y26429962D01*
X22526659Y26443292D01*
X22513329D01*
X22500000Y26429962D01*
Y26416632D01*
Y26429962D01*
X22486671Y26443292D01*
X22473341D01*
X22460013Y26429962D01*
Y26403305D01*
X22473341Y26389975D01*
X20477513Y26179211D02*
X20557487D01*
Y26219196D01*
X20544157Y26232526D01*
X20517500D01*
X20504172Y26219196D01*
Y26179211D01*
Y26205869D02*
X20477513Y26232526D01*
Y26259183D02*
Y26285843D01*
Y26272513D01*
X20557487D01*
X20544157Y26259183D01*
X20477513Y26325830D02*
Y26352487D01*
Y26339157D01*
X20557487D01*
X20544157Y26325830D01*
X20477513Y26445792D02*
Y26392474D01*
X20530829Y26445792D01*
X20544157D01*
X20557487Y26432462D01*
Y26405804D01*
X20544157Y26392474D01*
X18462514Y26187540D02*
X18542487D01*
Y26227527D01*
X18529158Y26240854D01*
X18502499D01*
X18489171Y26227527D01*
Y26187540D01*
Y26214197D02*
X18462514Y26240854D01*
Y26267514D02*
Y26294171D01*
Y26280841D01*
X18542487D01*
X18529158Y26267514D01*
X18462514Y26334158D02*
Y26360815D01*
Y26347488D01*
X18542487D01*
X18529158Y26334158D01*
X18462514Y26400803D02*
Y26427460D01*
Y26414133D01*
X18542487D01*
X18529158Y26400803D01*
X24472513Y26176709D02*
X24552487D01*
Y26216696D01*
X24539159Y26230026D01*
X24512500D01*
X24499171Y26216696D01*
Y26176709D01*
Y26203369D02*
X24472513Y26230026D01*
Y26256683D02*
Y26283344D01*
Y26270013D01*
X24552487D01*
X24539159Y26256683D01*
X24472513Y26323328D02*
Y26349988D01*
Y26336658D01*
X24552487D01*
X24539159Y26323328D01*
Y26389975D02*
X24552487Y26403305D01*
Y26429962D01*
X24539159Y26443292D01*
X24485841D01*
X24472513Y26429962D01*
Y26403305D01*
X24485841Y26389975D01*
X24539159D01*
X9914955Y26209998D02*
Y26289972D01*
X9874968D01*
X9861639Y26276642D01*
Y26249985D01*
X9874968Y26236655D01*
X9914955D01*
X9888297D02*
X9861639Y26209998D01*
X9834981D02*
X9808323D01*
X9821651D01*
Y26289972D01*
X9834981Y26276642D01*
X9768335D02*
X9755006Y26289972D01*
X9728348D01*
X9715019Y26276642D01*
Y26223325D01*
X9728348Y26209998D01*
X9755006D01*
X9768335Y26223325D01*
Y26276642D01*
X9688361Y26223325D02*
X9675032Y26209998D01*
X9648374D01*
X9635045Y26223325D01*
Y26276642D01*
X9648374Y26289972D01*
X9675032D01*
X9688361Y26276642D01*
Y26263312D01*
X9675032Y26249985D01*
X9635045D01*
X22365013Y28330045D02*
X22444987D01*
Y28370032D01*
X22431657Y28383362D01*
X22405000D01*
X22391672Y28370032D01*
Y28330045D01*
Y28356702D02*
X22365013Y28383362D01*
Y28410019D02*
Y28436676D01*
Y28423349D01*
X22444987D01*
X22431657Y28410019D01*
Y28476666D02*
X22444987Y28489993D01*
Y28516653D01*
X22431657Y28529980D01*
X22378342D01*
X22365013Y28516653D01*
Y28489993D01*
X22378342Y28476666D01*
X22431657D01*
Y28556638D02*
X22444987Y28569968D01*
Y28596625D01*
X22431657Y28609955D01*
X22418329D01*
X22405000Y28596625D01*
X22391672Y28609955D01*
X22378342D01*
X22365013Y28596625D01*
Y28569968D01*
X22378342Y28556638D01*
X22391672D01*
X22405000Y28569968D01*
X22418329Y28556638D01*
X22431657D01*
X22405000Y28569968D02*
Y28596625D01*
X19712456Y28425012D02*
Y28504987D01*
X19672469D01*
X19659138Y28491656D01*
Y28464999D01*
X19672469Y28451672D01*
X19712456D01*
X19685797D02*
X19659138Y28425012D01*
X19632481D02*
X19605823D01*
X19619151D01*
Y28504987D01*
X19632481Y28491656D01*
X19565836D02*
X19552505Y28504987D01*
X19525848D01*
X19512518Y28491656D01*
Y28438342D01*
X19525848Y28425012D01*
X19552505D01*
X19565836Y28438342D01*
Y28491656D01*
X19485861Y28504987D02*
X19432545D01*
Y28491656D01*
X19485861Y28438342D01*
Y28425012D01*
X10125013Y26502545D02*
X10204987D01*
Y26542532D01*
X10191658Y26555862D01*
X10165000D01*
X10151671Y26542532D01*
Y26502545D01*
Y26529202D02*
X10125013Y26555862D01*
Y26582520D02*
Y26609177D01*
Y26595850D01*
X10204987D01*
X10191658Y26582520D01*
Y26649164D02*
X10204987Y26662494D01*
Y26689151D01*
X10191658Y26702481D01*
X10138342D01*
X10125013Y26689151D01*
Y26662494D01*
X10138342Y26649164D01*
X10191658D01*
X10204987Y26782455D02*
X10191658Y26755798D01*
X10165000Y26729138D01*
X10138342D01*
X10125013Y26742468D01*
Y26769125D01*
X10138342Y26782455D01*
X10151671D01*
X10165000Y26769125D01*
Y26729138D01*
X12932455Y26197513D02*
Y26277487D01*
X12892468D01*
X12879140Y26264157D01*
Y26237500D01*
X12892468Y26224170D01*
X12932455D01*
X12905797D02*
X12879140Y26197513D01*
X12852481D02*
X12825822D01*
X12839153D01*
Y26277487D01*
X12852481Y26264157D01*
X12785835D02*
X12772506Y26277487D01*
X12745848D01*
X12732519Y26264157D01*
Y26210843D01*
X12745848Y26197513D01*
X12772506D01*
X12785835Y26210843D01*
Y26264157D01*
X12652545Y26277487D02*
X12705861D01*
Y26237500D01*
X12679203Y26250830D01*
X12665874D01*
X12652545Y26237500D01*
Y26210843D01*
X12665874Y26197513D01*
X12692532D01*
X12705861Y26210843D01*
X11924955Y26190012D02*
Y26269986D01*
X11884968D01*
X11871639Y26256659D01*
Y26229999D01*
X11884968Y26216672D01*
X11924955D01*
X11898297D02*
X11871639Y26190012D01*
X11844981D02*
X11818323D01*
X11831652D01*
Y26269986D01*
X11844981Y26256659D01*
X11778336D02*
X11765006Y26269986D01*
X11738348D01*
X11725019Y26256659D01*
Y26203342D01*
X11738348Y26190012D01*
X11765006D01*
X11778336Y26203342D01*
Y26256659D01*
X11658374Y26190012D02*
Y26269986D01*
X11698361Y26229999D01*
X11645045D01*
X12140013Y26500046D02*
X12219987D01*
Y26540033D01*
X12206658Y26553360D01*
X12180000D01*
X12166671Y26540033D01*
Y26500046D01*
Y26526703D02*
X12140013Y26553360D01*
Y26580020D02*
Y26606677D01*
Y26593350D01*
X12219987D01*
X12206658Y26580020D01*
Y26646664D02*
X12219987Y26659995D01*
Y26686652D01*
X12206658Y26699982D01*
X12153342D01*
X12140013Y26686652D01*
Y26659995D01*
X12153342Y26646664D01*
X12206658D01*
Y26726639D02*
X12219987Y26739969D01*
Y26766626D01*
X12206658Y26779956D01*
X12193329D01*
X12180000Y26766626D01*
Y26753296D01*
Y26766626D01*
X12166671Y26779956D01*
X12153342D01*
X12140013Y26766626D01*
Y26739969D01*
X12153342Y26726639D01*
X21887456Y26177512D02*
Y26257486D01*
X21847469D01*
X21834138Y26244159D01*
Y26217499D01*
X21847469Y26204172D01*
X21887456D01*
X21860797D02*
X21834138Y26177512D01*
X21807481D02*
X21780823D01*
X21794151D01*
Y26257486D01*
X21807481Y26244159D01*
X21740836D02*
X21727505Y26257486D01*
X21700848D01*
X21687518Y26244159D01*
Y26190842D01*
X21700848Y26177512D01*
X21727505D01*
X21740836Y26190842D01*
Y26244159D01*
X21607545Y26177512D02*
X21660861D01*
X21607545Y26230829D01*
Y26244159D01*
X21620874Y26257486D01*
X21647533D01*
X21660861Y26244159D01*
X19884126Y26180014D02*
Y26259988D01*
X19844139D01*
X19830811Y26246658D01*
Y26220001D01*
X19844139Y26206671D01*
X19884126D01*
X19857468D02*
X19830811Y26180014D01*
X19804152D02*
X19777493D01*
X19790822D01*
Y26259988D01*
X19804152Y26246658D01*
X19737506D02*
X19724178Y26259988D01*
X19697519D01*
X19684190Y26246658D01*
Y26193341D01*
X19697519Y26180014D01*
X19724178D01*
X19737506Y26193341D01*
Y26246658D01*
X19657532Y26180014D02*
X19630875D01*
X19644203D01*
Y26259988D01*
X19657532Y26246658D01*
X17892455Y26180014D02*
Y26259988D01*
X17852467D01*
X17839139Y26246658D01*
Y26220001D01*
X17852467Y26206671D01*
X17892455D01*
X17865797D02*
X17839139Y26180014D01*
X17812482D02*
X17785822D01*
X17799152D01*
Y26259988D01*
X17812482Y26246658D01*
X17745834D02*
X17732506Y26259988D01*
X17705849D01*
X17692519Y26246658D01*
Y26193341D01*
X17705849Y26180014D01*
X17732506D01*
X17745834Y26193341D01*
Y26246658D01*
X17665862D02*
X17652531Y26259988D01*
X17625874D01*
X17612544Y26246658D01*
Y26193341D01*
X17625874Y26180014D01*
X17652531D01*
X17665862Y26193341D01*
Y26246658D01*
X23894131Y26170013D02*
Y26249988D01*
X23854144D01*
X23840816Y26236658D01*
Y26210001D01*
X23854144Y26196671D01*
X23894131D01*
X23867474D02*
X23840816Y26170013D01*
X23814159Y26183344D02*
X23800829Y26170013D01*
X23774171D01*
X23760841Y26183344D01*
Y26236658D01*
X23774171Y26249988D01*
X23800829D01*
X23814159Y26236658D01*
Y26223328D01*
X23800829Y26210001D01*
X23760841D01*
X23734184Y26183344D02*
X23720856Y26170013D01*
X23694197D01*
X23680869Y26183344D01*
Y26236658D01*
X23694197Y26249988D01*
X23720856D01*
X23734184Y26236658D01*
Y26223328D01*
X23720856Y26210001D01*
X23680869D01*
X8424132Y27810013D02*
Y27889987D01*
X8384145D01*
X8370816Y27876657D01*
Y27850000D01*
X8384145Y27836670D01*
X8424132D01*
X8397474D02*
X8370816Y27810013D01*
X8344158Y27823343D02*
X8330829Y27810013D01*
X8304171D01*
X8290842Y27823343D01*
Y27876657D01*
X8304171Y27889987D01*
X8330829D01*
X8344158Y27876657D01*
Y27863330D01*
X8330829Y27850000D01*
X8290842D01*
X8264184Y27876657D02*
X8250855Y27889987D01*
X8224197D01*
X8210868Y27876657D01*
Y27863330D01*
X8224197Y27850000D01*
X8210868Y27836670D01*
Y27823343D01*
X8224197Y27810013D01*
X8250855D01*
X8264184Y27823343D01*
Y27836670D01*
X8250855Y27850000D01*
X8264184Y27863330D01*
Y27876657D01*
X8250855Y27850000D02*
X8224197D01*
X8434132Y27625012D02*
Y27704987D01*
X8394145D01*
X8380816Y27691656D01*
Y27664999D01*
X8394145Y27651672D01*
X8434132D01*
X8407474D02*
X8380816Y27625012D01*
X8354158Y27638342D02*
X8340829Y27625012D01*
X8314171D01*
X8300842Y27638342D01*
Y27691656D01*
X8314171Y27704987D01*
X8340829D01*
X8354158Y27691656D01*
Y27678329D01*
X8340829Y27664999D01*
X8300842D01*
X8274184Y27704987D02*
X8220868D01*
Y27691656D01*
X8274184Y27638342D01*
Y27625012D01*
X31891632Y26175012D02*
Y26254987D01*
X31851645D01*
X31838315Y26241656D01*
Y26214999D01*
X31851645Y26201672D01*
X31891632D01*
X31864975D02*
X31838315Y26175012D01*
X31811658Y26188342D02*
X31798328Y26175012D01*
X31771671D01*
X31758344Y26188342D01*
Y26241656D01*
X31771671Y26254987D01*
X31798328D01*
X31811658Y26241656D01*
Y26228329D01*
X31798328Y26214999D01*
X31758344D01*
X31678369Y26254987D02*
X31705026Y26241656D01*
X31731683Y26214999D01*
Y26188342D01*
X31718356Y26175012D01*
X31691696D01*
X31678369Y26188342D01*
Y26201672D01*
X31691696Y26214999D01*
X31731683D01*
X29889133Y26172513D02*
Y26252487D01*
X29849146D01*
X29835815Y26239157D01*
Y26212500D01*
X29849146Y26199170D01*
X29889133D01*
X29862473D02*
X29835815Y26172513D01*
X29809158Y26185843D02*
X29795828Y26172513D01*
X29769171D01*
X29755841Y26185843D01*
Y26239157D01*
X29769171Y26252487D01*
X29795828D01*
X29809158Y26239157D01*
Y26225830D01*
X29795828Y26212500D01*
X29755841D01*
X29675867Y26252487D02*
X29729184D01*
Y26212500D01*
X29702527Y26225830D01*
X29689197D01*
X29675867Y26212500D01*
Y26185843D01*
X29689197Y26172513D01*
X29715854D01*
X29729184Y26185843D01*
X27876633Y26167514D02*
Y26247488D01*
X27836646D01*
X27823315Y26234158D01*
Y26207501D01*
X27836646Y26194171D01*
X27876633D01*
X27849973D02*
X27823315Y26167514D01*
X27796658Y26180841D02*
X27783328Y26167514D01*
X27756671D01*
X27743341Y26180841D01*
Y26234158D01*
X27756671Y26247488D01*
X27783328D01*
X27796658Y26234158D01*
Y26220828D01*
X27783328Y26207501D01*
X27743341D01*
X27676697Y26167514D02*
Y26247488D01*
X27716684Y26207501D01*
X27663367D01*
X25896631Y26177512D02*
Y26257486D01*
X25856644D01*
X25843317Y26244159D01*
Y26217499D01*
X25856644Y26204172D01*
X25896631D01*
X25869974D02*
X25843317Y26177512D01*
X25816656Y26190842D02*
X25803329Y26177512D01*
X25776672D01*
X25763342Y26190842D01*
Y26244159D01*
X25776672Y26257486D01*
X25803329D01*
X25816656Y26244159D01*
Y26230829D01*
X25803329Y26217499D01*
X25763342D01*
X25736685Y26244159D02*
X25723355Y26257486D01*
X25696698D01*
X25683368Y26244159D01*
Y26230829D01*
X25696698Y26217499D01*
X25710025D01*
X25696698D01*
X25683368Y26204172D01*
Y26190842D01*
X25696698Y26177512D01*
X25723355D01*
X25736685Y26190842D01*
X6866632Y26207513D02*
Y26287488D01*
X6826645D01*
X6813316Y26274158D01*
Y26247501D01*
X6826645Y26234171D01*
X6866632D01*
X6839974D02*
X6813316Y26207513D01*
X6786658Y26220844D02*
X6773329Y26207513D01*
X6746671D01*
X6733342Y26220844D01*
Y26274158D01*
X6746671Y26287488D01*
X6773329D01*
X6786658Y26274158D01*
Y26260828D01*
X6773329Y26247501D01*
X6733342D01*
X6653368Y26207513D02*
X6706684D01*
X6653368Y26260828D01*
Y26274158D01*
X6666697Y26287488D01*
X6693355D01*
X6706684Y26274158D01*
X5890803Y26204282D02*
Y26284256D01*
X5850816D01*
X5837487Y26270926D01*
Y26244269D01*
X5850816Y26230939D01*
X5890803D01*
X5864145D02*
X5837487Y26204282D01*
X5810829Y26217612D02*
X5797500Y26204282D01*
X5770842D01*
X5757513Y26217612D01*
Y26270926D01*
X5770842Y26284256D01*
X5797500D01*
X5810829Y26270926D01*
Y26257599D01*
X5797500Y26244269D01*
X5757513D01*
X5730855Y26204282D02*
X5704197D01*
X5717526D01*
Y26284256D01*
X5730855Y26270926D01*
X6150013Y26590869D02*
X6229987D01*
Y26630856D01*
X6216658Y26644183D01*
X6190000D01*
X6176671Y26630856D01*
Y26590869D01*
Y26617526D02*
X6150013Y26644183D01*
X6163342Y26670844D02*
X6150013Y26684171D01*
Y26710828D01*
X6163342Y26724158D01*
X6216658D01*
X6229987Y26710828D01*
Y26684171D01*
X6216658Y26670844D01*
X6203329D01*
X6190000Y26684171D01*
Y26724158D01*
X6216658Y26750815D02*
X6229987Y26764145D01*
Y26790805D01*
X6216658Y26804132D01*
X6163342D01*
X6150013Y26790805D01*
Y26764145D01*
X6163342Y26750815D01*
X6216658D01*
X27759131Y27372513D02*
Y27452487D01*
X27719144D01*
X27705817Y27439157D01*
Y27412500D01*
X27719144Y27399170D01*
X27759131D01*
X27732474D02*
X27705817Y27372513D01*
X27679156Y27439157D02*
X27665829Y27452487D01*
X27639172D01*
X27625842Y27439157D01*
Y27425830D01*
X27639172Y27412500D01*
X27625842Y27399170D01*
Y27385843D01*
X27639172Y27372513D01*
X27665829D01*
X27679156Y27385843D01*
Y27399170D01*
X27665829Y27412500D01*
X27679156Y27425830D01*
Y27439157D01*
X27665829Y27412500D02*
X27639172D01*
X27599185Y27385843D02*
X27585855Y27372513D01*
X27559198D01*
X27545868Y27385843D01*
Y27439157D01*
X27559198Y27452487D01*
X27585855D01*
X27599185Y27439157D01*
Y27425830D01*
X27585855Y27412500D01*
X27545868D01*
X26941632Y29535013D02*
Y29614987D01*
X26901645D01*
X26888315Y29601657D01*
Y29575000D01*
X26901645Y29561670D01*
X26941632D01*
X26914975D02*
X26888315Y29535013D01*
X26861658Y29601657D02*
X26848328Y29614987D01*
X26821671D01*
X26808344Y29601657D01*
Y29588330D01*
X26821671Y29575000D01*
X26808344Y29561670D01*
Y29548343D01*
X26821671Y29535013D01*
X26848328D01*
X26861658Y29548343D01*
Y29561670D01*
X26848328Y29575000D01*
X26861658Y29588330D01*
Y29601657D01*
X26848328Y29575000D02*
X26821671D01*
X26781683Y29601657D02*
X26768356Y29614987D01*
X26741696D01*
X26728369Y29601657D01*
Y29588330D01*
X26741696Y29575000D01*
X26728369Y29561670D01*
Y29548343D01*
X26741696Y29535013D01*
X26768356D01*
X26781683Y29548343D01*
Y29561670D01*
X26768356Y29575000D01*
X26781683Y29588330D01*
Y29601657D01*
X26768356Y29575000D02*
X26741696D01*
X29840030Y27713367D02*
X29920004D01*
Y27753354D01*
X29906674Y27766684D01*
X29880017D01*
X29866687Y27753354D01*
Y27713367D01*
Y27740027D02*
X29840030Y27766684D01*
X29906674Y27793341D02*
X29920004Y27806671D01*
Y27833328D01*
X29906674Y27846658D01*
X29893344D01*
X29880017Y27833328D01*
X29866687Y27846658D01*
X29853357D01*
X29840030Y27833328D01*
Y27806671D01*
X29853357Y27793341D01*
X29866687D01*
X29880017Y27806671D01*
X29893344Y27793341D01*
X29906674D01*
X29880017Y27806671D02*
Y27833328D01*
X29920004Y27873315D02*
Y27926633D01*
X29906674D01*
X29853357Y27873315D01*
X29840030D01*
X29770013Y26900867D02*
X29849988D01*
Y26940854D01*
X29836658Y26954184D01*
X29810001D01*
X29796671Y26940854D01*
Y26900867D01*
Y26927527D02*
X29770013Y26954184D01*
X29836658Y26980841D02*
X29849988Y26994171D01*
Y27020828D01*
X29836658Y27034158D01*
X29823328D01*
X29810001Y27020828D01*
X29796671Y27034158D01*
X29783344D01*
X29770013Y27020828D01*
Y26994171D01*
X29783344Y26980841D01*
X29796671D01*
X29810001Y26994171D01*
X29823328Y26980841D01*
X29836658D01*
X29810001Y26994171D02*
Y27020828D01*
X29849988Y27114133D02*
X29836658Y27087473D01*
X29810001Y27060815D01*
X29783344D01*
X29770013Y27074146D01*
Y27100803D01*
X29783344Y27114133D01*
X29796671D01*
X29810001Y27100803D01*
Y27060815D01*
X7924132Y26157513D02*
Y26237488D01*
X7884145D01*
X7870816Y26224158D01*
Y26197501D01*
X7884145Y26184171D01*
X7924132D01*
X7897474D02*
X7870816Y26157513D01*
X7844158Y26224158D02*
X7830829Y26237488D01*
X7804171D01*
X7790842Y26224158D01*
Y26210828D01*
X7804171Y26197501D01*
X7790842Y26184171D01*
Y26170844D01*
X7804171Y26157513D01*
X7830829D01*
X7844158Y26170844D01*
Y26184171D01*
X7830829Y26197501D01*
X7844158Y26210828D01*
Y26224158D01*
X7830829Y26197501D02*
X7804171D01*
X7710868Y26237488D02*
X7764184D01*
Y26197501D01*
X7737526Y26210828D01*
X7724197D01*
X7710868Y26197501D01*
Y26170844D01*
X7724197Y26157513D01*
X7750855D01*
X7764184Y26170844D01*
X8846632Y26155014D02*
Y26234988D01*
X8806645D01*
X8793316Y26221658D01*
Y26195001D01*
X8806645Y26181671D01*
X8846632D01*
X8819974D02*
X8793316Y26155014D01*
X8766658Y26221658D02*
X8753329Y26234988D01*
X8726671D01*
X8713342Y26221658D01*
Y26208328D01*
X8726671Y26195001D01*
X8713342Y26181671D01*
Y26168341D01*
X8726671Y26155014D01*
X8753329D01*
X8766658Y26168341D01*
Y26181671D01*
X8753329Y26195001D01*
X8766658Y26208328D01*
Y26221658D01*
X8753329Y26195001D02*
X8726671D01*
X8646697Y26155014D02*
Y26234988D01*
X8686684Y26195001D01*
X8633368D01*
X32467514Y26195868D02*
X32547488D01*
Y26235855D01*
X32534158Y26249185D01*
X32507501D01*
X32494171Y26235855D01*
Y26195868D01*
Y26222525D02*
X32467514Y26249185D01*
X32534158Y26275842D02*
X32547488Y26289172D01*
Y26315829D01*
X32534158Y26329156D01*
X32520828D01*
X32507501Y26315829D01*
X32494171Y26329156D01*
X32480841D01*
X32467514Y26315829D01*
Y26289172D01*
X32480841Y26275842D01*
X32494171D01*
X32507501Y26289172D01*
X32520828Y26275842D01*
X32534158D01*
X32507501Y26289172D02*
Y26315829D01*
X32534158Y26355817D02*
X32547488Y26369144D01*
Y26395804D01*
X32534158Y26409131D01*
X32520828D01*
X32507501Y26395804D01*
Y26382474D01*
Y26395804D01*
X32494171Y26409131D01*
X32480841D01*
X32467514Y26395804D01*
Y26369144D01*
X32480841Y26355817D01*
X30487512Y26208368D02*
X30567487D01*
Y26248355D01*
X30554156Y26261685D01*
X30527499D01*
X30514172Y26248355D01*
Y26208368D01*
Y26235025D02*
X30487512Y26261685D01*
X30554156Y26288342D02*
X30567487Y26301672D01*
Y26328329D01*
X30554156Y26341656D01*
X30540829D01*
X30527499Y26328329D01*
X30514172Y26341656D01*
X30500842D01*
X30487512Y26328329D01*
Y26301672D01*
X30500842Y26288342D01*
X30514172D01*
X30527499Y26301672D01*
X30540829Y26288342D01*
X30554156D01*
X30527499Y26301672D02*
Y26328329D01*
X30487512Y26421631D02*
Y26368317D01*
X30540829Y26421631D01*
X30554156D01*
X30567487Y26408304D01*
Y26381644D01*
X30554156Y26368317D01*
X28460013Y26211697D02*
X28539987D01*
Y26251685D01*
X28526657Y26265012D01*
X28500000D01*
X28486670Y26251685D01*
Y26211697D01*
Y26238354D02*
X28460013Y26265012D01*
X28526657Y26291672D02*
X28539987Y26304999D01*
Y26331659D01*
X28526657Y26344986D01*
X28513330D01*
X28500000Y26331659D01*
X28486670Y26344986D01*
X28473343D01*
X28460013Y26331659D01*
Y26304999D01*
X28473343Y26291672D01*
X28486670D01*
X28500000Y26304999D01*
X28513330Y26291672D01*
X28526657D01*
X28500000Y26304999D02*
Y26331659D01*
X28460013Y26371646D02*
Y26398303D01*
Y26384973D01*
X28539987D01*
X28526657Y26371646D01*
X26477512Y26198367D02*
X26557486D01*
Y26238354D01*
X26544159Y26251685D01*
X26517499D01*
X26504172Y26238354D01*
Y26198367D01*
Y26225027D02*
X26477512Y26251685D01*
X26544159Y26278342D02*
X26557486Y26291672D01*
Y26318329D01*
X26544159Y26331659D01*
X26530829D01*
X26517499Y26318329D01*
X26504172Y26331659D01*
X26490842D01*
X26477512Y26318329D01*
Y26291672D01*
X26490842Y26278342D01*
X26504172D01*
X26517499Y26291672D01*
X26530829Y26278342D01*
X26544159D01*
X26517499Y26291672D02*
Y26318329D01*
X26544159Y26358316D02*
X26557486Y26371646D01*
Y26398303D01*
X26544159Y26411633D01*
X26490842D01*
X26477512Y26398303D01*
Y26371646D01*
X26490842Y26358316D01*
X26544159D01*
X8125013Y26549197D02*
X8204987D01*
Y26589185D01*
X8191658Y26602512D01*
X8165000D01*
X8151671Y26589185D01*
Y26549197D01*
Y26575854D02*
X8125013Y26602512D01*
X8204987Y26629172D02*
Y26682486D01*
X8191658D01*
X8138342Y26629172D01*
X8125013D01*
Y26709146D02*
Y26735803D01*
Y26722476D01*
X8204987D01*
X8191658Y26709146D01*
X27229132Y26782513D02*
Y26862488D01*
X27189145D01*
X27175815Y26849158D01*
Y26822501D01*
X27189145Y26809171D01*
X27229132D01*
X27202475D02*
X27175815Y26782513D01*
X27095844Y26862488D02*
X27149158D01*
Y26822501D01*
X27122501Y26835828D01*
X27109171D01*
X27095844Y26822501D01*
Y26795844D01*
X27109171Y26782513D01*
X27135828D01*
X27149158Y26795844D01*
X27069183Y26862488D02*
X27015869D01*
Y26849158D01*
X27069183Y26795844D01*
Y26782513D01*
X4859132Y26205014D02*
Y26284988D01*
X4819145D01*
X4805816Y26271658D01*
Y26245001D01*
X4819145Y26231671D01*
X4859132D01*
X4832474D02*
X4805816Y26205014D01*
X4725842Y26284988D02*
X4779158D01*
Y26245001D01*
X4752500Y26258328D01*
X4739171D01*
X4725842Y26245001D01*
Y26218341D01*
X4739171Y26205014D01*
X4765829D01*
X4779158Y26218341D01*
X4699184Y26271658D02*
X4685855Y26284988D01*
X4659197D01*
X4645868Y26271658D01*
Y26218341D01*
X4659197Y26205014D01*
X4685855D01*
X4699184Y26218341D01*
Y26271658D01*
X3912037Y26202512D02*
Y26282486D01*
X3872050D01*
X3858721Y26269159D01*
Y26242499D01*
X3872050Y26229172D01*
X3912037D01*
X3885379D02*
X3858721Y26202512D01*
X3832063Y26269159D02*
X3818734Y26282486D01*
X3792075D01*
X3778747Y26269159D01*
Y26255829D01*
X3792075Y26242499D01*
X3805405D01*
X3792075D01*
X3778747Y26229172D01*
Y26215842D01*
X3792075Y26202512D01*
X3818734D01*
X3832063Y26215842D01*
X3752089Y26269159D02*
X3738759Y26282486D01*
X3712101D01*
X3698772Y26269159D01*
Y26255829D01*
X3712101Y26242499D01*
X3698772Y26229172D01*
Y26215842D01*
X3712101Y26202512D01*
X3738759D01*
X3752089Y26215842D01*
Y26229172D01*
X3738759Y26242499D01*
X3752089Y26255829D01*
Y26269159D01*
X3738759Y26242499D02*
X3712101D01*
X4130013Y26558368D02*
X4209987D01*
Y26598355D01*
X4196658Y26611685D01*
X4170000D01*
X4156671Y26598355D01*
Y26558368D01*
Y26585025D02*
X4130013Y26611685D01*
X4196658Y26638342D02*
X4209987Y26651672D01*
Y26678329D01*
X4196658Y26691656D01*
X4183329D01*
X4170000Y26678329D01*
Y26664999D01*
Y26678329D01*
X4156671Y26691656D01*
X4143342D01*
X4130013Y26678329D01*
Y26651672D01*
X4143342Y26638342D01*
X4209987Y26718317D02*
Y26771631D01*
X4196658D01*
X4143342Y26718317D01*
X4130013D01*
X5846632Y29045013D02*
Y29124988D01*
X5806644D01*
X5793316Y29111658D01*
Y29085001D01*
X5806644Y29071671D01*
X5846632D01*
X5819974D02*
X5793316Y29045013D01*
X5766658Y29111658D02*
X5753328Y29124988D01*
X5726670D01*
X5713341Y29111658D01*
Y29098328D01*
X5726670Y29085001D01*
X5739999D01*
X5726670D01*
X5713341Y29071671D01*
Y29058344D01*
X5726670Y29045013D01*
X5753328D01*
X5766658Y29058344D01*
X5633367Y29124988D02*
X5660025Y29111658D01*
X5686683Y29085001D01*
Y29058344D01*
X5673354Y29045013D01*
X5646696D01*
X5633367Y29058344D01*
Y29071671D01*
X5646696Y29085001D01*
X5686683D01*
X2884132Y26195013D02*
Y26274988D01*
X2844145D01*
X2830816Y26261658D01*
Y26235001D01*
X2844145Y26221671D01*
X2884132D01*
X2857474D02*
X2830816Y26195013D01*
X2804158Y26261658D02*
X2790829Y26274988D01*
X2764171D01*
X2750842Y26261658D01*
Y26248328D01*
X2764171Y26235001D01*
X2777500D01*
X2764171D01*
X2750842Y26221671D01*
Y26208344D01*
X2764171Y26195013D01*
X2790829D01*
X2804158Y26208344D01*
X2670868Y26195013D02*
X2724184D01*
X2670868Y26248328D01*
Y26261658D01*
X2684197Y26274988D01*
X2710855D01*
X2724184Y26261658D01*
X1883303Y26190012D02*
Y26269986D01*
X1843316D01*
X1829987Y26256659D01*
Y26229999D01*
X1843316Y26216672D01*
X1883303D01*
X1856645D02*
X1829987Y26190012D01*
X1803329Y26256659D02*
X1790000Y26269986D01*
X1763342D01*
X1750013Y26256659D01*
Y26243329D01*
X1763342Y26229999D01*
X1776671D01*
X1763342D01*
X1750013Y26216672D01*
Y26203342D01*
X1763342Y26190012D01*
X1790000D01*
X1803329Y26203342D01*
X1723355Y26190012D02*
X1696697D01*
X1710026D01*
Y26269986D01*
X1723355Y26256659D01*
X2122513Y26530869D02*
X2202487D01*
Y26570856D01*
X2189158Y26584183D01*
X2162500D01*
X2149171Y26570856D01*
Y26530869D01*
Y26557526D02*
X2122513Y26584183D01*
X2189158Y26610843D02*
X2202487Y26624170D01*
Y26650830D01*
X2189158Y26664157D01*
X2175829D01*
X2162500Y26650830D01*
Y26637500D01*
Y26650830D01*
X2149171Y26664157D01*
X2135842D01*
X2122513Y26650830D01*
Y26624170D01*
X2135842Y26610843D01*
X2189158Y26690817D02*
X2202487Y26704144D01*
Y26730804D01*
X2189158Y26744131D01*
X2135842D01*
X2122513Y26730804D01*
Y26704144D01*
X2135842Y26690817D01*
X2189158D01*
X13072513Y3550868D02*
X13152487D01*
Y3590855D01*
X13139159Y3604184D01*
X13112500D01*
X13099171Y3590855D01*
Y3550868D01*
Y3577526D02*
X13072513Y3604184D01*
Y3684158D02*
Y3630842D01*
X13125829Y3684158D01*
X13139159D01*
X13152487Y3670829D01*
Y3644171D01*
X13139159Y3630842D01*
X13152487Y3710816D02*
Y3764132D01*
X13139159D01*
X13085841Y3710816D01*
X13072513D01*
X13600014Y3275868D02*
X13679987D01*
Y3315855D01*
X13666658Y3329184D01*
X13639999D01*
X13626671Y3315855D01*
Y3275868D01*
Y3302526D02*
X13600014Y3329184D01*
Y3409158D02*
Y3355842D01*
X13653329Y3409158D01*
X13666658D01*
X13679987Y3395829D01*
Y3369171D01*
X13666658Y3355842D01*
X13679987Y3489132D02*
X13666658Y3462474D01*
X13639999Y3435816D01*
X13613342D01*
X13600014Y3449145D01*
Y3475803D01*
X13613342Y3489132D01*
X13626671D01*
X13639999Y3475803D01*
Y3435816D01*
X13924132Y3570013D02*
Y3649987D01*
X13884145D01*
X13870816Y3636658D01*
Y3610000D01*
X13884145Y3596671D01*
X13924132D01*
X13897475D02*
X13870816Y3570013D01*
X13790842D02*
X13844157D01*
X13790842Y3623329D01*
Y3636658D01*
X13804172Y3649987D01*
X13830829D01*
X13844157Y3636658D01*
X13710867Y3649987D02*
X13764185D01*
Y3610000D01*
X13737526Y3623329D01*
X13724197D01*
X13710867Y3610000D01*
Y3583342D01*
X13724197Y3570013D01*
X13750854D01*
X13764185Y3583342D01*
X9067513Y3590868D02*
X9147487D01*
Y3630855D01*
X9134158Y3644184D01*
X9107500D01*
X9094171Y3630855D01*
Y3590868D01*
Y3617526D02*
X9067513Y3644184D01*
Y3724158D02*
Y3670842D01*
X9120829Y3724158D01*
X9134158D01*
X9147487Y3710829D01*
Y3684171D01*
X9134158Y3670842D01*
X9067513Y3790803D02*
X9147487D01*
X9107500Y3750816D01*
Y3804132D01*
X9914132Y3585013D02*
Y3664987D01*
X9874145D01*
X9860816Y3651658D01*
Y3625000D01*
X9874145Y3611671D01*
X9914132D01*
X9887474D02*
X9860816Y3585013D01*
X9780842D02*
X9834158D01*
X9780842Y3638329D01*
Y3651658D01*
X9794171Y3664987D01*
X9820829D01*
X9834158Y3651658D01*
X9754184D02*
X9740855Y3664987D01*
X9714197D01*
X9700868Y3651658D01*
Y3638329D01*
X9714197Y3625000D01*
X9727526D01*
X9714197D01*
X9700868Y3611671D01*
Y3598342D01*
X9714197Y3585013D01*
X9740855D01*
X9754184Y3598342D01*
X9627513Y3120855D02*
X9707487D01*
Y3160842D01*
X9694158Y3174171D01*
X9667500D01*
X9654171Y3160842D01*
Y3120855D01*
Y3147513D02*
X9627513Y3174171D01*
X9707487Y3200829D02*
Y3254145D01*
X9694158D01*
X9640842Y3200829D01*
X9627513D01*
X5412513Y3653355D02*
X5492487D01*
Y3693342D01*
X5479158Y3706671D01*
X5452500D01*
X5439171Y3693342D01*
Y3653355D01*
Y3680013D02*
X5412513Y3706671D01*
X5492487Y3786645D02*
X5479158Y3759987D01*
X5452500Y3733329D01*
X5425842D01*
X5412513Y3746658D01*
Y3773316D01*
X5425842Y3786645D01*
X5439171D01*
X5452500Y3773316D01*
Y3733329D01*
X4792513Y4110855D02*
X4872487D01*
Y4150842D01*
X4859158Y4164171D01*
X4832500D01*
X4819171Y4150842D01*
Y4110855D01*
Y4137513D02*
X4792513Y4164171D01*
X4872487Y4244145D02*
Y4190829D01*
X4832500D01*
X4845829Y4217487D01*
Y4230817D01*
X4832500Y4244145D01*
X4805842D01*
X4792513Y4230817D01*
Y4204158D01*
X4805842Y4190829D01*
X4640013Y3273355D02*
X4719987D01*
Y3313342D01*
X4706658Y3326671D01*
X4680000D01*
X4666671Y3313342D01*
Y3273355D01*
Y3300013D02*
X4640013Y3326671D01*
Y3393316D02*
X4719987D01*
X4680000Y3353329D01*
Y3406645D01*
X3077513Y3605855D02*
X3157487D01*
Y3645842D01*
X3144158Y3659171D01*
X3117500D01*
X3104171Y3645842D01*
Y3605855D01*
Y3632513D02*
X3077513Y3659171D01*
X3144158Y3685829D02*
X3157487Y3699158D01*
Y3725816D01*
X3144158Y3739145D01*
X3130829D01*
X3117500Y3725816D01*
Y3712487D01*
Y3725816D01*
X3104171Y3739145D01*
X3090842D01*
X3077513Y3725816D01*
Y3699158D01*
X3090842Y3685829D01*
X3874145Y3589997D02*
Y3669971D01*
X3834158D01*
X3820829Y3656642D01*
Y3629984D01*
X3834158Y3616655D01*
X3874145D01*
X3847487D02*
X3820829Y3589997D01*
X3740855D02*
X3794171D01*
X3740855Y3643313D01*
Y3656642D01*
X3754184Y3669971D01*
X3780842D01*
X3794171Y3656642D01*
X3857513Y3274184D02*
X3937487D01*
Y3314171D01*
X3924158Y3327500D01*
X3897500D01*
X3884171Y3314171D01*
Y3274184D01*
Y3300842D02*
X3857513Y3327500D01*
Y3354158D02*
Y3380816D01*
Y3367487D01*
X3937487D01*
X3924158Y3354158D01*
X20868358Y26945816D02*
X20855029Y26959146D01*
Y26985803D01*
X20868358Y26999133D01*
X20921674D01*
X20935004Y26985803D01*
Y26959146D01*
X20921674Y26945816D01*
X20935004Y26879172D02*
X20855029D01*
X20895016Y26919159D01*
Y26865842D01*
X20855029Y26839185D02*
Y26785867D01*
X20868358D01*
X20921674Y26839185D01*
X20935004D01*
X10563316Y29066656D02*
X10576645Y29079987D01*
X10603303D01*
X10616632Y29066656D01*
Y29013342D01*
X10603303Y29000012D01*
X10576645D01*
X10563316Y29013342D01*
X10496671Y29000012D02*
Y29079987D01*
X10536658Y29039999D01*
X10483342D01*
X10403368Y29079987D02*
X10430026Y29066656D01*
X10456684Y29039999D01*
Y29013342D01*
X10443355Y29000012D01*
X10416696D01*
X10403368Y29013342D01*
Y29026672D01*
X10416696Y29039999D01*
X10456684D01*
X19995816Y29874158D02*
X20009145Y29887488D01*
X20035803D01*
X20049132Y29874158D01*
Y29820844D01*
X20035803Y29807513D01*
X20009145D01*
X19995816Y29820844D01*
X19929172Y29807513D02*
Y29887488D01*
X19969157Y29847501D01*
X19915842D01*
X19849197Y29807513D02*
Y29887488D01*
X19889185Y29847501D01*
X19835867D01*
X7632407Y28089157D02*
X7645736Y28102487D01*
X7672394D01*
X7685723Y28089157D01*
Y28035843D01*
X7672394Y28022513D01*
X7645736D01*
X7632407Y28035843D01*
X7565762Y28022513D02*
Y28102487D01*
X7605749Y28062500D01*
X7552433D01*
X7525775Y28089157D02*
X7512446Y28102487D01*
X7485788D01*
X7472459Y28089157D01*
Y28075830D01*
X7485788Y28062500D01*
X7499117D01*
X7485788D01*
X7472459Y28049170D01*
Y28035843D01*
X7485788Y28022513D01*
X7512446D01*
X7525775Y28035843D01*
X27203317Y29106659D02*
X27216644Y29119986D01*
X27243304D01*
X27256631Y29106659D01*
Y29053342D01*
X27243304Y29040012D01*
X27216644D01*
X27203317Y29053342D01*
X27176657Y29106659D02*
X27163330Y29119986D01*
X27136670D01*
X27123343Y29106659D01*
Y29093329D01*
X27136670Y29079999D01*
X27150000D01*
X27136670D01*
X27123343Y29066672D01*
Y29053342D01*
X27136670Y29040012D01*
X27163330D01*
X27176657Y29053342D01*
X27096683Y29106659D02*
X27083356Y29119986D01*
X27056696D01*
X27043369Y29106659D01*
Y29053342D01*
X27056696Y29040012D01*
X27083356D01*
X27096683Y29053342D01*
Y29106659D01*
X28428342Y26895816D02*
X28415012Y26909146D01*
Y26935803D01*
X28428342Y26949133D01*
X28481659D01*
X28494986Y26935803D01*
Y26909146D01*
X28481659Y26895816D01*
X28494986Y26815842D02*
Y26869159D01*
X28441672Y26815842D01*
X28428342D01*
X28415012Y26829172D01*
Y26855829D01*
X28428342Y26869159D01*
Y26789185D02*
X28415012Y26775854D01*
Y26749197D01*
X28428342Y26735867D01*
X28441672D01*
X28454999Y26749197D01*
X28468329Y26735867D01*
X28481659D01*
X28494986Y26749197D01*
Y26775854D01*
X28481659Y26789185D01*
X28468329D01*
X28454999Y26775854D01*
X28441672Y26789185D01*
X28428342D01*
X28454999Y26775854D02*
Y26749197D01*
X3938316Y29554160D02*
X3951645Y29567487D01*
X3978303D01*
X3991632Y29554160D01*
Y29500842D01*
X3978303Y29487512D01*
X3951645D01*
X3938316Y29500842D01*
X3858342Y29487512D02*
X3911658D01*
X3858342Y29540829D01*
Y29554160D01*
X3871671Y29567487D01*
X3898329D01*
X3911658Y29554160D01*
X3831684Y29567487D02*
X3778368D01*
Y29554160D01*
X3831684Y29500842D01*
Y29487512D01*
X26187488Y1090868D02*
X26134171D01*
X26107513Y1117526D01*
X26134171Y1144184D01*
X26187488D01*
Y1170842D02*
Y1224158D01*
Y1197500D01*
X26107513D01*
Y1290803D02*
X26187488D01*
X26147501Y1250816D01*
Y1304132D01*
X28164471Y3419987D02*
Y3366671D01*
X28137811Y3340013D01*
X28111154Y3366671D01*
Y3419987D01*
X28084497D02*
X28031180D01*
X28057837D01*
Y3340013D01*
X28004523Y3406658D02*
X27991193Y3419987D01*
X27964536D01*
X27951205Y3406658D01*
Y3393329D01*
X27964536Y3380000D01*
X27977863D01*
X27964536D01*
X27951205Y3366671D01*
Y3353342D01*
X27964536Y3340013D01*
X27991193D01*
X28004523Y3353342D01*
X4583793Y252487D02*
Y199171D01*
X4557135Y172513D01*
X4530477Y199171D01*
Y252487D01*
X4503819D02*
X4450503D01*
X4477161D01*
Y172513D01*
X4370529D02*
X4423845D01*
X4370529Y225829D01*
Y239158D01*
X4383858Y252487D01*
X4410516D01*
X4423845Y239158D01*
X5075464Y247487D02*
Y194171D01*
X5048806Y167513D01*
X5022148Y194171D01*
Y247487D01*
X4995490D02*
X4942174D01*
X4968832D01*
Y167513D01*
X4915515D02*
X4888857D01*
X4902186D01*
Y247487D01*
X4915515Y234158D01*
X11224987Y2578381D02*
X11171671D01*
X11145013Y2605039D01*
X11171671Y2631697D01*
X11224987D01*
Y2658355D02*
X11145013D01*
Y2698342D01*
X11158342Y2711671D01*
X11211658D01*
X11224987Y2698342D01*
Y2658355D01*
X11211658Y2738329D02*
X11224987Y2751658D01*
Y2778317D01*
X11211658Y2791645D01*
X11198329D01*
X11185000Y2778317D01*
Y2764987D01*
Y2778317D01*
X11171671Y2791645D01*
X11158342D01*
X11145013Y2778317D01*
Y2751658D01*
X11158342Y2738329D01*
X11224987Y2871620D02*
Y2818303D01*
X11185000D01*
X11198329Y2844962D01*
Y2858291D01*
X11185000Y2871620D01*
X11158342D01*
X11145013Y2858291D01*
Y2831633D01*
X11158342Y2818303D01*
X15522487Y3048381D02*
X15469171D01*
X15442513Y3075039D01*
X15469171Y3101697D01*
X15522487D01*
Y3128355D02*
X15442513D01*
Y3168342D01*
X15455843Y3181671D01*
X15509158D01*
X15522487Y3168342D01*
Y3128355D01*
X15509158Y3208329D02*
X15522487Y3221658D01*
Y3248316D01*
X15509158Y3261645D01*
X15495828D01*
X15482500Y3248316D01*
Y3234987D01*
Y3248316D01*
X15469171Y3261645D01*
X15455843D01*
X15442513Y3248316D01*
Y3221658D01*
X15455843Y3208329D01*
X15442513Y3328291D02*
X15522487D01*
X15482500Y3288303D01*
Y3341619D01*
X11537487Y2575881D02*
X11484171D01*
X11457513Y2602539D01*
X11484171Y2629197D01*
X11537487D01*
Y2655855D02*
X11457513D01*
Y2695842D01*
X11470842Y2709171D01*
X11524158D01*
X11537487Y2695842D01*
Y2655855D01*
X11524158Y2735829D02*
X11537487Y2749159D01*
Y2775817D01*
X11524158Y2789146D01*
X11510829D01*
X11497500Y2775817D01*
Y2762487D01*
Y2775817D01*
X11484171Y2789146D01*
X11470842D01*
X11457513Y2775817D01*
Y2749159D01*
X11470842Y2735829D01*
X11524158Y2815804D02*
X11537487Y2829133D01*
Y2855791D01*
X11524158Y2869120D01*
X11510829D01*
X11497500Y2855791D01*
Y2842462D01*
Y2855791D01*
X11484171Y2869120D01*
X11470842D01*
X11457513Y2855791D01*
Y2829133D01*
X11470842Y2815804D01*
X11849987Y2578381D02*
X11796671D01*
X11770013Y2605039D01*
X11796671Y2631697D01*
X11849987D01*
Y2658355D02*
X11770013D01*
Y2698342D01*
X11783342Y2711671D01*
X11836658D01*
X11849987Y2698342D01*
Y2658355D01*
X11836658Y2738329D02*
X11849987Y2751658D01*
Y2778317D01*
X11836658Y2791645D01*
X11823329D01*
X11810000Y2778317D01*
Y2764987D01*
Y2778317D01*
X11796671Y2791645D01*
X11783342D01*
X11770013Y2778317D01*
Y2751658D01*
X11783342Y2738329D01*
X11770013Y2871620D02*
Y2818303D01*
X11823329Y2871620D01*
X11836658D01*
X11849987Y2858291D01*
Y2831633D01*
X11836658Y2818303D01*
X10460791Y272487D02*
Y219171D01*
X10434133Y192513D01*
X10407474Y219171D01*
Y272487D01*
X10380816D02*
Y192513D01*
X10340829D01*
X10327500Y205842D01*
Y259158D01*
X10340829Y272487D01*
X10380816D01*
X10300842Y259158D02*
X10287513Y272487D01*
X10260855D01*
X10247526Y259158D01*
Y245829D01*
X10260855Y232500D01*
X10274184D01*
X10260855D01*
X10247526Y219171D01*
Y205842D01*
X10260855Y192513D01*
X10287513D01*
X10300842Y205842D01*
X10220868Y192513D02*
X10194210D01*
X10207539D01*
Y272487D01*
X10220868Y259158D01*
X10474987Y3245881D02*
X10421671D01*
X10395013Y3272539D01*
X10421671Y3299197D01*
X10474987D01*
Y3325855D02*
X10395013D01*
Y3365842D01*
X10408342Y3379171D01*
X10461658D01*
X10474987Y3365842D01*
Y3325855D01*
X10461658Y3405829D02*
X10474987Y3419158D01*
Y3445816D01*
X10461658Y3459145D01*
X10448329D01*
X10435000Y3445816D01*
Y3432487D01*
Y3445816D01*
X10421671Y3459145D01*
X10408342D01*
X10395013Y3445816D01*
Y3419158D01*
X10408342Y3405829D01*
X10461658Y3485803D02*
X10474987Y3499132D01*
Y3525791D01*
X10461658Y3539119D01*
X10408342D01*
X10395013Y3525791D01*
Y3499132D01*
X10408342Y3485803D01*
X10461658D01*
X22210013Y1146619D02*
X22263329D01*
X22289987Y1119961D01*
X22263329Y1093303D01*
X22210013D01*
Y1066645D02*
X22289987D01*
Y1026658D01*
X22276659Y1013329D01*
X22223341D01*
X22210013Y1026658D01*
Y1066645D01*
X22289987Y933355D02*
Y986671D01*
X22236671Y933355D01*
X22223341D01*
X22210013Y946684D01*
Y973342D01*
X22223341Y986671D01*
X22276659Y906697D02*
X22289987Y893368D01*
Y866710D01*
X22276659Y853381D01*
X22223341D01*
X22210013Y866710D01*
Y893368D01*
X22223341Y906697D01*
X22236671D01*
X22250000Y893368D01*
Y853381D01*
X12154987Y2578381D02*
X12101671D01*
X12075013Y2605039D01*
X12101671Y2631697D01*
X12154987D01*
Y2658355D02*
X12075013D01*
Y2698342D01*
X12088342Y2711671D01*
X12141658D01*
X12154987Y2698342D01*
Y2658355D01*
X12075013Y2791645D02*
Y2738329D01*
X12128329Y2791645D01*
X12141658D01*
X12154987Y2778317D01*
Y2751658D01*
X12141658Y2738329D01*
Y2818303D02*
X12154987Y2831633D01*
Y2858291D01*
X12141658Y2871620D01*
X12128329D01*
X12115000Y2858291D01*
X12101671Y2871620D01*
X12088342D01*
X12075013Y2858291D01*
Y2831633D01*
X12088342Y2818303D01*
X12101671D01*
X12115000Y2831633D01*
X12128329Y2818303D01*
X12141658D01*
X12115000Y2831633D02*
Y2858291D01*
X22759219Y827174D02*
Y773858D01*
X22732562Y747200D01*
X22705904Y773858D01*
Y827174D01*
X22679247D02*
Y747200D01*
X22639259D01*
X22625929Y760529D01*
Y813845D01*
X22639259Y827174D01*
X22679247D01*
X22545955Y747200D02*
X22599272D01*
X22545955Y800516D01*
Y813845D01*
X22559283Y827174D01*
X22585942D01*
X22599272Y813845D01*
X22519296Y827174D02*
X22465981D01*
Y813845D01*
X22519296Y760529D01*
Y747200D01*
X9689119Y1457487D02*
Y1404171D01*
X9662461Y1377513D01*
X9635803Y1404171D01*
Y1457487D01*
X9609145D02*
Y1377513D01*
X9569158D01*
X9555829Y1390842D01*
Y1444158D01*
X9569158Y1457487D01*
X9609145D01*
X9475855Y1377513D02*
X9529171D01*
X9475855Y1430829D01*
Y1444158D01*
X9489184Y1457487D01*
X9515842D01*
X9529171Y1444158D01*
X9395881Y1457487D02*
X9422539Y1444158D01*
X9449197Y1417500D01*
Y1390842D01*
X9435868Y1377513D01*
X9409210D01*
X9395881Y1390842D01*
Y1404171D01*
X9409210Y1417500D01*
X9449197D01*
X19604987Y2555881D02*
X19551671D01*
X19525014Y2582539D01*
X19551671Y2609197D01*
X19604987D01*
Y2635855D02*
X19525014D01*
Y2675842D01*
X19538342Y2689171D01*
X19591658D01*
X19604987Y2675842D01*
Y2635855D01*
X19525014Y2769145D02*
Y2715829D01*
X19578329Y2769145D01*
X19591658D01*
X19604987Y2755816D01*
Y2729158D01*
X19591658Y2715829D01*
X19604987Y2849120D02*
Y2795803D01*
X19564999D01*
X19578329Y2822461D01*
Y2835791D01*
X19564999Y2849120D01*
X19538342D01*
X19525014Y2835791D01*
Y2809133D01*
X19538342Y2795803D01*
X18967487Y2590881D02*
X18914169D01*
X18887512Y2617539D01*
X18914169Y2644197D01*
X18967487D01*
Y2670855D02*
X18887512D01*
Y2710842D01*
X18900842Y2724171D01*
X18954158D01*
X18967487Y2710842D01*
Y2670855D01*
X18887512Y2804145D02*
Y2750829D01*
X18940829Y2804145D01*
X18954158D01*
X18967487Y2790816D01*
Y2764158D01*
X18954158Y2750829D01*
X18887512Y2870791D02*
X18967487D01*
X18927499Y2830803D01*
Y2884119D01*
X27256619Y567487D02*
Y514171D01*
X27229962Y487513D01*
X27203302Y514171D01*
Y567487D01*
X27176645D02*
Y487513D01*
X27136658D01*
X27123328Y500842D01*
Y554158D01*
X27136658Y567487D01*
X27176645D01*
X27043356Y487513D02*
X27096671D01*
X27043356Y540829D01*
Y554158D01*
X27056683Y567487D01*
X27083344D01*
X27096671Y554158D01*
X27016696D02*
X27003366Y567487D01*
X26976709D01*
X26963379Y554158D01*
Y540829D01*
X26976709Y527500D01*
X26990039D01*
X26976709D01*
X26963379Y514171D01*
Y500842D01*
X26976709Y487513D01*
X27003366D01*
X27016696Y500842D01*
X27164194Y2708381D02*
X27110876D01*
X27084219Y2735039D01*
X27110876Y2761697D01*
X27164194D01*
Y2788355D02*
X27084219D01*
Y2828342D01*
X27097549Y2841671D01*
X27150864D01*
X27164194Y2828342D01*
Y2788355D01*
X27084219Y2921645D02*
Y2868329D01*
X27137534Y2921645D01*
X27150864D01*
X27164194Y2908317D01*
Y2881658D01*
X27150864Y2868329D01*
X27084219Y3001620D02*
Y2948303D01*
X27137534Y3001620D01*
X27150864D01*
X27164194Y2988291D01*
Y2961633D01*
X27150864Y2948303D01*
X27819193Y2729209D02*
X27765875D01*
X27739218Y2755867D01*
X27765875Y2782526D01*
X27819193D01*
Y2809184D02*
X27739218D01*
Y2849171D01*
X27752548Y2862500D01*
X27805865D01*
X27819193Y2849171D01*
Y2809184D01*
X27739218Y2942474D02*
Y2889158D01*
X27792535Y2942474D01*
X27805865D01*
X27819193Y2929145D01*
Y2902487D01*
X27805865Y2889158D01*
X27739218Y2969132D02*
Y2995790D01*
Y2982461D01*
X27819193D01*
X27805865Y2969132D01*
X27467487Y830881D02*
X27414172D01*
X27387512Y857539D01*
X27414172Y884197D01*
X27467487D01*
Y910855D02*
X27387512D01*
Y950842D01*
X27400842Y964171D01*
X27454156D01*
X27467487Y950842D01*
Y910855D01*
X27387512Y1044145D02*
Y990829D01*
X27440829Y1044145D01*
X27454156D01*
X27467487Y1030816D01*
Y1004158D01*
X27454156Y990829D01*
Y1070803D02*
X27467487Y1084132D01*
Y1110791D01*
X27454156Y1124119D01*
X27400842D01*
X27387512Y1110791D01*
Y1084132D01*
X27400842Y1070803D01*
X27454156D01*
X3047487Y2537545D02*
X2994171D01*
X2967513Y2564203D01*
X2994171Y2590861D01*
X3047487D01*
Y2617519D02*
X2967513D01*
Y2657506D01*
X2980842Y2670835D01*
X3034159D01*
X3047487Y2657506D01*
Y2617519D01*
X2967513Y2697493D02*
Y2724152D01*
Y2710823D01*
X3047487D01*
X3034159Y2697493D01*
X2980842Y2764139D02*
X2967513Y2777468D01*
Y2804126D01*
X2980842Y2817455D01*
X3034159D01*
X3047487Y2804126D01*
Y2777468D01*
X3034159Y2764139D01*
X3020829D01*
X3007500Y2777468D01*
Y2817455D01*
X7307487Y3165045D02*
X7254171D01*
X7227513Y3191703D01*
X7254171Y3218361D01*
X7307487D01*
Y3245019D02*
X7227513D01*
Y3285007D01*
X7240842Y3298336D01*
X7294158D01*
X7307487Y3285007D01*
Y3245019D01*
X7227513Y3324994D02*
Y3351652D01*
Y3338323D01*
X7307487D01*
X7294158Y3324994D01*
Y3391639D02*
X7307487Y3404968D01*
Y3431626D01*
X7294158Y3444955D01*
X7280829D01*
X7267500Y3431626D01*
X7254171Y3444955D01*
X7240842D01*
X7227513Y3431626D01*
Y3404968D01*
X7240842Y3391639D01*
X7254171D01*
X7267500Y3404968D01*
X7280829Y3391639D01*
X7294158D01*
X7267500Y3404968D02*
Y3431626D01*
X2739987Y2552545D02*
X2686671D01*
X2660013Y2579203D01*
X2686671Y2605861D01*
X2739987D01*
Y2632520D02*
X2660013D01*
Y2672507D01*
X2673342Y2685836D01*
X2726659D01*
X2739987Y2672507D01*
Y2632520D01*
X2660013Y2712494D02*
Y2739152D01*
Y2725823D01*
X2739987D01*
X2726659Y2712494D01*
X2739987Y2779139D02*
Y2832455D01*
X2726659D01*
X2673342Y2779139D01*
X2660013D01*
X3697455Y259987D02*
Y206671D01*
X3670797Y180013D01*
X3644139Y206671D01*
Y259987D01*
X3617481D02*
Y180013D01*
X3577493D01*
X3564165Y193342D01*
Y246658D01*
X3577493Y259987D01*
X3617481D01*
X3537507Y180013D02*
X3510848D01*
X3524177D01*
Y259987D01*
X3537507Y246658D01*
X3417545Y259987D02*
X3444203Y246658D01*
X3470861Y220000D01*
Y193342D01*
X3457532Y180013D01*
X3430874D01*
X3417545Y193342D01*
Y206671D01*
X3430874Y220000D01*
X3470861D01*
X2139988Y2540045D02*
X2086671D01*
X2060013Y2566703D01*
X2086671Y2593361D01*
X2139988D01*
Y2620019D02*
X2060013D01*
Y2660007D01*
X2073343Y2673336D01*
X2126659D01*
X2139988Y2660007D01*
Y2620019D01*
X2060013Y2699994D02*
Y2726652D01*
Y2713323D01*
X2139988D01*
X2126659Y2699994D01*
X2139988Y2819955D02*
Y2766639D01*
X2100001D01*
X2113330Y2793297D01*
Y2806626D01*
X2100001Y2819955D01*
X2073343D01*
X2060013Y2806626D01*
Y2779968D01*
X2073343Y2766639D01*
X1124987Y3142545D02*
X1071671D01*
X1045013Y3169203D01*
X1071671Y3195861D01*
X1124987D01*
Y3222519D02*
X1045013D01*
Y3262507D01*
X1058342Y3275835D01*
X1111658D01*
X1124987Y3262507D01*
Y3222519D01*
X1045013Y3302494D02*
Y3329152D01*
Y3315823D01*
X1124987D01*
X1111658Y3302494D01*
X1045013Y3409126D02*
X1124987D01*
X1085000Y3369139D01*
Y3422455D01*
X1852487Y2540045D02*
X1799171D01*
X1772513Y2566703D01*
X1799171Y2593361D01*
X1852487D01*
Y2620019D02*
X1772513D01*
Y2660007D01*
X1785842Y2673336D01*
X1839158D01*
X1852487Y2660007D01*
Y2620019D01*
X1772513Y2699994D02*
Y2726652D01*
Y2713323D01*
X1852487D01*
X1839158Y2699994D01*
Y2766639D02*
X1852487Y2779968D01*
Y2806626D01*
X1839158Y2819955D01*
X1825829D01*
X1812500Y2806626D01*
Y2793297D01*
Y2806626D01*
X1799171Y2819955D01*
X1785842D01*
X1772513Y2806626D01*
Y2779968D01*
X1785842Y2766639D01*
X3859955Y1482487D02*
Y1429171D01*
X3833297Y1402513D01*
X3806639Y1429171D01*
Y1482487D01*
X3779981D02*
Y1402513D01*
X3739993D01*
X3726664Y1415842D01*
Y1469158D01*
X3739993Y1482487D01*
X3779981D01*
X3700006Y1402513D02*
X3673348D01*
X3686677D01*
Y1482487D01*
X3700006Y1469158D01*
X3580045Y1402513D02*
X3633361D01*
X3580045Y1455829D01*
Y1469158D01*
X3593374Y1482487D01*
X3620032D01*
X3633361Y1469158D01*
X9380790Y262487D02*
Y209171D01*
X9354132Y182513D01*
X9327474Y209171D01*
Y262487D01*
X9300816D02*
X9247500D01*
X9274158D01*
Y182513D01*
X9167526D02*
X9220842D01*
X9167526Y235829D01*
Y249158D01*
X9180855Y262487D01*
X9207513D01*
X9220842Y249158D01*
X9140868Y182513D02*
X9114210D01*
X9127539D01*
Y262487D01*
X9140868Y249158D01*
X6214955Y354987D02*
Y301671D01*
X6188297Y275013D01*
X6161639Y301671D01*
Y354987D01*
X6134981D02*
X6081664D01*
X6108323D01*
Y275013D01*
X6055006D02*
X6028348D01*
X6041677D01*
Y354987D01*
X6055006Y341658D01*
X5988361Y288342D02*
X5975032Y275013D01*
X5948374D01*
X5935045Y288342D01*
Y341658D01*
X5948374Y354987D01*
X5975032D01*
X5988361Y341658D01*
Y328329D01*
X5975032Y315000D01*
X5935045D01*
X5824955Y362487D02*
Y309171D01*
X5798297Y282513D01*
X5771639Y309171D01*
Y362487D01*
X5744981D02*
X5691665D01*
X5718323D01*
Y282513D01*
X5665006D02*
X5638348D01*
X5651677D01*
Y362487D01*
X5665006Y349158D01*
X5598361D02*
X5585032Y362487D01*
X5558374D01*
X5545045Y349158D01*
Y335829D01*
X5558374Y322500D01*
X5545045Y309171D01*
Y295842D01*
X5558374Y282513D01*
X5585032D01*
X5598361Y295842D01*
Y309171D01*
X5585032Y322500D01*
X5598361Y335829D01*
Y349158D01*
X5585032Y322500D02*
X5558374D01*
X20264955Y3309987D02*
Y3256671D01*
X20238297Y3230013D01*
X20211639Y3256671D01*
Y3309987D01*
X20184979D02*
X20131664D01*
X20158322D01*
Y3230013D01*
X20105006D02*
X20078348D01*
X20091676D01*
Y3309987D01*
X20105006Y3296658D01*
X20038361Y3309987D02*
X19985045D01*
Y3296658D01*
X20038361Y3243342D01*
Y3230013D01*
X23707487Y1042545D02*
X23654172D01*
X23627513Y1069203D01*
X23654172Y1095861D01*
X23707487D01*
Y1122519D02*
Y1175836D01*
Y1149178D01*
X23627513D01*
Y1202494D02*
Y1229152D01*
Y1215823D01*
X23707487D01*
X23694157Y1202494D01*
X23707487Y1322455D02*
X23694157Y1295797D01*
X23667500Y1269139D01*
X23640842D01*
X23627513Y1282468D01*
Y1309126D01*
X23640842Y1322455D01*
X23654172D01*
X23667500Y1309126D01*
Y1269139D01*
X9899955Y262487D02*
Y209171D01*
X9873297Y182513D01*
X9846639Y209171D01*
Y262487D01*
X9819981D02*
X9766664D01*
X9793323D01*
Y182513D01*
X9740006D02*
X9713348D01*
X9726677D01*
Y262487D01*
X9740006Y249158D01*
X9673361D02*
X9660032Y262487D01*
X9633374D01*
X9620045Y249158D01*
Y235829D01*
X9633374Y222500D01*
X9646703D01*
X9633374D01*
X9620045Y209171D01*
Y195842D01*
X9633374Y182513D01*
X9660032D01*
X9673361Y195842D01*
X23709987Y552545D02*
X23656671D01*
X23630013Y579203D01*
X23656671Y605861D01*
X23709987D01*
Y632519D02*
Y685836D01*
Y659177D01*
X23630013D01*
Y712494D02*
Y739152D01*
Y725823D01*
X23709987D01*
X23696658Y712494D01*
Y779139D02*
X23709987Y792468D01*
Y819126D01*
X23696658Y832455D01*
X23643343D01*
X23630013Y819126D01*
Y792468D01*
X23643343Y779139D01*
X23696658D01*
X20731631Y3317487D02*
Y3264171D01*
X20704974Y3237513D01*
X20678316Y3264171D01*
Y3317487D01*
X20651659D02*
X20598341D01*
X20625000D01*
Y3237513D01*
X20571684Y3250842D02*
X20558356Y3237513D01*
X20531697D01*
X20518369Y3250842D01*
Y3304158D01*
X20531697Y3317487D01*
X20558356D01*
X20571684Y3304158D01*
Y3290829D01*
X20558356Y3277500D01*
X20518369D01*
X26189987Y598368D02*
X26136670D01*
X26110013Y625026D01*
X26136670Y651684D01*
X26189987D01*
Y678342D02*
Y731658D01*
Y705000D01*
X26110013D01*
X26189987Y758316D02*
Y811632D01*
X26176657D01*
X26123343Y758316D01*
X26110013D01*
X28656970Y3414987D02*
Y3361671D01*
X28630313Y3335013D01*
X28603653Y3361671D01*
Y3414987D01*
X28576996D02*
X28523679D01*
X28550339D01*
Y3335013D01*
X28443704Y3414987D02*
X28497021D01*
Y3375000D01*
X28470364Y3388329D01*
X28457034D01*
X28443704Y3375000D01*
Y3348342D01*
X28457034Y3335013D01*
X28483691D01*
X28497021Y3348342D01*
X15052513Y3583368D02*
X15132487D01*
Y3623355D01*
X15119157Y3636684D01*
X15092500D01*
X15079172Y3623355D01*
Y3583368D01*
Y3610026D02*
X15052513Y3636684D01*
X15132487Y3663342D02*
Y3716658D01*
X15119157D01*
X15065842Y3663342D01*
X15052513D01*
X15065842Y3743316D02*
X15052513Y3756645D01*
Y3783303D01*
X15065842Y3796632D01*
X15119157D01*
X15132487Y3783303D01*
Y3756645D01*
X15119157Y3743316D01*
X15105829D01*
X15092500Y3756645D01*
Y3796632D01*
X15939133Y3582497D02*
Y3662471D01*
X15899146D01*
X15885815Y3649142D01*
Y3622484D01*
X15899146Y3609155D01*
X15939133D01*
X15912474D02*
X15885815Y3582497D01*
X15859158Y3662471D02*
X15805843D01*
Y3649142D01*
X15859158Y3595826D01*
Y3582497D01*
X15779184Y3649142D02*
X15765855Y3662471D01*
X15739197D01*
X15725868Y3649142D01*
Y3635813D01*
X15739197Y3622484D01*
X15725868Y3609155D01*
Y3595826D01*
X15739197Y3582497D01*
X15765855D01*
X15779184Y3595826D01*
Y3609155D01*
X15765855Y3622484D01*
X15779184Y3635813D01*
Y3649142D01*
X15765855Y3622484D02*
X15739197D01*
X14822513Y3023368D02*
X14902487D01*
Y3063355D01*
X14889159Y3076684D01*
X14862500D01*
X14849171Y3063355D01*
Y3023368D01*
Y3050026D02*
X14822513Y3076684D01*
X14902487Y3103342D02*
Y3156658D01*
X14889159D01*
X14835841Y3103342D01*
X14822513D01*
X14902487Y3183316D02*
Y3236632D01*
X14889159D01*
X14835841Y3183316D01*
X14822513D01*
X22525014Y2048368D02*
X22604987D01*
Y2088355D01*
X22591658Y2101684D01*
X22564999D01*
X22551671Y2088355D01*
Y2048368D01*
Y2075026D02*
X22525014Y2101684D01*
X22604987Y2128342D02*
Y2181658D01*
X22591658D01*
X22538342Y2128342D01*
X22525014D01*
X22604987Y2261632D02*
X22591658Y2234974D01*
X22564999Y2208316D01*
X22538342D01*
X22525014Y2221645D01*
Y2248303D01*
X22538342Y2261632D01*
X22551671D01*
X22564999Y2248303D01*
Y2208316D01*
X8842513Y853368D02*
X8922487D01*
Y893355D01*
X8909158Y906684D01*
X8882500D01*
X8869171Y893355D01*
Y853368D01*
Y880026D02*
X8842513Y906684D01*
X8922487Y933342D02*
Y986658D01*
X8909158D01*
X8855842Y933342D01*
X8842513D01*
Y1053303D02*
X8922487D01*
X8882500Y1013316D01*
Y1066632D01*
X11072513Y3575868D02*
X11152487D01*
Y3615855D01*
X11139158Y3629184D01*
X11112500D01*
X11099171Y3615855D01*
Y3575868D01*
Y3602526D02*
X11072513Y3629184D01*
X11152487Y3655842D02*
Y3709158D01*
X11139158D01*
X11085842Y3655842D01*
X11072513D01*
Y3789132D02*
Y3735816D01*
X11125829Y3789132D01*
X11139158D01*
X11152487Y3775803D01*
Y3749145D01*
X11139158Y3735816D01*
X21152487Y3804133D02*
X21072513D01*
Y3764145D01*
X21085841Y3750816D01*
X21112500D01*
X21125829Y3764145D01*
Y3804133D01*
Y3777475D02*
X21152487Y3750816D01*
X21072513Y3724158D02*
Y3670842D01*
X21085841D01*
X21139159Y3724158D01*
X21152487D01*
X21085841Y3644184D02*
X21072513Y3630855D01*
Y3604197D01*
X21085841Y3590868D01*
X21139159D01*
X21152487Y3604197D01*
Y3630855D01*
X21139159Y3644184D01*
X21085841D01*
X19052513Y3603368D02*
X19132487D01*
Y3643355D01*
X19119157Y3656684D01*
X19092500D01*
X19079172Y3643355D01*
Y3603368D01*
Y3630026D02*
X19052513Y3656684D01*
X19132487Y3736658D02*
X19119157Y3710000D01*
X19092500Y3683342D01*
X19065842D01*
X19052513Y3696671D01*
Y3723329D01*
X19065842Y3736658D01*
X19079172D01*
X19092500Y3723329D01*
Y3683342D01*
X19065842Y3763316D02*
X19052513Y3776645D01*
Y3803303D01*
X19065842Y3816632D01*
X19119157D01*
X19132487Y3803303D01*
Y3776645D01*
X19119157Y3763316D01*
X19105829D01*
X19092500Y3776645D01*
Y3816632D01*
X17068422Y3589570D02*
X17148396D01*
Y3629557D01*
X17135068Y3642886D01*
X17108409D01*
X17095081Y3629557D01*
Y3589570D01*
Y3616228D02*
X17068422Y3642886D01*
X17148396Y3722860D02*
X17135068Y3696202D01*
X17108409Y3669544D01*
X17081750D01*
X17068422Y3682874D01*
Y3709532D01*
X17081750Y3722860D01*
X17095081D01*
X17108409Y3709532D01*
Y3669544D01*
X17135068Y3749519D02*
X17148396Y3762848D01*
Y3789506D01*
X17135068Y3802835D01*
X17121738D01*
X17108409Y3789506D01*
X17095081Y3802835D01*
X17081750D01*
X17068422Y3789506D01*
Y3762848D01*
X17081750Y3749519D01*
X17095081D01*
X17108409Y3762848D01*
X17121738Y3749519D01*
X17135068D01*
X17108409Y3762848D02*
Y3789506D01*
X23070950Y3587070D02*
X23150925D01*
Y3627057D01*
X23137595Y3640386D01*
X23110938D01*
X23097607Y3627057D01*
Y3587070D01*
Y3613728D02*
X23070950Y3640386D01*
X23150925Y3720360D02*
X23137595Y3693702D01*
X23110938Y3667044D01*
X23084279D01*
X23070950Y3680373D01*
Y3707031D01*
X23084279Y3720360D01*
X23097607D01*
X23110938Y3707031D01*
Y3667044D01*
X23150925Y3747018D02*
Y3800335D01*
X23137595D01*
X23084279Y3747018D01*
X23070950D01*
X12219132Y3755013D02*
Y3834987D01*
X12179145D01*
X12165816Y3821658D01*
Y3795000D01*
X12179145Y3781671D01*
X12219132D01*
X12192474D02*
X12165816Y3755013D01*
X12085842Y3834987D02*
X12112500Y3821658D01*
X12139158Y3795000D01*
Y3768342D01*
X12125829Y3755013D01*
X12099171D01*
X12085842Y3768342D01*
Y3781671D01*
X12099171Y3795000D01*
X12139158D01*
X12005868Y3834987D02*
X12032526Y3821658D01*
X12059184Y3795000D01*
Y3768342D01*
X12045855Y3755013D01*
X12019197D01*
X12005868Y3768342D01*
Y3781671D01*
X12019197Y3795000D01*
X12059184D01*
X24366632Y882513D02*
Y962487D01*
X24326645D01*
X24313316Y949158D01*
Y922500D01*
X24326645Y909171D01*
X24366632D01*
X24339973D02*
X24313316Y882513D01*
X24233342Y962487D02*
X24260001Y949158D01*
X24286658Y922500D01*
Y895842D01*
X24273329Y882513D01*
X24246671D01*
X24233342Y895842D01*
Y909171D01*
X24246671Y922500D01*
X24286658D01*
X24153368Y962487D02*
X24206683D01*
Y922500D01*
X24180026Y935829D01*
X24166698D01*
X24153368Y922500D01*
Y895842D01*
X24166698Y882513D01*
X24193355D01*
X24206683Y895842D01*
X21662514Y1945868D02*
X21742487D01*
Y1985855D01*
X21729158Y1999184D01*
X21702499D01*
X21689171Y1985855D01*
Y1945868D01*
Y1972526D02*
X21662514Y1999184D01*
X21742487Y2079158D02*
X21729158Y2052500D01*
X21702499Y2025842D01*
X21675842D01*
X21662514Y2039171D01*
Y2065829D01*
X21675842Y2079158D01*
X21689171D01*
X21702499Y2065829D01*
Y2025842D01*
X21662514Y2145803D02*
X21742487D01*
X21702499Y2105816D01*
Y2159132D01*
X19702512Y2135868D02*
X19782486D01*
Y2175855D01*
X19769157Y2189184D01*
X19742500D01*
X19729170Y2175855D01*
Y2135868D01*
Y2162526D02*
X19702512Y2189184D01*
X19782486Y2269158D02*
X19769157Y2242500D01*
X19742500Y2215842D01*
X19715842D01*
X19702512Y2229171D01*
Y2255829D01*
X19715842Y2269158D01*
X19729170D01*
X19742500Y2255829D01*
Y2215842D01*
X19769157Y2295816D02*
X19782486Y2309145D01*
Y2335803D01*
X19769157Y2349132D01*
X19755827D01*
X19742500Y2335803D01*
Y2322474D01*
Y2335803D01*
X19729170Y2349132D01*
X19715842D01*
X19702512Y2335803D01*
Y2309145D01*
X19715842Y2295816D01*
X19781631Y3210013D02*
Y3289987D01*
X19741644D01*
X19728316Y3276658D01*
Y3250000D01*
X19741644Y3236671D01*
X19781631D01*
X19754974D02*
X19728316Y3210013D01*
X19648341Y3289987D02*
X19675000Y3276658D01*
X19701659Y3250000D01*
Y3223342D01*
X19688329Y3210013D01*
X19661671D01*
X19648341Y3223342D01*
Y3236671D01*
X19661671Y3250000D01*
X19701659D01*
X19568369Y3210013D02*
X19621684D01*
X19568369Y3263329D01*
Y3276658D01*
X19581697Y3289987D01*
X19608356D01*
X19621684Y3276658D01*
X11582530Y3420868D02*
X11662504D01*
Y3460855D01*
X11649175Y3474184D01*
X11622517D01*
X11609188Y3460855D01*
Y3420868D01*
Y3447526D02*
X11582530Y3474184D01*
X11662504Y3554158D02*
X11649175Y3527500D01*
X11622517Y3500842D01*
X11595859D01*
X11582530Y3514171D01*
Y3540829D01*
X11595859Y3554158D01*
X11609188D01*
X11622517Y3540829D01*
Y3500842D01*
X11649175Y3580816D02*
X11662504Y3594145D01*
Y3620804D01*
X11649175Y3634132D01*
X11595859D01*
X11582530Y3620804D01*
Y3594145D01*
X11595859Y3580816D01*
X11649175D01*
X21914133Y3590013D02*
Y3669987D01*
X21874146D01*
X21860815Y3656658D01*
Y3630000D01*
X21874146Y3616671D01*
X21914133D01*
X21887474D02*
X21860815Y3590013D01*
X21780843Y3669987D02*
X21834158D01*
Y3630000D01*
X21807500Y3643329D01*
X21794171D01*
X21780843Y3630000D01*
Y3603342D01*
X21794171Y3590013D01*
X21820828D01*
X21834158Y3603342D01*
X21700868Y3669987D02*
X21727525Y3656658D01*
X21754184Y3630000D01*
Y3603342D01*
X21740855Y3590013D01*
X21714197D01*
X21700868Y3603342D01*
Y3616671D01*
X21714197Y3630000D01*
X21754184D01*
X19924132Y3577513D02*
Y3657487D01*
X19884145D01*
X19870816Y3644158D01*
Y3617500D01*
X19884145Y3604171D01*
X19924132D01*
X19897475D02*
X19870816Y3577513D01*
X19790842Y3657487D02*
X19844157D01*
Y3617500D01*
X19817500Y3630829D01*
X19804172D01*
X19790842Y3617500D01*
Y3590842D01*
X19804172Y3577513D01*
X19830829D01*
X19844157Y3590842D01*
X19710867Y3657487D02*
X19764185D01*
Y3617500D01*
X19737526Y3630829D01*
X19724197D01*
X19710867Y3617500D01*
Y3590842D01*
X19724197Y3577513D01*
X19750854D01*
X19764185Y3590842D01*
X17926633Y3580013D02*
Y3659987D01*
X17886646D01*
X17873315Y3646658D01*
Y3620000D01*
X17886646Y3606671D01*
X17926633D01*
X17899974D02*
X17873315Y3580013D01*
X17793343Y3659987D02*
X17846658D01*
Y3620000D01*
X17820000Y3633329D01*
X17806671D01*
X17793343Y3620000D01*
Y3593342D01*
X17806671Y3580013D01*
X17833328D01*
X17846658Y3593342D01*
X17726697Y3580013D02*
Y3659987D01*
X17766684Y3620000D01*
X17713368D01*
X23929132Y3585013D02*
Y3664987D01*
X23889145D01*
X23875816Y3651658D01*
Y3625000D01*
X23889145Y3611671D01*
X23929132D01*
X23902473D02*
X23875816Y3585013D01*
X23795842Y3664987D02*
X23849158D01*
Y3625000D01*
X23822501Y3638329D01*
X23809171D01*
X23795842Y3625000D01*
Y3598342D01*
X23809171Y3585013D01*
X23835829D01*
X23849158Y3598342D01*
X23769183Y3651658D02*
X23755855Y3664987D01*
X23729198D01*
X23715868Y3651658D01*
Y3638329D01*
X23729198Y3625000D01*
X23742526D01*
X23729198D01*
X23715868Y3611671D01*
Y3598342D01*
X23729198Y3585013D01*
X23755855D01*
X23769183Y3598342D01*
X6239132Y1767513D02*
Y1847487D01*
X6199145D01*
X6185816Y1834158D01*
Y1807500D01*
X6199145Y1794171D01*
X6239132D01*
X6212474D02*
X6185816Y1767513D01*
X6105842Y1847487D02*
X6159158D01*
Y1807500D01*
X6132500Y1820829D01*
X6119171D01*
X6105842Y1807500D01*
Y1780842D01*
X6119171Y1767513D01*
X6145829D01*
X6159158Y1780842D01*
X6025868Y1767513D02*
X6079184D01*
X6025868Y1820829D01*
Y1834158D01*
X6039197Y1847487D01*
X6065855D01*
X6079184Y1834158D01*
X6255803Y1570013D02*
Y1649987D01*
X6215816D01*
X6202487Y1636658D01*
Y1610000D01*
X6215816Y1596671D01*
X6255803D01*
X6229145D02*
X6202487Y1570013D01*
X6122513Y1649987D02*
X6175829D01*
Y1610000D01*
X6149171Y1623329D01*
X6135841D01*
X6122513Y1610000D01*
Y1583342D01*
X6135841Y1570013D01*
X6162499D01*
X6175829Y1583342D01*
X6095854Y1570013D02*
X6069196D01*
X6082525D01*
Y1649987D01*
X6095854Y1636658D01*
X31949133Y3580013D02*
Y3659987D01*
X31909146D01*
X31895816Y3646658D01*
Y3620000D01*
X31909146Y3606671D01*
X31949133D01*
X31922473D02*
X31895816Y3580013D01*
X31829172D02*
Y3659987D01*
X31869159Y3620000D01*
X31815842D01*
X31789185Y3593342D02*
X31775854Y3580013D01*
X31749197D01*
X31735867Y3593342D01*
Y3646658D01*
X31749197Y3659987D01*
X31775854D01*
X31789185Y3646658D01*
Y3633329D01*
X31775854Y3620000D01*
X31735867D01*
X29936633Y3581256D02*
Y3661230D01*
X29896646D01*
X29883316Y3647901D01*
Y3621243D01*
X29896646Y3607914D01*
X29936633D01*
X29909973D02*
X29883316Y3581256D01*
X29816672D02*
Y3661230D01*
X29856659Y3621243D01*
X29803342D01*
X29776685Y3647901D02*
X29763354Y3661230D01*
X29736697D01*
X29723367Y3647901D01*
Y3634572D01*
X29736697Y3621243D01*
X29723367Y3607914D01*
Y3594585D01*
X29736697Y3581256D01*
X29763354D01*
X29776685Y3594585D01*
Y3607914D01*
X29763354Y3621243D01*
X29776685Y3634572D01*
Y3647901D01*
X29763354Y3621243D02*
X29736697D01*
X27924133Y3576284D02*
Y3656259D01*
X27884146D01*
X27870816Y3642930D01*
Y3616272D01*
X27884146Y3602943D01*
X27924133D01*
X27897473D02*
X27870816Y3576284D01*
X27804172D02*
Y3656259D01*
X27844159Y3616272D01*
X27790842D01*
X27764185Y3656259D02*
X27710867D01*
Y3642930D01*
X27764185Y3589614D01*
Y3576284D01*
X25919131Y3582513D02*
Y3662487D01*
X25879144D01*
X25865817Y3649158D01*
Y3622500D01*
X25879144Y3609171D01*
X25919131D01*
X25892474D02*
X25865817Y3582513D01*
X25799170D02*
Y3662487D01*
X25839157Y3622500D01*
X25785843D01*
X25705869Y3662487D02*
X25732526Y3649158D01*
X25759183Y3622500D01*
Y3595842D01*
X25745856Y3582513D01*
X25719196D01*
X25705869Y3595842D01*
Y3609171D01*
X25719196Y3622500D01*
X25759183D01*
X30201633Y2537513D02*
Y2617487D01*
X30161646D01*
X30148315Y2604158D01*
Y2577500D01*
X30161646Y2564171D01*
X30201633D01*
X30174973D02*
X30148315Y2537513D01*
X30081671D02*
Y2617487D01*
X30121658Y2577500D01*
X30068341D01*
X29988367Y2617487D02*
X30041684D01*
Y2577500D01*
X30015027Y2590829D01*
X30001697D01*
X29988367Y2577500D01*
Y2550842D01*
X30001697Y2537513D01*
X30028354D01*
X30041684Y2550842D01*
X25674133Y897513D02*
Y977487D01*
X25634146D01*
X25620816Y964158D01*
Y937500D01*
X25634146Y924171D01*
X25674133D01*
X25647473D02*
X25620816Y897513D01*
X25554172D02*
Y977487D01*
X25594157Y937500D01*
X25540842D01*
X25474196Y897513D02*
Y977487D01*
X25514185Y937500D01*
X25460867D01*
X27727512Y2290867D02*
X27807486D01*
Y2330855D01*
X27794159Y2344184D01*
X27767499D01*
X27754172Y2330855D01*
Y2290867D01*
Y2317525D02*
X27727512Y2344184D01*
Y2410829D02*
X27807486D01*
X27767499Y2370842D01*
Y2424158D01*
X27794159Y2450816D02*
X27807486Y2464145D01*
Y2490803D01*
X27794159Y2504132D01*
X27780829D01*
X27767499Y2490803D01*
Y2477474D01*
Y2490803D01*
X27754172Y2504132D01*
X27740842D01*
X27727512Y2490803D01*
Y2464145D01*
X27740842Y2450816D01*
X29040350Y2805868D02*
X29120325D01*
Y2845855D01*
X29106995Y2859184D01*
X29080338D01*
X29067007Y2845855D01*
Y2805868D01*
Y2832526D02*
X29040350Y2859184D01*
Y2925829D02*
X29120325D01*
X29080338Y2885842D01*
Y2939158D01*
X29040350Y3019132D02*
Y2965816D01*
X29093665Y3019132D01*
X29106995D01*
X29120325Y3005803D01*
Y2979145D01*
X29106995Y2965816D01*
X6647513Y3806697D02*
X6727487D01*
Y3846684D01*
X6714158Y3860013D01*
X6687500D01*
X6674171Y3846684D01*
Y3806697D01*
Y3833355D02*
X6647513Y3860013D01*
Y3926658D02*
X6727487D01*
X6687500Y3886671D01*
Y3939987D01*
X6647513Y3966645D02*
Y3993303D01*
Y3979975D01*
X6727487D01*
X6714158Y3966645D01*
X7395013Y3603368D02*
X7474987D01*
Y3643355D01*
X7461658Y3656684D01*
X7435000D01*
X7421671Y3643355D01*
Y3603368D01*
Y3630026D02*
X7395013Y3656684D01*
X7461658Y3683342D02*
X7474987Y3696671D01*
Y3723329D01*
X7461658Y3736658D01*
X7448329D01*
X7435000Y3723329D01*
Y3710000D01*
Y3723329D01*
X7421671Y3736658D01*
X7408342D01*
X7395013Y3723329D01*
Y3696671D01*
X7408342Y3683342D01*
Y3763316D02*
X7395013Y3776645D01*
Y3803303D01*
X7408342Y3816632D01*
X7461658D01*
X7474987Y3803303D01*
Y3776645D01*
X7461658Y3763316D01*
X7448329D01*
X7435000Y3776645D01*
Y3816632D01*
X31385013Y3578368D02*
X31464987D01*
Y3618355D01*
X31451657Y3631684D01*
X31425000D01*
X31411670Y3618355D01*
Y3578368D01*
Y3605026D02*
X31385013Y3631684D01*
X31451657Y3658342D02*
X31464987Y3671671D01*
Y3698329D01*
X31451657Y3711658D01*
X31438330D01*
X31425000Y3698329D01*
Y3685000D01*
Y3698329D01*
X31411670Y3711658D01*
X31398343D01*
X31385013Y3698329D01*
Y3671671D01*
X31398343Y3658342D01*
X31464987Y3791632D02*
Y3738316D01*
X31425000D01*
X31438330Y3764974D01*
Y3778304D01*
X31425000Y3791632D01*
X31398343D01*
X31385013Y3778304D01*
Y3751646D01*
X31398343Y3738316D01*
X29397498Y3575868D02*
X29477472D01*
Y3615855D01*
X29464142Y3629184D01*
X29437485D01*
X29424155Y3615855D01*
Y3575868D01*
Y3602526D02*
X29397498Y3629184D01*
X29464142Y3655842D02*
X29477472Y3669171D01*
Y3695829D01*
X29464142Y3709158D01*
X29450812D01*
X29437485Y3695829D01*
Y3682500D01*
Y3695829D01*
X29424155Y3709158D01*
X29410825D01*
X29397498Y3695829D01*
Y3669171D01*
X29410825Y3655842D01*
X29397498Y3775803D02*
X29477472D01*
X29437485Y3735816D01*
Y3789132D01*
X27080014Y3578367D02*
X27159988D01*
Y3618355D01*
X27146658Y3631684D01*
X27120001D01*
X27106671Y3618355D01*
Y3578367D01*
Y3605026D02*
X27080014Y3631684D01*
X27146658Y3658342D02*
X27159988Y3671671D01*
Y3698329D01*
X27146658Y3711658D01*
X27133328D01*
X27120001Y3698329D01*
Y3685000D01*
Y3698329D01*
X27106671Y3711658D01*
X27093341D01*
X27080014Y3698329D01*
Y3671671D01*
X27093341Y3658342D01*
X27146658Y3738316D02*
X27159988Y3751645D01*
Y3778303D01*
X27146658Y3791632D01*
X27133328D01*
X27120001Y3778303D01*
Y3764974D01*
Y3778303D01*
X27106671Y3791632D01*
X27093341D01*
X27080014Y3778303D01*
Y3751645D01*
X27093341Y3738316D01*
X25389996Y3593368D02*
X25469971D01*
Y3633355D01*
X25456642Y3646684D01*
X25429984D01*
X25416655Y3633355D01*
Y3593368D01*
Y3620026D02*
X25389996Y3646684D01*
Y3726658D02*
Y3673342D01*
X25443314Y3726658D01*
X25456642D01*
X25469971Y3713329D01*
Y3686671D01*
X25456642Y3673342D01*
X25403326Y3753316D02*
X25389996Y3766645D01*
Y3793303D01*
X25403326Y3806632D01*
X25456642D01*
X25469971Y3793303D01*
Y3766645D01*
X25456642Y3753316D01*
X25443314D01*
X25429984Y3766645D01*
Y3806632D01*
X6652513Y3230868D02*
X6732487D01*
Y3270855D01*
X6719158Y3284184D01*
X6692500D01*
X6679171Y3270855D01*
Y3230868D01*
Y3257526D02*
X6652513Y3284184D01*
Y3364158D02*
Y3310842D01*
X6705829Y3364158D01*
X6719158D01*
X6732487Y3350829D01*
Y3324171D01*
X6719158Y3310842D01*
Y3390816D02*
X6732487Y3404145D01*
Y3430803D01*
X6719158Y3444132D01*
X6705829D01*
X6692500Y3430803D01*
X6679171Y3444132D01*
X6665842D01*
X6652513Y3430803D01*
Y3404145D01*
X6665842Y3390816D01*
X6679171D01*
X6692500Y3404145D01*
X6705829Y3390816D01*
X6719158D01*
X6692500Y3404145D02*
Y3430803D01*
X25839987Y2329132D02*
X25760013D01*
Y2289145D01*
X25773343Y2275816D01*
X25800000D01*
X25813330Y2289145D01*
Y2329132D01*
Y2302474D02*
X25839987Y2275816D01*
Y2195842D02*
Y2249158D01*
X25786670Y2195842D01*
X25773343D01*
X25760013Y2209171D01*
Y2235829D01*
X25773343Y2249158D01*
X25839987Y2115867D02*
Y2169184D01*
X25786670Y2115867D01*
X25773343D01*
X25760013Y2129196D01*
Y2155854D01*
X25773343Y2169184D01*
X1070013Y3616697D02*
X1149987D01*
Y3656684D01*
X1136658Y3670013D01*
X1110000D01*
X1096671Y3656684D01*
Y3616697D01*
Y3643355D02*
X1070013Y3670013D01*
Y3749987D02*
Y3696671D01*
X1123329Y3749987D01*
X1136658D01*
X1149987Y3736658D01*
Y3710000D01*
X1136658Y3696671D01*
X1070013Y3776645D02*
Y3803303D01*
Y3789974D01*
X1149987D01*
X1136658Y3776645D01*
X2041632Y3560013D02*
Y3639987D01*
X2001645D01*
X1988316Y3626658D01*
Y3600000D01*
X2001645Y3586671D01*
X2041632D01*
X2014974D02*
X1988316Y3560013D01*
X1908342D02*
X1961658D01*
X1908342Y3613329D01*
Y3626658D01*
X1921671Y3639987D01*
X1948329D01*
X1961658Y3626658D01*
X1881684D02*
X1868355Y3639987D01*
X1841697D01*
X1828368Y3626658D01*
Y3573342D01*
X1841697Y3560013D01*
X1868355D01*
X1881684Y3573342D01*
Y3626658D01*
X1655013Y3107532D02*
X1734987D01*
Y3147519D01*
X1721658Y3160848D01*
X1695000D01*
X1681671Y3147519D01*
Y3107532D01*
Y3134190D02*
X1655013Y3160848D01*
Y3187506D02*
Y3214165D01*
Y3200836D01*
X1734987D01*
X1721658Y3187506D01*
X1668342Y3254152D02*
X1655013Y3267481D01*
Y3294139D01*
X1668342Y3307468D01*
X1721658D01*
X1734987Y3294139D01*
Y3267481D01*
X1721658Y3254152D01*
X1708329D01*
X1695000Y3267481D01*
Y3307468D01*
X4104105Y852532D02*
X4184080D01*
Y892519D01*
X4170751Y905848D01*
X4144093D01*
X4130763Y892519D01*
Y852532D01*
Y879190D02*
X4104105Y905848D01*
Y932506D02*
Y959164D01*
Y945836D01*
X4184080D01*
X4170751Y932506D01*
X4184080Y999152D02*
Y1052468D01*
X4170751D01*
X4117434Y999152D01*
X4104105D01*
X20735815Y2536658D02*
X20749146Y2549987D01*
X20775803D01*
X20789133Y2536658D01*
Y2483342D01*
X20775803Y2470013D01*
X20749146D01*
X20735815Y2483342D01*
X20709158Y2536658D02*
X20695828Y2549987D01*
X20669171D01*
X20655843Y2536658D01*
Y2523329D01*
X20669171Y2510000D01*
X20682500D01*
X20669171D01*
X20655843Y2496671D01*
Y2483342D01*
X20669171Y2470013D01*
X20695828D01*
X20709158Y2483342D01*
X20629184Y2536658D02*
X20615855Y2549987D01*
X20589197D01*
X20575868Y2536658D01*
Y2523329D01*
X20589197Y2510000D01*
X20575868Y2496671D01*
Y2483342D01*
X20589197Y2470013D01*
X20615855D01*
X20629184Y2483342D01*
Y2496671D01*
X20615855Y2510000D01*
X20629184Y2523329D01*
Y2536658D01*
X20615855Y2510000D02*
X20589197D01*
X10388316Y906658D02*
X10401645Y919987D01*
X10428303D01*
X10441632Y906658D01*
Y853342D01*
X10428303Y840013D01*
X10401645D01*
X10388316Y853342D01*
X10361658Y906658D02*
X10348329Y919987D01*
X10321671D01*
X10308342Y906658D01*
Y893329D01*
X10321671Y880000D01*
X10335000D01*
X10321671D01*
X10308342Y866671D01*
Y853342D01*
X10321671Y840013D01*
X10348329D01*
X10361658Y853342D01*
X10281684Y919987D02*
X10228368D01*
Y906658D01*
X10281684Y853342D01*
Y840013D01*
X21955843Y965816D02*
X21942513Y979145D01*
Y1005803D01*
X21955843Y1019132D01*
X22009158D01*
X22022487Y1005803D01*
Y979145D01*
X22009158Y965816D01*
X21955843Y939158D02*
X21942513Y925829D01*
Y899171D01*
X21955843Y885842D01*
X21969171D01*
X21982500Y899171D01*
Y912500D01*
Y899171D01*
X21995828Y885842D01*
X22009158D01*
X22022487Y899171D01*
Y925829D01*
X22009158Y939158D01*
X22022487Y819197D02*
X21942513D01*
X21982500Y859184D01*
Y805868D01*
X6137487Y1409158D02*
X6150816Y1422487D01*
X6177474D01*
X6190803Y1409158D01*
Y1355842D01*
X6177474Y1342513D01*
X6150816D01*
X6137487Y1355842D01*
X6110829Y1409158D02*
X6097500Y1422487D01*
X6070842D01*
X6057513Y1409158D01*
Y1395829D01*
X6070842Y1382500D01*
X6084171D01*
X6070842D01*
X6057513Y1369171D01*
Y1355842D01*
X6070842Y1342513D01*
X6097500D01*
X6110829Y1355842D01*
X6030855Y1342513D02*
X6004197D01*
X6017526D01*
Y1422487D01*
X6030855Y1409158D01*
X27706659Y875848D02*
X27719986Y862519D01*
Y835861D01*
X27706659Y822532D01*
X27653342D01*
X27640012Y835861D01*
Y862519D01*
X27653342Y875848D01*
X27640012Y902506D02*
Y929165D01*
Y915836D01*
X27719986D01*
X27706659Y902506D01*
X27719986Y1022468D02*
Y969152D01*
X27679999D01*
X27693329Y995810D01*
Y1009139D01*
X27679999Y1022468D01*
X27653342D01*
X27640012Y1009139D01*
Y982481D01*
X27653342Y969152D01*
X28649490Y2656659D02*
X28662817Y2669988D01*
X28689474D01*
X28702805Y2656659D01*
Y2603343D01*
X28689474Y2590013D01*
X28662817D01*
X28649490Y2603343D01*
X28622830Y2590013D02*
X28596173D01*
X28609503D01*
Y2669988D01*
X28622830Y2656659D01*
X28556186D02*
X28542856Y2669988D01*
X28516199D01*
X28502869Y2656659D01*
Y2643329D01*
X28516199Y2630001D01*
X28529529D01*
X28516199D01*
X28502869Y2616671D01*
Y2603343D01*
X28516199Y2590013D01*
X28542856D01*
X28556186Y2603343D01*
X3619152Y899158D02*
X3632481Y912487D01*
X3659139D01*
X3672468Y899158D01*
Y845842D01*
X3659139Y832513D01*
X3632481D01*
X3619152Y845842D01*
X3592494Y832513D02*
X3565836D01*
X3579165D01*
Y912487D01*
X3592494Y899158D01*
X3472532Y832513D02*
X3525848D01*
X3472532Y885829D01*
Y899158D01*
X3485861Y912487D01*
X3512519D01*
X3525848Y899158D01*
D74*
X38229919Y12650500D02*
X39187500D01*
X38229919D02*
Y13514101D01*
X37244400Y12650500D02*
X38196899D01*
X3614920Y14120500D02*
X4572500D01*
X3614920D02*
Y14984100D01*
X2629400Y14120500D02*
X3581900D01*
D81*
X27595441Y2943764D02*
D03*
X27310437Y2943755D02*
D03*
X19121262Y2818745D02*
D03*
X19381261Y2818743D02*
D03*
X2103703Y2268736D02*
D03*
X2703745Y2271253D02*
D03*
X3003765Y2271259D02*
D03*
X1806270Y2263744D02*
D03*
X11493734Y2301258D02*
D03*
X11191249Y2303754D02*
D03*
X12096233Y2328755D02*
D03*
X11796259Y2328738D02*
D03*
X19513750Y26936209D02*
D03*
X19753751Y26938736D02*
D03*
X30281247Y27281302D02*
D03*
X30053751Y27281226D02*
D03*
X11251250Y27613754D02*
D03*
X12153750Y27613699D02*
D03*
X11878750Y27611246D02*
D03*
X10951250Y27613742D02*
D03*
X1811252Y27613742D02*
D03*
X3011250Y27613696D02*
D03*
X2748750Y27611240D02*
D03*
X2113751Y27613748D02*
D03*
D82*
X2070000Y10925000D02*
D03*
D83*
X1690000D02*
D03*
D84*
X39842502Y7789996D02*
D03*
X39842523Y8169976D02*
D03*
X41850000Y8170000D02*
D03*
Y7790000D02*
D03*
D85*
X1914996Y12019997D02*
D03*
D86*
X2294976Y12019976D02*
D03*
%TF.MD5,27513c3015d195591ff63160a8f50ffd*%
M02*
