%TF.GenerationSoftware,Altium Limited,Altium Designer,25.3.3 (18)*%
G04 Layer_Color=32768*
%FSLAX45Y45*%
%MOMM*%
%TF.SameCoordinates,A4CA6E92-6A9D-4088-ADF9-EEBE24E4F9EE*%
%TF.FilePolarity,Positive*%
%TF.FileFunction,Other,Bottom_3D_Body*%
%TF.Part,Single*%
G01*
G75*
%TA.AperFunction,NonConductor*%
%ADD71C,0.20000*%
%ADD72C,0.25400*%
%ADD73C,0.10000*%
%ADD78R,1.30000X1.30000*%
%ADD79R,3.00000X3.50000*%
D71*
X807500Y11442500D02*
X1402500D01*
Y10682500D02*
Y11442500D01*
X807500Y10682500D02*
X1402500D01*
X807500D02*
Y11442500D01*
X40372501Y8847500D02*
Y9442500D01*
X41132501D01*
Y8847500D02*
Y9442500D01*
X40372501Y8847500D02*
X41132501D01*
D72*
X19991302Y1850000D02*
X21600000D01*
X19988432Y550000D02*
X19991302Y1850000D01*
X21600000Y550000D02*
Y1850000D01*
X19988432Y550000D02*
X21600000D01*
X10691303Y1850000D02*
X12300000D01*
X10688432Y550000D02*
X10691303Y1850000D01*
X12300000Y550000D02*
Y1850000D01*
X10688432Y550000D02*
X12300000D01*
X1591303Y1850000D02*
X3200000D01*
X1588432Y550000D02*
X1591303Y1850000D01*
X3200000Y550000D02*
Y1850000D01*
X1588432Y550000D02*
X3200000D01*
X23547501Y23005000D02*
X29237500Y23005000D01*
X23534911Y17305093D02*
X23547501Y23005000D01*
X29237500Y17305000D02*
Y23005000D01*
X23534911Y17305000D02*
X29237500Y17305000D01*
X27992499Y28150000D02*
X29601196D01*
X29604068Y29450000D01*
X27992499Y28150000D02*
Y29450000D01*
X29604068D01*
X19992500Y28150000D02*
X21601196D01*
X21604068Y29450000D01*
X19992500Y28150000D02*
Y29450000D01*
X21604068D01*
X23537500Y6975000D02*
X29227499Y6975000D01*
Y6975000D02*
X29240091Y12674906D01*
X23537500Y6975000D02*
Y12675000D01*
X29240091Y12675000D01*
X1610000Y29450000D02*
X3221568D01*
X1610000Y28150000D02*
Y29450000D01*
X3218697Y28150000D02*
X3221568Y29450000D01*
X1610000Y28150000D02*
X3218697D01*
X10752500Y29450000D02*
X12364068D01*
X10752500Y28150000D02*
Y29450000D01*
X12361197Y28150000D02*
X12364068Y29450000D01*
X10752500Y28150000D02*
X12361197D01*
X27988431Y550000D02*
X29600000D01*
Y1850000D01*
X27988431Y550000D02*
X27991302Y1850000D01*
X29600000D01*
D73*
X16775000Y5500000D02*
X16825000D01*
X16800000Y5475000D02*
Y5525000D01*
X800000Y6500000D02*
X32800000D01*
X800000Y4500000D02*
X32800000D01*
X800000D02*
Y6500000D01*
X32800000Y4500000D02*
Y6500000D01*
X16775000Y24500000D02*
X16825000D01*
X16800000Y24475000D02*
Y24525000D01*
X800000Y25500000D02*
X32800000D01*
X800000Y23500000D02*
X32800000D01*
X800000D02*
Y25500000D01*
X32800000Y23500000D02*
Y25500000D01*
X21305000Y1260000D02*
X21305000Y1260000D01*
X21306500Y1140000D02*
X21310001Y1136500D01*
X12005000Y1260000D02*
X12005000Y1260000D01*
X12006501Y1140000D02*
X12010000Y1136500D01*
X2905000Y1260000D02*
X2905000Y1260000D01*
X2906501Y1140000D02*
X2910000Y1136500D01*
X26892499Y20214999D02*
X26892499Y20214999D01*
X26894000Y20095000D02*
X26897501Y20091501D01*
X28287500Y28739999D02*
X28287500Y28739999D01*
X28282501Y28863501D02*
X28285999Y28860001D01*
X20287500Y28739999D02*
X20287500Y28739999D01*
X20282500Y28863501D02*
X20285999Y28860001D01*
X9775000Y20764999D02*
X9825000D01*
X9800000Y20739999D02*
Y20789999D01*
X6800000Y19264999D02*
X12800000D01*
X6800000Y22264999D02*
X12800000D01*
Y19264999D02*
Y22264999D01*
X6800000Y19264999D02*
Y22264999D01*
X25882501Y9765000D02*
X25882501Y9765001D01*
X25877499Y9888500D02*
X25881000Y9885000D01*
X9775000Y9230000D02*
X9825000D01*
X9800000Y9205000D02*
Y9255000D01*
X6800000Y10730000D02*
X12800000D01*
X6800000Y7730000D02*
X12800000D01*
X6800000D02*
Y10730000D01*
X12800000Y7730000D02*
Y10730000D01*
X1900000Y28863501D02*
X1903499Y28860001D01*
X1905000Y28739999D02*
X1905000Y28739999D01*
X11042500Y28863501D02*
X11045999Y28860001D01*
X11047500Y28739999D02*
X11047500Y28739999D01*
X29306500Y1140000D02*
X29310001Y1136500D01*
X29304999Y1260000D02*
X29304999Y1260000D01*
X16800000Y5420026D02*
Y5500000D01*
Y5460013D01*
X16746684D01*
Y5420026D01*
Y5500000D01*
X16666710D02*
X16720026D01*
X16666710Y5446684D01*
Y5433355D01*
X16680038Y5420026D01*
X16706697D01*
X16720026Y5433355D01*
X16800000Y24420026D02*
Y24500000D01*
Y24460013D01*
X16746684D01*
Y24420026D01*
Y24500000D01*
X16720026D02*
X16693369D01*
X16706697D01*
Y24420026D01*
X16720026Y24433356D01*
X20832478Y1285000D02*
Y1238348D01*
Y1261674D01*
X20762500D01*
X20832478Y1168371D02*
X20820815Y1191697D01*
X20797488Y1215022D01*
X20774162D01*
X20762500Y1203360D01*
Y1180034D01*
X20774162Y1168371D01*
X20785826D01*
X20797488Y1180034D01*
Y1215022D01*
X11444978Y1200000D02*
Y1153348D01*
Y1176674D01*
X11375000D01*
X11444978Y1083371D02*
Y1130022D01*
X11409989D01*
X11421652Y1106697D01*
Y1095034D01*
X11409989Y1083371D01*
X11386663D01*
X11375000Y1095034D01*
Y1118359D01*
X11386663Y1130022D01*
X2537478Y1445000D02*
Y1398348D01*
Y1421674D01*
X2467500D01*
Y1328371D02*
Y1375022D01*
X2514152Y1328371D01*
X2525815D01*
X2537478Y1340034D01*
Y1363359D01*
X2525815Y1375022D01*
X26419977Y20239999D02*
Y20193349D01*
Y20216673D01*
X26350000D01*
X26408316Y20170023D02*
X26419977Y20158360D01*
Y20135034D01*
X26408316Y20123370D01*
X26396652D01*
X26384988Y20135034D01*
X26373325Y20123370D01*
X26361664D01*
X26350000Y20135034D01*
Y20158360D01*
X26361664Y20170023D01*
X26373325D01*
X26384988Y20158360D01*
X26396652Y20170023D01*
X26408316D01*
X26384988Y20158360D02*
Y20135034D01*
X28760022Y28714999D02*
Y28761652D01*
Y28738327D01*
X28829999D01*
X28760022Y28784976D02*
Y28831628D01*
X28771686D01*
X28818338Y28784976D01*
X28829999D01*
X20760022Y28714999D02*
Y28761652D01*
Y28738327D01*
X20830000D01*
Y28784976D02*
Y28808304D01*
Y28796640D01*
X20760022D01*
X20771684Y28784976D01*
Y28843292D02*
X20760022Y28854956D01*
Y28878281D01*
X20771684Y28889944D01*
X20818336D01*
X20830000Y28878281D01*
Y28854956D01*
X20818336Y28843292D01*
X20771684D01*
X9800000Y20844974D02*
Y20764999D01*
X9853316D01*
X9933290D02*
X9879974D01*
X9933290Y20818317D01*
Y20831645D01*
X9919961Y20844974D01*
X9893303D01*
X9879974Y20831645D01*
X26355023Y9740000D02*
Y9786652D01*
Y9763326D01*
X26425000D01*
Y9844966D02*
X26355023D01*
X26390012Y9809978D01*
Y9856629D01*
X9800000Y9150026D02*
Y9230000D01*
X9746684D01*
X9720026D02*
X9693368D01*
X9706697D01*
Y9150026D01*
X9720026Y9163355D01*
X2509977Y28732501D02*
Y28685849D01*
Y28709174D01*
X2440000D01*
Y28662524D02*
Y28639197D01*
Y28650861D01*
X2509977D01*
X2498315Y28662524D01*
X11777500Y28804977D02*
X11824152D01*
X11800826D01*
Y28735001D01*
X11847477Y28746664D02*
X11859140Y28735001D01*
X11882466D01*
X11894129Y28746664D01*
Y28793314D01*
X11882466Y28804977D01*
X11859140D01*
X11847477Y28793314D01*
Y28781653D01*
X11859140Y28769989D01*
X11894129D01*
X28832477Y1285000D02*
Y1238348D01*
Y1261674D01*
X28762500D01*
X28820816Y1215022D02*
X28832477Y1203360D01*
Y1180034D01*
X28820816Y1168371D01*
X28809152D01*
X28797488Y1180034D01*
Y1191697D01*
Y1180034D01*
X28785825Y1168371D01*
X28774164D01*
X28762500Y1180034D01*
Y1203360D01*
X28774164Y1215022D01*
D78*
X21654997Y1905003D02*
D03*
X12354975Y1905025D02*
D03*
X3254967Y1905033D02*
D03*
X27937509Y28095010D02*
D03*
X19937518Y28094986D02*
D03*
X1555018Y28095013D02*
D03*
X10697516Y28095016D02*
D03*
X29654996Y1905003D02*
D03*
D79*
X29087497Y22829967D02*
D03*
X23687495Y7150000D02*
D03*
%TF.MD5,a41d8d015651c7a934864edb5d2d29de*%
M02*
