%TF.GenerationSoftware,Altium Limited,Altium Designer,25.3.3 (18)*%
G04 Layer_Color=255*
%FSLAX45Y45*%
%MOMM*%
%TF.SameCoordinates,A4CA6E92-6A9D-4088-ADF9-EEBE24E4F9EE*%
%TF.FilePolarity,Positive*%
%TF.FileFunction,Pads,Top*%
%TF.Part,Single*%
G01*
G75*
%TA.AperFunction,ComponentPad*%
%ADD17C,1.50000*%
%TA.AperFunction,TestPad*%
%ADD18C,1.80000*%
%TA.AperFunction,ComponentPad*%
%ADD19C,1.52400*%
%ADD20C,12.00000*%
%ADD21C,4.00000*%
%ADD22C,2.20000*%
%ADD23O,2.00000X2.50000*%
%ADD24C,1.80000*%
%ADD25C,2.50000*%
%ADD26O,12.00000X8.00000*%
%ADD27O,20.00000X8.00000*%
%ADD28R,1.55000X1.55000*%
%ADD29C,1.55000*%
%ADD30O,8.00000X4.00000*%
%ADD31O,6.60000X6.00000*%
%ADD32R,1.55000X1.55000*%
%ADD33O,8.89000X5.08000*%
%ADD34O,1.52400X1.77800*%
D17*
X5550000Y28177499D02*
D03*
X5296000D02*
D03*
X8665000Y1685000D02*
D03*
X8411000D02*
D03*
X24000000Y1800000D02*
D03*
X24253999D02*
D03*
X7762000D02*
D03*
X7254000D02*
D03*
X7000000D02*
D03*
X7508000D02*
D03*
X3154000Y9950000D02*
D03*
X2900000D02*
D03*
X39031500Y9610000D02*
D03*
X38777499D02*
D03*
X6492000Y28200000D02*
D03*
X7000000D02*
D03*
X6746000D02*
D03*
X6238000D02*
D03*
X16000000Y28492001D02*
D03*
Y29000000D02*
D03*
Y28745999D02*
D03*
Y28238000D02*
D03*
X23746001Y28100000D02*
D03*
X24000000D02*
D03*
X16000000Y1508000D02*
D03*
Y1000000D02*
D03*
Y1254000D02*
D03*
Y1762000D02*
D03*
X933500Y10015000D02*
D03*
X1441500D02*
D03*
X1187500D02*
D03*
X679500D02*
D03*
X41595001Y9219000D02*
D03*
Y8711000D02*
D03*
Y8965000D02*
D03*
Y9473000D02*
D03*
D18*
X26345001Y26745001D02*
D03*
X3802500Y1997500D02*
D03*
X19462500Y29325000D02*
D03*
X27687500Y28817499D02*
D03*
X17267500Y3250000D02*
D03*
X27804999Y1720000D02*
D03*
X21732312Y675000D02*
D03*
X29785001Y670000D02*
D03*
X30457501Y1165000D02*
D03*
X22350000Y1730000D02*
D03*
X22355000Y1990000D02*
D03*
X30450000Y2020000D02*
D03*
X30435001Y1732500D02*
D03*
X3002500Y205000D02*
D03*
X1377500Y680000D02*
D03*
X1080000Y2047500D02*
D03*
X13277499Y2070000D02*
D03*
X10372500Y1722500D02*
D03*
X12637500Y1715000D02*
D03*
X10375000Y2216409D02*
D03*
X13650000Y2062500D02*
D03*
X1375000Y1727500D02*
D03*
X3540000Y1725000D02*
D03*
X40579999Y8512500D02*
D03*
X8355000Y28302499D02*
D03*
X3407793Y29325000D02*
D03*
X1390000D02*
D03*
X8710000Y29325000D02*
D03*
X3398734Y27681265D02*
D03*
X27690955Y28040781D02*
D03*
X27037500Y28029999D02*
D03*
X19239999Y28272501D02*
D03*
X21732500Y28237500D02*
D03*
X19237500Y27995001D02*
D03*
X12580000Y28270001D02*
D03*
X12615000Y27892499D02*
D03*
X10542500Y27891779D02*
D03*
X1442500Y27897501D02*
D03*
X3667500Y27900000D02*
D03*
X1225000Y28277499D02*
D03*
X18347501Y26679999D02*
D03*
X1562500Y11572500D02*
D03*
X5412500Y497500D02*
D03*
X5887500Y912500D02*
D03*
D19*
X2800000Y5972216D02*
D03*
Y4897216D02*
D03*
X30800000Y6000000D02*
D03*
Y5000000D02*
D03*
X16800000Y6000000D02*
D03*
Y5000000D02*
D03*
X2800000Y24972217D02*
D03*
Y23897215D02*
D03*
X30800000Y25000000D02*
D03*
Y24000000D02*
D03*
X16800000Y25000000D02*
D03*
Y24000000D02*
D03*
D20*
X40710001Y13000000D02*
D03*
X40697501Y17000000D02*
D03*
D21*
X41535001Y13825000D02*
D03*
Y12175000D02*
D03*
X39885001D02*
D03*
Y13825000D02*
D03*
X40710001Y12175000D02*
D03*
Y13825000D02*
D03*
X41522501Y17825000D02*
D03*
Y16175000D02*
D03*
X39872501D02*
D03*
Y17825000D02*
D03*
X40697501Y16175000D02*
D03*
Y17825000D02*
D03*
X18915048Y17395000D02*
D03*
Y16395000D02*
D03*
X7907548Y17395000D02*
D03*
Y16395000D02*
D03*
X15267548Y17395000D02*
D03*
Y16395000D02*
D03*
X11590048Y17395000D02*
D03*
Y16395000D02*
D03*
X11585000Y12590000D02*
D03*
Y13589999D02*
D03*
X18910001Y12590000D02*
D03*
Y13589999D02*
D03*
X7902500Y12590000D02*
D03*
Y13589999D02*
D03*
X15262500Y12590000D02*
D03*
Y13589999D02*
D03*
X31323059Y8933360D02*
D03*
Y9933360D02*
D03*
X34958060Y8928360D02*
D03*
Y9928360D02*
D03*
Y13628360D02*
D03*
Y12628360D02*
D03*
X31323059Y13633360D02*
D03*
Y12633360D02*
D03*
X31317499Y16364999D02*
D03*
Y17364999D02*
D03*
X34952499Y16360001D02*
D03*
Y17360001D02*
D03*
X34950000Y21045000D02*
D03*
Y20045000D02*
D03*
X31314999Y21050000D02*
D03*
Y20050000D02*
D03*
D22*
X32345999Y25900000D02*
D03*
X31800000D02*
D03*
X31254001D02*
D03*
X30345999D02*
D03*
X29800000D02*
D03*
X29254001D02*
D03*
X28345999D02*
D03*
X27800000D02*
D03*
X27254001D02*
D03*
X26345999D02*
D03*
X25800000D02*
D03*
X25253999D02*
D03*
X24346001D02*
D03*
X23800000D02*
D03*
X23253999D02*
D03*
X22346001D02*
D03*
X21800000D02*
D03*
X21253999D02*
D03*
X20346001D02*
D03*
X19800000D02*
D03*
X19253999D02*
D03*
X18346001D02*
D03*
X17800000D02*
D03*
X17253999D02*
D03*
X16366000Y4100000D02*
D03*
X15820000D02*
D03*
X15274001D02*
D03*
X12366000D02*
D03*
X11820000D02*
D03*
X11274000D02*
D03*
X5254000Y25900000D02*
D03*
X5800000D02*
D03*
X6346000D02*
D03*
X13274001Y4100000D02*
D03*
X13820000D02*
D03*
X14366000D02*
D03*
X9274000D02*
D03*
X9820000D02*
D03*
X10366000D02*
D03*
X5274000D02*
D03*
X5820000D02*
D03*
X6366000D02*
D03*
X7274000D02*
D03*
X7820000D02*
D03*
X8366000D02*
D03*
X3274000D02*
D03*
X3820000D02*
D03*
X4366000D02*
D03*
X1274000D02*
D03*
X1820000D02*
D03*
X2366000D02*
D03*
X18366000D02*
D03*
X17820000D02*
D03*
X17274001D02*
D03*
X20366000D02*
D03*
X19820000D02*
D03*
X19274001D02*
D03*
X22366000D02*
D03*
X21820000D02*
D03*
X21274001D02*
D03*
X23274001D02*
D03*
X23820000D02*
D03*
X24366000D02*
D03*
X26366000D02*
D03*
X25820001D02*
D03*
X25274001D02*
D03*
X28366000D02*
D03*
X27820001D02*
D03*
X27273999D02*
D03*
X30366000D02*
D03*
X29820001D02*
D03*
X29273999D02*
D03*
X32366000D02*
D03*
X31820001D02*
D03*
X31273999D02*
D03*
X16346001Y25900000D02*
D03*
X15800000D02*
D03*
X15253999D02*
D03*
X10346000D02*
D03*
X9800000D02*
D03*
X9254000D02*
D03*
X8346000D02*
D03*
X7800000D02*
D03*
X7254000D02*
D03*
X14346001D02*
D03*
X13800000D02*
D03*
X13253999D02*
D03*
X4346000D02*
D03*
X3800000D02*
D03*
X3254000D02*
D03*
X2346000D02*
D03*
X1800000D02*
D03*
X1254000D02*
D03*
X11254000D02*
D03*
X11800000D02*
D03*
X12346000D02*
D03*
D23*
X21400000Y675000D02*
D03*
X21100000D02*
D03*
X20800000D02*
D03*
X20500000D02*
D03*
X20200000D02*
D03*
X21400000Y1725000D02*
D03*
X21100000D02*
D03*
X20800000D02*
D03*
X20500000D02*
D03*
X20200000D02*
D03*
X12100000Y675000D02*
D03*
X11800000D02*
D03*
X11500000D02*
D03*
X11200000D02*
D03*
X10900000D02*
D03*
X12100000Y1725000D02*
D03*
X11800000D02*
D03*
X11500000D02*
D03*
X11200000D02*
D03*
X10900000D02*
D03*
X3000000Y675000D02*
D03*
X2700000D02*
D03*
X2400000D02*
D03*
X2100000D02*
D03*
X1800000D02*
D03*
X3000000Y1725000D02*
D03*
X2700000D02*
D03*
X2400000D02*
D03*
X2100000D02*
D03*
X1800000D02*
D03*
X28192499Y29325000D02*
D03*
X28492499D02*
D03*
X28792499D02*
D03*
X29092499D02*
D03*
X29392499D02*
D03*
X28192499Y28275000D02*
D03*
X28492499D02*
D03*
X28792499D02*
D03*
X29092499D02*
D03*
X29392499D02*
D03*
X20192500Y29325000D02*
D03*
X20492500D02*
D03*
X20792500D02*
D03*
X21092500D02*
D03*
X21392500D02*
D03*
X20192500Y28275000D02*
D03*
X20492500D02*
D03*
X20792500D02*
D03*
X21092500D02*
D03*
X21392500D02*
D03*
X3010000D02*
D03*
X2710000D02*
D03*
X2410000D02*
D03*
X2110000D02*
D03*
X1810000D02*
D03*
X3010000Y29325000D02*
D03*
X2710000D02*
D03*
X2410000D02*
D03*
X2110000D02*
D03*
X1810000D02*
D03*
X12152500Y28275000D02*
D03*
X11852500D02*
D03*
X11552500D02*
D03*
X11252500D02*
D03*
X10952500D02*
D03*
X12152500Y29325000D02*
D03*
X11852500D02*
D03*
X11552500D02*
D03*
X11252500D02*
D03*
X10952500D02*
D03*
X28200000Y1725000D02*
D03*
X28500000D02*
D03*
X28800000D02*
D03*
X29100000D02*
D03*
X29400000D02*
D03*
X28200000Y675000D02*
D03*
X28500000D02*
D03*
X28800000D02*
D03*
X29100000D02*
D03*
X29400000D02*
D03*
D24*
X2475000Y12217500D02*
D03*
X40207501Y9532243D02*
D03*
X38229999Y10370000D02*
D03*
X39717499Y8562500D02*
D03*
X38864999Y8402500D02*
D03*
X1465000Y12765000D02*
D03*
X3090000Y11487500D02*
D03*
X472500Y12765000D02*
D03*
D25*
X14105000Y2990000D02*
D03*
X16355000Y2985000D02*
D03*
X11392500Y2990000D02*
D03*
X13642500Y2985000D02*
D03*
X8655000Y2990000D02*
D03*
X10905000Y2985000D02*
D03*
X5360000Y3010000D02*
D03*
X3110000Y3015000D02*
D03*
X8095000Y3010000D02*
D03*
X5845000Y3015000D02*
D03*
X2645000Y3010000D02*
D03*
X395000Y3015000D02*
D03*
X14482500Y26989999D02*
D03*
X16732500Y26985001D02*
D03*
X11747500Y26989999D02*
D03*
X13997501Y26985001D02*
D03*
X2785000Y26985001D02*
D03*
X535000Y26989999D02*
D03*
X5505000Y26985001D02*
D03*
X3255000Y26989999D02*
D03*
X8220000Y26985001D02*
D03*
X5970000Y26989999D02*
D03*
X11252500Y26985001D02*
D03*
X9002500Y26989999D02*
D03*
D26*
X25787500Y17755000D02*
D03*
X24187500D02*
D03*
X25787500Y12225000D02*
D03*
X24187500D02*
D03*
D27*
X27887500Y17755000D02*
D03*
X24887500Y22555000D02*
D03*
X27887500D02*
D03*
Y12225000D02*
D03*
Y7425000D02*
D03*
X24887500D02*
D03*
D28*
X41095999Y7587500D02*
D03*
D29*
X40842001D02*
D03*
X40588000D02*
D03*
X40334000D02*
D03*
X2472500Y11416000D02*
D03*
Y11162000D02*
D03*
Y10908000D02*
D03*
D30*
X9800000Y19464999D02*
D03*
Y22064999D02*
D03*
Y10530000D02*
D03*
Y7930000D02*
D03*
D31*
X2039411Y15466820D02*
D03*
X1048811D02*
D03*
X2039031Y14474899D02*
D03*
X1048431D02*
D03*
D32*
X2472500Y10654000D02*
D03*
D33*
X37726999Y13006100D02*
D03*
X38742999D02*
D03*
X3112000Y14476100D02*
D03*
X4128000D02*
D03*
D34*
X38044501Y10847100D02*
D03*
X38235001D02*
D03*
X38425500D02*
D03*
X3429500Y12317100D02*
D03*
X3620000D02*
D03*
X3810500D02*
D03*
%TF.MD5,b79afb6a02f3ef63c7064eae1585f828*%
M02*
