%TF.GenerationSoftware,Altium Limited,Altium Designer,25.3.3 (18)*%
G04 Layer_Color=8388736*
%FSLAX45Y45*%
%MOMM*%
%TF.SameCoordinates,A4CA6E92-6A9D-4088-ADF9-EEBE24E4F9EE*%
%TF.FilePolarity,Positive*%
%TF.FileFunction,Other,Top_Assembly*%
%TF.Part,Single*%
G01*
G75*
%TA.AperFunction,NonConductor*%
%ADD71C,0.20000*%
%ADD72C,0.25400*%
%ADD73C,0.10000*%
G36*
X40632690Y7377418D02*
X40633438D01*
X40634271Y7377251D01*
X40635187Y7377084D01*
X40636270Y7376918D01*
X40637436Y7376584D01*
X40638687Y7376251D01*
X40640021Y7375751D01*
X40641354Y7375168D01*
X40642685Y7374502D01*
X40644019Y7373669D01*
X40645352Y7372669D01*
X40646603Y7371586D01*
X40647852Y7370336D01*
X40647934Y7370253D01*
X40648102Y7370003D01*
X40648434Y7369586D01*
X40648849Y7368920D01*
X40649268Y7368170D01*
X40649768Y7367170D01*
X40650351Y7366004D01*
X40650934Y7364671D01*
X40651517Y7363088D01*
X40652100Y7361338D01*
X40652600Y7359339D01*
X40653018Y7357256D01*
X40653433Y7354840D01*
X40653766Y7352257D01*
X40653934Y7349508D01*
X40654016Y7346509D01*
Y7346425D01*
Y7346259D01*
Y7346009D01*
Y7345676D01*
Y7345259D01*
X40653934Y7344759D01*
Y7343510D01*
X40653766Y7341927D01*
X40653683Y7340177D01*
X40653433Y7338261D01*
X40653183Y7336178D01*
X40652768Y7334012D01*
X40652350Y7331763D01*
X40651767Y7329513D01*
X40651102Y7327264D01*
X40650351Y7325098D01*
X40649435Y7323098D01*
X40648352Y7321182D01*
X40647186Y7319516D01*
X40647101Y7319432D01*
X40646936Y7319182D01*
X40646603Y7318849D01*
X40646103Y7318349D01*
X40645520Y7317766D01*
X40644769Y7317183D01*
X40643851Y7316516D01*
X40642935Y7315767D01*
X40641852Y7315100D01*
X40640604Y7314434D01*
X40639270Y7313850D01*
X40637854Y7313267D01*
X40636270Y7312767D01*
X40634604Y7312434D01*
X40632855Y7312184D01*
X40631021Y7312101D01*
X40630273D01*
X40629773Y7312184D01*
X40629105Y7312268D01*
X40628357Y7312351D01*
X40627524Y7312434D01*
X40626608Y7312601D01*
X40624692Y7313101D01*
X40622607Y7313850D01*
X40621524Y7314350D01*
X40620526Y7314934D01*
X40619525Y7315600D01*
X40618610Y7316350D01*
X40618527Y7316433D01*
X40618359Y7316516D01*
X40618192Y7316766D01*
X40617859Y7317100D01*
X40617444Y7317600D01*
X40617026Y7318099D01*
X40616525Y7318683D01*
X40616025Y7319432D01*
X40615527Y7320182D01*
X40615027Y7321099D01*
X40614609Y7322015D01*
X40614111Y7323098D01*
X40613278Y7325348D01*
X40613028Y7326681D01*
X40612778Y7328014D01*
X40620609Y7328597D01*
Y7328513D01*
X40620691Y7328430D01*
Y7328180D01*
X40620776Y7327847D01*
X40621024Y7327014D01*
X40621359Y7326014D01*
X40621774Y7324931D01*
X40622357Y7323848D01*
X40622940Y7322848D01*
X40623608Y7321932D01*
X40623773Y7321765D01*
X40624191Y7321432D01*
X40624857Y7320849D01*
X40625775Y7320266D01*
X40626941Y7319682D01*
X40628271Y7319099D01*
X40629855Y7318766D01*
X40631522Y7318599D01*
X40632190D01*
X40632855Y7318683D01*
X40633771Y7318849D01*
X40634772Y7319099D01*
X40635938Y7319516D01*
X40637021Y7320016D01*
X40638187Y7320765D01*
X40638354Y7320849D01*
X40638770Y7321265D01*
X40639438Y7321848D01*
X40640271Y7322765D01*
X40641187Y7323848D01*
X40642188Y7325181D01*
X40643103Y7326764D01*
X40644019Y7328597D01*
Y7328680D01*
X40644101Y7328847D01*
X40644186Y7329097D01*
X40644351Y7329513D01*
X40644519Y7330096D01*
X40644687Y7330763D01*
X40644852Y7331513D01*
X40645102Y7332346D01*
X40645270Y7333346D01*
X40645435Y7334512D01*
X40645602Y7335678D01*
X40645770Y7337011D01*
X40645935Y7338428D01*
X40646103Y7340010D01*
X40646185Y7341677D01*
Y7343343D01*
X40646021Y7343260D01*
X40645685Y7342676D01*
X40645102Y7341927D01*
X40644269Y7341010D01*
X40643268Y7339927D01*
X40642102Y7338927D01*
X40640771Y7337844D01*
X40639270Y7337011D01*
X40639188D01*
X40639105Y7336928D01*
X40638855Y7336845D01*
X40638519Y7336678D01*
X40637772Y7336345D01*
X40636688Y7335928D01*
X40635355Y7335512D01*
X40633939Y7335178D01*
X40632355Y7334928D01*
X40630688Y7334845D01*
X40629938D01*
X40629355Y7334928D01*
X40628690Y7335012D01*
X40627856Y7335178D01*
X40627023Y7335345D01*
X40626025Y7335595D01*
X40625024Y7335845D01*
X40623941Y7336261D01*
X40622858Y7336761D01*
X40621692Y7337261D01*
X40620526Y7338011D01*
X40619443Y7338761D01*
X40618359Y7339677D01*
X40617276Y7340677D01*
X40617194Y7340760D01*
X40617026Y7340927D01*
X40616776Y7341260D01*
X40616360Y7341760D01*
X40615942Y7342343D01*
X40615527Y7343010D01*
X40615027Y7343843D01*
X40614444Y7344759D01*
X40613943Y7345759D01*
X40613443Y7346925D01*
X40613028Y7348092D01*
X40612527Y7349425D01*
X40612195Y7350924D01*
X40611945Y7352424D01*
X40611777Y7354007D01*
X40611694Y7355673D01*
Y7355756D01*
Y7355923D01*
Y7356256D01*
Y7356673D01*
X40611777Y7357256D01*
X40611862Y7357839D01*
X40612027Y7359339D01*
X40612360Y7361005D01*
X40612778Y7362921D01*
X40613443Y7364837D01*
X40614359Y7366837D01*
Y7366920D01*
X40614444Y7367087D01*
X40614609Y7367337D01*
X40614859Y7367670D01*
X40615442Y7368586D01*
X40616193Y7369753D01*
X40617276Y7371003D01*
X40618442Y7372336D01*
X40619858Y7373585D01*
X40621524Y7374752D01*
X40621609D01*
X40621692Y7374835D01*
X40621942Y7375002D01*
X40622275Y7375168D01*
X40622775Y7375418D01*
X40623273Y7375585D01*
X40624524Y7376085D01*
X40626025Y7376668D01*
X40627774Y7377084D01*
X40629688Y7377418D01*
X40631772Y7377501D01*
X40632190D01*
X40632690Y7377418D01*
D02*
G37*
G36*
X40691174D02*
X40691922D01*
X40692841Y7377334D01*
X40693839Y7377251D01*
X40694922Y7377084D01*
X40697256Y7376751D01*
X40699670Y7376168D01*
X40702170Y7375418D01*
X40704419Y7374418D01*
X40704504D01*
X40704669Y7374252D01*
X40705002Y7374085D01*
X40705338Y7373835D01*
X40706335Y7373169D01*
X40707587Y7372169D01*
X40708920Y7370919D01*
X40710251Y7369336D01*
X40711502Y7367587D01*
X40712585Y7365504D01*
Y7365421D01*
X40712668Y7365254D01*
X40712836Y7364921D01*
X40712918Y7364421D01*
X40713168Y7363838D01*
X40713336Y7363088D01*
X40713586Y7362255D01*
X40713751Y7361255D01*
X40714001Y7360172D01*
X40714252Y7359006D01*
X40714417Y7357673D01*
X40714584Y7356256D01*
X40714752Y7354673D01*
X40714917Y7353007D01*
X40715002Y7351258D01*
Y7349425D01*
Y7312351D01*
X40706503D01*
Y7349341D01*
Y7349425D01*
Y7349675D01*
Y7350175D01*
Y7350674D01*
X40706421Y7351424D01*
Y7352174D01*
X40706335Y7353090D01*
Y7354007D01*
X40706171Y7356006D01*
X40705838Y7358089D01*
X40705502Y7360005D01*
X40705252Y7360838D01*
X40705002Y7361672D01*
Y7361755D01*
X40704919Y7361838D01*
X40704669Y7362338D01*
X40704337Y7363005D01*
X40703754Y7363921D01*
X40703003Y7364837D01*
X40702087Y7365920D01*
X40701004Y7366837D01*
X40699670Y7367753D01*
X40699588D01*
X40699506Y7367837D01*
X40699005Y7368087D01*
X40698172Y7368420D01*
X40697089Y7368753D01*
X40695755Y7369170D01*
X40694174Y7369503D01*
X40692422Y7369753D01*
X40690424Y7369836D01*
X40689508D01*
X40688925Y7369753D01*
X40688174Y7369670D01*
X40687259Y7369586D01*
X40686258Y7369503D01*
X40685257Y7369336D01*
X40683093Y7368836D01*
X40680844Y7368087D01*
X40679843Y7367587D01*
X40678842Y7367004D01*
X40677927Y7366420D01*
X40677094Y7365671D01*
X40677011Y7365587D01*
X40676926Y7365421D01*
X40676761Y7365171D01*
X40676428Y7364837D01*
X40676178Y7364338D01*
X40675845Y7363671D01*
X40675427Y7362921D01*
X40675095Y7362005D01*
X40674677Y7361005D01*
X40674344Y7359839D01*
X40674011Y7358506D01*
X40673679Y7357006D01*
X40673428Y7355340D01*
X40673260Y7353507D01*
X40673178Y7351508D01*
X40673096Y7349341D01*
Y7312351D01*
X40664597D01*
Y7349425D01*
Y7349508D01*
Y7349841D01*
Y7350341D01*
Y7351008D01*
X40664679Y7351841D01*
Y7352757D01*
X40664764Y7353840D01*
X40664847Y7354923D01*
X40665179Y7357423D01*
X40665515Y7360005D01*
X40666098Y7362505D01*
X40666431Y7363671D01*
X40666846Y7364754D01*
Y7364837D01*
X40666931Y7365004D01*
X40667096Y7365337D01*
X40667264Y7365671D01*
X40667514Y7366170D01*
X40667847Y7366754D01*
X40668680Y7368003D01*
X40669763Y7369503D01*
X40671094Y7371003D01*
X40672763Y7372585D01*
X40673761Y7373335D01*
X40674762Y7374002D01*
X40674844D01*
X40675012Y7374168D01*
X40675345Y7374335D01*
X40675760Y7374585D01*
X40676343Y7374835D01*
X40677011Y7375085D01*
X40677844Y7375418D01*
X40678760Y7375751D01*
X40679761Y7376085D01*
X40680927Y7376418D01*
X40682092Y7376668D01*
X40683426Y7376918D01*
X40684842Y7377168D01*
X40686343Y7377334D01*
X40688007Y7377418D01*
X40689673Y7377501D01*
X40690506D01*
X40691174Y7377418D01*
D02*
G37*
G36*
X2241174Y11138722D02*
X2241923Y11138639D01*
X2242840Y11138556D01*
X2243840Y11138389D01*
X2244839Y11138139D01*
X2247255Y11137556D01*
X2248505Y11137140D01*
X2249755Y11136640D01*
X2251004Y11136056D01*
X2252254Y11135390D01*
X2253504Y11134640D01*
X2254753Y11133724D01*
X2254837Y11133640D01*
X2255087Y11133474D01*
X2255503Y11133057D01*
X2255920Y11132557D01*
X2256586Y11131974D01*
X2257169Y11131224D01*
X2257919Y11130308D01*
X2258586Y11129308D01*
X2259336Y11128142D01*
X2260085Y11126892D01*
X2260669Y11125559D01*
X2261252Y11124060D01*
X2261752Y11122393D01*
X2262168Y11120644D01*
X2262418Y11118811D01*
X2262501Y11116895D01*
Y11116062D01*
X2262418Y11115478D01*
X2262335Y11114729D01*
X2262252Y11113812D01*
X2262085Y11112896D01*
X2261918Y11111813D01*
X2261335Y11109563D01*
X2260919Y11108397D01*
X2260419Y11107231D01*
X2259919Y11105981D01*
X2259252Y11104814D01*
X2258502Y11103731D01*
X2257669Y11102648D01*
X2257586Y11102565D01*
X2257419Y11102398D01*
X2257169Y11102148D01*
X2256753Y11101815D01*
X2256253Y11101315D01*
X2255670Y11100899D01*
X2255003Y11100316D01*
X2254170Y11099816D01*
X2253337Y11099233D01*
X2252337Y11098733D01*
X2251254Y11098150D01*
X2250088Y11097733D01*
X2248838Y11097233D01*
X2247589Y11096900D01*
X2246172Y11096567D01*
X2244673Y11096400D01*
X2244089Y11104648D01*
X2244173D01*
X2244339Y11104731D01*
X2244673D01*
X2245089Y11104814D01*
X2245589Y11104981D01*
X2246172Y11105148D01*
X2247422Y11105481D01*
X2248922Y11106064D01*
X2250421Y11106814D01*
X2251838Y11107730D01*
X2253087Y11108813D01*
X2253170Y11108980D01*
X2253504Y11109397D01*
X2254004Y11110146D01*
X2254503Y11111063D01*
X2255087Y11112229D01*
X2255503Y11113646D01*
X2255836Y11115145D01*
X2256003Y11116895D01*
Y11117478D01*
X2255920Y11117894D01*
X2255836Y11118311D01*
X2255753Y11118894D01*
X2255503Y11120227D01*
X2255003Y11121810D01*
X2254170Y11123393D01*
X2253754Y11124226D01*
X2253170Y11125059D01*
X2252504Y11125809D01*
X2251754Y11126559D01*
X2251671Y11126642D01*
X2251588Y11126726D01*
X2251338Y11126892D01*
X2251004Y11127142D01*
X2250588Y11127475D01*
X2250005Y11127809D01*
X2249421Y11128142D01*
X2248755Y11128558D01*
X2247089Y11129225D01*
X2245173Y11129891D01*
X2242923Y11130308D01*
X2241757Y11130475D01*
X2240424D01*
X2240340D01*
X2240091D01*
X2239757D01*
X2239341Y11130391D01*
X2238758D01*
X2238091Y11130308D01*
X2236591Y11129975D01*
X2234842Y11129558D01*
X2233092Y11128892D01*
X2231343Y11127975D01*
X2230510Y11127392D01*
X2229760Y11126726D01*
X2229677D01*
X2229593Y11126559D01*
X2229427Y11126309D01*
X2229177Y11126059D01*
X2228510Y11125226D01*
X2227760Y11124060D01*
X2227094Y11122643D01*
X2226427Y11120977D01*
X2226011Y11118978D01*
X2225844Y11117978D01*
Y11116145D01*
X2225927Y11115478D01*
X2226094Y11114479D01*
X2226261Y11113479D01*
X2226594Y11112313D01*
X2227094Y11111063D01*
X2227677Y11109896D01*
X2227760Y11109730D01*
X2228010Y11109397D01*
X2228344Y11108897D01*
X2228927Y11108230D01*
X2229510Y11107480D01*
X2230343Y11106647D01*
X2231176Y11105898D01*
X2232176Y11105231D01*
X2231093Y11097816D01*
X2198185Y11103981D01*
Y11135807D01*
X2205683D01*
Y11110230D01*
X2223012Y11106814D01*
X2222928Y11106897D01*
X2222845Y11107064D01*
X2222595Y11107397D01*
X2222345Y11107814D01*
X2222095Y11108314D01*
X2221679Y11108980D01*
X2221345Y11109647D01*
X2220929Y11110480D01*
X2220179Y11112313D01*
X2219596Y11114312D01*
X2219096Y11116561D01*
X2219013Y11117728D01*
X2218929Y11118894D01*
Y11119727D01*
X2219013Y11120311D01*
X2219096Y11120977D01*
X2219263Y11121810D01*
X2219429Y11122727D01*
X2219679Y11123810D01*
X2219929Y11124893D01*
X2220346Y11125976D01*
X2220845Y11127142D01*
X2221345Y11128392D01*
X2222095Y11129558D01*
X2222845Y11130724D01*
X2223761Y11131891D01*
X2224761Y11132974D01*
X2224844Y11133057D01*
X2225011Y11133224D01*
X2225344Y11133474D01*
X2225844Y11133890D01*
X2226427Y11134307D01*
X2227094Y11134807D01*
X2227927Y11135390D01*
X2228843Y11135890D01*
X2229843Y11136473D01*
X2231010Y11136973D01*
X2232176Y11137473D01*
X2233509Y11137889D01*
X2235008Y11138306D01*
X2236508Y11138556D01*
X2238091Y11138722D01*
X2239757Y11138806D01*
X2239841D01*
X2240174D01*
X2240590D01*
X2241174Y11138722D01*
D02*
G37*
G36*
X2236841Y11085319D02*
X2237758D01*
X2238841Y11085236D01*
X2239924Y11085153D01*
X2242423Y11084820D01*
X2245006Y11084486D01*
X2247505Y11083903D01*
X2248672Y11083570D01*
X2249755Y11083153D01*
X2249838D01*
X2250005Y11083070D01*
X2250338Y11082903D01*
X2250671Y11082737D01*
X2251171Y11082487D01*
X2251754Y11082154D01*
X2253004Y11081320D01*
X2254503Y11080237D01*
X2256003Y11078904D01*
X2257586Y11077238D01*
X2258336Y11076238D01*
X2259002Y11075239D01*
Y11075155D01*
X2259169Y11074989D01*
X2259336Y11074656D01*
X2259586Y11074239D01*
X2259835Y11073656D01*
X2260085Y11072989D01*
X2260419Y11072156D01*
X2260752Y11071240D01*
X2261085Y11070240D01*
X2261418Y11069074D01*
X2261668Y11067907D01*
X2261918Y11066574D01*
X2262168Y11065158D01*
X2262335Y11063658D01*
X2262418Y11061992D01*
X2262501Y11060326D01*
Y11059493D01*
X2262418Y11058826D01*
Y11058076D01*
X2262335Y11057160D01*
X2262252Y11056160D01*
X2262085Y11055077D01*
X2261752Y11052744D01*
X2261168Y11050328D01*
X2260419Y11047829D01*
X2259419Y11045580D01*
Y11045496D01*
X2259252Y11045330D01*
X2259086Y11044996D01*
X2258836Y11044663D01*
X2258169Y11043663D01*
X2257169Y11042414D01*
X2255920Y11041081D01*
X2254337Y11039748D01*
X2252587Y11038498D01*
X2250505Y11037415D01*
X2250421D01*
X2250255Y11037332D01*
X2249921Y11037165D01*
X2249421Y11037082D01*
X2248838Y11036832D01*
X2248088Y11036665D01*
X2247255Y11036415D01*
X2246256Y11036249D01*
X2245173Y11035999D01*
X2244006Y11035749D01*
X2242673Y11035582D01*
X2241257Y11035416D01*
X2239674Y11035249D01*
X2238008Y11035082D01*
X2236258Y11034999D01*
X2234425D01*
X2197351D01*
Y11043497D01*
X2234342D01*
X2234425D01*
X2234675D01*
X2235175D01*
X2235675D01*
X2236425Y11043580D01*
X2237175D01*
X2238091Y11043663D01*
X2239007D01*
X2241007Y11043830D01*
X2243090Y11044163D01*
X2245006Y11044497D01*
X2245839Y11044747D01*
X2246672Y11044996D01*
X2246755D01*
X2246839Y11045080D01*
X2247339Y11045330D01*
X2248005Y11045663D01*
X2248922Y11046246D01*
X2249838Y11046996D01*
X2250921Y11047912D01*
X2251838Y11048995D01*
X2252754Y11050328D01*
Y11050412D01*
X2252837Y11050495D01*
X2253087Y11050995D01*
X2253420Y11051828D01*
X2253754Y11052911D01*
X2254170Y11054244D01*
X2254503Y11055827D01*
X2254753Y11057577D01*
X2254837Y11059576D01*
Y11060492D01*
X2254753Y11061076D01*
X2254670Y11061825D01*
X2254587Y11062742D01*
X2254503Y11063742D01*
X2254337Y11064741D01*
X2253837Y11066908D01*
X2253087Y11069157D01*
X2252587Y11070157D01*
X2252004Y11071156D01*
X2251421Y11072073D01*
X2250671Y11072906D01*
X2250588Y11072989D01*
X2250421Y11073073D01*
X2250171Y11073239D01*
X2249838Y11073572D01*
X2249338Y11073822D01*
X2248672Y11074156D01*
X2247922Y11074572D01*
X2247005Y11074905D01*
X2246006Y11075322D01*
X2244839Y11075655D01*
X2243506Y11075989D01*
X2242007Y11076322D01*
X2240340Y11076572D01*
X2238508Y11076738D01*
X2236508Y11076822D01*
X2234342Y11076905D01*
X2197351D01*
Y11085403D01*
X2234425D01*
X2234509D01*
X2234842D01*
X2235342D01*
X2236008D01*
X2236841Y11085319D01*
D02*
G37*
%LPC*%
G36*
X40631940Y7371003D02*
X40631439D01*
X40631107Y7370919D01*
X40630188Y7370753D01*
X40629022Y7370503D01*
X40627606Y7370003D01*
X40626190Y7369336D01*
X40624774Y7368337D01*
X40624023Y7367670D01*
X40623358Y7367004D01*
X40623273Y7366920D01*
X40623190Y7366837D01*
X40623026Y7366587D01*
X40622775Y7366254D01*
X40622525Y7365837D01*
X40622192Y7365337D01*
X40621857Y7364754D01*
X40621524Y7364171D01*
X40620941Y7362588D01*
X40620358Y7360672D01*
X40619943Y7358506D01*
X40619775Y7357339D01*
Y7356090D01*
Y7356006D01*
Y7355756D01*
Y7355423D01*
X40619858Y7355007D01*
Y7354423D01*
X40619943Y7353757D01*
X40620193Y7352257D01*
X40620609Y7350591D01*
X40621274Y7348842D01*
X40622192Y7347175D01*
X40622690Y7346342D01*
X40623358Y7345592D01*
Y7345509D01*
X40623523Y7345426D01*
X40624023Y7345009D01*
X40624774Y7344343D01*
X40625775Y7343676D01*
X40627106Y7343010D01*
X40628607Y7342343D01*
X40630356Y7341927D01*
X40631271Y7341760D01*
X40632773D01*
X40633188Y7341843D01*
X40633606D01*
X40634189Y7341927D01*
X40635355Y7342260D01*
X40636771Y7342676D01*
X40638354Y7343343D01*
X40639853Y7344343D01*
X40640604Y7344926D01*
X40641269Y7345592D01*
Y7345676D01*
X40641437Y7345759D01*
X40641602Y7346009D01*
X40641852Y7346259D01*
X40642435Y7347092D01*
X40643103Y7348258D01*
X40643768Y7349758D01*
X40644351Y7351424D01*
X40644769Y7353424D01*
X40644852Y7354507D01*
X40644934Y7355673D01*
Y7355756D01*
Y7355840D01*
Y7356340D01*
X40644852Y7357173D01*
X40644687Y7358172D01*
X40644519Y7359339D01*
X40644269Y7360672D01*
X40643851Y7362088D01*
X40643268Y7363504D01*
X40643185Y7363671D01*
X40642935Y7364088D01*
X40642520Y7364754D01*
X40642020Y7365587D01*
X40641354Y7366504D01*
X40640521Y7367420D01*
X40639520Y7368253D01*
X40638437Y7369086D01*
X40638272Y7369170D01*
X40637936Y7369420D01*
X40637271Y7369670D01*
X40636438Y7370003D01*
X40635522Y7370419D01*
X40634354Y7370669D01*
X40633188Y7370919D01*
X40631940Y7371003D01*
D02*
G37*
%LPD*%
D71*
X40112500Y7055000D02*
X41317499D01*
X40112500D02*
Y7700000D01*
X41317499D01*
Y7055000D02*
Y7700000D01*
X1940000Y10432500D02*
X2585000D01*
Y11637500D01*
X1940000D02*
X2585000D01*
X1940000Y10432500D02*
Y11637500D01*
D72*
X40710001Y12950000D02*
Y13050000D01*
X40660001Y13000000D02*
X40760001D01*
X41760001Y11950000D02*
Y12370000D01*
X39660001Y14050000D02*
X41760001D01*
Y12370000D02*
Y14050000D01*
X39660001Y11950000D02*
X41760001D01*
X39660001D02*
Y14050000D01*
X40697501Y16950000D02*
Y17050000D01*
X40647501Y17000000D02*
X40747501D01*
X41747501Y15950000D02*
Y16370000D01*
X39647501Y18050000D02*
X41747501D01*
Y16370000D02*
Y18050000D01*
X39647501Y15950000D02*
X41747501D01*
X39647501D02*
Y18050000D01*
D73*
X32589999Y25620001D02*
Y26139999D01*
X31014999Y25620001D02*
X32589999D01*
X31014999Y26139999D02*
X32589999D01*
X31014999Y25713126D02*
Y26004376D01*
Y25620001D02*
Y25713126D01*
Y26004376D02*
Y26139999D01*
X30589999Y25620001D02*
Y26139999D01*
X29014999Y25620001D02*
X30589999D01*
X29014999Y26139999D02*
X30589999D01*
X29014999Y25713126D02*
Y26004376D01*
Y25620001D02*
Y25713126D01*
Y26004376D02*
Y26139999D01*
X28589999Y25620001D02*
Y26139999D01*
X27014999Y25620001D02*
X28589999D01*
X27014999Y26139999D02*
X28589999D01*
X27014999Y25713126D02*
Y26004376D01*
Y25620001D02*
Y25713126D01*
Y26004376D02*
Y26139999D01*
X26589999Y25620001D02*
Y26139999D01*
X25014999Y25620001D02*
X26589999D01*
X25014999Y26139999D02*
X26589999D01*
X25014999Y25713126D02*
Y26004376D01*
Y25620001D02*
Y25713126D01*
Y26004376D02*
Y26139999D01*
X24589999Y25620001D02*
Y26139999D01*
X23014999Y25620001D02*
X24589999D01*
X23014999Y26139999D02*
X24589999D01*
X23014999Y25713126D02*
Y26004376D01*
Y25620001D02*
Y25713126D01*
Y26004376D02*
Y26139999D01*
X22589999Y25620001D02*
Y26139999D01*
X21014999Y25620001D02*
X22589999D01*
X21014999Y26139999D02*
X22589999D01*
X21014999Y25713126D02*
Y26004376D01*
Y25620001D02*
Y25713126D01*
Y26004376D02*
Y26139999D01*
X20589999Y25620001D02*
Y26139999D01*
X19014999Y25620001D02*
X20589999D01*
X19014999Y26139999D02*
X20589999D01*
X19014999Y25713126D02*
Y26004376D01*
Y25620001D02*
Y25713126D01*
Y26004376D02*
Y26139999D01*
X18589999Y25620001D02*
Y26139999D01*
X17014999Y25620001D02*
X18589999D01*
X17014999Y26139999D02*
X18589999D01*
X17014999Y25713126D02*
Y26004376D01*
Y25620001D02*
Y25713126D01*
Y26004376D02*
Y26139999D01*
X13900000Y3505000D02*
X16557500D01*
X13900000Y2490000D02*
X16557500D01*
X13900000D02*
Y3505000D01*
X16557500Y2490000D02*
Y3505000D01*
X15205000Y3000000D02*
X15255000D01*
X15230000Y2975000D02*
Y3025000D01*
X11187500Y3505000D02*
X13845000D01*
X11187500Y2490000D02*
X13845000D01*
X11187500D02*
Y3505000D01*
X13845000Y2490000D02*
Y3505000D01*
X12492500Y3000000D02*
X12542500D01*
X12517500Y2975000D02*
Y3025000D01*
X8450000Y3505000D02*
X11107500D01*
X8450000Y2490000D02*
X11107500D01*
X8450000D02*
Y3505000D01*
X11107500Y2490000D02*
Y3505000D01*
X9755000Y3000000D02*
X9805000D01*
X9780000Y2975000D02*
Y3025000D01*
X2907500Y2495000D02*
X5565000D01*
X2907500Y3510000D02*
X5565000D01*
Y2495000D02*
Y3510000D01*
X2907500Y2495000D02*
Y3510000D01*
X4210000Y3000000D02*
X4260000D01*
X4235000Y2975000D02*
Y3025000D01*
X5642500Y2495000D02*
X8300000D01*
X5642500Y3510000D02*
X8300000D01*
Y2495000D02*
Y3510000D01*
X5642500Y2495000D02*
Y3510000D01*
X6945000Y3000000D02*
X6995000D01*
X6970000Y2975000D02*
Y3025000D01*
X192500Y2495000D02*
X2850000D01*
X192500Y3510000D02*
X2850000D01*
Y2495000D02*
Y3510000D01*
X192500Y2495000D02*
Y3510000D01*
X1495000Y3000000D02*
X1545000D01*
X1520000Y2975000D02*
Y3025000D01*
X16605000Y3860000D02*
Y3995625D01*
Y4286875D02*
Y4380000D01*
Y3995625D02*
Y4286875D01*
X15030000Y3860000D02*
X16605000D01*
X15030000Y4380000D02*
X16605000D01*
X15030000Y3860000D02*
Y4380000D01*
X12605000Y3860000D02*
Y3995625D01*
Y4286875D02*
Y4380000D01*
Y3995625D02*
Y4286875D01*
X11030000Y3860000D02*
X12605000D01*
X11030000Y4380000D02*
X12605000D01*
X11030000Y3860000D02*
Y4380000D01*
X5015000Y26004376D02*
Y26139999D01*
Y25620001D02*
Y25713126D01*
Y26004376D01*
Y26139999D02*
X6590000D01*
X5015000Y25620001D02*
X6590000D01*
Y26139999D01*
X13030000Y3860000D02*
Y4380000D01*
X14605000D01*
X13030000Y3860000D02*
X14605000D01*
Y3995625D02*
Y4286875D01*
Y4380000D01*
Y3860000D02*
Y3995625D01*
X9030000Y3860000D02*
Y4380000D01*
X10605000D01*
X9030000Y3860000D02*
X10605000D01*
Y3995625D02*
Y4286875D01*
Y4380000D01*
Y3860000D02*
Y3995625D01*
X5030000Y3860000D02*
Y4380000D01*
X6605000D01*
X5030000Y3860000D02*
X6605000D01*
Y3995625D02*
Y4286875D01*
Y4380000D01*
Y3860000D02*
Y3995625D01*
X7030000Y3860000D02*
Y4380000D01*
X8605000D01*
X7030000Y3860000D02*
X8605000D01*
Y3995625D02*
Y4286875D01*
Y4380000D01*
Y3860000D02*
Y3995625D01*
X3030000Y3860000D02*
Y4380000D01*
X4605000D01*
X3030000Y3860000D02*
X4605000D01*
Y3995625D02*
Y4286875D01*
Y4380000D01*
Y3860000D02*
Y3995625D01*
X1030000Y3860000D02*
Y4380000D01*
X2605000D01*
X1030000Y3860000D02*
X2605000D01*
Y3995625D02*
Y4286875D01*
Y4380000D01*
Y3860000D02*
Y3995625D01*
X18605000Y3860000D02*
Y3995625D01*
Y4286875D02*
Y4380000D01*
Y3995625D02*
Y4286875D01*
X17030000Y3860000D02*
X18605000D01*
X17030000Y4380000D02*
X18605000D01*
X17030000Y3860000D02*
Y4380000D01*
X20605000Y3860000D02*
Y3995625D01*
Y4286875D02*
Y4380000D01*
Y3995625D02*
Y4286875D01*
X19030000Y3860000D02*
X20605000D01*
X19030000Y4380000D02*
X20605000D01*
X19030000Y3860000D02*
Y4380000D01*
X22605000Y3860000D02*
Y3995625D01*
Y4286875D02*
Y4380000D01*
Y3995625D02*
Y4286875D01*
X21030000Y3860000D02*
X22605000D01*
X21030000Y4380000D02*
X22605000D01*
X21030000Y3860000D02*
Y4380000D01*
X23030000Y3860000D02*
Y4380000D01*
X24605000D01*
X23030000Y3860000D02*
X24605000D01*
Y3995625D02*
Y4286875D01*
Y4380000D01*
Y3860000D02*
Y3995625D01*
X26604999Y3860000D02*
Y3995625D01*
Y4286875D02*
Y4380000D01*
Y3995625D02*
Y4286875D01*
X25030000Y3860000D02*
X26604999D01*
X25030000Y4380000D02*
X26604999D01*
X25030000Y3860000D02*
Y4380000D01*
X28604999Y3860000D02*
Y3995625D01*
Y4286875D02*
Y4380000D01*
Y3995625D02*
Y4286875D01*
X27029999Y3860000D02*
X28604999D01*
X27029999Y4380000D02*
X28604999D01*
X27029999Y3860000D02*
Y4380000D01*
X30604999Y3860000D02*
Y3995625D01*
Y4286875D02*
Y4380000D01*
Y3995625D02*
Y4286875D01*
X29029999Y3860000D02*
X30604999D01*
X29029999Y4380000D02*
X30604999D01*
X29029999Y3860000D02*
Y4380000D01*
X32604999Y3860000D02*
Y3995625D01*
Y4286875D02*
Y4380000D01*
Y3995625D02*
Y4286875D01*
X31029999Y3860000D02*
X32604999D01*
X31029999Y4380000D02*
X32604999D01*
X31029999Y3860000D02*
Y4380000D01*
X14277499Y27504999D02*
X16935001D01*
X14277499Y26489999D02*
X16935001D01*
X14277499D02*
Y27504999D01*
X16935001Y26489999D02*
Y27504999D01*
X15582500Y27000000D02*
X15632500D01*
X15607500Y26975000D02*
Y27025000D01*
X11542500Y27504999D02*
X14200000D01*
X11542500Y26489999D02*
X14200000D01*
X11542500D02*
Y27504999D01*
X14200000Y26489999D02*
Y27504999D01*
X12847501Y27000000D02*
X12897501D01*
X12872501Y26975000D02*
Y27025000D01*
X16589999Y25620001D02*
Y26139999D01*
X15014999Y25620001D02*
X16589999D01*
X15014999Y26139999D02*
X16589999D01*
X15014999Y25713126D02*
Y26004376D01*
Y25620001D02*
Y25713126D01*
Y26004376D02*
Y26139999D01*
X10590000Y25620001D02*
Y26139999D01*
X9015000Y25620001D02*
X10590000D01*
X9015000Y26139999D02*
X10590000D01*
X9015000Y25713126D02*
Y26004376D01*
Y25620001D02*
Y25713126D01*
Y26004376D02*
Y26139999D01*
X8590000Y25620001D02*
Y26139999D01*
X7015000Y25620001D02*
X8590000D01*
X7015000Y26139999D02*
X8590000D01*
X7015000Y25713126D02*
Y26004376D01*
Y25620001D02*
Y25713126D01*
Y26004376D02*
Y26139999D01*
X14589999Y25620001D02*
Y26139999D01*
X13014999Y25620001D02*
X14589999D01*
X13014999Y26139999D02*
X14589999D01*
X13014999Y25713126D02*
Y26004376D01*
Y25620001D02*
Y25713126D01*
Y26004376D02*
Y26139999D01*
X4590000Y25620001D02*
Y26139999D01*
X3015000Y25620001D02*
X4590000D01*
X3015000Y26139999D02*
X4590000D01*
X3015000Y25713126D02*
Y26004376D01*
Y25620001D02*
Y25713126D01*
Y26004376D02*
Y26139999D01*
X2590000Y25620001D02*
Y26139999D01*
X1015000Y25620001D02*
X2590000D01*
X1015000Y26139999D02*
X2590000D01*
X1015000Y25713126D02*
Y26004376D01*
Y25620001D02*
Y25713126D01*
Y26004376D02*
Y26139999D01*
X17165048Y15135001D02*
X20665048Y15135001D01*
X20665048Y18645000D01*
X17165048D02*
X20665048D01*
X17165048Y15135001D02*
Y18645000D01*
X18915048Y16870312D02*
Y16920000D01*
X18890048Y16895000D02*
X18940048D01*
X6157548Y15135001D02*
X9657548Y15135001D01*
X9657548Y18645000D01*
X6157548D02*
X9657548D01*
X6157548Y15135001D02*
Y18645000D01*
X7907548Y16870312D02*
Y16920000D01*
X7882548Y16895000D02*
X7932548D01*
X13517548Y15135001D02*
X17017548Y15135001D01*
X17017548Y18645000D01*
X13517548D02*
X17017548D01*
X13517548Y15135001D02*
Y18645000D01*
X15267548Y16870312D02*
Y16920000D01*
X15242548Y16895000D02*
X15292548D01*
X9840048Y15135001D02*
X13340048Y15135001D01*
X13340048Y18645000D01*
X9840048D02*
X13340048D01*
X9840048Y15135001D02*
Y18645000D01*
X11590048Y16870312D02*
Y16920000D01*
X11565048Y16895000D02*
X11615048D01*
X9835000Y14850000D02*
X13335001Y14850000D01*
X9835000Y11340000D02*
X9835000Y14850000D01*
X9835000Y11340000D02*
X13335001D01*
Y14850000D01*
X11585000Y13064999D02*
Y13114687D01*
X11560000Y13089999D02*
X11610000D01*
X17160001Y14850000D02*
X20660001Y14850000D01*
X17160001Y11340000D02*
X17160001Y14850000D01*
X17160001Y11340000D02*
X20660001D01*
Y14850000D01*
X18910001Y13064999D02*
Y13114687D01*
X18885001Y13089999D02*
X18935001D01*
X6152500Y14850000D02*
X9652500Y14850000D01*
X6152500Y11340000D02*
X6152500Y14850000D01*
X6152500Y11340000D02*
X9652500D01*
Y14850000D01*
X7902500Y13064999D02*
Y13114687D01*
X7877500Y13089999D02*
X7927500D01*
X13512500Y14850000D02*
X17012500Y14850000D01*
X13512500Y11340000D02*
X13512500Y14850000D01*
X13512500Y11340000D02*
X17012500D01*
Y14850000D01*
X15262500Y13064999D02*
Y13114687D01*
X15237500Y13089999D02*
X15287500D01*
X31298059Y9433360D02*
X31348059D01*
X31323059Y9408674D02*
Y9458360D01*
X29573059Y7683360D02*
Y11183360D01*
X33073059Y7683361D02*
X33073062Y11183360D01*
X29573059Y7683360D02*
X33073059Y7683361D01*
X29573059Y11183360D02*
X33073062D01*
X34933060Y9428360D02*
X34983060D01*
X34958060Y9403674D02*
Y9453360D01*
X33208060Y7678360D02*
Y11178360D01*
X36708060Y7678361D02*
X36708060Y11178360D01*
X33208060Y7678360D02*
X36708060Y7678361D01*
X33208060Y11178360D02*
X36708060D01*
X34933060Y13128360D02*
X34983060D01*
X34958060Y13103360D02*
Y13153047D01*
X36708060Y11378360D02*
Y14878362D01*
X33208060Y11378360D02*
X33208060Y14878360D01*
X36708060Y14878362D01*
X33208060Y11378360D02*
X36708060D01*
X31298059Y13133360D02*
X31348059D01*
X31323059Y13108360D02*
Y13158047D01*
X33073059Y11383360D02*
Y14883360D01*
X29573059Y11383360D02*
X29573059Y14883360D01*
X33073059Y14883360D01*
X29573059Y11383360D02*
X33073059D01*
X31292499Y16864999D02*
X31342499D01*
X31317499Y16840314D02*
Y16889999D01*
X29567499Y15114999D02*
Y18614999D01*
X33067499Y15114999D02*
X33067499Y18614999D01*
X29567499Y15114999D02*
X33067499Y15114999D01*
X29567499Y18614999D02*
X33067499D01*
X34927499Y16860001D02*
X34977499D01*
X34952499Y16835313D02*
Y16885001D01*
X33202499Y15109999D02*
Y18610001D01*
X36702499Y15110001D02*
X36702499Y18610001D01*
X33202499Y15109999D02*
X36702499Y15110001D01*
X33202499Y18610001D02*
X36702499D01*
X34925000Y20545000D02*
X34975000D01*
X34950000Y20520000D02*
Y20569687D01*
X36700000Y18795000D02*
Y22295000D01*
X33200000Y18795000D02*
X33200000Y22295000D01*
X36700000Y22295000D01*
X33200000Y18795000D02*
X36700000D01*
X31289999Y20550000D02*
X31339999D01*
X31314999Y20525000D02*
Y20574687D01*
X33064999Y18800000D02*
Y22300000D01*
X29564999Y18800000D02*
X29564999Y22300000D01*
X33064999Y22300000D01*
X29564999Y18800000D02*
X33064999D01*
X3741931Y11365001D02*
X4136931D01*
X3741931Y11040001D02*
Y11365001D01*
Y11040001D02*
X4136931D01*
Y11365001D01*
X11015000Y26004376D02*
Y26139999D01*
Y25620001D02*
Y25713126D01*
Y26004376D01*
Y26139999D02*
X12590000D01*
X11015000Y25620001D02*
X12590000D01*
Y26139999D01*
X1660000Y26975000D02*
Y27025000D01*
X1635000Y27000000D02*
X1685000D01*
X2987500Y26489999D02*
Y27504999D01*
X330000Y26489999D02*
Y27504999D01*
Y26489999D02*
X2987500D01*
X330000Y27504999D02*
X2987500D01*
X4380000Y26975000D02*
Y27025000D01*
X4355000Y27000000D02*
X4405000D01*
X5707500Y26489999D02*
Y27504999D01*
X3050000Y26489999D02*
Y27504999D01*
Y26489999D02*
X5707500D01*
X3050000Y27504999D02*
X5707500D01*
X7095000Y26975000D02*
Y27025000D01*
X7070000Y27000000D02*
X7120000D01*
X8422500Y26489999D02*
Y27504999D01*
X5765000Y26489999D02*
Y27504999D01*
Y26489999D02*
X8422500D01*
X5765000Y27504999D02*
X8422500D01*
X10127500Y26975000D02*
Y27025000D01*
X10102500Y27000000D02*
X10152500D01*
X11455000Y26489999D02*
Y27504999D01*
X8797500Y26489999D02*
Y27504999D01*
Y26489999D02*
X11455000D01*
X8797500Y27504999D02*
X11455000D01*
X40640021Y13000000D02*
X40710001Y13046652D01*
X40640021D02*
X40710001Y13000000D01*
Y13069977D02*
Y13093303D01*
Y13081641D01*
X40640021D01*
X40651685Y13069977D01*
X40627524Y17000000D02*
X40697501Y17046652D01*
X40627524D02*
X40697501Y17000000D01*
Y17116629D02*
Y17069978D01*
X40650848Y17116629D01*
X40639185D01*
X40627524Y17104967D01*
Y17081641D01*
X40639185Y17069978D01*
X31800000Y25830023D02*
Y25876675D01*
X31776675Y25900000D01*
X31753348Y25876675D01*
Y25830023D01*
X31730023D02*
X31683371D01*
X31706696D01*
Y25900000D01*
X31660046Y25841684D02*
X31648383Y25830023D01*
X31625055D01*
X31613394Y25841684D01*
Y25853348D01*
X31625055Y25865012D01*
X31636719D01*
X31625055D01*
X31613394Y25876675D01*
Y25888336D01*
X31625055Y25900000D01*
X31648383D01*
X31660046Y25888336D01*
X31590067D02*
X31578403Y25900000D01*
X31555078D01*
X31543417Y25888336D01*
Y25841684D01*
X31555078Y25830023D01*
X31578403D01*
X31590067Y25841684D01*
Y25853348D01*
X31578403Y25865012D01*
X31543417D01*
X29800000Y25830023D02*
Y25876675D01*
X29776675Y25900000D01*
X29753348Y25876675D01*
Y25830023D01*
X29730023D02*
X29683371D01*
X29706696D01*
Y25900000D01*
X29660046Y25841684D02*
X29648383Y25830023D01*
X29625055D01*
X29613394Y25841684D01*
Y25853348D01*
X29625055Y25865012D01*
X29636719D01*
X29625055D01*
X29613394Y25876675D01*
Y25888336D01*
X29625055Y25900000D01*
X29648383D01*
X29660046Y25888336D01*
X29590067Y25841684D02*
X29578406Y25830023D01*
X29555078D01*
X29543417Y25841684D01*
Y25853348D01*
X29555078Y25865012D01*
X29543417Y25876675D01*
Y25888336D01*
X29555078Y25900000D01*
X29578406D01*
X29590067Y25888336D01*
Y25876675D01*
X29578406Y25865012D01*
X29590067Y25853348D01*
Y25841684D01*
X29578406Y25865012D02*
X29555078D01*
X27800000Y25830023D02*
Y25876675D01*
X27776675Y25900000D01*
X27753348Y25876675D01*
Y25830023D01*
X27730023D02*
X27683371D01*
X27706696D01*
Y25900000D01*
X27625055D02*
Y25830023D01*
X27660046Y25865012D01*
X27613394D01*
X27590067Y25900000D02*
X27566742D01*
X27578406D01*
Y25830023D01*
X27590067Y25841684D01*
X25800000Y25830023D02*
Y25876675D01*
X25776675Y25900000D01*
X25753348Y25876675D01*
Y25830023D01*
X25730023D02*
X25683371D01*
X25706696D01*
Y25900000D01*
X25625055D02*
Y25830023D01*
X25660046Y25865012D01*
X25613394D01*
X25590067Y25841684D02*
X25578406Y25830023D01*
X25555080D01*
X25543416Y25841684D01*
Y25888336D01*
X25555080Y25900000D01*
X25578406D01*
X25590067Y25888336D01*
Y25841684D01*
X23800000Y25830023D02*
Y25876675D01*
X23776674Y25900000D01*
X23753348Y25876675D01*
Y25830023D01*
X23730022D02*
X23683371D01*
X23706697D01*
Y25900000D01*
X23625056D02*
Y25830023D01*
X23660045Y25865012D01*
X23613393D01*
X23590067Y25830023D02*
X23543416D01*
Y25841684D01*
X23590067Y25888336D01*
Y25900000D01*
X21800000Y25830023D02*
Y25876675D01*
X21776674Y25900000D01*
X21753348Y25876675D01*
Y25830023D01*
X21730023D02*
X21683371D01*
X21706697D01*
Y25900000D01*
X21613393Y25830023D02*
X21660045D01*
Y25865012D01*
X21636719Y25853348D01*
X21625056D01*
X21613393Y25865012D01*
Y25888336D01*
X21625056Y25900000D01*
X21648383D01*
X21660045Y25888336D01*
X21543416Y25900000D02*
X21590068D01*
X21543416Y25853348D01*
Y25841684D01*
X21555080Y25830023D01*
X21578406D01*
X21590068Y25841684D01*
X19800000Y25830023D02*
Y25876675D01*
X19776674Y25900000D01*
X19753348Y25876675D01*
Y25830023D01*
X19730023D02*
X19683371D01*
X19706697D01*
Y25900000D01*
X19613393Y25830023D02*
X19660045D01*
Y25865012D01*
X19636719Y25853348D01*
X19625056D01*
X19613393Y25865012D01*
Y25888336D01*
X19625056Y25900000D01*
X19648383D01*
X19660045Y25888336D01*
X19590068Y25900000D02*
X19566742D01*
X19578406D01*
Y25830023D01*
X19590068Y25841684D01*
X17800000Y25830023D02*
Y25876675D01*
X17776674Y25900000D01*
X17753348Y25876675D01*
Y25830023D01*
X17730022D02*
X17683371D01*
X17706697D01*
Y25900000D01*
X17613393Y25830023D02*
X17660045D01*
Y25865012D01*
X17636719Y25853348D01*
X17625056D01*
X17613393Y25865012D01*
Y25888336D01*
X17625056Y25900000D01*
X17648383D01*
X17660045Y25888336D01*
X17590067Y25841684D02*
X17578406Y25830023D01*
X17555080D01*
X17543416Y25841684D01*
Y25888336D01*
X17555080Y25900000D01*
X17578406D01*
X17590067Y25888336D01*
Y25841684D01*
X15183348Y2941686D02*
X15195010Y2930023D01*
X15218336D01*
X15230000Y2941686D01*
Y2988337D01*
X15218336Y3000000D01*
X15195010D01*
X15183348Y2988337D01*
X15160023Y3000000D02*
X15136697D01*
X15148360D01*
Y2930023D01*
X15160023Y2941686D01*
X15101707Y3000000D02*
X15078381D01*
X15090045D01*
Y2930023D01*
X15101707Y2941686D01*
X12470848D02*
X12482511Y2930023D01*
X12505837D01*
X12517500Y2941686D01*
Y2988337D01*
X12505837Y3000000D01*
X12482511D01*
X12470848Y2988337D01*
X12447522D02*
X12435860Y3000000D01*
X12412534D01*
X12400871Y2988337D01*
Y2941686D01*
X12412534Y2930023D01*
X12435860D01*
X12447522Y2941686D01*
Y2953348D01*
X12435860Y2965011D01*
X12400871D01*
X9733348Y2941686D02*
X9745011Y2930023D01*
X9768337D01*
X9780000Y2941686D01*
Y2988337D01*
X9768337Y3000000D01*
X9745011D01*
X9733348Y2988337D01*
X9710022Y3000000D02*
X9686697D01*
X9698360D01*
Y2930023D01*
X9710022Y2941686D01*
X9616719Y3000000D02*
Y2930023D01*
X9651708Y2965011D01*
X9605056D01*
X4281652Y3058315D02*
X4269989Y3069978D01*
X4246663D01*
X4235000Y3058315D01*
Y3011663D01*
X4246663Y3000000D01*
X4269989D01*
X4281652Y3011663D01*
X4339966Y3000000D02*
Y3069978D01*
X4304977Y3034989D01*
X4351629D01*
X4421607Y3000000D02*
X4374955D01*
X4421607Y3046652D01*
Y3058315D01*
X4409944Y3069978D01*
X4386618D01*
X4374955Y3058315D01*
X7016652D02*
X7004989Y3069978D01*
X6981663D01*
X6970000Y3058315D01*
Y3011663D01*
X6981663Y3000000D01*
X7004989D01*
X7016652Y3011663D01*
X7039978Y3058315D02*
X7051640Y3069978D01*
X7074966D01*
X7086629Y3058315D01*
Y3046652D01*
X7074966Y3034989D01*
X7063303D01*
X7074966D01*
X7086629Y3023326D01*
Y3011663D01*
X7074966Y3000000D01*
X7051640D01*
X7039978Y3011663D01*
X7109955D02*
X7121618Y3000000D01*
X7144944D01*
X7156607Y3011663D01*
Y3058315D01*
X7144944Y3069978D01*
X7121618D01*
X7109955Y3058315D01*
Y3046652D01*
X7121618Y3034989D01*
X7156607D01*
X1566651Y3058315D02*
X1554989Y3069978D01*
X1531663D01*
X1520000Y3058315D01*
Y3011663D01*
X1531663Y3000000D01*
X1554989D01*
X1566651Y3011663D01*
X1589977Y3058315D02*
X1601640Y3069978D01*
X1624966D01*
X1636629Y3058315D01*
Y3046652D01*
X1624966Y3034989D01*
X1613303D01*
X1624966D01*
X1636629Y3023326D01*
Y3011663D01*
X1624966Y3000000D01*
X1601640D01*
X1589977Y3011663D01*
X1706606Y3069978D02*
X1683281Y3058315D01*
X1659955Y3034989D01*
Y3011663D01*
X1671618Y3000000D01*
X1694944D01*
X1706606Y3011663D01*
Y3023326D01*
X1694944Y3034989D01*
X1659955D01*
X15820000Y4169977D02*
Y4123326D01*
X15843326Y4100000D01*
X15866652Y4123326D01*
Y4169977D01*
X15889978D02*
X15936629D01*
X15913303D01*
Y4100000D01*
X15959955Y4158315D02*
X15971619Y4169977D01*
X15994943D01*
X16006607Y4158315D01*
Y4146652D01*
X15994943Y4134989D01*
X15983281D01*
X15994943D01*
X16006607Y4123326D01*
Y4111663D01*
X15994943Y4100000D01*
X15971619D01*
X15959955Y4111663D01*
X16076584Y4100000D02*
X16029933D01*
X16076584Y4146652D01*
Y4158315D01*
X16064922Y4169977D01*
X16041595D01*
X16029933Y4158315D01*
X11820000Y4169977D02*
Y4123326D01*
X11843326Y4100000D01*
X11866652Y4123326D01*
Y4169977D01*
X11889977D02*
X11936629D01*
X11913303D01*
Y4100000D01*
X11959955Y4158315D02*
X11971618Y4169977D01*
X11994944D01*
X12006607Y4158315D01*
Y4146652D01*
X11994944Y4134989D01*
X11983281D01*
X11994944D01*
X12006607Y4123326D01*
Y4111663D01*
X11994944Y4100000D01*
X11971618D01*
X11959955Y4111663D01*
X12029933Y4158315D02*
X12041595Y4169977D01*
X12064921D01*
X12076584Y4158315D01*
Y4111663D01*
X12064921Y4100000D01*
X12041595D01*
X12029933Y4111663D01*
Y4158315D01*
X5800000Y25830023D02*
Y25876675D01*
X5776674Y25900000D01*
X5753348Y25876675D01*
Y25830023D01*
X5730023D02*
X5683371D01*
X5706697D01*
Y25900000D01*
X5625056D02*
Y25830023D01*
X5660045Y25865012D01*
X5613393D01*
X5555079Y25900000D02*
Y25830023D01*
X5590068Y25865012D01*
X5543416D01*
X13820000Y4169977D02*
Y4123326D01*
X13843326Y4100000D01*
X13866652Y4123326D01*
Y4169977D01*
X13889978D02*
X13936629D01*
X13913303D01*
Y4100000D01*
X14006607D02*
X13959955D01*
X14006607Y4146652D01*
Y4158315D01*
X13994943Y4169977D01*
X13971619D01*
X13959955Y4158315D01*
X14029933D02*
X14041595Y4169977D01*
X14064922D01*
X14076584Y4158315D01*
Y4146652D01*
X14064922Y4134989D01*
X14076584Y4123326D01*
Y4111663D01*
X14064922Y4100000D01*
X14041595D01*
X14029933Y4111663D01*
Y4123326D01*
X14041595Y4134989D01*
X14029933Y4146652D01*
Y4158315D01*
X14041595Y4134989D02*
X14064922D01*
X9820000Y4169977D02*
Y4123326D01*
X9843326Y4100000D01*
X9866652Y4123326D01*
Y4169977D01*
X9889977D02*
X9936629D01*
X9913303D01*
Y4100000D01*
X10006607D02*
X9959955D01*
X10006607Y4146652D01*
Y4158315D01*
X9994944Y4169977D01*
X9971618D01*
X9959955Y4158315D01*
X10029932Y4169977D02*
X10076584D01*
Y4158315D01*
X10029932Y4111663D01*
Y4100000D01*
X5820000Y4169977D02*
Y4123326D01*
X5843326Y4100000D01*
X5866652Y4123326D01*
Y4169977D01*
X5889978D02*
X5936629D01*
X5913303D01*
Y4100000D01*
X6006607D02*
X5959955D01*
X6006607Y4146652D01*
Y4158315D01*
X5994944Y4169977D01*
X5971618D01*
X5959955Y4158315D01*
X6076584Y4169977D02*
X6053258Y4158315D01*
X6029933Y4134989D01*
Y4111663D01*
X6041595Y4100000D01*
X6064921D01*
X6076584Y4111663D01*
Y4123326D01*
X6064921Y4134989D01*
X6029933D01*
X7820000Y4169977D02*
Y4123326D01*
X7843326Y4100000D01*
X7866652Y4123326D01*
Y4169977D01*
X7889978D02*
X7936629D01*
X7913303D01*
Y4100000D01*
X7959955Y4158315D02*
X7971618Y4169977D01*
X7994944D01*
X8006607Y4158315D01*
Y4146652D01*
X7994944Y4134989D01*
X8006607Y4123326D01*
Y4111663D01*
X7994944Y4100000D01*
X7971618D01*
X7959955Y4111663D01*
Y4123326D01*
X7971618Y4134989D01*
X7959955Y4146652D01*
Y4158315D01*
X7971618Y4134989D02*
X7994944D01*
X3820000Y4169977D02*
Y4123326D01*
X3843326Y4100000D01*
X3866652Y4123326D01*
Y4169977D01*
X3889977D02*
X3936629D01*
X3913303D01*
Y4100000D01*
X4006607D02*
X3959955D01*
X4006607Y4146652D01*
Y4158315D01*
X3994944Y4169977D01*
X3971618D01*
X3959955Y4158315D01*
X4076584Y4100000D02*
X4029933D01*
X4076584Y4146652D01*
Y4158315D01*
X4064921Y4169977D01*
X4041595D01*
X4029933Y4158315D01*
X1820000Y4169977D02*
Y4123326D01*
X1843326Y4100000D01*
X1866652Y4123326D01*
Y4169977D01*
X1889977D02*
X1936629D01*
X1913303D01*
Y4100000D01*
X2006607Y4169977D02*
X1983281Y4158315D01*
X1959955Y4134989D01*
Y4111663D01*
X1971618Y4100000D01*
X1994944D01*
X2006607Y4111663D01*
Y4123326D01*
X1994944Y4134989D01*
X1959955D01*
X17820000Y4169977D02*
Y4123326D01*
X17843326Y4100000D01*
X17866652Y4123326D01*
Y4169977D01*
X17889977D02*
X17936629D01*
X17913303D01*
Y4100000D01*
X18006607D02*
X17959955D01*
X18006607Y4146652D01*
Y4158315D01*
X17994943Y4169977D01*
X17971619D01*
X17959955Y4158315D01*
X18029932D02*
X18041595Y4169977D01*
X18064922D01*
X18076584Y4158315D01*
Y4146652D01*
X18064922Y4134989D01*
X18053258D01*
X18064922D01*
X18076584Y4123326D01*
Y4111663D01*
X18064922Y4100000D01*
X18041595D01*
X18029932Y4111663D01*
X19820000Y4169977D02*
Y4123326D01*
X19843326Y4100000D01*
X19866652Y4123326D01*
Y4169977D01*
X19889977D02*
X19936629D01*
X19913303D01*
Y4100000D01*
X20006607D02*
X19959955D01*
X20006607Y4146652D01*
Y4158315D01*
X19994943Y4169977D01*
X19971619D01*
X19959955Y4158315D01*
X20064922Y4100000D02*
Y4169977D01*
X20029933Y4134989D01*
X20076584D01*
X21820000Y4169977D02*
Y4123326D01*
X21843326Y4100000D01*
X21866652Y4123326D01*
Y4169977D01*
X21889978D02*
X21936629D01*
X21913303D01*
Y4100000D01*
X22006607D02*
X21959955D01*
X22006607Y4146652D01*
Y4158315D01*
X21994943Y4169977D01*
X21971619D01*
X21959955Y4158315D01*
X22076584Y4169977D02*
X22029933D01*
Y4134989D01*
X22053258Y4146652D01*
X22064922D01*
X22076584Y4134989D01*
Y4111663D01*
X22064922Y4100000D01*
X22041595D01*
X22029933Y4111663D01*
X23820000Y4169977D02*
Y4123326D01*
X23843326Y4100000D01*
X23866652Y4123326D01*
Y4169977D01*
X23889978D02*
X23936629D01*
X23913303D01*
Y4100000D01*
X24006607D02*
X23959955D01*
X24006607Y4146652D01*
Y4158315D01*
X23994943Y4169977D01*
X23971619D01*
X23959955Y4158315D01*
X24029933D02*
X24041595Y4169977D01*
X24064922D01*
X24076584Y4158315D01*
Y4111663D01*
X24064922Y4100000D01*
X24041595D01*
X24029933Y4111663D01*
Y4158315D01*
X25820001Y4169977D02*
Y4123326D01*
X25843326Y4100000D01*
X25866653Y4123326D01*
Y4169977D01*
X25889978D02*
X25936630D01*
X25913303D01*
Y4100000D01*
X25959955D02*
X25983282D01*
X25971619D01*
Y4169977D01*
X25959955Y4158315D01*
X26053259Y4100000D02*
Y4169977D01*
X26018271Y4134989D01*
X26064920D01*
X27820001Y4169977D02*
Y4123326D01*
X27843326Y4100000D01*
X27866653Y4123326D01*
Y4169977D01*
X27889978D02*
X27936630D01*
X27913303D01*
Y4100000D01*
X27959955D02*
X27983282D01*
X27971619D01*
Y4169977D01*
X27959955Y4158315D01*
X28064920Y4169977D02*
X28018271D01*
Y4134989D01*
X28041595Y4146652D01*
X28053259D01*
X28064920Y4134989D01*
Y4111663D01*
X28053259Y4100000D01*
X28029932D01*
X28018271Y4111663D01*
X29820001Y4169977D02*
Y4123326D01*
X29843326Y4100000D01*
X29866653Y4123326D01*
Y4169977D01*
X29889978D02*
X29936630D01*
X29913303D01*
Y4100000D01*
X29959955D02*
X29983282D01*
X29971619D01*
Y4169977D01*
X29959955Y4158315D01*
X30018271Y4100000D02*
X30041595D01*
X30029932D01*
Y4169977D01*
X30018271Y4158315D01*
X31820001Y4169977D02*
Y4123326D01*
X31843326Y4100000D01*
X31866653Y4123326D01*
Y4169977D01*
X31889978D02*
X31936630D01*
X31913303D01*
Y4100000D01*
X31959955D02*
X31983282D01*
X31971619D01*
Y4169977D01*
X31959955Y4158315D01*
X32064920Y4100000D02*
X32018271D01*
X32064920Y4146652D01*
Y4158315D01*
X32053259Y4169977D01*
X32029932D01*
X32018271Y4158315D01*
X15560847Y26941687D02*
X15572511Y26930023D01*
X15595837D01*
X15607500Y26941687D01*
Y26988336D01*
X15595837Y27000000D01*
X15572511D01*
X15560847Y26988336D01*
X15502534Y27000000D02*
Y26930023D01*
X15537521Y26965012D01*
X15490871D01*
X15467545Y26988336D02*
X15455882Y27000000D01*
X15432556D01*
X15420892Y26988336D01*
Y26941687D01*
X15432556Y26930023D01*
X15455882D01*
X15467545Y26941687D01*
Y26953348D01*
X15455882Y26965012D01*
X15420892D01*
X12825848Y26941687D02*
X12837511Y26930023D01*
X12860837D01*
X12872501Y26941687D01*
Y26988336D01*
X12860837Y27000000D01*
X12837511D01*
X12825848Y26988336D01*
X12767534Y27000000D02*
Y26930023D01*
X12802522Y26965012D01*
X12755871D01*
X12732545Y26941687D02*
X12720882Y26930023D01*
X12697556D01*
X12685893Y26941687D01*
Y26953348D01*
X12697556Y26965012D01*
X12685893Y26976675D01*
Y26988336D01*
X12697556Y27000000D01*
X12720882D01*
X12732545Y26988336D01*
Y26976675D01*
X12720882Y26965012D01*
X12732545Y26953348D01*
Y26941687D01*
X12720882Y26965012D02*
X12697556D01*
X15800000Y25830023D02*
Y25876675D01*
X15776674Y25900000D01*
X15753348Y25876675D01*
Y25830023D01*
X15730022D02*
X15683371D01*
X15706697D01*
Y25900000D01*
X15613393Y25830023D02*
X15660045D01*
Y25865012D01*
X15636719Y25853348D01*
X15625056D01*
X15613393Y25865012D01*
Y25888336D01*
X15625056Y25900000D01*
X15648383D01*
X15660045Y25888336D01*
X15590067D02*
X15578404Y25900000D01*
X15555080D01*
X15543416Y25888336D01*
Y25841684D01*
X15555080Y25830023D01*
X15578404D01*
X15590067Y25841684D01*
Y25853348D01*
X15578404Y25865012D01*
X15543416D01*
X9800000Y25830023D02*
Y25876675D01*
X9776674Y25900000D01*
X9753348Y25876675D01*
Y25830023D01*
X9730022D02*
X9683371D01*
X9706697D01*
Y25900000D01*
X9613393Y25830023D02*
X9660045D01*
Y25865012D01*
X9636719Y25853348D01*
X9625056D01*
X9613393Y25865012D01*
Y25888336D01*
X9625056Y25900000D01*
X9648382D01*
X9660045Y25888336D01*
X9590067Y25830023D02*
X9543416D01*
Y25841684D01*
X9590067Y25888336D01*
Y25900000D01*
X7800000Y25830023D02*
Y25876675D01*
X7776674Y25900000D01*
X7753348Y25876675D01*
Y25830023D01*
X7730022D02*
X7683371D01*
X7706697D01*
Y25900000D01*
X7660045Y25841684D02*
X7648382Y25830023D01*
X7625056D01*
X7613393Y25841684D01*
Y25853348D01*
X7625056Y25865012D01*
X7636719D01*
X7625056D01*
X7613393Y25876675D01*
Y25888336D01*
X7625056Y25900000D01*
X7648382D01*
X7660045Y25888336D01*
X7590067Y25830023D02*
X7543416D01*
Y25841684D01*
X7590067Y25888336D01*
Y25900000D01*
X13800000Y25830023D02*
Y25876675D01*
X13776674Y25900000D01*
X13753348Y25876675D01*
Y25830023D01*
X13730023D02*
X13683371D01*
X13706697D01*
Y25900000D01*
X13613393Y25830023D02*
X13636719Y25841684D01*
X13660045Y25865012D01*
Y25888336D01*
X13648383Y25900000D01*
X13625056D01*
X13613393Y25888336D01*
Y25876675D01*
X13625056Y25865012D01*
X13660045D01*
X13590068Y25841684D02*
X13578406Y25830023D01*
X13555080D01*
X13543416Y25841684D01*
Y25888336D01*
X13555080Y25900000D01*
X13578406D01*
X13590068Y25888336D01*
Y25841684D01*
X3800000Y25830023D02*
Y25876675D01*
X3776674Y25900000D01*
X3753348Y25876675D01*
Y25830023D01*
X3730023D02*
X3683371D01*
X3706697D01*
Y25900000D01*
X3660045Y25841684D02*
X3648382Y25830023D01*
X3625056D01*
X3613393Y25841684D01*
Y25853348D01*
X3625056Y25865012D01*
X3636719D01*
X3625056D01*
X3613393Y25876675D01*
Y25888336D01*
X3625056Y25900000D01*
X3648382D01*
X3660045Y25888336D01*
X3590067Y25841684D02*
X3578405Y25830023D01*
X3555079D01*
X3543416Y25841684D01*
Y25853348D01*
X3555079Y25865012D01*
X3566742D01*
X3555079D01*
X3543416Y25876675D01*
Y25888336D01*
X3555079Y25900000D01*
X3578405D01*
X3590067Y25888336D01*
X1800000Y25830023D02*
Y25876675D01*
X1776674Y25900000D01*
X1753348Y25876675D01*
Y25830023D01*
X1730022D02*
X1683371D01*
X1706697D01*
Y25900000D01*
X1613393D02*
X1660045D01*
X1613393Y25853348D01*
Y25841684D01*
X1625056Y25830023D01*
X1648382D01*
X1660045Y25841684D01*
X1590067Y25888336D02*
X1578405Y25900000D01*
X1555079D01*
X1543416Y25888336D01*
Y25841684D01*
X1555079Y25830023D01*
X1578405D01*
X1590067Y25841684D01*
Y25853348D01*
X1578405Y25865012D01*
X1543416D01*
X18973363Y16848347D02*
X18985027Y16860011D01*
Y16883337D01*
X18973363Y16895000D01*
X18926711D01*
X18915048Y16883337D01*
Y16860011D01*
X18926711Y16848347D01*
X18915048Y16825021D02*
Y16801697D01*
Y16813361D01*
X18985027D01*
X18973363Y16825021D01*
Y16766708D02*
X18985027Y16755045D01*
Y16731718D01*
X18973363Y16720056D01*
X18961700D01*
X18950037Y16731718D01*
X18938374Y16720056D01*
X18926711D01*
X18915048Y16731718D01*
Y16755045D01*
X18926711Y16766708D01*
X18938374D01*
X18950037Y16755045D01*
X18961700Y16766708D01*
X18973363D01*
X18950037Y16755045D02*
Y16731718D01*
X7965862Y16848347D02*
X7977525Y16860011D01*
Y16883337D01*
X7965862Y16895000D01*
X7919211D01*
X7907548Y16883337D01*
Y16860011D01*
X7919211Y16848347D01*
X7907548Y16825021D02*
Y16801697D01*
Y16813361D01*
X7977525D01*
X7965862Y16825021D01*
X7919211Y16766708D02*
X7907548Y16755045D01*
Y16731718D01*
X7919211Y16720056D01*
X7965862D01*
X7977525Y16731718D01*
Y16755045D01*
X7965862Y16766708D01*
X7954199D01*
X7942537Y16755045D01*
Y16720056D01*
X15325862Y16848347D02*
X15337524Y16860011D01*
Y16883337D01*
X15325862Y16895000D01*
X15279211D01*
X15267548Y16883337D01*
Y16860011D01*
X15279211Y16848347D01*
X15267548Y16825021D02*
Y16801697D01*
Y16813361D01*
X15337524D01*
X15325862Y16825021D01*
X15337524Y16766708D02*
Y16720056D01*
X15325862D01*
X15279211Y16766708D01*
X15267548D01*
X11648362Y16848347D02*
X11660025Y16860011D01*
Y16883337D01*
X11648362Y16895000D01*
X11601711D01*
X11590048Y16883337D01*
Y16860011D01*
X11601711Y16848347D01*
X11590048Y16778371D02*
Y16825021D01*
X11636699Y16778371D01*
X11648362D01*
X11660025Y16790034D01*
Y16813361D01*
X11648362Y16825021D01*
Y16755045D02*
X11660025Y16743382D01*
Y16720056D01*
X11648362Y16708392D01*
X11601711D01*
X11590048Y16720056D01*
Y16743382D01*
X11601711Y16755045D01*
X11648362D01*
X11526686Y13136652D02*
X11515023Y13124989D01*
Y13101663D01*
X11526686Y13089999D01*
X11573337D01*
X11585000Y13101663D01*
Y13124989D01*
X11573337Y13136652D01*
X11585000Y13206628D02*
Y13159978D01*
X11538349Y13206628D01*
X11526686D01*
X11515023Y13194966D01*
Y13171640D01*
X11526686Y13159978D01*
X18851686Y13136652D02*
X18840022Y13124989D01*
Y13101663D01*
X18851686Y13089999D01*
X18898337D01*
X18910001Y13101663D01*
Y13124989D01*
X18898337Y13136652D01*
X18910001Y13194966D02*
X18840022D01*
X18875012Y13159978D01*
Y13206628D01*
X7844185Y13136652D02*
X7832523Y13124989D01*
Y13101663D01*
X7844185Y13089999D01*
X7890837D01*
X7902500Y13101663D01*
Y13124989D01*
X7890837Y13136652D01*
X7902500Y13159978D02*
Y13183302D01*
Y13171640D01*
X7832523D01*
X7844185Y13159978D01*
X15204185Y13136652D02*
X15192523Y13124989D01*
Y13101663D01*
X15204185Y13089999D01*
X15250838D01*
X15262500Y13101663D01*
Y13124989D01*
X15250838Y13136652D01*
X15204185Y13159978D02*
X15192523Y13171640D01*
Y13194966D01*
X15204185Y13206628D01*
X15215848D01*
X15227512Y13194966D01*
Y13183302D01*
Y13194966D01*
X15239174Y13206628D01*
X15250838D01*
X15262500Y13194966D01*
Y13171640D01*
X15250838Y13159978D01*
X31381375Y9386709D02*
X31393039Y9398372D01*
Y9421697D01*
X31381375Y9433360D01*
X31334723D01*
X31323059Y9421697D01*
Y9398372D01*
X31334723Y9386709D01*
X31323059Y9316731D02*
Y9363383D01*
X31369711Y9316731D01*
X31381375D01*
X31393039Y9328394D01*
Y9351720D01*
X31381375Y9363383D01*
X31323059Y9258417D02*
X31393039D01*
X31358047Y9293405D01*
Y9246754D01*
X35016376Y9381709D02*
X35028036Y9393372D01*
Y9416697D01*
X35016376Y9428360D01*
X34969724D01*
X34958060Y9416697D01*
Y9393372D01*
X34969724Y9381709D01*
X34958060Y9311731D02*
Y9358383D01*
X35004712Y9311731D01*
X35016376D01*
X35028036Y9323394D01*
Y9346720D01*
X35016376Y9358383D01*
Y9288405D02*
X35028036Y9276742D01*
Y9253417D01*
X35016376Y9241754D01*
X35004712D01*
X34993048Y9253417D01*
Y9265080D01*
Y9253417D01*
X34981387Y9241754D01*
X34969724D01*
X34958060Y9253417D01*
Y9276742D01*
X34969724Y9288405D01*
X34899747Y13175012D02*
X34888083Y13163348D01*
Y13140022D01*
X34899747Y13128360D01*
X34946396D01*
X34958060Y13140022D01*
Y13163348D01*
X34946396Y13175012D01*
X34958060Y13244991D02*
Y13198338D01*
X34911411Y13244991D01*
X34899747D01*
X34888083Y13233327D01*
Y13210001D01*
X34899747Y13198338D01*
X34958060Y13268315D02*
Y13291641D01*
Y13279977D01*
X34888083D01*
X34899747Y13268315D01*
X31264746Y13180013D02*
X31253082Y13168349D01*
Y13145023D01*
X31264746Y13133360D01*
X31311398D01*
X31323059Y13145023D01*
Y13168349D01*
X31311398Y13180013D01*
X31323059Y13249989D02*
Y13203339D01*
X31276410Y13249989D01*
X31264746D01*
X31253082Y13238327D01*
Y13215001D01*
X31264746Y13203339D01*
X31323059Y13319968D02*
Y13273315D01*
X31276410Y13319968D01*
X31264746D01*
X31253082Y13308304D01*
Y13284978D01*
X31264746Y13273315D01*
X31375815Y16818349D02*
X31387476Y16830011D01*
Y16853337D01*
X31375815Y16864999D01*
X31329163D01*
X31317499Y16853337D01*
Y16830011D01*
X31329163Y16818349D01*
X31375815Y16795023D02*
X31387476Y16783359D01*
Y16760033D01*
X31375815Y16748370D01*
X31364151D01*
X31352487Y16760033D01*
X31340826Y16748370D01*
X31329163D01*
X31317499Y16760033D01*
Y16783359D01*
X31329163Y16795023D01*
X31340826D01*
X31352487Y16783359D01*
X31364151Y16795023D01*
X31375815D01*
X31352487Y16783359D02*
Y16760033D01*
X35010815Y16813348D02*
X35022476Y16825011D01*
Y16848337D01*
X35010815Y16860001D01*
X34964163D01*
X34952499Y16848337D01*
Y16825011D01*
X34964163Y16813348D01*
X35022476Y16790022D02*
Y16743370D01*
X35010815D01*
X34964163Y16790022D01*
X34952499D01*
X34891684Y20591650D02*
X34880023Y20579990D01*
Y20556664D01*
X34891684Y20545000D01*
X34938336D01*
X34950000Y20556664D01*
Y20579990D01*
X34938336Y20591650D01*
X34880023Y20661629D02*
Y20614977D01*
X34915012D01*
X34903348Y20638303D01*
Y20649966D01*
X34915012Y20661629D01*
X34938336D01*
X34950000Y20649966D01*
Y20626640D01*
X34938336Y20614977D01*
X31256686Y20596651D02*
X31245023Y20584988D01*
Y20561662D01*
X31256686Y20550000D01*
X31303336D01*
X31314999Y20561662D01*
Y20584988D01*
X31303336Y20596651D01*
X31245023Y20666629D02*
X31256686Y20643303D01*
X31280011Y20619977D01*
X31303336D01*
X31314999Y20631641D01*
Y20654967D01*
X31303336Y20666629D01*
X31291675D01*
X31280011Y20654967D01*
Y20619977D01*
X3846931Y11167523D02*
Y11225838D01*
X3858594Y11237501D01*
X3881919D01*
X3893582Y11225838D01*
Y11167523D01*
X3916908D02*
X3963560D01*
Y11179186D01*
X3916908Y11225838D01*
Y11237501D01*
X11800000Y25830023D02*
Y25876675D01*
X11776674Y25900000D01*
X11753348Y25876675D01*
Y25830023D01*
X11730023D02*
X11683371D01*
X11706697D01*
Y25900000D01*
X11613393Y25830023D02*
X11660045D01*
Y25865012D01*
X11636719Y25853348D01*
X11625056D01*
X11613393Y25865012D01*
Y25888336D01*
X11625056Y25900000D01*
X11648382D01*
X11660045Y25888336D01*
X11590067Y25841684D02*
X11578405Y25830023D01*
X11555079D01*
X11543416Y25841684D01*
Y25853348D01*
X11555079Y25865012D01*
X11566742D01*
X11555079D01*
X11543416Y25876675D01*
Y25888336D01*
X11555079Y25900000D01*
X11578405D01*
X11590067Y25888336D01*
X1613348Y26941684D02*
X1625011Y26930023D01*
X1648337D01*
X1660000Y26941684D01*
Y26988336D01*
X1648337Y27000000D01*
X1625011D01*
X1613348Y26988336D01*
X1543371Y27000000D02*
X1590022D01*
X1543371Y26953348D01*
Y26941684D01*
X1555034Y26930023D01*
X1578360D01*
X1590022Y26941684D01*
X1473393Y26930023D02*
X1520045D01*
Y26965012D01*
X1496719Y26953348D01*
X1485056D01*
X1473393Y26965012D01*
Y26988336D01*
X1485056Y27000000D01*
X1508382D01*
X1520045Y26988336D01*
X4333348Y26941687D02*
X4345011Y26930023D01*
X4368337D01*
X4380000Y26941687D01*
Y26988336D01*
X4368337Y27000000D01*
X4345011D01*
X4333348Y26988336D01*
X4263371Y27000000D02*
X4310023D01*
X4263371Y26953348D01*
Y26941687D01*
X4275034Y26930023D01*
X4298360D01*
X4310023Y26941687D01*
X4193393Y26930023D02*
X4216719Y26941687D01*
X4240045Y26965012D01*
Y26988336D01*
X4228382Y27000000D01*
X4205056D01*
X4193393Y26988336D01*
Y26976675D01*
X4205056Y26965012D01*
X4240045D01*
X7048348Y26941687D02*
X7060011Y26930023D01*
X7083337D01*
X7095000Y26941687D01*
Y26988336D01*
X7083337Y27000000D01*
X7060011D01*
X7048348Y26988336D01*
X6978371Y27000000D02*
X7025023D01*
X6978371Y26953348D01*
Y26941687D01*
X6990034Y26930023D01*
X7013360D01*
X7025023Y26941687D01*
X6955045Y26988336D02*
X6943382Y27000000D01*
X6920056D01*
X6908393Y26988336D01*
Y26941687D01*
X6920056Y26930023D01*
X6943382D01*
X6955045Y26941687D01*
Y26953348D01*
X6943382Y26965012D01*
X6908393D01*
X10080848Y26941687D02*
X10092511Y26930023D01*
X10115837D01*
X10127500Y26941687D01*
Y26988336D01*
X10115837Y27000000D01*
X10092511D01*
X10080848Y26988336D01*
X10022534Y27000000D02*
Y26930023D01*
X10057522Y26965012D01*
X10010871D01*
X9940893Y26930023D02*
X9987545D01*
Y26965012D01*
X9964219Y26953348D01*
X9952556D01*
X9940893Y26965012D01*
Y26988336D01*
X9952556Y27000000D01*
X9975882D01*
X9987545Y26988336D01*
%TF.MD5,8049046d9560393873f3f8dfce3841c4*%
M02*
