%TF.GenerationSoftware,Altium Limited,Altium Designer,25.3.3 (18)*%
G04 Layer_Color=16711935*
%FSLAX45Y45*%
%MOMM*%
%TF.SameCoordinates,A4CA6E92-6A9D-4088-ADF9-EEBE24E4F9EE*%
%TF.FilePolarity,Positive*%
%TF.FileFunction,Other,Bottom_Courtyard*%
%TF.Part,Single*%
G01*
G75*
%TA.AperFunction,NonConductor*%
%ADD71C,0.20000*%
%ADD73C,0.10000*%
D71*
X782500Y11707500D02*
X1427500D01*
Y10417500D02*
Y11707500D01*
X782500Y10417500D02*
X1427500D01*
X782500D02*
Y11707500D01*
X40107501Y8822500D02*
Y9467500D01*
X41397501D01*
Y8822500D02*
Y9467500D01*
X40107501Y8822500D02*
X41397501D01*
D73*
X38702499Y10287500D02*
X39097498D01*
X38702499Y9962500D02*
Y10287500D01*
Y9962500D02*
X39097498D01*
Y10287500D01*
X38807498Y10090022D02*
Y10148337D01*
X38819162Y10160000D01*
X38842487D01*
X38854150Y10148337D01*
Y10090022D01*
X38877478Y10101685D02*
X38889139Y10090022D01*
X38912466D01*
X38924127Y10101685D01*
Y10113348D01*
X38912466Y10125011D01*
X38924127Y10136674D01*
Y10148337D01*
X38912466Y10160000D01*
X38889139D01*
X38877478Y10148337D01*
Y10136674D01*
X38889139Y10125011D01*
X38877478Y10113348D01*
Y10101685D01*
X38889139Y10125011D02*
X38912466D01*
%TF.MD5,f5f3bd56899c41823b8048ca1842d5bf*%
M02*
