M48
;Layer_Color=9474304
;FILE_FORMAT=4:4
METRIC,LZ
;TYPE=PLATED
T12F00S00C2.2860
T14F00S00C2.5000
T15F00S00C3.5000
T16F00S00C6.0000
;TYPE=NON_PLATED
%
G90
G05
T12
G00X03860965Y0130061
M15
G01X03887635
M16
G00X03759365Y0130061
M15
G01X03786035
M16
G00X00399465Y0144761
M15
G01X00426135
M16
G00X00297865Y0144761
M15
G01X00324535
M16
T14
G00X009875Y00793
M15
G01X009725
M16
G00X009875Y01053
M15
G01X009725
M16
G00X009725Y019465
M15
G01X009875
M16
G00X009725Y022065
M15
G01X009875
M16
T15
G00X0285125Y007425
M15
G01X0272625
M16
G00X0255125Y007425
M15
G01X0242625
M16
G00X0285125Y012225
M15
G01X0272625
M16
G00X0272625Y017755
M15
G01X0285125
M16
G00X0272625Y022555
M15
G01X0285125
M16
G00X0242625Y022555
M15
G01X0255125
M16
T16
G00X0241875Y012225
M15
G01Y012225
M16
G00X0257875Y012225
M15
G01Y012225
M16
G00X0257875Y017755
M15
G01Y017755
M16
G00X0241875Y017755
M15
G01Y017755
M16
M17
M30
