M48
;Layer_Color=9474304
;FILE_FORMAT=4:4
METRIC,LZ
;TYPE=PLATED
T01F00S00C0.3000
T02F00S00C0.5000
T03F00S00C0.7112
T04F00S00C0.7620
T05F00S00C0.9000
T06F00S00C0.9500
T07F00S00C1.0000
T08F00S00C1.2000
T09F00S00C1.5000
T10F00S00C2.0000
T11F00S00C2.1590
T13F00S00C2.4000
T17F00S00C10.0000
;TYPE=NON_PLATED
T18F00S00C4.0000
%
T01
X008605Y00044
X0086725
X0087425
X0061675Y00134
X0395175Y0087
X039535Y009905
X03957949Y010036
X00117Y01184
X00104Y0117825
X0010675Y012405
X00065Y0126125
X0381075Y0105725
X0393925Y01031
X0051175Y02858
X010005Y0263875
T02
X02403Y000785
X0253675Y0009425
X026565Y0006925
X0270425Y0010625
X02303Y0006925
X02251Y0006775
X0092625Y0008975
X0092575Y001415
X0088825Y0004175
X0049775Y00057
X00498Y00128
X00414034Y0003775
X01912249Y00239377
X02052Y0026075
X02730999Y00277344
X02843783Y00277094
X03104133Y00274443
Y00284193
Y00294193
X03114133
Y00284193
Y00274443
X03124133
Y00284193
X03134133
Y00274443
Y00264193
X03124133
X03114133
X03104133
Y00254193
X03114133
X03124133
X03134133
Y00243943
X03124133
X03114133
X03104133
Y00304443
Y00314443
Y00324443
Y00334443
X03114133
Y00324443
Y00314443
Y00304443
X03124133
X03134133
Y00314443
X03124133
Y00324443
X03134133
Y00334443
X03124133
Y00294193
X03134133
X03144133
Y00284193
Y00274443
X03154133
Y00284193
Y00294193
X03164133
X03173883Y00294443
Y00284443
Y00274693
X03183883
Y00284443
Y00294443
X03193883
X03203883
Y00284443
Y00274693
X03193883
Y00284443
X03213883
Y00274693
X03223883
Y00284443
Y00294443
X03213883
Y00304693
X03203883
X03193883
X03183883
X03173883
Y00314693
Y00324693
Y00334693
X03183883
Y00324693
Y00314693
X03193883
Y00324693
X03203883
Y00314693
X03213883
Y00324693
Y00334693
X03203883
X03193883
X03223883
Y00324693
Y00314693
Y00304693
X03233883
Y00314693
Y00324693
Y00334693
Y00294443
Y00284443
Y00274693
Y00264443
X03223883
X03213883
X03203883
X03193883
X03183883
X03173883
Y00254443
X03183883
X03193883
X03203883
X03213883
X03223883
X03233883
Y00244193
X03223883
X03213883
X03203883
X03193883
X03183883
X03173883
X03164133Y00243943
X03154133
X03144133
Y00254193
Y00264193
X03154133
Y00254193
X03164133
Y00264193
Y00274443
Y00284193
Y00304443
X03154133
X03144133
Y00314443
Y00324443
Y00334443
X03154133
Y00324443
Y00314443
X03164133
Y00324443
Y00334443
X03533383Y00818443
X03543383
X03553383
X03563383
X03573383
X03583383
Y00828693
X03573383
X03563383
X03553383
X03543383
X03533383
Y00838693
X03543383
X03553383
X03563383
X03573383
X03583383
Y00848943
Y00858693
X03573383
Y00848943
X03563383
Y00858693
X03553383
Y00848943
X03543383
Y00858693
X03533383
Y00848943
Y00868693
X03543383
X03553383
X03563383
X03573383
X03583383
Y00878943
X03573383
X03563383
X03553383
X03543383
X03533383
Y00888943
Y00898943
Y00908943
X03543383
X03553383
Y00898943
X03543383
Y00888943
X03553383
X03563383
Y00898943
Y00908943
X03573383
Y00898943
Y00888943
X03583383
Y00898943
Y00908943
X03523383
Y00898943
Y00888943
Y00878943
Y00868693
Y00858693
Y00848943
Y00838693
Y00828693
Y00818443
X03468133Y00818693
X03458133
X03448133
X03438133
X03428133
X03418133
X03408133
Y00828943
Y00838943
X03418133
Y00828943
X03428133
X03438133
Y00838943
X03428133
Y00849193
Y00858943
X03438133
Y00849193
X03448133
Y00858943
Y00868943
X03438133
X03428133
X03418133
X03408133
Y00858943
Y00849193
X03418133
Y00858943
Y00879193
X03408133
Y00889193
Y00899193
Y00909193
X03418133
Y00899193
Y00889193
X03428133
Y00899193
X03438133
Y00889193
Y00879193
X03428133
X03448133
Y00889193
Y00899193
Y00909193
X03438133
X03428133
X03458133
Y00899193
Y00889193
Y00879193
X03468133
Y00889193
Y00899193
Y00909193
Y00868943
X03458133
Y00858943
Y00849193
X03468133
Y00858943
Y00838943
X03458133
X03448133
Y00828943
X03458133
X03468133
X03224383Y00829693
X03214383
X03204383
X03194383
X03184383
X03174383
X03164383
Y00839693
X03174383
X03184383
X03194383
X03204383
X03214383
X03224383
Y00849943
Y00859693
X03214383
Y00849943
X03204383
Y00859693
X03194383
Y00849943
X03184383
Y00859693
X03174383
Y00849943
X03164383
Y00859693
Y00869693
X03174383
X03184383
X03194383
X03204383
X03214383
X03224383
Y00879943
X03214383
X03204383
X03194383
X03184383
X03174383
X03164383
Y00889943
Y00899943
Y00909943
X03174383
Y00899943
Y00889943
X03184383
Y00899943
X03194383
Y00889943
X03204383
Y00899943
Y00909943
X03194383
X03184383
X03214383
Y00899943
Y00889943
X03224383
Y00899943
Y00909943
Y00819443
X03214383
X03204383
X03194383
X03184383
X03174383
X03164383
X0393525Y0160575
X0394525
X0395525
Y01616
X0394525
X0393525
Y01626
X0394525
X0395525
Y0163625
Y01646
X0394525
Y0163625
X0393525
Y01646
Y01656
X0394525
X0395525
Y0166625
X0394525
X0393525
Y0167625
Y0168625
Y0169625
Y01706
X0394525
Y0169625
Y0168625
Y0167625
X0395525
Y0168625
Y0169625
Y01706
Y0171625
X0394525
X0393525
Y0172625
X0394525
X0395525
Y017365
Y0174625
X0394525
Y017365
X0393525
Y0174625
Y0175625
X0394525
X0395525
Y017665
X0394525
X0393525
Y017765
Y017865
Y017965
X0394525
Y017865
Y017765
X0395525
Y017865
Y017965
X0392525
X0391525
X0390525
X0389525
Y017865
Y017765
Y017665
X0390525
Y017765
Y017865
X0391525
Y017765
X0392525
Y017865
Y017665
X0391525
Y0175625
X0392525
Y0174625
Y017365
X0391525
Y0174625
X0390525
Y017365
X0389525
Y0174625
Y0175625
X0390525
Y0172625
X0389525
Y0171625
X0390525
X0391525
X0392525
Y0172625
X0391525
Y01706
Y0169625
X0392525
Y01706
Y0168625
X0391525
Y0167625
X0392525
Y0166625
X0391525
X0390525
X0389525
Y0167625
Y0168625
Y0169625
Y01706
X0390525
Y0169625
Y0168625
Y0167625
Y01656
X0389525
Y01646
Y0163625
X0390525
Y01646
X0391525
Y0163625
X0392525
Y01646
Y01656
X0391525
Y01626
X0392525
Y01616
X0391525
X0390525
X0389525
Y01626
X0390525
Y0160575
X0389525
X0391525
X0392525
X0015188Y02192197
X0014188
X0013188
X0012188
X0011188
X0010188
X0009188
X00082Y0219225
X00072
X00062
X00052
X00042
X00032
X00022
Y022025
X00032
X00042
X00052
X00062
X00072
X00082
X0009188Y02202447
X0010188
X0011188
X0012188
X0013188
X0014188
X0015188
X0047212Y02202553
X0048212
X0049212
X0050212
X0051212
X0052212
X0053212
X00542Y022025
X00552
X00562
X00572
X00582
X00592
X00602
Y0219225
X00592
X00582
X00572
X00562
X00552
X00542
X0053212Y02192303
X0052212
X0051212
X0050212
X0049212
X0048212
X0047212
X0332Y02402
X0333
X0334
X0335
X0336
X0337
X0338
Y0241225
Y0242225
X0337
Y0241225
X0336
Y0242225
X0335
X0334
Y0241225
X0335
X0333
Y0242225
X0332
Y0241225
Y024325
Y0244225
X0333
Y024325
X0334
Y0244225
X0335
Y024325
X0336
Y0244225
X0337
Y024325
X0338
Y0244225
Y0245225
X0337
X0336
X0335
X0334
X0333
X0332
Y024625
X0333
X0334
X0335
X0336
X0337
X0338
Y024725
Y024825
Y024925
X0337
Y024825
Y024725
X0336
Y024825
Y024925
X0335
X0334
Y024825
X0335
Y024725
X0334
X0333
Y024825
Y024925
X0332
Y024825
Y024725
X00602Y022325
Y0222275
X00592
Y022325
X00582
Y0222275
X00572
Y022325
X00562
Y0222275
X00552
Y022325
X00542
Y0222275
X0053212Y02222803
Y02232553
X0052212
Y02222803
X0051212
Y02232553
X0050212
Y02222803
X0049212
Y02232553
X0048212
Y02222803
X0047212
Y02232553
Y02212553
X0048212
X0049212
X0050212
X0051212
X0052212
X0053212
X00542Y022125
X00552
X00562
X00572
X00582
X00592
X00602
X0015188Y02212447
Y02222447
X0014188
Y02212447
X0013188
Y02222447
X0012188
X0011188
Y02212447
X0012188
X0010188
Y02222447
X0009188
X00082Y022225
Y022125
X0009188Y02212447
X00072Y022125
Y022225
Y022325
X00082
X0009188Y02232447
X0010188
X0011188
X0012188
X0013188
X0014188
X0015188
X00062Y022325
Y022225
Y022125
X00052
Y022225
X00042
Y022125
X00032
Y022225
Y022325
X00042
X00052
X00022
Y022225
Y022125
X00416Y0283225
X009035Y028055
X0207725Y0270975
X02174027Y02680293
X0219125Y0273025
X02240312Y02906292
X0283375Y0270425
X0293075Y026775
X0296375Y0272475
X03055883Y02720193
Y02710443
X03065883
Y02720193
Y02730193
X03055883
Y02740443
X03065883
X03075883
X03085883
Y02750443
X03075883
Y02760443
X03085883
Y02770443
X03075883
X03065883
Y02760443
Y02750443
X03055883
Y02760443
Y02770443
X03037999Y02756344
X03095883Y02760443
Y02750443
X03105883
Y02760443
Y02770443
X03095883
X03115883
X03125763Y02770391
Y02760391
X03115883Y02760443
Y02750443
X03125763Y02750391
Y02740391
X03115883Y02740443
X03105883
X03095883
Y02730193
X03085883
X03075883
Y02720193
Y02710443
X03085883
Y02720193
X03095883
Y02710443
X03105883
Y02720193
Y02730193
X03115883
X03125763Y02730141
Y02720141
Y02710391
X03115883Y02710443
Y02720193
Y02700193
X03125763Y02700141
Y02690141
X03115883Y02690193
X03105883
X03095883
X03085883
X03075883
X03065883
X03055883
Y02700193
X03065883
X03075883
X03085883
X03095883
X03105883
Y02679943
X03095883
X03085883
X03075883
X03065883
X03055883
X03115883
X03125763Y02679891
X03135763
X03145763
X03155763
X03165763
X03175763
X03185763
Y02690141
Y02700141
X03175763
Y02690141
X03165763
Y02700141
X03155763
X03145763
Y02690141
X03155763
X03135763
Y02700141
Y02710391
Y02720141
X03145763
Y02710391
X03155763
Y02720141
X03165763
Y02710391
X03175763
Y02720141
X03185763
Y02710391
Y02730141
X03175763
X03165763
X03155763
X03145763
X03135763
Y02740391
Y02750391
Y02760391
Y02770391
X03145763
X03155763
Y02760391
X03145763
Y02750391
X03155763
X03165763
Y02760391
Y02770391
X03175763
Y02760391
Y02750391
X03185763
Y02760391
Y02770391
Y02740391
X03175763
X03165763
X03155763
X03145763
T03
X0238175Y001185
X0256875Y00189
X0175475Y0014375
Y00121
X00751Y0004225
X0032925Y0022825
X01281Y0022775
X002295Y02789
X0042675Y02943
X00596Y02908
X008345Y0289725
X00864Y0283325
X0097675Y02914
X0174325Y0288025
X017425Y02856
X0220275Y02881
X0267775Y02888934
Y029375
X026245Y0295775
T04
X0034295Y0123171
X00362
X0038105
X0380445Y0108471
X038235
X0384255
T05
X024Y0018
X024254
X016Y001762
Y001508
Y001254
Y001
X008665Y001685
X008411
X007762Y0018
X007508
X007254
X007
X041595Y008711
Y008965
Y009219
Y009473
X0390315Y00961
X0387775
X003154Y00995
X0029
X0014415Y010015
X0011875
X0009335
X0006795
X005296Y0281775
X00555
X006238Y0282
X006492
X006746
X007
X016Y028238
Y028492
Y028746
Y029
X023746Y0281
X024
T06
X0397175Y0085625
X0402075Y00953224
X038865Y0084025
X00309Y0114875
X002475Y0122175
X001465Y012765
X0004725
X03823Y01037
T07
X0282Y000675
X0285
X0288
X0291
X0294
X029785Y00067
X0304575Y001165
X030435Y0017325
X03045Y00202
X0294Y001725
X0291
X0288
X0285
X0282
X027805Y00172
X02235Y00173
X022355Y00199
X0214Y001725
X0211
X0208
X0205
X0202
Y000675
X0205
X0208
X0211
X0214
X02173231
X01365Y0020625
X0132775Y00207
X0126375Y001715
X0121Y001725
X0118
Y000675
X0121
X0115
X0112
X0109
Y001725
X0112
X0115
X0103725Y0017225
X0058875Y0009125
X0054125Y0004975
X0038025Y0019975
X00354Y001725
X003Y001725
X0027
X0024
X0021
X0018
X001375Y0017275
X00108Y0020475
X0013775Y00068
X0018Y000675
X0021
X0024
X0027
X003
X0030025Y000205
X010375Y00221641
X0172675Y00325
X040334Y0075875
X040588
X040842
X041096
X04058Y0085125
X0024725Y010654
Y010908
Y011162
Y011416
X0015625Y0115725
X0014425Y0278975
X001225Y0282775
X00181Y028275
X00211
X00241
X00271
X00301
X00339873Y02768127
X00340779Y029325
X00301
X00271
X00241
X00211
X00181
X00139
X0036675Y0279
X008355Y0283025
X00871Y029325
X0109525Y029325
X0112525
Y028275
X0109525
X0105425Y02789178
X0115525Y028275
X0118525
X0121525
X01258Y02827
X012615Y0278925
X0121525Y029325
X0118525
X0115525
X01924Y0282725
X0192375Y027995
X0183475Y02668
X0201925Y028275
X0204925
X0207925
X0210925
X0213925
X0217325Y0282375
X0213925Y029325
X0210925
X0207925
X0204925
X0201925
X0194625
X0270375Y02803
X026345Y026745
X02769095Y02804078
X0281925Y028275
X0284925
X0287925
X0290925
X0293925
Y029325
X0290925
X0287925
X0284925
X0281925
X0276875Y0288175
T08
X000395Y003015
X002645Y00301
X00311Y003015
X00536Y00301
X005845Y003015
X008095Y00301
X008655Y00299
X010905Y002985
X0113925Y00299
X0136425Y002985
X014105Y00299
X016355Y002985
X003255Y02699
X002785Y026985
X000535Y02699
X005505Y026985
X00597Y02699
X00822Y026985
X0090025Y02699
X0112525Y026985
X0117475Y02699
X0139975Y026985
X0144825Y02699
X0167325Y026985
T09
X001274Y0041
X00182
X002366
X003274
X00382
X004366
X005274
X00582
X006366
X007274
X00782
X008366
X009274
X00982
X010366
X011274
X01182
X012366
X013274
X01382
X014366
X015274
X01582
X016366
X017274
X01782
X018366
X019274
X01982
X020366
X021274
X02182
X022366
X023274
X02382
X024366
X025274
X02582
X026366
X027274
X02782
X028366
X029274
X02982
X030366
X031274
X03182
X032366
X032346Y0259
X0318
X031254
X030346
X0298
X029254
X028346
X0278
X027254
X026346
X0258
X025254
X024346
X0238
X023254
X022346
X0218
X021254
X020346
X0198
X019254
X018346
X0178
X017254
X016346
X0158
X015254
X014346
X0138
X013254
X012346
X0118
X011254
X010346
X0098
X009254
X008346
X0078
X007254
X006346
X0058
X005254
X004346
X0038
X003254
X002346
X0018
X001254
T10
X03495806Y00892836
Y00992836
X03132306Y00993336
Y00893336
X0079025Y01259
Y01359
X011585
Y01259
X0152625
Y01359
X01891
Y01259
X03132306Y01263336
Y01363336
X03495806Y01362836
Y01262836
X0349525Y01636
Y01736
X0313175Y017365
Y016365
X01891505Y016395
Y017395
X01526755
Y016395
X01159005
Y017395
X00790755
Y016395
X031315Y02005
Y02105
X03495Y021045
Y020045
T11
X00104843Y0144749
X00203903
X00203941Y01546682
X00104881
T13
X041535Y012175
X04071
X039885
Y013825
X04071
X041535
X0415225Y016175
X0406975
X0398725
Y017825
X0406975
X0415225
T17
X04071Y013
X0406975Y017
T18
X0028Y00489722
Y00597222
X0168Y006
Y005
X0308
Y006
Y024
Y025
X0168
Y024
X0028Y02389722
Y02497222
M30
