%TF.GenerationSoftware,Altium Limited,Altium Designer,24.3.1 (35)*%
G04 Layer_Color=8388736*
%FSLAX45Y45*%
%MOMM*%
%TF.SameCoordinates,844131A9-2E1B-4A61-BE1F-69DE975881E6*%
%TF.FilePolarity,Positive*%
%TF.FileFunction,Other,Top_3D_Body*%
%TF.Part,Single*%
G01*
G75*
%TA.AperFunction,NonConductor*%
%ADD63C,0.20000*%
%ADD95C,0.15000*%
%ADD96C,0.10000*%
D63*
X5288200Y1998300D02*
X5913200D01*
Y3183300D01*
X5288200D02*
X5913200D01*
X5288200Y1998300D02*
Y3183300D01*
D95*
X12925000Y2200000D02*
G03*
X12925000Y2200000I-825000J0D01*
G01*
X2266800Y2438400D02*
G03*
X2266800Y2438400I-825000J0D01*
G01*
D96*
X7315200Y6159500D02*
Y6311900D01*
X7010400Y6159500D02*
Y6311900D01*
X7315200D01*
X7010400Y6159500D02*
X7315200D01*
X7010400Y6667500D02*
X7315200D01*
X7010400Y6515100D02*
X7315200D01*
Y6667500D01*
X7010400Y6515100D02*
Y6667500D01*
X7683500Y3683000D02*
X7835900D01*
X7683500Y3987800D02*
X7835900D01*
Y3683000D02*
Y3987800D01*
X7683500Y3683000D02*
Y3987800D01*
X7848600Y3530600D02*
X8153400D01*
X7848600Y3378200D02*
X8153400D01*
Y3530600D01*
X7848600Y3378200D02*
Y3530600D01*
X8242300Y3987800D02*
X8394700D01*
X8242300Y3683000D02*
X8394700D01*
X8242300D02*
Y3987800D01*
X8394700Y3683000D02*
Y3987800D01*
X6921500Y3390900D02*
X7226300D01*
X6921500Y3543300D02*
X7226300D01*
X6921500Y3390900D02*
Y3543300D01*
X7226300Y3390900D02*
Y3543300D01*
X5486400Y2692400D02*
Y2997200D01*
X5638800Y2692400D02*
Y2997200D01*
X5486400D02*
X5638800D01*
X5486400Y2692400D02*
X5638800D01*
X6654800Y2057400D02*
Y2362200D01*
X6502400Y2057400D02*
Y2362200D01*
Y2057400D02*
X6654800D01*
X6502400Y2362200D02*
X6654800D01*
X368300Y6477000D02*
Y6781800D01*
X215900Y6477000D02*
Y6781800D01*
Y6477000D02*
X368300D01*
X215900Y6781800D02*
X368300D01*
X215900Y6794500D02*
Y7099300D01*
X368300Y6794500D02*
Y7099300D01*
X215900D02*
X368300D01*
X215900Y6794500D02*
X368300D01*
X11938000Y2514600D02*
X12242800D01*
X11938000Y2362200D02*
X12242800D01*
Y2514600D01*
X11938000Y2362200D02*
Y2514600D01*
X1308100Y2501900D02*
X1612900D01*
X1308100Y2349500D02*
X1612900D01*
Y2501900D01*
X1308100Y2349500D02*
Y2501900D01*
X21640800Y8509000D02*
Y8813800D01*
X21488400Y8509000D02*
Y8813800D01*
Y8509000D02*
X21640800D01*
X21488400Y8813800D02*
X21640800D01*
X21488400Y8839200D02*
Y9144000D01*
X21640800Y8839200D02*
Y9144000D01*
X21488400D02*
X21640800D01*
X21488400Y8839200D02*
X21640800D01*
X324991Y7999981D02*
X894991D01*
X979991D02*
X1074991D01*
X889991Y7939981D02*
X894991Y7999981D01*
X979991D02*
X984991Y7939981D01*
X889991D02*
X984991D01*
X564993Y8999987D02*
X1074991D01*
Y7999981D02*
Y8999987D01*
X324993D02*
X494993D01*
X487493Y9059987D02*
X494993Y8999987D01*
X564993D02*
X572493Y9059987D01*
X487493D02*
X572493D01*
X324991Y7999981D02*
X324993Y8999987D01*
X11600013Y324993D02*
X12600019Y324991D01*
X11540013Y487493D02*
Y572493D01*
X11600013Y564993D01*
X11540013Y487493D02*
X11600013Y494993D01*
Y324993D02*
Y494993D01*
Y1074991D02*
X12600019D01*
X11600013Y564993D02*
Y1074991D01*
X12660019Y889991D02*
Y984991D01*
X12600019Y979991D02*
X12660019Y984991D01*
X12600019Y894991D02*
X12660019Y889991D01*
X12600019Y979991D02*
Y1074991D01*
Y324991D02*
Y894991D01*
X1000013Y324993D02*
X2000019Y324991D01*
X940013Y487493D02*
Y572493D01*
X1000013Y564993D01*
X940013Y487493D02*
X1000013Y494993D01*
Y324993D02*
Y494993D01*
Y1074991D02*
X2000019D01*
X1000013Y564993D02*
Y1074991D01*
X2060019Y889991D02*
Y984991D01*
X2000019Y979991D02*
X2060019Y984991D01*
X2000019Y894991D02*
X2060019Y889991D01*
X2000019Y979991D02*
Y1074991D01*
Y324991D02*
Y894991D01*
X7213648Y6259015D02*
X7225311Y6270678D01*
X7248637D01*
X7260300Y6259015D01*
Y6212363D01*
X7248637Y6200700D01*
X7225311D01*
X7213648Y6212363D01*
X7190322Y6200700D02*
X7166997D01*
X7178660D01*
Y6270678D01*
X7190322Y6259015D01*
X7085356Y6200700D02*
X7132008D01*
X7085356Y6247352D01*
Y6259015D01*
X7097019Y6270678D01*
X7120345D01*
X7132008Y6259015D01*
X7111952Y6567985D02*
X7100289Y6556322D01*
X7076963D01*
X7065300Y6567985D01*
Y6614637D01*
X7076963Y6626300D01*
X7100289D01*
X7111952Y6614637D01*
X7135278Y6626300D02*
X7158603D01*
X7146940D01*
Y6556322D01*
X7135278Y6567985D01*
X7228581Y6626300D02*
Y6556322D01*
X7193592Y6591311D01*
X7240244D01*
X7783015Y3784552D02*
X7794678Y3772889D01*
Y3749563D01*
X7783015Y3737900D01*
X7736363D01*
X7724700Y3749563D01*
Y3772889D01*
X7736363Y3784552D01*
X7724700Y3807878D02*
Y3831203D01*
Y3819540D01*
X7794678D01*
X7783015Y3807878D01*
X7794678Y3912844D02*
Y3866192D01*
X7759689D01*
X7771352Y3889518D01*
Y3901181D01*
X7759689Y3912844D01*
X7736363D01*
X7724700Y3901181D01*
Y3877855D01*
X7736363Y3866192D01*
X7950152Y3431085D02*
X7938489Y3419422D01*
X7915163D01*
X7903500Y3431085D01*
Y3477737D01*
X7915163Y3489400D01*
X7938489D01*
X7950152Y3477737D01*
X7973478Y3431085D02*
X7985140Y3419422D01*
X8008466D01*
X8020129Y3431085D01*
Y3442748D01*
X8008466Y3454411D01*
X7996803D01*
X8008466D01*
X8020129Y3466074D01*
Y3477737D01*
X8008466Y3489400D01*
X7985140D01*
X7973478Y3477737D01*
X8043455Y3431085D02*
X8055118Y3419422D01*
X8078444D01*
X8090107Y3431085D01*
Y3442748D01*
X8078444Y3454411D01*
X8066781D01*
X8078444D01*
X8090107Y3466074D01*
Y3477737D01*
X8078444Y3489400D01*
X8055118D01*
X8043455Y3477737D01*
X8295185Y3886248D02*
X8283522Y3897911D01*
Y3921237D01*
X8295185Y3932900D01*
X8341837D01*
X8353500Y3921237D01*
Y3897911D01*
X8341837Y3886248D01*
X8353500Y3862922D02*
Y3839597D01*
Y3851260D01*
X8283522D01*
X8295185Y3862922D01*
Y3804608D02*
X8283522Y3792945D01*
Y3769619D01*
X8295185Y3757956D01*
X8306848D01*
X8318511Y3769619D01*
Y3781282D01*
Y3769619D01*
X8330174Y3757956D01*
X8341837D01*
X8353500Y3769619D01*
Y3792945D01*
X8341837Y3804608D01*
X7124748Y3490415D02*
X7136411Y3502078D01*
X7159737D01*
X7171400Y3490415D01*
Y3443763D01*
X7159737Y3432100D01*
X7136411D01*
X7124748Y3443763D01*
X7066434Y3432100D02*
Y3502078D01*
X7101422Y3467089D01*
X7054771D01*
X7031445Y3432100D02*
X7008119D01*
X7019782D01*
Y3502078D01*
X7031445Y3490415D01*
X5585915Y2793952D02*
X5597578Y2782289D01*
Y2758963D01*
X5585915Y2747300D01*
X5539263D01*
X5527600Y2758963D01*
Y2782289D01*
X5539263Y2793952D01*
X5585915Y2817278D02*
X5597578Y2828940D01*
Y2852266D01*
X5585915Y2863929D01*
X5574252D01*
X5562589Y2852266D01*
Y2840603D01*
Y2852266D01*
X5550926Y2863929D01*
X5539263D01*
X5527600Y2852266D01*
Y2828940D01*
X5539263Y2817278D01*
X5527600Y2887255D02*
Y2910581D01*
Y2898918D01*
X5597578D01*
X5585915Y2887255D01*
X6555285Y2260648D02*
X6543622Y2272311D01*
Y2295637D01*
X6555285Y2307300D01*
X6601937D01*
X6613600Y2295637D01*
Y2272311D01*
X6601937Y2260648D01*
X6613600Y2190671D02*
Y2237322D01*
X6566948Y2190671D01*
X6555285D01*
X6543622Y2202334D01*
Y2225660D01*
X6555285Y2237322D01*
Y2167345D02*
X6543622Y2155682D01*
Y2132356D01*
X6555285Y2120693D01*
X6566948D01*
X6578611Y2132356D01*
X6590274Y2120693D01*
X6601937D01*
X6613600Y2132356D01*
Y2155682D01*
X6601937Y2167345D01*
X6590274D01*
X6578611Y2155682D01*
X6566948Y2167345D01*
X6555285D01*
X6578611Y2155682D02*
Y2132356D01*
X268785Y6680248D02*
X257122Y6691911D01*
Y6715237D01*
X268785Y6726900D01*
X315437D01*
X327100Y6715237D01*
Y6691911D01*
X315437Y6680248D01*
X327100Y6656922D02*
Y6633597D01*
Y6645260D01*
X257122D01*
X268785Y6656922D01*
Y6598608D02*
X257122Y6586945D01*
Y6563619D01*
X268785Y6551956D01*
X315437D01*
X327100Y6563619D01*
Y6586945D01*
X315437Y6598608D01*
X268785D01*
X315415Y6896052D02*
X327078Y6884389D01*
Y6861063D01*
X315415Y6849400D01*
X268763D01*
X257100Y6861063D01*
Y6884389D01*
X268763Y6896052D01*
X257100Y6919378D02*
Y6942703D01*
Y6931040D01*
X327078D01*
X315415Y6919378D01*
X11870352Y2519785D02*
X11858689Y2508122D01*
X11835363D01*
X11823700Y2519785D01*
Y2566437D01*
X11835363Y2578100D01*
X11858689D01*
X11870352Y2566437D01*
X11928666Y2578100D02*
Y2508122D01*
X11893678Y2543111D01*
X11940329D01*
X11998644Y2578100D02*
Y2508122D01*
X11963655Y2543111D01*
X12010307D01*
X1409652Y2402385D02*
X1397989Y2390722D01*
X1374663D01*
X1363000Y2402385D01*
Y2449037D01*
X1374663Y2460700D01*
X1397989D01*
X1409652Y2449037D01*
X1467966Y2460700D02*
Y2390722D01*
X1432978Y2425711D01*
X1479629D01*
X1502955Y2402385D02*
X1514618Y2390722D01*
X1537944D01*
X1549607Y2402385D01*
Y2414048D01*
X1537944Y2425711D01*
X1549607Y2437374D01*
Y2449037D01*
X1537944Y2460700D01*
X1514618D01*
X1502955Y2449037D01*
Y2437374D01*
X1514618Y2425711D01*
X1502955Y2414048D01*
Y2402385D01*
X1514618Y2425711D02*
X1537944D01*
X21541286Y8712248D02*
X21529622Y8723911D01*
Y8747237D01*
X21541286Y8758900D01*
X21587936D01*
X21599600Y8747237D01*
Y8723911D01*
X21587936Y8712248D01*
Y8688922D02*
X21599600Y8677260D01*
Y8653934D01*
X21587936Y8642271D01*
X21541286D01*
X21529622Y8653934D01*
Y8677260D01*
X21541286Y8688922D01*
X21552948D01*
X21564610Y8677260D01*
Y8642271D01*
X21587915Y8940752D02*
X21599577Y8929089D01*
Y8905763D01*
X21587915Y8894100D01*
X21541263D01*
X21529601Y8905763D01*
Y8929089D01*
X21541263Y8940752D01*
X21599577Y9010729D02*
Y8964078D01*
X21564589D01*
X21576253Y8987403D01*
Y8999066D01*
X21564589Y9010729D01*
X21541263D01*
X21529601Y8999066D01*
Y8975740D01*
X21541263Y8964078D01*
%TF.MD5,04e82e195376d0c8f66b2af7adbf7b17*%
M02*
