%TF.GenerationSoftware,Altium Limited,Altium Designer,24.3.1 (35)*%
G04 Layer_Physical_Order=1*
G04 Layer_Color=255*
%FSLAX45Y45*%
%MOMM*%
%TF.SameCoordinates,844131A9-2E1B-4A61-BE1F-69DE975881E6*%
%TF.FilePolarity,Positive*%
%TF.FileFunction,Copper,L1,Top,Signal*%
%TF.Part,Single*%
G01*
G75*
%TA.AperFunction,Conductor*%
%ADD10C,2.00000*%
%ADD11C,1.50000*%
%ADD12C,0.80000*%
%ADD13C,1.00000*%
%TA.AperFunction,ComponentPad*%
%ADD14C,1.80000*%
%ADD15C,5.00000*%
%ADD16C,2.50000*%
%ADD17C,2.03200*%
%ADD18C,3.50000*%
%ADD19R,2.00000X2.00000*%
%ADD20C,2.00000*%
%ADD21C,1.55000*%
%ADD22R,1.55000X1.55000*%
%ADD23O,5.08000X8.89000*%
%ADD24O,1.77800X1.52400*%
%ADD25C,3.55000*%
%ADD26C,1.95000*%
G04:AMPARAMS|DCode=27|XSize=1.95mm|YSize=1.95mm|CornerRadius=0.4875mm|HoleSize=0mm|Usage=FLASHONLY|Rotation=270.000|XOffset=0mm|YOffset=0mm|HoleType=Round|Shape=RoundedRectangle|*
%AMROUNDEDRECTD27*
21,1,1.95000,0.97500,0,0,270.0*
21,1,0.97500,1.95000,0,0,270.0*
1,1,0.97500,-0.48750,-0.48750*
1,1,0.97500,-0.48750,0.48750*
1,1,0.97500,0.48750,0.48750*
1,1,0.97500,0.48750,-0.48750*
%
%ADD27ROUNDEDRECTD27*%
%ADD28C,4.20000*%
%ADD29O,6.60000X6.00000*%
%ADD30C,8.00000*%
%ADD31C,1.52400*%
%ADD32C,13.00000*%
G04:AMPARAMS|DCode=33|XSize=1.95mm|YSize=1.95mm|CornerRadius=0.4875mm|HoleSize=0mm|Usage=FLASHONLY|Rotation=0.000|XOffset=0mm|YOffset=0mm|HoleType=Round|Shape=RoundedRectangle|*
%AMROUNDEDRECTD33*
21,1,1.95000,0.97500,0,0,0.0*
21,1,0.97500,1.95000,0,0,0.0*
1,1,0.97500,0.48750,-0.48750*
1,1,0.97500,-0.48750,-0.48750*
1,1,0.97500,-0.48750,0.48750*
1,1,0.97500,0.48750,0.48750*
%
%ADD33ROUNDEDRECTD33*%
%TA.AperFunction,ViaPad*%
%ADD34C,1.27000*%
%ADD35C,0.80000*%
G36*
X5575300Y11176000D02*
Y9448800D01*
X4889500Y8763000D01*
X3683000D01*
X3479800Y8559800D01*
X3479800Y7493000D01*
X2844800Y6858000D01*
X2603500D01*
X1930400Y7531099D01*
X1930399Y11188700D01*
X2057400Y11315700D01*
X2222500D01*
X2349500Y11188700D01*
Y10795000D01*
X2959100Y10185400D01*
X4800600D01*
X5118100Y10502900D01*
Y11163300D01*
X5270500Y11315700D01*
X5435600D01*
X5575300Y11176000D01*
D02*
G37*
G36*
X8470900Y6324600D02*
X8597900Y6197600D01*
X8597900Y5969000D01*
X8445500Y5816600D01*
X5372099D01*
X5232400Y5956299D01*
Y6172200D01*
X5384800Y6324600D01*
X8470900Y6324600D01*
D02*
G37*
G36*
X15481300Y10680700D02*
X16421100D01*
X17056099Y11315700D01*
X17957800Y11315700D01*
X18097501Y11176000D01*
Y7785100D01*
X15069437Y4757036D01*
X14078101Y4768699D01*
X13639799Y5207001D01*
X13639799Y10579100D01*
X11950700Y12268200D01*
X6654800D01*
X6096000Y11709400D01*
Y11048999D01*
X5994400Y10947400D01*
X5791200D01*
X5689600Y11049000D01*
X5689600Y11302999D01*
X5460999Y11531600D01*
X4775199D01*
X4102101Y10858500D01*
X2705099Y10858500D01*
X2501899Y11061700D01*
Y11290300D01*
X2197100Y11595100D01*
Y12331699D01*
X3594099Y13728700D01*
X12433300D01*
X15481300Y10680700D01*
D02*
G37*
G36*
X4851400Y6438899D02*
X4851399Y5460994D01*
X3670295Y4279900D01*
X3111500D01*
X2762251Y4629149D01*
X698500Y4629151D01*
Y5270500D01*
X1047750Y5619750D01*
X3752852D01*
X4152899Y6019798D01*
X4152900Y6057898D01*
X4127501Y6083300D01*
X4089399Y6083300D01*
X3848100Y5841999D01*
X2590799Y5842000D01*
X2451100Y5981700D01*
Y6565900D01*
X2616200Y6731000D01*
X4559299D01*
X4851400Y6438899D01*
D02*
G37*
G36*
X10698046Y10312400D02*
X11671300D01*
X12166600Y10807700D01*
Y11341100D01*
X12560300D01*
X13233400Y10668000D01*
X13214349Y9264650D01*
X11125200Y7175500D01*
Y5588000D01*
X9677400Y4140200D01*
X6223000D01*
X4940300Y2857500D01*
X3886200Y1803400D01*
X3035300D01*
X1320800Y3517900D01*
X698500D01*
Y4292600D01*
X2336800D01*
X3111500Y3517900D01*
X3733800D01*
X5638800Y5422900D01*
X8572500Y5422900D01*
X9067800Y5918200D01*
Y6464300D01*
Y8229600D01*
Y9817100D01*
D01*
Y10096500D01*
X8940800Y10223500D01*
Y11358446D01*
X9652000D01*
X10698046Y10312400D01*
D02*
G37*
G36*
X20675600Y10655300D02*
X21348700D01*
X22009100Y11315700D01*
X22275800D01*
X22402800Y11188700D01*
Y10566400D01*
X20802600Y8966200D01*
Y5638800D01*
X19939000Y4775200D01*
X19138899Y4775200D01*
X18427699Y5486400D01*
X18427699Y13500000D01*
X20675600D01*
Y10655300D01*
D02*
G37*
G36*
X24815800Y12204700D02*
Y10985500D01*
X23367999Y9537700D01*
X23367999Y6718300D01*
X23177499Y6527800D01*
Y6172199D01*
X23367999Y5981700D01*
X23367999Y4318000D01*
X23177499Y4127501D01*
Y3759200D01*
X23367999Y3568700D01*
X23367999Y1904999D01*
X23177499Y1714500D01*
Y1371600D01*
X23329900Y1219200D01*
X23634698D01*
X23837900Y1422400D01*
Y1689100D01*
X23596600Y1930400D01*
Y3556000D01*
X23837900Y3797300D01*
X23837900Y4102100D01*
X23622000Y4317999D01*
Y5956300D01*
X23837900Y6172200D01*
Y6502399D01*
X23634698Y6705600D01*
Y8613004D01*
X23857002Y8835308D01*
X24146593D01*
X24358600Y8623300D01*
Y8006633D01*
X24561800Y7803433D01*
Y6200619D01*
X24890045Y5872374D01*
Y4417645D01*
X24561800Y4089400D01*
Y3860799D01*
X24892000Y3530600D01*
X24892000Y2082800D01*
X24561800Y1752600D01*
Y584200D01*
X24142700Y165100D01*
X22186900D01*
Y177800D01*
Y749300D01*
X21907500Y1028700D01*
X21907500Y3428999D01*
X22186900Y3708400D01*
Y4229100D01*
X21907500Y4508499D01*
Y5816600D01*
X22186900Y6096000D01*
Y9639300D01*
Y9969500D01*
X22631400Y10414000D01*
Y11264900D01*
X22390100Y11506200D01*
X21856700D01*
X21234399Y10883900D01*
X20878799D01*
Y11531600D01*
X22291495Y12944295D01*
X24076205D01*
X24815800Y12204700D01*
D02*
G37*
%LPC*%
G36*
X3467100Y12230100D02*
X3048000D01*
X2730500Y11912600D01*
X2730500Y11531599D01*
X3048000Y11214100D01*
X3479800Y11214100D01*
X3771900Y11506200D01*
Y11925300D01*
X3467100Y12230100D01*
D02*
G37*
G36*
X14325600Y8763000D02*
X14097000Y8534400D01*
X14096999Y8153400D01*
X14325600Y7924799D01*
X14706599Y7924800D01*
X14935201Y8153399D01*
X14935199Y8547100D01*
X14719299Y8762999D01*
X14325600Y8763000D01*
D02*
G37*
G36*
X20231099Y12242800D02*
X19786600D01*
X19481799Y11938000D01*
X19481799Y11493500D01*
X19761200Y11214100D01*
X20231100D01*
X20510500Y11493499D01*
Y11963400D01*
X20231099Y12242800D01*
D02*
G37*
G36*
X19100800Y11417300D02*
X18821400D01*
X18643600Y11239500D01*
Y10934700D01*
X18796001Y10782299D01*
X19113499Y10782300D01*
X19278600Y10947399D01*
X19278600Y11239500D01*
X19100800Y11417300D01*
D02*
G37*
G36*
X19310350Y8763000D02*
X19081750Y8534401D01*
X19081749Y8153400D01*
X19310350Y7924800D01*
X19691348Y7924801D01*
X19919949Y8153399D01*
X19919949Y8547101D01*
X19704050Y8763000D01*
X19310350Y8763000D01*
D02*
G37*
G36*
X23990298Y12217400D02*
X23533099D01*
X23228300Y11912600D01*
X23228300Y11518900D01*
X23533099Y11214100D01*
X23977600Y11214100D01*
X24269701Y11506200D01*
Y11938000D01*
X23990298Y12217400D01*
D02*
G37*
%LPD*%
D10*
X5883400Y9007600D02*
Y11136500D01*
X3911600Y8293100D02*
X5168900D01*
X5883400Y9007600D01*
X8839200Y9359900D02*
X8928100Y9271000D01*
X8839200Y9359900D02*
Y9918700D01*
X3721100Y8483600D02*
X3911600Y8293100D01*
X11391900Y6667500D02*
X11887200Y7162800D01*
X1750000Y1115000D02*
X1816800Y1181800D01*
Y2438400D01*
X1750000Y654998D02*
Y1115000D01*
X1066800Y1358900D02*
Y2438400D01*
X1250001Y654998D02*
Y1175700D01*
X1066800Y1358900D02*
X1250001Y1175700D01*
D11*
X10960100Y6654800D02*
X10972800Y6667500D01*
X7048500Y7099300D02*
X7315200Y7366000D01*
X9118600D01*
X8598950Y10148350D02*
Y11135450D01*
X8191750Y254250D02*
Y649750D01*
D12*
X9118600Y7366000D02*
X9390263Y7094337D01*
Y6151763D02*
Y7094337D01*
X7249900Y1231900D02*
X7255500D01*
X6668000Y650000D02*
X7249900Y1231900D01*
X21158200Y1041400D02*
Y8864600D01*
X15717162Y368300D02*
X20485100D01*
X21158200Y1041400D01*
X15056763Y1028700D02*
X15717162Y368300D01*
X7768231Y700000D02*
X8096931Y1028700D01*
X15056763D01*
X7711060Y650000D02*
X7761060Y700000D01*
X7684000Y650000D02*
X7711060D01*
X8973600Y805400D02*
X9550400Y228600D01*
X7761060Y700000D02*
X7768231D01*
X7938000Y650000D02*
X8093400Y805400D01*
X8973600D01*
X9194800Y254000D02*
X9347200Y101600D01*
X21386800Y8229600D02*
X21564600Y8407400D01*
X9550400Y228600D02*
X20523199D01*
X9347200Y101600D02*
X20586700D01*
X20523199Y228600D02*
X21272501Y977900D01*
X21158200Y8864600D02*
X21386800Y9093200D01*
Y901700D02*
Y8229600D01*
X20586700Y101600D02*
X21386800Y901700D01*
X21272501Y977900D02*
Y8763000D01*
X9321800Y6083300D02*
X9390263Y6151763D01*
X5803730Y2456830D02*
X5810700Y2463800D01*
X5549900Y2057400D02*
Y2349500D01*
X5657230Y2456830D01*
X5549900Y2057400D02*
X5842000Y1765300D01*
X5657230Y2456830D02*
X5803730D01*
X5842000Y1765300D02*
X7416800D01*
X6731000Y2108200D02*
X6934200Y2311400D01*
X7353300D01*
X8280400D01*
X6922000Y650000D02*
X7402300Y1130300D01*
X7404100D01*
X8623300Y254000D02*
X9194800D01*
X6922000Y650000D02*
X6922000D01*
X8446000Y431300D02*
Y650000D01*
Y431300D02*
X8623300Y254000D01*
X8191750Y649750D02*
X8192000Y650000D01*
X8191500Y254000D02*
X8191750Y254250D01*
D13*
X10137719Y9388821D02*
X12635090D01*
X8356600Y1384300D02*
X8978900Y2006600D01*
X5652000Y650000D02*
X6386300Y1384300D01*
X8356600D01*
X6297400Y1549400D02*
X8229600D01*
X8813800Y2133600D01*
X5398000Y650000D02*
X6297400Y1549400D01*
X10833100Y6794500D02*
X10838266Y6799666D01*
Y7006972D02*
X10845800Y7014506D01*
X10838266Y6799666D02*
Y7006972D01*
X10845800Y7014506D02*
Y7146498D01*
X9412019Y8580279D02*
X10845800Y7146498D01*
X9412019Y8580279D02*
Y8663121D01*
X6692900Y3581400D02*
Y3822700D01*
X6934200Y3340100D02*
X7099300D01*
X6692900Y3581400D02*
X6934200Y3340100D01*
X5810700Y2717800D02*
X6445700D01*
X6788600Y3060700D01*
X7302500D01*
X8216900D01*
X9412019Y8663121D02*
X10137719Y9388821D01*
X8597900Y10147300D02*
X8598950Y10148350D01*
Y11135450D02*
X8600000Y11136500D01*
D14*
X6668000Y650000D02*
D03*
X4890000D02*
D03*
X6922000D02*
D03*
X7176000D02*
D03*
X6414000D02*
D03*
X5144000D02*
D03*
X7684000D02*
D03*
X6160000D02*
D03*
X8446000D02*
D03*
X8192000D02*
D03*
X7938000D02*
D03*
X5398000D02*
D03*
X7430000D02*
D03*
X5906000D02*
D03*
X8700000D02*
D03*
X5652000D02*
D03*
D15*
X4508500Y6070600D02*
D03*
X5486400D02*
D03*
X8343900Y6083300D02*
D03*
X9321800D02*
D03*
D16*
X6692900Y3822700D02*
D03*
X7112000D02*
D03*
X8674100Y2616200D02*
D03*
X26428699Y7404100D02*
D03*
X8064500Y9245600D02*
D03*
X8191500Y254000D02*
D03*
X1612900Y9156700D02*
D03*
X9194800Y254000D02*
D03*
X8064500Y10541000D02*
D03*
X11315700Y10591800D02*
D03*
X7366000Y8102600D02*
D03*
X4813300Y10553700D02*
D03*
X1612900Y10477500D02*
D03*
X3124200Y10490200D02*
D03*
X22199600Y2768600D02*
D03*
X8597900Y10147300D02*
D03*
D17*
X3238500Y4445000D02*
D03*
Y1930400D02*
D03*
D18*
X23511501Y6345200D02*
D03*
X22511501D02*
D03*
X24911501Y1545200D02*
D03*
X25911499D02*
D03*
X22511501D02*
D03*
X23511501D02*
D03*
X22511501Y3945200D02*
D03*
X23511501D02*
D03*
X24911501Y6345200D02*
D03*
X25911499D02*
D03*
X24911501Y3945200D02*
D03*
X25911499D02*
D03*
D19*
X12475000Y2200000D02*
D03*
X1816800Y2438400D02*
D03*
D20*
X11725000Y2200000D02*
D03*
X1066800Y2438400D02*
D03*
D21*
X5810700Y2971800D02*
D03*
Y2717800D02*
D03*
Y2463800D02*
D03*
D22*
Y2209800D02*
D03*
D23*
X2717800Y7302500D02*
D03*
Y6286500D02*
D03*
X24003000Y8382000D02*
D03*
Y9398000D02*
D03*
D24*
X558800Y6985000D02*
D03*
Y6794500D02*
D03*
Y6604000D02*
D03*
X21844000Y8699500D02*
D03*
Y8890000D02*
D03*
Y9080500D02*
D03*
D25*
X2683400Y11136500D02*
D03*
X5883400D02*
D03*
X1616600D02*
D03*
X2150000D02*
D03*
X4816600D02*
D03*
X5350000D02*
D03*
X8066600D02*
D03*
X8600000D02*
D03*
X9133400D02*
D03*
X11316600D02*
D03*
X11850000D02*
D03*
X12383400D02*
D03*
D26*
X654998Y8250001D02*
D03*
X12349999Y654998D02*
D03*
X1750000D02*
D03*
D27*
X654998Y8750000D02*
D03*
D28*
X18956400Y11100000D02*
D03*
X17864200D02*
D03*
X15681400D02*
D03*
X14589200D02*
D03*
X25435800D02*
D03*
X24343600D02*
D03*
X22185800D02*
D03*
X21093600D02*
D03*
D29*
X25063400Y9400000D02*
D03*
X26054001D02*
D03*
X25063400Y8400000D02*
D03*
X26054001D02*
D03*
X2036600Y5000000D02*
D03*
X1046000D02*
D03*
X2036600Y4000000D02*
D03*
X1046000D02*
D03*
D30*
X16250000Y11720000D02*
D03*
X23750000D02*
D03*
X20000000D02*
D03*
X3250000D02*
D03*
X10750000D02*
D03*
X7000000D02*
D03*
D31*
X14500000Y2650000D02*
D03*
Y8350000D02*
D03*
X19500000D02*
D03*
Y2650000D02*
D03*
D32*
Y5500000D02*
D03*
X14500000D02*
D03*
D33*
X11850000Y654998D02*
D03*
X1250001D02*
D03*
D34*
X8839200Y9918700D02*
D03*
X8928100Y9271000D02*
D03*
X11887200Y7162800D02*
D03*
X11391900Y6667500D02*
D03*
X5016500Y3543300D02*
D03*
X3721100Y8483600D02*
D03*
X5041900Y9093200D02*
D03*
D35*
X7255500Y1231900D02*
D03*
X7353300Y2311400D02*
D03*
X7099300Y3340100D02*
D03*
X7302500Y3060700D02*
D03*
X8216900D02*
D03*
X8280400Y2311400D02*
D03*
X7416800Y1765300D02*
D03*
X6731000Y2108200D02*
D03*
X7404100Y1130300D02*
D03*
X7048500Y7099300D02*
D03*
X8978900Y2006600D02*
D03*
X8813800Y2133600D02*
D03*
X21564600Y8407400D02*
D03*
X21272501Y8763000D02*
D03*
X21386800Y9093200D02*
D03*
X20091400Y13449300D02*
D03*
Y13373100D02*
D03*
Y13296899D02*
D03*
Y13220700D02*
D03*
Y13144501D02*
D03*
Y13068300D02*
D03*
Y12992101D02*
D03*
Y12915900D02*
D03*
Y12839700D02*
D03*
Y12763500D02*
D03*
Y12687300D02*
D03*
Y12611100D02*
D03*
Y12534900D02*
D03*
Y12458700D02*
D03*
X20015199Y13449300D02*
D03*
Y13373100D02*
D03*
Y13296899D02*
D03*
Y13220700D02*
D03*
Y13144501D02*
D03*
Y13068300D02*
D03*
Y12992101D02*
D03*
Y12915900D02*
D03*
Y12839700D02*
D03*
Y12763500D02*
D03*
Y12687300D02*
D03*
Y12611100D02*
D03*
Y12534900D02*
D03*
Y12458700D02*
D03*
X19939000Y13449300D02*
D03*
Y13373100D02*
D03*
Y13296899D02*
D03*
Y13220700D02*
D03*
Y13144501D02*
D03*
Y13068300D02*
D03*
Y12992101D02*
D03*
Y12915900D02*
D03*
Y12839700D02*
D03*
Y12763500D02*
D03*
Y12687300D02*
D03*
Y12611100D02*
D03*
Y12534900D02*
D03*
Y12458700D02*
D03*
X19862801Y13449300D02*
D03*
Y13373100D02*
D03*
Y13296899D02*
D03*
Y13220700D02*
D03*
Y13144501D02*
D03*
Y13068300D02*
D03*
Y12992101D02*
D03*
Y12915900D02*
D03*
Y12839700D02*
D03*
Y12763500D02*
D03*
Y12687300D02*
D03*
Y12611100D02*
D03*
Y12534900D02*
D03*
Y12458700D02*
D03*
X19786600Y13449300D02*
D03*
Y13373100D02*
D03*
Y13296899D02*
D03*
Y13220700D02*
D03*
Y13144501D02*
D03*
Y13068300D02*
D03*
Y12992101D02*
D03*
Y12915900D02*
D03*
Y12839700D02*
D03*
Y12763500D02*
D03*
Y12687300D02*
D03*
Y12611100D02*
D03*
Y12534900D02*
D03*
Y12458700D02*
D03*
X19710400Y13449300D02*
D03*
Y13373100D02*
D03*
Y13296899D02*
D03*
Y13220700D02*
D03*
Y13144501D02*
D03*
Y13068300D02*
D03*
Y12992101D02*
D03*
Y12915900D02*
D03*
Y12839700D02*
D03*
Y12763500D02*
D03*
Y12687300D02*
D03*
Y12611100D02*
D03*
Y12534900D02*
D03*
Y12458700D02*
D03*
X20167599Y13449300D02*
D03*
Y13373100D02*
D03*
Y13296899D02*
D03*
Y13220700D02*
D03*
Y13144501D02*
D03*
Y13068300D02*
D03*
Y12992101D02*
D03*
Y12915900D02*
D03*
Y12839700D02*
D03*
Y12763500D02*
D03*
Y12687300D02*
D03*
Y12611100D02*
D03*
Y12534900D02*
D03*
Y12458700D02*
D03*
X19634200Y12534900D02*
D03*
X19558000D02*
D03*
X19481799D02*
D03*
X19405600D02*
D03*
X19329401D02*
D03*
X19253200D02*
D03*
X19177000D02*
D03*
X19100800D02*
D03*
X19024600D02*
D03*
X18948399D02*
D03*
X18872200D02*
D03*
X18796001D02*
D03*
X18719800D02*
D03*
X18643600D02*
D03*
X19634200Y12611100D02*
D03*
X19558000D02*
D03*
X19481799D02*
D03*
X19405600D02*
D03*
X19329401D02*
D03*
X19253200D02*
D03*
X19177000D02*
D03*
X19100800D02*
D03*
X19024600D02*
D03*
X18948399D02*
D03*
X18872200D02*
D03*
X18796001D02*
D03*
X18719800D02*
D03*
X18643600D02*
D03*
X19634200Y12687300D02*
D03*
X19558000D02*
D03*
X19481799D02*
D03*
X19405600D02*
D03*
X19329401D02*
D03*
X19253200D02*
D03*
X19177000D02*
D03*
X19100800D02*
D03*
X19024600D02*
D03*
X18948399D02*
D03*
X18872200D02*
D03*
X18796001D02*
D03*
X18719800D02*
D03*
X18643600D02*
D03*
X19634200Y12763500D02*
D03*
X19558000D02*
D03*
X19481799D02*
D03*
X19405600D02*
D03*
X19329401D02*
D03*
X19253200D02*
D03*
X19177000D02*
D03*
X19100800D02*
D03*
X19024600D02*
D03*
X18948399D02*
D03*
X18872200D02*
D03*
X18796001D02*
D03*
X18719800D02*
D03*
X18643600D02*
D03*
X19634200Y12839700D02*
D03*
X19558000D02*
D03*
X19481799D02*
D03*
X19405600D02*
D03*
X19329401D02*
D03*
X19253200D02*
D03*
X19177000D02*
D03*
X19100800D02*
D03*
X19024600D02*
D03*
X18948399D02*
D03*
X18872200D02*
D03*
X18796001D02*
D03*
X18719800D02*
D03*
X18643600D02*
D03*
X19634200Y12915900D02*
D03*
X19558000D02*
D03*
X19481799D02*
D03*
X19405600D02*
D03*
X19329401D02*
D03*
X19253200D02*
D03*
X19177000D02*
D03*
X19100800D02*
D03*
X19024600D02*
D03*
X18948399D02*
D03*
X18872200D02*
D03*
X18796001D02*
D03*
X18719800D02*
D03*
X18643600D02*
D03*
X19634200Y12458700D02*
D03*
X19558000D02*
D03*
X19481799D02*
D03*
X19405600D02*
D03*
X19329401D02*
D03*
X19253200D02*
D03*
X19177000D02*
D03*
X19100800D02*
D03*
X19024600D02*
D03*
X18948399D02*
D03*
X18872200D02*
D03*
X18796001D02*
D03*
X18719800D02*
D03*
X18643600D02*
D03*
X18570921Y12460110D02*
D03*
Y12917310D02*
D03*
Y12841110D02*
D03*
Y12764910D02*
D03*
Y12688710D02*
D03*
Y12612510D02*
D03*
Y12536310D02*
D03*
X19634200Y13068300D02*
D03*
X19558000D02*
D03*
X19481799D02*
D03*
X19405600D02*
D03*
X19329401D02*
D03*
X19253200D02*
D03*
X19177000D02*
D03*
X19100800D02*
D03*
X19024600D02*
D03*
X18948399D02*
D03*
X18872200D02*
D03*
X18796001D02*
D03*
X18719800D02*
D03*
X18643600D02*
D03*
X19634200Y13144501D02*
D03*
X19558000D02*
D03*
X19481799D02*
D03*
X19405600D02*
D03*
X19329401D02*
D03*
X19253200D02*
D03*
X19177000D02*
D03*
X19100800D02*
D03*
X19024600D02*
D03*
X18948399D02*
D03*
X18872200D02*
D03*
X18796001D02*
D03*
X18719800D02*
D03*
X18643600D02*
D03*
X19634200Y13220700D02*
D03*
X19558000D02*
D03*
X19481799D02*
D03*
X19405600D02*
D03*
X19329401D02*
D03*
X19253200D02*
D03*
X19177000D02*
D03*
X19100800D02*
D03*
X19024600D02*
D03*
X18948399D02*
D03*
X18872200D02*
D03*
X18796001D02*
D03*
X18719800D02*
D03*
X18643600D02*
D03*
X19634200Y13296899D02*
D03*
X19558000D02*
D03*
X19481799D02*
D03*
X19405600D02*
D03*
X19329401D02*
D03*
X19253200D02*
D03*
X19177000D02*
D03*
X19100800D02*
D03*
X19024600D02*
D03*
X18948399D02*
D03*
X18872200D02*
D03*
X18796001D02*
D03*
X18719800D02*
D03*
X18643600D02*
D03*
X19634200Y13373100D02*
D03*
X19558000D02*
D03*
X19481799D02*
D03*
X19405600D02*
D03*
X19329401D02*
D03*
X19253200D02*
D03*
X19177000D02*
D03*
X19100800D02*
D03*
X19024600D02*
D03*
X18948399D02*
D03*
X18872200D02*
D03*
X18796001D02*
D03*
X18719800D02*
D03*
X18643600D02*
D03*
X19634200Y13449300D02*
D03*
X19558000D02*
D03*
X19481799D02*
D03*
X19405600D02*
D03*
X19329401D02*
D03*
X19253200D02*
D03*
X19177000D02*
D03*
X19100800D02*
D03*
X19024600D02*
D03*
X18948399D02*
D03*
X18872200D02*
D03*
X18796001D02*
D03*
X18719800D02*
D03*
X18643600D02*
D03*
X19634200Y12992101D02*
D03*
X19558000D02*
D03*
X19481799D02*
D03*
X19405600D02*
D03*
X19329401D02*
D03*
X19253200D02*
D03*
X19177000D02*
D03*
X19100800D02*
D03*
X19024600D02*
D03*
X18948399D02*
D03*
X18872200D02*
D03*
X18796001D02*
D03*
X18719800D02*
D03*
X18643600D02*
D03*
X18570921Y12993510D02*
D03*
Y13450710D02*
D03*
Y13374510D02*
D03*
Y13298309D02*
D03*
Y13222110D02*
D03*
Y13145911D02*
D03*
Y13069710D02*
D03*
X12712700Y10452100D02*
D03*
X12788900D02*
D03*
X12865100D02*
D03*
X12941299D02*
D03*
X13017500D02*
D03*
X13093700D02*
D03*
X12636500D02*
D03*
X12635090Y10379421D02*
D03*
Y10303221D02*
D03*
Y10227021D02*
D03*
Y10150821D02*
D03*
Y10074621D02*
D03*
Y9998421D02*
D03*
Y9922221D02*
D03*
Y9846021D02*
D03*
Y9769821D02*
D03*
Y9693621D02*
D03*
Y9617421D02*
D03*
Y9541221D02*
D03*
Y9465021D02*
D03*
Y9388821D02*
D03*
X13092290Y10379421D02*
D03*
Y10303221D02*
D03*
Y10227021D02*
D03*
Y10150821D02*
D03*
Y10074621D02*
D03*
Y9998421D02*
D03*
Y9922221D02*
D03*
Y9846021D02*
D03*
Y9769821D02*
D03*
Y9693621D02*
D03*
Y9617421D02*
D03*
Y9541221D02*
D03*
Y9465021D02*
D03*
Y9388821D02*
D03*
X13016090Y10379421D02*
D03*
Y10303221D02*
D03*
Y10227021D02*
D03*
Y10150821D02*
D03*
Y10074621D02*
D03*
Y9998421D02*
D03*
Y9922221D02*
D03*
Y9846021D02*
D03*
Y9769821D02*
D03*
Y9693621D02*
D03*
Y9617421D02*
D03*
Y9541221D02*
D03*
Y9465021D02*
D03*
Y9388821D02*
D03*
X12939890Y10379421D02*
D03*
Y10303221D02*
D03*
Y10227021D02*
D03*
Y10150821D02*
D03*
Y10074621D02*
D03*
Y9998421D02*
D03*
Y9922221D02*
D03*
Y9846021D02*
D03*
Y9769821D02*
D03*
Y9693621D02*
D03*
Y9617421D02*
D03*
Y9541221D02*
D03*
Y9465021D02*
D03*
Y9388821D02*
D03*
X12863690Y10379421D02*
D03*
Y10303221D02*
D03*
Y10227021D02*
D03*
Y10150821D02*
D03*
Y10074621D02*
D03*
Y9998421D02*
D03*
Y9922221D02*
D03*
Y9846021D02*
D03*
Y9769821D02*
D03*
Y9693621D02*
D03*
Y9617421D02*
D03*
Y9541221D02*
D03*
Y9465021D02*
D03*
Y9388821D02*
D03*
X12787490Y10379421D02*
D03*
Y10303221D02*
D03*
Y10227021D02*
D03*
Y10150821D02*
D03*
Y10074621D02*
D03*
Y9998421D02*
D03*
Y9922221D02*
D03*
Y9846021D02*
D03*
Y9769821D02*
D03*
Y9693621D02*
D03*
Y9617421D02*
D03*
Y9541221D02*
D03*
Y9465021D02*
D03*
Y9388821D02*
D03*
X12711290Y10379421D02*
D03*
Y10303221D02*
D03*
Y10227021D02*
D03*
Y10150821D02*
D03*
Y10074621D02*
D03*
Y9998421D02*
D03*
Y9922221D02*
D03*
Y9846021D02*
D03*
Y9769821D02*
D03*
Y9693621D02*
D03*
Y9617421D02*
D03*
Y9541221D02*
D03*
Y9465021D02*
D03*
Y9388821D02*
D03*
%TF.MD5,7fe9a3d17d945ab70b92802560d8ee2c*%
M02*
