%TF.GenerationSoftware,Altium Limited,Altium Designer,24.3.1 (35)*%
G04 Layer_Color=2752767*
%FSLAX45Y45*%
%MOMM*%
%TF.SameCoordinates,844131A9-2E1B-4A61-BE1F-69DE975881E6*%
%TF.FilePolarity,Positive*%
%TF.FileFunction,Drawing*%
%TF.Part,Single*%
G01*
G75*
%TA.AperFunction,NonConductor*%
%ADD120C,0.12700*%
%ADD121C,0.16933*%
%ADD122C,0.10160*%
D120*
X6668000Y599200D02*
X6617200Y700800D01*
X6718800D01*
X6668000Y599200D01*
Y619520D02*
X6637520Y680480D01*
X6698480D01*
X6668000Y619520D01*
X4890000Y599200D02*
X4839200Y700800D01*
X4940800D01*
X4890000Y599200D01*
Y619520D02*
X4859520Y680480D01*
X4920480D01*
X4890000Y619520D01*
X6922000Y599200D02*
X6871200Y700800D01*
X6972800D01*
X6922000Y599200D01*
Y619520D02*
X6891520Y680480D01*
X6952480D01*
X6922000Y619520D01*
X7176000Y599200D02*
X7125200Y700800D01*
X7226800D01*
X7176000Y599200D01*
Y619520D02*
X7145520Y680480D01*
X7206480D01*
X7176000Y619520D01*
X6414000Y599200D02*
X6363200Y700800D01*
X6464800D01*
X6414000Y599200D01*
Y619520D02*
X6383520Y680480D01*
X6444480D01*
X6414000Y619520D01*
X5144000Y599200D02*
X5093200Y700800D01*
X5194800D01*
X5144000Y599200D01*
Y619520D02*
X5113520Y680480D01*
X5174480D01*
X5144000Y619520D01*
X7684000Y599200D02*
X7633200Y700800D01*
X7734800D01*
X7684000Y599200D01*
Y619520D02*
X7653520Y680480D01*
X7714480D01*
X7684000Y619520D01*
X6160000Y599200D02*
X6109200Y700800D01*
X6210800D01*
X6160000Y599200D01*
Y619520D02*
X6129520Y680480D01*
X6190480D01*
X6160000Y619520D01*
X8446000Y599200D02*
X8395200Y700800D01*
X8496800D01*
X8446000Y599200D01*
Y619520D02*
X8415520Y680480D01*
X8476480D01*
X8446000Y619520D01*
X8192000Y599200D02*
X8141200Y700800D01*
X8242800D01*
X8192000Y599200D01*
Y619520D02*
X8161520Y680480D01*
X8222480D01*
X8192000Y619520D01*
X7938000Y599200D02*
X7887200Y700800D01*
X7988800D01*
X7938000Y599200D01*
Y619520D02*
X7907520Y680480D01*
X7968480D01*
X7938000Y619520D01*
X5398000Y599200D02*
X5347200Y700800D01*
X5448800D01*
X5398000Y599200D01*
Y619520D02*
X5367520Y680480D01*
X5428480D01*
X5398000Y619520D01*
X7430000Y599200D02*
X7379200Y700800D01*
X7480800D01*
X7430000Y599200D01*
Y619520D02*
X7399520Y680480D01*
X7460480D01*
X7430000Y619520D01*
X5906000Y599200D02*
X5855200Y700800D01*
X5956800D01*
X5906000Y599200D01*
Y619520D02*
X5875520Y680480D01*
X5936480D01*
X5906000Y619520D01*
X8700000Y599200D02*
X8649200Y700800D01*
X8750800D01*
X8700000Y599200D01*
Y619520D02*
X8669520Y680480D01*
X8730480D01*
X8700000Y619520D01*
X5652000Y599200D02*
X5601200Y700800D01*
X5702800D01*
X5652000Y599200D01*
Y619520D02*
X5621520Y680480D01*
X5682480D01*
X5652000Y619520D01*
X4508500Y6197559D02*
Y6070600D01*
X4571979D01*
X4593139Y6091760D01*
Y6112920D01*
X4571979Y6134079D01*
X4508500D01*
X4571979D01*
X4593139Y6155239D01*
Y6176399D01*
X4571979Y6197559D01*
X4508500D01*
X5486400D02*
Y6070600D01*
X5549879D01*
X5571039Y6091760D01*
Y6112920D01*
X5549879Y6134079D01*
X5486400D01*
X5549879D01*
X5571039Y6155239D01*
Y6176399D01*
X5549879Y6197559D01*
X5486400D01*
X8343900Y6210259D02*
Y6083300D01*
X8407379D01*
X8428539Y6104460D01*
Y6125620D01*
X8407379Y6146779D01*
X8343900D01*
X8407379D01*
X8428539Y6167939D01*
Y6189099D01*
X8407379Y6210259D01*
X8343900D01*
X9321800D02*
Y6083300D01*
X9385279D01*
X9406439Y6104460D01*
Y6125620D01*
X9385279Y6146779D01*
X9321800D01*
X9385279D01*
X9406439Y6167939D01*
Y6189099D01*
X9385279Y6210259D01*
X9321800D01*
X23460699Y6294400D02*
Y6396000D01*
X23562300D01*
Y6294400D01*
X23460699D01*
X23481020Y6314720D02*
Y6375680D01*
X23541980D01*
Y6314720D01*
X23481020D01*
X22460699Y6294400D02*
Y6396000D01*
X22562300D01*
Y6294400D01*
X22460699D01*
X22481020Y6314720D02*
Y6375680D01*
X22541980D01*
Y6314720D01*
X22481020D01*
X12475000Y2149200D02*
X12500400Y2174600D01*
X12525800D01*
X12500400Y2200000D01*
X12525800Y2225400D01*
X12500400D01*
X12475000Y2250800D01*
X12449600Y2225400D01*
X12424200D01*
X12449600Y2200000D01*
X12424200Y2174600D01*
X12449600D01*
X12475000Y2149200D01*
Y2169520D02*
X12490240Y2184760D01*
X12505480D01*
X12490240Y2200000D01*
X12505480Y2215240D01*
X12490240D01*
X12475000Y2230480D01*
X12459760Y2215240D01*
X12444520D01*
X12459760Y2200000D01*
X12444520Y2184760D01*
X12459760D01*
X12475000Y2169520D01*
X11725000Y2149200D02*
X11750400Y2174600D01*
X11775800D01*
X11750400Y2200000D01*
X11775800Y2225400D01*
X11750400D01*
X11725000Y2250800D01*
X11699600Y2225400D01*
X11674200D01*
X11699600Y2200000D01*
X11674200Y2174600D01*
X11699600D01*
X11725000Y2149200D01*
Y2169520D02*
X11740240Y2184760D01*
X11755480D01*
X11740240Y2200000D01*
X11755480Y2215240D01*
X11740240D01*
X11725000Y2230480D01*
X11709760Y2215240D01*
X11694520D01*
X11709760Y2200000D01*
X11694520Y2184760D01*
X11709760D01*
X11725000Y2169520D01*
X1816800Y2387600D02*
X1842200Y2413000D01*
X1867600D01*
X1842200Y2438400D01*
X1867600Y2463800D01*
X1842200D01*
X1816800Y2489200D01*
X1791400Y2463800D01*
X1766000D01*
X1791400Y2438400D01*
X1766000Y2413000D01*
X1791400D01*
X1816800Y2387600D01*
Y2407920D02*
X1832040Y2423160D01*
X1847280D01*
X1832040Y2438400D01*
X1847280Y2453640D01*
X1832040D01*
X1816800Y2468880D01*
X1801560Y2453640D01*
X1786320D01*
X1801560Y2438400D01*
X1786320Y2423160D01*
X1801560D01*
X1816800Y2407920D01*
X1066800Y2387600D02*
X1092200Y2413000D01*
X1117600D01*
X1092200Y2438400D01*
X1117600Y2463800D01*
X1092200D01*
X1066800Y2489200D01*
X1041400Y2463800D01*
X1016000D01*
X1041400Y2438400D01*
X1016000Y2413000D01*
X1041400D01*
X1066800Y2387600D01*
Y2407920D02*
X1082040Y2423160D01*
X1097280D01*
X1082040Y2438400D01*
X1097280Y2453640D01*
X1082040D01*
X1066800Y2468880D01*
X1051560Y2453640D01*
X1036320D01*
X1051560Y2438400D01*
X1036320Y2423160D01*
X1051560D01*
X1066800Y2407920D01*
X5810700Y2921000D02*
X5759900Y3022600D01*
X5861500D01*
X5810700Y2921000D01*
Y2941320D02*
X5780220Y3002280D01*
X5841180D01*
X5810700Y2941320D01*
Y2667000D02*
X5759900Y2768600D01*
X5861500D01*
X5810700Y2667000D01*
Y2687320D02*
X5780220Y2748280D01*
X5841180D01*
X5810700Y2687320D01*
Y2413000D02*
X5759900Y2514600D01*
X5861500D01*
X5810700Y2413000D01*
Y2433320D02*
X5780220Y2494280D01*
X5841180D01*
X5810700Y2433320D01*
Y2159000D02*
X5759900Y2260600D01*
X5861500D01*
X5810700Y2159000D01*
Y2179320D02*
X5780220Y2240280D01*
X5841180D01*
X5810700Y2179320D01*
X2667000Y7251700D02*
X2692400D01*
X2717800Y7277100D01*
X2743200Y7251700D01*
X2768600D01*
Y7277100D01*
X2743200Y7302500D01*
X2768600Y7327900D01*
Y7353300D01*
X2743200D01*
X2717800Y7327900D01*
X2692400Y7353300D01*
X2667000D01*
Y7327900D01*
X2692400Y7302500D01*
X2667000Y7277100D01*
Y7251700D01*
Y6235700D02*
X2692400D01*
X2717800Y6261100D01*
X2743200Y6235700D01*
X2768600D01*
Y6261100D01*
X2743200Y6286500D01*
X2768600Y6311900D01*
Y6337300D01*
X2743200D01*
X2717800Y6311900D01*
X2692400Y6337300D01*
X2667000D01*
Y6311900D01*
X2692400Y6286500D01*
X2667000Y6261100D01*
Y6235700D01*
X508000Y6985000D02*
X558800Y7035800D01*
X609600Y6985000D01*
X558800Y6934200D01*
X508000Y6985000D01*
Y6794500D02*
X558800Y6845300D01*
X609600Y6794500D01*
X558800Y6743700D01*
X508000Y6794500D01*
Y6604000D02*
X558800Y6654800D01*
X609600Y6604000D01*
X558800Y6553200D01*
X508000Y6604000D01*
X2632600Y11085700D02*
Y11187300D01*
X2734200D01*
Y11085700D01*
X2632600D01*
X5832600D02*
Y11187300D01*
X5934200D01*
Y11085700D01*
X5832600D01*
X604198Y8199201D02*
X629598Y8250001D01*
X604198Y8300801D01*
X654998Y8275401D01*
X705798Y8300801D01*
X680398Y8250001D01*
X705798Y8199201D01*
X654998Y8224601D01*
X604198Y8199201D01*
X624518Y8219521D02*
X639758Y8250001D01*
X624518Y8280481D01*
X654998Y8265241D01*
X685478Y8280481D01*
X670238Y8250001D01*
X685478Y8219521D01*
X654998Y8234761D01*
X624518Y8219521D01*
X604198Y8699200D02*
X629598Y8750000D01*
X604198Y8800800D01*
X654998Y8775400D01*
X705798Y8800800D01*
X680398Y8750000D01*
X705798Y8699200D01*
X654998Y8724600D01*
X604198Y8699200D01*
X624518Y8719520D02*
X639758Y8750000D01*
X624518Y8780480D01*
X654998Y8765240D01*
X685478Y8780480D01*
X670238Y8750000D01*
X685478Y8719520D01*
X654998Y8734760D01*
X624518Y8719520D01*
X21793201Y8699500D02*
X21844000Y8750300D01*
X21894800Y8699500D01*
X21844000Y8648700D01*
X21793201Y8699500D01*
Y8890000D02*
X21844000Y8940800D01*
X21894800Y8890000D01*
X21844000Y8839200D01*
X21793201Y8890000D01*
Y9080500D02*
X21844000Y9131300D01*
X21894800Y9080500D01*
X21844000Y9029700D01*
X21793201Y9080500D01*
X23952200Y8331200D02*
X23977600D01*
X24003000Y8356600D01*
X24028400Y8331200D01*
X24053799D01*
Y8356600D01*
X24028400Y8382000D01*
X24053799Y8407400D01*
Y8432800D01*
X24028400D01*
X24003000Y8407400D01*
X23977600Y8432800D01*
X23952200D01*
Y8407400D01*
X23977600Y8382000D01*
X23952200Y8356600D01*
Y8331200D01*
Y9347200D02*
X23977600D01*
X24003000Y9372600D01*
X24028400Y9347200D01*
X24053799D01*
Y9372600D01*
X24028400Y9398000D01*
X24053799Y9423400D01*
Y9448800D01*
X24028400D01*
X24003000Y9423400D01*
X23977600Y9448800D01*
X23952200D01*
Y9423400D01*
X23977600Y9398000D01*
X23952200Y9372600D01*
Y9347200D01*
X24860699Y1494400D02*
Y1596000D01*
X24962300D01*
Y1494400D01*
X24860699D01*
X24881020Y1514720D02*
Y1575680D01*
X24941980D01*
Y1514720D01*
X24881020D01*
X25860699Y1494400D02*
Y1596000D01*
X25962299D01*
Y1494400D01*
X25860699D01*
X25881021Y1514720D02*
Y1575680D01*
X25941980D01*
Y1514720D01*
X25881021D01*
X22460699Y1494400D02*
Y1596000D01*
X22562300D01*
Y1494400D01*
X22460699D01*
X22481020Y1514720D02*
Y1575680D01*
X22541980D01*
Y1514720D01*
X22481020D01*
X23460699Y1494400D02*
Y1596000D01*
X23562300D01*
Y1494400D01*
X23460699D01*
X23481020Y1514720D02*
Y1575680D01*
X23541980D01*
Y1514720D01*
X23481020D01*
X22460699Y3894400D02*
Y3996000D01*
X22562300D01*
Y3894400D01*
X22460699D01*
X22481020Y3914720D02*
Y3975680D01*
X22541980D01*
Y3914720D01*
X22481020D01*
X23460699Y3894400D02*
Y3996000D01*
X23562300D01*
Y3894400D01*
X23460699D01*
X23481020Y3914720D02*
Y3975680D01*
X23541980D01*
Y3914720D01*
X23481020D01*
X24860699Y6294400D02*
Y6396000D01*
X24962300D01*
Y6294400D01*
X24860699D01*
X24881020Y6314720D02*
Y6375680D01*
X24941980D01*
Y6314720D01*
X24881020D01*
X25860699Y6294400D02*
Y6396000D01*
X25962299D01*
Y6294400D01*
X25860699D01*
X25881021Y6314720D02*
Y6375680D01*
X25941980D01*
Y6314720D01*
X25881021D01*
X24860699Y3894400D02*
Y3996000D01*
X24962300D01*
Y3894400D01*
X24860699D01*
X24881020Y3914720D02*
Y3975680D01*
X24941980D01*
Y3914720D01*
X24881020D01*
X25860699Y3894400D02*
Y3996000D01*
X25962299D01*
Y3894400D01*
X25860699D01*
X25881021Y3914720D02*
Y3975680D01*
X25941980D01*
Y3914720D01*
X25881021D01*
X18956400Y11049200D02*
X18905600Y11150800D01*
X19007201D01*
X18956400Y11049200D01*
X17864200D02*
X17813400Y11150800D01*
X17914999D01*
X17864200Y11049200D01*
X15681400D02*
X15630600Y11150800D01*
X15732201D01*
X15681400Y11049200D01*
X14589200D02*
X14538400Y11150800D01*
X14639999D01*
X14589200Y11049200D01*
X25435800D02*
X25385001Y11150800D01*
X25486600D01*
X25435800Y11049200D01*
X24343600D02*
X24292799Y11150800D01*
X24394400D01*
X24343600Y11049200D01*
X22185800D02*
X22135001Y11150800D01*
X22236600D01*
X22185800Y11049200D01*
X21093600D02*
X21042799Y11150800D01*
X21144400D01*
X21093600Y11049200D01*
X1565800Y11085700D02*
Y11187300D01*
X1667400D01*
Y11085700D01*
X1565800D01*
X2099200D02*
Y11187300D01*
X2200800D01*
Y11085700D01*
X2099200D01*
X25063400Y9349200D02*
X25088800Y9374600D01*
X25114200D01*
X25088800Y9400000D01*
X25114200Y9425400D01*
X25088800D01*
X25063400Y9450800D01*
X25038000Y9425400D01*
X25012601D01*
X25038000Y9400000D01*
X25012601Y9374600D01*
X25038000D01*
X25063400Y9349200D01*
X26054001D02*
X26079401Y9374600D01*
X26104800D01*
X26079401Y9400000D01*
X26104800Y9425400D01*
X26079401D01*
X26054001Y9450800D01*
X26028601Y9425400D01*
X26003201D01*
X26028601Y9400000D01*
X26003201Y9374600D01*
X26028601D01*
X26054001Y9349200D01*
X25063400Y8349200D02*
X25088800Y8374600D01*
X25114200D01*
X25088800Y8400000D01*
X25114200Y8425400D01*
X25088800D01*
X25063400Y8450800D01*
X25038000Y8425400D01*
X25012601D01*
X25038000Y8400000D01*
X25012601Y8374600D01*
X25038000D01*
X25063400Y8349200D01*
X26054001D02*
X26079401Y8374600D01*
X26104800D01*
X26079401Y8400000D01*
X26104800Y8425400D01*
X26079401D01*
X26054001Y8450800D01*
X26028601Y8425400D01*
X26003201D01*
X26028601Y8400000D01*
X26003201Y8374600D01*
X26028601D01*
X26054001Y8349200D01*
X4765800Y11085700D02*
Y11187300D01*
X4867400D01*
Y11085700D01*
X4765800D01*
X5299200D02*
Y11187300D01*
X5400800D01*
Y11085700D01*
X5299200D01*
X8015800D02*
Y11187300D01*
X8117400D01*
Y11085700D01*
X8015800D01*
X8549200D02*
Y11187300D01*
X8650800D01*
Y11085700D01*
X8549200D01*
X9082600D02*
Y11187300D01*
X9184200D01*
Y11085700D01*
X9082600D01*
X11265800D02*
Y11187300D01*
X11367400D01*
Y11085700D01*
X11265800D01*
X11799200D02*
Y11187300D01*
X11900800D01*
Y11085700D01*
X11799200D01*
X12332600D02*
Y11187300D01*
X12434200D01*
Y11085700D01*
X12332600D01*
X16199200Y11669200D02*
X16224600D01*
X16250000Y11694600D01*
X16275400Y11669200D01*
X16300800D01*
Y11694600D01*
X16275400Y11720000D01*
X16300800Y11745400D01*
Y11770800D01*
X16275400D01*
X16250000Y11745400D01*
X16224600Y11770800D01*
X16199200D01*
Y11745400D01*
X16224600Y11720000D01*
X16199200Y11694600D01*
Y11669200D01*
X16219521Y11689520D02*
X16234760D01*
X16250000Y11704760D01*
X16265240Y11689520D01*
X16280479D01*
Y11704760D01*
X16265240Y11720000D01*
X16280479Y11735240D01*
Y11750480D01*
X16265240D01*
X16250000Y11735240D01*
X16234760Y11750480D01*
X16219521D01*
Y11735240D01*
X16234760Y11720000D01*
X16219521Y11704760D01*
Y11689520D01*
X23699200Y11669200D02*
X23724600D01*
X23750000Y11694600D01*
X23775400Y11669200D01*
X23800800D01*
Y11694600D01*
X23775400Y11720000D01*
X23800800Y11745400D01*
Y11770800D01*
X23775400D01*
X23750000Y11745400D01*
X23724600Y11770800D01*
X23699200D01*
Y11745400D01*
X23724600Y11720000D01*
X23699200Y11694600D01*
Y11669200D01*
X23719521Y11689520D02*
X23734760D01*
X23750000Y11704760D01*
X23765240Y11689520D01*
X23780479D01*
Y11704760D01*
X23765240Y11720000D01*
X23780479Y11735240D01*
Y11750480D01*
X23765240D01*
X23750000Y11735240D01*
X23734760Y11750480D01*
X23719521D01*
Y11735240D01*
X23734760Y11720000D01*
X23719521Y11704760D01*
Y11689520D01*
X19949200Y11669200D02*
X19974600D01*
X20000000Y11694600D01*
X20025400Y11669200D01*
X20050800D01*
Y11694600D01*
X20025400Y11720000D01*
X20050800Y11745400D01*
Y11770800D01*
X20025400D01*
X20000000Y11745400D01*
X19974600Y11770800D01*
X19949200D01*
Y11745400D01*
X19974600Y11720000D01*
X19949200Y11694600D01*
Y11669200D01*
X19969521Y11689520D02*
X19984760D01*
X20000000Y11704760D01*
X20015240Y11689520D01*
X20030479D01*
Y11704760D01*
X20015240Y11720000D01*
X20030479Y11735240D01*
Y11750480D01*
X20015240D01*
X20000000Y11735240D01*
X19984760Y11750480D01*
X19969521D01*
Y11735240D01*
X19984760Y11720000D01*
X19969521Y11704760D01*
Y11689520D01*
X3199200Y11669200D02*
X3224600D01*
X3250000Y11694600D01*
X3275400Y11669200D01*
X3300800D01*
Y11694600D01*
X3275400Y11720000D01*
X3300800Y11745400D01*
Y11770800D01*
X3275400D01*
X3250000Y11745400D01*
X3224600Y11770800D01*
X3199200D01*
Y11745400D01*
X3224600Y11720000D01*
X3199200Y11694600D01*
Y11669200D01*
X3219520Y11689520D02*
X3234760D01*
X3250000Y11704760D01*
X3265240Y11689520D01*
X3280480D01*
Y11704760D01*
X3265240Y11720000D01*
X3280480Y11735240D01*
Y11750480D01*
X3265240D01*
X3250000Y11735240D01*
X3234760Y11750480D01*
X3219520D01*
Y11735240D01*
X3234760Y11720000D01*
X3219520Y11704760D01*
Y11689520D01*
X10699200Y11669200D02*
X10724600D01*
X10750000Y11694600D01*
X10775400Y11669200D01*
X10800800D01*
Y11694600D01*
X10775400Y11720000D01*
X10800800Y11745400D01*
Y11770800D01*
X10775400D01*
X10750000Y11745400D01*
X10724600Y11770800D01*
X10699200D01*
Y11745400D01*
X10724600Y11720000D01*
X10699200Y11694600D01*
Y11669200D01*
X10719520Y11689520D02*
X10734760D01*
X10750000Y11704760D01*
X10765240Y11689520D01*
X10780480D01*
Y11704760D01*
X10765240Y11720000D01*
X10780480Y11735240D01*
Y11750480D01*
X10765240D01*
X10750000Y11735240D01*
X10734760Y11750480D01*
X10719520D01*
Y11735240D01*
X10734760Y11720000D01*
X10719520Y11704760D01*
Y11689520D01*
X6949200Y11669200D02*
X6974600D01*
X7000000Y11694600D01*
X7025400Y11669200D01*
X7050800D01*
Y11694600D01*
X7025400Y11720000D01*
X7050800Y11745400D01*
Y11770800D01*
X7025400D01*
X7000000Y11745400D01*
X6974600Y11770800D01*
X6949200D01*
Y11745400D01*
X6974600Y11720000D01*
X6949200Y11694600D01*
Y11669200D01*
X6969520Y11689520D02*
X6984760D01*
X7000000Y11704760D01*
X7015240Y11689520D01*
X7030480D01*
Y11704760D01*
X7015240Y11720000D01*
X7030480Y11735240D01*
Y11750480D01*
X7015240D01*
X7000000Y11735240D01*
X6984760Y11750480D01*
X6969520D01*
Y11735240D01*
X6984760Y11720000D01*
X6969520Y11704760D01*
Y11689520D01*
X2036600Y4949200D02*
X2062000Y4974600D01*
X2087400D01*
X2062000Y5000000D01*
X2087400Y5025400D01*
X2062000D01*
X2036600Y5050800D01*
X2011200Y5025400D01*
X1985800D01*
X2011200Y5000000D01*
X1985800Y4974600D01*
X2011200D01*
X2036600Y4949200D01*
X1046000D02*
X1071400Y4974600D01*
X1096800D01*
X1071400Y5000000D01*
X1096800Y5025400D01*
X1071400D01*
X1046000Y5050800D01*
X1020600Y5025400D01*
X995200D01*
X1020600Y5000000D01*
X995200Y4974600D01*
X1020600D01*
X1046000Y4949200D01*
X2036600Y3949200D02*
X2062000Y3974600D01*
X2087400D01*
X2062000Y4000000D01*
X2087400Y4025400D01*
X2062000D01*
X2036600Y4050800D01*
X2011200Y4025400D01*
X1985800D01*
X2011200Y4000000D01*
X1985800Y3974600D01*
X2011200D01*
X2036600Y3949200D01*
X1046000D02*
X1071400Y3974600D01*
X1096800D01*
X1071400Y4000000D01*
X1096800Y4025400D01*
X1071400D01*
X1046000Y4050800D01*
X1020600Y4025400D01*
X995200D01*
X1020600Y4000000D01*
X995200Y3974600D01*
X1020600D01*
X1046000Y3949200D01*
X14449200Y2599200D02*
X14474600Y2650000D01*
X14449200Y2700800D01*
X14500000Y2675400D01*
X14550800Y2700800D01*
X14525400Y2650000D01*
X14550800Y2599200D01*
X14500000Y2624600D01*
X14449200Y2599200D01*
X19474600Y5474600D02*
Y5449200D01*
X19525400D01*
Y5474600D01*
X19550800D01*
Y5525400D01*
X19525400D01*
Y5550800D01*
X19474600D01*
Y5525400D01*
X19449200D01*
Y5474600D01*
X19474600D01*
X14474600D02*
Y5449200D01*
X14525400D01*
Y5474600D01*
X14550800D01*
Y5525400D01*
X14525400D01*
Y5550800D01*
X14474600D01*
Y5525400D01*
X14449200D01*
Y5474600D01*
X14474600D01*
X14449200Y8299200D02*
X14474600Y8350000D01*
X14449200Y8400800D01*
X14500000Y8375400D01*
X14550800Y8400800D01*
X14525400Y8350000D01*
X14550800Y8299200D01*
X14500000Y8324600D01*
X14449200Y8299200D01*
X19449200D02*
X19474600Y8350000D01*
X19449200Y8400800D01*
X19500000Y8375400D01*
X19550800Y8400800D01*
X19525400Y8350000D01*
X19550800Y8299200D01*
X19500000Y8324600D01*
X19449200Y8299200D01*
Y2599200D02*
X19474600Y2650000D01*
X19449200Y2700800D01*
X19500000Y2675400D01*
X19550800Y2700800D01*
X19525400Y2650000D01*
X19550800Y2599200D01*
X19500000Y2624600D01*
X19449200Y2599200D01*
X11799200Y604198D02*
X11824600Y654998D01*
X11799200Y705798D01*
X11850000Y680398D01*
X11900800Y705798D01*
X11875400Y654998D01*
X11900800Y604198D01*
X11850000Y629598D01*
X11799200Y604198D01*
X11819520Y624518D02*
X11834760Y654998D01*
X11819520Y685478D01*
X11850000Y670238D01*
X11880480Y685478D01*
X11865240Y654998D01*
X11880480Y624518D01*
X11850000Y639758D01*
X11819520Y624518D01*
X12299199Y604198D02*
X12324599Y654998D01*
X12299199Y705798D01*
X12349999Y680398D01*
X12400799Y705798D01*
X12375399Y654998D01*
X12400799Y604198D01*
X12349999Y629598D01*
X12299199Y604198D01*
X12319519Y624518D02*
X12334759Y654998D01*
X12319519Y685478D01*
X12349999Y670238D01*
X12380479Y685478D01*
X12365239Y654998D01*
X12380479Y624518D01*
X12349999Y639758D01*
X12319519Y624518D01*
X1199201Y604198D02*
X1224601Y654998D01*
X1199201Y705798D01*
X1250001Y680398D01*
X1300801Y705798D01*
X1275401Y654998D01*
X1300801Y604198D01*
X1250001Y629598D01*
X1199201Y604198D01*
X1219521Y624518D02*
X1234761Y654998D01*
X1219521Y685478D01*
X1250001Y670238D01*
X1280481Y685478D01*
X1265241Y654998D01*
X1280481Y624518D01*
X1250001Y639758D01*
X1219521Y624518D01*
X1699200Y604198D02*
X1724600Y654998D01*
X1699200Y705798D01*
X1750000Y680398D01*
X1800800Y705798D01*
X1775400Y654998D01*
X1800800Y604198D01*
X1750000Y629598D01*
X1699200Y604198D01*
X1719520Y624518D02*
X1734760Y654998D01*
X1719520Y685478D01*
X1750000Y670238D01*
X1780480Y685478D01*
X1765240Y654998D01*
X1780480Y624518D01*
X1750000Y639758D01*
X1719520Y624518D01*
X8839200Y9918700D02*
Y10003339D01*
X8881520Y10045659D01*
X8923839Y10003339D01*
Y9918700D01*
Y9982179D01*
X8839200D01*
X8928100Y9271000D02*
Y9355639D01*
X8970420Y9397959D01*
X9012739Y9355639D01*
Y9271000D01*
Y9334479D01*
X8928100D01*
X11887200Y7162800D02*
Y7247439D01*
X11929520Y7289759D01*
X11971839Y7247439D01*
Y7162800D01*
Y7226279D01*
X11887200D01*
X11391900Y6667500D02*
Y6752139D01*
X11434220Y6794459D01*
X11476539Y6752139D01*
Y6667500D01*
Y6730979D01*
X11391900D01*
X7230100Y1206500D02*
Y1181100D01*
X7280900D01*
Y1206500D01*
X7306300D01*
Y1257300D01*
X7280900D01*
Y1282700D01*
X7230100D01*
Y1257300D01*
X7204700D01*
Y1206500D01*
X7230100D01*
X7240260Y1216660D02*
Y1201420D01*
X7270740D01*
Y1216660D01*
X7285980D01*
Y1247140D01*
X7270740D01*
Y1262380D01*
X7240260D01*
Y1247140D01*
X7225020D01*
Y1216660D01*
X7240260D01*
X5016500Y3543300D02*
Y3627939D01*
X5058820Y3670259D01*
X5101139Y3627939D01*
Y3543300D01*
Y3606779D01*
X5016500D01*
X7327900Y2286000D02*
Y2260600D01*
X7378700D01*
Y2286000D01*
X7404100D01*
Y2336800D01*
X7378700D01*
Y2362200D01*
X7327900D01*
Y2336800D01*
X7302500D01*
Y2286000D01*
X7327900D01*
X7338060Y2296160D02*
Y2280920D01*
X7368540D01*
Y2296160D01*
X7383780D01*
Y2326640D01*
X7368540D01*
Y2341880D01*
X7338060D01*
Y2326640D01*
X7322820D01*
Y2296160D01*
X7338060D01*
X7073900Y3314700D02*
Y3289300D01*
X7124700D01*
Y3314700D01*
X7150100D01*
Y3365500D01*
X7124700D01*
Y3390900D01*
X7073900D01*
Y3365500D01*
X7048500D01*
Y3314700D01*
X7073900D01*
X7084060Y3324860D02*
Y3309620D01*
X7114540D01*
Y3324860D01*
X7129780D01*
Y3355340D01*
X7114540D01*
Y3370580D01*
X7084060D01*
Y3355340D01*
X7068820D01*
Y3324860D01*
X7084060D01*
X7277100Y3035300D02*
Y3009900D01*
X7327900D01*
Y3035300D01*
X7353300D01*
Y3086100D01*
X7327900D01*
Y3111500D01*
X7277100D01*
Y3086100D01*
X7251700D01*
Y3035300D01*
X7277100D01*
X7287260Y3045460D02*
Y3030220D01*
X7317740D01*
Y3045460D01*
X7332980D01*
Y3075940D01*
X7317740D01*
Y3091180D01*
X7287260D01*
Y3075940D01*
X7272020D01*
Y3045460D01*
X7287260D01*
X8191500Y3035300D02*
Y3009900D01*
X8242300D01*
Y3035300D01*
X8267700D01*
Y3086100D01*
X8242300D01*
Y3111500D01*
X8191500D01*
Y3086100D01*
X8166100D01*
Y3035300D01*
X8191500D01*
X8201660Y3045460D02*
Y3030220D01*
X8232140D01*
Y3045460D01*
X8247380D01*
Y3075940D01*
X8232140D01*
Y3091180D01*
X8201660D01*
Y3075940D01*
X8186420D01*
Y3045460D01*
X8201660D01*
X8255000Y2286000D02*
Y2260600D01*
X8305800D01*
Y2286000D01*
X8331200D01*
Y2336800D01*
X8305800D01*
Y2362200D01*
X8255000D01*
Y2336800D01*
X8229600D01*
Y2286000D01*
X8255000D01*
X8265160Y2296160D02*
Y2280920D01*
X8295640D01*
Y2296160D01*
X8310880D01*
Y2326640D01*
X8295640D01*
Y2341880D01*
X8265160D01*
Y2326640D01*
X8249920D01*
Y2296160D01*
X8265160D01*
X7391400Y1739900D02*
Y1714500D01*
X7442200D01*
Y1739900D01*
X7467600D01*
Y1790700D01*
X7442200D01*
Y1816100D01*
X7391400D01*
Y1790700D01*
X7366000D01*
Y1739900D01*
X7391400D01*
X7401560Y1750060D02*
Y1734820D01*
X7432040D01*
Y1750060D01*
X7447280D01*
Y1780540D01*
X7432040D01*
Y1795780D01*
X7401560D01*
Y1780540D01*
X7386320D01*
Y1750060D01*
X7401560D01*
X6705600Y2082800D02*
Y2057400D01*
X6756400D01*
Y2082800D01*
X6781800D01*
Y2133600D01*
X6756400D01*
Y2159000D01*
X6705600D01*
Y2133600D01*
X6680200D01*
Y2082800D01*
X6705600D01*
X6715760Y2092960D02*
Y2077720D01*
X6746240D01*
Y2092960D01*
X6761480D01*
Y2123440D01*
X6746240D01*
Y2138680D01*
X6715760D01*
Y2123440D01*
X6700520D01*
Y2092960D01*
X6715760D01*
X7378700Y1104900D02*
Y1079500D01*
X7429500D01*
Y1104900D01*
X7454900D01*
Y1155700D01*
X7429500D01*
Y1181100D01*
X7378700D01*
Y1155700D01*
X7353300D01*
Y1104900D01*
X7378700D01*
X7388860Y1115060D02*
Y1099820D01*
X7419340D01*
Y1115060D01*
X7434580D01*
Y1145540D01*
X7419340D01*
Y1160780D01*
X7388860D01*
Y1145540D01*
X7373620D01*
Y1115060D01*
X7388860D01*
X3721100Y8483600D02*
Y8568239D01*
X3763420Y8610559D01*
X3805739Y8568239D01*
Y8483600D01*
Y8547079D01*
X3721100D01*
X5041900Y9093200D02*
Y9177839D01*
X5084220Y9220159D01*
X5126539Y9177839D01*
Y9093200D01*
Y9156679D01*
X5041900D01*
X7023100Y7073900D02*
Y7048500D01*
X7073900D01*
Y7073900D01*
X7099300D01*
Y7124700D01*
X7073900D01*
Y7150100D01*
X7023100D01*
Y7124700D01*
X6997700D01*
Y7073900D01*
X7023100D01*
X7033260Y7084060D02*
Y7068820D01*
X7063740D01*
Y7084060D01*
X7078980D01*
Y7114540D01*
X7063740D01*
Y7129780D01*
X7033260D01*
Y7114540D01*
X7018020D01*
Y7084060D01*
X7033260D01*
X8953500Y1981200D02*
Y1955800D01*
X9004300D01*
Y1981200D01*
X9029700D01*
Y2032000D01*
X9004300D01*
Y2057400D01*
X8953500D01*
Y2032000D01*
X8928100D01*
Y1981200D01*
X8953500D01*
X8963660Y1991360D02*
Y1976120D01*
X8994140D01*
Y1991360D01*
X9009380D01*
Y2021840D01*
X8994140D01*
Y2037080D01*
X8963660D01*
Y2021840D01*
X8948420D01*
Y1991360D01*
X8963660D01*
X8788400Y2108200D02*
Y2082800D01*
X8839200D01*
Y2108200D01*
X8864600D01*
Y2159000D01*
X8839200D01*
Y2184400D01*
X8788400D01*
Y2159000D01*
X8763000D01*
Y2108200D01*
X8788400D01*
X8798560Y2118360D02*
Y2103120D01*
X8829040D01*
Y2118360D01*
X8844280D01*
Y2148840D01*
X8829040D01*
Y2164080D01*
X8798560D01*
Y2148840D01*
X8783320D01*
Y2118360D01*
X8798560D01*
X21539200Y8382000D02*
Y8356600D01*
X21589999D01*
Y8382000D01*
X21615401D01*
Y8432800D01*
X21589999D01*
Y8458200D01*
X21539200D01*
Y8432800D01*
X21513800D01*
Y8382000D01*
X21539200D01*
X21549361Y8392160D02*
Y8376920D01*
X21579840D01*
Y8392160D01*
X21595081D01*
Y8422640D01*
X21579840D01*
Y8437880D01*
X21549361D01*
Y8422640D01*
X21534120D01*
Y8392160D01*
X21549361D01*
X21247099Y8737600D02*
Y8712200D01*
X21297900D01*
Y8737600D01*
X21323300D01*
Y8788400D01*
X21297900D01*
Y8813800D01*
X21247099D01*
Y8788400D01*
X21221700D01*
Y8737600D01*
X21247099D01*
X21257260Y8747760D02*
Y8732520D01*
X21287740D01*
Y8747760D01*
X21302980D01*
Y8778240D01*
X21287740D01*
Y8793480D01*
X21257260D01*
Y8778240D01*
X21242020D01*
Y8747760D01*
X21257260D01*
X21361400Y9067800D02*
Y9042400D01*
X21412199D01*
Y9067800D01*
X21437601D01*
Y9118600D01*
X21412199D01*
Y9144000D01*
X21361400D01*
Y9118600D01*
X21336000D01*
Y9067800D01*
X21361400D01*
X21371561Y9077960D02*
Y9062720D01*
X21402040D01*
Y9077960D01*
X21417281D01*
Y9108440D01*
X21402040D01*
Y9123680D01*
X21371561D01*
Y9108440D01*
X21356320D01*
Y9077960D01*
X21371561D01*
X20066000Y13423900D02*
Y13398500D01*
X20116800D01*
Y13423900D01*
X20142200D01*
Y13474699D01*
X20116800D01*
Y13500101D01*
X20066000D01*
Y13474699D01*
X20040601D01*
Y13423900D01*
X20066000D01*
X20076160Y13434061D02*
Y13418820D01*
X20106641D01*
Y13434061D01*
X20121880D01*
Y13464540D01*
X20106641D01*
Y13479781D01*
X20076160D01*
Y13464540D01*
X20060921D01*
Y13434061D01*
X20076160D01*
X20066000Y13347701D02*
Y13322301D01*
X20116800D01*
Y13347701D01*
X20142200D01*
Y13398500D01*
X20116800D01*
Y13423900D01*
X20066000D01*
Y13398500D01*
X20040601D01*
Y13347701D01*
X20066000D01*
X20076160Y13357860D02*
Y13342619D01*
X20106641D01*
Y13357860D01*
X20121880D01*
Y13388341D01*
X20106641D01*
Y13403580D01*
X20076160D01*
Y13388341D01*
X20060921D01*
Y13357860D01*
X20076160D01*
X20066000Y13271500D02*
Y13246100D01*
X20116800D01*
Y13271500D01*
X20142200D01*
Y13322301D01*
X20116800D01*
Y13347701D01*
X20066000D01*
Y13322301D01*
X20040601D01*
Y13271500D01*
X20066000D01*
X20076160Y13281660D02*
Y13266420D01*
X20106641D01*
Y13281660D01*
X20121880D01*
Y13312140D01*
X20106641D01*
Y13327380D01*
X20076160D01*
Y13312140D01*
X20060921D01*
Y13281660D01*
X20076160D01*
X20066000Y13195300D02*
Y13169901D01*
X20116800D01*
Y13195300D01*
X20142200D01*
Y13246100D01*
X20116800D01*
Y13271500D01*
X20066000D01*
Y13246100D01*
X20040601D01*
Y13195300D01*
X20066000D01*
X20076160Y13205460D02*
Y13190221D01*
X20106641D01*
Y13205460D01*
X20121880D01*
Y13235941D01*
X20106641D01*
Y13251180D01*
X20076160D01*
Y13235941D01*
X20060921D01*
Y13205460D01*
X20076160D01*
X20066000Y13119099D02*
Y13093700D01*
X20116800D01*
Y13119099D01*
X20142200D01*
Y13169901D01*
X20116800D01*
Y13195300D01*
X20066000D01*
Y13169901D01*
X20040601D01*
Y13119099D01*
X20066000D01*
X20076160Y13129260D02*
Y13114020D01*
X20106641D01*
Y13129260D01*
X20121880D01*
Y13159740D01*
X20106641D01*
Y13174980D01*
X20076160D01*
Y13159740D01*
X20060921D01*
Y13129260D01*
X20076160D01*
X20066000Y13042900D02*
Y13017500D01*
X20116800D01*
Y13042900D01*
X20142200D01*
Y13093700D01*
X20116800D01*
Y13119099D01*
X20066000D01*
Y13093700D01*
X20040601D01*
Y13042900D01*
X20066000D01*
X20076160Y13053059D02*
Y13037820D01*
X20106641D01*
Y13053059D01*
X20121880D01*
Y13083540D01*
X20106641D01*
Y13098779D01*
X20076160D01*
Y13083540D01*
X20060921D01*
Y13053059D01*
X20076160D01*
X20066000Y12966701D02*
Y12941299D01*
X20116800D01*
Y12966701D01*
X20142200D01*
Y13017500D01*
X20116800D01*
Y13042900D01*
X20066000D01*
Y13017500D01*
X20040601D01*
Y12966701D01*
X20066000D01*
X20076160Y12976860D02*
Y12961620D01*
X20106641D01*
Y12976860D01*
X20121880D01*
Y13007339D01*
X20106641D01*
Y13022580D01*
X20076160D01*
Y13007339D01*
X20060921D01*
Y12976860D01*
X20076160D01*
X20066000Y12890500D02*
Y12865100D01*
X20116800D01*
Y12890500D01*
X20142200D01*
Y12941299D01*
X20116800D01*
Y12966701D01*
X20066000D01*
Y12941299D01*
X20040601D01*
Y12890500D01*
X20066000D01*
X20076160Y12900661D02*
Y12885420D01*
X20106641D01*
Y12900661D01*
X20121880D01*
Y12931140D01*
X20106641D01*
Y12946381D01*
X20076160D01*
Y12931140D01*
X20060921D01*
Y12900661D01*
X20076160D01*
X20066000Y12814301D02*
Y12788900D01*
X20116800D01*
Y12814301D01*
X20142200D01*
Y12865100D01*
X20116800D01*
Y12890500D01*
X20066000D01*
Y12865100D01*
X20040601D01*
Y12814301D01*
X20066000D01*
X20076160Y12824460D02*
Y12809219D01*
X20106641D01*
Y12824460D01*
X20121880D01*
Y12854939D01*
X20106641D01*
Y12870180D01*
X20076160D01*
Y12854939D01*
X20060921D01*
Y12824460D01*
X20076160D01*
X20066000Y12738100D02*
Y12712700D01*
X20116800D01*
Y12738100D01*
X20142200D01*
Y12788900D01*
X20116800D01*
Y12814301D01*
X20066000D01*
Y12788900D01*
X20040601D01*
Y12738100D01*
X20066000D01*
X20076160Y12748260D02*
Y12733020D01*
X20106641D01*
Y12748260D01*
X20121880D01*
Y12778740D01*
X20106641D01*
Y12793980D01*
X20076160D01*
Y12778740D01*
X20060921D01*
Y12748260D01*
X20076160D01*
X20066000Y12661900D02*
Y12636500D01*
X20116800D01*
Y12661900D01*
X20142200D01*
Y12712700D01*
X20116800D01*
Y12738100D01*
X20066000D01*
Y12712700D01*
X20040601D01*
Y12661900D01*
X20066000D01*
X20076160Y12672060D02*
Y12656820D01*
X20106641D01*
Y12672060D01*
X20121880D01*
Y12702540D01*
X20106641D01*
Y12717780D01*
X20076160D01*
Y12702540D01*
X20060921D01*
Y12672060D01*
X20076160D01*
X20066000Y12585700D02*
Y12560300D01*
X20116800D01*
Y12585700D01*
X20142200D01*
Y12636500D01*
X20116800D01*
Y12661900D01*
X20066000D01*
Y12636500D01*
X20040601D01*
Y12585700D01*
X20066000D01*
X20076160Y12595860D02*
Y12580620D01*
X20106641D01*
Y12595860D01*
X20121880D01*
Y12626340D01*
X20106641D01*
Y12641580D01*
X20076160D01*
Y12626340D01*
X20060921D01*
Y12595860D01*
X20076160D01*
X20066000Y12509500D02*
Y12484100D01*
X20116800D01*
Y12509500D01*
X20142200D01*
Y12560300D01*
X20116800D01*
Y12585700D01*
X20066000D01*
Y12560300D01*
X20040601D01*
Y12509500D01*
X20066000D01*
X20076160Y12519660D02*
Y12504420D01*
X20106641D01*
Y12519660D01*
X20121880D01*
Y12550140D01*
X20106641D01*
Y12565380D01*
X20076160D01*
Y12550140D01*
X20060921D01*
Y12519660D01*
X20076160D01*
X20066000Y12433300D02*
Y12407900D01*
X20116800D01*
Y12433300D01*
X20142200D01*
Y12484100D01*
X20116800D01*
Y12509500D01*
X20066000D01*
Y12484100D01*
X20040601D01*
Y12433300D01*
X20066000D01*
X20076160Y12443460D02*
Y12428220D01*
X20106641D01*
Y12443460D01*
X20121880D01*
Y12473940D01*
X20106641D01*
Y12489180D01*
X20076160D01*
Y12473940D01*
X20060921D01*
Y12443460D01*
X20076160D01*
X19989799Y13423900D02*
Y13398500D01*
X20040601D01*
Y13423900D01*
X20066000D01*
Y13474699D01*
X20040601D01*
Y13500101D01*
X19989799D01*
Y13474699D01*
X19964400D01*
Y13423900D01*
X19989799D01*
X19999960Y13434061D02*
Y13418820D01*
X20030440D01*
Y13434061D01*
X20045680D01*
Y13464540D01*
X20030440D01*
Y13479781D01*
X19999960D01*
Y13464540D01*
X19984720D01*
Y13434061D01*
X19999960D01*
X19989799Y13347701D02*
Y13322301D01*
X20040601D01*
Y13347701D01*
X20066000D01*
Y13398500D01*
X20040601D01*
Y13423900D01*
X19989799D01*
Y13398500D01*
X19964400D01*
Y13347701D01*
X19989799D01*
X19999960Y13357860D02*
Y13342619D01*
X20030440D01*
Y13357860D01*
X20045680D01*
Y13388341D01*
X20030440D01*
Y13403580D01*
X19999960D01*
Y13388341D01*
X19984720D01*
Y13357860D01*
X19999960D01*
X19989799Y13271500D02*
Y13246100D01*
X20040601D01*
Y13271500D01*
X20066000D01*
Y13322301D01*
X20040601D01*
Y13347701D01*
X19989799D01*
Y13322301D01*
X19964400D01*
Y13271500D01*
X19989799D01*
X19999960Y13281660D02*
Y13266420D01*
X20030440D01*
Y13281660D01*
X20045680D01*
Y13312140D01*
X20030440D01*
Y13327380D01*
X19999960D01*
Y13312140D01*
X19984720D01*
Y13281660D01*
X19999960D01*
X19989799Y13195300D02*
Y13169901D01*
X20040601D01*
Y13195300D01*
X20066000D01*
Y13246100D01*
X20040601D01*
Y13271500D01*
X19989799D01*
Y13246100D01*
X19964400D01*
Y13195300D01*
X19989799D01*
X19999960Y13205460D02*
Y13190221D01*
X20030440D01*
Y13205460D01*
X20045680D01*
Y13235941D01*
X20030440D01*
Y13251180D01*
X19999960D01*
Y13235941D01*
X19984720D01*
Y13205460D01*
X19999960D01*
X19989799Y13119099D02*
Y13093700D01*
X20040601D01*
Y13119099D01*
X20066000D01*
Y13169901D01*
X20040601D01*
Y13195300D01*
X19989799D01*
Y13169901D01*
X19964400D01*
Y13119099D01*
X19989799D01*
X19999960Y13129260D02*
Y13114020D01*
X20030440D01*
Y13129260D01*
X20045680D01*
Y13159740D01*
X20030440D01*
Y13174980D01*
X19999960D01*
Y13159740D01*
X19984720D01*
Y13129260D01*
X19999960D01*
X19989799Y13042900D02*
Y13017500D01*
X20040601D01*
Y13042900D01*
X20066000D01*
Y13093700D01*
X20040601D01*
Y13119099D01*
X19989799D01*
Y13093700D01*
X19964400D01*
Y13042900D01*
X19989799D01*
X19999960Y13053059D02*
Y13037820D01*
X20030440D01*
Y13053059D01*
X20045680D01*
Y13083540D01*
X20030440D01*
Y13098779D01*
X19999960D01*
Y13083540D01*
X19984720D01*
Y13053059D01*
X19999960D01*
X19989799Y12966701D02*
Y12941299D01*
X20040601D01*
Y12966701D01*
X20066000D01*
Y13017500D01*
X20040601D01*
Y13042900D01*
X19989799D01*
Y13017500D01*
X19964400D01*
Y12966701D01*
X19989799D01*
X19999960Y12976860D02*
Y12961620D01*
X20030440D01*
Y12976860D01*
X20045680D01*
Y13007339D01*
X20030440D01*
Y13022580D01*
X19999960D01*
Y13007339D01*
X19984720D01*
Y12976860D01*
X19999960D01*
X19989799Y12890500D02*
Y12865100D01*
X20040601D01*
Y12890500D01*
X20066000D01*
Y12941299D01*
X20040601D01*
Y12966701D01*
X19989799D01*
Y12941299D01*
X19964400D01*
Y12890500D01*
X19989799D01*
X19999960Y12900661D02*
Y12885420D01*
X20030440D01*
Y12900661D01*
X20045680D01*
Y12931140D01*
X20030440D01*
Y12946381D01*
X19999960D01*
Y12931140D01*
X19984720D01*
Y12900661D01*
X19999960D01*
X19989799Y12814301D02*
Y12788900D01*
X20040601D01*
Y12814301D01*
X20066000D01*
Y12865100D01*
X20040601D01*
Y12890500D01*
X19989799D01*
Y12865100D01*
X19964400D01*
Y12814301D01*
X19989799D01*
X19999960Y12824460D02*
Y12809219D01*
X20030440D01*
Y12824460D01*
X20045680D01*
Y12854939D01*
X20030440D01*
Y12870180D01*
X19999960D01*
Y12854939D01*
X19984720D01*
Y12824460D01*
X19999960D01*
X19989799Y12738100D02*
Y12712700D01*
X20040601D01*
Y12738100D01*
X20066000D01*
Y12788900D01*
X20040601D01*
Y12814301D01*
X19989799D01*
Y12788900D01*
X19964400D01*
Y12738100D01*
X19989799D01*
X19999960Y12748260D02*
Y12733020D01*
X20030440D01*
Y12748260D01*
X20045680D01*
Y12778740D01*
X20030440D01*
Y12793980D01*
X19999960D01*
Y12778740D01*
X19984720D01*
Y12748260D01*
X19999960D01*
X19989799Y12661900D02*
Y12636500D01*
X20040601D01*
Y12661900D01*
X20066000D01*
Y12712700D01*
X20040601D01*
Y12738100D01*
X19989799D01*
Y12712700D01*
X19964400D01*
Y12661900D01*
X19989799D01*
X19999960Y12672060D02*
Y12656820D01*
X20030440D01*
Y12672060D01*
X20045680D01*
Y12702540D01*
X20030440D01*
Y12717780D01*
X19999960D01*
Y12702540D01*
X19984720D01*
Y12672060D01*
X19999960D01*
X19989799Y12585700D02*
Y12560300D01*
X20040601D01*
Y12585700D01*
X20066000D01*
Y12636500D01*
X20040601D01*
Y12661900D01*
X19989799D01*
Y12636500D01*
X19964400D01*
Y12585700D01*
X19989799D01*
X19999960Y12595860D02*
Y12580620D01*
X20030440D01*
Y12595860D01*
X20045680D01*
Y12626340D01*
X20030440D01*
Y12641580D01*
X19999960D01*
Y12626340D01*
X19984720D01*
Y12595860D01*
X19999960D01*
X19989799Y12509500D02*
Y12484100D01*
X20040601D01*
Y12509500D01*
X20066000D01*
Y12560300D01*
X20040601D01*
Y12585700D01*
X19989799D01*
Y12560300D01*
X19964400D01*
Y12509500D01*
X19989799D01*
X19999960Y12519660D02*
Y12504420D01*
X20030440D01*
Y12519660D01*
X20045680D01*
Y12550140D01*
X20030440D01*
Y12565380D01*
X19999960D01*
Y12550140D01*
X19984720D01*
Y12519660D01*
X19999960D01*
X19989799Y12433300D02*
Y12407900D01*
X20040601D01*
Y12433300D01*
X20066000D01*
Y12484100D01*
X20040601D01*
Y12509500D01*
X19989799D01*
Y12484100D01*
X19964400D01*
Y12433300D01*
X19989799D01*
X19999960Y12443460D02*
Y12428220D01*
X20030440D01*
Y12443460D01*
X20045680D01*
Y12473940D01*
X20030440D01*
Y12489180D01*
X19999960D01*
Y12473940D01*
X19984720D01*
Y12443460D01*
X19999960D01*
X19913600Y13423900D02*
Y13398500D01*
X19964400D01*
Y13423900D01*
X19989799D01*
Y13474699D01*
X19964400D01*
Y13500101D01*
X19913600D01*
Y13474699D01*
X19888200D01*
Y13423900D01*
X19913600D01*
X19923759Y13434061D02*
Y13418820D01*
X19954240D01*
Y13434061D01*
X19969479D01*
Y13464540D01*
X19954240D01*
Y13479781D01*
X19923759D01*
Y13464540D01*
X19908521D01*
Y13434061D01*
X19923759D01*
X19913600Y13347701D02*
Y13322301D01*
X19964400D01*
Y13347701D01*
X19989799D01*
Y13398500D01*
X19964400D01*
Y13423900D01*
X19913600D01*
Y13398500D01*
X19888200D01*
Y13347701D01*
X19913600D01*
X19923759Y13357860D02*
Y13342619D01*
X19954240D01*
Y13357860D01*
X19969479D01*
Y13388341D01*
X19954240D01*
Y13403580D01*
X19923759D01*
Y13388341D01*
X19908521D01*
Y13357860D01*
X19923759D01*
X19913600Y13271500D02*
Y13246100D01*
X19964400D01*
Y13271500D01*
X19989799D01*
Y13322301D01*
X19964400D01*
Y13347701D01*
X19913600D01*
Y13322301D01*
X19888200D01*
Y13271500D01*
X19913600D01*
X19923759Y13281660D02*
Y13266420D01*
X19954240D01*
Y13281660D01*
X19969479D01*
Y13312140D01*
X19954240D01*
Y13327380D01*
X19923759D01*
Y13312140D01*
X19908521D01*
Y13281660D01*
X19923759D01*
X19913600Y13195300D02*
Y13169901D01*
X19964400D01*
Y13195300D01*
X19989799D01*
Y13246100D01*
X19964400D01*
Y13271500D01*
X19913600D01*
Y13246100D01*
X19888200D01*
Y13195300D01*
X19913600D01*
X19923759Y13205460D02*
Y13190221D01*
X19954240D01*
Y13205460D01*
X19969479D01*
Y13235941D01*
X19954240D01*
Y13251180D01*
X19923759D01*
Y13235941D01*
X19908521D01*
Y13205460D01*
X19923759D01*
X19913600Y13119099D02*
Y13093700D01*
X19964400D01*
Y13119099D01*
X19989799D01*
Y13169901D01*
X19964400D01*
Y13195300D01*
X19913600D01*
Y13169901D01*
X19888200D01*
Y13119099D01*
X19913600D01*
X19923759Y13129260D02*
Y13114020D01*
X19954240D01*
Y13129260D01*
X19969479D01*
Y13159740D01*
X19954240D01*
Y13174980D01*
X19923759D01*
Y13159740D01*
X19908521D01*
Y13129260D01*
X19923759D01*
X19913600Y13042900D02*
Y13017500D01*
X19964400D01*
Y13042900D01*
X19989799D01*
Y13093700D01*
X19964400D01*
Y13119099D01*
X19913600D01*
Y13093700D01*
X19888200D01*
Y13042900D01*
X19913600D01*
X19923759Y13053059D02*
Y13037820D01*
X19954240D01*
Y13053059D01*
X19969479D01*
Y13083540D01*
X19954240D01*
Y13098779D01*
X19923759D01*
Y13083540D01*
X19908521D01*
Y13053059D01*
X19923759D01*
X19913600Y12966701D02*
Y12941299D01*
X19964400D01*
Y12966701D01*
X19989799D01*
Y13017500D01*
X19964400D01*
Y13042900D01*
X19913600D01*
Y13017500D01*
X19888200D01*
Y12966701D01*
X19913600D01*
X19923759Y12976860D02*
Y12961620D01*
X19954240D01*
Y12976860D01*
X19969479D01*
Y13007339D01*
X19954240D01*
Y13022580D01*
X19923759D01*
Y13007339D01*
X19908521D01*
Y12976860D01*
X19923759D01*
X19913600Y12890500D02*
Y12865100D01*
X19964400D01*
Y12890500D01*
X19989799D01*
Y12941299D01*
X19964400D01*
Y12966701D01*
X19913600D01*
Y12941299D01*
X19888200D01*
Y12890500D01*
X19913600D01*
X19923759Y12900661D02*
Y12885420D01*
X19954240D01*
Y12900661D01*
X19969479D01*
Y12931140D01*
X19954240D01*
Y12946381D01*
X19923759D01*
Y12931140D01*
X19908521D01*
Y12900661D01*
X19923759D01*
X19913600Y12814301D02*
Y12788900D01*
X19964400D01*
Y12814301D01*
X19989799D01*
Y12865100D01*
X19964400D01*
Y12890500D01*
X19913600D01*
Y12865100D01*
X19888200D01*
Y12814301D01*
X19913600D01*
X19923759Y12824460D02*
Y12809219D01*
X19954240D01*
Y12824460D01*
X19969479D01*
Y12854939D01*
X19954240D01*
Y12870180D01*
X19923759D01*
Y12854939D01*
X19908521D01*
Y12824460D01*
X19923759D01*
X19913600Y12738100D02*
Y12712700D01*
X19964400D01*
Y12738100D01*
X19989799D01*
Y12788900D01*
X19964400D01*
Y12814301D01*
X19913600D01*
Y12788900D01*
X19888200D01*
Y12738100D01*
X19913600D01*
X19923759Y12748260D02*
Y12733020D01*
X19954240D01*
Y12748260D01*
X19969479D01*
Y12778740D01*
X19954240D01*
Y12793980D01*
X19923759D01*
Y12778740D01*
X19908521D01*
Y12748260D01*
X19923759D01*
X19913600Y12661900D02*
Y12636500D01*
X19964400D01*
Y12661900D01*
X19989799D01*
Y12712700D01*
X19964400D01*
Y12738100D01*
X19913600D01*
Y12712700D01*
X19888200D01*
Y12661900D01*
X19913600D01*
X19923759Y12672060D02*
Y12656820D01*
X19954240D01*
Y12672060D01*
X19969479D01*
Y12702540D01*
X19954240D01*
Y12717780D01*
X19923759D01*
Y12702540D01*
X19908521D01*
Y12672060D01*
X19923759D01*
X19913600Y12585700D02*
Y12560300D01*
X19964400D01*
Y12585700D01*
X19989799D01*
Y12636500D01*
X19964400D01*
Y12661900D01*
X19913600D01*
Y12636500D01*
X19888200D01*
Y12585700D01*
X19913600D01*
X19923759Y12595860D02*
Y12580620D01*
X19954240D01*
Y12595860D01*
X19969479D01*
Y12626340D01*
X19954240D01*
Y12641580D01*
X19923759D01*
Y12626340D01*
X19908521D01*
Y12595860D01*
X19923759D01*
X19913600Y12509500D02*
Y12484100D01*
X19964400D01*
Y12509500D01*
X19989799D01*
Y12560300D01*
X19964400D01*
Y12585700D01*
X19913600D01*
Y12560300D01*
X19888200D01*
Y12509500D01*
X19913600D01*
X19923759Y12519660D02*
Y12504420D01*
X19954240D01*
Y12519660D01*
X19969479D01*
Y12550140D01*
X19954240D01*
Y12565380D01*
X19923759D01*
Y12550140D01*
X19908521D01*
Y12519660D01*
X19923759D01*
X19913600Y12433300D02*
Y12407900D01*
X19964400D01*
Y12433300D01*
X19989799D01*
Y12484100D01*
X19964400D01*
Y12509500D01*
X19913600D01*
Y12484100D01*
X19888200D01*
Y12433300D01*
X19913600D01*
X19923759Y12443460D02*
Y12428220D01*
X19954240D01*
Y12443460D01*
X19969479D01*
Y12473940D01*
X19954240D01*
Y12489180D01*
X19923759D01*
Y12473940D01*
X19908521D01*
Y12443460D01*
X19923759D01*
X19837399Y13423900D02*
Y13398500D01*
X19888200D01*
Y13423900D01*
X19913600D01*
Y13474699D01*
X19888200D01*
Y13500101D01*
X19837399D01*
Y13474699D01*
X19812000D01*
Y13423900D01*
X19837399D01*
X19847560Y13434061D02*
Y13418820D01*
X19878040D01*
Y13434061D01*
X19893280D01*
Y13464540D01*
X19878040D01*
Y13479781D01*
X19847560D01*
Y13464540D01*
X19832320D01*
Y13434061D01*
X19847560D01*
X19837399Y13347701D02*
Y13322301D01*
X19888200D01*
Y13347701D01*
X19913600D01*
Y13398500D01*
X19888200D01*
Y13423900D01*
X19837399D01*
Y13398500D01*
X19812000D01*
Y13347701D01*
X19837399D01*
X19847560Y13357860D02*
Y13342619D01*
X19878040D01*
Y13357860D01*
X19893280D01*
Y13388341D01*
X19878040D01*
Y13403580D01*
X19847560D01*
Y13388341D01*
X19832320D01*
Y13357860D01*
X19847560D01*
X19837399Y13271500D02*
Y13246100D01*
X19888200D01*
Y13271500D01*
X19913600D01*
Y13322301D01*
X19888200D01*
Y13347701D01*
X19837399D01*
Y13322301D01*
X19812000D01*
Y13271500D01*
X19837399D01*
X19847560Y13281660D02*
Y13266420D01*
X19878040D01*
Y13281660D01*
X19893280D01*
Y13312140D01*
X19878040D01*
Y13327380D01*
X19847560D01*
Y13312140D01*
X19832320D01*
Y13281660D01*
X19847560D01*
X19837399Y13195300D02*
Y13169901D01*
X19888200D01*
Y13195300D01*
X19913600D01*
Y13246100D01*
X19888200D01*
Y13271500D01*
X19837399D01*
Y13246100D01*
X19812000D01*
Y13195300D01*
X19837399D01*
X19847560Y13205460D02*
Y13190221D01*
X19878040D01*
Y13205460D01*
X19893280D01*
Y13235941D01*
X19878040D01*
Y13251180D01*
X19847560D01*
Y13235941D01*
X19832320D01*
Y13205460D01*
X19847560D01*
X19837399Y13119099D02*
Y13093700D01*
X19888200D01*
Y13119099D01*
X19913600D01*
Y13169901D01*
X19888200D01*
Y13195300D01*
X19837399D01*
Y13169901D01*
X19812000D01*
Y13119099D01*
X19837399D01*
X19847560Y13129260D02*
Y13114020D01*
X19878040D01*
Y13129260D01*
X19893280D01*
Y13159740D01*
X19878040D01*
Y13174980D01*
X19847560D01*
Y13159740D01*
X19832320D01*
Y13129260D01*
X19847560D01*
X19837399Y13042900D02*
Y13017500D01*
X19888200D01*
Y13042900D01*
X19913600D01*
Y13093700D01*
X19888200D01*
Y13119099D01*
X19837399D01*
Y13093700D01*
X19812000D01*
Y13042900D01*
X19837399D01*
X19847560Y13053059D02*
Y13037820D01*
X19878040D01*
Y13053059D01*
X19893280D01*
Y13083540D01*
X19878040D01*
Y13098779D01*
X19847560D01*
Y13083540D01*
X19832320D01*
Y13053059D01*
X19847560D01*
X19837399Y12966701D02*
Y12941299D01*
X19888200D01*
Y12966701D01*
X19913600D01*
Y13017500D01*
X19888200D01*
Y13042900D01*
X19837399D01*
Y13017500D01*
X19812000D01*
Y12966701D01*
X19837399D01*
X19847560Y12976860D02*
Y12961620D01*
X19878040D01*
Y12976860D01*
X19893280D01*
Y13007339D01*
X19878040D01*
Y13022580D01*
X19847560D01*
Y13007339D01*
X19832320D01*
Y12976860D01*
X19847560D01*
X19837399Y12890500D02*
Y12865100D01*
X19888200D01*
Y12890500D01*
X19913600D01*
Y12941299D01*
X19888200D01*
Y12966701D01*
X19837399D01*
Y12941299D01*
X19812000D01*
Y12890500D01*
X19837399D01*
X19847560Y12900661D02*
Y12885420D01*
X19878040D01*
Y12900661D01*
X19893280D01*
Y12931140D01*
X19878040D01*
Y12946381D01*
X19847560D01*
Y12931140D01*
X19832320D01*
Y12900661D01*
X19847560D01*
X19837399Y12814301D02*
Y12788900D01*
X19888200D01*
Y12814301D01*
X19913600D01*
Y12865100D01*
X19888200D01*
Y12890500D01*
X19837399D01*
Y12865100D01*
X19812000D01*
Y12814301D01*
X19837399D01*
X19847560Y12824460D02*
Y12809219D01*
X19878040D01*
Y12824460D01*
X19893280D01*
Y12854939D01*
X19878040D01*
Y12870180D01*
X19847560D01*
Y12854939D01*
X19832320D01*
Y12824460D01*
X19847560D01*
X19837399Y12738100D02*
Y12712700D01*
X19888200D01*
Y12738100D01*
X19913600D01*
Y12788900D01*
X19888200D01*
Y12814301D01*
X19837399D01*
Y12788900D01*
X19812000D01*
Y12738100D01*
X19837399D01*
X19847560Y12748260D02*
Y12733020D01*
X19878040D01*
Y12748260D01*
X19893280D01*
Y12778740D01*
X19878040D01*
Y12793980D01*
X19847560D01*
Y12778740D01*
X19832320D01*
Y12748260D01*
X19847560D01*
X19837399Y12661900D02*
Y12636500D01*
X19888200D01*
Y12661900D01*
X19913600D01*
Y12712700D01*
X19888200D01*
Y12738100D01*
X19837399D01*
Y12712700D01*
X19812000D01*
Y12661900D01*
X19837399D01*
X19847560Y12672060D02*
Y12656820D01*
X19878040D01*
Y12672060D01*
X19893280D01*
Y12702540D01*
X19878040D01*
Y12717780D01*
X19847560D01*
Y12702540D01*
X19832320D01*
Y12672060D01*
X19847560D01*
X19837399Y12585700D02*
Y12560300D01*
X19888200D01*
Y12585700D01*
X19913600D01*
Y12636500D01*
X19888200D01*
Y12661900D01*
X19837399D01*
Y12636500D01*
X19812000D01*
Y12585700D01*
X19837399D01*
X19847560Y12595860D02*
Y12580620D01*
X19878040D01*
Y12595860D01*
X19893280D01*
Y12626340D01*
X19878040D01*
Y12641580D01*
X19847560D01*
Y12626340D01*
X19832320D01*
Y12595860D01*
X19847560D01*
X19837399Y12509500D02*
Y12484100D01*
X19888200D01*
Y12509500D01*
X19913600D01*
Y12560300D01*
X19888200D01*
Y12585700D01*
X19837399D01*
Y12560300D01*
X19812000D01*
Y12509500D01*
X19837399D01*
X19847560Y12519660D02*
Y12504420D01*
X19878040D01*
Y12519660D01*
X19893280D01*
Y12550140D01*
X19878040D01*
Y12565380D01*
X19847560D01*
Y12550140D01*
X19832320D01*
Y12519660D01*
X19847560D01*
X19837399Y12433300D02*
Y12407900D01*
X19888200D01*
Y12433300D01*
X19913600D01*
Y12484100D01*
X19888200D01*
Y12509500D01*
X19837399D01*
Y12484100D01*
X19812000D01*
Y12433300D01*
X19837399D01*
X19847560Y12443460D02*
Y12428220D01*
X19878040D01*
Y12443460D01*
X19893280D01*
Y12473940D01*
X19878040D01*
Y12489180D01*
X19847560D01*
Y12473940D01*
X19832320D01*
Y12443460D01*
X19847560D01*
X19761200Y13423900D02*
Y13398500D01*
X19812000D01*
Y13423900D01*
X19837399D01*
Y13474699D01*
X19812000D01*
Y13500101D01*
X19761200D01*
Y13474699D01*
X19735800D01*
Y13423900D01*
X19761200D01*
X19771359Y13434061D02*
Y13418820D01*
X19801840D01*
Y13434061D01*
X19817081D01*
Y13464540D01*
X19801840D01*
Y13479781D01*
X19771359D01*
Y13464540D01*
X19756120D01*
Y13434061D01*
X19771359D01*
X19761200Y13347701D02*
Y13322301D01*
X19812000D01*
Y13347701D01*
X19837399D01*
Y13398500D01*
X19812000D01*
Y13423900D01*
X19761200D01*
Y13398500D01*
X19735800D01*
Y13347701D01*
X19761200D01*
X19771359Y13357860D02*
Y13342619D01*
X19801840D01*
Y13357860D01*
X19817081D01*
Y13388341D01*
X19801840D01*
Y13403580D01*
X19771359D01*
Y13388341D01*
X19756120D01*
Y13357860D01*
X19771359D01*
X19761200Y13271500D02*
Y13246100D01*
X19812000D01*
Y13271500D01*
X19837399D01*
Y13322301D01*
X19812000D01*
Y13347701D01*
X19761200D01*
Y13322301D01*
X19735800D01*
Y13271500D01*
X19761200D01*
X19771359Y13281660D02*
Y13266420D01*
X19801840D01*
Y13281660D01*
X19817081D01*
Y13312140D01*
X19801840D01*
Y13327380D01*
X19771359D01*
Y13312140D01*
X19756120D01*
Y13281660D01*
X19771359D01*
X19761200Y13195300D02*
Y13169901D01*
X19812000D01*
Y13195300D01*
X19837399D01*
Y13246100D01*
X19812000D01*
Y13271500D01*
X19761200D01*
Y13246100D01*
X19735800D01*
Y13195300D01*
X19761200D01*
X19771359Y13205460D02*
Y13190221D01*
X19801840D01*
Y13205460D01*
X19817081D01*
Y13235941D01*
X19801840D01*
Y13251180D01*
X19771359D01*
Y13235941D01*
X19756120D01*
Y13205460D01*
X19771359D01*
X19761200Y13119099D02*
Y13093700D01*
X19812000D01*
Y13119099D01*
X19837399D01*
Y13169901D01*
X19812000D01*
Y13195300D01*
X19761200D01*
Y13169901D01*
X19735800D01*
Y13119099D01*
X19761200D01*
X19771359Y13129260D02*
Y13114020D01*
X19801840D01*
Y13129260D01*
X19817081D01*
Y13159740D01*
X19801840D01*
Y13174980D01*
X19771359D01*
Y13159740D01*
X19756120D01*
Y13129260D01*
X19771359D01*
X19761200Y13042900D02*
Y13017500D01*
X19812000D01*
Y13042900D01*
X19837399D01*
Y13093700D01*
X19812000D01*
Y13119099D01*
X19761200D01*
Y13093700D01*
X19735800D01*
Y13042900D01*
X19761200D01*
X19771359Y13053059D02*
Y13037820D01*
X19801840D01*
Y13053059D01*
X19817081D01*
Y13083540D01*
X19801840D01*
Y13098779D01*
X19771359D01*
Y13083540D01*
X19756120D01*
Y13053059D01*
X19771359D01*
X19761200Y12966701D02*
Y12941299D01*
X19812000D01*
Y12966701D01*
X19837399D01*
Y13017500D01*
X19812000D01*
Y13042900D01*
X19761200D01*
Y13017500D01*
X19735800D01*
Y12966701D01*
X19761200D01*
X19771359Y12976860D02*
Y12961620D01*
X19801840D01*
Y12976860D01*
X19817081D01*
Y13007339D01*
X19801840D01*
Y13022580D01*
X19771359D01*
Y13007339D01*
X19756120D01*
Y12976860D01*
X19771359D01*
X19761200Y12890500D02*
Y12865100D01*
X19812000D01*
Y12890500D01*
X19837399D01*
Y12941299D01*
X19812000D01*
Y12966701D01*
X19761200D01*
Y12941299D01*
X19735800D01*
Y12890500D01*
X19761200D01*
X19771359Y12900661D02*
Y12885420D01*
X19801840D01*
Y12900661D01*
X19817081D01*
Y12931140D01*
X19801840D01*
Y12946381D01*
X19771359D01*
Y12931140D01*
X19756120D01*
Y12900661D01*
X19771359D01*
X19761200Y12814301D02*
Y12788900D01*
X19812000D01*
Y12814301D01*
X19837399D01*
Y12865100D01*
X19812000D01*
Y12890500D01*
X19761200D01*
Y12865100D01*
X19735800D01*
Y12814301D01*
X19761200D01*
X19771359Y12824460D02*
Y12809219D01*
X19801840D01*
Y12824460D01*
X19817081D01*
Y12854939D01*
X19801840D01*
Y12870180D01*
X19771359D01*
Y12854939D01*
X19756120D01*
Y12824460D01*
X19771359D01*
X19761200Y12738100D02*
Y12712700D01*
X19812000D01*
Y12738100D01*
X19837399D01*
Y12788900D01*
X19812000D01*
Y12814301D01*
X19761200D01*
Y12788900D01*
X19735800D01*
Y12738100D01*
X19761200D01*
X19771359Y12748260D02*
Y12733020D01*
X19801840D01*
Y12748260D01*
X19817081D01*
Y12778740D01*
X19801840D01*
Y12793980D01*
X19771359D01*
Y12778740D01*
X19756120D01*
Y12748260D01*
X19771359D01*
X19761200Y12661900D02*
Y12636500D01*
X19812000D01*
Y12661900D01*
X19837399D01*
Y12712700D01*
X19812000D01*
Y12738100D01*
X19761200D01*
Y12712700D01*
X19735800D01*
Y12661900D01*
X19761200D01*
X19771359Y12672060D02*
Y12656820D01*
X19801840D01*
Y12672060D01*
X19817081D01*
Y12702540D01*
X19801840D01*
Y12717780D01*
X19771359D01*
Y12702540D01*
X19756120D01*
Y12672060D01*
X19771359D01*
X19761200Y12585700D02*
Y12560300D01*
X19812000D01*
Y12585700D01*
X19837399D01*
Y12636500D01*
X19812000D01*
Y12661900D01*
X19761200D01*
Y12636500D01*
X19735800D01*
Y12585700D01*
X19761200D01*
X19771359Y12595860D02*
Y12580620D01*
X19801840D01*
Y12595860D01*
X19817081D01*
Y12626340D01*
X19801840D01*
Y12641580D01*
X19771359D01*
Y12626340D01*
X19756120D01*
Y12595860D01*
X19771359D01*
X19761200Y12509500D02*
Y12484100D01*
X19812000D01*
Y12509500D01*
X19837399D01*
Y12560300D01*
X19812000D01*
Y12585700D01*
X19761200D01*
Y12560300D01*
X19735800D01*
Y12509500D01*
X19761200D01*
X19771359Y12519660D02*
Y12504420D01*
X19801840D01*
Y12519660D01*
X19817081D01*
Y12550140D01*
X19801840D01*
Y12565380D01*
X19771359D01*
Y12550140D01*
X19756120D01*
Y12519660D01*
X19771359D01*
X19761200Y12433300D02*
Y12407900D01*
X19812000D01*
Y12433300D01*
X19837399D01*
Y12484100D01*
X19812000D01*
Y12509500D01*
X19761200D01*
Y12484100D01*
X19735800D01*
Y12433300D01*
X19761200D01*
X19771359Y12443460D02*
Y12428220D01*
X19801840D01*
Y12443460D01*
X19817081D01*
Y12473940D01*
X19801840D01*
Y12489180D01*
X19771359D01*
Y12473940D01*
X19756120D01*
Y12443460D01*
X19771359D01*
X19685001Y13423900D02*
Y13398500D01*
X19735800D01*
Y13423900D01*
X19761200D01*
Y13474699D01*
X19735800D01*
Y13500101D01*
X19685001D01*
Y13474699D01*
X19659599D01*
Y13423900D01*
X19685001D01*
X19695160Y13434061D02*
Y13418820D01*
X19725639D01*
Y13434061D01*
X19740880D01*
Y13464540D01*
X19725639D01*
Y13479781D01*
X19695160D01*
Y13464540D01*
X19679919D01*
Y13434061D01*
X19695160D01*
X19685001Y13347701D02*
Y13322301D01*
X19735800D01*
Y13347701D01*
X19761200D01*
Y13398500D01*
X19735800D01*
Y13423900D01*
X19685001D01*
Y13398500D01*
X19659599D01*
Y13347701D01*
X19685001D01*
X19695160Y13357860D02*
Y13342619D01*
X19725639D01*
Y13357860D01*
X19740880D01*
Y13388341D01*
X19725639D01*
Y13403580D01*
X19695160D01*
Y13388341D01*
X19679919D01*
Y13357860D01*
X19695160D01*
X19685001Y13271500D02*
Y13246100D01*
X19735800D01*
Y13271500D01*
X19761200D01*
Y13322301D01*
X19735800D01*
Y13347701D01*
X19685001D01*
Y13322301D01*
X19659599D01*
Y13271500D01*
X19685001D01*
X19695160Y13281660D02*
Y13266420D01*
X19725639D01*
Y13281660D01*
X19740880D01*
Y13312140D01*
X19725639D01*
Y13327380D01*
X19695160D01*
Y13312140D01*
X19679919D01*
Y13281660D01*
X19695160D01*
X19685001Y13195300D02*
Y13169901D01*
X19735800D01*
Y13195300D01*
X19761200D01*
Y13246100D01*
X19735800D01*
Y13271500D01*
X19685001D01*
Y13246100D01*
X19659599D01*
Y13195300D01*
X19685001D01*
X19695160Y13205460D02*
Y13190221D01*
X19725639D01*
Y13205460D01*
X19740880D01*
Y13235941D01*
X19725639D01*
Y13251180D01*
X19695160D01*
Y13235941D01*
X19679919D01*
Y13205460D01*
X19695160D01*
X19685001Y13119099D02*
Y13093700D01*
X19735800D01*
Y13119099D01*
X19761200D01*
Y13169901D01*
X19735800D01*
Y13195300D01*
X19685001D01*
Y13169901D01*
X19659599D01*
Y13119099D01*
X19685001D01*
X19695160Y13129260D02*
Y13114020D01*
X19725639D01*
Y13129260D01*
X19740880D01*
Y13159740D01*
X19725639D01*
Y13174980D01*
X19695160D01*
Y13159740D01*
X19679919D01*
Y13129260D01*
X19695160D01*
X19685001Y13042900D02*
Y13017500D01*
X19735800D01*
Y13042900D01*
X19761200D01*
Y13093700D01*
X19735800D01*
Y13119099D01*
X19685001D01*
Y13093700D01*
X19659599D01*
Y13042900D01*
X19685001D01*
X19695160Y13053059D02*
Y13037820D01*
X19725639D01*
Y13053059D01*
X19740880D01*
Y13083540D01*
X19725639D01*
Y13098779D01*
X19695160D01*
Y13083540D01*
X19679919D01*
Y13053059D01*
X19695160D01*
X19685001Y12966701D02*
Y12941299D01*
X19735800D01*
Y12966701D01*
X19761200D01*
Y13017500D01*
X19735800D01*
Y13042900D01*
X19685001D01*
Y13017500D01*
X19659599D01*
Y12966701D01*
X19685001D01*
X19695160Y12976860D02*
Y12961620D01*
X19725639D01*
Y12976860D01*
X19740880D01*
Y13007339D01*
X19725639D01*
Y13022580D01*
X19695160D01*
Y13007339D01*
X19679919D01*
Y12976860D01*
X19695160D01*
X19685001Y12890500D02*
Y12865100D01*
X19735800D01*
Y12890500D01*
X19761200D01*
Y12941299D01*
X19735800D01*
Y12966701D01*
X19685001D01*
Y12941299D01*
X19659599D01*
Y12890500D01*
X19685001D01*
X19695160Y12900661D02*
Y12885420D01*
X19725639D01*
Y12900661D01*
X19740880D01*
Y12931140D01*
X19725639D01*
Y12946381D01*
X19695160D01*
Y12931140D01*
X19679919D01*
Y12900661D01*
X19695160D01*
X19685001Y12814301D02*
Y12788900D01*
X19735800D01*
Y12814301D01*
X19761200D01*
Y12865100D01*
X19735800D01*
Y12890500D01*
X19685001D01*
Y12865100D01*
X19659599D01*
Y12814301D01*
X19685001D01*
X19695160Y12824460D02*
Y12809219D01*
X19725639D01*
Y12824460D01*
X19740880D01*
Y12854939D01*
X19725639D01*
Y12870180D01*
X19695160D01*
Y12854939D01*
X19679919D01*
Y12824460D01*
X19695160D01*
X19685001Y12738100D02*
Y12712700D01*
X19735800D01*
Y12738100D01*
X19761200D01*
Y12788900D01*
X19735800D01*
Y12814301D01*
X19685001D01*
Y12788900D01*
X19659599D01*
Y12738100D01*
X19685001D01*
X19695160Y12748260D02*
Y12733020D01*
X19725639D01*
Y12748260D01*
X19740880D01*
Y12778740D01*
X19725639D01*
Y12793980D01*
X19695160D01*
Y12778740D01*
X19679919D01*
Y12748260D01*
X19695160D01*
X19685001Y12661900D02*
Y12636500D01*
X19735800D01*
Y12661900D01*
X19761200D01*
Y12712700D01*
X19735800D01*
Y12738100D01*
X19685001D01*
Y12712700D01*
X19659599D01*
Y12661900D01*
X19685001D01*
X19695160Y12672060D02*
Y12656820D01*
X19725639D01*
Y12672060D01*
X19740880D01*
Y12702540D01*
X19725639D01*
Y12717780D01*
X19695160D01*
Y12702540D01*
X19679919D01*
Y12672060D01*
X19695160D01*
X19685001Y12585700D02*
Y12560300D01*
X19735800D01*
Y12585700D01*
X19761200D01*
Y12636500D01*
X19735800D01*
Y12661900D01*
X19685001D01*
Y12636500D01*
X19659599D01*
Y12585700D01*
X19685001D01*
X19695160Y12595860D02*
Y12580620D01*
X19725639D01*
Y12595860D01*
X19740880D01*
Y12626340D01*
X19725639D01*
Y12641580D01*
X19695160D01*
Y12626340D01*
X19679919D01*
Y12595860D01*
X19695160D01*
X19685001Y12509500D02*
Y12484100D01*
X19735800D01*
Y12509500D01*
X19761200D01*
Y12560300D01*
X19735800D01*
Y12585700D01*
X19685001D01*
Y12560300D01*
X19659599D01*
Y12509500D01*
X19685001D01*
X19695160Y12519660D02*
Y12504420D01*
X19725639D01*
Y12519660D01*
X19740880D01*
Y12550140D01*
X19725639D01*
Y12565380D01*
X19695160D01*
Y12550140D01*
X19679919D01*
Y12519660D01*
X19695160D01*
X19685001Y12433300D02*
Y12407900D01*
X19735800D01*
Y12433300D01*
X19761200D01*
Y12484100D01*
X19735800D01*
Y12509500D01*
X19685001D01*
Y12484100D01*
X19659599D01*
Y12433300D01*
X19685001D01*
X19695160Y12443460D02*
Y12428220D01*
X19725639D01*
Y12443460D01*
X19740880D01*
Y12473940D01*
X19725639D01*
Y12489180D01*
X19695160D01*
Y12473940D01*
X19679919D01*
Y12443460D01*
X19695160D01*
X20142200Y13423900D02*
Y13398500D01*
X20192999D01*
Y13423900D01*
X20218401D01*
Y13474699D01*
X20192999D01*
Y13500101D01*
X20142200D01*
Y13474699D01*
X20116800D01*
Y13423900D01*
X20142200D01*
X20152361Y13434061D02*
Y13418820D01*
X20182840D01*
Y13434061D01*
X20198080D01*
Y13464540D01*
X20182840D01*
Y13479781D01*
X20152361D01*
Y13464540D01*
X20137120D01*
Y13434061D01*
X20152361D01*
X20142200Y13347701D02*
Y13322301D01*
X20192999D01*
Y13347701D01*
X20218401D01*
Y13398500D01*
X20192999D01*
Y13423900D01*
X20142200D01*
Y13398500D01*
X20116800D01*
Y13347701D01*
X20142200D01*
X20152361Y13357860D02*
Y13342619D01*
X20182840D01*
Y13357860D01*
X20198080D01*
Y13388341D01*
X20182840D01*
Y13403580D01*
X20152361D01*
Y13388341D01*
X20137120D01*
Y13357860D01*
X20152361D01*
X20142200Y13271500D02*
Y13246100D01*
X20192999D01*
Y13271500D01*
X20218401D01*
Y13322301D01*
X20192999D01*
Y13347701D01*
X20142200D01*
Y13322301D01*
X20116800D01*
Y13271500D01*
X20142200D01*
X20152361Y13281660D02*
Y13266420D01*
X20182840D01*
Y13281660D01*
X20198080D01*
Y13312140D01*
X20182840D01*
Y13327380D01*
X20152361D01*
Y13312140D01*
X20137120D01*
Y13281660D01*
X20152361D01*
X20142200Y13195300D02*
Y13169901D01*
X20192999D01*
Y13195300D01*
X20218401D01*
Y13246100D01*
X20192999D01*
Y13271500D01*
X20142200D01*
Y13246100D01*
X20116800D01*
Y13195300D01*
X20142200D01*
X20152361Y13205460D02*
Y13190221D01*
X20182840D01*
Y13205460D01*
X20198080D01*
Y13235941D01*
X20182840D01*
Y13251180D01*
X20152361D01*
Y13235941D01*
X20137120D01*
Y13205460D01*
X20152361D01*
X20142200Y13119099D02*
Y13093700D01*
X20192999D01*
Y13119099D01*
X20218401D01*
Y13169901D01*
X20192999D01*
Y13195300D01*
X20142200D01*
Y13169901D01*
X20116800D01*
Y13119099D01*
X20142200D01*
X20152361Y13129260D02*
Y13114020D01*
X20182840D01*
Y13129260D01*
X20198080D01*
Y13159740D01*
X20182840D01*
Y13174980D01*
X20152361D01*
Y13159740D01*
X20137120D01*
Y13129260D01*
X20152361D01*
X20142200Y13042900D02*
Y13017500D01*
X20192999D01*
Y13042900D01*
X20218401D01*
Y13093700D01*
X20192999D01*
Y13119099D01*
X20142200D01*
Y13093700D01*
X20116800D01*
Y13042900D01*
X20142200D01*
X20152361Y13053059D02*
Y13037820D01*
X20182840D01*
Y13053059D01*
X20198080D01*
Y13083540D01*
X20182840D01*
Y13098779D01*
X20152361D01*
Y13083540D01*
X20137120D01*
Y13053059D01*
X20152361D01*
X20142200Y12966701D02*
Y12941299D01*
X20192999D01*
Y12966701D01*
X20218401D01*
Y13017500D01*
X20192999D01*
Y13042900D01*
X20142200D01*
Y13017500D01*
X20116800D01*
Y12966701D01*
X20142200D01*
X20152361Y12976860D02*
Y12961620D01*
X20182840D01*
Y12976860D01*
X20198080D01*
Y13007339D01*
X20182840D01*
Y13022580D01*
X20152361D01*
Y13007339D01*
X20137120D01*
Y12976860D01*
X20152361D01*
X20142200Y12890500D02*
Y12865100D01*
X20192999D01*
Y12890500D01*
X20218401D01*
Y12941299D01*
X20192999D01*
Y12966701D01*
X20142200D01*
Y12941299D01*
X20116800D01*
Y12890500D01*
X20142200D01*
X20152361Y12900661D02*
Y12885420D01*
X20182840D01*
Y12900661D01*
X20198080D01*
Y12931140D01*
X20182840D01*
Y12946381D01*
X20152361D01*
Y12931140D01*
X20137120D01*
Y12900661D01*
X20152361D01*
X20142200Y12814301D02*
Y12788900D01*
X20192999D01*
Y12814301D01*
X20218401D01*
Y12865100D01*
X20192999D01*
Y12890500D01*
X20142200D01*
Y12865100D01*
X20116800D01*
Y12814301D01*
X20142200D01*
X20152361Y12824460D02*
Y12809219D01*
X20182840D01*
Y12824460D01*
X20198080D01*
Y12854939D01*
X20182840D01*
Y12870180D01*
X20152361D01*
Y12854939D01*
X20137120D01*
Y12824460D01*
X20152361D01*
X20142200Y12738100D02*
Y12712700D01*
X20192999D01*
Y12738100D01*
X20218401D01*
Y12788900D01*
X20192999D01*
Y12814301D01*
X20142200D01*
Y12788900D01*
X20116800D01*
Y12738100D01*
X20142200D01*
X20152361Y12748260D02*
Y12733020D01*
X20182840D01*
Y12748260D01*
X20198080D01*
Y12778740D01*
X20182840D01*
Y12793980D01*
X20152361D01*
Y12778740D01*
X20137120D01*
Y12748260D01*
X20152361D01*
X20142200Y12661900D02*
Y12636500D01*
X20192999D01*
Y12661900D01*
X20218401D01*
Y12712700D01*
X20192999D01*
Y12738100D01*
X20142200D01*
Y12712700D01*
X20116800D01*
Y12661900D01*
X20142200D01*
X20152361Y12672060D02*
Y12656820D01*
X20182840D01*
Y12672060D01*
X20198080D01*
Y12702540D01*
X20182840D01*
Y12717780D01*
X20152361D01*
Y12702540D01*
X20137120D01*
Y12672060D01*
X20152361D01*
X20142200Y12585700D02*
Y12560300D01*
X20192999D01*
Y12585700D01*
X20218401D01*
Y12636500D01*
X20192999D01*
Y12661900D01*
X20142200D01*
Y12636500D01*
X20116800D01*
Y12585700D01*
X20142200D01*
X20152361Y12595860D02*
Y12580620D01*
X20182840D01*
Y12595860D01*
X20198080D01*
Y12626340D01*
X20182840D01*
Y12641580D01*
X20152361D01*
Y12626340D01*
X20137120D01*
Y12595860D01*
X20152361D01*
X20142200Y12509500D02*
Y12484100D01*
X20192999D01*
Y12509500D01*
X20218401D01*
Y12560300D01*
X20192999D01*
Y12585700D01*
X20142200D01*
Y12560300D01*
X20116800D01*
Y12509500D01*
X20142200D01*
X20152361Y12519660D02*
Y12504420D01*
X20182840D01*
Y12519660D01*
X20198080D01*
Y12550140D01*
X20182840D01*
Y12565380D01*
X20152361D01*
Y12550140D01*
X20137120D01*
Y12519660D01*
X20152361D01*
X20142200Y12433300D02*
Y12407900D01*
X20192999D01*
Y12433300D01*
X20218401D01*
Y12484100D01*
X20192999D01*
Y12509500D01*
X20142200D01*
Y12484100D01*
X20116800D01*
Y12433300D01*
X20142200D01*
X20152361Y12443460D02*
Y12428220D01*
X20182840D01*
Y12443460D01*
X20198080D01*
Y12473940D01*
X20182840D01*
Y12489180D01*
X20152361D01*
Y12473940D01*
X20137120D01*
Y12443460D01*
X20152361D01*
X19608800Y12509500D02*
Y12484100D01*
X19659599D01*
Y12509500D01*
X19685001D01*
Y12560300D01*
X19659599D01*
Y12585700D01*
X19608800D01*
Y12560300D01*
X19583400D01*
Y12509500D01*
X19608800D01*
X19618961Y12519660D02*
Y12504420D01*
X19649440D01*
Y12519660D01*
X19664680D01*
Y12550140D01*
X19649440D01*
Y12565380D01*
X19618961D01*
Y12550140D01*
X19603720D01*
Y12519660D01*
X19618961D01*
X19532600Y12509500D02*
Y12484100D01*
X19583400D01*
Y12509500D01*
X19608800D01*
Y12560300D01*
X19583400D01*
Y12585700D01*
X19532600D01*
Y12560300D01*
X19507201D01*
Y12509500D01*
X19532600D01*
X19542760Y12519660D02*
Y12504420D01*
X19573241D01*
Y12519660D01*
X19588480D01*
Y12550140D01*
X19573241D01*
Y12565380D01*
X19542760D01*
Y12550140D01*
X19527521D01*
Y12519660D01*
X19542760D01*
X19456400Y12509500D02*
Y12484100D01*
X19507201D01*
Y12509500D01*
X19532600D01*
Y12560300D01*
X19507201D01*
Y12585700D01*
X19456400D01*
Y12560300D01*
X19431000D01*
Y12509500D01*
X19456400D01*
X19466560Y12519660D02*
Y12504420D01*
X19497040D01*
Y12519660D01*
X19512280D01*
Y12550140D01*
X19497040D01*
Y12565380D01*
X19466560D01*
Y12550140D01*
X19451320D01*
Y12519660D01*
X19466560D01*
X19380200Y12509500D02*
Y12484100D01*
X19431000D01*
Y12509500D01*
X19456400D01*
Y12560300D01*
X19431000D01*
Y12585700D01*
X19380200D01*
Y12560300D01*
X19354800D01*
Y12509500D01*
X19380200D01*
X19390359Y12519660D02*
Y12504420D01*
X19420840D01*
Y12519660D01*
X19436079D01*
Y12550140D01*
X19420840D01*
Y12565380D01*
X19390359D01*
Y12550140D01*
X19375121D01*
Y12519660D01*
X19390359D01*
X19303999Y12509500D02*
Y12484100D01*
X19354800D01*
Y12509500D01*
X19380200D01*
Y12560300D01*
X19354800D01*
Y12585700D01*
X19303999D01*
Y12560300D01*
X19278600D01*
Y12509500D01*
X19303999D01*
X19314160Y12519660D02*
Y12504420D01*
X19344640D01*
Y12519660D01*
X19359880D01*
Y12550140D01*
X19344640D01*
Y12565380D01*
X19314160D01*
Y12550140D01*
X19298920D01*
Y12519660D01*
X19314160D01*
X19227800Y12509500D02*
Y12484100D01*
X19278600D01*
Y12509500D01*
X19303999D01*
Y12560300D01*
X19278600D01*
Y12585700D01*
X19227800D01*
Y12560300D01*
X19202400D01*
Y12509500D01*
X19227800D01*
X19237959Y12519660D02*
Y12504420D01*
X19268440D01*
Y12519660D01*
X19283681D01*
Y12550140D01*
X19268440D01*
Y12565380D01*
X19237959D01*
Y12550140D01*
X19222720D01*
Y12519660D01*
X19237959D01*
X19151601Y12509500D02*
Y12484100D01*
X19202400D01*
Y12509500D01*
X19227800D01*
Y12560300D01*
X19202400D01*
Y12585700D01*
X19151601D01*
Y12560300D01*
X19126199D01*
Y12509500D01*
X19151601D01*
X19161760Y12519660D02*
Y12504420D01*
X19192239D01*
Y12519660D01*
X19207480D01*
Y12550140D01*
X19192239D01*
Y12565380D01*
X19161760D01*
Y12550140D01*
X19146519D01*
Y12519660D01*
X19161760D01*
X19075400Y12509500D02*
Y12484100D01*
X19126199D01*
Y12509500D01*
X19151601D01*
Y12560300D01*
X19126199D01*
Y12585700D01*
X19075400D01*
Y12560300D01*
X19050000D01*
Y12509500D01*
X19075400D01*
X19085561Y12519660D02*
Y12504420D01*
X19116040D01*
Y12519660D01*
X19131281D01*
Y12550140D01*
X19116040D01*
Y12565380D01*
X19085561D01*
Y12550140D01*
X19070320D01*
Y12519660D01*
X19085561D01*
X18999200Y12509500D02*
Y12484100D01*
X19050000D01*
Y12509500D01*
X19075400D01*
Y12560300D01*
X19050000D01*
Y12585700D01*
X18999200D01*
Y12560300D01*
X18973801D01*
Y12509500D01*
X18999200D01*
X19009360Y12519660D02*
Y12504420D01*
X19039841D01*
Y12519660D01*
X19055080D01*
Y12550140D01*
X19039841D01*
Y12565380D01*
X19009360D01*
Y12550140D01*
X18994119D01*
Y12519660D01*
X19009360D01*
X18923000Y12509500D02*
Y12484100D01*
X18973801D01*
Y12509500D01*
X18999200D01*
Y12560300D01*
X18973801D01*
Y12585700D01*
X18923000D01*
Y12560300D01*
X18897600D01*
Y12509500D01*
X18923000D01*
X18933160Y12519660D02*
Y12504420D01*
X18963640D01*
Y12519660D01*
X18978880D01*
Y12550140D01*
X18963640D01*
Y12565380D01*
X18933160D01*
Y12550140D01*
X18917920D01*
Y12519660D01*
X18933160D01*
X18846800Y12509500D02*
Y12484100D01*
X18897600D01*
Y12509500D01*
X18923000D01*
Y12560300D01*
X18897600D01*
Y12585700D01*
X18846800D01*
Y12560300D01*
X18821400D01*
Y12509500D01*
X18846800D01*
X18856960Y12519660D02*
Y12504420D01*
X18887440D01*
Y12519660D01*
X18902679D01*
Y12550140D01*
X18887440D01*
Y12565380D01*
X18856960D01*
Y12550140D01*
X18841721D01*
Y12519660D01*
X18856960D01*
X18770599Y12509500D02*
Y12484100D01*
X18821400D01*
Y12509500D01*
X18846800D01*
Y12560300D01*
X18821400D01*
Y12585700D01*
X18770599D01*
Y12560300D01*
X18745200D01*
Y12509500D01*
X18770599D01*
X18780760Y12519660D02*
Y12504420D01*
X18811240D01*
Y12519660D01*
X18826480D01*
Y12550140D01*
X18811240D01*
Y12565380D01*
X18780760D01*
Y12550140D01*
X18765520D01*
Y12519660D01*
X18780760D01*
X18694400Y12509500D02*
Y12484100D01*
X18745200D01*
Y12509500D01*
X18770599D01*
Y12560300D01*
X18745200D01*
Y12585700D01*
X18694400D01*
Y12560300D01*
X18669000D01*
Y12509500D01*
X18694400D01*
X18704559Y12519660D02*
Y12504420D01*
X18735040D01*
Y12519660D01*
X18750281D01*
Y12550140D01*
X18735040D01*
Y12565380D01*
X18704559D01*
Y12550140D01*
X18689320D01*
Y12519660D01*
X18704559D01*
X18618201Y12509500D02*
Y12484100D01*
X18669000D01*
Y12509500D01*
X18694400D01*
Y12560300D01*
X18669000D01*
Y12585700D01*
X18618201D01*
Y12560300D01*
X18592799D01*
Y12509500D01*
X18618201D01*
X18628360Y12519660D02*
Y12504420D01*
X18658839D01*
Y12519660D01*
X18674080D01*
Y12550140D01*
X18658839D01*
Y12565380D01*
X18628360D01*
Y12550140D01*
X18613120D01*
Y12519660D01*
X18628360D01*
X19608800Y12585700D02*
Y12560300D01*
X19659599D01*
Y12585700D01*
X19685001D01*
Y12636500D01*
X19659599D01*
Y12661900D01*
X19608800D01*
Y12636500D01*
X19583400D01*
Y12585700D01*
X19608800D01*
X19618961Y12595860D02*
Y12580620D01*
X19649440D01*
Y12595860D01*
X19664680D01*
Y12626340D01*
X19649440D01*
Y12641580D01*
X19618961D01*
Y12626340D01*
X19603720D01*
Y12595860D01*
X19618961D01*
X19532600Y12585700D02*
Y12560300D01*
X19583400D01*
Y12585700D01*
X19608800D01*
Y12636500D01*
X19583400D01*
Y12661900D01*
X19532600D01*
Y12636500D01*
X19507201D01*
Y12585700D01*
X19532600D01*
X19542760Y12595860D02*
Y12580620D01*
X19573241D01*
Y12595860D01*
X19588480D01*
Y12626340D01*
X19573241D01*
Y12641580D01*
X19542760D01*
Y12626340D01*
X19527521D01*
Y12595860D01*
X19542760D01*
X19456400Y12585700D02*
Y12560300D01*
X19507201D01*
Y12585700D01*
X19532600D01*
Y12636500D01*
X19507201D01*
Y12661900D01*
X19456400D01*
Y12636500D01*
X19431000D01*
Y12585700D01*
X19456400D01*
X19466560Y12595860D02*
Y12580620D01*
X19497040D01*
Y12595860D01*
X19512280D01*
Y12626340D01*
X19497040D01*
Y12641580D01*
X19466560D01*
Y12626340D01*
X19451320D01*
Y12595860D01*
X19466560D01*
X19380200Y12585700D02*
Y12560300D01*
X19431000D01*
Y12585700D01*
X19456400D01*
Y12636500D01*
X19431000D01*
Y12661900D01*
X19380200D01*
Y12636500D01*
X19354800D01*
Y12585700D01*
X19380200D01*
X19390359Y12595860D02*
Y12580620D01*
X19420840D01*
Y12595860D01*
X19436079D01*
Y12626340D01*
X19420840D01*
Y12641580D01*
X19390359D01*
Y12626340D01*
X19375121D01*
Y12595860D01*
X19390359D01*
X19303999Y12585700D02*
Y12560300D01*
X19354800D01*
Y12585700D01*
X19380200D01*
Y12636500D01*
X19354800D01*
Y12661900D01*
X19303999D01*
Y12636500D01*
X19278600D01*
Y12585700D01*
X19303999D01*
X19314160Y12595860D02*
Y12580620D01*
X19344640D01*
Y12595860D01*
X19359880D01*
Y12626340D01*
X19344640D01*
Y12641580D01*
X19314160D01*
Y12626340D01*
X19298920D01*
Y12595860D01*
X19314160D01*
X19227800Y12585700D02*
Y12560300D01*
X19278600D01*
Y12585700D01*
X19303999D01*
Y12636500D01*
X19278600D01*
Y12661900D01*
X19227800D01*
Y12636500D01*
X19202400D01*
Y12585700D01*
X19227800D01*
X19237959Y12595860D02*
Y12580620D01*
X19268440D01*
Y12595860D01*
X19283681D01*
Y12626340D01*
X19268440D01*
Y12641580D01*
X19237959D01*
Y12626340D01*
X19222720D01*
Y12595860D01*
X19237959D01*
X19151601Y12585700D02*
Y12560300D01*
X19202400D01*
Y12585700D01*
X19227800D01*
Y12636500D01*
X19202400D01*
Y12661900D01*
X19151601D01*
Y12636500D01*
X19126199D01*
Y12585700D01*
X19151601D01*
X19161760Y12595860D02*
Y12580620D01*
X19192239D01*
Y12595860D01*
X19207480D01*
Y12626340D01*
X19192239D01*
Y12641580D01*
X19161760D01*
Y12626340D01*
X19146519D01*
Y12595860D01*
X19161760D01*
X19075400Y12585700D02*
Y12560300D01*
X19126199D01*
Y12585700D01*
X19151601D01*
Y12636500D01*
X19126199D01*
Y12661900D01*
X19075400D01*
Y12636500D01*
X19050000D01*
Y12585700D01*
X19075400D01*
X19085561Y12595860D02*
Y12580620D01*
X19116040D01*
Y12595860D01*
X19131281D01*
Y12626340D01*
X19116040D01*
Y12641580D01*
X19085561D01*
Y12626340D01*
X19070320D01*
Y12595860D01*
X19085561D01*
X18999200Y12585700D02*
Y12560300D01*
X19050000D01*
Y12585700D01*
X19075400D01*
Y12636500D01*
X19050000D01*
Y12661900D01*
X18999200D01*
Y12636500D01*
X18973801D01*
Y12585700D01*
X18999200D01*
X19009360Y12595860D02*
Y12580620D01*
X19039841D01*
Y12595860D01*
X19055080D01*
Y12626340D01*
X19039841D01*
Y12641580D01*
X19009360D01*
Y12626340D01*
X18994119D01*
Y12595860D01*
X19009360D01*
X18923000Y12585700D02*
Y12560300D01*
X18973801D01*
Y12585700D01*
X18999200D01*
Y12636500D01*
X18973801D01*
Y12661900D01*
X18923000D01*
Y12636500D01*
X18897600D01*
Y12585700D01*
X18923000D01*
X18933160Y12595860D02*
Y12580620D01*
X18963640D01*
Y12595860D01*
X18978880D01*
Y12626340D01*
X18963640D01*
Y12641580D01*
X18933160D01*
Y12626340D01*
X18917920D01*
Y12595860D01*
X18933160D01*
X18846800Y12585700D02*
Y12560300D01*
X18897600D01*
Y12585700D01*
X18923000D01*
Y12636500D01*
X18897600D01*
Y12661900D01*
X18846800D01*
Y12636500D01*
X18821400D01*
Y12585700D01*
X18846800D01*
X18856960Y12595860D02*
Y12580620D01*
X18887440D01*
Y12595860D01*
X18902679D01*
Y12626340D01*
X18887440D01*
Y12641580D01*
X18856960D01*
Y12626340D01*
X18841721D01*
Y12595860D01*
X18856960D01*
X18770599Y12585700D02*
Y12560300D01*
X18821400D01*
Y12585700D01*
X18846800D01*
Y12636500D01*
X18821400D01*
Y12661900D01*
X18770599D01*
Y12636500D01*
X18745200D01*
Y12585700D01*
X18770599D01*
X18780760Y12595860D02*
Y12580620D01*
X18811240D01*
Y12595860D01*
X18826480D01*
Y12626340D01*
X18811240D01*
Y12641580D01*
X18780760D01*
Y12626340D01*
X18765520D01*
Y12595860D01*
X18780760D01*
X18694400Y12585700D02*
Y12560300D01*
X18745200D01*
Y12585700D01*
X18770599D01*
Y12636500D01*
X18745200D01*
Y12661900D01*
X18694400D01*
Y12636500D01*
X18669000D01*
Y12585700D01*
X18694400D01*
X18704559Y12595860D02*
Y12580620D01*
X18735040D01*
Y12595860D01*
X18750281D01*
Y12626340D01*
X18735040D01*
Y12641580D01*
X18704559D01*
Y12626340D01*
X18689320D01*
Y12595860D01*
X18704559D01*
X18618201Y12585700D02*
Y12560300D01*
X18669000D01*
Y12585700D01*
X18694400D01*
Y12636500D01*
X18669000D01*
Y12661900D01*
X18618201D01*
Y12636500D01*
X18592799D01*
Y12585700D01*
X18618201D01*
X18628360Y12595860D02*
Y12580620D01*
X18658839D01*
Y12595860D01*
X18674080D01*
Y12626340D01*
X18658839D01*
Y12641580D01*
X18628360D01*
Y12626340D01*
X18613120D01*
Y12595860D01*
X18628360D01*
X19608800Y12661900D02*
Y12636500D01*
X19659599D01*
Y12661900D01*
X19685001D01*
Y12712700D01*
X19659599D01*
Y12738100D01*
X19608800D01*
Y12712700D01*
X19583400D01*
Y12661900D01*
X19608800D01*
X19618961Y12672060D02*
Y12656820D01*
X19649440D01*
Y12672060D01*
X19664680D01*
Y12702540D01*
X19649440D01*
Y12717780D01*
X19618961D01*
Y12702540D01*
X19603720D01*
Y12672060D01*
X19618961D01*
X19532600Y12661900D02*
Y12636500D01*
X19583400D01*
Y12661900D01*
X19608800D01*
Y12712700D01*
X19583400D01*
Y12738100D01*
X19532600D01*
Y12712700D01*
X19507201D01*
Y12661900D01*
X19532600D01*
X19542760Y12672060D02*
Y12656820D01*
X19573241D01*
Y12672060D01*
X19588480D01*
Y12702540D01*
X19573241D01*
Y12717780D01*
X19542760D01*
Y12702540D01*
X19527521D01*
Y12672060D01*
X19542760D01*
X19456400Y12661900D02*
Y12636500D01*
X19507201D01*
Y12661900D01*
X19532600D01*
Y12712700D01*
X19507201D01*
Y12738100D01*
X19456400D01*
Y12712700D01*
X19431000D01*
Y12661900D01*
X19456400D01*
X19466560Y12672060D02*
Y12656820D01*
X19497040D01*
Y12672060D01*
X19512280D01*
Y12702540D01*
X19497040D01*
Y12717780D01*
X19466560D01*
Y12702540D01*
X19451320D01*
Y12672060D01*
X19466560D01*
X19380200Y12661900D02*
Y12636500D01*
X19431000D01*
Y12661900D01*
X19456400D01*
Y12712700D01*
X19431000D01*
Y12738100D01*
X19380200D01*
Y12712700D01*
X19354800D01*
Y12661900D01*
X19380200D01*
X19390359Y12672060D02*
Y12656820D01*
X19420840D01*
Y12672060D01*
X19436079D01*
Y12702540D01*
X19420840D01*
Y12717780D01*
X19390359D01*
Y12702540D01*
X19375121D01*
Y12672060D01*
X19390359D01*
X19303999Y12661900D02*
Y12636500D01*
X19354800D01*
Y12661900D01*
X19380200D01*
Y12712700D01*
X19354800D01*
Y12738100D01*
X19303999D01*
Y12712700D01*
X19278600D01*
Y12661900D01*
X19303999D01*
X19314160Y12672060D02*
Y12656820D01*
X19344640D01*
Y12672060D01*
X19359880D01*
Y12702540D01*
X19344640D01*
Y12717780D01*
X19314160D01*
Y12702540D01*
X19298920D01*
Y12672060D01*
X19314160D01*
X19227800Y12661900D02*
Y12636500D01*
X19278600D01*
Y12661900D01*
X19303999D01*
Y12712700D01*
X19278600D01*
Y12738100D01*
X19227800D01*
Y12712700D01*
X19202400D01*
Y12661900D01*
X19227800D01*
X19237959Y12672060D02*
Y12656820D01*
X19268440D01*
Y12672060D01*
X19283681D01*
Y12702540D01*
X19268440D01*
Y12717780D01*
X19237959D01*
Y12702540D01*
X19222720D01*
Y12672060D01*
X19237959D01*
X19151601Y12661900D02*
Y12636500D01*
X19202400D01*
Y12661900D01*
X19227800D01*
Y12712700D01*
X19202400D01*
Y12738100D01*
X19151601D01*
Y12712700D01*
X19126199D01*
Y12661900D01*
X19151601D01*
X19161760Y12672060D02*
Y12656820D01*
X19192239D01*
Y12672060D01*
X19207480D01*
Y12702540D01*
X19192239D01*
Y12717780D01*
X19161760D01*
Y12702540D01*
X19146519D01*
Y12672060D01*
X19161760D01*
X19075400Y12661900D02*
Y12636500D01*
X19126199D01*
Y12661900D01*
X19151601D01*
Y12712700D01*
X19126199D01*
Y12738100D01*
X19075400D01*
Y12712700D01*
X19050000D01*
Y12661900D01*
X19075400D01*
X19085561Y12672060D02*
Y12656820D01*
X19116040D01*
Y12672060D01*
X19131281D01*
Y12702540D01*
X19116040D01*
Y12717780D01*
X19085561D01*
Y12702540D01*
X19070320D01*
Y12672060D01*
X19085561D01*
X18999200Y12661900D02*
Y12636500D01*
X19050000D01*
Y12661900D01*
X19075400D01*
Y12712700D01*
X19050000D01*
Y12738100D01*
X18999200D01*
Y12712700D01*
X18973801D01*
Y12661900D01*
X18999200D01*
X19009360Y12672060D02*
Y12656820D01*
X19039841D01*
Y12672060D01*
X19055080D01*
Y12702540D01*
X19039841D01*
Y12717780D01*
X19009360D01*
Y12702540D01*
X18994119D01*
Y12672060D01*
X19009360D01*
X18923000Y12661900D02*
Y12636500D01*
X18973801D01*
Y12661900D01*
X18999200D01*
Y12712700D01*
X18973801D01*
Y12738100D01*
X18923000D01*
Y12712700D01*
X18897600D01*
Y12661900D01*
X18923000D01*
X18933160Y12672060D02*
Y12656820D01*
X18963640D01*
Y12672060D01*
X18978880D01*
Y12702540D01*
X18963640D01*
Y12717780D01*
X18933160D01*
Y12702540D01*
X18917920D01*
Y12672060D01*
X18933160D01*
X18846800Y12661900D02*
Y12636500D01*
X18897600D01*
Y12661900D01*
X18923000D01*
Y12712700D01*
X18897600D01*
Y12738100D01*
X18846800D01*
Y12712700D01*
X18821400D01*
Y12661900D01*
X18846800D01*
X18856960Y12672060D02*
Y12656820D01*
X18887440D01*
Y12672060D01*
X18902679D01*
Y12702540D01*
X18887440D01*
Y12717780D01*
X18856960D01*
Y12702540D01*
X18841721D01*
Y12672060D01*
X18856960D01*
X18770599Y12661900D02*
Y12636500D01*
X18821400D01*
Y12661900D01*
X18846800D01*
Y12712700D01*
X18821400D01*
Y12738100D01*
X18770599D01*
Y12712700D01*
X18745200D01*
Y12661900D01*
X18770599D01*
X18780760Y12672060D02*
Y12656820D01*
X18811240D01*
Y12672060D01*
X18826480D01*
Y12702540D01*
X18811240D01*
Y12717780D01*
X18780760D01*
Y12702540D01*
X18765520D01*
Y12672060D01*
X18780760D01*
X18694400Y12661900D02*
Y12636500D01*
X18745200D01*
Y12661900D01*
X18770599D01*
Y12712700D01*
X18745200D01*
Y12738100D01*
X18694400D01*
Y12712700D01*
X18669000D01*
Y12661900D01*
X18694400D01*
X18704559Y12672060D02*
Y12656820D01*
X18735040D01*
Y12672060D01*
X18750281D01*
Y12702540D01*
X18735040D01*
Y12717780D01*
X18704559D01*
Y12702540D01*
X18689320D01*
Y12672060D01*
X18704559D01*
X18618201Y12661900D02*
Y12636500D01*
X18669000D01*
Y12661900D01*
X18694400D01*
Y12712700D01*
X18669000D01*
Y12738100D01*
X18618201D01*
Y12712700D01*
X18592799D01*
Y12661900D01*
X18618201D01*
X18628360Y12672060D02*
Y12656820D01*
X18658839D01*
Y12672060D01*
X18674080D01*
Y12702540D01*
X18658839D01*
Y12717780D01*
X18628360D01*
Y12702540D01*
X18613120D01*
Y12672060D01*
X18628360D01*
X19608800Y12738100D02*
Y12712700D01*
X19659599D01*
Y12738100D01*
X19685001D01*
Y12788900D01*
X19659599D01*
Y12814301D01*
X19608800D01*
Y12788900D01*
X19583400D01*
Y12738100D01*
X19608800D01*
X19618961Y12748260D02*
Y12733020D01*
X19649440D01*
Y12748260D01*
X19664680D01*
Y12778740D01*
X19649440D01*
Y12793980D01*
X19618961D01*
Y12778740D01*
X19603720D01*
Y12748260D01*
X19618961D01*
X19532600Y12738100D02*
Y12712700D01*
X19583400D01*
Y12738100D01*
X19608800D01*
Y12788900D01*
X19583400D01*
Y12814301D01*
X19532600D01*
Y12788900D01*
X19507201D01*
Y12738100D01*
X19532600D01*
X19542760Y12748260D02*
Y12733020D01*
X19573241D01*
Y12748260D01*
X19588480D01*
Y12778740D01*
X19573241D01*
Y12793980D01*
X19542760D01*
Y12778740D01*
X19527521D01*
Y12748260D01*
X19542760D01*
X19456400Y12738100D02*
Y12712700D01*
X19507201D01*
Y12738100D01*
X19532600D01*
Y12788900D01*
X19507201D01*
Y12814301D01*
X19456400D01*
Y12788900D01*
X19431000D01*
Y12738100D01*
X19456400D01*
X19466560Y12748260D02*
Y12733020D01*
X19497040D01*
Y12748260D01*
X19512280D01*
Y12778740D01*
X19497040D01*
Y12793980D01*
X19466560D01*
Y12778740D01*
X19451320D01*
Y12748260D01*
X19466560D01*
X19380200Y12738100D02*
Y12712700D01*
X19431000D01*
Y12738100D01*
X19456400D01*
Y12788900D01*
X19431000D01*
Y12814301D01*
X19380200D01*
Y12788900D01*
X19354800D01*
Y12738100D01*
X19380200D01*
X19390359Y12748260D02*
Y12733020D01*
X19420840D01*
Y12748260D01*
X19436079D01*
Y12778740D01*
X19420840D01*
Y12793980D01*
X19390359D01*
Y12778740D01*
X19375121D01*
Y12748260D01*
X19390359D01*
X19303999Y12738100D02*
Y12712700D01*
X19354800D01*
Y12738100D01*
X19380200D01*
Y12788900D01*
X19354800D01*
Y12814301D01*
X19303999D01*
Y12788900D01*
X19278600D01*
Y12738100D01*
X19303999D01*
X19314160Y12748260D02*
Y12733020D01*
X19344640D01*
Y12748260D01*
X19359880D01*
Y12778740D01*
X19344640D01*
Y12793980D01*
X19314160D01*
Y12778740D01*
X19298920D01*
Y12748260D01*
X19314160D01*
X19227800Y12738100D02*
Y12712700D01*
X19278600D01*
Y12738100D01*
X19303999D01*
Y12788900D01*
X19278600D01*
Y12814301D01*
X19227800D01*
Y12788900D01*
X19202400D01*
Y12738100D01*
X19227800D01*
X19237959Y12748260D02*
Y12733020D01*
X19268440D01*
Y12748260D01*
X19283681D01*
Y12778740D01*
X19268440D01*
Y12793980D01*
X19237959D01*
Y12778740D01*
X19222720D01*
Y12748260D01*
X19237959D01*
X19151601Y12738100D02*
Y12712700D01*
X19202400D01*
Y12738100D01*
X19227800D01*
Y12788900D01*
X19202400D01*
Y12814301D01*
X19151601D01*
Y12788900D01*
X19126199D01*
Y12738100D01*
X19151601D01*
X19161760Y12748260D02*
Y12733020D01*
X19192239D01*
Y12748260D01*
X19207480D01*
Y12778740D01*
X19192239D01*
Y12793980D01*
X19161760D01*
Y12778740D01*
X19146519D01*
Y12748260D01*
X19161760D01*
X19075400Y12738100D02*
Y12712700D01*
X19126199D01*
Y12738100D01*
X19151601D01*
Y12788900D01*
X19126199D01*
Y12814301D01*
X19075400D01*
Y12788900D01*
X19050000D01*
Y12738100D01*
X19075400D01*
X19085561Y12748260D02*
Y12733020D01*
X19116040D01*
Y12748260D01*
X19131281D01*
Y12778740D01*
X19116040D01*
Y12793980D01*
X19085561D01*
Y12778740D01*
X19070320D01*
Y12748260D01*
X19085561D01*
X18999200Y12738100D02*
Y12712700D01*
X19050000D01*
Y12738100D01*
X19075400D01*
Y12788900D01*
X19050000D01*
Y12814301D01*
X18999200D01*
Y12788900D01*
X18973801D01*
Y12738100D01*
X18999200D01*
X19009360Y12748260D02*
Y12733020D01*
X19039841D01*
Y12748260D01*
X19055080D01*
Y12778740D01*
X19039841D01*
Y12793980D01*
X19009360D01*
Y12778740D01*
X18994119D01*
Y12748260D01*
X19009360D01*
X18923000Y12738100D02*
Y12712700D01*
X18973801D01*
Y12738100D01*
X18999200D01*
Y12788900D01*
X18973801D01*
Y12814301D01*
X18923000D01*
Y12788900D01*
X18897600D01*
Y12738100D01*
X18923000D01*
X18933160Y12748260D02*
Y12733020D01*
X18963640D01*
Y12748260D01*
X18978880D01*
Y12778740D01*
X18963640D01*
Y12793980D01*
X18933160D01*
Y12778740D01*
X18917920D01*
Y12748260D01*
X18933160D01*
X18846800Y12738100D02*
Y12712700D01*
X18897600D01*
Y12738100D01*
X18923000D01*
Y12788900D01*
X18897600D01*
Y12814301D01*
X18846800D01*
Y12788900D01*
X18821400D01*
Y12738100D01*
X18846800D01*
X18856960Y12748260D02*
Y12733020D01*
X18887440D01*
Y12748260D01*
X18902679D01*
Y12778740D01*
X18887440D01*
Y12793980D01*
X18856960D01*
Y12778740D01*
X18841721D01*
Y12748260D01*
X18856960D01*
X18770599Y12738100D02*
Y12712700D01*
X18821400D01*
Y12738100D01*
X18846800D01*
Y12788900D01*
X18821400D01*
Y12814301D01*
X18770599D01*
Y12788900D01*
X18745200D01*
Y12738100D01*
X18770599D01*
X18780760Y12748260D02*
Y12733020D01*
X18811240D01*
Y12748260D01*
X18826480D01*
Y12778740D01*
X18811240D01*
Y12793980D01*
X18780760D01*
Y12778740D01*
X18765520D01*
Y12748260D01*
X18780760D01*
X18694400Y12738100D02*
Y12712700D01*
X18745200D01*
Y12738100D01*
X18770599D01*
Y12788900D01*
X18745200D01*
Y12814301D01*
X18694400D01*
Y12788900D01*
X18669000D01*
Y12738100D01*
X18694400D01*
X18704559Y12748260D02*
Y12733020D01*
X18735040D01*
Y12748260D01*
X18750281D01*
Y12778740D01*
X18735040D01*
Y12793980D01*
X18704559D01*
Y12778740D01*
X18689320D01*
Y12748260D01*
X18704559D01*
X18618201Y12738100D02*
Y12712700D01*
X18669000D01*
Y12738100D01*
X18694400D01*
Y12788900D01*
X18669000D01*
Y12814301D01*
X18618201D01*
Y12788900D01*
X18592799D01*
Y12738100D01*
X18618201D01*
X18628360Y12748260D02*
Y12733020D01*
X18658839D01*
Y12748260D01*
X18674080D01*
Y12778740D01*
X18658839D01*
Y12793980D01*
X18628360D01*
Y12778740D01*
X18613120D01*
Y12748260D01*
X18628360D01*
X19608800Y12814301D02*
Y12788900D01*
X19659599D01*
Y12814301D01*
X19685001D01*
Y12865100D01*
X19659599D01*
Y12890500D01*
X19608800D01*
Y12865100D01*
X19583400D01*
Y12814301D01*
X19608800D01*
X19618961Y12824460D02*
Y12809219D01*
X19649440D01*
Y12824460D01*
X19664680D01*
Y12854939D01*
X19649440D01*
Y12870180D01*
X19618961D01*
Y12854939D01*
X19603720D01*
Y12824460D01*
X19618961D01*
X19532600Y12814301D02*
Y12788900D01*
X19583400D01*
Y12814301D01*
X19608800D01*
Y12865100D01*
X19583400D01*
Y12890500D01*
X19532600D01*
Y12865100D01*
X19507201D01*
Y12814301D01*
X19532600D01*
X19542760Y12824460D02*
Y12809219D01*
X19573241D01*
Y12824460D01*
X19588480D01*
Y12854939D01*
X19573241D01*
Y12870180D01*
X19542760D01*
Y12854939D01*
X19527521D01*
Y12824460D01*
X19542760D01*
X19456400Y12814301D02*
Y12788900D01*
X19507201D01*
Y12814301D01*
X19532600D01*
Y12865100D01*
X19507201D01*
Y12890500D01*
X19456400D01*
Y12865100D01*
X19431000D01*
Y12814301D01*
X19456400D01*
X19466560Y12824460D02*
Y12809219D01*
X19497040D01*
Y12824460D01*
X19512280D01*
Y12854939D01*
X19497040D01*
Y12870180D01*
X19466560D01*
Y12854939D01*
X19451320D01*
Y12824460D01*
X19466560D01*
X19380200Y12814301D02*
Y12788900D01*
X19431000D01*
Y12814301D01*
X19456400D01*
Y12865100D01*
X19431000D01*
Y12890500D01*
X19380200D01*
Y12865100D01*
X19354800D01*
Y12814301D01*
X19380200D01*
X19390359Y12824460D02*
Y12809219D01*
X19420840D01*
Y12824460D01*
X19436079D01*
Y12854939D01*
X19420840D01*
Y12870180D01*
X19390359D01*
Y12854939D01*
X19375121D01*
Y12824460D01*
X19390359D01*
X19303999Y12814301D02*
Y12788900D01*
X19354800D01*
Y12814301D01*
X19380200D01*
Y12865100D01*
X19354800D01*
Y12890500D01*
X19303999D01*
Y12865100D01*
X19278600D01*
Y12814301D01*
X19303999D01*
X19314160Y12824460D02*
Y12809219D01*
X19344640D01*
Y12824460D01*
X19359880D01*
Y12854939D01*
X19344640D01*
Y12870180D01*
X19314160D01*
Y12854939D01*
X19298920D01*
Y12824460D01*
X19314160D01*
X19227800Y12814301D02*
Y12788900D01*
X19278600D01*
Y12814301D01*
X19303999D01*
Y12865100D01*
X19278600D01*
Y12890500D01*
X19227800D01*
Y12865100D01*
X19202400D01*
Y12814301D01*
X19227800D01*
X19237959Y12824460D02*
Y12809219D01*
X19268440D01*
Y12824460D01*
X19283681D01*
Y12854939D01*
X19268440D01*
Y12870180D01*
X19237959D01*
Y12854939D01*
X19222720D01*
Y12824460D01*
X19237959D01*
X19151601Y12814301D02*
Y12788900D01*
X19202400D01*
Y12814301D01*
X19227800D01*
Y12865100D01*
X19202400D01*
Y12890500D01*
X19151601D01*
Y12865100D01*
X19126199D01*
Y12814301D01*
X19151601D01*
X19161760Y12824460D02*
Y12809219D01*
X19192239D01*
Y12824460D01*
X19207480D01*
Y12854939D01*
X19192239D01*
Y12870180D01*
X19161760D01*
Y12854939D01*
X19146519D01*
Y12824460D01*
X19161760D01*
X19075400Y12814301D02*
Y12788900D01*
X19126199D01*
Y12814301D01*
X19151601D01*
Y12865100D01*
X19126199D01*
Y12890500D01*
X19075400D01*
Y12865100D01*
X19050000D01*
Y12814301D01*
X19075400D01*
X19085561Y12824460D02*
Y12809219D01*
X19116040D01*
Y12824460D01*
X19131281D01*
Y12854939D01*
X19116040D01*
Y12870180D01*
X19085561D01*
Y12854939D01*
X19070320D01*
Y12824460D01*
X19085561D01*
X18999200Y12814301D02*
Y12788900D01*
X19050000D01*
Y12814301D01*
X19075400D01*
Y12865100D01*
X19050000D01*
Y12890500D01*
X18999200D01*
Y12865100D01*
X18973801D01*
Y12814301D01*
X18999200D01*
X19009360Y12824460D02*
Y12809219D01*
X19039841D01*
Y12824460D01*
X19055080D01*
Y12854939D01*
X19039841D01*
Y12870180D01*
X19009360D01*
Y12854939D01*
X18994119D01*
Y12824460D01*
X19009360D01*
X18923000Y12814301D02*
Y12788900D01*
X18973801D01*
Y12814301D01*
X18999200D01*
Y12865100D01*
X18973801D01*
Y12890500D01*
X18923000D01*
Y12865100D01*
X18897600D01*
Y12814301D01*
X18923000D01*
X18933160Y12824460D02*
Y12809219D01*
X18963640D01*
Y12824460D01*
X18978880D01*
Y12854939D01*
X18963640D01*
Y12870180D01*
X18933160D01*
Y12854939D01*
X18917920D01*
Y12824460D01*
X18933160D01*
X18846800Y12814301D02*
Y12788900D01*
X18897600D01*
Y12814301D01*
X18923000D01*
Y12865100D01*
X18897600D01*
Y12890500D01*
X18846800D01*
Y12865100D01*
X18821400D01*
Y12814301D01*
X18846800D01*
X18856960Y12824460D02*
Y12809219D01*
X18887440D01*
Y12824460D01*
X18902679D01*
Y12854939D01*
X18887440D01*
Y12870180D01*
X18856960D01*
Y12854939D01*
X18841721D01*
Y12824460D01*
X18856960D01*
X18770599Y12814301D02*
Y12788900D01*
X18821400D01*
Y12814301D01*
X18846800D01*
Y12865100D01*
X18821400D01*
Y12890500D01*
X18770599D01*
Y12865100D01*
X18745200D01*
Y12814301D01*
X18770599D01*
X18780760Y12824460D02*
Y12809219D01*
X18811240D01*
Y12824460D01*
X18826480D01*
Y12854939D01*
X18811240D01*
Y12870180D01*
X18780760D01*
Y12854939D01*
X18765520D01*
Y12824460D01*
X18780760D01*
X18694400Y12814301D02*
Y12788900D01*
X18745200D01*
Y12814301D01*
X18770599D01*
Y12865100D01*
X18745200D01*
Y12890500D01*
X18694400D01*
Y12865100D01*
X18669000D01*
Y12814301D01*
X18694400D01*
X18704559Y12824460D02*
Y12809219D01*
X18735040D01*
Y12824460D01*
X18750281D01*
Y12854939D01*
X18735040D01*
Y12870180D01*
X18704559D01*
Y12854939D01*
X18689320D01*
Y12824460D01*
X18704559D01*
X18618201Y12814301D02*
Y12788900D01*
X18669000D01*
Y12814301D01*
X18694400D01*
Y12865100D01*
X18669000D01*
Y12890500D01*
X18618201D01*
Y12865100D01*
X18592799D01*
Y12814301D01*
X18618201D01*
X18628360Y12824460D02*
Y12809219D01*
X18658839D01*
Y12824460D01*
X18674080D01*
Y12854939D01*
X18658839D01*
Y12870180D01*
X18628360D01*
Y12854939D01*
X18613120D01*
Y12824460D01*
X18628360D01*
X19608800Y12890500D02*
Y12865100D01*
X19659599D01*
Y12890500D01*
X19685001D01*
Y12941299D01*
X19659599D01*
Y12966701D01*
X19608800D01*
Y12941299D01*
X19583400D01*
Y12890500D01*
X19608800D01*
X19618961Y12900661D02*
Y12885420D01*
X19649440D01*
Y12900661D01*
X19664680D01*
Y12931140D01*
X19649440D01*
Y12946381D01*
X19618961D01*
Y12931140D01*
X19603720D01*
Y12900661D01*
X19618961D01*
X19532600Y12890500D02*
Y12865100D01*
X19583400D01*
Y12890500D01*
X19608800D01*
Y12941299D01*
X19583400D01*
Y12966701D01*
X19532600D01*
Y12941299D01*
X19507201D01*
Y12890500D01*
X19532600D01*
X19542760Y12900661D02*
Y12885420D01*
X19573241D01*
Y12900661D01*
X19588480D01*
Y12931140D01*
X19573241D01*
Y12946381D01*
X19542760D01*
Y12931140D01*
X19527521D01*
Y12900661D01*
X19542760D01*
X19456400Y12890500D02*
Y12865100D01*
X19507201D01*
Y12890500D01*
X19532600D01*
Y12941299D01*
X19507201D01*
Y12966701D01*
X19456400D01*
Y12941299D01*
X19431000D01*
Y12890500D01*
X19456400D01*
X19466560Y12900661D02*
Y12885420D01*
X19497040D01*
Y12900661D01*
X19512280D01*
Y12931140D01*
X19497040D01*
Y12946381D01*
X19466560D01*
Y12931140D01*
X19451320D01*
Y12900661D01*
X19466560D01*
X19380200Y12890500D02*
Y12865100D01*
X19431000D01*
Y12890500D01*
X19456400D01*
Y12941299D01*
X19431000D01*
Y12966701D01*
X19380200D01*
Y12941299D01*
X19354800D01*
Y12890500D01*
X19380200D01*
X19390359Y12900661D02*
Y12885420D01*
X19420840D01*
Y12900661D01*
X19436079D01*
Y12931140D01*
X19420840D01*
Y12946381D01*
X19390359D01*
Y12931140D01*
X19375121D01*
Y12900661D01*
X19390359D01*
X19303999Y12890500D02*
Y12865100D01*
X19354800D01*
Y12890500D01*
X19380200D01*
Y12941299D01*
X19354800D01*
Y12966701D01*
X19303999D01*
Y12941299D01*
X19278600D01*
Y12890500D01*
X19303999D01*
X19314160Y12900661D02*
Y12885420D01*
X19344640D01*
Y12900661D01*
X19359880D01*
Y12931140D01*
X19344640D01*
Y12946381D01*
X19314160D01*
Y12931140D01*
X19298920D01*
Y12900661D01*
X19314160D01*
X19227800Y12890500D02*
Y12865100D01*
X19278600D01*
Y12890500D01*
X19303999D01*
Y12941299D01*
X19278600D01*
Y12966701D01*
X19227800D01*
Y12941299D01*
X19202400D01*
Y12890500D01*
X19227800D01*
X19237959Y12900661D02*
Y12885420D01*
X19268440D01*
Y12900661D01*
X19283681D01*
Y12931140D01*
X19268440D01*
Y12946381D01*
X19237959D01*
Y12931140D01*
X19222720D01*
Y12900661D01*
X19237959D01*
X19151601Y12890500D02*
Y12865100D01*
X19202400D01*
Y12890500D01*
X19227800D01*
Y12941299D01*
X19202400D01*
Y12966701D01*
X19151601D01*
Y12941299D01*
X19126199D01*
Y12890500D01*
X19151601D01*
X19161760Y12900661D02*
Y12885420D01*
X19192239D01*
Y12900661D01*
X19207480D01*
Y12931140D01*
X19192239D01*
Y12946381D01*
X19161760D01*
Y12931140D01*
X19146519D01*
Y12900661D01*
X19161760D01*
X19075400Y12890500D02*
Y12865100D01*
X19126199D01*
Y12890500D01*
X19151601D01*
Y12941299D01*
X19126199D01*
Y12966701D01*
X19075400D01*
Y12941299D01*
X19050000D01*
Y12890500D01*
X19075400D01*
X19085561Y12900661D02*
Y12885420D01*
X19116040D01*
Y12900661D01*
X19131281D01*
Y12931140D01*
X19116040D01*
Y12946381D01*
X19085561D01*
Y12931140D01*
X19070320D01*
Y12900661D01*
X19085561D01*
X18999200Y12890500D02*
Y12865100D01*
X19050000D01*
Y12890500D01*
X19075400D01*
Y12941299D01*
X19050000D01*
Y12966701D01*
X18999200D01*
Y12941299D01*
X18973801D01*
Y12890500D01*
X18999200D01*
X19009360Y12900661D02*
Y12885420D01*
X19039841D01*
Y12900661D01*
X19055080D01*
Y12931140D01*
X19039841D01*
Y12946381D01*
X19009360D01*
Y12931140D01*
X18994119D01*
Y12900661D01*
X19009360D01*
X18923000Y12890500D02*
Y12865100D01*
X18973801D01*
Y12890500D01*
X18999200D01*
Y12941299D01*
X18973801D01*
Y12966701D01*
X18923000D01*
Y12941299D01*
X18897600D01*
Y12890500D01*
X18923000D01*
X18933160Y12900661D02*
Y12885420D01*
X18963640D01*
Y12900661D01*
X18978880D01*
Y12931140D01*
X18963640D01*
Y12946381D01*
X18933160D01*
Y12931140D01*
X18917920D01*
Y12900661D01*
X18933160D01*
X18846800Y12890500D02*
Y12865100D01*
X18897600D01*
Y12890500D01*
X18923000D01*
Y12941299D01*
X18897600D01*
Y12966701D01*
X18846800D01*
Y12941299D01*
X18821400D01*
Y12890500D01*
X18846800D01*
X18856960Y12900661D02*
Y12885420D01*
X18887440D01*
Y12900661D01*
X18902679D01*
Y12931140D01*
X18887440D01*
Y12946381D01*
X18856960D01*
Y12931140D01*
X18841721D01*
Y12900661D01*
X18856960D01*
X18770599Y12890500D02*
Y12865100D01*
X18821400D01*
Y12890500D01*
X18846800D01*
Y12941299D01*
X18821400D01*
Y12966701D01*
X18770599D01*
Y12941299D01*
X18745200D01*
Y12890500D01*
X18770599D01*
X18780760Y12900661D02*
Y12885420D01*
X18811240D01*
Y12900661D01*
X18826480D01*
Y12931140D01*
X18811240D01*
Y12946381D01*
X18780760D01*
Y12931140D01*
X18765520D01*
Y12900661D01*
X18780760D01*
X18694400Y12890500D02*
Y12865100D01*
X18745200D01*
Y12890500D01*
X18770599D01*
Y12941299D01*
X18745200D01*
Y12966701D01*
X18694400D01*
Y12941299D01*
X18669000D01*
Y12890500D01*
X18694400D01*
X18704559Y12900661D02*
Y12885420D01*
X18735040D01*
Y12900661D01*
X18750281D01*
Y12931140D01*
X18735040D01*
Y12946381D01*
X18704559D01*
Y12931140D01*
X18689320D01*
Y12900661D01*
X18704559D01*
X18618201Y12890500D02*
Y12865100D01*
X18669000D01*
Y12890500D01*
X18694400D01*
Y12941299D01*
X18669000D01*
Y12966701D01*
X18618201D01*
Y12941299D01*
X18592799D01*
Y12890500D01*
X18618201D01*
X18628360Y12900661D02*
Y12885420D01*
X18658839D01*
Y12900661D01*
X18674080D01*
Y12931140D01*
X18658839D01*
Y12946381D01*
X18628360D01*
Y12931140D01*
X18613120D01*
Y12900661D01*
X18628360D01*
X19608800Y12433300D02*
Y12407900D01*
X19659599D01*
Y12433300D01*
X19685001D01*
Y12484100D01*
X19659599D01*
Y12509500D01*
X19608800D01*
Y12484100D01*
X19583400D01*
Y12433300D01*
X19608800D01*
X19618961Y12443460D02*
Y12428220D01*
X19649440D01*
Y12443460D01*
X19664680D01*
Y12473940D01*
X19649440D01*
Y12489180D01*
X19618961D01*
Y12473940D01*
X19603720D01*
Y12443460D01*
X19618961D01*
X19532600Y12433300D02*
Y12407900D01*
X19583400D01*
Y12433300D01*
X19608800D01*
Y12484100D01*
X19583400D01*
Y12509500D01*
X19532600D01*
Y12484100D01*
X19507201D01*
Y12433300D01*
X19532600D01*
X19542760Y12443460D02*
Y12428220D01*
X19573241D01*
Y12443460D01*
X19588480D01*
Y12473940D01*
X19573241D01*
Y12489180D01*
X19542760D01*
Y12473940D01*
X19527521D01*
Y12443460D01*
X19542760D01*
X19456400Y12433300D02*
Y12407900D01*
X19507201D01*
Y12433300D01*
X19532600D01*
Y12484100D01*
X19507201D01*
Y12509500D01*
X19456400D01*
Y12484100D01*
X19431000D01*
Y12433300D01*
X19456400D01*
X19466560Y12443460D02*
Y12428220D01*
X19497040D01*
Y12443460D01*
X19512280D01*
Y12473940D01*
X19497040D01*
Y12489180D01*
X19466560D01*
Y12473940D01*
X19451320D01*
Y12443460D01*
X19466560D01*
X19380200Y12433300D02*
Y12407900D01*
X19431000D01*
Y12433300D01*
X19456400D01*
Y12484100D01*
X19431000D01*
Y12509500D01*
X19380200D01*
Y12484100D01*
X19354800D01*
Y12433300D01*
X19380200D01*
X19390359Y12443460D02*
Y12428220D01*
X19420840D01*
Y12443460D01*
X19436079D01*
Y12473940D01*
X19420840D01*
Y12489180D01*
X19390359D01*
Y12473940D01*
X19375121D01*
Y12443460D01*
X19390359D01*
X19303999Y12433300D02*
Y12407900D01*
X19354800D01*
Y12433300D01*
X19380200D01*
Y12484100D01*
X19354800D01*
Y12509500D01*
X19303999D01*
Y12484100D01*
X19278600D01*
Y12433300D01*
X19303999D01*
X19314160Y12443460D02*
Y12428220D01*
X19344640D01*
Y12443460D01*
X19359880D01*
Y12473940D01*
X19344640D01*
Y12489180D01*
X19314160D01*
Y12473940D01*
X19298920D01*
Y12443460D01*
X19314160D01*
X19227800Y12433300D02*
Y12407900D01*
X19278600D01*
Y12433300D01*
X19303999D01*
Y12484100D01*
X19278600D01*
Y12509500D01*
X19227800D01*
Y12484100D01*
X19202400D01*
Y12433300D01*
X19227800D01*
X19237959Y12443460D02*
Y12428220D01*
X19268440D01*
Y12443460D01*
X19283681D01*
Y12473940D01*
X19268440D01*
Y12489180D01*
X19237959D01*
Y12473940D01*
X19222720D01*
Y12443460D01*
X19237959D01*
X19151601Y12433300D02*
Y12407900D01*
X19202400D01*
Y12433300D01*
X19227800D01*
Y12484100D01*
X19202400D01*
Y12509500D01*
X19151601D01*
Y12484100D01*
X19126199D01*
Y12433300D01*
X19151601D01*
X19161760Y12443460D02*
Y12428220D01*
X19192239D01*
Y12443460D01*
X19207480D01*
Y12473940D01*
X19192239D01*
Y12489180D01*
X19161760D01*
Y12473940D01*
X19146519D01*
Y12443460D01*
X19161760D01*
X19075400Y12433300D02*
Y12407900D01*
X19126199D01*
Y12433300D01*
X19151601D01*
Y12484100D01*
X19126199D01*
Y12509500D01*
X19075400D01*
Y12484100D01*
X19050000D01*
Y12433300D01*
X19075400D01*
X19085561Y12443460D02*
Y12428220D01*
X19116040D01*
Y12443460D01*
X19131281D01*
Y12473940D01*
X19116040D01*
Y12489180D01*
X19085561D01*
Y12473940D01*
X19070320D01*
Y12443460D01*
X19085561D01*
X18999200Y12433300D02*
Y12407900D01*
X19050000D01*
Y12433300D01*
X19075400D01*
Y12484100D01*
X19050000D01*
Y12509500D01*
X18999200D01*
Y12484100D01*
X18973801D01*
Y12433300D01*
X18999200D01*
X19009360Y12443460D02*
Y12428220D01*
X19039841D01*
Y12443460D01*
X19055080D01*
Y12473940D01*
X19039841D01*
Y12489180D01*
X19009360D01*
Y12473940D01*
X18994119D01*
Y12443460D01*
X19009360D01*
X18923000Y12433300D02*
Y12407900D01*
X18973801D01*
Y12433300D01*
X18999200D01*
Y12484100D01*
X18973801D01*
Y12509500D01*
X18923000D01*
Y12484100D01*
X18897600D01*
Y12433300D01*
X18923000D01*
X18933160Y12443460D02*
Y12428220D01*
X18963640D01*
Y12443460D01*
X18978880D01*
Y12473940D01*
X18963640D01*
Y12489180D01*
X18933160D01*
Y12473940D01*
X18917920D01*
Y12443460D01*
X18933160D01*
X18846800Y12433300D02*
Y12407900D01*
X18897600D01*
Y12433300D01*
X18923000D01*
Y12484100D01*
X18897600D01*
Y12509500D01*
X18846800D01*
Y12484100D01*
X18821400D01*
Y12433300D01*
X18846800D01*
X18856960Y12443460D02*
Y12428220D01*
X18887440D01*
Y12443460D01*
X18902679D01*
Y12473940D01*
X18887440D01*
Y12489180D01*
X18856960D01*
Y12473940D01*
X18841721D01*
Y12443460D01*
X18856960D01*
X18770599Y12433300D02*
Y12407900D01*
X18821400D01*
Y12433300D01*
X18846800D01*
Y12484100D01*
X18821400D01*
Y12509500D01*
X18770599D01*
Y12484100D01*
X18745200D01*
Y12433300D01*
X18770599D01*
X18780760Y12443460D02*
Y12428220D01*
X18811240D01*
Y12443460D01*
X18826480D01*
Y12473940D01*
X18811240D01*
Y12489180D01*
X18780760D01*
Y12473940D01*
X18765520D01*
Y12443460D01*
X18780760D01*
X18694400Y12433300D02*
Y12407900D01*
X18745200D01*
Y12433300D01*
X18770599D01*
Y12484100D01*
X18745200D01*
Y12509500D01*
X18694400D01*
Y12484100D01*
X18669000D01*
Y12433300D01*
X18694400D01*
X18704559Y12443460D02*
Y12428220D01*
X18735040D01*
Y12443460D01*
X18750281D01*
Y12473940D01*
X18735040D01*
Y12489180D01*
X18704559D01*
Y12473940D01*
X18689320D01*
Y12443460D01*
X18704559D01*
X18618201Y12433300D02*
Y12407900D01*
X18669000D01*
Y12433300D01*
X18694400D01*
Y12484100D01*
X18669000D01*
Y12509500D01*
X18618201D01*
Y12484100D01*
X18592799D01*
Y12433300D01*
X18618201D01*
X18628360Y12443460D02*
Y12428220D01*
X18658839D01*
Y12443460D01*
X18674080D01*
Y12473940D01*
X18658839D01*
Y12489180D01*
X18628360D01*
Y12473940D01*
X18613120D01*
Y12443460D01*
X18628360D01*
X18545522Y12434710D02*
Y12409310D01*
X18596321D01*
Y12434710D01*
X18621721D01*
Y12485510D01*
X18596321D01*
Y12510910D01*
X18545522D01*
Y12485510D01*
X18520120D01*
Y12434710D01*
X18545522D01*
X18555681Y12444870D02*
Y12429630D01*
X18586160D01*
Y12444870D01*
X18601401D01*
Y12475350D01*
X18586160D01*
Y12490590D01*
X18555681D01*
Y12475350D01*
X18540440D01*
Y12444870D01*
X18555681D01*
X18545522Y12891910D02*
Y12866510D01*
X18596321D01*
Y12891910D01*
X18621721D01*
Y12942709D01*
X18596321D01*
Y12968111D01*
X18545522D01*
Y12942709D01*
X18520120D01*
Y12891910D01*
X18545522D01*
X18555681Y12902071D02*
Y12886830D01*
X18586160D01*
Y12902071D01*
X18601401D01*
Y12932550D01*
X18586160D01*
Y12947791D01*
X18555681D01*
Y12932550D01*
X18540440D01*
Y12902071D01*
X18555681D01*
X18545522Y12815710D02*
Y12790310D01*
X18596321D01*
Y12815710D01*
X18621721D01*
Y12866510D01*
X18596321D01*
Y12891910D01*
X18545522D01*
Y12866510D01*
X18520120D01*
Y12815710D01*
X18545522D01*
X18555681Y12825870D02*
Y12810629D01*
X18586160D01*
Y12825870D01*
X18601401D01*
Y12856351D01*
X18586160D01*
Y12871590D01*
X18555681D01*
Y12856351D01*
X18540440D01*
Y12825870D01*
X18555681D01*
X18545522Y12739510D02*
Y12714110D01*
X18596321D01*
Y12739510D01*
X18621721D01*
Y12790310D01*
X18596321D01*
Y12815710D01*
X18545522D01*
Y12790310D01*
X18520120D01*
Y12739510D01*
X18545522D01*
X18555681Y12749670D02*
Y12734430D01*
X18586160D01*
Y12749670D01*
X18601401D01*
Y12780150D01*
X18586160D01*
Y12795390D01*
X18555681D01*
Y12780150D01*
X18540440D01*
Y12749670D01*
X18555681D01*
X18545522Y12663310D02*
Y12637910D01*
X18596321D01*
Y12663310D01*
X18621721D01*
Y12714110D01*
X18596321D01*
Y12739510D01*
X18545522D01*
Y12714110D01*
X18520120D01*
Y12663310D01*
X18545522D01*
X18555681Y12673470D02*
Y12658230D01*
X18586160D01*
Y12673470D01*
X18601401D01*
Y12703950D01*
X18586160D01*
Y12719190D01*
X18555681D01*
Y12703950D01*
X18540440D01*
Y12673470D01*
X18555681D01*
X18545522Y12587110D02*
Y12561710D01*
X18596321D01*
Y12587110D01*
X18621721D01*
Y12637910D01*
X18596321D01*
Y12663310D01*
X18545522D01*
Y12637910D01*
X18520120D01*
Y12587110D01*
X18545522D01*
X18555681Y12597270D02*
Y12582030D01*
X18586160D01*
Y12597270D01*
X18601401D01*
Y12627750D01*
X18586160D01*
Y12642990D01*
X18555681D01*
Y12627750D01*
X18540440D01*
Y12597270D01*
X18555681D01*
X18545522Y12510910D02*
Y12485510D01*
X18596321D01*
Y12510910D01*
X18621721D01*
Y12561710D01*
X18596321D01*
Y12587110D01*
X18545522D01*
Y12561710D01*
X18520120D01*
Y12510910D01*
X18545522D01*
X18555681Y12521070D02*
Y12505830D01*
X18586160D01*
Y12521070D01*
X18601401D01*
Y12551550D01*
X18586160D01*
Y12566790D01*
X18555681D01*
Y12551550D01*
X18540440D01*
Y12521070D01*
X18555681D01*
X19608800Y13042900D02*
Y13017500D01*
X19659599D01*
Y13042900D01*
X19685001D01*
Y13093700D01*
X19659599D01*
Y13119099D01*
X19608800D01*
Y13093700D01*
X19583400D01*
Y13042900D01*
X19608800D01*
X19618961Y13053059D02*
Y13037820D01*
X19649440D01*
Y13053059D01*
X19664680D01*
Y13083540D01*
X19649440D01*
Y13098779D01*
X19618961D01*
Y13083540D01*
X19603720D01*
Y13053059D01*
X19618961D01*
X19532600Y13042900D02*
Y13017500D01*
X19583400D01*
Y13042900D01*
X19608800D01*
Y13093700D01*
X19583400D01*
Y13119099D01*
X19532600D01*
Y13093700D01*
X19507201D01*
Y13042900D01*
X19532600D01*
X19542760Y13053059D02*
Y13037820D01*
X19573241D01*
Y13053059D01*
X19588480D01*
Y13083540D01*
X19573241D01*
Y13098779D01*
X19542760D01*
Y13083540D01*
X19527521D01*
Y13053059D01*
X19542760D01*
X19456400Y13042900D02*
Y13017500D01*
X19507201D01*
Y13042900D01*
X19532600D01*
Y13093700D01*
X19507201D01*
Y13119099D01*
X19456400D01*
Y13093700D01*
X19431000D01*
Y13042900D01*
X19456400D01*
X19466560Y13053059D02*
Y13037820D01*
X19497040D01*
Y13053059D01*
X19512280D01*
Y13083540D01*
X19497040D01*
Y13098779D01*
X19466560D01*
Y13083540D01*
X19451320D01*
Y13053059D01*
X19466560D01*
X19380200Y13042900D02*
Y13017500D01*
X19431000D01*
Y13042900D01*
X19456400D01*
Y13093700D01*
X19431000D01*
Y13119099D01*
X19380200D01*
Y13093700D01*
X19354800D01*
Y13042900D01*
X19380200D01*
X19390359Y13053059D02*
Y13037820D01*
X19420840D01*
Y13053059D01*
X19436079D01*
Y13083540D01*
X19420840D01*
Y13098779D01*
X19390359D01*
Y13083540D01*
X19375121D01*
Y13053059D01*
X19390359D01*
X19303999Y13042900D02*
Y13017500D01*
X19354800D01*
Y13042900D01*
X19380200D01*
Y13093700D01*
X19354800D01*
Y13119099D01*
X19303999D01*
Y13093700D01*
X19278600D01*
Y13042900D01*
X19303999D01*
X19314160Y13053059D02*
Y13037820D01*
X19344640D01*
Y13053059D01*
X19359880D01*
Y13083540D01*
X19344640D01*
Y13098779D01*
X19314160D01*
Y13083540D01*
X19298920D01*
Y13053059D01*
X19314160D01*
X19227800Y13042900D02*
Y13017500D01*
X19278600D01*
Y13042900D01*
X19303999D01*
Y13093700D01*
X19278600D01*
Y13119099D01*
X19227800D01*
Y13093700D01*
X19202400D01*
Y13042900D01*
X19227800D01*
X19237959Y13053059D02*
Y13037820D01*
X19268440D01*
Y13053059D01*
X19283681D01*
Y13083540D01*
X19268440D01*
Y13098779D01*
X19237959D01*
Y13083540D01*
X19222720D01*
Y13053059D01*
X19237959D01*
X19151601Y13042900D02*
Y13017500D01*
X19202400D01*
Y13042900D01*
X19227800D01*
Y13093700D01*
X19202400D01*
Y13119099D01*
X19151601D01*
Y13093700D01*
X19126199D01*
Y13042900D01*
X19151601D01*
X19161760Y13053059D02*
Y13037820D01*
X19192239D01*
Y13053059D01*
X19207480D01*
Y13083540D01*
X19192239D01*
Y13098779D01*
X19161760D01*
Y13083540D01*
X19146519D01*
Y13053059D01*
X19161760D01*
X19075400Y13042900D02*
Y13017500D01*
X19126199D01*
Y13042900D01*
X19151601D01*
Y13093700D01*
X19126199D01*
Y13119099D01*
X19075400D01*
Y13093700D01*
X19050000D01*
Y13042900D01*
X19075400D01*
X19085561Y13053059D02*
Y13037820D01*
X19116040D01*
Y13053059D01*
X19131281D01*
Y13083540D01*
X19116040D01*
Y13098779D01*
X19085561D01*
Y13083540D01*
X19070320D01*
Y13053059D01*
X19085561D01*
X18999200Y13042900D02*
Y13017500D01*
X19050000D01*
Y13042900D01*
X19075400D01*
Y13093700D01*
X19050000D01*
Y13119099D01*
X18999200D01*
Y13093700D01*
X18973801D01*
Y13042900D01*
X18999200D01*
X19009360Y13053059D02*
Y13037820D01*
X19039841D01*
Y13053059D01*
X19055080D01*
Y13083540D01*
X19039841D01*
Y13098779D01*
X19009360D01*
Y13083540D01*
X18994119D01*
Y13053059D01*
X19009360D01*
X18923000Y13042900D02*
Y13017500D01*
X18973801D01*
Y13042900D01*
X18999200D01*
Y13093700D01*
X18973801D01*
Y13119099D01*
X18923000D01*
Y13093700D01*
X18897600D01*
Y13042900D01*
X18923000D01*
X18933160Y13053059D02*
Y13037820D01*
X18963640D01*
Y13053059D01*
X18978880D01*
Y13083540D01*
X18963640D01*
Y13098779D01*
X18933160D01*
Y13083540D01*
X18917920D01*
Y13053059D01*
X18933160D01*
X18846800Y13042900D02*
Y13017500D01*
X18897600D01*
Y13042900D01*
X18923000D01*
Y13093700D01*
X18897600D01*
Y13119099D01*
X18846800D01*
Y13093700D01*
X18821400D01*
Y13042900D01*
X18846800D01*
X18856960Y13053059D02*
Y13037820D01*
X18887440D01*
Y13053059D01*
X18902679D01*
Y13083540D01*
X18887440D01*
Y13098779D01*
X18856960D01*
Y13083540D01*
X18841721D01*
Y13053059D01*
X18856960D01*
X18770599Y13042900D02*
Y13017500D01*
X18821400D01*
Y13042900D01*
X18846800D01*
Y13093700D01*
X18821400D01*
Y13119099D01*
X18770599D01*
Y13093700D01*
X18745200D01*
Y13042900D01*
X18770599D01*
X18780760Y13053059D02*
Y13037820D01*
X18811240D01*
Y13053059D01*
X18826480D01*
Y13083540D01*
X18811240D01*
Y13098779D01*
X18780760D01*
Y13083540D01*
X18765520D01*
Y13053059D01*
X18780760D01*
X18694400Y13042900D02*
Y13017500D01*
X18745200D01*
Y13042900D01*
X18770599D01*
Y13093700D01*
X18745200D01*
Y13119099D01*
X18694400D01*
Y13093700D01*
X18669000D01*
Y13042900D01*
X18694400D01*
X18704559Y13053059D02*
Y13037820D01*
X18735040D01*
Y13053059D01*
X18750281D01*
Y13083540D01*
X18735040D01*
Y13098779D01*
X18704559D01*
Y13083540D01*
X18689320D01*
Y13053059D01*
X18704559D01*
X18618201Y13042900D02*
Y13017500D01*
X18669000D01*
Y13042900D01*
X18694400D01*
Y13093700D01*
X18669000D01*
Y13119099D01*
X18618201D01*
Y13093700D01*
X18592799D01*
Y13042900D01*
X18618201D01*
X18628360Y13053059D02*
Y13037820D01*
X18658839D01*
Y13053059D01*
X18674080D01*
Y13083540D01*
X18658839D01*
Y13098779D01*
X18628360D01*
Y13083540D01*
X18613120D01*
Y13053059D01*
X18628360D01*
X19608800Y13119099D02*
Y13093700D01*
X19659599D01*
Y13119099D01*
X19685001D01*
Y13169901D01*
X19659599D01*
Y13195300D01*
X19608800D01*
Y13169901D01*
X19583400D01*
Y13119099D01*
X19608800D01*
X19618961Y13129260D02*
Y13114020D01*
X19649440D01*
Y13129260D01*
X19664680D01*
Y13159740D01*
X19649440D01*
Y13174980D01*
X19618961D01*
Y13159740D01*
X19603720D01*
Y13129260D01*
X19618961D01*
X19532600Y13119099D02*
Y13093700D01*
X19583400D01*
Y13119099D01*
X19608800D01*
Y13169901D01*
X19583400D01*
Y13195300D01*
X19532600D01*
Y13169901D01*
X19507201D01*
Y13119099D01*
X19532600D01*
X19542760Y13129260D02*
Y13114020D01*
X19573241D01*
Y13129260D01*
X19588480D01*
Y13159740D01*
X19573241D01*
Y13174980D01*
X19542760D01*
Y13159740D01*
X19527521D01*
Y13129260D01*
X19542760D01*
X19456400Y13119099D02*
Y13093700D01*
X19507201D01*
Y13119099D01*
X19532600D01*
Y13169901D01*
X19507201D01*
Y13195300D01*
X19456400D01*
Y13169901D01*
X19431000D01*
Y13119099D01*
X19456400D01*
X19466560Y13129260D02*
Y13114020D01*
X19497040D01*
Y13129260D01*
X19512280D01*
Y13159740D01*
X19497040D01*
Y13174980D01*
X19466560D01*
Y13159740D01*
X19451320D01*
Y13129260D01*
X19466560D01*
X19380200Y13119099D02*
Y13093700D01*
X19431000D01*
Y13119099D01*
X19456400D01*
Y13169901D01*
X19431000D01*
Y13195300D01*
X19380200D01*
Y13169901D01*
X19354800D01*
Y13119099D01*
X19380200D01*
X19390359Y13129260D02*
Y13114020D01*
X19420840D01*
Y13129260D01*
X19436079D01*
Y13159740D01*
X19420840D01*
Y13174980D01*
X19390359D01*
Y13159740D01*
X19375121D01*
Y13129260D01*
X19390359D01*
X19303999Y13119099D02*
Y13093700D01*
X19354800D01*
Y13119099D01*
X19380200D01*
Y13169901D01*
X19354800D01*
Y13195300D01*
X19303999D01*
Y13169901D01*
X19278600D01*
Y13119099D01*
X19303999D01*
X19314160Y13129260D02*
Y13114020D01*
X19344640D01*
Y13129260D01*
X19359880D01*
Y13159740D01*
X19344640D01*
Y13174980D01*
X19314160D01*
Y13159740D01*
X19298920D01*
Y13129260D01*
X19314160D01*
X19227800Y13119099D02*
Y13093700D01*
X19278600D01*
Y13119099D01*
X19303999D01*
Y13169901D01*
X19278600D01*
Y13195300D01*
X19227800D01*
Y13169901D01*
X19202400D01*
Y13119099D01*
X19227800D01*
X19237959Y13129260D02*
Y13114020D01*
X19268440D01*
Y13129260D01*
X19283681D01*
Y13159740D01*
X19268440D01*
Y13174980D01*
X19237959D01*
Y13159740D01*
X19222720D01*
Y13129260D01*
X19237959D01*
X19151601Y13119099D02*
Y13093700D01*
X19202400D01*
Y13119099D01*
X19227800D01*
Y13169901D01*
X19202400D01*
Y13195300D01*
X19151601D01*
Y13169901D01*
X19126199D01*
Y13119099D01*
X19151601D01*
X19161760Y13129260D02*
Y13114020D01*
X19192239D01*
Y13129260D01*
X19207480D01*
Y13159740D01*
X19192239D01*
Y13174980D01*
X19161760D01*
Y13159740D01*
X19146519D01*
Y13129260D01*
X19161760D01*
X19075400Y13119099D02*
Y13093700D01*
X19126199D01*
Y13119099D01*
X19151601D01*
Y13169901D01*
X19126199D01*
Y13195300D01*
X19075400D01*
Y13169901D01*
X19050000D01*
Y13119099D01*
X19075400D01*
X19085561Y13129260D02*
Y13114020D01*
X19116040D01*
Y13129260D01*
X19131281D01*
Y13159740D01*
X19116040D01*
Y13174980D01*
X19085561D01*
Y13159740D01*
X19070320D01*
Y13129260D01*
X19085561D01*
X18999200Y13119099D02*
Y13093700D01*
X19050000D01*
Y13119099D01*
X19075400D01*
Y13169901D01*
X19050000D01*
Y13195300D01*
X18999200D01*
Y13169901D01*
X18973801D01*
Y13119099D01*
X18999200D01*
X19009360Y13129260D02*
Y13114020D01*
X19039841D01*
Y13129260D01*
X19055080D01*
Y13159740D01*
X19039841D01*
Y13174980D01*
X19009360D01*
Y13159740D01*
X18994119D01*
Y13129260D01*
X19009360D01*
X18923000Y13119099D02*
Y13093700D01*
X18973801D01*
Y13119099D01*
X18999200D01*
Y13169901D01*
X18973801D01*
Y13195300D01*
X18923000D01*
Y13169901D01*
X18897600D01*
Y13119099D01*
X18923000D01*
X18933160Y13129260D02*
Y13114020D01*
X18963640D01*
Y13129260D01*
X18978880D01*
Y13159740D01*
X18963640D01*
Y13174980D01*
X18933160D01*
Y13159740D01*
X18917920D01*
Y13129260D01*
X18933160D01*
X18846800Y13119099D02*
Y13093700D01*
X18897600D01*
Y13119099D01*
X18923000D01*
Y13169901D01*
X18897600D01*
Y13195300D01*
X18846800D01*
Y13169901D01*
X18821400D01*
Y13119099D01*
X18846800D01*
X18856960Y13129260D02*
Y13114020D01*
X18887440D01*
Y13129260D01*
X18902679D01*
Y13159740D01*
X18887440D01*
Y13174980D01*
X18856960D01*
Y13159740D01*
X18841721D01*
Y13129260D01*
X18856960D01*
X18770599Y13119099D02*
Y13093700D01*
X18821400D01*
Y13119099D01*
X18846800D01*
Y13169901D01*
X18821400D01*
Y13195300D01*
X18770599D01*
Y13169901D01*
X18745200D01*
Y13119099D01*
X18770599D01*
X18780760Y13129260D02*
Y13114020D01*
X18811240D01*
Y13129260D01*
X18826480D01*
Y13159740D01*
X18811240D01*
Y13174980D01*
X18780760D01*
Y13159740D01*
X18765520D01*
Y13129260D01*
X18780760D01*
X18694400Y13119099D02*
Y13093700D01*
X18745200D01*
Y13119099D01*
X18770599D01*
Y13169901D01*
X18745200D01*
Y13195300D01*
X18694400D01*
Y13169901D01*
X18669000D01*
Y13119099D01*
X18694400D01*
X18704559Y13129260D02*
Y13114020D01*
X18735040D01*
Y13129260D01*
X18750281D01*
Y13159740D01*
X18735040D01*
Y13174980D01*
X18704559D01*
Y13159740D01*
X18689320D01*
Y13129260D01*
X18704559D01*
X18618201Y13119099D02*
Y13093700D01*
X18669000D01*
Y13119099D01*
X18694400D01*
Y13169901D01*
X18669000D01*
Y13195300D01*
X18618201D01*
Y13169901D01*
X18592799D01*
Y13119099D01*
X18618201D01*
X18628360Y13129260D02*
Y13114020D01*
X18658839D01*
Y13129260D01*
X18674080D01*
Y13159740D01*
X18658839D01*
Y13174980D01*
X18628360D01*
Y13159740D01*
X18613120D01*
Y13129260D01*
X18628360D01*
X19608800Y13195300D02*
Y13169901D01*
X19659599D01*
Y13195300D01*
X19685001D01*
Y13246100D01*
X19659599D01*
Y13271500D01*
X19608800D01*
Y13246100D01*
X19583400D01*
Y13195300D01*
X19608800D01*
X19618961Y13205460D02*
Y13190221D01*
X19649440D01*
Y13205460D01*
X19664680D01*
Y13235941D01*
X19649440D01*
Y13251180D01*
X19618961D01*
Y13235941D01*
X19603720D01*
Y13205460D01*
X19618961D01*
X19532600Y13195300D02*
Y13169901D01*
X19583400D01*
Y13195300D01*
X19608800D01*
Y13246100D01*
X19583400D01*
Y13271500D01*
X19532600D01*
Y13246100D01*
X19507201D01*
Y13195300D01*
X19532600D01*
X19542760Y13205460D02*
Y13190221D01*
X19573241D01*
Y13205460D01*
X19588480D01*
Y13235941D01*
X19573241D01*
Y13251180D01*
X19542760D01*
Y13235941D01*
X19527521D01*
Y13205460D01*
X19542760D01*
X19456400Y13195300D02*
Y13169901D01*
X19507201D01*
Y13195300D01*
X19532600D01*
Y13246100D01*
X19507201D01*
Y13271500D01*
X19456400D01*
Y13246100D01*
X19431000D01*
Y13195300D01*
X19456400D01*
X19466560Y13205460D02*
Y13190221D01*
X19497040D01*
Y13205460D01*
X19512280D01*
Y13235941D01*
X19497040D01*
Y13251180D01*
X19466560D01*
Y13235941D01*
X19451320D01*
Y13205460D01*
X19466560D01*
X19380200Y13195300D02*
Y13169901D01*
X19431000D01*
Y13195300D01*
X19456400D01*
Y13246100D01*
X19431000D01*
Y13271500D01*
X19380200D01*
Y13246100D01*
X19354800D01*
Y13195300D01*
X19380200D01*
X19390359Y13205460D02*
Y13190221D01*
X19420840D01*
Y13205460D01*
X19436079D01*
Y13235941D01*
X19420840D01*
Y13251180D01*
X19390359D01*
Y13235941D01*
X19375121D01*
Y13205460D01*
X19390359D01*
X19303999Y13195300D02*
Y13169901D01*
X19354800D01*
Y13195300D01*
X19380200D01*
Y13246100D01*
X19354800D01*
Y13271500D01*
X19303999D01*
Y13246100D01*
X19278600D01*
Y13195300D01*
X19303999D01*
X19314160Y13205460D02*
Y13190221D01*
X19344640D01*
Y13205460D01*
X19359880D01*
Y13235941D01*
X19344640D01*
Y13251180D01*
X19314160D01*
Y13235941D01*
X19298920D01*
Y13205460D01*
X19314160D01*
X19227800Y13195300D02*
Y13169901D01*
X19278600D01*
Y13195300D01*
X19303999D01*
Y13246100D01*
X19278600D01*
Y13271500D01*
X19227800D01*
Y13246100D01*
X19202400D01*
Y13195300D01*
X19227800D01*
X19237959Y13205460D02*
Y13190221D01*
X19268440D01*
Y13205460D01*
X19283681D01*
Y13235941D01*
X19268440D01*
Y13251180D01*
X19237959D01*
Y13235941D01*
X19222720D01*
Y13205460D01*
X19237959D01*
X19151601Y13195300D02*
Y13169901D01*
X19202400D01*
Y13195300D01*
X19227800D01*
Y13246100D01*
X19202400D01*
Y13271500D01*
X19151601D01*
Y13246100D01*
X19126199D01*
Y13195300D01*
X19151601D01*
X19161760Y13205460D02*
Y13190221D01*
X19192239D01*
Y13205460D01*
X19207480D01*
Y13235941D01*
X19192239D01*
Y13251180D01*
X19161760D01*
Y13235941D01*
X19146519D01*
Y13205460D01*
X19161760D01*
X19075400Y13195300D02*
Y13169901D01*
X19126199D01*
Y13195300D01*
X19151601D01*
Y13246100D01*
X19126199D01*
Y13271500D01*
X19075400D01*
Y13246100D01*
X19050000D01*
Y13195300D01*
X19075400D01*
X19085561Y13205460D02*
Y13190221D01*
X19116040D01*
Y13205460D01*
X19131281D01*
Y13235941D01*
X19116040D01*
Y13251180D01*
X19085561D01*
Y13235941D01*
X19070320D01*
Y13205460D01*
X19085561D01*
X18999200Y13195300D02*
Y13169901D01*
X19050000D01*
Y13195300D01*
X19075400D01*
Y13246100D01*
X19050000D01*
Y13271500D01*
X18999200D01*
Y13246100D01*
X18973801D01*
Y13195300D01*
X18999200D01*
X19009360Y13205460D02*
Y13190221D01*
X19039841D01*
Y13205460D01*
X19055080D01*
Y13235941D01*
X19039841D01*
Y13251180D01*
X19009360D01*
Y13235941D01*
X18994119D01*
Y13205460D01*
X19009360D01*
X18923000Y13195300D02*
Y13169901D01*
X18973801D01*
Y13195300D01*
X18999200D01*
Y13246100D01*
X18973801D01*
Y13271500D01*
X18923000D01*
Y13246100D01*
X18897600D01*
Y13195300D01*
X18923000D01*
X18933160Y13205460D02*
Y13190221D01*
X18963640D01*
Y13205460D01*
X18978880D01*
Y13235941D01*
X18963640D01*
Y13251180D01*
X18933160D01*
Y13235941D01*
X18917920D01*
Y13205460D01*
X18933160D01*
X18846800Y13195300D02*
Y13169901D01*
X18897600D01*
Y13195300D01*
X18923000D01*
Y13246100D01*
X18897600D01*
Y13271500D01*
X18846800D01*
Y13246100D01*
X18821400D01*
Y13195300D01*
X18846800D01*
X18856960Y13205460D02*
Y13190221D01*
X18887440D01*
Y13205460D01*
X18902679D01*
Y13235941D01*
X18887440D01*
Y13251180D01*
X18856960D01*
Y13235941D01*
X18841721D01*
Y13205460D01*
X18856960D01*
X18770599Y13195300D02*
Y13169901D01*
X18821400D01*
Y13195300D01*
X18846800D01*
Y13246100D01*
X18821400D01*
Y13271500D01*
X18770599D01*
Y13246100D01*
X18745200D01*
Y13195300D01*
X18770599D01*
X18780760Y13205460D02*
Y13190221D01*
X18811240D01*
Y13205460D01*
X18826480D01*
Y13235941D01*
X18811240D01*
Y13251180D01*
X18780760D01*
Y13235941D01*
X18765520D01*
Y13205460D01*
X18780760D01*
X18694400Y13195300D02*
Y13169901D01*
X18745200D01*
Y13195300D01*
X18770599D01*
Y13246100D01*
X18745200D01*
Y13271500D01*
X18694400D01*
Y13246100D01*
X18669000D01*
Y13195300D01*
X18694400D01*
X18704559Y13205460D02*
Y13190221D01*
X18735040D01*
Y13205460D01*
X18750281D01*
Y13235941D01*
X18735040D01*
Y13251180D01*
X18704559D01*
Y13235941D01*
X18689320D01*
Y13205460D01*
X18704559D01*
X18618201Y13195300D02*
Y13169901D01*
X18669000D01*
Y13195300D01*
X18694400D01*
Y13246100D01*
X18669000D01*
Y13271500D01*
X18618201D01*
Y13246100D01*
X18592799D01*
Y13195300D01*
X18618201D01*
X18628360Y13205460D02*
Y13190221D01*
X18658839D01*
Y13205460D01*
X18674080D01*
Y13235941D01*
X18658839D01*
Y13251180D01*
X18628360D01*
Y13235941D01*
X18613120D01*
Y13205460D01*
X18628360D01*
X19608800Y13271500D02*
Y13246100D01*
X19659599D01*
Y13271500D01*
X19685001D01*
Y13322301D01*
X19659599D01*
Y13347701D01*
X19608800D01*
Y13322301D01*
X19583400D01*
Y13271500D01*
X19608800D01*
X19618961Y13281660D02*
Y13266420D01*
X19649440D01*
Y13281660D01*
X19664680D01*
Y13312140D01*
X19649440D01*
Y13327380D01*
X19618961D01*
Y13312140D01*
X19603720D01*
Y13281660D01*
X19618961D01*
X19532600Y13271500D02*
Y13246100D01*
X19583400D01*
Y13271500D01*
X19608800D01*
Y13322301D01*
X19583400D01*
Y13347701D01*
X19532600D01*
Y13322301D01*
X19507201D01*
Y13271500D01*
X19532600D01*
X19542760Y13281660D02*
Y13266420D01*
X19573241D01*
Y13281660D01*
X19588480D01*
Y13312140D01*
X19573241D01*
Y13327380D01*
X19542760D01*
Y13312140D01*
X19527521D01*
Y13281660D01*
X19542760D01*
X19456400Y13271500D02*
Y13246100D01*
X19507201D01*
Y13271500D01*
X19532600D01*
Y13322301D01*
X19507201D01*
Y13347701D01*
X19456400D01*
Y13322301D01*
X19431000D01*
Y13271500D01*
X19456400D01*
X19466560Y13281660D02*
Y13266420D01*
X19497040D01*
Y13281660D01*
X19512280D01*
Y13312140D01*
X19497040D01*
Y13327380D01*
X19466560D01*
Y13312140D01*
X19451320D01*
Y13281660D01*
X19466560D01*
X19380200Y13271500D02*
Y13246100D01*
X19431000D01*
Y13271500D01*
X19456400D01*
Y13322301D01*
X19431000D01*
Y13347701D01*
X19380200D01*
Y13322301D01*
X19354800D01*
Y13271500D01*
X19380200D01*
X19390359Y13281660D02*
Y13266420D01*
X19420840D01*
Y13281660D01*
X19436079D01*
Y13312140D01*
X19420840D01*
Y13327380D01*
X19390359D01*
Y13312140D01*
X19375121D01*
Y13281660D01*
X19390359D01*
X19303999Y13271500D02*
Y13246100D01*
X19354800D01*
Y13271500D01*
X19380200D01*
Y13322301D01*
X19354800D01*
Y13347701D01*
X19303999D01*
Y13322301D01*
X19278600D01*
Y13271500D01*
X19303999D01*
X19314160Y13281660D02*
Y13266420D01*
X19344640D01*
Y13281660D01*
X19359880D01*
Y13312140D01*
X19344640D01*
Y13327380D01*
X19314160D01*
Y13312140D01*
X19298920D01*
Y13281660D01*
X19314160D01*
X19227800Y13271500D02*
Y13246100D01*
X19278600D01*
Y13271500D01*
X19303999D01*
Y13322301D01*
X19278600D01*
Y13347701D01*
X19227800D01*
Y13322301D01*
X19202400D01*
Y13271500D01*
X19227800D01*
X19237959Y13281660D02*
Y13266420D01*
X19268440D01*
Y13281660D01*
X19283681D01*
Y13312140D01*
X19268440D01*
Y13327380D01*
X19237959D01*
Y13312140D01*
X19222720D01*
Y13281660D01*
X19237959D01*
X19151601Y13271500D02*
Y13246100D01*
X19202400D01*
Y13271500D01*
X19227800D01*
Y13322301D01*
X19202400D01*
Y13347701D01*
X19151601D01*
Y13322301D01*
X19126199D01*
Y13271500D01*
X19151601D01*
X19161760Y13281660D02*
Y13266420D01*
X19192239D01*
Y13281660D01*
X19207480D01*
Y13312140D01*
X19192239D01*
Y13327380D01*
X19161760D01*
Y13312140D01*
X19146519D01*
Y13281660D01*
X19161760D01*
X19075400Y13271500D02*
Y13246100D01*
X19126199D01*
Y13271500D01*
X19151601D01*
Y13322301D01*
X19126199D01*
Y13347701D01*
X19075400D01*
Y13322301D01*
X19050000D01*
Y13271500D01*
X19075400D01*
X19085561Y13281660D02*
Y13266420D01*
X19116040D01*
Y13281660D01*
X19131281D01*
Y13312140D01*
X19116040D01*
Y13327380D01*
X19085561D01*
Y13312140D01*
X19070320D01*
Y13281660D01*
X19085561D01*
X18999200Y13271500D02*
Y13246100D01*
X19050000D01*
Y13271500D01*
X19075400D01*
Y13322301D01*
X19050000D01*
Y13347701D01*
X18999200D01*
Y13322301D01*
X18973801D01*
Y13271500D01*
X18999200D01*
X19009360Y13281660D02*
Y13266420D01*
X19039841D01*
Y13281660D01*
X19055080D01*
Y13312140D01*
X19039841D01*
Y13327380D01*
X19009360D01*
Y13312140D01*
X18994119D01*
Y13281660D01*
X19009360D01*
X18923000Y13271500D02*
Y13246100D01*
X18973801D01*
Y13271500D01*
X18999200D01*
Y13322301D01*
X18973801D01*
Y13347701D01*
X18923000D01*
Y13322301D01*
X18897600D01*
Y13271500D01*
X18923000D01*
X18933160Y13281660D02*
Y13266420D01*
X18963640D01*
Y13281660D01*
X18978880D01*
Y13312140D01*
X18963640D01*
Y13327380D01*
X18933160D01*
Y13312140D01*
X18917920D01*
Y13281660D01*
X18933160D01*
X18846800Y13271500D02*
Y13246100D01*
X18897600D01*
Y13271500D01*
X18923000D01*
Y13322301D01*
X18897600D01*
Y13347701D01*
X18846800D01*
Y13322301D01*
X18821400D01*
Y13271500D01*
X18846800D01*
X18856960Y13281660D02*
Y13266420D01*
X18887440D01*
Y13281660D01*
X18902679D01*
Y13312140D01*
X18887440D01*
Y13327380D01*
X18856960D01*
Y13312140D01*
X18841721D01*
Y13281660D01*
X18856960D01*
X18770599Y13271500D02*
Y13246100D01*
X18821400D01*
Y13271500D01*
X18846800D01*
Y13322301D01*
X18821400D01*
Y13347701D01*
X18770599D01*
Y13322301D01*
X18745200D01*
Y13271500D01*
X18770599D01*
X18780760Y13281660D02*
Y13266420D01*
X18811240D01*
Y13281660D01*
X18826480D01*
Y13312140D01*
X18811240D01*
Y13327380D01*
X18780760D01*
Y13312140D01*
X18765520D01*
Y13281660D01*
X18780760D01*
X18694400Y13271500D02*
Y13246100D01*
X18745200D01*
Y13271500D01*
X18770599D01*
Y13322301D01*
X18745200D01*
Y13347701D01*
X18694400D01*
Y13322301D01*
X18669000D01*
Y13271500D01*
X18694400D01*
X18704559Y13281660D02*
Y13266420D01*
X18735040D01*
Y13281660D01*
X18750281D01*
Y13312140D01*
X18735040D01*
Y13327380D01*
X18704559D01*
Y13312140D01*
X18689320D01*
Y13281660D01*
X18704559D01*
X18618201Y13271500D02*
Y13246100D01*
X18669000D01*
Y13271500D01*
X18694400D01*
Y13322301D01*
X18669000D01*
Y13347701D01*
X18618201D01*
Y13322301D01*
X18592799D01*
Y13271500D01*
X18618201D01*
X18628360Y13281660D02*
Y13266420D01*
X18658839D01*
Y13281660D01*
X18674080D01*
Y13312140D01*
X18658839D01*
Y13327380D01*
X18628360D01*
Y13312140D01*
X18613120D01*
Y13281660D01*
X18628360D01*
X19608800Y13347701D02*
Y13322301D01*
X19659599D01*
Y13347701D01*
X19685001D01*
Y13398500D01*
X19659599D01*
Y13423900D01*
X19608800D01*
Y13398500D01*
X19583400D01*
Y13347701D01*
X19608800D01*
X19618961Y13357860D02*
Y13342619D01*
X19649440D01*
Y13357860D01*
X19664680D01*
Y13388341D01*
X19649440D01*
Y13403580D01*
X19618961D01*
Y13388341D01*
X19603720D01*
Y13357860D01*
X19618961D01*
X19532600Y13347701D02*
Y13322301D01*
X19583400D01*
Y13347701D01*
X19608800D01*
Y13398500D01*
X19583400D01*
Y13423900D01*
X19532600D01*
Y13398500D01*
X19507201D01*
Y13347701D01*
X19532600D01*
X19542760Y13357860D02*
Y13342619D01*
X19573241D01*
Y13357860D01*
X19588480D01*
Y13388341D01*
X19573241D01*
Y13403580D01*
X19542760D01*
Y13388341D01*
X19527521D01*
Y13357860D01*
X19542760D01*
X19456400Y13347701D02*
Y13322301D01*
X19507201D01*
Y13347701D01*
X19532600D01*
Y13398500D01*
X19507201D01*
Y13423900D01*
X19456400D01*
Y13398500D01*
X19431000D01*
Y13347701D01*
X19456400D01*
X19466560Y13357860D02*
Y13342619D01*
X19497040D01*
Y13357860D01*
X19512280D01*
Y13388341D01*
X19497040D01*
Y13403580D01*
X19466560D01*
Y13388341D01*
X19451320D01*
Y13357860D01*
X19466560D01*
X19380200Y13347701D02*
Y13322301D01*
X19431000D01*
Y13347701D01*
X19456400D01*
Y13398500D01*
X19431000D01*
Y13423900D01*
X19380200D01*
Y13398500D01*
X19354800D01*
Y13347701D01*
X19380200D01*
X19390359Y13357860D02*
Y13342619D01*
X19420840D01*
Y13357860D01*
X19436079D01*
Y13388341D01*
X19420840D01*
Y13403580D01*
X19390359D01*
Y13388341D01*
X19375121D01*
Y13357860D01*
X19390359D01*
X19303999Y13347701D02*
Y13322301D01*
X19354800D01*
Y13347701D01*
X19380200D01*
Y13398500D01*
X19354800D01*
Y13423900D01*
X19303999D01*
Y13398500D01*
X19278600D01*
Y13347701D01*
X19303999D01*
X19314160Y13357860D02*
Y13342619D01*
X19344640D01*
Y13357860D01*
X19359880D01*
Y13388341D01*
X19344640D01*
Y13403580D01*
X19314160D01*
Y13388341D01*
X19298920D01*
Y13357860D01*
X19314160D01*
X19227800Y13347701D02*
Y13322301D01*
X19278600D01*
Y13347701D01*
X19303999D01*
Y13398500D01*
X19278600D01*
Y13423900D01*
X19227800D01*
Y13398500D01*
X19202400D01*
Y13347701D01*
X19227800D01*
X19237959Y13357860D02*
Y13342619D01*
X19268440D01*
Y13357860D01*
X19283681D01*
Y13388341D01*
X19268440D01*
Y13403580D01*
X19237959D01*
Y13388341D01*
X19222720D01*
Y13357860D01*
X19237959D01*
X19151601Y13347701D02*
Y13322301D01*
X19202400D01*
Y13347701D01*
X19227800D01*
Y13398500D01*
X19202400D01*
Y13423900D01*
X19151601D01*
Y13398500D01*
X19126199D01*
Y13347701D01*
X19151601D01*
X19161760Y13357860D02*
Y13342619D01*
X19192239D01*
Y13357860D01*
X19207480D01*
Y13388341D01*
X19192239D01*
Y13403580D01*
X19161760D01*
Y13388341D01*
X19146519D01*
Y13357860D01*
X19161760D01*
X19075400Y13347701D02*
Y13322301D01*
X19126199D01*
Y13347701D01*
X19151601D01*
Y13398500D01*
X19126199D01*
Y13423900D01*
X19075400D01*
Y13398500D01*
X19050000D01*
Y13347701D01*
X19075400D01*
X19085561Y13357860D02*
Y13342619D01*
X19116040D01*
Y13357860D01*
X19131281D01*
Y13388341D01*
X19116040D01*
Y13403580D01*
X19085561D01*
Y13388341D01*
X19070320D01*
Y13357860D01*
X19085561D01*
X18999200Y13347701D02*
Y13322301D01*
X19050000D01*
Y13347701D01*
X19075400D01*
Y13398500D01*
X19050000D01*
Y13423900D01*
X18999200D01*
Y13398500D01*
X18973801D01*
Y13347701D01*
X18999200D01*
X19009360Y13357860D02*
Y13342619D01*
X19039841D01*
Y13357860D01*
X19055080D01*
Y13388341D01*
X19039841D01*
Y13403580D01*
X19009360D01*
Y13388341D01*
X18994119D01*
Y13357860D01*
X19009360D01*
X18923000Y13347701D02*
Y13322301D01*
X18973801D01*
Y13347701D01*
X18999200D01*
Y13398500D01*
X18973801D01*
Y13423900D01*
X18923000D01*
Y13398500D01*
X18897600D01*
Y13347701D01*
X18923000D01*
X18933160Y13357860D02*
Y13342619D01*
X18963640D01*
Y13357860D01*
X18978880D01*
Y13388341D01*
X18963640D01*
Y13403580D01*
X18933160D01*
Y13388341D01*
X18917920D01*
Y13357860D01*
X18933160D01*
X18846800Y13347701D02*
Y13322301D01*
X18897600D01*
Y13347701D01*
X18923000D01*
Y13398500D01*
X18897600D01*
Y13423900D01*
X18846800D01*
Y13398500D01*
X18821400D01*
Y13347701D01*
X18846800D01*
X18856960Y13357860D02*
Y13342619D01*
X18887440D01*
Y13357860D01*
X18902679D01*
Y13388341D01*
X18887440D01*
Y13403580D01*
X18856960D01*
Y13388341D01*
X18841721D01*
Y13357860D01*
X18856960D01*
X18770599Y13347701D02*
Y13322301D01*
X18821400D01*
Y13347701D01*
X18846800D01*
Y13398500D01*
X18821400D01*
Y13423900D01*
X18770599D01*
Y13398500D01*
X18745200D01*
Y13347701D01*
X18770599D01*
X18780760Y13357860D02*
Y13342619D01*
X18811240D01*
Y13357860D01*
X18826480D01*
Y13388341D01*
X18811240D01*
Y13403580D01*
X18780760D01*
Y13388341D01*
X18765520D01*
Y13357860D01*
X18780760D01*
X18694400Y13347701D02*
Y13322301D01*
X18745200D01*
Y13347701D01*
X18770599D01*
Y13398500D01*
X18745200D01*
Y13423900D01*
X18694400D01*
Y13398500D01*
X18669000D01*
Y13347701D01*
X18694400D01*
X18704559Y13357860D02*
Y13342619D01*
X18735040D01*
Y13357860D01*
X18750281D01*
Y13388341D01*
X18735040D01*
Y13403580D01*
X18704559D01*
Y13388341D01*
X18689320D01*
Y13357860D01*
X18704559D01*
X18618201Y13347701D02*
Y13322301D01*
X18669000D01*
Y13347701D01*
X18694400D01*
Y13398500D01*
X18669000D01*
Y13423900D01*
X18618201D01*
Y13398500D01*
X18592799D01*
Y13347701D01*
X18618201D01*
X18628360Y13357860D02*
Y13342619D01*
X18658839D01*
Y13357860D01*
X18674080D01*
Y13388341D01*
X18658839D01*
Y13403580D01*
X18628360D01*
Y13388341D01*
X18613120D01*
Y13357860D01*
X18628360D01*
X19608800Y13423900D02*
Y13398500D01*
X19659599D01*
Y13423900D01*
X19685001D01*
Y13474699D01*
X19659599D01*
Y13500101D01*
X19608800D01*
Y13474699D01*
X19583400D01*
Y13423900D01*
X19608800D01*
X19618961Y13434061D02*
Y13418820D01*
X19649440D01*
Y13434061D01*
X19664680D01*
Y13464540D01*
X19649440D01*
Y13479781D01*
X19618961D01*
Y13464540D01*
X19603720D01*
Y13434061D01*
X19618961D01*
X19532600Y13423900D02*
Y13398500D01*
X19583400D01*
Y13423900D01*
X19608800D01*
Y13474699D01*
X19583400D01*
Y13500101D01*
X19532600D01*
Y13474699D01*
X19507201D01*
Y13423900D01*
X19532600D01*
X19542760Y13434061D02*
Y13418820D01*
X19573241D01*
Y13434061D01*
X19588480D01*
Y13464540D01*
X19573241D01*
Y13479781D01*
X19542760D01*
Y13464540D01*
X19527521D01*
Y13434061D01*
X19542760D01*
X19456400Y13423900D02*
Y13398500D01*
X19507201D01*
Y13423900D01*
X19532600D01*
Y13474699D01*
X19507201D01*
Y13500101D01*
X19456400D01*
Y13474699D01*
X19431000D01*
Y13423900D01*
X19456400D01*
X19466560Y13434061D02*
Y13418820D01*
X19497040D01*
Y13434061D01*
X19512280D01*
Y13464540D01*
X19497040D01*
Y13479781D01*
X19466560D01*
Y13464540D01*
X19451320D01*
Y13434061D01*
X19466560D01*
X19380200Y13423900D02*
Y13398500D01*
X19431000D01*
Y13423900D01*
X19456400D01*
Y13474699D01*
X19431000D01*
Y13500101D01*
X19380200D01*
Y13474699D01*
X19354800D01*
Y13423900D01*
X19380200D01*
X19390359Y13434061D02*
Y13418820D01*
X19420840D01*
Y13434061D01*
X19436079D01*
Y13464540D01*
X19420840D01*
Y13479781D01*
X19390359D01*
Y13464540D01*
X19375121D01*
Y13434061D01*
X19390359D01*
X19303999Y13423900D02*
Y13398500D01*
X19354800D01*
Y13423900D01*
X19380200D01*
Y13474699D01*
X19354800D01*
Y13500101D01*
X19303999D01*
Y13474699D01*
X19278600D01*
Y13423900D01*
X19303999D01*
X19314160Y13434061D02*
Y13418820D01*
X19344640D01*
Y13434061D01*
X19359880D01*
Y13464540D01*
X19344640D01*
Y13479781D01*
X19314160D01*
Y13464540D01*
X19298920D01*
Y13434061D01*
X19314160D01*
X19227800Y13423900D02*
Y13398500D01*
X19278600D01*
Y13423900D01*
X19303999D01*
Y13474699D01*
X19278600D01*
Y13500101D01*
X19227800D01*
Y13474699D01*
X19202400D01*
Y13423900D01*
X19227800D01*
X19237959Y13434061D02*
Y13418820D01*
X19268440D01*
Y13434061D01*
X19283681D01*
Y13464540D01*
X19268440D01*
Y13479781D01*
X19237959D01*
Y13464540D01*
X19222720D01*
Y13434061D01*
X19237959D01*
X19151601Y13423900D02*
Y13398500D01*
X19202400D01*
Y13423900D01*
X19227800D01*
Y13474699D01*
X19202400D01*
Y13500101D01*
X19151601D01*
Y13474699D01*
X19126199D01*
Y13423900D01*
X19151601D01*
X19161760Y13434061D02*
Y13418820D01*
X19192239D01*
Y13434061D01*
X19207480D01*
Y13464540D01*
X19192239D01*
Y13479781D01*
X19161760D01*
Y13464540D01*
X19146519D01*
Y13434061D01*
X19161760D01*
X19075400Y13423900D02*
Y13398500D01*
X19126199D01*
Y13423900D01*
X19151601D01*
Y13474699D01*
X19126199D01*
Y13500101D01*
X19075400D01*
Y13474699D01*
X19050000D01*
Y13423900D01*
X19075400D01*
X19085561Y13434061D02*
Y13418820D01*
X19116040D01*
Y13434061D01*
X19131281D01*
Y13464540D01*
X19116040D01*
Y13479781D01*
X19085561D01*
Y13464540D01*
X19070320D01*
Y13434061D01*
X19085561D01*
X18999200Y13423900D02*
Y13398500D01*
X19050000D01*
Y13423900D01*
X19075400D01*
Y13474699D01*
X19050000D01*
Y13500101D01*
X18999200D01*
Y13474699D01*
X18973801D01*
Y13423900D01*
X18999200D01*
X19009360Y13434061D02*
Y13418820D01*
X19039841D01*
Y13434061D01*
X19055080D01*
Y13464540D01*
X19039841D01*
Y13479781D01*
X19009360D01*
Y13464540D01*
X18994119D01*
Y13434061D01*
X19009360D01*
X18923000Y13423900D02*
Y13398500D01*
X18973801D01*
Y13423900D01*
X18999200D01*
Y13474699D01*
X18973801D01*
Y13500101D01*
X18923000D01*
Y13474699D01*
X18897600D01*
Y13423900D01*
X18923000D01*
X18933160Y13434061D02*
Y13418820D01*
X18963640D01*
Y13434061D01*
X18978880D01*
Y13464540D01*
X18963640D01*
Y13479781D01*
X18933160D01*
Y13464540D01*
X18917920D01*
Y13434061D01*
X18933160D01*
X18846800Y13423900D02*
Y13398500D01*
X18897600D01*
Y13423900D01*
X18923000D01*
Y13474699D01*
X18897600D01*
Y13500101D01*
X18846800D01*
Y13474699D01*
X18821400D01*
Y13423900D01*
X18846800D01*
X18856960Y13434061D02*
Y13418820D01*
X18887440D01*
Y13434061D01*
X18902679D01*
Y13464540D01*
X18887440D01*
Y13479781D01*
X18856960D01*
Y13464540D01*
X18841721D01*
Y13434061D01*
X18856960D01*
X18770599Y13423900D02*
Y13398500D01*
X18821400D01*
Y13423900D01*
X18846800D01*
Y13474699D01*
X18821400D01*
Y13500101D01*
X18770599D01*
Y13474699D01*
X18745200D01*
Y13423900D01*
X18770599D01*
X18780760Y13434061D02*
Y13418820D01*
X18811240D01*
Y13434061D01*
X18826480D01*
Y13464540D01*
X18811240D01*
Y13479781D01*
X18780760D01*
Y13464540D01*
X18765520D01*
Y13434061D01*
X18780760D01*
X18694400Y13423900D02*
Y13398500D01*
X18745200D01*
Y13423900D01*
X18770599D01*
Y13474699D01*
X18745200D01*
Y13500101D01*
X18694400D01*
Y13474699D01*
X18669000D01*
Y13423900D01*
X18694400D01*
X18704559Y13434061D02*
Y13418820D01*
X18735040D01*
Y13434061D01*
X18750281D01*
Y13464540D01*
X18735040D01*
Y13479781D01*
X18704559D01*
Y13464540D01*
X18689320D01*
Y13434061D01*
X18704559D01*
X18618201Y13423900D02*
Y13398500D01*
X18669000D01*
Y13423900D01*
X18694400D01*
Y13474699D01*
X18669000D01*
Y13500101D01*
X18618201D01*
Y13474699D01*
X18592799D01*
Y13423900D01*
X18618201D01*
X18628360Y13434061D02*
Y13418820D01*
X18658839D01*
Y13434061D01*
X18674080D01*
Y13464540D01*
X18658839D01*
Y13479781D01*
X18628360D01*
Y13464540D01*
X18613120D01*
Y13434061D01*
X18628360D01*
X19608800Y12966701D02*
Y12941299D01*
X19659599D01*
Y12966701D01*
X19685001D01*
Y13017500D01*
X19659599D01*
Y13042900D01*
X19608800D01*
Y13017500D01*
X19583400D01*
Y12966701D01*
X19608800D01*
X19618961Y12976860D02*
Y12961620D01*
X19649440D01*
Y12976860D01*
X19664680D01*
Y13007339D01*
X19649440D01*
Y13022580D01*
X19618961D01*
Y13007339D01*
X19603720D01*
Y12976860D01*
X19618961D01*
X19532600Y12966701D02*
Y12941299D01*
X19583400D01*
Y12966701D01*
X19608800D01*
Y13017500D01*
X19583400D01*
Y13042900D01*
X19532600D01*
Y13017500D01*
X19507201D01*
Y12966701D01*
X19532600D01*
X19542760Y12976860D02*
Y12961620D01*
X19573241D01*
Y12976860D01*
X19588480D01*
Y13007339D01*
X19573241D01*
Y13022580D01*
X19542760D01*
Y13007339D01*
X19527521D01*
Y12976860D01*
X19542760D01*
X19456400Y12966701D02*
Y12941299D01*
X19507201D01*
Y12966701D01*
X19532600D01*
Y13017500D01*
X19507201D01*
Y13042900D01*
X19456400D01*
Y13017500D01*
X19431000D01*
Y12966701D01*
X19456400D01*
X19466560Y12976860D02*
Y12961620D01*
X19497040D01*
Y12976860D01*
X19512280D01*
Y13007339D01*
X19497040D01*
Y13022580D01*
X19466560D01*
Y13007339D01*
X19451320D01*
Y12976860D01*
X19466560D01*
X19380200Y12966701D02*
Y12941299D01*
X19431000D01*
Y12966701D01*
X19456400D01*
Y13017500D01*
X19431000D01*
Y13042900D01*
X19380200D01*
Y13017500D01*
X19354800D01*
Y12966701D01*
X19380200D01*
X19390359Y12976860D02*
Y12961620D01*
X19420840D01*
Y12976860D01*
X19436079D01*
Y13007339D01*
X19420840D01*
Y13022580D01*
X19390359D01*
Y13007339D01*
X19375121D01*
Y12976860D01*
X19390359D01*
X19303999Y12966701D02*
Y12941299D01*
X19354800D01*
Y12966701D01*
X19380200D01*
Y13017500D01*
X19354800D01*
Y13042900D01*
X19303999D01*
Y13017500D01*
X19278600D01*
Y12966701D01*
X19303999D01*
X19314160Y12976860D02*
Y12961620D01*
X19344640D01*
Y12976860D01*
X19359880D01*
Y13007339D01*
X19344640D01*
Y13022580D01*
X19314160D01*
Y13007339D01*
X19298920D01*
Y12976860D01*
X19314160D01*
X19227800Y12966701D02*
Y12941299D01*
X19278600D01*
Y12966701D01*
X19303999D01*
Y13017500D01*
X19278600D01*
Y13042900D01*
X19227800D01*
Y13017500D01*
X19202400D01*
Y12966701D01*
X19227800D01*
X19237959Y12976860D02*
Y12961620D01*
X19268440D01*
Y12976860D01*
X19283681D01*
Y13007339D01*
X19268440D01*
Y13022580D01*
X19237959D01*
Y13007339D01*
X19222720D01*
Y12976860D01*
X19237959D01*
X19151601Y12966701D02*
Y12941299D01*
X19202400D01*
Y12966701D01*
X19227800D01*
Y13017500D01*
X19202400D01*
Y13042900D01*
X19151601D01*
Y13017500D01*
X19126199D01*
Y12966701D01*
X19151601D01*
X19161760Y12976860D02*
Y12961620D01*
X19192239D01*
Y12976860D01*
X19207480D01*
Y13007339D01*
X19192239D01*
Y13022580D01*
X19161760D01*
Y13007339D01*
X19146519D01*
Y12976860D01*
X19161760D01*
X19075400Y12966701D02*
Y12941299D01*
X19126199D01*
Y12966701D01*
X19151601D01*
Y13017500D01*
X19126199D01*
Y13042900D01*
X19075400D01*
Y13017500D01*
X19050000D01*
Y12966701D01*
X19075400D01*
X19085561Y12976860D02*
Y12961620D01*
X19116040D01*
Y12976860D01*
X19131281D01*
Y13007339D01*
X19116040D01*
Y13022580D01*
X19085561D01*
Y13007339D01*
X19070320D01*
Y12976860D01*
X19085561D01*
X18999200Y12966701D02*
Y12941299D01*
X19050000D01*
Y12966701D01*
X19075400D01*
Y13017500D01*
X19050000D01*
Y13042900D01*
X18999200D01*
Y13017500D01*
X18973801D01*
Y12966701D01*
X18999200D01*
X19009360Y12976860D02*
Y12961620D01*
X19039841D01*
Y12976860D01*
X19055080D01*
Y13007339D01*
X19039841D01*
Y13022580D01*
X19009360D01*
Y13007339D01*
X18994119D01*
Y12976860D01*
X19009360D01*
X18923000Y12966701D02*
Y12941299D01*
X18973801D01*
Y12966701D01*
X18999200D01*
Y13017500D01*
X18973801D01*
Y13042900D01*
X18923000D01*
Y13017500D01*
X18897600D01*
Y12966701D01*
X18923000D01*
X18933160Y12976860D02*
Y12961620D01*
X18963640D01*
Y12976860D01*
X18978880D01*
Y13007339D01*
X18963640D01*
Y13022580D01*
X18933160D01*
Y13007339D01*
X18917920D01*
Y12976860D01*
X18933160D01*
X18846800Y12966701D02*
Y12941299D01*
X18897600D01*
Y12966701D01*
X18923000D01*
Y13017500D01*
X18897600D01*
Y13042900D01*
X18846800D01*
Y13017500D01*
X18821400D01*
Y12966701D01*
X18846800D01*
X18856960Y12976860D02*
Y12961620D01*
X18887440D01*
Y12976860D01*
X18902679D01*
Y13007339D01*
X18887440D01*
Y13022580D01*
X18856960D01*
Y13007339D01*
X18841721D01*
Y12976860D01*
X18856960D01*
X18770599Y12966701D02*
Y12941299D01*
X18821400D01*
Y12966701D01*
X18846800D01*
Y13017500D01*
X18821400D01*
Y13042900D01*
X18770599D01*
Y13017500D01*
X18745200D01*
Y12966701D01*
X18770599D01*
X18780760Y12976860D02*
Y12961620D01*
X18811240D01*
Y12976860D01*
X18826480D01*
Y13007339D01*
X18811240D01*
Y13022580D01*
X18780760D01*
Y13007339D01*
X18765520D01*
Y12976860D01*
X18780760D01*
X18694400Y12966701D02*
Y12941299D01*
X18745200D01*
Y12966701D01*
X18770599D01*
Y13017500D01*
X18745200D01*
Y13042900D01*
X18694400D01*
Y13017500D01*
X18669000D01*
Y12966701D01*
X18694400D01*
X18704559Y12976860D02*
Y12961620D01*
X18735040D01*
Y12976860D01*
X18750281D01*
Y13007339D01*
X18735040D01*
Y13022580D01*
X18704559D01*
Y13007339D01*
X18689320D01*
Y12976860D01*
X18704559D01*
X18618201Y12966701D02*
Y12941299D01*
X18669000D01*
Y12966701D01*
X18694400D01*
Y13017500D01*
X18669000D01*
Y13042900D01*
X18618201D01*
Y13017500D01*
X18592799D01*
Y12966701D01*
X18618201D01*
X18628360Y12976860D02*
Y12961620D01*
X18658839D01*
Y12976860D01*
X18674080D01*
Y13007339D01*
X18658839D01*
Y13022580D01*
X18628360D01*
Y13007339D01*
X18613120D01*
Y12976860D01*
X18628360D01*
X18545522Y12968111D02*
Y12942709D01*
X18596321D01*
Y12968111D01*
X18621721D01*
Y13018910D01*
X18596321D01*
Y13044310D01*
X18545522D01*
Y13018910D01*
X18520120D01*
Y12968111D01*
X18545522D01*
X18555681Y12978270D02*
Y12963029D01*
X18586160D01*
Y12978270D01*
X18601401D01*
Y13008749D01*
X18586160D01*
Y13023990D01*
X18555681D01*
Y13008749D01*
X18540440D01*
Y12978270D01*
X18555681D01*
X18545522Y13425310D02*
Y13399910D01*
X18596321D01*
Y13425310D01*
X18621721D01*
Y13476109D01*
X18596321D01*
Y13501511D01*
X18545522D01*
Y13476109D01*
X18520120D01*
Y13425310D01*
X18545522D01*
X18555681Y13435471D02*
Y13420230D01*
X18586160D01*
Y13435471D01*
X18601401D01*
Y13465950D01*
X18586160D01*
Y13481190D01*
X18555681D01*
Y13465950D01*
X18540440D01*
Y13435471D01*
X18555681D01*
X18545522Y13349110D02*
Y13323711D01*
X18596321D01*
Y13349110D01*
X18621721D01*
Y13399910D01*
X18596321D01*
Y13425310D01*
X18545522D01*
Y13399910D01*
X18520120D01*
Y13349110D01*
X18545522D01*
X18555681Y13359270D02*
Y13344031D01*
X18586160D01*
Y13359270D01*
X18601401D01*
Y13389751D01*
X18586160D01*
Y13404990D01*
X18555681D01*
Y13389751D01*
X18540440D01*
Y13359270D01*
X18555681D01*
X18545522Y13272910D02*
Y13247510D01*
X18596321D01*
Y13272910D01*
X18621721D01*
Y13323711D01*
X18596321D01*
Y13349110D01*
X18545522D01*
Y13323711D01*
X18520120D01*
Y13272910D01*
X18545522D01*
X18555681Y13283070D02*
Y13267830D01*
X18586160D01*
Y13283070D01*
X18601401D01*
Y13313550D01*
X18586160D01*
Y13328790D01*
X18555681D01*
Y13313550D01*
X18540440D01*
Y13283070D01*
X18555681D01*
X18545522Y13196710D02*
Y13171310D01*
X18596321D01*
Y13196710D01*
X18621721D01*
Y13247510D01*
X18596321D01*
Y13272910D01*
X18545522D01*
Y13247510D01*
X18520120D01*
Y13196710D01*
X18545522D01*
X18555681Y13206870D02*
Y13191631D01*
X18586160D01*
Y13206870D01*
X18601401D01*
Y13237350D01*
X18586160D01*
Y13252589D01*
X18555681D01*
Y13237350D01*
X18540440D01*
Y13206870D01*
X18555681D01*
X18545522Y13120509D02*
Y13095110D01*
X18596321D01*
Y13120509D01*
X18621721D01*
Y13171310D01*
X18596321D01*
Y13196710D01*
X18545522D01*
Y13171310D01*
X18520120D01*
Y13120509D01*
X18545522D01*
X18555681Y13130670D02*
Y13115430D01*
X18586160D01*
Y13130670D01*
X18601401D01*
Y13161150D01*
X18586160D01*
Y13176390D01*
X18555681D01*
Y13161150D01*
X18540440D01*
Y13130670D01*
X18555681D01*
X18545522Y13044310D02*
Y13018910D01*
X18596321D01*
Y13044310D01*
X18621721D01*
Y13095110D01*
X18596321D01*
Y13120509D01*
X18545522D01*
Y13095110D01*
X18520120D01*
Y13044310D01*
X18545522D01*
X18555681Y13054469D02*
Y13039230D01*
X18586160D01*
Y13054469D01*
X18601401D01*
Y13084950D01*
X18586160D01*
Y13100191D01*
X18555681D01*
Y13084950D01*
X18540440D01*
Y13054469D01*
X18555681D01*
X12687300Y10426700D02*
Y10401300D01*
X12738100D01*
Y10426700D01*
X12763500D01*
Y10477500D01*
X12738100D01*
Y10502900D01*
X12687300D01*
Y10477500D01*
X12661900D01*
Y10426700D01*
X12687300D01*
X12697460Y10436860D02*
Y10421620D01*
X12727940D01*
Y10436860D01*
X12743180D01*
Y10467340D01*
X12727940D01*
Y10482580D01*
X12697460D01*
Y10467340D01*
X12682220D01*
Y10436860D01*
X12697460D01*
X12763500Y10426700D02*
Y10401300D01*
X12814301D01*
Y10426700D01*
X12839700D01*
Y10477500D01*
X12814301D01*
Y10502900D01*
X12763500D01*
Y10477500D01*
X12738100D01*
Y10426700D01*
X12763500D01*
X12773660Y10436860D02*
Y10421620D01*
X12804140D01*
Y10436860D01*
X12819380D01*
Y10467340D01*
X12804140D01*
Y10482580D01*
X12773660D01*
Y10467340D01*
X12758420D01*
Y10436860D01*
X12773660D01*
X12839700Y10426700D02*
Y10401300D01*
X12890500D01*
Y10426700D01*
X12915900D01*
Y10477500D01*
X12890500D01*
Y10502900D01*
X12839700D01*
Y10477500D01*
X12814301D01*
Y10426700D01*
X12839700D01*
X12849860Y10436860D02*
Y10421620D01*
X12880341D01*
Y10436860D01*
X12895580D01*
Y10467340D01*
X12880341D01*
Y10482580D01*
X12849860D01*
Y10467340D01*
X12834621D01*
Y10436860D01*
X12849860D01*
X12915900Y10426700D02*
Y10401300D01*
X12966701D01*
Y10426700D01*
X12992101D01*
Y10477500D01*
X12966701D01*
Y10502900D01*
X12915900D01*
Y10477500D01*
X12890500D01*
Y10426700D01*
X12915900D01*
X12926060Y10436860D02*
Y10421620D01*
X12956540D01*
Y10436860D01*
X12971780D01*
Y10467340D01*
X12956540D01*
Y10482580D01*
X12926060D01*
Y10467340D01*
X12910820D01*
Y10436860D01*
X12926060D01*
X12992101Y10426700D02*
Y10401300D01*
X13042900D01*
Y10426700D01*
X13068300D01*
Y10477500D01*
X13042900D01*
Y10502900D01*
X12992101D01*
Y10477500D01*
X12966701D01*
Y10426700D01*
X12992101D01*
X13002260Y10436860D02*
Y10421620D01*
X13032739D01*
Y10436860D01*
X13047980D01*
Y10467340D01*
X13032739D01*
Y10482580D01*
X13002260D01*
Y10467340D01*
X12987019D01*
Y10436860D01*
X13002260D01*
X13068300Y10426700D02*
Y10401300D01*
X13119099D01*
Y10426700D01*
X13144501D01*
Y10477500D01*
X13119099D01*
Y10502900D01*
X13068300D01*
Y10477500D01*
X13042900D01*
Y10426700D01*
X13068300D01*
X13078461Y10436860D02*
Y10421620D01*
X13108940D01*
Y10436860D01*
X13124181D01*
Y10467340D01*
X13108940D01*
Y10482580D01*
X13078461D01*
Y10467340D01*
X13063220D01*
Y10436860D01*
X13078461D01*
X12611100Y10426700D02*
Y10401300D01*
X12661900D01*
Y10426700D01*
X12687300D01*
Y10477500D01*
X12661900D01*
Y10502900D01*
X12611100D01*
Y10477500D01*
X12585700D01*
Y10426700D01*
X12611100D01*
X12621260Y10436860D02*
Y10421620D01*
X12651740D01*
Y10436860D01*
X12666980D01*
Y10467340D01*
X12651740D01*
Y10482580D01*
X12621260D01*
Y10467340D01*
X12606020D01*
Y10436860D01*
X12621260D01*
X12609690Y10354021D02*
Y10328621D01*
X12660490D01*
Y10354021D01*
X12685890D01*
Y10404821D01*
X12660490D01*
Y10430221D01*
X12609690D01*
Y10404821D01*
X12584290D01*
Y10354021D01*
X12609690D01*
X12619850Y10364181D02*
Y10348941D01*
X12650330D01*
Y10364181D01*
X12665570D01*
Y10394661D01*
X12650330D01*
Y10409901D01*
X12619850D01*
Y10394661D01*
X12604610D01*
Y10364181D01*
X12619850D01*
X12609690Y10277821D02*
Y10252421D01*
X12660490D01*
Y10277821D01*
X12685890D01*
Y10328621D01*
X12660490D01*
Y10354021D01*
X12609690D01*
Y10328621D01*
X12584290D01*
Y10277821D01*
X12609690D01*
X12619850Y10287981D02*
Y10272741D01*
X12650330D01*
Y10287981D01*
X12665570D01*
Y10318461D01*
X12650330D01*
Y10333701D01*
X12619850D01*
Y10318461D01*
X12604610D01*
Y10287981D01*
X12619850D01*
X12609690Y10201621D02*
Y10176221D01*
X12660490D01*
Y10201621D01*
X12685890D01*
Y10252421D01*
X12660490D01*
Y10277821D01*
X12609690D01*
Y10252421D01*
X12584290D01*
Y10201621D01*
X12609690D01*
X12619850Y10211781D02*
Y10196541D01*
X12650330D01*
Y10211781D01*
X12665570D01*
Y10242261D01*
X12650330D01*
Y10257501D01*
X12619850D01*
Y10242261D01*
X12604610D01*
Y10211781D01*
X12619850D01*
X12609690Y10125421D02*
Y10100021D01*
X12660490D01*
Y10125421D01*
X12685890D01*
Y10176221D01*
X12660490D01*
Y10201621D01*
X12609690D01*
Y10176221D01*
X12584290D01*
Y10125421D01*
X12609690D01*
X12619850Y10135581D02*
Y10120341D01*
X12650330D01*
Y10135581D01*
X12665570D01*
Y10166061D01*
X12650330D01*
Y10181301D01*
X12619850D01*
Y10166061D01*
X12604610D01*
Y10135581D01*
X12619850D01*
X12609690Y10049221D02*
Y10023821D01*
X12660490D01*
Y10049221D01*
X12685890D01*
Y10100021D01*
X12660490D01*
Y10125421D01*
X12609690D01*
Y10100021D01*
X12584290D01*
Y10049221D01*
X12609690D01*
X12619850Y10059381D02*
Y10044141D01*
X12650330D01*
Y10059381D01*
X12665570D01*
Y10089861D01*
X12650330D01*
Y10105101D01*
X12619850D01*
Y10089861D01*
X12604610D01*
Y10059381D01*
X12619850D01*
X12609690Y9973021D02*
Y9947621D01*
X12660490D01*
Y9973021D01*
X12685890D01*
Y10023821D01*
X12660490D01*
Y10049221D01*
X12609690D01*
Y10023821D01*
X12584290D01*
Y9973021D01*
X12609690D01*
X12619850Y9983181D02*
Y9967941D01*
X12650330D01*
Y9983181D01*
X12665570D01*
Y10013661D01*
X12650330D01*
Y10028901D01*
X12619850D01*
Y10013661D01*
X12604610D01*
Y9983181D01*
X12619850D01*
X12609690Y9896821D02*
Y9871421D01*
X12660490D01*
Y9896821D01*
X12685890D01*
Y9947621D01*
X12660490D01*
Y9973021D01*
X12609690D01*
Y9947621D01*
X12584290D01*
Y9896821D01*
X12609690D01*
X12619850Y9906981D02*
Y9891741D01*
X12650330D01*
Y9906981D01*
X12665570D01*
Y9937461D01*
X12650330D01*
Y9952701D01*
X12619850D01*
Y9937461D01*
X12604610D01*
Y9906981D01*
X12619850D01*
X12609690Y9820621D02*
Y9795221D01*
X12660490D01*
Y9820621D01*
X12685890D01*
Y9871421D01*
X12660490D01*
Y9896821D01*
X12609690D01*
Y9871421D01*
X12584290D01*
Y9820621D01*
X12609690D01*
X12619850Y9830781D02*
Y9815541D01*
X12650330D01*
Y9830781D01*
X12665570D01*
Y9861261D01*
X12650330D01*
Y9876501D01*
X12619850D01*
Y9861261D01*
X12604610D01*
Y9830781D01*
X12619850D01*
X12609690Y9744421D02*
Y9719021D01*
X12660490D01*
Y9744421D01*
X12685890D01*
Y9795221D01*
X12660490D01*
Y9820621D01*
X12609690D01*
Y9795221D01*
X12584290D01*
Y9744421D01*
X12609690D01*
X12619850Y9754581D02*
Y9739341D01*
X12650330D01*
Y9754581D01*
X12665570D01*
Y9785061D01*
X12650330D01*
Y9800301D01*
X12619850D01*
Y9785061D01*
X12604610D01*
Y9754581D01*
X12619850D01*
X12609690Y9668221D02*
Y9642821D01*
X12660490D01*
Y9668221D01*
X12685890D01*
Y9719021D01*
X12660490D01*
Y9744421D01*
X12609690D01*
Y9719021D01*
X12584290D01*
Y9668221D01*
X12609690D01*
X12619850Y9678381D02*
Y9663141D01*
X12650330D01*
Y9678381D01*
X12665570D01*
Y9708861D01*
X12650330D01*
Y9724101D01*
X12619850D01*
Y9708861D01*
X12604610D01*
Y9678381D01*
X12619850D01*
X12609690Y9592021D02*
Y9566621D01*
X12660490D01*
Y9592021D01*
X12685890D01*
Y9642821D01*
X12660490D01*
Y9668221D01*
X12609690D01*
Y9642821D01*
X12584290D01*
Y9592021D01*
X12609690D01*
X12619850Y9602181D02*
Y9586941D01*
X12650330D01*
Y9602181D01*
X12665570D01*
Y9632661D01*
X12650330D01*
Y9647901D01*
X12619850D01*
Y9632661D01*
X12604610D01*
Y9602181D01*
X12619850D01*
X12609690Y9515821D02*
Y9490421D01*
X12660490D01*
Y9515821D01*
X12685890D01*
Y9566621D01*
X12660490D01*
Y9592021D01*
X12609690D01*
Y9566621D01*
X12584290D01*
Y9515821D01*
X12609690D01*
X12619850Y9525981D02*
Y9510741D01*
X12650330D01*
Y9525981D01*
X12665570D01*
Y9556461D01*
X12650330D01*
Y9571701D01*
X12619850D01*
Y9556461D01*
X12604610D01*
Y9525981D01*
X12619850D01*
X12609690Y9439621D02*
Y9414221D01*
X12660490D01*
Y9439621D01*
X12685890D01*
Y9490421D01*
X12660490D01*
Y9515821D01*
X12609690D01*
Y9490421D01*
X12584290D01*
Y9439621D01*
X12609690D01*
X12619850Y9449781D02*
Y9434541D01*
X12650330D01*
Y9449781D01*
X12665570D01*
Y9480261D01*
X12650330D01*
Y9495501D01*
X12619850D01*
Y9480261D01*
X12604610D01*
Y9449781D01*
X12619850D01*
X12609690Y9363421D02*
Y9338021D01*
X12660490D01*
Y9363421D01*
X12685890D01*
Y9414221D01*
X12660490D01*
Y9439621D01*
X12609690D01*
Y9414221D01*
X12584290D01*
Y9363421D01*
X12609690D01*
X12619850Y9373581D02*
Y9358341D01*
X12650330D01*
Y9373581D01*
X12665570D01*
Y9404061D01*
X12650330D01*
Y9419301D01*
X12619850D01*
Y9404061D01*
X12604610D01*
Y9373581D01*
X12619850D01*
X13066890Y10354021D02*
Y10328621D01*
X13117690D01*
Y10354021D01*
X13143089D01*
Y10404821D01*
X13117690D01*
Y10430221D01*
X13066890D01*
Y10404821D01*
X13041490D01*
Y10354021D01*
X13066890D01*
X13077049Y10364181D02*
Y10348941D01*
X13107530D01*
Y10364181D01*
X13122771D01*
Y10394661D01*
X13107530D01*
Y10409901D01*
X13077049D01*
Y10394661D01*
X13061810D01*
Y10364181D01*
X13077049D01*
X13066890Y10277821D02*
Y10252421D01*
X13117690D01*
Y10277821D01*
X13143089D01*
Y10328621D01*
X13117690D01*
Y10354021D01*
X13066890D01*
Y10328621D01*
X13041490D01*
Y10277821D01*
X13066890D01*
X13077049Y10287981D02*
Y10272741D01*
X13107530D01*
Y10287981D01*
X13122771D01*
Y10318461D01*
X13107530D01*
Y10333701D01*
X13077049D01*
Y10318461D01*
X13061810D01*
Y10287981D01*
X13077049D01*
X13066890Y10201621D02*
Y10176221D01*
X13117690D01*
Y10201621D01*
X13143089D01*
Y10252421D01*
X13117690D01*
Y10277821D01*
X13066890D01*
Y10252421D01*
X13041490D01*
Y10201621D01*
X13066890D01*
X13077049Y10211781D02*
Y10196541D01*
X13107530D01*
Y10211781D01*
X13122771D01*
Y10242261D01*
X13107530D01*
Y10257501D01*
X13077049D01*
Y10242261D01*
X13061810D01*
Y10211781D01*
X13077049D01*
X13066890Y10125421D02*
Y10100021D01*
X13117690D01*
Y10125421D01*
X13143089D01*
Y10176221D01*
X13117690D01*
Y10201621D01*
X13066890D01*
Y10176221D01*
X13041490D01*
Y10125421D01*
X13066890D01*
X13077049Y10135581D02*
Y10120341D01*
X13107530D01*
Y10135581D01*
X13122771D01*
Y10166061D01*
X13107530D01*
Y10181301D01*
X13077049D01*
Y10166061D01*
X13061810D01*
Y10135581D01*
X13077049D01*
X13066890Y10049221D02*
Y10023821D01*
X13117690D01*
Y10049221D01*
X13143089D01*
Y10100021D01*
X13117690D01*
Y10125421D01*
X13066890D01*
Y10100021D01*
X13041490D01*
Y10049221D01*
X13066890D01*
X13077049Y10059381D02*
Y10044141D01*
X13107530D01*
Y10059381D01*
X13122771D01*
Y10089861D01*
X13107530D01*
Y10105101D01*
X13077049D01*
Y10089861D01*
X13061810D01*
Y10059381D01*
X13077049D01*
X13066890Y9973021D02*
Y9947621D01*
X13117690D01*
Y9973021D01*
X13143089D01*
Y10023821D01*
X13117690D01*
Y10049221D01*
X13066890D01*
Y10023821D01*
X13041490D01*
Y9973021D01*
X13066890D01*
X13077049Y9983181D02*
Y9967941D01*
X13107530D01*
Y9983181D01*
X13122771D01*
Y10013661D01*
X13107530D01*
Y10028901D01*
X13077049D01*
Y10013661D01*
X13061810D01*
Y9983181D01*
X13077049D01*
X13066890Y9896821D02*
Y9871421D01*
X13117690D01*
Y9896821D01*
X13143089D01*
Y9947621D01*
X13117690D01*
Y9973021D01*
X13066890D01*
Y9947621D01*
X13041490D01*
Y9896821D01*
X13066890D01*
X13077049Y9906981D02*
Y9891741D01*
X13107530D01*
Y9906981D01*
X13122771D01*
Y9937461D01*
X13107530D01*
Y9952701D01*
X13077049D01*
Y9937461D01*
X13061810D01*
Y9906981D01*
X13077049D01*
X13066890Y9820621D02*
Y9795221D01*
X13117690D01*
Y9820621D01*
X13143089D01*
Y9871421D01*
X13117690D01*
Y9896821D01*
X13066890D01*
Y9871421D01*
X13041490D01*
Y9820621D01*
X13066890D01*
X13077049Y9830781D02*
Y9815541D01*
X13107530D01*
Y9830781D01*
X13122771D01*
Y9861261D01*
X13107530D01*
Y9876501D01*
X13077049D01*
Y9861261D01*
X13061810D01*
Y9830781D01*
X13077049D01*
X13066890Y9744421D02*
Y9719021D01*
X13117690D01*
Y9744421D01*
X13143089D01*
Y9795221D01*
X13117690D01*
Y9820621D01*
X13066890D01*
Y9795221D01*
X13041490D01*
Y9744421D01*
X13066890D01*
X13077049Y9754581D02*
Y9739341D01*
X13107530D01*
Y9754581D01*
X13122771D01*
Y9785061D01*
X13107530D01*
Y9800301D01*
X13077049D01*
Y9785061D01*
X13061810D01*
Y9754581D01*
X13077049D01*
X13066890Y9668221D02*
Y9642821D01*
X13117690D01*
Y9668221D01*
X13143089D01*
Y9719021D01*
X13117690D01*
Y9744421D01*
X13066890D01*
Y9719021D01*
X13041490D01*
Y9668221D01*
X13066890D01*
X13077049Y9678381D02*
Y9663141D01*
X13107530D01*
Y9678381D01*
X13122771D01*
Y9708861D01*
X13107530D01*
Y9724101D01*
X13077049D01*
Y9708861D01*
X13061810D01*
Y9678381D01*
X13077049D01*
X13066890Y9592021D02*
Y9566621D01*
X13117690D01*
Y9592021D01*
X13143089D01*
Y9642821D01*
X13117690D01*
Y9668221D01*
X13066890D01*
Y9642821D01*
X13041490D01*
Y9592021D01*
X13066890D01*
X13077049Y9602181D02*
Y9586941D01*
X13107530D01*
Y9602181D01*
X13122771D01*
Y9632661D01*
X13107530D01*
Y9647901D01*
X13077049D01*
Y9632661D01*
X13061810D01*
Y9602181D01*
X13077049D01*
X13066890Y9515821D02*
Y9490421D01*
X13117690D01*
Y9515821D01*
X13143089D01*
Y9566621D01*
X13117690D01*
Y9592021D01*
X13066890D01*
Y9566621D01*
X13041490D01*
Y9515821D01*
X13066890D01*
X13077049Y9525981D02*
Y9510741D01*
X13107530D01*
Y9525981D01*
X13122771D01*
Y9556461D01*
X13107530D01*
Y9571701D01*
X13077049D01*
Y9556461D01*
X13061810D01*
Y9525981D01*
X13077049D01*
X13066890Y9439621D02*
Y9414221D01*
X13117690D01*
Y9439621D01*
X13143089D01*
Y9490421D01*
X13117690D01*
Y9515821D01*
X13066890D01*
Y9490421D01*
X13041490D01*
Y9439621D01*
X13066890D01*
X13077049Y9449781D02*
Y9434541D01*
X13107530D01*
Y9449781D01*
X13122771D01*
Y9480261D01*
X13107530D01*
Y9495501D01*
X13077049D01*
Y9480261D01*
X13061810D01*
Y9449781D01*
X13077049D01*
X13066890Y9363421D02*
Y9338021D01*
X13117690D01*
Y9363421D01*
X13143089D01*
Y9414221D01*
X13117690D01*
Y9439621D01*
X13066890D01*
Y9414221D01*
X13041490D01*
Y9363421D01*
X13066890D01*
X13077049Y9373581D02*
Y9358341D01*
X13107530D01*
Y9373581D01*
X13122771D01*
Y9404061D01*
X13107530D01*
Y9419301D01*
X13077049D01*
Y9404061D01*
X13061810D01*
Y9373581D01*
X13077049D01*
X12990691Y10354021D02*
Y10328621D01*
X13041490D01*
Y10354021D01*
X13066890D01*
Y10404821D01*
X13041490D01*
Y10430221D01*
X12990691D01*
Y10404821D01*
X12965289D01*
Y10354021D01*
X12990691D01*
X13000850Y10364181D02*
Y10348941D01*
X13031329D01*
Y10364181D01*
X13046570D01*
Y10394661D01*
X13031329D01*
Y10409901D01*
X13000850D01*
Y10394661D01*
X12985609D01*
Y10364181D01*
X13000850D01*
X12990691Y10277821D02*
Y10252421D01*
X13041490D01*
Y10277821D01*
X13066890D01*
Y10328621D01*
X13041490D01*
Y10354021D01*
X12990691D01*
Y10328621D01*
X12965289D01*
Y10277821D01*
X12990691D01*
X13000850Y10287981D02*
Y10272741D01*
X13031329D01*
Y10287981D01*
X13046570D01*
Y10318461D01*
X13031329D01*
Y10333701D01*
X13000850D01*
Y10318461D01*
X12985609D01*
Y10287981D01*
X13000850D01*
X12990691Y10201621D02*
Y10176221D01*
X13041490D01*
Y10201621D01*
X13066890D01*
Y10252421D01*
X13041490D01*
Y10277821D01*
X12990691D01*
Y10252421D01*
X12965289D01*
Y10201621D01*
X12990691D01*
X13000850Y10211781D02*
Y10196541D01*
X13031329D01*
Y10211781D01*
X13046570D01*
Y10242261D01*
X13031329D01*
Y10257501D01*
X13000850D01*
Y10242261D01*
X12985609D01*
Y10211781D01*
X13000850D01*
X12990691Y10125421D02*
Y10100021D01*
X13041490D01*
Y10125421D01*
X13066890D01*
Y10176221D01*
X13041490D01*
Y10201621D01*
X12990691D01*
Y10176221D01*
X12965289D01*
Y10125421D01*
X12990691D01*
X13000850Y10135581D02*
Y10120341D01*
X13031329D01*
Y10135581D01*
X13046570D01*
Y10166061D01*
X13031329D01*
Y10181301D01*
X13000850D01*
Y10166061D01*
X12985609D01*
Y10135581D01*
X13000850D01*
X12990691Y10049221D02*
Y10023821D01*
X13041490D01*
Y10049221D01*
X13066890D01*
Y10100021D01*
X13041490D01*
Y10125421D01*
X12990691D01*
Y10100021D01*
X12965289D01*
Y10049221D01*
X12990691D01*
X13000850Y10059381D02*
Y10044141D01*
X13031329D01*
Y10059381D01*
X13046570D01*
Y10089861D01*
X13031329D01*
Y10105101D01*
X13000850D01*
Y10089861D01*
X12985609D01*
Y10059381D01*
X13000850D01*
X12990691Y9973021D02*
Y9947621D01*
X13041490D01*
Y9973021D01*
X13066890D01*
Y10023821D01*
X13041490D01*
Y10049221D01*
X12990691D01*
Y10023821D01*
X12965289D01*
Y9973021D01*
X12990691D01*
X13000850Y9983181D02*
Y9967941D01*
X13031329D01*
Y9983181D01*
X13046570D01*
Y10013661D01*
X13031329D01*
Y10028901D01*
X13000850D01*
Y10013661D01*
X12985609D01*
Y9983181D01*
X13000850D01*
X12990691Y9896821D02*
Y9871421D01*
X13041490D01*
Y9896821D01*
X13066890D01*
Y9947621D01*
X13041490D01*
Y9973021D01*
X12990691D01*
Y9947621D01*
X12965289D01*
Y9896821D01*
X12990691D01*
X13000850Y9906981D02*
Y9891741D01*
X13031329D01*
Y9906981D01*
X13046570D01*
Y9937461D01*
X13031329D01*
Y9952701D01*
X13000850D01*
Y9937461D01*
X12985609D01*
Y9906981D01*
X13000850D01*
X12990691Y9820621D02*
Y9795221D01*
X13041490D01*
Y9820621D01*
X13066890D01*
Y9871421D01*
X13041490D01*
Y9896821D01*
X12990691D01*
Y9871421D01*
X12965289D01*
Y9820621D01*
X12990691D01*
X13000850Y9830781D02*
Y9815541D01*
X13031329D01*
Y9830781D01*
X13046570D01*
Y9861261D01*
X13031329D01*
Y9876501D01*
X13000850D01*
Y9861261D01*
X12985609D01*
Y9830781D01*
X13000850D01*
X12990691Y9744421D02*
Y9719021D01*
X13041490D01*
Y9744421D01*
X13066890D01*
Y9795221D01*
X13041490D01*
Y9820621D01*
X12990691D01*
Y9795221D01*
X12965289D01*
Y9744421D01*
X12990691D01*
X13000850Y9754581D02*
Y9739341D01*
X13031329D01*
Y9754581D01*
X13046570D01*
Y9785061D01*
X13031329D01*
Y9800301D01*
X13000850D01*
Y9785061D01*
X12985609D01*
Y9754581D01*
X13000850D01*
X12990691Y9668221D02*
Y9642821D01*
X13041490D01*
Y9668221D01*
X13066890D01*
Y9719021D01*
X13041490D01*
Y9744421D01*
X12990691D01*
Y9719021D01*
X12965289D01*
Y9668221D01*
X12990691D01*
X13000850Y9678381D02*
Y9663141D01*
X13031329D01*
Y9678381D01*
X13046570D01*
Y9708861D01*
X13031329D01*
Y9724101D01*
X13000850D01*
Y9708861D01*
X12985609D01*
Y9678381D01*
X13000850D01*
X12990691Y9592021D02*
Y9566621D01*
X13041490D01*
Y9592021D01*
X13066890D01*
Y9642821D01*
X13041490D01*
Y9668221D01*
X12990691D01*
Y9642821D01*
X12965289D01*
Y9592021D01*
X12990691D01*
X13000850Y9602181D02*
Y9586941D01*
X13031329D01*
Y9602181D01*
X13046570D01*
Y9632661D01*
X13031329D01*
Y9647901D01*
X13000850D01*
Y9632661D01*
X12985609D01*
Y9602181D01*
X13000850D01*
X12990691Y9515821D02*
Y9490421D01*
X13041490D01*
Y9515821D01*
X13066890D01*
Y9566621D01*
X13041490D01*
Y9592021D01*
X12990691D01*
Y9566621D01*
X12965289D01*
Y9515821D01*
X12990691D01*
X13000850Y9525981D02*
Y9510741D01*
X13031329D01*
Y9525981D01*
X13046570D01*
Y9556461D01*
X13031329D01*
Y9571701D01*
X13000850D01*
Y9556461D01*
X12985609D01*
Y9525981D01*
X13000850D01*
X12990691Y9439621D02*
Y9414221D01*
X13041490D01*
Y9439621D01*
X13066890D01*
Y9490421D01*
X13041490D01*
Y9515821D01*
X12990691D01*
Y9490421D01*
X12965289D01*
Y9439621D01*
X12990691D01*
X13000850Y9449781D02*
Y9434541D01*
X13031329D01*
Y9449781D01*
X13046570D01*
Y9480261D01*
X13031329D01*
Y9495501D01*
X13000850D01*
Y9480261D01*
X12985609D01*
Y9449781D01*
X13000850D01*
X12990691Y9363421D02*
Y9338021D01*
X13041490D01*
Y9363421D01*
X13066890D01*
Y9414221D01*
X13041490D01*
Y9439621D01*
X12990691D01*
Y9414221D01*
X12965289D01*
Y9363421D01*
X12990691D01*
X13000850Y9373581D02*
Y9358341D01*
X13031329D01*
Y9373581D01*
X13046570D01*
Y9404061D01*
X13031329D01*
Y9419301D01*
X13000850D01*
Y9404061D01*
X12985609D01*
Y9373581D01*
X13000850D01*
X12914490Y10354021D02*
Y10328621D01*
X12965289D01*
Y10354021D01*
X12990691D01*
Y10404821D01*
X12965289D01*
Y10430221D01*
X12914490D01*
Y10404821D01*
X12889090D01*
Y10354021D01*
X12914490D01*
X12924651Y10364181D02*
Y10348941D01*
X12955130D01*
Y10364181D01*
X12970370D01*
Y10394661D01*
X12955130D01*
Y10409901D01*
X12924651D01*
Y10394661D01*
X12909410D01*
Y10364181D01*
X12924651D01*
X12914490Y10277821D02*
Y10252421D01*
X12965289D01*
Y10277821D01*
X12990691D01*
Y10328621D01*
X12965289D01*
Y10354021D01*
X12914490D01*
Y10328621D01*
X12889090D01*
Y10277821D01*
X12914490D01*
X12924651Y10287981D02*
Y10272741D01*
X12955130D01*
Y10287981D01*
X12970370D01*
Y10318461D01*
X12955130D01*
Y10333701D01*
X12924651D01*
Y10318461D01*
X12909410D01*
Y10287981D01*
X12924651D01*
X12914490Y10201621D02*
Y10176221D01*
X12965289D01*
Y10201621D01*
X12990691D01*
Y10252421D01*
X12965289D01*
Y10277821D01*
X12914490D01*
Y10252421D01*
X12889090D01*
Y10201621D01*
X12914490D01*
X12924651Y10211781D02*
Y10196541D01*
X12955130D01*
Y10211781D01*
X12970370D01*
Y10242261D01*
X12955130D01*
Y10257501D01*
X12924651D01*
Y10242261D01*
X12909410D01*
Y10211781D01*
X12924651D01*
X12914490Y10125421D02*
Y10100021D01*
X12965289D01*
Y10125421D01*
X12990691D01*
Y10176221D01*
X12965289D01*
Y10201621D01*
X12914490D01*
Y10176221D01*
X12889090D01*
Y10125421D01*
X12914490D01*
X12924651Y10135581D02*
Y10120341D01*
X12955130D01*
Y10135581D01*
X12970370D01*
Y10166061D01*
X12955130D01*
Y10181301D01*
X12924651D01*
Y10166061D01*
X12909410D01*
Y10135581D01*
X12924651D01*
X12914490Y10049221D02*
Y10023821D01*
X12965289D01*
Y10049221D01*
X12990691D01*
Y10100021D01*
X12965289D01*
Y10125421D01*
X12914490D01*
Y10100021D01*
X12889090D01*
Y10049221D01*
X12914490D01*
X12924651Y10059381D02*
Y10044141D01*
X12955130D01*
Y10059381D01*
X12970370D01*
Y10089861D01*
X12955130D01*
Y10105101D01*
X12924651D01*
Y10089861D01*
X12909410D01*
Y10059381D01*
X12924651D01*
X12914490Y9973021D02*
Y9947621D01*
X12965289D01*
Y9973021D01*
X12990691D01*
Y10023821D01*
X12965289D01*
Y10049221D01*
X12914490D01*
Y10023821D01*
X12889090D01*
Y9973021D01*
X12914490D01*
X12924651Y9983181D02*
Y9967941D01*
X12955130D01*
Y9983181D01*
X12970370D01*
Y10013661D01*
X12955130D01*
Y10028901D01*
X12924651D01*
Y10013661D01*
X12909410D01*
Y9983181D01*
X12924651D01*
X12914490Y9896821D02*
Y9871421D01*
X12965289D01*
Y9896821D01*
X12990691D01*
Y9947621D01*
X12965289D01*
Y9973021D01*
X12914490D01*
Y9947621D01*
X12889090D01*
Y9896821D01*
X12914490D01*
X12924651Y9906981D02*
Y9891741D01*
X12955130D01*
Y9906981D01*
X12970370D01*
Y9937461D01*
X12955130D01*
Y9952701D01*
X12924651D01*
Y9937461D01*
X12909410D01*
Y9906981D01*
X12924651D01*
X12914490Y9820621D02*
Y9795221D01*
X12965289D01*
Y9820621D01*
X12990691D01*
Y9871421D01*
X12965289D01*
Y9896821D01*
X12914490D01*
Y9871421D01*
X12889090D01*
Y9820621D01*
X12914490D01*
X12924651Y9830781D02*
Y9815541D01*
X12955130D01*
Y9830781D01*
X12970370D01*
Y9861261D01*
X12955130D01*
Y9876501D01*
X12924651D01*
Y9861261D01*
X12909410D01*
Y9830781D01*
X12924651D01*
X12914490Y9744421D02*
Y9719021D01*
X12965289D01*
Y9744421D01*
X12990691D01*
Y9795221D01*
X12965289D01*
Y9820621D01*
X12914490D01*
Y9795221D01*
X12889090D01*
Y9744421D01*
X12914490D01*
X12924651Y9754581D02*
Y9739341D01*
X12955130D01*
Y9754581D01*
X12970370D01*
Y9785061D01*
X12955130D01*
Y9800301D01*
X12924651D01*
Y9785061D01*
X12909410D01*
Y9754581D01*
X12924651D01*
X12914490Y9668221D02*
Y9642821D01*
X12965289D01*
Y9668221D01*
X12990691D01*
Y9719021D01*
X12965289D01*
Y9744421D01*
X12914490D01*
Y9719021D01*
X12889090D01*
Y9668221D01*
X12914490D01*
X12924651Y9678381D02*
Y9663141D01*
X12955130D01*
Y9678381D01*
X12970370D01*
Y9708861D01*
X12955130D01*
Y9724101D01*
X12924651D01*
Y9708861D01*
X12909410D01*
Y9678381D01*
X12924651D01*
X12914490Y9592021D02*
Y9566621D01*
X12965289D01*
Y9592021D01*
X12990691D01*
Y9642821D01*
X12965289D01*
Y9668221D01*
X12914490D01*
Y9642821D01*
X12889090D01*
Y9592021D01*
X12914490D01*
X12924651Y9602181D02*
Y9586941D01*
X12955130D01*
Y9602181D01*
X12970370D01*
Y9632661D01*
X12955130D01*
Y9647901D01*
X12924651D01*
Y9632661D01*
X12909410D01*
Y9602181D01*
X12924651D01*
X12914490Y9515821D02*
Y9490421D01*
X12965289D01*
Y9515821D01*
X12990691D01*
Y9566621D01*
X12965289D01*
Y9592021D01*
X12914490D01*
Y9566621D01*
X12889090D01*
Y9515821D01*
X12914490D01*
X12924651Y9525981D02*
Y9510741D01*
X12955130D01*
Y9525981D01*
X12970370D01*
Y9556461D01*
X12955130D01*
Y9571701D01*
X12924651D01*
Y9556461D01*
X12909410D01*
Y9525981D01*
X12924651D01*
X12914490Y9439621D02*
Y9414221D01*
X12965289D01*
Y9439621D01*
X12990691D01*
Y9490421D01*
X12965289D01*
Y9515821D01*
X12914490D01*
Y9490421D01*
X12889090D01*
Y9439621D01*
X12914490D01*
X12924651Y9449781D02*
Y9434541D01*
X12955130D01*
Y9449781D01*
X12970370D01*
Y9480261D01*
X12955130D01*
Y9495501D01*
X12924651D01*
Y9480261D01*
X12909410D01*
Y9449781D01*
X12924651D01*
X12914490Y9363421D02*
Y9338021D01*
X12965289D01*
Y9363421D01*
X12990691D01*
Y9414221D01*
X12965289D01*
Y9439621D01*
X12914490D01*
Y9414221D01*
X12889090D01*
Y9363421D01*
X12914490D01*
X12924651Y9373581D02*
Y9358341D01*
X12955130D01*
Y9373581D01*
X12970370D01*
Y9404061D01*
X12955130D01*
Y9419301D01*
X12924651D01*
Y9404061D01*
X12909410D01*
Y9373581D01*
X12924651D01*
X12838290Y10354021D02*
Y10328621D01*
X12889090D01*
Y10354021D01*
X12914490D01*
Y10404821D01*
X12889090D01*
Y10430221D01*
X12838290D01*
Y10404821D01*
X12812891D01*
Y10354021D01*
X12838290D01*
X12848450Y10364181D02*
Y10348941D01*
X12878931D01*
Y10364181D01*
X12894170D01*
Y10394661D01*
X12878931D01*
Y10409901D01*
X12848450D01*
Y10394661D01*
X12833211D01*
Y10364181D01*
X12848450D01*
X12838290Y10277821D02*
Y10252421D01*
X12889090D01*
Y10277821D01*
X12914490D01*
Y10328621D01*
X12889090D01*
Y10354021D01*
X12838290D01*
Y10328621D01*
X12812891D01*
Y10277821D01*
X12838290D01*
X12848450Y10287981D02*
Y10272741D01*
X12878931D01*
Y10287981D01*
X12894170D01*
Y10318461D01*
X12878931D01*
Y10333701D01*
X12848450D01*
Y10318461D01*
X12833211D01*
Y10287981D01*
X12848450D01*
X12838290Y10201621D02*
Y10176221D01*
X12889090D01*
Y10201621D01*
X12914490D01*
Y10252421D01*
X12889090D01*
Y10277821D01*
X12838290D01*
Y10252421D01*
X12812891D01*
Y10201621D01*
X12838290D01*
X12848450Y10211781D02*
Y10196541D01*
X12878931D01*
Y10211781D01*
X12894170D01*
Y10242261D01*
X12878931D01*
Y10257501D01*
X12848450D01*
Y10242261D01*
X12833211D01*
Y10211781D01*
X12848450D01*
X12838290Y10125421D02*
Y10100021D01*
X12889090D01*
Y10125421D01*
X12914490D01*
Y10176221D01*
X12889090D01*
Y10201621D01*
X12838290D01*
Y10176221D01*
X12812891D01*
Y10125421D01*
X12838290D01*
X12848450Y10135581D02*
Y10120341D01*
X12878931D01*
Y10135581D01*
X12894170D01*
Y10166061D01*
X12878931D01*
Y10181301D01*
X12848450D01*
Y10166061D01*
X12833211D01*
Y10135581D01*
X12848450D01*
X12838290Y10049221D02*
Y10023821D01*
X12889090D01*
Y10049221D01*
X12914490D01*
Y10100021D01*
X12889090D01*
Y10125421D01*
X12838290D01*
Y10100021D01*
X12812891D01*
Y10049221D01*
X12838290D01*
X12848450Y10059381D02*
Y10044141D01*
X12878931D01*
Y10059381D01*
X12894170D01*
Y10089861D01*
X12878931D01*
Y10105101D01*
X12848450D01*
Y10089861D01*
X12833211D01*
Y10059381D01*
X12848450D01*
X12838290Y9973021D02*
Y9947621D01*
X12889090D01*
Y9973021D01*
X12914490D01*
Y10023821D01*
X12889090D01*
Y10049221D01*
X12838290D01*
Y10023821D01*
X12812891D01*
Y9973021D01*
X12838290D01*
X12848450Y9983181D02*
Y9967941D01*
X12878931D01*
Y9983181D01*
X12894170D01*
Y10013661D01*
X12878931D01*
Y10028901D01*
X12848450D01*
Y10013661D01*
X12833211D01*
Y9983181D01*
X12848450D01*
X12838290Y9896821D02*
Y9871421D01*
X12889090D01*
Y9896821D01*
X12914490D01*
Y9947621D01*
X12889090D01*
Y9973021D01*
X12838290D01*
Y9947621D01*
X12812891D01*
Y9896821D01*
X12838290D01*
X12848450Y9906981D02*
Y9891741D01*
X12878931D01*
Y9906981D01*
X12894170D01*
Y9937461D01*
X12878931D01*
Y9952701D01*
X12848450D01*
Y9937461D01*
X12833211D01*
Y9906981D01*
X12848450D01*
X12838290Y9820621D02*
Y9795221D01*
X12889090D01*
Y9820621D01*
X12914490D01*
Y9871421D01*
X12889090D01*
Y9896821D01*
X12838290D01*
Y9871421D01*
X12812891D01*
Y9820621D01*
X12838290D01*
X12848450Y9830781D02*
Y9815541D01*
X12878931D01*
Y9830781D01*
X12894170D01*
Y9861261D01*
X12878931D01*
Y9876501D01*
X12848450D01*
Y9861261D01*
X12833211D01*
Y9830781D01*
X12848450D01*
X12838290Y9744421D02*
Y9719021D01*
X12889090D01*
Y9744421D01*
X12914490D01*
Y9795221D01*
X12889090D01*
Y9820621D01*
X12838290D01*
Y9795221D01*
X12812891D01*
Y9744421D01*
X12838290D01*
X12848450Y9754581D02*
Y9739341D01*
X12878931D01*
Y9754581D01*
X12894170D01*
Y9785061D01*
X12878931D01*
Y9800301D01*
X12848450D01*
Y9785061D01*
X12833211D01*
Y9754581D01*
X12848450D01*
X12838290Y9668221D02*
Y9642821D01*
X12889090D01*
Y9668221D01*
X12914490D01*
Y9719021D01*
X12889090D01*
Y9744421D01*
X12838290D01*
Y9719021D01*
X12812891D01*
Y9668221D01*
X12838290D01*
X12848450Y9678381D02*
Y9663141D01*
X12878931D01*
Y9678381D01*
X12894170D01*
Y9708861D01*
X12878931D01*
Y9724101D01*
X12848450D01*
Y9708861D01*
X12833211D01*
Y9678381D01*
X12848450D01*
X12838290Y9592021D02*
Y9566621D01*
X12889090D01*
Y9592021D01*
X12914490D01*
Y9642821D01*
X12889090D01*
Y9668221D01*
X12838290D01*
Y9642821D01*
X12812891D01*
Y9592021D01*
X12838290D01*
X12848450Y9602181D02*
Y9586941D01*
X12878931D01*
Y9602181D01*
X12894170D01*
Y9632661D01*
X12878931D01*
Y9647901D01*
X12848450D01*
Y9632661D01*
X12833211D01*
Y9602181D01*
X12848450D01*
X12838290Y9515821D02*
Y9490421D01*
X12889090D01*
Y9515821D01*
X12914490D01*
Y9566621D01*
X12889090D01*
Y9592021D01*
X12838290D01*
Y9566621D01*
X12812891D01*
Y9515821D01*
X12838290D01*
X12848450Y9525981D02*
Y9510741D01*
X12878931D01*
Y9525981D01*
X12894170D01*
Y9556461D01*
X12878931D01*
Y9571701D01*
X12848450D01*
Y9556461D01*
X12833211D01*
Y9525981D01*
X12848450D01*
X12838290Y9439621D02*
Y9414221D01*
X12889090D01*
Y9439621D01*
X12914490D01*
Y9490421D01*
X12889090D01*
Y9515821D01*
X12838290D01*
Y9490421D01*
X12812891D01*
Y9439621D01*
X12838290D01*
X12848450Y9449781D02*
Y9434541D01*
X12878931D01*
Y9449781D01*
X12894170D01*
Y9480261D01*
X12878931D01*
Y9495501D01*
X12848450D01*
Y9480261D01*
X12833211D01*
Y9449781D01*
X12848450D01*
X12838290Y9363421D02*
Y9338021D01*
X12889090D01*
Y9363421D01*
X12914490D01*
Y9414221D01*
X12889090D01*
Y9439621D01*
X12838290D01*
Y9414221D01*
X12812891D01*
Y9363421D01*
X12838290D01*
X12848450Y9373581D02*
Y9358341D01*
X12878931D01*
Y9373581D01*
X12894170D01*
Y9404061D01*
X12878931D01*
Y9419301D01*
X12848450D01*
Y9404061D01*
X12833211D01*
Y9373581D01*
X12848450D01*
X12762090Y10354021D02*
Y10328621D01*
X12812891D01*
Y10354021D01*
X12838290D01*
Y10404821D01*
X12812891D01*
Y10430221D01*
X12762090D01*
Y10404821D01*
X12736690D01*
Y10354021D01*
X12762090D01*
X12772250Y10364181D02*
Y10348941D01*
X12802730D01*
Y10364181D01*
X12817970D01*
Y10394661D01*
X12802730D01*
Y10409901D01*
X12772250D01*
Y10394661D01*
X12757010D01*
Y10364181D01*
X12772250D01*
X12762090Y10277821D02*
Y10252421D01*
X12812891D01*
Y10277821D01*
X12838290D01*
Y10328621D01*
X12812891D01*
Y10354021D01*
X12762090D01*
Y10328621D01*
X12736690D01*
Y10277821D01*
X12762090D01*
X12772250Y10287981D02*
Y10272741D01*
X12802730D01*
Y10287981D01*
X12817970D01*
Y10318461D01*
X12802730D01*
Y10333701D01*
X12772250D01*
Y10318461D01*
X12757010D01*
Y10287981D01*
X12772250D01*
X12762090Y10201621D02*
Y10176221D01*
X12812891D01*
Y10201621D01*
X12838290D01*
Y10252421D01*
X12812891D01*
Y10277821D01*
X12762090D01*
Y10252421D01*
X12736690D01*
Y10201621D01*
X12762090D01*
X12772250Y10211781D02*
Y10196541D01*
X12802730D01*
Y10211781D01*
X12817970D01*
Y10242261D01*
X12802730D01*
Y10257501D01*
X12772250D01*
Y10242261D01*
X12757010D01*
Y10211781D01*
X12772250D01*
X12762090Y10125421D02*
Y10100021D01*
X12812891D01*
Y10125421D01*
X12838290D01*
Y10176221D01*
X12812891D01*
Y10201621D01*
X12762090D01*
Y10176221D01*
X12736690D01*
Y10125421D01*
X12762090D01*
X12772250Y10135581D02*
Y10120341D01*
X12802730D01*
Y10135581D01*
X12817970D01*
Y10166061D01*
X12802730D01*
Y10181301D01*
X12772250D01*
Y10166061D01*
X12757010D01*
Y10135581D01*
X12772250D01*
X12762090Y10049221D02*
Y10023821D01*
X12812891D01*
Y10049221D01*
X12838290D01*
Y10100021D01*
X12812891D01*
Y10125421D01*
X12762090D01*
Y10100021D01*
X12736690D01*
Y10049221D01*
X12762090D01*
X12772250Y10059381D02*
Y10044141D01*
X12802730D01*
Y10059381D01*
X12817970D01*
Y10089861D01*
X12802730D01*
Y10105101D01*
X12772250D01*
Y10089861D01*
X12757010D01*
Y10059381D01*
X12772250D01*
X12762090Y9973021D02*
Y9947621D01*
X12812891D01*
Y9973021D01*
X12838290D01*
Y10023821D01*
X12812891D01*
Y10049221D01*
X12762090D01*
Y10023821D01*
X12736690D01*
Y9973021D01*
X12762090D01*
X12772250Y9983181D02*
Y9967941D01*
X12802730D01*
Y9983181D01*
X12817970D01*
Y10013661D01*
X12802730D01*
Y10028901D01*
X12772250D01*
Y10013661D01*
X12757010D01*
Y9983181D01*
X12772250D01*
X12762090Y9896821D02*
Y9871421D01*
X12812891D01*
Y9896821D01*
X12838290D01*
Y9947621D01*
X12812891D01*
Y9973021D01*
X12762090D01*
Y9947621D01*
X12736690D01*
Y9896821D01*
X12762090D01*
X12772250Y9906981D02*
Y9891741D01*
X12802730D01*
Y9906981D01*
X12817970D01*
Y9937461D01*
X12802730D01*
Y9952701D01*
X12772250D01*
Y9937461D01*
X12757010D01*
Y9906981D01*
X12772250D01*
X12762090Y9820621D02*
Y9795221D01*
X12812891D01*
Y9820621D01*
X12838290D01*
Y9871421D01*
X12812891D01*
Y9896821D01*
X12762090D01*
Y9871421D01*
X12736690D01*
Y9820621D01*
X12762090D01*
X12772250Y9830781D02*
Y9815541D01*
X12802730D01*
Y9830781D01*
X12817970D01*
Y9861261D01*
X12802730D01*
Y9876501D01*
X12772250D01*
Y9861261D01*
X12757010D01*
Y9830781D01*
X12772250D01*
X12762090Y9744421D02*
Y9719021D01*
X12812891D01*
Y9744421D01*
X12838290D01*
Y9795221D01*
X12812891D01*
Y9820621D01*
X12762090D01*
Y9795221D01*
X12736690D01*
Y9744421D01*
X12762090D01*
X12772250Y9754581D02*
Y9739341D01*
X12802730D01*
Y9754581D01*
X12817970D01*
Y9785061D01*
X12802730D01*
Y9800301D01*
X12772250D01*
Y9785061D01*
X12757010D01*
Y9754581D01*
X12772250D01*
X12762090Y9668221D02*
Y9642821D01*
X12812891D01*
Y9668221D01*
X12838290D01*
Y9719021D01*
X12812891D01*
Y9744421D01*
X12762090D01*
Y9719021D01*
X12736690D01*
Y9668221D01*
X12762090D01*
X12772250Y9678381D02*
Y9663141D01*
X12802730D01*
Y9678381D01*
X12817970D01*
Y9708861D01*
X12802730D01*
Y9724101D01*
X12772250D01*
Y9708861D01*
X12757010D01*
Y9678381D01*
X12772250D01*
X12762090Y9592021D02*
Y9566621D01*
X12812891D01*
Y9592021D01*
X12838290D01*
Y9642821D01*
X12812891D01*
Y9668221D01*
X12762090D01*
Y9642821D01*
X12736690D01*
Y9592021D01*
X12762090D01*
X12772250Y9602181D02*
Y9586941D01*
X12802730D01*
Y9602181D01*
X12817970D01*
Y9632661D01*
X12802730D01*
Y9647901D01*
X12772250D01*
Y9632661D01*
X12757010D01*
Y9602181D01*
X12772250D01*
X12762090Y9515821D02*
Y9490421D01*
X12812891D01*
Y9515821D01*
X12838290D01*
Y9566621D01*
X12812891D01*
Y9592021D01*
X12762090D01*
Y9566621D01*
X12736690D01*
Y9515821D01*
X12762090D01*
X12772250Y9525981D02*
Y9510741D01*
X12802730D01*
Y9525981D01*
X12817970D01*
Y9556461D01*
X12802730D01*
Y9571701D01*
X12772250D01*
Y9556461D01*
X12757010D01*
Y9525981D01*
X12772250D01*
X12762090Y9439621D02*
Y9414221D01*
X12812891D01*
Y9439621D01*
X12838290D01*
Y9490421D01*
X12812891D01*
Y9515821D01*
X12762090D01*
Y9490421D01*
X12736690D01*
Y9439621D01*
X12762090D01*
X12772250Y9449781D02*
Y9434541D01*
X12802730D01*
Y9449781D01*
X12817970D01*
Y9480261D01*
X12802730D01*
Y9495501D01*
X12772250D01*
Y9480261D01*
X12757010D01*
Y9449781D01*
X12772250D01*
X12762090Y9363421D02*
Y9338021D01*
X12812891D01*
Y9363421D01*
X12838290D01*
Y9414221D01*
X12812891D01*
Y9439621D01*
X12762090D01*
Y9414221D01*
X12736690D01*
Y9363421D01*
X12762090D01*
X12772250Y9373581D02*
Y9358341D01*
X12802730D01*
Y9373581D01*
X12817970D01*
Y9404061D01*
X12802730D01*
Y9419301D01*
X12772250D01*
Y9404061D01*
X12757010D01*
Y9373581D01*
X12772250D01*
X12685890Y10354021D02*
Y10328621D01*
X12736690D01*
Y10354021D01*
X12762090D01*
Y10404821D01*
X12736690D01*
Y10430221D01*
X12685890D01*
Y10404821D01*
X12660490D01*
Y10354021D01*
X12685890D01*
X12696050Y10364181D02*
Y10348941D01*
X12726530D01*
Y10364181D01*
X12741770D01*
Y10394661D01*
X12726530D01*
Y10409901D01*
X12696050D01*
Y10394661D01*
X12680810D01*
Y10364181D01*
X12696050D01*
X12685890Y10277821D02*
Y10252421D01*
X12736690D01*
Y10277821D01*
X12762090D01*
Y10328621D01*
X12736690D01*
Y10354021D01*
X12685890D01*
Y10328621D01*
X12660490D01*
Y10277821D01*
X12685890D01*
X12696050Y10287981D02*
Y10272741D01*
X12726530D01*
Y10287981D01*
X12741770D01*
Y10318461D01*
X12726530D01*
Y10333701D01*
X12696050D01*
Y10318461D01*
X12680810D01*
Y10287981D01*
X12696050D01*
X12685890Y10201621D02*
Y10176221D01*
X12736690D01*
Y10201621D01*
X12762090D01*
Y10252421D01*
X12736690D01*
Y10277821D01*
X12685890D01*
Y10252421D01*
X12660490D01*
Y10201621D01*
X12685890D01*
X12696050Y10211781D02*
Y10196541D01*
X12726530D01*
Y10211781D01*
X12741770D01*
Y10242261D01*
X12726530D01*
Y10257501D01*
X12696050D01*
Y10242261D01*
X12680810D01*
Y10211781D01*
X12696050D01*
X12685890Y10125421D02*
Y10100021D01*
X12736690D01*
Y10125421D01*
X12762090D01*
Y10176221D01*
X12736690D01*
Y10201621D01*
X12685890D01*
Y10176221D01*
X12660490D01*
Y10125421D01*
X12685890D01*
X12696050Y10135581D02*
Y10120341D01*
X12726530D01*
Y10135581D01*
X12741770D01*
Y10166061D01*
X12726530D01*
Y10181301D01*
X12696050D01*
Y10166061D01*
X12680810D01*
Y10135581D01*
X12696050D01*
X12685890Y10049221D02*
Y10023821D01*
X12736690D01*
Y10049221D01*
X12762090D01*
Y10100021D01*
X12736690D01*
Y10125421D01*
X12685890D01*
Y10100021D01*
X12660490D01*
Y10049221D01*
X12685890D01*
X12696050Y10059381D02*
Y10044141D01*
X12726530D01*
Y10059381D01*
X12741770D01*
Y10089861D01*
X12726530D01*
Y10105101D01*
X12696050D01*
Y10089861D01*
X12680810D01*
Y10059381D01*
X12696050D01*
X12685890Y9973021D02*
Y9947621D01*
X12736690D01*
Y9973021D01*
X12762090D01*
Y10023821D01*
X12736690D01*
Y10049221D01*
X12685890D01*
Y10023821D01*
X12660490D01*
Y9973021D01*
X12685890D01*
X12696050Y9983181D02*
Y9967941D01*
X12726530D01*
Y9983181D01*
X12741770D01*
Y10013661D01*
X12726530D01*
Y10028901D01*
X12696050D01*
Y10013661D01*
X12680810D01*
Y9983181D01*
X12696050D01*
X12685890Y9896821D02*
Y9871421D01*
X12736690D01*
Y9896821D01*
X12762090D01*
Y9947621D01*
X12736690D01*
Y9973021D01*
X12685890D01*
Y9947621D01*
X12660490D01*
Y9896821D01*
X12685890D01*
X12696050Y9906981D02*
Y9891741D01*
X12726530D01*
Y9906981D01*
X12741770D01*
Y9937461D01*
X12726530D01*
Y9952701D01*
X12696050D01*
Y9937461D01*
X12680810D01*
Y9906981D01*
X12696050D01*
X12685890Y9820621D02*
Y9795221D01*
X12736690D01*
Y9820621D01*
X12762090D01*
Y9871421D01*
X12736690D01*
Y9896821D01*
X12685890D01*
Y9871421D01*
X12660490D01*
Y9820621D01*
X12685890D01*
X12696050Y9830781D02*
Y9815541D01*
X12726530D01*
Y9830781D01*
X12741770D01*
Y9861261D01*
X12726530D01*
Y9876501D01*
X12696050D01*
Y9861261D01*
X12680810D01*
Y9830781D01*
X12696050D01*
X12685890Y9744421D02*
Y9719021D01*
X12736690D01*
Y9744421D01*
X12762090D01*
Y9795221D01*
X12736690D01*
Y9820621D01*
X12685890D01*
Y9795221D01*
X12660490D01*
Y9744421D01*
X12685890D01*
X12696050Y9754581D02*
Y9739341D01*
X12726530D01*
Y9754581D01*
X12741770D01*
Y9785061D01*
X12726530D01*
Y9800301D01*
X12696050D01*
Y9785061D01*
X12680810D01*
Y9754581D01*
X12696050D01*
X12685890Y9668221D02*
Y9642821D01*
X12736690D01*
Y9668221D01*
X12762090D01*
Y9719021D01*
X12736690D01*
Y9744421D01*
X12685890D01*
Y9719021D01*
X12660490D01*
Y9668221D01*
X12685890D01*
X12696050Y9678381D02*
Y9663141D01*
X12726530D01*
Y9678381D01*
X12741770D01*
Y9708861D01*
X12726530D01*
Y9724101D01*
X12696050D01*
Y9708861D01*
X12680810D01*
Y9678381D01*
X12696050D01*
X12685890Y9592021D02*
Y9566621D01*
X12736690D01*
Y9592021D01*
X12762090D01*
Y9642821D01*
X12736690D01*
Y9668221D01*
X12685890D01*
Y9642821D01*
X12660490D01*
Y9592021D01*
X12685890D01*
X12696050Y9602181D02*
Y9586941D01*
X12726530D01*
Y9602181D01*
X12741770D01*
Y9632661D01*
X12726530D01*
Y9647901D01*
X12696050D01*
Y9632661D01*
X12680810D01*
Y9602181D01*
X12696050D01*
X12685890Y9515821D02*
Y9490421D01*
X12736690D01*
Y9515821D01*
X12762090D01*
Y9566621D01*
X12736690D01*
Y9592021D01*
X12685890D01*
Y9566621D01*
X12660490D01*
Y9515821D01*
X12685890D01*
X12696050Y9525981D02*
Y9510741D01*
X12726530D01*
Y9525981D01*
X12741770D01*
Y9556461D01*
X12726530D01*
Y9571701D01*
X12696050D01*
Y9556461D01*
X12680810D01*
Y9525981D01*
X12696050D01*
X12685890Y9439621D02*
Y9414221D01*
X12736690D01*
Y9439621D01*
X12762090D01*
Y9490421D01*
X12736690D01*
Y9515821D01*
X12685890D01*
Y9490421D01*
X12660490D01*
Y9439621D01*
X12685890D01*
X12696050Y9449781D02*
Y9434541D01*
X12726530D01*
Y9449781D01*
X12741770D01*
Y9480261D01*
X12726530D01*
Y9495501D01*
X12696050D01*
Y9480261D01*
X12680810D01*
Y9449781D01*
X12696050D01*
X12685890Y9363421D02*
Y9338021D01*
X12736690D01*
Y9363421D01*
X12762090D01*
Y9414221D01*
X12736690D01*
Y9439621D01*
X12685890D01*
Y9414221D01*
X12660490D01*
Y9363421D01*
X12685890D01*
X12696050Y9373581D02*
Y9358341D01*
X12726530D01*
Y9373581D01*
X12741770D01*
Y9404061D01*
X12726530D01*
Y9419301D01*
X12696050D01*
Y9404061D01*
X12680810D01*
Y9373581D01*
X12696050D01*
D121*
X6743700Y3822700D02*
G03*
X6743700Y3822700I-50800J0D01*
G01*
X7162800D02*
G03*
X7162800Y3822700I-50800J0D01*
G01*
X8724900Y2616200D02*
G03*
X8724900Y2616200I-50800J0D01*
G01*
X3289300Y4445000D02*
G03*
X3289300Y4445000I-50800J0D01*
G01*
Y1930400D02*
G03*
X3289300Y1930400I-50800J0D01*
G01*
X26479501Y7404100D02*
G03*
X26479501Y7404100I-50800J0D01*
G01*
X8115300Y9245600D02*
G03*
X8115300Y9245600I-50800J0D01*
G01*
X8242300Y254000D02*
G03*
X8242300Y254000I-50800J0D01*
G01*
X1663700Y9156700D02*
G03*
X1663700Y9156700I-50800J0D01*
G01*
X9245600Y254000D02*
G03*
X9245600Y254000I-50800J0D01*
G01*
X8115300Y10541000D02*
G03*
X8115300Y10541000I-50800J0D01*
G01*
X11366500Y10591800D02*
G03*
X11366500Y10591800I-50800J0D01*
G01*
X7416800Y8102600D02*
G03*
X7416800Y8102600I-50800J0D01*
G01*
X4864100Y10553700D02*
G03*
X4864100Y10553700I-50800J0D01*
G01*
X1663700Y10477500D02*
G03*
X1663700Y10477500I-50800J0D01*
G01*
X3175000Y10490200D02*
G03*
X3175000Y10490200I-50800J0D01*
G01*
X22250400Y2768600D02*
G03*
X22250400Y2768600I-50800J0D01*
G01*
X8648700Y10147300D02*
G03*
X8648700Y10147300I-50800J0D01*
G01*
D122*
X3268980Y4445000D02*
G03*
X3268980Y4445000I-30480J0D01*
G01*
Y1930400D02*
G03*
X3268980Y1930400I-30480J0D01*
G01*
%TF.MD5,e44cbfb8518ac76c57dedbda6e43eb44*%
M02*
