%TF.GenerationSoftware,Altium Limited,Altium Designer,24.3.1 (35)*%
G04 Layer_Color=255*
%FSLAX45Y45*%
%MOMM*%
%TF.SameCoordinates,844131A9-2E1B-4A61-BE1F-69DE975881E6*%
%TF.FilePolarity,Positive*%
%TF.FileFunction,Pads,Bot*%
%TF.Part,Single*%
G01*
G75*
%TA.AperFunction,ComponentPad*%
%ADD14C,1.80000*%
%ADD15C,5.00000*%
%ADD16C,2.50000*%
%ADD17C,2.03200*%
%ADD18C,3.50000*%
%ADD19R,2.00000X2.00000*%
%ADD20C,2.00000*%
%ADD21C,1.55000*%
%ADD22R,1.55000X1.55000*%
%ADD23O,5.08000X8.89000*%
%ADD24O,1.77800X1.52400*%
%ADD25C,3.55000*%
%ADD26C,1.95000*%
G04:AMPARAMS|DCode=27|XSize=1.95mm|YSize=1.95mm|CornerRadius=0.4875mm|HoleSize=0mm|Usage=FLASHONLY|Rotation=270.000|XOffset=0mm|YOffset=0mm|HoleType=Round|Shape=RoundedRectangle|*
%AMROUNDEDRECTD27*
21,1,1.95000,0.97500,0,0,270.0*
21,1,0.97500,1.95000,0,0,270.0*
1,1,0.97500,-0.48750,-0.48750*
1,1,0.97500,-0.48750,0.48750*
1,1,0.97500,0.48750,0.48750*
1,1,0.97500,0.48750,-0.48750*
%
%ADD27ROUNDEDRECTD27*%
%ADD28C,4.20000*%
%ADD29O,6.60000X6.00000*%
%ADD30C,8.00000*%
%ADD31C,1.52400*%
%ADD32C,13.00000*%
G04:AMPARAMS|DCode=33|XSize=1.95mm|YSize=1.95mm|CornerRadius=0.4875mm|HoleSize=0mm|Usage=FLASHONLY|Rotation=0.000|XOffset=0mm|YOffset=0mm|HoleType=Round|Shape=RoundedRectangle|*
%AMROUNDEDRECTD33*
21,1,1.95000,0.97500,0,0,0.0*
21,1,0.97500,1.95000,0,0,0.0*
1,1,0.97500,0.48750,-0.48750*
1,1,0.97500,-0.48750,-0.48750*
1,1,0.97500,-0.48750,0.48750*
1,1,0.97500,0.48750,0.48750*
%
%ADD33ROUNDEDRECTD33*%
%TA.AperFunction,SMDPad,CuDef*%
%ADD36R,1.80000X1.45000*%
%ADD37R,1.20490X2.70620*%
%ADD38R,0.80000X1.25000*%
%ADD39R,1.25000X0.80000*%
%ADD40R,0.60000X1.80000*%
%ADD41R,1.52400X2.40000*%
%ADD42R,2.80620X1.40490*%
%ADD43R,2.40000X2.40000*%
%ADD44R,2.50000X2.20000*%
D14*
X6668000Y650000D02*
D03*
X4890000D02*
D03*
X6922000D02*
D03*
X7176000D02*
D03*
X6414000D02*
D03*
X5144000D02*
D03*
X7684000D02*
D03*
X6160000D02*
D03*
X8446000D02*
D03*
X8192000D02*
D03*
X7938000D02*
D03*
X5398000D02*
D03*
X7430000D02*
D03*
X5906000D02*
D03*
X8700000D02*
D03*
X5652000D02*
D03*
D15*
X4508500Y6070600D02*
D03*
X5486400D02*
D03*
X8343900Y6083300D02*
D03*
X9321800D02*
D03*
D16*
X6692900Y3822700D02*
D03*
X7112000D02*
D03*
X8674100Y2616200D02*
D03*
X26428699Y7404100D02*
D03*
X8064500Y9245600D02*
D03*
X8191500Y254000D02*
D03*
X1612900Y9156700D02*
D03*
X9194800Y254000D02*
D03*
X8064500Y10541000D02*
D03*
X11315700Y10591800D02*
D03*
X7366000Y8102600D02*
D03*
X4813300Y10553700D02*
D03*
X1612900Y10477500D02*
D03*
X3124200Y10490200D02*
D03*
X22199600Y2768600D02*
D03*
X8597900Y10147300D02*
D03*
D17*
X3238500Y4445000D02*
D03*
Y1930400D02*
D03*
D18*
X23511501Y6345200D02*
D03*
X22511501D02*
D03*
X24911501Y1545200D02*
D03*
X25911499D02*
D03*
X22511501D02*
D03*
X23511501D02*
D03*
X22511501Y3945200D02*
D03*
X23511501D02*
D03*
X24911501Y6345200D02*
D03*
X25911499D02*
D03*
X24911501Y3945200D02*
D03*
X25911499D02*
D03*
D19*
X12475000Y2200000D02*
D03*
X1816800Y2438400D02*
D03*
D20*
X11725000Y2200000D02*
D03*
X1066800Y2438400D02*
D03*
D21*
X5810700Y2971800D02*
D03*
Y2717800D02*
D03*
Y2463800D02*
D03*
D22*
Y2209800D02*
D03*
D23*
X2717800Y7302500D02*
D03*
Y6286500D02*
D03*
X24003000Y8382000D02*
D03*
Y9398000D02*
D03*
D24*
X558800Y6985000D02*
D03*
Y6794500D02*
D03*
Y6604000D02*
D03*
X21844000Y8699500D02*
D03*
Y8890000D02*
D03*
Y9080500D02*
D03*
D25*
X2683400Y11136500D02*
D03*
X5883400D02*
D03*
X1616600D02*
D03*
X2150000D02*
D03*
X4816600D02*
D03*
X5350000D02*
D03*
X8066600D02*
D03*
X8600000D02*
D03*
X9133400D02*
D03*
X11316600D02*
D03*
X11850000D02*
D03*
X12383400D02*
D03*
D26*
X654998Y8250001D02*
D03*
X12349999Y654998D02*
D03*
X1750000D02*
D03*
D27*
X654998Y8750000D02*
D03*
D28*
X18956400Y11100000D02*
D03*
X17864200D02*
D03*
X15681400D02*
D03*
X14589200D02*
D03*
X25435800D02*
D03*
X24343600D02*
D03*
X22185800D02*
D03*
X21093600D02*
D03*
D29*
X25063400Y9400000D02*
D03*
X26054001D02*
D03*
X25063400Y8400000D02*
D03*
X26054001D02*
D03*
X2036600Y5000000D02*
D03*
X1046000D02*
D03*
X2036600Y4000000D02*
D03*
X1046000D02*
D03*
D30*
X16250000Y11720000D02*
D03*
X23750000D02*
D03*
X20000000D02*
D03*
X3250000D02*
D03*
X10750000D02*
D03*
X7000000D02*
D03*
D31*
X14500000Y2650000D02*
D03*
Y8350000D02*
D03*
X19500000D02*
D03*
Y2650000D02*
D03*
D32*
Y5500000D02*
D03*
X14500000D02*
D03*
D33*
X11850000Y654998D02*
D03*
X1250001D02*
D03*
D36*
X8511700Y5697800D02*
D03*
X9166700D02*
D03*
X8511700Y5452800D02*
D03*
X9166700D02*
D03*
X4650900Y5685100D02*
D03*
X5305900D02*
D03*
X4650900Y5440100D02*
D03*
X5305900D02*
D03*
X26032300Y10202600D02*
D03*
X25377299D02*
D03*
X26032300Y10447600D02*
D03*
X25377299D02*
D03*
X24488300D02*
D03*
X25143300D02*
D03*
X24488300Y10202600D02*
D03*
X25143300D02*
D03*
X23612000Y10447600D02*
D03*
X24267000D02*
D03*
X23612000Y10202600D02*
D03*
X24267000D02*
D03*
X6918800Y8551600D02*
D03*
X6263800D02*
D03*
X6918800Y8796600D02*
D03*
X6263800D02*
D03*
X6019800Y8556100D02*
D03*
X5364800D02*
D03*
X6019800Y8801100D02*
D03*
X5364800D02*
D03*
X7165500Y8796600D02*
D03*
X7820500D02*
D03*
X7165500Y8551600D02*
D03*
X7820500D02*
D03*
X25087900Y1282700D02*
D03*
X25742899D02*
D03*
X25087900Y1037700D02*
D03*
X25742899D02*
D03*
X25075200Y6083300D02*
D03*
X25730200D02*
D03*
X25075200Y5838300D02*
D03*
X25730200D02*
D03*
X25087900Y3683000D02*
D03*
X25742899D02*
D03*
X25087900Y3438000D02*
D03*
X25742899D02*
D03*
X22684900Y1278200D02*
D03*
X23339900D02*
D03*
X22684900Y1033200D02*
D03*
X23339900D02*
D03*
X22672200Y3691200D02*
D03*
X23327200D02*
D03*
X22672200Y3446200D02*
D03*
X23327200D02*
D03*
X22674899Y6070600D02*
D03*
X23329900D02*
D03*
X22674899Y5825600D02*
D03*
X23329900D02*
D03*
D37*
X7061200Y6858000D02*
D03*
X7351330D02*
D03*
X26270935Y10325100D02*
D03*
X26561066D02*
D03*
D38*
X7262800Y6235716D02*
D03*
X7062800D02*
D03*
Y6413516D02*
D03*
X7262800D02*
D03*
Y6591284D02*
D03*
X7062800D02*
D03*
Y6057916D02*
D03*
X7262800D02*
D03*
X8101000Y3454384D02*
D03*
X7901000D02*
D03*
X6973900Y3467116D02*
D03*
X7173900D02*
D03*
X8929700Y10541016D02*
D03*
X9129700D02*
D03*
X12190400Y2438384D02*
D03*
X11990400D02*
D03*
X1560500Y2425684D02*
D03*
X1360500D02*
D03*
X5678500Y10553716D02*
D03*
X5878500D02*
D03*
X2478100Y10477516D02*
D03*
X2678100D02*
D03*
X12355500Y10591816D02*
D03*
X12155500D02*
D03*
D39*
X7759716Y3735400D02*
D03*
Y3935400D02*
D03*
X7950200Y3933800D02*
D03*
Y3733800D02*
D03*
X8140684Y3935400D02*
D03*
Y3735400D02*
D03*
X8318484Y3935400D02*
D03*
Y3735400D02*
D03*
X5562616Y2944800D02*
D03*
Y2744800D02*
D03*
X6578584Y2109800D02*
D03*
Y2309800D02*
D03*
X292084Y6529400D02*
D03*
Y6729400D02*
D03*
X292116Y7046900D02*
D03*
Y6846900D02*
D03*
X21564584Y8561400D02*
D03*
Y8761400D02*
D03*
X21564616Y9091600D02*
D03*
Y8891600D02*
D03*
D40*
X7899400Y3187700D02*
D03*
X8026400D02*
D03*
X8153400D02*
D03*
X8280400D02*
D03*
Y2097700D02*
D03*
X8153400D02*
D03*
X8026400D02*
D03*
X7899400D02*
D03*
X6972300Y2096600D02*
D03*
X7099300D02*
D03*
X7226300D02*
D03*
X7353300D02*
D03*
Y3186600D02*
D03*
X7226300D02*
D03*
X7099300D02*
D03*
X6972300D02*
D03*
D41*
X10629900Y6286500D02*
D03*
X10883900D02*
D03*
X11150600D02*
D03*
X10388600D02*
D03*
X10629900Y7200900D02*
D03*
X10883900D02*
D03*
X11150600D02*
D03*
X10388600D02*
D03*
X3898900Y8699500D02*
D03*
X4660900D02*
D03*
X4394200D02*
D03*
X4140200D02*
D03*
X3898900Y7785100D02*
D03*
X4660900D02*
D03*
X4394200D02*
D03*
X4140200D02*
D03*
D42*
X7632700Y9972165D02*
D03*
Y9662035D02*
D03*
X4394200Y9972165D02*
D03*
Y9662035D02*
D03*
X1187450Y9965815D02*
D03*
Y9655685D02*
D03*
X10883900Y9725535D02*
D03*
Y10035665D02*
D03*
D43*
X8064500Y9664700D02*
D03*
Y10152800D02*
D03*
X5232400D02*
D03*
Y9664700D02*
D03*
X11747500Y10216300D02*
D03*
Y9728200D02*
D03*
X11315700D02*
D03*
Y10216300D02*
D03*
X4813300Y9659200D02*
D03*
Y10147300D02*
D03*
X1606550Y9652850D02*
D03*
Y10140950D02*
D03*
D44*
X6235700Y2313500D02*
D03*
Y1623500D02*
D03*
%TF.MD5,7e89874b125e693b88781538e9ba1b64*%
M02*
