M48
;Layer_Color=9474304
;FILE_FORMAT=4:3
METRIC,LZ
;TYPE=PLATED
T01F00S00C0.400
T02F00S00C0.711
T03F00S00C0.762
T04F00S00C0.950
T05F00S00C1.000
T06F00S00C1.016
T07F00S00C1.200
T08F00S00C1.300
T09F00S00C1.450
T10F00S00C1.800
T11F00S00C2.000
T12F00S00C2.032
T13F00S00C2.159
T15F00S00C4.500
T16F00S00C5.000
T17F00S00C6.000
%
T01
X0072555Y0012319
X0074041Y0011303
X0074168Y0017653
X0073533Y0023114
X0073025Y0030607
X0070993Y0033401
X0082169Y0030607
X0082804Y0023114
X0088138Y0021336
X0089789Y0020066
X006731Y0021082
X0070485Y0070993
X0215646Y0084074
X0212725Y008763
X0213868Y0090932
X0201676Y0124587
X0200914
Y0125349
Y0126111
Y0126873
Y0127635
Y0128397
Y0129159
Y0129921
Y0130683
Y0131445
Y0132207
Y0132969
X0200152
Y0132207
Y0131445
Y0130683
Y0129921
Y0129159
Y0128397
Y0127635
Y0126873
Y0126111
Y0125349
Y0124587
X019939
Y0125349
Y0126111
Y0126873
Y0127635
Y0128397
Y0129159
Y0129921
Y0130683
Y0131445
Y0132207
Y0132969
X0198628
Y0132207
Y0131445
Y0130683
Y0129921
Y0129159
Y0128397
Y0127635
Y0126873
Y0126111
Y0125349
Y0124587
X0197866
Y0125349
Y0126111
Y0126873
Y0127635
Y0128397
Y0129159
Y0129921
Y0130683
Y0131445
Y0132207
Y0132969
X0197104
Y0132207
Y0131445
Y0130683
Y0129921
Y0129159
Y0128397
Y0127635
Y0126873
Y0126111
Y0125349
Y0124587
X0196342
Y0125349
X019558
X0194818
X0194056
X0193294
X0192532
X019177
X0191008
X0190246
X0189484
X0188722
X018796
X0187198
X0186436
X0185709Y0125363
Y0124601
X0186436Y0124587
X0187198
X018796
X0188722
X0189484
X0190246
X0191008
X019177
X0192532
X0193294
X0194056
X0194818
X019558
Y0126111
X0196342
Y0126873
X019558
X0194818
Y0126111
X0194056
X0193294
X0192532
X019177
X0191008
X0190246
X0189484
X0188722
X018796
X0187198
X0186436
X0185709Y0126125
Y0126887
X0186436Y0126873
X0187198
X018796
X0188722
X0189484
X0190246
X0191008
X019177
X0192532
X0193294
X0194056
Y0127635
X0194818
X019558
X0196342
Y0128397
X019558
X0194818
X0194056
X0193294
Y0127635
X0192532
X019177
X0191008
X0190246
X0189484
X0188722
X018796
X0187198
X0186436
X0185709Y0127649
Y0128411
X0186436Y0128397
X0187198
X018796
X0188722
X0189484
X0190246
X0191008
X019177
X0192532
Y0129159
X0193294
X0194056
X0194818
X019558
X0196342
Y0129921
Y0130683
X019558
X0194818
X0194056
X0193294
X0192532
X019177
X0191008
X0190246
X0189484
X0188722
X018796
X0187198
X0186436
X0185709Y0130697
Y0129935
X0186436Y0129921
Y0129159
X0185709Y0129173
X0187198Y0129159
X018796
X0188722
X0189484
X0190246
X0191008
X019177
Y0129921
X0192532
X0193294
X0194056
X0194818
X019558
Y0131445
X0196342
Y0132207
X019558
X0194818
Y0131445
X0194056
X0193294
X0192532
X019177
X0191008
X0190246
X0189484
X0188722
X018796
X0187198
X0186436
X0185709Y0131459
Y0132221
X0186436Y0132207
X0187198
X018796
X0188722
X0189484
X0190246
X0191008
X019177
X0192532
X0193294
X0194056
Y0132969
X0194818
X019558
X0196342
X0193294
X0192532
X019177
X0191008
X0190246
X0189484
X0188722
X018796
X0187198
X0186436
X0185709Y0132983
X0187198Y0129921
X018796
X0188722
X0189484
X0190246
X0191008
X0201676
Y0130683
Y0131445
Y0132207
Y0132969
Y0129159
Y0128397
Y0127635
Y0126873
Y0126111
Y0125349
X0130937Y0104521
X0130923Y0103794
Y0103032
Y010227
Y0101508
Y0100746
Y0099984
Y0099222
Y009846
Y0097698
Y0096936
Y0096174
Y0095412
Y009465
Y0093888
X0130161
Y009465
Y0095412
Y0096174
Y0096936
Y0097698
Y009846
Y0099222
Y0099984
Y0100746
Y0101508
Y010227
Y0103032
Y0103794
X0130175Y0104521
X0129413
X0129399Y0103794
Y0103032
Y010227
Y0101508
Y0100746
Y0099984
Y0099222
Y009846
Y0097698
Y0096936
Y0096174
Y0095412
Y009465
Y0093888
X0128637
Y009465
Y0095412
Y0096174
Y0096936
Y0097698
Y009846
Y0099222
Y0099984
Y0100746
Y0101508
Y010227
Y0103032
Y0103794
X0128651Y0104521
X0127889
X0127875Y0103794
Y0103032
Y010227
Y0101508
Y0100746
Y0099984
Y0099222
Y009846
Y0097698
Y0096936
Y0096174
Y0095412
Y009465
Y0093888
X0127113
X0126351
Y009465
Y0095412
Y0096174
Y0096936
Y0097698
Y009846
Y0099222
Y0099984
Y0100746
Y0101508
Y010227
Y0103032
Y0103794
X0126365Y0104521
X0127127
X0127113Y0103794
Y0103032
Y010227
Y0101508
Y0100746
Y0099984
Y0099222
Y009846
Y0097698
Y0096936
Y0096174
Y0095412
Y009465
X0185709Y0133745
X0186436Y0133731
X0187198
X018796
X0188722
X0189484
X0190246
X0191008
X019177
X0192532
X0193294
X0194056
X0194818
X019558
X0196342
X0197104
X0197866
X0198628
X019939
X0200152
X0200914
Y0134493
X0200152
X019939
X0198628
X0197866
X0197104
X0196342
X019558
X0194818
X0194056
X0193294
X0192532
X019177
X0191008
X0190246
X0189484
X0188722
X018796
X0187198
X0186436
X0185709Y0134507
X0201676Y0134493
Y0133731
T02
X0050165Y0035433
X0050419Y0090932
X0037211Y0084836
X0089281Y009271
X0118872Y0071628
X0113919Y0066675
X0088392Y0099187
T03
X0005588Y006604
Y0067945
Y006985
X021844Y0086995
Y00889
Y0090805
T04
X0081915Y000254
X0091948
X0221996Y0027686
X0086741Y0026162
X007112Y0038227
X0066929
X0016129Y0091567
X0080645Y0092456
X007366Y0081026
X0264287Y0074041
X0113157Y0105918
X0085979Y0101473
X0080645Y010541
X0048133Y0105537
X0031242Y0104902
X0016129Y0104775
T05
X00489Y00065
X005144
X005398
X005652
X005906
X00616
X006414
X006668
X006922
X007176
X00743
X007684
X007938
X008192
X008446
X0087
X0058107Y0022098
Y0024638
Y0027178
Y0029718
T06
X0032385Y0019304
Y004445
T07
X011725Y0022
X012475
X0018168Y0024384
X0010668
T08
X00125Y000655
X00175
X01185
X01235
X000655Y00825
Y00875
T09
X0113166Y0111365
X01185
X0123834
X0091334
X0086
X0080666
X0058834
X00535
X0048166
X0026834
X00215
X0016166
T10
X0259115Y0015452
Y0039452
X0249115
X0235115
X0225115
Y0015452
X0235115
X0249115
Y0063452
X0235115
X0225115
X0259115
T11
X0045085Y0060706
X0054864
X0083439Y0060833
X0093218
T12
X0254358Y0111
X0243436
X0221858
X0210936
X0189564
X0178642
X0156814
X0145892
T13
X0020366Y004
Y005
X001046
Y004
X0250634Y0084
X026054
Y0094
X0250634
T15
X02375Y01172
X02
X01625
X01075
X007
X00325
T16
X0195Y00265
X0145
Y00835
X0195
T17
X0145Y0055
X0195
M30
