%TF.GenerationSoftware,Altium Limited,Altium Designer,24.3.1 (35)*%
G04 Layer_Color=0*
%FSLAX45Y45*%
%MOMM*%
%TF.SameCoordinates,844131A9-2E1B-4A61-BE1F-69DE975881E6*%
%TF.FilePolarity,Positive*%
%TF.FileFunction,Profile,NP*%
%TF.Part,Single*%
G01*
G75*
%TA.AperFunction,Profile*%
%ADD98C,0.02540*%
G36*
X13350000Y500000D02*
Y485226D01*
X13355763Y456246D01*
X13367072Y428948D01*
X13383487Y404380D01*
X13404379Y383487D01*
X13428947Y367072D01*
X13456245Y355764D01*
X13485226Y350000D01*
X13500000D01*
X13514774D01*
X13543753Y355764D01*
X13571051Y367072D01*
X13595619Y383487D01*
X13616512Y404380D01*
X13632928Y428948D01*
X13644235Y456246D01*
X13650000Y485226D01*
Y500000D01*
Y514774D01*
X13644235Y543753D01*
X13632928Y571051D01*
X13616512Y595619D01*
X13595619Y616512D01*
X13571051Y632928D01*
X13543753Y644235D01*
X13514774Y650000D01*
X13500000D01*
X13485226D01*
X13456245Y644235D01*
X13428947Y632928D01*
X13404379Y616512D01*
X13383487Y595619D01*
X13367072Y571051D01*
X13355763Y543753D01*
X13350000Y514774D01*
Y500000D01*
D01*
D02*
G37*
G36*
X500000Y350000D02*
X485226D01*
X456246Y355764D01*
X428948Y367072D01*
X404380Y383487D01*
X383487Y404380D01*
X367072Y428948D01*
X355764Y456246D01*
X350000Y485226D01*
Y500000D01*
Y514774D01*
X355764Y543753D01*
X367072Y571051D01*
X383487Y595619D01*
X404380Y616512D01*
X428948Y632928D01*
X456246Y644235D01*
X485226Y650000D01*
X500000D01*
X514774D01*
X543753Y644235D01*
X571051Y632928D01*
X595619Y616512D01*
X616512Y595619D01*
X632928Y571051D01*
X644235Y543753D01*
X650000Y514774D01*
Y500000D01*
Y485226D01*
X644235Y456246D01*
X632928Y428948D01*
X616512Y404380D01*
X595619Y383487D01*
X571051Y367072D01*
X543753Y355764D01*
X514774Y350000D01*
X500000D01*
D01*
D02*
G37*
G36*
X26350000Y500000D02*
Y485226D01*
X26355765Y456246D01*
X26367072Y428948D01*
X26383487Y404380D01*
X26404382Y383487D01*
X26428949Y367072D01*
X26456247Y355764D01*
X26485226Y350000D01*
X26500000D01*
X26514774D01*
X26543753Y355764D01*
X26571051Y367072D01*
X26595618Y383487D01*
X26616513Y404380D01*
X26632928Y428948D01*
X26644235Y456246D01*
X26650000Y485226D01*
Y500000D01*
Y514774D01*
X26644235Y543753D01*
X26632928Y571051D01*
X26616513Y595619D01*
X26595618Y616512D01*
X26571051Y632928D01*
X26543753Y644235D01*
X26514774Y650000D01*
X26500000D01*
X26485226D01*
X26456247Y644235D01*
X26428949Y632928D01*
X26404382Y616512D01*
X26383487Y595619D01*
X26367072Y571051D01*
X26355765Y543753D01*
X26350000Y514774D01*
Y500000D01*
D01*
D02*
G37*
G36*
Y13500000D02*
Y13485226D01*
X26355765Y13456245D01*
X26367072Y13428947D01*
X26383487Y13404379D01*
X26404382Y13383487D01*
X26428949Y13367072D01*
X26456247Y13355763D01*
X26485226Y13350000D01*
X26500000D01*
X26514774D01*
X26543753Y13355763D01*
X26571051Y13367072D01*
X26595618Y13383487D01*
X26616513Y13404379D01*
X26632928Y13428947D01*
X26644235Y13456245D01*
X26650000Y13485226D01*
Y13500000D01*
Y13514774D01*
X26644235Y13543753D01*
X26632928Y13571051D01*
X26616513Y13595619D01*
X26595618Y13616512D01*
X26571051Y13632928D01*
X26543753Y13644235D01*
X26514774Y13650000D01*
X26500000D01*
X26485226D01*
X26456247Y13644235D01*
X26428949Y13632928D01*
X26404382Y13616512D01*
X26383487Y13595619D01*
X26367072Y13571051D01*
X26355765Y13543753D01*
X26350000Y13514774D01*
Y13500000D01*
D01*
D02*
G37*
G36*
X13500000Y13350000D02*
X13485226D01*
X13456245Y13355763D01*
X13428947Y13367072D01*
X13404379Y13383487D01*
X13383487Y13404379D01*
X13367072Y13428947D01*
X13355763Y13456245D01*
X13350000Y13485226D01*
Y13500000D01*
Y13514774D01*
X13355763Y13543753D01*
X13367072Y13571051D01*
X13383487Y13595619D01*
X13404379Y13616512D01*
X13428947Y13632928D01*
X13456245Y13644235D01*
X13485226Y13650000D01*
X13500000D01*
X13514774D01*
X13543753Y13644235D01*
X13571051Y13632928D01*
X13595619Y13616512D01*
X13616512Y13595619D01*
X13632928Y13571051D01*
X13644235Y13543753D01*
X13650000Y13514774D01*
Y13500000D01*
Y13485226D01*
X13644235Y13456245D01*
X13632928Y13428947D01*
X13616512Y13404379D01*
X13595619Y13383487D01*
X13571051Y13367072D01*
X13543753Y13355763D01*
X13514774Y13350000D01*
X13500000D01*
D01*
D02*
G37*
G36*
X500000D02*
X485226D01*
X456246Y13355763D01*
X428948Y13367072D01*
X404380Y13383487D01*
X383487Y13404379D01*
X367072Y13428947D01*
X355764Y13456245D01*
X350000Y13485226D01*
Y13500000D01*
Y13514774D01*
X355764Y13543753D01*
X367072Y13571051D01*
X383487Y13595619D01*
X404380Y13616512D01*
X428948Y13632928D01*
X456246Y13644235D01*
X485226Y13650000D01*
X500000D01*
X514774D01*
X543753Y13644235D01*
X571051Y13632928D01*
X595619Y13616512D01*
X616512Y13595619D01*
X632928Y13571051D01*
X644235Y13543753D01*
X650000Y13514774D01*
Y13500000D01*
Y13485226D01*
X644235Y13456245D01*
X632928Y13428947D01*
X616512Y13404379D01*
X595619Y13383487D01*
X571051Y13367072D01*
X543753Y13355763D01*
X514774Y13350000D01*
X500000D01*
D01*
D02*
G37*
D98*
Y0D02*
G02*
X0Y500000I0J500000D01*
G01*
X1Y13500000D01*
D02*
G02*
X500000Y14000000I500000J0D01*
G01*
X26500000D01*
D02*
G02*
X27000000Y13500000I0J-500000D01*
G01*
X27000000Y500000D01*
D02*
G02*
X26500000Y0I-500000J0D01*
G01*
X500000D01*
%TF.MD5,58a5e346ef33002b6e89a1a8666dd3da*%
M02*
