%TF.GenerationSoftware,Altium Limited,Altium Designer,24.3.1 (35)*%
G04 Layer_Color=255*
%FSLAX45Y45*%
%MOMM*%
%TF.SameCoordinates,844131A9-2E1B-4A61-BE1F-69DE975881E6*%
%TF.FilePolarity,Positive*%
%TF.FileFunction,Pads,Top*%
%TF.Part,Single*%
G01*
G75*
%TA.AperFunction,ComponentPad*%
%ADD14C,1.80000*%
%ADD15C,5.00000*%
%ADD16C,2.50000*%
%ADD17C,2.03200*%
%ADD18C,3.50000*%
%ADD19R,2.00000X2.00000*%
%ADD20C,2.00000*%
%ADD21C,1.55000*%
%ADD22R,1.55000X1.55000*%
%ADD23O,5.08000X8.89000*%
%ADD24O,1.77800X1.52400*%
%ADD25C,3.55000*%
%ADD26C,1.95000*%
G04:AMPARAMS|DCode=27|XSize=1.95mm|YSize=1.95mm|CornerRadius=0.4875mm|HoleSize=0mm|Usage=FLASHONLY|Rotation=270.000|XOffset=0mm|YOffset=0mm|HoleType=Round|Shape=RoundedRectangle|*
%AMROUNDEDRECTD27*
21,1,1.95000,0.97500,0,0,270.0*
21,1,0.97500,1.95000,0,0,270.0*
1,1,0.97500,-0.48750,-0.48750*
1,1,0.97500,-0.48750,0.48750*
1,1,0.97500,0.48750,0.48750*
1,1,0.97500,0.48750,-0.48750*
%
%ADD27ROUNDEDRECTD27*%
%ADD28C,4.20000*%
%ADD29O,6.60000X6.00000*%
%ADD30C,8.00000*%
%ADD31C,1.52400*%
%ADD32C,13.00000*%
G04:AMPARAMS|DCode=33|XSize=1.95mm|YSize=1.95mm|CornerRadius=0.4875mm|HoleSize=0mm|Usage=FLASHONLY|Rotation=0.000|XOffset=0mm|YOffset=0mm|HoleType=Round|Shape=RoundedRectangle|*
%AMROUNDEDRECTD33*
21,1,1.95000,0.97500,0,0,0.0*
21,1,0.97500,1.95000,0,0,0.0*
1,1,0.97500,0.48750,-0.48750*
1,1,0.97500,-0.48750,-0.48750*
1,1,0.97500,-0.48750,0.48750*
1,1,0.97500,0.48750,0.48750*
%
%ADD33ROUNDEDRECTD33*%
D14*
X6668000Y650000D02*
D03*
X4890000D02*
D03*
X6922000D02*
D03*
X7176000D02*
D03*
X6414000D02*
D03*
X5144000D02*
D03*
X7684000D02*
D03*
X6160000D02*
D03*
X8446000D02*
D03*
X8192000D02*
D03*
X7938000D02*
D03*
X5398000D02*
D03*
X7430000D02*
D03*
X5906000D02*
D03*
X8700000D02*
D03*
X5652000D02*
D03*
D15*
X4508500Y6070600D02*
D03*
X5486400D02*
D03*
X8343900Y6083300D02*
D03*
X9321800D02*
D03*
D16*
X6692900Y3822700D02*
D03*
X7112000D02*
D03*
X8674100Y2616200D02*
D03*
X26428699Y7404100D02*
D03*
X8064500Y9245600D02*
D03*
X8191500Y254000D02*
D03*
X1612900Y9156700D02*
D03*
X9194800Y254000D02*
D03*
X8064500Y10541000D02*
D03*
X11315700Y10591800D02*
D03*
X7366000Y8102600D02*
D03*
X4813300Y10553700D02*
D03*
X1612900Y10477500D02*
D03*
X3124200Y10490200D02*
D03*
X22199600Y2768600D02*
D03*
X8597900Y10147300D02*
D03*
D17*
X3238500Y4445000D02*
D03*
Y1930400D02*
D03*
D18*
X23511501Y6345200D02*
D03*
X22511501D02*
D03*
X24911501Y1545200D02*
D03*
X25911499D02*
D03*
X22511501D02*
D03*
X23511501D02*
D03*
X22511501Y3945200D02*
D03*
X23511501D02*
D03*
X24911501Y6345200D02*
D03*
X25911499D02*
D03*
X24911501Y3945200D02*
D03*
X25911499D02*
D03*
D19*
X12475000Y2200000D02*
D03*
X1816800Y2438400D02*
D03*
D20*
X11725000Y2200000D02*
D03*
X1066800Y2438400D02*
D03*
D21*
X5810700Y2971800D02*
D03*
Y2717800D02*
D03*
Y2463800D02*
D03*
D22*
Y2209800D02*
D03*
D23*
X2717800Y7302500D02*
D03*
Y6286500D02*
D03*
X24003000Y8382000D02*
D03*
Y9398000D02*
D03*
D24*
X558800Y6985000D02*
D03*
Y6794500D02*
D03*
Y6604000D02*
D03*
X21844000Y8699500D02*
D03*
Y8890000D02*
D03*
Y9080500D02*
D03*
D25*
X2683400Y11136500D02*
D03*
X5883400D02*
D03*
X1616600D02*
D03*
X2150000D02*
D03*
X4816600D02*
D03*
X5350000D02*
D03*
X8066600D02*
D03*
X8600000D02*
D03*
X9133400D02*
D03*
X11316600D02*
D03*
X11850000D02*
D03*
X12383400D02*
D03*
D26*
X654998Y8250001D02*
D03*
X12349999Y654998D02*
D03*
X1750000D02*
D03*
D27*
X654998Y8750000D02*
D03*
D28*
X18956400Y11100000D02*
D03*
X17864200D02*
D03*
X15681400D02*
D03*
X14589200D02*
D03*
X25435800D02*
D03*
X24343600D02*
D03*
X22185800D02*
D03*
X21093600D02*
D03*
D29*
X25063400Y9400000D02*
D03*
X26054001D02*
D03*
X25063400Y8400000D02*
D03*
X26054001D02*
D03*
X2036600Y5000000D02*
D03*
X1046000D02*
D03*
X2036600Y4000000D02*
D03*
X1046000D02*
D03*
D30*
X16250000Y11720000D02*
D03*
X23750000D02*
D03*
X20000000D02*
D03*
X3250000D02*
D03*
X10750000D02*
D03*
X7000000D02*
D03*
D31*
X14500000Y2650000D02*
D03*
Y8350000D02*
D03*
X19500000D02*
D03*
Y2650000D02*
D03*
D32*
Y5500000D02*
D03*
X14500000D02*
D03*
D33*
X11850000Y654998D02*
D03*
X1250001D02*
D03*
%TF.MD5,c830a44f7e31993183298b9c4713896c*%
M02*
