%TF.GenerationSoftware,Altium Limited,Altium Designer,24.3.1 (35)*%
G04 Layer_Color=16711935*
%FSLAX45Y45*%
%MOMM*%
%TF.SameCoordinates,844131A9-2E1B-4A61-BE1F-69DE975881E6*%
%TF.FilePolarity,Positive*%
%TF.FileFunction,Other,Bottom_Assembly*%
%TF.Part,Single*%
G01*
G75*
%TA.AperFunction,NonConductor*%
%ADD63C,0.20000*%
%ADD96C,0.10000*%
G36*
X7251474Y6839510D02*
X7250180Y6837660D01*
X7248978Y6835996D01*
X7247776Y6834609D01*
X7246759Y6833315D01*
X7245834Y6832390D01*
X7245095Y6831651D01*
X7244632Y6831189D01*
X7244448Y6831004D01*
X7243708Y6830449D01*
X7242876Y6829802D01*
X7241212Y6828785D01*
X7240472Y6828415D01*
X7239917Y6828045D01*
X7239547Y6827860D01*
X7239362Y6827768D01*
X7241027Y6827490D01*
X7242598Y6827213D01*
X7243985Y6826751D01*
X7245372Y6826381D01*
X7246574Y6825919D01*
X7247683Y6825364D01*
X7248701Y6824902D01*
X7249625Y6824439D01*
X7250365Y6823884D01*
X7251104Y6823422D01*
X7251659Y6823052D01*
X7252121Y6822683D01*
X7252491Y6822405D01*
X7252769Y6822128D01*
X7252861Y6822035D01*
X7252953Y6821943D01*
X7253693Y6821018D01*
X7254433Y6820094D01*
X7255542Y6818152D01*
X7256282Y6816211D01*
X7256837Y6814362D01*
X7257206Y6812790D01*
X7257299Y6812143D01*
Y6811495D01*
X7257391Y6811033D01*
Y6810663D01*
Y6810478D01*
Y6810386D01*
X7257299Y6808444D01*
X7257022Y6806688D01*
X7256559Y6805023D01*
X7256097Y6803637D01*
X7255542Y6802435D01*
X7255172Y6801510D01*
X7254803Y6800955D01*
X7254710Y6800863D01*
Y6800770D01*
X7253601Y6799291D01*
X7252491Y6797997D01*
X7251289Y6796887D01*
X7250180Y6796055D01*
X7249163Y6795408D01*
X7248331Y6795038D01*
X7247776Y6794761D01*
X7247683Y6794668D01*
X7247591D01*
X7246759Y6794391D01*
X7245742Y6794114D01*
X7243708Y6793651D01*
X7241489Y6793374D01*
X7239455Y6793097D01*
X7237513Y6793004D01*
X7236681D01*
X7235942Y6792912D01*
X7206263D01*
Y6856891D01*
X7214769D01*
Y6828507D01*
X7225679D01*
X7226696Y6828600D01*
X7227436D01*
X7228083Y6828692D01*
X7228545Y6828785D01*
X7228915D01*
X7229100Y6828877D01*
X7229192D01*
X7230672Y6829339D01*
X7231319Y6829617D01*
X7231874Y6829894D01*
X7232428Y6830172D01*
X7232798Y6830356D01*
X7232983Y6830449D01*
X7233075Y6830541D01*
X7233815Y6831096D01*
X7234555Y6831743D01*
X7235942Y6833130D01*
X7236589Y6833777D01*
X7237051Y6834332D01*
X7237328Y6834702D01*
X7237421Y6834794D01*
X7238345Y6836089D01*
X7239362Y6837476D01*
X7240379Y6838955D01*
X7241396Y6840342D01*
X7242229Y6841636D01*
X7242876Y6842653D01*
X7243153Y6843023D01*
X7243338Y6843300D01*
X7243523Y6843485D01*
Y6843578D01*
X7251936Y6856891D01*
X7262476D01*
X7251474Y6839510D01*
D02*
G37*
G36*
X7338938Y6857816D02*
X7341249Y6857446D01*
X7343375Y6856799D01*
X7345132Y6856059D01*
X7345872Y6855782D01*
X7346611Y6855412D01*
X7347166Y6855042D01*
X7347721Y6854765D01*
X7348091Y6854580D01*
X7348368Y6854395D01*
X7348553Y6854210D01*
X7348645D01*
X7350495Y6852638D01*
X7352159Y6850882D01*
X7353453Y6849033D01*
X7354563Y6847276D01*
X7355487Y6845704D01*
X7355857Y6844964D01*
X7356134Y6844410D01*
X7356319Y6843855D01*
X7356504Y6843485D01*
X7356597Y6843300D01*
Y6843208D01*
X7357059Y6841821D01*
X7357521Y6840249D01*
X7358168Y6837106D01*
X7358631Y6833777D01*
X7358908Y6830634D01*
X7359093Y6829247D01*
X7359185Y6827860D01*
Y6826658D01*
X7359278Y6825641D01*
Y6824809D01*
Y6824162D01*
Y6823700D01*
Y6823607D01*
Y6821481D01*
X7359185Y6819447D01*
X7359001Y6817597D01*
X7358816Y6815841D01*
X7358631Y6814269D01*
X7358446Y6812790D01*
X7358168Y6811403D01*
X7357891Y6810201D01*
X7357614Y6809184D01*
X7357429Y6808259D01*
X7357151Y6807427D01*
X7356966Y6806780D01*
X7356782Y6806318D01*
X7356597Y6805948D01*
X7356504Y6805763D01*
Y6805671D01*
X7355395Y6803452D01*
X7354193Y6801510D01*
X7352806Y6799846D01*
X7351604Y6798459D01*
X7350402Y6797442D01*
X7349478Y6796702D01*
X7349108Y6796425D01*
X7348830Y6796240D01*
X7348738Y6796055D01*
X7348645D01*
X7346704Y6794946D01*
X7344762Y6794114D01*
X7342821Y6793466D01*
X7341064Y6793097D01*
X7339492Y6792819D01*
X7338845Y6792727D01*
X7338383D01*
X7337921Y6792634D01*
X7337273D01*
X7335702Y6792727D01*
X7334222Y6792912D01*
X7332743Y6793189D01*
X7331449Y6793559D01*
X7328952Y6794576D01*
X7327843Y6795038D01*
X7326918Y6795593D01*
X7325994Y6796240D01*
X7325254Y6796702D01*
X7324514Y6797257D01*
X7323960Y6797719D01*
X7323497Y6798089D01*
X7323220Y6798367D01*
X7323035Y6798552D01*
X7322943Y6798644D01*
X7321926Y6799753D01*
X7321094Y6801048D01*
X7320261Y6802250D01*
X7319614Y6803544D01*
X7319060Y6804931D01*
X7318597Y6806225D01*
X7317950Y6808629D01*
X7317673Y6809831D01*
X7317488Y6810848D01*
X7317395Y6811865D01*
X7317303Y6812697D01*
X7317210Y6813345D01*
Y6813807D01*
Y6814177D01*
Y6814269D01*
X7317303Y6816026D01*
X7317488Y6817597D01*
X7317673Y6819169D01*
X7318043Y6820649D01*
X7318505Y6821943D01*
X7318967Y6823237D01*
X7319429Y6824347D01*
X7319984Y6825364D01*
X7320446Y6826288D01*
X7320909Y6827120D01*
X7321371Y6827768D01*
X7321833Y6828415D01*
X7322203Y6828877D01*
X7322388Y6829154D01*
X7322573Y6829339D01*
X7322665Y6829432D01*
X7323682Y6830449D01*
X7324792Y6831281D01*
X7325901Y6832113D01*
X7327103Y6832760D01*
X7328213Y6833315D01*
X7329322Y6833777D01*
X7331449Y6834424D01*
X7332373Y6834702D01*
X7333298Y6834887D01*
X7334037Y6834979D01*
X7334777Y6835072D01*
X7335332Y6835164D01*
X7336071D01*
X7337828Y6835072D01*
X7339492Y6834794D01*
X7340972Y6834424D01*
X7342358Y6833962D01*
X7343375Y6833592D01*
X7344208Y6833223D01*
X7344762Y6832945D01*
X7344947Y6832853D01*
X7346427Y6831928D01*
X7347721Y6830911D01*
X7348830Y6829894D01*
X7349755Y6828970D01*
X7350402Y6828045D01*
X7350957Y6827398D01*
X7351327Y6826936D01*
X7351419Y6826751D01*
Y6827490D01*
Y6827953D01*
Y6828230D01*
Y6828322D01*
X7351327Y6830172D01*
X7351234Y6831928D01*
X7351049Y6833500D01*
X7350864Y6834979D01*
X7350587Y6836181D01*
X7350402Y6837106D01*
X7350310Y6837476D01*
Y6837753D01*
X7350217Y6837845D01*
Y6837938D01*
X7349755Y6839602D01*
X7349293Y6841081D01*
X7348830Y6842376D01*
X7348368Y6843485D01*
X7347998Y6844317D01*
X7347628Y6844964D01*
X7347444Y6845427D01*
X7347351Y6845519D01*
X7346611Y6846536D01*
X7345872Y6847368D01*
X7345132Y6848108D01*
X7344392Y6848755D01*
X7343838Y6849310D01*
X7343283Y6849680D01*
X7342913Y6849865D01*
X7342821Y6849957D01*
X7341804Y6850512D01*
X7340694Y6850882D01*
X7339677Y6851159D01*
X7338660Y6851344D01*
X7337828Y6851436D01*
X7337181Y6851529D01*
X7336534D01*
X7335054Y6851436D01*
X7333668Y6851159D01*
X7332466Y6850789D01*
X7331449Y6850327D01*
X7330709Y6849957D01*
X7330062Y6849587D01*
X7329692Y6849310D01*
X7329600Y6849217D01*
X7328675Y6848200D01*
X7327935Y6846998D01*
X7327288Y6845704D01*
X7326826Y6844410D01*
X7326456Y6843300D01*
X7326179Y6842283D01*
X7326086Y6841913D01*
Y6841729D01*
X7325994Y6841544D01*
Y6841451D01*
X7318412Y6842098D01*
X7318967Y6844780D01*
X7319707Y6847091D01*
X7320631Y6849125D01*
X7321556Y6850789D01*
X7322480Y6852084D01*
X7322943Y6852638D01*
X7323313Y6853101D01*
X7323590Y6853378D01*
X7323867Y6853655D01*
X7323960Y6853748D01*
X7324052Y6853840D01*
X7324977Y6854580D01*
X7325994Y6855227D01*
X7328028Y6856244D01*
X7330062Y6856984D01*
X7332003Y6857446D01*
X7333760Y6857816D01*
X7334500Y6857908D01*
X7335147D01*
X7335609Y6858001D01*
X7336349D01*
X7338938Y6857816D01*
D02*
G37*
G36*
X7297055Y6792634D02*
X7291970D01*
X7291045Y6794206D01*
X7290028Y6795685D01*
X7288826Y6797165D01*
X7287717Y6798459D01*
X7286607Y6799569D01*
X7285775Y6800493D01*
X7285406Y6800770D01*
X7285128Y6801048D01*
X7285036Y6801140D01*
X7284943Y6801233D01*
X7283002Y6802805D01*
X7281060Y6804284D01*
X7279211Y6805578D01*
X7277362Y6806595D01*
X7275790Y6807520D01*
X7275143Y6807890D01*
X7274588Y6808167D01*
X7274126Y6808444D01*
X7273756Y6808537D01*
X7273571Y6808722D01*
X7273479D01*
Y6816303D01*
X7274866Y6815748D01*
X7276252Y6815101D01*
X7277639Y6814454D01*
X7278934Y6813807D01*
X7280043Y6813252D01*
X7280968Y6812790D01*
X7281522Y6812420D01*
X7281615Y6812327D01*
X7281707D01*
X7283372Y6811310D01*
X7284851Y6810293D01*
X7286145Y6809369D01*
X7287162Y6808537D01*
X7288087Y6807890D01*
X7288642Y6807335D01*
X7289104Y6806965D01*
X7289196Y6806873D01*
Y6856891D01*
X7297055D01*
Y6792634D01*
D02*
G37*
G36*
X8065400Y2642609D02*
X8067064Y2642516D01*
X8068636Y2642331D01*
X8070023Y2642146D01*
X8071317Y2641961D01*
X8072519Y2641684D01*
X8073629Y2641499D01*
X8074646Y2641314D01*
X8075478Y2641037D01*
X8076218Y2640852D01*
X8076772Y2640667D01*
X8077235Y2640482D01*
X8077604Y2640390D01*
X8077789Y2640297D01*
X8077882D01*
X8079916Y2639280D01*
X8081765Y2637986D01*
X8083244Y2636691D01*
X8084539Y2635305D01*
X8085556Y2634103D01*
X8086295Y2633086D01*
X8086480Y2632716D01*
X8086665Y2632438D01*
X8086850Y2632254D01*
Y2632161D01*
X8087867Y2629850D01*
X8088607Y2627446D01*
X8089161Y2624950D01*
X8089531Y2622638D01*
X8089624Y2621621D01*
X8089716Y2620604D01*
X8089809Y2619680D01*
Y2618940D01*
X8089901Y2618293D01*
Y2617461D01*
X8089716Y2614132D01*
X8089531Y2612653D01*
X8089346Y2611266D01*
X8089069Y2609879D01*
X8088792Y2608677D01*
X8088514Y2607568D01*
X8088144Y2606551D01*
X8087775Y2605626D01*
X8087497Y2604887D01*
X8087220Y2604147D01*
X8086942Y2603592D01*
X8086665Y2603130D01*
X8086573Y2602853D01*
X8086388Y2602668D01*
Y2602575D01*
X8085001Y2600541D01*
X8083429Y2598877D01*
X8081950Y2597583D01*
X8080471Y2596473D01*
X8079176Y2595641D01*
X8078159Y2595086D01*
X8077789Y2594901D01*
X8077512Y2594716D01*
X8077327Y2594624D01*
X8077235D01*
X8076125Y2594254D01*
X8074923Y2593884D01*
X8072427Y2593330D01*
X8069838Y2592960D01*
X8067342Y2592682D01*
X8066232Y2592590D01*
X8065123Y2592497D01*
X8064198D01*
X8063366Y2592405D01*
X8062719D01*
X8062257D01*
X8061887D01*
X8061794D01*
X8024812D01*
Y2600911D01*
X8061794D01*
X8063921D01*
X8065955Y2601096D01*
X8067712Y2601281D01*
X8069376Y2601558D01*
X8070855Y2601836D01*
X8072242Y2602205D01*
X8073444Y2602483D01*
X8074461Y2602853D01*
X8075293Y2603222D01*
X8076125Y2603592D01*
X8076680Y2603962D01*
X8077235Y2604239D01*
X8077604Y2604517D01*
X8077882Y2604702D01*
X8077974Y2604794D01*
X8078067Y2604887D01*
X8078806Y2605719D01*
X8079453Y2606643D01*
X8080471Y2608677D01*
X8081210Y2610804D01*
X8081672Y2613023D01*
X8082042Y2615057D01*
X8082135Y2615889D01*
Y2616721D01*
X8082227Y2617276D01*
Y2618200D01*
X8082135Y2620142D01*
X8081857Y2621898D01*
X8081580Y2623563D01*
X8081118Y2624857D01*
X8080748Y2625967D01*
X8080471Y2626799D01*
X8080193Y2627261D01*
X8080101Y2627446D01*
X8079269Y2628740D01*
X8078252Y2629850D01*
X8077235Y2630774D01*
X8076310Y2631421D01*
X8075385Y2631976D01*
X8074738Y2632438D01*
X8074276Y2632623D01*
X8074091Y2632716D01*
X8073259Y2632993D01*
X8072427Y2633178D01*
X8070485Y2633548D01*
X8068451Y2633825D01*
X8066417Y2634010D01*
X8064661Y2634103D01*
X8063828D01*
X8063181Y2634195D01*
X8062626D01*
X8062164D01*
X8061887D01*
X8061794D01*
X8024812D01*
Y2642701D01*
X8061794D01*
X8063644D01*
X8065400Y2642609D01*
D02*
G37*
G36*
X8061887Y2581773D02*
X8064661Y2581588D01*
X8067249Y2581310D01*
X8069653Y2580848D01*
X8071780Y2580386D01*
X8073721Y2579923D01*
X8075478Y2579369D01*
X8077050Y2578722D01*
X8078344Y2578167D01*
X8079546Y2577612D01*
X8080471Y2577150D01*
X8081303Y2576595D01*
X8081950Y2576225D01*
X8082320Y2575948D01*
X8082597Y2575763D01*
X8082689Y2575670D01*
X8083984Y2574469D01*
X8085093Y2573174D01*
X8086018Y2571880D01*
X8086850Y2570585D01*
X8087590Y2569199D01*
X8088144Y2567904D01*
X8088607Y2566610D01*
X8088976Y2565315D01*
X8089254Y2564206D01*
X8089531Y2563096D01*
X8089716Y2562172D01*
X8089809Y2561340D01*
Y2560600D01*
X8089901Y2560138D01*
Y2559676D01*
X8089809Y2557549D01*
X8089439Y2555608D01*
X8089069Y2553851D01*
X8088514Y2552279D01*
X8088052Y2551077D01*
X8087590Y2550153D01*
X8087497Y2549783D01*
X8087312Y2549505D01*
X8087220Y2549413D01*
Y2549321D01*
X8086110Y2547749D01*
X8084816Y2546269D01*
X8083522Y2545068D01*
X8082227Y2544051D01*
X8081025Y2543218D01*
X8080101Y2542664D01*
X8079731Y2542479D01*
X8079453Y2542294D01*
X8079361Y2542201D01*
X8079269D01*
X8077327Y2541277D01*
X8075293Y2540630D01*
X8073444Y2540167D01*
X8071687Y2539890D01*
X8070208Y2539613D01*
X8069653D01*
X8069098Y2539520D01*
X8068636D01*
X8068359D01*
X8068174D01*
X8068081D01*
X8066417Y2539613D01*
X8064845Y2539798D01*
X8063274Y2540075D01*
X8061887Y2540352D01*
X8060592Y2540815D01*
X8059298Y2541277D01*
X8058189Y2541739D01*
X8057172Y2542294D01*
X8056247Y2542849D01*
X8055415Y2543311D01*
X8054768Y2543773D01*
X8054121Y2544235D01*
X8053658Y2544513D01*
X8053381Y2544790D01*
X8053196Y2544975D01*
X8053104Y2545068D01*
X8052087Y2546085D01*
X8051162Y2547194D01*
X8050422Y2548396D01*
X8049775Y2549505D01*
X8049128Y2550615D01*
X8048666Y2551724D01*
X8048018Y2553851D01*
X8047741Y2554775D01*
X8047556Y2555700D01*
X8047464Y2556440D01*
X8047371Y2557179D01*
X8047279Y2557734D01*
Y2558474D01*
X8047371Y2560138D01*
X8047649Y2561710D01*
X8047926Y2563189D01*
X8048296Y2564483D01*
X8048758Y2565593D01*
X8049035Y2566425D01*
X8049313Y2566980D01*
X8049405Y2567072D01*
Y2567165D01*
X8050330Y2568644D01*
X8051347Y2569938D01*
X8052364Y2571140D01*
X8053473Y2572065D01*
X8054398Y2572897D01*
X8055138Y2573544D01*
X8055692Y2573914D01*
X8055785Y2574006D01*
X8054121D01*
X8052456Y2573914D01*
X8050977Y2573821D01*
X8049498Y2573636D01*
X8048203Y2573544D01*
X8047001Y2573359D01*
X8045892Y2573174D01*
X8044875Y2572897D01*
X8043950Y2572712D01*
X8043211Y2572527D01*
X8042564Y2572342D01*
X8042009Y2572250D01*
X8041639Y2572065D01*
X8041362Y2571972D01*
X8041177Y2571880D01*
X8041084D01*
X8039235Y2570955D01*
X8037571Y2570031D01*
X8036277Y2569014D01*
X8035167Y2568089D01*
X8034243Y2567257D01*
X8033595Y2566610D01*
X8033225Y2566148D01*
X8033133Y2565963D01*
X8032393Y2564853D01*
X8031931Y2563744D01*
X8031561Y2562634D01*
X8031284Y2561525D01*
X8031099Y2560693D01*
X8031007Y2559953D01*
Y2559306D01*
X8031191Y2557642D01*
X8031561Y2556070D01*
X8032116Y2554775D01*
X8032671Y2553574D01*
X8033318Y2552649D01*
X8033873Y2552002D01*
X8034243Y2551632D01*
X8034427Y2551447D01*
X8035260Y2550800D01*
X8036277Y2550153D01*
X8037386Y2549598D01*
X8038495Y2549228D01*
X8039512Y2548858D01*
X8040345Y2548581D01*
X8040899Y2548488D01*
X8040992Y2548396D01*
X8041084D01*
X8040437Y2540537D01*
X8037848Y2541092D01*
X8035537Y2541924D01*
X8033503Y2542849D01*
X8031839Y2543866D01*
X8030544Y2544883D01*
X8029990Y2545252D01*
X8029527Y2545715D01*
X8029250Y2545992D01*
X8028973Y2546269D01*
X8028880Y2546362D01*
X8028788Y2546454D01*
X8028048Y2547379D01*
X8027401Y2548396D01*
X8026291Y2550430D01*
X8025552Y2552464D01*
X8025089Y2554406D01*
X8024720Y2556162D01*
X8024627Y2556902D01*
Y2557549D01*
X8024535Y2558104D01*
Y2558843D01*
X8024627Y2560693D01*
X8024812Y2562449D01*
X8025182Y2564113D01*
X8025644Y2565685D01*
X8026291Y2567072D01*
X8026846Y2568459D01*
X8027586Y2569661D01*
X8028233Y2570770D01*
X8028880Y2571695D01*
X8029620Y2572619D01*
X8030174Y2573359D01*
X8030729Y2573914D01*
X8031284Y2574376D01*
X8031654Y2574746D01*
X8031839Y2574931D01*
X8031931Y2575023D01*
X8033595Y2576225D01*
X8035537Y2577242D01*
X8037571Y2578167D01*
X8039697Y2578999D01*
X8041916Y2579646D01*
X8044135Y2580201D01*
X8046447Y2580663D01*
X8048573Y2581033D01*
X8050700Y2581310D01*
X8052641Y2581495D01*
X8054398Y2581680D01*
X8055877Y2581773D01*
X8057172D01*
X8058096Y2581865D01*
X8058466D01*
X8058743D01*
X8058836D01*
X8058928D01*
X8061887Y2581773D01*
D02*
G37*
G36*
X7138300Y2641509D02*
X7139964Y2641416D01*
X7141536Y2641231D01*
X7142923Y2641047D01*
X7144217Y2640862D01*
X7145419Y2640584D01*
X7146529Y2640399D01*
X7147546Y2640214D01*
X7148378Y2639937D01*
X7149117Y2639752D01*
X7149672Y2639567D01*
X7150134Y2639382D01*
X7150504Y2639290D01*
X7150689Y2639197D01*
X7150781D01*
X7152816Y2638180D01*
X7154665Y2636886D01*
X7156144Y2635592D01*
X7157438Y2634205D01*
X7158455Y2633003D01*
X7159195Y2631986D01*
X7159380Y2631616D01*
X7159565Y2631339D01*
X7159750Y2631154D01*
Y2631061D01*
X7160767Y2628750D01*
X7161506Y2626346D01*
X7162061Y2623850D01*
X7162431Y2621538D01*
X7162523Y2620521D01*
X7162616Y2619504D01*
X7162708Y2618580D01*
Y2617840D01*
X7162801Y2617193D01*
Y2616361D01*
X7162616Y2613032D01*
X7162431Y2611553D01*
X7162246Y2610166D01*
X7161969Y2608779D01*
X7161691Y2607577D01*
X7161414Y2606468D01*
X7161044Y2605451D01*
X7160674Y2604526D01*
X7160397Y2603787D01*
X7160120Y2603047D01*
X7159842Y2602492D01*
X7159565Y2602030D01*
X7159472Y2601753D01*
X7159287Y2601568D01*
Y2601475D01*
X7157901Y2599441D01*
X7156329Y2597777D01*
X7154850Y2596483D01*
X7153370Y2595373D01*
X7152076Y2594541D01*
X7151059Y2593986D01*
X7150689Y2593802D01*
X7150412Y2593617D01*
X7150227Y2593524D01*
X7150134D01*
X7149025Y2593154D01*
X7147823Y2592785D01*
X7145327Y2592230D01*
X7142738Y2591860D01*
X7140241Y2591583D01*
X7139132Y2591490D01*
X7138023Y2591398D01*
X7137098D01*
X7136266Y2591305D01*
X7135619D01*
X7135156D01*
X7134787D01*
X7134694D01*
X7097712D01*
Y2599811D01*
X7134694D01*
X7136821D01*
X7138855Y2599996D01*
X7140611Y2600181D01*
X7142276Y2600458D01*
X7143755Y2600736D01*
X7145142Y2601106D01*
X7146344Y2601383D01*
X7147361Y2601753D01*
X7148193Y2602123D01*
X7149025Y2602492D01*
X7149580Y2602862D01*
X7150134Y2603140D01*
X7150504Y2603417D01*
X7150781Y2603602D01*
X7150874Y2603694D01*
X7150966Y2603787D01*
X7151706Y2604619D01*
X7152353Y2605543D01*
X7153370Y2607577D01*
X7154110Y2609704D01*
X7154572Y2611923D01*
X7154942Y2613957D01*
X7155034Y2614789D01*
Y2615621D01*
X7155127Y2616176D01*
Y2617100D01*
X7155034Y2619042D01*
X7154757Y2620799D01*
X7154480Y2622463D01*
X7154017Y2623757D01*
X7153648Y2624867D01*
X7153370Y2625699D01*
X7153093Y2626161D01*
X7153000Y2626346D01*
X7152168Y2627640D01*
X7151151Y2628750D01*
X7150134Y2629674D01*
X7149210Y2630322D01*
X7148285Y2630876D01*
X7147638Y2631339D01*
X7147176Y2631524D01*
X7146991Y2631616D01*
X7146159Y2631893D01*
X7145327Y2632078D01*
X7143385Y2632448D01*
X7141351Y2632725D01*
X7139317Y2632910D01*
X7137560Y2633003D01*
X7136728D01*
X7136081Y2633095D01*
X7135526D01*
X7135064D01*
X7134787D01*
X7134694D01*
X7097712D01*
Y2641601D01*
X7134694D01*
X7136543D01*
X7138300Y2641509D01*
D02*
G37*
G36*
X7120548Y2572999D02*
X7119901Y2571612D01*
X7119254Y2570225D01*
X7118607Y2568931D01*
X7118052Y2567821D01*
X7117590Y2566897D01*
X7117220Y2566342D01*
X7117127Y2566250D01*
Y2566157D01*
X7116110Y2564493D01*
X7115093Y2563014D01*
X7114169Y2561719D01*
X7113337Y2560702D01*
X7112690Y2559778D01*
X7112135Y2559223D01*
X7111765Y2558761D01*
X7111673Y2558668D01*
X7161691D01*
Y2550809D01*
X7097434D01*
Y2555895D01*
X7099006Y2556819D01*
X7100485Y2557836D01*
X7101965Y2559038D01*
X7103259Y2560148D01*
X7104369Y2561257D01*
X7105293Y2562089D01*
X7105570Y2562459D01*
X7105848Y2562736D01*
X7105940Y2562829D01*
X7106033Y2562921D01*
X7107605Y2564863D01*
X7109084Y2566804D01*
X7110378Y2568653D01*
X7111395Y2570503D01*
X7112320Y2572074D01*
X7112690Y2572722D01*
X7112967Y2573276D01*
X7113244Y2573739D01*
X7113337Y2574108D01*
X7113522Y2574293D01*
Y2574386D01*
X7121103D01*
X7120548Y2572999D01*
D02*
G37*
G36*
Y2523258D02*
X7119901Y2521871D01*
X7119254Y2520484D01*
X7118607Y2519190D01*
X7118052Y2518080D01*
X7117590Y2517155D01*
X7117220Y2516601D01*
X7117127Y2516508D01*
Y2516416D01*
X7116110Y2514752D01*
X7115093Y2513272D01*
X7114169Y2511978D01*
X7113337Y2510961D01*
X7112690Y2510036D01*
X7112135Y2509482D01*
X7111765Y2509019D01*
X7111673Y2508927D01*
X7161691D01*
Y2501068D01*
X7097434D01*
Y2506153D01*
X7099006Y2507078D01*
X7100485Y2508095D01*
X7101965Y2509297D01*
X7103259Y2510406D01*
X7104369Y2511516D01*
X7105293Y2512348D01*
X7105570Y2512718D01*
X7105848Y2512995D01*
X7105940Y2513087D01*
X7106033Y2513180D01*
X7107605Y2515121D01*
X7109084Y2517063D01*
X7110378Y2518912D01*
X7111395Y2520761D01*
X7112320Y2522333D01*
X7112690Y2522980D01*
X7112967Y2523535D01*
X7113244Y2523997D01*
X7113337Y2524367D01*
X7113522Y2524552D01*
Y2524644D01*
X7121103D01*
X7120548Y2523258D01*
D02*
G37*
G36*
X26335287Y10390373D02*
X26336859Y10390280D01*
X26338339Y10390003D01*
X26339725Y10389725D01*
X26341019Y10389356D01*
X26342221Y10388986D01*
X26343332Y10388524D01*
X26344348Y10388061D01*
X26345273Y10387599D01*
X26346011Y10387137D01*
X26346658Y10386767D01*
X26347214Y10386397D01*
X26347675Y10386120D01*
X26347955Y10385842D01*
X26348138Y10385750D01*
X26348230Y10385657D01*
X26349155Y10384733D01*
X26349988Y10383716D01*
X26350821Y10382606D01*
X26351468Y10381497D01*
X26352576Y10379278D01*
X26353317Y10377059D01*
X26353592Y10376042D01*
X26353870Y10375025D01*
X26354056Y10374193D01*
X26354242Y10373453D01*
X26354333Y10372806D01*
Y10372344D01*
X26354425Y10372066D01*
Y10371974D01*
X26346381Y10371142D01*
X26346198Y10373268D01*
X26345828Y10375117D01*
X26345273Y10376782D01*
X26344626Y10378076D01*
X26344070Y10379185D01*
X26343515Y10379925D01*
X26343146Y10380387D01*
X26342960Y10380572D01*
X26341574Y10381682D01*
X26340094Y10382514D01*
X26338522Y10383161D01*
X26337137Y10383531D01*
X26335843Y10383808D01*
X26334732Y10383901D01*
X26334363Y10383993D01*
X26333807D01*
X26331866Y10383901D01*
X26330109Y10383531D01*
X26328629Y10382976D01*
X26327335Y10382421D01*
X26326318Y10381774D01*
X26325671Y10381312D01*
X26325208Y10380942D01*
X26325024Y10380757D01*
X26323914Y10379463D01*
X26323083Y10378168D01*
X26322437Y10376874D01*
X26322067Y10375580D01*
X26321790Y10374563D01*
X26321695Y10373638D01*
X26321603Y10373083D01*
Y10372991D01*
Y10372898D01*
X26321790Y10371234D01*
X26322159Y10369478D01*
X26322806Y10367906D01*
X26323453Y10366427D01*
X26324191Y10365225D01*
X26324841Y10364208D01*
X26325024Y10363838D01*
X26325208Y10363560D01*
X26325394Y10363468D01*
Y10363376D01*
X26326135Y10362358D01*
X26327060Y10361341D01*
X26328076Y10360232D01*
X26329184Y10359123D01*
X26331497Y10356904D01*
X26333807Y10354685D01*
X26335010Y10353668D01*
X26336026Y10352743D01*
X26337045Y10351911D01*
X26337875Y10351171D01*
X26338522Y10350617D01*
X26339078Y10350154D01*
X26339447Y10349877D01*
X26339539Y10349784D01*
X26341852Y10347843D01*
X26343979Y10345994D01*
X26345734Y10344330D01*
X26347122Y10342943D01*
X26348322Y10341741D01*
X26349155Y10340909D01*
X26349619Y10340354D01*
X26349802Y10340262D01*
Y10340169D01*
X26351096Y10338597D01*
X26352115Y10337118D01*
X26353040Y10335639D01*
X26353778Y10334344D01*
X26354333Y10333235D01*
X26354703Y10332403D01*
X26354889Y10331848D01*
X26354980Y10331756D01*
Y10331663D01*
X26355350Y10330646D01*
X26355536Y10329722D01*
X26355719Y10328797D01*
X26355811Y10327965D01*
X26355905Y10327225D01*
Y10326670D01*
Y10326301D01*
Y10326208D01*
X26313467D01*
Y10333790D01*
X26344995D01*
X26343887Y10335361D01*
X26343332Y10336009D01*
X26342868Y10336656D01*
X26342407Y10337210D01*
X26342035Y10337580D01*
X26341760Y10337858D01*
X26341666Y10337950D01*
X26341205Y10338412D01*
X26340649Y10338875D01*
X26339355Y10340077D01*
X26337875Y10341463D01*
X26336304Y10342850D01*
X26334824Y10344052D01*
X26334177Y10344607D01*
X26333624Y10345162D01*
X26333160Y10345532D01*
X26332791Y10345809D01*
X26332605Y10345994D01*
X26332513Y10346086D01*
X26331033Y10347381D01*
X26329556Y10348583D01*
X26328262Y10349784D01*
X26327060Y10350801D01*
X26325949Y10351819D01*
X26325024Y10352743D01*
X26324100Y10353575D01*
X26323361Y10354315D01*
X26322620Y10355054D01*
X26322067Y10355609D01*
X26321603Y10356071D01*
X26321140Y10356534D01*
X26320679Y10357089D01*
X26320493Y10357273D01*
X26319199Y10358845D01*
X26318091Y10360232D01*
X26317166Y10361619D01*
X26316425Y10362728D01*
X26315872Y10363745D01*
X26315503Y10364485D01*
X26315317Y10364947D01*
X26315225Y10365132D01*
X26314670Y10366519D01*
X26314301Y10367906D01*
X26313931Y10369200D01*
X26313745Y10370310D01*
X26313651Y10371327D01*
X26313559Y10372066D01*
Y10372529D01*
Y10372714D01*
X26313651Y10374100D01*
X26313837Y10375395D01*
X26314023Y10376689D01*
X26314392Y10377799D01*
X26315317Y10380018D01*
X26316241Y10381774D01*
X26316797Y10382606D01*
X26317258Y10383254D01*
X26317722Y10383901D01*
X26318182Y10384363D01*
X26318552Y10384733D01*
X26318738Y10385103D01*
X26318921Y10385195D01*
X26319016Y10385288D01*
X26320032Y10386212D01*
X26321140Y10387044D01*
X26322342Y10387691D01*
X26323544Y10388246D01*
X26325949Y10389171D01*
X26328354Y10389818D01*
X26329370Y10390003D01*
X26330386Y10390188D01*
X26331311Y10390280D01*
X26332050Y10390373D01*
X26332697Y10390465D01*
X26333624D01*
X26335287Y10390373D01*
D02*
G37*
G36*
X26416000Y10326208D02*
X26407495D01*
Y10354592D01*
X26396585D01*
X26395569Y10354500D01*
X26394830D01*
X26394183Y10354407D01*
X26393719Y10354315D01*
X26393350D01*
X26393164Y10354222D01*
X26393073D01*
X26391592Y10353760D01*
X26390945Y10353483D01*
X26390390Y10353205D01*
X26389835Y10352928D01*
X26389465Y10352743D01*
X26389282Y10352651D01*
X26389188Y10352558D01*
X26388449Y10352003D01*
X26387711Y10351356D01*
X26386322Y10349969D01*
X26385675Y10349322D01*
X26385214Y10348767D01*
X26384937Y10348398D01*
X26384845Y10348305D01*
X26383920Y10347011D01*
X26382901Y10345624D01*
X26381885Y10344145D01*
X26380869Y10342758D01*
X26380035Y10341463D01*
X26379388Y10340446D01*
X26379111Y10340077D01*
X26378925Y10339799D01*
X26378741Y10339614D01*
Y10339522D01*
X26370328Y10326208D01*
X26359787D01*
X26370789Y10343590D01*
X26372086Y10345439D01*
X26373288Y10347103D01*
X26374490Y10348490D01*
X26375507Y10349784D01*
X26376431Y10350709D01*
X26377170Y10351449D01*
X26377631Y10351911D01*
X26377817Y10352096D01*
X26378558Y10352651D01*
X26379388Y10353298D01*
X26381052Y10354315D01*
X26381793Y10354685D01*
X26382346Y10355054D01*
X26382718Y10355239D01*
X26382901Y10355332D01*
X26381238Y10355609D01*
X26379666Y10355887D01*
X26378278Y10356349D01*
X26376892Y10356719D01*
X26375690Y10357181D01*
X26374582Y10357736D01*
X26373563Y10358198D01*
X26372638Y10358660D01*
X26371899Y10359215D01*
X26371161Y10359677D01*
X26370605Y10360047D01*
X26370142Y10360417D01*
X26369772Y10360694D01*
X26369495Y10360972D01*
X26369403Y10361064D01*
X26369312Y10361157D01*
X26368570Y10362081D01*
X26367831Y10363006D01*
X26366721Y10364947D01*
X26365982Y10366889D01*
X26365427Y10368738D01*
X26365057Y10370310D01*
X26364966Y10370957D01*
Y10371604D01*
X26364874Y10372066D01*
Y10372436D01*
Y10372621D01*
Y10372714D01*
X26364966Y10374655D01*
X26365244Y10376412D01*
X26365704Y10378076D01*
X26366168Y10379463D01*
X26366721Y10380665D01*
X26367093Y10381589D01*
X26367462Y10382144D01*
X26367554Y10382237D01*
Y10382329D01*
X26368665Y10383808D01*
X26369772Y10385103D01*
X26370975Y10386212D01*
X26372086Y10387044D01*
X26373102Y10387691D01*
X26373935Y10388061D01*
X26374490Y10388339D01*
X26374582Y10388431D01*
X26374673D01*
X26375507Y10388708D01*
X26376523Y10388986D01*
X26378558Y10389448D01*
X26380777Y10389725D01*
X26382809Y10390003D01*
X26384750Y10390095D01*
X26385583D01*
X26386322Y10390188D01*
X26416000D01*
Y10326208D01*
D02*
G37*
G36*
X26286655Y10390280D02*
X26288968Y10389910D01*
X26290909Y10389263D01*
X26292572Y10388616D01*
X26293958Y10387876D01*
X26294513Y10387599D01*
X26294977Y10387229D01*
X26295346Y10387044D01*
X26295624Y10386859D01*
X26295715Y10386674D01*
X26295807D01*
X26297473Y10385195D01*
X26298859Y10383438D01*
X26300061Y10381682D01*
X26300986Y10380018D01*
X26301727Y10378446D01*
X26302094Y10377799D01*
X26302280Y10377151D01*
X26302466Y10376689D01*
X26302649Y10376319D01*
X26302744Y10376134D01*
Y10376042D01*
X26303113Y10374655D01*
X26303482Y10373268D01*
X26304037Y10370217D01*
X26304498Y10367166D01*
X26304776Y10364300D01*
X26304868Y10362913D01*
X26304962Y10361711D01*
Y10360602D01*
X26305054Y10359585D01*
Y10358845D01*
Y10358198D01*
Y10357828D01*
Y10357736D01*
X26304962Y10354500D01*
X26304776Y10351449D01*
X26304498Y10348675D01*
X26304037Y10346086D01*
X26303574Y10343682D01*
X26303021Y10341556D01*
X26302466Y10339614D01*
X26301910Y10337950D01*
X26301355Y10336471D01*
X26300708Y10335176D01*
X26300247Y10334067D01*
X26299783Y10333235D01*
X26299323Y10332495D01*
X26299045Y10332033D01*
X26298859Y10331756D01*
X26298767Y10331663D01*
X26297751Y10330554D01*
X26296640Y10329537D01*
X26295438Y10328612D01*
X26294238Y10327872D01*
X26293036Y10327225D01*
X26291833Y10326670D01*
X26290631Y10326301D01*
X26289520Y10325931D01*
X26288412Y10325653D01*
X26287396Y10325469D01*
X26286469Y10325284D01*
X26285730Y10325191D01*
X26285083Y10325099D01*
X26284158D01*
X26281662Y10325284D01*
X26279352Y10325653D01*
X26277411Y10326301D01*
X26275745Y10326948D01*
X26274359Y10327595D01*
X26273895Y10327965D01*
X26273434Y10328242D01*
X26273065Y10328427D01*
X26272787Y10328612D01*
X26272693Y10328797D01*
X26272601D01*
X26270938Y10330369D01*
X26269550Y10332033D01*
X26268350Y10333882D01*
X26267422Y10335546D01*
X26266684Y10337118D01*
X26266315Y10337765D01*
X26266129Y10338412D01*
X26265945Y10338875D01*
X26265759Y10339244D01*
X26265668Y10339429D01*
Y10339522D01*
X26265207Y10340909D01*
X26264835Y10342296D01*
X26264282Y10345254D01*
X26263818Y10348305D01*
X26263541Y10351264D01*
X26263449Y10352558D01*
X26263354Y10353760D01*
Y10354870D01*
X26263263Y10355887D01*
Y10356626D01*
Y10357273D01*
Y10357643D01*
Y10357736D01*
Y10359492D01*
X26263354Y10361157D01*
Y10362636D01*
X26263449Y10364115D01*
X26263635Y10365410D01*
X26263727Y10366704D01*
X26263818Y10367813D01*
X26264005Y10368830D01*
X26264096Y10369755D01*
X26264282Y10370587D01*
X26264374Y10371234D01*
X26264465Y10371789D01*
X26264557Y10372251D01*
X26264651Y10372529D01*
X26264743Y10372714D01*
Y10372806D01*
X26265298Y10374840D01*
X26265945Y10376689D01*
X26266684Y10378261D01*
X26267239Y10379648D01*
X26267886Y10380850D01*
X26268256Y10381682D01*
X26268625Y10382144D01*
X26268719Y10382329D01*
X26269736Y10383716D01*
X26270752Y10384918D01*
X26271863Y10385935D01*
X26272879Y10386859D01*
X26273804Y10387507D01*
X26274545Y10387969D01*
X26275006Y10388246D01*
X26275098Y10388339D01*
X26275192D01*
X26276669Y10389078D01*
X26278241Y10389541D01*
X26279721Y10389910D01*
X26281107Y10390188D01*
X26282309Y10390373D01*
X26283328Y10390465D01*
X26284158D01*
X26286655Y10390280D01*
D02*
G37*
G36*
X7632701Y9808595D02*
X7604317D01*
Y9797686D01*
X7604409Y9796668D01*
Y9795929D01*
X7604502Y9795282D01*
X7604594Y9794819D01*
Y9794450D01*
X7604687Y9794265D01*
Y9794172D01*
X7605149Y9792693D01*
X7605426Y9792046D01*
X7605704Y9791491D01*
X7605981Y9790936D01*
X7606166Y9790566D01*
X7606258Y9790381D01*
X7606351Y9790289D01*
X7606906Y9789549D01*
X7607553Y9788810D01*
X7608940Y9787423D01*
X7609587Y9786776D01*
X7610141Y9786313D01*
X7610511Y9786036D01*
X7610604Y9785944D01*
X7611898Y9785019D01*
X7613285Y9784002D01*
X7614764Y9782985D01*
X7616151Y9781968D01*
X7617446Y9781136D01*
X7618463Y9780489D01*
X7618832Y9780211D01*
X7619110Y9780026D01*
X7619295Y9779842D01*
X7619387D01*
X7632701Y9771428D01*
Y9760888D01*
X7615319Y9771890D01*
X7613470Y9773185D01*
X7611806Y9774387D01*
X7610419Y9775589D01*
X7609124Y9776606D01*
X7608200Y9777530D01*
X7607460Y9778270D01*
X7606998Y9778732D01*
X7606813Y9778917D01*
X7606258Y9779657D01*
X7605611Y9780489D01*
X7604594Y9782153D01*
X7604224Y9782893D01*
X7603854Y9783447D01*
X7603670Y9783817D01*
X7603577Y9784002D01*
X7603300Y9782338D01*
X7603022Y9780766D01*
X7602560Y9779379D01*
X7602190Y9777992D01*
X7601728Y9776790D01*
X7601173Y9775681D01*
X7600711Y9774664D01*
X7600249Y9773739D01*
X7599694Y9773000D01*
X7599232Y9772260D01*
X7598862Y9771705D01*
X7598492Y9771243D01*
X7598215Y9770873D01*
X7597937Y9770596D01*
X7597845Y9770503D01*
X7597752Y9770411D01*
X7596828Y9769671D01*
X7595903Y9768932D01*
X7593962Y9767822D01*
X7592020Y9767083D01*
X7590171Y9766528D01*
X7588599Y9766158D01*
X7587952Y9766066D01*
X7587305D01*
X7586843Y9765973D01*
X7586473D01*
X7586288D01*
X7586195D01*
X7584254Y9766066D01*
X7582497Y9766343D01*
X7580833Y9766805D01*
X7579446Y9767267D01*
X7578244Y9767822D01*
X7577320Y9768192D01*
X7576765Y9768562D01*
X7576672Y9768654D01*
X7576580D01*
X7575101Y9769764D01*
X7573806Y9770873D01*
X7572697Y9772075D01*
X7571865Y9773185D01*
X7571218Y9774202D01*
X7570848Y9775034D01*
X7570570Y9775589D01*
X7570478Y9775681D01*
Y9775773D01*
X7570201Y9776606D01*
X7569923Y9777623D01*
X7569461Y9779657D01*
X7569183Y9781876D01*
X7568906Y9783910D01*
X7568814Y9785851D01*
Y9786683D01*
X7568721Y9787423D01*
Y9817101D01*
X7632701D01*
Y9808595D01*
D02*
G37*
G36*
X7591558Y9748499D02*
X7590911Y9747112D01*
X7590263Y9745725D01*
X7589616Y9744431D01*
X7589062Y9743321D01*
X7588599Y9742397D01*
X7588229Y9741842D01*
X7588137Y9741750D01*
Y9741657D01*
X7587120Y9739993D01*
X7586103Y9738514D01*
X7585178Y9737219D01*
X7584346Y9736202D01*
X7583699Y9735278D01*
X7583144Y9734723D01*
X7582775Y9734261D01*
X7582682Y9734168D01*
X7632701D01*
Y9726309D01*
X7568444D01*
Y9731395D01*
X7570016Y9732319D01*
X7571495Y9733336D01*
X7572974Y9734538D01*
X7574269Y9735648D01*
X7575378Y9736757D01*
X7576303Y9737589D01*
X7576580Y9737959D01*
X7576857Y9738236D01*
X7576950Y9738329D01*
X7577042Y9738421D01*
X7578614Y9740363D01*
X7580093Y9742304D01*
X7581388Y9744153D01*
X7582405Y9746003D01*
X7583329Y9747574D01*
X7583699Y9748222D01*
X7583976Y9748776D01*
X7584254Y9749239D01*
X7584346Y9749608D01*
X7584531Y9749793D01*
Y9749886D01*
X7592113D01*
X7591558Y9748499D01*
D02*
G37*
G36*
Y9698758D02*
X7590911Y9697371D01*
X7590263Y9695984D01*
X7589616Y9694690D01*
X7589062Y9693580D01*
X7588599Y9692655D01*
X7588229Y9692101D01*
X7588137Y9692008D01*
Y9691916D01*
X7587120Y9690252D01*
X7586103Y9688772D01*
X7585178Y9687478D01*
X7584346Y9686461D01*
X7583699Y9685536D01*
X7583144Y9684982D01*
X7582775Y9684519D01*
X7582682Y9684427D01*
X7632701D01*
Y9676568D01*
X7568444D01*
Y9681653D01*
X7570016Y9682578D01*
X7571495Y9683595D01*
X7572974Y9684797D01*
X7574269Y9685906D01*
X7575378Y9687016D01*
X7576303Y9687848D01*
X7576580Y9688218D01*
X7576857Y9688495D01*
X7576950Y9688587D01*
X7577042Y9688680D01*
X7578614Y9690621D01*
X7580093Y9692563D01*
X7581388Y9694412D01*
X7582405Y9696261D01*
X7583329Y9697833D01*
X7583699Y9698480D01*
X7583976Y9699035D01*
X7584254Y9699497D01*
X7584346Y9699867D01*
X7584531Y9700052D01*
Y9700144D01*
X7592113D01*
X7591558Y9698758D01*
D02*
G37*
G36*
X4417683Y9920187D02*
X4419254Y9920002D01*
X4420826Y9919724D01*
X4422213Y9919447D01*
X4423507Y9918985D01*
X4424802Y9918522D01*
X4425911Y9918060D01*
X4426928Y9917505D01*
X4427853Y9916951D01*
X4428685Y9916488D01*
X4429332Y9916026D01*
X4429979Y9915564D01*
X4430441Y9915286D01*
X4430719Y9915009D01*
X4430904Y9914824D01*
X4430996Y9914732D01*
X4432013Y9913715D01*
X4432938Y9912605D01*
X4433677Y9911403D01*
X4434325Y9910294D01*
X4434972Y9909184D01*
X4435434Y9908075D01*
X4436081Y9905948D01*
X4436359Y9905024D01*
X4436544Y9904099D01*
X4436636Y9903360D01*
X4436728Y9902620D01*
X4436821Y9902065D01*
Y9901326D01*
X4436728Y9899661D01*
X4436451Y9898090D01*
X4436174Y9896610D01*
X4435804Y9895316D01*
X4435342Y9894207D01*
X4435064Y9893374D01*
X4434787Y9892820D01*
X4434694Y9892727D01*
Y9892635D01*
X4433770Y9891155D01*
X4432753Y9889861D01*
X4431736Y9888659D01*
X4430626Y9887735D01*
X4429702Y9886903D01*
X4428962Y9886255D01*
X4428407Y9885885D01*
X4428315Y9885793D01*
X4429979D01*
X4431643Y9885885D01*
X4433123Y9885978D01*
X4434602Y9886163D01*
X4435896Y9886255D01*
X4437098Y9886440D01*
X4438208Y9886625D01*
X4439225Y9886903D01*
X4440149Y9887087D01*
X4440889Y9887272D01*
X4441536Y9887457D01*
X4442091Y9887550D01*
X4442461Y9887735D01*
X4442738Y9887827D01*
X4442923Y9887920D01*
X4443015D01*
X4444865Y9888844D01*
X4446529Y9889769D01*
X4447823Y9890786D01*
X4448933Y9891710D01*
X4449857Y9892542D01*
X4450504Y9893190D01*
X4450874Y9893652D01*
X4450967Y9893837D01*
X4451706Y9894946D01*
X4452169Y9896056D01*
X4452538Y9897165D01*
X4452816Y9898275D01*
X4453001Y9899107D01*
X4453093Y9899846D01*
Y9900494D01*
X4452908Y9902158D01*
X4452538Y9903729D01*
X4451984Y9905024D01*
X4451429Y9906226D01*
X4450782Y9907150D01*
X4450227Y9907798D01*
X4449857Y9908167D01*
X4449672Y9908352D01*
X4448840Y9908999D01*
X4447823Y9909647D01*
X4446714Y9910201D01*
X4445604Y9910571D01*
X4444587Y9910941D01*
X4443755Y9911218D01*
X4443200Y9911311D01*
X4443108Y9911403D01*
X4443015D01*
X4443663Y9919262D01*
X4446251Y9918707D01*
X4448563Y9917875D01*
X4450597Y9916951D01*
X4452261Y9915934D01*
X4453555Y9914917D01*
X4454110Y9914547D01*
X4454572Y9914085D01*
X4454850Y9913807D01*
X4455127Y9913530D01*
X4455220Y9913437D01*
X4455312Y9913345D01*
X4456052Y9912420D01*
X4456699Y9911403D01*
X4457808Y9909369D01*
X4458548Y9907335D01*
X4459010Y9905394D01*
X4459380Y9903637D01*
X4459473Y9902897D01*
Y9902250D01*
X4459565Y9901695D01*
Y9900956D01*
X4459473Y9899107D01*
X4459288Y9897350D01*
X4458918Y9895686D01*
X4458456Y9894114D01*
X4457808Y9892727D01*
X4457254Y9891340D01*
X4456514Y9890138D01*
X4455867Y9889029D01*
X4455220Y9888104D01*
X4454480Y9887180D01*
X4453925Y9886440D01*
X4453371Y9885885D01*
X4452816Y9885423D01*
X4452446Y9885053D01*
X4452261Y9884868D01*
X4452169Y9884776D01*
X4450504Y9883574D01*
X4448563Y9882557D01*
X4446529Y9881633D01*
X4444402Y9880800D01*
X4442183Y9880153D01*
X4439964Y9879598D01*
X4437653Y9879136D01*
X4435527Y9878766D01*
X4433400Y9878489D01*
X4431458Y9878304D01*
X4429702Y9878119D01*
X4428223Y9878027D01*
X4426928D01*
X4426004Y9877934D01*
X4425634D01*
X4425356D01*
X4425264D01*
X4425171D01*
X4422213Y9878027D01*
X4419439Y9878212D01*
X4416850Y9878489D01*
X4414447Y9878951D01*
X4412320Y9879414D01*
X4410379Y9879876D01*
X4408622Y9880431D01*
X4407050Y9881078D01*
X4405756Y9881633D01*
X4404554Y9882187D01*
X4403629Y9882650D01*
X4402797Y9883204D01*
X4402150Y9883574D01*
X4401780Y9883851D01*
X4401503Y9884036D01*
X4401410Y9884129D01*
X4400116Y9885331D01*
X4399006Y9886625D01*
X4398082Y9887920D01*
X4397250Y9889214D01*
X4396510Y9890601D01*
X4395955Y9891895D01*
X4395493Y9893190D01*
X4395123Y9894484D01*
X4394846Y9895593D01*
X4394569Y9896703D01*
X4394384Y9897627D01*
X4394291Y9898460D01*
Y9899199D01*
X4394199Y9899661D01*
Y9900124D01*
X4394291Y9902250D01*
X4394661Y9904192D01*
X4395031Y9905948D01*
X4395586Y9907520D01*
X4396048Y9908722D01*
X4396510Y9909647D01*
X4396603Y9910017D01*
X4396787Y9910294D01*
X4396880Y9910386D01*
Y9910479D01*
X4397989Y9912051D01*
X4399284Y9913530D01*
X4400578Y9914732D01*
X4401873Y9915749D01*
X4403075Y9916581D01*
X4403999Y9917136D01*
X4404369Y9917321D01*
X4404646Y9917505D01*
X4404739Y9917598D01*
X4404831D01*
X4406773Y9918522D01*
X4408807Y9919170D01*
X4410656Y9919632D01*
X4412413Y9919909D01*
X4413892Y9920187D01*
X4414447D01*
X4415001Y9920279D01*
X4415464D01*
X4415741D01*
X4415926D01*
X4416018D01*
X4417683Y9920187D01*
D02*
G37*
G36*
X4412690Y9862309D02*
X4414539Y9861015D01*
X4416203Y9859813D01*
X4417590Y9858611D01*
X4418884Y9857594D01*
X4419809Y9856669D01*
X4420549Y9855930D01*
X4421011Y9855467D01*
X4421196Y9855283D01*
X4421751Y9854543D01*
X4422398Y9853711D01*
X4423415Y9852047D01*
X4423785Y9851307D01*
X4424154Y9850752D01*
X4424339Y9850382D01*
X4424432Y9850197D01*
X4424709Y9851862D01*
X4424987Y9853433D01*
X4425449Y9854820D01*
X4425819Y9856207D01*
X4426281Y9857409D01*
X4426836Y9858519D01*
X4427298Y9859536D01*
X4427760Y9860460D01*
X4428315Y9861200D01*
X4428777Y9861939D01*
X4429147Y9862494D01*
X4429517Y9862956D01*
X4429794Y9863326D01*
X4430072Y9863604D01*
X4430164Y9863696D01*
X4430257Y9863789D01*
X4431181Y9864528D01*
X4432106Y9865268D01*
X4434047Y9866377D01*
X4435989Y9867117D01*
X4437838Y9867672D01*
X4439410Y9868041D01*
X4440057Y9868134D01*
X4440704D01*
X4441166Y9868226D01*
X4441536D01*
X4441721D01*
X4441814D01*
X4443755Y9868134D01*
X4445512Y9867857D01*
X4447176Y9867394D01*
X4448563Y9866932D01*
X4449765Y9866377D01*
X4450689Y9866007D01*
X4451244Y9865638D01*
X4451337Y9865545D01*
X4451429D01*
X4452908Y9864436D01*
X4454203Y9863326D01*
X4455312Y9862124D01*
X4456144Y9861015D01*
X4456791Y9859998D01*
X4457161Y9859166D01*
X4457439Y9858611D01*
X4457531Y9858519D01*
Y9858426D01*
X4457808Y9857594D01*
X4458086Y9856577D01*
X4458548Y9854543D01*
X4458825Y9852324D01*
X4459103Y9850290D01*
X4459195Y9848348D01*
Y9847516D01*
X4459288Y9846777D01*
Y9817098D01*
X4395308D01*
Y9825604D01*
X4423692D01*
Y9836514D01*
X4423600Y9837531D01*
Y9838271D01*
X4423507Y9838918D01*
X4423415Y9839380D01*
Y9839750D01*
X4423322Y9839935D01*
Y9840027D01*
X4422860Y9841507D01*
X4422583Y9842154D01*
X4422305Y9842709D01*
X4422028Y9843263D01*
X4421843Y9843633D01*
X4421751Y9843818D01*
X4421658Y9843910D01*
X4421103Y9844650D01*
X4420456Y9845390D01*
X4419069Y9846777D01*
X4418422Y9847424D01*
X4417867Y9847886D01*
X4417498Y9848163D01*
X4417405Y9848256D01*
X4416111Y9849180D01*
X4414724Y9850197D01*
X4413245Y9851214D01*
X4411858Y9852232D01*
X4410563Y9853064D01*
X4409546Y9853711D01*
X4409177Y9853988D01*
X4408899Y9854173D01*
X4408714Y9854358D01*
X4408622D01*
X4395308Y9862771D01*
Y9873311D01*
X4412690Y9862309D01*
D02*
G37*
G36*
X1211857Y9914299D02*
X1213429Y9914114D01*
X1215001Y9913837D01*
X1216387Y9913467D01*
X1217682Y9913005D01*
X1218976Y9912542D01*
X1220086Y9911988D01*
X1221103Y9911525D01*
X1222027Y9910971D01*
X1222859Y9910416D01*
X1223507Y9909954D01*
X1224154Y9909491D01*
X1224616Y9909121D01*
X1224893Y9908844D01*
X1225078Y9908659D01*
X1225171Y9908567D01*
X1226188Y9907457D01*
X1227112Y9906348D01*
X1227852Y9905146D01*
X1228499Y9903944D01*
X1229146Y9902742D01*
X1229609Y9901540D01*
X1230256Y9899321D01*
X1230533Y9898304D01*
X1230718Y9897379D01*
X1230811Y9896547D01*
X1230903Y9895808D01*
X1230996Y9895253D01*
Y9893219D01*
X1230811Y9892110D01*
X1230348Y9889891D01*
X1229701Y9887857D01*
X1228961Y9886007D01*
X1228222Y9884528D01*
X1227852Y9883881D01*
X1227575Y9883326D01*
X1227297Y9882864D01*
X1227112Y9882587D01*
X1227020Y9882402D01*
X1226927Y9882309D01*
X1244217Y9885730D01*
Y9911340D01*
X1251706D01*
Y9879535D01*
X1218791Y9873341D01*
X1217774Y9880737D01*
X1218791Y9881385D01*
X1219623Y9882217D01*
X1220456Y9882956D01*
X1221103Y9883696D01*
X1221565Y9884436D01*
X1222027Y9884990D01*
X1222212Y9885360D01*
X1222305Y9885453D01*
X1222859Y9886655D01*
X1223322Y9887857D01*
X1223599Y9888966D01*
X1223876Y9890075D01*
X1223969Y9891000D01*
X1224061Y9891740D01*
Y9893496D01*
X1223876Y9894606D01*
X1223414Y9896547D01*
X1222767Y9898212D01*
X1222120Y9899691D01*
X1221380Y9900800D01*
X1220733Y9901632D01*
X1220271Y9902095D01*
X1220178Y9902280D01*
X1220086D01*
X1218514Y9903574D01*
X1216850Y9904499D01*
X1215093Y9905146D01*
X1213336Y9905608D01*
X1211857Y9905885D01*
X1211210Y9905978D01*
X1210655D01*
X1210193Y9906070D01*
X1209823D01*
X1209638D01*
X1209546D01*
X1208251D01*
X1207049Y9905885D01*
X1204738Y9905423D01*
X1202796Y9904776D01*
X1201225Y9904129D01*
X1199930Y9903389D01*
X1198913Y9902742D01*
X1198636Y9902465D01*
X1198359Y9902280D01*
X1198266Y9902187D01*
X1198174Y9902095D01*
X1197434Y9901355D01*
X1196787Y9900615D01*
X1195677Y9898951D01*
X1194938Y9897379D01*
X1194475Y9895808D01*
X1194106Y9894513D01*
X1194013Y9893404D01*
X1193921Y9893034D01*
Y9892479D01*
X1194013Y9890723D01*
X1194383Y9889151D01*
X1194845Y9887764D01*
X1195400Y9886655D01*
X1195955Y9885638D01*
X1196417Y9884898D01*
X1196787Y9884528D01*
X1196879Y9884343D01*
X1198174Y9883234D01*
X1199560Y9882309D01*
X1201132Y9881570D01*
X1202519Y9881015D01*
X1203906Y9880645D01*
X1204923Y9880368D01*
X1205385Y9880275D01*
X1205663Y9880183D01*
X1205847D01*
X1205940D01*
X1205293Y9871954D01*
X1203813Y9872139D01*
X1202427Y9872416D01*
X1199838Y9873248D01*
X1197619Y9874265D01*
X1196602Y9874820D01*
X1195770Y9875375D01*
X1194938Y9875837D01*
X1194198Y9876392D01*
X1193643Y9876854D01*
X1193181Y9877317D01*
X1192811Y9877686D01*
X1192441Y9877871D01*
X1192349Y9878056D01*
X1192256Y9878149D01*
X1191424Y9879258D01*
X1190685Y9880368D01*
X1190037Y9881570D01*
X1189483Y9882771D01*
X1188651Y9885083D01*
X1188096Y9887394D01*
X1187819Y9888411D01*
X1187726Y9889428D01*
X1187634Y9890260D01*
X1187541Y9891000D01*
X1187449Y9891647D01*
Y9892479D01*
X1187541Y9894421D01*
X1187819Y9896270D01*
X1188188Y9898027D01*
X1188651Y9899598D01*
X1189298Y9901078D01*
X1189945Y9902465D01*
X1190592Y9903759D01*
X1191332Y9904868D01*
X1192072Y9905885D01*
X1192719Y9906810D01*
X1193458Y9907550D01*
X1194013Y9908197D01*
X1194475Y9908659D01*
X1194845Y9909029D01*
X1195123Y9909214D01*
X1195215Y9909306D01*
X1196417Y9910231D01*
X1197711Y9910971D01*
X1198913Y9911710D01*
X1200208Y9912265D01*
X1202704Y9913189D01*
X1205108Y9913744D01*
X1206125Y9913929D01*
X1207142Y9914114D01*
X1207974Y9914206D01*
X1208714Y9914299D01*
X1209361Y9914391D01*
X1209823D01*
X1210100D01*
X1210193D01*
X1211857Y9914299D01*
D02*
G37*
G36*
X1205940Y9855959D02*
X1207789Y9854665D01*
X1209453Y9853463D01*
X1210840Y9852261D01*
X1212134Y9851244D01*
X1213059Y9850319D01*
X1213799Y9849580D01*
X1214261Y9849117D01*
X1214446Y9848933D01*
X1215001Y9848193D01*
X1215648Y9847361D01*
X1216665Y9845697D01*
X1217035Y9844957D01*
X1217404Y9844402D01*
X1217589Y9844032D01*
X1217682Y9843847D01*
X1217959Y9845512D01*
X1218237Y9847083D01*
X1218699Y9848470D01*
X1219069Y9849857D01*
X1219531Y9851059D01*
X1220086Y9852169D01*
X1220548Y9853186D01*
X1221010Y9854110D01*
X1221565Y9854850D01*
X1222027Y9855589D01*
X1222397Y9856144D01*
X1222767Y9856606D01*
X1223044Y9856976D01*
X1223322Y9857254D01*
X1223414Y9857346D01*
X1223507Y9857439D01*
X1224431Y9858178D01*
X1225356Y9858918D01*
X1227297Y9860027D01*
X1229239Y9860767D01*
X1231088Y9861322D01*
X1232660Y9861691D01*
X1233307Y9861784D01*
X1233954D01*
X1234416Y9861876D01*
X1234786D01*
X1234971D01*
X1235064D01*
X1237005Y9861784D01*
X1238762Y9861507D01*
X1240426Y9861044D01*
X1241813Y9860582D01*
X1243015Y9860027D01*
X1243939Y9859657D01*
X1244494Y9859288D01*
X1244587Y9859195D01*
X1244679D01*
X1246158Y9858086D01*
X1247453Y9856976D01*
X1248562Y9855774D01*
X1249394Y9854665D01*
X1250041Y9853648D01*
X1250411Y9852816D01*
X1250689Y9852261D01*
X1250781Y9852169D01*
Y9852076D01*
X1251058Y9851244D01*
X1251336Y9850227D01*
X1251798Y9848193D01*
X1252075Y9845974D01*
X1252353Y9843940D01*
X1252445Y9841998D01*
Y9841166D01*
X1252538Y9840427D01*
Y9810748D01*
X1188558D01*
Y9819254D01*
X1216942D01*
Y9830164D01*
X1216850Y9831181D01*
Y9831921D01*
X1216757Y9832568D01*
X1216665Y9833030D01*
Y9833400D01*
X1216572Y9833585D01*
Y9833677D01*
X1216110Y9835157D01*
X1215833Y9835804D01*
X1215555Y9836359D01*
X1215278Y9836913D01*
X1215093Y9837283D01*
X1215001Y9837468D01*
X1214908Y9837560D01*
X1214353Y9838300D01*
X1213706Y9839040D01*
X1212319Y9840427D01*
X1211672Y9841074D01*
X1211117Y9841536D01*
X1210748Y9841813D01*
X1210655Y9841906D01*
X1209361Y9842830D01*
X1207974Y9843847D01*
X1206495Y9844864D01*
X1205108Y9845882D01*
X1203813Y9846714D01*
X1202796Y9847361D01*
X1202427Y9847638D01*
X1202149Y9847823D01*
X1201964Y9848008D01*
X1201872D01*
X1188558Y9856421D01*
Y9866961D01*
X1205940Y9855959D01*
D02*
G37*
G36*
X10882791Y9872095D02*
X10854407D01*
Y9861186D01*
X10854500Y9860168D01*
Y9859429D01*
X10854592Y9858782D01*
X10854685Y9858319D01*
Y9857950D01*
X10854777Y9857765D01*
Y9857672D01*
X10855239Y9856193D01*
X10855517Y9855546D01*
X10855794Y9854991D01*
X10856072Y9854436D01*
X10856256Y9854066D01*
X10856349Y9853881D01*
X10856441Y9853789D01*
X10856996Y9853049D01*
X10857643Y9852310D01*
X10859030Y9850923D01*
X10859677Y9850276D01*
X10860232Y9849813D01*
X10860602Y9849536D01*
X10860694Y9849444D01*
X10861989Y9848519D01*
X10863376Y9847502D01*
X10864855Y9846485D01*
X10866242Y9845468D01*
X10867536Y9844636D01*
X10868553Y9843989D01*
X10868923Y9843711D01*
X10869200Y9843526D01*
X10869385Y9843342D01*
X10869478D01*
X10882791Y9834928D01*
Y9824388D01*
X10865410Y9835390D01*
X10863560Y9836685D01*
X10861896Y9837887D01*
X10860509Y9839089D01*
X10859215Y9840106D01*
X10858290Y9841030D01*
X10857551Y9841770D01*
X10857089Y9842232D01*
X10856904Y9842417D01*
X10856349Y9843157D01*
X10855702Y9843989D01*
X10854685Y9845653D01*
X10854315Y9846393D01*
X10853945Y9846947D01*
X10853760Y9847317D01*
X10853668Y9847502D01*
X10853390Y9845838D01*
X10853113Y9844266D01*
X10852651Y9842879D01*
X10852281Y9841492D01*
X10851819Y9840290D01*
X10851264Y9839181D01*
X10850802Y9838164D01*
X10850339Y9837239D01*
X10849784Y9836500D01*
X10849322Y9835760D01*
X10848952Y9835205D01*
X10848583Y9834743D01*
X10848305Y9834373D01*
X10848028Y9834096D01*
X10847935Y9834003D01*
X10847843Y9833911D01*
X10846918Y9833171D01*
X10845994Y9832432D01*
X10844052Y9831322D01*
X10842111Y9830583D01*
X10840262Y9830028D01*
X10838690Y9829658D01*
X10838043Y9829566D01*
X10837395D01*
X10836933Y9829473D01*
X10836563D01*
X10836378D01*
X10836286D01*
X10834344Y9829566D01*
X10832588Y9829843D01*
X10830923Y9830305D01*
X10829537Y9830767D01*
X10828335Y9831322D01*
X10827410Y9831692D01*
X10826855Y9832062D01*
X10826763Y9832154D01*
X10826670D01*
X10825191Y9833264D01*
X10823897Y9834373D01*
X10822787Y9835575D01*
X10821955Y9836685D01*
X10821308Y9837702D01*
X10820938Y9838534D01*
X10820661Y9839089D01*
X10820568Y9839181D01*
Y9839273D01*
X10820291Y9840106D01*
X10820014Y9841123D01*
X10819551Y9843157D01*
X10819274Y9845376D01*
X10818997Y9847410D01*
X10818904Y9849351D01*
Y9850183D01*
X10818812Y9850923D01*
Y9880601D01*
X10882791D01*
Y9872095D01*
D02*
G37*
G36*
X10841648Y9811999D02*
X10841001Y9810612D01*
X10840354Y9809225D01*
X10839707Y9807931D01*
X10839152Y9806821D01*
X10838690Y9805897D01*
X10838320Y9805342D01*
X10838227Y9805250D01*
Y9805157D01*
X10837210Y9803493D01*
X10836193Y9802014D01*
X10835269Y9800719D01*
X10834437Y9799702D01*
X10833790Y9798778D01*
X10833235Y9798223D01*
X10832865Y9797761D01*
X10832773Y9797668D01*
X10882791D01*
Y9789809D01*
X10818534D01*
Y9794895D01*
X10820106Y9795819D01*
X10821585Y9796836D01*
X10823065Y9798038D01*
X10824359Y9799148D01*
X10825469Y9800257D01*
X10826393Y9801089D01*
X10826670Y9801459D01*
X10826948Y9801736D01*
X10827040Y9801829D01*
X10827133Y9801921D01*
X10828705Y9803863D01*
X10830184Y9805804D01*
X10831478Y9807653D01*
X10832495Y9809503D01*
X10833420Y9811074D01*
X10833790Y9811722D01*
X10834067Y9812276D01*
X10834344Y9812739D01*
X10834437Y9813108D01*
X10834622Y9813293D01*
Y9813386D01*
X10842203D01*
X10841648Y9811999D01*
D02*
G37*
G36*
X10867351Y9769377D02*
X10868738Y9769099D01*
X10871327Y9768267D01*
X10873546Y9767250D01*
X10874470Y9766695D01*
X10875395Y9766141D01*
X10876227Y9765586D01*
X10876874Y9765031D01*
X10877521Y9764569D01*
X10877984Y9764107D01*
X10878353Y9763829D01*
X10878631Y9763552D01*
X10878816Y9763367D01*
X10878908Y9763275D01*
X10879740Y9762165D01*
X10880572Y9761056D01*
X10881220Y9759946D01*
X10881774Y9758744D01*
X10882699Y9756433D01*
X10883254Y9754214D01*
X10883438Y9753197D01*
X10883623Y9752272D01*
X10883716Y9751440D01*
X10883808Y9750701D01*
X10883901Y9750146D01*
Y9749314D01*
X10883808Y9747557D01*
X10883623Y9745985D01*
X10883346Y9744414D01*
X10882976Y9742934D01*
X10882514Y9741547D01*
X10882052Y9740346D01*
X10881497Y9739144D01*
X10880942Y9738127D01*
X10880480Y9737110D01*
X10879925Y9736277D01*
X10879463Y9735538D01*
X10879001Y9734983D01*
X10878631Y9734521D01*
X10878353Y9734151D01*
X10878168Y9733966D01*
X10878076Y9733874D01*
X10876967Y9732764D01*
X10875765Y9731840D01*
X10874563Y9731007D01*
X10873361Y9730268D01*
X10872251Y9729713D01*
X10871049Y9729158D01*
X10868830Y9728419D01*
X10867813Y9728234D01*
X10866889Y9728049D01*
X10866057Y9727864D01*
X10865317Y9727772D01*
X10864762Y9727679D01*
X10864300D01*
X10864023D01*
X10863930D01*
X10861711Y9727772D01*
X10859677Y9728141D01*
X10857921Y9728696D01*
X10856441Y9729251D01*
X10855239Y9729806D01*
X10854315Y9730360D01*
X10853760Y9730730D01*
X10853575Y9730823D01*
X10852188Y9732117D01*
X10850986Y9733504D01*
X10850062Y9734983D01*
X10849322Y9736462D01*
X10848767Y9737757D01*
X10848398Y9738774D01*
X10848305Y9739144D01*
X10848213Y9739421D01*
X10848120Y9739606D01*
Y9739698D01*
X10847288Y9738127D01*
X10846456Y9736832D01*
X10845532Y9735723D01*
X10844699Y9734798D01*
X10843960Y9734059D01*
X10843313Y9733504D01*
X10842943Y9733226D01*
X10842758Y9733134D01*
X10841463Y9732394D01*
X10840169Y9731840D01*
X10838875Y9731377D01*
X10837673Y9731100D01*
X10836656Y9730915D01*
X10835916Y9730823D01*
X10835361D01*
X10835176D01*
X10833605Y9730915D01*
X10832033Y9731192D01*
X10830646Y9731562D01*
X10829444Y9732024D01*
X10828427Y9732487D01*
X10827595Y9732857D01*
X10827133Y9733134D01*
X10826948Y9733226D01*
X10825561Y9734151D01*
X10824359Y9735260D01*
X10823342Y9736370D01*
X10822418Y9737479D01*
X10821770Y9738404D01*
X10821216Y9739236D01*
X10820938Y9739791D01*
X10820846Y9739883D01*
Y9739976D01*
X10820106Y9741640D01*
X10819551Y9743304D01*
X10819089Y9744968D01*
X10818812Y9746448D01*
X10818627Y9747650D01*
X10818534Y9748667D01*
Y9750978D01*
X10818719Y9752272D01*
X10819182Y9754769D01*
X10819921Y9756895D01*
X10820661Y9758744D01*
X10821123Y9759576D01*
X10821493Y9760224D01*
X10821863Y9760871D01*
X10822233Y9761333D01*
X10822510Y9761703D01*
X10822695Y9761980D01*
X10822787Y9762165D01*
X10822880Y9762258D01*
X10824636Y9764014D01*
X10826578Y9765401D01*
X10828612Y9766511D01*
X10830646Y9767435D01*
X10832403Y9767990D01*
X10833142Y9768267D01*
X10833790Y9768452D01*
X10834344Y9768545D01*
X10834714Y9768637D01*
X10834992Y9768730D01*
X10835084D01*
X10836471Y9760871D01*
X10834437Y9760501D01*
X10832680Y9759946D01*
X10831201Y9759299D01*
X10829999Y9758652D01*
X10829074Y9758005D01*
X10828427Y9757450D01*
X10827965Y9757080D01*
X10827872Y9756988D01*
X10826948Y9755786D01*
X10826208Y9754491D01*
X10825746Y9753289D01*
X10825376Y9752087D01*
X10825191Y9750978D01*
X10825006Y9750146D01*
Y9749406D01*
X10825099Y9747742D01*
X10825469Y9746263D01*
X10825931Y9744968D01*
X10826393Y9743859D01*
X10826948Y9743027D01*
X10827410Y9742380D01*
X10827780Y9741917D01*
X10827872Y9741825D01*
X10828982Y9740808D01*
X10830184Y9740068D01*
X10831386Y9739606D01*
X10832495Y9739236D01*
X10833512Y9739051D01*
X10834252Y9738866D01*
X10834807D01*
X10834899D01*
X10834992D01*
X10836009D01*
X10836933Y9739051D01*
X10838505Y9739513D01*
X10839892Y9740161D01*
X10841094Y9740900D01*
X10841926Y9741640D01*
X10842573Y9742287D01*
X10842943Y9742749D01*
X10843035Y9742842D01*
Y9742934D01*
X10843867Y9744506D01*
X10844515Y9745985D01*
X10844977Y9747557D01*
X10845254Y9748944D01*
X10845439Y9750146D01*
X10845624Y9751163D01*
Y9752365D01*
X10845532Y9752735D01*
Y9753197D01*
X10852466Y9754121D01*
X10852188Y9752920D01*
X10852003Y9751810D01*
X10851819Y9750886D01*
X10851726Y9750053D01*
X10851634Y9749406D01*
Y9748574D01*
X10851819Y9746633D01*
X10852188Y9744876D01*
X10852743Y9743304D01*
X10853390Y9742010D01*
X10854037Y9740993D01*
X10854592Y9740253D01*
X10854962Y9739791D01*
X10855147Y9739606D01*
X10856534Y9738404D01*
X10858013Y9737479D01*
X10859492Y9736832D01*
X10860972Y9736462D01*
X10862174Y9736185D01*
X10863191Y9736093D01*
X10863560Y9736000D01*
X10863838D01*
X10864023D01*
X10864115D01*
X10866149Y9736185D01*
X10867998Y9736647D01*
X10869570Y9737202D01*
X10870957Y9737942D01*
X10872066Y9738681D01*
X10872898Y9739236D01*
X10873453Y9739698D01*
X10873638Y9739883D01*
X10874933Y9741363D01*
X10875857Y9742934D01*
X10876504Y9744506D01*
X10876967Y9745985D01*
X10877244Y9747280D01*
X10877336Y9748297D01*
X10877429Y9748667D01*
Y9749221D01*
X10877336Y9750886D01*
X10876967Y9752457D01*
X10876504Y9753844D01*
X10875950Y9754954D01*
X10875487Y9755878D01*
X10875025Y9756618D01*
X10874655Y9756988D01*
X10874563Y9757173D01*
X10873268Y9758282D01*
X10871789Y9759207D01*
X10870217Y9760039D01*
X10868553Y9760686D01*
X10867166Y9761148D01*
X10866519Y9761333D01*
X10865964Y9761425D01*
X10865502Y9761518D01*
X10865132Y9761610D01*
X10864947Y9761703D01*
X10864855D01*
X10865872Y9769562D01*
X10867351Y9769377D01*
D02*
G37*
%LPC*%
G36*
X7233815Y6821203D02*
X7214769D01*
Y6800031D01*
X7234925D01*
X7237421Y6800123D01*
X7239547Y6800493D01*
X7241396Y6800955D01*
X7242783Y6801510D01*
X7243985Y6802065D01*
X7244725Y6802527D01*
X7245187Y6802897D01*
X7245372Y6802989D01*
X7246482Y6804191D01*
X7247314Y6805393D01*
X7247868Y6806688D01*
X7248331Y6807797D01*
X7248516Y6808907D01*
X7248608Y6809739D01*
X7248701Y6810293D01*
Y6810386D01*
Y6810478D01*
X7248608Y6811588D01*
X7248423Y6812697D01*
X7248146Y6813622D01*
X7247868Y6814454D01*
X7247499Y6815194D01*
X7247221Y6815748D01*
X7247036Y6816118D01*
X7246944Y6816211D01*
X7246297Y6817135D01*
X7245465Y6817967D01*
X7244632Y6818615D01*
X7243800Y6819169D01*
X7243061Y6819539D01*
X7242506Y6819816D01*
X7242136Y6820001D01*
X7241951Y6820094D01*
X7240657Y6820464D01*
X7239178Y6820741D01*
X7237698Y6820926D01*
X7236219Y6821018D01*
X7234925Y6821111D01*
X7233815Y6821203D01*
D02*
G37*
G36*
X7338568Y6828230D02*
X7338013D01*
X7336071Y6828045D01*
X7334315Y6827675D01*
X7332743Y6827028D01*
X7331356Y6826288D01*
X7330339Y6825641D01*
X7329507Y6824994D01*
X7329045Y6824624D01*
X7328860Y6824439D01*
X7327658Y6822960D01*
X7326733Y6821296D01*
X7326179Y6819632D01*
X7325716Y6818060D01*
X7325439Y6816673D01*
X7325347Y6816118D01*
Y6815563D01*
X7325254Y6815101D01*
Y6814824D01*
Y6814639D01*
Y6814546D01*
X7325439Y6812143D01*
X7325809Y6809924D01*
X7326456Y6807982D01*
X7327196Y6806410D01*
X7327843Y6805116D01*
X7328490Y6804191D01*
X7328675Y6803914D01*
X7328860Y6803637D01*
X7329045Y6803544D01*
Y6803452D01*
X7329784Y6802712D01*
X7330524Y6801972D01*
X7332096Y6800955D01*
X7333668Y6800123D01*
X7335147Y6799661D01*
X7336349Y6799291D01*
X7337366Y6799199D01*
X7337736Y6799106D01*
X7339215D01*
X7340139Y6799291D01*
X7341804Y6799753D01*
X7343283Y6800401D01*
X7344577Y6801048D01*
X7345594Y6801788D01*
X7346334Y6802435D01*
X7346796Y6802897D01*
X7346981Y6802989D01*
Y6803082D01*
X7348183Y6804654D01*
X7349108Y6806410D01*
X7349755Y6808259D01*
X7350125Y6810016D01*
X7350402Y6811495D01*
X7350495Y6812143D01*
Y6812790D01*
X7350587Y6813252D01*
Y6813622D01*
Y6813807D01*
Y6813899D01*
X7350402Y6816303D01*
X7350032Y6818430D01*
X7349478Y6820186D01*
X7348830Y6821666D01*
X7348091Y6822867D01*
X7347536Y6823700D01*
X7347166Y6824254D01*
X7346981Y6824439D01*
X7345594Y6825734D01*
X7344115Y6826658D01*
X7342636Y6827305D01*
X7341157Y6827768D01*
X7339955Y6828045D01*
X7338938Y6828137D01*
X7338568Y6828230D01*
D02*
G37*
G36*
X8068729Y2572804D02*
X8068266D01*
X8068081D01*
X8065862Y2572619D01*
X8063921Y2572250D01*
X8062164Y2571602D01*
X8060777Y2570955D01*
X8059575Y2570308D01*
X8058743Y2569661D01*
X8058281Y2569291D01*
X8058096Y2569106D01*
X8056802Y2567627D01*
X8055877Y2566148D01*
X8055138Y2564576D01*
X8054675Y2563189D01*
X8054398Y2561895D01*
X8054305Y2560970D01*
X8054213Y2560600D01*
Y2560045D01*
X8054398Y2558104D01*
X8054860Y2556347D01*
X8055415Y2554868D01*
X8056155Y2553574D01*
X8056894Y2552556D01*
X8057449Y2551817D01*
X8057911Y2551355D01*
X8058096Y2551170D01*
X8059668Y2549968D01*
X8061332Y2549043D01*
X8063089Y2548396D01*
X8064753Y2548026D01*
X8066232Y2547749D01*
X8066879Y2547656D01*
X8067434D01*
X8067896Y2547564D01*
X8068266D01*
X8068451D01*
X8068544D01*
X8071040Y2547749D01*
X8073166Y2548119D01*
X8075016Y2548673D01*
X8076587Y2549321D01*
X8077789Y2550060D01*
X8078714Y2550615D01*
X8079269Y2550985D01*
X8079361Y2551170D01*
X8079453D01*
X8080193Y2551817D01*
X8080748Y2552556D01*
X8081765Y2554036D01*
X8082412Y2555515D01*
X8082967Y2556809D01*
X8083244Y2558011D01*
X8083337Y2558936D01*
X8083429Y2559306D01*
Y2559768D01*
X8083337Y2561062D01*
X8083152Y2562264D01*
X8082782Y2563374D01*
X8082412Y2564298D01*
X8082135Y2565131D01*
X8081765Y2565778D01*
X8081580Y2566148D01*
X8081488Y2566332D01*
X8080655Y2567442D01*
X8079823Y2568366D01*
X8078806Y2569199D01*
X8077974Y2569846D01*
X8077142Y2570400D01*
X8076495Y2570770D01*
X8076033Y2571048D01*
X8075848Y2571140D01*
X8074461Y2571695D01*
X8073074Y2572065D01*
X8071780Y2572435D01*
X8070578Y2572619D01*
X8069561Y2572712D01*
X8068729Y2572804D01*
D02*
G37*
G36*
X26407495Y10383069D02*
X26387341D01*
X26384845Y10382976D01*
X26382718Y10382606D01*
X26380869Y10382144D01*
X26379480Y10381589D01*
X26378278Y10381035D01*
X26377539Y10380572D01*
X26377078Y10380203D01*
X26376892Y10380110D01*
X26375784Y10378908D01*
X26374951Y10377706D01*
X26374396Y10376412D01*
X26373935Y10375302D01*
X26373749Y10374193D01*
X26373657Y10373361D01*
X26373563Y10372806D01*
Y10372714D01*
Y10372621D01*
X26373657Y10371512D01*
X26373840Y10370402D01*
X26374118Y10369478D01*
X26374396Y10368646D01*
X26374765Y10367906D01*
X26375043Y10367351D01*
X26375229Y10366981D01*
X26375320Y10366889D01*
X26375967Y10365964D01*
X26376801Y10365132D01*
X26377631Y10364485D01*
X26378464Y10363930D01*
X26379205Y10363560D01*
X26379758Y10363283D01*
X26380127Y10363098D01*
X26380313Y10363006D01*
X26381607Y10362636D01*
X26383087Y10362358D01*
X26384567Y10362174D01*
X26386047Y10362081D01*
X26387341Y10361989D01*
X26388449Y10361896D01*
X26407495D01*
Y10383069D01*
D02*
G37*
G36*
X26284805Y10383993D02*
X26284250D01*
X26283234Y10383901D01*
X26282217Y10383808D01*
X26281293Y10383531D01*
X26280460Y10383161D01*
X26278888Y10382329D01*
X26277502Y10381404D01*
X26276486Y10380387D01*
X26275653Y10379555D01*
X26275375Y10379185D01*
X26275192Y10378908D01*
X26275006Y10378816D01*
Y10378723D01*
X26274359Y10377614D01*
X26273804Y10376319D01*
X26273248Y10374840D01*
X26272879Y10373268D01*
X26272510Y10371604D01*
X26272232Y10369847D01*
X26271771Y10366334D01*
X26271585Y10364577D01*
X26271494Y10363006D01*
X26271399Y10361526D01*
Y10360324D01*
X26271307Y10359215D01*
Y10358383D01*
Y10357921D01*
Y10357828D01*
Y10357736D01*
Y10354870D01*
X26271494Y10352281D01*
X26271677Y10349969D01*
X26271863Y10347750D01*
X26272141Y10345901D01*
X26272510Y10344145D01*
X26272879Y10342665D01*
X26273157Y10341279D01*
X26273526Y10340169D01*
X26273895Y10339244D01*
X26274173Y10338412D01*
X26274545Y10337765D01*
X26274728Y10337303D01*
X26274911Y10337026D01*
X26275098Y10336841D01*
Y10336748D01*
X26275839Y10335824D01*
X26276578Y10335084D01*
X26277316Y10334344D01*
X26278058Y10333790D01*
X26279630Y10332865D01*
X26281015Y10332218D01*
X26282309Y10331848D01*
X26283234Y10331663D01*
X26283603Y10331571D01*
X26284158D01*
X26285175Y10331663D01*
X26286102Y10331756D01*
X26287857Y10332403D01*
X26289429Y10333235D01*
X26290817Y10334159D01*
X26291833Y10335084D01*
X26292664Y10335916D01*
X26293127Y10336563D01*
X26293311Y10336656D01*
Y10336748D01*
X26293958Y10337858D01*
X26294513Y10339152D01*
X26295068Y10340631D01*
X26295438Y10342203D01*
X26295807Y10343867D01*
X26296085Y10345624D01*
X26296548Y10349230D01*
X26296732Y10350894D01*
X26296826Y10352466D01*
X26296918Y10353945D01*
Y10355147D01*
X26297009Y10356256D01*
Y10357089D01*
Y10357551D01*
Y10357736D01*
X26296918Y10360602D01*
X26296826Y10363191D01*
X26296640Y10365594D01*
X26296362Y10367813D01*
X26296085Y10369755D01*
X26295715Y10371512D01*
X26295346Y10373083D01*
X26294977Y10374470D01*
X26294608Y10375672D01*
X26294330Y10376689D01*
X26293958Y10377521D01*
X26293683Y10378261D01*
X26293405Y10378723D01*
X26293219Y10379093D01*
X26293036Y10379278D01*
Y10379370D01*
X26292389Y10380203D01*
X26291739Y10380942D01*
X26291000Y10381497D01*
X26290262Y10382052D01*
X26288782Y10382884D01*
X26287396Y10383438D01*
X26286194Y10383716D01*
X26285175Y10383901D01*
X26284805Y10383993D01*
D02*
G37*
G36*
X7597013Y9808595D02*
X7575840D01*
Y9788440D01*
X7575933Y9785944D01*
X7576303Y9783817D01*
X7576765Y9781968D01*
X7577320Y9780581D01*
X7577874Y9779379D01*
X7578337Y9778640D01*
X7578706Y9778177D01*
X7578799Y9777992D01*
X7580001Y9776883D01*
X7581203Y9776051D01*
X7582497Y9775496D01*
X7583607Y9775034D01*
X7584716Y9774849D01*
X7585548Y9774756D01*
X7586103Y9774664D01*
X7586195D01*
X7586288D01*
X7587397Y9774756D01*
X7588507Y9774941D01*
X7589431Y9775219D01*
X7590263Y9775496D01*
X7591003Y9775866D01*
X7591558Y9776143D01*
X7591928Y9776328D01*
X7592020Y9776421D01*
X7592945Y9777068D01*
X7593777Y9777900D01*
X7594424Y9778732D01*
X7594979Y9779564D01*
X7595349Y9780304D01*
X7595626Y9780859D01*
X7595811Y9781228D01*
X7595903Y9781413D01*
X7596273Y9782708D01*
X7596550Y9784187D01*
X7596735Y9785666D01*
X7596828Y9787146D01*
X7596920Y9788440D01*
X7597013Y9789549D01*
Y9808595D01*
D02*
G37*
G36*
X4416203Y9912235D02*
X4415833D01*
X4415649D01*
X4415556D01*
X4413060Y9912051D01*
X4410933Y9911681D01*
X4409084Y9911126D01*
X4407512Y9910479D01*
X4406310Y9909739D01*
X4405386Y9909184D01*
X4404831Y9908815D01*
X4404739Y9908630D01*
X4404646D01*
X4403907Y9907982D01*
X4403352Y9907243D01*
X4402335Y9905764D01*
X4401688Y9904284D01*
X4401133Y9902990D01*
X4400856Y9901788D01*
X4400763Y9900863D01*
X4400671Y9900494D01*
Y9900031D01*
X4400763Y9898737D01*
X4400948Y9897535D01*
X4401318Y9896425D01*
X4401688Y9895501D01*
X4401965Y9894669D01*
X4402335Y9894022D01*
X4402520Y9893652D01*
X4402612Y9893467D01*
X4403444Y9892357D01*
X4404276Y9891433D01*
X4405293Y9890601D01*
X4406126Y9889954D01*
X4406958Y9889399D01*
X4407605Y9889029D01*
X4408067Y9888752D01*
X4408252Y9888659D01*
X4409639Y9888104D01*
X4411026Y9887735D01*
X4412320Y9887365D01*
X4413522Y9887180D01*
X4414539Y9887087D01*
X4415371Y9886995D01*
X4415833D01*
X4416018D01*
X4418237Y9887180D01*
X4420179Y9887550D01*
X4421936Y9888197D01*
X4423322Y9888844D01*
X4424524Y9889491D01*
X4425356Y9890138D01*
X4425819Y9890508D01*
X4426004Y9890693D01*
X4427298Y9892172D01*
X4428223Y9893652D01*
X4428962Y9895224D01*
X4429424Y9896610D01*
X4429702Y9897905D01*
X4429794Y9898829D01*
X4429887Y9899199D01*
Y9899754D01*
X4429702Y9901695D01*
X4429240Y9903452D01*
X4428685Y9904931D01*
X4427945Y9906226D01*
X4427206Y9907243D01*
X4426651Y9907982D01*
X4426189Y9908445D01*
X4426004Y9908630D01*
X4424432Y9909832D01*
X4422768Y9910756D01*
X4421011Y9911403D01*
X4419347Y9911773D01*
X4417867Y9912051D01*
X4417220Y9912143D01*
X4416666D01*
X4416203Y9912235D01*
D02*
G37*
G36*
X4441906Y9859536D02*
X4441814D01*
X4441721D01*
X4440612Y9859443D01*
X4439502Y9859258D01*
X4438578Y9858981D01*
X4437746Y9858703D01*
X4437006Y9858334D01*
X4436451Y9858056D01*
X4436081Y9857871D01*
X4435989Y9857779D01*
X4435064Y9857132D01*
X4434232Y9856300D01*
X4433585Y9855467D01*
X4433030Y9854635D01*
X4432660Y9853896D01*
X4432383Y9853341D01*
X4432198Y9852971D01*
X4432106Y9852786D01*
X4431736Y9851492D01*
X4431458Y9850013D01*
X4431274Y9848533D01*
X4431181Y9847054D01*
X4431089Y9845760D01*
X4430996Y9844650D01*
Y9825604D01*
X4452169D01*
Y9845760D01*
X4452076Y9848256D01*
X4451706Y9850382D01*
X4451244Y9852232D01*
X4450689Y9853618D01*
X4450135Y9854820D01*
X4449672Y9855560D01*
X4449303Y9856022D01*
X4449210Y9856207D01*
X4448008Y9857317D01*
X4446806Y9858149D01*
X4445512Y9858703D01*
X4444402Y9859166D01*
X4443293Y9859351D01*
X4442461Y9859443D01*
X4441906Y9859536D01*
D02*
G37*
G36*
X1235156Y9853186D02*
X1235064D01*
X1234971D01*
X1233862Y9853093D01*
X1232752Y9852908D01*
X1231828Y9852631D01*
X1230996Y9852353D01*
X1230256Y9851984D01*
X1229701Y9851706D01*
X1229331Y9851521D01*
X1229239Y9851429D01*
X1228314Y9850782D01*
X1227482Y9849950D01*
X1226835Y9849117D01*
X1226280Y9848285D01*
X1225910Y9847546D01*
X1225633Y9846991D01*
X1225448Y9846621D01*
X1225356Y9846436D01*
X1224986Y9845142D01*
X1224708Y9843663D01*
X1224524Y9842183D01*
X1224431Y9840704D01*
X1224339Y9839410D01*
X1224246Y9838300D01*
Y9819254D01*
X1245419D01*
Y9839410D01*
X1245326Y9841906D01*
X1244956Y9844032D01*
X1244494Y9845882D01*
X1243939Y9847268D01*
X1243385Y9848470D01*
X1242922Y9849210D01*
X1242553Y9849672D01*
X1242460Y9849857D01*
X1241258Y9850967D01*
X1240056Y9851799D01*
X1238762Y9852353D01*
X1237652Y9852816D01*
X1236543Y9853001D01*
X1235711Y9853093D01*
X1235156Y9853186D01*
D02*
G37*
G36*
X10847103Y9872095D02*
X10825931D01*
Y9851940D01*
X10826023Y9849444D01*
X10826393Y9847317D01*
X10826855Y9845468D01*
X10827410Y9844081D01*
X10827965Y9842879D01*
X10828427Y9842140D01*
X10828797Y9841677D01*
X10828889Y9841492D01*
X10830091Y9840383D01*
X10831293Y9839551D01*
X10832588Y9838996D01*
X10833697Y9838534D01*
X10834807Y9838349D01*
X10835639Y9838256D01*
X10836193Y9838164D01*
X10836286D01*
X10836378D01*
X10837488Y9838256D01*
X10838597Y9838441D01*
X10839522Y9838719D01*
X10840354Y9838996D01*
X10841094Y9839366D01*
X10841648Y9839643D01*
X10842018Y9839828D01*
X10842111Y9839921D01*
X10843035Y9840568D01*
X10843867Y9841400D01*
X10844515Y9842232D01*
X10845069Y9843064D01*
X10845439Y9843804D01*
X10845716Y9844359D01*
X10845901Y9844728D01*
X10845994Y9844913D01*
X10846364Y9846208D01*
X10846641Y9847687D01*
X10846826Y9849166D01*
X10846918Y9850646D01*
X10847011Y9851940D01*
X10847103Y9853049D01*
Y9872095D01*
D02*
G37*
%LPD*%
D63*
X6975955Y6697690D02*
X7436575D01*
Y7018310D01*
X6975955D02*
X7436575D01*
X6975955Y6697690D02*
Y7018310D01*
X7767400Y1997700D02*
Y3287700D01*
Y1997700D02*
X8412400D01*
Y3287700D01*
X7767400D02*
X8412400D01*
X6840300Y3286600D02*
X7485300D01*
Y1996600D02*
Y3286600D01*
X6840300Y1996600D02*
X7485300D01*
X6840300D02*
Y3286600D01*
X26646310Y10164790D02*
Y10485410D01*
X26185690Y10164790D02*
X26646310D01*
X26185690D02*
Y10485410D01*
X26646310D01*
X7442390Y9541790D02*
Y10092410D01*
Y9541790D02*
X7823010D01*
Y10092410D01*
X7442390D02*
X7823010D01*
X4203890Y9541790D02*
X4584510D01*
X4203890D02*
Y10092410D01*
X4584510D01*
Y9541790D02*
Y10092410D01*
X997140Y9535440D02*
X1377760D01*
X997140D02*
Y10086060D01*
X1377760D01*
Y9535440D02*
Y10086060D01*
X10693590Y10155910D02*
X11074210D01*
Y9605290D02*
Y10155910D01*
X10693590Y9605290D02*
X11074210D01*
X10693590D02*
Y10155910D01*
D96*
X8414200Y5370300D02*
X9266700D01*
X8414200Y5780300D02*
X9266700D01*
X8414200Y5370300D02*
Y5780300D01*
X9266700Y5370300D02*
Y5780300D01*
X4553400Y5357600D02*
X5405900D01*
X4553400Y5767600D02*
X5405900D01*
X4553400Y5357600D02*
Y5767600D01*
X5405900Y5357600D02*
Y5767600D01*
X7010400Y6337300D02*
X7315200D01*
X7010400Y6489700D02*
X7315200D01*
X7010400Y6337300D02*
Y6489700D01*
X7315200Y6337300D02*
Y6489700D01*
X7010400Y5981700D02*
X7315200D01*
X7010400Y6134100D02*
X7315200D01*
X7010400Y5981700D02*
Y6134100D01*
X7315200Y5981700D02*
Y6134100D01*
X7874016Y3986200D02*
X8026416D01*
X7874016Y3681400D02*
X8026416D01*
X7874016D02*
Y3986200D01*
X8026416Y3681400D02*
Y3986200D01*
X8064500Y3987800D02*
X8216900D01*
X8064500Y3683000D02*
X8216900D01*
X8064500D02*
Y3987800D01*
X8216900Y3683000D02*
Y3987800D01*
X26132300Y10120100D02*
Y10530100D01*
X25279800Y10120100D02*
Y10530100D01*
X26132300D01*
X25279800Y10120100D02*
X26132300D01*
X24390800D02*
X25243300D01*
X24390800Y10530100D02*
X25243300D01*
X24390800Y10120100D02*
Y10530100D01*
X25243300Y10120100D02*
Y10530100D01*
X23514500Y10120100D02*
X24367000D01*
X23514500Y10530100D02*
X24367000D01*
X23514500Y10120100D02*
Y10530100D01*
X24367000Y10120100D02*
Y10530100D01*
X8877300Y10464800D02*
X9182100D01*
X8877300Y10617200D02*
X9182100D01*
X8877300Y10464800D02*
Y10617200D01*
X9182100Y10464800D02*
Y10617200D01*
X5626100Y10477500D02*
X5930900D01*
X5626100Y10629900D02*
X5930900D01*
X5626100Y10477500D02*
Y10629900D01*
X5930900Y10477500D02*
Y10629900D01*
X2425700Y10401300D02*
X2730500D01*
X2425700Y10553700D02*
X2730500D01*
X2425700Y10401300D02*
Y10553700D01*
X2730500Y10401300D02*
Y10553700D01*
X7018800Y8469100D02*
Y8879100D01*
X6166300Y8469100D02*
Y8879100D01*
X7018800D01*
X6166300Y8469100D02*
X7018800D01*
X6119800Y8473600D02*
Y8883600D01*
X5267300Y8473600D02*
Y8883600D01*
X6119800D01*
X5267300Y8473600D02*
X6119800D01*
X7068000Y8469100D02*
X7920500D01*
X7068000Y8879100D02*
X7920500D01*
X7068000Y8469100D02*
Y8879100D01*
X7920500Y8469100D02*
Y8879100D01*
X12407900Y10515600D02*
Y10668000D01*
X12103100Y10515600D02*
Y10668000D01*
X12407900D01*
X12103100Y10515600D02*
X12407900D01*
X6118200Y2203500D02*
X6353200D01*
X6118200Y1733500D02*
X6353200D01*
X6118200D02*
Y2203500D01*
X6353200Y1733500D02*
Y2203500D01*
X24990401Y955200D02*
X25842899D01*
X24990401Y1365200D02*
X25842899D01*
X24990401Y955200D02*
Y1365200D01*
X25842899Y955200D02*
Y1365200D01*
X24977699Y5755800D02*
X25830200D01*
X24977699Y6165800D02*
X25830200D01*
X24977699Y5755800D02*
Y6165800D01*
X25830200Y5755800D02*
Y6165800D01*
X24990401Y3355500D02*
X25842899D01*
X24990401Y3765500D02*
X25842899D01*
X24990401Y3355500D02*
Y3765500D01*
X25842899Y3355500D02*
Y3765500D01*
X22587399Y950700D02*
X23439900D01*
X22587399Y1360700D02*
X23439900D01*
X22587399Y950700D02*
Y1360700D01*
X23439900Y950700D02*
Y1360700D01*
X22574699Y3363700D02*
X23427200D01*
X22574699Y3773700D02*
X23427200D01*
X22574699Y3363700D02*
Y3773700D01*
X23427200Y3363700D02*
Y3773700D01*
X22577400Y5743100D02*
X23429900D01*
X22577400Y6153100D02*
X23429900D01*
X22577400Y5743100D02*
Y6153100D01*
X23429900Y5743100D02*
Y6153100D01*
X8839200Y5575300D02*
Y5645278D01*
X8804211D01*
X8792548Y5633615D01*
Y5610289D01*
X8804211Y5598626D01*
X8839200D01*
X8815874D02*
X8792548Y5575300D01*
X8722571D02*
X8769222D01*
X8722571Y5621952D01*
Y5633615D01*
X8734234Y5645278D01*
X8757560D01*
X8769222Y5633615D01*
X8699245D02*
X8687582Y5645278D01*
X8664256D01*
X8652593Y5633615D01*
Y5621952D01*
X8664256Y5610289D01*
X8652593Y5598626D01*
Y5586963D01*
X8664256Y5575300D01*
X8687582D01*
X8699245Y5586963D01*
Y5598626D01*
X8687582Y5610289D01*
X8699245Y5621952D01*
Y5633615D01*
X8687582Y5610289D02*
X8664256D01*
X4978400Y5562600D02*
Y5632578D01*
X4943411D01*
X4931748Y5620915D01*
Y5597589D01*
X4943411Y5585926D01*
X4978400D01*
X4955074D02*
X4931748Y5562600D01*
X4861771D02*
X4908422D01*
X4861771Y5609252D01*
Y5620915D01*
X4873434Y5632578D01*
X4896760D01*
X4908422Y5620915D01*
X4838445Y5632578D02*
X4791793D01*
Y5620915D01*
X4838445Y5574263D01*
Y5562600D01*
X7260300Y6378500D02*
Y6448478D01*
X7225311D01*
X7213648Y6436815D01*
Y6413489D01*
X7225311Y6401826D01*
X7260300D01*
X7236974D02*
X7213648Y6378500D01*
X7190322D02*
X7166997D01*
X7178660D01*
Y6448478D01*
X7190322Y6436815D01*
X7085356Y6378500D02*
X7132008D01*
X7085356Y6425152D01*
Y6436815D01*
X7097019Y6448478D01*
X7120345D01*
X7132008Y6436815D01*
X7260300Y6022900D02*
Y6092878D01*
X7225311D01*
X7213648Y6081215D01*
Y6057889D01*
X7225311Y6046226D01*
X7260300D01*
X7236974D02*
X7213648Y6022900D01*
X7190322D02*
X7166997D01*
X7178660D01*
Y6092878D01*
X7190322Y6081215D01*
X7132008Y6092878D02*
X7085356D01*
Y6081215D01*
X7132008Y6034563D01*
Y6022900D01*
X7985216Y3931300D02*
X7915239D01*
Y3896311D01*
X7926902Y3884648D01*
X7950227D01*
X7961890Y3896311D01*
Y3931300D01*
Y3907974D02*
X7985216Y3884648D01*
Y3861322D02*
Y3837997D01*
Y3849660D01*
X7915239D01*
X7926902Y3861322D01*
X7985216Y3768019D02*
X7915239D01*
X7950227Y3803008D01*
Y3756356D01*
X8175700Y3932900D02*
X8105722D01*
Y3897911D01*
X8117385Y3886248D01*
X8140711D01*
X8152374Y3897911D01*
Y3932900D01*
Y3909574D02*
X8175700Y3886248D01*
Y3862922D02*
Y3839597D01*
Y3851260D01*
X8105722D01*
X8117385Y3862922D01*
Y3804608D02*
X8105722Y3792945D01*
Y3769619D01*
X8117385Y3757956D01*
X8129048D01*
X8140711Y3769619D01*
X8152374Y3757956D01*
X8164037D01*
X8175700Y3769619D01*
Y3792945D01*
X8164037Y3804608D01*
X8152374D01*
X8140711Y3792945D01*
X8129048Y3804608D01*
X8117385D01*
X8140711Y3792945D02*
Y3769619D01*
X25704800Y10325100D02*
Y10395078D01*
X25669812D01*
X25658148Y10383415D01*
Y10360089D01*
X25669812Y10348426D01*
X25704800D01*
X25681473D02*
X25658148Y10325100D01*
X25634821Y10336763D02*
X25623160Y10325100D01*
X25599834D01*
X25588171Y10336763D01*
Y10383415D01*
X25599834Y10395078D01*
X25623160D01*
X25634821Y10383415D01*
Y10371752D01*
X25623160Y10360089D01*
X25588171D01*
X24815800Y10325100D02*
Y10395078D01*
X24780811D01*
X24769148Y10383415D01*
Y10360089D01*
X24780811Y10348426D01*
X24815800D01*
X24792474D02*
X24769148Y10325100D01*
X24745822Y10395078D02*
X24699171D01*
Y10383415D01*
X24745822Y10336763D01*
Y10325100D01*
X23939500D02*
Y10395078D01*
X23904510D01*
X23892848Y10383415D01*
Y10360089D01*
X23904510Y10348426D01*
X23939500D01*
X23916174D02*
X23892848Y10325100D01*
X23869522D02*
X23846198D01*
X23857860D01*
Y10395078D01*
X23869522Y10383415D01*
X9127200Y10506000D02*
Y10575978D01*
X9092211D01*
X9080548Y10564315D01*
Y10540989D01*
X9092211Y10529326D01*
X9127200D01*
X9103874D02*
X9080548Y10506000D01*
X9057222D02*
X9033897D01*
X9045560D01*
Y10575978D01*
X9057222Y10564315D01*
X8952256Y10575978D02*
X8975582Y10564315D01*
X8998908Y10540989D01*
Y10517663D01*
X8987245Y10506000D01*
X8963919D01*
X8952256Y10517663D01*
Y10529326D01*
X8963919Y10540989D01*
X8998908D01*
X5876000Y10518700D02*
Y10588678D01*
X5841011D01*
X5829348Y10577015D01*
Y10553689D01*
X5841011Y10542026D01*
X5876000D01*
X5852674D02*
X5829348Y10518700D01*
X5771034D02*
Y10588678D01*
X5806022Y10553689D01*
X5759371D01*
X2675600Y10442500D02*
Y10512478D01*
X2640611D01*
X2628948Y10500815D01*
Y10477489D01*
X2640611Y10465826D01*
X2675600D01*
X2652274D02*
X2628948Y10442500D01*
X2605622Y10500815D02*
X2593960Y10512478D01*
X2570634D01*
X2558971Y10500815D01*
Y10489152D01*
X2570634Y10477489D01*
X2582297D01*
X2570634D01*
X2558971Y10465826D01*
Y10454163D01*
X2570634Y10442500D01*
X2593960D01*
X2605622Y10454163D01*
X6591300Y8674100D02*
Y8744078D01*
X6556311D01*
X6544648Y8732415D01*
Y8709089D01*
X6556311Y8697426D01*
X6591300D01*
X6567974D02*
X6544648Y8674100D01*
X6521322Y8732415D02*
X6509660Y8744078D01*
X6486334D01*
X6474671Y8732415D01*
Y8720752D01*
X6486334Y8709089D01*
X6474671Y8697426D01*
Y8685763D01*
X6486334Y8674100D01*
X6509660D01*
X6521322Y8685763D01*
Y8697426D01*
X6509660Y8709089D01*
X6521322Y8720752D01*
Y8732415D01*
X6509660Y8709089D02*
X6486334D01*
X5692300Y8678600D02*
Y8748578D01*
X5657311D01*
X5645648Y8736915D01*
Y8713589D01*
X5657311Y8701926D01*
X5692300D01*
X5668974D02*
X5645648Y8678600D01*
X5575671D02*
X5622323D01*
X5575671Y8725252D01*
Y8736915D01*
X5587334Y8748578D01*
X5610660D01*
X5622323Y8736915D01*
X7493000Y8674100D02*
Y8744078D01*
X7458011D01*
X7446348Y8732415D01*
Y8709089D01*
X7458011Y8697426D01*
X7493000D01*
X7469674D02*
X7446348Y8674100D01*
X7423022D02*
X7399697D01*
X7411360D01*
Y8744078D01*
X7423022Y8732415D01*
X7364708D02*
X7353045Y8744078D01*
X7329719D01*
X7318056Y8732415D01*
Y8685763D01*
X7329719Y8674100D01*
X7353045D01*
X7364708Y8685763D01*
Y8732415D01*
X12353000Y10556800D02*
Y10626778D01*
X12318011D01*
X12306348Y10615115D01*
Y10591789D01*
X12318011Y10580126D01*
X12353000D01*
X12329674D02*
X12306348Y10556800D01*
X12283022D02*
X12259697D01*
X12271360D01*
Y10626778D01*
X12283022Y10615115D01*
X12178056Y10626778D02*
X12224708D01*
Y10591789D01*
X12201382Y10603452D01*
X12189719D01*
X12178056Y10591789D01*
Y10568463D01*
X12189719Y10556800D01*
X12213045D01*
X12224708Y10568463D01*
X6209885Y2014348D02*
X6198223Y2026011D01*
Y2049337D01*
X6209885Y2061000D01*
X6256537D01*
X6268200Y2049337D01*
Y2026011D01*
X6256537Y2014348D01*
X6268200Y1944371D02*
Y1991022D01*
X6221548Y1944371D01*
X6209885D01*
X6198223Y1956034D01*
Y1979360D01*
X6209885Y1991022D01*
X6256537Y1921045D02*
X6268200Y1909382D01*
Y1886056D01*
X6256537Y1874393D01*
X6209885D01*
X6198223Y1886056D01*
Y1909382D01*
X6209885Y1921045D01*
X6221548D01*
X6233211Y1909382D01*
Y1874393D01*
X25415401Y1160200D02*
Y1230178D01*
X25380411D01*
X25368748Y1218515D01*
Y1195189D01*
X25380411Y1183526D01*
X25415401D01*
X25392075D02*
X25368748Y1160200D01*
X25298772D02*
X25345422D01*
X25298772Y1206852D01*
Y1218515D01*
X25310434Y1230178D01*
X25333760D01*
X25345422Y1218515D01*
X25228793Y1230178D02*
X25252119Y1218515D01*
X25275446Y1195189D01*
Y1171863D01*
X25263782Y1160200D01*
X25240456D01*
X25228793Y1171863D01*
Y1183526D01*
X25240456Y1195189D01*
X25275446D01*
X25402699Y5960800D02*
Y6030778D01*
X25367711D01*
X25356049Y6019115D01*
Y5995789D01*
X25367711Y5984126D01*
X25402699D01*
X25379375D02*
X25356049Y5960800D01*
X25286070D02*
X25332722D01*
X25286070Y6007452D01*
Y6019115D01*
X25297734Y6030778D01*
X25321060D01*
X25332722Y6019115D01*
X25227756Y5960800D02*
Y6030778D01*
X25262746Y5995789D01*
X25216093D01*
X25415401Y3560500D02*
Y3630478D01*
X25380411D01*
X25368748Y3618815D01*
Y3595489D01*
X25380411Y3583826D01*
X25415401D01*
X25392075D02*
X25368748Y3560500D01*
X25298772D02*
X25345422D01*
X25298772Y3607152D01*
Y3618815D01*
X25310434Y3630478D01*
X25333760D01*
X25345422Y3618815D01*
X25228793Y3630478D02*
X25275446D01*
Y3595489D01*
X25252119Y3607152D01*
X25240456D01*
X25228793Y3595489D01*
Y3572163D01*
X25240456Y3560500D01*
X25263782D01*
X25275446Y3572163D01*
X23012399Y1155700D02*
Y1225678D01*
X22977411D01*
X22965749Y1214015D01*
Y1190689D01*
X22977411Y1179026D01*
X23012399D01*
X22989075D02*
X22965749Y1155700D01*
X22895770D02*
X22942422D01*
X22895770Y1202352D01*
Y1214015D01*
X22907434Y1225678D01*
X22930760D01*
X22942422Y1214015D01*
X22825793Y1155700D02*
X22872446D01*
X22825793Y1202352D01*
Y1214015D01*
X22837456Y1225678D01*
X22860782D01*
X22872446Y1214015D01*
X22999699Y3568700D02*
Y3638678D01*
X22964711D01*
X22953049Y3627015D01*
Y3603689D01*
X22964711Y3592026D01*
X22999699D01*
X22976373D02*
X22953049Y3568700D01*
X22883070D02*
X22929723D01*
X22883070Y3615352D01*
Y3627015D01*
X22894734Y3638678D01*
X22918060D01*
X22929723Y3627015D01*
X22859744D02*
X22848082Y3638678D01*
X22824756D01*
X22813094Y3627015D01*
Y3615352D01*
X22824756Y3603689D01*
X22836420D01*
X22824756D01*
X22813094Y3592026D01*
Y3580363D01*
X22824756Y3568700D01*
X22848082D01*
X22859744Y3580363D01*
X23002400Y5948100D02*
Y6018078D01*
X22967410D01*
X22955748Y6006415D01*
Y5983089D01*
X22967410Y5971426D01*
X23002400D01*
X22979074D02*
X22955748Y5948100D01*
X22885771D02*
X22932423D01*
X22885771Y5994752D01*
Y6006415D01*
X22897433Y6018078D01*
X22920760D01*
X22932423Y6006415D01*
X22862445Y5948100D02*
X22839119D01*
X22850781D01*
Y6018078D01*
X22862445Y6006415D01*
%TF.MD5,fcd2f18d42540bd3559edea73e76ca42*%
M02*
