%TF.GenerationSoftware,Altium Limited,Altium Designer,24.3.1 (35)*%
G04 Layer_Color=0*
%FSLAX45Y45*%
%MOMM*%
%TF.SameCoordinates,844131A9-2E1B-4A61-BE1F-69DE975881E6*%
%TF.FilePolarity,Positive*%
%TF.FileFunction,Plated,1,2,PTH,Drill*%
%TF.Part,Single*%
G01*
G75*
%TA.AperFunction,ComponentDrill*%
%ADD99C,1.00000*%
%ADD100C,2.00000*%
%ADD101C,0.95000*%
%ADD102C,0.95000*%
%ADD103C,1.01600*%
%ADD104C,1.80000*%
%ADD105C,1.20000*%
%ADD106C,1.00000*%
%ADD107O,2.28600X4.95300*%
%ADD108C,0.76200*%
%ADD109C,1.45000*%
%ADD110C,1.30000*%
%ADD111C,2.03200*%
%ADD112C,2.15900*%
%ADD113C,4.50000*%
%ADD114C,5.00000*%
%ADD115C,6.00000*%
%ADD116C,1.30000*%
%TA.AperFunction,ViaDrill,NotFilled*%
%ADD117C,0.71120*%
%ADD118C,0.40000*%
D99*
X6668000Y650000D02*
D03*
X4890000D02*
D03*
X6922000D02*
D03*
X7176000D02*
D03*
X6414000D02*
D03*
X5144000D02*
D03*
X7684000D02*
D03*
X6160000D02*
D03*
X8446000D02*
D03*
X8192000D02*
D03*
X7938000D02*
D03*
X5398000D02*
D03*
X7430000D02*
D03*
X5906000D02*
D03*
X8700000D02*
D03*
X5652000D02*
D03*
D100*
X4508500Y6070600D02*
D03*
X5486400D02*
D03*
X8343900Y6083300D02*
D03*
X9321800D02*
D03*
D101*
X6692900Y3822700D02*
D03*
X8674100Y2616200D02*
D03*
X8191500Y254000D02*
D03*
X1612900Y9156700D02*
D03*
X9194800Y254000D02*
D03*
X8064500Y10541000D02*
D03*
X7366000Y8102600D02*
D03*
X4813300Y10553700D02*
D03*
X1612900Y10477500D02*
D03*
X3124200Y10490200D02*
D03*
X22199600Y2768600D02*
D03*
X8597900Y10147300D02*
D03*
D102*
X7112000Y3822700D02*
D03*
X26428699Y7404100D02*
D03*
X8064500Y9245600D02*
D03*
X11315700Y10591800D02*
D03*
D103*
X3238500Y4445000D02*
D03*
Y1930400D02*
D03*
D104*
X23511501Y6345200D02*
D03*
X22511501D02*
D03*
X24911501Y1545200D02*
D03*
X25911499D02*
D03*
X22511501D02*
D03*
X23511501D02*
D03*
X22511501Y3945200D02*
D03*
X23511501D02*
D03*
X24911501Y6345200D02*
D03*
X25911499D02*
D03*
X24911501Y3945200D02*
D03*
X25911499D02*
D03*
D105*
X12475000Y2200000D02*
D03*
X11725000D02*
D03*
X1816800Y2438400D02*
D03*
X1066800D02*
D03*
D106*
X5810700Y2971800D02*
D03*
Y2717800D02*
D03*
Y2463800D02*
D03*
Y2209800D02*
D03*
D107*
X2717800Y7302500D02*
D03*
Y6286500D02*
D03*
X24003000Y8382000D02*
D03*
Y9398000D02*
D03*
D108*
X558800Y6985000D02*
D03*
Y6794500D02*
D03*
Y6604000D02*
D03*
X21844000Y8699500D02*
D03*
Y8890000D02*
D03*
Y9080500D02*
D03*
D109*
X2683400Y11136500D02*
D03*
X5883400D02*
D03*
X1616600D02*
D03*
X2150000D02*
D03*
X4816600D02*
D03*
X5350000D02*
D03*
X8066600D02*
D03*
X8600000D02*
D03*
X9133400D02*
D03*
X11316600D02*
D03*
X11850000D02*
D03*
X12383400D02*
D03*
D110*
X654998Y8250001D02*
D03*
Y8750000D02*
D03*
D111*
X18956400Y11100000D02*
D03*
X17864200D02*
D03*
X15681400D02*
D03*
X14589200D02*
D03*
X25435800D02*
D03*
X24343600D02*
D03*
X22185800D02*
D03*
X21093600D02*
D03*
D112*
X25063400Y9400000D02*
D03*
X26054001D02*
D03*
X25063400Y8400000D02*
D03*
X26054001D02*
D03*
X2036600Y5000000D02*
D03*
X1046000D02*
D03*
X2036600Y4000000D02*
D03*
X1046000D02*
D03*
D113*
X16250000Y11720000D02*
D03*
X23750000D02*
D03*
X20000000D02*
D03*
X3250000D02*
D03*
X10750000D02*
D03*
X7000000D02*
D03*
D114*
X14500000Y2650000D02*
D03*
Y8350000D02*
D03*
X19500000D02*
D03*
Y2650000D02*
D03*
D115*
Y5500000D02*
D03*
X14500000D02*
D03*
D116*
X11850000Y654998D02*
D03*
X12349999D02*
D03*
X1250001D02*
D03*
X1750000D02*
D03*
D117*
X8839200Y9918700D02*
D03*
X8928100Y9271000D02*
D03*
X11887200Y7162800D02*
D03*
X11391900Y6667500D02*
D03*
X5016500Y3543300D02*
D03*
X3721100Y8483600D02*
D03*
X5041900Y9093200D02*
D03*
D118*
X7255500Y1231900D02*
D03*
X7353300Y2311400D02*
D03*
X7099300Y3340100D02*
D03*
X7302500Y3060700D02*
D03*
X8216900D02*
D03*
X8280400Y2311400D02*
D03*
X7416800Y1765300D02*
D03*
X6731000Y2108200D02*
D03*
X7404100Y1130300D02*
D03*
X7048500Y7099300D02*
D03*
X8978900Y2006600D02*
D03*
X8813800Y2133600D02*
D03*
X21564600Y8407400D02*
D03*
X21272501Y8763000D02*
D03*
X21386800Y9093200D02*
D03*
X20091400Y13449300D02*
D03*
Y13373100D02*
D03*
Y13296899D02*
D03*
Y13220700D02*
D03*
Y13144501D02*
D03*
Y13068300D02*
D03*
Y12992101D02*
D03*
Y12915900D02*
D03*
Y12839700D02*
D03*
Y12763500D02*
D03*
Y12687300D02*
D03*
Y12611100D02*
D03*
Y12534900D02*
D03*
Y12458700D02*
D03*
X20015199Y13449300D02*
D03*
Y13373100D02*
D03*
Y13296899D02*
D03*
Y13220700D02*
D03*
Y13144501D02*
D03*
Y13068300D02*
D03*
Y12992101D02*
D03*
Y12915900D02*
D03*
Y12839700D02*
D03*
Y12763500D02*
D03*
Y12687300D02*
D03*
Y12611100D02*
D03*
Y12534900D02*
D03*
Y12458700D02*
D03*
X19939000Y13449300D02*
D03*
Y13373100D02*
D03*
Y13296899D02*
D03*
Y13220700D02*
D03*
Y13144501D02*
D03*
Y13068300D02*
D03*
Y12992101D02*
D03*
Y12915900D02*
D03*
Y12839700D02*
D03*
Y12763500D02*
D03*
Y12687300D02*
D03*
Y12611100D02*
D03*
Y12534900D02*
D03*
Y12458700D02*
D03*
X19862801Y13449300D02*
D03*
Y13373100D02*
D03*
Y13296899D02*
D03*
Y13220700D02*
D03*
Y13144501D02*
D03*
Y13068300D02*
D03*
Y12992101D02*
D03*
Y12915900D02*
D03*
Y12839700D02*
D03*
Y12763500D02*
D03*
Y12687300D02*
D03*
Y12611100D02*
D03*
Y12534900D02*
D03*
Y12458700D02*
D03*
X19786600Y13449300D02*
D03*
Y13373100D02*
D03*
Y13296899D02*
D03*
Y13220700D02*
D03*
Y13144501D02*
D03*
Y13068300D02*
D03*
Y12992101D02*
D03*
Y12915900D02*
D03*
Y12839700D02*
D03*
Y12763500D02*
D03*
Y12687300D02*
D03*
Y12611100D02*
D03*
Y12534900D02*
D03*
Y12458700D02*
D03*
X19710400Y13449300D02*
D03*
Y13373100D02*
D03*
Y13296899D02*
D03*
Y13220700D02*
D03*
Y13144501D02*
D03*
Y13068300D02*
D03*
Y12992101D02*
D03*
Y12915900D02*
D03*
Y12839700D02*
D03*
Y12763500D02*
D03*
Y12687300D02*
D03*
Y12611100D02*
D03*
Y12534900D02*
D03*
Y12458700D02*
D03*
X20167599Y13449300D02*
D03*
Y13373100D02*
D03*
Y13296899D02*
D03*
Y13220700D02*
D03*
Y13144501D02*
D03*
Y13068300D02*
D03*
Y12992101D02*
D03*
Y12915900D02*
D03*
Y12839700D02*
D03*
Y12763500D02*
D03*
Y12687300D02*
D03*
Y12611100D02*
D03*
Y12534900D02*
D03*
Y12458700D02*
D03*
X19634200Y12534900D02*
D03*
X19558000D02*
D03*
X19481799D02*
D03*
X19405600D02*
D03*
X19329401D02*
D03*
X19253200D02*
D03*
X19177000D02*
D03*
X19100800D02*
D03*
X19024600D02*
D03*
X18948399D02*
D03*
X18872200D02*
D03*
X18796001D02*
D03*
X18719800D02*
D03*
X18643600D02*
D03*
X19634200Y12611100D02*
D03*
X19558000D02*
D03*
X19481799D02*
D03*
X19405600D02*
D03*
X19329401D02*
D03*
X19253200D02*
D03*
X19177000D02*
D03*
X19100800D02*
D03*
X19024600D02*
D03*
X18948399D02*
D03*
X18872200D02*
D03*
X18796001D02*
D03*
X18719800D02*
D03*
X18643600D02*
D03*
X19634200Y12687300D02*
D03*
X19558000D02*
D03*
X19481799D02*
D03*
X19405600D02*
D03*
X19329401D02*
D03*
X19253200D02*
D03*
X19177000D02*
D03*
X19100800D02*
D03*
X19024600D02*
D03*
X18948399D02*
D03*
X18872200D02*
D03*
X18796001D02*
D03*
X18719800D02*
D03*
X18643600D02*
D03*
X19634200Y12763500D02*
D03*
X19558000D02*
D03*
X19481799D02*
D03*
X19405600D02*
D03*
X19329401D02*
D03*
X19253200D02*
D03*
X19177000D02*
D03*
X19100800D02*
D03*
X19024600D02*
D03*
X18948399D02*
D03*
X18872200D02*
D03*
X18796001D02*
D03*
X18719800D02*
D03*
X18643600D02*
D03*
X19634200Y12839700D02*
D03*
X19558000D02*
D03*
X19481799D02*
D03*
X19405600D02*
D03*
X19329401D02*
D03*
X19253200D02*
D03*
X19177000D02*
D03*
X19100800D02*
D03*
X19024600D02*
D03*
X18948399D02*
D03*
X18872200D02*
D03*
X18796001D02*
D03*
X18719800D02*
D03*
X18643600D02*
D03*
X19634200Y12915900D02*
D03*
X19558000D02*
D03*
X19481799D02*
D03*
X19405600D02*
D03*
X19329401D02*
D03*
X19253200D02*
D03*
X19177000D02*
D03*
X19100800D02*
D03*
X19024600D02*
D03*
X18948399D02*
D03*
X18872200D02*
D03*
X18796001D02*
D03*
X18719800D02*
D03*
X18643600D02*
D03*
X19634200Y12458700D02*
D03*
X19558000D02*
D03*
X19481799D02*
D03*
X19405600D02*
D03*
X19329401D02*
D03*
X19253200D02*
D03*
X19177000D02*
D03*
X19100800D02*
D03*
X19024600D02*
D03*
X18948399D02*
D03*
X18872200D02*
D03*
X18796001D02*
D03*
X18719800D02*
D03*
X18643600D02*
D03*
X18570921Y12460110D02*
D03*
Y12917310D02*
D03*
Y12841110D02*
D03*
Y12764910D02*
D03*
Y12688710D02*
D03*
Y12612510D02*
D03*
Y12536310D02*
D03*
X19634200Y13068300D02*
D03*
X19558000D02*
D03*
X19481799D02*
D03*
X19405600D02*
D03*
X19329401D02*
D03*
X19253200D02*
D03*
X19177000D02*
D03*
X19100800D02*
D03*
X19024600D02*
D03*
X18948399D02*
D03*
X18872200D02*
D03*
X18796001D02*
D03*
X18719800D02*
D03*
X18643600D02*
D03*
X19634200Y13144501D02*
D03*
X19558000D02*
D03*
X19481799D02*
D03*
X19405600D02*
D03*
X19329401D02*
D03*
X19253200D02*
D03*
X19177000D02*
D03*
X19100800D02*
D03*
X19024600D02*
D03*
X18948399D02*
D03*
X18872200D02*
D03*
X18796001D02*
D03*
X18719800D02*
D03*
X18643600D02*
D03*
X19634200Y13220700D02*
D03*
X19558000D02*
D03*
X19481799D02*
D03*
X19405600D02*
D03*
X19329401D02*
D03*
X19253200D02*
D03*
X19177000D02*
D03*
X19100800D02*
D03*
X19024600D02*
D03*
X18948399D02*
D03*
X18872200D02*
D03*
X18796001D02*
D03*
X18719800D02*
D03*
X18643600D02*
D03*
X19634200Y13296899D02*
D03*
X19558000D02*
D03*
X19481799D02*
D03*
X19405600D02*
D03*
X19329401D02*
D03*
X19253200D02*
D03*
X19177000D02*
D03*
X19100800D02*
D03*
X19024600D02*
D03*
X18948399D02*
D03*
X18872200D02*
D03*
X18796001D02*
D03*
X18719800D02*
D03*
X18643600D02*
D03*
X19634200Y13373100D02*
D03*
X19558000D02*
D03*
X19481799D02*
D03*
X19405600D02*
D03*
X19329401D02*
D03*
X19253200D02*
D03*
X19177000D02*
D03*
X19100800D02*
D03*
X19024600D02*
D03*
X18948399D02*
D03*
X18872200D02*
D03*
X18796001D02*
D03*
X18719800D02*
D03*
X18643600D02*
D03*
X19634200Y13449300D02*
D03*
X19558000D02*
D03*
X19481799D02*
D03*
X19405600D02*
D03*
X19329401D02*
D03*
X19253200D02*
D03*
X19177000D02*
D03*
X19100800D02*
D03*
X19024600D02*
D03*
X18948399D02*
D03*
X18872200D02*
D03*
X18796001D02*
D03*
X18719800D02*
D03*
X18643600D02*
D03*
X19634200Y12992101D02*
D03*
X19558000D02*
D03*
X19481799D02*
D03*
X19405600D02*
D03*
X19329401D02*
D03*
X19253200D02*
D03*
X19177000D02*
D03*
X19100800D02*
D03*
X19024600D02*
D03*
X18948399D02*
D03*
X18872200D02*
D03*
X18796001D02*
D03*
X18719800D02*
D03*
X18643600D02*
D03*
X18570921Y12993510D02*
D03*
Y13450710D02*
D03*
Y13374510D02*
D03*
Y13298309D02*
D03*
Y13222110D02*
D03*
Y13145911D02*
D03*
Y13069710D02*
D03*
X12712700Y10452100D02*
D03*
X12788900D02*
D03*
X12865100D02*
D03*
X12941299D02*
D03*
X13017500D02*
D03*
X13093700D02*
D03*
X12636500D02*
D03*
X12635090Y10379421D02*
D03*
Y10303221D02*
D03*
Y10227021D02*
D03*
Y10150821D02*
D03*
Y10074621D02*
D03*
Y9998421D02*
D03*
Y9922221D02*
D03*
Y9846021D02*
D03*
Y9769821D02*
D03*
Y9693621D02*
D03*
Y9617421D02*
D03*
Y9541221D02*
D03*
Y9465021D02*
D03*
Y9388821D02*
D03*
X13092290Y10379421D02*
D03*
Y10303221D02*
D03*
Y10227021D02*
D03*
Y10150821D02*
D03*
Y10074621D02*
D03*
Y9998421D02*
D03*
Y9922221D02*
D03*
Y9846021D02*
D03*
Y9769821D02*
D03*
Y9693621D02*
D03*
Y9617421D02*
D03*
Y9541221D02*
D03*
Y9465021D02*
D03*
Y9388821D02*
D03*
X13016090Y10379421D02*
D03*
Y10303221D02*
D03*
Y10227021D02*
D03*
Y10150821D02*
D03*
Y10074621D02*
D03*
Y9998421D02*
D03*
Y9922221D02*
D03*
Y9846021D02*
D03*
Y9769821D02*
D03*
Y9693621D02*
D03*
Y9617421D02*
D03*
Y9541221D02*
D03*
Y9465021D02*
D03*
Y9388821D02*
D03*
X12939890Y10379421D02*
D03*
Y10303221D02*
D03*
Y10227021D02*
D03*
Y10150821D02*
D03*
Y10074621D02*
D03*
Y9998421D02*
D03*
Y9922221D02*
D03*
Y9846021D02*
D03*
Y9769821D02*
D03*
Y9693621D02*
D03*
Y9617421D02*
D03*
Y9541221D02*
D03*
Y9465021D02*
D03*
Y9388821D02*
D03*
X12863690Y10379421D02*
D03*
Y10303221D02*
D03*
Y10227021D02*
D03*
Y10150821D02*
D03*
Y10074621D02*
D03*
Y9998421D02*
D03*
Y9922221D02*
D03*
Y9846021D02*
D03*
Y9769821D02*
D03*
Y9693621D02*
D03*
Y9617421D02*
D03*
Y9541221D02*
D03*
Y9465021D02*
D03*
Y9388821D02*
D03*
X12787490Y10379421D02*
D03*
Y10303221D02*
D03*
Y10227021D02*
D03*
Y10150821D02*
D03*
Y10074621D02*
D03*
Y9998421D02*
D03*
Y9922221D02*
D03*
Y9846021D02*
D03*
Y9769821D02*
D03*
Y9693621D02*
D03*
Y9617421D02*
D03*
Y9541221D02*
D03*
Y9465021D02*
D03*
Y9388821D02*
D03*
X12711290Y10379421D02*
D03*
Y10303221D02*
D03*
Y10227021D02*
D03*
Y10150821D02*
D03*
Y10074621D02*
D03*
Y9998421D02*
D03*
Y9922221D02*
D03*
Y9846021D02*
D03*
Y9769821D02*
D03*
Y9693621D02*
D03*
Y9617421D02*
D03*
Y9541221D02*
D03*
Y9465021D02*
D03*
Y9388821D02*
D03*
%TF.MD5,379e14c8723fc554500f63d69b8b881a*%
M02*
