%TF.GenerationSoftware,Altium Limited,Altium Designer,24.3.1 (35)*%
G04 Layer_Color=32768*
%FSLAX45Y45*%
%MOMM*%
%TF.SameCoordinates,844131A9-2E1B-4A61-BE1F-69DE975881E6*%
%TF.FilePolarity,Positive*%
%TF.FileFunction,Other,Bottom_3D_Body*%
%TF.Part,Single*%
G01*
G75*
%TA.AperFunction,NonConductor*%
%ADD63C,0.20000*%
D63*
X7046265Y6733000D02*
X7366265D01*
Y6983000D01*
X7046265D02*
X7366265D01*
X7046265Y6733000D02*
Y6983000D01*
X7792400Y2262700D02*
Y3022700D01*
Y2262700D02*
X8387400D01*
Y3022700D01*
X7792400D02*
X8387400D01*
X6865300Y3021600D02*
X7460300D01*
Y2261600D02*
Y3021600D01*
X6865300Y2261600D02*
X7460300D01*
X6865300D02*
Y3021600D01*
X26576001Y10200100D02*
Y10450100D01*
X26256000Y10200100D02*
X26576001D01*
X26256000D02*
Y10450100D01*
X26576001D01*
X7507700Y9657100D02*
Y9977100D01*
Y9657100D02*
X7757700D01*
Y9977100D01*
X7507700D02*
X7757700D01*
X4269200Y9657100D02*
X4519200D01*
X4269200D02*
Y9977100D01*
X4519200D01*
Y9657100D02*
Y9977100D01*
X1062450Y9650750D02*
X1312450D01*
X1062450D02*
Y9970750D01*
X1312450D01*
Y9650750D02*
Y9970750D01*
X10758900Y10040600D02*
X11008900D01*
Y9720600D02*
Y10040600D01*
X10758900Y9720600D02*
X11008900D01*
X10758900D02*
Y10040600D01*
%TF.MD5,22513c08cd6744959d16eeed68fb75b8*%
M02*
