%TF.GenerationSoftware,Altium Limited,Altium Designer,24.3.1 (35)*%
G04 Layer_Color=8388736*
%FSLAX45Y45*%
%MOMM*%
%TF.SameCoordinates,844131A9-2E1B-4A61-BE1F-69DE975881E6*%
%TF.FilePolarity,Positive*%
%TF.FileFunction,Other,Board*%
%TF.Part,Single*%
G01*
G75*
G36*
X11967512Y2199909D02*
X11968251Y2199816D01*
X11969084Y2199724D01*
X11970008Y2199539D01*
X11971025Y2199354D01*
X11973244Y2198799D01*
X11975555Y2197875D01*
X11976757Y2197320D01*
X11977867Y2196673D01*
X11978976Y2195841D01*
X11980086Y2195009D01*
X11980178Y2194916D01*
X11980363Y2194731D01*
X11980641Y2194454D01*
X11980918Y2194084D01*
X11981380Y2193622D01*
X11981842Y2192975D01*
X11982397Y2192327D01*
X11982952Y2191495D01*
X11983507Y2190571D01*
X11984061Y2189646D01*
X11985078Y2187427D01*
X11985910Y2184838D01*
X11986188Y2183452D01*
X11986373Y2181972D01*
X11978514Y2180955D01*
Y2181048D01*
X11978422Y2181233D01*
X11978329Y2181602D01*
X11978237Y2182065D01*
X11978144Y2182619D01*
X11977959Y2183267D01*
X11977497Y2184653D01*
X11976850Y2186318D01*
X11976018Y2187889D01*
X11975093Y2189369D01*
X11973984Y2190663D01*
X11973799Y2190756D01*
X11973429Y2191125D01*
X11972689Y2191588D01*
X11971765Y2192050D01*
X11970655Y2192605D01*
X11969268Y2193067D01*
X11967697Y2193437D01*
X11966032Y2193529D01*
X11965478D01*
X11965108Y2193437D01*
X11964091Y2193344D01*
X11962796Y2193067D01*
X11961317Y2192605D01*
X11959745Y2191958D01*
X11958174Y2191033D01*
X11956694Y2189739D01*
X11956509Y2189554D01*
X11956047Y2188999D01*
X11955492Y2188167D01*
X11954753Y2187057D01*
X11954013Y2185671D01*
X11953458Y2184099D01*
X11952996Y2182250D01*
X11952811Y2180216D01*
Y2180123D01*
Y2179938D01*
Y2179661D01*
X11952904Y2179291D01*
X11952996Y2178274D01*
X11953274Y2177072D01*
X11953643Y2175593D01*
X11954291Y2174114D01*
X11955215Y2172634D01*
X11956417Y2171247D01*
X11956602Y2171062D01*
X11957064Y2170693D01*
X11957804Y2170138D01*
X11958821Y2169491D01*
X11960115Y2168844D01*
X11961687Y2168289D01*
X11963444Y2167919D01*
X11965385Y2167734D01*
X11966217D01*
X11966865Y2167826D01*
X11967697Y2167919D01*
X11968621Y2168104D01*
X11969731Y2168289D01*
X11970933Y2168566D01*
X11970008Y2161632D01*
X11969546D01*
X11969176Y2161724D01*
X11967974D01*
X11966957Y2161539D01*
X11965755Y2161355D01*
X11964368Y2161077D01*
X11962796Y2160615D01*
X11961317Y2159968D01*
X11959745Y2159136D01*
X11959653D01*
X11959561Y2159043D01*
X11959098Y2158673D01*
X11958451Y2158026D01*
X11957711Y2157194D01*
X11956972Y2155992D01*
X11956325Y2154605D01*
X11955862Y2153034D01*
X11955677Y2152109D01*
Y2151092D01*
Y2151000D01*
Y2150907D01*
Y2150352D01*
X11955862Y2149613D01*
X11956047Y2148596D01*
X11956417Y2147486D01*
X11956879Y2146284D01*
X11957619Y2145082D01*
X11958636Y2143973D01*
X11958728Y2143880D01*
X11959191Y2143511D01*
X11959838Y2143048D01*
X11960670Y2142494D01*
X11961779Y2142031D01*
X11963074Y2141569D01*
X11964553Y2141199D01*
X11966217Y2141107D01*
X11966957D01*
X11967789Y2141292D01*
X11968899Y2141477D01*
X11970101Y2141846D01*
X11971302Y2142309D01*
X11972597Y2143048D01*
X11973799Y2143973D01*
X11973891Y2144065D01*
X11974261Y2144528D01*
X11974816Y2145175D01*
X11975463Y2146099D01*
X11976110Y2147301D01*
X11976757Y2148781D01*
X11977312Y2150537D01*
X11977682Y2152571D01*
X11985541Y2151184D01*
Y2151092D01*
X11985448Y2150815D01*
X11985356Y2150445D01*
X11985263Y2149890D01*
X11985078Y2149243D01*
X11984801Y2148503D01*
X11984246Y2146747D01*
X11983322Y2144712D01*
X11982212Y2142678D01*
X11980825Y2140737D01*
X11979069Y2138980D01*
X11978976Y2138888D01*
X11978791Y2138795D01*
X11978514Y2138610D01*
X11978144Y2138333D01*
X11977682Y2137963D01*
X11977035Y2137593D01*
X11976388Y2137224D01*
X11975555Y2136761D01*
X11973706Y2136022D01*
X11971580Y2135282D01*
X11969084Y2134820D01*
X11967789Y2134635D01*
X11965478D01*
X11964461Y2134727D01*
X11963259Y2134912D01*
X11961779Y2135190D01*
X11960115Y2135652D01*
X11958451Y2136207D01*
X11956787Y2136946D01*
X11956694D01*
X11956602Y2137039D01*
X11956047Y2137316D01*
X11955215Y2137871D01*
X11954291Y2138518D01*
X11953181Y2139443D01*
X11952072Y2140460D01*
X11950962Y2141661D01*
X11950038Y2143048D01*
X11949945Y2143233D01*
X11949668Y2143695D01*
X11949298Y2144528D01*
X11948836Y2145545D01*
X11948373Y2146747D01*
X11948004Y2148133D01*
X11947726Y2149705D01*
X11947634Y2151277D01*
Y2151462D01*
Y2152017D01*
X11947726Y2152756D01*
X11947911Y2153773D01*
X11948188Y2154975D01*
X11948651Y2156269D01*
X11949205Y2157564D01*
X11949945Y2158858D01*
X11950038Y2159043D01*
X11950315Y2159413D01*
X11950870Y2160060D01*
X11951609Y2160800D01*
X11952534Y2161632D01*
X11953643Y2162557D01*
X11954938Y2163389D01*
X11956509Y2164221D01*
X11956417D01*
X11956232Y2164313D01*
X11955955Y2164406D01*
X11955585Y2164498D01*
X11954568Y2164868D01*
X11953274Y2165423D01*
X11951794Y2166162D01*
X11950315Y2167087D01*
X11948928Y2168289D01*
X11947634Y2169676D01*
X11947541Y2169861D01*
X11947171Y2170415D01*
X11946617Y2171340D01*
X11946062Y2172542D01*
X11945507Y2174021D01*
X11944952Y2175778D01*
X11944583Y2177812D01*
X11944490Y2180031D01*
Y2180123D01*
Y2180401D01*
Y2180863D01*
X11944583Y2181418D01*
X11944675Y2182157D01*
X11944860Y2182989D01*
X11945045Y2183914D01*
X11945230Y2184931D01*
X11945970Y2187150D01*
X11946524Y2188352D01*
X11947079Y2189461D01*
X11947819Y2190663D01*
X11948651Y2191865D01*
X11949575Y2193067D01*
X11950685Y2194176D01*
X11950777Y2194269D01*
X11950962Y2194454D01*
X11951332Y2194731D01*
X11951794Y2195101D01*
X11952349Y2195563D01*
X11953089Y2196026D01*
X11953921Y2196580D01*
X11954938Y2197043D01*
X11955955Y2197597D01*
X11957157Y2198152D01*
X11958359Y2198614D01*
X11959745Y2199077D01*
X11961225Y2199446D01*
X11962796Y2199724D01*
X11964368Y2199909D01*
X11966125Y2200001D01*
X11966957D01*
X11967512Y2199909D01*
D02*
G37*
G36*
X12071710D02*
X12072542D01*
X12073559Y2199816D01*
X12074668Y2199631D01*
X12075963Y2199446D01*
X12078644Y2198984D01*
X12081418Y2198245D01*
X12084191Y2197228D01*
X12085486Y2196580D01*
X12086780Y2195841D01*
X12086872Y2195748D01*
X12087057Y2195656D01*
X12087427Y2195378D01*
X12087797Y2195009D01*
X12088352Y2194639D01*
X12088999Y2194084D01*
X12089739Y2193437D01*
X12090478Y2192697D01*
X12091218Y2191865D01*
X12092050Y2191033D01*
X12093714Y2188906D01*
X12095286Y2186410D01*
X12096673Y2183636D01*
Y2183544D01*
X12096858Y2183267D01*
X12096950Y2182804D01*
X12097228Y2182250D01*
X12097412Y2181510D01*
X12097690Y2180585D01*
X12098060Y2179568D01*
X12098337Y2178459D01*
X12098614Y2177257D01*
X12098984Y2175870D01*
X12099446Y2173004D01*
X12099816Y2169768D01*
X12100001Y2166440D01*
Y2166347D01*
Y2165977D01*
Y2165423D01*
X12099909Y2164775D01*
Y2163851D01*
X12099816Y2162926D01*
X12099724Y2161724D01*
X12099539Y2160522D01*
X12099077Y2157841D01*
X12098429Y2154883D01*
X12097505Y2151924D01*
X12096211Y2149058D01*
X12096118Y2148965D01*
X12096026Y2148688D01*
X12095841Y2148318D01*
X12095471Y2147856D01*
X12095101Y2147209D01*
X12094639Y2146469D01*
X12093437Y2144805D01*
X12091865Y2142956D01*
X12090016Y2141107D01*
X12087889Y2139258D01*
X12085393Y2137686D01*
X12085301Y2137593D01*
X12085023Y2137501D01*
X12084654Y2137316D01*
X12084191Y2137039D01*
X12083452Y2136761D01*
X12082712Y2136484D01*
X12081787Y2136114D01*
X12080770Y2135744D01*
X12079661Y2135374D01*
X12078459Y2135005D01*
X12075870Y2134450D01*
X12072912Y2133988D01*
X12069861Y2133803D01*
X12068936D01*
X12068289Y2133895D01*
X12067457Y2133988D01*
X12066440Y2134080D01*
X12065423Y2134173D01*
X12064221Y2134450D01*
X12061724Y2135005D01*
X12058951Y2135837D01*
X12057564Y2136391D01*
X12056270Y2137039D01*
X12054975Y2137871D01*
X12053681Y2138703D01*
X12053588Y2138795D01*
X12053403Y2138888D01*
X12053034Y2139165D01*
X12052571Y2139627D01*
X12052109Y2140090D01*
X12051462Y2140737D01*
X12050815Y2141477D01*
X12050075Y2142216D01*
X12049335Y2143141D01*
X12048596Y2144250D01*
X12047764Y2145360D01*
X12047024Y2146562D01*
X12046377Y2147948D01*
X12045637Y2149335D01*
X12045082Y2150815D01*
X12044528Y2152479D01*
X12052849Y2154420D01*
Y2154328D01*
X12052941Y2154143D01*
X12053126Y2153773D01*
X12053311Y2153311D01*
X12053496Y2152756D01*
X12053773Y2152017D01*
X12054513Y2150537D01*
X12055437Y2148873D01*
X12056547Y2147209D01*
X12057934Y2145637D01*
X12059413Y2144250D01*
X12059598Y2144065D01*
X12060153Y2143695D01*
X12061077Y2143233D01*
X12062279Y2142586D01*
X12063851Y2142031D01*
X12065608Y2141477D01*
X12067734Y2141107D01*
X12070045Y2141014D01*
X12070785D01*
X12071247Y2141107D01*
X12071895D01*
X12072634Y2141199D01*
X12074391Y2141477D01*
X12076332Y2141846D01*
X12078366Y2142494D01*
X12080493Y2143418D01*
X12082435Y2144620D01*
X12082527D01*
X12082619Y2144805D01*
X12083267Y2145267D01*
X12084099Y2146007D01*
X12085116Y2147116D01*
X12086318Y2148503D01*
X12087427Y2150075D01*
X12088444Y2152017D01*
X12089369Y2154143D01*
Y2154235D01*
X12089461Y2154420D01*
X12089554Y2154698D01*
X12089646Y2155160D01*
X12089831Y2155715D01*
X12090016Y2156362D01*
X12090293Y2157934D01*
X12090663Y2159783D01*
X12091033Y2161817D01*
X12091218Y2164036D01*
X12091310Y2166440D01*
Y2166532D01*
Y2166809D01*
Y2167272D01*
Y2167826D01*
X12091218Y2168474D01*
Y2169306D01*
X12091125Y2170230D01*
X12091033Y2171247D01*
X12090756Y2173466D01*
X12090293Y2175870D01*
X12089739Y2178274D01*
X12088999Y2180678D01*
Y2180770D01*
X12088906Y2180955D01*
X12088722Y2181233D01*
X12088537Y2181695D01*
X12087982Y2182804D01*
X12087150Y2184099D01*
X12086133Y2185578D01*
X12084838Y2187150D01*
X12083359Y2188537D01*
X12081602Y2189831D01*
X12081510D01*
X12081325Y2189923D01*
X12081048Y2190108D01*
X12080678Y2190293D01*
X12080216Y2190478D01*
X12079661Y2190756D01*
X12078366Y2191310D01*
X12076702Y2191865D01*
X12074853Y2192327D01*
X12072819Y2192697D01*
X12070693Y2192790D01*
X12070045D01*
X12069491Y2192697D01*
X12068844D01*
X12068196Y2192605D01*
X12066532Y2192235D01*
X12064591Y2191773D01*
X12062649Y2191033D01*
X12060615Y2190016D01*
X12059598Y2189461D01*
X12058673Y2188722D01*
X12058581Y2188629D01*
X12058488Y2188537D01*
X12058211Y2188259D01*
X12057841Y2187982D01*
X12057471Y2187520D01*
X12057009Y2186965D01*
X12056454Y2186410D01*
X12055992Y2185671D01*
X12055437Y2184838D01*
X12054790Y2183914D01*
X12054235Y2182989D01*
X12053681Y2181880D01*
X12053218Y2180678D01*
X12052756Y2179383D01*
X12052294Y2177997D01*
X12051924Y2176517D01*
X12043418Y2178644D01*
Y2178736D01*
X12043511Y2179106D01*
X12043695Y2179661D01*
X12043973Y2180401D01*
X12044250Y2181233D01*
X12044620Y2182250D01*
X12045082Y2183359D01*
X12045637Y2184561D01*
X12046931Y2187150D01*
X12048596Y2189739D01*
X12049613Y2191033D01*
X12050630Y2192327D01*
X12051739Y2193437D01*
X12053034Y2194546D01*
X12053126Y2194639D01*
X12053311Y2194824D01*
X12053773Y2195009D01*
X12054235Y2195378D01*
X12054975Y2195841D01*
X12055715Y2196303D01*
X12056732Y2196765D01*
X12057749Y2197228D01*
X12058951Y2197782D01*
X12060245Y2198245D01*
X12061632Y2198707D01*
X12063111Y2199169D01*
X12064683Y2199539D01*
X12066347Y2199724D01*
X12068104Y2199909D01*
X12069953Y2200001D01*
X12070970D01*
X12071710Y2199909D01*
D02*
G37*
G36*
X12011059Y2183544D02*
X12038888D01*
Y2176332D01*
X12009579Y2134912D01*
X12003200D01*
Y2176332D01*
X11994509D01*
Y2183544D01*
X12003200D01*
Y2198892D01*
X12011059D01*
Y2183544D01*
D02*
G37*
G36*
X1413509Y2438308D02*
X1414341D01*
X1415358Y2438216D01*
X1416468Y2438031D01*
X1417762Y2437846D01*
X1420443Y2437384D01*
X1423217Y2436644D01*
X1425991Y2435627D01*
X1427285Y2434980D01*
X1428580Y2434240D01*
X1428672Y2434148D01*
X1428857Y2434055D01*
X1429227Y2433778D01*
X1429597Y2433408D01*
X1430151Y2433038D01*
X1430799Y2432484D01*
X1431538Y2431836D01*
X1432278Y2431097D01*
X1433017Y2430265D01*
X1433850Y2429433D01*
X1435514Y2427306D01*
X1437086Y2424810D01*
X1438472Y2422036D01*
Y2421944D01*
X1438657Y2421666D01*
X1438750Y2421204D01*
X1439027Y2420649D01*
X1439212Y2419910D01*
X1439489Y2418985D01*
X1439859Y2417968D01*
X1440137Y2416859D01*
X1440414Y2415657D01*
X1440784Y2414270D01*
X1441246Y2411404D01*
X1441616Y2408168D01*
X1441801Y2404839D01*
Y2404747D01*
Y2404377D01*
Y2403822D01*
X1441708Y2403175D01*
Y2402250D01*
X1441616Y2401326D01*
X1441523Y2400124D01*
X1441338Y2398922D01*
X1440876Y2396241D01*
X1440229Y2393282D01*
X1439304Y2390324D01*
X1438010Y2387458D01*
X1437918Y2387365D01*
X1437825Y2387088D01*
X1437640Y2386718D01*
X1437270Y2386256D01*
X1436901Y2385608D01*
X1436438Y2384869D01*
X1435236Y2383205D01*
X1433665Y2381355D01*
X1431816Y2379506D01*
X1429689Y2377657D01*
X1427193Y2376085D01*
X1427100Y2375993D01*
X1426823Y2375901D01*
X1426453Y2375716D01*
X1425991Y2375438D01*
X1425251Y2375161D01*
X1424512Y2374883D01*
X1423587Y2374514D01*
X1422570Y2374144D01*
X1421460Y2373774D01*
X1420259Y2373404D01*
X1417670Y2372849D01*
X1414711Y2372387D01*
X1411660Y2372202D01*
X1410736D01*
X1410088Y2372295D01*
X1409256Y2372387D01*
X1408239Y2372480D01*
X1407222Y2372572D01*
X1406020Y2372849D01*
X1403524Y2373404D01*
X1400750Y2374236D01*
X1399363Y2374791D01*
X1398069Y2375438D01*
X1396775Y2376270D01*
X1395480Y2377102D01*
X1395388Y2377195D01*
X1395203Y2377287D01*
X1394833Y2377565D01*
X1394371Y2378027D01*
X1393909Y2378489D01*
X1393261Y2379136D01*
X1392614Y2379876D01*
X1391875Y2380616D01*
X1391135Y2381540D01*
X1390395Y2382650D01*
X1389563Y2383759D01*
X1388823Y2384961D01*
X1388176Y2386348D01*
X1387437Y2387735D01*
X1386882Y2389214D01*
X1386327Y2390878D01*
X1394648Y2392820D01*
Y2392727D01*
X1394741Y2392543D01*
X1394926Y2392173D01*
X1395110Y2391710D01*
X1395295Y2391156D01*
X1395573Y2390416D01*
X1396312Y2388937D01*
X1397237Y2387273D01*
X1398346Y2385608D01*
X1399733Y2384037D01*
X1401213Y2382650D01*
X1401398Y2382465D01*
X1401952Y2382095D01*
X1402877Y2381633D01*
X1404079Y2380986D01*
X1405650Y2380431D01*
X1407407Y2379876D01*
X1409534Y2379506D01*
X1411845Y2379414D01*
X1412585D01*
X1413047Y2379506D01*
X1413694D01*
X1414434Y2379599D01*
X1416190Y2379876D01*
X1418132Y2380246D01*
X1420166Y2380893D01*
X1422293Y2381818D01*
X1424234Y2383020D01*
X1424327D01*
X1424419Y2383205D01*
X1425066Y2383667D01*
X1425898Y2384406D01*
X1426915Y2385516D01*
X1428117Y2386903D01*
X1429227Y2388475D01*
X1430244Y2390416D01*
X1431168Y2392543D01*
Y2392635D01*
X1431261Y2392820D01*
X1431353Y2393097D01*
X1431446Y2393560D01*
X1431631Y2394114D01*
X1431816Y2394762D01*
X1432093Y2396333D01*
X1432463Y2398182D01*
X1432833Y2400216D01*
X1433017Y2402435D01*
X1433110Y2404839D01*
Y2404932D01*
Y2405209D01*
Y2405671D01*
Y2406226D01*
X1433017Y2406873D01*
Y2407705D01*
X1432925Y2408630D01*
X1432833Y2409647D01*
X1432555Y2411866D01*
X1432093Y2414270D01*
X1431538Y2416674D01*
X1430799Y2419077D01*
Y2419170D01*
X1430706Y2419355D01*
X1430521Y2419632D01*
X1430336Y2420094D01*
X1429781Y2421204D01*
X1428949Y2422498D01*
X1427932Y2423978D01*
X1426638Y2425549D01*
X1425159Y2426936D01*
X1423402Y2428231D01*
X1423310D01*
X1423125Y2428323D01*
X1422847Y2428508D01*
X1422477Y2428693D01*
X1422015Y2428878D01*
X1421460Y2429155D01*
X1420166Y2429710D01*
X1418502Y2430265D01*
X1416653Y2430727D01*
X1414619Y2431097D01*
X1412492Y2431189D01*
X1411845D01*
X1411290Y2431097D01*
X1410643D01*
X1409996Y2431004D01*
X1408332Y2430634D01*
X1406390Y2430172D01*
X1404449Y2429433D01*
X1402415Y2428416D01*
X1401398Y2427861D01*
X1400473Y2427121D01*
X1400380Y2427029D01*
X1400288Y2426936D01*
X1400011Y2426659D01*
X1399641Y2426381D01*
X1399271Y2425919D01*
X1398809Y2425364D01*
X1398254Y2424810D01*
X1397792Y2424070D01*
X1397237Y2423238D01*
X1396590Y2422313D01*
X1396035Y2421389D01*
X1395480Y2420279D01*
X1395018Y2419077D01*
X1394556Y2417783D01*
X1394093Y2416396D01*
X1393724Y2414917D01*
X1385218Y2417043D01*
Y2417136D01*
X1385310Y2417506D01*
X1385495Y2418060D01*
X1385772Y2418800D01*
X1386050Y2419632D01*
X1386420Y2420649D01*
X1386882Y2421759D01*
X1387437Y2422961D01*
X1388731Y2425549D01*
X1390395Y2428138D01*
X1391412Y2429433D01*
X1392429Y2430727D01*
X1393539Y2431836D01*
X1394833Y2432946D01*
X1394926Y2433038D01*
X1395110Y2433223D01*
X1395573Y2433408D01*
X1396035Y2433778D01*
X1396775Y2434240D01*
X1397514Y2434703D01*
X1398531Y2435165D01*
X1399548Y2435627D01*
X1400750Y2436182D01*
X1402045Y2436644D01*
X1403432Y2437106D01*
X1404911Y2437569D01*
X1406483Y2437938D01*
X1408147Y2438123D01*
X1409903Y2438308D01*
X1411753Y2438401D01*
X1412770D01*
X1413509Y2438308D01*
D02*
G37*
G36*
X1318742Y2437199D02*
Y2436921D01*
Y2436552D01*
X1318649Y2435997D01*
Y2435257D01*
X1318557Y2434333D01*
X1318464Y2433316D01*
X1318372Y2432206D01*
X1318187Y2430912D01*
X1318002Y2429617D01*
X1317725Y2428046D01*
X1317447Y2426474D01*
X1317170Y2424810D01*
X1316800Y2422961D01*
X1315876Y2419170D01*
Y2419077D01*
X1315783Y2418708D01*
X1315598Y2418153D01*
X1315321Y2417321D01*
X1315044Y2416396D01*
X1314674Y2415287D01*
X1314304Y2413992D01*
X1313749Y2412606D01*
X1313194Y2411034D01*
X1312640Y2409462D01*
X1311253Y2405949D01*
X1309589Y2402250D01*
X1307740Y2398552D01*
X1307647Y2398460D01*
X1307462Y2398090D01*
X1307185Y2397628D01*
X1306815Y2396888D01*
X1306353Y2396056D01*
X1305706Y2395039D01*
X1305058Y2393929D01*
X1304319Y2392727D01*
X1302562Y2390046D01*
X1300713Y2387273D01*
X1298586Y2384406D01*
X1296367Y2381725D01*
X1327710D01*
Y2374144D01*
X1286290D01*
Y2380338D01*
X1286382Y2380431D01*
X1286567Y2380616D01*
X1286937Y2380986D01*
X1287307Y2381540D01*
X1287862Y2382188D01*
X1288601Y2382927D01*
X1289341Y2383852D01*
X1290173Y2384961D01*
X1291005Y2386071D01*
X1292022Y2387365D01*
X1293039Y2388844D01*
X1294056Y2390324D01*
X1295166Y2391988D01*
X1296275Y2393745D01*
X1297385Y2395686D01*
X1298494Y2397628D01*
X1298586Y2397720D01*
X1298771Y2398090D01*
X1299049Y2398645D01*
X1299511Y2399477D01*
X1299973Y2400494D01*
X1300528Y2401603D01*
X1301175Y2402898D01*
X1301822Y2404377D01*
X1302562Y2406041D01*
X1303394Y2407705D01*
X1304134Y2409554D01*
X1304873Y2411496D01*
X1306353Y2415472D01*
X1307740Y2419725D01*
Y2419817D01*
X1307832Y2420094D01*
X1307924Y2420557D01*
X1308109Y2421111D01*
X1308294Y2421851D01*
X1308479Y2422776D01*
X1308757Y2423793D01*
X1308942Y2424902D01*
X1309219Y2426197D01*
X1309496Y2427583D01*
X1309959Y2430542D01*
X1310421Y2433778D01*
X1310698Y2437291D01*
X1318742D01*
Y2437199D01*
D02*
G37*
G36*
X1352858Y2421944D02*
X1380687D01*
Y2414732D01*
X1351379Y2373312D01*
X1344999D01*
Y2414732D01*
X1336308D01*
Y2421944D01*
X1344999D01*
Y2437291D01*
X1352858D01*
Y2421944D01*
D02*
G37*
%LPC*%
G36*
X12031214Y2176332D02*
X12011059D01*
Y2147671D01*
X12031214Y2176332D01*
D02*
G37*
G36*
X1373014Y2414732D02*
X1352858D01*
Y2386071D01*
X1373014Y2414732D01*
D02*
G37*
%LPD*%
%TF.MD5,ca01d1f3fdd0392fed3213b1229d5ead*%
M02*
