%TF.GenerationSoftware,Altium Limited,Altium Designer,26.3.0 (6)*%
G04 Layer_Color=32768*
%FSLAX43Y43*%
%MOMM*%
%TF.SameCoordinates,4D96456C-6BE7-47CA-B8DA-71329816BD7D*%
%TF.FilePolarity,Positive*%
%TF.FileFunction,Other,Top_Assembly*%
%TF.Part,Single*%
G01*
G75*
%TA.AperFunction,NonConductor*%
%ADD23C,0.200*%
%ADD29C,0.100*%
G36*
X6649Y-11238D02*
X6649Y-11245D01*
Y-11253D01*
X6648Y-11262D01*
X6647Y-11280D01*
X6646Y-11299D01*
X6643Y-11317D01*
X6642Y-11326D01*
X6640Y-11333D01*
Y-11334D01*
X6640Y-11336D01*
X6639Y-11339D01*
X6638Y-11343D01*
X6636Y-11347D01*
X6635Y-11353D01*
X6632Y-11359D01*
X6630Y-11365D01*
X6623Y-11380D01*
X6615Y-11396D01*
X6606Y-11412D01*
X6594Y-11427D01*
X6594Y-11427D01*
X6592Y-11429D01*
X6590Y-11432D01*
X6586Y-11435D01*
X6582Y-11440D01*
X6577Y-11444D01*
X6571Y-11450D01*
X6565Y-11455D01*
X6557Y-11461D01*
X6549Y-11467D01*
X6540Y-11474D01*
X6530Y-11480D01*
X6520Y-11486D01*
X6509Y-11492D01*
X6497Y-11497D01*
X6485Y-11502D01*
X6484Y-11503D01*
X6482Y-11503D01*
X6478Y-11504D01*
X6473Y-11506D01*
X6467Y-11508D01*
X6460Y-11511D01*
X6451Y-11513D01*
X6441Y-11515D01*
X6430Y-11517D01*
X6419Y-11519D01*
X6406Y-11522D01*
X6393Y-11524D01*
X6379Y-11525D01*
X6364Y-11527D01*
X6349Y-11528D01*
X6333D01*
X6333D01*
X6330D01*
X6326D01*
X6321D01*
X6315Y-11527D01*
X6307Y-11527D01*
X6299Y-11526D01*
X6290Y-11525D01*
X6280Y-11525D01*
X6270Y-11523D01*
X6248Y-11520D01*
X6226Y-11516D01*
X6204Y-11511D01*
X6204D01*
X6202Y-11510D01*
X6199Y-11509D01*
X6195Y-11507D01*
X6190Y-11506D01*
X6185Y-11504D01*
X6178Y-11501D01*
X6172Y-11499D01*
X6157Y-11492D01*
X6142Y-11485D01*
X6126Y-11476D01*
X6111Y-11467D01*
X6111Y-11466D01*
X6110Y-11466D01*
X6108Y-11464D01*
X6105Y-11462D01*
X6099Y-11457D01*
X6090Y-11450D01*
X6081Y-11441D01*
X6071Y-11431D01*
X6062Y-11420D01*
X6054Y-11409D01*
Y-11408D01*
X6053Y-11407D01*
X6051Y-11405D01*
X6050Y-11403D01*
X6049Y-11400D01*
X6047Y-11396D01*
X6044Y-11392D01*
X6042Y-11387D01*
X6037Y-11376D01*
X6032Y-11363D01*
X6026Y-11348D01*
X6022Y-11332D01*
Y-11332D01*
X6021Y-11330D01*
X6020Y-11328D01*
X6020Y-11324D01*
X6019Y-11320D01*
X6018Y-11315D01*
X6017Y-11310D01*
X6017Y-11303D01*
X6015Y-11296D01*
X6014Y-11288D01*
X6013Y-11279D01*
X6013Y-11270D01*
X6012Y-11251D01*
X6011Y-11230D01*
Y-11000D01*
X6649D01*
Y-11238D01*
D02*
G37*
G36*
X6190Y-11692D02*
X6190D01*
X6188Y-11692D01*
X6184Y-11693D01*
X6179Y-11694D01*
X6174Y-11695D01*
X6168Y-11698D01*
X6161Y-11700D01*
X6153Y-11702D01*
X6137Y-11709D01*
X6122Y-11717D01*
X6114Y-11721D01*
X6107Y-11726D01*
X6100Y-11731D01*
X6094Y-11737D01*
X6094Y-11738D01*
X6093Y-11739D01*
X6091Y-11740D01*
X6090Y-11743D01*
X6087Y-11746D01*
X6085Y-11750D01*
X6082Y-11754D01*
X6080Y-11759D01*
X6074Y-11771D01*
X6069Y-11784D01*
X6066Y-11800D01*
X6065Y-11808D01*
X6065Y-11816D01*
Y-11822D01*
X6065Y-11826D01*
X6066Y-11830D01*
X6067Y-11836D01*
X6068Y-11842D01*
X6070Y-11849D01*
X6071Y-11856D01*
X6074Y-11863D01*
X6077Y-11871D01*
X6081Y-11879D01*
X6085Y-11887D01*
X6090Y-11895D01*
X6096Y-11903D01*
X6103Y-11910D01*
X6104Y-11910D01*
X6105Y-11911D01*
X6107Y-11913D01*
X6110Y-11916D01*
X6114Y-11919D01*
X6118Y-11922D01*
X6123Y-11925D01*
X6129Y-11929D01*
X6136Y-11932D01*
X6143Y-11936D01*
X6151Y-11939D01*
X6159Y-11942D01*
X6168Y-11945D01*
X6177Y-11946D01*
X6187Y-11947D01*
X6198Y-11948D01*
X6198D01*
X6200D01*
X6203D01*
X6207Y-11947D01*
X6212Y-11947D01*
X6216Y-11946D01*
X6223Y-11945D01*
X6229Y-11944D01*
X6243Y-11939D01*
X6251Y-11936D01*
X6258Y-11933D01*
X6266Y-11929D01*
X6273Y-11924D01*
X6280Y-11919D01*
X6287Y-11913D01*
X6287Y-11912D01*
X6288Y-11911D01*
X6290Y-11909D01*
X6292Y-11906D01*
X6295Y-11903D01*
X6298Y-11899D01*
X6301Y-11894D01*
X6305Y-11888D01*
X6307Y-11882D01*
X6311Y-11875D01*
X6313Y-11868D01*
X6316Y-11860D01*
X6318Y-11851D01*
X6320Y-11842D01*
X6321Y-11833D01*
X6322Y-11823D01*
Y-11819D01*
X6321Y-11814D01*
X6321Y-11808D01*
X6319Y-11800D01*
X6318Y-11790D01*
X6316Y-11780D01*
X6313Y-11767D01*
X6382Y-11776D01*
Y-11777D01*
X6381Y-11781D01*
X6381Y-11785D01*
Y-11794D01*
X6381Y-11797D01*
Y-11802D01*
X6383Y-11807D01*
X6383Y-11813D01*
X6384Y-11819D01*
X6388Y-11833D01*
X6392Y-11848D01*
X6399Y-11863D01*
X6403Y-11871D01*
X6407Y-11879D01*
X6408Y-11879D01*
X6408Y-11880D01*
X6410Y-11883D01*
X6412Y-11885D01*
X6415Y-11888D01*
X6418Y-11891D01*
X6422Y-11895D01*
X6427Y-11899D01*
X6432Y-11903D01*
X6438Y-11906D01*
X6445Y-11909D01*
X6452Y-11913D01*
X6460Y-11915D01*
X6468Y-11917D01*
X6478Y-11918D01*
X6488Y-11919D01*
X6488D01*
X6489D01*
X6492D01*
X6495Y-11918D01*
X6498Y-11918D01*
X6503Y-11917D01*
X6513Y-11915D01*
X6524Y-11911D01*
X6536Y-11906D01*
X6542Y-11903D01*
X6548Y-11899D01*
X6553Y-11894D01*
X6559Y-11889D01*
X6559Y-11889D01*
X6560Y-11888D01*
X6561Y-11887D01*
X6563Y-11884D01*
X6565Y-11881D01*
X6568Y-11878D01*
X6570Y-11874D01*
X6573Y-11869D01*
X6579Y-11858D01*
X6583Y-11845D01*
X6586Y-11831D01*
X6587Y-11822D01*
X6587Y-11814D01*
Y-11810D01*
X6587Y-11806D01*
X6586Y-11802D01*
X6586Y-11798D01*
X6584Y-11787D01*
X6580Y-11776D01*
X6575Y-11763D01*
X6572Y-11756D01*
X6568Y-11750D01*
X6564Y-11744D01*
X6559Y-11738D01*
X6558Y-11738D01*
X6558Y-11737D01*
X6556Y-11735D01*
X6553Y-11733D01*
X6550Y-11731D01*
X6547Y-11728D01*
X6542Y-11725D01*
X6537Y-11722D01*
X6532Y-11719D01*
X6525Y-11715D01*
X6518Y-11712D01*
X6510Y-11709D01*
X6502Y-11706D01*
X6493Y-11703D01*
X6483Y-11701D01*
X6472Y-11699D01*
X6486Y-11621D01*
X6487D01*
X6489Y-11621D01*
X6494Y-11622D01*
X6499Y-11623D01*
X6506Y-11626D01*
X6513Y-11628D01*
X6522Y-11631D01*
X6531Y-11634D01*
X6540Y-11638D01*
X6550Y-11643D01*
X6560Y-11648D01*
X6571Y-11654D01*
X6581Y-11661D01*
X6590Y-11668D01*
X6600Y-11677D01*
X6608Y-11686D01*
X6609Y-11686D01*
X6610Y-11688D01*
X6612Y-11690D01*
X6615Y-11695D01*
X6618Y-11700D01*
X6622Y-11705D01*
X6626Y-11713D01*
X6630Y-11720D01*
X6634Y-11729D01*
X6638Y-11739D01*
X6642Y-11749D01*
X6645Y-11760D01*
X6648Y-11772D01*
X6650Y-11785D01*
X6651Y-11798D01*
X6652Y-11812D01*
Y-11817D01*
X6651Y-11821D01*
Y-11826D01*
X6651Y-11831D01*
X6650Y-11837D01*
X6649Y-11844D01*
X6646Y-11859D01*
X6642Y-11875D01*
X6637Y-11892D01*
X6629Y-11909D01*
Y-11909D01*
X6628Y-11911D01*
X6627Y-11913D01*
X6625Y-11916D01*
X6623Y-11920D01*
X6620Y-11924D01*
X6613Y-11934D01*
X6605Y-11944D01*
X6594Y-11955D01*
X6582Y-11966D01*
X6568Y-11976D01*
X6568Y-11976D01*
X6566Y-11977D01*
X6564Y-11978D01*
X6561Y-11980D01*
X6558Y-11981D01*
X6554Y-11983D01*
X6549Y-11986D01*
X6543Y-11988D01*
X6531Y-11992D01*
X6517Y-11996D01*
X6502Y-11998D01*
X6494Y-11999D01*
X6486D01*
X6485D01*
X6484D01*
X6482D01*
X6479Y-11999D01*
X6475D01*
X6471Y-11998D01*
X6461Y-11997D01*
X6449Y-11994D01*
X6436Y-11990D01*
X6424Y-11985D01*
X6410Y-11977D01*
X6410D01*
X6409Y-11976D01*
X6407Y-11975D01*
X6405Y-11973D01*
X6399Y-11967D01*
X6391Y-11960D01*
X6383Y-11951D01*
X6373Y-11940D01*
X6365Y-11926D01*
X6357Y-11911D01*
Y-11912D01*
X6356Y-11914D01*
X6355Y-11917D01*
X6354Y-11921D01*
X6352Y-11925D01*
X6350Y-11931D01*
X6348Y-11937D01*
X6345Y-11944D01*
X6338Y-11958D01*
X6333Y-11965D01*
X6328Y-11972D01*
X6323Y-11980D01*
X6316Y-11987D01*
X6310Y-11993D01*
X6302Y-11999D01*
X6302Y-12000D01*
X6301Y-12001D01*
X6298Y-12002D01*
X6295Y-12004D01*
X6291Y-12007D01*
X6286Y-12009D01*
X6281Y-12012D01*
X6274Y-12016D01*
X6267Y-12018D01*
X6259Y-12021D01*
X6251Y-12024D01*
X6241Y-12026D01*
X6232Y-12028D01*
X6221Y-12030D01*
X6211Y-12030D01*
X6199Y-12031D01*
X6198D01*
X6195D01*
X6191Y-12030D01*
X6185Y-12030D01*
X6178Y-12029D01*
X6170Y-12028D01*
X6161Y-12026D01*
X6150Y-12023D01*
X6140Y-12020D01*
X6128Y-12016D01*
X6116Y-12011D01*
X6104Y-12005D01*
X6092Y-11998D01*
X6080Y-11990D01*
X6069Y-11981D01*
X6058Y-11970D01*
X6057Y-11969D01*
X6055Y-11967D01*
X6052Y-11963D01*
X6049Y-11958D01*
X6044Y-11952D01*
X6039Y-11945D01*
X6034Y-11937D01*
X6029Y-11927D01*
X6023Y-11917D01*
X6018Y-11905D01*
X6013Y-11893D01*
X6009Y-11879D01*
X6006Y-11864D01*
X6003Y-11849D01*
X6001Y-11833D01*
X6000Y-11816D01*
Y-11812D01*
X6001Y-11807D01*
Y-11802D01*
X6002Y-11795D01*
X6003Y-11786D01*
X6004Y-11777D01*
X6006Y-11767D01*
X6009Y-11756D01*
X6012Y-11745D01*
X6016Y-11733D01*
X6021Y-11721D01*
X6027Y-11709D01*
X6033Y-11698D01*
X6041Y-11687D01*
X6050Y-11676D01*
X6050Y-11676D01*
X6052Y-11674D01*
X6055Y-11671D01*
X6059Y-11667D01*
X6064Y-11663D01*
X6070Y-11658D01*
X6077Y-11653D01*
X6085Y-11647D01*
X6094Y-11642D01*
X6104Y-11636D01*
X6115Y-11631D01*
X6126Y-11626D01*
X6138Y-11622D01*
X6152Y-11618D01*
X6166Y-11615D01*
X6180Y-11613D01*
X6190Y-11692D01*
D02*
G37*
G36*
X6638Y10762D02*
X6638Y10755D01*
Y10747D01*
X6637Y10738D01*
X6636Y10720D01*
X6635Y10701D01*
X6632Y10683D01*
X6631Y10674D01*
X6629Y10667D01*
Y10666D01*
X6628Y10664D01*
X6628Y10661D01*
X6627Y10657D01*
X6625Y10653D01*
X6623Y10647D01*
X6621Y10641D01*
X6618Y10635D01*
X6612Y10620D01*
X6604Y10604D01*
X6595Y10588D01*
X6583Y10573D01*
X6582Y10573D01*
X6581Y10571D01*
X6579Y10568D01*
X6575Y10565D01*
X6571Y10560D01*
X6566Y10556D01*
X6560Y10550D01*
X6554Y10545D01*
X6546Y10539D01*
X6538Y10533D01*
X6529Y10526D01*
X6519Y10520D01*
X6509Y10514D01*
X6498Y10508D01*
X6486Y10503D01*
X6474Y10498D01*
X6473Y10497D01*
X6471Y10497D01*
X6467Y10496D01*
X6462Y10494D01*
X6456Y10492D01*
X6449Y10489D01*
X6440Y10487D01*
X6430Y10485D01*
X6419Y10483D01*
X6408Y10481D01*
X6395Y10478D01*
X6382Y10476D01*
X6368Y10475D01*
X6353Y10473D01*
X6338Y10472D01*
X6322D01*
X6322D01*
X6319D01*
X6315D01*
X6310D01*
X6304Y10473D01*
X6296Y10473D01*
X6288Y10474D01*
X6279Y10475D01*
X6269Y10475D01*
X6259Y10477D01*
X6237Y10480D01*
X6215Y10484D01*
X6193Y10489D01*
X6193D01*
X6191Y10490D01*
X6188Y10491D01*
X6184Y10493D01*
X6179Y10494D01*
X6174Y10496D01*
X6167Y10499D01*
X6161Y10501D01*
X6146Y10508D01*
X6131Y10515D01*
X6115Y10524D01*
X6100Y10533D01*
X6100Y10534D01*
X6099Y10534D01*
X6097Y10536D01*
X6094Y10538D01*
X6087Y10543D01*
X6079Y10550D01*
X6070Y10559D01*
X6060Y10569D01*
X6051Y10580D01*
X6043Y10591D01*
Y10592D01*
X6042Y10593D01*
X6040Y10595D01*
X6039Y10597D01*
X6038Y10600D01*
X6035Y10604D01*
X6033Y10608D01*
X6031Y10613D01*
X6025Y10624D01*
X6020Y10637D01*
X6015Y10652D01*
X6011Y10668D01*
Y10668D01*
X6010Y10670D01*
X6009Y10672D01*
X6009Y10676D01*
X6008Y10680D01*
X6007Y10685D01*
X6006Y10690D01*
X6006Y10697D01*
X6004Y10704D01*
X6003Y10712D01*
X6002Y10721D01*
X6002Y10730D01*
X6001Y10749D01*
X6000Y10770D01*
Y11000D01*
X6638D01*
Y10762D01*
D02*
G37*
G36*
Y10122D02*
Y10058D01*
X6225D01*
Y9972D01*
X6153D01*
Y10058D01*
X6000D01*
Y10137D01*
X6153D01*
Y10414D01*
X6225D01*
X6638Y10122D01*
D02*
G37*
%LPC*%
G36*
X6574Y-11085D02*
X6086D01*
Y-11231D01*
X6087Y-11236D01*
Y-11243D01*
X6087Y-11250D01*
X6088Y-11257D01*
X6089Y-11273D01*
X6091Y-11289D01*
X6094Y-11305D01*
X6096Y-11312D01*
X6098Y-11319D01*
Y-11320D01*
X6099Y-11321D01*
X6099Y-11323D01*
X6100Y-11326D01*
X6103Y-11332D01*
X6106Y-11340D01*
X6111Y-11349D01*
X6117Y-11359D01*
X6123Y-11368D01*
X6131Y-11377D01*
X6132Y-11378D01*
X6133Y-11378D01*
X6135Y-11380D01*
X6137Y-11382D01*
X6140Y-11384D01*
X6143Y-11388D01*
X6148Y-11391D01*
X6152Y-11394D01*
X6158Y-11398D01*
X6164Y-11401D01*
X6171Y-11405D01*
X6178Y-11409D01*
X6194Y-11417D01*
X6212Y-11424D01*
X6212D01*
X6214Y-11424D01*
X6216Y-11425D01*
X6220Y-11426D01*
X6225Y-11427D01*
X6231Y-11429D01*
X6238Y-11431D01*
X6246Y-11432D01*
X6255Y-11434D01*
X6264Y-11435D01*
X6274Y-11437D01*
X6285Y-11438D01*
X6297Y-11439D01*
X6309Y-11440D01*
X6322Y-11441D01*
X6335D01*
X6336D01*
X6336D01*
X6339D01*
X6344D01*
X6352Y-11440D01*
X6360Y-11440D01*
X6369Y-11439D01*
X6380Y-11438D01*
X6392Y-11437D01*
X6404Y-11435D01*
X6416Y-11432D01*
X6430Y-11430D01*
X6442Y-11427D01*
X6455Y-11423D01*
X6467Y-11419D01*
X6478Y-11414D01*
X6489Y-11408D01*
X6489Y-11407D01*
X6491Y-11406D01*
X6494Y-11404D01*
X6498Y-11401D01*
X6502Y-11399D01*
X6507Y-11395D01*
X6512Y-11390D01*
X6518Y-11385D01*
X6530Y-11374D01*
X6542Y-11360D01*
X6548Y-11353D01*
X6553Y-11345D01*
X6557Y-11337D01*
X6561Y-11328D01*
Y-11327D01*
X6561Y-11326D01*
X6562Y-11324D01*
X6563Y-11321D01*
X6564Y-11318D01*
X6565Y-11313D01*
X6566Y-11308D01*
X6568Y-11302D01*
X6569Y-11295D01*
X6570Y-11286D01*
X6571Y-11277D01*
X6572Y-11267D01*
X6573Y-11257D01*
X6574Y-11245D01*
X6574Y-11233D01*
Y-11085D01*
D02*
G37*
G36*
X6563Y10915D02*
X6075D01*
Y10769D01*
X6076Y10764D01*
Y10757D01*
X6076Y10750D01*
X6077Y10743D01*
X6078Y10727D01*
X6080Y10711D01*
X6083Y10695D01*
X6085Y10688D01*
X6087Y10681D01*
Y10680D01*
X6087Y10679D01*
X6088Y10677D01*
X6089Y10674D01*
X6092Y10668D01*
X6095Y10660D01*
X6100Y10651D01*
X6106Y10641D01*
X6112Y10632D01*
X6120Y10623D01*
X6121Y10622D01*
X6122Y10622D01*
X6123Y10620D01*
X6126Y10618D01*
X6128Y10616D01*
X6132Y10612D01*
X6137Y10609D01*
X6141Y10606D01*
X6147Y10602D01*
X6153Y10599D01*
X6159Y10595D01*
X6167Y10591D01*
X6183Y10583D01*
X6200Y10576D01*
X6201D01*
X6203Y10576D01*
X6205Y10575D01*
X6209Y10574D01*
X6214Y10573D01*
X6220Y10571D01*
X6227Y10569D01*
X6235Y10568D01*
X6244Y10566D01*
X6253Y10565D01*
X6263Y10563D01*
X6274Y10562D01*
X6286Y10561D01*
X6298Y10560D01*
X6311Y10559D01*
X6324D01*
X6324D01*
X6325D01*
X6328D01*
X6333D01*
X6341Y10560D01*
X6349Y10560D01*
X6358Y10561D01*
X6369Y10562D01*
X6381Y10563D01*
X6393Y10565D01*
X6405Y10568D01*
X6419Y10570D01*
X6431Y10573D01*
X6444Y10577D01*
X6456Y10581D01*
X6467Y10586D01*
X6478Y10592D01*
X6478Y10593D01*
X6480Y10594D01*
X6483Y10596D01*
X6487Y10599D01*
X6491Y10601D01*
X6496Y10605D01*
X6501Y10610D01*
X6507Y10615D01*
X6519Y10626D01*
X6531Y10640D01*
X6537Y10647D01*
X6542Y10655D01*
X6546Y10663D01*
X6550Y10672D01*
Y10673D01*
X6550Y10674D01*
X6551Y10676D01*
X6552Y10679D01*
X6553Y10682D01*
X6554Y10687D01*
X6555Y10692D01*
X6556Y10698D01*
X6558Y10705D01*
X6559Y10714D01*
X6560Y10723D01*
X6561Y10733D01*
X6562Y10743D01*
X6563Y10755D01*
X6563Y10767D01*
Y10915D01*
D02*
G37*
G36*
X6225Y10337D02*
Y10137D01*
X6512D01*
X6225Y10337D01*
D02*
G37*
%LPD*%
D23*
X3930Y-7370D02*
X8070D01*
X3930Y-14630D02*
Y-7370D01*
Y-14630D02*
X8070D01*
Y-7370D01*
X3930Y14630D02*
X8070D01*
X3930Y7370D02*
Y14630D01*
Y7370D02*
X8070D01*
Y14630D01*
D29*
X1484Y13286D02*
X3516D01*
X1484Y8714D02*
X3516D01*
Y13286D01*
X1484Y8714D02*
Y13286D01*
X8725Y-15050D02*
X17250D01*
X8725Y-10950D02*
X17250D01*
Y-15050D02*
Y-10950D01*
X8725Y-15050D02*
Y-10950D01*
Y10950D02*
X17250D01*
X8725Y15050D02*
X17250D01*
Y10950D02*
Y15050D01*
X8725Y10950D02*
Y15050D01*
X8476Y-8838D02*
X11524D01*
X8476Y-10362D02*
X11524D01*
X8476D02*
Y-8838D01*
X11524Y-10362D02*
Y-8838D01*
X8476Y10362D02*
X11524D01*
X8476Y8838D02*
X11524D01*
X8476D02*
Y10362D01*
X11524Y8838D02*
Y10362D01*
X18238Y7476D02*
Y10524D01*
X19762Y7476D02*
Y10524D01*
X18238Y7476D02*
X19762D01*
X18238Y10524D02*
X19762D01*
X18238Y-10524D02*
Y-7476D01*
X19762Y-10524D02*
Y-7476D01*
X18238Y-10524D02*
X19762D01*
X18238Y-7476D02*
X19762D01*
X1484Y-13286D02*
Y-8714D01*
X3516Y-13286D02*
Y-8714D01*
X1484Y-13286D02*
X3516D01*
X1484Y-8714D02*
X3516D01*
X2300Y11650D02*
X3000D01*
Y11300D01*
X2883Y11183D01*
X2650D01*
X2533Y11300D01*
Y11650D01*
Y11417D02*
X2300Y11183D01*
Y10484D02*
Y10950D01*
X2767Y10484D01*
X2883D01*
X3000Y10600D01*
Y10834D01*
X2883Y10950D01*
X13000Y-13000D02*
Y-12300D01*
X13350D01*
X13467Y-12417D01*
Y-12650D01*
X13350Y-12767D01*
X13000D01*
X13233D02*
X13467Y-13000D01*
X14050D02*
Y-12300D01*
X13700Y-12650D01*
X14166D01*
X13000Y13000D02*
Y13700D01*
X13350D01*
X13467Y13583D01*
Y13350D01*
X13350Y13233D01*
X13000D01*
X13233D02*
X13467Y13000D01*
X13700Y13583D02*
X13816Y13700D01*
X14050D01*
X14166Y13583D01*
Y13467D01*
X14050Y13350D01*
X13933D01*
X14050D01*
X14166Y13233D01*
Y13117D01*
X14050Y13000D01*
X13816D01*
X13700Y13117D01*
X10975Y-9250D02*
Y-9950D01*
X10625D01*
X10508Y-9833D01*
Y-9600D01*
X10625Y-9483D01*
X10975D01*
X10742D02*
X10508Y-9250D01*
X9809Y-9950D02*
X10275D01*
Y-9600D01*
X10042Y-9717D01*
X9925D01*
X9809Y-9600D01*
Y-9367D01*
X9925Y-9250D01*
X10159D01*
X10275Y-9367D01*
X10975Y9950D02*
Y9250D01*
X10625D01*
X10508Y9367D01*
Y9600D01*
X10625Y9717D01*
X10975D01*
X10742D02*
X10508Y9950D01*
X9809Y9250D02*
X10042Y9367D01*
X10275Y9600D01*
Y9833D01*
X10159Y9950D01*
X9925D01*
X9809Y9833D01*
Y9717D01*
X9925Y9600D01*
X10275D01*
X19233Y9508D02*
X19350Y9625D01*
Y9858D01*
X19233Y9975D01*
X18767D01*
X18650Y9858D01*
Y9625D01*
X18767Y9508D01*
X18650Y8809D02*
Y9275D01*
X19117Y8809D01*
X19233D01*
X19350Y8925D01*
Y9159D01*
X19233Y9275D01*
Y-8492D02*
X19350Y-8375D01*
Y-8142D01*
X19233Y-8025D01*
X18767D01*
X18650Y-8142D01*
Y-8375D01*
X18767Y-8492D01*
X18650Y-8725D02*
Y-8958D01*
Y-8841D01*
X19350D01*
X19233Y-8725D01*
X2150Y-10025D02*
X2850D01*
Y-10375D01*
X2733Y-10492D01*
X2500D01*
X2383Y-10375D01*
Y-10025D01*
Y-10258D02*
X2150Y-10492D01*
Y-10725D02*
Y-10958D01*
Y-10841D01*
X2850D01*
X2733Y-10725D01*
%TF.MD5,f05b7656d90c4f3b6373bfde8d86e130*%
M02*
