%TF.GenerationSoftware,Altium Limited,Altium Designer,26.3.0 (6)*%
G04 Layer_Color=8388736*
%FSLAX43Y43*%
%MOMM*%
%TF.SameCoordinates,4D96456C-6BE7-47CA-B8DA-71329816BD7D*%
%TF.FilePolarity,Negative*%
%TF.FileFunction,Soldermask,Top*%
%TF.Part,Single*%
G01*
G75*
%TA.AperFunction,SMDPad,CuDef*%
%ADD10R,1.100X1.200*%
%ADD11R,2.260X2.160*%
%TA.AperFunction,ComponentPad*%
%ADD20O,7.020X3.320*%
%ADD21C,1.520*%
%TA.AperFunction,SMDPad,CuDef*%
%ADD25R,1.620X1.020*%
%ADD26R,1.820X1.470*%
%ADD27R,0.830X1.280*%
%ADD28R,1.280X0.830*%
D10*
X13950Y9500D02*
D03*
X16050D02*
D03*
X13950Y-9500D02*
D03*
X16050D02*
D03*
D11*
X6000Y-13450D02*
D03*
Y-8550D02*
D03*
Y8550D02*
D03*
Y13450D02*
D03*
D20*
X-3100Y13200D02*
D03*
Y8800D02*
D03*
Y-8800D02*
D03*
Y-13200D02*
D03*
D21*
X24000Y-10500D02*
D03*
Y-7960D02*
D03*
X24000Y7500D02*
D03*
Y10040D02*
D03*
D25*
X2500Y12600D02*
D03*
Y9400D02*
D03*
Y-12600D02*
D03*
Y-9400D02*
D03*
D26*
X16275Y-11775D02*
D03*
X9725D02*
D03*
X16275Y-14225D02*
D03*
X9725D02*
D03*
X16275Y14225D02*
D03*
X9725D02*
D03*
X16275Y11775D02*
D03*
X9725D02*
D03*
D27*
X9000Y-9600D02*
D03*
X11000D02*
D03*
X9000Y9600D02*
D03*
X11000D02*
D03*
D28*
X19000Y8000D02*
D03*
Y10000D02*
D03*
Y-10000D02*
D03*
Y-8000D02*
D03*
%TF.MD5,35bf650a62b967fbb0edc3e42cc3eb44*%
M02*
