%TF.GenerationSoftware,Altium Limited,Altium Designer,26.3.0 (6)*%
G04 Layer_Physical_Order=1*
G04 Layer_Color=255*
%FSLAX43Y43*%
%MOMM*%
%TF.SameCoordinates,4D96456C-6BE7-47CA-B8DA-71329816BD7D*%
%TF.FilePolarity,Positive*%
%TF.FileFunction,Copper,L1,Top,Signal*%
%TF.Part,Single*%
G01*
G75*
%TA.AperFunction,SMDPad,CuDef*%
%ADD10R,1.100X1.200*%
%ADD11R,2.260X2.160*%
%ADD12R,1.600X1.000*%
%ADD13R,1.800X1.450*%
%ADD14R,0.800X1.250*%
%ADD15R,1.250X0.800*%
%TA.AperFunction,Conductor*%
%ADD16C,1.000*%
%ADD17C,2.000*%
%TA.AperFunction,ComponentPad*%
%ADD18O,7.000X3.300*%
%ADD19C,1.500*%
G36*
X10644Y11050D02*
X8775D01*
X8340Y11485D01*
X-6613D01*
X-6753Y11628D01*
X-6720Y15260D01*
X10644D01*
Y11050D01*
D02*
G37*
G36*
X24975Y14175D02*
Y9375D01*
X24500Y8900D01*
X15488D01*
X15416Y14958D01*
X15556Y15100D01*
X24050D01*
X24975Y14175D01*
D02*
G37*
G36*
X7196Y10175D02*
X7196Y10175D01*
X9350D01*
Y9000D01*
X9393D01*
X9615Y8860D01*
X10425Y8050D01*
X17942D01*
X18367Y8475D01*
X24625D01*
X25050Y8050D01*
Y5950D01*
X23300Y4200D01*
X7725D01*
X5200Y6725D01*
X-6753D01*
X-6774Y10250D01*
X-6575Y10450D01*
X6921D01*
X7196Y10175D01*
D02*
G37*
G36*
X23325Y-3900D02*
X24825Y-5400D01*
Y-8725D01*
X20100D01*
X19600Y-8225D01*
X9400D01*
Y-10525D01*
X-6600D01*
X-6863Y-10262D01*
Y-6637D01*
X0D01*
X0Y-6637D01*
X743Y-6596D01*
X865Y-6575D01*
X4686D01*
X7361Y-3900D01*
X23325Y-3900D01*
D02*
G37*
G36*
X24825Y-9337D02*
Y-14875D01*
X15377D01*
X15375Y-14874D01*
Y-9075D01*
X24562D01*
X24825Y-9337D01*
D02*
G37*
G36*
X10675Y-15225D02*
X-6750D01*
X-6775Y-15215D01*
Y-11500D01*
X10675D01*
Y-15225D01*
D02*
G37*
D10*
X13950Y9500D02*
D03*
X16050D02*
D03*
X13950Y-9500D02*
D03*
X16050D02*
D03*
D11*
X6000Y-13450D02*
D03*
Y-8550D02*
D03*
Y8550D02*
D03*
Y13450D02*
D03*
D12*
X2500Y12600D02*
D03*
Y9400D02*
D03*
Y-12600D02*
D03*
Y-9400D02*
D03*
D13*
X16275Y-11775D02*
D03*
X9725D02*
D03*
X16275Y-14225D02*
D03*
X9725D02*
D03*
X16275Y14225D02*
D03*
X9725D02*
D03*
X16275Y11775D02*
D03*
X9725D02*
D03*
D14*
X9000Y-9600D02*
D03*
X11000D02*
D03*
X9000Y9600D02*
D03*
X11000D02*
D03*
D15*
X19000Y8000D02*
D03*
Y10000D02*
D03*
Y-10000D02*
D03*
Y-8000D02*
D03*
D16*
X5975Y8450D02*
X6425D01*
X16925Y-5925D02*
X18875Y-7875D01*
X6630Y-7920D02*
X8625Y-5925D01*
X16925D01*
X6000Y-8550D02*
X6050D01*
X19125Y-10100D02*
X19475Y-10450D01*
X19100Y-10100D02*
X19125D01*
X19475Y-10450D02*
X23950D01*
X18500Y-9500D02*
X19100Y-10100D01*
X18875Y-7900D02*
Y-7875D01*
Y-7900D02*
X18900D01*
X6050Y-8550D02*
X6630Y-7970D01*
Y-7920D01*
X18900Y-7900D02*
X19000Y-8000D01*
X5975Y8450D02*
X6425D01*
X23960Y-8000D02*
X24000Y-7960D01*
X19000Y-8000D02*
X23960D01*
X13850Y-9600D02*
X13950Y-9500D01*
X11000Y-9600D02*
X13850D01*
X7950Y-8550D02*
X9000Y-9600D01*
X6000Y-8550D02*
X7950D01*
X16050Y-9500D02*
X16275Y-9725D01*
Y-11775D02*
Y-9725D01*
Y-14225D02*
Y-11775D01*
X6000Y-13450D02*
X6580Y-14030D01*
X5150Y-12600D02*
X6000Y-13450D01*
X4488Y-12600D02*
X5150D01*
X4465Y-12578D02*
X4488Y-12600D01*
X2500D02*
X3162D01*
X3185Y-12578D01*
X7216Y-14050D02*
X9550D01*
X6580Y-14030D02*
X7196D01*
X7216Y-14050D01*
X9550D02*
X9725Y-14225D01*
Y-11775D01*
X3185Y-12578D02*
X4465D01*
X1500Y-13200D02*
X2275Y-12425D01*
X-3100Y-13200D02*
X1500D01*
X3350Y-8550D02*
X6000D01*
X2500Y-9400D02*
X3350Y-8550D01*
X-2500Y-9400D02*
X2500D01*
X-3100Y-8800D02*
X-2500Y-9400D01*
X23925Y7425D02*
X24000Y7500D01*
X8944Y8000D02*
X9569D01*
X8914Y8030D02*
X8944Y8000D01*
X9569D02*
X9844Y7725D01*
X23960Y10000D02*
X24000Y10040D01*
X16050Y9500D02*
X16550Y10000D01*
X16275Y9725D02*
Y11775D01*
X16050Y9500D02*
X16275Y9725D01*
X13850Y9600D02*
X13950Y9500D01*
X11000Y9600D02*
X13850D01*
X2500Y12600D02*
X3350Y13450D01*
X1900Y13200D02*
X2500Y12600D01*
D17*
X3270Y8630D02*
X5920D01*
X2500Y9400D02*
X3270Y8630D01*
X-3091Y8809D02*
X1909D01*
X-3100Y8800D02*
X-3091Y8809D01*
X1909D02*
X2500Y9400D01*
X5920Y8630D02*
X6000Y8550D01*
X10644Y6300D02*
X18400D01*
X8944Y8000D02*
X10644Y6300D01*
X18400D02*
X19525Y7425D01*
X23925D01*
X19000Y10000D02*
X23960D01*
X16550D02*
X19000D01*
X6000Y13450D02*
X6775Y14225D01*
X3350Y13450D02*
X6000D01*
X-3100Y13200D02*
X1900D01*
D18*
X-3100D02*
D03*
Y8800D02*
D03*
Y-8800D02*
D03*
Y-13200D02*
D03*
D19*
X24000Y-10500D02*
D03*
Y-7960D02*
D03*
X24000Y7500D02*
D03*
Y10040D02*
D03*
%TF.MD5,b1eb9f2a97575286c3b070c2477d66df*%
M02*
