%TF.GenerationSoftware,Altium Limited,Altium Designer,26.3.0 (6)*%
G04 Layer_Color=8421504*
%FSLAX43Y43*%
%MOMM*%
%TF.SameCoordinates,4D96456C-6BE7-47CA-B8DA-71329816BD7D*%
%TF.FilePolarity,Positive*%
%TF.FileFunction,Paste,Top*%
%TF.Part,Single*%
G01*
G75*
%TA.AperFunction,SMDPad,CuDef*%
%ADD10R,1.100X1.200*%
%ADD11R,2.260X2.160*%
%ADD12R,1.600X1.000*%
%ADD13R,1.800X1.450*%
%ADD14R,0.800X1.250*%
%ADD15R,1.250X0.800*%
D10*
X13950Y9500D02*
D03*
X16050D02*
D03*
X13950Y-9500D02*
D03*
X16050D02*
D03*
D11*
X6000Y-13450D02*
D03*
Y-8550D02*
D03*
Y8550D02*
D03*
Y13450D02*
D03*
D12*
X2500Y12600D02*
D03*
Y9400D02*
D03*
Y-12600D02*
D03*
Y-9400D02*
D03*
D13*
X16275Y-11775D02*
D03*
X9725D02*
D03*
X16275Y-14225D02*
D03*
X9725D02*
D03*
X16275Y14225D02*
D03*
X9725D02*
D03*
X16275Y11775D02*
D03*
X9725D02*
D03*
D14*
X9000Y-9600D02*
D03*
X11000D02*
D03*
X9000Y9600D02*
D03*
X11000D02*
D03*
D15*
X19000Y8000D02*
D03*
Y10000D02*
D03*
Y-10000D02*
D03*
Y-8000D02*
D03*
%TF.MD5,0226b4b347f4b88bcb73cebe3c221054*%
M02*
