%TF.GenerationSoftware,Altium Limited,Altium Designer,24.7.2 (38)*%
G04 Layer_Color=65535*
%FSLAX43Y43*%
%MOMM*%
%TF.SameCoordinates,E959DE18-6F16-491B-AE1F-B8F7C51A02EC*%
%TF.FilePolarity,Positive*%
%TF.FileFunction,Legend,Top*%
%TF.Part,Single*%
G01*
G75*
%TA.AperFunction,NonConductor*%
%ADD21C,0.250*%
%ADD22C,0.200*%
%ADD23C,0.254*%
%ADD24R,0.381X3.048*%
D21*
X14700Y-11600D02*
G03*
X14700Y-11600I-125J0D01*
G01*
X14725Y11225D02*
G03*
X14725Y11225I-125J0D01*
G01*
D22*
X15362Y-7539D02*
Y-4491D01*
X13838D02*
X15362D01*
X13838Y-7539D02*
X15362D01*
X13838D02*
Y-4491D01*
X12364Y11959D02*
X16936D01*
Y13991D01*
X12364Y11959D02*
Y13991D01*
X16936D01*
X13763Y4151D02*
Y7199D01*
Y4151D02*
X15287D01*
X13763Y7199D02*
X15287D01*
Y4151D02*
Y7199D01*
X17863Y7551D02*
Y10599D01*
Y7551D02*
X19387D01*
X17863Y10599D02*
X19387D01*
Y7551D02*
Y10599D01*
X12314Y-13916D02*
X16886D01*
Y-11884D01*
X12314Y-13916D02*
Y-11884D01*
X16886D01*
X17863Y-10924D02*
Y-7876D01*
Y-10924D02*
X19387D01*
X17863Y-7876D02*
X19387D01*
Y-10924D02*
Y-7876D01*
X334Y-12986D02*
Y-8414D01*
Y-12986D02*
X2366D01*
X334Y-8414D02*
X2366D01*
Y-12986D02*
Y-8414D01*
Y8514D02*
Y13086D01*
X334D02*
X2366D01*
X334Y8514D02*
X2366D01*
X334D02*
Y13086D01*
X20350Y-5375D02*
X26350D01*
X20350Y-13000D02*
X26350D01*
Y-5375D01*
X20350Y-13000D02*
Y-5375D01*
X20350Y12676D02*
X26350D01*
X20350Y5051D02*
X26350D01*
Y12676D01*
X20350Y5051D02*
Y12676D01*
X13925Y-9575D02*
Y-9325D01*
X15275Y-9575D02*
Y-9325D01*
X15250Y8950D02*
Y9200D01*
X13900Y8950D02*
Y9200D01*
D23*
X7216Y-9519D02*
Y-5709D01*
X12296Y-9138D02*
Y-6090D01*
X8740Y-9138D02*
Y-6090D01*
X12550Y-9138D02*
Y-6090D01*
X8740D02*
X12550D01*
X8740Y-9138D02*
X12550D01*
X9284Y-13805D02*
Y-9995D01*
X4204Y-13424D02*
Y-10376D01*
X7760Y-13424D02*
Y-10376D01*
X3950Y-13424D02*
Y-10376D01*
Y-13424D02*
X7760D01*
X3950Y-10376D02*
X7760D01*
X7216Y6120D02*
Y9930D01*
X12296Y6501D02*
Y9549D01*
X8740Y6501D02*
Y9549D01*
X12550Y6501D02*
Y9549D01*
X8740D02*
X12550D01*
X8740Y6501D02*
X12550D01*
X9384Y10345D02*
Y14155D01*
X4304Y10726D02*
Y13774D01*
X7860Y10726D02*
Y13774D01*
X4050Y10726D02*
Y13774D01*
Y10726D02*
X7860D01*
X4050Y13774D02*
X7860D01*
X13934Y14350D02*
Y15150D01*
X14333D01*
X14467Y15017D01*
Y14750D01*
X14333Y14617D01*
X13934D01*
X14200D02*
X14467Y14350D01*
X14733Y15017D02*
X14867Y15150D01*
X15133D01*
X15266Y15017D01*
Y14883D01*
X15133Y14750D01*
X15000D01*
X15133D01*
X15266Y14617D01*
Y14483D01*
X15133Y14350D01*
X14867D01*
X14733Y14483D01*
X13896Y-4065D02*
Y-3265D01*
X14296D01*
X14429Y-3398D01*
Y-3665D01*
X14296Y-3798D01*
X13896D01*
X14162D02*
X14429Y-4065D01*
X15229Y-3265D02*
X14696D01*
Y-3665D01*
X14962Y-3532D01*
X15095D01*
X15229Y-3665D01*
Y-3932D01*
X15095Y-4065D01*
X14829D01*
X14696Y-3932D01*
X22584Y13875D02*
X23117Y13075D01*
Y13875D02*
X22584Y13075D01*
X23916D02*
X23383D01*
X23916Y13608D01*
Y13742D01*
X23783Y13875D01*
X23517D01*
X23383Y13742D01*
X22717Y-13505D02*
X23250Y-14305D01*
Y-13505D02*
X22717Y-14305D01*
X23517D02*
X23783D01*
X23650D01*
Y-13505D01*
X23517Y-13638D01*
X15750Y8291D02*
X16550D01*
Y8691D01*
X16417Y8824D01*
X15883D01*
X15750Y8691D01*
Y8291D01*
X16550Y9624D02*
Y9090D01*
X16017Y9624D01*
X15883D01*
X15750Y9490D01*
Y9224D01*
X15883Y9090D01*
X15850Y-9533D02*
X16650D01*
Y-9133D01*
X16517Y-9000D01*
X15983D01*
X15850Y-9133D01*
Y-9533D01*
X16650Y-8733D02*
Y-8467D01*
Y-8600D01*
X15850D01*
X15983Y-8733D01*
X7209Y15275D02*
Y14742D01*
X7475Y14475D01*
X7742Y14742D01*
Y15275D01*
X8008D02*
Y14475D01*
X8408D01*
X8542Y14608D01*
Y15142D01*
X8408Y15275D01*
X8008D01*
X9208Y14475D02*
Y15275D01*
X8808Y14875D01*
X9341D01*
X7059Y5450D02*
Y4917D01*
X7325Y4650D01*
X7592Y4917D01*
Y5450D01*
X7858D02*
Y4650D01*
X8258D01*
X8392Y4783D01*
Y5317D01*
X8258Y5450D01*
X7858D01*
X8658Y5317D02*
X8791Y5450D01*
X9058D01*
X9191Y5317D01*
Y5183D01*
X9058Y5050D01*
X8925D01*
X9058D01*
X9191Y4917D01*
Y4783D01*
X9058Y4650D01*
X8791D01*
X8658Y4783D01*
X7209Y-4239D02*
Y-4772D01*
X7475Y-5038D01*
X7742Y-4772D01*
Y-4239D01*
X8008D02*
Y-5038D01*
X8408D01*
X8542Y-4905D01*
Y-4372D01*
X8408Y-4239D01*
X8008D01*
X9341Y-5038D02*
X8808D01*
X9341Y-4505D01*
Y-4372D01*
X9208Y-4239D01*
X8941D01*
X8808Y-4372D01*
X7117Y-14200D02*
Y-14733D01*
X7384Y-15000D01*
X7650Y-14733D01*
Y-14200D01*
X7917D02*
Y-15000D01*
X8317D01*
X8450Y-14867D01*
Y-14333D01*
X8317Y-14200D01*
X7917D01*
X8716Y-15000D02*
X8983D01*
X8850D01*
Y-14200D01*
X8716Y-14333D01*
X13759Y2825D02*
Y3625D01*
X14158D01*
X14292Y3492D01*
Y3225D01*
X14158Y3092D01*
X13759D01*
X14025D02*
X14292Y2825D01*
X15091Y3625D02*
X14825Y3492D01*
X14558Y3225D01*
Y2958D01*
X14692Y2825D01*
X14958D01*
X15091Y2958D01*
Y3092D01*
X14958Y3225D01*
X14558D01*
X18492Y6817D02*
X18358Y6950D01*
X18092D01*
X17959Y6817D01*
Y6283D01*
X18092Y6150D01*
X18358D01*
X18492Y6283D01*
X19291Y6150D02*
X18758D01*
X19291Y6683D01*
Y6817D01*
X19158Y6950D01*
X18892D01*
X18758Y6817D01*
X18625Y-11797D02*
X18492Y-11664D01*
X18225D01*
X18092Y-11797D01*
Y-12330D01*
X18225Y-12463D01*
X18492D01*
X18625Y-12330D01*
X18892Y-12463D02*
X19158D01*
X19025D01*
Y-11664D01*
X18892Y-11797D01*
X659Y13675D02*
Y14475D01*
X1058D01*
X1192Y14342D01*
Y14075D01*
X1058Y13942D01*
X659D01*
X925D02*
X1192Y13675D01*
X1991D02*
X1458D01*
X1991Y14208D01*
Y14342D01*
X1858Y14475D01*
X1592D01*
X1458Y14342D01*
X14058Y-15061D02*
Y-14262D01*
X14458D01*
X14592Y-14395D01*
Y-14661D01*
X14458Y-14795D01*
X14058D01*
X14325D02*
X14592Y-15061D01*
X15258D02*
Y-14262D01*
X14858Y-14661D01*
X15391D01*
X892Y-14325D02*
Y-13525D01*
X1292D01*
X1425Y-13658D01*
Y-13925D01*
X1292Y-14058D01*
X892D01*
X1158D02*
X1425Y-14325D01*
X1692D02*
X1958D01*
X1825D01*
Y-13525D01*
X1692Y-13658D01*
X-1192Y13583D02*
X-1358Y13750D01*
X-1691D01*
X-1858Y13583D01*
Y12917D01*
X-1691Y12750D01*
X-1358D01*
X-1192Y12917D01*
Y13250D01*
X-1525D01*
X-858Y13750D02*
Y12750D01*
X-192D01*
X-1317Y-12967D02*
X-1483Y-12800D01*
X-1816D01*
X-1983Y-12967D01*
Y-13633D01*
X-1816Y-13800D01*
X-1483D01*
X-1317Y-13633D01*
Y-13300D01*
X-1650D01*
X-983Y-12800D02*
Y-13800D01*
Y-13300D01*
X-317D01*
Y-12800D01*
Y-13800D01*
X-1192Y8775D02*
X-1858D01*
Y7775D01*
X-1192D01*
X-1858Y8275D02*
X-1525D01*
X-858Y8775D02*
Y7775D01*
X-192D01*
X-1242Y-7750D02*
X-1908D01*
Y-8750D01*
X-1242D01*
X-1908Y-8250D02*
X-1575D01*
X-908Y-7750D02*
Y-8750D01*
Y-8250D01*
X-242D01*
Y-7750D01*
Y-8750D01*
D24*
X12359Y-7613D02*
D03*
X4141Y-11900D02*
D03*
X12360Y8025D02*
D03*
X4240Y12250D02*
D03*
%TF.MD5,7fa1ff2663ca985144cb9f10f089c2ab*%
M02*
