%TF.GenerationSoftware,Altium Limited,Altium Designer,26.3.0 (6)*%
G04 Layer_Color=65535*
%FSLAX43Y43*%
%MOMM*%
%TF.SameCoordinates,4D96456C-6BE7-47CA-B8DA-71329816BD7D*%
%TF.FilePolarity,Positive*%
%TF.FileFunction,Legend,Top*%
%TF.Part,Single*%
G01*
G75*
%TA.AperFunction,NonConductor*%
%ADD22C,0.250*%
%ADD23C,0.200*%
%ADD24C,0.254*%
D22*
X12975Y9525D02*
G03*
X12975Y9525I-125J0D01*
G01*
Y-9475D02*
G03*
X12975Y-9475I-125J0D01*
G01*
D23*
X14875Y10175D02*
X15125D01*
X14875Y8825D02*
X15125D01*
X14875Y-8825D02*
X15125D01*
X14875Y-10175D02*
X15125D01*
X7505Y-8625D02*
X7970D01*
X4030D02*
X4495D01*
X4030Y-13375D02*
Y-8625D01*
X7505Y-13375D02*
X7970D01*
X4030D02*
X4495D01*
X7970D02*
Y-8625D01*
X7505Y13375D02*
X7970D01*
X4030D02*
X4495D01*
X4030Y8625D02*
Y13375D01*
X7505Y8625D02*
X7970D01*
X4030D02*
X4495D01*
X7970D02*
Y13375D01*
X3516Y8714D02*
Y13286D01*
X1484D02*
X3516D01*
X1484Y8714D02*
X3516D01*
X1484D02*
Y13286D01*
X8725Y-15050D02*
X17250D01*
Y-15000D02*
Y-10950D01*
X8725Y-15050D02*
Y-10950D01*
X17250D01*
X8725Y10950D02*
X17250D01*
Y11000D02*
Y15050D01*
X8725Y10950D02*
Y15050D01*
X17250D01*
X8476Y-8838D02*
X11524D01*
X8476Y-10362D02*
Y-8838D01*
X11524Y-10362D02*
Y-8838D01*
X8476Y-10362D02*
X11524D01*
X8476Y10362D02*
X11524D01*
X8476Y8838D02*
Y10362D01*
X11524Y8838D02*
Y10362D01*
X8476Y8838D02*
X11524D01*
X18238Y7476D02*
Y10524D01*
Y7476D02*
X19762D01*
X18238Y10524D02*
X19762D01*
Y7476D02*
Y10524D01*
X18238Y-10524D02*
Y-7476D01*
Y-10524D02*
X19762D01*
X18238Y-7476D02*
X19762D01*
Y-10524D02*
Y-7476D01*
X1484Y-13286D02*
Y-8714D01*
Y-13286D02*
X3516D01*
X1484Y-8714D02*
X3516D01*
Y-13286D02*
Y-8714D01*
X20350Y-5375D02*
X26350D01*
X20350Y-13000D02*
X26350D01*
Y-5375D01*
X20350Y-13000D02*
Y-5375D01*
X20350Y12625D02*
X26350D01*
X20350Y5000D02*
X26350D01*
Y12625D01*
X20350Y5000D02*
Y12625D01*
X1033Y-13942D02*
X867Y-13775D01*
X534D01*
X367Y-13942D01*
Y-14608D01*
X534Y-14775D01*
X867D01*
X1033Y-14608D01*
Y-14275D01*
X700D01*
X1367Y-13775D02*
Y-14775D01*
Y-14275D01*
X2033D01*
Y-13775D01*
Y-14775D01*
X1358Y-7125D02*
X692D01*
Y-8125D01*
X1358D01*
X692Y-7625D02*
X1025D01*
X1692Y-7125D02*
Y-8125D01*
Y-7625D01*
X2358D01*
Y-7125D01*
Y-8125D01*
D24*
X4880Y6912D02*
Y5388D01*
X5642D01*
X5896Y5642D01*
Y6658D01*
X5642Y6912D01*
X4880D01*
X7166Y5388D02*
Y6912D01*
X6404Y6150D01*
X7420D01*
X4705Y-5338D02*
Y-6862D01*
X5467D01*
X5721Y-6608D01*
Y-5592D01*
X5467Y-5338D01*
X4705D01*
X6229Y-5592D02*
X6483Y-5338D01*
X6991D01*
X7245Y-5592D01*
Y-5846D01*
X6991Y-6100D01*
X6737D01*
X6991D01*
X7245Y-6354D01*
Y-6608D01*
X6991Y-6862D01*
X6483D01*
X6229Y-6608D01*
X17817Y13967D02*
Y14767D01*
X18217D01*
X18350Y14633D01*
Y14367D01*
X18217Y14233D01*
X17817D01*
X18084D02*
X18350Y13967D01*
X18617Y14633D02*
X18750Y14767D01*
X19017D01*
X19150Y14633D01*
Y14500D01*
X19017Y14367D01*
X18883D01*
X19017D01*
X19150Y14233D01*
Y14100D01*
X19017Y13967D01*
X18750D01*
X18617Y14100D01*
X10050Y-8291D02*
X9250D01*
Y-7892D01*
X9383Y-7758D01*
X9650D01*
X9783Y-7892D01*
Y-8291D01*
Y-8025D02*
X10050Y-7758D01*
X9250Y-6959D02*
Y-7492D01*
X9650D01*
X9517Y-7225D01*
Y-7092D01*
X9650Y-6959D01*
X9917D01*
X10050Y-7092D01*
Y-7358D01*
X9917Y-7492D01*
X22584Y13824D02*
X23117Y13024D01*
Y13824D02*
X22584Y13024D01*
X23916D02*
X23383D01*
X23916Y13557D01*
Y13691D01*
X23783Y13824D01*
X23517D01*
X23383Y13691D01*
X22717Y-13505D02*
X23250Y-14305D01*
Y-13505D02*
X22717Y-14305D01*
X23517D02*
X23783D01*
X23650D01*
Y-13505D01*
X23517Y-13638D01*
X15141Y7425D02*
Y8225D01*
X14742D01*
X14608Y8092D01*
Y7558D01*
X14742Y7425D01*
X15141D01*
X13809Y8225D02*
X14342D01*
X13809Y7692D01*
Y7558D01*
X13942Y7425D01*
X14208D01*
X14342Y7558D01*
X14742Y-7200D02*
Y-8000D01*
X15142D01*
X15275Y-7867D01*
Y-7333D01*
X15142Y-7200D01*
X14742D01*
X15542Y-8000D02*
X15808D01*
X15675D01*
Y-7200D01*
X15542Y-7333D01*
X8600Y7866D02*
X9400D01*
Y7467D01*
X9267Y7333D01*
X9000D01*
X8867Y7467D01*
Y7866D01*
Y7600D02*
X8600Y7333D01*
X9400Y6534D02*
X9267Y6800D01*
X9000Y7067D01*
X8733D01*
X8600Y6933D01*
Y6667D01*
X8733Y6534D01*
X8867D01*
X9000Y6667D01*
Y7067D01*
X18867Y6742D02*
X18733Y6875D01*
X18467D01*
X18334Y6742D01*
Y6208D01*
X18467Y6075D01*
X18733D01*
X18867Y6208D01*
X19666Y6075D02*
X19133D01*
X19666Y6608D01*
Y6742D01*
X19533Y6875D01*
X19267D01*
X19133Y6742D01*
X19000Y-6083D02*
X18867Y-5950D01*
X18600D01*
X18467Y-6083D01*
Y-6617D01*
X18600Y-6750D01*
X18867D01*
X19000Y-6617D01*
X19267Y-6750D02*
X19533D01*
X19400D01*
Y-5950D01*
X19267Y-6083D01*
X2384Y13625D02*
Y14425D01*
X2783D01*
X2917Y14292D01*
Y14025D01*
X2783Y13892D01*
X2384D01*
X2650D02*
X2917Y13625D01*
X3716D02*
X3183D01*
X3716Y14158D01*
Y14292D01*
X3583Y14425D01*
X3317D01*
X3183Y14292D01*
X17922Y-14767D02*
Y-13967D01*
X18321D01*
X18455Y-14100D01*
Y-14367D01*
X18321Y-14500D01*
X17922D01*
X18188D02*
X18455Y-14767D01*
X19121D02*
Y-13967D01*
X18721Y-14367D01*
X19254D01*
X2592Y-14500D02*
Y-13700D01*
X2992D01*
X3125Y-13833D01*
Y-14100D01*
X2992Y-14233D01*
X2592D01*
X2858D02*
X3125Y-14500D01*
X3392D02*
X3658D01*
X3525D01*
Y-13700D01*
X3392Y-13833D01*
X958Y14963D02*
X792Y15130D01*
X459D01*
X292Y14963D01*
Y14297D01*
X459Y14130D01*
X792D01*
X958Y14297D01*
Y14630D01*
X625D01*
X1292Y15130D02*
Y14130D01*
X1958D01*
X1233Y8225D02*
X567D01*
Y7225D01*
X1233D01*
X567Y7725D02*
X900D01*
X1567Y8225D02*
Y7225D01*
X2233D01*
%TF.MD5,a24ca11e5e345ca544b1088a8685f612*%
M02*
