%TF.GenerationSoftware,Altium Limited,Altium Designer,24.7.2 (38)*%
G04 Layer_Physical_Order=1*
G04 Layer_Color=255*
%FSLAX43Y43*%
%MOMM*%
%TF.SameCoordinates,E959DE18-6F16-491B-AE1F-B8F7C51A02EC*%
%TF.FilePolarity,Positive*%
%TF.FileFunction,Copper,L1,Top,Signal*%
%TF.Part,Single*%
G01*
G75*
%TA.AperFunction,Conductor*%
%ADD10C,1.000*%
%TA.AperFunction,SMDPad,CuDef*%
%ADD11R,1.250X0.800*%
%TA.AperFunction,ConnectorPad*%
%ADD12R,1.000X1.600*%
%TA.AperFunction,SMDPad,CuDef*%
%ADD13R,1.000X1.600*%
%ADD14R,2.400X2.400*%
%ADD15R,1.600X1.000*%
%ADD16R,1.200X1.100*%
%TA.AperFunction,ComponentPad*%
%ADD17O,4.200X2.000*%
%ADD18C,1.500*%
G36*
X-1497Y-13490D02*
X-1654Y-13521D01*
X-1952Y-13602D01*
X-2094Y-13652D01*
X-2363Y-13771D01*
X-2490Y-13839D01*
X-2613Y-13914D01*
X-2731Y-13995D01*
X-2843Y-14083D01*
X-3017Y-12324D01*
X-2897Y-12382D01*
X-2773Y-12431D01*
X-2645Y-12471D01*
X-2511Y-12501D01*
X-2373Y-12523D01*
X-2230Y-12535D01*
X-2082Y-12538D01*
X-1930Y-12532D01*
X-1772Y-12517D01*
X-1611Y-12492D01*
X-1497Y-13490D01*
D02*
G37*
G36*
X-1648Y-9076D02*
X-1817Y-9046D01*
X-2133Y-9013D01*
X-2281Y-9010D01*
X-2422Y-9015D01*
X-2555Y-9030D01*
X-2681Y-9053D01*
X-2800Y-9085D01*
X-2912Y-9126D01*
X-3017Y-9176D01*
X-2692Y-7542D01*
X-2625Y-7613D01*
X-2547Y-7681D01*
X-2456Y-7745D01*
X-2354Y-7806D01*
X-2239Y-7862D01*
X-2112Y-7915D01*
X-1974Y-7964D01*
X-1660Y-8051D01*
X-1485Y-8089D01*
X-1648Y-9076D01*
D02*
G37*
G36*
X-1312Y8190D02*
X-1526Y8125D01*
X-2214Y7866D01*
X-2343Y7801D01*
X-2456Y7736D01*
X-2551Y7671D01*
X-2630Y7606D01*
X-2692Y7542D01*
X-3017Y9176D01*
X-2907Y9124D01*
X-2791Y9083D01*
X-2669Y9052D01*
X-2541Y9032D01*
X-2407Y9023D01*
X-2267Y9024D01*
X-2121Y9035D01*
X-1969Y9058D01*
X-1811Y9091D01*
X-1646Y9134D01*
X-1312Y8190D01*
D02*
G37*
G36*
X-1597Y12463D02*
X-1757Y12495D01*
X-1913Y12517D01*
X-2065Y12529D01*
X-2213Y12530D01*
X-2357Y12522D01*
X-2497Y12503D01*
X-2633Y12474D01*
X-2765Y12434D01*
X-2893Y12384D01*
X-3017Y12324D01*
X-2843Y14083D01*
X-2737Y14000D01*
X-2625Y13922D01*
X-2385Y13781D01*
X-2257Y13718D01*
X-1985Y13606D01*
X-1840Y13557D01*
X-1536Y13475D01*
X-1597Y12463D01*
D02*
G37*
D10*
X5376Y14600D02*
G03*
X2984Y13609I-0J-3383D01*
G01*
X9961Y-4925D02*
G03*
X7329Y-6015I0J-3724D01*
G01*
X6519Y7325D02*
G03*
X12302Y4625I5783J4844D01*
G01*
X1405Y-9123D02*
G03*
X2909Y-8920I-4J5700D01*
G01*
X-3453Y8225D02*
G03*
X-2526Y8357I-2J3329D01*
G01*
X-4075Y-13250D02*
G03*
X693Y-12300I-8J12480D01*
G01*
X9383Y13648D02*
G03*
X7083Y14600I-2300J-2304D01*
G01*
X2617Y-13267D02*
G03*
X5178Y-14325I2556J2560D01*
G01*
X6531Y-14325D02*
G03*
X9476Y-13105I0J4164D01*
G01*
X21500Y-8325D02*
X21865Y-7960D01*
X24000D01*
X19039Y-8325D02*
X21500D01*
X1775Y12400D02*
X2984Y13609D01*
X1350Y12400D02*
X1775D01*
X9961Y-4925D02*
X14510D01*
X12302Y4625D02*
X14400D01*
X14525D02*
X14936D01*
X5119Y-8314D02*
X5819Y-7614D01*
X6081Y-7263D02*
X6444Y-6900D01*
X2909Y-8920D02*
X5119Y-8314D01*
X1943Y9200D02*
X5119Y8725D01*
X1350Y9200D02*
X1943D01*
X5119Y8725D02*
X5819Y8025D01*
X14612Y10075D02*
X16250D01*
X18386Y8075D02*
X21450D01*
X14936Y4625D02*
X18386Y8075D01*
X14562Y6987D02*
Y7925D01*
X14564Y7975D02*
X14575Y8025D01*
X14562Y7925D02*
X14564Y7975D01*
X14550Y6975D02*
X14562Y6987D01*
X-3001Y13300D02*
X896Y12400D01*
X1350Y12400D01*
X-4450Y13300D02*
X-3001Y13300D01*
X-2526Y8357D02*
X372Y9200D01*
X1078Y9200D02*
X1350Y9200D01*
X-4475Y8225D02*
X-3453Y8225D01*
X372Y9200D02*
X1078Y9200D01*
X21450Y8075D02*
X21974Y7551D01*
X24000D02*
X24000Y7551D01*
X21974Y7551D02*
X24000D01*
X6825Y11550D02*
X9650Y8725D01*
X6500Y11550D02*
X6825D01*
X9650Y8725D02*
X10350D01*
X10950Y8125D01*
X5819Y8025D02*
X6519Y7325D01*
X14655Y-8345D02*
Y-7200D01*
X15150Y-4925D02*
X18500Y-8275D01*
Y-8300D02*
X18525D01*
X14600Y-4925D02*
X15150D01*
X18500Y-8300D02*
Y-8275D01*
X18525Y-8300D02*
X18625Y-8400D01*
X14625Y-10525D02*
X16200D01*
Y-12900D02*
Y-10525D01*
X18450D01*
X10806Y-12025D02*
X11381Y-12600D01*
X11967D02*
X11967Y-12600D01*
X13000Y-12834D02*
Y-12600D01*
X10806Y-12025D02*
Y-11775D01*
X11381Y-12600D02*
X11967D01*
X11967Y-12600D02*
X13000D01*
X18700Y-10525D02*
X23740D01*
X23865Y-10400D02*
X24000D01*
X23740Y-10525D02*
X23865Y-10400D01*
X-4235Y-8250D02*
X-4160Y-8175D01*
X-3625D01*
X-4500Y-8250D02*
X-4235D01*
X-3625Y-8175D02*
X1050Y-9100D01*
X1350D01*
X-4500Y-13250D02*
X-4075D01*
X693Y-12300D02*
X1050Y-12300D01*
X1350D01*
X5376Y14600D02*
X7083D01*
X9383Y13648D02*
X10081Y12950D01*
X10681Y12350D01*
Y12350D02*
X11006Y12675D01*
X5800Y12250D02*
X6500Y11550D01*
X18750Y10050D02*
X23959D01*
X16250Y10075D02*
X18625D01*
X16250D02*
Y12975D01*
X11006Y12675D02*
X13050D01*
Y12975D01*
X6912Y-11200D02*
X9798Y-8314D01*
X6500Y-11200D02*
X6912D01*
X10000Y-8314D02*
X10625Y-7689D01*
X9798Y-8314D02*
X10000D01*
X10625Y-7689D02*
Y-7600D01*
X1350Y-12300D02*
X1650Y-12300D01*
X2617Y-13267D01*
X5178Y-14325D02*
X6529D01*
X6444Y-6900D02*
X7329Y-6015D01*
X9476Y-13105D02*
X10681Y-11900D01*
X6529Y-14325D02*
X6531Y-14325D01*
X5800Y-11900D02*
X6500Y-11200D01*
D11*
X14600Y-5015D02*
D03*
Y-7015D02*
D03*
X14525Y4675D02*
D03*
Y6675D02*
D03*
X18625Y8075D02*
D03*
Y10075D02*
D03*
Y-10400D02*
D03*
Y-8400D02*
D03*
D12*
X16250Y12975D02*
D03*
X13050D02*
D03*
D13*
X16200Y-12900D02*
D03*
X13000D02*
D03*
D14*
X10700Y-7614D02*
D03*
X5819D02*
D03*
X5800Y-11900D02*
D03*
X10681D02*
D03*
X10700Y8025D02*
D03*
X5819D02*
D03*
X5900Y12250D02*
D03*
X10781D02*
D03*
D15*
X1350Y-12300D02*
D03*
Y-9100D02*
D03*
Y12400D02*
D03*
Y9200D02*
D03*
D16*
X14600Y-10500D02*
D03*
Y-8400D02*
D03*
X14575Y10125D02*
D03*
Y8025D02*
D03*
D17*
X-4500Y-8250D02*
D03*
Y-13250D02*
D03*
Y8250D02*
D03*
Y13250D02*
D03*
D18*
X24000Y-10500D02*
D03*
Y-7960D02*
D03*
X24000Y7551D02*
D03*
Y10091D02*
D03*
%TF.MD5,8c42c0c9d506b2bd06c74fea4f3ec6e6*%
M02*
