%TF.GenerationSoftware,Altium Limited,Altium Designer,24.7.2 (38)*%
G04 Layer_Color=32768*
%FSLAX43Y43*%
%MOMM*%
%TF.SameCoordinates,E959DE18-6F16-491B-AE1F-B8F7C51A02EC*%
%TF.FilePolarity,Positive*%
%TF.FileFunction,Other,Top_Assembly*%
%TF.Part,Single*%
G01*
G75*
%TA.AperFunction,NonConductor*%
%ADD30C,0.100*%
D30*
X15362Y-7539D02*
Y-4491D01*
X13838Y-7539D02*
Y-4491D01*
X15362D01*
X13838Y-7539D02*
X15362D01*
X12364Y11959D02*
X16936D01*
X12364Y13991D02*
X16936D01*
Y11959D02*
Y13991D01*
X12364Y11959D02*
Y13991D01*
X13763Y4151D02*
Y7199D01*
X15287Y4151D02*
Y7199D01*
X13763Y4151D02*
X15287D01*
X13763Y7199D02*
X15287D01*
X17863Y7551D02*
Y10599D01*
X19387Y7551D02*
Y10599D01*
X17863Y7551D02*
X19387D01*
X17863Y10599D02*
X19387D01*
X12314Y-13916D02*
X16886D01*
X12314Y-11884D02*
X16886D01*
Y-13916D02*
Y-11884D01*
X12314Y-13916D02*
Y-11884D01*
X17863Y-10924D02*
Y-7876D01*
X19387Y-10924D02*
Y-7876D01*
X17863Y-10924D02*
X19387D01*
X17863Y-7876D02*
X19387D01*
X334Y-12986D02*
Y-8414D01*
X2366Y-12986D02*
Y-8414D01*
X334Y-12986D02*
X2366D01*
X334Y-8414D02*
X2366D01*
Y8514D02*
Y13086D01*
X334Y8514D02*
Y13086D01*
X2366D01*
X334Y8514D02*
X2366D01*
X14950Y-6990D02*
X14250D01*
Y-6640D01*
X14367Y-6523D01*
X14600D01*
X14717Y-6640D01*
Y-6990D01*
Y-6757D02*
X14950Y-6523D01*
X14250Y-5824D02*
Y-6290D01*
X14600D01*
X14483Y-6057D01*
Y-5940D01*
X14600Y-5824D01*
X14833D01*
X14950Y-5940D01*
Y-6174D01*
X14833Y-6290D01*
X13675Y12625D02*
Y13325D01*
X14025D01*
X14142Y13208D01*
Y12975D01*
X14025Y12858D01*
X13675D01*
X13908D02*
X14142Y12625D01*
X14375Y13208D02*
X14491Y13325D01*
X14725D01*
X14841Y13208D01*
Y13092D01*
X14725Y12975D01*
X14608D01*
X14725D01*
X14841Y12858D01*
Y12742D01*
X14725Y12625D01*
X14491D01*
X14375Y12742D01*
X14175Y6650D02*
X14875D01*
Y6300D01*
X14758Y6183D01*
X14525D01*
X14408Y6300D01*
Y6650D01*
Y6417D02*
X14175Y6183D01*
X14875Y5484D02*
X14758Y5717D01*
X14525Y5950D01*
X14292D01*
X14175Y5834D01*
Y5600D01*
X14292Y5484D01*
X14408D01*
X14525Y5600D01*
Y5950D01*
X18858Y9583D02*
X18975Y9700D01*
Y9933D01*
X18858Y10050D01*
X18392D01*
X18275Y9933D01*
Y9700D01*
X18392Y9583D01*
X18275Y8884D02*
Y9350D01*
X18742Y8884D01*
X18858D01*
X18975Y9000D01*
Y9234D01*
X18858Y9350D01*
X13625Y-13250D02*
Y-12550D01*
X13975D01*
X14091Y-12667D01*
Y-12900D01*
X13975Y-13017D01*
X13625D01*
X13858D02*
X14091Y-13250D01*
X14675D02*
Y-12550D01*
X14325Y-12900D01*
X14791D01*
X18858Y-8892D02*
X18975Y-8775D01*
Y-8542D01*
X18858Y-8425D01*
X18392D01*
X18275Y-8542D01*
Y-8775D01*
X18392Y-8892D01*
X18275Y-9125D02*
Y-9358D01*
Y-9241D01*
X18975D01*
X18858Y-9125D01*
X1000Y-9725D02*
X1700D01*
Y-10075D01*
X1583Y-10192D01*
X1350D01*
X1233Y-10075D01*
Y-9725D01*
Y-9958D02*
X1000Y-10192D01*
Y-10425D02*
Y-10658D01*
Y-10541D01*
X1700D01*
X1583Y-10425D01*
X1700Y9825D02*
X1000D01*
Y10175D01*
X1117Y10292D01*
X1350D01*
X1467Y10175D01*
Y9825D01*
Y10058D02*
X1700Y10292D01*
Y10991D02*
Y10525D01*
X1233Y10991D01*
X1117D01*
X1000Y10875D01*
Y10641D01*
X1117Y10525D01*
%TF.MD5,0971e9d1f2ec04e5ca0765e36470fe5b*%
M02*
