%TF.GenerationSoftware,Altium Limited,Altium Designer,24.7.2 (38)*%
G04 Layer_Color=8421504*
%FSLAX43Y43*%
%MOMM*%
%TF.SameCoordinates,E959DE18-6F16-491B-AE1F-B8F7C51A02EC*%
%TF.FilePolarity,Positive*%
%TF.FileFunction,Paste,Top*%
%TF.Part,Single*%
G01*
G75*
%TA.AperFunction,SMDPad,CuDef*%
%ADD11R,1.250X0.800*%
%TA.AperFunction,ConnectorPad*%
%ADD12R,1.000X1.600*%
%TA.AperFunction,SMDPad,CuDef*%
%ADD13R,1.000X1.600*%
%ADD14R,2.400X2.400*%
%ADD15R,1.600X1.000*%
%ADD16R,1.200X1.100*%
D11*
X14600Y-5015D02*
D03*
Y-7015D02*
D03*
X14525Y4675D02*
D03*
Y6675D02*
D03*
X18625Y8075D02*
D03*
Y10075D02*
D03*
Y-10400D02*
D03*
Y-8400D02*
D03*
D12*
X16250Y12975D02*
D03*
X13050D02*
D03*
D13*
X16200Y-12900D02*
D03*
X13000D02*
D03*
D14*
X10700Y-7614D02*
D03*
X5819D02*
D03*
X5800Y-11900D02*
D03*
X10681D02*
D03*
X10700Y8025D02*
D03*
X5819D02*
D03*
X5900Y12250D02*
D03*
X10781D02*
D03*
D15*
X1350Y-12300D02*
D03*
Y-9100D02*
D03*
Y12400D02*
D03*
Y9200D02*
D03*
D16*
X14600Y-10500D02*
D03*
Y-8400D02*
D03*
X14575Y10125D02*
D03*
Y8025D02*
D03*
%TF.MD5,0a366e147bde1408d9926c211f313f25*%
M02*
