%TF.GenerationSoftware,Altium Limited,Altium Designer,24.7.2 (38)*%
G04 Layer_Color=32896*
%FSLAX45Y45*%
%MOMM*%
%TF.SameCoordinates,313A2AA4-CFAA-4B56-AAC7-ADE98D6BBF51*%
%TF.FilePolarity,Positive*%
%TF.FileFunction,Other,Top_Courtyard*%
%TF.Part,Single*%
G01*
G75*
%TA.AperFunction,NonConductor*%
%ADD62C,0.20000*%
%ADD99C,0.05000*%
D62*
X4720000Y3541893D02*
X4875000D01*
Y3803106D01*
X4720000D02*
X4875000D01*
X4720000Y3541893D02*
Y3803106D01*
X4875000Y3821894D02*
Y4083107D01*
X4720000Y3821894D02*
X4875000D01*
X4720000D02*
Y4083107D01*
X4875000D01*
X2616500Y6020000D02*
X3821500D01*
X2616500D02*
Y6665000D01*
X3821500D01*
Y6020000D02*
Y6665000D01*
D99*
X7667500Y4808000D02*
Y4908000D01*
X7617500Y4858000D02*
X7717500D01*
X7513000Y5655000D02*
X7822000D01*
X7513000Y4061000D02*
Y5655000D01*
Y4061000D02*
X7822000D01*
Y5655000D01*
X47499Y6572526D02*
X987499D01*
X47499Y4912526D02*
Y6572526D01*
Y4912526D02*
X987499D01*
Y6572526D01*
X80000Y3505000D02*
X920000D01*
Y2715000D02*
Y3505000D01*
X80000Y2715000D02*
X920000D01*
X80000D02*
Y3505000D01*
X500000Y3060000D02*
Y3160000D01*
X450000Y3110000D02*
X550000D01*
X925000Y562500D02*
Y1402500D01*
X1715000D01*
Y562500D02*
Y1402500D01*
X925000Y562500D02*
X1715000D01*
X1270000Y982500D02*
X1370000D01*
X1320000Y932500D02*
Y1032500D01*
X1790000Y560000D02*
Y1400000D01*
X2580000D01*
Y560000D02*
Y1400000D01*
X1790000Y560000D02*
X2580000D01*
X2135000Y980000D02*
X2235000D01*
X2185000Y930000D02*
Y1030000D01*
X2433000Y329500D02*
X6567000D01*
Y-797000D02*
Y329500D01*
X2433000Y-797000D02*
X6567000D01*
X2433000D02*
Y329500D01*
X4500000Y-100000D02*
Y0D01*
X4450000Y-50000D02*
X4550000D01*
%TF.MD5,14bee533f153df86ca6d3c411f361e6f*%
M02*
