%TF.GenerationSoftware,Altium Limited,Altium Designer,24.7.2 (38)*%
G04 Layer_Color=16711935*
%FSLAX45Y45*%
%MOMM*%
%TF.SameCoordinates,313A2AA4-CFAA-4B56-AAC7-ADE98D6BBF51*%
%TF.FilePolarity,Positive*%
%TF.FileFunction,Other,Bottom_Courtyard*%
%TF.Part,Single*%
G01*
G75*
%TA.AperFunction,NonConductor*%
%ADD62C,0.20000*%
D62*
X1142500Y2403403D02*
X1622500D01*
X1142500Y1930403D02*
Y2403403D01*
Y1930403D02*
X1622500D01*
Y2403403D01*
X6504589Y1899083D02*
X6970410D01*
X6504589Y1509083D02*
Y1899083D01*
Y1509083D02*
X6970410D01*
Y1899083D01*
X6499589Y1183292D02*
X6965411D01*
X6499589Y793291D02*
Y1183292D01*
Y793291D02*
X6965411D01*
Y1183292D01*
X6517089Y2507500D02*
X6982911D01*
X6517089Y2117500D02*
Y2507500D01*
Y2117500D02*
X6982911D01*
Y2507500D01*
X3055000Y1067089D02*
Y1532911D01*
Y1067089D02*
X3445000D01*
Y1532911D01*
X3055000D02*
X3445000D01*
X1522000Y5320000D02*
X2233000D01*
Y5870000D01*
X1522000D02*
X2233000D01*
X1522000Y5320000D02*
Y5870000D01*
X2607500Y6220000D02*
X2887500D01*
Y6390000D01*
X2607500D02*
X2887500D01*
X2607500Y6220000D02*
Y6390000D01*
%TF.MD5,0d67d5955c856459c553920424524e84*%
M02*
