%TF.GenerationSoftware,Altium Limited,Altium Designer,24.7.2 (38)*%
G04 Layer_Color=8388736*
%FSLAX45Y45*%
%MOMM*%
%TF.SameCoordinates,313A2AA4-CFAA-4B56-AAC7-ADE98D6BBF51*%
%TF.FilePolarity,Negative*%
%TF.FileFunction,Soldermask,Top*%
%TF.Part,Single*%
G01*
G75*
%TA.AperFunction,SMDPad,CuDef*%
%ADD16R,1.19380X0.30480*%
%ADD17R,0.30480X1.19380*%
%ADD18R,1.26213X0.95776*%
%TA.AperFunction,ComponentPad*%
%ADD33R,1.55000X1.55000*%
%ADD34C,1.55000*%
%TA.AperFunction,SMDPad,CuDef*%
%ADD70R,4.20320X2.20320*%
%ADD71R,2.20320X4.20320*%
%ADD72R,1.90320X4.00320*%
%ADD73R,3.20320X7.70320*%
%ADD74R,7.70320X3.20320*%
%TA.AperFunction,ComponentPad*%
%ADD75C,1.80320*%
G04:AMPARAMS|DCode=76|XSize=1.8032mm|YSize=1.8032mm|CornerRadius=0.5016mm|HoleSize=0mm|Usage=FLASHONLY|Rotation=270.000|XOffset=0mm|YOffset=0mm|HoleType=Round|Shape=RoundedRectangle|*
%AMROUNDEDRECTD76*
21,1,1.80320,0.80000,0,0,270.0*
21,1,0.80000,1.80320,0,0,270.0*
1,1,1.00320,-0.40000,-0.40000*
1,1,1.00320,-0.40000,0.40000*
1,1,1.00320,0.40000,0.40000*
1,1,1.00320,0.40000,-0.40000*
%
%ADD76ROUNDEDRECTD76*%
%ADD77C,2.00320*%
%ADD78C,2.70320*%
%ADD79C,1.40320*%
%ADD80C,1.70320*%
%ADD81R,1.70320X1.70320*%
%ADD82C,1.50320*%
%ADD83R,1.50320X1.50320*%
%ADD84C,2.15320*%
G04:AMPARAMS|DCode=85|XSize=2.1532mm|YSize=2.1532mm|CornerRadius=0.5891mm|HoleSize=0mm|Usage=FLASHONLY|Rotation=270.000|XOffset=0mm|YOffset=0mm|HoleType=Round|Shape=RoundedRectangle|*
%AMROUNDEDRECTD85*
21,1,2.15320,0.97500,0,0,270.0*
21,1,0.97500,2.15320,0,0,270.0*
1,1,1.17820,-0.48750,-0.48750*
1,1,1.17820,-0.48750,0.48750*
1,1,1.17820,0.48750,0.48750*
1,1,1.17820,0.48750,-0.48750*
%
%ADD85ROUNDEDRECTD85*%
%ADD86R,1.70320X1.70320*%
%ADD87C,1.85320*%
G04:AMPARAMS|DCode=88|XSize=1.8532mm|YSize=1.8532mm|CornerRadius=0.5141mm|HoleSize=0mm|Usage=FLASHONLY|Rotation=0.000|XOffset=0mm|YOffset=0mm|HoleType=Round|Shape=RoundedRectangle|*
%AMROUNDEDRECTD88*
21,1,1.85320,0.82500,0,0,0.0*
21,1,0.82500,1.85320,0,0,0.0*
1,1,1.02820,0.41250,-0.41250*
1,1,1.02820,-0.41250,-0.41250*
1,1,1.02820,-0.41250,0.41250*
1,1,1.02820,0.41250,0.41250*
%
%ADD88ROUNDEDRECTD88*%
%TA.AperFunction,ViaPad*%
%ADD89C,1.47320*%
D16*
X5247500Y4037500D02*
D03*
Y3987500D02*
D03*
Y3937500D02*
D03*
Y3887500D02*
D03*
Y3837500D02*
D03*
Y3787500D02*
D03*
Y3737500D02*
D03*
Y3687500D02*
D03*
Y3637500D02*
D03*
Y3587500D02*
D03*
Y3537500D02*
D03*
Y3487500D02*
D03*
X6097500D02*
D03*
Y3537500D02*
D03*
Y3587500D02*
D03*
Y3637500D02*
D03*
Y3687500D02*
D03*
Y3737500D02*
D03*
Y3787500D02*
D03*
Y3837500D02*
D03*
Y3887500D02*
D03*
Y3937500D02*
D03*
Y3987500D02*
D03*
Y4037500D02*
D03*
D17*
X5397500Y3337500D02*
D03*
X5447500D02*
D03*
X5497500D02*
D03*
X5547500D02*
D03*
X5597500D02*
D03*
X5647500D02*
D03*
X5697500D02*
D03*
X5747500D02*
D03*
X5797500D02*
D03*
X5847500D02*
D03*
X5897500D02*
D03*
X5947500D02*
D03*
Y4187500D02*
D03*
X5897500D02*
D03*
X5847500D02*
D03*
X5797500D02*
D03*
X5747500D02*
D03*
X5697500D02*
D03*
X5647500D02*
D03*
X5597500D02*
D03*
X5547500D02*
D03*
X5497500D02*
D03*
X5447500D02*
D03*
X5397500D02*
D03*
D18*
X4797500Y3745218D02*
D03*
Y3599781D02*
D03*
Y4025219D02*
D03*
Y3879782D02*
D03*
D33*
X6203500Y6550000D02*
D03*
X3600000Y6552500D02*
D03*
D34*
X5949500Y6550000D02*
D03*
X5695500D02*
D03*
X5441500D02*
D03*
X5187500D02*
D03*
X4933500D02*
D03*
X3346000Y6552500D02*
D03*
X3092000D02*
D03*
X2838000D02*
D03*
D70*
X272700Y4005000D02*
D03*
X895000D02*
D03*
X3447300Y3712500D02*
D03*
X2825000D02*
D03*
D71*
X1320000Y2364800D02*
D03*
Y1742500D02*
D03*
X2182500Y2364800D02*
D03*
Y1742500D02*
D03*
X3040000Y1750000D02*
D03*
Y2372300D02*
D03*
X2192500Y3482500D02*
D03*
Y2860200D02*
D03*
X457500Y1747500D02*
D03*
Y2369800D02*
D03*
D72*
X2825100Y2937500D02*
D03*
X3129900D02*
D03*
X1474900Y2940000D02*
D03*
X1170100D02*
D03*
D73*
X250000Y3110000D02*
D03*
X750000D02*
D03*
D74*
X1320000Y732500D02*
D03*
Y1232500D02*
D03*
X2185000Y730000D02*
D03*
Y1230000D02*
D03*
D75*
X7667500Y4731000D02*
D03*
Y5239000D02*
D03*
Y4985000D02*
D03*
Y4477000D02*
D03*
Y4223000D02*
D03*
D76*
Y5493000D02*
D03*
D77*
X4289984Y2835000D02*
D03*
X3555000Y3005000D02*
D03*
X7060000Y3035000D02*
D03*
X6867500Y2552500D02*
D03*
X7622500Y6100000D02*
D03*
X2205000Y3807500D02*
D03*
X6912500Y1247500D02*
D03*
X2955000Y1162500D02*
D03*
X7562500Y477500D02*
D03*
X4100000Y3152500D02*
D03*
X7250000Y477500D02*
D03*
X6897500Y1955000D02*
D03*
X1502500Y3530000D02*
D03*
X5742500Y1312492D02*
D03*
X5533750Y2803750D02*
D03*
X5267500Y2805000D02*
D03*
X5512500Y947500D02*
D03*
X5155000Y2545000D02*
D03*
X4932233Y936234D02*
D03*
X4260000Y952500D02*
D03*
X4478726Y1350000D02*
D03*
X3722500Y957500D02*
D03*
X4009984Y2781656D02*
D03*
X3909984Y2550000D02*
D03*
X3975000Y4517500D02*
D03*
X4167500Y5652500D02*
D03*
X4215000Y5352500D02*
D03*
X4357500Y5090000D02*
D03*
X7872500Y465000D02*
D03*
D78*
X1545000Y3952500D02*
D03*
X6847500Y490000D02*
D03*
D79*
X4427500Y3566000D02*
D03*
Y4054000D02*
D03*
D80*
X7167000Y6550000D02*
D03*
X7655000Y3448000D02*
D03*
Y3194000D02*
D03*
Y2686000D02*
D03*
Y2940000D02*
D03*
Y2058000D02*
D03*
Y1804000D02*
D03*
Y1296000D02*
D03*
Y1550000D02*
D03*
D81*
X6913000Y6550000D02*
D03*
D82*
X5082496Y5135000D02*
D03*
Y5335000D02*
D03*
Y5535000D02*
D03*
D83*
Y5735000D02*
D03*
D84*
X467498Y5242552D02*
D03*
Y5742551D02*
D03*
D85*
Y6242550D02*
D03*
D86*
X7655000Y2432000D02*
D03*
Y1042000D02*
D03*
D87*
X5135000Y227000D02*
D03*
X5389000D02*
D03*
X5643000D02*
D03*
X6151000D02*
D03*
X5897000D02*
D03*
X4881000D02*
D03*
X4627000D02*
D03*
X4373000D02*
D03*
X4119000D02*
D03*
X3865000D02*
D03*
X3611000D02*
D03*
X3357000D02*
D03*
X3103000D02*
D03*
X2849000D02*
D03*
X2595000D02*
D03*
D88*
X6405000D02*
D03*
D89*
X707500Y3747500D02*
D03*
X2930000Y3912500D02*
D03*
X2917500Y1955000D02*
D03*
X1002500Y1892500D02*
D03*
X1657500Y2827500D02*
D03*
X212500Y2602500D02*
D03*
X210000Y2092500D02*
D03*
X3302500Y2667500D02*
D03*
%TF.MD5,ec8960d7a8902c937ae6a0a3cefa6011*%
M02*
