%TF.GenerationSoftware,Altium Limited,Altium Designer,24.7.2 (38)*%
G04 Layer_Color=128*
%FSLAX45Y45*%
%MOMM*%
%TF.SameCoordinates,313A2AA4-CFAA-4B56-AAC7-ADE98D6BBF51*%
%TF.FilePolarity,Positive*%
%TF.FileFunction,Drillmap*%
%TF.Part,Single*%
G01*
G75*
%TA.AperFunction,NonConductor*%
%ADD116C,0.12700*%
D116*
X7612500Y4731000D02*
X7722500D01*
X7667500Y4676000D02*
Y4786000D01*
X7612500Y5239000D02*
X7722500D01*
X7667500Y5184000D02*
Y5294000D01*
X7612500Y5493000D02*
X7722500D01*
X7667500Y5438000D02*
Y5548000D01*
X7612500Y4985000D02*
X7722500D01*
X7667500Y4930000D02*
Y5040000D01*
X7612500Y4477000D02*
X7722500D01*
X7667500Y4422000D02*
Y4532000D01*
X7612500Y4223000D02*
X7722500D01*
X7667500Y4168000D02*
Y4278000D01*
X4242484Y2835000D02*
X4337484D01*
X4289984Y2787500D02*
Y2882500D01*
X3507500Y3005000D02*
X3602500D01*
X3555000Y2957500D02*
Y3052500D01*
X7012500Y3035000D02*
X7107500D01*
X7060000Y2987500D02*
Y3082500D01*
X6820000Y2552500D02*
X6915000D01*
X6867500Y2505000D02*
Y2600000D01*
X7575000Y6100000D02*
X7670000D01*
X7622500Y6052500D02*
Y6147500D01*
X1497500Y3952500D02*
X1592500D01*
X1545000Y3905000D02*
Y4000000D01*
X2157500Y3807500D02*
X2252500D01*
X2205000Y3760000D02*
Y3855000D01*
X4392500Y3566000D02*
X4462500D01*
X4427500Y3531000D02*
Y3601000D01*
X4392500Y4054000D02*
X4462500D01*
X4427500Y4019000D02*
Y4089000D01*
X7117000Y6550000D02*
X7217000D01*
X7167000Y6500000D02*
Y6600000D01*
X6863000Y6550000D02*
X6963000D01*
X6913000Y6500000D02*
Y6600000D01*
X5042496Y5135000D02*
X5122496D01*
X5082496Y5095000D02*
Y5175000D01*
X5042496Y5335000D02*
X5122496D01*
X5082496Y5295000D02*
Y5375000D01*
X5042496Y5735000D02*
X5122496D01*
X5082496Y5695001D02*
Y5775000D01*
X5042496Y5535000D02*
X5122496D01*
X5082496Y5495000D02*
Y5575000D01*
X6153500Y6550000D02*
X6253500D01*
X6203500Y6500000D02*
Y6600000D01*
X5899500Y6550000D02*
X5999500D01*
X5949500Y6500000D02*
Y6600000D01*
X5645500Y6550000D02*
X5745500D01*
X5695500Y6500000D02*
Y6600000D01*
X5391500Y6550000D02*
X5491500D01*
X5441500Y6500000D02*
Y6600000D01*
X5137500Y6550000D02*
X5237500D01*
X5187500Y6500000D02*
Y6600000D01*
X4883500Y6550000D02*
X4983500D01*
X4933500Y6500000D02*
Y6600000D01*
X402498Y5242552D02*
X532498D01*
X467498Y5177552D02*
Y5307552D01*
X402498Y6242550D02*
X532498D01*
X467498Y6177550D02*
Y6307550D01*
X402498Y5742551D02*
X532498D01*
X467498Y5677551D02*
Y5807551D01*
X6865000Y1247500D02*
X6960000D01*
X6912500Y1200000D02*
Y1295000D01*
X2907500Y1162500D02*
X3002500D01*
X2955000Y1115000D02*
Y1210000D01*
X7515000Y477500D02*
X7610000D01*
X7562500Y430000D02*
Y525000D01*
X4052500Y3152500D02*
X4147500D01*
X4100000Y3105000D02*
Y3200000D01*
X7202500Y477500D02*
X7297500D01*
X7250000Y430000D02*
Y525000D01*
X6850000Y1955000D02*
X6945000D01*
X6897500Y1907500D02*
Y2002500D01*
X1455000Y3530000D02*
X1550000D01*
X1502500Y3482500D02*
Y3577500D01*
X5695000Y1312492D02*
X5790000D01*
X5742500Y1264992D02*
Y1359992D01*
X5486250Y2803750D02*
X5581250D01*
X5533750Y2756250D02*
Y2851250D01*
X5220000Y2805000D02*
X5315000D01*
X5267500Y2757500D02*
Y2852500D01*
X5465000Y947500D02*
X5560000D01*
X5512500Y900000D02*
Y995000D01*
X5107500Y2545000D02*
X5202500D01*
X5155000Y2497500D02*
Y2592500D01*
X4884733Y936234D02*
X4979733D01*
X4932233Y888734D02*
Y983734D01*
X4212500Y952500D02*
X4307500D01*
X4260000Y905000D02*
Y1000000D01*
X4431226Y1350000D02*
X4526226D01*
X4478726Y1302500D02*
Y1397500D01*
X3675000Y957500D02*
X3770000D01*
X3722500Y910000D02*
Y1005000D01*
X3962484Y2781656D02*
X4057484D01*
X4009984Y2734156D02*
Y2829156D01*
X3862484Y2550000D02*
X3957484D01*
X3909984Y2502500D02*
Y2597500D01*
X3927500Y4517500D02*
X4022500D01*
X3975000Y4470000D02*
Y4565000D01*
X3550000Y6552500D02*
X3650000D01*
X3600000Y6502500D02*
Y6602500D01*
X3296000Y6552500D02*
X3396000D01*
X3346000Y6502500D02*
Y6602500D01*
X3042000Y6552500D02*
X3142000D01*
X3092000Y6502500D02*
Y6602500D01*
X2788000Y6552500D02*
X2888000D01*
X2838000Y6502500D02*
Y6602500D01*
X7605000Y3448000D02*
X7705000D01*
X7655000Y3398000D02*
Y3498000D01*
X7605000Y3194000D02*
X7705000D01*
X7655000Y3144000D02*
Y3244000D01*
X7605000Y2432000D02*
X7705000D01*
X7655000Y2382000D02*
Y2482000D01*
X7605000Y2686000D02*
X7705000D01*
X7655000Y2636000D02*
Y2736000D01*
X7605000Y2940000D02*
X7705000D01*
X7655000Y2890000D02*
Y2990000D01*
X7605000Y2058000D02*
X7705000D01*
X7655000Y2008000D02*
Y2108000D01*
X7605000Y1804000D02*
X7705000D01*
X7655000Y1754000D02*
Y1854000D01*
X7605000Y1042000D02*
X7705000D01*
X7655000Y992000D02*
Y1092000D01*
X7605000Y1296000D02*
X7705000D01*
X7655000Y1246000D02*
Y1346000D01*
X7605000Y1550000D02*
X7705000D01*
X7655000Y1500000D02*
Y1600000D01*
X4120000Y5652500D02*
X4215000D01*
X4167500Y5605000D02*
Y5700000D01*
Y5352500D02*
X4262500D01*
X4215000Y5305000D02*
Y5400000D01*
X4310000Y5090000D02*
X4405000D01*
X4357500Y5042500D02*
Y5137500D01*
X7825000Y465000D02*
X7920000D01*
X7872500Y417500D02*
Y512500D01*
X5080000Y227000D02*
X5190000D01*
X5135000Y172000D02*
Y282000D01*
X5334000Y227000D02*
X5444000D01*
X5389000Y172000D02*
Y282000D01*
X5588000Y227000D02*
X5698000D01*
X5643000Y172000D02*
Y282000D01*
X6096000Y227000D02*
X6206000D01*
X6151000Y172000D02*
Y282000D01*
X6350000Y227000D02*
X6460000D01*
X6405000Y172000D02*
Y282000D01*
X5842000Y227000D02*
X5952000D01*
X5897000Y172000D02*
Y282000D01*
X4826000Y227000D02*
X4936000D01*
X4881000Y172000D02*
Y282000D01*
X4572000Y227000D02*
X4682000D01*
X4627000Y172000D02*
Y282000D01*
X4318000Y227000D02*
X4428000D01*
X4373000Y172000D02*
Y282000D01*
X4064000Y227000D02*
X4174000D01*
X4119000Y172000D02*
Y282000D01*
X3810000Y227000D02*
X3920000D01*
X3865000Y172000D02*
Y282000D01*
X3556000Y227000D02*
X3666000D01*
X3611000Y172000D02*
Y282000D01*
X3302000Y227000D02*
X3412000D01*
X3357000Y172000D02*
Y282000D01*
X3048000Y227000D02*
X3158000D01*
X3103000Y172000D02*
Y282000D01*
X2794000Y227000D02*
X2904000D01*
X2849000Y172000D02*
Y282000D01*
X2540000Y227000D02*
X2650000D01*
X2595000Y172000D02*
Y282000D01*
X6800000Y490000D02*
X6895000D01*
X6847500Y442500D02*
Y537500D01*
X6517500Y3962500D02*
X6557500D01*
X6537500Y3942500D02*
Y3982500D01*
X6287301Y4019126D02*
X6327301D01*
X6307301Y3999126D02*
Y4039126D01*
X6225000Y4104142D02*
X6265000D01*
X6245000Y4084142D02*
Y4124142D01*
X5115000Y1547500D02*
X5155000D01*
X5135000Y1527500D02*
Y1567500D01*
X3875000Y1585000D02*
X3915000D01*
X3895000Y1565000D02*
Y1605000D01*
X3600000Y2300000D02*
X3640000D01*
X3620000Y2280000D02*
Y2320000D01*
X671940Y3747500D02*
X743060D01*
X707500Y3711940D02*
Y3783060D01*
X5377500Y4742500D02*
X5417500D01*
X5397500Y4722500D02*
Y4762500D01*
X4952500Y3600000D02*
X4992500D01*
X4972500Y3580000D02*
Y3620000D01*
X4892500Y3230000D02*
X4932500D01*
X4912500Y3210000D02*
Y3250000D01*
X1587600Y1570000D02*
X1627600D01*
X1607600Y1550000D02*
Y1590000D01*
X480000Y3082500D02*
X520000D01*
X500000Y3062500D02*
Y3102500D01*
X4592500Y3821250D02*
X4632500D01*
X4612500Y3801250D02*
Y3841250D01*
X6417500Y4430000D02*
X6457500D01*
X6437500Y4410000D02*
Y4450000D01*
X6290000Y4430000D02*
X6330000D01*
X6310000Y4410000D02*
Y4450000D01*
X5050400Y596110D02*
X5090400D01*
X5070400Y576110D02*
Y616110D01*
X5052604Y3712604D02*
X5092604D01*
X5072604Y3692604D02*
Y3732604D01*
X6877500Y3100000D02*
X6917500D01*
X6897500Y3080000D02*
Y3120000D01*
X6642500Y3100000D02*
X6682500D01*
X6662500Y3080000D02*
Y3120000D01*
X4862500Y3437500D02*
X4902500D01*
X4882500Y3417500D02*
Y3457500D01*
X5222500Y3327500D02*
X5262500D01*
X5242500Y3307500D02*
Y3347500D01*
X1947500Y2557500D02*
X1987500D01*
X1967500Y2537500D02*
Y2577500D01*
X5587500Y3907500D02*
X5627500D01*
X5607500Y3887500D02*
Y3927500D01*
X5612426Y4497071D02*
X5652426D01*
X5632426Y4477071D02*
Y4517070D01*
X6035000Y3237500D02*
X6075000D01*
X6055000Y3217500D02*
Y3257500D01*
X5845000Y3472500D02*
X5885000D01*
X5865000Y3452500D02*
Y3492500D01*
X5870000Y3790000D02*
X5910000D01*
X5890000Y3770000D02*
Y3810000D01*
X5402500Y3910000D02*
X5442500D01*
X5422500Y3890000D02*
Y3930000D01*
X1947500Y1900000D02*
X1987500D01*
X1967500Y1880000D02*
Y1920000D01*
X5247500Y5020000D02*
X5287500D01*
X5267500Y5000000D02*
Y5040000D01*
X6515000Y4117500D02*
X6555000D01*
X6535000Y4097500D02*
Y4137500D01*
X7347500Y3950000D02*
X7387500D01*
X7367500Y3930000D02*
Y3970000D01*
X6762500Y3095000D02*
X6802500D01*
X6782500Y3075000D02*
Y3115000D01*
X4732500Y3152500D02*
X4772500D01*
X4752500Y3132500D02*
Y3172500D01*
X6270000Y1702500D02*
X6310000D01*
X6290000Y1682500D02*
Y1722500D01*
X6415000Y1200000D02*
X6455000D01*
X6435000Y1180000D02*
Y1220000D01*
X6480000Y984589D02*
X6520000D01*
X6500000Y964589D02*
Y1004589D01*
X6285000Y2340000D02*
X6325000D01*
X6305000Y2320000D02*
Y2360000D01*
X7825000Y2465000D02*
X7865000D01*
X7845000Y2445000D02*
Y2485000D01*
X6477500Y3235000D02*
X6517500D01*
X6497500Y3215000D02*
Y3255000D01*
X5535000Y4580000D02*
X5575000D01*
X5555000Y4560000D02*
Y4600000D01*
X5277500Y4567500D02*
X5317500D01*
X5297500Y4547500D02*
Y4587500D01*
X6227500Y5540000D02*
X6267500D01*
X6247500Y5520000D02*
Y5560000D01*
X6227500Y4580000D02*
X6267500D01*
X6247500Y4560000D02*
Y4600000D01*
X5455000Y4465000D02*
X5495000D01*
X5475000Y4445000D02*
Y4485000D01*
X5540000Y4717500D02*
X5580000D01*
X5560000Y4697500D02*
Y4737500D01*
X7420000Y4542500D02*
X7460000D01*
X7440000Y4522500D02*
Y4562500D01*
X6587500Y4282500D02*
X6627500D01*
X6607500Y4262500D02*
Y4302500D01*
X7942500Y4217500D02*
X7982500D01*
X7962500Y4197500D02*
Y4237500D01*
X5922500Y2935000D02*
X5962500D01*
X5942500Y2915000D02*
Y2955000D01*
X7947500Y4515000D02*
X7987500D01*
X7967500Y4495000D02*
Y4535000D01*
X7942500Y3917500D02*
X7982500D01*
X7962500Y3897500D02*
Y3937500D01*
X5090000Y4187500D02*
X5130000D01*
X5110000Y4167500D02*
Y4207500D01*
X5012500Y4275000D02*
X5052500D01*
X5032500Y4255000D02*
Y4295000D01*
X4922500Y4350000D02*
X4962500D01*
X4942500Y4330000D02*
Y4370000D01*
X7492500Y3785098D02*
X7532500D01*
X7512500Y3765098D02*
Y3805098D01*
X2894440Y3912500D02*
X2965560D01*
X2930000Y3876940D02*
Y3948060D01*
X3840000Y5097508D02*
X3880000D01*
X3860000Y5077508D02*
Y5117508D01*
X5922500Y2507500D02*
X5962500D01*
X5942500Y2487500D02*
Y2527500D01*
X2881940Y1955000D02*
X2953060D01*
X2917500Y1919440D02*
Y1990560D01*
X1522500Y1827500D02*
X1562500D01*
X1542500Y1807500D02*
Y1847500D01*
X1842500Y1440000D02*
X1882500D01*
X1862500Y1420000D02*
Y1460000D01*
X1982500Y1695000D02*
X2022500D01*
X2002500Y1675000D02*
Y1715000D01*
X1067500Y1447500D02*
X1107500D01*
X1087500Y1427500D02*
Y1467500D01*
X966940Y1892500D02*
X1038060D01*
X1002500Y1856940D02*
Y1928060D01*
X1067500Y1697500D02*
X1107500D01*
X1087500Y1677500D02*
Y1717500D01*
X2002500Y270000D02*
X2042500D01*
X2022500Y250000D02*
Y290000D01*
X1577500Y472500D02*
X1617500D01*
X1597500Y452500D02*
Y492500D01*
X6707500Y3840000D02*
X6747500D01*
X6727500Y3820000D02*
Y3860000D01*
X7277500Y3685000D02*
X7317500D01*
X7297500Y3665000D02*
Y3705000D01*
X8452516Y1171250D02*
X8492516D01*
X8472516Y1151250D02*
Y1191250D01*
X8452516Y1543750D02*
X8492516D01*
X8472516Y1523750D02*
Y1563750D01*
X8455016Y1911250D02*
X8495016D01*
X8475016Y1891250D02*
Y1931250D01*
X3445000Y590000D02*
X3485000D01*
X3465000Y570000D02*
Y610000D01*
X4797500Y1930000D02*
X4837500D01*
X4817500Y1910000D02*
Y1950000D01*
X3540000Y1940000D02*
X3580000D01*
X3560000Y1920000D02*
Y1960000D01*
X1621940Y2827500D02*
X1693060D01*
X1657500Y2791940D02*
Y2863060D01*
X6497089Y2309573D02*
X6537089D01*
X6517089Y2289573D02*
Y2329573D01*
X6484589Y1657089D02*
X6524589D01*
X6504589Y1637089D02*
Y1677089D01*
X5135000Y2032500D02*
X5175000D01*
X5155000Y2012500D02*
Y2052500D01*
X3889984Y2070000D02*
X3929984D01*
X3909984Y2050000D02*
Y2090000D01*
X3832500Y5862500D02*
X3872500D01*
X3852500Y5842500D02*
Y5882500D01*
X2537500Y5867500D02*
X2577500D01*
X2557500Y5847500D02*
Y5887500D01*
X2377500Y5097500D02*
X2417500D01*
X2397500Y5077500D02*
Y5117500D01*
X2325000Y5492500D02*
X2365000D01*
X2345000Y5472500D02*
Y5512500D01*
X2322500Y5350000D02*
X2362500D01*
X2342500Y5330000D02*
Y5370000D01*
X2065000Y5210000D02*
X2105000D01*
X2085000Y5190000D02*
Y5230000D01*
X1765000Y5595000D02*
X1805000D01*
X1785000Y5575000D02*
Y5615000D01*
X2127500Y6162500D02*
X2167500D01*
X2147500Y6142500D02*
Y6182500D01*
X176940Y2602500D02*
X248060D01*
X212500Y2566940D02*
Y2638060D01*
X174440Y2092500D02*
X245560D01*
X210000Y2056940D02*
Y2128060D01*
X3266940Y2667500D02*
X3338060D01*
X3302500Y2631940D02*
Y2703060D01*
%TF.MD5,136e26ac3b0a8509bc5c795078506c08*%
M02*
