M48
;Layer_Color=9474304
;FILE_FORMAT=4:3
METRIC,LZ
;TYPE=PLATED
T01F00S00C0.400
T02F00S00C0.700
T03F00S00C0.711
T04F00S00C0.800
T05F00S00C0.950
T06F00S00C1.000
T07F00S00C1.100
T08F00S00C1.300
%
T01
X0015975Y0004725
X0020225Y00027
X0018625Y00144
X003465Y00059
X0050704Y0005961
X0065Y0009846
X006435Y0012
X0084725Y0011712
Y0015438
X008475Y0019112
X007845Y002465
X0065171Y0023096
X0065046Y0016571
X0064975Y003235
X0066625Y0031
X0067825Y003095
X0068975Y0031
X0067275Y00384
X0065375Y0039625
X006535Y0041175
X0066075Y0042825
X0064375Y00443
X00744Y0045425
X0079675Y004515
X0079625Y0042175
Y0039175
X0075125Y0037851
X0073675Y00395
X0072975Y003685
X0063073Y0040191
X006245Y0041041
X00631Y00443
X0062475Y00458
X005555
X00556Y0047175
X0053975Y0047425
X0052975Y0045675
X005475Y004465
X0056324Y0044971
X0056075Y0039075
X0054225Y00391
X0050726Y0037126
X0049725Y0036
X0048825Y0034375
X0049125Y00323
X0047525Y0031525
X0052425Y0033275
X005865Y0034725
X00589Y00379
X006055Y0032375
X0059425Y002935
Y0025075
X006305Y00234
X00629Y0017025
X005135Y0015475
X005155Y0020325
X0048175Y00193
X00391Y00207
X00356Y00194
X00362Y0023
X003895Y001585
X0046125Y0038213
X0049425Y00435
X0050325Y004275
X00511Y0041875
X0052675Y00502
X00386Y0050975
X0023975Y0050975
X0023425Y00535
X002085Y00521
X0019675Y0025575
Y0019
X0020025Y001695
X0016076Y00157
X0015425Y0018275
X0010875Y0016975
Y0014475
X0005Y0030825
X001785Y005595
X002345Y0054925
X0021475Y0061625
X0025575Y0058675
X0038525Y0058625
X0062475Y00554
T02
X0044275Y003566
Y004054
T03
X0029175Y001955
X0033025Y0026675
X00293Y0039125
X0016575Y0028275
X0010025Y0018925
X00021Y0020925
X0002125Y0026025
X0007075Y0037475
T04
X0050825Y005135
Y005335
Y005535
Y005735
T05
X002955Y0011625
X0037225Y0009575
X00426Y0009525
X0044787Y00135
X0049322Y0009362
X0055125Y0009475
X0057425Y0013125
X0069125Y0012475
X0068475Y00049
X00725Y0004775
X0075625
X0078725Y000465
X0068975Y001955
X0068675Y0025525
X00706Y003035
X0055338Y0028038
X0052675Y002805
X005155Y002545
X00429Y002835
X00401Y0027817
X00391Y00255
X0041Y0031525
X003555Y003005
X003975Y0045175
X0043575Y00509
X004215Y0053525
X002205Y0038075
X001545Y0039525
X0015025Y00353
X0041675Y0056525
X0076225Y0061
T06
X007655Y001042
Y001296
Y00155
Y001804
Y002058
Y002432
Y002686
Y00294
Y003194
Y003448
X0062035Y00655
X0059495
X0056955
X0054415
X0051875
X0049335
X0036Y0065525
X003346
X003092
X002838
X006913Y00655
X007167
T07
X002595Y000227
X002849
X003103
X003357
X003611
X003865
X004119
X004373
X004627
X004881
X005135
X005389
X005643
X005897
X006151
X006405
X0076675Y004223
Y004477
Y004731
Y004985
Y005239
Y005493
T08
X0004675Y0052426
Y0057426
Y0062425
M30
