%TF.GenerationSoftware,Altium Limited,Altium Designer,24.7.2 (38)*%
G04 Layer_Color=8388736*
%FSLAX45Y45*%
%MOMM*%
%TF.SameCoordinates,313A2AA4-CFAA-4B56-AAC7-ADE98D6BBF51*%
%TF.FilePolarity,Positive*%
%TF.FileFunction,Other,Top_3D_Body*%
%TF.Part,Single*%
G01*
G75*
%TA.AperFunction,NonConductor*%
%ADD62C,0.20000*%
%ADD98C,0.10000*%
D62*
X4735000Y3572500D02*
X4860000D01*
Y3772500D01*
X4735000D02*
X4860000D01*
X4735000Y3572500D02*
Y3772500D01*
X4860000Y3852500D02*
Y4052500D01*
X4735000Y3852500D02*
X4860000D01*
X4735000D02*
Y4052500D01*
X4860000D01*
X2626500Y6030000D02*
X3811500D01*
X2626500D02*
Y6655000D01*
X3811500D01*
Y6030000D02*
Y6655000D01*
D98*
X195000Y3110000D02*
G03*
X195000Y3110000I-25000J0D01*
G01*
X670000Y2760000D02*
G03*
X670000Y3460000I-168409J350000D01*
G01*
X330000D02*
G03*
X330000Y2760000I168409J-350000D01*
G01*
X1345000Y652500D02*
G03*
X1345000Y652500I-25000J0D01*
G01*
X1670000Y1152500D02*
G03*
X970000Y1152500I-350000J-168409D01*
G01*
Y812500D02*
G03*
X1670000Y812500I350000J168409D01*
G01*
X2210000Y650000D02*
G03*
X2210000Y650000I-25000J0D01*
G01*
X2535000Y1150000D02*
G03*
X1835000Y1150000I-350000J-168409D01*
G01*
Y810000D02*
G03*
X2535000Y810000I350000J168409D01*
G01*
X3042600Y2436200D02*
X3347400D01*
X3042600Y2283800D02*
X3347400D01*
Y2436200D01*
X3042600Y2283800D02*
Y2436200D01*
X830100Y1628700D02*
X1134900D01*
X830100Y1476300D02*
X1134900D01*
Y1628700D01*
X830100Y1476300D02*
Y1628700D01*
X3173800Y3837600D02*
Y4142400D01*
X3326200Y3837600D02*
Y4142400D01*
X3173800D02*
X3326200D01*
X3173800Y3837600D02*
X3326200D01*
X7540500Y4096000D02*
X7794500D01*
X7540500Y5620000D02*
X7794500D01*
X7540500Y4096000D02*
Y5620000D01*
X7794500Y4096000D02*
Y5620000D01*
X5531300Y3535100D02*
Y3839900D01*
X5683700Y3535100D02*
Y3839900D01*
X5531300D02*
X5683700D01*
X5531300Y3535100D02*
X5683700D01*
X5708800D02*
Y3839900D01*
X5861200Y3535100D02*
Y3839900D01*
X5708800D02*
X5861200D01*
X5708800Y3535100D02*
X5861200D01*
X5353800D02*
Y3839900D01*
X5506200Y3535100D02*
Y3839900D01*
X5353800D02*
X5506200D01*
X5353800Y3535100D02*
X5506200D01*
X4911200Y3540100D02*
Y3844900D01*
X4758800Y3540100D02*
Y3844900D01*
Y3540100D02*
X4911200D01*
X4758800Y3844900D02*
X4911200D01*
X4777600Y4026200D02*
X5082400D01*
X4777600Y3873800D02*
X5082400D01*
Y4026200D01*
X4777600Y3873800D02*
Y4026200D01*
X1607600Y1646200D02*
X1912400D01*
X1607600Y1493800D02*
X1912400D01*
Y1646200D01*
X1607600Y1493800D02*
Y1646200D01*
X1671300Y220100D02*
Y524900D01*
X1823700Y220100D02*
Y524900D01*
X1671300D02*
X1823700D01*
X1671300Y220100D02*
X1823700D01*
X6021300Y3785100D02*
Y4089900D01*
X6173700Y3785100D02*
Y4089900D01*
X6021300D02*
X6173700D01*
X6021300Y3785100D02*
X6173700D01*
X8226300Y1292600D02*
Y1597400D01*
X8378700Y1292600D02*
Y1597400D01*
X8226300D02*
X8378700D01*
X8226300Y1292600D02*
X8378700D01*
X2627400Y1091199D02*
Y1243599D01*
X2322600Y1091199D02*
Y1243599D01*
X2627400D01*
X2322600Y1091199D02*
X2627400D01*
X352520Y6492526D02*
X377499Y6552535D01*
X257499D02*
X282478Y6492526D01*
X257499Y6552535D02*
X377499D01*
X352520Y6492526D02*
X967500D01*
X67499D02*
X282499D01*
X67499Y4992526D02*
Y6492526D01*
X967500Y4992526D02*
Y6492526D01*
X67500Y4992526D02*
X802500D01*
X872500D02*
X967500D01*
X872500D02*
X897479Y4932517D01*
X777479D02*
X897479D01*
X777479D02*
X802458Y4992526D01*
X3606284Y1602600D02*
X3758684D01*
X3606284Y1907400D02*
X3758684D01*
Y1602600D02*
Y1907400D01*
X3606284Y1602600D02*
Y1907400D01*
X3855084Y2098800D02*
Y2251200D01*
X4159884Y2098800D02*
Y2251200D01*
X3855084Y2098800D02*
X4159884D01*
X3855084Y2251200D02*
X4159884D01*
X4542384Y2553800D02*
Y2706200D01*
X4237584Y2553800D02*
Y2706200D01*
X4542384D01*
X4237584Y2553800D02*
X4542384D01*
X5107600Y2058800D02*
Y2211200D01*
X5412400Y2058800D02*
Y2211200D01*
X5107600Y2058800D02*
X5412400D01*
X5107600Y2211200D02*
X5412400D01*
X5787400Y2518783D02*
Y2671183D01*
X5482600Y2518783D02*
Y2671183D01*
X5787400D01*
X5482600Y2518783D02*
X5787400D01*
X4223784Y1817400D02*
X4376184D01*
X4223784Y1512600D02*
X4376184D01*
X4223784D02*
Y1817400D01*
X4376184Y1512600D02*
Y1817400D01*
X4232584Y2023800D02*
Y2176200D01*
X4537384Y2023800D02*
Y2176200D01*
X4232584Y2023800D02*
X4537384D01*
X4232584Y2176200D02*
X4537384D01*
X4863800Y1567600D02*
X5016200D01*
X4863800Y1872400D02*
X5016200D01*
Y1567600D02*
Y1872400D01*
X4863800Y1567600D02*
Y1872400D01*
X5480100Y1993800D02*
Y2146200D01*
X5784900Y1993800D02*
Y2146200D01*
X5480100Y1993800D02*
X5784900D01*
X5480100Y2146200D02*
X5784900D01*
X5478800Y1769899D02*
X5631200D01*
X5478800Y1465099D02*
X5631200D01*
X5478800D02*
Y1769899D01*
X5631200Y1465099D02*
Y1769899D01*
X5082600Y1378800D02*
Y1531200D01*
X5387400Y1378800D02*
Y1531200D01*
X5082600Y1378800D02*
X5387400D01*
X5082600Y1531200D02*
X5387400D01*
X5087600Y871300D02*
Y1023700D01*
X5392400Y871300D02*
Y1023700D01*
X5087600Y871300D02*
X5392400D01*
X5087600Y1023700D02*
X5392400D01*
X3837584Y878800D02*
Y1031200D01*
X4142384Y878800D02*
Y1031200D01*
X3837584Y878800D02*
X4142384D01*
X3837584Y1031200D02*
X4142384D01*
X3842584Y1406300D02*
Y1558700D01*
X4147384Y1406300D02*
Y1558700D01*
X3842584Y1406300D02*
X4147384D01*
X3842584Y1558700D02*
X4147384D01*
X1847600Y201300D02*
Y353700D01*
X2152400Y201300D02*
Y353700D01*
X1847600Y201300D02*
X2152400D01*
X1847600Y353700D02*
X2152400D01*
X2632400Y1468684D02*
Y1621084D01*
X2327600Y1468684D02*
Y1621084D01*
X2632400D01*
X2327600Y1468684D02*
X2632400D01*
X8228800Y1655100D02*
X8381200D01*
X8228800Y1959900D02*
X8381200D01*
Y1655100D02*
Y1959900D01*
X8228800Y1655100D02*
Y1959900D01*
X8226300Y917600D02*
X8378700D01*
X8226300Y1222400D02*
X8378700D01*
Y917600D02*
Y1222400D01*
X8226300Y917600D02*
Y1222400D01*
X7897600Y2573816D02*
Y2726216D01*
X8202400Y2573816D02*
Y2726216D01*
X7897600Y2573816D02*
X8202400D01*
X7897600Y2726216D02*
X8202400D01*
X7895100Y2898627D02*
Y3051027D01*
X8199900Y2898627D02*
Y3051027D01*
X7895100Y2898627D02*
X8199900D01*
X7895100Y3051027D02*
X8199900D01*
X7897600Y3243800D02*
Y3396200D01*
X8202400Y3243800D02*
Y3396200D01*
X7897600Y3243800D02*
X8202400D01*
X7897600Y3396200D02*
X8202400D01*
X467400Y2321300D02*
Y2473700D01*
X162600Y2321300D02*
Y2473700D01*
X467400D01*
X162600Y2321300D02*
X467400D01*
X450100Y3496300D02*
Y3648700D01*
X754900Y3496300D02*
Y3648700D01*
X450100Y3496300D02*
X754900D01*
X450100Y3648700D02*
X754900D01*
X926300Y2267400D02*
X1078700D01*
X926300Y1962600D02*
X1078700D01*
X926300D02*
Y2267400D01*
X1078700Y1962600D02*
Y2267400D01*
X1426300Y3077400D02*
X1578700D01*
X1426300Y2772600D02*
X1578700D01*
X1426300D02*
Y3077400D01*
X1578700Y2772600D02*
Y3077400D01*
X330000Y3460000D02*
X670000D01*
X330000Y2760000D02*
X670000D01*
X970000Y812500D02*
Y1152500D01*
X1670000Y812500D02*
Y1152500D01*
X1835000Y810000D02*
Y1150000D01*
X2535000Y810000D02*
Y1150000D01*
X4341000Y-757000D02*
Y-177000D01*
X4405000Y-757000D02*
Y-177000D01*
X4341000Y-757000D02*
X4373000Y-777000D01*
X4405000Y-757000D01*
X4849000D02*
Y-177000D01*
X4913000Y-757000D02*
Y-177000D01*
X4849000Y-757000D02*
X4881000Y-777000D01*
X4913000Y-757000D01*
X5135000Y-777000D02*
X5167000Y-757000D01*
X5103000D02*
X5135000Y-777000D01*
X5167000Y-757000D02*
Y-177000D01*
X5103000Y-757000D02*
Y-177000D01*
X5357000Y-757000D02*
Y-177000D01*
X5421000Y-757000D02*
Y-177000D01*
X5357000Y-757000D02*
X5389000Y-777000D01*
X5421000Y-757000D01*
X5865000D02*
Y-177000D01*
X5929000Y-757000D02*
Y-177000D01*
X5865000Y-757000D02*
X5897000Y-777000D01*
X5929000Y-757000D01*
X2468000Y77000D02*
X6532000D01*
Y-177000D02*
Y77000D01*
X2468000Y-177000D02*
X6532000D01*
X2468000D02*
Y77000D01*
X6151000Y-777000D02*
X6183000Y-757000D01*
X6119000D02*
X6151000Y-777000D01*
X6183000Y-757000D02*
Y-177000D01*
X6119000Y-757000D02*
Y-177000D01*
X6373000Y-757000D02*
Y-177000D01*
X6437000Y-757000D02*
Y-177000D01*
X6373000Y-757000D02*
X6405000Y-777000D01*
X6437000Y-757000D01*
X5643000Y-777000D02*
X5675000Y-757000D01*
X5611000D02*
X5643000Y-777000D01*
X5675000Y-757000D02*
Y-177000D01*
X5611000Y-757000D02*
Y-177000D01*
X4627000Y-777000D02*
X4659000Y-757000D01*
X4595000D02*
X4627000Y-777000D01*
X4659000Y-757000D02*
Y-177000D01*
X4595000Y-757000D02*
Y-177000D01*
X4119000Y-777000D02*
X4151000Y-757000D01*
X4087000D02*
X4119000Y-777000D01*
X4151000Y-757000D02*
Y-177000D01*
X4087000Y-757000D02*
Y-177000D01*
X3833000Y-757000D02*
Y-177000D01*
X3897000Y-757000D02*
Y-177000D01*
X3833000Y-757000D02*
X3865000Y-777000D01*
X3897000Y-757000D01*
X3579000D02*
Y-177000D01*
X3643000Y-757000D02*
Y-177000D01*
X3579000Y-757000D02*
X3611000Y-777000D01*
X3643000Y-757000D01*
X3103000Y-777000D02*
X3135000Y-757000D01*
X3071000D02*
X3103000Y-777000D01*
X3135000Y-757000D02*
Y-177000D01*
X3071000Y-757000D02*
Y-177000D01*
X3357000Y-777000D02*
X3389000Y-757000D01*
X3325000D02*
X3357000Y-777000D01*
X3389000Y-757000D02*
Y-177000D01*
X3325000Y-757000D02*
Y-177000D01*
X2817000Y-757000D02*
Y-177000D01*
X2881000Y-757000D02*
Y-177000D01*
X2817000Y-757000D02*
X2849000Y-777000D01*
X2881000Y-757000D01*
X2563000D02*
Y-177000D01*
X2627000Y-757000D02*
Y-177000D01*
X2563000Y-757000D02*
X2595000Y-777000D01*
X2627000Y-757000D01*
X2563000Y259000D02*
X2627000D01*
X2563000Y77000D02*
Y259000D01*
X2627000Y77000D02*
Y259000D01*
X2817000D02*
X2881000D01*
Y77000D02*
Y259000D01*
X2817000Y77000D02*
Y259000D01*
X3071000D02*
X3135000D01*
Y77000D02*
Y259000D01*
X3071000Y77000D02*
Y259000D01*
X3325000D02*
X3389000D01*
Y77000D02*
Y259000D01*
X3325000Y77000D02*
Y259000D01*
X3579000D02*
X3643000D01*
Y77000D02*
Y259000D01*
X3579000Y77000D02*
Y259000D01*
X3833000D02*
X3897000D01*
Y77000D02*
Y259000D01*
X3833000Y77000D02*
Y259000D01*
X4087000D02*
X4151000D01*
Y77000D02*
Y259000D01*
X4087000Y77000D02*
Y259000D01*
X4341000D02*
X4405000D01*
Y77000D02*
Y259000D01*
X4341000Y77000D02*
Y259000D01*
X4595000D02*
X4659000D01*
Y77000D02*
Y259000D01*
X4595000Y77000D02*
Y259000D01*
X4849000D02*
X4913000D01*
Y77000D02*
Y259000D01*
X4849000Y77000D02*
Y259000D01*
X5103000D02*
X5167000D01*
Y77000D02*
Y259000D01*
X5103000Y77000D02*
Y259000D01*
X5357000D02*
X5421000D01*
Y77000D02*
Y259000D01*
X5357000Y77000D02*
Y259000D01*
X5611000D02*
X5675000D01*
Y77000D02*
Y259000D01*
X5611000Y77000D02*
Y259000D01*
X5865000D02*
X5929000D01*
Y77000D02*
Y259000D01*
X5865000Y77000D02*
Y259000D01*
X6119000D02*
X6183000D01*
Y77000D02*
Y259000D01*
X6119000Y77000D02*
Y259000D01*
X6373000D02*
X6437000D01*
Y77000D02*
Y259000D01*
X6373000Y77000D02*
Y259000D01*
X3144152Y2336685D02*
X3132489Y2325023D01*
X3109163D01*
X3097500Y2336685D01*
Y2383337D01*
X3109163Y2395000D01*
X3132489D01*
X3144152Y2383337D01*
X3167478Y2325023D02*
X3214129D01*
Y2336685D01*
X3167478Y2383337D01*
Y2395000D01*
X931652Y1529185D02*
X919989Y1517522D01*
X896663D01*
X885000Y1529185D01*
Y1575837D01*
X896663Y1587500D01*
X919989D01*
X931652Y1575837D01*
X1001629Y1587500D02*
X954978D01*
X1001629Y1540848D01*
Y1529185D01*
X989966Y1517522D01*
X966640D01*
X954978Y1529185D01*
X1024955Y1575837D02*
X1036618Y1587500D01*
X1059944D01*
X1071607Y1575837D01*
Y1529185D01*
X1059944Y1517522D01*
X1036618D01*
X1024955Y1529185D01*
Y1540848D01*
X1036618Y1552511D01*
X1071607D01*
X3273315Y3939152D02*
X3284978Y3927489D01*
Y3904163D01*
X3273315Y3892500D01*
X3226663D01*
X3215000Y3904163D01*
Y3927489D01*
X3226663Y3939152D01*
X3284978Y4009129D02*
Y3962477D01*
X3249989D01*
X3261652Y3985803D01*
Y3997466D01*
X3249989Y4009129D01*
X3226663D01*
X3215000Y3997466D01*
Y3974140D01*
X3226663Y3962477D01*
X5630815Y3636652D02*
X5642478Y3624989D01*
Y3601663D01*
X5630815Y3590000D01*
X5584163D01*
X5572500Y3601663D01*
Y3624989D01*
X5584163Y3636652D01*
X5630815Y3659978D02*
X5642478Y3671641D01*
Y3694966D01*
X5630815Y3706629D01*
X5619152D01*
X5607489Y3694966D01*
Y3683304D01*
Y3694966D01*
X5595826Y3706629D01*
X5584163D01*
X5572500Y3694966D01*
Y3671641D01*
X5584163Y3659978D01*
X5642478Y3776607D02*
Y3729955D01*
X5607489D01*
X5619152Y3753281D01*
Y3764944D01*
X5607489Y3776607D01*
X5584163D01*
X5572500Y3764944D01*
Y3741618D01*
X5584163Y3729955D01*
X5808315Y3636652D02*
X5819978Y3624989D01*
Y3601663D01*
X5808315Y3590000D01*
X5761663D01*
X5750000Y3601663D01*
Y3624989D01*
X5761663Y3636652D01*
X5808315Y3659978D02*
X5819978Y3671641D01*
Y3694966D01*
X5808315Y3706629D01*
X5796652D01*
X5784989Y3694966D01*
Y3683304D01*
Y3694966D01*
X5773326Y3706629D01*
X5761663D01*
X5750000Y3694966D01*
Y3671641D01*
X5761663Y3659978D01*
X5750000Y3764944D02*
X5819978D01*
X5784989Y3729955D01*
Y3776607D01*
X5453315Y3636652D02*
X5464978Y3624989D01*
Y3601663D01*
X5453315Y3590000D01*
X5406663D01*
X5395000Y3601663D01*
Y3624989D01*
X5406663Y3636652D01*
X5453315Y3659978D02*
X5464978Y3671641D01*
Y3694966D01*
X5453315Y3706629D01*
X5441652D01*
X5429989Y3694966D01*
Y3683304D01*
Y3694966D01*
X5418326Y3706629D01*
X5406663D01*
X5395000Y3694966D01*
Y3671641D01*
X5406663Y3659978D01*
X5453315Y3729955D02*
X5464978Y3741618D01*
Y3764944D01*
X5453315Y3776607D01*
X5441652D01*
X5429989Y3764944D01*
X5418326Y3776607D01*
X5406663D01*
X5395000Y3764944D01*
Y3741618D01*
X5406663Y3729955D01*
X5418326D01*
X5429989Y3741618D01*
X5441652Y3729955D01*
X5453315D01*
X5429989Y3741618D02*
Y3764944D01*
X4811685Y3743348D02*
X4800022Y3755011D01*
Y3778337D01*
X4811685Y3790000D01*
X4858337D01*
X4870000Y3778337D01*
Y3755011D01*
X4858337Y3743348D01*
X4811685Y3720023D02*
X4800022Y3708360D01*
Y3685034D01*
X4811685Y3673371D01*
X4823348D01*
X4835011Y3685034D01*
Y3696697D01*
Y3685034D01*
X4846674Y3673371D01*
X4858337D01*
X4870000Y3685034D01*
Y3708360D01*
X4858337Y3720023D01*
X4800022Y3650045D02*
Y3603393D01*
X4811685D01*
X4858337Y3650045D01*
X4870000D01*
X4879152Y3926685D02*
X4867489Y3915022D01*
X4844163D01*
X4832500Y3926685D01*
Y3973337D01*
X4844163Y3985000D01*
X4867489D01*
X4879152Y3973337D01*
X4937466Y3985000D02*
Y3915022D01*
X4902478Y3950011D01*
X4949129D01*
X4972455Y3985000D02*
X4995781D01*
X4984118D01*
Y3915022D01*
X4972455Y3926685D01*
X1709152Y1546685D02*
X1697489Y1535022D01*
X1674163D01*
X1662500Y1546685D01*
Y1593337D01*
X1674163Y1605000D01*
X1697489D01*
X1709152Y1593337D01*
X1732478Y1546685D02*
X1744141Y1535022D01*
X1767466D01*
X1779129Y1546685D01*
Y1558348D01*
X1767466Y1570011D01*
X1755803D01*
X1767466D01*
X1779129Y1581674D01*
Y1593337D01*
X1767466Y1605000D01*
X1744141D01*
X1732478Y1593337D01*
X1802455Y1605000D02*
X1825781D01*
X1814118D01*
Y1535022D01*
X1802455Y1546685D01*
X1770815Y321652D02*
X1782478Y309989D01*
Y286663D01*
X1770815Y275000D01*
X1724163D01*
X1712500Y286663D01*
Y309989D01*
X1724163Y321652D01*
X1770815Y344977D02*
X1782478Y356640D01*
Y379966D01*
X1770815Y391629D01*
X1759152D01*
X1747489Y379966D01*
Y368303D01*
Y379966D01*
X1735826Y391629D01*
X1724163D01*
X1712500Y379966D01*
Y356640D01*
X1724163Y344977D01*
X1770815Y414955D02*
X1782478Y426618D01*
Y449944D01*
X1770815Y461607D01*
X1724163D01*
X1712500Y449944D01*
Y426618D01*
X1724163Y414955D01*
X1770815D01*
X6120815Y3886652D02*
X6132477Y3874989D01*
Y3851663D01*
X6120815Y3840000D01*
X6074163D01*
X6062500Y3851663D01*
Y3874989D01*
X6074163Y3886652D01*
X6120815Y3909977D02*
X6132477Y3921640D01*
Y3944966D01*
X6120815Y3956629D01*
X6109152D01*
X6097489Y3944966D01*
Y3933303D01*
Y3944966D01*
X6085826Y3956629D01*
X6074163D01*
X6062500Y3944966D01*
Y3921640D01*
X6074163Y3909977D01*
X6132477Y4026607D02*
X6120815Y4003281D01*
X6097489Y3979955D01*
X6074163D01*
X6062500Y3991618D01*
Y4014944D01*
X6074163Y4026607D01*
X6085826D01*
X6097489Y4014944D01*
Y3979955D01*
X8325814Y1394151D02*
X8337477Y1382488D01*
Y1359163D01*
X8325814Y1347500D01*
X8279163D01*
X8267500Y1359163D01*
Y1382488D01*
X8279163Y1394151D01*
X8267500Y1452466D02*
X8337477D01*
X8302489Y1417477D01*
Y1464129D01*
X8337477Y1534106D02*
Y1487455D01*
X8302489D01*
X8314152Y1510781D01*
Y1522443D01*
X8302489Y1534106D01*
X8279163D01*
X8267500Y1522443D01*
Y1499118D01*
X8279163Y1487455D01*
X2525848Y1190714D02*
X2537511Y1202377D01*
X2560837D01*
X2572500Y1190714D01*
Y1144062D01*
X2560837Y1132400D01*
X2537511D01*
X2525848Y1144062D01*
X2467534Y1132400D02*
Y1202377D01*
X2502522Y1167388D01*
X2455871D01*
X2385893Y1132400D02*
X2432545D01*
X2385893Y1179051D01*
Y1190714D01*
X2397556Y1202377D01*
X2420882D01*
X2432545Y1190714D01*
X3705799Y1704152D02*
X3717461Y1692489D01*
Y1669163D01*
X3705799Y1657500D01*
X3659147D01*
X3647484Y1669163D01*
Y1692489D01*
X3659147Y1704152D01*
X3647484Y1774129D02*
Y1727478D01*
X3694136Y1774129D01*
X3705799D01*
X3717461Y1762466D01*
Y1739141D01*
X3705799Y1727478D01*
X3956636Y2151685D02*
X3944973Y2140022D01*
X3921647D01*
X3909984Y2151685D01*
Y2198337D01*
X3921647Y2210000D01*
X3944973D01*
X3956636Y2198337D01*
X3979962Y2210000D02*
X4003287D01*
X3991624D01*
Y2140022D01*
X3979962Y2151685D01*
X4038276Y2198337D02*
X4049939Y2210000D01*
X4073265D01*
X4084928Y2198337D01*
Y2151685D01*
X4073265Y2140022D01*
X4049939D01*
X4038276Y2151685D01*
Y2163348D01*
X4049939Y2175011D01*
X4084928D01*
X4440832Y2653315D02*
X4452495Y2664978D01*
X4475821D01*
X4487484Y2653315D01*
Y2606663D01*
X4475821Y2595000D01*
X4452495D01*
X4440832Y2606663D01*
X4417506Y2595000D02*
X4394180D01*
X4405843D01*
Y2664978D01*
X4417506Y2653315D01*
X4312540Y2664978D02*
X4359192D01*
Y2629989D01*
X4335866Y2641652D01*
X4324203D01*
X4312540Y2629989D01*
Y2606663D01*
X4324203Y2595000D01*
X4347529D01*
X4359192Y2606663D01*
X5209152Y2111685D02*
X5197489Y2100022D01*
X5174163D01*
X5162500Y2111685D01*
Y2158337D01*
X5174163Y2170000D01*
X5197489D01*
X5209152Y2158337D01*
X5232478Y2170000D02*
X5255804D01*
X5244141D01*
Y2100022D01*
X5232478Y2111685D01*
X5290793D02*
X5302455Y2100022D01*
X5325781D01*
X5337444Y2111685D01*
Y2123348D01*
X5325781Y2135011D01*
X5337444Y2146674D01*
Y2158337D01*
X5325781Y2170000D01*
X5302455D01*
X5290793Y2158337D01*
Y2146674D01*
X5302455Y2135011D01*
X5290793Y2123348D01*
Y2111685D01*
X5302455Y2135011D02*
X5325781D01*
X5685849Y2618298D02*
X5697512Y2629961D01*
X5720837D01*
X5732500Y2618298D01*
Y2571646D01*
X5720837Y2559983D01*
X5697512D01*
X5685849Y2571646D01*
X5662523Y2559983D02*
X5639197D01*
X5650860D01*
Y2629961D01*
X5662523Y2618298D01*
X5604208D02*
X5592545Y2629961D01*
X5569219D01*
X5557557Y2618298D01*
Y2606635D01*
X5569219Y2594972D01*
X5580882D01*
X5569219D01*
X5557557Y2583309D01*
Y2571646D01*
X5569219Y2559983D01*
X5592545D01*
X5604208Y2571646D01*
X4276669Y1715848D02*
X4265006Y1727511D01*
Y1750837D01*
X4276669Y1762500D01*
X4323321D01*
X4334984Y1750837D01*
Y1727511D01*
X4323321Y1715848D01*
X4334984Y1692522D02*
Y1669197D01*
Y1680859D01*
X4265006D01*
X4276669Y1692522D01*
X4265006Y1634208D02*
Y1587556D01*
X4276669D01*
X4323321Y1634208D01*
X4334984D01*
X4334136Y2076685D02*
X4322473Y2065023D01*
X4299147D01*
X4287484Y2076685D01*
Y2123337D01*
X4299147Y2135000D01*
X4322473D01*
X4334136Y2123337D01*
X4357461Y2135000D02*
X4380787D01*
X4369124D01*
Y2065023D01*
X4357461Y2076685D01*
X4450765Y2135000D02*
Y2065023D01*
X4415776Y2100011D01*
X4462428D01*
X4963315Y1669152D02*
X4974978Y1657489D01*
Y1634163D01*
X4963315Y1622500D01*
X4916663D01*
X4905000Y1634163D01*
Y1657489D01*
X4916663Y1669152D01*
X4905000Y1692477D02*
Y1715803D01*
Y1704140D01*
X4974978D01*
X4963315Y1692477D01*
X5581652Y2046685D02*
X5569989Y2035022D01*
X5546663D01*
X5535000Y2046685D01*
Y2093337D01*
X5546663Y2105000D01*
X5569989D01*
X5581652Y2093337D01*
X5604978Y2105000D02*
X5628304D01*
X5616641D01*
Y2035022D01*
X5604978Y2046685D01*
X5709944Y2105000D02*
X5663292D01*
X5709944Y2058348D01*
Y2046685D01*
X5698281Y2035022D01*
X5674955D01*
X5663292Y2046685D01*
X5531686Y1668348D02*
X5520023Y1680011D01*
Y1703336D01*
X5531686Y1714999D01*
X5578337D01*
X5590000Y1703336D01*
Y1680011D01*
X5578337Y1668348D01*
X5590000Y1645022D02*
Y1621696D01*
Y1633359D01*
X5520023D01*
X5531686Y1645022D01*
X5520023Y1540056D02*
X5531686Y1563381D01*
X5555011Y1586707D01*
X5578337D01*
X5590000Y1575044D01*
Y1551719D01*
X5578337Y1540056D01*
X5566674D01*
X5555011Y1551719D01*
Y1586707D01*
X5184152Y1431685D02*
X5172489Y1420022D01*
X5149163D01*
X5137501Y1431685D01*
Y1478337D01*
X5149163Y1490000D01*
X5172489D01*
X5184152Y1478337D01*
X5254130Y1420022D02*
X5230804Y1431685D01*
X5207478Y1455011D01*
Y1478337D01*
X5219141Y1490000D01*
X5242467D01*
X5254130Y1478337D01*
Y1466674D01*
X5242467Y1455011D01*
X5207478D01*
X5189152Y924185D02*
X5177489Y912522D01*
X5154163D01*
X5142501Y924185D01*
Y970837D01*
X5154163Y982500D01*
X5177489D01*
X5189152Y970837D01*
X5212478Y982500D02*
X5235804D01*
X5224141D01*
Y912522D01*
X5212478Y924185D01*
X5270793D02*
X5282456Y912522D01*
X5305781D01*
X5317444Y924185D01*
Y970837D01*
X5305781Y982500D01*
X5282456D01*
X5270793Y970837D01*
Y924185D01*
X3939136Y931685D02*
X3927473Y920023D01*
X3904147D01*
X3892484Y931685D01*
Y978337D01*
X3904147Y990000D01*
X3927473D01*
X3939136Y978337D01*
X3962461Y990000D02*
X3985787D01*
X3974124D01*
Y920023D01*
X3962461Y931685D01*
X4020776Y990000D02*
X4044102D01*
X4032439D01*
Y920023D01*
X4020776Y931685D01*
X3944136Y1459186D02*
X3932473Y1447523D01*
X3909147D01*
X3897484Y1459186D01*
Y1505837D01*
X3909147Y1517500D01*
X3932473D01*
X3944136Y1505837D01*
X3967461Y1459186D02*
X3979124Y1447523D01*
X4002450D01*
X4014113Y1459186D01*
Y1470848D01*
X4002450Y1482511D01*
X4014113Y1494174D01*
Y1505837D01*
X4002450Y1517500D01*
X3979124D01*
X3967461Y1505837D01*
Y1494174D01*
X3979124Y1482511D01*
X3967461Y1470848D01*
Y1459186D01*
X3979124Y1482511D02*
X4002450D01*
X1949152Y254185D02*
X1937489Y242523D01*
X1914163D01*
X1902500Y254185D01*
Y300837D01*
X1914163Y312500D01*
X1937489D01*
X1949152Y300837D01*
X2019129Y312500D02*
X1972478D01*
X2019129Y265848D01*
Y254185D01*
X2007466Y242523D01*
X1984141D01*
X1972478Y254185D01*
X2042455D02*
X2054118Y242523D01*
X2077444D01*
X2089107Y254185D01*
Y265848D01*
X2077444Y277511D01*
X2089107Y289174D01*
Y300837D01*
X2077444Y312500D01*
X2054118D01*
X2042455Y300837D01*
Y289174D01*
X2054118Y277511D01*
X2042455Y265848D01*
Y254185D01*
X2054118Y277511D02*
X2077444D01*
X2530848Y1568198D02*
X2542511Y1579861D01*
X2565837D01*
X2577500Y1568198D01*
Y1521547D01*
X2565837Y1509884D01*
X2542511D01*
X2530848Y1521547D01*
X2472534Y1509884D02*
Y1579861D01*
X2507523Y1544872D01*
X2460871D01*
X2437545Y1568198D02*
X2425882Y1579861D01*
X2402556D01*
X2390893Y1568198D01*
Y1556535D01*
X2402556Y1544872D01*
X2414219D01*
X2402556D01*
X2390893Y1533210D01*
Y1521547D01*
X2402556Y1509884D01*
X2425882D01*
X2437545Y1521547D01*
X8328315Y1756652D02*
X8339977Y1744989D01*
Y1721663D01*
X8328315Y1710000D01*
X8281663D01*
X8270000Y1721663D01*
Y1744989D01*
X8281663Y1756652D01*
X8270000Y1814966D02*
X8339977D01*
X8304989Y1779977D01*
Y1826629D01*
X8270000Y1884944D02*
X8339977D01*
X8304989Y1849955D01*
Y1896607D01*
X8325814Y1019152D02*
X8337477Y1007489D01*
Y984163D01*
X8325814Y972500D01*
X8279163D01*
X8267500Y984163D01*
Y1007489D01*
X8279163Y1019152D01*
X8267500Y1077466D02*
X8337477D01*
X8302489Y1042477D01*
Y1089129D01*
X8337477Y1159107D02*
X8325814Y1135781D01*
X8302489Y1112455D01*
X8279163D01*
X8267500Y1124118D01*
Y1147444D01*
X8279163Y1159107D01*
X8290826D01*
X8302489Y1147444D01*
Y1112455D01*
X7999152Y2626702D02*
X7987489Y2615039D01*
X7964163D01*
X7952500Y2626702D01*
Y2673353D01*
X7964163Y2685016D01*
X7987489D01*
X7999152Y2673353D01*
X8057466Y2685016D02*
Y2615039D01*
X8022477Y2650027D01*
X8069129D01*
X8092455Y2673353D02*
X8104118Y2685016D01*
X8127444D01*
X8139107Y2673353D01*
Y2626702D01*
X8127444Y2615039D01*
X8104118D01*
X8092455Y2626702D01*
Y2638365D01*
X8104118Y2650027D01*
X8139107D01*
X7996652Y2951513D02*
X7984989Y2939850D01*
X7961663D01*
X7950000Y2951513D01*
Y2998164D01*
X7961663Y3009827D01*
X7984989D01*
X7996652Y2998164D01*
X8054967Y3009827D02*
Y2939850D01*
X8019978Y2974839D01*
X8066630D01*
X8089955Y2951513D02*
X8101618Y2939850D01*
X8124944D01*
X8136607Y2951513D01*
Y2963176D01*
X8124944Y2974839D01*
X8136607Y2986502D01*
Y2998164D01*
X8124944Y3009827D01*
X8101618D01*
X8089955Y2998164D01*
Y2986502D01*
X8101618Y2974839D01*
X8089955Y2963176D01*
Y2951513D01*
X8101618Y2974839D02*
X8124944D01*
X7999152Y3296685D02*
X7987489Y3285022D01*
X7964163D01*
X7952500Y3296685D01*
Y3343337D01*
X7964163Y3355000D01*
X7987489D01*
X7999152Y3343337D01*
X8057466Y3355000D02*
Y3285022D01*
X8022477Y3320011D01*
X8069129D01*
X8092455Y3285022D02*
X8139107D01*
Y3296685D01*
X8092455Y3343337D01*
Y3355000D01*
X365848Y2420815D02*
X377511Y2432477D01*
X400837D01*
X412500Y2420815D01*
Y2374163D01*
X400837Y2362500D01*
X377511D01*
X365848Y2374163D01*
X295871Y2362500D02*
X342522D01*
X295871Y2409152D01*
Y2420815D01*
X307534Y2432477D01*
X330859D01*
X342522Y2420815D01*
X272545D02*
X260882Y2432477D01*
X237556D01*
X225893Y2420815D01*
Y2374163D01*
X237556Y2362500D01*
X260882D01*
X272545Y2374163D01*
Y2420815D01*
X551652Y3549185D02*
X539989Y3537523D01*
X516663D01*
X505000Y3549185D01*
Y3595837D01*
X516663Y3607500D01*
X539989D01*
X551652Y3595837D01*
X621629Y3607500D02*
X574978D01*
X621629Y3560848D01*
Y3549185D01*
X609966Y3537523D01*
X586640D01*
X574978Y3549185D01*
X691607Y3537523D02*
X668281Y3549185D01*
X644955Y3572511D01*
Y3595837D01*
X656618Y3607500D01*
X679944D01*
X691607Y3595837D01*
Y3584174D01*
X679944Y3572511D01*
X644955D01*
X979185Y2165848D02*
X967522Y2177511D01*
Y2200837D01*
X979185Y2212500D01*
X1025837D01*
X1037500Y2200837D01*
Y2177511D01*
X1025837Y2165848D01*
Y2142523D02*
X1037500Y2130860D01*
Y2107534D01*
X1025837Y2095871D01*
X979185D01*
X967522Y2107534D01*
Y2130860D01*
X979185Y2142523D01*
X990848D01*
X1002511Y2130860D01*
Y2095871D01*
X1479185Y2975848D02*
X1467522Y2987511D01*
Y3010837D01*
X1479185Y3022500D01*
X1525837D01*
X1537500Y3010837D01*
Y2987511D01*
X1525837Y2975848D01*
X1537500Y2905871D02*
Y2952522D01*
X1490848Y2905871D01*
X1479185D01*
X1467522Y2917534D01*
Y2940859D01*
X1479185Y2952522D01*
X1467522Y2835893D02*
Y2882545D01*
X1502511D01*
X1490848Y2859219D01*
Y2847556D01*
X1502511Y2835893D01*
X1525837D01*
X1537500Y2847556D01*
Y2870882D01*
X1525837Y2882545D01*
%TF.MD5,5d0909da4c898ab0f55e54d38f179067*%
M02*
