%TF.GenerationSoftware,Altium Limited,Altium Designer,24.7.2 (38)*%
G04 Layer_Color=255*
%FSLAX45Y45*%
%MOMM*%
%TF.SameCoordinates,313A2AA4-CFAA-4B56-AAC7-ADE98D6BBF51*%
%TF.FilePolarity,Positive*%
%TF.FileFunction,Pads,Bot*%
%TF.Part,Single*%
G01*
G75*
%TA.AperFunction,ComponentPad*%
%ADD24C,1.60000*%
G04:AMPARAMS|DCode=25|XSize=1.6mm|YSize=1.6mm|CornerRadius=0.4mm|HoleSize=0mm|Usage=FLASHONLY|Rotation=270.000|XOffset=0mm|YOffset=0mm|HoleType=Round|Shape=RoundedRectangle|*
%AMROUNDEDRECTD25*
21,1,1.60000,0.80000,0,0,270.0*
21,1,0.80000,1.60000,0,0,270.0*
1,1,0.80000,-0.40000,-0.40000*
1,1,0.80000,-0.40000,0.40000*
1,1,0.80000,0.40000,0.40000*
1,1,0.80000,0.40000,-0.40000*
%
%ADD25ROUNDEDRECTD25*%
%ADD26C,1.80000*%
%ADD27C,2.50000*%
%ADD28C,1.20000*%
%ADD29C,1.50000*%
%ADD30R,1.50000X1.50000*%
%ADD31C,1.30000*%
%ADD32R,1.30000X1.30000*%
%ADD33R,1.55000X1.55000*%
%ADD34C,1.55000*%
%ADD35C,1.95000*%
G04:AMPARAMS|DCode=36|XSize=1.95mm|YSize=1.95mm|CornerRadius=0.4875mm|HoleSize=0mm|Usage=FLASHONLY|Rotation=270.000|XOffset=0mm|YOffset=0mm|HoleType=Round|Shape=RoundedRectangle|*
%AMROUNDEDRECTD36*
21,1,1.95000,0.97500,0,0,270.0*
21,1,0.97500,1.95000,0,0,270.0*
1,1,0.97500,-0.48750,-0.48750*
1,1,0.97500,-0.48750,0.48750*
1,1,0.97500,0.48750,0.48750*
1,1,0.97500,0.48750,-0.48750*
%
%ADD36ROUNDEDRECTD36*%
%ADD37R,1.50000X1.50000*%
%ADD38C,1.65000*%
G04:AMPARAMS|DCode=39|XSize=1.65mm|YSize=1.65mm|CornerRadius=0.4125mm|HoleSize=0mm|Usage=FLASHONLY|Rotation=0.000|XOffset=0mm|YOffset=0mm|HoleType=Round|Shape=RoundedRectangle|*
%AMROUNDEDRECTD39*
21,1,1.65000,0.82500,0,0,0.0*
21,1,0.82500,1.65000,0,0,0.0*
1,1,0.82500,0.41250,-0.41250*
1,1,0.82500,-0.41250,-0.41250*
1,1,0.82500,-0.41250,0.41250*
1,1,0.82500,0.41250,0.41250*
%
%ADD39ROUNDEDRECTD39*%
%TA.AperFunction,SMDPad,CuDef*%
%ADD42R,0.80000X1.25000*%
%ADD43R,1.25000X0.80000*%
G04:AMPARAMS|DCode=44|XSize=0.6mm|YSize=1.45mm|CornerRadius=0.051mm|HoleSize=0mm|Usage=FLASHONLY|Rotation=0.000|XOffset=0mm|YOffset=0mm|HoleType=Round|Shape=RoundedRectangle|*
%AMROUNDEDRECTD44*
21,1,0.60000,1.34800,0,0,0.0*
21,1,0.49800,1.45000,0,0,0.0*
1,1,0.10200,0.24900,-0.67400*
1,1,0.10200,-0.24900,-0.67400*
1,1,0.10200,-0.24900,0.67400*
1,1,0.10200,0.24900,0.67400*
%
%ADD44ROUNDEDRECTD44*%
%ADD45R,0.58000X1.73000*%
%ADD46C,1.73970*%
%ADD47R,1.10000X1.20000*%
%ADD48R,1.52400X1.52400*%
%ADD49R,1.20000X1.10000*%
%ADD50R,1.30822X0.61583*%
G04:AMPARAMS|DCode=51|XSize=1.30822mm|YSize=0.61583mm|CornerRadius=0.30791mm|HoleSize=0mm|Usage=FLASHONLY|Rotation=180.000|XOffset=0mm|YOffset=0mm|HoleType=Round|Shape=RoundedRectangle|*
%AMROUNDEDRECTD51*
21,1,1.30822,0.00000,0,0,180.0*
21,1,0.69239,0.61583,0,0,180.0*
1,1,0.61583,-0.34620,0.00000*
1,1,0.61583,0.34620,0.00000*
1,1,0.61583,0.34620,0.00000*
1,1,0.61583,-0.34620,0.00000*
%
%ADD51ROUNDEDRECTD51*%
%ADD52R,0.61583X1.30822*%
G04:AMPARAMS|DCode=53|XSize=1.30822mm|YSize=0.61583mm|CornerRadius=0.30791mm|HoleSize=0mm|Usage=FLASHONLY|Rotation=270.000|XOffset=0mm|YOffset=0mm|HoleType=Round|Shape=RoundedRectangle|*
%AMROUNDEDRECTD53*
21,1,1.30822,0.00000,0,0,270.0*
21,1,0.69239,0.61583,0,0,270.0*
1,1,0.61583,0.00000,-0.34620*
1,1,0.61583,0.00000,0.34620*
1,1,0.61583,0.00000,0.34620*
1,1,0.61583,0.00000,-0.34620*
%
%ADD53ROUNDEDRECTD53*%
%ADD54R,0.90000X0.65000*%
%ADD55R,2.40000X3.00000*%
%ADD56R,1.98000X0.53000*%
%ADD57R,0.95000X1.35000*%
%ADD58O,2.60000X0.70000*%
%ADD59R,2.50000X2.20000*%
D24*
X7667500Y4731000D02*
D03*
Y5239000D02*
D03*
Y4985000D02*
D03*
Y4477000D02*
D03*
Y4223000D02*
D03*
D25*
Y5493000D02*
D03*
D26*
X4289984Y2835000D02*
D03*
X3555000Y3005000D02*
D03*
X7060000Y3035000D02*
D03*
X6867500Y2552500D02*
D03*
X7622500Y6100000D02*
D03*
X2205000Y3807500D02*
D03*
X6912500Y1247500D02*
D03*
X2955000Y1162500D02*
D03*
X7562500Y477500D02*
D03*
X4100000Y3152500D02*
D03*
X7250000Y477500D02*
D03*
X6897500Y1955000D02*
D03*
X1502500Y3530000D02*
D03*
X5742500Y1312492D02*
D03*
X5533750Y2803750D02*
D03*
X5267500Y2805000D02*
D03*
X5512500Y947500D02*
D03*
X5155000Y2545000D02*
D03*
X4932233Y936234D02*
D03*
X4260000Y952500D02*
D03*
X4478726Y1350000D02*
D03*
X3722500Y957500D02*
D03*
X4009984Y2781656D02*
D03*
X3909984Y2550000D02*
D03*
X3975000Y4517500D02*
D03*
X4167500Y5652500D02*
D03*
X4215000Y5352500D02*
D03*
X4357500Y5090000D02*
D03*
X7872500Y465000D02*
D03*
D27*
X1545000Y3952500D02*
D03*
X6847500Y490000D02*
D03*
D28*
X4427500Y3566000D02*
D03*
Y4054000D02*
D03*
D29*
X7167000Y6550000D02*
D03*
X7655000Y3448000D02*
D03*
Y3194000D02*
D03*
Y2686000D02*
D03*
Y2940000D02*
D03*
Y2058000D02*
D03*
Y1804000D02*
D03*
Y1296000D02*
D03*
Y1550000D02*
D03*
D30*
X6913000Y6550000D02*
D03*
D31*
X5082496Y5135000D02*
D03*
Y5335000D02*
D03*
Y5535000D02*
D03*
D32*
Y5735000D02*
D03*
D33*
X6203500Y6550000D02*
D03*
X3600000Y6552500D02*
D03*
D34*
X5949500Y6550000D02*
D03*
X5695500D02*
D03*
X5441500D02*
D03*
X5187500D02*
D03*
X4933500D02*
D03*
X3346000Y6552500D02*
D03*
X3092000D02*
D03*
X2838000D02*
D03*
D35*
X467498Y5242552D02*
D03*
Y5742551D02*
D03*
D36*
Y6242550D02*
D03*
D37*
X7655000Y2432000D02*
D03*
Y1042000D02*
D03*
D38*
X5135000Y227000D02*
D03*
X5389000D02*
D03*
X5643000D02*
D03*
X6151000D02*
D03*
X5897000D02*
D03*
X4881000D02*
D03*
X4627000D02*
D03*
X4373000D02*
D03*
X4119000D02*
D03*
X3865000D02*
D03*
X3611000D02*
D03*
X3357000D02*
D03*
X3103000D02*
D03*
X2849000D02*
D03*
X2595000D02*
D03*
D39*
X6405000D02*
D03*
D42*
X3295000Y2359984D02*
D03*
X3095000D02*
D03*
X1082500Y1552484D02*
D03*
X882500D02*
D03*
X5030000Y3949984D02*
D03*
X4830000D02*
D03*
X1860000Y1569984D02*
D03*
X1660000D02*
D03*
X8140000Y1549983D02*
D03*
X7940000D02*
D03*
X8140000Y1169983D02*
D03*
X7940000D02*
D03*
X5895300Y5700917D02*
D03*
X5695300D02*
D03*
X5895300Y5153417D02*
D03*
X5695300D02*
D03*
X2580000Y1722416D02*
D03*
X2380000D02*
D03*
X2577500Y1344916D02*
D03*
X2377500D02*
D03*
X2575000Y1167416D02*
D03*
X2375000D02*
D03*
X3342500Y957516D02*
D03*
X3142500D02*
D03*
X3140000Y769984D02*
D03*
X3340000D02*
D03*
X3355000Y1640016D02*
D03*
X3155000D02*
D03*
X3357500Y1830016D02*
D03*
X3157500D02*
D03*
X8280000Y5717516D02*
D03*
X8080000D02*
D03*
X8277500Y5140016D02*
D03*
X8077500D02*
D03*
X8287500Y5422516D02*
D03*
X8087500D02*
D03*
X8280000Y4817516D02*
D03*
X8080000D02*
D03*
X8280000Y4517516D02*
D03*
X8080000D02*
D03*
X8280000Y4217516D02*
D03*
X8080000D02*
D03*
X8280000Y3917516D02*
D03*
X8080000D02*
D03*
X3909984Y2350000D02*
D03*
X4109984D02*
D03*
X3907484Y2174984D02*
D03*
X4107484D02*
D03*
X4489984Y2630017D02*
D03*
X4289984D02*
D03*
Y2452484D02*
D03*
X4489984D02*
D03*
X5157500Y2319983D02*
D03*
X5357500D02*
D03*
X5160000Y2134984D02*
D03*
X5360000D02*
D03*
X5735000Y2595000D02*
D03*
X5535000D02*
D03*
X5537500Y2417483D02*
D03*
X5737500D02*
D03*
X4482484Y1922500D02*
D03*
X4282484D02*
D03*
X4284984Y2099984D02*
D03*
X4484984D02*
D03*
X4287484Y2274984D02*
D03*
X4487484D02*
D03*
X5532500Y2069984D02*
D03*
X5732500D02*
D03*
X5532500Y2237483D02*
D03*
X5732500D02*
D03*
Y1892516D02*
D03*
X5532500D02*
D03*
X5135000Y1454984D02*
D03*
X5335001D02*
D03*
X5140000Y947484D02*
D03*
X5340000D02*
D03*
X3889984Y954984D02*
D03*
X4089984D02*
D03*
X3894984Y1482484D02*
D03*
X4094984D02*
D03*
X2552500Y3912484D02*
D03*
X2752500D02*
D03*
X1900000Y277484D02*
D03*
X2100000D02*
D03*
X5897800Y5338417D02*
D03*
X5697800D02*
D03*
X5895300Y5520917D02*
D03*
X5695300D02*
D03*
X8287500Y2647484D02*
D03*
X8487500D02*
D03*
X8280000Y2977484D02*
D03*
X8480000D02*
D03*
X8282500Y3319984D02*
D03*
X8482500D02*
D03*
X8152500Y2330016D02*
D03*
X7952500D02*
D03*
X7937500Y1907483D02*
D03*
X8137500D02*
D03*
X2580000Y1544900D02*
D03*
X2380000D02*
D03*
X7950000Y2650000D02*
D03*
X8150000D02*
D03*
X7947500Y2974811D02*
D03*
X8147500D02*
D03*
X7950000Y3319984D02*
D03*
X8150000D02*
D03*
X4177500Y5092516D02*
D03*
X3977500D02*
D03*
X1755000Y5032484D02*
D03*
X1955000D02*
D03*
X1807500Y6169984D02*
D03*
X2007500D02*
D03*
X1805000Y5977500D02*
D03*
X2005000D02*
D03*
X2490000Y4965016D02*
D03*
X2290000D02*
D03*
X1757500Y5209984D02*
D03*
X1957500D02*
D03*
X1217500Y5599984D02*
D03*
X1417500D02*
D03*
X415000Y2397516D02*
D03*
X215000D02*
D03*
X502500Y3572484D02*
D03*
X702500D02*
D03*
D43*
X7270016Y1799083D02*
D03*
Y1599083D02*
D03*
X6197483Y1581583D02*
D03*
Y1781583D02*
D03*
X3250016Y4090000D02*
D03*
Y3890000D02*
D03*
X5607516Y3787500D02*
D03*
Y3587500D02*
D03*
X5785016Y3787500D02*
D03*
Y3587500D02*
D03*
X5247516Y3787500D02*
D03*
Y3587500D02*
D03*
X5430016Y3787500D02*
D03*
Y3587500D02*
D03*
X4834984Y3592500D02*
D03*
Y3792500D02*
D03*
X1747516Y472500D02*
D03*
Y272500D02*
D03*
X6097516Y4037500D02*
D03*
Y3837500D02*
D03*
X8302516Y1545000D02*
D03*
Y1345000D02*
D03*
X8642516Y1542500D02*
D03*
Y1342500D02*
D03*
Y1172500D02*
D03*
Y972500D02*
D03*
X8645016Y1915000D02*
D03*
Y1715000D02*
D03*
X6427500Y6300000D02*
D03*
Y6100000D02*
D03*
X6235032Y6102500D02*
D03*
Y6302500D02*
D03*
X5132484Y4670000D02*
D03*
Y4470000D02*
D03*
X2552500Y764900D02*
D03*
Y964900D02*
D03*
X2340016Y764900D02*
D03*
Y964900D02*
D03*
X7077516Y883291D02*
D03*
Y1083291D02*
D03*
X7265000Y883291D02*
D03*
Y1083291D02*
D03*
X6385016Y1576583D02*
D03*
Y1776583D02*
D03*
X6390016Y895791D02*
D03*
Y1095791D02*
D03*
X6204984D02*
D03*
Y895791D02*
D03*
X6395016Y2210000D02*
D03*
Y2410000D02*
D03*
X6214984D02*
D03*
Y2210000D02*
D03*
X7080016Y1594083D02*
D03*
Y1794083D02*
D03*
X7090016Y2202500D02*
D03*
Y2402500D02*
D03*
X7275016Y2203291D02*
D03*
Y2403291D02*
D03*
X3682500Y1655000D02*
D03*
Y1855000D02*
D03*
X4479968Y1762500D02*
D03*
Y1562500D02*
D03*
X4299968Y1765000D02*
D03*
Y1565000D02*
D03*
X4940017Y1620000D02*
D03*
Y1820000D02*
D03*
X5554984Y1717499D02*
D03*
Y1517499D02*
D03*
X5739984Y1717499D02*
D03*
Y1517499D02*
D03*
X5137517Y1100000D02*
D03*
Y1300000D02*
D03*
X5337500Y1100000D02*
D03*
Y1300000D02*
D03*
X3905000Y1120000D02*
D03*
Y1320000D02*
D03*
X4082500Y1120000D02*
D03*
Y1320000D02*
D03*
X8305016Y1707500D02*
D03*
Y1907500D02*
D03*
X8302516Y970000D02*
D03*
Y1170000D02*
D03*
X3997484Y6385000D02*
D03*
Y6185000D02*
D03*
X4327484Y6392500D02*
D03*
Y6192500D02*
D03*
X2427516Y5665000D02*
D03*
Y5865000D02*
D03*
X3970016Y5657500D02*
D03*
Y5857500D02*
D03*
X1002484Y2215000D02*
D03*
Y2015000D02*
D03*
X1502484Y3025000D02*
D03*
Y2825000D02*
D03*
D44*
X322000Y3355000D02*
D03*
X449000D02*
D03*
X576000D02*
D03*
X703000D02*
D03*
X322000Y2810000D02*
D03*
X449000D02*
D03*
X576000D02*
D03*
X703000D02*
D03*
D45*
X1532500Y2026903D02*
D03*
X1232500D02*
D03*
D46*
X1382500Y2205000D02*
D03*
D47*
X3997500Y6560000D02*
D03*
X4207500D02*
D03*
X8525000Y5717500D02*
D03*
X8735000D02*
D03*
X8522500Y5140000D02*
D03*
X8732500D02*
D03*
X8532500Y5422500D02*
D03*
X8742500D02*
D03*
X8525000Y4817500D02*
D03*
X8735000D02*
D03*
X8525000Y4517500D02*
D03*
X8735000D02*
D03*
Y4217500D02*
D03*
X8525000D02*
D03*
X8735000Y3917500D02*
D03*
X8525000D02*
D03*
X2557500Y3722500D02*
D03*
X2767500D02*
D03*
D48*
X6107200Y5545000D02*
D03*
X6462800D02*
D03*
X6107200Y5305000D02*
D03*
X6462800D02*
D03*
D49*
X6615016Y6090000D02*
D03*
Y6300000D02*
D03*
D50*
X6854999Y1799083D02*
D03*
X6850000Y1083291D02*
D03*
X6867500Y2407500D02*
D03*
D51*
X6854999Y1609083D02*
D03*
X6620000Y1704083D02*
D03*
X6850000Y893291D02*
D03*
X6615000Y988291D02*
D03*
X6867500Y2217500D02*
D03*
X6632500Y2312500D02*
D03*
D52*
X3155000Y1417500D02*
D03*
D53*
X3345000D02*
D03*
X3250000Y1182500D02*
D03*
D54*
X4109984Y1857500D02*
D03*
Y1762500D02*
D03*
Y1667500D02*
D03*
X3869984D02*
D03*
Y1857500D02*
D03*
X5360000Y1812500D02*
D03*
Y1717500D02*
D03*
Y1622500D02*
D03*
X5120000D02*
D03*
Y1812500D02*
D03*
D55*
X955000Y6460300D02*
D03*
Y5926900D02*
D03*
Y5059700D02*
D03*
Y5593100D02*
D03*
D56*
X1631000Y5404500D02*
D03*
Y5531500D02*
D03*
Y5658500D02*
D03*
Y5785500D02*
D03*
X2124000D02*
D03*
Y5658500D02*
D03*
Y5531500D02*
D03*
Y5404500D02*
D03*
D57*
X2672500Y6305000D02*
D03*
X2822500D02*
D03*
D58*
X2757500Y4975500D02*
D03*
Y5102500D02*
D03*
Y5229500D02*
D03*
Y5356500D02*
D03*
Y5483500D02*
D03*
Y5610500D02*
D03*
Y5737500D02*
D03*
Y5864500D02*
D03*
X3682500Y4975500D02*
D03*
Y5102500D02*
D03*
Y5229500D02*
D03*
Y5356500D02*
D03*
Y5483500D02*
D03*
Y5610500D02*
D03*
Y5737500D02*
D03*
Y5864500D02*
D03*
D59*
X1140000Y2825000D02*
D03*
Y3515000D02*
D03*
%TF.MD5,082ab9115075780c9d3ebf23ce02fd3f*%
M02*
