%TF.GenerationSoftware,Altium Limited,Altium Designer,24.7.2 (38)*%
G04 Layer_Color=128*
%FSLAX45Y45*%
%MOMM*%
%TF.SameCoordinates,313A2AA4-CFAA-4B56-AAC7-ADE98D6BBF51*%
%TF.FilePolarity,Positive*%
%TF.FileFunction,Paste,Bot*%
%TF.Part,Single*%
G01*
G75*
%TA.AperFunction,SMDPad,CuDef*%
%ADD42R,0.80000X1.25000*%
%ADD43R,1.25000X0.80000*%
G04:AMPARAMS|DCode=44|XSize=0.6mm|YSize=1.45mm|CornerRadius=0.051mm|HoleSize=0mm|Usage=FLASHONLY|Rotation=0.000|XOffset=0mm|YOffset=0mm|HoleType=Round|Shape=RoundedRectangle|*
%AMROUNDEDRECTD44*
21,1,0.60000,1.34800,0,0,0.0*
21,1,0.49800,1.45000,0,0,0.0*
1,1,0.10200,0.24900,-0.67400*
1,1,0.10200,-0.24900,-0.67400*
1,1,0.10200,-0.24900,0.67400*
1,1,0.10200,0.24900,0.67400*
%
%ADD44ROUNDEDRECTD44*%
%ADD45R,0.58000X1.73000*%
%ADD46C,1.73970*%
%ADD47R,1.10000X1.20000*%
%ADD48R,1.52400X1.52400*%
%ADD49R,1.20000X1.10000*%
%ADD50R,1.30822X0.61583*%
G04:AMPARAMS|DCode=51|XSize=1.30822mm|YSize=0.61583mm|CornerRadius=0.30791mm|HoleSize=0mm|Usage=FLASHONLY|Rotation=180.000|XOffset=0mm|YOffset=0mm|HoleType=Round|Shape=RoundedRectangle|*
%AMROUNDEDRECTD51*
21,1,1.30822,0.00000,0,0,180.0*
21,1,0.69239,0.61583,0,0,180.0*
1,1,0.61583,-0.34620,0.00000*
1,1,0.61583,0.34620,0.00000*
1,1,0.61583,0.34620,0.00000*
1,1,0.61583,-0.34620,0.00000*
%
%ADD51ROUNDEDRECTD51*%
%ADD52R,0.61583X1.30822*%
G04:AMPARAMS|DCode=53|XSize=1.30822mm|YSize=0.61583mm|CornerRadius=0.30791mm|HoleSize=0mm|Usage=FLASHONLY|Rotation=270.000|XOffset=0mm|YOffset=0mm|HoleType=Round|Shape=RoundedRectangle|*
%AMROUNDEDRECTD53*
21,1,1.30822,0.00000,0,0,270.0*
21,1,0.69239,0.61583,0,0,270.0*
1,1,0.61583,0.00000,-0.34620*
1,1,0.61583,0.00000,0.34620*
1,1,0.61583,0.00000,0.34620*
1,1,0.61583,0.00000,-0.34620*
%
%ADD53ROUNDEDRECTD53*%
%ADD54R,0.90000X0.65000*%
%ADD55R,2.40000X3.00000*%
%ADD56R,1.98000X0.53000*%
%ADD57R,0.95000X1.35000*%
%ADD58O,2.60000X0.70000*%
%ADD59R,2.50000X2.20000*%
G36*
X1479150Y2090403D02*
X1420500D01*
Y1940403D01*
X1344500D01*
Y2090403D01*
X1285850D01*
Y2393403D01*
X1479150D01*
Y2090403D01*
D02*
G37*
D42*
X3295000Y2359984D02*
D03*
X3095000D02*
D03*
X1082500Y1552484D02*
D03*
X882500D02*
D03*
X5030000Y3949984D02*
D03*
X4830000D02*
D03*
X1860000Y1569984D02*
D03*
X1660000D02*
D03*
X8140000Y1549983D02*
D03*
X7940000D02*
D03*
X8140000Y1169983D02*
D03*
X7940000D02*
D03*
X5895300Y5700917D02*
D03*
X5695300D02*
D03*
X5895300Y5153417D02*
D03*
X5695300D02*
D03*
X2580000Y1722416D02*
D03*
X2380000D02*
D03*
X2577500Y1344916D02*
D03*
X2377500D02*
D03*
X2575000Y1167416D02*
D03*
X2375000D02*
D03*
X3342500Y957516D02*
D03*
X3142500D02*
D03*
X3140000Y769984D02*
D03*
X3340000D02*
D03*
X3355000Y1640016D02*
D03*
X3155000D02*
D03*
X3357500Y1830016D02*
D03*
X3157500D02*
D03*
X8280000Y5717516D02*
D03*
X8080000D02*
D03*
X8277500Y5140016D02*
D03*
X8077500D02*
D03*
X8287500Y5422516D02*
D03*
X8087500D02*
D03*
X8280000Y4817516D02*
D03*
X8080000D02*
D03*
X8280000Y4517516D02*
D03*
X8080000D02*
D03*
X8280000Y4217516D02*
D03*
X8080000D02*
D03*
X8280000Y3917516D02*
D03*
X8080000D02*
D03*
X3909984Y2350000D02*
D03*
X4109984D02*
D03*
X3907484Y2174984D02*
D03*
X4107484D02*
D03*
X4489984Y2630017D02*
D03*
X4289984D02*
D03*
Y2452484D02*
D03*
X4489984D02*
D03*
X5157500Y2319983D02*
D03*
X5357500D02*
D03*
X5160000Y2134984D02*
D03*
X5360000D02*
D03*
X5735000Y2595000D02*
D03*
X5535000D02*
D03*
X5537500Y2417483D02*
D03*
X5737500D02*
D03*
X4482484Y1922500D02*
D03*
X4282484D02*
D03*
X4284984Y2099984D02*
D03*
X4484984D02*
D03*
X4287484Y2274984D02*
D03*
X4487484D02*
D03*
X5532500Y2069984D02*
D03*
X5732500D02*
D03*
X5532500Y2237483D02*
D03*
X5732500D02*
D03*
Y1892516D02*
D03*
X5532500D02*
D03*
X5135000Y1454984D02*
D03*
X5335001D02*
D03*
X5140000Y947484D02*
D03*
X5340000D02*
D03*
X3889984Y954984D02*
D03*
X4089984D02*
D03*
X3894984Y1482484D02*
D03*
X4094984D02*
D03*
X2552500Y3912484D02*
D03*
X2752500D02*
D03*
X1900000Y277484D02*
D03*
X2100000D02*
D03*
X5897800Y5338417D02*
D03*
X5697800D02*
D03*
X5895300Y5520917D02*
D03*
X5695300D02*
D03*
X8287500Y2647484D02*
D03*
X8487500D02*
D03*
X8280000Y2977484D02*
D03*
X8480000D02*
D03*
X8282500Y3319984D02*
D03*
X8482500D02*
D03*
X8152500Y2330016D02*
D03*
X7952500D02*
D03*
X7937500Y1907483D02*
D03*
X8137500D02*
D03*
X2580000Y1544900D02*
D03*
X2380000D02*
D03*
X7950000Y2650000D02*
D03*
X8150000D02*
D03*
X7947500Y2974811D02*
D03*
X8147500D02*
D03*
X7950000Y3319984D02*
D03*
X8150000D02*
D03*
X4177500Y5092516D02*
D03*
X3977500D02*
D03*
X1755000Y5032484D02*
D03*
X1955000D02*
D03*
X1807500Y6169984D02*
D03*
X2007500D02*
D03*
X1805000Y5977500D02*
D03*
X2005000D02*
D03*
X2490000Y4965016D02*
D03*
X2290000D02*
D03*
X1757500Y5209984D02*
D03*
X1957500D02*
D03*
X1217500Y5599984D02*
D03*
X1417500D02*
D03*
X415000Y2397516D02*
D03*
X215000D02*
D03*
X502500Y3572484D02*
D03*
X702500D02*
D03*
D43*
X7270016Y1799083D02*
D03*
Y1599083D02*
D03*
X6197483Y1581583D02*
D03*
Y1781583D02*
D03*
X3250016Y4090000D02*
D03*
Y3890000D02*
D03*
X5607516Y3787500D02*
D03*
Y3587500D02*
D03*
X5785016Y3787500D02*
D03*
Y3587500D02*
D03*
X5247516Y3787500D02*
D03*
Y3587500D02*
D03*
X5430016Y3787500D02*
D03*
Y3587500D02*
D03*
X4834984Y3592500D02*
D03*
Y3792500D02*
D03*
X1747516Y472500D02*
D03*
Y272500D02*
D03*
X6097516Y4037500D02*
D03*
Y3837500D02*
D03*
X8302516Y1545000D02*
D03*
Y1345000D02*
D03*
X8642516Y1542500D02*
D03*
Y1342500D02*
D03*
Y1172500D02*
D03*
Y972500D02*
D03*
X8645016Y1915000D02*
D03*
Y1715000D02*
D03*
X6427500Y6300000D02*
D03*
Y6100000D02*
D03*
X6235032Y6102500D02*
D03*
Y6302500D02*
D03*
X5132484Y4670000D02*
D03*
Y4470000D02*
D03*
X2552500Y764900D02*
D03*
Y964900D02*
D03*
X2340016Y764900D02*
D03*
Y964900D02*
D03*
X7077516Y883291D02*
D03*
Y1083291D02*
D03*
X7265000Y883291D02*
D03*
Y1083291D02*
D03*
X6385016Y1576583D02*
D03*
Y1776583D02*
D03*
X6390016Y895791D02*
D03*
Y1095791D02*
D03*
X6204984D02*
D03*
Y895791D02*
D03*
X6395016Y2210000D02*
D03*
Y2410000D02*
D03*
X6214984D02*
D03*
Y2210000D02*
D03*
X7080016Y1594083D02*
D03*
Y1794083D02*
D03*
X7090016Y2202500D02*
D03*
Y2402500D02*
D03*
X7275016Y2203291D02*
D03*
Y2403291D02*
D03*
X3682500Y1655000D02*
D03*
Y1855000D02*
D03*
X4479968Y1762500D02*
D03*
Y1562500D02*
D03*
X4299968Y1765000D02*
D03*
Y1565000D02*
D03*
X4940017Y1620000D02*
D03*
Y1820000D02*
D03*
X5554984Y1717499D02*
D03*
Y1517499D02*
D03*
X5739984Y1717499D02*
D03*
Y1517499D02*
D03*
X5137517Y1100000D02*
D03*
Y1300000D02*
D03*
X5337500Y1100000D02*
D03*
Y1300000D02*
D03*
X3905000Y1120000D02*
D03*
Y1320000D02*
D03*
X4082500Y1120000D02*
D03*
Y1320000D02*
D03*
X8305016Y1707500D02*
D03*
Y1907500D02*
D03*
X8302516Y970000D02*
D03*
Y1170000D02*
D03*
X3997484Y6385000D02*
D03*
Y6185000D02*
D03*
X4327484Y6392500D02*
D03*
Y6192500D02*
D03*
X2427516Y5665000D02*
D03*
Y5865000D02*
D03*
X3970016Y5657500D02*
D03*
Y5857500D02*
D03*
X1002484Y2215000D02*
D03*
Y2015000D02*
D03*
X1502484Y3025000D02*
D03*
Y2825000D02*
D03*
D44*
X322000Y3355000D02*
D03*
X449000D02*
D03*
X576000D02*
D03*
X703000D02*
D03*
X322000Y2810000D02*
D03*
X449000D02*
D03*
X576000D02*
D03*
X703000D02*
D03*
D45*
X1532500Y2026903D02*
D03*
X1232500D02*
D03*
D46*
X1382500Y2205000D02*
D03*
D47*
X3997500Y6560000D02*
D03*
X4207500D02*
D03*
X8525000Y5717500D02*
D03*
X8735000D02*
D03*
X8522500Y5140000D02*
D03*
X8732500D02*
D03*
X8532500Y5422500D02*
D03*
X8742500D02*
D03*
X8525000Y4817500D02*
D03*
X8735000D02*
D03*
X8525000Y4517500D02*
D03*
X8735000D02*
D03*
Y4217500D02*
D03*
X8525000D02*
D03*
X8735000Y3917500D02*
D03*
X8525000D02*
D03*
X2557500Y3722500D02*
D03*
X2767500D02*
D03*
D48*
X6107200Y5545000D02*
D03*
X6462800D02*
D03*
X6107200Y5305000D02*
D03*
X6462800D02*
D03*
D49*
X6615016Y6090000D02*
D03*
Y6300000D02*
D03*
D50*
X6854999Y1799083D02*
D03*
X6850000Y1083291D02*
D03*
X6867500Y2407500D02*
D03*
D51*
X6854999Y1609083D02*
D03*
X6620000Y1704083D02*
D03*
X6850000Y893291D02*
D03*
X6615000Y988291D02*
D03*
X6867500Y2217500D02*
D03*
X6632500Y2312500D02*
D03*
D52*
X3155000Y1417500D02*
D03*
D53*
X3345000D02*
D03*
X3250000Y1182500D02*
D03*
D54*
X4109984Y1857500D02*
D03*
Y1762500D02*
D03*
Y1667500D02*
D03*
X3869984D02*
D03*
Y1857500D02*
D03*
X5360000Y1812500D02*
D03*
Y1717500D02*
D03*
Y1622500D02*
D03*
X5120000D02*
D03*
Y1812500D02*
D03*
D55*
X955000Y6460300D02*
D03*
Y5926900D02*
D03*
Y5059700D02*
D03*
Y5593100D02*
D03*
D56*
X1631000Y5404500D02*
D03*
Y5531500D02*
D03*
Y5658500D02*
D03*
Y5785500D02*
D03*
X2124000D02*
D03*
Y5658500D02*
D03*
Y5531500D02*
D03*
Y5404500D02*
D03*
D57*
X2672500Y6305000D02*
D03*
X2822500D02*
D03*
D58*
X2757500Y4975500D02*
D03*
Y5102500D02*
D03*
Y5229500D02*
D03*
Y5356500D02*
D03*
Y5483500D02*
D03*
Y5610500D02*
D03*
Y5737500D02*
D03*
Y5864500D02*
D03*
X3682500Y4975500D02*
D03*
Y5102500D02*
D03*
Y5229500D02*
D03*
Y5356500D02*
D03*
Y5483500D02*
D03*
Y5610500D02*
D03*
Y5737500D02*
D03*
Y5864500D02*
D03*
D59*
X1140000Y2825000D02*
D03*
Y3515000D02*
D03*
%TF.MD5,843c4c7860d3436e89bfe56a1da14928*%
M02*
