%TF.GenerationSoftware,Altium Limited,Altium Designer,24.7.2 (38)*%
G04 Layer_Color=8388736*
%FSLAX45Y45*%
%MOMM*%
%TF.SameCoordinates,313A2AA4-CFAA-4B56-AAC7-ADE98D6BBF51*%
%TF.FilePolarity,Positive*%
%TF.FileFunction,Other,Board*%
%TF.Part,Single*%
G01*
G75*
%TA.AperFunction,NonConductor*%
%ADD62C,0.20000*%
G36*
X4021694Y6605340D02*
X4023265Y6605248D01*
X4024745Y6604970D01*
X4026131Y6604693D01*
X4027426Y6604323D01*
X4028628Y6603953D01*
X4029737Y6603491D01*
X4030754Y6603029D01*
X4031679Y6602566D01*
X4032418Y6602104D01*
X4033066Y6601734D01*
X4033620Y6601364D01*
X4034083Y6601087D01*
X4034360Y6600810D01*
X4034545Y6600717D01*
X4034637Y6600625D01*
X4035562Y6599700D01*
X4036394Y6598683D01*
X4037226Y6597574D01*
X4037873Y6596464D01*
X4038983Y6594245D01*
X4039722Y6592026D01*
X4040000Y6591009D01*
X4040277Y6589992D01*
X4040462Y6589160D01*
X4040647Y6588421D01*
X4040739Y6587773D01*
Y6587311D01*
X4040832Y6587034D01*
Y6586941D01*
X4032788Y6586109D01*
X4032603Y6588236D01*
X4032233Y6590085D01*
X4031679Y6591749D01*
X4031032Y6593043D01*
X4030477Y6594153D01*
X4029922Y6594893D01*
X4029552Y6595355D01*
X4029367Y6595540D01*
X4027981Y6596649D01*
X4026501Y6597481D01*
X4024929Y6598129D01*
X4023543Y6598498D01*
X4022248Y6598776D01*
X4021139Y6598868D01*
X4020769Y6598961D01*
X4020214D01*
X4018273Y6598868D01*
X4016516Y6598498D01*
X4015037Y6597944D01*
X4013742Y6597389D01*
X4012725Y6596742D01*
X4012078Y6596279D01*
X4011616Y6595910D01*
X4011431Y6595725D01*
X4010321Y6594430D01*
X4009489Y6593136D01*
X4008842Y6591842D01*
X4008472Y6590547D01*
X4008195Y6589530D01*
X4008102Y6588606D01*
X4008010Y6588051D01*
Y6587958D01*
Y6587866D01*
X4008195Y6586202D01*
X4008565Y6584445D01*
X4009212Y6582873D01*
X4009859Y6581394D01*
X4010599Y6580192D01*
X4011246Y6579175D01*
X4011431Y6578805D01*
X4011616Y6578528D01*
X4011801Y6578435D01*
Y6578343D01*
X4012540Y6577326D01*
X4013465Y6576309D01*
X4014482Y6575199D01*
X4015591Y6574090D01*
X4017903Y6571871D01*
X4020214Y6569652D01*
X4021416Y6568635D01*
X4022433Y6567711D01*
X4023450Y6566878D01*
X4024282Y6566139D01*
X4024929Y6565584D01*
X4025484Y6565122D01*
X4025854Y6564844D01*
X4025946Y6564752D01*
X4028258Y6562810D01*
X4030384Y6560961D01*
X4032141Y6559297D01*
X4033528Y6557910D01*
X4034730Y6556708D01*
X4035562Y6555876D01*
X4036024Y6555321D01*
X4036209Y6555229D01*
Y6555136D01*
X4037503Y6553565D01*
X4038520Y6552085D01*
X4039445Y6550606D01*
X4040185Y6549312D01*
X4040739Y6548202D01*
X4041109Y6547370D01*
X4041294Y6546815D01*
X4041387Y6546723D01*
Y6546631D01*
X4041756Y6545614D01*
X4041941Y6544689D01*
X4042126Y6543764D01*
X4042219Y6542932D01*
X4042311Y6542193D01*
Y6541638D01*
Y6541268D01*
Y6541176D01*
X3999874D01*
Y6548757D01*
X4031401D01*
X4030292Y6550329D01*
X4029737Y6550976D01*
X4029275Y6551623D01*
X4028813Y6552178D01*
X4028443Y6552548D01*
X4028165Y6552825D01*
X4028073Y6552918D01*
X4027611Y6553380D01*
X4027056Y6553842D01*
X4025762Y6555044D01*
X4024282Y6556431D01*
X4022711Y6557818D01*
X4021231Y6559020D01*
X4020584Y6559574D01*
X4020029Y6560129D01*
X4019567Y6560499D01*
X4019197Y6560776D01*
X4019012Y6560961D01*
X4018920Y6561054D01*
X4017441Y6562348D01*
X4015961Y6563550D01*
X4014667Y6564752D01*
X4013465Y6565769D01*
X4012355Y6566786D01*
X4011431Y6567711D01*
X4010506Y6568543D01*
X4009767Y6569282D01*
X4009027Y6570022D01*
X4008472Y6570577D01*
X4008010Y6571039D01*
X4007548Y6571501D01*
X4007085Y6572056D01*
X4006901Y6572241D01*
X4005606Y6573813D01*
X4004497Y6575199D01*
X4003572Y6576586D01*
X4002832Y6577696D01*
X4002278Y6578713D01*
X4001908Y6579452D01*
X4001723Y6579915D01*
X4001631Y6580100D01*
X4001076Y6581486D01*
X4000706Y6582873D01*
X4000336Y6584168D01*
X4000151Y6585277D01*
X4000059Y6586294D01*
X3999966Y6587034D01*
Y6587496D01*
Y6587681D01*
X4000059Y6589068D01*
X4000244Y6590362D01*
X4000429Y6591657D01*
X4000798Y6592766D01*
X4001723Y6594985D01*
X4002648Y6596742D01*
X4003202Y6597574D01*
X4003665Y6598221D01*
X4004127Y6598868D01*
X4004589Y6599330D01*
X4004959Y6599700D01*
X4005144Y6600070D01*
X4005329Y6600163D01*
X4005421Y6600255D01*
X4006438Y6601180D01*
X4007548Y6602012D01*
X4008750Y6602659D01*
X4009952Y6603214D01*
X4012355Y6604138D01*
X4014759Y6604785D01*
X4015776Y6604970D01*
X4016793Y6605155D01*
X4017718Y6605248D01*
X4018458Y6605340D01*
X4019105Y6605433D01*
X4020029D01*
X4021694Y6605340D01*
D02*
G37*
G36*
X4102500Y6541176D02*
X4079479D01*
X4077352Y6541268D01*
X4075410Y6541361D01*
X4073654Y6541545D01*
X4072174Y6541730D01*
X4070880Y6541915D01*
X4069956Y6542008D01*
X4069678Y6542100D01*
X4069401Y6542193D01*
X4069216D01*
X4067552Y6542655D01*
X4066072Y6543210D01*
X4064778Y6543672D01*
X4063669Y6544227D01*
X4062744Y6544689D01*
X4062097Y6545059D01*
X4061727Y6545336D01*
X4061542Y6545429D01*
X4060340Y6546261D01*
X4059323Y6547278D01*
X4058306Y6548202D01*
X4057474Y6549127D01*
X4056734Y6549959D01*
X4056180Y6550606D01*
X4055810Y6551068D01*
X4055717Y6551253D01*
X4054793Y6552733D01*
X4053868Y6554304D01*
X4053129Y6555784D01*
X4052574Y6557263D01*
X4052019Y6558557D01*
X4051649Y6559574D01*
X4051557Y6559944D01*
X4051464Y6560222D01*
X4051372Y6560406D01*
Y6560499D01*
X4050817Y6562718D01*
X4050355Y6564937D01*
X4050077Y6567063D01*
X4049800Y6569097D01*
X4049708Y6570854D01*
Y6571594D01*
X4049615Y6572241D01*
Y6572703D01*
Y6573165D01*
Y6573350D01*
Y6573443D01*
X4049708Y6576586D01*
X4049985Y6579452D01*
X4050447Y6582041D01*
X4050632Y6583243D01*
X4050910Y6584260D01*
X4051187Y6585277D01*
X4051372Y6586109D01*
X4051557Y6586849D01*
X4051834Y6587496D01*
X4051927Y6588051D01*
X4052112Y6588421D01*
X4052204Y6588606D01*
Y6588698D01*
X4053221Y6591102D01*
X4054423Y6593228D01*
X4055717Y6595077D01*
X4056919Y6596649D01*
X4058029Y6597944D01*
X4058953Y6598868D01*
X4059323Y6599146D01*
X4059600Y6599423D01*
X4059693Y6599515D01*
X4059785Y6599608D01*
X4061265Y6600810D01*
X4062836Y6601734D01*
X4064408Y6602566D01*
X4065887Y6603214D01*
X4067182Y6603676D01*
X4068199Y6603953D01*
X4068569Y6604138D01*
X4068846D01*
X4069031Y6604231D01*
X4069123D01*
X4070695Y6604508D01*
X4072544Y6604785D01*
X4074393Y6604970D01*
X4076243Y6605063D01*
X4077907Y6605155D01*
X4102500D01*
Y6541176D01*
D02*
G37*
G36*
X6632731Y6171979D02*
X6632639Y6169852D01*
X6632546Y6167910D01*
X6632361Y6166154D01*
X6632176Y6164674D01*
X6631992Y6163380D01*
X6631899Y6162456D01*
X6631807Y6162178D01*
X6631714Y6161901D01*
Y6161716D01*
X6631252Y6160052D01*
X6630697Y6158572D01*
X6630235Y6157278D01*
X6629680Y6156169D01*
X6629218Y6155244D01*
X6628848Y6154597D01*
X6628571Y6154227D01*
X6628478Y6154042D01*
X6627646Y6152840D01*
X6626629Y6151823D01*
X6625705Y6150806D01*
X6624780Y6149974D01*
X6623948Y6149234D01*
X6623301Y6148680D01*
X6622838Y6148310D01*
X6622654Y6148217D01*
X6621174Y6147293D01*
X6619602Y6146368D01*
X6618123Y6145629D01*
X6616644Y6145074D01*
X6615349Y6144519D01*
X6614332Y6144149D01*
X6613963Y6144057D01*
X6613685Y6143964D01*
X6613500Y6143872D01*
X6613408D01*
X6611189Y6143317D01*
X6608970Y6142855D01*
X6606844Y6142578D01*
X6604809Y6142300D01*
X6603053Y6142208D01*
X6602313D01*
X6601666Y6142115D01*
X6601204D01*
X6600741D01*
X6600557D01*
X6600464D01*
X6597321Y6142208D01*
X6594454Y6142485D01*
X6591866Y6142947D01*
X6590664Y6143132D01*
X6589647Y6143410D01*
X6588630Y6143687D01*
X6587798Y6143872D01*
X6587058Y6144057D01*
X6586411Y6144334D01*
X6585856Y6144427D01*
X6585486Y6144612D01*
X6585301Y6144704D01*
X6585209D01*
X6582805Y6145721D01*
X6580678Y6146923D01*
X6578829Y6148217D01*
X6577258Y6149419D01*
X6575963Y6150529D01*
X6575039Y6151453D01*
X6574761Y6151823D01*
X6574484Y6152100D01*
X6574391Y6152193D01*
X6574299Y6152285D01*
X6573097Y6153765D01*
X6572173Y6155336D01*
X6571340Y6156908D01*
X6570693Y6158387D01*
X6570231Y6159682D01*
X6569954Y6160699D01*
X6569769Y6161069D01*
Y6161346D01*
X6569676Y6161531D01*
Y6161623D01*
X6569399Y6163195D01*
X6569121Y6165044D01*
X6568937Y6166893D01*
X6568844Y6168743D01*
X6568752Y6170407D01*
Y6195000D01*
X6632731D01*
Y6171979D01*
D02*
G37*
G36*
X6591588Y6126305D02*
X6590941Y6124918D01*
X6590294Y6123532D01*
X6589647Y6122237D01*
X6589092Y6121128D01*
X6588630Y6120203D01*
X6588260Y6119648D01*
X6588167Y6119556D01*
Y6119464D01*
X6587150Y6117799D01*
X6586133Y6116320D01*
X6585209Y6115026D01*
X6584377Y6114009D01*
X6583730Y6113084D01*
X6583175Y6112529D01*
X6582805Y6112067D01*
X6582713Y6111975D01*
X6632731D01*
Y6104116D01*
X6568474D01*
Y6109201D01*
X6570046Y6110125D01*
X6571525Y6111142D01*
X6573005Y6112344D01*
X6574299Y6113454D01*
X6575408Y6114563D01*
X6576333Y6115395D01*
X6576610Y6115765D01*
X6576888Y6116043D01*
X6576980Y6116135D01*
X6577073Y6116228D01*
X6578644Y6118169D01*
X6580124Y6120111D01*
X6581418Y6121960D01*
X6582435Y6123809D01*
X6583360Y6125381D01*
X6583730Y6126028D01*
X6584007Y6126583D01*
X6584284Y6127045D01*
X6584377Y6127415D01*
X6584562Y6127600D01*
Y6127692D01*
X6592143D01*
X6591588Y6126305D01*
D02*
G37*
G36*
X6604440Y6083868D02*
X6607491Y6083683D01*
X6610264Y6083406D01*
X6612853Y6082943D01*
X6615257Y6082481D01*
X6617384Y6081926D01*
X6619325Y6081372D01*
X6620989Y6080817D01*
X6622469Y6080262D01*
X6623763Y6079615D01*
X6624872Y6079153D01*
X6625705Y6078690D01*
X6626444Y6078228D01*
X6626906Y6077951D01*
X6627184Y6077766D01*
X6627276Y6077673D01*
X6628386Y6076656D01*
X6629403Y6075547D01*
X6630327Y6074345D01*
X6631067Y6073143D01*
X6631714Y6071941D01*
X6632269Y6070739D01*
X6632639Y6069537D01*
X6633009Y6068428D01*
X6633286Y6067318D01*
X6633471Y6066301D01*
X6633656Y6065377D01*
X6633748Y6064637D01*
X6633841Y6063990D01*
Y6063065D01*
X6633656Y6060569D01*
X6633286Y6058258D01*
X6632639Y6056316D01*
X6631992Y6054652D01*
X6631344Y6053265D01*
X6630975Y6052803D01*
X6630697Y6052340D01*
X6630512Y6051971D01*
X6630327Y6051693D01*
X6630142Y6051601D01*
Y6051508D01*
X6628571Y6049844D01*
X6626906Y6048457D01*
X6625057Y6047255D01*
X6623393Y6046331D01*
X6621821Y6045591D01*
X6621174Y6045221D01*
X6620527Y6045036D01*
X6620065Y6044852D01*
X6619695Y6044667D01*
X6619510Y6044574D01*
X6619418D01*
X6618031Y6044112D01*
X6616644Y6043742D01*
X6613685Y6043187D01*
X6610634Y6042725D01*
X6607676Y6042448D01*
X6606381Y6042355D01*
X6605179Y6042263D01*
X6604070D01*
X6603053Y6042170D01*
X6602313D01*
X6601666D01*
X6601296D01*
X6601204D01*
X6599447D01*
X6597783Y6042263D01*
X6596304D01*
X6594824Y6042355D01*
X6593530Y6042540D01*
X6592235Y6042633D01*
X6591126Y6042725D01*
X6590109Y6042910D01*
X6589184Y6043002D01*
X6588352Y6043187D01*
X6587705Y6043280D01*
X6587150Y6043372D01*
X6586688Y6043465D01*
X6586411Y6043557D01*
X6586226Y6043650D01*
X6586133D01*
X6584099Y6044204D01*
X6582250Y6044852D01*
X6580678Y6045591D01*
X6579292Y6046146D01*
X6578090Y6046793D01*
X6577258Y6047163D01*
X6576795Y6047533D01*
X6576610Y6047625D01*
X6575224Y6048642D01*
X6574022Y6049659D01*
X6573005Y6050769D01*
X6572080Y6051786D01*
X6571433Y6052710D01*
X6570971Y6053450D01*
X6570693Y6053912D01*
X6570601Y6054005D01*
Y6054097D01*
X6569861Y6055576D01*
X6569399Y6057148D01*
X6569029Y6058627D01*
X6568752Y6060014D01*
X6568567Y6061216D01*
X6568474Y6062233D01*
Y6063065D01*
X6568659Y6065562D01*
X6569029Y6067873D01*
X6569676Y6069815D01*
X6570323Y6071479D01*
X6571063Y6072866D01*
X6571340Y6073420D01*
X6571710Y6073883D01*
X6571895Y6074253D01*
X6572080Y6074530D01*
X6572265Y6074622D01*
Y6074715D01*
X6573744Y6076379D01*
X6575501Y6077766D01*
X6577258Y6078968D01*
X6578922Y6079892D01*
X6580494Y6080632D01*
X6581141Y6081002D01*
X6581788Y6081187D01*
X6582250Y6081372D01*
X6582620Y6081557D01*
X6582805Y6081649D01*
X6582897D01*
X6584284Y6082019D01*
X6585671Y6082389D01*
X6588722Y6082943D01*
X6591773Y6083406D01*
X6594639Y6083683D01*
X6596026Y6083775D01*
X6597228Y6083868D01*
X6598338D01*
X6599355Y6083960D01*
X6600094D01*
X6600741D01*
X6601111D01*
X6601204D01*
X6604440Y6083868D01*
D02*
G37*
G36*
X8713025Y5736139D02*
X8715336Y5735770D01*
X8717463Y5735122D01*
X8719220Y5734383D01*
X8719959Y5734105D01*
X8720699Y5733736D01*
X8721254Y5733366D01*
X8721808Y5733088D01*
X8722178Y5732903D01*
X8722456Y5732719D01*
X8722640Y5732534D01*
X8722733D01*
X8724582Y5730962D01*
X8726246Y5729205D01*
X8727541Y5727356D01*
X8728650Y5725599D01*
X8729575Y5724028D01*
X8729944Y5723288D01*
X8730222Y5722733D01*
X8730407Y5722179D01*
X8730592Y5721809D01*
X8730684Y5721624D01*
Y5721531D01*
X8731146Y5720145D01*
X8731609Y5718573D01*
X8732256Y5715429D01*
X8732718Y5712101D01*
X8732995Y5708957D01*
X8733180Y5707570D01*
X8733273Y5706184D01*
Y5704982D01*
X8733365Y5703965D01*
Y5703133D01*
Y5702485D01*
Y5702023D01*
Y5701931D01*
Y5699804D01*
X8733273Y5697770D01*
X8733088Y5695921D01*
X8732903Y5694164D01*
X8732718Y5692593D01*
X8732533Y5691113D01*
X8732256Y5689726D01*
X8731978Y5688525D01*
X8731701Y5687508D01*
X8731516Y5686583D01*
X8731239Y5685751D01*
X8731054Y5685104D01*
X8730869Y5684641D01*
X8730684Y5684272D01*
X8730592Y5684087D01*
Y5683994D01*
X8729482Y5681775D01*
X8728280Y5679834D01*
X8726893Y5678169D01*
X8725691Y5676783D01*
X8724490Y5675766D01*
X8723565Y5675026D01*
X8723195Y5674749D01*
X8722918Y5674564D01*
X8722825Y5674379D01*
X8722733D01*
X8720791Y5673269D01*
X8718850Y5672437D01*
X8716908Y5671790D01*
X8715151Y5671420D01*
X8713580Y5671143D01*
X8712933Y5671050D01*
X8712470D01*
X8712008Y5670958D01*
X8711361D01*
X8709789Y5671050D01*
X8708310Y5671235D01*
X8706830Y5671513D01*
X8705536Y5671882D01*
X8703040Y5672899D01*
X8701930Y5673362D01*
X8701006Y5673917D01*
X8700081Y5674564D01*
X8699342Y5675026D01*
X8698602Y5675581D01*
X8698047Y5676043D01*
X8697585Y5676413D01*
X8697307Y5676690D01*
X8697123Y5676875D01*
X8697030Y5676968D01*
X8696013Y5678077D01*
X8695181Y5679371D01*
X8694349Y5680573D01*
X8693702Y5681868D01*
X8693147Y5683255D01*
X8692685Y5684549D01*
X8692037Y5686953D01*
X8691760Y5688155D01*
X8691575Y5689172D01*
X8691483Y5690189D01*
X8691390Y5691021D01*
X8691298Y5691668D01*
Y5692130D01*
Y5692500D01*
Y5692593D01*
X8691390Y5694349D01*
X8691575Y5695921D01*
X8691760Y5697493D01*
X8692130Y5698972D01*
X8692592Y5700266D01*
X8693054Y5701561D01*
X8693517Y5702670D01*
X8694072Y5703687D01*
X8694534Y5704612D01*
X8694996Y5705444D01*
X8695458Y5706091D01*
X8695921Y5706738D01*
X8696290Y5707201D01*
X8696475Y5707478D01*
X8696660Y5707663D01*
X8696753Y5707755D01*
X8697770Y5708772D01*
X8698879Y5709605D01*
X8699989Y5710437D01*
X8701191Y5711084D01*
X8702300Y5711639D01*
X8703410Y5712101D01*
X8705536Y5712748D01*
X8706461Y5713025D01*
X8707385Y5713210D01*
X8708125Y5713303D01*
X8708864Y5713395D01*
X8709419Y5713488D01*
X8710159D01*
X8711916Y5713395D01*
X8713580Y5713118D01*
X8715059Y5712748D01*
X8716446Y5712286D01*
X8717463Y5711916D01*
X8718295Y5711546D01*
X8718850Y5711269D01*
X8719035Y5711176D01*
X8720514Y5710252D01*
X8721808Y5709235D01*
X8722918Y5708218D01*
X8723842Y5707293D01*
X8724490Y5706369D01*
X8725044Y5705721D01*
X8725414Y5705259D01*
X8725507Y5705074D01*
Y5705814D01*
Y5706276D01*
Y5706553D01*
Y5706646D01*
X8725414Y5708495D01*
X8725322Y5710252D01*
X8725137Y5711823D01*
X8724952Y5713303D01*
X8724674Y5714505D01*
X8724490Y5715429D01*
X8724397Y5715799D01*
Y5716076D01*
X8724305Y5716169D01*
Y5716261D01*
X8723842Y5717926D01*
X8723380Y5719405D01*
X8722918Y5720699D01*
X8722456Y5721809D01*
X8722086Y5722641D01*
X8721716Y5723288D01*
X8721531Y5723750D01*
X8721438Y5723843D01*
X8720699Y5724860D01*
X8719959Y5725692D01*
X8719220Y5726432D01*
X8718480Y5727079D01*
X8717925Y5727633D01*
X8717370Y5728003D01*
X8717001Y5728188D01*
X8716908Y5728281D01*
X8715891Y5728835D01*
X8714782Y5729205D01*
X8713765Y5729483D01*
X8712748Y5729667D01*
X8711916Y5729760D01*
X8711268Y5729852D01*
X8710621D01*
X8709142Y5729760D01*
X8707755Y5729483D01*
X8706553Y5729113D01*
X8705536Y5728650D01*
X8704796Y5728281D01*
X8704149Y5727911D01*
X8703779Y5727633D01*
X8703687Y5727541D01*
X8702762Y5726524D01*
X8702023Y5725322D01*
X8701376Y5724028D01*
X8700913Y5722733D01*
X8700543Y5721624D01*
X8700266Y5720607D01*
X8700174Y5720237D01*
Y5720052D01*
X8700081Y5719867D01*
Y5719775D01*
X8692500Y5720422D01*
X8693054Y5723103D01*
X8693794Y5725415D01*
X8694719Y5727449D01*
X8695643Y5729113D01*
X8696568Y5730407D01*
X8697030Y5730962D01*
X8697400Y5731424D01*
X8697677Y5731702D01*
X8697955Y5731979D01*
X8698047Y5732071D01*
X8698140Y5732164D01*
X8699064Y5732903D01*
X8700081Y5733551D01*
X8702115Y5734568D01*
X8704149Y5735307D01*
X8706091Y5735770D01*
X8707847Y5736139D01*
X8708587Y5736232D01*
X8709234D01*
X8709697Y5736324D01*
X8710436D01*
X8713025Y5736139D01*
D02*
G37*
G36*
X8655148Y5735122D02*
X8657089Y5735030D01*
X8658846Y5734845D01*
X8660325Y5734660D01*
X8661619Y5734475D01*
X8662544Y5734383D01*
X8662821Y5734290D01*
X8663099Y5734198D01*
X8663284D01*
X8664948Y5733736D01*
X8666427Y5733181D01*
X8667722Y5732719D01*
X8668831Y5732164D01*
X8669756Y5731702D01*
X8670403Y5731332D01*
X8670773Y5731054D01*
X8670958Y5730962D01*
X8672159Y5730130D01*
X8673176Y5729113D01*
X8674193Y5728188D01*
X8675026Y5727264D01*
X8675765Y5726432D01*
X8676320Y5725784D01*
X8676690Y5725322D01*
X8676782Y5725137D01*
X8677707Y5723658D01*
X8678631Y5722086D01*
X8679371Y5720607D01*
X8679926Y5719127D01*
X8680480Y5717833D01*
X8680850Y5716816D01*
X8680943Y5716446D01*
X8681035Y5716169D01*
X8681128Y5715984D01*
Y5715892D01*
X8681682Y5713673D01*
X8682145Y5711454D01*
X8682422Y5709327D01*
X8682699Y5707293D01*
X8682792Y5705536D01*
Y5704797D01*
X8682884Y5704150D01*
Y5703687D01*
Y5703225D01*
Y5703040D01*
Y5702948D01*
X8682792Y5699804D01*
X8682515Y5696938D01*
X8682052Y5694349D01*
X8681867Y5693147D01*
X8681590Y5692130D01*
X8681313Y5691113D01*
X8681128Y5690281D01*
X8680943Y5689542D01*
X8680665Y5688894D01*
X8680573Y5688340D01*
X8680388Y5687970D01*
X8680296Y5687785D01*
Y5687692D01*
X8679279Y5685289D01*
X8678077Y5683162D01*
X8676782Y5681313D01*
X8675580Y5679741D01*
X8674471Y5678447D01*
X8673546Y5677522D01*
X8673176Y5677245D01*
X8672899Y5676968D01*
X8672807Y5676875D01*
X8672714Y5676783D01*
X8671235Y5675581D01*
X8669663Y5674656D01*
X8668091Y5673824D01*
X8666612Y5673177D01*
X8665318Y5672715D01*
X8664301Y5672437D01*
X8663931Y5672252D01*
X8663653D01*
X8663469Y5672160D01*
X8663376D01*
X8661804Y5671882D01*
X8659955Y5671605D01*
X8658106Y5671420D01*
X8656257Y5671328D01*
X8654593Y5671235D01*
X8630000D01*
Y5735215D01*
X8653021D01*
X8655148Y5735122D01*
D02*
G37*
G36*
X5552505Y6581017D02*
X5553245Y6580925D01*
X5553984Y6580832D01*
X5555926Y6580462D01*
X5557960Y6579908D01*
X5560086Y6579075D01*
X5561196Y6578521D01*
X5562213Y6577874D01*
X5563137Y6577134D01*
X5564062Y6576302D01*
X5564154Y6576209D01*
X5564247Y6576117D01*
X5564432Y6575747D01*
X5564709Y6575377D01*
X5565079Y6574915D01*
X5565449Y6574268D01*
X5565819Y6573528D01*
X5566281Y6572696D01*
X5566651Y6571771D01*
X5567021Y6570662D01*
X5567390Y6569553D01*
X5567760Y6568258D01*
X5567945Y6566871D01*
X5568223Y6565300D01*
X5568315Y6563728D01*
Y6561971D01*
X5560641Y6560862D01*
Y6560954D01*
Y6561139D01*
Y6561509D01*
X5560549Y6562064D01*
X5560456Y6562618D01*
Y6563266D01*
X5560179Y6564837D01*
X5559902Y6566501D01*
X5559347Y6568166D01*
X5558792Y6569645D01*
X5558422Y6570292D01*
X5557960Y6570847D01*
X5557867Y6570939D01*
X5557498Y6571217D01*
X5556943Y6571679D01*
X5556203Y6572141D01*
X5555186Y6572696D01*
X5554077Y6573066D01*
X5552690Y6573436D01*
X5551211Y6573528D01*
X5550656D01*
X5550101Y6573436D01*
X5549269Y6573343D01*
X5548437Y6573158D01*
X5547512Y6572973D01*
X5546588Y6572604D01*
X5545663Y6572141D01*
X5545571Y6572049D01*
X5545293Y6571864D01*
X5544924Y6571494D01*
X5544369Y6571124D01*
X5543907Y6570477D01*
X5543352Y6569830D01*
X5542890Y6569090D01*
X5542520Y6568166D01*
Y6568073D01*
X5542335Y6567703D01*
X5542242Y6567056D01*
X5542057Y6566224D01*
X5541873Y6565115D01*
X5541780Y6563728D01*
X5541595Y6562064D01*
Y6560122D01*
Y6516020D01*
X5533089D01*
Y6559660D01*
Y6559752D01*
Y6560030D01*
Y6560399D01*
Y6560954D01*
X5533182Y6561694D01*
Y6562433D01*
X5533367Y6564190D01*
X5533552Y6566224D01*
X5533921Y6568351D01*
X5534476Y6570292D01*
X5535123Y6572141D01*
Y6572234D01*
X5535216Y6572326D01*
X5535493Y6572881D01*
X5535955Y6573621D01*
X5536603Y6574638D01*
X5537527Y6575655D01*
X5538544Y6576764D01*
X5539839Y6577874D01*
X5541318Y6578798D01*
X5541503Y6578891D01*
X5542057Y6579168D01*
X5542890Y6579538D01*
X5544092Y6579908D01*
X5545571Y6580370D01*
X5547235Y6580740D01*
X5549084Y6581017D01*
X5551118Y6581110D01*
X5551950D01*
X5552505Y6581017D01*
D02*
G37*
G36*
X5500730Y6529981D02*
X5500822Y6530074D01*
X5501284Y6530444D01*
X5501839Y6530998D01*
X5502764Y6531646D01*
X5503781Y6532478D01*
X5505075Y6533402D01*
X5506554Y6534419D01*
X5508219Y6535436D01*
X5508311D01*
X5508404Y6535529D01*
X5508958Y6535899D01*
X5509883Y6536361D01*
X5510992Y6536916D01*
X5512287Y6537563D01*
X5513674Y6538210D01*
X5515060Y6538857D01*
X5516447Y6539412D01*
Y6531830D01*
X5516355D01*
X5516170Y6531646D01*
X5515800Y6531553D01*
X5515338Y6531276D01*
X5514783Y6530998D01*
X5514136Y6530629D01*
X5512564Y6529704D01*
X5510715Y6528687D01*
X5508866Y6527393D01*
X5506924Y6525913D01*
X5504983Y6524342D01*
X5504890Y6524249D01*
X5504798Y6524157D01*
X5504520Y6523879D01*
X5504151Y6523602D01*
X5503318Y6522677D01*
X5502209Y6521568D01*
X5501099Y6520273D01*
X5499898Y6518794D01*
X5498881Y6517315D01*
X5497956Y6515743D01*
X5492871D01*
Y6580000D01*
X5500730D01*
Y6529981D01*
D02*
G37*
G36*
X8721805Y5143477D02*
X8730496D01*
Y5136265D01*
X8721805D01*
Y5094845D01*
X8715425D01*
X8686117Y5136265D01*
Y5143477D01*
X8713946D01*
Y5158824D01*
X8721805D01*
Y5143477D01*
D02*
G37*
G36*
X8652648Y5158732D02*
X8654589Y5158639D01*
X8656346Y5158455D01*
X8657825Y5158270D01*
X8659120Y5158085D01*
X8660044Y5157992D01*
X8660322Y5157900D01*
X8660599Y5157807D01*
X8660784D01*
X8662448Y5157345D01*
X8663927Y5156790D01*
X8665222Y5156328D01*
X8666331Y5155773D01*
X8667256Y5155311D01*
X8667903Y5154941D01*
X8668273Y5154664D01*
X8668458Y5154571D01*
X8669660Y5153739D01*
X8670677Y5152722D01*
X8671694Y5151798D01*
X8672526Y5150873D01*
X8673265Y5150041D01*
X8673820Y5149394D01*
X8674190Y5148932D01*
X8674282Y5148747D01*
X8675207Y5147267D01*
X8676131Y5145696D01*
X8676871Y5144216D01*
X8677426Y5142737D01*
X8677981Y5141443D01*
X8678350Y5140426D01*
X8678443Y5140056D01*
X8678535Y5139778D01*
X8678628Y5139593D01*
Y5139501D01*
X8679183Y5137282D01*
X8679645Y5135063D01*
X8679922Y5132937D01*
X8680200Y5130903D01*
X8680292Y5129146D01*
Y5128406D01*
X8680384Y5127759D01*
Y5127297D01*
Y5126835D01*
Y5126650D01*
Y5126557D01*
X8680292Y5123414D01*
X8680015Y5120548D01*
X8679552Y5117959D01*
X8679367Y5116757D01*
X8679090Y5115740D01*
X8678813Y5114723D01*
X8678628Y5113891D01*
X8678443Y5113151D01*
X8678166Y5112504D01*
X8678073Y5111949D01*
X8677888Y5111579D01*
X8677796Y5111394D01*
Y5111302D01*
X8676779Y5108898D01*
X8675577Y5106772D01*
X8674282Y5104922D01*
X8673080Y5103351D01*
X8671971Y5102056D01*
X8671046Y5101132D01*
X8670677Y5100854D01*
X8670399Y5100577D01*
X8670307Y5100485D01*
X8670214Y5100392D01*
X8668735Y5099190D01*
X8667163Y5098266D01*
X8665592Y5097434D01*
X8664112Y5096786D01*
X8662818Y5096324D01*
X8661801Y5096047D01*
X8661431Y5095862D01*
X8661154D01*
X8660969Y5095769D01*
X8660876D01*
X8659304Y5095492D01*
X8657455Y5095215D01*
X8655606Y5095030D01*
X8653757Y5094937D01*
X8652093Y5094845D01*
X8627500D01*
Y5158824D01*
X8650521D01*
X8652648Y5158732D01*
D02*
G37*
G36*
X8662648Y5440122D02*
X8664589Y5440030D01*
X8666346Y5439845D01*
X8667825Y5439660D01*
X8669120Y5439475D01*
X8670044Y5439383D01*
X8670322Y5439290D01*
X8670599Y5439198D01*
X8670784D01*
X8672448Y5438735D01*
X8673928Y5438181D01*
X8675222Y5437718D01*
X8676331Y5437164D01*
X8677256Y5436701D01*
X8677903Y5436332D01*
X8678273Y5436054D01*
X8678458Y5435962D01*
X8679660Y5435130D01*
X8680677Y5434113D01*
X8681694Y5433188D01*
X8682526Y5432263D01*
X8683266Y5431431D01*
X8683820Y5430784D01*
X8684190Y5430322D01*
X8684283Y5430137D01*
X8685207Y5428658D01*
X8686132Y5427086D01*
X8686871Y5425607D01*
X8687426Y5424127D01*
X8687981Y5422833D01*
X8688351Y5421816D01*
X8688443Y5421446D01*
X8688536Y5421169D01*
X8688628Y5420984D01*
Y5420891D01*
X8689183Y5418672D01*
X8689645Y5416453D01*
X8689922Y5414327D01*
X8690200Y5412293D01*
X8690292Y5410536D01*
Y5409797D01*
X8690385Y5409149D01*
Y5408687D01*
Y5408225D01*
Y5408040D01*
Y5407948D01*
X8690292Y5404804D01*
X8690015Y5401938D01*
X8689553Y5399349D01*
X8689368Y5398147D01*
X8689090Y5397130D01*
X8688813Y5396113D01*
X8688628Y5395281D01*
X8688443Y5394541D01*
X8688166Y5393894D01*
X8688073Y5393339D01*
X8687888Y5392970D01*
X8687796Y5392785D01*
Y5392692D01*
X8686779Y5390288D01*
X8685577Y5388162D01*
X8684283Y5386313D01*
X8683081Y5384741D01*
X8681971Y5383447D01*
X8681047Y5382522D01*
X8680677Y5382245D01*
X8680399Y5381967D01*
X8680307Y5381875D01*
X8680215Y5381782D01*
X8678735Y5380581D01*
X8677163Y5379656D01*
X8675592Y5378824D01*
X8674112Y5378177D01*
X8672818Y5377714D01*
X8671801Y5377437D01*
X8671431Y5377252D01*
X8671154D01*
X8670969Y5377160D01*
X8670876D01*
X8669305Y5376882D01*
X8667456Y5376605D01*
X8665606Y5376420D01*
X8663757Y5376328D01*
X8662093Y5376235D01*
X8637500D01*
Y5440215D01*
X8660521D01*
X8662648Y5440122D01*
D02*
G37*
G36*
X8721542Y5441232D02*
X8723114Y5441047D01*
X8724686Y5440769D01*
X8726165Y5440492D01*
X8727460Y5440030D01*
X8728754Y5439567D01*
X8729956Y5439105D01*
X8730973Y5438550D01*
X8731897Y5437996D01*
X8732730Y5437533D01*
X8733377Y5437071D01*
X8734024Y5436609D01*
X8734486Y5436332D01*
X8734764Y5436054D01*
X8734948Y5435869D01*
X8735041Y5435777D01*
X8736058Y5434667D01*
X8736983Y5433558D01*
X8737722Y5432448D01*
X8738369Y5431246D01*
X8739017Y5430137D01*
X8739479Y5428935D01*
X8740126Y5426809D01*
X8740403Y5425792D01*
X8740588Y5424867D01*
X8740681Y5424035D01*
X8740773Y5423388D01*
X8740866Y5422833D01*
Y5422371D01*
Y5422093D01*
Y5422001D01*
X8740773Y5419874D01*
X8740403Y5417933D01*
X8739849Y5416176D01*
X8739294Y5414697D01*
X8738739Y5413495D01*
X8738184Y5412570D01*
X8737815Y5412016D01*
X8737722Y5411923D01*
Y5411831D01*
X8736428Y5410351D01*
X8735041Y5409057D01*
X8733562Y5408040D01*
X8732175Y5407115D01*
X8730880Y5406468D01*
X8729771Y5406006D01*
X8729401Y5405821D01*
X8729124Y5405729D01*
X8728939Y5405636D01*
X8728846D01*
X8730511Y5404896D01*
X8731897Y5404064D01*
X8733099Y5403232D01*
X8734116Y5402400D01*
X8734856Y5401661D01*
X8735411Y5401106D01*
X8735781Y5400736D01*
X8735873Y5400551D01*
X8736705Y5399257D01*
X8737260Y5397962D01*
X8737722Y5396668D01*
X8738000Y5395374D01*
X8738184Y5394356D01*
X8738277Y5393524D01*
Y5392970D01*
Y5392877D01*
Y5392785D01*
X8738184Y5391490D01*
X8738092Y5390288D01*
X8737445Y5387977D01*
X8736613Y5385943D01*
X8735688Y5384186D01*
X8734764Y5382799D01*
X8734301Y5382245D01*
X8733931Y5381690D01*
X8733562Y5381320D01*
X8733284Y5381043D01*
X8733192Y5380950D01*
X8733099Y5380858D01*
X8732082Y5380026D01*
X8731065Y5379194D01*
X8729956Y5378547D01*
X8728846Y5377992D01*
X8726627Y5377160D01*
X8724409Y5376605D01*
X8723484Y5376328D01*
X8722559Y5376235D01*
X8721727Y5376143D01*
X8720988Y5376050D01*
X8720433Y5375958D01*
X8719601D01*
X8718122Y5376050D01*
X8716642Y5376143D01*
X8714053Y5376697D01*
X8712852Y5377067D01*
X8711742Y5377437D01*
X8710725Y5377899D01*
X8709800Y5378362D01*
X8709061Y5378824D01*
X8708321Y5379286D01*
X8707674Y5379656D01*
X8707212Y5380026D01*
X8706842Y5380303D01*
X8706565Y5380581D01*
X8706380Y5380673D01*
X8706287Y5380765D01*
X8705455Y5381690D01*
X8704623Y5382615D01*
X8703976Y5383632D01*
X8703421Y5384649D01*
X8702496Y5386590D01*
X8701942Y5388439D01*
X8701572Y5390011D01*
X8701479Y5390751D01*
X8701387Y5391305D01*
X8701295Y5391860D01*
Y5392230D01*
Y5392415D01*
Y5392507D01*
X8701387Y5394172D01*
X8701664Y5395743D01*
X8702034Y5397130D01*
X8702496Y5398332D01*
X8702866Y5399257D01*
X8703236Y5399996D01*
X8703513Y5400366D01*
X8703606Y5400551D01*
X8704623Y5401661D01*
X8705732Y5402678D01*
X8706934Y5403602D01*
X8708136Y5404342D01*
X8709246Y5404896D01*
X8710078Y5405266D01*
X8710448Y5405451D01*
X8710725Y5405544D01*
X8710817Y5405636D01*
X8710910D01*
X8708783Y5406283D01*
X8707027Y5407115D01*
X8705455Y5408132D01*
X8704161Y5409057D01*
X8703144Y5409982D01*
X8702404Y5410721D01*
X8702034Y5411183D01*
X8701849Y5411276D01*
Y5411368D01*
X8700832Y5413033D01*
X8700000Y5414789D01*
X8699445Y5416453D01*
X8699076Y5418118D01*
X8698891Y5419597D01*
X8698798Y5420244D01*
Y5420799D01*
X8698706Y5421169D01*
Y5421539D01*
Y5421723D01*
Y5421816D01*
X8698798Y5423295D01*
X8698983Y5424775D01*
X8699260Y5426161D01*
X8699630Y5427548D01*
X8700555Y5429860D01*
X8701017Y5430969D01*
X8701572Y5431894D01*
X8702127Y5432818D01*
X8702589Y5433558D01*
X8703144Y5434205D01*
X8703513Y5434760D01*
X8703883Y5435222D01*
X8704161Y5435499D01*
X8704346Y5435684D01*
X8704438Y5435777D01*
X8705547Y5436794D01*
X8706749Y5437626D01*
X8708044Y5438366D01*
X8709338Y5439013D01*
X8710540Y5439475D01*
X8711834Y5439937D01*
X8714331Y5440584D01*
X8715440Y5440862D01*
X8716457Y5441047D01*
X8717382Y5441139D01*
X8718214Y5441232D01*
X8718861Y5441324D01*
X8719786D01*
X8721542Y5441232D01*
D02*
G37*
G36*
X8713395Y4836231D02*
X8714967Y4836046D01*
X8716538Y4835769D01*
X8718018Y4835399D01*
X8719404Y4834937D01*
X8720606Y4834475D01*
X8721808Y4833920D01*
X8722825Y4833365D01*
X8723842Y4832903D01*
X8724674Y4832348D01*
X8725414Y4831886D01*
X8725969Y4831424D01*
X8726431Y4831054D01*
X8726801Y4830776D01*
X8726986Y4830592D01*
X8727078Y4830499D01*
X8728188Y4829390D01*
X8729112Y4828188D01*
X8729944Y4826986D01*
X8730684Y4825784D01*
X8731239Y4824674D01*
X8731794Y4823472D01*
X8732533Y4821254D01*
X8732718Y4820236D01*
X8732903Y4819312D01*
X8733088Y4818480D01*
X8733180Y4817740D01*
X8733273Y4817185D01*
Y4816723D01*
Y4816446D01*
Y4816353D01*
X8733180Y4814134D01*
X8732811Y4812100D01*
X8732256Y4810344D01*
X8731701Y4808864D01*
X8731146Y4807662D01*
X8730592Y4806738D01*
X8730222Y4806183D01*
X8730129Y4805998D01*
X8728835Y4804611D01*
X8727448Y4803409D01*
X8725969Y4802485D01*
X8724490Y4801745D01*
X8723195Y4801191D01*
X8722178Y4800821D01*
X8721808Y4800728D01*
X8721531Y4800636D01*
X8721346Y4800543D01*
X8721254D01*
X8722825Y4799711D01*
X8724120Y4798879D01*
X8725229Y4797955D01*
X8726154Y4797122D01*
X8726893Y4796383D01*
X8727448Y4795736D01*
X8727725Y4795366D01*
X8727818Y4795181D01*
X8728558Y4793887D01*
X8729112Y4792592D01*
X8729575Y4791298D01*
X8729852Y4790096D01*
X8730037Y4789079D01*
X8730129Y4788339D01*
Y4787784D01*
Y4787600D01*
X8730037Y4786028D01*
X8729760Y4784456D01*
X8729390Y4783069D01*
X8728927Y4781867D01*
X8728465Y4780850D01*
X8728095Y4780018D01*
X8727818Y4779556D01*
X8727725Y4779371D01*
X8726801Y4777984D01*
X8725691Y4776782D01*
X8724582Y4775765D01*
X8723473Y4774841D01*
X8722548Y4774193D01*
X8721716Y4773639D01*
X8721161Y4773361D01*
X8721069Y4773269D01*
X8720976D01*
X8719312Y4772529D01*
X8717648Y4771974D01*
X8715984Y4771512D01*
X8714504Y4771235D01*
X8713302Y4771050D01*
X8712285Y4770957D01*
X8709974D01*
X8708680Y4771142D01*
X8706183Y4771605D01*
X8704057Y4772344D01*
X8702208Y4773084D01*
X8701376Y4773546D01*
X8700728Y4773916D01*
X8700081Y4774286D01*
X8699619Y4774656D01*
X8699249Y4774933D01*
X8698972Y4775118D01*
X8698787Y4775210D01*
X8698694Y4775303D01*
X8696938Y4777060D01*
X8695551Y4779001D01*
X8694441Y4781035D01*
X8693517Y4783069D01*
X8692962Y4784826D01*
X8692685Y4785565D01*
X8692500Y4786213D01*
X8692407Y4786767D01*
X8692315Y4787137D01*
X8692222Y4787415D01*
Y4787507D01*
X8700081Y4788894D01*
X8700451Y4786860D01*
X8701006Y4785103D01*
X8701653Y4783624D01*
X8702300Y4782422D01*
X8702947Y4781497D01*
X8703502Y4780850D01*
X8703872Y4780388D01*
X8703964Y4780295D01*
X8705166Y4779371D01*
X8706461Y4778631D01*
X8707663Y4778169D01*
X8708864Y4777799D01*
X8709974Y4777614D01*
X8710806Y4777429D01*
X8711546D01*
X8713210Y4777522D01*
X8714689Y4777892D01*
X8715984Y4778354D01*
X8717093Y4778816D01*
X8717925Y4779371D01*
X8718572Y4779833D01*
X8719035Y4780203D01*
X8719127Y4780295D01*
X8720144Y4781405D01*
X8720884Y4782607D01*
X8721346Y4783809D01*
X8721716Y4784918D01*
X8721901Y4785935D01*
X8722086Y4786675D01*
Y4787230D01*
Y4787322D01*
Y4787415D01*
Y4788432D01*
X8721901Y4789356D01*
X8721438Y4790928D01*
X8720791Y4792315D01*
X8720052Y4793517D01*
X8719312Y4794349D01*
X8718665Y4794996D01*
X8718203Y4795366D01*
X8718110Y4795458D01*
X8718018D01*
X8716446Y4796290D01*
X8714967Y4796938D01*
X8713395Y4797400D01*
X8712008Y4797677D01*
X8710806Y4797862D01*
X8709789Y4798047D01*
X8708587D01*
X8708217Y4797955D01*
X8707755D01*
X8706830Y4804889D01*
X8708032Y4804611D01*
X8709142Y4804427D01*
X8710066Y4804242D01*
X8710899Y4804149D01*
X8711546Y4804057D01*
X8712378D01*
X8714319Y4804242D01*
X8716076Y4804611D01*
X8717648Y4805166D01*
X8718942Y4805813D01*
X8719959Y4806461D01*
X8720699Y4807015D01*
X8721161Y4807385D01*
X8721346Y4807570D01*
X8722548Y4808957D01*
X8723473Y4810436D01*
X8724120Y4811915D01*
X8724490Y4813395D01*
X8724767Y4814597D01*
X8724859Y4815614D01*
X8724952Y4815984D01*
Y4816261D01*
Y4816446D01*
Y4816538D01*
X8724767Y4818572D01*
X8724305Y4820421D01*
X8723750Y4821993D01*
X8723010Y4823380D01*
X8722271Y4824489D01*
X8721716Y4825322D01*
X8721254Y4825876D01*
X8721069Y4826061D01*
X8719589Y4827356D01*
X8718018Y4828280D01*
X8716446Y4828927D01*
X8714967Y4829390D01*
X8713672Y4829667D01*
X8712655Y4829759D01*
X8712285Y4829852D01*
X8711731D01*
X8710066Y4829759D01*
X8708495Y4829390D01*
X8707108Y4828927D01*
X8705998Y4828373D01*
X8705074Y4827910D01*
X8704334Y4827448D01*
X8703964Y4827078D01*
X8703779Y4826986D01*
X8702670Y4825691D01*
X8701745Y4824212D01*
X8700913Y4822640D01*
X8700266Y4820976D01*
X8699804Y4819589D01*
X8699619Y4818942D01*
X8699526Y4818387D01*
X8699434Y4817925D01*
X8699342Y4817555D01*
X8699249Y4817370D01*
Y4817278D01*
X8691390Y4818295D01*
X8691575Y4819774D01*
X8691853Y4821161D01*
X8692685Y4823750D01*
X8693702Y4825969D01*
X8694256Y4826893D01*
X8694811Y4827818D01*
X8695366Y4828650D01*
X8695921Y4829297D01*
X8696383Y4829944D01*
X8696845Y4830407D01*
X8697123Y4830776D01*
X8697400Y4831054D01*
X8697585Y4831239D01*
X8697677Y4831331D01*
X8698787Y4832163D01*
X8699896Y4832995D01*
X8701006Y4833643D01*
X8702208Y4834197D01*
X8704519Y4835122D01*
X8706738Y4835677D01*
X8707755Y4835862D01*
X8708680Y4836046D01*
X8709512Y4836139D01*
X8710251Y4836231D01*
X8710806Y4836324D01*
X8711638D01*
X8713395Y4836231D01*
D02*
G37*
G36*
X8655148Y4835122D02*
X8657089Y4835029D01*
X8658846Y4834845D01*
X8660325Y4834660D01*
X8661619Y4834475D01*
X8662544Y4834382D01*
X8662821Y4834290D01*
X8663099Y4834197D01*
X8663284D01*
X8664948Y4833735D01*
X8666427Y4833180D01*
X8667722Y4832718D01*
X8668831Y4832163D01*
X8669756Y4831701D01*
X8670403Y4831331D01*
X8670773Y4831054D01*
X8670958Y4830961D01*
X8672159Y4830129D01*
X8673176Y4829112D01*
X8674193Y4828188D01*
X8675026Y4827263D01*
X8675765Y4826431D01*
X8676320Y4825784D01*
X8676690Y4825322D01*
X8676782Y4825137D01*
X8677707Y4823657D01*
X8678631Y4822086D01*
X8679371Y4820606D01*
X8679926Y4819127D01*
X8680480Y4817833D01*
X8680850Y4816816D01*
X8680943Y4816446D01*
X8681035Y4816168D01*
X8681128Y4815984D01*
Y4815891D01*
X8681682Y4813672D01*
X8682145Y4811453D01*
X8682422Y4809327D01*
X8682699Y4807293D01*
X8682792Y4805536D01*
Y4804796D01*
X8682884Y4804149D01*
Y4803687D01*
Y4803225D01*
Y4803040D01*
Y4802947D01*
X8682792Y4799804D01*
X8682515Y4796938D01*
X8682052Y4794349D01*
X8681867Y4793147D01*
X8681590Y4792130D01*
X8681313Y4791113D01*
X8681128Y4790281D01*
X8680943Y4789541D01*
X8680665Y4788894D01*
X8680573Y4788339D01*
X8680388Y4787969D01*
X8680296Y4787784D01*
Y4787692D01*
X8679279Y4785288D01*
X8678077Y4783162D01*
X8676782Y4781313D01*
X8675580Y4779741D01*
X8674471Y4778446D01*
X8673546Y4777522D01*
X8673176Y4777244D01*
X8672899Y4776967D01*
X8672807Y4776875D01*
X8672714Y4776782D01*
X8671235Y4775580D01*
X8669663Y4774656D01*
X8668091Y4773824D01*
X8666612Y4773176D01*
X8665318Y4772714D01*
X8664301Y4772437D01*
X8663931Y4772252D01*
X8663653D01*
X8663469Y4772159D01*
X8663376D01*
X8661804Y4771882D01*
X8659955Y4771605D01*
X8658106Y4771420D01*
X8656257Y4771327D01*
X8654593Y4771235D01*
X8630000D01*
Y4835214D01*
X8653021D01*
X8655148Y4835122D01*
D02*
G37*
G36*
X8709142Y4532811D02*
X8709604Y4529575D01*
X8710066Y4526616D01*
X8710344Y4525229D01*
X8710621Y4523935D01*
X8710806Y4522825D01*
X8711083Y4521808D01*
X8711268Y4520884D01*
X8711453Y4520144D01*
X8711638Y4519589D01*
X8711731Y4519127D01*
X8711823Y4518850D01*
Y4518757D01*
X8713210Y4514504D01*
X8714689Y4510529D01*
X8715429Y4508587D01*
X8716168Y4506738D01*
X8717001Y4505074D01*
X8717740Y4503410D01*
X8718387Y4501930D01*
X8719035Y4500636D01*
X8719589Y4499526D01*
X8720052Y4498509D01*
X8720514Y4497677D01*
X8720791Y4497123D01*
X8720976Y4496753D01*
X8721069Y4496660D01*
X8722178Y4494719D01*
X8723288Y4492777D01*
X8724397Y4491020D01*
X8725507Y4489356D01*
X8726524Y4487877D01*
X8727541Y4486398D01*
X8728558Y4485103D01*
X8729390Y4483994D01*
X8730222Y4482884D01*
X8730961Y4481960D01*
X8731701Y4481220D01*
X8732256Y4480573D01*
X8732626Y4480018D01*
X8732995Y4479648D01*
X8733180Y4479463D01*
X8733273Y4479371D01*
Y4473176D01*
X8691853D01*
Y4480758D01*
X8723195D01*
X8720976Y4483439D01*
X8718850Y4486305D01*
X8717001Y4489079D01*
X8715244Y4491760D01*
X8714504Y4492962D01*
X8713857Y4494072D01*
X8713210Y4495089D01*
X8712748Y4495921D01*
X8712378Y4496660D01*
X8712100Y4497123D01*
X8711916Y4497492D01*
X8711823Y4497585D01*
X8709974Y4501283D01*
X8708310Y4504981D01*
X8706923Y4508495D01*
X8706368Y4510066D01*
X8705813Y4511638D01*
X8705259Y4513025D01*
X8704889Y4514319D01*
X8704519Y4515429D01*
X8704242Y4516353D01*
X8703964Y4517186D01*
X8703779Y4517740D01*
X8703687Y4518110D01*
Y4518203D01*
X8702762Y4521993D01*
X8702393Y4523842D01*
X8702115Y4525507D01*
X8701838Y4527078D01*
X8701560Y4528650D01*
X8701376Y4529944D01*
X8701191Y4531239D01*
X8701098Y4532348D01*
X8701006Y4533365D01*
X8700913Y4534290D01*
Y4535030D01*
X8700821Y4535584D01*
Y4535954D01*
Y4536231D01*
Y4536324D01*
X8708864D01*
X8709142Y4532811D01*
D02*
G37*
G36*
X8655148Y4536231D02*
X8657089Y4536139D01*
X8658846Y4535954D01*
X8660325Y4535769D01*
X8661619Y4535584D01*
X8662544Y4535492D01*
X8662821Y4535399D01*
X8663099Y4535307D01*
X8663284D01*
X8664948Y4534845D01*
X8666427Y4534290D01*
X8667722Y4533828D01*
X8668831Y4533273D01*
X8669756Y4532811D01*
X8670403Y4532441D01*
X8670773Y4532163D01*
X8670958Y4532071D01*
X8672159Y4531239D01*
X8673176Y4530222D01*
X8674193Y4529297D01*
X8675026Y4528373D01*
X8675765Y4527541D01*
X8676320Y4526893D01*
X8676690Y4526431D01*
X8676782Y4526246D01*
X8677707Y4524767D01*
X8678631Y4523195D01*
X8679371Y4521716D01*
X8679926Y4520237D01*
X8680480Y4518942D01*
X8680850Y4517925D01*
X8680943Y4517555D01*
X8681035Y4517278D01*
X8681128Y4517093D01*
Y4517001D01*
X8681682Y4514782D01*
X8682145Y4512563D01*
X8682422Y4510436D01*
X8682699Y4508402D01*
X8682792Y4506646D01*
Y4505906D01*
X8682884Y4505259D01*
Y4504796D01*
Y4504334D01*
Y4504149D01*
Y4504057D01*
X8682792Y4500913D01*
X8682515Y4498047D01*
X8682052Y4495458D01*
X8681867Y4494256D01*
X8681590Y4493239D01*
X8681313Y4492222D01*
X8681128Y4491390D01*
X8680943Y4490651D01*
X8680665Y4490003D01*
X8680573Y4489449D01*
X8680388Y4489079D01*
X8680296Y4488894D01*
Y4488802D01*
X8679279Y4486398D01*
X8678077Y4484271D01*
X8676782Y4482422D01*
X8675580Y4480850D01*
X8674471Y4479556D01*
X8673546Y4478631D01*
X8673176Y4478354D01*
X8672899Y4478077D01*
X8672807Y4477984D01*
X8672714Y4477892D01*
X8671235Y4476690D01*
X8669663Y4475765D01*
X8668091Y4474933D01*
X8666612Y4474286D01*
X8665318Y4473824D01*
X8664301Y4473546D01*
X8663931Y4473361D01*
X8663653D01*
X8663469Y4473269D01*
X8663376D01*
X8661804Y4472992D01*
X8659955Y4472714D01*
X8658106Y4472529D01*
X8656257Y4472437D01*
X8654593Y4472344D01*
X8630000D01*
Y4536324D01*
X8653021D01*
X8655148Y4536231D01*
D02*
G37*
G36*
X8715244Y4236232D02*
X8717186Y4235862D01*
X8718942Y4235492D01*
X8720514Y4234937D01*
X8721716Y4234475D01*
X8722640Y4234013D01*
X8723010Y4233920D01*
X8723288Y4233736D01*
X8723380Y4233643D01*
X8723473D01*
X8725044Y4232534D01*
X8726524Y4231239D01*
X8727725Y4229945D01*
X8728743Y4228650D01*
X8729575Y4227448D01*
X8730129Y4226524D01*
X8730314Y4226154D01*
X8730499Y4225877D01*
X8730592Y4225784D01*
Y4225692D01*
X8731516Y4223750D01*
X8732163Y4221716D01*
X8732626Y4219867D01*
X8732903Y4218110D01*
X8733180Y4216631D01*
Y4216076D01*
X8733273Y4215522D01*
Y4215059D01*
Y4214782D01*
Y4214597D01*
Y4214505D01*
X8733180Y4212840D01*
X8732995Y4211269D01*
X8732718Y4209697D01*
X8732441Y4208310D01*
X8731978Y4207016D01*
X8731516Y4205721D01*
X8731054Y4204612D01*
X8730499Y4203595D01*
X8729944Y4202670D01*
X8729482Y4201838D01*
X8729020Y4201191D01*
X8728558Y4200544D01*
X8728280Y4200082D01*
X8728003Y4199804D01*
X8727818Y4199619D01*
X8727725Y4199527D01*
X8726708Y4198510D01*
X8725599Y4197585D01*
X8724397Y4196846D01*
X8723288Y4196198D01*
X8722178Y4195551D01*
X8721069Y4195089D01*
X8718942Y4194442D01*
X8718018Y4194164D01*
X8717093Y4193979D01*
X8716353Y4193887D01*
X8715614Y4193795D01*
X8715059Y4193702D01*
X8714319D01*
X8712655Y4193795D01*
X8711083Y4194072D01*
X8709604Y4194349D01*
X8708310Y4194719D01*
X8707200Y4195181D01*
X8706368Y4195459D01*
X8705813Y4195736D01*
X8705721Y4195829D01*
X8705629D01*
X8704149Y4196753D01*
X8702855Y4197770D01*
X8701653Y4198787D01*
X8700728Y4199897D01*
X8699896Y4200821D01*
X8699249Y4201561D01*
X8698879Y4202116D01*
X8698787Y4202208D01*
Y4200544D01*
X8698879Y4198880D01*
X8698972Y4197400D01*
X8699157Y4195921D01*
X8699249Y4194627D01*
X8699434Y4193425D01*
X8699619Y4192315D01*
X8699896Y4191298D01*
X8700081Y4190374D01*
X8700266Y4189634D01*
X8700451Y4188987D01*
X8700543Y4188432D01*
X8700728Y4188062D01*
X8700821Y4187785D01*
X8700913Y4187600D01*
Y4187508D01*
X8701838Y4185658D01*
X8702762Y4183994D01*
X8703779Y4182700D01*
X8704704Y4181590D01*
X8705536Y4180666D01*
X8706183Y4180019D01*
X8706646Y4179649D01*
X8706830Y4179556D01*
X8707940Y4178817D01*
X8709049Y4178354D01*
X8710159Y4177985D01*
X8711268Y4177707D01*
X8712100Y4177522D01*
X8712840Y4177430D01*
X8713487D01*
X8715151Y4177615D01*
X8716723Y4177985D01*
X8718018Y4178539D01*
X8719220Y4179094D01*
X8720144Y4179741D01*
X8720791Y4180296D01*
X8721161Y4180666D01*
X8721346Y4180851D01*
X8721993Y4181683D01*
X8722640Y4182700D01*
X8723195Y4183809D01*
X8723565Y4184919D01*
X8723935Y4185936D01*
X8724212Y4186768D01*
X8724305Y4187323D01*
X8724397Y4187415D01*
Y4187508D01*
X8732256Y4186860D01*
X8731701Y4184272D01*
X8730869Y4181960D01*
X8729944Y4179926D01*
X8728927Y4178262D01*
X8727910Y4176968D01*
X8727541Y4176413D01*
X8727078Y4175950D01*
X8726801Y4175673D01*
X8726524Y4175396D01*
X8726431Y4175303D01*
X8726339Y4175211D01*
X8725414Y4174471D01*
X8724397Y4173824D01*
X8722363Y4172715D01*
X8720329Y4171975D01*
X8718387Y4171513D01*
X8716631Y4171143D01*
X8715891Y4171050D01*
X8715244D01*
X8714689Y4170958D01*
X8713950D01*
X8712100Y4171050D01*
X8710344Y4171235D01*
X8708680Y4171605D01*
X8707108Y4172067D01*
X8705721Y4172715D01*
X8704334Y4173269D01*
X8703132Y4174009D01*
X8702023Y4174656D01*
X8701098Y4175303D01*
X8700174Y4176043D01*
X8699434Y4176598D01*
X8698879Y4177152D01*
X8698417Y4177707D01*
X8698047Y4178077D01*
X8697862Y4178262D01*
X8697770Y4178354D01*
X8696568Y4180019D01*
X8695551Y4181960D01*
X8694626Y4183994D01*
X8693794Y4186121D01*
X8693147Y4188340D01*
X8692592Y4190559D01*
X8692130Y4192870D01*
X8691760Y4194996D01*
X8691483Y4197123D01*
X8691298Y4199065D01*
X8691113Y4200821D01*
X8691020Y4202300D01*
Y4203595D01*
X8690928Y4204519D01*
Y4204889D01*
Y4205167D01*
Y4205259D01*
Y4205352D01*
X8691020Y4208310D01*
X8691205Y4211084D01*
X8691483Y4213673D01*
X8691945Y4216076D01*
X8692407Y4218203D01*
X8692870Y4220144D01*
X8693424Y4221901D01*
X8694072Y4223473D01*
X8694626Y4224767D01*
X8695181Y4225969D01*
X8695643Y4226894D01*
X8696198Y4227726D01*
X8696568Y4228373D01*
X8696845Y4228743D01*
X8697030Y4229020D01*
X8697123Y4229113D01*
X8698324Y4230407D01*
X8699619Y4231517D01*
X8700913Y4232441D01*
X8702208Y4233273D01*
X8703594Y4234013D01*
X8704889Y4234568D01*
X8706183Y4235030D01*
X8707478Y4235400D01*
X8708587Y4235677D01*
X8709697Y4235954D01*
X8710621Y4236139D01*
X8711453Y4236232D01*
X8712193D01*
X8712655Y4236324D01*
X8713117D01*
X8715244Y4236232D01*
D02*
G37*
G36*
X8655148Y4235122D02*
X8657089Y4235030D01*
X8658846Y4234845D01*
X8660325Y4234660D01*
X8661619Y4234475D01*
X8662544Y4234383D01*
X8662821Y4234290D01*
X8663099Y4234198D01*
X8663284D01*
X8664948Y4233736D01*
X8666427Y4233181D01*
X8667722Y4232718D01*
X8668831Y4232164D01*
X8669756Y4231701D01*
X8670403Y4231332D01*
X8670773Y4231054D01*
X8670958Y4230962D01*
X8672159Y4230130D01*
X8673176Y4229113D01*
X8674193Y4228188D01*
X8675026Y4227264D01*
X8675765Y4226431D01*
X8676320Y4225784D01*
X8676690Y4225322D01*
X8676782Y4225137D01*
X8677707Y4223658D01*
X8678631Y4222086D01*
X8679371Y4220607D01*
X8679926Y4219127D01*
X8680480Y4217833D01*
X8680850Y4216816D01*
X8680943Y4216446D01*
X8681035Y4216169D01*
X8681128Y4215984D01*
Y4215891D01*
X8681682Y4213673D01*
X8682145Y4211454D01*
X8682422Y4209327D01*
X8682699Y4207293D01*
X8682792Y4205536D01*
Y4204797D01*
X8682884Y4204150D01*
Y4203687D01*
Y4203225D01*
Y4203040D01*
Y4202948D01*
X8682792Y4199804D01*
X8682515Y4196938D01*
X8682052Y4194349D01*
X8681867Y4193147D01*
X8681590Y4192130D01*
X8681313Y4191113D01*
X8681128Y4190281D01*
X8680943Y4189542D01*
X8680665Y4188894D01*
X8680573Y4188340D01*
X8680388Y4187970D01*
X8680296Y4187785D01*
Y4187692D01*
X8679279Y4185289D01*
X8678077Y4183162D01*
X8676782Y4181313D01*
X8675580Y4179741D01*
X8674471Y4178447D01*
X8673546Y4177522D01*
X8673176Y4177245D01*
X8672899Y4176968D01*
X8672807Y4176875D01*
X8672714Y4176783D01*
X8671235Y4175581D01*
X8669663Y4174656D01*
X8668091Y4173824D01*
X8666612Y4173177D01*
X8665318Y4172715D01*
X8664301Y4172437D01*
X8663931Y4172252D01*
X8663653D01*
X8663469Y4172160D01*
X8663376D01*
X8661804Y4171882D01*
X8659955Y4171605D01*
X8658106Y4171420D01*
X8656257Y4171328D01*
X8654593Y4171235D01*
X8630000D01*
Y4235215D01*
X8653021D01*
X8655148Y4235122D01*
D02*
G37*
G36*
X8713765Y3936232D02*
X8715614Y3935955D01*
X8717370Y3935585D01*
X8718942Y3935122D01*
X8720421Y3934475D01*
X8721808Y3933828D01*
X8723103Y3933181D01*
X8724212Y3932441D01*
X8725229Y3931702D01*
X8726154Y3931054D01*
X8726893Y3930315D01*
X8727541Y3929760D01*
X8728003Y3929298D01*
X8728373Y3928928D01*
X8728558Y3928651D01*
X8728650Y3928558D01*
X8729575Y3927356D01*
X8730314Y3926062D01*
X8731054Y3924860D01*
X8731609Y3923565D01*
X8732533Y3921069D01*
X8733088Y3918665D01*
X8733273Y3917648D01*
X8733458Y3916631D01*
X8733550Y3915799D01*
X8733643Y3915059D01*
X8733735Y3914412D01*
Y3913950D01*
Y3913673D01*
Y3913580D01*
X8733643Y3911916D01*
X8733458Y3910344D01*
X8733180Y3908772D01*
X8732811Y3907386D01*
X8732348Y3906091D01*
X8731886Y3904797D01*
X8731331Y3903687D01*
X8730869Y3902670D01*
X8730314Y3901746D01*
X8729760Y3900914D01*
X8729297Y3900267D01*
X8728835Y3899619D01*
X8728465Y3899157D01*
X8728188Y3898880D01*
X8728003Y3898695D01*
X8727910Y3898602D01*
X8726801Y3897585D01*
X8725691Y3896661D01*
X8724490Y3895921D01*
X8723288Y3895274D01*
X8722086Y3894627D01*
X8720884Y3894164D01*
X8718665Y3893517D01*
X8717648Y3893240D01*
X8716723Y3893055D01*
X8715891Y3892962D01*
X8715151Y3892870D01*
X8714597Y3892778D01*
X8712563D01*
X8711453Y3892962D01*
X8709234Y3893425D01*
X8707200Y3894072D01*
X8705351Y3894812D01*
X8703872Y3895551D01*
X8703225Y3895921D01*
X8702670Y3896198D01*
X8702208Y3896476D01*
X8701930Y3896661D01*
X8701745Y3896753D01*
X8701653Y3896846D01*
X8705074Y3879556D01*
X8730684D01*
Y3872067D01*
X8698879D01*
X8692685Y3904982D01*
X8700081Y3905999D01*
X8700728Y3904982D01*
X8701560Y3904150D01*
X8702300Y3903318D01*
X8703040Y3902670D01*
X8703779Y3902208D01*
X8704334Y3901746D01*
X8704704Y3901561D01*
X8704796Y3901468D01*
X8705998Y3900914D01*
X8707200Y3900451D01*
X8708310Y3900174D01*
X8709419Y3899897D01*
X8710344Y3899804D01*
X8711083Y3899712D01*
X8712840D01*
X8713950Y3899897D01*
X8715891Y3900359D01*
X8717555Y3901006D01*
X8719035Y3901653D01*
X8720144Y3902393D01*
X8720976Y3903040D01*
X8721438Y3903502D01*
X8721623Y3903595D01*
Y3903687D01*
X8722918Y3905259D01*
X8723842Y3906923D01*
X8724490Y3908680D01*
X8724952Y3910437D01*
X8725229Y3911916D01*
X8725322Y3912563D01*
Y3913118D01*
X8725414Y3913580D01*
Y3913950D01*
Y3914135D01*
Y3914227D01*
Y3915522D01*
X8725229Y3916724D01*
X8724767Y3919035D01*
X8724120Y3920977D01*
X8723473Y3922548D01*
X8722733Y3923843D01*
X8722086Y3924860D01*
X8721808Y3925137D01*
X8721623Y3925415D01*
X8721531Y3925507D01*
X8721438Y3925599D01*
X8720699Y3926339D01*
X8719959Y3926986D01*
X8718295Y3928096D01*
X8716723Y3928835D01*
X8715151Y3929298D01*
X8713857Y3929668D01*
X8712748Y3929760D01*
X8712378Y3929852D01*
X8711823D01*
X8710066Y3929760D01*
X8708495Y3929390D01*
X8707108Y3928928D01*
X8705998Y3928373D01*
X8704981Y3927818D01*
X8704242Y3927356D01*
X8703872Y3926986D01*
X8703687Y3926894D01*
X8702577Y3925599D01*
X8701653Y3924213D01*
X8700913Y3922641D01*
X8700359Y3921254D01*
X8699989Y3919867D01*
X8699711Y3918850D01*
X8699619Y3918388D01*
X8699526Y3918111D01*
Y3917926D01*
Y3917833D01*
X8691298Y3918480D01*
X8691483Y3919960D01*
X8691760Y3921346D01*
X8692592Y3923935D01*
X8693609Y3926154D01*
X8694164Y3927171D01*
X8694719Y3928003D01*
X8695181Y3928835D01*
X8695736Y3929575D01*
X8696198Y3930130D01*
X8696660Y3930592D01*
X8697030Y3930962D01*
X8697215Y3931332D01*
X8697400Y3931424D01*
X8697492Y3931517D01*
X8698602Y3932349D01*
X8699711Y3933088D01*
X8700913Y3933736D01*
X8702115Y3934290D01*
X8704427Y3935122D01*
X8706738Y3935677D01*
X8707755Y3935955D01*
X8708772Y3936047D01*
X8709604Y3936139D01*
X8710344Y3936232D01*
X8710991Y3936324D01*
X8711823D01*
X8713765Y3936232D01*
D02*
G37*
G36*
X8655148Y3935122D02*
X8657089Y3935030D01*
X8658846Y3934845D01*
X8660325Y3934660D01*
X8661619Y3934475D01*
X8662544Y3934383D01*
X8662821Y3934290D01*
X8663099Y3934198D01*
X8663284D01*
X8664948Y3933736D01*
X8666427Y3933181D01*
X8667722Y3932719D01*
X8668831Y3932164D01*
X8669756Y3931702D01*
X8670403Y3931332D01*
X8670773Y3931054D01*
X8670958Y3930962D01*
X8672159Y3930130D01*
X8673176Y3929113D01*
X8674193Y3928188D01*
X8675026Y3927264D01*
X8675765Y3926432D01*
X8676320Y3925784D01*
X8676690Y3925322D01*
X8676782Y3925137D01*
X8677707Y3923658D01*
X8678631Y3922086D01*
X8679371Y3920607D01*
X8679926Y3919128D01*
X8680480Y3917833D01*
X8680850Y3916816D01*
X8680943Y3916446D01*
X8681035Y3916169D01*
X8681128Y3915984D01*
Y3915892D01*
X8681682Y3913673D01*
X8682145Y3911454D01*
X8682422Y3909327D01*
X8682699Y3907293D01*
X8682792Y3905537D01*
Y3904797D01*
X8682884Y3904150D01*
Y3903687D01*
Y3903225D01*
Y3903040D01*
Y3902948D01*
X8682792Y3899804D01*
X8682515Y3896938D01*
X8682052Y3894349D01*
X8681867Y3893147D01*
X8681590Y3892130D01*
X8681313Y3891113D01*
X8681128Y3890281D01*
X8680943Y3889542D01*
X8680665Y3888894D01*
X8680573Y3888340D01*
X8680388Y3887970D01*
X8680296Y3887785D01*
Y3887693D01*
X8679279Y3885289D01*
X8678077Y3883162D01*
X8676782Y3881313D01*
X8675580Y3879741D01*
X8674471Y3878447D01*
X8673546Y3877522D01*
X8673176Y3877245D01*
X8672899Y3876968D01*
X8672807Y3876875D01*
X8672714Y3876783D01*
X8671235Y3875581D01*
X8669663Y3874656D01*
X8668091Y3873824D01*
X8666612Y3873177D01*
X8665318Y3872715D01*
X8664301Y3872437D01*
X8663931Y3872252D01*
X8663653D01*
X8663469Y3872160D01*
X8663376D01*
X8661804Y3871883D01*
X8659955Y3871605D01*
X8658106Y3871420D01*
X8656257Y3871328D01*
X8654593Y3871235D01*
X8630000D01*
Y3935215D01*
X8653021D01*
X8655148Y3935122D01*
D02*
G37*
G36*
X2753384Y3677068D02*
X2748299D01*
X2747374Y3678639D01*
X2746357Y3680119D01*
X2745156Y3681598D01*
X2744046Y3682892D01*
X2742937Y3684002D01*
X2742104Y3684926D01*
X2741735Y3685204D01*
X2741457Y3685481D01*
X2741365Y3685574D01*
X2741272Y3685666D01*
X2739331Y3687238D01*
X2737389Y3688717D01*
X2735540Y3690011D01*
X2733691Y3691028D01*
X2732119Y3691953D01*
X2731472Y3692323D01*
X2730917Y3692600D01*
X2730455Y3692878D01*
X2730085Y3692970D01*
X2729900Y3693155D01*
X2729808D01*
Y3700736D01*
X2731195Y3700182D01*
X2732582Y3699534D01*
X2733968Y3698887D01*
X2735263Y3698240D01*
X2736372Y3697685D01*
X2737297Y3697223D01*
X2737852Y3696853D01*
X2737944Y3696761D01*
X2738036D01*
X2739701Y3695744D01*
X2741180Y3694727D01*
X2742474Y3693802D01*
X2743491Y3692970D01*
X2744416Y3692323D01*
X2744971Y3691768D01*
X2745433Y3691398D01*
X2745525Y3691306D01*
Y3741324D01*
X2753384D01*
Y3677068D01*
D02*
G37*
G36*
X2687648Y3741232D02*
X2689589Y3741140D01*
X2691346Y3740955D01*
X2692825Y3740770D01*
X2694120Y3740585D01*
X2695044Y3740492D01*
X2695322Y3740400D01*
X2695599Y3740307D01*
X2695784D01*
X2697448Y3739845D01*
X2698928Y3739290D01*
X2700222Y3738828D01*
X2701331Y3738273D01*
X2702256Y3737811D01*
X2702903Y3737441D01*
X2703273Y3737164D01*
X2703458Y3737072D01*
X2704660Y3736239D01*
X2705677Y3735222D01*
X2706694Y3734298D01*
X2707526Y3733373D01*
X2708266Y3732541D01*
X2708820Y3731894D01*
X2709190Y3731432D01*
X2709283Y3731247D01*
X2710207Y3729767D01*
X2711132Y3728196D01*
X2711871Y3726716D01*
X2712426Y3725237D01*
X2712981Y3723943D01*
X2713351Y3722926D01*
X2713443Y3722556D01*
X2713536Y3722279D01*
X2713628Y3722094D01*
Y3722001D01*
X2714183Y3719782D01*
X2714645Y3717563D01*
X2714922Y3715437D01*
X2715200Y3713403D01*
X2715292Y3711646D01*
Y3710906D01*
X2715385Y3710259D01*
Y3709797D01*
Y3709335D01*
Y3709150D01*
Y3709057D01*
X2715292Y3705914D01*
X2715015Y3703048D01*
X2714553Y3700459D01*
X2714368Y3699257D01*
X2714090Y3698240D01*
X2713813Y3697223D01*
X2713628Y3696391D01*
X2713443Y3695651D01*
X2713166Y3695004D01*
X2713073Y3694449D01*
X2712888Y3694079D01*
X2712796Y3693895D01*
Y3693802D01*
X2711779Y3691398D01*
X2710577Y3689272D01*
X2709283Y3687423D01*
X2708081Y3685851D01*
X2706971Y3684557D01*
X2706047Y3683632D01*
X2705677Y3683355D01*
X2705399Y3683077D01*
X2705307Y3682985D01*
X2705215Y3682892D01*
X2703735Y3681690D01*
X2702164Y3680766D01*
X2700592Y3679934D01*
X2699112Y3679287D01*
X2697818Y3678824D01*
X2696801Y3678547D01*
X2696431Y3678362D01*
X2696154D01*
X2695969Y3678270D01*
X2695876D01*
X2694305Y3677992D01*
X2692456Y3677715D01*
X2690607Y3677530D01*
X2688757Y3677437D01*
X2687093Y3677345D01*
X2662500D01*
Y3741324D01*
X2685521D01*
X2687648Y3741232D01*
D02*
G37*
%LPC*%
G36*
X4093994Y6597574D02*
X4079201D01*
X4077999Y6597481D01*
X4076797D01*
X4075688Y6597389D01*
X4073839Y6597112D01*
X4072359Y6596927D01*
X4071157Y6596649D01*
X4070325Y6596372D01*
X4069863Y6596279D01*
X4069678Y6596187D01*
X4068014Y6595355D01*
X4066442Y6594338D01*
X4065055Y6593136D01*
X4063853Y6591934D01*
X4062929Y6590825D01*
X4062189Y6589900D01*
X4062004Y6589530D01*
X4061819Y6589253D01*
X4061634Y6589068D01*
Y6588975D01*
X4061080Y6587958D01*
X4060525Y6586756D01*
X4059693Y6584353D01*
X4059138Y6581764D01*
X4058676Y6579268D01*
X4058583Y6578158D01*
X4058491Y6577049D01*
X4058399Y6576124D01*
Y6575292D01*
X4058306Y6574552D01*
Y6574090D01*
Y6573720D01*
Y6573628D01*
X4058399Y6571039D01*
X4058583Y6568635D01*
X4058861Y6566509D01*
X4059138Y6564659D01*
X4059323Y6563920D01*
X4059508Y6563273D01*
X4059693Y6562625D01*
X4059785Y6562163D01*
X4059878Y6561793D01*
X4059970Y6561516D01*
X4060063Y6561331D01*
Y6561239D01*
X4060710Y6559482D01*
X4061450Y6557910D01*
X4062282Y6556523D01*
X4063021Y6555321D01*
X4063669Y6554397D01*
X4064223Y6553750D01*
X4064593Y6553380D01*
X4064686Y6553195D01*
X4065610Y6552455D01*
X4066535Y6551808D01*
X4067459Y6551253D01*
X4068384Y6550699D01*
X4069216Y6550329D01*
X4069863Y6550051D01*
X4070325Y6549959D01*
X4070510Y6549867D01*
X4071897Y6549497D01*
X4073561Y6549219D01*
X4075226Y6549034D01*
X4076797Y6548942D01*
X4078184Y6548849D01*
X4078831Y6548757D01*
X4093994D01*
Y6597574D01*
D02*
G37*
G36*
X6625150Y6186494D02*
X6576333D01*
Y6171701D01*
X6576426Y6170499D01*
Y6169297D01*
X6576518Y6168188D01*
X6576795Y6166339D01*
X6576980Y6164859D01*
X6577258Y6163657D01*
X6577535Y6162825D01*
X6577627Y6162363D01*
X6577720Y6162178D01*
X6578552Y6160514D01*
X6579569Y6158942D01*
X6580771Y6157555D01*
X6581973Y6156353D01*
X6583082Y6155429D01*
X6584007Y6154689D01*
X6584377Y6154504D01*
X6584654Y6154319D01*
X6584839Y6154135D01*
X6584931D01*
X6585948Y6153580D01*
X6587150Y6153025D01*
X6589554Y6152193D01*
X6592143Y6151638D01*
X6594639Y6151176D01*
X6595749Y6151083D01*
X6596858Y6150991D01*
X6597783Y6150899D01*
X6598615D01*
X6599355Y6150806D01*
X6599817D01*
X6600187D01*
X6600279D01*
X6602868Y6150899D01*
X6605272Y6151083D01*
X6607398Y6151361D01*
X6609247Y6151638D01*
X6609987Y6151823D01*
X6610634Y6152008D01*
X6611281Y6152193D01*
X6611744Y6152285D01*
X6612114Y6152378D01*
X6612391Y6152470D01*
X6612576Y6152563D01*
X6612668D01*
X6614425Y6153210D01*
X6615997Y6153950D01*
X6617384Y6154782D01*
X6618585Y6155521D01*
X6619510Y6156169D01*
X6620157Y6156723D01*
X6620527Y6157093D01*
X6620712Y6157186D01*
X6621452Y6158110D01*
X6622099Y6159035D01*
X6622654Y6159959D01*
X6623208Y6160884D01*
X6623578Y6161716D01*
X6623855Y6162363D01*
X6623948Y6162825D01*
X6624040Y6163010D01*
X6624410Y6164397D01*
X6624688Y6166061D01*
X6624872Y6167726D01*
X6624965Y6169297D01*
X6625057Y6170684D01*
X6625150Y6171331D01*
Y6186494D01*
D02*
G37*
G36*
X6602683Y6075917D02*
X6601851D01*
X6601389D01*
X6601204D01*
X6598338Y6075824D01*
X6595749Y6075732D01*
X6593345Y6075547D01*
X6591126Y6075270D01*
X6589184Y6074992D01*
X6587428Y6074622D01*
X6585856Y6074253D01*
X6584469Y6073883D01*
X6583267Y6073513D01*
X6582250Y6073236D01*
X6581418Y6072866D01*
X6580678Y6072588D01*
X6580216Y6072311D01*
X6579846Y6072126D01*
X6579661Y6071941D01*
X6579569D01*
X6578737Y6071294D01*
X6577997Y6070647D01*
X6577443Y6069907D01*
X6576888Y6069167D01*
X6576056Y6067688D01*
X6575501Y6066301D01*
X6575224Y6065099D01*
X6575039Y6064082D01*
X6574946Y6063713D01*
Y6063158D01*
X6575039Y6062141D01*
X6575131Y6061124D01*
X6575408Y6060199D01*
X6575778Y6059367D01*
X6576610Y6057795D01*
X6577535Y6056409D01*
X6578552Y6055391D01*
X6579384Y6054559D01*
X6579754Y6054282D01*
X6580031Y6054097D01*
X6580124Y6053912D01*
X6580216D01*
X6581326Y6053265D01*
X6582620Y6052710D01*
X6584099Y6052156D01*
X6585671Y6051786D01*
X6587335Y6051416D01*
X6589092Y6051139D01*
X6592605Y6050676D01*
X6594362Y6050491D01*
X6595934Y6050399D01*
X6597413Y6050306D01*
X6598615D01*
X6599724Y6050214D01*
X6600557D01*
X6601019D01*
X6601111D01*
X6601204D01*
X6604070D01*
X6606659Y6050399D01*
X6608970Y6050584D01*
X6611189Y6050769D01*
X6613038Y6051046D01*
X6614795Y6051416D01*
X6616274Y6051786D01*
X6617661Y6052063D01*
X6618770Y6052433D01*
X6619695Y6052803D01*
X6620527Y6053080D01*
X6621174Y6053450D01*
X6621636Y6053635D01*
X6621914Y6053820D01*
X6622099Y6054005D01*
X6622191D01*
X6623116Y6054744D01*
X6623855Y6055484D01*
X6624595Y6056224D01*
X6625150Y6056963D01*
X6626074Y6058535D01*
X6626722Y6059922D01*
X6627091Y6061216D01*
X6627276Y6062141D01*
X6627369Y6062511D01*
Y6063065D01*
X6627276Y6064082D01*
X6627184Y6065007D01*
X6626537Y6066764D01*
X6625705Y6068335D01*
X6624780Y6069722D01*
X6623855Y6070739D01*
X6623023Y6071571D01*
X6622376Y6072034D01*
X6622284Y6072218D01*
X6622191D01*
X6621082Y6072866D01*
X6619787Y6073420D01*
X6618308Y6073975D01*
X6616736Y6074345D01*
X6615072Y6074715D01*
X6613315Y6074992D01*
X6609710Y6075454D01*
X6608045Y6075639D01*
X6606474Y6075732D01*
X6604994Y6075824D01*
X6603792D01*
X6602683Y6075917D01*
D02*
G37*
G36*
X8712655Y5706553D02*
X8712100D01*
X8710159Y5706369D01*
X8708402Y5705999D01*
X8706830Y5705352D01*
X8705444Y5704612D01*
X8704427Y5703965D01*
X8703594Y5703318D01*
X8703132Y5702948D01*
X8702947Y5702763D01*
X8701745Y5701283D01*
X8700821Y5699619D01*
X8700266Y5697955D01*
X8699804Y5696383D01*
X8699526Y5694996D01*
X8699434Y5694442D01*
Y5693887D01*
X8699342Y5693425D01*
Y5693147D01*
Y5692962D01*
Y5692870D01*
X8699526Y5690466D01*
X8699896Y5688247D01*
X8700543Y5686306D01*
X8701283Y5684734D01*
X8701930Y5683439D01*
X8702577Y5682515D01*
X8702762Y5682238D01*
X8702947Y5681960D01*
X8703132Y5681868D01*
Y5681775D01*
X8703872Y5681036D01*
X8704611Y5680296D01*
X8706183Y5679279D01*
X8707755Y5678447D01*
X8709234Y5677985D01*
X8710436Y5677615D01*
X8711453Y5677522D01*
X8711823Y5677430D01*
X8713302D01*
X8714227Y5677615D01*
X8715891Y5678077D01*
X8717370Y5678724D01*
X8718665Y5679371D01*
X8719682Y5680111D01*
X8720421Y5680758D01*
X8720884Y5681221D01*
X8721069Y5681313D01*
Y5681405D01*
X8722271Y5682977D01*
X8723195Y5684734D01*
X8723842Y5686583D01*
X8724212Y5688340D01*
X8724490Y5689819D01*
X8724582Y5690466D01*
Y5691113D01*
X8724674Y5691576D01*
Y5691945D01*
Y5692130D01*
Y5692223D01*
X8724490Y5694627D01*
X8724120Y5696753D01*
X8723565Y5698510D01*
X8722918Y5699989D01*
X8722178Y5701191D01*
X8721623Y5702023D01*
X8721254Y5702578D01*
X8721069Y5702763D01*
X8719682Y5704057D01*
X8718203Y5704982D01*
X8716723Y5705629D01*
X8715244Y5706091D01*
X8714042Y5706369D01*
X8713025Y5706461D01*
X8712655Y5706553D01*
D02*
G37*
G36*
X8653668Y5727633D02*
X8638505D01*
Y5678817D01*
X8653298D01*
X8654500Y5678909D01*
X8655702D01*
X8656812Y5679002D01*
X8658661Y5679279D01*
X8660140Y5679464D01*
X8661342Y5679741D01*
X8662174Y5680019D01*
X8662636Y5680111D01*
X8662821Y5680204D01*
X8664486Y5681036D01*
X8666057Y5682053D01*
X8667444Y5683255D01*
X8668646Y5684457D01*
X8669571Y5685566D01*
X8670310Y5686491D01*
X8670495Y5686860D01*
X8670680Y5687138D01*
X8670865Y5687323D01*
Y5687415D01*
X8671420Y5688432D01*
X8671975Y5689634D01*
X8672807Y5692038D01*
X8673361Y5694627D01*
X8673824Y5697123D01*
X8673916Y5698232D01*
X8674009Y5699342D01*
X8674101Y5700266D01*
Y5701099D01*
X8674193Y5701838D01*
Y5702301D01*
Y5702670D01*
Y5702763D01*
X8674101Y5705352D01*
X8673916Y5707755D01*
X8673639Y5709882D01*
X8673361Y5711731D01*
X8673176Y5712471D01*
X8672992Y5713118D01*
X8672807Y5713765D01*
X8672714Y5714227D01*
X8672622Y5714597D01*
X8672529Y5714875D01*
X8672437Y5715059D01*
Y5715152D01*
X8671790Y5716909D01*
X8671050Y5718480D01*
X8670218Y5719867D01*
X8669478Y5721069D01*
X8668831Y5721994D01*
X8668276Y5722641D01*
X8667906Y5723011D01*
X8667814Y5723196D01*
X8666889Y5723935D01*
X8665965Y5724582D01*
X8665040Y5725137D01*
X8664116Y5725692D01*
X8663284Y5726062D01*
X8662636Y5726339D01*
X8662174Y5726432D01*
X8661989Y5726524D01*
X8660602Y5726894D01*
X8658938Y5727171D01*
X8657274Y5727356D01*
X8655702Y5727449D01*
X8654315Y5727541D01*
X8653668Y5727633D01*
D02*
G37*
G36*
X8713946Y5136265D02*
X8693791D01*
X8713946Y5107604D01*
Y5136265D01*
D02*
G37*
G36*
X8651168Y5151243D02*
X8636006D01*
Y5102426D01*
X8650799D01*
X8652000Y5102519D01*
X8653202D01*
X8654312Y5102611D01*
X8656161Y5102888D01*
X8657640Y5103073D01*
X8658842Y5103351D01*
X8659674Y5103628D01*
X8660137Y5103721D01*
X8660322Y5103813D01*
X8661986Y5104645D01*
X8663557Y5105662D01*
X8664944Y5106864D01*
X8666146Y5108066D01*
X8667071Y5109175D01*
X8667810Y5110100D01*
X8667995Y5110470D01*
X8668180Y5110747D01*
X8668365Y5110932D01*
Y5111025D01*
X8668920Y5112042D01*
X8669475Y5113244D01*
X8670307Y5115647D01*
X8670861Y5118236D01*
X8671324Y5120732D01*
X8671416Y5121842D01*
X8671509Y5122951D01*
X8671601Y5123876D01*
Y5124708D01*
X8671694Y5125448D01*
Y5125910D01*
Y5126280D01*
Y5126372D01*
X8671601Y5128961D01*
X8671416Y5131365D01*
X8671139Y5133491D01*
X8670861Y5135341D01*
X8670677Y5136080D01*
X8670492Y5136727D01*
X8670307Y5137375D01*
X8670214Y5137837D01*
X8670122Y5138207D01*
X8670029Y5138484D01*
X8669937Y5138669D01*
Y5138761D01*
X8669290Y5140518D01*
X8668550Y5142090D01*
X8667718Y5143477D01*
X8666978Y5144679D01*
X8666331Y5145603D01*
X8665776Y5146250D01*
X8665407Y5146620D01*
X8665314Y5146805D01*
X8664390Y5147545D01*
X8663465Y5148192D01*
X8662540Y5148747D01*
X8661616Y5149301D01*
X8660784Y5149671D01*
X8660137Y5149949D01*
X8659674Y5150041D01*
X8659489Y5150133D01*
X8658103Y5150503D01*
X8656438Y5150781D01*
X8654774Y5150966D01*
X8653202Y5151058D01*
X8651816Y5151150D01*
X8651168Y5151243D01*
D02*
G37*
G36*
X8661169Y5432633D02*
X8646006D01*
Y5383817D01*
X8660799D01*
X8662001Y5383909D01*
X8663203D01*
X8664312Y5384001D01*
X8666161Y5384279D01*
X8667641Y5384464D01*
X8668842Y5384741D01*
X8669675Y5385018D01*
X8670137Y5385111D01*
X8670322Y5385203D01*
X8671986Y5386035D01*
X8673558Y5387052D01*
X8674945Y5388254D01*
X8676146Y5389456D01*
X8677071Y5390566D01*
X8677811Y5391490D01*
X8677996Y5391860D01*
X8678181Y5392138D01*
X8678365Y5392322D01*
Y5392415D01*
X8678920Y5393432D01*
X8679475Y5394634D01*
X8680307Y5397038D01*
X8680862Y5399626D01*
X8681324Y5402123D01*
X8681416Y5403232D01*
X8681509Y5404342D01*
X8681601Y5405266D01*
Y5406098D01*
X8681694Y5406838D01*
Y5407300D01*
Y5407670D01*
Y5407763D01*
X8681601Y5410351D01*
X8681416Y5412755D01*
X8681139Y5414882D01*
X8680862Y5416731D01*
X8680677Y5417470D01*
X8680492Y5418118D01*
X8680307Y5418765D01*
X8680215Y5419227D01*
X8680122Y5419597D01*
X8680030Y5419874D01*
X8679937Y5420059D01*
Y5420152D01*
X8679290Y5421908D01*
X8678550Y5423480D01*
X8677718Y5424867D01*
X8676979Y5426069D01*
X8676331Y5426993D01*
X8675777Y5427641D01*
X8675407Y5428010D01*
X8675314Y5428195D01*
X8674390Y5428935D01*
X8673465Y5429582D01*
X8672541Y5430137D01*
X8671616Y5430692D01*
X8670784Y5431062D01*
X8670137Y5431339D01*
X8669675Y5431431D01*
X8669490Y5431524D01*
X8668103Y5431894D01*
X8666439Y5432171D01*
X8664774Y5432356D01*
X8663203Y5432448D01*
X8661816Y5432541D01*
X8661169Y5432633D01*
D02*
G37*
G36*
X8720340Y5434852D02*
X8719786D01*
X8718491Y5434760D01*
X8717197Y5434575D01*
X8715995Y5434297D01*
X8714978Y5434020D01*
X8714146Y5433743D01*
X8713499Y5433465D01*
X8713129Y5433280D01*
X8712944Y5433188D01*
X8711834Y5432448D01*
X8710910Y5431709D01*
X8710078Y5430877D01*
X8709431Y5430045D01*
X8708876Y5429397D01*
X8708506Y5428843D01*
X8708321Y5428380D01*
X8708229Y5428288D01*
X8707766Y5427086D01*
X8707397Y5425976D01*
X8707119Y5424867D01*
X8706934Y5423850D01*
X8706842Y5423018D01*
X8706749Y5422371D01*
Y5422001D01*
Y5421816D01*
X8706934Y5419874D01*
X8707304Y5418118D01*
X8707859Y5416546D01*
X8708599Y5415159D01*
X8709246Y5414142D01*
X8709800Y5413310D01*
X8710170Y5412848D01*
X8710355Y5412663D01*
X8711742Y5411461D01*
X8713314Y5410536D01*
X8714793Y5409889D01*
X8716272Y5409427D01*
X8717567Y5409149D01*
X8718584Y5409057D01*
X8718954Y5408965D01*
X8719508D01*
X8721542Y5409149D01*
X8723391Y5409519D01*
X8725056Y5410166D01*
X8726443Y5410814D01*
X8727552Y5411553D01*
X8728384Y5412201D01*
X8728846Y5412570D01*
X8729031Y5412755D01*
X8730326Y5414235D01*
X8731250Y5415806D01*
X8731897Y5417378D01*
X8732360Y5418765D01*
X8732637Y5420152D01*
X8732730Y5421169D01*
X8732822Y5421539D01*
Y5421816D01*
Y5422001D01*
Y5422093D01*
X8732637Y5424035D01*
X8732267Y5425884D01*
X8731620Y5427456D01*
X8730973Y5428750D01*
X8730326Y5429767D01*
X8729679Y5430599D01*
X8729309Y5431062D01*
X8729124Y5431246D01*
X8727644Y5432448D01*
X8726165Y5433373D01*
X8724593Y5433928D01*
X8723114Y5434390D01*
X8721820Y5434667D01*
X8720710Y5434760D01*
X8720340Y5434852D01*
D02*
G37*
G36*
X8719971Y5402585D02*
X8719786D01*
X8718122Y5402493D01*
X8716642Y5402123D01*
X8715348Y5401661D01*
X8714238Y5401106D01*
X8713406Y5400644D01*
X8712759Y5400181D01*
X8712297Y5399811D01*
X8712204Y5399719D01*
X8711280Y5398609D01*
X8710540Y5397315D01*
X8710078Y5396113D01*
X8709708Y5394911D01*
X8709523Y5393894D01*
X8709431Y5393062D01*
X8709338Y5392507D01*
Y5392415D01*
Y5392322D01*
X8709431Y5390843D01*
X8709800Y5389549D01*
X8710263Y5388347D01*
X8710817Y5387330D01*
X8711280Y5386498D01*
X8711742Y5385851D01*
X8712112Y5385481D01*
X8712204Y5385388D01*
X8713406Y5384371D01*
X8714608Y5383632D01*
X8715903Y5383169D01*
X8717104Y5382799D01*
X8718214Y5382615D01*
X8719046Y5382430D01*
X8719786D01*
X8721357Y5382522D01*
X8722837Y5382892D01*
X8724039Y5383354D01*
X8725148Y5383909D01*
X8725980Y5384464D01*
X8726627Y5384926D01*
X8727090Y5385296D01*
X8727182Y5385388D01*
X8728199Y5386590D01*
X8728939Y5387792D01*
X8729494Y5388994D01*
X8729863Y5390104D01*
X8730048Y5391121D01*
X8730233Y5391953D01*
Y5392507D01*
Y5392600D01*
Y5392692D01*
X8730141Y5394172D01*
X8729771Y5395558D01*
X8729309Y5396760D01*
X8728754Y5397777D01*
X8728199Y5398609D01*
X8727737Y5399164D01*
X8727367Y5399626D01*
X8727275Y5399719D01*
X8726165Y5400644D01*
X8724871Y5401383D01*
X8723669Y5401845D01*
X8722467Y5402215D01*
X8721357Y5402400D01*
X8720525Y5402493D01*
X8719971Y5402585D01*
D02*
G37*
G36*
X8653668Y4827633D02*
X8638505D01*
Y4778816D01*
X8653298D01*
X8654500Y4778909D01*
X8655702D01*
X8656812Y4779001D01*
X8658661Y4779278D01*
X8660140Y4779463D01*
X8661342Y4779741D01*
X8662174Y4780018D01*
X8662636Y4780111D01*
X8662821Y4780203D01*
X8664486Y4781035D01*
X8666057Y4782052D01*
X8667444Y4783254D01*
X8668646Y4784456D01*
X8669571Y4785565D01*
X8670310Y4786490D01*
X8670495Y4786860D01*
X8670680Y4787137D01*
X8670865Y4787322D01*
Y4787415D01*
X8671420Y4788432D01*
X8671975Y4789634D01*
X8672807Y4792037D01*
X8673361Y4794626D01*
X8673824Y4797122D01*
X8673916Y4798232D01*
X8674009Y4799341D01*
X8674101Y4800266D01*
Y4801098D01*
X8674193Y4801838D01*
Y4802300D01*
Y4802670D01*
Y4802762D01*
X8674101Y4805351D01*
X8673916Y4807755D01*
X8673639Y4809881D01*
X8673361Y4811731D01*
X8673176Y4812470D01*
X8672992Y4813117D01*
X8672807Y4813765D01*
X8672714Y4814227D01*
X8672622Y4814597D01*
X8672529Y4814874D01*
X8672437Y4815059D01*
Y4815151D01*
X8671790Y4816908D01*
X8671050Y4818480D01*
X8670218Y4819867D01*
X8669478Y4821069D01*
X8668831Y4821993D01*
X8668276Y4822640D01*
X8667906Y4823010D01*
X8667814Y4823195D01*
X8666889Y4823935D01*
X8665965Y4824582D01*
X8665040Y4825137D01*
X8664116Y4825691D01*
X8663284Y4826061D01*
X8662636Y4826339D01*
X8662174Y4826431D01*
X8661989Y4826523D01*
X8660602Y4826893D01*
X8658938Y4827171D01*
X8657274Y4827356D01*
X8655702Y4827448D01*
X8654315Y4827541D01*
X8653668Y4827633D01*
D02*
G37*
G36*
Y4528743D02*
X8638505D01*
Y4479926D01*
X8653298D01*
X8654500Y4480018D01*
X8655702D01*
X8656812Y4480111D01*
X8658661Y4480388D01*
X8660140Y4480573D01*
X8661342Y4480850D01*
X8662174Y4481128D01*
X8662636Y4481220D01*
X8662821Y4481313D01*
X8664486Y4482145D01*
X8666057Y4483162D01*
X8667444Y4484364D01*
X8668646Y4485566D01*
X8669571Y4486675D01*
X8670310Y4487600D01*
X8670495Y4487969D01*
X8670680Y4488247D01*
X8670865Y4488432D01*
Y4488524D01*
X8671420Y4489541D01*
X8671975Y4490743D01*
X8672807Y4493147D01*
X8673361Y4495736D01*
X8673824Y4498232D01*
X8673916Y4499342D01*
X8674009Y4500451D01*
X8674101Y4501376D01*
Y4502208D01*
X8674193Y4502947D01*
Y4503410D01*
Y4503779D01*
Y4503872D01*
X8674101Y4506461D01*
X8673916Y4508864D01*
X8673639Y4510991D01*
X8673361Y4512840D01*
X8673176Y4513580D01*
X8672992Y4514227D01*
X8672807Y4514874D01*
X8672714Y4515336D01*
X8672622Y4515706D01*
X8672529Y4515984D01*
X8672437Y4516169D01*
Y4516261D01*
X8671790Y4518018D01*
X8671050Y4519589D01*
X8670218Y4520976D01*
X8669478Y4522178D01*
X8668831Y4523103D01*
X8668276Y4523750D01*
X8667906Y4524120D01*
X8667814Y4524305D01*
X8666889Y4525044D01*
X8665965Y4525691D01*
X8665040Y4526246D01*
X8664116Y4526801D01*
X8663284Y4527171D01*
X8662636Y4527448D01*
X8662174Y4527541D01*
X8661989Y4527633D01*
X8660602Y4528003D01*
X8658938Y4528280D01*
X8657274Y4528465D01*
X8655702Y4528558D01*
X8654315Y4528650D01*
X8653668Y4528743D01*
D02*
G37*
G36*
X8713487Y4229852D02*
X8713025D01*
X8711731Y4229760D01*
X8710529Y4229575D01*
X8709419Y4229205D01*
X8708495Y4228835D01*
X8707663Y4228558D01*
X8707015Y4228188D01*
X8706646Y4228003D01*
X8706461Y4227911D01*
X8705351Y4227079D01*
X8704427Y4226247D01*
X8703594Y4225230D01*
X8702947Y4224397D01*
X8702393Y4223565D01*
X8702023Y4222918D01*
X8701745Y4222456D01*
X8701653Y4222271D01*
X8701098Y4220884D01*
X8700728Y4219497D01*
X8700359Y4218203D01*
X8700174Y4217001D01*
X8700081Y4215984D01*
X8699989Y4215152D01*
Y4214690D01*
Y4214505D01*
X8700174Y4212286D01*
X8700543Y4210344D01*
X8701191Y4208587D01*
X8701838Y4207201D01*
X8702485Y4205999D01*
X8703132Y4205167D01*
X8703502Y4204704D01*
X8703687Y4204519D01*
X8705166Y4203225D01*
X8706646Y4202300D01*
X8708217Y4201561D01*
X8709604Y4201099D01*
X8710899Y4200821D01*
X8711823Y4200729D01*
X8712193Y4200636D01*
X8712748D01*
X8714689Y4200821D01*
X8716446Y4201283D01*
X8717925Y4201838D01*
X8719220Y4202578D01*
X8720237Y4203317D01*
X8720976Y4203872D01*
X8721438Y4204334D01*
X8721623Y4204519D01*
X8722825Y4206091D01*
X8723750Y4207755D01*
X8724397Y4209512D01*
X8724767Y4211176D01*
X8725044Y4212656D01*
X8725137Y4213303D01*
Y4213857D01*
X8725229Y4214320D01*
Y4214690D01*
Y4214874D01*
Y4214967D01*
X8725044Y4217463D01*
X8724674Y4219590D01*
X8724120Y4221439D01*
X8723473Y4223011D01*
X8722733Y4224213D01*
X8722178Y4225137D01*
X8721808Y4225692D01*
X8721623Y4225784D01*
Y4225877D01*
X8720976Y4226616D01*
X8720237Y4227171D01*
X8718757Y4228188D01*
X8717278Y4228835D01*
X8715984Y4229390D01*
X8714782Y4229667D01*
X8713857Y4229760D01*
X8713487Y4229852D01*
D02*
G37*
G36*
X8653668Y4227633D02*
X8638505D01*
Y4178817D01*
X8653298D01*
X8654500Y4178909D01*
X8655702D01*
X8656812Y4179002D01*
X8658661Y4179279D01*
X8660140Y4179464D01*
X8661342Y4179741D01*
X8662174Y4180019D01*
X8662636Y4180111D01*
X8662821Y4180203D01*
X8664486Y4181036D01*
X8666057Y4182053D01*
X8667444Y4183255D01*
X8668646Y4184456D01*
X8669571Y4185566D01*
X8670310Y4186490D01*
X8670495Y4186860D01*
X8670680Y4187138D01*
X8670865Y4187323D01*
Y4187415D01*
X8671420Y4188432D01*
X8671975Y4189634D01*
X8672807Y4192038D01*
X8673361Y4194627D01*
X8673824Y4197123D01*
X8673916Y4198232D01*
X8674009Y4199342D01*
X8674101Y4200266D01*
Y4201099D01*
X8674193Y4201838D01*
Y4202300D01*
Y4202670D01*
Y4202763D01*
X8674101Y4205352D01*
X8673916Y4207755D01*
X8673639Y4209882D01*
X8673361Y4211731D01*
X8673176Y4212471D01*
X8672992Y4213118D01*
X8672807Y4213765D01*
X8672714Y4214227D01*
X8672622Y4214597D01*
X8672529Y4214874D01*
X8672437Y4215059D01*
Y4215152D01*
X8671790Y4216909D01*
X8671050Y4218480D01*
X8670218Y4219867D01*
X8669478Y4221069D01*
X8668831Y4221994D01*
X8668276Y4222641D01*
X8667906Y4223011D01*
X8667814Y4223196D01*
X8666889Y4223935D01*
X8665965Y4224582D01*
X8665040Y4225137D01*
X8664116Y4225692D01*
X8663284Y4226062D01*
X8662636Y4226339D01*
X8662174Y4226431D01*
X8661989Y4226524D01*
X8660602Y4226894D01*
X8658938Y4227171D01*
X8657274Y4227356D01*
X8655702Y4227448D01*
X8654315Y4227541D01*
X8653668Y4227633D01*
D02*
G37*
G36*
Y3927633D02*
X8638505D01*
Y3878817D01*
X8653298D01*
X8654500Y3878909D01*
X8655702D01*
X8656812Y3879002D01*
X8658661Y3879279D01*
X8660140Y3879464D01*
X8661342Y3879741D01*
X8662174Y3880019D01*
X8662636Y3880111D01*
X8662821Y3880204D01*
X8664486Y3881036D01*
X8666057Y3882053D01*
X8667444Y3883255D01*
X8668646Y3884457D01*
X8669571Y3885566D01*
X8670310Y3886491D01*
X8670495Y3886860D01*
X8670680Y3887138D01*
X8670865Y3887323D01*
Y3887415D01*
X8671420Y3888432D01*
X8671975Y3889634D01*
X8672807Y3892038D01*
X8673361Y3894627D01*
X8673824Y3897123D01*
X8673916Y3898232D01*
X8674009Y3899342D01*
X8674101Y3900267D01*
Y3901099D01*
X8674193Y3901838D01*
Y3902301D01*
Y3902670D01*
Y3902763D01*
X8674101Y3905352D01*
X8673916Y3907755D01*
X8673639Y3909882D01*
X8673361Y3911731D01*
X8673176Y3912471D01*
X8672992Y3913118D01*
X8672807Y3913765D01*
X8672714Y3914227D01*
X8672622Y3914597D01*
X8672529Y3914875D01*
X8672437Y3915059D01*
Y3915152D01*
X8671790Y3916909D01*
X8671050Y3918480D01*
X8670218Y3919867D01*
X8669478Y3921069D01*
X8668831Y3921994D01*
X8668276Y3922641D01*
X8667906Y3923011D01*
X8667814Y3923196D01*
X8666889Y3923935D01*
X8665965Y3924582D01*
X8665040Y3925137D01*
X8664116Y3925692D01*
X8663284Y3926062D01*
X8662636Y3926339D01*
X8662174Y3926432D01*
X8661989Y3926524D01*
X8660602Y3926894D01*
X8658938Y3927171D01*
X8657274Y3927356D01*
X8655702Y3927449D01*
X8654315Y3927541D01*
X8653668Y3927633D01*
D02*
G37*
G36*
X2686169Y3733743D02*
X2671006D01*
Y3684926D01*
X2685799D01*
X2687001Y3685019D01*
X2688203D01*
X2689312Y3685111D01*
X2691161Y3685389D01*
X2692641Y3685574D01*
X2693842Y3685851D01*
X2694675Y3686128D01*
X2695137Y3686221D01*
X2695322Y3686313D01*
X2696986Y3687145D01*
X2698558Y3688162D01*
X2699945Y3689364D01*
X2701146Y3690566D01*
X2702071Y3691676D01*
X2702811Y3692600D01*
X2702996Y3692970D01*
X2703181Y3693247D01*
X2703365Y3693432D01*
Y3693525D01*
X2703920Y3694542D01*
X2704475Y3695744D01*
X2705307Y3698148D01*
X2705862Y3700736D01*
X2706324Y3703233D01*
X2706416Y3704342D01*
X2706509Y3705452D01*
X2706601Y3706376D01*
Y3707208D01*
X2706694Y3707948D01*
Y3708410D01*
Y3708780D01*
Y3708872D01*
X2706601Y3711461D01*
X2706416Y3713865D01*
X2706139Y3715992D01*
X2705862Y3717841D01*
X2705677Y3718580D01*
X2705492Y3719228D01*
X2705307Y3719875D01*
X2705215Y3720337D01*
X2705122Y3720707D01*
X2705030Y3720984D01*
X2704937Y3721169D01*
Y3721262D01*
X2704290Y3723018D01*
X2703550Y3724590D01*
X2702718Y3725977D01*
X2701979Y3727179D01*
X2701331Y3728103D01*
X2700777Y3728750D01*
X2700407Y3729120D01*
X2700314Y3729305D01*
X2699390Y3730045D01*
X2698465Y3730692D01*
X2697541Y3731247D01*
X2696616Y3731802D01*
X2695784Y3732171D01*
X2695137Y3732449D01*
X2694675Y3732541D01*
X2694490Y3732634D01*
X2693103Y3733003D01*
X2691439Y3733281D01*
X2689774Y3733466D01*
X2688203Y3733558D01*
X2686816Y3733651D01*
X2686169Y3733743D01*
D02*
G37*
%LPD*%
D62*
X4272500Y6482500D02*
Y6637500D01*
X3932500Y6482500D02*
X4272500D01*
X3932500D02*
Y6637500D01*
X4272500D01*
X6537516Y6365000D02*
X6692516D01*
Y6025000D02*
Y6365000D01*
X6537516Y6025000D02*
X6692516D01*
X6537516D02*
Y6365000D01*
X8460000Y5640000D02*
X8800000D01*
Y5795000D01*
X8460000D02*
X8800000D01*
X8460000Y5640000D02*
Y5795000D01*
X4778500Y6265000D02*
X6358500D01*
X4778500D02*
Y6895000D01*
X6358500D01*
Y6265000D02*
Y6895000D01*
X8457500Y5062500D02*
X8797500D01*
Y5217500D01*
X8457500D02*
X8797500D01*
X8457500Y5062500D02*
Y5217500D01*
X8467500Y5345000D02*
X8807500D01*
Y5500000D01*
X8467500D02*
X8807500D01*
X8467500Y5345000D02*
Y5500000D01*
X8460000Y4740000D02*
X8800000D01*
Y4895000D01*
X8460000D02*
X8800000D01*
X8460000Y4740000D02*
Y4895000D01*
Y4440000D02*
X8800000D01*
Y4595000D01*
X8460000D02*
X8800000D01*
X8460000Y4440000D02*
Y4595000D01*
Y4140000D02*
Y4295000D01*
X8800000D01*
Y4140000D02*
Y4295000D01*
X8460000Y4140000D02*
X8800000D01*
X8460000Y3840000D02*
Y3995000D01*
X8800000D01*
Y3840000D02*
Y3995000D01*
X8460000Y3840000D02*
X8800000D01*
X2492500Y3645000D02*
X2832500D01*
Y3800000D01*
X2492500D02*
X2832500D01*
X2492500Y3645000D02*
Y3800000D01*
%TF.MD5,6720b6c0c3f88b69310786ebee94af39*%
M02*
