%TF.GenerationSoftware,Altium Limited,Altium Designer,24.7.2 (38)*%
G04 Layer_Color=16711935*
%FSLAX45Y45*%
%MOMM*%
%TF.SameCoordinates,313A2AA4-CFAA-4B56-AAC7-ADE98D6BBF51*%
%TF.FilePolarity,Positive*%
%TF.FileFunction,Other,Bottom_Assembly*%
%TF.Part,Single*%
G01*
G75*
%TA.AperFunction,NonConductor*%
%ADD62C,0.20000*%
%ADD98C,0.10000*%
G36*
X1297719Y2230696D02*
X1298736Y2229217D01*
X1299938Y2227738D01*
X1301047Y2226443D01*
X1302157Y2225334D01*
X1302989Y2224409D01*
X1303359Y2224132D01*
X1303636Y2223855D01*
X1303729Y2223762D01*
X1303821Y2223670D01*
X1305763Y2222098D01*
X1307704Y2220619D01*
X1309553Y2219324D01*
X1311403Y2218307D01*
X1312974Y2217383D01*
X1313621Y2217013D01*
X1314176Y2216735D01*
X1314638Y2216458D01*
X1315008Y2216366D01*
X1315193Y2216181D01*
X1315286D01*
Y2208599D01*
X1313899Y2209154D01*
X1312512Y2209801D01*
X1311125Y2210448D01*
X1309831Y2211096D01*
X1308721Y2211650D01*
X1307797Y2212113D01*
X1307242Y2212482D01*
X1307150Y2212575D01*
X1307057D01*
X1305393Y2213592D01*
X1303914Y2214609D01*
X1302619Y2215534D01*
X1301602Y2216366D01*
X1300678Y2217013D01*
X1300123Y2217568D01*
X1299661Y2217937D01*
X1299568Y2218030D01*
Y2168011D01*
X1291709D01*
Y2232268D01*
X1296794D01*
X1297719Y2230696D01*
D02*
G37*
G36*
X1382501Y2195008D02*
Y2193159D01*
X1382409Y2191403D01*
X1382316Y2189738D01*
X1382131Y2188167D01*
X1381946Y2186780D01*
X1381762Y2185485D01*
X1381484Y2184283D01*
X1381299Y2183174D01*
X1381114Y2182157D01*
X1380837Y2181325D01*
X1380652Y2180585D01*
X1380467Y2180030D01*
X1380282Y2179568D01*
X1380190Y2179198D01*
X1380097Y2179013D01*
Y2178921D01*
X1379080Y2176887D01*
X1377786Y2175038D01*
X1376492Y2173559D01*
X1375105Y2172264D01*
X1373903Y2171247D01*
X1372886Y2170507D01*
X1372516Y2170323D01*
X1372239Y2170138D01*
X1372054Y2169953D01*
X1371961D01*
X1369650Y2168936D01*
X1367246Y2168196D01*
X1364750Y2167641D01*
X1362438Y2167272D01*
X1361421Y2167179D01*
X1360404Y2167087D01*
X1359480Y2166994D01*
X1358740D01*
X1358093Y2166902D01*
X1357261D01*
X1353932Y2167087D01*
X1352453Y2167272D01*
X1351066Y2167456D01*
X1349679Y2167734D01*
X1348477Y2168011D01*
X1347368Y2168289D01*
X1346351Y2168658D01*
X1345426Y2169028D01*
X1344687Y2169306D01*
X1343947Y2169583D01*
X1343392Y2169860D01*
X1342930Y2170138D01*
X1342653Y2170230D01*
X1342468Y2170415D01*
X1342375D01*
X1340341Y2171802D01*
X1338677Y2173374D01*
X1337383Y2174853D01*
X1336273Y2176332D01*
X1335441Y2177627D01*
X1334886Y2178644D01*
X1334701Y2179013D01*
X1334517Y2179291D01*
X1334424Y2179476D01*
Y2179568D01*
X1334054Y2180678D01*
X1333684Y2181880D01*
X1333130Y2184376D01*
X1332760Y2186965D01*
X1332482Y2189461D01*
X1332390Y2190570D01*
X1332298Y2191680D01*
Y2192604D01*
X1332205Y2193437D01*
Y2194084D01*
Y2194546D01*
Y2194916D01*
Y2195008D01*
Y2231991D01*
X1340711D01*
Y2195008D01*
Y2192882D01*
X1340896Y2190848D01*
X1341081Y2189091D01*
X1341358Y2187427D01*
X1341636Y2185948D01*
X1342005Y2184561D01*
X1342283Y2183359D01*
X1342653Y2182342D01*
X1343022Y2181510D01*
X1343392Y2180678D01*
X1343762Y2180123D01*
X1344039Y2179568D01*
X1344317Y2179198D01*
X1344502Y2178921D01*
X1344594Y2178829D01*
X1344687Y2178736D01*
X1345519Y2177996D01*
X1346443Y2177349D01*
X1348477Y2176332D01*
X1350604Y2175593D01*
X1352823Y2175130D01*
X1354857Y2174760D01*
X1355689Y2174668D01*
X1356521D01*
X1357076Y2174576D01*
X1358000D01*
X1359942Y2174668D01*
X1361699Y2174945D01*
X1363363Y2175223D01*
X1364657Y2175685D01*
X1365767Y2176055D01*
X1366599Y2176332D01*
X1367061Y2176610D01*
X1367246Y2176702D01*
X1368540Y2177534D01*
X1369650Y2178551D01*
X1370574Y2179568D01*
X1371222Y2180493D01*
X1371776Y2181417D01*
X1372239Y2182064D01*
X1372423Y2182527D01*
X1372516Y2182712D01*
X1372793Y2183544D01*
X1372978Y2184376D01*
X1373348Y2186317D01*
X1373625Y2188351D01*
X1373810Y2190386D01*
X1373903Y2192142D01*
Y2192974D01*
X1373995Y2193621D01*
Y2194176D01*
Y2194638D01*
Y2194916D01*
Y2195008D01*
Y2231991D01*
X1382501D01*
Y2195008D01*
D02*
G37*
G36*
X6657710Y1747944D02*
X6658727Y1746464D01*
X6659929Y1744985D01*
X6661038Y1743691D01*
X6662148Y1742581D01*
X6662980Y1741657D01*
X6663350Y1741379D01*
X6663627Y1741102D01*
X6663720Y1741009D01*
X6663812Y1740917D01*
X6665754Y1739345D01*
X6667695Y1737866D01*
X6669544Y1736572D01*
X6671394Y1735555D01*
X6672965Y1734630D01*
X6673613Y1734260D01*
X6674167Y1733983D01*
X6674630Y1733705D01*
X6674999Y1733613D01*
X6675184Y1733428D01*
X6675277D01*
Y1725847D01*
X6673890Y1726401D01*
X6672503Y1727049D01*
X6671116Y1727696D01*
X6669822Y1728343D01*
X6668712Y1728898D01*
X6667788Y1729360D01*
X6667233Y1729730D01*
X6667141Y1729822D01*
X6667048D01*
X6665384Y1730839D01*
X6663905Y1731856D01*
X6662610Y1732781D01*
X6661593Y1733613D01*
X6660669Y1734260D01*
X6660114Y1734815D01*
X6659652Y1735185D01*
X6659559Y1735277D01*
Y1685259D01*
X6651700D01*
Y1749515D01*
X6656786D01*
X6657710Y1747944D01*
D02*
G37*
G36*
X6737500Y1741657D02*
X6716420D01*
Y1685259D01*
X6707914D01*
Y1741657D01*
X6686834D01*
Y1749238D01*
X6737500D01*
Y1741657D01*
D02*
G37*
G36*
X6658905Y1034648D02*
X6661401Y1034186D01*
X6663528Y1033446D01*
X6665377Y1032707D01*
X6666209Y1032245D01*
X6666856Y1031875D01*
X6667504Y1031505D01*
X6667966Y1031135D01*
X6668336Y1030858D01*
X6668613Y1030673D01*
X6668798Y1030580D01*
X6668890Y1030488D01*
X6670647Y1028731D01*
X6672034Y1026790D01*
X6673143Y1024756D01*
X6674068Y1022722D01*
X6674623Y1020965D01*
X6674900Y1020225D01*
X6675085Y1019578D01*
X6675177Y1019023D01*
X6675270Y1018654D01*
X6675362Y1018376D01*
Y1018284D01*
X6667504Y1016897D01*
X6667134Y1018931D01*
X6666579Y1020688D01*
X6665932Y1022167D01*
X6665285Y1023369D01*
X6664637Y1024293D01*
X6664083Y1024941D01*
X6663713Y1025403D01*
X6663620Y1025495D01*
X6662418Y1026420D01*
X6661124Y1027159D01*
X6659922Y1027622D01*
X6658720Y1027992D01*
X6657611Y1028177D01*
X6656779Y1028361D01*
X6656039D01*
X6654375Y1028269D01*
X6652896Y1027899D01*
X6651601Y1027437D01*
X6650492Y1026975D01*
X6649660Y1026420D01*
X6649012Y1025958D01*
X6648550Y1025588D01*
X6648458Y1025495D01*
X6647441Y1024386D01*
X6646701Y1023184D01*
X6646239Y1021982D01*
X6645869Y1020872D01*
X6645684Y1019855D01*
X6645499Y1019116D01*
Y1018561D01*
Y1018469D01*
Y1018376D01*
Y1017359D01*
X6645684Y1016435D01*
X6646146Y1014863D01*
X6646793Y1013476D01*
X6647533Y1012274D01*
X6648273Y1011442D01*
X6648920Y1010795D01*
X6649382Y1010425D01*
X6649475Y1010332D01*
X6649567D01*
X6651139Y1009500D01*
X6652618Y1008853D01*
X6654190Y1008391D01*
X6655577Y1008114D01*
X6656779Y1007929D01*
X6657796Y1007744D01*
X6658998D01*
X6659367Y1007836D01*
X6659830D01*
X6660754Y1000902D01*
X6659552Y1001179D01*
X6658443Y1001364D01*
X6657518Y1001549D01*
X6656686Y1001642D01*
X6656039Y1001734D01*
X6655207D01*
X6653265Y1001549D01*
X6651509Y1001179D01*
X6649937Y1000625D01*
X6648643Y999977D01*
X6647626Y999330D01*
X6646886Y998775D01*
X6646424Y998406D01*
X6646239Y998221D01*
X6645037Y996834D01*
X6644112Y995355D01*
X6643465Y993875D01*
X6643095Y992396D01*
X6642818Y991194D01*
X6642725Y990177D01*
X6642633Y989807D01*
Y989530D01*
Y989345D01*
Y989253D01*
X6642818Y987218D01*
X6643280Y985369D01*
X6643835Y983798D01*
X6644574Y982411D01*
X6645314Y981301D01*
X6645869Y980469D01*
X6646331Y979914D01*
X6646516Y979730D01*
X6647995Y978435D01*
X6649567Y977511D01*
X6651139Y976863D01*
X6652618Y976401D01*
X6653913Y976124D01*
X6654930Y976031D01*
X6655299Y975939D01*
X6655854D01*
X6657518Y976031D01*
X6659090Y976401D01*
X6660477Y976863D01*
X6661586Y977418D01*
X6662511Y977880D01*
X6663251Y978343D01*
X6663620Y978713D01*
X6663805Y978805D01*
X6664915Y980099D01*
X6665839Y981579D01*
X6666671Y983150D01*
X6667319Y984815D01*
X6667781Y986201D01*
X6667966Y986849D01*
X6668058Y987403D01*
X6668151Y987866D01*
X6668243Y988236D01*
X6668336Y988420D01*
Y988513D01*
X6676194Y987496D01*
X6676010Y986017D01*
X6675732Y984630D01*
X6674900Y982041D01*
X6673883Y979822D01*
X6673328Y978897D01*
X6672774Y977973D01*
X6672219Y977141D01*
X6671664Y976494D01*
X6671202Y975846D01*
X6670740Y975384D01*
X6670462Y975014D01*
X6670185Y974737D01*
X6670000Y974552D01*
X6669907Y974460D01*
X6668798Y973627D01*
X6667688Y972795D01*
X6666579Y972148D01*
X6665377Y971593D01*
X6663066Y970669D01*
X6660847Y970114D01*
X6659830Y969929D01*
X6658905Y969744D01*
X6658073Y969652D01*
X6657333Y969559D01*
X6656779Y969467D01*
X6655947D01*
X6654190Y969559D01*
X6652618Y969744D01*
X6651046Y970022D01*
X6649567Y970392D01*
X6648180Y970854D01*
X6646978Y971316D01*
X6645776Y971871D01*
X6644759Y972426D01*
X6643742Y972888D01*
X6642910Y973443D01*
X6642171Y973905D01*
X6641616Y974367D01*
X6641154Y974737D01*
X6640784Y975014D01*
X6640599Y975199D01*
X6640506Y975292D01*
X6639397Y976401D01*
X6638472Y977603D01*
X6637640Y978805D01*
X6636901Y980007D01*
X6636346Y981116D01*
X6635791Y982318D01*
X6635052Y984537D01*
X6634867Y985554D01*
X6634682Y986479D01*
X6634497Y987311D01*
X6634404Y988051D01*
X6634312Y988605D01*
Y989068D01*
Y989345D01*
Y989437D01*
X6634404Y991656D01*
X6634774Y993690D01*
X6635329Y995447D01*
X6635884Y996926D01*
X6636438Y998128D01*
X6636993Y999053D01*
X6637363Y999608D01*
X6637455Y999793D01*
X6638750Y1001179D01*
X6640137Y1002381D01*
X6641616Y1003306D01*
X6643095Y1004045D01*
X6644390Y1004600D01*
X6645407Y1004970D01*
X6645776Y1005063D01*
X6646054Y1005155D01*
X6646239Y1005247D01*
X6646331D01*
X6644759Y1006080D01*
X6643465Y1006912D01*
X6642356Y1007836D01*
X6641431Y1008668D01*
X6640691Y1009408D01*
X6640137Y1010055D01*
X6639859Y1010425D01*
X6639767Y1010610D01*
X6639027Y1011904D01*
X6638472Y1013199D01*
X6638010Y1014493D01*
X6637733Y1015695D01*
X6637548Y1016712D01*
X6637455Y1017452D01*
Y1018006D01*
Y1018191D01*
X6637548Y1019763D01*
X6637825Y1021335D01*
X6638195Y1022722D01*
X6638657Y1023924D01*
X6639120Y1024941D01*
X6639489Y1025773D01*
X6639767Y1026235D01*
X6639859Y1026420D01*
X6640784Y1027807D01*
X6641893Y1029009D01*
X6643003Y1030026D01*
X6644112Y1030950D01*
X6645037Y1031597D01*
X6645869Y1032152D01*
X6646424Y1032429D01*
X6646516Y1032522D01*
X6646608D01*
X6648273Y1033262D01*
X6649937Y1033816D01*
X6651601Y1034279D01*
X6653080Y1034556D01*
X6654282Y1034741D01*
X6655299Y1034833D01*
X6657611D01*
X6658905Y1034648D01*
D02*
G37*
G36*
X6732500Y1026975D02*
X6711420D01*
Y970576D01*
X6702914D01*
Y1026975D01*
X6681834D01*
Y1034556D01*
X6732500D01*
Y1026975D01*
D02*
G37*
G36*
X6674278Y2357840D02*
X6675850Y2357747D01*
X6677330Y2357470D01*
X6678716Y2357193D01*
X6680011Y2356823D01*
X6681213Y2356453D01*
X6682322Y2355991D01*
X6683339Y2355528D01*
X6684264Y2355066D01*
X6685003Y2354604D01*
X6685651Y2354234D01*
X6686205Y2353864D01*
X6686668Y2353587D01*
X6686945Y2353309D01*
X6687130Y2353217D01*
X6687222Y2353125D01*
X6688147Y2352200D01*
X6688979Y2351183D01*
X6689811Y2350074D01*
X6690458Y2348964D01*
X6691568Y2346745D01*
X6692307Y2344526D01*
X6692585Y2343509D01*
X6692862Y2342492D01*
X6693047Y2341660D01*
X6693232Y2340920D01*
X6693324Y2340273D01*
Y2339811D01*
X6693417Y2339534D01*
Y2339441D01*
X6685373Y2338609D01*
X6685188Y2340735D01*
X6684818Y2342585D01*
X6684264Y2344249D01*
X6683617Y2345543D01*
X6683062Y2346653D01*
X6682507Y2347392D01*
X6682137Y2347855D01*
X6681952Y2348039D01*
X6680566Y2349149D01*
X6679086Y2349981D01*
X6677514Y2350628D01*
X6676128Y2350998D01*
X6674833Y2351275D01*
X6673724Y2351368D01*
X6673354Y2351460D01*
X6672799D01*
X6670858Y2351368D01*
X6669101Y2350998D01*
X6667622Y2350443D01*
X6666327Y2349889D01*
X6665310Y2349241D01*
X6664663Y2348779D01*
X6664201Y2348409D01*
X6664016Y2348224D01*
X6662906Y2346930D01*
X6662074Y2345636D01*
X6661427Y2344341D01*
X6661057Y2343047D01*
X6660780Y2342030D01*
X6660687Y2341105D01*
X6660595Y2340551D01*
Y2340458D01*
Y2340366D01*
X6660780Y2338701D01*
X6661150Y2336945D01*
X6661797Y2335373D01*
X6662444Y2333894D01*
X6663184Y2332692D01*
X6663831Y2331675D01*
X6664016Y2331305D01*
X6664201Y2331028D01*
X6664386Y2330935D01*
Y2330843D01*
X6665125Y2329826D01*
X6666050Y2328809D01*
X6667067Y2327699D01*
X6668176Y2326590D01*
X6670488Y2324371D01*
X6672799Y2322152D01*
X6674001Y2321135D01*
X6675018Y2320210D01*
X6676035Y2319378D01*
X6676867Y2318638D01*
X6677514Y2318084D01*
X6678069Y2317621D01*
X6678439Y2317344D01*
X6678531Y2317252D01*
X6680843Y2315310D01*
X6682969Y2313461D01*
X6684726Y2311797D01*
X6686113Y2310410D01*
X6687315Y2309208D01*
X6688147Y2308376D01*
X6688609Y2307821D01*
X6688794Y2307729D01*
Y2307636D01*
X6690088Y2306064D01*
X6691105Y2304585D01*
X6692030Y2303106D01*
X6692770Y2301811D01*
X6693324Y2300702D01*
X6693694Y2299870D01*
X6693879Y2299315D01*
X6693972Y2299223D01*
Y2299130D01*
X6694341Y2298113D01*
X6694526Y2297189D01*
X6694711Y2296264D01*
X6694804Y2295432D01*
X6694896Y2294692D01*
Y2294138D01*
Y2293768D01*
Y2293675D01*
X6652459D01*
Y2301257D01*
X6683986D01*
X6682877Y2302829D01*
X6682322Y2303476D01*
X6681860Y2304123D01*
X6681398Y2304678D01*
X6681028Y2305047D01*
X6680750Y2305325D01*
X6680658Y2305417D01*
X6680196Y2305880D01*
X6679641Y2306342D01*
X6678347Y2307544D01*
X6676867Y2308931D01*
X6675296Y2310317D01*
X6673816Y2311519D01*
X6673169Y2312074D01*
X6672614Y2312629D01*
X6672152Y2312999D01*
X6671782Y2313276D01*
X6671597Y2313461D01*
X6671505Y2313553D01*
X6670026Y2314848D01*
X6668546Y2316050D01*
X6667252Y2317252D01*
X6666050Y2318269D01*
X6664940Y2319286D01*
X6664016Y2320210D01*
X6663091Y2321042D01*
X6662352Y2321782D01*
X6661612Y2322522D01*
X6661057Y2323076D01*
X6660595Y2323539D01*
X6660133Y2324001D01*
X6659670Y2324556D01*
X6659486Y2324741D01*
X6658191Y2326312D01*
X6657082Y2327699D01*
X6656157Y2329086D01*
X6655417Y2330195D01*
X6654863Y2331213D01*
X6654493Y2331952D01*
X6654308Y2332414D01*
X6654216Y2332599D01*
X6653661Y2333986D01*
X6653291Y2335373D01*
X6652921Y2336667D01*
X6652736Y2337777D01*
X6652644Y2338794D01*
X6652551Y2339534D01*
Y2339996D01*
Y2340181D01*
X6652644Y2341568D01*
X6652829Y2342862D01*
X6653014Y2344156D01*
X6653383Y2345266D01*
X6654308Y2347485D01*
X6655233Y2349241D01*
X6655787Y2350074D01*
X6656250Y2350721D01*
X6656712Y2351368D01*
X6657174Y2351830D01*
X6657544Y2352200D01*
X6657729Y2352570D01*
X6657914Y2352662D01*
X6658006Y2352755D01*
X6659023Y2353679D01*
X6660133Y2354511D01*
X6661335Y2355159D01*
X6662537Y2355713D01*
X6664940Y2356638D01*
X6667344Y2357285D01*
X6668361Y2357470D01*
X6669378Y2357655D01*
X6670303Y2357747D01*
X6671043Y2357840D01*
X6671690Y2357932D01*
X6672614D01*
X6674278Y2357840D01*
D02*
G37*
G36*
X6750000Y2350074D02*
X6728920D01*
Y2293675D01*
X6720414D01*
Y2350074D01*
X6699334D01*
Y2357655D01*
X6750000D01*
Y2350074D01*
D02*
G37*
G36*
X3212426Y1278920D02*
X3268824D01*
Y1270414D01*
X3212426D01*
Y1249334D01*
X3204845D01*
Y1300000D01*
X3212426D01*
Y1278920D01*
D02*
G37*
G36*
X3253477Y1218638D02*
X3268824D01*
Y1210780D01*
X3253477D01*
Y1202089D01*
X3246265D01*
Y1210780D01*
X3204845D01*
Y1217159D01*
X3246265Y1246468D01*
X3253477D01*
Y1218638D01*
D02*
G37*
G36*
X1962651Y5594909D02*
X1964592Y5594539D01*
X1966349Y5594169D01*
X1967921Y5593614D01*
X1969123Y5593152D01*
X1970047Y5592690D01*
X1970417Y5592597D01*
X1970694Y5592412D01*
X1970787Y5592320D01*
X1970879D01*
X1972451Y5591211D01*
X1973930Y5589916D01*
X1975132Y5588622D01*
X1976149Y5587327D01*
X1976981Y5586125D01*
X1977536Y5585201D01*
X1977721Y5584831D01*
X1977906Y5584554D01*
X1977998Y5584461D01*
Y5584369D01*
X1978923Y5582427D01*
X1979570Y5580393D01*
X1980032Y5578544D01*
X1980310Y5576787D01*
X1980587Y5575308D01*
Y5574753D01*
X1980680Y5574199D01*
Y5573736D01*
Y5573459D01*
Y5573274D01*
Y5573182D01*
X1980587Y5571517D01*
X1980402Y5569946D01*
X1980125Y5568374D01*
X1979847Y5566987D01*
X1979385Y5565693D01*
X1978923Y5564398D01*
X1978461Y5563289D01*
X1977906Y5562272D01*
X1977351Y5561347D01*
X1976889Y5560515D01*
X1976427Y5559868D01*
X1975964Y5559221D01*
X1975687Y5558759D01*
X1975410Y5558481D01*
X1975225Y5558296D01*
X1975132Y5558204D01*
X1974115Y5557187D01*
X1973006Y5556262D01*
X1971804Y5555523D01*
X1970694Y5554875D01*
X1969585Y5554228D01*
X1968475Y5553766D01*
X1966349Y5553119D01*
X1965424Y5552841D01*
X1964500Y5552656D01*
X1963760Y5552564D01*
X1963020Y5552471D01*
X1962466Y5552379D01*
X1961726D01*
X1960062Y5552471D01*
X1958490Y5552749D01*
X1957011Y5553026D01*
X1955716Y5553396D01*
X1954607Y5553858D01*
X1953775Y5554136D01*
X1953220Y5554413D01*
X1953128Y5554506D01*
X1953035D01*
X1951556Y5555430D01*
X1950262Y5556447D01*
X1949060Y5557464D01*
X1948135Y5558574D01*
X1947303Y5559498D01*
X1946656Y5560238D01*
X1946286Y5560793D01*
X1946193Y5560885D01*
Y5559221D01*
X1946286Y5557557D01*
X1946378Y5556077D01*
X1946563Y5554598D01*
X1946656Y5553304D01*
X1946841Y5552102D01*
X1947026Y5550992D01*
X1947303Y5549975D01*
X1947488Y5549051D01*
X1947673Y5548311D01*
X1947858Y5547664D01*
X1947950Y5547109D01*
X1948135Y5546739D01*
X1948227Y5546462D01*
X1948320Y5546277D01*
Y5546184D01*
X1949245Y5544335D01*
X1950169Y5542671D01*
X1951186Y5541377D01*
X1952111Y5540267D01*
X1952943Y5539343D01*
X1953590Y5538696D01*
X1954052Y5538326D01*
X1954237Y5538233D01*
X1955347Y5537494D01*
X1956456Y5537031D01*
X1957566Y5536662D01*
X1958675Y5536384D01*
X1959507Y5536199D01*
X1960247Y5536107D01*
X1960894D01*
X1962558Y5536292D01*
X1964130Y5536662D01*
X1965424Y5537216D01*
X1966626Y5537771D01*
X1967551Y5538418D01*
X1968198Y5538973D01*
X1968568Y5539343D01*
X1968753Y5539528D01*
X1969400Y5540360D01*
X1970047Y5541377D01*
X1970602Y5542486D01*
X1970972Y5543596D01*
X1971341Y5544613D01*
X1971619Y5545445D01*
X1971711Y5546000D01*
X1971804Y5546092D01*
Y5546184D01*
X1979663Y5545537D01*
X1979108Y5542949D01*
X1978276Y5540637D01*
X1977351Y5538603D01*
X1976334Y5536939D01*
X1975317Y5535645D01*
X1974947Y5535090D01*
X1974485Y5534627D01*
X1974208Y5534350D01*
X1973930Y5534073D01*
X1973838Y5533980D01*
X1973745Y5533888D01*
X1972821Y5533148D01*
X1971804Y5532501D01*
X1969770Y5531392D01*
X1967736Y5530652D01*
X1965794Y5530190D01*
X1964037Y5529820D01*
X1963298Y5529727D01*
X1962651D01*
X1962096Y5529635D01*
X1961356D01*
X1959507Y5529727D01*
X1957750Y5529912D01*
X1956086Y5530282D01*
X1954515Y5530744D01*
X1953128Y5531392D01*
X1951741Y5531946D01*
X1950539Y5532686D01*
X1949429Y5533333D01*
X1948505Y5533980D01*
X1947580Y5534720D01*
X1946841Y5535275D01*
X1946286Y5535829D01*
X1945824Y5536384D01*
X1945454Y5536754D01*
X1945269Y5536939D01*
X1945176Y5537031D01*
X1943975Y5538696D01*
X1942958Y5540637D01*
X1942033Y5542671D01*
X1941201Y5544798D01*
X1940554Y5547017D01*
X1939999Y5549236D01*
X1939537Y5551547D01*
X1939167Y5553673D01*
X1938889Y5555800D01*
X1938705Y5557741D01*
X1938520Y5559498D01*
X1938427Y5560977D01*
Y5562272D01*
X1938335Y5563196D01*
Y5563566D01*
Y5563844D01*
Y5563936D01*
Y5564028D01*
X1938427Y5566987D01*
X1938612Y5569761D01*
X1938889Y5572350D01*
X1939352Y5574753D01*
X1939814Y5576880D01*
X1940276Y5578821D01*
X1940831Y5580578D01*
X1941478Y5582150D01*
X1942033Y5583444D01*
X1942588Y5584646D01*
X1943050Y5585571D01*
X1943605Y5586403D01*
X1943975Y5587050D01*
X1944252Y5587420D01*
X1944437Y5587697D01*
X1944529Y5587790D01*
X1945731Y5589084D01*
X1947026Y5590194D01*
X1948320Y5591118D01*
X1949614Y5591950D01*
X1951001Y5592690D01*
X1952296Y5593245D01*
X1953590Y5593707D01*
X1954884Y5594077D01*
X1955994Y5594354D01*
X1957103Y5594631D01*
X1958028Y5594816D01*
X1958860Y5594909D01*
X1959600D01*
X1960062Y5595001D01*
X1960524D01*
X1962651Y5594909D01*
D02*
G37*
G36*
X1906068Y5594816D02*
X1907547Y5594631D01*
X1908934Y5594447D01*
X1910321Y5594169D01*
X1911522Y5593892D01*
X1912632Y5593614D01*
X1913649Y5593245D01*
X1914574Y5592875D01*
X1915313Y5592597D01*
X1916053Y5592320D01*
X1916608Y5592043D01*
X1917070Y5591765D01*
X1917347Y5591673D01*
X1917532Y5591488D01*
X1917625D01*
X1919659Y5590101D01*
X1921323Y5588529D01*
X1922617Y5587050D01*
X1923727Y5585571D01*
X1924559Y5584276D01*
X1925113Y5583259D01*
X1925298Y5582890D01*
X1925483Y5582612D01*
X1925576Y5582427D01*
Y5582335D01*
X1925946Y5581225D01*
X1926315Y5580023D01*
X1926870Y5577527D01*
X1927240Y5574938D01*
X1927517Y5572442D01*
X1927610Y5571333D01*
X1927702Y5570223D01*
Y5569298D01*
X1927795Y5568466D01*
Y5567819D01*
Y5567357D01*
Y5566987D01*
Y5566895D01*
Y5529912D01*
X1919289D01*
Y5566895D01*
Y5569021D01*
X1919104Y5571055D01*
X1918919Y5572812D01*
X1918642Y5574476D01*
X1918364Y5575955D01*
X1917994Y5577342D01*
X1917717Y5578544D01*
X1917347Y5579561D01*
X1916977Y5580393D01*
X1916608Y5581225D01*
X1916238Y5581780D01*
X1915960Y5582335D01*
X1915683Y5582705D01*
X1915498Y5582982D01*
X1915406Y5583074D01*
X1915313Y5583167D01*
X1914481Y5583907D01*
X1913556Y5584554D01*
X1911522Y5585571D01*
X1909396Y5586310D01*
X1907177Y5586773D01*
X1905143Y5587142D01*
X1904311Y5587235D01*
X1903479D01*
X1902924Y5587327D01*
X1901999D01*
X1900058Y5587235D01*
X1898301Y5586958D01*
X1896637Y5586680D01*
X1895343Y5586218D01*
X1894233Y5585848D01*
X1893401Y5585571D01*
X1892939Y5585293D01*
X1892754Y5585201D01*
X1891460Y5584369D01*
X1890350Y5583352D01*
X1889425Y5582335D01*
X1888778Y5581410D01*
X1888224Y5580486D01*
X1887761Y5579838D01*
X1887576Y5579376D01*
X1887484Y5579191D01*
X1887207Y5578359D01*
X1887022Y5577527D01*
X1886652Y5575585D01*
X1886374Y5573551D01*
X1886190Y5571517D01*
X1886097Y5569761D01*
Y5568929D01*
X1886005Y5568281D01*
Y5567727D01*
Y5567264D01*
Y5566987D01*
Y5566895D01*
Y5529912D01*
X1877499D01*
Y5566895D01*
Y5568744D01*
X1877591Y5570500D01*
X1877684Y5572165D01*
X1877868Y5573736D01*
X1878053Y5575123D01*
X1878238Y5576418D01*
X1878516Y5577620D01*
X1878701Y5578729D01*
X1878885Y5579746D01*
X1879163Y5580578D01*
X1879348Y5581318D01*
X1879533Y5581873D01*
X1879718Y5582335D01*
X1879810Y5582705D01*
X1879903Y5582890D01*
Y5582982D01*
X1880920Y5585016D01*
X1882214Y5586865D01*
X1883508Y5588344D01*
X1884895Y5589639D01*
X1886097Y5590656D01*
X1887114Y5591395D01*
X1887484Y5591580D01*
X1887761Y5591765D01*
X1887946Y5591950D01*
X1888039D01*
X1890350Y5592967D01*
X1892754Y5593707D01*
X1895250Y5594262D01*
X1897562Y5594631D01*
X1898579Y5594724D01*
X1899596Y5594816D01*
X1900520Y5594909D01*
X1901260D01*
X1901907Y5595001D01*
X1902739D01*
X1906068Y5594816D01*
D02*
G37*
G36*
X2779396Y6304909D02*
X2781152Y6304724D01*
X2782816Y6304539D01*
X2784388Y6304169D01*
X2785867Y6303707D01*
X2787254Y6303245D01*
X2788549Y6302782D01*
X2789751Y6302228D01*
X2790768Y6301765D01*
X2791785Y6301303D01*
X2792524Y6300841D01*
X2793264Y6300379D01*
X2793726Y6300009D01*
X2794188Y6299824D01*
X2794373Y6299639D01*
X2794466Y6299546D01*
X2795760Y6298437D01*
X2796870Y6297328D01*
X2797887Y6296033D01*
X2798904Y6294739D01*
X2800568Y6292150D01*
X2801862Y6289561D01*
X2802417Y6288359D01*
X2802879Y6287250D01*
X2803249Y6286233D01*
X2803527Y6285401D01*
X2803804Y6284661D01*
X2803989Y6284106D01*
X2804081Y6283736D01*
Y6283644D01*
X2795575Y6281518D01*
X2795205Y6282997D01*
X2794743Y6284384D01*
X2794281Y6285678D01*
X2793819Y6286880D01*
X2793264Y6287989D01*
X2792709Y6288914D01*
X2792062Y6289839D01*
X2791507Y6290671D01*
X2791045Y6291410D01*
X2790490Y6291965D01*
X2790028Y6292520D01*
X2789658Y6292982D01*
X2789288Y6293259D01*
X2789011Y6293537D01*
X2788918Y6293629D01*
X2788826Y6293722D01*
X2787901Y6294461D01*
X2786884Y6295016D01*
X2784850Y6296033D01*
X2782909Y6296773D01*
X2780967Y6297235D01*
X2779303Y6297605D01*
X2778656Y6297697D01*
X2778009D01*
X2777454Y6297790D01*
X2776807D01*
X2774680Y6297697D01*
X2772646Y6297328D01*
X2770797Y6296865D01*
X2769133Y6296310D01*
X2767839Y6295756D01*
X2767284Y6295478D01*
X2766821Y6295293D01*
X2766452Y6295109D01*
X2766174Y6294924D01*
X2765989Y6294831D01*
X2765897D01*
X2764140Y6293537D01*
X2762661Y6292150D01*
X2761367Y6290578D01*
X2760350Y6289099D01*
X2759517Y6287805D01*
X2758963Y6286695D01*
X2758778Y6286233D01*
X2758593Y6285955D01*
X2758500Y6285771D01*
Y6285678D01*
X2757761Y6283274D01*
X2757206Y6280870D01*
X2756744Y6278466D01*
X2756466Y6276248D01*
X2756374Y6275231D01*
X2756282Y6274306D01*
Y6273474D01*
X2756189Y6272827D01*
Y6272272D01*
Y6271810D01*
Y6271532D01*
Y6271440D01*
X2756282Y6269036D01*
X2756466Y6266817D01*
X2756836Y6264783D01*
X2757206Y6262934D01*
X2757483Y6261362D01*
X2757668Y6260715D01*
X2757853Y6260160D01*
X2757946Y6259698D01*
X2758038Y6259421D01*
X2758131Y6259236D01*
Y6259143D01*
X2759055Y6257017D01*
X2760072Y6255075D01*
X2761182Y6253503D01*
X2762384Y6252117D01*
X2763401Y6251007D01*
X2764233Y6250267D01*
X2764880Y6249805D01*
X2764972Y6249620D01*
X2765065D01*
X2767006Y6248418D01*
X2769133Y6247494D01*
X2771167Y6246847D01*
X2773108Y6246477D01*
X2774865Y6246199D01*
X2775605Y6246107D01*
X2776252D01*
X2776714Y6246014D01*
X2777454D01*
X2779765Y6246107D01*
X2781892Y6246477D01*
X2783648Y6247031D01*
X2785220Y6247586D01*
X2786422Y6248233D01*
X2787347Y6248696D01*
X2787901Y6249065D01*
X2788086Y6249250D01*
X2789566Y6250637D01*
X2790953Y6252209D01*
X2792062Y6253873D01*
X2792987Y6255537D01*
X2793726Y6257017D01*
X2794004Y6257756D01*
X2794188Y6258311D01*
X2794373Y6258773D01*
X2794558Y6259143D01*
X2794651Y6259328D01*
Y6259421D01*
X2802972Y6257479D01*
X2802417Y6255815D01*
X2801862Y6254335D01*
X2801123Y6252949D01*
X2800475Y6251562D01*
X2799736Y6250360D01*
X2798904Y6249250D01*
X2798164Y6248141D01*
X2797424Y6247216D01*
X2796685Y6246477D01*
X2796038Y6245737D01*
X2795390Y6245090D01*
X2794928Y6244628D01*
X2794466Y6244165D01*
X2794096Y6243888D01*
X2793911Y6243795D01*
X2793819Y6243703D01*
X2792524Y6242871D01*
X2791230Y6242039D01*
X2789935Y6241392D01*
X2788549Y6240837D01*
X2785775Y6240005D01*
X2783279Y6239450D01*
X2782077Y6239173D01*
X2781060Y6239080D01*
X2780043Y6238988D01*
X2779211Y6238895D01*
X2778563Y6238803D01*
X2777639D01*
X2774588Y6238988D01*
X2771629Y6239450D01*
X2769040Y6240005D01*
X2767839Y6240375D01*
X2766729Y6240744D01*
X2765712Y6241114D01*
X2764787Y6241484D01*
X2764048Y6241761D01*
X2763308Y6242039D01*
X2762846Y6242316D01*
X2762476Y6242501D01*
X2762199Y6242594D01*
X2762106Y6242686D01*
X2759610Y6244258D01*
X2757483Y6246107D01*
X2755634Y6247956D01*
X2754063Y6249805D01*
X2752861Y6251469D01*
X2752398Y6252209D01*
X2752029Y6252856D01*
X2751659Y6253318D01*
X2751474Y6253688D01*
X2751381Y6253966D01*
X2751289Y6254058D01*
X2749995Y6256924D01*
X2749070Y6259883D01*
X2748423Y6262841D01*
X2747960Y6265523D01*
X2747776Y6266725D01*
X2747683Y6267927D01*
X2747591Y6268851D01*
Y6269776D01*
X2747498Y6270423D01*
Y6270978D01*
Y6271347D01*
Y6271440D01*
X2747683Y6274768D01*
X2748053Y6278004D01*
X2748515Y6280870D01*
X2748885Y6282257D01*
X2749162Y6283459D01*
X2749440Y6284569D01*
X2749810Y6285586D01*
X2750087Y6286510D01*
X2750272Y6287250D01*
X2750549Y6287805D01*
X2750642Y6288267D01*
X2750827Y6288544D01*
Y6288637D01*
X2752213Y6291410D01*
X2753785Y6293907D01*
X2755449Y6296033D01*
X2756282Y6296865D01*
X2757021Y6297697D01*
X2757761Y6298437D01*
X2758500Y6299084D01*
X2759148Y6299639D01*
X2759702Y6300009D01*
X2760072Y6300379D01*
X2760442Y6300656D01*
X2760627Y6300748D01*
X2760719Y6300841D01*
X2762014Y6301580D01*
X2763308Y6302228D01*
X2766082Y6303245D01*
X2768856Y6303984D01*
X2771537Y6304447D01*
X2772831Y6304632D01*
X2773941Y6304816D01*
X2774958Y6304909D01*
X2775790D01*
X2776529Y6305001D01*
X2777546D01*
X2779396Y6304909D01*
D02*
G37*
G36*
X2852621Y6296310D02*
X2821093D01*
X2822203Y6294739D01*
X2822757Y6294092D01*
X2823220Y6293444D01*
X2823682Y6292890D01*
X2824052Y6292520D01*
X2824329Y6292242D01*
X2824422Y6292150D01*
X2824884Y6291688D01*
X2825439Y6291225D01*
X2826733Y6290023D01*
X2828212Y6288637D01*
X2829784Y6287250D01*
X2831263Y6286048D01*
X2831911Y6285493D01*
X2832465Y6284938D01*
X2832928Y6284569D01*
X2833297Y6284291D01*
X2833482Y6284106D01*
X2833575Y6284014D01*
X2835054Y6282719D01*
X2836533Y6281518D01*
X2837828Y6280316D01*
X2839030Y6279299D01*
X2840139Y6278282D01*
X2841064Y6277357D01*
X2841988Y6276525D01*
X2842728Y6275785D01*
X2843468Y6275046D01*
X2844022Y6274491D01*
X2844485Y6274029D01*
X2844947Y6273566D01*
X2845409Y6273012D01*
X2845594Y6272827D01*
X2846888Y6271255D01*
X2847998Y6269868D01*
X2848922Y6268481D01*
X2849662Y6267372D01*
X2850217Y6266355D01*
X2850587Y6265615D01*
X2850772Y6265153D01*
X2850864Y6264968D01*
X2851419Y6263581D01*
X2851789Y6262194D01*
X2852158Y6260900D01*
X2852343Y6259790D01*
X2852436Y6258773D01*
X2852528Y6258034D01*
Y6257571D01*
Y6257387D01*
X2852436Y6256000D01*
X2852251Y6254705D01*
X2852066Y6253411D01*
X2851696Y6252301D01*
X2850772Y6250082D01*
X2849847Y6248326D01*
X2849292Y6247494D01*
X2848830Y6246847D01*
X2848368Y6246199D01*
X2847905Y6245737D01*
X2847536Y6245367D01*
X2847351Y6244997D01*
X2847166Y6244905D01*
X2847073Y6244813D01*
X2846056Y6243888D01*
X2844947Y6243056D01*
X2843745Y6242409D01*
X2842543Y6241854D01*
X2840139Y6240929D01*
X2837735Y6240282D01*
X2836718Y6240097D01*
X2835701Y6239912D01*
X2834777Y6239820D01*
X2834037Y6239727D01*
X2833390Y6239635D01*
X2832465D01*
X2830801Y6239727D01*
X2829229Y6239820D01*
X2827750Y6240097D01*
X2826363Y6240375D01*
X2825069Y6240744D01*
X2823867Y6241114D01*
X2822757Y6241577D01*
X2821740Y6242039D01*
X2820816Y6242501D01*
X2820076Y6242963D01*
X2819429Y6243333D01*
X2818874Y6243703D01*
X2818412Y6243980D01*
X2818135Y6244258D01*
X2817950Y6244350D01*
X2817857Y6244443D01*
X2816933Y6245367D01*
X2816101Y6246384D01*
X2815268Y6247494D01*
X2814621Y6248603D01*
X2813512Y6250822D01*
X2812772Y6253041D01*
X2812495Y6254058D01*
X2812217Y6255075D01*
X2812032Y6255907D01*
X2811848Y6256647D01*
X2811755Y6257294D01*
Y6257756D01*
X2811663Y6258034D01*
Y6258126D01*
X2819706Y6258958D01*
X2819891Y6256832D01*
X2820261Y6254983D01*
X2820816Y6253318D01*
X2821463Y6252024D01*
X2822018Y6250915D01*
X2822572Y6250175D01*
X2822942Y6249713D01*
X2823127Y6249528D01*
X2824514Y6248418D01*
X2825993Y6247586D01*
X2827565Y6246939D01*
X2828952Y6246569D01*
X2830246Y6246292D01*
X2831356Y6246199D01*
X2831726Y6246107D01*
X2832280D01*
X2834222Y6246199D01*
X2835979Y6246569D01*
X2837458Y6247124D01*
X2838752Y6247679D01*
X2839769Y6248326D01*
X2840416Y6248788D01*
X2840879Y6249158D01*
X2841064Y6249343D01*
X2842173Y6250637D01*
X2843005Y6251932D01*
X2843652Y6253226D01*
X2844022Y6254520D01*
X2844300Y6255537D01*
X2844392Y6256462D01*
X2844485Y6257017D01*
Y6257109D01*
Y6257202D01*
X2844300Y6258866D01*
X2843930Y6260622D01*
X2843283Y6262194D01*
X2842635Y6263674D01*
X2841896Y6264875D01*
X2841249Y6265892D01*
X2841064Y6266262D01*
X2840879Y6266540D01*
X2840694Y6266632D01*
Y6266725D01*
X2839954Y6267742D01*
X2839030Y6268759D01*
X2838013Y6269868D01*
X2836903Y6270978D01*
X2834592Y6273196D01*
X2832280Y6275415D01*
X2831078Y6276432D01*
X2830061Y6277357D01*
X2829044Y6278189D01*
X2828212Y6278929D01*
X2827565Y6279484D01*
X2827010Y6279946D01*
X2826641Y6280223D01*
X2826548Y6280316D01*
X2824237Y6282257D01*
X2822110Y6284106D01*
X2820354Y6285771D01*
X2818967Y6287157D01*
X2817765Y6288359D01*
X2816933Y6289191D01*
X2816470Y6289746D01*
X2816285Y6289839D01*
Y6289931D01*
X2814991Y6291503D01*
X2813974Y6292982D01*
X2813049Y6294461D01*
X2812310Y6295756D01*
X2811755Y6296865D01*
X2811385Y6297697D01*
X2811200Y6298252D01*
X2811108Y6298345D01*
Y6298437D01*
X2810738Y6299454D01*
X2810553Y6300379D01*
X2810368Y6301303D01*
X2810276Y6302135D01*
X2810183Y6302875D01*
Y6303430D01*
Y6303799D01*
Y6303892D01*
X2852621D01*
Y6296310D01*
D02*
G37*
G36*
X2878878Y6300379D02*
X2879340Y6297143D01*
X2879803Y6294184D01*
X2880080Y6292797D01*
X2880357Y6291503D01*
X2880542Y6290393D01*
X2880820Y6289376D01*
X2881005Y6288452D01*
X2881190Y6287712D01*
X2881374Y6287157D01*
X2881467Y6286695D01*
X2881559Y6286418D01*
Y6286325D01*
X2882946Y6282072D01*
X2884426Y6278097D01*
X2885165Y6276155D01*
X2885905Y6274306D01*
X2886737Y6272642D01*
X2887477Y6270978D01*
X2888124Y6269498D01*
X2888771Y6268204D01*
X2889326Y6267094D01*
X2889788Y6266077D01*
X2890250Y6265245D01*
X2890528Y6264691D01*
X2890713Y6264321D01*
X2890805Y6264228D01*
X2891914Y6262287D01*
X2893024Y6260345D01*
X2894133Y6258588D01*
X2895243Y6256924D01*
X2896260Y6255445D01*
X2897277Y6253966D01*
X2898294Y6252671D01*
X2899126Y6251562D01*
X2899958Y6250452D01*
X2900698Y6249528D01*
X2901437Y6248788D01*
X2901992Y6248141D01*
X2902362Y6247586D01*
X2902732Y6247216D01*
X2902917Y6247031D01*
X2903009Y6246939D01*
Y6240744D01*
X2861589D01*
Y6248326D01*
X2892931D01*
X2890713Y6251007D01*
X2888586Y6253873D01*
X2886737Y6256647D01*
X2884980Y6259328D01*
X2884241Y6260530D01*
X2883593Y6261639D01*
X2882946Y6262657D01*
X2882484Y6263489D01*
X2882114Y6264228D01*
X2881837Y6264691D01*
X2881652Y6265060D01*
X2881559Y6265153D01*
X2879710Y6268851D01*
X2878046Y6272549D01*
X2876659Y6276063D01*
X2876104Y6277634D01*
X2875550Y6279206D01*
X2874995Y6280593D01*
X2874625Y6281887D01*
X2874255Y6282997D01*
X2873978Y6283921D01*
X2873701Y6284753D01*
X2873516Y6285308D01*
X2873423Y6285678D01*
Y6285771D01*
X2872499Y6289561D01*
X2872129Y6291410D01*
X2871852Y6293075D01*
X2871574Y6294646D01*
X2871297Y6296218D01*
X2871112Y6297512D01*
X2870927Y6298807D01*
X2870834Y6299916D01*
X2870742Y6300933D01*
X2870650Y6301858D01*
Y6302598D01*
X2870557Y6303152D01*
Y6303522D01*
Y6303799D01*
Y6303892D01*
X2878601D01*
X2878878Y6300379D01*
D02*
G37*
%LPC*%
G36*
X3246265Y1238794D02*
X3217604Y1218638D01*
X3246265D01*
Y1238794D01*
D02*
G37*
G36*
X1960894Y5588529D02*
X1960432D01*
X1959137Y5588437D01*
X1957935Y5588252D01*
X1956826Y5587882D01*
X1955901Y5587512D01*
X1955069Y5587235D01*
X1954422Y5586865D01*
X1954052Y5586680D01*
X1953867Y5586588D01*
X1952758Y5585756D01*
X1951833Y5584924D01*
X1951001Y5583907D01*
X1950354Y5583074D01*
X1949799Y5582242D01*
X1949429Y5581595D01*
X1949152Y5581133D01*
X1949060Y5580948D01*
X1948505Y5579561D01*
X1948135Y5578174D01*
X1947765Y5576880D01*
X1947580Y5575678D01*
X1947488Y5574661D01*
X1947395Y5573829D01*
Y5573367D01*
Y5573182D01*
X1947580Y5570963D01*
X1947950Y5569021D01*
X1948597Y5567264D01*
X1949245Y5565878D01*
X1949892Y5564676D01*
X1950539Y5563844D01*
X1950909Y5563381D01*
X1951094Y5563196D01*
X1952573Y5561902D01*
X1954052Y5560977D01*
X1955624Y5560238D01*
X1957011Y5559776D01*
X1958305Y5559498D01*
X1959230Y5559406D01*
X1959600Y5559313D01*
X1960154D01*
X1962096Y5559498D01*
X1963853Y5559960D01*
X1965332Y5560515D01*
X1966626Y5561255D01*
X1967643Y5561994D01*
X1968383Y5562549D01*
X1968845Y5563011D01*
X1969030Y5563196D01*
X1970232Y5564768D01*
X1971157Y5566432D01*
X1971804Y5568189D01*
X1972174Y5569853D01*
X1972451Y5571333D01*
X1972543Y5571980D01*
Y5572534D01*
X1972636Y5572997D01*
Y5573367D01*
Y5573551D01*
Y5573644D01*
X1972451Y5576140D01*
X1972081Y5578267D01*
X1971526Y5580116D01*
X1970879Y5581688D01*
X1970140Y5582890D01*
X1969585Y5583814D01*
X1969215Y5584369D01*
X1969030Y5584461D01*
Y5584554D01*
X1968383Y5585293D01*
X1967643Y5585848D01*
X1966164Y5586865D01*
X1964685Y5587512D01*
X1963390Y5588067D01*
X1962188Y5588344D01*
X1961264Y5588437D01*
X1960894Y5588529D01*
D02*
G37*
%LPD*%
D62*
X1142500Y2403403D02*
X1622500D01*
X1142500Y1930403D02*
Y2403403D01*
Y1930403D02*
X1622500D01*
Y2403403D01*
X6504589Y1899083D02*
X6970410D01*
X6504589Y1509083D02*
Y1899083D01*
Y1509083D02*
X6970410D01*
Y1899083D01*
X6499589Y1183292D02*
X6965411D01*
X6499589Y793291D02*
Y1183292D01*
Y793291D02*
X6965411D01*
Y1183292D01*
X6517089Y2507500D02*
X6982911D01*
X6517089Y2117500D02*
Y2507500D01*
Y2117500D02*
X6982911D01*
Y2507500D01*
X3055000Y1067089D02*
Y1532911D01*
Y1067089D02*
X3445000D01*
Y1532911D01*
X3055000D02*
X3445000D01*
X1522000Y5320000D02*
X2233000D01*
Y5870000D01*
X1522000D02*
X2233000D01*
X1522000Y5320000D02*
Y5870000D01*
X2607500Y6220000D02*
X2887500D01*
Y6390000D01*
X2607500D02*
X2887500D01*
X2607500Y6220000D02*
Y6390000D01*
D98*
X7193800Y1546683D02*
Y1851483D01*
X7346200Y1546683D02*
Y1851483D01*
X7193800D02*
X7346200D01*
X7193800Y1546683D02*
X7346200D01*
X6273700Y1529183D02*
Y1833983D01*
X6121300Y1529183D02*
Y1833983D01*
Y1529183D02*
X6273700D01*
X6121300Y1833983D02*
X6273700D01*
X5171300Y3535100D02*
Y3839900D01*
X5323700Y3535100D02*
Y3839900D01*
X5171300D02*
X5323700D01*
X5171300Y3535100D02*
X5323700D01*
X7887600Y1626200D02*
X8192400D01*
X7887600Y1473800D02*
X8192400D01*
Y1626200D01*
X7887600Y1473800D02*
Y1626200D01*
X8566300Y1290100D02*
Y1594900D01*
X8718700Y1290100D02*
Y1594900D01*
X8566300D02*
X8718700D01*
X8566300Y1290100D02*
X8718700D01*
X8566300Y920100D02*
Y1224900D01*
X8718700Y920100D02*
Y1224900D01*
X8566300D02*
X8718700D01*
X8566300Y920100D02*
X8718700D01*
X8568800Y1662600D02*
Y1967400D01*
X8721200Y1662600D02*
Y1967400D01*
X8568800D02*
X8721200D01*
X8568800Y1662600D02*
X8721200D01*
X7887600Y1246200D02*
X8192400D01*
X7887600Y1093800D02*
X8192400D01*
Y1246200D01*
X7887600Y1093800D02*
Y1246200D01*
X6351316Y6352400D02*
X6503716D01*
X6351316Y6047600D02*
X6503716D01*
X6351316D02*
Y6352400D01*
X6503716Y6047600D02*
Y6352400D01*
X6158816Y6050100D02*
X6311216D01*
X6158816Y6354900D02*
X6311216D01*
Y6050100D02*
Y6354900D01*
X6158816Y6050100D02*
Y6354900D01*
X5056300Y4722400D02*
X5208700D01*
X5056300Y4417600D02*
X5208700D01*
X5056300D02*
Y4722400D01*
X5208700Y4417600D02*
Y4722400D01*
X5947700Y5624700D02*
Y5777100D01*
X5642900Y5624700D02*
Y5777100D01*
X5947700D01*
X5642900Y5624700D02*
X5947700D01*
Y5077200D02*
Y5229600D01*
X5642900Y5077200D02*
Y5229600D01*
X5947700D01*
X5642900Y5077200D02*
X5947700D01*
X2476284Y712500D02*
X2628684D01*
X2476284Y1017300D02*
X2628684D01*
Y712500D02*
Y1017300D01*
X2476284Y712500D02*
Y1017300D01*
X2263800Y712500D02*
X2416200D01*
X2263800Y1017300D02*
X2416200D01*
Y712500D02*
Y1017300D01*
X2263800Y712500D02*
Y1017300D01*
X2632400Y1646200D02*
Y1798600D01*
X2327600Y1646200D02*
Y1798600D01*
X2632400D01*
X2327600Y1646200D02*
X2632400D01*
X2629900Y1268700D02*
Y1421100D01*
X2325100Y1268700D02*
Y1421100D01*
X2629900D01*
X2325100Y1268700D02*
X2629900D01*
X7001300Y830891D02*
X7153700D01*
X7001300Y1135691D02*
X7153700D01*
Y830891D02*
Y1135691D01*
X7001300Y830891D02*
Y1135691D01*
X7188784Y830891D02*
X7341184D01*
X7188784Y1135691D02*
X7341184D01*
Y830891D02*
Y1135691D01*
X7188784Y830891D02*
Y1135691D01*
X6308800Y1524183D02*
X6461200D01*
X6308800Y1828983D02*
X6461200D01*
Y1524183D02*
Y1828983D01*
X6308800Y1524183D02*
Y1828983D01*
X6313800Y843391D02*
X6466200D01*
X6313800Y1148191D02*
X6466200D01*
Y843391D02*
Y1148191D01*
X6313800Y843391D02*
Y1148191D01*
X6128800D02*
X6281200D01*
X6128800Y843391D02*
X6281200D01*
X6128800D02*
Y1148191D01*
X6281200Y843391D02*
Y1148191D01*
X6318800Y2157600D02*
X6471200D01*
X6318800Y2462400D02*
X6471200D01*
Y2157600D02*
Y2462400D01*
X6318800Y2157600D02*
Y2462400D01*
X6138800D02*
X6291200D01*
X6138800Y2157600D02*
X6291200D01*
X6138800D02*
Y2462400D01*
X6291200Y2157600D02*
Y2462400D01*
X7003800Y1541683D02*
X7156200D01*
X7003800Y1846483D02*
X7156200D01*
Y1541683D02*
Y1846483D01*
X7003800Y1541683D02*
Y1846483D01*
X7013800Y2150100D02*
X7166200D01*
X7013800Y2454900D02*
X7166200D01*
Y2150100D02*
Y2454900D01*
X7013800Y2150100D02*
Y2454900D01*
X7198800Y2150891D02*
X7351200D01*
X7198800Y2455691D02*
X7351200D01*
Y2150891D02*
Y2455691D01*
X7198800Y2150891D02*
Y2455691D01*
X3394900Y881300D02*
Y1033700D01*
X3090100Y881300D02*
Y1033700D01*
X3394900D01*
X3090100Y881300D02*
X3394900D01*
X3087600Y693800D02*
Y846200D01*
X3392400Y693800D02*
Y846200D01*
X3087600Y693800D02*
X3392400D01*
X3087600Y846200D02*
X3392400D01*
X3407400Y1563800D02*
Y1716200D01*
X3102600Y1563800D02*
Y1716200D01*
X3407400D01*
X3102600Y1563800D02*
X3407400D01*
X3409900Y1753800D02*
Y1906200D01*
X3105100Y1753800D02*
Y1906200D01*
X3409900D01*
X3105100Y1753800D02*
X3409900D01*
X8332400Y5641300D02*
Y5793700D01*
X8027600Y5641300D02*
Y5793700D01*
X8332400D01*
X8027600Y5641300D02*
X8332400D01*
X8329900Y5063800D02*
Y5216200D01*
X8025100Y5063800D02*
Y5216200D01*
X8329900D01*
X8025100Y5063800D02*
X8329900D01*
X8339900Y5346300D02*
Y5498700D01*
X8035100Y5346300D02*
Y5498700D01*
X8339900D01*
X8035100Y5346300D02*
X8339900D01*
X8332400Y4741300D02*
Y4893700D01*
X8027600Y4741300D02*
Y4893700D01*
X8332400D01*
X8027600Y4741300D02*
X8332400D01*
Y4441300D02*
Y4593700D01*
X8027600Y4441300D02*
Y4593700D01*
X8332400D01*
X8027600Y4441300D02*
X8332400D01*
Y4141300D02*
Y4293700D01*
X8027600Y4141300D02*
Y4293700D01*
X8332400D01*
X8027600Y4141300D02*
X8332400D01*
Y3841300D02*
Y3993700D01*
X8027600Y3841300D02*
Y3993700D01*
X8332400D01*
X8027600Y3841300D02*
X8332400D01*
X3857584Y2273816D02*
Y2426216D01*
X4162384Y2273816D02*
Y2426216D01*
X3857584Y2273816D02*
X4162384D01*
X3857584Y2426216D02*
X4162384D01*
X4237584Y2376300D02*
Y2528700D01*
X4542384Y2376300D02*
Y2528700D01*
X4237584Y2376300D02*
X4542384D01*
X4237584Y2528700D02*
X4542384D01*
X5105100Y2243800D02*
Y2396200D01*
X5409900Y2243800D02*
Y2396200D01*
X5105100Y2243800D02*
X5409900D01*
X5105100Y2396200D02*
X5409900D01*
X5485100Y2341300D02*
Y2493700D01*
X5789900Y2341300D02*
Y2493700D01*
X5485100Y2341300D02*
X5789900D01*
X5485100Y2493700D02*
X5789900D01*
X4534884Y1846284D02*
Y1998684D01*
X4230084Y1846284D02*
Y1998684D01*
X4534884D01*
X4230084Y1846284D02*
X4534884D01*
X4403784Y1814900D02*
X4556184D01*
X4403784Y1510100D02*
X4556184D01*
X4403784D02*
Y1814900D01*
X4556184Y1510100D02*
Y1814900D01*
X4235084Y2198800D02*
Y2351200D01*
X4539884Y2198800D02*
Y2351200D01*
X4235084Y2198800D02*
X4539884D01*
X4235084Y2351200D02*
X4539884D01*
X5480100Y2161300D02*
Y2313700D01*
X5784900Y2161300D02*
Y2313700D01*
X5480100Y2161300D02*
X5784900D01*
X5480100Y2313700D02*
X5784900D01*
X5663800Y1769899D02*
X5816200D01*
X5663800Y1465099D02*
X5816200D01*
X5663800D02*
Y1769899D01*
X5816200Y1465099D02*
Y1769899D01*
X5784900Y1816300D02*
Y1968700D01*
X5480100Y1816300D02*
Y1968700D01*
X5784900D01*
X5480100Y1816300D02*
X5784900D01*
X5061300Y1047600D02*
X5213700D01*
X5061300Y1352400D02*
X5213700D01*
Y1047600D02*
Y1352400D01*
X5061300Y1047600D02*
Y1352400D01*
X5261284Y1047600D02*
X5413684D01*
X5261284Y1352400D02*
X5413684D01*
Y1047600D02*
Y1352400D01*
X5261284Y1047600D02*
Y1352400D01*
X3828784Y1067600D02*
X3981184D01*
X3828784Y1372400D02*
X3981184D01*
Y1067600D02*
Y1372400D01*
X3828784Y1067600D02*
Y1372400D01*
X4006284Y1067600D02*
X4158684D01*
X4006284Y1372400D02*
X4158684D01*
Y1067600D02*
Y1372400D01*
X4006284Y1067600D02*
Y1372400D01*
X2500100Y3836300D02*
Y3988700D01*
X2804900Y3836300D02*
Y3988700D01*
X2500100Y3836300D02*
X2804900D01*
X2500100Y3988700D02*
X2804900D01*
X5950200Y5262200D02*
Y5414600D01*
X5645400Y5262200D02*
Y5414600D01*
X5950200D01*
X5645400Y5262200D02*
X5950200D01*
X5947700Y5444700D02*
Y5597100D01*
X5642900Y5444700D02*
Y5597100D01*
X5947700D01*
X5642900Y5444700D02*
X5947700D01*
X8235100Y2571300D02*
Y2723700D01*
X8539900Y2571300D02*
Y2723700D01*
X8235100Y2571300D02*
X8539900D01*
X8235100Y2723700D02*
X8539900D01*
X8227600Y2901300D02*
Y3053700D01*
X8532400Y2901300D02*
Y3053700D01*
X8227600Y2901300D02*
X8532400D01*
X8227600Y3053700D02*
X8532400D01*
X8230100Y3243800D02*
Y3396200D01*
X8534900Y3243800D02*
Y3396200D01*
X8230100Y3243800D02*
X8534900D01*
X8230100Y3396200D02*
X8534900D01*
X8204900Y2253800D02*
Y2406200D01*
X7900100Y2253800D02*
Y2406200D01*
X8204900D01*
X7900100Y2253800D02*
X8204900D01*
X7885100Y1831300D02*
Y1983700D01*
X8189900Y1831300D02*
Y1983700D01*
X7885100Y1831300D02*
X8189900D01*
X7885100Y1983700D02*
X8189900D01*
X3921300Y6437400D02*
X4073700D01*
X3921300Y6132600D02*
X4073700D01*
X3921300D02*
Y6437400D01*
X4073700Y6132600D02*
Y6437400D01*
X4251300Y6444900D02*
X4403700D01*
X4251300Y6140100D02*
X4403700D01*
X4251300D02*
Y6444900D01*
X4403700Y6140100D02*
Y6444900D01*
X4229900Y5016300D02*
Y5168700D01*
X3925100Y5016300D02*
Y5168700D01*
X4229900D01*
X3925100Y5016300D02*
X4229900D01*
X1702600Y4956300D02*
Y5108700D01*
X2007400Y4956300D02*
Y5108700D01*
X1702600Y4956300D02*
X2007400D01*
X1702600Y5108700D02*
X2007400D01*
X1755100Y6093800D02*
Y6246200D01*
X2059900Y6093800D02*
Y6246200D01*
X1755100Y6093800D02*
X2059900D01*
X1755100Y6246200D02*
X2059900D01*
X1752600Y5901316D02*
Y6053716D01*
X2057400Y5901316D02*
Y6053716D01*
X1752600Y5901316D02*
X2057400D01*
X1752600Y6053716D02*
X2057400D01*
X2542400Y4888800D02*
Y5041200D01*
X2237600Y4888800D02*
Y5041200D01*
X2542400D01*
X2237600Y4888800D02*
X2542400D01*
X1705100Y5133800D02*
Y5286200D01*
X2009900Y5133800D02*
Y5286200D01*
X1705100Y5133800D02*
X2009900D01*
X1705100Y5286200D02*
X2009900D01*
X2351300Y5612600D02*
X2503700D01*
X2351300Y5917400D02*
X2503700D01*
Y5612600D02*
Y5917400D01*
X2351300Y5612600D02*
Y5917400D01*
X1165100Y5523800D02*
Y5676200D01*
X1469900Y5523800D02*
Y5676200D01*
X1165100Y5523800D02*
X1469900D01*
X1165100Y5676200D02*
X1469900D01*
X3893800Y5605100D02*
X4046200D01*
X3893800Y5909900D02*
X4046200D01*
Y5605100D02*
Y5909900D01*
X3893800Y5605100D02*
Y5909900D01*
X1022500Y2935000D02*
X1257500D01*
X1022500Y3405000D02*
X1257500D01*
Y2935000D02*
Y3405000D01*
X1022500Y2935000D02*
Y3405000D01*
X7235000Y1601583D02*
X7304977D01*
Y1636572D01*
X7293314Y1648235D01*
X7269989D01*
X7258326Y1636572D01*
Y1601583D01*
Y1624909D02*
X7235000Y1648235D01*
Y1671561D02*
Y1694886D01*
Y1683223D01*
X7304977D01*
X7293314Y1671561D01*
Y1729875D02*
X7304977Y1741538D01*
Y1764864D01*
X7293314Y1776527D01*
X7281651D01*
X7269989Y1764864D01*
X7258326Y1776527D01*
X7246663D01*
X7235000Y1764864D01*
Y1741538D01*
X7246663Y1729875D01*
X7258326D01*
X7269989Y1741538D01*
X7281651Y1729875D01*
X7293314D01*
X7269989Y1741538D02*
Y1764864D01*
X6232500Y1779083D02*
X6162522D01*
Y1744094D01*
X6174185Y1732431D01*
X6197511D01*
X6209174Y1744094D01*
Y1779083D01*
Y1755757D02*
X6232500Y1732431D01*
Y1662454D02*
Y1709105D01*
X6185848Y1662454D01*
X6174185D01*
X6162522Y1674117D01*
Y1697442D01*
X6174185Y1709105D01*
X5212500Y3590000D02*
X5282478D01*
Y3624989D01*
X5270815Y3636652D01*
X5247489D01*
X5235826Y3624989D01*
Y3590000D01*
Y3613326D02*
X5212500Y3636652D01*
X5270815Y3659977D02*
X5282478Y3671640D01*
Y3694966D01*
X5270815Y3706629D01*
X5259152D01*
X5247489Y3694966D01*
Y3683303D01*
Y3694966D01*
X5235826Y3706629D01*
X5224163D01*
X5212500Y3694966D01*
Y3671640D01*
X5224163Y3659977D01*
X5282478Y3776607D02*
Y3729955D01*
X5247489D01*
X5259152Y3753281D01*
Y3764944D01*
X5247489Y3776607D01*
X5224163D01*
X5212500Y3764944D01*
Y3741618D01*
X5224163Y3729955D01*
X7942500Y1585000D02*
Y1515022D01*
X7977488D01*
X7989151Y1526685D01*
Y1550011D01*
X7977488Y1561674D01*
X7942500D01*
X7965826D02*
X7989151Y1585000D01*
X8059129Y1515022D02*
X8012477D01*
Y1550011D01*
X8035803Y1538348D01*
X8047466D01*
X8059129Y1550011D01*
Y1573337D01*
X8047466Y1585000D01*
X8024140D01*
X8012477Y1573337D01*
X8082455Y1526685D02*
X8094118Y1515022D01*
X8117444D01*
X8129106Y1526685D01*
Y1538348D01*
X8117444Y1550011D01*
X8129106Y1561674D01*
Y1573337D01*
X8117444Y1585000D01*
X8094118D01*
X8082455Y1573337D01*
Y1561674D01*
X8094118Y1550011D01*
X8082455Y1538348D01*
Y1526685D01*
X8094118Y1550011D02*
X8117444D01*
X8607500Y1345000D02*
X8677477D01*
Y1379989D01*
X8665815Y1391652D01*
X8642489D01*
X8630826Y1379989D01*
Y1345000D01*
Y1368326D02*
X8607500Y1391652D01*
X8677477Y1461629D02*
X8665815Y1438303D01*
X8642489Y1414977D01*
X8619163D01*
X8607500Y1426640D01*
Y1449966D01*
X8619163Y1461629D01*
X8630826D01*
X8642489Y1449966D01*
Y1414977D01*
X8677477Y1531607D02*
Y1484955D01*
X8642489D01*
X8654152Y1508281D01*
Y1519944D01*
X8642489Y1531607D01*
X8619163D01*
X8607500Y1519944D01*
Y1496618D01*
X8619163Y1484955D01*
X8607500Y975000D02*
X8677477D01*
Y1009989D01*
X8665815Y1021651D01*
X8642489D01*
X8630826Y1009989D01*
Y975000D01*
Y998326D02*
X8607500Y1021651D01*
X8677477Y1091629D02*
X8665815Y1068303D01*
X8642489Y1044977D01*
X8619163D01*
X8607500Y1056640D01*
Y1079966D01*
X8619163Y1091629D01*
X8630826D01*
X8642489Y1079966D01*
Y1044977D01*
X8677477Y1161607D02*
X8665815Y1138281D01*
X8642489Y1114955D01*
X8619163D01*
X8607500Y1126618D01*
Y1149944D01*
X8619163Y1161607D01*
X8630826D01*
X8642489Y1149944D01*
Y1114955D01*
X8610000Y1717500D02*
X8679978D01*
Y1752488D01*
X8668315Y1764151D01*
X8644989D01*
X8633326Y1752488D01*
Y1717500D01*
Y1740826D02*
X8610000Y1764151D01*
X8679978Y1834129D02*
X8668315Y1810803D01*
X8644989Y1787477D01*
X8621663D01*
X8610000Y1799140D01*
Y1822466D01*
X8621663Y1834129D01*
X8633326D01*
X8644989Y1822466D01*
Y1787477D01*
X8679978Y1857455D02*
Y1904106D01*
X8668315D01*
X8621663Y1857455D01*
X8610000D01*
X7942500Y1205000D02*
Y1135022D01*
X7977488D01*
X7989151Y1146685D01*
Y1170011D01*
X7977488Y1181674D01*
X7942500D01*
X7965826D02*
X7989151Y1205000D01*
X8059129Y1135022D02*
X8012477D01*
Y1170011D01*
X8035803Y1158348D01*
X8047466D01*
X8059129Y1170011D01*
Y1193337D01*
X8047466Y1205000D01*
X8024140D01*
X8012477Y1193337D01*
X8082455Y1146685D02*
X8094118Y1135022D01*
X8117444D01*
X8129106Y1146685D01*
Y1158348D01*
X8117444Y1170011D01*
X8105781D01*
X8117444D01*
X8129106Y1181674D01*
Y1193337D01*
X8117444Y1205000D01*
X8094118D01*
X8082455Y1193337D01*
X6462516Y6297500D02*
X6392539D01*
Y6262511D01*
X6404202Y6250848D01*
X6427527D01*
X6439190Y6262511D01*
Y6297500D01*
Y6274174D02*
X6462516Y6250848D01*
X6392539Y6180871D02*
X6404202Y6204197D01*
X6427527Y6227522D01*
X6450853D01*
X6462516Y6215860D01*
Y6192534D01*
X6450853Y6180871D01*
X6439190D01*
X6427527Y6192534D01*
Y6227522D01*
X6462516Y6157545D02*
Y6134219D01*
Y6145882D01*
X6392539D01*
X6404202Y6157545D01*
X6200016Y6105000D02*
X6269994D01*
Y6139989D01*
X6258331Y6151652D01*
X6235005D01*
X6223342Y6139989D01*
Y6105000D01*
Y6128326D02*
X6200016Y6151652D01*
X6269994Y6221629D02*
Y6174978D01*
X6235005D01*
X6246668Y6198304D01*
Y6209966D01*
X6235005Y6221629D01*
X6211679D01*
X6200016Y6209966D01*
Y6186641D01*
X6211679Y6174978D01*
X6200016Y6279944D02*
X6269994D01*
X6235005Y6244955D01*
Y6291607D01*
X5167500Y4667500D02*
X5097522D01*
Y4632511D01*
X5109185Y4620848D01*
X5132511D01*
X5144174Y4632511D01*
Y4667500D01*
Y4644174D02*
X5167500Y4620848D01*
X5097522Y4550871D02*
Y4597522D01*
X5132511D01*
X5120848Y4574197D01*
Y4562534D01*
X5132511Y4550871D01*
X5155837D01*
X5167500Y4562534D01*
Y4585860D01*
X5155837Y4597522D01*
X5167500Y4527545D02*
Y4504219D01*
Y4515882D01*
X5097522D01*
X5109185Y4527545D01*
X5892800Y5665901D02*
Y5735878D01*
X5857812D01*
X5846149Y5724215D01*
Y5700889D01*
X5857812Y5689226D01*
X5892800D01*
X5869474D02*
X5846149Y5665901D01*
X5787834D02*
Y5735878D01*
X5822823Y5700889D01*
X5776171D01*
X5752845Y5735878D02*
X5706194D01*
Y5724215D01*
X5752845Y5677563D01*
Y5665901D01*
X5892800Y5118400D02*
Y5188378D01*
X5857812D01*
X5846149Y5176715D01*
Y5153389D01*
X5857812Y5141726D01*
X5892800D01*
X5869474D02*
X5846149Y5118400D01*
X5787834D02*
Y5188378D01*
X5822823Y5153389D01*
X5776171D01*
X5752845Y5176715D02*
X5741182Y5188378D01*
X5717856D01*
X5706194Y5176715D01*
Y5165052D01*
X5717856Y5153389D01*
X5706194Y5141726D01*
Y5130063D01*
X5717856Y5118400D01*
X5741182D01*
X5752845Y5130063D01*
Y5141726D01*
X5741182Y5153389D01*
X5752845Y5165052D01*
Y5176715D01*
X5741182Y5153389D02*
X5717856D01*
X2517484Y767400D02*
X2587461D01*
Y802389D01*
X2575798Y814052D01*
X2552472D01*
X2540809Y802389D01*
Y767400D01*
Y790726D02*
X2517484Y814052D01*
X2587461Y884029D02*
Y837378D01*
X2552472D01*
X2564135Y860703D01*
Y872366D01*
X2552472Y884029D01*
X2529147D01*
X2517484Y872366D01*
Y849040D01*
X2529147Y837378D01*
X2517484Y954007D02*
Y907355D01*
X2564135Y954007D01*
X2575798D01*
X2587461Y942344D01*
Y919018D01*
X2575798Y907355D01*
X2305000Y767400D02*
X2374978D01*
Y802389D01*
X2363315Y814052D01*
X2339989D01*
X2328326Y802389D01*
Y767400D01*
Y790726D02*
X2305000Y814052D01*
X2374978Y884029D02*
X2363315Y860703D01*
X2339989Y837378D01*
X2316663D01*
X2305000Y849040D01*
Y872366D01*
X2316663Y884029D01*
X2328326D01*
X2339989Y872366D01*
Y837378D01*
X2363315Y907355D02*
X2374978Y919018D01*
Y942344D01*
X2363315Y954007D01*
X2316663D01*
X2305000Y942344D01*
Y919018D01*
X2316663Y907355D01*
X2363315D01*
X2577500Y1687400D02*
Y1757377D01*
X2542511D01*
X2530848Y1745715D01*
Y1722389D01*
X2542511Y1710726D01*
X2577500D01*
X2554174D02*
X2530848Y1687400D01*
X2460871Y1757377D02*
X2484197Y1745715D01*
X2507523Y1722389D01*
Y1699063D01*
X2495860Y1687400D01*
X2472534D01*
X2460871Y1699063D01*
Y1710726D01*
X2472534Y1722389D01*
X2507523D01*
X2402556Y1687400D02*
Y1757377D01*
X2437545Y1722389D01*
X2390893D01*
X2575000Y1309900D02*
Y1379877D01*
X2540011D01*
X2528348Y1368214D01*
Y1344888D01*
X2540011Y1333225D01*
X2575000D01*
X2551674D02*
X2528348Y1309900D01*
X2458371Y1379877D02*
X2481697Y1368214D01*
X2505022Y1344888D01*
Y1321563D01*
X2493360Y1309900D01*
X2470034D01*
X2458371Y1321563D01*
Y1333225D01*
X2470034Y1344888D01*
X2505022D01*
X2435045Y1368214D02*
X2423382Y1379877D01*
X2400056D01*
X2388393Y1368214D01*
Y1356551D01*
X2400056Y1344888D01*
X2411719D01*
X2400056D01*
X2388393Y1333225D01*
Y1321563D01*
X2400056Y1309900D01*
X2423382D01*
X2435045Y1321563D01*
X7042500Y885791D02*
X7112478D01*
Y920780D01*
X7100815Y932443D01*
X7077489D01*
X7065826Y920780D01*
Y885791D01*
Y909117D02*
X7042500Y932443D01*
X7112478Y1002421D02*
Y955769D01*
X7077489D01*
X7089152Y979095D01*
Y990758D01*
X7077489Y1002421D01*
X7054163D01*
X7042500Y990758D01*
Y967432D01*
X7054163Y955769D01*
X7100815Y1025746D02*
X7112478Y1037409D01*
Y1060735D01*
X7100815Y1072398D01*
X7054163D01*
X7042500Y1060735D01*
Y1037409D01*
X7054163Y1025746D01*
X7100815D01*
X7229984Y885791D02*
X7299962D01*
Y920780D01*
X7288299Y932443D01*
X7264973D01*
X7253310Y920780D01*
Y885791D01*
Y909117D02*
X7229984Y932443D01*
Y990758D02*
X7299962D01*
X7264973Y955769D01*
Y1002421D01*
X7241647Y1025746D02*
X7229984Y1037409D01*
Y1060735D01*
X7241647Y1072398D01*
X7288299D01*
X7299962Y1060735D01*
Y1037409D01*
X7288299Y1025746D01*
X7276636D01*
X7264973Y1037409D01*
Y1072398D01*
X6350000Y1579083D02*
X6419977D01*
Y1614072D01*
X6408314Y1625735D01*
X6384989D01*
X6373326Y1614072D01*
Y1579083D01*
Y1602409D02*
X6350000Y1625735D01*
Y1649060D02*
Y1672386D01*
Y1660723D01*
X6419977D01*
X6408314Y1649060D01*
X6350000Y1707375D02*
Y1730701D01*
Y1719038D01*
X6419977D01*
X6408314Y1707375D01*
X6355000Y898291D02*
X6424978D01*
Y933280D01*
X6413315Y944943D01*
X6389989D01*
X6378326Y933280D01*
Y898291D01*
Y921617D02*
X6355000Y944943D01*
Y1003258D02*
X6424978D01*
X6389989Y968269D01*
Y1014921D01*
X6424978Y1084898D02*
X6413315Y1061572D01*
X6389989Y1038246D01*
X6366663D01*
X6355000Y1049909D01*
Y1073235D01*
X6366663Y1084898D01*
X6378326D01*
X6389989Y1073235D01*
Y1038246D01*
X6240000Y1093291D02*
X6170022D01*
Y1058302D01*
X6181685Y1046640D01*
X6205011D01*
X6216674Y1058302D01*
Y1093291D01*
Y1069965D02*
X6240000Y1046640D01*
X6181685Y1023314D02*
X6170022Y1011651D01*
Y988325D01*
X6181685Y976662D01*
X6193348D01*
X6205011Y988325D01*
Y999988D01*
Y988325D01*
X6216674Y976662D01*
X6228337D01*
X6240000Y988325D01*
Y1011651D01*
X6228337Y1023314D01*
X6170022Y906684D02*
X6181685Y930010D01*
X6205011Y953336D01*
X6228337D01*
X6240000Y941673D01*
Y918347D01*
X6228337Y906684D01*
X6216674D01*
X6205011Y918347D01*
Y953336D01*
X6360000Y2212500D02*
X6429978D01*
Y2247489D01*
X6418315Y2259152D01*
X6394989D01*
X6383326Y2247489D01*
Y2212500D01*
Y2235826D02*
X6360000Y2259152D01*
Y2329129D02*
Y2282478D01*
X6406652Y2329129D01*
X6418315D01*
X6429978Y2317466D01*
Y2294140D01*
X6418315Y2282478D01*
Y2352455D02*
X6429978Y2364118D01*
Y2387444D01*
X6418315Y2399107D01*
X6406652D01*
X6394989Y2387444D01*
X6383326Y2399107D01*
X6371663D01*
X6360000Y2387444D01*
Y2364118D01*
X6371663Y2352455D01*
X6383326D01*
X6394989Y2364118D01*
X6406652Y2352455D01*
X6418315D01*
X6394989Y2364118D02*
Y2387444D01*
X6250000Y2407500D02*
X6180022D01*
Y2372511D01*
X6191685Y2360848D01*
X6215011D01*
X6226674Y2372511D01*
Y2407500D01*
Y2384174D02*
X6250000Y2360848D01*
Y2290871D02*
Y2337522D01*
X6203348Y2290871D01*
X6191685D01*
X6180022Y2302534D01*
Y2325859D01*
X6191685Y2337522D01*
X6180022Y2220893D02*
Y2267545D01*
X6215011D01*
X6203348Y2244219D01*
Y2232556D01*
X6215011Y2220893D01*
X6238337D01*
X6250000Y2232556D01*
Y2255882D01*
X6238337Y2267545D01*
X7045000Y1596583D02*
X7114977D01*
Y1631572D01*
X7103314Y1643234D01*
X7079988D01*
X7068325Y1631572D01*
Y1596583D01*
Y1619909D02*
X7045000Y1643234D01*
Y1666560D02*
Y1689886D01*
Y1678223D01*
X7114977D01*
X7103314Y1666560D01*
X7056663Y1724875D02*
X7045000Y1736538D01*
Y1759864D01*
X7056663Y1771527D01*
X7103314D01*
X7114977Y1759864D01*
Y1736538D01*
X7103314Y1724875D01*
X7091651D01*
X7079988Y1736538D01*
Y1771527D01*
X7055000Y2205000D02*
X7124978D01*
Y2239989D01*
X7113315Y2251652D01*
X7089989D01*
X7078326Y2239989D01*
Y2205000D01*
Y2228326D02*
X7055000Y2251652D01*
X7113315Y2274977D02*
X7124978Y2286640D01*
Y2309966D01*
X7113315Y2321629D01*
X7101652D01*
X7089989Y2309966D01*
Y2298303D01*
Y2309966D01*
X7078326Y2321629D01*
X7066663D01*
X7055000Y2309966D01*
Y2286640D01*
X7066663Y2274977D01*
X7055000Y2379944D02*
X7124978D01*
X7089989Y2344955D01*
Y2391607D01*
X7240000Y2205791D02*
X7309978D01*
Y2240780D01*
X7298315Y2252443D01*
X7274989D01*
X7263326Y2240780D01*
Y2205791D01*
Y2229117D02*
X7240000Y2252443D01*
X7298315Y2275769D02*
X7309978Y2287432D01*
Y2310758D01*
X7298315Y2322421D01*
X7286652D01*
X7274989Y2310758D01*
Y2299095D01*
Y2310758D01*
X7263326Y2322421D01*
X7251663D01*
X7240000Y2310758D01*
Y2287432D01*
X7251663Y2275769D01*
X7298315Y2345746D02*
X7309978Y2357409D01*
Y2380735D01*
X7298315Y2392398D01*
X7286652D01*
X7274989Y2380735D01*
Y2369072D01*
Y2380735D01*
X7263326Y2392398D01*
X7251663D01*
X7240000Y2380735D01*
Y2357409D01*
X7251663Y2345746D01*
X3340000Y922500D02*
Y992477D01*
X3305011D01*
X3293348Y980814D01*
Y957489D01*
X3305011Y945826D01*
X3340000D01*
X3316674D02*
X3293348Y922500D01*
X3223371Y992477D02*
X3246697Y980814D01*
X3270022Y957489D01*
Y934163D01*
X3258359Y922500D01*
X3235034D01*
X3223371Y934163D01*
Y945826D01*
X3235034Y957489D01*
X3270022D01*
X3200045Y934163D02*
X3188382Y922500D01*
X3165056D01*
X3153393Y934163D01*
Y980814D01*
X3165056Y992477D01*
X3188382D01*
X3200045Y980814D01*
Y969151D01*
X3188382Y957489D01*
X3153393D01*
X3142500Y805000D02*
Y735022D01*
X3177489D01*
X3189152Y746685D01*
Y770011D01*
X3177489Y781674D01*
X3142500D01*
X3165826D02*
X3189152Y805000D01*
X3259129Y735022D02*
X3235804Y746685D01*
X3212478Y770011D01*
Y793337D01*
X3224141Y805000D01*
X3247466D01*
X3259129Y793337D01*
Y781674D01*
X3247466Y770011D01*
X3212478D01*
X3282455Y746685D02*
X3294118Y735022D01*
X3317444D01*
X3329107Y746685D01*
Y758348D01*
X3317444Y770011D01*
X3329107Y781674D01*
Y793337D01*
X3317444Y805000D01*
X3294118D01*
X3282455Y793337D01*
Y781674D01*
X3294118Y770011D01*
X3282455Y758348D01*
Y746685D01*
X3294118Y770011D02*
X3317444D01*
X3352500Y1605000D02*
Y1674977D01*
X3317511D01*
X3305848Y1663314D01*
Y1639989D01*
X3317511Y1628326D01*
X3352500D01*
X3329174D02*
X3305848Y1605000D01*
X3282522Y1674977D02*
X3235871D01*
Y1663314D01*
X3282522Y1616663D01*
Y1605000D01*
X3212545D02*
X3189219D01*
X3200882D01*
Y1674977D01*
X3212545Y1663314D01*
X3355000Y1795000D02*
Y1864977D01*
X3320011D01*
X3308348Y1853315D01*
Y1829989D01*
X3320011Y1818326D01*
X3355000D01*
X3331674D02*
X3308348Y1795000D01*
X3285022Y1864977D02*
X3238371D01*
Y1853315D01*
X3285022Y1806663D01*
Y1795000D01*
X3215045Y1853315D02*
X3203382Y1864977D01*
X3180056D01*
X3168393Y1853315D01*
Y1806663D01*
X3180056Y1795000D01*
X3203382D01*
X3215045Y1806663D01*
Y1853315D01*
X8277500Y5682500D02*
Y5752477D01*
X8242511D01*
X8230848Y5740815D01*
Y5717489D01*
X8242511Y5705826D01*
X8277500D01*
X8254174D02*
X8230848Y5682500D01*
X8172534D02*
Y5752477D01*
X8207523Y5717489D01*
X8160871D01*
X8137545Y5740815D02*
X8125882Y5752477D01*
X8102556D01*
X8090893Y5740815D01*
Y5729152D01*
X8102556Y5717489D01*
X8114219D01*
X8102556D01*
X8090893Y5705826D01*
Y5694163D01*
X8102556Y5682500D01*
X8125882D01*
X8137545Y5694163D01*
X8275000Y5105000D02*
Y5174977D01*
X8240011D01*
X8228349Y5163315D01*
Y5139989D01*
X8240011Y5128326D01*
X8275000D01*
X8251674D02*
X8228349Y5105000D01*
X8170034D02*
Y5174977D01*
X8205023Y5139989D01*
X8158371D01*
X8135045Y5105000D02*
X8111719D01*
X8123382D01*
Y5174977D01*
X8135045Y5163315D01*
X8285000Y5387500D02*
Y5457477D01*
X8250011D01*
X8238348Y5445814D01*
Y5422489D01*
X8250011Y5410826D01*
X8285000D01*
X8261674D02*
X8238348Y5387500D01*
X8180034D02*
Y5457477D01*
X8215022Y5422489D01*
X8168371D01*
X8098393Y5387500D02*
X8145045D01*
X8098393Y5434151D01*
Y5445814D01*
X8110056Y5457477D01*
X8133382D01*
X8145045Y5445814D01*
X8277500Y4782500D02*
Y4852477D01*
X8242511D01*
X8230848Y4840815D01*
Y4817489D01*
X8242511Y4805826D01*
X8277500D01*
X8254174D02*
X8230848Y4782500D01*
X8172534D02*
Y4852477D01*
X8207523Y4817489D01*
X8160871D01*
X8137545Y4840815D02*
X8125882Y4852477D01*
X8102556D01*
X8090893Y4840815D01*
Y4794163D01*
X8102556Y4782500D01*
X8125882D01*
X8137545Y4794163D01*
Y4840815D01*
X8277500Y4482500D02*
Y4552478D01*
X8242511D01*
X8230848Y4540815D01*
Y4517489D01*
X8242511Y4505826D01*
X8277500D01*
X8254174D02*
X8230848Y4482500D01*
X8207523Y4540815D02*
X8195860Y4552478D01*
X8172534D01*
X8160871Y4540815D01*
Y4529152D01*
X8172534Y4517489D01*
X8184197D01*
X8172534D01*
X8160871Y4505826D01*
Y4494163D01*
X8172534Y4482500D01*
X8195860D01*
X8207523Y4494163D01*
X8137545D02*
X8125882Y4482500D01*
X8102556D01*
X8090893Y4494163D01*
Y4540815D01*
X8102556Y4552478D01*
X8125882D01*
X8137545Y4540815D01*
Y4529152D01*
X8125882Y4517489D01*
X8090893D01*
X8277500Y4182500D02*
Y4252477D01*
X8242511D01*
X8230848Y4240814D01*
Y4217489D01*
X8242511Y4205826D01*
X8277500D01*
X8254174D02*
X8230848Y4182500D01*
X8207523Y4240814D02*
X8195860Y4252477D01*
X8172534D01*
X8160871Y4240814D01*
Y4229152D01*
X8172534Y4217489D01*
X8184197D01*
X8172534D01*
X8160871Y4205826D01*
Y4194163D01*
X8172534Y4182500D01*
X8195860D01*
X8207523Y4194163D01*
X8137545Y4240814D02*
X8125882Y4252477D01*
X8102556D01*
X8090893Y4240814D01*
Y4229152D01*
X8102556Y4217489D01*
X8090893Y4205826D01*
Y4194163D01*
X8102556Y4182500D01*
X8125882D01*
X8137545Y4194163D01*
Y4205826D01*
X8125882Y4217489D01*
X8137545Y4229152D01*
Y4240814D01*
X8125882Y4217489D02*
X8102556D01*
X8277500Y3882500D02*
Y3952477D01*
X8242511D01*
X8230848Y3940815D01*
Y3917489D01*
X8242511Y3905826D01*
X8277500D01*
X8254174D02*
X8230848Y3882500D01*
X8207523Y3940815D02*
X8195860Y3952477D01*
X8172534D01*
X8160871Y3940815D01*
Y3929152D01*
X8172534Y3917489D01*
X8184197D01*
X8172534D01*
X8160871Y3905826D01*
Y3894163D01*
X8172534Y3882500D01*
X8195860D01*
X8207523Y3894163D01*
X8137545Y3952477D02*
X8090893D01*
Y3940815D01*
X8137545Y3894163D01*
Y3882500D01*
X3912484Y2385016D02*
Y2315039D01*
X3947473D01*
X3959136Y2326702D01*
Y2350028D01*
X3947473Y2361690D01*
X3912484D01*
X3935810D02*
X3959136Y2385016D01*
X3982461D02*
X4005787D01*
X3994124D01*
Y2315039D01*
X3982461Y2326702D01*
X4040776Y2315039D02*
X4087428D01*
Y2326702D01*
X4040776Y2373353D01*
Y2385016D01*
X4292484Y2487500D02*
Y2417523D01*
X4327473D01*
X4339136Y2429186D01*
Y2452511D01*
X4327473Y2464174D01*
X4292484D01*
X4315810D02*
X4339136Y2487500D01*
X4362461D02*
X4385787D01*
X4374124D01*
Y2417523D01*
X4362461Y2429186D01*
X4420776D02*
X4432439Y2417523D01*
X4455765D01*
X4467428Y2429186D01*
Y2440849D01*
X4455765Y2452511D01*
X4444102D01*
X4455765D01*
X4467428Y2464174D01*
Y2475837D01*
X4455765Y2487500D01*
X4432439D01*
X4420776Y2475837D01*
X5160000Y2355000D02*
Y2285022D01*
X5194989D01*
X5206652Y2296685D01*
Y2320011D01*
X5194989Y2331674D01*
X5160000D01*
X5183326D02*
X5206652Y2355000D01*
X5229978D02*
X5253304D01*
X5241641D01*
Y2285022D01*
X5229978Y2296685D01*
X5334944Y2285022D02*
X5311618Y2296685D01*
X5288292Y2320011D01*
Y2343337D01*
X5299955Y2355000D01*
X5323281D01*
X5334944Y2343337D01*
Y2331674D01*
X5323281Y2320011D01*
X5288292D01*
X5540000Y2452500D02*
Y2382522D01*
X5574989D01*
X5586652Y2394185D01*
Y2417511D01*
X5574989Y2429174D01*
X5540000D01*
X5563326D02*
X5586652Y2452500D01*
X5609978D02*
X5633304D01*
X5621641D01*
Y2382522D01*
X5609978Y2394185D01*
X5714944Y2452500D02*
X5668292D01*
X5714944Y2405848D01*
Y2394185D01*
X5703281Y2382522D01*
X5679955D01*
X5668292Y2394185D01*
X4479984Y1887484D02*
Y1957461D01*
X4444995D01*
X4433332Y1945798D01*
Y1922473D01*
X4444995Y1910810D01*
X4479984D01*
X4456658D02*
X4433332Y1887484D01*
X4410006Y1957461D02*
X4363355D01*
Y1945798D01*
X4410006Y1899147D01*
Y1887484D01*
X4514984Y1760000D02*
X4445006D01*
Y1725011D01*
X4456669Y1713348D01*
X4479995D01*
X4491658Y1725011D01*
Y1760000D01*
Y1736674D02*
X4514984Y1713348D01*
Y1690023D02*
Y1666697D01*
Y1678360D01*
X4445006D01*
X4456669Y1690023D01*
X4445006Y1585056D02*
Y1631708D01*
X4479995D01*
X4468332Y1608382D01*
Y1596719D01*
X4479995Y1585056D01*
X4503321D01*
X4514984Y1596719D01*
Y1620045D01*
X4503321Y1631708D01*
X4289984Y2310000D02*
Y2240023D01*
X4324973D01*
X4336636Y2251686D01*
Y2275011D01*
X4324973Y2286674D01*
X4289984D01*
X4313310D02*
X4336636Y2310000D01*
X4359962Y2251686D02*
X4371624Y2240023D01*
X4394950D01*
X4406613Y2251686D01*
Y2263349D01*
X4394950Y2275011D01*
X4406613Y2286674D01*
Y2298337D01*
X4394950Y2310000D01*
X4371624D01*
X4359962Y2298337D01*
Y2286674D01*
X4371624Y2275011D01*
X4359962Y2263349D01*
Y2251686D01*
X4371624Y2275011D02*
X4394950D01*
X5535000Y2272500D02*
Y2202522D01*
X5569989D01*
X5581652Y2214185D01*
Y2237511D01*
X5569989Y2249174D01*
X5535000D01*
X5558326D02*
X5581652Y2272500D01*
X5651630Y2202522D02*
X5628304Y2214185D01*
X5604978Y2237511D01*
Y2260837D01*
X5616641Y2272500D01*
X5639967D01*
X5651630Y2260837D01*
Y2249174D01*
X5639967Y2237511D01*
X5604978D01*
X5775000Y1714999D02*
X5705023D01*
Y1680011D01*
X5716686Y1668348D01*
X5740011D01*
X5751674Y1680011D01*
Y1714999D01*
Y1691674D02*
X5775000Y1668348D01*
Y1645022D02*
Y1621696D01*
Y1633359D01*
X5705023D01*
X5716686Y1645022D01*
X5775000Y1551719D02*
X5705023D01*
X5740011Y1586707D01*
Y1540056D01*
X5730000Y1857500D02*
Y1927477D01*
X5695011D01*
X5683349Y1915815D01*
Y1892489D01*
X5695011Y1880826D01*
X5730000D01*
X5706674D02*
X5683349Y1857500D01*
X5613371Y1927477D02*
X5660023D01*
Y1892489D01*
X5636697Y1904152D01*
X5625034D01*
X5613371Y1892489D01*
Y1869163D01*
X5625034Y1857500D01*
X5648360D01*
X5660023Y1869163D01*
X5102500Y1102500D02*
X5172478D01*
Y1137489D01*
X5160815Y1149152D01*
X5137489D01*
X5125826Y1137489D01*
Y1102500D01*
Y1125826D02*
X5102500Y1149152D01*
X5114163Y1172477D02*
X5102500Y1184140D01*
Y1207466D01*
X5114163Y1219129D01*
X5160815D01*
X5172478Y1207466D01*
Y1184140D01*
X5160815Y1172477D01*
X5149152D01*
X5137489Y1184140D01*
Y1219129D01*
X5302484Y1102500D02*
X5372462D01*
Y1137489D01*
X5360799Y1149152D01*
X5337473D01*
X5325810Y1137489D01*
Y1102500D01*
Y1125826D02*
X5302484Y1149152D01*
X5360799Y1172477D02*
X5372462Y1184140D01*
Y1207466D01*
X5360799Y1219129D01*
X5349136D01*
X5337473Y1207466D01*
Y1195803D01*
Y1207466D01*
X5325810Y1219129D01*
X5314147D01*
X5302484Y1207466D01*
Y1184140D01*
X5314147Y1172477D01*
X3869984Y1122500D02*
X3939961D01*
Y1157489D01*
X3928298Y1169152D01*
X3904973D01*
X3893310Y1157489D01*
Y1122500D01*
Y1145826D02*
X3869984Y1169152D01*
Y1192478D02*
Y1215804D01*
Y1204141D01*
X3939961D01*
X3928298Y1192478D01*
Y1250792D02*
X3939961Y1262455D01*
Y1285781D01*
X3928298Y1297444D01*
X3881647D01*
X3869984Y1285781D01*
Y1262455D01*
X3881647Y1250792D01*
X3928298D01*
X4047484Y1122500D02*
X4117461D01*
Y1157489D01*
X4105798Y1169152D01*
X4082473D01*
X4070810Y1157489D01*
Y1122500D01*
Y1145826D02*
X4047484Y1169152D01*
Y1227466D02*
X4117461D01*
X4082473Y1192478D01*
Y1239129D01*
X2555000Y3947500D02*
Y3877522D01*
X2589989D01*
X2601652Y3889185D01*
Y3912511D01*
X2589989Y3924174D01*
X2555000D01*
X2578326D02*
X2601652Y3947500D01*
X2624977D02*
X2648303D01*
X2636640D01*
Y3877522D01*
X2624977Y3889185D01*
X5895300Y5303400D02*
Y5373378D01*
X5860311D01*
X5848648Y5361715D01*
Y5338389D01*
X5860311Y5326726D01*
X5895300D01*
X5871974D02*
X5848648Y5303400D01*
X5790334D02*
Y5373378D01*
X5825323Y5338389D01*
X5778671D01*
X5708693Y5373378D02*
X5755345D01*
Y5338389D01*
X5732019Y5350052D01*
X5720356D01*
X5708693Y5338389D01*
Y5315063D01*
X5720356Y5303400D01*
X5743682D01*
X5755345Y5315063D01*
X5892800Y5485900D02*
Y5555878D01*
X5857812D01*
X5846149Y5544215D01*
Y5520889D01*
X5857812Y5509226D01*
X5892800D01*
X5869474D02*
X5846149Y5485900D01*
X5787834D02*
Y5555878D01*
X5822823Y5520889D01*
X5776171D01*
X5717856Y5485900D02*
Y5555878D01*
X5752845Y5520889D01*
X5706194D01*
X8290000Y2682500D02*
Y2612522D01*
X8324989D01*
X8336652Y2624185D01*
Y2647511D01*
X8324989Y2659174D01*
X8290000D01*
X8313326D02*
X8336652Y2682500D01*
X8406629Y2612522D02*
X8359977D01*
Y2647511D01*
X8383303Y2635848D01*
X8394966D01*
X8406629Y2647511D01*
Y2670837D01*
X8394966Y2682500D01*
X8371640D01*
X8359977Y2670837D01*
X8429955Y2612522D02*
X8476607D01*
Y2624185D01*
X8429955Y2670837D01*
Y2682500D01*
X8282500Y3012500D02*
Y2942522D01*
X8317489D01*
X8329151Y2954185D01*
Y2977511D01*
X8317489Y2989174D01*
X8282500D01*
X8305826D02*
X8329151Y3012500D01*
X8399129Y2942522D02*
X8352477D01*
Y2977511D01*
X8375803Y2965848D01*
X8387466D01*
X8399129Y2977511D01*
Y3000837D01*
X8387466Y3012500D01*
X8364140D01*
X8352477Y3000837D01*
X8469107Y2942522D02*
X8445781Y2954185D01*
X8422455Y2977511D01*
Y3000837D01*
X8434118Y3012500D01*
X8457444D01*
X8469107Y3000837D01*
Y2989174D01*
X8457444Y2977511D01*
X8422455D01*
X8285000Y3355000D02*
Y3285022D01*
X8319989D01*
X8331652Y3296685D01*
Y3320011D01*
X8319989Y3331674D01*
X8285000D01*
X8308326D02*
X8331652Y3355000D01*
X8401629Y3285022D02*
X8354977D01*
Y3320011D01*
X8378303Y3308348D01*
X8389966D01*
X8401629Y3320011D01*
Y3343337D01*
X8389966Y3355000D01*
X8366640D01*
X8354977Y3343337D01*
X8471607Y3285022D02*
X8424955D01*
Y3320011D01*
X8448281Y3308348D01*
X8459944D01*
X8471607Y3320011D01*
Y3343337D01*
X8459944Y3355000D01*
X8436618D01*
X8424955Y3343337D01*
X8150000Y2295000D02*
Y2364977D01*
X8115011D01*
X8103348Y2353315D01*
Y2329989D01*
X8115011Y2318326D01*
X8150000D01*
X8126674D02*
X8103348Y2295000D01*
X8033371Y2364977D02*
X8080022D01*
Y2329989D01*
X8056697Y2341652D01*
X8045034D01*
X8033371Y2329989D01*
Y2306663D01*
X8045034Y2295000D01*
X8068360D01*
X8080022Y2306663D01*
X8010045D02*
X7998382Y2295000D01*
X7975056D01*
X7963393Y2306663D01*
Y2353315D01*
X7975056Y2364977D01*
X7998382D01*
X8010045Y2353315D01*
Y2341652D01*
X7998382Y2329989D01*
X7963393D01*
X7940000Y1942500D02*
Y1872522D01*
X7974989D01*
X7986652Y1884185D01*
Y1907511D01*
X7974989Y1919174D01*
X7940000D01*
X7963326D02*
X7986652Y1942500D01*
X8056629Y1872522D02*
X8033303Y1884185D01*
X8009978Y1907511D01*
Y1930837D01*
X8021641Y1942500D01*
X8044966D01*
X8056629Y1930837D01*
Y1919174D01*
X8044966Y1907511D01*
X8009978D01*
X8126607Y1942500D02*
X8079955D01*
X8126607Y1895848D01*
Y1884185D01*
X8114944Y1872522D01*
X8091618D01*
X8079955Y1884185D01*
X4032500Y6382500D02*
X3962522D01*
Y6347511D01*
X3974185Y6335848D01*
X3997511D01*
X4009174Y6347511D01*
Y6382500D01*
Y6359174D02*
X4032500Y6335848D01*
X3974185Y6312523D02*
X3962522Y6300860D01*
Y6277534D01*
X3974185Y6265871D01*
X3985848D01*
X3997511Y6277534D01*
Y6289197D01*
Y6277534D01*
X4009174Y6265871D01*
X4020837D01*
X4032500Y6277534D01*
Y6300860D01*
X4020837Y6312523D01*
X4032500Y6242545D02*
Y6219219D01*
Y6230882D01*
X3962522D01*
X3974185Y6242545D01*
X4362500Y6390000D02*
X4292522D01*
Y6355011D01*
X4304185Y6343348D01*
X4327511D01*
X4339174Y6355011D01*
Y6390000D01*
Y6366674D02*
X4362500Y6343348D01*
X4304185Y6320022D02*
X4292522Y6308359D01*
Y6285034D01*
X4304185Y6273371D01*
X4315848D01*
X4327511Y6285034D01*
Y6296697D01*
Y6285034D01*
X4339174Y6273371D01*
X4350837D01*
X4362500Y6285034D01*
Y6308359D01*
X4350837Y6320022D01*
X4304185Y6250045D02*
X4292522Y6238382D01*
Y6215056D01*
X4304185Y6203393D01*
X4350837D01*
X4362500Y6215056D01*
Y6238382D01*
X4350837Y6250045D01*
X4304185D01*
X4175000Y5057500D02*
Y5127478D01*
X4140011D01*
X4128348Y5115815D01*
Y5092489D01*
X4140011Y5080826D01*
X4175000D01*
X4151674D02*
X4128348Y5057500D01*
X4058371D02*
X4105023D01*
X4058371Y5104152D01*
Y5115815D01*
X4070034Y5127478D01*
X4093360D01*
X4105023Y5115815D01*
X4035045Y5057500D02*
X4011719D01*
X4023382D01*
Y5127478D01*
X4035045Y5115815D01*
X1757500Y5067500D02*
Y4997522D01*
X1792489D01*
X1804152Y5009185D01*
Y5032511D01*
X1792489Y5044174D01*
X1757500D01*
X1780826D02*
X1804152Y5067500D01*
X1874129D02*
X1827478D01*
X1874129Y5020848D01*
Y5009185D01*
X1862466Y4997522D01*
X1839141D01*
X1827478Y5009185D01*
X1897455Y4997522D02*
X1944107D01*
Y5009185D01*
X1897455Y5055837D01*
Y5067500D01*
X1810000Y6205000D02*
Y6135023D01*
X1844989D01*
X1856652Y6146685D01*
Y6170011D01*
X1844989Y6181674D01*
X1810000D01*
X1833326D02*
X1856652Y6205000D01*
X1926629D02*
X1879978D01*
X1926629Y6158348D01*
Y6146685D01*
X1914966Y6135023D01*
X1891641D01*
X1879978Y6146685D01*
X1996607Y6135023D02*
X1973281Y6146685D01*
X1949955Y6170011D01*
Y6193337D01*
X1961618Y6205000D01*
X1984944D01*
X1996607Y6193337D01*
Y6181674D01*
X1984944Y6170011D01*
X1949955D01*
X1807500Y6012516D02*
Y5942539D01*
X1842489D01*
X1854152Y5954202D01*
Y5977528D01*
X1842489Y5989190D01*
X1807500D01*
X1830826D02*
X1854152Y6012516D01*
X1924129D02*
X1877478D01*
X1924129Y5965865D01*
Y5954202D01*
X1912466Y5942539D01*
X1889140D01*
X1877478Y5954202D01*
X1994107Y6012516D02*
X1947455D01*
X1994107Y5965865D01*
Y5954202D01*
X1982444Y5942539D01*
X1959118D01*
X1947455Y5954202D01*
X2487500Y4930000D02*
Y4999978D01*
X2452511D01*
X2440848Y4988315D01*
Y4964989D01*
X2452511Y4953326D01*
X2487500D01*
X2464174D02*
X2440848Y4930000D01*
X2417522Y4988315D02*
X2405860Y4999978D01*
X2382534D01*
X2370871Y4988315D01*
Y4976652D01*
X2382534Y4964989D01*
X2394197D01*
X2382534D01*
X2370871Y4953326D01*
Y4941663D01*
X2382534Y4930000D01*
X2405860D01*
X2417522Y4941663D01*
X2300893Y4930000D02*
X2347545D01*
X2300893Y4976652D01*
Y4988315D01*
X2312556Y4999978D01*
X2335882D01*
X2347545Y4988315D01*
X1760000Y5245000D02*
Y5175022D01*
X1794989D01*
X1806652Y5186685D01*
Y5210011D01*
X1794989Y5221674D01*
X1760000D01*
X1783326D02*
X1806652Y5245000D01*
X1876629D02*
X1829978D01*
X1876629Y5198348D01*
Y5186685D01*
X1864966Y5175022D01*
X1841640D01*
X1829978Y5186685D01*
X1899955D02*
X1911618Y5175022D01*
X1934944D01*
X1946607Y5186685D01*
Y5198348D01*
X1934944Y5210011D01*
X1923281D01*
X1934944D01*
X1946607Y5221674D01*
Y5233337D01*
X1934944Y5245000D01*
X1911618D01*
X1899955Y5233337D01*
X2392500Y5667500D02*
X2462478D01*
Y5702489D01*
X2450815Y5714152D01*
X2427489D01*
X2415826Y5702489D01*
Y5667500D01*
Y5690826D02*
X2392500Y5714152D01*
Y5784129D02*
Y5737477D01*
X2439152Y5784129D01*
X2450815D01*
X2462478Y5772466D01*
Y5749140D01*
X2450815Y5737477D01*
Y5807455D02*
X2462478Y5819118D01*
Y5842444D01*
X2450815Y5854107D01*
X2404163D01*
X2392500Y5842444D01*
Y5819118D01*
X2404163Y5807455D01*
X2450815D01*
X1220000Y5635000D02*
Y5565022D01*
X1254989D01*
X1266652Y5576685D01*
Y5600011D01*
X1254989Y5611674D01*
X1220000D01*
X1243326D02*
X1266652Y5635000D01*
X1336629D02*
X1289978D01*
X1336629Y5588348D01*
Y5576685D01*
X1324966Y5565022D01*
X1301641D01*
X1289978Y5576685D01*
X1359955Y5623337D02*
X1371618Y5635000D01*
X1394944D01*
X1406607Y5623337D01*
Y5576685D01*
X1394944Y5565022D01*
X1371618D01*
X1359955Y5576685D01*
Y5588348D01*
X1371618Y5600011D01*
X1406607D01*
X3935000Y5660000D02*
X4004978D01*
Y5694989D01*
X3993315Y5706652D01*
X3969989D01*
X3958326Y5694989D01*
Y5660000D01*
Y5683326D02*
X3935000Y5706652D01*
Y5776629D02*
Y5729978D01*
X3981652Y5776629D01*
X3993315D01*
X4004978Y5764966D01*
Y5741641D01*
X3993315Y5729978D01*
X3935000Y5834944D02*
X4004978D01*
X3969989Y5799955D01*
Y5846607D01*
X1165815Y3124152D02*
X1177477Y3112489D01*
Y3089163D01*
X1165815Y3077500D01*
X1119163D01*
X1107500Y3089163D01*
Y3112489D01*
X1119163Y3124152D01*
X1107500Y3194129D02*
Y3147478D01*
X1154152Y3194129D01*
X1165815D01*
X1177477Y3182466D01*
Y3159140D01*
X1165815Y3147478D01*
X1107500Y3264107D02*
Y3217455D01*
X1154152Y3264107D01*
X1165815D01*
X1177477Y3252444D01*
Y3229118D01*
X1165815Y3217455D01*
%TF.MD5,c0aee86aa6f74fb63406dfe14f83a980*%
M02*
