%TF.GenerationSoftware,Altium Limited,Altium Designer,24.7.2 (38)*%
G04 Layer_Color=0*
%FSLAX45Y45*%
%MOMM*%
%TF.SameCoordinates,313A2AA4-CFAA-4B56-AAC7-ADE98D6BBF51*%
%TF.FilePolarity,Positive*%
%TF.FileFunction,Profile,NP*%
%TF.Part,Single*%
G01*
G75*
%TA.AperFunction,Profile*%
%ADD103C,0.02540*%
G36*
X515000Y343299D02*
X498089D01*
X464917Y349897D01*
X433669Y362841D01*
X405547Y381631D01*
X381631Y405547D01*
X362841Y433669D01*
X349897Y464917D01*
X343299Y498089D01*
Y515000D01*
Y531911D01*
X349897Y565083D01*
X362841Y596331D01*
X381631Y624453D01*
X405547Y648369D01*
X433669Y667159D01*
X464917Y680103D01*
X498089Y686701D01*
X515000D01*
X531911D01*
X565083Y680103D01*
X596331Y667159D01*
X624453Y648369D01*
X648369Y624453D01*
X667159Y596331D01*
X680103Y565083D01*
X686701Y531911D01*
Y515000D01*
Y498089D01*
X680103Y464917D01*
X667159Y433669D01*
X648369Y405547D01*
X624453Y381631D01*
X596331Y362841D01*
X565083Y349897D01*
X531911Y343299D01*
X515000D01*
D01*
D02*
G37*
G36*
X8328299Y515000D02*
Y498089D01*
X8334897Y464917D01*
X8347841Y433669D01*
X8366631Y405547D01*
X8390547Y381631D01*
X8418669Y362841D01*
X8449917Y349897D01*
X8483089Y343299D01*
X8500000D01*
X8516911D01*
X8550083Y349897D01*
X8581331Y362841D01*
X8609453Y381631D01*
X8633369Y405547D01*
X8652159Y433669D01*
X8665103Y464917D01*
X8671701Y498089D01*
Y515000D01*
Y531911D01*
X8665103Y565083D01*
X8652159Y596331D01*
X8633369Y624453D01*
X8609453Y648369D01*
X8581331Y667159D01*
X8550083Y680103D01*
X8516911Y686701D01*
X8500000D01*
X8483089D01*
X8449917Y680103D01*
X8418669Y667159D01*
X8390547Y648369D01*
X8366631Y624453D01*
X8347841Y596331D01*
X8334897Y565083D01*
X8328299Y531911D01*
Y515000D01*
D01*
D02*
G37*
D103*
X2262Y515000D02*
X2264Y6514746D01*
Y6530000D01*
X2570Y6532773D01*
D02*
G02*
X515000Y7027738I512430J-17773D01*
G01*
X8500000Y7027739D01*
X8500141Y7027738D01*
D02*
G02*
X9012429Y6532793I-141J-512738D01*
G01*
X9012739Y6530000D01*
X9012738Y515000D01*
D02*
G02*
X8500115Y2262I-512738J0D01*
G01*
X8500000Y2262D01*
X515000Y2261D01*
X514818Y2262D01*
D02*
G02*
X2262Y515000I182J512738D01*
G01*
%TF.MD5,9903d09abc4c818f955282647257ea84*%
M02*
