%TF.GenerationSoftware,Altium Limited,Altium Designer,24.7.2 (38)*%
G04 Layer_Color=32768*
%FSLAX45Y45*%
%MOMM*%
%TF.SameCoordinates,313A2AA4-CFAA-4B56-AAC7-ADE98D6BBF51*%
%TF.FilePolarity,Positive*%
%TF.FileFunction,Other,Top_Component_Outline*%
%TF.Part,Single*%
G01*
G75*
%TA.AperFunction,NonConductor*%
%ADD62C,0.20000*%
%ADD98C,0.10000*%
D62*
X4207500Y6492500D02*
Y6627500D01*
X3997500Y6492500D02*
X4207500D01*
X3997500D02*
Y6627500D01*
X4207500D01*
X6547516Y6300000D02*
X6682516D01*
Y6090000D02*
Y6300000D01*
X6547516Y6090000D02*
X6682516D01*
X6547516D02*
Y6300000D01*
X8525000Y5650000D02*
X8735000D01*
Y5785000D01*
X8525000D02*
X8735000D01*
X8525000Y5650000D02*
Y5785000D01*
X8522500Y5072500D02*
X8732500D01*
Y5207500D01*
X8522500D02*
X8732500D01*
X8522500Y5072500D02*
Y5207500D01*
X8532500Y5355000D02*
X8742500D01*
Y5490000D01*
X8532500D02*
X8742500D01*
X8532500Y5355000D02*
Y5490000D01*
X8525000Y4750000D02*
X8735000D01*
Y4885000D01*
X8525000D02*
X8735000D01*
X8525000Y4750000D02*
Y4885000D01*
Y4450000D02*
X8735000D01*
Y4585000D01*
X8525000D02*
X8735000D01*
X8525000Y4450000D02*
Y4585000D01*
Y4150000D02*
Y4285000D01*
X8735000D01*
Y4150000D02*
Y4285000D01*
X8525000Y4150000D02*
X8735000D01*
X8525000Y3850000D02*
Y3985000D01*
X8735000D01*
Y3850000D02*
Y3985000D01*
X8525000Y3850000D02*
X8735000D01*
X2557500Y3655000D02*
X2767500D01*
Y3790000D01*
X2557500D02*
X2767500D01*
X2557500Y3655000D02*
Y3790000D01*
D98*
X195000Y3110000D02*
G03*
X195000Y3110000I-25000J0D01*
G01*
X670000Y2760000D02*
G03*
X670000Y3460000I-168409J350000D01*
G01*
X330000D02*
G03*
X330000Y2760000I168409J-350000D01*
G01*
X1345000Y652500D02*
G03*
X1345000Y652500I-25000J0D01*
G01*
X1670000Y1152500D02*
G03*
X970000Y1152500I-350000J-168409D01*
G01*
Y812500D02*
G03*
X1670000Y812500I350000J168409D01*
G01*
X2210000Y650000D02*
G03*
X2210000Y650000I-25000J0D01*
G01*
X2535000Y1150000D02*
G03*
X1835000Y1150000I-350000J-168409D01*
G01*
Y810000D02*
G03*
X2535000Y810000I350000J168409D01*
G01*
X7540500Y4096000D02*
X7794500D01*
X7540500Y5620000D02*
X7794500D01*
X7540500Y4096000D02*
Y5620000D01*
X7794500Y4096000D02*
Y5620000D01*
X777479Y4932517D02*
X802458Y4992526D01*
X777479Y4932517D02*
X897479D01*
X872500Y4992526D02*
X897479Y4932517D01*
X872500Y4992526D02*
X967500D01*
X67500D02*
X802500D01*
X967500D02*
Y6492526D01*
X67499Y4992526D02*
Y6492526D01*
X282499D01*
X352520D02*
X967500D01*
X257499Y6552535D02*
X377499D01*
X257499D02*
X282478Y6492526D01*
X352520D02*
X377499Y6552535D01*
X330000Y3460000D02*
X670000D01*
X330000Y2760000D02*
X670000D01*
X970000Y812500D02*
Y1152500D01*
X1670000Y812500D02*
Y1152500D01*
X1835000Y810000D02*
Y1150000D01*
X2535000Y810000D02*
Y1150000D01*
X2595000Y-777000D02*
X2627000Y-757000D01*
X2817000D02*
X2849000Y-777000D01*
X2881000Y-757000D01*
X2563000D02*
X2595000Y-777000D01*
X3103000D02*
X3135000Y-757000D01*
X3071000D02*
X3103000Y-777000D01*
X3325000Y-757000D02*
X3357000Y-777000D01*
X3389000Y-757000D01*
X3579000D02*
X3611000Y-777000D01*
X3135000Y-757000D02*
Y-177000D01*
X2817000Y-757000D02*
Y-177000D01*
X2881000Y-757000D02*
Y-177000D01*
X2563000Y-757000D02*
Y-177000D01*
X2627000Y-757000D02*
Y-177000D01*
X3071000Y-757000D02*
Y-177000D01*
X3325000Y-757000D02*
Y-177000D01*
X3389000Y-757000D02*
Y-177000D01*
X3579000Y-757000D02*
Y-177000D01*
X2468000D02*
Y77000D01*
X2881000D02*
Y259000D01*
X3071000Y77000D02*
Y259000D01*
X2563000Y77000D02*
Y259000D01*
X2627000Y77000D02*
Y259000D01*
X2817000Y77000D02*
Y259000D01*
X3135000Y77000D02*
Y259000D01*
X3325000Y77000D02*
Y259000D01*
X3389000Y77000D02*
Y259000D01*
X3579000Y77000D02*
Y259000D01*
X3071000D02*
X3135000D01*
X2563000D02*
X2627000D01*
X2817000D02*
X2881000D01*
X3325000D02*
X3389000D01*
X3611000Y-777000D02*
X3643000Y-757000D01*
X3833000D02*
X3865000Y-777000D01*
X3897000Y-757000D01*
X4087000D02*
X4119000Y-777000D01*
X4341000Y-757000D02*
X4373000Y-777000D01*
X4405000Y-757000D01*
X4119000Y-777000D02*
X4151000Y-757000D01*
X4595000D02*
X4627000Y-777000D01*
X3643000Y-757000D02*
Y-177000D01*
X3833000Y-757000D02*
Y-177000D01*
X4151000Y-757000D02*
Y-177000D01*
X4087000Y-757000D02*
Y-177000D01*
X3897000Y-757000D02*
Y-177000D01*
X4405000Y-757000D02*
Y-177000D01*
X4341000Y-757000D02*
Y-177000D01*
X4595000Y-757000D02*
Y-177000D01*
X2468000D02*
X6532000D01*
X2468000Y77000D02*
X6532000D01*
X3643000D02*
Y259000D01*
X3833000Y77000D02*
Y259000D01*
X3897000Y77000D02*
Y259000D01*
X4151000Y77000D02*
Y259000D01*
X4087000Y77000D02*
Y259000D01*
X4405000Y77000D02*
Y259000D01*
X4341000Y77000D02*
Y259000D01*
X4595000Y77000D02*
Y259000D01*
X3579000D02*
X3643000D01*
X3833000D02*
X3897000D01*
X4341000D02*
X4405000D01*
X4087000D02*
X4151000D01*
X4595000D02*
X4659000D01*
X4627000Y-777000D02*
X4659000Y-757000D01*
X4849000D02*
X4881000Y-777000D01*
X4913000Y-757000D01*
X5103000D02*
X5135000Y-777000D01*
X5167000Y-757000D01*
X5357000D02*
X5389000Y-777000D01*
X5421000Y-757000D01*
X5643000Y-777000D02*
X5675000Y-757000D01*
X5611000D02*
X5643000Y-777000D01*
X4659000Y-757000D02*
Y-177000D01*
X4849000Y-757000D02*
Y-177000D01*
X4913000Y-757000D02*
Y-177000D01*
X5103000Y-757000D02*
Y-177000D01*
X5167000Y-757000D02*
Y-177000D01*
X5357000Y-757000D02*
Y-177000D01*
X5421000Y-757000D02*
Y-177000D01*
X5611000Y-757000D02*
Y-177000D01*
X5675000Y-757000D02*
Y-177000D01*
X5865000Y-757000D02*
Y-177000D01*
X4659000Y77000D02*
Y259000D01*
X4849000Y77000D02*
Y259000D01*
X4913000Y77000D02*
Y259000D01*
X5103000Y77000D02*
Y259000D01*
X5167000Y77000D02*
Y259000D01*
X5357000Y77000D02*
Y259000D01*
X5421000Y77000D02*
Y259000D01*
X5675000Y77000D02*
Y259000D01*
X5611000Y77000D02*
Y259000D01*
X4849000D02*
X4913000D01*
X5103000D02*
X5167000D01*
X5357000D02*
X5421000D01*
X5611000D02*
X5675000D01*
X6373000Y-757000D02*
X6405000Y-777000D01*
X5897000D02*
X5929000Y-757000D01*
X6405000Y-777000D02*
X6437000Y-757000D01*
X5865000D02*
X5897000Y-777000D01*
X6119000Y-757000D02*
X6151000Y-777000D01*
X6183000Y-757000D01*
Y-177000D01*
X6119000Y-757000D02*
Y-177000D01*
X6373000Y-757000D02*
Y-177000D01*
X6437000Y-757000D02*
Y-177000D01*
X5929000Y-757000D02*
Y-177000D01*
X6532000D02*
Y77000D01*
X5865000D02*
Y259000D01*
X5929000Y77000D02*
Y259000D01*
X6183000Y77000D02*
Y259000D01*
X6119000Y77000D02*
Y259000D01*
X6437000Y77000D02*
Y259000D01*
X6373000Y77000D02*
Y259000D01*
X5865000D02*
X5929000D01*
X6373000D02*
X6437000D01*
X6119000D02*
X6183000D01*
%TF.MD5,a65ffe7153e6090b11e007b25e2e43d9*%
M02*
