%TF.GenerationSoftware,Altium Limited,Altium Designer,24.7.2 (38)*%
G04 Layer_Color=65535*
%FSLAX45Y45*%
%MOMM*%
%TF.SameCoordinates,313A2AA4-CFAA-4B56-AAC7-ADE98D6BBF51*%
%TF.FilePolarity,Positive*%
%TF.FileFunction,Legend,Top*%
%TF.Part,Single*%
G01*
G75*
%TA.AperFunction,NonConductor*%
%ADD61C,0.15240*%
%ADD62C,0.20000*%
%ADD63C,0.25000*%
%ADD64C,0.40000*%
%ADD65C,0.25400*%
G36*
X5162410Y3606550D02*
X5137010D01*
Y3568450D01*
X5162410D01*
Y3606550D01*
D02*
G37*
G36*
X5766550Y3252410D02*
X5728450D01*
Y3227010D01*
X5766550D01*
Y3252410D01*
D02*
G37*
G36*
X6182590Y3756550D02*
X6207990D01*
Y3718450D01*
X6182590D01*
Y3756550D01*
D02*
G37*
G36*
X5816550Y4272590D02*
X5778450D01*
Y4297990D01*
X5816550D01*
Y4272590D01*
D02*
G37*
D61*
X5145030Y4037500D02*
G03*
X5145030Y4037500I-7620J0D01*
G01*
X5300390Y4134610D02*
X5348986D01*
X5300390Y3390390D02*
X5348986D01*
X6044610D02*
Y3438986D01*
X5996014Y4134610D02*
X6044610D01*
X5300390Y4086014D02*
Y4134610D01*
Y3390390D02*
Y3438986D01*
X5996014Y3390390D02*
X6044610D01*
Y4086014D02*
Y4134610D01*
X7855000Y5442500D02*
X7888856D01*
X7871928D01*
Y5544067D01*
X7855000Y5527139D01*
D62*
X4660000Y4145000D02*
G03*
X4195000Y4145000I-232500J0D01*
G01*
Y3475000D02*
G03*
X4660000Y3475000I232500J0D01*
G01*
X7533000Y4081000D02*
Y5635000D01*
X7802000D01*
Y4081000D02*
Y5635000D01*
X7533000Y4081000D02*
X7802000D01*
X4690000Y3551893D02*
Y3793106D01*
X4905000Y3551893D02*
Y3793106D01*
X4690000Y3831894D02*
Y4073107D01*
X4905000Y3831894D02*
Y4073107D01*
X4195000Y3475000D02*
Y4145000D01*
X4660000Y3475000D02*
Y4145000D01*
X6769000Y6877500D02*
X7311000D01*
X6769000Y6282500D02*
Y6877500D01*
Y6282500D02*
X7311000D01*
Y6877500D01*
X5267500Y4920000D02*
Y5950000D01*
X4777500D02*
X5267500D01*
X4777500Y4920000D02*
Y5950000D01*
Y4920000D02*
X5267500D01*
X4788500Y6275000D02*
X6348500D01*
X4788500D02*
Y6885000D01*
X6348500D01*
Y6275000D02*
Y6885000D01*
X67500Y4992526D02*
X802500D01*
X872500D02*
X967500D01*
X872500D02*
X897479Y4932517D01*
X777479D02*
X897479D01*
X777479D02*
X802458Y4992526D01*
X352520Y6492526D02*
X377499Y6552535D01*
X257499D02*
X282478Y6492526D01*
X257499Y6552535D02*
X377499D01*
X352520Y6492526D02*
X967500D01*
X67499D02*
X282499D01*
X67499Y4992526D02*
Y6492526D01*
X967500Y4992526D02*
Y6492526D01*
X2626500Y6030000D02*
X3811500D01*
X2626500D02*
Y6655000D01*
X3715000D02*
X3811500D01*
X3461000D02*
X3485000D01*
X3207000D02*
X3231000D01*
X2953000D02*
X2977000D01*
X2626500D02*
X2723000D01*
X3811500Y6030000D02*
Y6655000D01*
X8155000Y3480000D02*
X8982500D01*
X8155000Y2400000D02*
X8982500D01*
X8155000Y3480000D02*
Y3592000D01*
Y2288000D02*
Y2400000D01*
X8982500D02*
Y3480000D01*
X7817500Y2288000D02*
X8155000D01*
X7817500D02*
Y3592000D01*
X8155000D01*
Y2090000D02*
X8982500D01*
X8155000Y1010000D02*
X8982500D01*
X8155000Y2090000D02*
Y2202000D01*
Y898000D02*
Y1010000D01*
X8982500D02*
Y2090000D01*
X7817500Y898000D02*
X8155000D01*
X7817500D02*
Y2202000D01*
X8155000D01*
X4373000Y-777000D02*
X4405000Y-757000D01*
X4341000D02*
X4373000Y-777000D01*
X4405000Y-757000D02*
Y-184500D01*
X4341000Y-757000D02*
Y-184500D01*
X4881000Y-777000D02*
X4913000Y-757000D01*
X4849000D02*
X4881000Y-777000D01*
X4913000Y-757000D02*
Y-184500D01*
X4849000Y-757000D02*
Y-184500D01*
X5103000Y-757000D02*
Y-184500D01*
X5167000Y-757000D02*
Y-184500D01*
X5103000Y-757000D02*
X5135000Y-777000D01*
X5167000Y-757000D01*
X5389000Y-777000D02*
X5421000Y-757000D01*
X5357000D02*
X5389000Y-777000D01*
X5421000Y-757000D02*
Y-184500D01*
X5357000Y-757000D02*
Y-184500D01*
X5897000Y-777000D02*
X5929000Y-757000D01*
X5865000D02*
X5897000Y-777000D01*
X5929000Y-757000D02*
Y-184500D01*
X5865000Y-757000D02*
Y-184500D01*
X6547000D02*
Y84500D01*
X2453000Y-184500D02*
X6547000D01*
X2453000D02*
Y84500D01*
X6547000D01*
X6373000Y-757000D02*
Y-184500D01*
X6437000Y-757000D02*
Y-184500D01*
X6373000Y-757000D02*
X6405000Y-777000D01*
X6437000Y-757000D01*
X6119000D02*
Y-184500D01*
X6183000Y-757000D02*
Y-184500D01*
X6119000Y-757000D02*
X6151000Y-777000D01*
X6183000Y-757000D01*
X5611000D02*
Y-184500D01*
X5675000Y-757000D02*
Y-184500D01*
X5611000Y-757000D02*
X5643000Y-777000D01*
X5675000Y-757000D01*
X4595000D02*
Y-184500D01*
X4659000Y-757000D02*
Y-184500D01*
X4595000Y-757000D02*
X4627000Y-777000D01*
X4659000Y-757000D01*
X4087000D02*
Y-184500D01*
X4151000Y-757000D02*
Y-184500D01*
X4087000Y-757000D02*
X4119000Y-777000D01*
X4151000Y-757000D01*
X3865000Y-777000D02*
X3897000Y-757000D01*
X3833000D02*
X3865000Y-777000D01*
X3897000Y-757000D02*
Y-184500D01*
X3833000Y-757000D02*
Y-184500D01*
X3611000Y-777000D02*
X3643000Y-757000D01*
X3579000D02*
X3611000Y-777000D01*
X3643000Y-757000D02*
Y-184500D01*
X3579000Y-757000D02*
Y-184500D01*
X3071000Y-757000D02*
Y-184500D01*
X3135000Y-757000D02*
Y-184500D01*
X3071000Y-757000D02*
X3103000Y-777000D01*
X3135000Y-757000D01*
X3325000D02*
Y-184500D01*
X3389000Y-757000D02*
Y-184500D01*
X3325000Y-757000D02*
X3357000Y-777000D01*
X3389000Y-757000D01*
X2849000Y-777000D02*
X2881000Y-757000D01*
X2817000D02*
X2849000Y-777000D01*
X2881000Y-757000D02*
Y-184500D01*
X2817000Y-757000D02*
Y-184500D01*
X2595000Y-777000D02*
X2627000Y-757000D01*
X2563000D02*
X2595000Y-777000D01*
X2627000Y-757000D02*
Y-184500D01*
X2563000Y-757000D02*
Y-184500D01*
X6382522Y479152D02*
X6370859Y467489D01*
Y444163D01*
X6382522Y432500D01*
X6429174D01*
X6440837Y444163D01*
Y467489D01*
X6429174Y479152D01*
X6440837Y502478D02*
X6394185D01*
X6370859Y525803D01*
X6394185Y549129D01*
X6440837D01*
X6405848D01*
Y502478D01*
X6370859Y572455D02*
Y619107D01*
Y595781D01*
X6440837D01*
X6452500Y642433D02*
Y689084D01*
X6382522Y712410D02*
X6370859Y724073D01*
Y747399D01*
X6382522Y759062D01*
X6394185D01*
X6405848Y747399D01*
Y735736D01*
Y747399D01*
X6417511Y759062D01*
X6429174D01*
X6440837Y747399D01*
Y724073D01*
X6429174Y712410D01*
X3590022Y431652D02*
X3578359Y419989D01*
Y396663D01*
X3590022Y385000D01*
X3636674D01*
X3648337Y396663D01*
Y419989D01*
X3636674Y431652D01*
X3648337Y454978D02*
X3601685D01*
X3578359Y478304D01*
X3601685Y501629D01*
X3648337D01*
X3613348D01*
Y454978D01*
X3578359Y524955D02*
Y571607D01*
Y548281D01*
X3648337D01*
X3660000Y594933D02*
Y641584D01*
X3648337Y699899D02*
X3578359D01*
X3613348Y664910D01*
Y711562D01*
D63*
X6925500Y6920000D02*
G03*
X6925500Y6920000I-12500J0D01*
G01*
X5325000Y5735000D02*
G03*
X5325000Y5735000I-12500J0D01*
G01*
X6216000Y6935000D02*
G03*
X6216000Y6935000I-12500J0D01*
G01*
X3871500Y6552500D02*
G03*
X3871500Y6552500I-12500J0D01*
G01*
X7662500Y2299000D02*
G03*
X7662500Y2299000I-12500J0D01*
G01*
Y909000D02*
G03*
X7662500Y909000I-12500J0D01*
G01*
X65823Y3110000D02*
G03*
X65823Y3110000I-12500J0D01*
G01*
X1332500Y535823D02*
G03*
X1332500Y535823I-12500J0D01*
G01*
X2197500Y533323D02*
G03*
X2197500Y533323I-12500J0D01*
G01*
D64*
X1009300Y3852600D02*
Y3890700D01*
X768000Y3611300D02*
X1009300Y3852600D01*
X158400Y3611300D02*
X768000D01*
X158400D02*
Y3890700D01*
Y4119300D02*
Y4411400D01*
X755300D02*
X1009300Y4157400D01*
X158400Y4411400D02*
X755300D01*
X1009300Y4119300D02*
Y4151050D01*
X2710700Y3826800D02*
Y3864900D01*
X2952000Y4106200D01*
X3561600D01*
Y3826800D02*
Y4106200D01*
Y3306100D02*
Y3598200D01*
X2710700Y3560100D02*
X2964700Y3306100D01*
X3561600D01*
X2710700Y3566450D02*
Y3598200D01*
X1167600Y1628200D02*
X1205700D01*
X926300Y1869500D02*
X1167600Y1628200D01*
X926300Y1869500D02*
Y2479100D01*
X1205700D01*
X1434300D02*
X1726400D01*
X1472400Y1628200D02*
X1726400Y1882200D01*
Y2479100D01*
X1434300Y1628200D02*
X1466050D01*
X2030100D02*
X2068200D01*
X1788800Y1869500D02*
X2030100Y1628200D01*
X1788800Y1869500D02*
Y2479100D01*
X2068200D01*
X2296800D02*
X2588900D01*
X2334900Y1628200D02*
X2588900Y1882200D01*
Y2479100D01*
X2296800Y1628200D02*
X2328550D01*
X3154300Y1635700D02*
X3186050D01*
X3446400Y1889700D02*
Y2486600D01*
X3192400Y1635700D02*
X3446400Y1889700D01*
X3154300Y2486600D02*
X3446400D01*
X2646300D02*
X2925700D01*
X2646300Y1877000D02*
Y2486600D01*
Y1877000D02*
X2887600Y1635700D01*
X2925700D01*
X2046450Y3596800D02*
X2078200D01*
X1786100Y2745900D02*
Y3342800D01*
X2040100Y3596800D01*
X1786100Y2745900D02*
X2078200D01*
X2306800D02*
X2586200D01*
Y3355500D01*
X2344900Y3596800D02*
X2586200Y3355500D01*
X2306800Y3596800D02*
X2344900D01*
X571800Y1633200D02*
X603550D01*
X863900Y1887200D02*
Y2484100D01*
X609900Y1633200D02*
X863900Y1887200D01*
X571800Y2484100D02*
X863900D01*
X63800D02*
X343200D01*
X63800Y1874500D02*
Y2484100D01*
Y1874500D02*
X305100Y1633200D01*
X343200D01*
D65*
X1009300Y4151050D02*
Y4157400D01*
X2710700Y3560100D02*
Y3566450D01*
X1466050Y1628200D02*
X1472400D01*
X2328550D02*
X2334900D01*
X3186050Y1635700D02*
X3192400D01*
X2710800Y2721600D02*
Y3153400D01*
X3244200Y2721600D02*
Y3153400D01*
X2710800Y2721600D02*
X3244200D01*
X2710800Y3153400D02*
X3244200D01*
X2040100Y3596800D02*
X2046450D01*
X603550Y1633200D02*
X609900D01*
X1055800Y3155900D02*
X1589200D01*
X1055800Y2724100D02*
X1589200D01*
Y3155900D01*
X1055800Y2724100D02*
Y3155900D01*
X7147887Y4276203D02*
X7121229D01*
X7107900Y4262874D01*
Y4209558D01*
X7121229Y4196229D01*
X7147887D01*
X7161216Y4209558D01*
Y4262874D01*
X7147887Y4276203D01*
X7187874D02*
Y4209558D01*
X7201203Y4196229D01*
X7227861D01*
X7241190Y4209558D01*
Y4276203D01*
X7267848D02*
X7321164D01*
X7294506D01*
Y4196229D01*
X7347822Y4182900D02*
X7401139D01*
X7481113Y4276203D02*
X7427797D01*
Y4236216D01*
X7454455Y4249545D01*
X7467784D01*
X7481113Y4236216D01*
Y4209558D01*
X7467784Y4196229D01*
X7441126D01*
X7427797Y4209558D01*
X7157887Y4526203D02*
X7131229D01*
X7117900Y4512874D01*
Y4459558D01*
X7131229Y4446229D01*
X7157887D01*
X7171216Y4459558D01*
Y4512874D01*
X7157887Y4526203D01*
X7197874D02*
Y4459558D01*
X7211203Y4446229D01*
X7237861D01*
X7251190Y4459558D01*
Y4526203D01*
X7277848D02*
X7331164D01*
X7304506D01*
Y4446229D01*
X7357822Y4432900D02*
X7411139D01*
X7477784Y4446229D02*
Y4526203D01*
X7437797Y4486216D01*
X7491113D01*
X7160662Y4771961D02*
X7134004D01*
X7120674Y4758632D01*
Y4705316D01*
X7134004Y4691987D01*
X7160662D01*
X7173990Y4705316D01*
Y4758632D01*
X7160662Y4771961D01*
X7200649D02*
Y4705316D01*
X7213978Y4691987D01*
X7240636D01*
X7253965Y4705316D01*
Y4771961D01*
X7280623D02*
X7333939D01*
X7307281D01*
Y4691987D01*
X7360597Y4678658D02*
X7413913D01*
X7440571Y4758632D02*
X7453900Y4771961D01*
X7480558D01*
X7493887Y4758632D01*
Y4745303D01*
X7480558Y4731974D01*
X7467229D01*
X7480558D01*
X7493887Y4718645D01*
Y4705316D01*
X7480558Y4691987D01*
X7453900D01*
X7440571Y4705316D01*
X7150662Y5009461D02*
X7124004D01*
X7110674Y4996132D01*
Y4942816D01*
X7124004Y4929487D01*
X7150662D01*
X7163990Y4942816D01*
Y4996132D01*
X7150662Y5009461D01*
X7190649D02*
Y4942816D01*
X7203978Y4929487D01*
X7230636D01*
X7243965Y4942816D01*
Y5009461D01*
X7270623D02*
X7323939D01*
X7297281D01*
Y4929487D01*
X7350597Y4916158D02*
X7403913D01*
X7483887Y4929487D02*
X7430571D01*
X7483887Y4982803D01*
Y4996132D01*
X7470558Y5009461D01*
X7443900D01*
X7430571Y4996132D01*
X7145387Y5271203D02*
X7118729D01*
X7105400Y5257874D01*
Y5204558D01*
X7118729Y5191229D01*
X7145387D01*
X7158716Y5204558D01*
Y5257874D01*
X7145387Y5271203D01*
X7185374D02*
Y5204558D01*
X7198703Y5191229D01*
X7225361D01*
X7238690Y5204558D01*
Y5271203D01*
X7265348D02*
X7318665D01*
X7292006D01*
Y5191229D01*
X7345323Y5177900D02*
X7398639D01*
X7425297Y5191229D02*
X7451955D01*
X7438626D01*
Y5271203D01*
X7425297Y5257874D01*
X6877126Y6012900D02*
Y6039558D01*
Y6026229D01*
X6957100D01*
Y6012900D01*
Y6039558D01*
Y6079545D02*
X6877126D01*
X6957100Y6132861D01*
X6877126D01*
Y6159520D02*
Y6212836D01*
Y6186178D01*
X6957100D01*
X7173716Y5522045D02*
X7160387Y5535374D01*
X7133729D01*
X7120400Y5522045D01*
Y5468729D01*
X7133729Y5455400D01*
X7160387D01*
X7173716Y5468729D01*
Y5495387D01*
X7147058D01*
X7200374Y5455400D02*
Y5535374D01*
X7253690Y5455400D01*
Y5535374D01*
X7280348D02*
Y5455400D01*
X7320336D01*
X7333665Y5468729D01*
Y5522045D01*
X7320336Y5535374D01*
X7280348D01*
X7150155Y6062353D02*
X7136826Y6049024D01*
Y6022366D01*
X7150155Y6009036D01*
X7203471D01*
X7216800Y6022366D01*
Y6049024D01*
X7203471Y6062353D01*
X7176813D01*
Y6035695D01*
X7216800Y6089011D02*
X7136826D01*
X7216800Y6142327D01*
X7136826D01*
Y6168985D02*
X7216800D01*
Y6208972D01*
X7203471Y6222301D01*
X7150155D01*
X7136826Y6208972D01*
Y6168985D01*
X6185437Y412900D02*
X6138785D01*
X6115459Y436226D01*
X6138785Y459552D01*
X6185437D01*
X6150448D01*
Y412900D01*
X6185437Y482878D02*
X6115459D01*
X6185437Y529529D01*
X6115459D01*
X6197100Y552855D02*
Y599507D01*
X6127122Y622833D02*
X6115459Y634496D01*
Y657821D01*
X6127122Y669484D01*
X6138785D01*
X6150448Y657821D01*
Y646158D01*
Y657821D01*
X6162111Y669484D01*
X6173774D01*
X6185437Y657821D01*
Y634496D01*
X6173774Y622833D01*
X3382937Y395400D02*
X3336285D01*
X3312960Y418726D01*
X3336285Y442052D01*
X3382937D01*
X3347948D01*
Y395400D01*
X3382937Y465378D02*
X3312960D01*
X3382937Y512029D01*
X3312960D01*
X3394600Y535355D02*
Y582007D01*
X3382937Y640321D02*
X3312960D01*
X3347948Y605333D01*
Y651984D01*
X5671396Y392900D02*
X5624744D01*
X5601419Y416226D01*
X5624744Y439552D01*
X5671396D01*
X5636407D01*
Y392900D01*
X5671396Y462878D02*
X5601419D01*
X5671396Y509529D01*
X5601419D01*
X5683059Y532855D02*
Y579507D01*
X5671396Y649484D02*
Y602833D01*
X5624744Y649484D01*
X5613081D01*
X5601419Y637821D01*
Y614496D01*
X5613081Y602833D01*
X5875781Y436913D02*
X5864118Y425250D01*
Y401924D01*
X5875781Y390261D01*
X5922433D01*
X5934096Y401924D01*
Y425250D01*
X5922433Y436913D01*
X5934096Y460238D02*
X5887444D01*
X5864118Y483564D01*
X5887444Y506890D01*
X5934096D01*
X5899107D01*
Y460238D01*
X5864118Y530216D02*
Y576868D01*
Y553542D01*
X5934096D01*
X5945758Y600193D02*
Y646845D01*
X5934096Y716823D02*
Y670171D01*
X5887444Y716823D01*
X5875781D01*
X5864118Y705160D01*
Y681834D01*
X5875781Y670171D01*
X5222100Y6050400D02*
X5142126D01*
Y6090387D01*
X5155455Y6103716D01*
X5182113D01*
X5195442Y6090387D01*
Y6050400D01*
Y6077058D02*
X5222100Y6103716D01*
X5142126Y6130374D02*
X5222100Y6183690D01*
X5142126D02*
X5222100Y6130374D01*
X5412126Y6050400D02*
Y6103716D01*
Y6077058D01*
X5492100D01*
X5412126Y6130374D02*
X5492100Y6183690D01*
X5412126D02*
X5492100Y6130374D01*
X5675454Y6071216D02*
X5662126Y6057888D01*
Y6031229D01*
X5675454Y6017900D01*
X5728771D01*
X5742100Y6031229D01*
Y6057888D01*
X5728771Y6071216D01*
X5662126Y6097875D02*
X5742100D01*
Y6151191D01*
X5662126Y6177849D02*
X5742100D01*
X5715442D01*
X5662126Y6231165D01*
X5702113Y6191178D01*
X5742100Y6231165D01*
X5932126Y6025400D02*
X6012100D01*
Y6065387D01*
X5998771Y6078716D01*
X5945455D01*
X5932126Y6065387D01*
Y6025400D01*
Y6105374D02*
Y6132032D01*
Y6118703D01*
X6012100D01*
Y6105374D01*
Y6132032D01*
X5932126Y6212007D02*
Y6185349D01*
X5945455Y6172019D01*
X5998771D01*
X6012100Y6185349D01*
Y6212007D01*
X5998771Y6225336D01*
X5945455D01*
X5932126Y6212007D01*
X4875455Y6076216D02*
X4862126Y6062887D01*
Y6036229D01*
X4875455Y6022900D01*
X4928771D01*
X4942100Y6036229D01*
Y6062887D01*
X4928771Y6076216D01*
X4902113D01*
Y6049558D01*
X4942100Y6102874D02*
X4862126D01*
X4942100Y6156190D01*
X4862126D01*
Y6182848D02*
X4942100D01*
Y6222836D01*
X4928771Y6236165D01*
X4875455D01*
X4862126Y6222836D01*
Y6182848D01*
X6187954Y6027900D02*
X6174625Y6041229D01*
Y6067888D01*
X6187954Y6081216D01*
X6201284D01*
X6214612Y6067888D01*
Y6054558D01*
Y6067888D01*
X6227942Y6081216D01*
X6241270D01*
X6254600Y6067888D01*
Y6041229D01*
X6241270Y6027900D01*
X6254600Y6107874D02*
X6241270D01*
Y6121204D01*
X6254600D01*
Y6107874D01*
X6187954Y6174520D02*
X6174625Y6187849D01*
Y6214507D01*
X6187954Y6227836D01*
X6201284D01*
X6214612Y6214507D01*
Y6201178D01*
Y6214507D01*
X6227942Y6227836D01*
X6241270D01*
X6254600Y6214507D01*
Y6187849D01*
X6241270Y6174520D01*
X5426216Y5587045D02*
X5412887Y5600374D01*
X5386229D01*
X5372900Y5587045D01*
Y5573716D01*
X5386229Y5560387D01*
X5412887D01*
X5426216Y5547058D01*
Y5533729D01*
X5412887Y5520400D01*
X5386229D01*
X5372900Y5533729D01*
X5452874Y5600374D02*
Y5520400D01*
X5492862D01*
X5506190Y5533729D01*
Y5587045D01*
X5492862Y5600374D01*
X5452874D01*
X5532848Y5520400D02*
Y5573716D01*
X5559507Y5600374D01*
X5586165Y5573716D01*
Y5520400D01*
Y5560387D01*
X5532848D01*
X5418716Y5324545D02*
X5405387Y5337874D01*
X5378729D01*
X5365400Y5324545D01*
Y5311216D01*
X5378729Y5297887D01*
X5405387D01*
X5418716Y5284558D01*
Y5271229D01*
X5405387Y5257900D01*
X5378729D01*
X5365400Y5271229D01*
X5498690Y5324545D02*
X5485361Y5337874D01*
X5458703D01*
X5445374Y5324545D01*
Y5271229D01*
X5458703Y5257900D01*
X5485361D01*
X5498690Y5271229D01*
X5525348Y5337874D02*
Y5257900D01*
X5578664D01*
X1133716Y5784545D02*
X1120387Y5797874D01*
X1093729D01*
X1080400Y5784545D01*
Y5731229D01*
X1093729Y5717900D01*
X1120387D01*
X1133716Y5731229D01*
Y5757887D01*
X1107058D01*
X1160374Y5717900D02*
Y5797874D01*
X1213690Y5717900D01*
Y5797874D01*
X1240348D02*
Y5717900D01*
X1280336D01*
X1293664Y5731229D01*
Y5784545D01*
X1280336Y5797874D01*
X1240348D01*
X1180400Y5250368D02*
Y5150400D01*
X1230384D01*
X1247045Y5167061D01*
Y5183722D01*
X1230384Y5200384D01*
X1180400D01*
X1230384D01*
X1247045Y5217045D01*
Y5233706D01*
X1230384Y5250368D01*
X1180400D01*
X1187900Y6260400D02*
Y6327045D01*
X1221223Y6360368D01*
X1254545Y6327045D01*
Y6260400D01*
Y6310384D01*
X1187900D01*
X5436216Y5827874D02*
X5382900D01*
Y5787887D01*
X5409558Y5801216D01*
X5422887D01*
X5436216Y5787887D01*
Y5761229D01*
X5422887Y5747900D01*
X5396229D01*
X5382900Y5761229D01*
X5462874Y5827874D02*
Y5774558D01*
X5489532Y5747900D01*
X5516190Y5774558D01*
Y5827874D01*
X5417369Y5068824D02*
X5404040Y5082153D01*
X5377382D01*
X5364053Y5068824D01*
Y5015508D01*
X5377382Y5002179D01*
X5404040D01*
X5417369Y5015508D01*
Y5042166D01*
X5390711D01*
X5444027Y5002179D02*
Y5082153D01*
X5497343Y5002179D01*
Y5082153D01*
X5524001D02*
Y5002179D01*
X5563988D01*
X5577317Y5015508D01*
Y5068824D01*
X5563988Y5082153D01*
X5524001D01*
X7463716Y1842045D02*
X7450387Y1855374D01*
X7423729D01*
X7410400Y1842045D01*
Y1788729D01*
X7423729Y1775400D01*
X7450387D01*
X7463716Y1788729D01*
X7490374Y1775400D02*
X7517032D01*
X7503703D01*
Y1855374D01*
X7490374Y1842045D01*
X7410400Y1600374D02*
Y1520400D01*
X7450387D01*
X7463716Y1533729D01*
Y1547058D01*
X7450387Y1560387D01*
X7410400D01*
X7450387D01*
X7463716Y1573716D01*
Y1587045D01*
X7450387Y1600374D01*
X7410400D01*
X7490374Y1520400D02*
X7517032D01*
X7503703D01*
Y1600374D01*
X7490374Y1587045D01*
X7415400Y1272900D02*
Y1326216D01*
X7442058Y1352874D01*
X7468716Y1326216D01*
Y1272900D01*
Y1312887D01*
X7415400D01*
X7495374Y1272900D02*
X7522032D01*
X7508703D01*
Y1352874D01*
X7495374Y1339545D01*
X7481216Y3222045D02*
X7467887Y3235374D01*
X7441229D01*
X7427900Y3222045D01*
Y3168729D01*
X7441229Y3155400D01*
X7467887D01*
X7481216Y3168729D01*
X7437900Y2985374D02*
Y2905400D01*
X7477887D01*
X7491216Y2918729D01*
Y2932058D01*
X7477887Y2945387D01*
X7437900D01*
X7477887D01*
X7491216Y2958716D01*
Y2972045D01*
X7477887Y2985374D01*
X7437900D01*
X7440400Y2662900D02*
Y2716216D01*
X7467058Y2742874D01*
X7493716Y2716216D01*
Y2662900D01*
Y2702887D01*
X7440400D01*
X5172937Y392900D02*
X5126285D01*
X5102960Y416226D01*
X5126285Y439552D01*
X5172937D01*
X5137948D01*
Y392900D01*
X5172937Y462877D02*
X5102960D01*
X5172937Y509529D01*
X5102960D01*
X5184600Y532855D02*
Y579507D01*
X5172937Y602832D02*
Y626158D01*
Y614495D01*
X5102960D01*
X5114622Y602832D01*
X5367123Y437052D02*
X5355460Y425389D01*
Y402063D01*
X5367123Y390400D01*
X5413774D01*
X5425437Y402063D01*
Y425389D01*
X5413774Y437052D01*
X5425437Y460378D02*
X5378786D01*
X5355460Y483703D01*
X5378786Y507029D01*
X5425437D01*
X5390448D01*
Y460378D01*
X5355460Y530355D02*
Y577007D01*
Y553681D01*
X5425437D01*
X5437100Y600333D02*
Y646984D01*
X5425437Y670310D02*
Y693636D01*
Y681973D01*
X5355460D01*
X5367123Y670310D01*
X4332959Y412889D02*
Y389563D01*
X4344622Y377900D01*
X4391274D01*
X4402937Y389563D01*
Y412889D01*
X4391274Y424552D01*
X4344622D01*
X4332959Y412889D01*
X4414600Y447878D02*
Y494529D01*
X4402937Y517855D02*
X4332959D01*
X4402937Y564507D01*
X4332959D01*
X4402937Y587833D02*
Y611159D01*
Y599496D01*
X4332959D01*
X4344622Y587833D01*
X4595460Y417889D02*
Y394563D01*
X4607123Y382900D01*
X4653774D01*
X4665437Y394563D01*
Y417889D01*
X4653774Y429552D01*
X4607123D01*
X4595460Y417889D01*
X4677100Y452877D02*
Y499529D01*
X4665437Y522855D02*
X4595460D01*
Y557844D01*
X4607123Y569507D01*
X4630448D01*
X4642111Y557844D01*
Y522855D01*
X4665437Y592832D02*
Y616158D01*
Y604495D01*
X4595460D01*
X4607123Y592832D01*
X4082960Y407889D02*
Y384563D01*
X4094622Y372900D01*
X4141274D01*
X4152937Y384563D01*
Y407889D01*
X4141274Y419552D01*
X4094622D01*
X4082960Y407889D01*
X4164600Y442877D02*
Y489529D01*
X4152937Y512855D02*
X4082960D01*
Y547844D01*
X4094622Y559507D01*
X4117948D01*
X4129611Y547844D01*
Y512855D01*
X4152937Y629484D02*
Y582832D01*
X4106285Y629484D01*
X4094622D01*
X4082960Y617821D01*
Y594495D01*
X4094622Y582832D01*
X3817960Y442889D02*
Y419563D01*
X3829623Y407900D01*
X3876274D01*
X3887937Y419563D01*
Y442889D01*
X3876274Y454552D01*
X3829623D01*
X3817960Y442889D01*
X3899600Y477878D02*
Y524529D01*
X3887937Y547855D02*
X3817960D01*
X3887937Y594507D01*
X3817960D01*
X3887937Y664484D02*
Y617833D01*
X3841285Y664484D01*
X3829623D01*
X3817960Y652821D01*
Y629496D01*
X3829623Y617833D01*
X3059623Y435400D02*
Y458726D01*
Y447063D01*
X3129600D01*
Y435400D01*
Y458726D01*
Y493715D02*
Y517040D01*
Y505377D01*
X3059623D01*
X3071285Y493715D01*
X4846285Y442052D02*
X4834622Y430389D01*
Y407063D01*
X4846285Y395400D01*
X4892937D01*
X4904600Y407063D01*
Y430389D01*
X4892937Y442052D01*
X4869611D01*
Y418726D01*
X4904600Y465378D02*
X4834622D01*
X4904600Y512029D01*
X4834622D01*
Y535355D02*
X4904600D01*
Y570344D01*
X4892937Y582007D01*
X4846285D01*
X4834622Y570344D01*
Y535355D01*
X7358716Y2089545D02*
X7345387Y2102874D01*
X7318729D01*
X7305400Y2089545D01*
Y2036229D01*
X7318729Y2022900D01*
X7345387D01*
X7358716Y2036229D01*
Y2062887D01*
X7332058D01*
X7385374Y2022900D02*
Y2102874D01*
X7438690Y2022900D01*
Y2102874D01*
X7465348D02*
Y2022900D01*
X7505336D01*
X7518664Y2036229D01*
Y2089545D01*
X7505336Y2102874D01*
X7465348D01*
X7358716Y3472045D02*
X7345387Y3485374D01*
X7318729D01*
X7305400Y3472045D01*
Y3418729D01*
X7318729Y3405400D01*
X7345387D01*
X7358716Y3418729D01*
Y3445387D01*
X7332058D01*
X7385374Y3405400D02*
Y3485374D01*
X7438690Y3405400D01*
Y3485374D01*
X7465348D02*
Y3405400D01*
X7505336D01*
X7518664Y3418729D01*
Y3472045D01*
X7505336Y3485374D01*
X7465348D01*
X7352900Y2435387D02*
X7406216D01*
X7379558Y2462045D02*
Y2408729D01*
X7486190Y2475374D02*
X7432874D01*
Y2435387D01*
X7459532Y2448716D01*
X7472861D01*
X7486190Y2435387D01*
Y2408729D01*
X7472861Y2395400D01*
X7446203D01*
X7432874Y2408729D01*
X7366584Y1048679D02*
X7419900D01*
X7393242Y1075337D02*
Y1022021D01*
X7499874Y1088666D02*
X7446558D01*
Y1048679D01*
X7473216Y1062008D01*
X7486545D01*
X7499874Y1048679D01*
Y1022021D01*
X7486545Y1008691D01*
X7459887D01*
X7446558Y1022021D01*
X2594611Y420400D02*
Y467051D01*
X2571285Y443726D02*
X2617937D01*
X2559622Y537029D02*
Y490377D01*
X2594611D01*
X2582948Y513703D01*
Y525366D01*
X2594611Y537029D01*
X2617937D01*
X2629600Y525366D01*
Y502040D01*
X2617937Y490377D01*
X2822122Y447900D02*
Y471226D01*
Y459563D01*
X2892100D01*
Y447900D01*
Y471226D01*
Y552866D02*
Y506214D01*
X2845448Y552866D01*
X2833785D01*
X2822122Y541203D01*
Y517877D01*
X2833785Y506214D01*
X2681671Y4094158D02*
X2668342Y4107487D01*
X2641684D01*
X2628355Y4094158D01*
Y4040842D01*
X2641684Y4027513D01*
X2668342D01*
X2681671Y4040842D01*
X2748316Y4027513D02*
Y4107487D01*
X2708329Y4067500D01*
X2761645D01*
X4004184Y3907487D02*
Y3894158D01*
X4030842Y3867500D01*
X4057500Y3894158D01*
Y3907487D01*
X4030842Y3867500D02*
Y3827513D01*
X4084158D02*
X4110816D01*
X4097487D01*
Y3907487D01*
X4084158Y3894158D01*
X5147580Y4453614D02*
Y4386969D01*
X5160909Y4373640D01*
X5187567D01*
X5200896Y4386969D01*
Y4453614D01*
X5227554Y4440286D02*
X5240883Y4453614D01*
X5267541D01*
X5280870Y4440286D01*
Y4426956D01*
X5267541Y4413627D01*
X5280870Y4400298D01*
Y4386969D01*
X5267541Y4373640D01*
X5240883D01*
X5227554Y4386969D01*
Y4400298D01*
X5240883Y4413627D01*
X5227554Y4426956D01*
Y4440286D01*
X5240883Y4413627D02*
X5267541D01*
X2403355Y6604987D02*
Y6538342D01*
X2416684Y6525013D01*
X2443342D01*
X2456671Y6538342D01*
Y6604987D01*
X2536645D02*
X2483329D01*
Y6565000D01*
X2509987Y6578329D01*
X2523316D01*
X2536645Y6565000D01*
Y6538342D01*
X2523316Y6525013D01*
X2496658D01*
X2483329Y6538342D01*
X6737620Y823954D02*
X6790936D01*
X6764278D01*
Y743980D01*
X6817594D02*
Y823954D01*
X6857581D01*
X6870910Y810626D01*
Y783967D01*
X6857581Y770638D01*
X6817594D01*
X6897568Y810626D02*
X6910898Y823954D01*
X6937556D01*
X6950884Y810626D01*
Y797296D01*
X6937556Y783967D01*
X6924226D01*
X6937556D01*
X6950884Y770638D01*
Y757309D01*
X6937556Y743980D01*
X6910898D01*
X6897568Y757309D01*
X6977543D02*
X6990872Y743980D01*
X7017530D01*
X7030859Y757309D01*
Y810626D01*
X7017530Y823954D01*
X6990872D01*
X6977543Y810626D01*
Y797296D01*
X6990872Y783967D01*
X7030859D01*
X3118381Y1189987D02*
X3171697D01*
X3145039D01*
Y1110013D01*
X3198355D02*
Y1189987D01*
X3238342D01*
X3251671Y1176659D01*
Y1150000D01*
X3238342Y1136671D01*
X3198355D01*
X3278329Y1176659D02*
X3291658Y1189987D01*
X3318316D01*
X3331645Y1176659D01*
Y1163329D01*
X3318316Y1150000D01*
X3304987D01*
X3318316D01*
X3331645Y1136671D01*
Y1123342D01*
X3318316Y1110013D01*
X3291658D01*
X3278329Y1123342D01*
X3358303Y1176659D02*
X3371633Y1189987D01*
X3398291D01*
X3411620Y1176659D01*
Y1163329D01*
X3398291Y1150000D01*
X3411620Y1136671D01*
Y1123342D01*
X3398291Y1110013D01*
X3371633D01*
X3358303Y1123342D01*
Y1136671D01*
X3371633Y1150000D01*
X3358303Y1163329D01*
Y1176659D01*
X3371633Y1150000D02*
X3398291D01*
X3848381Y3377487D02*
X3901697D01*
X3875039D01*
Y3297513D01*
X3928355D02*
Y3377487D01*
X3968342D01*
X3981671Y3364158D01*
Y3337500D01*
X3968342Y3324171D01*
X3928355D01*
X4008329Y3364158D02*
X4021658Y3377487D01*
X4048316D01*
X4061645Y3364158D01*
Y3350829D01*
X4048316Y3337500D01*
X4034987D01*
X4048316D01*
X4061645Y3324171D01*
Y3310842D01*
X4048316Y3297513D01*
X4021658D01*
X4008329Y3310842D01*
X4088303Y3377487D02*
X4141619D01*
Y3364158D01*
X4088303Y3310842D01*
Y3297513D01*
X7710881Y304987D02*
X7764197D01*
X7737539D01*
Y225013D01*
X7790855D02*
Y304987D01*
X7830842D01*
X7844171Y291658D01*
Y265000D01*
X7830842Y251671D01*
X7790855D01*
X7870829Y291658D02*
X7884158Y304987D01*
X7910816D01*
X7924145Y291658D01*
Y278329D01*
X7910816Y265000D01*
X7897487D01*
X7910816D01*
X7924145Y251671D01*
Y238342D01*
X7910816Y225013D01*
X7884158D01*
X7870829Y238342D01*
X8004119Y304987D02*
X7977461Y291658D01*
X7950803Y265000D01*
Y238342D01*
X7964132Y225013D01*
X7990790D01*
X8004119Y238342D01*
Y251671D01*
X7990790Y265000D01*
X7950803D01*
X7420881Y707487D02*
X7474197D01*
X7447539D01*
Y627513D01*
X7500855D02*
Y707487D01*
X7540842D01*
X7554171Y694158D01*
Y667500D01*
X7540842Y654171D01*
X7500855D01*
X7580829Y694158D02*
X7594158Y707487D01*
X7620816D01*
X7634145Y694158D01*
Y680829D01*
X7620816Y667500D01*
X7607487D01*
X7620816D01*
X7634145Y654171D01*
Y640842D01*
X7620816Y627513D01*
X7594158D01*
X7580829Y640842D01*
X7714119Y707487D02*
X7660803D01*
Y667500D01*
X7687461Y680829D01*
X7700791D01*
X7714119Y667500D01*
Y640842D01*
X7700791Y627513D01*
X7674132D01*
X7660803Y640842D01*
X7758381Y6147487D02*
X7811697D01*
X7785039D01*
Y6067513D01*
X7838355D02*
Y6147487D01*
X7878342D01*
X7891671Y6134158D01*
Y6107500D01*
X7878342Y6094171D01*
X7838355D01*
X7918329Y6134158D02*
X7931659Y6147487D01*
X7958317D01*
X7971645Y6134158D01*
Y6120829D01*
X7958317Y6107500D01*
X7944987D01*
X7958317D01*
X7971645Y6094171D01*
Y6080842D01*
X7958317Y6067513D01*
X7931659D01*
X7918329Y6080842D01*
X8038291Y6067513D02*
Y6147487D01*
X7998304Y6107500D01*
X8051620D01*
X3680881Y3042487D02*
X3734197D01*
X3707539D01*
Y2962513D01*
X3760855D02*
Y3042487D01*
X3800842D01*
X3814171Y3029158D01*
Y3002500D01*
X3800842Y2989171D01*
X3760855D01*
X3840829Y3029158D02*
X3854158Y3042487D01*
X3880816D01*
X3894145Y3029158D01*
Y3015829D01*
X3880816Y3002500D01*
X3867487D01*
X3880816D01*
X3894145Y2989171D01*
Y2975842D01*
X3880816Y2962513D01*
X3854158D01*
X3840829Y2975842D01*
X3920803Y3029158D02*
X3934133Y3042487D01*
X3960791D01*
X3974120Y3029158D01*
Y3015829D01*
X3960791Y3002500D01*
X3947461D01*
X3960791D01*
X3974120Y2989171D01*
Y2975842D01*
X3960791Y2962513D01*
X3934133D01*
X3920803Y2975842D01*
X6785881Y3274987D02*
X6839197D01*
X6812539D01*
Y3195013D01*
X6865855D02*
Y3274987D01*
X6905842D01*
X6919171Y3261658D01*
Y3235000D01*
X6905842Y3221671D01*
X6865855D01*
X6945829Y3261658D02*
X6959158Y3274987D01*
X6985816D01*
X6999145Y3261658D01*
Y3248329D01*
X6985816Y3235000D01*
X6972487D01*
X6985816D01*
X6999145Y3221671D01*
Y3208342D01*
X6985816Y3195013D01*
X6959158D01*
X6945829Y3208342D01*
X7079119Y3195013D02*
X7025803D01*
X7079119Y3248329D01*
Y3261658D01*
X7065791Y3274987D01*
X7039132D01*
X7025803Y3261658D01*
X7116710Y312487D02*
X7170026D01*
X7143368D01*
Y232513D01*
X7196684D02*
Y312487D01*
X7236671D01*
X7250000Y299158D01*
Y272500D01*
X7236671Y259171D01*
X7196684D01*
X7276658Y299158D02*
X7289987Y312487D01*
X7316645D01*
X7329974Y299158D01*
Y285829D01*
X7316645Y272500D01*
X7303316D01*
X7316645D01*
X7329974Y259171D01*
Y245842D01*
X7316645Y232513D01*
X7289987D01*
X7276658Y245842D01*
X7356632Y232513D02*
X7383290D01*
X7369961D01*
Y312487D01*
X7356632Y299158D01*
X1434100Y4285974D02*
X1487416D01*
X1460758D01*
Y4206000D01*
X1514074D02*
Y4285974D01*
X1554061D01*
X1567390Y4272646D01*
Y4245987D01*
X1554061Y4232658D01*
X1514074D01*
X1594048Y4272646D02*
X1607378Y4285974D01*
X1634036D01*
X1647364Y4272646D01*
Y4259316D01*
X1634036Y4245987D01*
X1620706D01*
X1634036D01*
X1647364Y4232658D01*
Y4219329D01*
X1634036Y4206000D01*
X1607378D01*
X1594048Y4219329D01*
X1674023Y4272646D02*
X1687352Y4285974D01*
X1714010D01*
X1727339Y4272646D01*
Y4219329D01*
X1714010Y4206000D01*
X1687352D01*
X1674023Y4219329D01*
Y4272646D01*
X6788381Y1442487D02*
X6841697D01*
X6815039D01*
Y1362513D01*
X6868355D02*
Y1442487D01*
X6908342D01*
X6921671Y1429158D01*
Y1402500D01*
X6908342Y1389171D01*
X6868355D01*
X7001645Y1362513D02*
X6948329D01*
X7001645Y1415829D01*
Y1429158D01*
X6988316Y1442487D01*
X6961658D01*
X6948329Y1429158D01*
X7028303Y1375842D02*
X7041633Y1362513D01*
X7068291D01*
X7081620Y1375842D01*
Y1429158D01*
X7068291Y1442487D01*
X7041633D01*
X7028303Y1429158D01*
Y1415829D01*
X7041633Y1402500D01*
X7081620D01*
X2068381Y4037487D02*
X2121697D01*
X2095039D01*
Y3957513D01*
X2148355D02*
Y4037487D01*
X2188342D01*
X2201671Y4024158D01*
Y3997500D01*
X2188342Y3984171D01*
X2148355D01*
X2281645Y3957513D02*
X2228329D01*
X2281645Y4010829D01*
Y4024158D01*
X2268316Y4037487D01*
X2241658D01*
X2228329Y4024158D01*
X2308303D02*
X2321632Y4037487D01*
X2348290D01*
X2361619Y4024158D01*
Y4010829D01*
X2348290Y3997500D01*
X2361619Y3984171D01*
Y3970842D01*
X2348290Y3957513D01*
X2321632D01*
X2308303Y3970842D01*
Y3984171D01*
X2321632Y3997500D01*
X2308303Y4010829D01*
Y4024158D01*
X2321632Y3997500D02*
X2348290D01*
X6745881Y2759987D02*
X6799197D01*
X6772539D01*
Y2680013D01*
X6825855D02*
Y2759987D01*
X6865842D01*
X6879171Y2746658D01*
Y2720000D01*
X6865842Y2706671D01*
X6825855D01*
X6959145Y2680013D02*
X6905829D01*
X6959145Y2733329D01*
Y2746658D01*
X6945816Y2759987D01*
X6919158D01*
X6905829Y2746658D01*
X7039119Y2759987D02*
X7012461Y2746658D01*
X6985803Y2720000D01*
Y2693342D01*
X6999132Y2680013D01*
X7025790D01*
X7039119Y2693342D01*
Y2706671D01*
X7025790Y2720000D01*
X6985803D01*
X4245881Y4947487D02*
X4299197D01*
X4272539D01*
Y4867513D01*
X4325855D02*
Y4947487D01*
X4365842D01*
X4379171Y4934158D01*
Y4907500D01*
X4365842Y4894171D01*
X4325855D01*
X4459145Y4867513D02*
X4405829D01*
X4459145Y4920829D01*
Y4934158D01*
X4445816Y4947487D01*
X4419158D01*
X4405829Y4934158D01*
X4525791Y4867513D02*
Y4947487D01*
X4485803Y4907500D01*
X4539119D01*
X4305881Y5689987D02*
X4359197D01*
X4332539D01*
Y5610013D01*
X4385855D02*
Y5689987D01*
X4425842D01*
X4439171Y5676658D01*
Y5650000D01*
X4425842Y5636671D01*
X4385855D01*
X4519145Y5610013D02*
X4465829D01*
X4519145Y5663329D01*
Y5676658D01*
X4505816Y5689987D01*
X4479158D01*
X4465829Y5676658D01*
X4599120Y5610013D02*
X4545803D01*
X4599120Y5663329D01*
Y5676658D01*
X4585791Y5689987D01*
X4559133D01*
X4545803Y5676658D01*
X4344210Y5389987D02*
X4397526D01*
X4370868D01*
Y5310013D01*
X4424184D02*
Y5389987D01*
X4464171D01*
X4477500Y5376658D01*
Y5350000D01*
X4464171Y5336671D01*
X4424184D01*
X4557474Y5310013D02*
X4504158D01*
X4557474Y5363329D01*
Y5376658D01*
X4544145Y5389987D01*
X4517487D01*
X4504158Y5376658D01*
X4584132Y5310013D02*
X4610790D01*
X4597461D01*
Y5389987D01*
X4584132Y5376658D01*
X6780045Y2162487D02*
X6833361D01*
X6806703D01*
Y2082513D01*
X6860019D02*
Y2162487D01*
X6900007D01*
X6913335Y2149158D01*
Y2122500D01*
X6900007Y2109171D01*
X6860019D01*
X6939993Y2082513D02*
X6966652D01*
X6953323D01*
Y2162487D01*
X6939993Y2149158D01*
X7006639Y2162487D02*
X7059955D01*
Y2149158D01*
X7006639Y2095842D01*
Y2082513D01*
X1067227Y3581926D02*
X1120543D01*
X1093885D01*
Y3501952D01*
X1147201D02*
Y3581926D01*
X1187189D01*
X1200518Y3568597D01*
Y3541939D01*
X1187189Y3528610D01*
X1147201D01*
X1227176Y3501952D02*
X1253834D01*
X1240505D01*
Y3581926D01*
X1227176Y3568597D01*
X1347137Y3581926D02*
X1293821D01*
Y3541939D01*
X1320479Y3555268D01*
X1333808D01*
X1347137Y3541939D01*
Y3515281D01*
X1333808Y3501952D01*
X1307150D01*
X1293821Y3515281D01*
X3490045Y2584987D02*
X3543361D01*
X3516703D01*
Y2505013D01*
X3570020D02*
Y2584987D01*
X3610007D01*
X3623336Y2571658D01*
Y2545000D01*
X3610007Y2531671D01*
X3570020D01*
X3649994Y2505013D02*
X3676652D01*
X3663323D01*
Y2584987D01*
X3649994Y2571658D01*
X3716639D02*
X3729968Y2584987D01*
X3756626D01*
X3769955Y2571658D01*
Y2558329D01*
X3756626Y2545000D01*
X3743297D01*
X3756626D01*
X3769955Y2531671D01*
Y2518342D01*
X3756626Y2505013D01*
X3729968D01*
X3716639Y2518342D01*
X3600045Y1184987D02*
X3653361D01*
X3626703D01*
Y1105013D01*
X3680019D02*
Y1184987D01*
X3720007D01*
X3733335Y1171658D01*
Y1145000D01*
X3720007Y1131671D01*
X3680019D01*
X3759993Y1105013D02*
X3786652D01*
X3773323D01*
Y1184987D01*
X3759993Y1171658D01*
X3879955Y1105013D02*
X3826639D01*
X3879955Y1158329D01*
Y1171658D01*
X3866626Y1184987D01*
X3839968D01*
X3826639Y1171658D01*
X4748375Y2597487D02*
X4801691D01*
X4775033D01*
Y2517513D01*
X4828349D02*
Y2597487D01*
X4868336D01*
X4881665Y2584158D01*
Y2557500D01*
X4868336Y2544171D01*
X4828349D01*
X4908323Y2517513D02*
X4934981D01*
X4921652D01*
Y2597487D01*
X4908323Y2584158D01*
X4974968Y2517513D02*
X5001626D01*
X4988297D01*
Y2597487D01*
X4974968Y2584158D01*
X4527279Y971221D02*
X4580595D01*
X4553937D01*
Y891247D01*
X4607253D02*
Y971221D01*
X4647240D01*
X4660569Y957892D01*
Y931234D01*
X4647240Y917905D01*
X4607253D01*
X4687227Y891247D02*
X4713885D01*
X4700556D01*
Y971221D01*
X4687227Y957892D01*
X4753872D02*
X4767202Y971221D01*
X4793860D01*
X4807189Y957892D01*
Y904576D01*
X4793860Y891247D01*
X4767202D01*
X4753872Y904576D01*
Y957892D01*
X3650868Y2831643D02*
X3704184D01*
X3677526D01*
Y2751668D01*
X3730842D02*
Y2831643D01*
X3770829D01*
X3784158Y2818314D01*
Y2791656D01*
X3770829Y2778326D01*
X3730842D01*
X3810816Y2764998D02*
X3824145Y2751668D01*
X3850803D01*
X3864132Y2764998D01*
Y2818314D01*
X3850803Y2831643D01*
X3824145D01*
X3810816Y2818314D01*
Y2804984D01*
X3824145Y2791656D01*
X3864132D01*
X4428368Y2877487D02*
X4481684D01*
X4455026D01*
Y2797513D01*
X4508342D02*
Y2877487D01*
X4548329D01*
X4561658Y2864158D01*
Y2837500D01*
X4548329Y2824171D01*
X4508342D01*
X4588316Y2864158D02*
X4601645Y2877487D01*
X4628303D01*
X4641632Y2864158D01*
Y2850829D01*
X4628303Y2837500D01*
X4641632Y2824171D01*
Y2810842D01*
X4628303Y2797513D01*
X4601645D01*
X4588316Y2810842D01*
Y2824171D01*
X4601645Y2837500D01*
X4588316Y2850829D01*
Y2864158D01*
X4601645Y2837500D02*
X4628303D01*
X4913368Y2844987D02*
X4966684D01*
X4940026D01*
Y2765013D01*
X4993342D02*
Y2844987D01*
X5033330D01*
X5046658Y2831658D01*
Y2805000D01*
X5033330Y2791671D01*
X4993342D01*
X5073316Y2844987D02*
X5126633D01*
Y2831658D01*
X5073316Y2778342D01*
Y2765013D01*
X5674618Y2841237D02*
X5727934D01*
X5701276D01*
Y2761263D01*
X5754593D02*
Y2841237D01*
X5794580D01*
X5807909Y2827908D01*
Y2801250D01*
X5794580Y2787921D01*
X5754593D01*
X5887883Y2841237D02*
X5861225Y2827908D01*
X5834567Y2801250D01*
Y2774592D01*
X5847896Y2761263D01*
X5874554D01*
X5887883Y2774592D01*
Y2787921D01*
X5874554Y2801250D01*
X5834567D01*
X4372093Y1550087D02*
X4425409D01*
X4398751D01*
Y1470113D01*
X4452068D02*
Y1550087D01*
X4492055D01*
X4505384Y1536758D01*
Y1510100D01*
X4492055Y1496771D01*
X4452068D01*
X4585358Y1550087D02*
X4532042D01*
Y1510100D01*
X4558700Y1523429D01*
X4572029D01*
X4585358Y1510100D01*
Y1483442D01*
X4572029Y1470113D01*
X4545371D01*
X4532042Y1483442D01*
X4123368Y1157487D02*
X4176684D01*
X4150026D01*
Y1077513D01*
X4203342D02*
Y1157487D01*
X4243329D01*
X4256658Y1144158D01*
Y1117500D01*
X4243329Y1104171D01*
X4203342D01*
X4323303Y1077513D02*
Y1157487D01*
X4283316Y1117500D01*
X4336632D01*
X5378367Y1347479D02*
X5431684D01*
X5405026D01*
Y1267505D01*
X5458342D02*
Y1347479D01*
X5498329D01*
X5511658Y1334150D01*
Y1307492D01*
X5498329Y1294163D01*
X5458342D01*
X5538316Y1334150D02*
X5551645Y1347479D01*
X5578303D01*
X5591632Y1334150D01*
Y1320821D01*
X5578303Y1307492D01*
X5564974D01*
X5578303D01*
X5591632Y1294163D01*
Y1280834D01*
X5578303Y1267505D01*
X5551645D01*
X5538316Y1280834D01*
X5665868Y977487D02*
X5719184D01*
X5692526D01*
Y897513D01*
X5745842D02*
Y977487D01*
X5785829D01*
X5799158Y964158D01*
Y937500D01*
X5785829Y924171D01*
X5745842D01*
X5879132Y897513D02*
X5825816D01*
X5879132Y950829D01*
Y964158D01*
X5865803Y977487D01*
X5839145D01*
X5825816Y964158D01*
X4101697Y4552487D02*
X4155013D01*
X4128355D01*
Y4472513D01*
X4181671D02*
Y4552487D01*
X4221658D01*
X4234987Y4539158D01*
Y4512500D01*
X4221658Y4499171D01*
X4181671D01*
X4261645Y4472513D02*
X4288303D01*
X4274974D01*
Y4552487D01*
X4261645Y4539158D01*
X2508355Y-59987D02*
Y19987D01*
X2548342D01*
X2561671Y6658D01*
Y-20000D01*
X2548342Y-33329D01*
X2508355D01*
X2641645Y19987D02*
X2614987Y6658D01*
X2588329Y-20000D01*
Y-46658D01*
X2601658Y-59987D01*
X2628316D01*
X2641645Y-46658D01*
Y-33329D01*
X2628316Y-20000D01*
X2588329D01*
X8020855Y745013D02*
Y824987D01*
X8060842D01*
X8074171Y811658D01*
Y785000D01*
X8060842Y771671D01*
X8020855D01*
X8154145Y824987D02*
X8100829D01*
Y785000D01*
X8127487Y798329D01*
X8140816D01*
X8154145Y785000D01*
Y758342D01*
X8140816Y745013D01*
X8114158D01*
X8100829Y758342D01*
X7625855Y3647513D02*
Y3727487D01*
X7665842D01*
X7679171Y3714158D01*
Y3687500D01*
X7665842Y3674171D01*
X7625855D01*
X7745816Y3647513D02*
Y3727487D01*
X7705829Y3687500D01*
X7759145D01*
X6575855Y6775013D02*
Y6854987D01*
X6615842D01*
X6629171Y6841658D01*
Y6815000D01*
X6615842Y6801671D01*
X6575855D01*
X6655829Y6841658D02*
X6669158Y6854987D01*
X6695816D01*
X6709145Y6841658D01*
Y6828329D01*
X6695816Y6815000D01*
X6682487D01*
X6695816D01*
X6709145Y6801671D01*
Y6788342D01*
X6695816Y6775013D01*
X6669158D01*
X6655829Y6788342D01*
X4798351Y4775014D02*
Y4854988D01*
X4838338D01*
X4851667Y4841659D01*
Y4815001D01*
X4838338Y4801672D01*
X4798351D01*
X4931641Y4775014D02*
X4878325D01*
X4931641Y4828330D01*
Y4841659D01*
X4918312Y4854988D01*
X4891654D01*
X4878325Y4841659D01*
X7624184Y5700013D02*
Y5779987D01*
X7664171D01*
X7677500Y5766658D01*
Y5740000D01*
X7664171Y5726671D01*
X7624184D01*
X7704158Y5700013D02*
X7730816D01*
X7717487D01*
Y5779987D01*
X7704158Y5766658D01*
X2140855Y484987D02*
Y405013D01*
X2194171D01*
X2274145Y484987D02*
X2220829D01*
Y445000D01*
X2247487Y458329D01*
X2260816D01*
X2274145Y445000D01*
Y418342D01*
X2260816Y405013D01*
X2234158D01*
X2220829Y418342D01*
X1273355Y484987D02*
Y405013D01*
X1326671D01*
X1393316D02*
Y484987D01*
X1353329Y445000D01*
X1406645D01*
X1068340Y3325854D02*
Y3245880D01*
X1121656D01*
X1148314Y3312526D02*
X1161643Y3325854D01*
X1188301D01*
X1201630Y3312526D01*
Y3299196D01*
X1188301Y3285867D01*
X1174972D01*
X1188301D01*
X1201630Y3272538D01*
Y3259209D01*
X1188301Y3245880D01*
X1161643D01*
X1148314Y3259209D01*
X308355Y2699987D02*
Y2620013D01*
X361671D01*
X441645D02*
X388329D01*
X441645Y2673329D01*
Y2686658D01*
X428316Y2699987D01*
X401658D01*
X388329Y2686658D01*
X3304184Y2899987D02*
Y2820013D01*
X3357500D01*
X3384158D02*
X3410816D01*
X3397487D01*
Y2899987D01*
X3384158Y2886658D01*
X526671Y4897487D02*
X500013D01*
X513342D01*
Y4830842D01*
X500013Y4817513D01*
X486684D01*
X473355Y4830842D01*
X606645Y4817513D02*
X553329D01*
X606645Y4870829D01*
Y4884158D01*
X593316Y4897487D01*
X566658D01*
X553329Y4884158D01*
X4665000Y6864987D02*
X4638342D01*
X4651671D01*
Y6798342D01*
X4638342Y6785013D01*
X4625013D01*
X4611684Y6798342D01*
X4691658Y6785013D02*
X4718316D01*
X4704987D01*
Y6864987D01*
X4691658Y6851658D01*
X4760841Y3336684D02*
X4747512Y3323355D01*
Y3296697D01*
X4760841Y3283368D01*
X4814158D01*
X4827487Y3296697D01*
Y3323355D01*
X4814158Y3336684D01*
X4827487Y3403329D02*
X4747512D01*
X4787499Y3363342D01*
Y3416658D01*
X4760841Y3443316D02*
X4747512Y3456646D01*
Y3483304D01*
X4760841Y3496633D01*
X4814158D01*
X4827487Y3483304D01*
Y3456646D01*
X4814158Y3443316D01*
X4760841D01*
X4775841Y4181684D02*
X4762512Y4168355D01*
Y4141697D01*
X4775841Y4128368D01*
X4829157D01*
X4842487Y4141697D01*
Y4168355D01*
X4829157Y4181684D01*
X4775841Y4208342D02*
X4762512Y4221671D01*
Y4248329D01*
X4775841Y4261658D01*
X4789171D01*
X4802499Y4248329D01*
Y4235000D01*
Y4248329D01*
X4815829Y4261658D01*
X4829157D01*
X4842487Y4248329D01*
Y4221671D01*
X4829157Y4208342D01*
Y4288316D02*
X4842487Y4301645D01*
Y4328304D01*
X4829157Y4341632D01*
X4775841D01*
X4762512Y4328304D01*
Y4301645D01*
X4775841Y4288316D01*
X4789171D01*
X4802499Y4301645D01*
Y4341632D01*
X2401684Y2604158D02*
X2388355Y2617487D01*
X2361697D01*
X2348368Y2604158D01*
Y2550842D01*
X2361697Y2537513D01*
X2388355D01*
X2401684Y2550842D01*
X2428342Y2604158D02*
X2441671Y2617487D01*
X2468329D01*
X2481658Y2604158D01*
Y2590829D01*
X2468329Y2577500D01*
X2455000D01*
X2468329D01*
X2481658Y2564171D01*
Y2550842D01*
X2468329Y2537513D01*
X2441671D01*
X2428342Y2550842D01*
X2508316Y2604158D02*
X2521645Y2617487D01*
X2548303D01*
X2561632Y2604158D01*
Y2590829D01*
X2548303Y2577500D01*
X2534974D01*
X2548303D01*
X2561632Y2564171D01*
Y2550842D01*
X2548303Y2537513D01*
X2521645D01*
X2508316Y2550842D01*
X1524184Y2611658D02*
X1510855Y2624987D01*
X1484197D01*
X1470868Y2611658D01*
Y2558342D01*
X1484197Y2545013D01*
X1510855D01*
X1524184Y2558342D01*
X1550842Y2611658D02*
X1564171Y2624987D01*
X1590829D01*
X1604158Y2611658D01*
Y2598329D01*
X1590829Y2585000D01*
X1577500D01*
X1590829D01*
X1604158Y2571671D01*
Y2558342D01*
X1590829Y2545013D01*
X1564171D01*
X1550842Y2558342D01*
X1684132Y2545013D02*
X1630816D01*
X1684132Y2598329D01*
Y2611658D01*
X1670803Y2624987D01*
X1644145D01*
X1630816Y2611658D01*
X1056684Y4339158D02*
X1043355Y4352487D01*
X1016697D01*
X1003368Y4339158D01*
Y4285842D01*
X1016697Y4272513D01*
X1043355D01*
X1056684Y4285842D01*
X1136658Y4272513D02*
X1083342D01*
X1136658Y4325829D01*
Y4339158D01*
X1123329Y4352487D01*
X1096671D01*
X1083342Y4339158D01*
X1203303Y4272513D02*
Y4352487D01*
X1163316Y4312500D01*
X1216632D01*
X669184Y2614158D02*
X655855Y2627487D01*
X629197D01*
X615868Y2614158D01*
Y2560842D01*
X629197Y2547513D01*
X655855D01*
X669184Y2560842D01*
X749158Y2547513D02*
X695842D01*
X749158Y2600829D01*
Y2614158D01*
X735829Y2627487D01*
X709171D01*
X695842Y2614158D01*
X775816D02*
X789145Y2627487D01*
X815803D01*
X829132Y2614158D01*
Y2600829D01*
X815803Y2587500D01*
X802474D01*
X815803D01*
X829132Y2574171D01*
Y2560842D01*
X815803Y2547513D01*
X789145D01*
X775816Y2560842D01*
X1737513Y3599158D02*
X1724184Y3612487D01*
X1697526D01*
X1684197Y3599158D01*
Y3545842D01*
X1697526Y3532513D01*
X1724184D01*
X1737513Y3545842D01*
X1817487Y3532513D02*
X1764171D01*
X1817487Y3585829D01*
Y3599158D01*
X1804158Y3612487D01*
X1777500D01*
X1764171Y3599158D01*
X1844145Y3532513D02*
X1870803D01*
X1857474D01*
Y3612487D01*
X1844145Y3599158D01*
X3399171Y1696658D02*
X3385842Y1709987D01*
X3359184D01*
X3345855Y1696658D01*
Y1643342D01*
X3359184Y1630013D01*
X3385842D01*
X3399171Y1643342D01*
X3425829Y1696658D02*
X3439158Y1709987D01*
X3465816D01*
X3479145Y1696658D01*
Y1683329D01*
X3465816Y1670000D01*
X3452487D01*
X3465816D01*
X3479145Y1656671D01*
Y1643342D01*
X3465816Y1630013D01*
X3439158D01*
X3425829Y1643342D01*
%TF.MD5,2b8d53c83919ea31d06ede4da355e8da*%
M02*
