%TF.GenerationSoftware,Altium Limited,Altium Designer,24.7.2 (38)*%
G04 Layer_Color=32768*
%FSLAX45Y45*%
%MOMM*%
%TF.SameCoordinates,313A2AA4-CFAA-4B56-AAC7-ADE98D6BBF51*%
%TF.FilePolarity,Positive*%
%TF.FileFunction,Other,Mechanical_15*%
%TF.Part,Single*%
G01*
G75*
%TA.AperFunction,NonConductor*%
%ADD61C,0.15240*%
%ADD62C,0.20000*%
%ADD98C,0.10000*%
%ADD99C,0.05000*%
G36*
X5346700Y3377690D02*
X5287690D01*
Y3436700D01*
X5162410D01*
Y4088300D01*
X5287690D01*
Y4147310D01*
X5346700D01*
Y4272590D01*
X5998300D01*
Y4147310D01*
X6057310D01*
Y4088300D01*
X6182590D01*
Y3436700D01*
X6057310D01*
Y3377690D01*
X5998300D01*
Y3252410D01*
X5346700D01*
Y3377690D01*
D02*
G37*
D61*
X5287690D02*
Y3436700D01*
X5162410D02*
X5287690D01*
X5162410D02*
Y4088300D01*
X5287690D01*
Y4147310D01*
X5346700D01*
Y4272590D01*
X5998300D01*
Y4147310D02*
Y4272590D01*
Y4147310D02*
X6057310D01*
Y4088300D02*
Y4147310D01*
Y4088300D02*
X6182590D01*
Y3436700D02*
Y4088300D01*
X6057310Y3436700D02*
X6182590D01*
X6057310Y3377690D02*
Y3436700D01*
X5998300Y3377690D02*
X6057310D01*
X5998300Y3252410D02*
Y3377690D01*
X5346700Y3252410D02*
X5998300D01*
X5346700D02*
Y3377690D01*
X5287690D02*
X5346700D01*
D62*
X4272500Y6482500D02*
Y6637500D01*
X3932500Y6482500D02*
X4272500D01*
X3932500D02*
Y6637500D01*
X4272500D01*
X6537516Y6365000D02*
X6692516D01*
Y6025000D02*
Y6365000D01*
X6537516Y6025000D02*
X6692516D01*
X6537516D02*
Y6365000D01*
X8460000Y5640000D02*
X8800000D01*
Y5795000D01*
X8460000D02*
X8800000D01*
X8460000Y5640000D02*
Y5795000D01*
X4778500Y6265000D02*
X6358500D01*
X4778500D02*
Y6895000D01*
X6358500D01*
Y6265000D02*
Y6895000D01*
X8457500Y5062500D02*
X8797500D01*
Y5217500D01*
X8457500D02*
X8797500D01*
X8457500Y5062500D02*
Y5217500D01*
X8467500Y5345000D02*
X8807500D01*
Y5500000D01*
X8467500D02*
X8807500D01*
X8467500Y5345000D02*
Y5500000D01*
X8460000Y4740000D02*
X8800000D01*
Y4895000D01*
X8460000D02*
X8800000D01*
X8460000Y4740000D02*
Y4895000D01*
Y4440000D02*
X8800000D01*
Y4595000D01*
X8460000D02*
X8800000D01*
X8460000Y4440000D02*
Y4595000D01*
Y4140000D02*
Y4295000D01*
X8800000D01*
Y4140000D02*
Y4295000D01*
X8460000Y4140000D02*
X8800000D01*
X8460000Y3840000D02*
Y3995000D01*
X8800000D01*
Y3840000D02*
Y3995000D01*
X8460000Y3840000D02*
X8800000D01*
X2492500Y3645000D02*
X2832500D01*
Y3800000D01*
X2492500D02*
X2832500D01*
X2492500Y3645000D02*
Y3800000D01*
D98*
X462500Y3082500D02*
X562500D01*
X512500Y3032500D02*
Y3132500D01*
X4102500Y6510000D02*
Y6610000D01*
X4052500Y6560000D02*
X4152500D01*
X6565016Y6195000D02*
X6665016D01*
X6615016Y6145000D02*
Y6245000D01*
X8580000Y5717500D02*
X8680000D01*
X8630000Y5667500D02*
Y5767500D01*
X4427500Y3760000D02*
Y3860000D01*
X4377500Y3810000D02*
X4477500D01*
X5518500Y6580000D02*
X5618500D01*
X5568500Y6530000D02*
Y6630000D01*
X8577500Y5140000D02*
X8677500D01*
X8627500Y5090000D02*
Y5190000D01*
X8587500Y5422500D02*
X8687500D01*
X8637500Y5372500D02*
Y5472500D01*
X8580000Y4817500D02*
X8680000D01*
X8630000Y4767500D02*
Y4867500D01*
X8580000Y4517500D02*
X8680000D01*
X8630000Y4467500D02*
Y4567500D01*
Y4167500D02*
Y4267500D01*
X8580000Y4217500D02*
X8680000D01*
X8630000Y3867500D02*
Y3967500D01*
X8580000Y3917500D02*
X8680000D01*
X3939984Y1762500D02*
X4039984D01*
X3989984Y1712500D02*
Y1812500D01*
X5190001Y1717500D02*
X5290000D01*
X5240000Y1667500D02*
Y1767500D01*
X2612500Y3722500D02*
X2712500D01*
X2662500Y3672500D02*
Y3772500D01*
X3220000Y5370000D02*
Y5469999D01*
X3170000Y5420000D02*
X3270000D01*
D99*
X237500Y2712500D02*
Y3452500D01*
X787500Y2712500D02*
Y3452500D01*
X237500D02*
X787500D01*
X237500Y2712500D02*
X787500D01*
X4185064Y3232502D02*
Y4387516D01*
Y3232502D02*
X4669936D01*
Y4387516D01*
X4185047D02*
X4669936D01*
X7040000Y6530000D02*
Y6630000D01*
X6990000Y6580000D02*
X7090000D01*
X7331000Y6262500D02*
Y6897500D01*
X6749000D02*
X7331000D01*
X6749000Y6262500D02*
Y6897500D01*
Y6262500D02*
X7331000D01*
X4757500Y4900000D02*
Y5970000D01*
X5287500D01*
Y4900000D02*
Y5970000D01*
X4757500Y4900000D02*
X5287500D01*
X4972500Y5435000D02*
X5072500D01*
X5022500Y5385000D02*
Y5485000D01*
X4164984Y1597500D02*
Y1927500D01*
X3814984Y1597500D02*
Y1927500D01*
X4164984D01*
X3814984Y1597500D02*
X4164984D01*
X5415000Y1552500D02*
Y1882500D01*
X5065001Y1552500D02*
Y1882500D01*
X5415000D01*
X5065001Y1552500D02*
X5415000D01*
X8350000Y2940000D02*
X8450000D01*
X8400000Y2890000D02*
Y2990000D01*
X7560000Y2268000D02*
Y3612000D01*
X9002500D01*
Y2268000D02*
Y3612000D01*
X7560000Y2268000D02*
X9002500D01*
X8350000Y1550000D02*
X8450000D01*
X8400000Y1500000D02*
Y1600000D01*
X7560000Y878000D02*
Y2222000D01*
X9002500D01*
Y878000D02*
Y2222000D01*
X7560000Y878000D02*
X9002500D01*
X2580000Y4844999D02*
X3860000D01*
X2580000Y5995000D02*
X3860000D01*
X2580000Y4844999D02*
Y5995000D01*
X3860000Y4844999D02*
Y5995000D01*
%TF.MD5,82c4e6609c9231aa7e762596d65ae7a7*%
M02*
