%TF.GenerationSoftware,Altium Limited,Altium Designer,24.3.1 (35)*%
G04 Layer_Color=16711935*
%FSLAX43Y43*%
%MOMM*%
%TF.SameCoordinates,76E1361F-AA3B-45A8-A24B-41510BF92E79*%
%TF.FilePolarity,Positive*%
%TF.FileFunction,Keep-out,Top*%
%TF.Part,Single*%
G01*
G75*
%TA.AperFunction,NonConductor*%
%ADD95C,0.254*%
D95*
X128386Y70375D02*
G03*
X130386Y70375I1000J0D01*
G01*
Y78125D02*
G03*
X128386Y78125I-1000J0D01*
G01*
X130369Y31279D02*
G03*
X128369Y31279I-1000J0D01*
G01*
Y23529D02*
G03*
X130369Y23529I1000J0D01*
G01*
X6500Y5000D02*
G03*
X6500Y5000I-1500J0D01*
G01*
X0D02*
G03*
X5000Y0I5000J0D01*
G01*
X210000D02*
G03*
X215000Y5000I0J5000D01*
G01*
X211500D02*
G03*
X211500Y5000I-1500J0D01*
G01*
X215000Y105000D02*
G03*
X210000Y110000I-5000J0D01*
G01*
X211500Y105000D02*
G03*
X211500Y105000I-1500J0D01*
G01*
X6500D02*
G03*
X6500Y105000I-1500J0D01*
G01*
X5000Y110000D02*
G03*
X0Y105000I0J-5000D01*
G01*
X130386Y70375D02*
Y78125D01*
X128386Y70375D02*
Y78125D01*
X128369Y23529D02*
Y31279D01*
X130369Y23529D02*
Y31279D01*
X215000Y105000D02*
X215000Y4950D01*
X0Y105024D02*
X0Y5000D01*
X5000Y110000D02*
X210000Y110000D01*
X5000Y0D02*
X210025Y0D01*
%TF.MD5,f4954aae26dd438e2fa28ee8cb67d879*%
M02*
