%TF.GenerationSoftware,Altium Limited,Altium Designer,24.3.1 (35)*%
G04 Layer_Color=8388736*
%FSLAX43Y43*%
%MOMM*%
%TF.SameCoordinates,76E1361F-AA3B-45A8-A24B-41510BF92E79*%
%TF.FilePolarity,Positive*%
%TF.FileFunction,Other,Bottom_Assembly*%
%TF.Part,Single*%
G01*
G75*
%TA.AperFunction,NonConductor*%
%ADD94C,0.200*%
G36*
X165886Y29662D02*
X165893Y29661D01*
X165902Y29660D01*
X165912Y29660D01*
X165922Y29657D01*
X165945Y29651D01*
X165968Y29643D01*
X165980Y29637D01*
X165992Y29631D01*
X166003Y29623D01*
X166014Y29615D01*
X166015Y29614D01*
X166017Y29613D01*
X166019Y29610D01*
X166023Y29606D01*
X166027Y29601D01*
X166032Y29596D01*
X166038Y29588D01*
X166042Y29580D01*
X166048Y29572D01*
X166053Y29562D01*
X166063Y29539D01*
X166072Y29513D01*
X166075Y29500D01*
X166076Y29485D01*
X165994Y29478D01*
Y29479D01*
Y29481D01*
X165993Y29484D01*
X165992Y29489D01*
X165989Y29499D01*
X165986Y29513D01*
X165980Y29526D01*
X165973Y29542D01*
X165964Y29556D01*
X165952Y29569D01*
X165951Y29570D01*
X165947Y29574D01*
X165940Y29578D01*
X165929Y29584D01*
X165918Y29589D01*
X165904Y29594D01*
X165889Y29598D01*
X165871Y29599D01*
X165866D01*
X165862Y29598D01*
X165851Y29597D01*
X165838Y29593D01*
X165822Y29588D01*
X165806Y29581D01*
X165790Y29570D01*
X165782Y29563D01*
X165775Y29556D01*
X165774Y29555D01*
X165773Y29554D01*
X165771Y29551D01*
X165768Y29549D01*
X165762Y29538D01*
X165755Y29525D01*
X165748Y29510D01*
X165742Y29490D01*
X165737Y29467D01*
X165735Y29455D01*
Y29442D01*
Y29441D01*
Y29439D01*
Y29436D01*
X165736Y29431D01*
Y29426D01*
X165737Y29419D01*
X165740Y29404D01*
X165744Y29387D01*
X165751Y29369D01*
X165760Y29353D01*
X165773Y29337D01*
Y29336D01*
X165775Y29335D01*
X165780Y29330D01*
X165788Y29324D01*
X165799Y29317D01*
X165814Y29310D01*
X165830Y29304D01*
X165850Y29299D01*
X165861Y29297D01*
X165879D01*
X165886Y29298D01*
X165895Y29299D01*
X165906Y29302D01*
X165917Y29305D01*
X165929Y29309D01*
X165941Y29315D01*
X165942Y29316D01*
X165946Y29317D01*
X165952Y29322D01*
X165959Y29327D01*
X165966Y29333D01*
X165974Y29341D01*
X165982Y29350D01*
X165989Y29360D01*
X166063Y29350D01*
X166001Y29021D01*
X165683D01*
Y29096D01*
X165939D01*
X165973Y29268D01*
X165972Y29268D01*
X165970Y29267D01*
X165967Y29265D01*
X165963Y29262D01*
X165957Y29259D01*
X165951Y29256D01*
X165936Y29248D01*
X165917Y29241D01*
X165897Y29234D01*
X165875Y29230D01*
X165864Y29228D01*
X165843D01*
X165838Y29229D01*
X165830Y29230D01*
X165822Y29231D01*
X165813Y29232D01*
X165803Y29235D01*
X165781Y29242D01*
X165768Y29246D01*
X165756Y29253D01*
X165744Y29259D01*
X165732Y29267D01*
X165721Y29276D01*
X165710Y29286D01*
X165709Y29287D01*
X165707Y29289D01*
X165705Y29292D01*
X165701Y29296D01*
X165696Y29303D01*
X165692Y29309D01*
X165686Y29317D01*
X165681Y29327D01*
X165676Y29337D01*
X165670Y29348D01*
X165666Y29361D01*
X165661Y29374D01*
X165658Y29388D01*
X165655Y29403D01*
X165653Y29419D01*
X165652Y29436D01*
Y29437D01*
Y29439D01*
Y29444D01*
X165653Y29451D01*
X165654Y29458D01*
X165655Y29466D01*
X165657Y29476D01*
X165658Y29487D01*
X165664Y29511D01*
X165673Y29536D01*
X165679Y29549D01*
X165686Y29561D01*
X165694Y29574D01*
X165703Y29586D01*
X165704Y29587D01*
X165706Y29589D01*
X165709Y29593D01*
X165714Y29598D01*
X165720Y29603D01*
X165728Y29611D01*
X165737Y29617D01*
X165747Y29624D01*
X165758Y29632D01*
X165771Y29638D01*
X165785Y29645D01*
X165800Y29651D01*
X165816Y29656D01*
X165833Y29660D01*
X165852Y29662D01*
X165871Y29663D01*
X165879D01*
X165886Y29662D01*
D02*
G37*
G36*
X167187Y29012D02*
X166941D01*
X166924Y29013D01*
X166906Y29014D01*
X166887Y29016D01*
X166869Y29019D01*
X166853Y29022D01*
X166852D01*
X166850Y29023D01*
X166847D01*
X166844Y29024D01*
X166834Y29027D01*
X166821Y29032D01*
X166806Y29038D01*
X166790Y29047D01*
X166774Y29056D01*
X166760Y29068D01*
X166759Y29069D01*
X166758Y29070D01*
X166755Y29072D01*
X166751Y29075D01*
X166742Y29084D01*
X166731Y29097D01*
X166719Y29113D01*
X166706Y29132D01*
X166694Y29153D01*
X166684Y29177D01*
Y29178D01*
X166683Y29180D01*
X166681Y29183D01*
X166680Y29189D01*
X166677Y29195D01*
X166675Y29203D01*
X166674Y29211D01*
X166671Y29221D01*
X166668Y29231D01*
X166666Y29243D01*
X166662Y29269D01*
X166659Y29298D01*
X166658Y29329D01*
Y29330D01*
Y29332D01*
Y29337D01*
Y29341D01*
X166659Y29348D01*
Y29355D01*
X166660Y29373D01*
X166663Y29393D01*
X166665Y29415D01*
X166670Y29437D01*
X166675Y29459D01*
Y29460D01*
X166676Y29462D01*
X166677Y29464D01*
X166678Y29468D01*
X166682Y29478D01*
X166688Y29491D01*
X166693Y29506D01*
X166700Y29521D01*
X166710Y29537D01*
X166719Y29551D01*
X166720Y29553D01*
X166724Y29558D01*
X166729Y29564D01*
X166737Y29573D01*
X166745Y29582D01*
X166755Y29591D01*
X166765Y29601D01*
X166777Y29610D01*
X166779Y29611D01*
X166783Y29613D01*
X166789Y29617D01*
X166798Y29622D01*
X166810Y29627D01*
X166822Y29632D01*
X166837Y29637D01*
X166854Y29642D01*
X166856D01*
X166859Y29643D01*
X166861Y29644D01*
X166871Y29645D01*
X166884Y29647D01*
X166898Y29648D01*
X166916Y29650D01*
X166935Y29651D01*
X166957Y29652D01*
X167187D01*
Y29012D01*
D02*
G37*
G36*
X166357Y29152D02*
X166357Y29153D01*
X166362Y29157D01*
X166368Y29162D01*
X166377Y29169D01*
X166387Y29177D01*
X166400Y29186D01*
X166415Y29196D01*
X166431Y29206D01*
X166432D01*
X166433Y29207D01*
X166439Y29211D01*
X166448Y29216D01*
X166459Y29221D01*
X166472Y29228D01*
X166486Y29234D01*
X166500Y29241D01*
X166514Y29246D01*
Y29170D01*
X166513D01*
X166511Y29169D01*
X166507Y29168D01*
X166503Y29165D01*
X166497Y29162D01*
X166491Y29158D01*
X166475Y29149D01*
X166456Y29139D01*
X166438Y29126D01*
X166418Y29111D01*
X166399Y29096D01*
X166398Y29095D01*
X166397Y29094D01*
X166394Y29091D01*
X166391Y29088D01*
X166382Y29079D01*
X166371Y29068D01*
X166360Y29055D01*
X166348Y29040D01*
X166338Y29025D01*
X166329Y29010D01*
X166278D01*
Y29652D01*
X166357D01*
Y29152D01*
D02*
G37*
G36*
X207200Y12923D02*
X206954D01*
X206937Y12924D01*
X206919Y12925D01*
X206900Y12927D01*
X206882Y12930D01*
X206866Y12933D01*
X206865D01*
X206863Y12934D01*
X206861D01*
X206857Y12935D01*
X206847Y12938D01*
X206834Y12943D01*
X206819Y12949D01*
X206803Y12958D01*
X206788Y12967D01*
X206773Y12979D01*
X206772Y12980D01*
X206771Y12981D01*
X206768Y12984D01*
X206765Y12986D01*
X206755Y12996D01*
X206744Y13009D01*
X206732Y13024D01*
X206719Y13043D01*
X206707Y13064D01*
X206697Y13088D01*
Y13089D01*
X206696Y13091D01*
X206694Y13094D01*
X206693Y13100D01*
X206691Y13107D01*
X206689Y13114D01*
X206687Y13122D01*
X206684Y13132D01*
X206681Y13143D01*
X206679Y13155D01*
X206675Y13180D01*
X206672Y13209D01*
X206671Y13241D01*
Y13241D01*
Y13243D01*
Y13248D01*
Y13253D01*
X206672Y13259D01*
Y13266D01*
X206673Y13284D01*
X206676Y13304D01*
X206679Y13326D01*
X206683Y13348D01*
X206689Y13370D01*
Y13371D01*
X206690Y13373D01*
X206691Y13376D01*
X206691Y13379D01*
X206695Y13389D01*
X206701Y13402D01*
X206706Y13417D01*
X206714Y13432D01*
X206723Y13448D01*
X206732Y13462D01*
X206733Y13464D01*
X206737Y13469D01*
X206742Y13475D01*
X206750Y13484D01*
X206758Y13493D01*
X206768Y13502D01*
X206778Y13512D01*
X206790Y13521D01*
X206792Y13522D01*
X206796Y13524D01*
X206802Y13528D01*
X206812Y13533D01*
X206823Y13538D01*
X206836Y13543D01*
X206851Y13548D01*
X206867Y13553D01*
X206869D01*
X206872Y13554D01*
X206875Y13555D01*
X206884Y13556D01*
X206897Y13558D01*
X206912Y13560D01*
X206929Y13561D01*
X206949Y13562D01*
X206970Y13563D01*
X207200D01*
Y12923D01*
D02*
G37*
G36*
X205838Y13410D02*
X206116D01*
Y13338D01*
X205823Y12923D01*
X205760D01*
Y13338D01*
X205673D01*
Y13410D01*
X205760D01*
Y13563D01*
X205838D01*
Y13410D01*
D02*
G37*
G36*
X206370Y13063D02*
X206371Y13064D01*
X206375Y13068D01*
X206381Y13073D01*
X206390Y13080D01*
X206400Y13088D01*
X206413Y13097D01*
X206428Y13107D01*
X206445Y13118D01*
X206446D01*
X206446Y13119D01*
X206452Y13122D01*
X206461Y13127D01*
X206472Y13132D01*
X206485Y13139D01*
X206499Y13145D01*
X206513Y13152D01*
X206527Y13157D01*
Y13082D01*
X206526D01*
X206524Y13080D01*
X206520Y13079D01*
X206516Y13076D01*
X206510Y13073D01*
X206504Y13070D01*
X206488Y13060D01*
X206470Y13050D01*
X206451Y13037D01*
X206432Y13022D01*
X206412Y13007D01*
X206411Y13006D01*
X206410Y13005D01*
X206408Y13002D01*
X206404Y12999D01*
X206396Y12990D01*
X206385Y12979D01*
X206373Y12966D01*
X206361Y12951D01*
X206351Y12936D01*
X206342Y12921D01*
X206291D01*
Y13563D01*
X206370D01*
Y13063D01*
D02*
G37*
G36*
X194472Y6748D02*
X194175D01*
X194168Y6749D01*
X194159D01*
X194140Y6750D01*
X194119Y6753D01*
X194097Y6756D01*
X194077Y6760D01*
X194067Y6763D01*
X194058Y6766D01*
X194058D01*
X194057Y6767D01*
X194051Y6770D01*
X194043Y6773D01*
X194033Y6780D01*
X194021Y6788D01*
X194009Y6799D01*
X193998Y6812D01*
X193987Y6827D01*
Y6828D01*
X193986Y6829D01*
X193983Y6834D01*
X193979Y6844D01*
X193973Y6856D01*
X193969Y6870D01*
X193964Y6886D01*
X193961Y6904D01*
X193960Y6923D01*
Y6924D01*
Y6926D01*
Y6930D01*
X193961Y6934D01*
Y6941D01*
X193962Y6947D01*
X193966Y6963D01*
X193972Y6981D01*
X193979Y7001D01*
X193990Y7020D01*
X193997Y7030D01*
X194005Y7039D01*
X194006Y7040D01*
X194007Y7041D01*
X194009Y7043D01*
X194013Y7046D01*
X194018Y7050D01*
X194023Y7054D01*
X194031Y7058D01*
X194038Y7064D01*
X194047Y7068D01*
X194058Y7073D01*
X194069Y7079D01*
X194081Y7083D01*
X194094Y7087D01*
X194108Y7091D01*
X194124Y7094D01*
X194141Y7097D01*
X194139Y7098D01*
X194135Y7100D01*
X194130Y7103D01*
X194122Y7107D01*
X194106Y7117D01*
X194097Y7124D01*
X194090Y7129D01*
X194088Y7131D01*
X194083Y7136D01*
X194076Y7143D01*
X194067Y7152D01*
X194057Y7165D01*
X194045Y7179D01*
X194033Y7196D01*
X194020Y7214D01*
X193910Y7388D01*
X194015D01*
X194099Y7255D01*
Y7254D01*
X194101Y7252D01*
X194103Y7250D01*
X194106Y7246D01*
X194112Y7236D01*
X194120Y7223D01*
X194131Y7209D01*
X194141Y7194D01*
X194151Y7180D01*
X194160Y7167D01*
X194161Y7166D01*
X194164Y7163D01*
X194168Y7157D01*
X194175Y7151D01*
X194189Y7137D01*
X194196Y7130D01*
X194204Y7125D01*
X194205Y7124D01*
X194206Y7123D01*
X194210Y7121D01*
X194216Y7118D01*
X194221Y7115D01*
X194228Y7113D01*
X194242Y7108D01*
X194243D01*
X194245Y7107D01*
X194249D01*
X194254Y7106D01*
X194260Y7105D01*
X194267D01*
X194278Y7104D01*
X194387D01*
Y7388D01*
X194472D01*
Y6748D01*
D02*
G37*
G36*
X193111Y7235D02*
X193389D01*
Y7163D01*
X193096Y6748D01*
X193032D01*
Y7163D01*
X192945D01*
Y7235D01*
X193032D01*
Y7388D01*
X193111D01*
Y7235D01*
D02*
G37*
G36*
X193871Y7387D02*
Y7384D01*
Y7378D01*
X193870Y7371D01*
X193869Y7362D01*
X193867Y7353D01*
X193865Y7344D01*
X193861Y7334D01*
Y7333D01*
X193861Y7332D01*
X193859Y7326D01*
X193855Y7318D01*
X193849Y7307D01*
X193842Y7294D01*
X193833Y7279D01*
X193823Y7264D01*
X193810Y7249D01*
Y7248D01*
X193808Y7247D01*
X193803Y7241D01*
X193795Y7233D01*
X193783Y7221D01*
X193769Y7207D01*
X193751Y7190D01*
X193730Y7172D01*
X193707Y7152D01*
X193706Y7152D01*
X193702Y7149D01*
X193697Y7144D01*
X193690Y7139D01*
X193682Y7131D01*
X193672Y7123D01*
X193662Y7114D01*
X193650Y7103D01*
X193627Y7081D01*
X193604Y7059D01*
X193592Y7048D01*
X193582Y7037D01*
X193573Y7027D01*
X193566Y7017D01*
Y7016D01*
X193564Y7015D01*
X193562Y7012D01*
X193560Y7008D01*
X193554Y6998D01*
X193546Y6986D01*
X193540Y6971D01*
X193533Y6956D01*
X193530Y6938D01*
X193528Y6921D01*
Y6920D01*
Y6919D01*
X193529Y6914D01*
X193530Y6905D01*
X193532Y6895D01*
X193536Y6882D01*
X193543Y6869D01*
X193551Y6856D01*
X193562Y6843D01*
X193564Y6841D01*
X193568Y6837D01*
X193575Y6833D01*
X193585Y6826D01*
X193598Y6821D01*
X193613Y6815D01*
X193630Y6811D01*
X193650Y6810D01*
X193655D01*
X193659Y6811D01*
X193670Y6812D01*
X193683Y6815D01*
X193697Y6819D01*
X193713Y6825D01*
X193727Y6834D01*
X193741Y6845D01*
X193743Y6846D01*
X193747Y6851D01*
X193752Y6858D01*
X193758Y6870D01*
X193764Y6883D01*
X193770Y6899D01*
X193774Y6918D01*
X193776Y6939D01*
X193856Y6931D01*
Y6930D01*
X193855Y6927D01*
Y6922D01*
X193854Y6916D01*
X193852Y6908D01*
X193850Y6900D01*
X193848Y6890D01*
X193845Y6880D01*
X193837Y6858D01*
X193826Y6835D01*
X193820Y6824D01*
X193812Y6813D01*
X193803Y6803D01*
X193794Y6794D01*
X193793Y6793D01*
X193791Y6792D01*
X193788Y6789D01*
X193784Y6786D01*
X193778Y6783D01*
X193772Y6779D01*
X193764Y6774D01*
X193755Y6770D01*
X193745Y6765D01*
X193734Y6760D01*
X193722Y6757D01*
X193709Y6753D01*
X193695Y6750D01*
X193680Y6748D01*
X193665Y6747D01*
X193648Y6746D01*
X193639D01*
X193632Y6747D01*
X193625Y6748D01*
X193616Y6748D01*
X193605Y6750D01*
X193595Y6752D01*
X193571Y6759D01*
X193547Y6768D01*
X193535Y6773D01*
X193523Y6780D01*
X193512Y6788D01*
X193502Y6797D01*
X193501Y6798D01*
X193499Y6799D01*
X193497Y6803D01*
X193494Y6807D01*
X193489Y6811D01*
X193484Y6818D01*
X193480Y6824D01*
X193474Y6833D01*
X193465Y6850D01*
X193456Y6872D01*
X193452Y6883D01*
X193450Y6896D01*
X193448Y6909D01*
X193447Y6923D01*
Y6925D01*
Y6930D01*
X193448Y6937D01*
X193449Y6947D01*
X193451Y6958D01*
X193455Y6971D01*
X193458Y6985D01*
X193464Y6999D01*
X193465Y7001D01*
X193467Y7005D01*
X193470Y7013D01*
X193476Y7023D01*
X193483Y7034D01*
X193493Y7048D01*
X193504Y7062D01*
X193517Y7078D01*
X193518Y7079D01*
X193523Y7085D01*
X193528Y7090D01*
X193532Y7094D01*
X193538Y7100D01*
X193545Y7107D01*
X193553Y7115D01*
X193562Y7123D01*
X193571Y7132D01*
X193582Y7142D01*
X193594Y7152D01*
X193607Y7165D01*
X193622Y7177D01*
X193637Y7189D01*
X193638Y7190D01*
X193640Y7192D01*
X193643Y7195D01*
X193648Y7199D01*
X193653Y7204D01*
X193660Y7210D01*
X193675Y7222D01*
X193690Y7236D01*
X193705Y7250D01*
X193718Y7262D01*
X193724Y7266D01*
X193728Y7271D01*
X193729Y7272D01*
X193732Y7275D01*
X193736Y7278D01*
X193740Y7284D01*
X193745Y7290D01*
X193751Y7297D01*
X193762Y7312D01*
X193446D01*
Y7388D01*
X193871D01*
Y7387D01*
D02*
G37*
G36*
X199487Y6737D02*
X199190D01*
X199183Y6738D01*
X199174D01*
X199155Y6739D01*
X199134Y6742D01*
X199112Y6745D01*
X199092Y6749D01*
X199082Y6752D01*
X199073Y6755D01*
X199072D01*
X199072Y6756D01*
X199066Y6759D01*
X199058Y6762D01*
X199048Y6769D01*
X199036Y6777D01*
X199024Y6788D01*
X199013Y6801D01*
X199002Y6816D01*
Y6817D01*
X199001Y6818D01*
X198998Y6823D01*
X198994Y6833D01*
X198988Y6845D01*
X198984Y6858D01*
X198979Y6875D01*
X198976Y6893D01*
X198975Y6912D01*
Y6913D01*
Y6915D01*
Y6919D01*
X198976Y6923D01*
Y6930D01*
X198977Y6936D01*
X198981Y6952D01*
X198987Y6970D01*
X198994Y6990D01*
X199005Y7009D01*
X199012Y7018D01*
X199020Y7028D01*
X199021Y7029D01*
X199022Y7030D01*
X199024Y7032D01*
X199028Y7035D01*
X199033Y7039D01*
X199038Y7042D01*
X199046Y7047D01*
X199053Y7053D01*
X199062Y7057D01*
X199072Y7062D01*
X199084Y7067D01*
X199096Y7072D01*
X199109Y7076D01*
X199123Y7080D01*
X199139Y7083D01*
X199156Y7086D01*
X199154Y7087D01*
X199150Y7089D01*
X199145Y7092D01*
X199137Y7096D01*
X199121Y7106D01*
X199112Y7113D01*
X199105Y7118D01*
X199103Y7120D01*
X199098Y7125D01*
X199091Y7132D01*
X199082Y7141D01*
X199072Y7154D01*
X199060Y7168D01*
X199048Y7185D01*
X199035Y7203D01*
X198925Y7377D01*
X199030D01*
X199114Y7244D01*
Y7243D01*
X199116Y7241D01*
X199118Y7238D01*
X199121Y7235D01*
X199127Y7225D01*
X199135Y7212D01*
X199146Y7198D01*
X199156Y7183D01*
X199166Y7169D01*
X199175Y7156D01*
X199176Y7155D01*
X199179Y7152D01*
X199183Y7146D01*
X199190Y7140D01*
X199204Y7126D01*
X199211Y7119D01*
X199219Y7114D01*
X199219Y7113D01*
X199221Y7112D01*
X199225Y7110D01*
X199231Y7107D01*
X199236Y7104D01*
X199243Y7102D01*
X199257Y7097D01*
X199258D01*
X199260Y7096D01*
X199264D01*
X199268Y7095D01*
X199275Y7094D01*
X199282D01*
X199293Y7093D01*
X199402D01*
Y7377D01*
X199487D01*
Y6737D01*
D02*
G37*
G36*
X198657Y6877D02*
X198658Y6878D01*
X198663Y6882D01*
X198668Y6887D01*
X198678Y6894D01*
X198688Y6902D01*
X198701Y6911D01*
X198716Y6921D01*
X198732Y6932D01*
X198733D01*
X198734Y6932D01*
X198740Y6936D01*
X198749Y6941D01*
X198760Y6946D01*
X198773Y6953D01*
X198787Y6959D01*
X198801Y6966D01*
X198815Y6971D01*
Y6895D01*
X198814D01*
X198812Y6894D01*
X198808Y6893D01*
X198803Y6890D01*
X198798Y6887D01*
X198791Y6883D01*
X198776Y6874D01*
X198757Y6864D01*
X198739Y6851D01*
X198719Y6836D01*
X198700Y6821D01*
X198699Y6820D01*
X198698Y6819D01*
X198695Y6816D01*
X198692Y6813D01*
X198683Y6804D01*
X198672Y6793D01*
X198661Y6780D01*
X198649Y6765D01*
X198639Y6750D01*
X198630Y6735D01*
X198579D01*
Y7377D01*
X198657D01*
Y6877D01*
D02*
G37*
G36*
X198183Y7387D02*
X198191Y7386D01*
X198201Y7385D01*
X198211Y7384D01*
X198222Y7381D01*
X198247Y7374D01*
X198260Y7370D01*
X198272Y7365D01*
X198285Y7359D01*
X198298Y7351D01*
X198310Y7343D01*
X198321Y7333D01*
X198322Y7332D01*
X198324Y7330D01*
X198326Y7327D01*
X198330Y7323D01*
X198334Y7317D01*
X198339Y7311D01*
X198344Y7303D01*
X198349Y7294D01*
X198355Y7285D01*
X198360Y7274D01*
X198369Y7250D01*
X198373Y7237D01*
X198375Y7223D01*
X198377Y7208D01*
X198378Y7193D01*
Y7192D01*
Y7190D01*
Y7187D01*
X198377Y7183D01*
Y7177D01*
X198376Y7171D01*
X198374Y7156D01*
X198371Y7140D01*
X198365Y7123D01*
X198357Y7105D01*
X198347Y7089D01*
Y7088D01*
X198345Y7087D01*
X198341Y7082D01*
X198334Y7075D01*
X198324Y7066D01*
X198311Y7056D01*
X198295Y7046D01*
X198277Y7038D01*
X198256Y7031D01*
X198257D01*
X198258Y7030D01*
X198261Y7030D01*
X198264Y7028D01*
X198273Y7024D01*
X198284Y7018D01*
X198296Y7011D01*
X198308Y7002D01*
X198319Y6992D01*
X198329Y6981D01*
X198330Y6979D01*
X198333Y6975D01*
X198337Y6968D01*
X198340Y6958D01*
X198345Y6946D01*
X198349Y6932D01*
X198351Y6917D01*
X198352Y6900D01*
Y6899D01*
Y6897D01*
Y6894D01*
X198351Y6888D01*
X198350Y6883D01*
X198349Y6875D01*
X198346Y6859D01*
X198340Y6841D01*
X198331Y6821D01*
X198325Y6811D01*
X198319Y6801D01*
X198311Y6792D01*
X198302Y6783D01*
X198301Y6782D01*
X198300Y6781D01*
X198297Y6778D01*
X198293Y6775D01*
X198288Y6772D01*
X198282Y6768D01*
X198275Y6763D01*
X198267Y6759D01*
X198258Y6754D01*
X198248Y6749D01*
X198237Y6746D01*
X198225Y6742D01*
X198199Y6736D01*
X198184Y6735D01*
X198169Y6735D01*
X198161D01*
X198155Y6735D01*
X198148Y6736D01*
X198140Y6737D01*
X198130Y6738D01*
X198121Y6741D01*
X198099Y6747D01*
X198077Y6755D01*
X198066Y6760D01*
X198055Y6767D01*
X198044Y6775D01*
X198034Y6784D01*
X198033Y6785D01*
X198032Y6785D01*
X198030Y6788D01*
X198026Y6792D01*
X198022Y6797D01*
X198018Y6803D01*
X198008Y6817D01*
X197999Y6834D01*
X197991Y6855D01*
X197984Y6878D01*
X197983Y6890D01*
X197982Y6903D01*
Y6904D01*
Y6905D01*
Y6910D01*
X197983Y6919D01*
X197985Y6929D01*
X197988Y6942D01*
X197993Y6955D01*
X197998Y6968D01*
X198006Y6981D01*
X198007Y6982D01*
X198011Y6986D01*
X198017Y6992D01*
X198024Y6999D01*
X198034Y7007D01*
X198046Y7016D01*
X198060Y7024D01*
X198077Y7031D01*
X198076D01*
X198074Y7032D01*
X198071Y7033D01*
X198068Y7035D01*
X198056Y7040D01*
X198043Y7046D01*
X198030Y7055D01*
X198015Y7066D01*
X198001Y7079D01*
X197988Y7093D01*
Y7094D01*
X197987Y7095D01*
X197983Y7101D01*
X197978Y7110D01*
X197972Y7122D01*
X197967Y7137D01*
X197961Y7154D01*
X197957Y7174D01*
X197957Y7195D01*
Y7196D01*
Y7199D01*
Y7203D01*
X197957Y7209D01*
X197958Y7215D01*
X197959Y7224D01*
X197961Y7233D01*
X197964Y7243D01*
X197970Y7264D01*
X197975Y7276D01*
X197982Y7287D01*
X197988Y7299D01*
X197995Y7311D01*
X198005Y7322D01*
X198015Y7333D01*
X198016Y7334D01*
X198018Y7336D01*
X198020Y7338D01*
X198025Y7341D01*
X198031Y7346D01*
X198038Y7350D01*
X198046Y7355D01*
X198055Y7361D01*
X198066Y7366D01*
X198078Y7371D01*
X198091Y7375D01*
X198104Y7380D01*
X198118Y7383D01*
X198134Y7385D01*
X198150Y7387D01*
X198167Y7388D01*
X198177D01*
X198183Y7387D01*
D02*
G37*
G36*
X188133D02*
X188140Y7386D01*
X188148Y7385D01*
X188158Y7384D01*
X188168Y7382D01*
X188190Y7376D01*
X188213Y7367D01*
X188225Y7361D01*
X188236Y7355D01*
X188247Y7347D01*
X188258Y7338D01*
X188259Y7337D01*
X188261Y7336D01*
X188264Y7333D01*
X188267Y7329D01*
X188271Y7324D01*
X188276Y7318D01*
X188282Y7312D01*
X188287Y7303D01*
X188293Y7294D01*
X188298Y7285D01*
X188308Y7262D01*
X188317Y7237D01*
X188319Y7223D01*
X188321Y7208D01*
X188243Y7198D01*
Y7199D01*
X188242Y7201D01*
X188241Y7204D01*
X188240Y7209D01*
X188239Y7214D01*
X188237Y7221D01*
X188233Y7235D01*
X188226Y7251D01*
X188218Y7267D01*
X188209Y7282D01*
X188197Y7295D01*
X188196Y7296D01*
X188192Y7299D01*
X188184Y7304D01*
X188175Y7309D01*
X188164Y7314D01*
X188150Y7319D01*
X188135Y7323D01*
X188118Y7324D01*
X188112D01*
X188109Y7323D01*
X188098Y7322D01*
X188086Y7319D01*
X188071Y7314D01*
X188055Y7308D01*
X188039Y7299D01*
X188025Y7286D01*
X188023Y7284D01*
X188018Y7278D01*
X188012Y7270D01*
X188005Y7259D01*
X187998Y7245D01*
X187992Y7229D01*
X187988Y7211D01*
X187986Y7190D01*
Y7189D01*
Y7188D01*
Y7185D01*
X187987Y7181D01*
X187988Y7171D01*
X187990Y7159D01*
X187994Y7144D01*
X188000Y7129D01*
X188010Y7115D01*
X188022Y7101D01*
X188024Y7099D01*
X188028Y7095D01*
X188036Y7090D01*
X188046Y7083D01*
X188059Y7077D01*
X188074Y7071D01*
X188092Y7067D01*
X188111Y7066D01*
X188120D01*
X188126Y7067D01*
X188135Y7067D01*
X188144Y7069D01*
X188155Y7071D01*
X188167Y7074D01*
X188158Y7005D01*
X188153D01*
X188149Y7005D01*
X188137D01*
X188127Y7004D01*
X188115Y7002D01*
X188101Y6999D01*
X188086Y6994D01*
X188071Y6988D01*
X188055Y6980D01*
X188054D01*
X188053Y6979D01*
X188049Y6975D01*
X188042Y6968D01*
X188035Y6960D01*
X188027Y6948D01*
X188021Y6934D01*
X188016Y6919D01*
X188014Y6909D01*
Y6899D01*
Y6898D01*
Y6897D01*
Y6892D01*
X188016Y6884D01*
X188018Y6874D01*
X188022Y6863D01*
X188026Y6851D01*
X188034Y6839D01*
X188044Y6828D01*
X188045Y6827D01*
X188049Y6823D01*
X188056Y6819D01*
X188064Y6813D01*
X188075Y6809D01*
X188088Y6804D01*
X188103Y6800D01*
X188120Y6799D01*
X188127D01*
X188135Y6801D01*
X188147Y6803D01*
X188159Y6807D01*
X188171Y6811D01*
X188184Y6819D01*
X188196Y6828D01*
X188196Y6829D01*
X188200Y6834D01*
X188206Y6840D01*
X188212Y6849D01*
X188219Y6861D01*
X188225Y6876D01*
X188231Y6894D01*
X188234Y6914D01*
X188313Y6900D01*
Y6899D01*
X188312Y6896D01*
X188311Y6893D01*
X188310Y6887D01*
X188308Y6881D01*
X188306Y6873D01*
X188300Y6856D01*
X188291Y6835D01*
X188280Y6815D01*
X188266Y6796D01*
X188248Y6778D01*
X188247Y6777D01*
X188245Y6776D01*
X188243Y6774D01*
X188239Y6772D01*
X188234Y6768D01*
X188228Y6764D01*
X188221Y6760D01*
X188213Y6756D01*
X188195Y6748D01*
X188173Y6741D01*
X188148Y6736D01*
X188135Y6735D01*
X188112D01*
X188102Y6735D01*
X188090Y6737D01*
X188075Y6740D01*
X188059Y6745D01*
X188042Y6750D01*
X188025Y6758D01*
X188025D01*
X188024Y6759D01*
X188018Y6761D01*
X188010Y6767D01*
X188000Y6773D01*
X187989Y6783D01*
X187978Y6793D01*
X187967Y6805D01*
X187958Y6819D01*
X187957Y6821D01*
X187954Y6825D01*
X187951Y6834D01*
X187946Y6844D01*
X187941Y6856D01*
X187938Y6870D01*
X187935Y6885D01*
X187934Y6901D01*
Y6903D01*
Y6908D01*
X187935Y6916D01*
X187937Y6926D01*
X187939Y6938D01*
X187944Y6951D01*
X187950Y6964D01*
X187957Y6977D01*
X187958Y6979D01*
X187961Y6982D01*
X187966Y6989D01*
X187974Y6996D01*
X187983Y7005D01*
X187994Y7014D01*
X188007Y7022D01*
X188023Y7030D01*
X188022D01*
X188020Y7031D01*
X188017Y7032D01*
X188013Y7033D01*
X188003Y7037D01*
X187990Y7042D01*
X187976Y7050D01*
X187961Y7059D01*
X187947Y7071D01*
X187934Y7085D01*
X187933Y7087D01*
X187929Y7092D01*
X187924Y7102D01*
X187918Y7114D01*
X187913Y7128D01*
X187907Y7146D01*
X187903Y7166D01*
X187902Y7189D01*
Y7189D01*
Y7192D01*
Y7197D01*
X187903Y7202D01*
X187904Y7210D01*
X187906Y7218D01*
X187908Y7227D01*
X187910Y7238D01*
X187917Y7260D01*
X187923Y7272D01*
X187928Y7283D01*
X187936Y7295D01*
X187944Y7307D01*
X187953Y7319D01*
X187964Y7330D01*
X187965Y7331D01*
X187967Y7333D01*
X187971Y7336D01*
X187976Y7339D01*
X187981Y7344D01*
X187988Y7348D01*
X187997Y7354D01*
X188007Y7359D01*
X188017Y7364D01*
X188029Y7370D01*
X188041Y7374D01*
X188055Y7379D01*
X188070Y7383D01*
X188086Y7385D01*
X188101Y7387D01*
X188119Y7388D01*
X188127D01*
X188133Y7387D01*
D02*
G37*
G36*
X189432Y6737D02*
X189135D01*
X189128Y6738D01*
X189119D01*
X189100Y6739D01*
X189079Y6742D01*
X189057Y6745D01*
X189037Y6749D01*
X189027Y6752D01*
X189018Y6755D01*
X189018D01*
X189017Y6756D01*
X189011Y6759D01*
X189003Y6762D01*
X188993Y6769D01*
X188981Y6777D01*
X188969Y6788D01*
X188958Y6801D01*
X188947Y6816D01*
Y6817D01*
X188946Y6818D01*
X188943Y6823D01*
X188939Y6833D01*
X188933Y6845D01*
X188929Y6858D01*
X188924Y6875D01*
X188921Y6893D01*
X188920Y6912D01*
Y6913D01*
Y6915D01*
Y6919D01*
X188921Y6923D01*
Y6930D01*
X188922Y6936D01*
X188926Y6952D01*
X188932Y6970D01*
X188939Y6990D01*
X188950Y7009D01*
X188957Y7018D01*
X188965Y7028D01*
X188966Y7029D01*
X188967Y7030D01*
X188969Y7032D01*
X188973Y7035D01*
X188978Y7039D01*
X188983Y7042D01*
X188991Y7047D01*
X188998Y7053D01*
X189007Y7057D01*
X189018Y7062D01*
X189029Y7067D01*
X189041Y7072D01*
X189054Y7076D01*
X189068Y7080D01*
X189084Y7083D01*
X189101Y7086D01*
X189099Y7087D01*
X189095Y7089D01*
X189090Y7092D01*
X189082Y7096D01*
X189066Y7106D01*
X189057Y7113D01*
X189050Y7118D01*
X189048Y7120D01*
X189043Y7125D01*
X189036Y7132D01*
X189027Y7141D01*
X189017Y7154D01*
X189005Y7168D01*
X188993Y7185D01*
X188980Y7203D01*
X188870Y7377D01*
X188975D01*
X189059Y7244D01*
Y7243D01*
X189061Y7241D01*
X189063Y7238D01*
X189066Y7235D01*
X189072Y7225D01*
X189080Y7212D01*
X189091Y7198D01*
X189101Y7183D01*
X189111Y7169D01*
X189120Y7156D01*
X189121Y7155D01*
X189124Y7152D01*
X189128Y7146D01*
X189135Y7140D01*
X189149Y7126D01*
X189156Y7119D01*
X189164Y7114D01*
X189165Y7113D01*
X189166Y7112D01*
X189170Y7110D01*
X189176Y7107D01*
X189181Y7104D01*
X189188Y7102D01*
X189202Y7097D01*
X189203D01*
X189205Y7096D01*
X189209D01*
X189214Y7095D01*
X189220Y7094D01*
X189227D01*
X189238Y7093D01*
X189347D01*
Y7377D01*
X189432D01*
Y6737D01*
D02*
G37*
G36*
X188831Y7376D02*
Y7373D01*
Y7367D01*
X188830Y7360D01*
X188829Y7351D01*
X188827Y7342D01*
X188825Y7333D01*
X188821Y7323D01*
Y7322D01*
X188821Y7321D01*
X188819Y7315D01*
X188815Y7307D01*
X188809Y7296D01*
X188802Y7283D01*
X188793Y7268D01*
X188783Y7253D01*
X188770Y7238D01*
Y7237D01*
X188768Y7236D01*
X188763Y7230D01*
X188755Y7222D01*
X188743Y7210D01*
X188729Y7196D01*
X188711Y7179D01*
X188690Y7161D01*
X188667Y7141D01*
X188666Y7140D01*
X188662Y7138D01*
X188657Y7133D01*
X188650Y7128D01*
X188642Y7120D01*
X188632Y7112D01*
X188622Y7103D01*
X188610Y7092D01*
X188587Y7070D01*
X188564Y7048D01*
X188552Y7037D01*
X188542Y7026D01*
X188533Y7016D01*
X188526Y7005D01*
Y7005D01*
X188524Y7004D01*
X188522Y7001D01*
X188520Y6997D01*
X188514Y6987D01*
X188506Y6975D01*
X188500Y6960D01*
X188493Y6944D01*
X188490Y6927D01*
X188488Y6910D01*
Y6909D01*
Y6908D01*
X188489Y6903D01*
X188490Y6894D01*
X188492Y6883D01*
X188496Y6870D01*
X188503Y6858D01*
X188511Y6845D01*
X188522Y6832D01*
X188524Y6830D01*
X188528Y6826D01*
X188535Y6821D01*
X188545Y6815D01*
X188558Y6809D01*
X188573Y6804D01*
X188590Y6800D01*
X188610Y6799D01*
X188615D01*
X188619Y6800D01*
X188630Y6801D01*
X188643Y6804D01*
X188657Y6808D01*
X188673Y6814D01*
X188687Y6822D01*
X188701Y6834D01*
X188703Y6835D01*
X188707Y6840D01*
X188712Y6847D01*
X188718Y6858D01*
X188724Y6871D01*
X188730Y6888D01*
X188734Y6907D01*
X188736Y6928D01*
X188816Y6919D01*
Y6919D01*
X188815Y6916D01*
Y6911D01*
X188814Y6905D01*
X188812Y6897D01*
X188810Y6889D01*
X188808Y6879D01*
X188805Y6869D01*
X188797Y6846D01*
X188786Y6824D01*
X188780Y6813D01*
X188772Y6802D01*
X188763Y6792D01*
X188754Y6783D01*
X188753Y6782D01*
X188751Y6781D01*
X188748Y6778D01*
X188744Y6775D01*
X188738Y6772D01*
X188732Y6768D01*
X188724Y6763D01*
X188715Y6759D01*
X188705Y6754D01*
X188694Y6749D01*
X188682Y6746D01*
X188669Y6742D01*
X188655Y6739D01*
X188640Y6736D01*
X188625Y6735D01*
X188608Y6735D01*
X188599D01*
X188592Y6735D01*
X188585Y6736D01*
X188576Y6737D01*
X188565Y6739D01*
X188555Y6741D01*
X188531Y6748D01*
X188507Y6757D01*
X188495Y6762D01*
X188483Y6769D01*
X188472Y6777D01*
X188462Y6786D01*
X188461Y6787D01*
X188459Y6788D01*
X188457Y6792D01*
X188454Y6796D01*
X188449Y6800D01*
X188444Y6807D01*
X188440Y6813D01*
X188434Y6821D01*
X188425Y6839D01*
X188416Y6861D01*
X188412Y6872D01*
X188410Y6885D01*
X188408Y6898D01*
X188407Y6912D01*
Y6914D01*
Y6919D01*
X188408Y6926D01*
X188409Y6936D01*
X188411Y6947D01*
X188415Y6960D01*
X188418Y6974D01*
X188424Y6988D01*
X188425Y6990D01*
X188427Y6994D01*
X188430Y7002D01*
X188436Y7012D01*
X188443Y7023D01*
X188453Y7037D01*
X188464Y7051D01*
X188477Y7067D01*
X188478Y7068D01*
X188483Y7074D01*
X188488Y7079D01*
X188492Y7083D01*
X188498Y7089D01*
X188505Y7096D01*
X188513Y7103D01*
X188522Y7112D01*
X188531Y7121D01*
X188542Y7131D01*
X188554Y7141D01*
X188567Y7153D01*
X188582Y7165D01*
X188597Y7178D01*
X188598Y7179D01*
X188600Y7181D01*
X188603Y7184D01*
X188608Y7188D01*
X188613Y7193D01*
X188620Y7199D01*
X188635Y7211D01*
X188650Y7225D01*
X188665Y7238D01*
X188678Y7250D01*
X188684Y7255D01*
X188688Y7260D01*
X188689Y7261D01*
X188692Y7263D01*
X188696Y7267D01*
X188700Y7273D01*
X188705Y7279D01*
X188711Y7286D01*
X188722Y7301D01*
X188406D01*
Y7377D01*
X188831D01*
Y7376D01*
D02*
G37*
%LPC*%
G36*
X167102Y29576D02*
X166950D01*
X166944Y29575D01*
X166930Y29574D01*
X166914Y29574D01*
X166897Y29572D01*
X166881Y29569D01*
X166867Y29565D01*
X166865Y29564D01*
X166860Y29563D01*
X166854Y29561D01*
X166846Y29557D01*
X166836Y29551D01*
X166827Y29546D01*
X166818Y29539D01*
X166809Y29532D01*
X166808Y29530D01*
X166804Y29526D01*
X166798Y29520D01*
X166792Y29511D01*
X166785Y29499D01*
X166776Y29485D01*
X166769Y29469D01*
X166762Y29452D01*
Y29451D01*
X166761Y29449D01*
X166761Y29446D01*
X166760Y29442D01*
X166759Y29438D01*
X166757Y29431D01*
X166755Y29425D01*
X166753Y29417D01*
X166750Y29399D01*
X166748Y29378D01*
X166746Y29354D01*
X166745Y29328D01*
Y29327D01*
Y29323D01*
Y29318D01*
X166746Y29311D01*
Y29303D01*
X166747Y29293D01*
X166748Y29282D01*
X166749Y29271D01*
X166753Y29246D01*
X166759Y29220D01*
X166767Y29196D01*
X166773Y29184D01*
X166778Y29174D01*
Y29173D01*
X166780Y29171D01*
X166782Y29169D01*
X166784Y29165D01*
X166791Y29156D01*
X166800Y29145D01*
X166812Y29133D01*
X166826Y29121D01*
X166842Y29110D01*
X166859Y29102D01*
X166860Y29101D01*
X166865Y29100D01*
X166873Y29097D01*
X166885Y29095D01*
X166900Y29093D01*
X166919Y29090D01*
X166930Y29089D01*
X166942D01*
X166954Y29088D01*
X167102D01*
Y29576D01*
D02*
G37*
G36*
X207115Y13487D02*
X206963D01*
X206957Y13486D01*
X206943Y13486D01*
X206927Y13485D01*
X206911Y13483D01*
X206894Y13480D01*
X206880Y13476D01*
X206878Y13475D01*
X206874Y13474D01*
X206867Y13472D01*
X206859Y13468D01*
X206850Y13462D01*
X206840Y13457D01*
X206831Y13450D01*
X206822Y13443D01*
X206821Y13441D01*
X206817Y13438D01*
X206812Y13431D01*
X206805Y13422D01*
X206798Y13410D01*
X206789Y13396D01*
X206782Y13380D01*
X206776Y13363D01*
Y13362D01*
X206775Y13360D01*
X206774Y13357D01*
X206773Y13353D01*
X206772Y13349D01*
X206770Y13342D01*
X206768Y13336D01*
X206766Y13328D01*
X206764Y13310D01*
X206761Y13289D01*
X206759Y13265D01*
X206758Y13239D01*
Y13238D01*
Y13234D01*
Y13229D01*
X206759Y13222D01*
Y13214D01*
X206760Y13205D01*
X206761Y13193D01*
X206762Y13182D01*
X206766Y13157D01*
X206772Y13131D01*
X206780Y13107D01*
X206786Y13095D01*
X206791Y13085D01*
Y13084D01*
X206793Y13082D01*
X206795Y13080D01*
X206797Y13076D01*
X206804Y13067D01*
X206814Y13056D01*
X206826Y13044D01*
X206839Y13032D01*
X206855Y13021D01*
X206872Y13013D01*
X206874Y13012D01*
X206878Y13011D01*
X206887Y13009D01*
X206899Y13006D01*
X206913Y13004D01*
X206932Y13001D01*
X206943Y13000D01*
X206955D01*
X206967Y12999D01*
X207115D01*
Y13487D01*
D02*
G37*
G36*
X206040Y13338D02*
X205838D01*
Y13051D01*
X206040Y13338D01*
D02*
G37*
G36*
X194387Y7031D02*
X194196D01*
X194185Y7030D01*
X194172Y7030D01*
X194157Y7029D01*
X194143Y7027D01*
X194128Y7024D01*
X194115Y7020D01*
X194113Y7019D01*
X194109Y7017D01*
X194104Y7015D01*
X194096Y7011D01*
X194088Y7005D01*
X194080Y6999D01*
X194071Y6991D01*
X194065Y6981D01*
X194064Y6981D01*
X194062Y6977D01*
X194059Y6971D01*
X194056Y6964D01*
X194053Y6956D01*
X194050Y6946D01*
X194048Y6935D01*
X194047Y6924D01*
Y6923D01*
Y6922D01*
X194048Y6917D01*
X194049Y6908D01*
X194051Y6897D01*
X194056Y6886D01*
X194061Y6873D01*
X194070Y6861D01*
X194081Y6849D01*
X194082Y6848D01*
X194087Y6845D01*
X194094Y6840D01*
X194107Y6834D01*
X194120Y6829D01*
X194139Y6824D01*
X194160Y6821D01*
X194185Y6820D01*
X194387D01*
Y7031D01*
D02*
G37*
G36*
X193312Y7163D02*
X193111D01*
Y6876D01*
X193312Y7163D01*
D02*
G37*
G36*
X199402Y7020D02*
X199211D01*
X199200Y7019D01*
X199187Y7018D01*
X199172Y7017D01*
X199158Y7016D01*
X199143Y7013D01*
X199130Y7009D01*
X199128Y7008D01*
X199124Y7006D01*
X199119Y7004D01*
X199111Y7000D01*
X199103Y6994D01*
X199095Y6988D01*
X199086Y6980D01*
X199080Y6970D01*
X199079Y6969D01*
X199077Y6966D01*
X199074Y6960D01*
X199071Y6953D01*
X199068Y6944D01*
X199065Y6935D01*
X199063Y6924D01*
X199062Y6913D01*
Y6912D01*
Y6911D01*
X199063Y6906D01*
X199064Y6897D01*
X199066Y6886D01*
X199071Y6875D01*
X199076Y6862D01*
X199085Y6850D01*
X199096Y6838D01*
X199097Y6837D01*
X199102Y6834D01*
X199109Y6829D01*
X199122Y6823D01*
X199135Y6818D01*
X199154Y6813D01*
X199175Y6809D01*
X199200Y6809D01*
X199402D01*
Y7020D01*
D02*
G37*
G36*
X198167Y7324D02*
X198162D01*
X198158Y7323D01*
X198147Y7322D01*
X198134Y7319D01*
X198119Y7314D01*
X198104Y7309D01*
X198089Y7299D01*
X198074Y7287D01*
X198072Y7286D01*
X198068Y7281D01*
X198062Y7273D01*
X198055Y7262D01*
X198049Y7250D01*
X198043Y7234D01*
X198039Y7215D01*
X198037Y7196D01*
Y7195D01*
Y7193D01*
Y7190D01*
X198038Y7187D01*
X198039Y7177D01*
X198042Y7163D01*
X198046Y7149D01*
X198053Y7133D01*
X198062Y7117D01*
X198075Y7103D01*
X198077Y7101D01*
X198081Y7097D01*
X198090Y7091D01*
X198101Y7083D01*
X198115Y7077D01*
X198131Y7070D01*
X198150Y7067D01*
X198170Y7065D01*
X198176D01*
X198179Y7066D01*
X198190Y7067D01*
X198202Y7069D01*
X198217Y7074D01*
X198232Y7080D01*
X198248Y7090D01*
X198262Y7102D01*
X198264Y7103D01*
X198267Y7108D01*
X198273Y7116D01*
X198279Y7127D01*
X198287Y7140D01*
X198292Y7156D01*
X198296Y7174D01*
X198298Y7193D01*
Y7195D01*
Y7199D01*
X198297Y7205D01*
X198296Y7214D01*
X198294Y7224D01*
X198291Y7235D01*
X198288Y7246D01*
X198283Y7258D01*
X198282Y7259D01*
X198280Y7263D01*
X198276Y7269D01*
X198271Y7275D01*
X198264Y7284D01*
X198256Y7292D01*
X198247Y7299D01*
X198236Y7307D01*
X198234Y7308D01*
X198230Y7310D01*
X198224Y7312D01*
X198215Y7315D01*
X198205Y7318D01*
X198193Y7321D01*
X198180Y7323D01*
X198167Y7324D01*
D02*
G37*
G36*
Y7001D02*
X198165D01*
X198160Y7000D01*
X198152Y6999D01*
X198141Y6997D01*
X198129Y6993D01*
X198117Y6989D01*
X198104Y6981D01*
X198092Y6972D01*
X198092Y6971D01*
X198088Y6967D01*
X198083Y6961D01*
X198078Y6953D01*
X198072Y6943D01*
X198068Y6931D01*
X198064Y6917D01*
X198063Y6902D01*
Y6901D01*
Y6900D01*
Y6895D01*
X198065Y6886D01*
X198067Y6876D01*
X198070Y6865D01*
X198076Y6853D01*
X198083Y6841D01*
X198093Y6829D01*
X198094Y6828D01*
X198099Y6824D01*
X198105Y6820D01*
X198114Y6814D01*
X198125Y6809D01*
X198137Y6804D01*
X198152Y6800D01*
X198167Y6799D01*
X198175D01*
X198183Y6801D01*
X198194Y6803D01*
X198206Y6807D01*
X198219Y6811D01*
X198231Y6819D01*
X198243Y6829D01*
X198244Y6830D01*
X198248Y6834D01*
X198252Y6840D01*
X198257Y6848D01*
X198263Y6858D01*
X198267Y6870D01*
X198271Y6883D01*
X198272Y6898D01*
Y6899D01*
Y6900D01*
X198271Y6906D01*
X198270Y6914D01*
X198268Y6924D01*
X198264Y6936D01*
X198260Y6948D01*
X198252Y6961D01*
X198243Y6972D01*
X198242Y6973D01*
X198238Y6977D01*
X198231Y6981D01*
X198223Y6986D01*
X198212Y6992D01*
X198199Y6996D01*
X198184Y7000D01*
X198167Y7001D01*
D02*
G37*
G36*
X189347Y7020D02*
X189156D01*
X189145Y7019D01*
X189132Y7018D01*
X189117Y7017D01*
X189103Y7016D01*
X189088Y7013D01*
X189075Y7009D01*
X189073Y7008D01*
X189069Y7006D01*
X189064Y7004D01*
X189056Y7000D01*
X189048Y6994D01*
X189040Y6988D01*
X189031Y6980D01*
X189025Y6970D01*
X189024Y6969D01*
X189022Y6966D01*
X189019Y6960D01*
X189016Y6953D01*
X189013Y6944D01*
X189010Y6935D01*
X189008Y6924D01*
X189007Y6913D01*
Y6912D01*
Y6911D01*
X189008Y6906D01*
X189009Y6897D01*
X189011Y6886D01*
X189016Y6875D01*
X189021Y6862D01*
X189030Y6850D01*
X189041Y6838D01*
X189042Y6837D01*
X189047Y6834D01*
X189054Y6829D01*
X189066Y6823D01*
X189080Y6818D01*
X189099Y6813D01*
X189120Y6809D01*
X189145Y6809D01*
X189347D01*
Y7020D01*
D02*
G37*
%LPD*%
D94*
X165487Y28700D02*
X168887D01*
X165487D02*
Y30250D01*
X168887D01*
Y28700D02*
Y30250D01*
X208900Y12600D02*
Y14150D01*
X205500D02*
X208900D01*
X205500Y12600D02*
Y14150D01*
Y12600D02*
X208900D01*
X191892Y2210D02*
X197052D01*
X191892D02*
Y12190D01*
X197052D01*
Y2210D02*
Y12190D01*
X196907Y2210D02*
X202067D01*
X196907D02*
Y12190D01*
X202067D01*
Y2210D02*
Y12190D01*
X186852Y2210D02*
X192012D01*
X186852D02*
Y12190D01*
X192012D01*
Y2210D02*
Y12190D01*
%TF.MD5,442e23cd9510df96829d190aa2152b1a*%
M02*
