%TF.GenerationSoftware,Altium Limited,Altium Designer,24.3.1 (35)*%
G04 Layer_Color=128*
%FSLAX43Y43*%
%MOMM*%
%TF.SameCoordinates,76E1361F-AA3B-45A8-A24B-41510BF92E79*%
%TF.FilePolarity,Positive*%
%TF.FileFunction,Drillmap*%
%TF.Part,Single*%
G01*
G75*
%TA.AperFunction,NonConductor*%
%ADD168C,0.127*%
D168*
X73365Y56617D02*
X74635D01*
X74000Y55982D02*
Y57252D01*
X73365Y76683D02*
X74635D01*
X74000Y76048D02*
Y77318D01*
X80425Y5050D02*
X81425D01*
X80925Y4550D02*
Y5550D01*
X80425Y10050D02*
X81425D01*
X80925Y9550D02*
Y10550D01*
X11125Y25925D02*
X12325D01*
X11725Y25325D02*
Y26525D01*
X11125Y35925D02*
X12325D01*
X11725Y35325D02*
Y36525D01*
X67213Y26650D02*
X68737D01*
X67975Y25888D02*
Y27412D01*
X67213Y19150D02*
X68737D01*
X67975Y18388D02*
Y19912D01*
X52213Y26650D02*
X53737D01*
X52975Y25888D02*
Y27412D01*
X47213Y26650D02*
X48737D01*
X47975Y25888D02*
Y27412D01*
X42213Y26650D02*
X43737D01*
X42975Y25888D02*
Y27412D01*
X42213Y19150D02*
X43737D01*
X42975Y18388D02*
Y19912D01*
X47213Y19150D02*
X48737D01*
X47975Y18388D02*
Y19912D01*
X52213Y19150D02*
X53737D01*
X52975Y18388D02*
Y19912D01*
X4094Y52474D02*
X4856D01*
X4475Y52093D02*
Y52855D01*
X9044Y52474D02*
X9806D01*
X9425Y52093D02*
Y52855D01*
X4116Y46825D02*
X4878D01*
X4497Y46444D02*
Y47206D01*
X9066Y46825D02*
X9828D01*
X9447Y46444D02*
Y47206D01*
X13750Y78800D02*
X15250D01*
X14500Y78050D02*
Y79550D01*
X13700Y58825D02*
X15200D01*
X14450Y58075D02*
Y59575D01*
X180625Y59350D02*
X181625D01*
X181125Y58850D02*
Y59850D01*
X180625Y54350D02*
X181625D01*
X181125Y53850D02*
Y54850D01*
X168050Y73000D02*
X169050D01*
X168550Y72500D02*
Y73500D01*
X168050Y68000D02*
X169050D01*
X168550Y67500D02*
Y68500D01*
X49119Y105200D02*
X49881D01*
X49500Y104819D02*
Y105581D01*
X53800Y72300D02*
X55600D01*
X54700Y71400D02*
Y73200D01*
X53800Y62300D02*
X55600D01*
X54700Y61400D02*
Y63200D01*
X86225Y28925D02*
X87175D01*
X86700Y28450D02*
Y29400D01*
X164960Y100900D02*
X165960D01*
X165460Y100400D02*
Y101400D01*
X167500Y100900D02*
X168500D01*
X168000Y100400D02*
Y101400D01*
X170040Y100900D02*
X171040D01*
X170540Y100400D02*
Y101400D01*
X142960Y100900D02*
X143960D01*
X143460Y100400D02*
Y101400D01*
X145500Y100900D02*
X146500D01*
X146000Y100400D02*
Y101400D01*
X148040Y100900D02*
X149040D01*
X148540Y100400D02*
Y101400D01*
X23775Y21475D02*
X24775D01*
X24275Y20975D02*
Y21975D01*
X28775Y21475D02*
X29775D01*
X29275Y20975D02*
Y21975D01*
X102125Y3155D02*
X103575D01*
X102850Y2430D02*
Y3880D01*
X102125Y24095D02*
X103575D01*
X102850Y23370D02*
Y24820D01*
X107825Y3180D02*
X109275D01*
X108550Y2455D02*
Y3905D01*
X107825Y24120D02*
X109275D01*
X108550Y23395D02*
Y24845D01*
X90811Y24070D02*
X92261D01*
X91536Y23345D02*
Y24795D01*
X90811Y3130D02*
X92261D01*
X91536Y2405D02*
Y3855D01*
X96461Y24070D02*
X97911D01*
X97186Y23345D02*
Y24795D01*
X96461Y3130D02*
X97911D01*
X97186Y2405D02*
Y3855D01*
X140452Y66238D02*
X141976D01*
X141214Y65476D02*
Y67000D01*
X98960Y100900D02*
X99960D01*
X99460Y100400D02*
Y101400D01*
X101500Y100900D02*
X102500D01*
X102000Y100400D02*
Y101400D01*
X104040Y100900D02*
X105040D01*
X104540Y100400D02*
Y101400D01*
X76960Y100900D02*
X77960D01*
X77460Y100400D02*
Y101400D01*
X79500Y100900D02*
X80500D01*
X80000Y100400D02*
Y101400D01*
X82040Y100900D02*
X83040D01*
X82540Y100400D02*
Y101400D01*
X198250Y87800D02*
X201750D01*
X200000Y86050D02*
Y89550D01*
X68250Y87800D02*
X71750D01*
X70000Y86050D02*
Y89550D01*
X133250Y87800D02*
X136750D01*
X135000Y86050D02*
Y89550D01*
X188964Y15350D02*
X189914D01*
X189439Y14875D02*
Y15825D01*
X38700Y6500D02*
X40000D01*
X39350Y5850D02*
Y7150D01*
X33700Y6500D02*
X35000D01*
X34350Y5850D02*
Y7150D01*
X96319Y56900D02*
X97081D01*
X96700Y56519D02*
Y57281D01*
X96319Y61850D02*
X97081D01*
X96700Y61469D02*
Y62231D01*
X86032Y56617D02*
X87302D01*
X86667Y55982D02*
Y57252D01*
X86032Y76683D02*
X87302D01*
X86667Y76048D02*
Y77318D01*
X73365Y52466D02*
X74635D01*
X74000Y51831D02*
Y53101D01*
X73365Y32400D02*
X74635D01*
X74000Y31765D02*
Y33035D01*
X140452Y40838D02*
X141976D01*
X141214Y40076D02*
Y41600D01*
X140452Y46004D02*
X141976D01*
X141214Y45242D02*
Y46766D01*
X140452Y50998D02*
X141976D01*
X141214Y50236D02*
Y51760D01*
X140452Y56078D02*
X141976D01*
X141214Y55316D02*
Y56840D01*
X140452Y61244D02*
X141976D01*
X141214Y60482D02*
Y62006D01*
X115179Y35758D02*
X116703D01*
X115941Y34996D02*
Y36520D01*
X115179Y40838D02*
X116703D01*
X115941Y40076D02*
Y41600D01*
X115179Y46004D02*
X116703D01*
X115941Y45242D02*
Y46766D01*
X115179Y50998D02*
X116703D01*
X115941Y50236D02*
Y51760D01*
X115179Y56078D02*
X116703D01*
X115941Y55316D02*
Y56840D01*
X115179Y61244D02*
X116703D01*
X115941Y60482D02*
Y62006D01*
X115179Y66238D02*
X116703D01*
X115941Y65476D02*
Y67000D01*
X140452Y35758D02*
X141976D01*
X141214Y34996D02*
Y36520D01*
X147584Y40838D02*
X150084D01*
X148834Y39588D02*
Y42088D01*
X147584Y46004D02*
X150084D01*
X148834Y44754D02*
Y47254D01*
X147584Y50998D02*
X150084D01*
X148834Y49748D02*
Y52248D01*
X147584Y56078D02*
X150084D01*
X148834Y54828D02*
Y57328D01*
X147584Y61244D02*
X150084D01*
X148834Y59994D02*
Y62494D01*
X147584Y66238D02*
X150084D01*
X148834Y64988D02*
Y67488D01*
X147584Y35758D02*
X150084D01*
X148834Y34508D02*
Y37008D01*
X107325Y40965D02*
X109825D01*
X108575Y39715D02*
Y42215D01*
X107325Y46131D02*
X109825D01*
X108575Y44881D02*
Y47381D01*
X107325Y51125D02*
X109825D01*
X108575Y49875D02*
Y52375D01*
X107325Y56205D02*
X109825D01*
X108575Y54955D02*
Y57455D01*
X107325Y61371D02*
X109825D01*
X108575Y60121D02*
Y62621D01*
X107325Y66365D02*
X109825D01*
X108575Y65115D02*
Y67615D01*
X107325Y35885D02*
X109825D01*
X108575Y34635D02*
Y37135D01*
X86090Y32296D02*
X87360D01*
X86725Y31661D02*
Y32931D01*
X86090Y52362D02*
X87360D01*
X86725Y51727D02*
Y52997D01*
X195550Y28698D02*
X196750D01*
X196150Y28098D02*
Y29298D01*
X190550Y28698D02*
X191750D01*
X191150Y28098D02*
Y29298D01*
X190550Y35048D02*
X191750D01*
X191150Y34448D02*
Y35648D01*
X195550Y35048D02*
X196750D01*
X196150Y34448D02*
Y35648D01*
X29750Y37850D02*
X31550D01*
X30650Y36950D02*
Y38750D01*
X29750Y47850D02*
X31550D01*
X30650Y46950D02*
Y48750D01*
X187069Y73575D02*
X187831D01*
X187450Y73194D02*
Y73956D01*
X207200Y53550D02*
X208200D01*
X207700Y53050D02*
Y54050D01*
X207200Y58550D02*
X208200D01*
X207700Y58050D02*
Y59050D01*
X76044Y15625D02*
X76806D01*
X76425Y15244D02*
Y16006D01*
X212169Y78076D02*
X212931D01*
X212550Y77695D02*
Y78457D01*
X207700Y44950D02*
X209000D01*
X208350Y44300D02*
Y45600D01*
X207700Y39950D02*
X209000D01*
X208350Y39300D02*
Y40600D01*
X201294Y41625D02*
X202056D01*
X201675Y41244D02*
Y42006D01*
X196525Y68000D02*
X197525D01*
X197025Y67500D02*
Y68500D01*
X196525Y73000D02*
X197525D01*
X197025Y72500D02*
Y73500D01*
X49044Y1925D02*
X49806D01*
X49425Y1544D02*
Y2306D01*
X48952Y4775D02*
X49968D01*
X49460Y4267D02*
Y5283D01*
X51492Y4775D02*
X52508D01*
X52000Y4267D02*
Y5283D01*
X54032Y4775D02*
X55048D01*
X54540Y4267D02*
Y5283D01*
X51301Y11125D02*
X52699D01*
X52000Y10427D02*
Y11823D01*
X23650Y6500D02*
X24950D01*
X24300Y5850D02*
Y7150D01*
X28650Y6500D02*
X29950D01*
X29300Y5850D02*
Y7150D01*
X29750Y62300D02*
X31550D01*
X30650Y61400D02*
Y63200D01*
X29750Y72300D02*
X31550D01*
X30650Y71400D02*
Y73200D01*
X20475Y89650D02*
X21475D01*
X20975Y89150D02*
Y90150D01*
X20475Y84650D02*
X21475D01*
X20975Y84150D02*
Y85150D01*
X7275Y84775D02*
X8275D01*
X7775Y84275D02*
Y85275D01*
X7275Y89775D02*
X8275D01*
X7775Y89275D02*
Y90275D01*
X53800Y47725D02*
X55600D01*
X54700Y46825D02*
Y48625D01*
X53800Y37725D02*
X55600D01*
X54700Y36825D02*
Y38625D01*
X40131Y99275D02*
X41131D01*
X40631Y98775D02*
Y99775D01*
X50291Y99275D02*
X51291D01*
X50791Y98775D02*
Y99775D01*
X29881Y99275D02*
X30881D01*
X30381Y98775D02*
Y99775D01*
X32421Y99275D02*
X33421D01*
X32921Y98775D02*
Y99775D01*
X34961Y99275D02*
X35961D01*
X35461Y98775D02*
Y99775D01*
X37591Y99275D02*
X38591D01*
X38091Y98775D02*
Y99775D01*
X24801Y99275D02*
X25801D01*
X25301Y98775D02*
Y99775D01*
X42671Y99275D02*
X43671D01*
X43171Y98775D02*
Y99775D01*
X45211Y99275D02*
X46211D01*
X45711Y98775D02*
Y99775D01*
X47751Y99275D02*
X48751D01*
X48251Y98775D02*
Y99775D01*
X22261Y99275D02*
X23261D01*
X22761Y98775D02*
Y99775D01*
X27341Y99275D02*
X28341D01*
X27841Y98775D02*
Y99775D01*
X94507Y52209D02*
X96007D01*
X95257Y51459D02*
Y52959D01*
X94457Y32234D02*
X95957D01*
X95207Y31484D02*
Y32984D01*
X5425Y70200D02*
X6725D01*
X6075Y69550D02*
Y70850D01*
X5425Y65200D02*
X6725D01*
X6075Y64550D02*
Y65850D01*
X72494Y105250D02*
X73256D01*
X72875Y104869D02*
Y105631D01*
X32494Y91950D02*
X33256D01*
X32875Y91569D02*
Y92331D01*
X31600Y82875D02*
X33100D01*
X32350Y82125D02*
Y83625D01*
X51575Y82825D02*
X53075D01*
X52325Y82075D02*
Y83575D01*
X54136Y84801D02*
X54898D01*
X54517Y84420D02*
Y85182D01*
X18169Y35650D02*
X18931D01*
X18550Y35269D02*
Y36031D01*
X61319Y94700D02*
X62081D01*
X61700Y94319D02*
Y95081D01*
X58910Y81025D02*
X59672D01*
X59291Y80644D02*
Y81406D01*
X42819Y105200D02*
X43581D01*
X43200Y104819D02*
Y105581D01*
X173069Y5660D02*
X173831D01*
X173450Y5279D02*
Y6041D01*
X126519Y26800D02*
X127281D01*
X126900Y26419D02*
Y27181D01*
X131469Y26800D02*
X132231D01*
X131850Y26419D02*
Y27181D01*
X36350Y17835D02*
X37350D01*
X36850Y17335D02*
Y18335D01*
X36350Y20375D02*
X37350D01*
X36850Y19875D02*
Y20875D01*
X36350Y22915D02*
X37350D01*
X36850Y22415D02*
Y23415D01*
X80544Y15725D02*
X81306D01*
X80925Y15344D02*
Y16106D01*
X28391Y88250D02*
X29691D01*
X29041Y87600D02*
Y88900D01*
X40391Y88250D02*
X41691D01*
X41041Y87600D02*
Y88900D01*
X43141Y88250D02*
X44441D01*
X43791Y87600D02*
Y88900D01*
X55141Y88250D02*
X56441D01*
X55791Y87600D02*
Y88900D01*
X24969Y105950D02*
X25731D01*
X25350Y105569D02*
Y106331D01*
X45966Y105200D02*
X46728D01*
X46347Y104819D02*
Y105581D01*
X101894Y46175D02*
X102656D01*
X102275Y45794D02*
Y46556D01*
X101844Y51125D02*
X102606D01*
X102225Y50744D02*
Y51506D01*
X159926Y22451D02*
X160688D01*
X160307Y22070D02*
Y22832D01*
X159926Y8884D02*
X160688D01*
X160307Y8503D02*
Y9265D01*
X186894Y26100D02*
X187656D01*
X187275Y25719D02*
Y26481D01*
X183200Y8965D02*
X184200D01*
X183700Y8465D02*
Y9465D01*
X183200Y6425D02*
X184200D01*
X183700Y5925D02*
Y6925D01*
X183200Y3885D02*
X184200D01*
X183700Y3385D02*
Y4385D01*
X104919Y105500D02*
X105681D01*
X105300Y105119D02*
Y105881D01*
X207700Y20000D02*
X209000D01*
X208350Y19350D02*
Y20650D01*
X207700Y25000D02*
X209000D01*
X208350Y24350D02*
Y25650D01*
X207700Y29975D02*
X209000D01*
X208350Y29325D02*
Y30625D01*
X207700Y34975D02*
X209000D01*
X208350Y34325D02*
Y35625D01*
X169712Y3926D02*
X170474D01*
X170093Y3545D02*
Y4307D01*
X159926Y11749D02*
X160688D01*
X160307Y11368D02*
Y12130D01*
X194117Y9740D02*
X194817D01*
X194467Y9390D02*
Y10090D01*
X194117Y7200D02*
X194817D01*
X194467Y6850D02*
Y7550D01*
X194117Y4660D02*
X194817D01*
X194467Y4310D02*
Y5010D01*
X199132Y9740D02*
X199832D01*
X199482Y9390D02*
Y10090D01*
X199132Y7200D02*
X199832D01*
X199482Y6850D02*
Y7550D01*
X199132Y4660D02*
X199832D01*
X199482Y4310D02*
Y5010D01*
X195769Y40000D02*
X196531D01*
X196150Y39619D02*
Y40381D01*
X159869Y27474D02*
X160631D01*
X160250Y27093D02*
Y27855D01*
X183200Y12375D02*
X183950D01*
X183575Y12000D02*
Y12750D01*
X183200Y19475D02*
X183950D01*
X183575Y19100D02*
Y19850D01*
X159926Y19176D02*
X160688D01*
X160307Y18795D02*
Y19557D01*
X159926Y15688D02*
X160688D01*
X160307Y15307D02*
Y16069D01*
X203324Y7188D02*
X204086D01*
X203705Y6806D02*
Y7569D01*
X189077Y9740D02*
X189777D01*
X189427Y9390D02*
Y10090D01*
X189077Y7200D02*
X189777D01*
X189427Y6850D02*
Y7550D01*
X189077Y4660D02*
X189777D01*
X189427Y4310D02*
Y5010D01*
X87650Y85650D02*
X88050D01*
X87850Y85450D02*
Y85850D01*
X49975Y15600D02*
X50375D01*
X50175Y15400D02*
Y15800D01*
X171016Y29475D02*
X171416D01*
X171216Y29275D02*
Y29675D01*
X163050Y29450D02*
X163450D01*
X163250Y29250D02*
Y29650D01*
X168350Y64725D02*
X168750D01*
X168550Y64525D02*
Y64925D01*
X183275Y14300D02*
X183675D01*
X183475Y14100D02*
Y14500D01*
X169925Y17025D02*
X170325D01*
X170125Y16825D02*
Y17225D01*
X173837Y7700D02*
X174237D01*
X174037Y7500D02*
Y7900D01*
X87600Y80325D02*
X88000D01*
X87800Y80125D02*
Y80525D01*
X208075Y14775D02*
X208475D01*
X208275Y14575D02*
Y14975D01*
X171451Y6413D02*
X171851D01*
X171651Y6213D02*
Y6613D01*
X91625Y62325D02*
X92025D01*
X91825Y62125D02*
Y62525D01*
X105396Y80102D02*
X105796D01*
X105596Y79902D02*
Y80302D01*
X104588Y80106D02*
X104988D01*
X104788Y79906D02*
Y80306D01*
X104603Y80906D02*
X105003D01*
X104803Y80706D02*
Y81106D01*
X105388Y80906D02*
X105788D01*
X105588Y80706D02*
Y81106D01*
X93774Y73919D02*
X94174D01*
X93974Y73718D02*
Y74118D01*
X93202Y73343D02*
X93602D01*
X93402Y73144D02*
Y73544D01*
X93202Y74493D02*
X93602D01*
X93402Y74294D02*
Y74693D01*
X92646Y73919D02*
X93046D01*
X92846Y73718D02*
Y74118D01*
X91525Y72775D02*
X91925D01*
X91725Y72575D02*
Y72975D01*
X92082Y73350D02*
X92482D01*
X92282Y73150D02*
Y73550D01*
X92082Y72200D02*
X92482D01*
X92282Y72000D02*
Y72400D01*
X92653Y72775D02*
X93053D01*
X92853Y72575D02*
Y72975D01*
X106990Y80904D02*
X107390D01*
X107190Y80704D02*
Y81104D01*
X106205Y80904D02*
X106605D01*
X106405Y80704D02*
Y81104D01*
X106190Y80104D02*
X106590D01*
X106390Y79904D02*
Y80304D01*
X41100Y79275D02*
X41500D01*
X41300Y79075D02*
Y79475D01*
X73125Y5100D02*
X73525D01*
X73325Y4900D02*
Y5300D01*
X61450Y9650D02*
X61850D01*
X61650Y9450D02*
Y9850D01*
X61425Y10550D02*
X61825D01*
X61625Y10350D02*
Y10750D01*
X61425Y11525D02*
X61825D01*
X61625Y11325D02*
Y11725D01*
X61425Y12375D02*
X61825D01*
X61625Y12175D02*
Y12575D01*
X29150Y95422D02*
X29550D01*
X29350Y95222D02*
Y95622D01*
X106998Y80100D02*
X107398D01*
X107198Y79900D02*
Y80300D01*
X173557Y10101D02*
X173957D01*
X173757Y9901D02*
Y10301D01*
X163957Y20201D02*
X164357D01*
X164157Y20001D02*
Y20401D01*
%TF.MD5,4ae72c5814cd2411bda4a58b1b63afc9*%
M02*
