%TF.GenerationSoftware,Altium Limited,Altium Designer,24.3.1 (35)*%
G04 Layer_Color=8388736*
%FSLAX43Y43*%
%MOMM*%
%TF.SameCoordinates,76E1361F-AA3B-45A8-A24B-41510BF92E79*%
%TF.FilePolarity,Positive*%
%TF.FileFunction,Other,Bottom_Courtyard*%
%TF.Part,Single*%
G01*
G75*
%TA.AperFunction,NonConductor*%
%ADD94C,0.200*%
D94*
X17591Y81194D02*
Y84314D01*
X10891Y81194D02*
X17591D01*
X10891D02*
Y84314D01*
X17591D01*
X57831Y86776D02*
X60951D01*
X57831D02*
Y93476D01*
X60951D01*
Y86776D02*
Y93476D01*
X134700Y72335D02*
Y77615D01*
X124100D02*
X134700D01*
X124100Y72335D02*
Y77615D01*
Y72335D02*
X134700D01*
X81097Y91478D02*
X86603D01*
X81097Y87672D02*
Y91478D01*
Y87672D02*
X86603D01*
Y91478D01*
X103572Y90778D02*
X109078D01*
X103572Y86972D02*
Y90778D01*
Y86972D02*
X109078D01*
Y90778D01*
X101003Y64462D02*
Y68268D01*
X95497Y64462D02*
X101003D01*
X95497D02*
Y68268D01*
X101003D01*
X168987Y18945D02*
Y23557D01*
Y18945D02*
X172887D01*
Y23557D01*
X168987D02*
X172887D01*
X169061Y19048D02*
Y23354D01*
X166504D02*
X169061D01*
X166504Y19048D02*
Y23354D01*
Y19048D02*
X169061D01*
X173191Y6926D02*
Y12026D01*
X166484Y6926D02*
X173191D01*
X166484D02*
Y12026D01*
X173191D01*
X166459Y12298D02*
Y14854D01*
X170766D01*
Y12298D02*
Y14854D01*
X166459Y12298D02*
X170766D01*
%TF.MD5,81a25d9ffaba4158d5ceacd6d3adee36*%
M02*
