%TF.GenerationSoftware,Altium Limited,Altium Designer,24.3.1 (35)*%
G04 Layer_Physical_Order=1*
G04 Layer_Color=255*
%FSLAX43Y43*%
%MOMM*%
%TF.SameCoordinates,76E1361F-AA3B-45A8-A24B-41510BF92E79*%
%TF.FilePolarity,Positive*%
%TF.FileFunction,Copper,L1,Top,Signal*%
%TF.Part,Single*%
G01*
G75*
%TA.AperFunction,SMDPad,CuDef*%
%ADD10R,1.100X1.200*%
%ADD11R,9.500X3.750*%
%ADD12R,3.750X9.500*%
%ADD13R,2.000X4.000*%
%ADD14R,2.200X1.700*%
%TA.AperFunction,Conductor*%
%ADD15C,4.000*%
%ADD16C,3.000*%
%ADD17C,5.000*%
%ADD18C,0.800*%
%ADD19C,2.000*%
%ADD20C,2.500*%
%ADD21C,1.000*%
%ADD22C,0.500*%
%ADD23C,1.800*%
%ADD24C,1.500*%
%TA.AperFunction,NonConductor*%
%ADD25C,4.000*%
%TA.AperFunction,Conductor*%
%ADD26C,0.400*%
%ADD27R,4.457X10.132*%
%TA.AperFunction,ComponentPad*%
%ADD28C,3.048*%
%ADD29C,2.000*%
%ADD30C,2.500*%
%ADD31R,3.048X3.048*%
%ADD32C,1.524*%
%ADD33C,3.000*%
%ADD34C,2.286*%
%ADD35C,3.500*%
%ADD36O,1.750X2.540*%
%ADD37C,2.200*%
%ADD38R,2.200X2.200*%
%ADD39O,5.000X3.000*%
%ADD40C,6.000*%
%ADD41C,1.950*%
G04:AMPARAMS|DCode=42|XSize=1.95mm|YSize=1.95mm|CornerRadius=0.488mm|HoleSize=0mm|Usage=FLASHONLY|Rotation=0.000|XOffset=0mm|YOffset=0mm|HoleType=Round|Shape=RoundedRectangle|*
%AMROUNDEDRECTD42*
21,1,1.950,0.975,0,0,0.0*
21,1,0.975,1.950,0,0,0.0*
1,1,0.975,0.488,-0.488*
1,1,0.975,-0.488,-0.488*
1,1,0.975,-0.488,0.488*
1,1,0.975,0.488,0.488*
%
%ADD42ROUNDEDRECTD42*%
%ADD43O,6.000X3.500*%
G04:AMPARAMS|DCode=44|XSize=1.95mm|YSize=1.95mm|CornerRadius=0.488mm|HoleSize=0mm|Usage=FLASHONLY|Rotation=90.000|XOffset=0mm|YOffset=0mm|HoleType=Round|Shape=RoundedRectangle|*
%AMROUNDEDRECTD44*
21,1,1.950,0.975,0,0,90.0*
21,1,0.975,1.950,0,0,90.0*
1,1,0.975,0.488,0.488*
1,1,0.975,0.488,-0.488*
1,1,0.975,-0.488,-0.488*
1,1,0.975,-0.488,0.488*
%
%ADD44ROUNDEDRECTD44*%
%ADD45O,1.778X2.286*%
%ADD46C,2.794*%
%ADD47C,1.800*%
%ADD48C,1.500*%
G04:AMPARAMS|DCode=49|XSize=1.5mm|YSize=1.5mm|CornerRadius=0.375mm|HoleSize=0mm|Usage=FLASHONLY|Rotation=90.000|XOffset=0mm|YOffset=0mm|HoleType=Round|Shape=RoundedRectangle|*
%AMROUNDEDRECTD49*
21,1,1.500,0.750,0,0,90.0*
21,1,0.750,1.500,0,0,90.0*
1,1,0.750,0.375,0.375*
1,1,0.750,0.375,-0.375*
1,1,0.750,-0.375,-0.375*
1,1,0.750,-0.375,0.375*
%
%ADD49ROUNDEDRECTD49*%
%ADD50R,1.500X1.500*%
%ADD51R,1.200X1.200*%
%ADD52C,1.200*%
%ADD53C,1.250*%
%ADD54R,1.250X1.250*%
%TA.AperFunction,ViaPad*%
%ADD55C,0.800*%
G36*
X94575Y74150D02*
Y73616D01*
X92459Y71500D01*
X92100Y71500D01*
X91050Y72550D01*
Y73000D01*
X93075Y75025D01*
X93700D01*
X94575Y74150D01*
D02*
G37*
G36*
X96475Y104325D02*
X92036Y99886D01*
X89614D01*
X85150Y104350D01*
Y106133D01*
X96475D01*
Y104325D01*
D02*
G37*
G36*
X107725Y81200D02*
Y79884D01*
X107466Y79625D01*
X104571D01*
X104325Y79822D01*
Y81425D01*
X107500Y81425D01*
X107725Y81200D01*
D02*
G37*
G36*
X183450Y26825D02*
X183389Y26706D01*
X183182Y26665D01*
X182984Y26533D01*
X177263Y20812D01*
X164157D01*
X164098Y20801D01*
X164038D01*
X163982Y20778D01*
X163923Y20766D01*
X163873Y20732D01*
X163818Y20709D01*
X163775Y20667D01*
X163725Y20633D01*
X163691Y20583D01*
X163649Y20541D01*
X163626Y20485D01*
X163592Y20435D01*
X163581Y20376D01*
X163557Y20320D01*
Y20260D01*
X163546Y20201D01*
X163557Y20142D01*
Y20081D01*
X163581Y20026D01*
X163592Y19967D01*
X163626Y19916D01*
X163649Y19861D01*
X163691Y19818D01*
X163725Y19768D01*
X163775Y19735D01*
X163818Y19692D01*
X163873Y19669D01*
X163923Y19635D01*
X163982Y19624D01*
X164038Y19601D01*
X164098D01*
X164157Y19589D01*
X177517D01*
X177751Y19635D01*
X177949Y19768D01*
X183669Y25488D01*
X184787D01*
X188576Y21699D01*
X183760Y16884D01*
X182050D01*
X181874Y16849D01*
X181726Y16749D01*
X178760Y13784D01*
X174648D01*
X174473Y13749D01*
X174324Y13649D01*
X171327Y10652D01*
X171227Y10503D01*
X171192Y10328D01*
Y6802D01*
X171143Y6752D01*
X171051Y6532D01*
Y6293D01*
X171143Y6073D01*
X171311Y5904D01*
X171532Y5813D01*
X171771D01*
X171991Y5904D01*
X172160Y6073D01*
X172251Y6293D01*
Y6532D01*
X172160Y6752D01*
X172110Y6802D01*
Y10138D01*
X174838Y12866D01*
X178950D01*
X179126Y12901D01*
X179274Y13001D01*
X182240Y15966D01*
X183950D01*
X184126Y16001D01*
X184274Y16101D01*
X189224Y21051D01*
X194225Y16050D01*
X199025D01*
X202125Y12950D01*
Y333D01*
X153450Y333D01*
Y26472D01*
X159169Y32200D01*
X178075Y32200D01*
X183450Y26825D01*
D02*
G37*
%LPC*%
G36*
X168987Y30275D02*
X167487D01*
Y28675D01*
X168987D01*
Y28769D01*
X171216D01*
X171399Y28793D01*
X171570Y28864D01*
X171716Y28976D01*
X171828Y29122D01*
X171898Y29292D01*
X171923Y29475D01*
X171898Y29658D01*
X171828Y29828D01*
X171716Y29974D01*
X171570Y30086D01*
X171399Y30157D01*
X171216Y30181D01*
X168987D01*
Y30275D01*
D02*
G37*
G36*
X160427Y28817D02*
X160073D01*
X159732Y28726D01*
X159425Y28549D01*
X159175Y28299D01*
X158999Y27992D01*
X158907Y27651D01*
Y27297D01*
X158999Y26956D01*
X159175Y26649D01*
X159425Y26399D01*
X159732Y26223D01*
X160073Y26131D01*
X160427D01*
X160768Y26223D01*
X161075Y26399D01*
X161325Y26649D01*
X161501Y26956D01*
X161593Y27297D01*
Y27651D01*
X161501Y27992D01*
X161325Y28299D01*
X161075Y28549D01*
X160768Y28726D01*
X160427Y28817D01*
D02*
G37*
G36*
X160484Y23794D02*
X160131D01*
X159789Y23702D01*
X159483Y23525D01*
X159233Y23275D01*
X159056Y22969D01*
X158964Y22627D01*
Y22274D01*
X159056Y21932D01*
X159233Y21626D01*
X159483Y21376D01*
X159789Y21199D01*
X160131Y21108D01*
X160484D01*
X160826Y21199D01*
X161132Y21376D01*
X161382Y21626D01*
X161559Y21932D01*
X161650Y22274D01*
Y22627D01*
X161559Y22969D01*
X161382Y23275D01*
X161132Y23525D01*
X160826Y23702D01*
X160484Y23794D01*
D02*
G37*
G36*
Y20519D02*
X160131D01*
X159789Y20427D01*
X159483Y20250D01*
X159233Y20000D01*
X159056Y19694D01*
X158964Y19353D01*
Y18999D01*
X159056Y18657D01*
X159233Y18351D01*
X159483Y18101D01*
X159789Y17924D01*
X160131Y17833D01*
X160484D01*
X160826Y17924D01*
X160879Y17955D01*
X162134Y16701D01*
X162283Y16601D01*
X162458Y16566D01*
X169671D01*
X169697Y16549D01*
X169716Y16522D01*
X169650Y16395D01*
X161451D01*
X161382Y16513D01*
X161132Y16763D01*
X160826Y16940D01*
X160484Y17031D01*
X160131D01*
X159789Y16940D01*
X159483Y16763D01*
X159233Y16513D01*
X159056Y16207D01*
X158964Y15865D01*
Y15512D01*
X159056Y15170D01*
X159233Y14864D01*
X159483Y14614D01*
X159789Y14437D01*
X160131Y14345D01*
X160484D01*
X160826Y14437D01*
X161132Y14614D01*
X161382Y14864D01*
X161451Y14982D01*
X177663D01*
X177846Y15007D01*
X178017Y15077D01*
X178163Y15189D01*
X181742Y18769D01*
X182750D01*
Y18650D01*
X184400D01*
Y20300D01*
X182750D01*
Y20181D01*
X181450D01*
X181267Y20157D01*
X181097Y20086D01*
X180951Y19974D01*
X177371Y16395D01*
X170503D01*
X170472Y16495D01*
X170470Y16522D01*
X170634Y16685D01*
X170725Y16906D01*
Y17144D01*
X170634Y17365D01*
X170465Y17534D01*
X170244Y17625D01*
X170006D01*
X169785Y17534D01*
X169735Y17484D01*
X162648D01*
X161528Y18604D01*
X161559Y18657D01*
X161650Y18999D01*
Y19353D01*
X161559Y19694D01*
X161382Y20000D01*
X161132Y20250D01*
X160826Y20427D01*
X160484Y20519D01*
D02*
G37*
G36*
X189630Y16800D02*
X189248D01*
X188879Y16701D01*
X188549Y16510D01*
X188279Y16240D01*
X188088Y15910D01*
X187989Y15541D01*
Y15159D01*
X188088Y14790D01*
X188279Y14460D01*
X188549Y14190D01*
X188879Y13999D01*
X189248Y13900D01*
X189630D01*
X189999Y13999D01*
X190329Y14190D01*
X190599Y14460D01*
X190790Y14790D01*
X190889Y15159D01*
Y15541D01*
X190790Y15910D01*
X190599Y16240D01*
X190329Y16510D01*
X189999Y16701D01*
X189630Y16800D01*
D02*
G37*
G36*
X160484Y13092D02*
X160131D01*
X159789Y13001D01*
X159483Y12824D01*
X159233Y12574D01*
X159056Y12268D01*
X158964Y11926D01*
Y11572D01*
X159056Y11231D01*
X159233Y10925D01*
X159483Y10674D01*
X159789Y10498D01*
X160131Y10406D01*
X160484D01*
X160826Y10498D01*
X161132Y10674D01*
X161382Y10925D01*
X161559Y11231D01*
X161650Y11572D01*
Y11926D01*
X161559Y12268D01*
X161382Y12574D01*
X161132Y12824D01*
X160826Y13001D01*
X160484Y13092D01*
D02*
G37*
G36*
X183594Y14900D02*
X183356D01*
X183135Y14809D01*
X182966Y14640D01*
X182875Y14419D01*
Y14181D01*
X182966Y13960D01*
X183135Y13791D01*
X183356Y13700D01*
X183594D01*
X183815Y13791D01*
X183865Y13841D01*
X184535D01*
X185826Y12551D01*
X185974Y12451D01*
X186150Y12416D01*
X196157D01*
X198682Y9891D01*
Y8940D01*
X200282D01*
Y10540D01*
X199331D01*
X196671Y13199D01*
X196522Y13299D01*
X196347Y13334D01*
X186340D01*
X185049Y14624D01*
X184901Y14724D01*
X184725Y14759D01*
X183865D01*
X183815Y14809D01*
X183594Y14900D01*
D02*
G37*
G36*
X185786Y11064D02*
X174262D01*
X174086Y11029D01*
X173937Y10929D01*
X173709Y10701D01*
X173638D01*
X173418Y10609D01*
X173249Y10441D01*
X173157Y10220D01*
Y9981D01*
X173249Y9761D01*
X173418Y9592D01*
X173638Y9501D01*
X173877D01*
X174097Y9592D01*
X174266Y9761D01*
X174357Y9981D01*
Y10052D01*
X174452Y10146D01*
X185596D01*
X187461Y8281D01*
X187440Y8210D01*
X187404Y8159D01*
X184417D01*
X184364Y8286D01*
X184460Y8382D01*
X184585Y8598D01*
X184650Y8840D01*
Y9090D01*
X184585Y9332D01*
X184460Y9548D01*
X184283Y9725D01*
X184067Y9850D01*
X183825Y9915D01*
X183575D01*
X183333Y9850D01*
X183117Y9725D01*
X182940Y9548D01*
X182815Y9332D01*
X182750Y9090D01*
Y8840D01*
X182815Y8598D01*
X182940Y8382D01*
X183036Y8286D01*
X182983Y8159D01*
X174427D01*
X174377Y8209D01*
X174157Y8300D01*
X173918D01*
X173698Y8209D01*
X173529Y8040D01*
X173437Y7819D01*
Y7581D01*
X173529Y7360D01*
X173698Y7191D01*
X173918Y7100D01*
X174157D01*
X174377Y7191D01*
X174427Y7241D01*
X187235D01*
X187526Y6951D01*
X187675Y6851D01*
X187850Y6816D01*
X188725D01*
X188787Y6709D01*
X188935Y6560D01*
X189118Y6455D01*
X189321Y6400D01*
X189532D01*
X189735Y6455D01*
X189918Y6560D01*
X190067Y6709D01*
X190172Y6891D01*
X190227Y7095D01*
Y7305D01*
X190172Y7509D01*
X190067Y7691D01*
X189918Y7840D01*
X189903Y7849D01*
X189937Y7976D01*
X193957D01*
X193991Y7849D01*
X193975Y7840D01*
X193827Y7691D01*
X193721Y7509D01*
X193667Y7305D01*
Y7095D01*
X193721Y6891D01*
X193827Y6709D01*
X193975Y6560D01*
X194158Y6455D01*
X194361Y6400D01*
X194572D01*
X194775Y6455D01*
X194958Y6560D01*
X195107Y6709D01*
X195212Y6891D01*
X195267Y7095D01*
Y7305D01*
X195212Y7509D01*
X195107Y7691D01*
X194958Y7840D01*
X194943Y7849D01*
X194977Y7976D01*
X198057D01*
X198691Y7341D01*
X198682Y7305D01*
Y7095D01*
X198736Y6891D01*
X198842Y6709D01*
X198990Y6560D01*
X199173Y6455D01*
X199376Y6400D01*
X199587D01*
X199790Y6455D01*
X199973Y6560D01*
X200122Y6709D01*
X200227Y6891D01*
X200282Y7095D01*
Y7305D01*
X200227Y7509D01*
X200122Y7691D01*
X199973Y7840D01*
X199790Y7945D01*
X199587Y8000D01*
X199376D01*
X199340Y7990D01*
X198571Y8759D01*
X198423Y8859D01*
X198247Y8893D01*
X195374D01*
X195267Y8940D01*
X195267Y9020D01*
Y10540D01*
X193667D01*
Y9020D01*
X193667Y8940D01*
X193559Y8893D01*
X190334D01*
X190227Y8940D01*
X190227Y9020D01*
Y10540D01*
X188627D01*
Y9020D01*
X188627Y8940D01*
X188519Y8893D01*
X188146D01*
X186110Y10929D01*
X185962Y11029D01*
X185786Y11064D01*
D02*
G37*
G36*
X160484Y10227D02*
X160131D01*
X159789Y10135D01*
X159483Y9958D01*
X159233Y9708D01*
X159056Y9402D01*
X158964Y9060D01*
Y8707D01*
X159056Y8365D01*
X159233Y8059D01*
X159483Y7809D01*
X159789Y7632D01*
X160131Y7541D01*
X160484D01*
X160826Y7632D01*
X161132Y7809D01*
X161382Y8059D01*
X161559Y8365D01*
X161650Y8707D01*
Y9060D01*
X161559Y9402D01*
X161382Y9708D01*
X161132Y9958D01*
X160826Y10135D01*
X160484Y10227D01*
D02*
G37*
G36*
X189532Y5460D02*
X189321D01*
X189118Y5405D01*
X188935Y5300D01*
X188787Y5151D01*
X188681Y4969D01*
X188627Y4765D01*
Y4555D01*
X188681Y4351D01*
X188787Y4169D01*
X188935Y4020D01*
X189118Y3915D01*
X189321Y3860D01*
X189532D01*
X189735Y3915D01*
X189918Y4020D01*
X190067Y4169D01*
X190172Y4351D01*
X190227Y4555D01*
Y4765D01*
X190172Y4969D01*
X190067Y5151D01*
X189918Y5300D01*
X189735Y5405D01*
X189532Y5460D01*
D02*
G37*
G36*
X184650Y4835D02*
X182750D01*
Y2935D01*
X184650D01*
Y4835D01*
D02*
G37*
G36*
X170270Y5269D02*
X169917D01*
X169575Y5177D01*
X169269Y5000D01*
X169019Y4750D01*
X168842Y4444D01*
X168750Y4102D01*
Y3749D01*
X168842Y3407D01*
X169019Y3101D01*
X169269Y2851D01*
X169575Y2674D01*
X169917Y2583D01*
X170270D01*
X170612Y2674D01*
X170918Y2851D01*
X171168Y3101D01*
X171345Y3407D01*
X171436Y3749D01*
Y4102D01*
X171345Y4444D01*
X171168Y4750D01*
X170918Y5000D01*
X170612Y5177D01*
X170270Y5269D01*
D02*
G37*
%LPD*%
D10*
X168237Y29475D02*
D03*
X166137D02*
D03*
X206150Y13375D02*
D03*
X208250D02*
D03*
D11*
X209275Y67375D02*
D03*
Y73625D02*
D03*
X181000D02*
D03*
Y67375D02*
D03*
X168500Y60550D02*
D03*
Y54300D02*
D03*
X195450Y52425D02*
D03*
Y58675D02*
D03*
D12*
X70099Y7400D02*
D03*
X63849D02*
D03*
D13*
X76475Y26425D02*
D03*
Y19325D02*
D03*
D14*
X125300Y73705D02*
D03*
Y76245D02*
D03*
X133500D02*
D03*
Y73705D02*
D03*
D15*
X74025Y44996D02*
Y52441D01*
Y52491D02*
Y56592D01*
X148834Y40838D02*
X150214D01*
X141214D02*
X148834D01*
X139817D02*
X141214D01*
X150214D02*
X181013D01*
X183225Y43050D01*
Y43075D02*
X192575Y52425D01*
X108575Y66238D02*
X115941D01*
X107198D02*
X108575D01*
X86667Y56617D02*
X88154Y58104D01*
X95553D02*
X97452Y56205D01*
X88154Y58104D02*
X95553D01*
X108575Y56078D02*
X115941D01*
X106924D02*
X108575D01*
X97452Y56205D02*
X108575D01*
X86725Y52362D02*
Y56442D01*
X108575Y40838D02*
X115941D01*
X106924D02*
X108575D01*
X107198Y35758D02*
X108575D01*
X115941D01*
X148834Y66238D02*
X149678D01*
X150214D01*
X139817D02*
X141214D01*
X148834D01*
Y61244D02*
X150214D01*
X141214D02*
X148834D01*
X139817D02*
X141214D01*
X148834Y35758D02*
X150214D01*
X141214D02*
X148834D01*
X139817D02*
X141214D01*
X148834Y56078D02*
X150214D01*
X141214D02*
X148834D01*
X139817D02*
X141214D01*
X115941Y35758D02*
X117321D01*
X106924D02*
X107198D01*
X115941Y40838D02*
X117321D01*
X106924Y46045D02*
X108575D01*
X115941D01*
X106924Y50998D02*
X108575D01*
X115941D01*
Y46045D02*
X117321D01*
X106797Y66238D02*
X107198D01*
X115941Y50998D02*
X117321D01*
X115941Y56078D02*
X117321D01*
X115941Y66238D02*
X117194D01*
D16*
X74025Y44996D02*
X86725Y32296D01*
X54700Y54550D02*
X71916D01*
X73017Y53450D01*
X74000Y52466D02*
Y54433D01*
X97186Y24070D02*
X100125Y27009D01*
Y37400D02*
X103563Y40838D01*
X100125Y27009D02*
Y37400D01*
X103563Y40838D02*
X106924D01*
X107525Y66966D02*
Y71375D01*
X106797Y66238D02*
X107525Y66966D01*
X90825Y88075D02*
Y103875D01*
Y88075D02*
X107525Y71375D01*
X212075Y57950D02*
Y67000D01*
X209275Y67375D02*
X211700D01*
X212075Y67000D01*
X197025Y73000D02*
X197025D01*
X197750Y73725D02*
X209175D01*
X197025Y73000D02*
X197750Y73725D01*
X197025Y58550D02*
X207607D01*
X195575D02*
X197025D01*
X207700Y58643D02*
X207700Y58643D01*
Y58550D02*
Y58643D01*
X4497Y33114D02*
Y46825D01*
Y33114D02*
X11686Y25925D01*
X73325Y5050D02*
X89325D01*
X91145Y3230D01*
X91536Y3130D02*
X97186D01*
X7750Y70200D02*
X9425Y68525D01*
X168500Y60550D02*
X179925D01*
X25175Y43275D02*
X30600Y37850D01*
X13025Y43275D02*
X25175D01*
X4497Y52474D02*
Y63622D01*
X30554Y72204D02*
X30650Y72300D01*
X4497Y46825D02*
Y52474D01*
X9675Y46625D02*
X13025Y43275D01*
X4497Y63622D02*
X6075Y65200D01*
X197025Y59550D02*
Y68000D01*
X148834Y40838D02*
X150214D01*
X183225Y43050D02*
Y43075D01*
X192575Y52425D02*
X195450D01*
X179925Y60550D02*
X181125Y59350D01*
X150214Y61244D02*
X154981D01*
X161925Y54300D02*
X168500D01*
X154981Y61244D02*
X161925Y54300D01*
X58825Y72300D02*
X69617D01*
X54700D02*
X58825D01*
X80925Y10050D02*
X95955D01*
X102850Y3155D01*
X102863Y3168D02*
X108537D01*
X69617Y72300D02*
X74000Y76683D01*
X108550Y24120D02*
Y35860D01*
X54700Y62300D02*
X54700Y62300D01*
X102863Y24108D02*
X108537D01*
X91536Y24070D02*
X97186D01*
X74000Y64100D02*
X86574Y76674D01*
X74000Y56617D02*
Y64100D01*
X54700Y37725D02*
X60025Y32400D01*
X74000D01*
X54835Y47725D02*
X55085Y47475D01*
X54700Y47725D02*
X54835D01*
X55085Y47475D02*
X55157D01*
X30712Y37787D02*
X54638D01*
X30650Y72300D02*
X54700D01*
X30650Y72300D02*
X30650Y72300D01*
X54700D02*
X54700Y72300D01*
D17*
X54700Y47725D02*
Y54550D01*
Y62300D01*
X30650Y47850D02*
Y62300D01*
D18*
X77575Y62475D02*
X89975Y74875D01*
X77575Y47550D02*
Y62475D01*
Y47550D02*
X93100Y32025D01*
X89975Y74875D02*
Y78150D01*
X201425Y6603D02*
Y9928D01*
X204872Y13375D01*
X206150D01*
X199482Y4660D02*
X201425Y6603D01*
X164157Y20201D02*
X177517D01*
X183416Y26100D02*
X187275D01*
X177517Y20201D02*
X183416Y26100D01*
X87800Y80325D02*
X89975Y78150D01*
X183700Y6425D02*
X185136D01*
X188426Y3135D01*
X193060D01*
X194267Y4352D02*
X194467Y4552D01*
X194496Y4631D02*
X199452D01*
X193060Y3135D02*
X194267Y4342D01*
X194467Y4552D02*
Y4660D01*
X194267Y4342D02*
Y4352D01*
X47825Y19150D02*
X47975D01*
X39475Y21475D02*
X45500D01*
X47825Y19150D01*
X36850Y20375D02*
X38375D01*
X39475Y21475D01*
X49210Y22915D02*
X52975Y19150D01*
X36850Y22915D02*
X49210D01*
X38660Y17835D02*
X39975Y19150D01*
X36850Y17835D02*
X38660D01*
X39975Y19150D02*
X42975D01*
X93100Y32025D02*
X94998D01*
X48251Y99275D02*
Y101376D01*
X49500Y102625D02*
Y105200D01*
X48251Y101376D02*
X49500Y102625D01*
D19*
X96757Y67316D02*
Y76743D01*
X87850Y85650D02*
X96757Y76743D01*
X42471Y76050D02*
X45131Y78710D01*
X19075Y78800D02*
X21825Y76050D01*
X42471D01*
X45131Y78710D02*
Y81181D01*
X49344Y85394D02*
X49381D01*
X52237Y88250D02*
X55791D01*
X49381Y85394D02*
X52237Y88250D01*
X45131Y81181D02*
X49344Y85394D01*
X181275Y54350D02*
X184375Y57450D01*
X207700Y53575D02*
X212075Y57950D01*
X207700Y50450D02*
Y53575D01*
X207607Y58550D02*
X207700Y58643D01*
X195450Y58675D02*
X196325Y59550D01*
X197125Y60350D01*
X91145Y3230D02*
X91436D01*
X70974Y5050D02*
X73325D01*
X91436Y3230D02*
X91536Y3130D01*
X34625Y11125D02*
X52000D01*
X24275Y21475D02*
X34625Y11125D01*
X171175Y61425D02*
Y65375D01*
X170300Y60550D02*
X171175Y61425D01*
X168550Y68000D02*
X171175Y65375D01*
X7775Y78500D02*
X14450Y71825D01*
Y58825D02*
Y71825D01*
X14650Y78800D02*
X19075D01*
X6075Y70200D02*
X7750D01*
X209275Y73625D02*
X211675D01*
X212550Y74500D02*
Y78076D01*
X211675Y73625D02*
X212550Y74500D01*
X181000Y73625D02*
X181025Y73600D01*
X187425D02*
X187450Y73575D01*
X181025Y73600D02*
X187425D01*
X146000Y95450D02*
X168500Y72950D01*
X168600D02*
X180325D01*
X211200Y42800D02*
Y46950D01*
X207700Y50450D02*
X211200Y46950D01*
X208350Y39950D02*
X211200Y42800D01*
X181000Y67375D02*
X183500D01*
X184375Y57450D02*
Y66500D01*
X183500Y67375D02*
X184375Y66500D01*
X178875Y91200D02*
X197025Y73050D01*
X171925Y91200D02*
X178875D01*
X197025Y73000D02*
Y73050D01*
X168000Y95125D02*
X171925Y91200D01*
X168000Y95125D02*
Y100900D01*
X146000Y95450D02*
Y100900D01*
X168550Y73000D02*
X168600Y72950D01*
X180325D02*
X181000Y73625D01*
X4725Y71375D02*
X5875Y70225D01*
X4725Y71375D02*
Y86725D01*
X7775Y89775D01*
X5875Y70225D02*
X5975D01*
X91825Y62384D02*
X96757Y67316D01*
X7775Y78500D02*
Y84681D01*
X49425Y1925D02*
X49443Y1942D01*
Y4758D02*
X49460Y4775D01*
X55367Y14542D02*
X72583D01*
X52000Y11175D02*
X55367Y14542D01*
X70099Y5925D02*
X70974Y5050D01*
X70099Y5925D02*
Y7400D01*
X72583Y14542D02*
X77075Y10050D01*
X80925D01*
X148834Y56078D02*
X149121Y56365D01*
X7900Y89650D02*
X20775D01*
D20*
X203675Y54300D02*
X207700Y58325D01*
X203675Y49675D02*
Y54300D01*
Y49675D02*
X208350Y45000D01*
X9425Y46847D02*
Y68525D01*
D21*
X20775Y89650D02*
X20975Y89850D01*
X21175D01*
X7875Y84775D02*
X10425Y87325D01*
X23482D01*
X7775Y84681D02*
Y84775D01*
X35260Y15600D02*
X50175D01*
X29385Y21475D02*
X35260Y15600D01*
X76250Y26650D02*
X76475Y26425D01*
X67975Y26650D02*
X76250D01*
X76450Y19300D02*
X76475Y19325D01*
X76300Y19150D02*
X76450Y19300D01*
X67975Y19150D02*
X76300D01*
X47775Y26650D02*
X47975D01*
X172907Y27450D02*
X174182Y28725D01*
X166619Y27450D02*
X172907D01*
X174182Y28725D02*
X191123D01*
X157400Y29450D02*
X163250D01*
X166087Y29425D02*
X166137Y29475D01*
X166033Y28036D02*
X166619Y27450D01*
X166033Y28929D02*
X166087Y28982D01*
X166033Y28036D02*
Y28929D01*
X166087Y28982D02*
Y29425D01*
X163250Y29450D02*
X166124D01*
Y29438D02*
Y29450D01*
X154750Y26800D02*
X157400Y29450D01*
X131850Y26800D02*
X154750D01*
X168237Y29475D02*
X171216D01*
X168550Y64725D02*
Y64725D01*
X132980Y73675D02*
X159600D01*
X168550Y64725D01*
X133045Y76150D02*
X160350D01*
X168500Y68000D01*
X132950Y73705D02*
X132980Y73675D01*
X160307Y15688D02*
X177663D01*
X181450Y19475D02*
X183575D01*
X177663Y15688D02*
X181450Y19475D01*
X208275Y14775D02*
X208275Y14775D01*
Y13425D02*
X208325Y13375D01*
X208275Y13425D02*
Y14775D01*
X41300Y79275D02*
Y82243D01*
X53757Y94700D01*
X61700D01*
X29350Y95422D02*
X33869D01*
X26747D02*
X29350D01*
X58825Y72300D02*
X59291Y72766D01*
Y81025D01*
X29275Y21475D02*
X29385D01*
X76450Y15650D02*
Y19300D01*
X76425Y15625D02*
X76450Y15650D01*
X80900Y15750D02*
Y21025D01*
X77000Y24925D02*
X80900Y21025D01*
X80925Y10050D02*
Y15725D01*
X76475Y25425D02*
Y26425D01*
X76975Y24925D02*
X77000D01*
X76475Y25425D02*
X76975Y24925D01*
X108537Y3168D02*
X108550Y3180D01*
X102850Y3155D02*
X102863Y3168D01*
X21175Y89850D02*
X26747Y95422D01*
X33869D02*
X41041Y88250D01*
X86700Y28925D02*
Y32271D01*
X43186Y99289D02*
Y105186D01*
X43171Y99275D02*
X43186Y99289D01*
Y105186D02*
X43200Y105200D01*
X25325Y99299D02*
Y105975D01*
X7775Y89775D02*
X7900Y89650D01*
X21061Y84650D02*
X22861Y82850D01*
X32091D01*
X23482Y87325D02*
X28107Y91950D01*
X32875D01*
X32091Y82850D02*
X32316Y82625D01*
D22*
X124700Y74305D02*
X125300Y73705D01*
X124420Y74305D02*
X124700D01*
X120975Y77750D02*
Y97500D01*
Y77750D02*
X124420Y74305D01*
X124450Y76845D02*
X125050Y76245D01*
X122625Y78700D02*
X124450Y76875D01*
X122625Y78700D02*
Y97975D01*
X125050Y76245D02*
X125300D01*
X124450Y76845D02*
Y76875D01*
X171651Y6413D02*
Y10328D01*
X174648Y13325D02*
X178950D01*
X171651Y10328D02*
X174648Y13325D01*
X183950Y16425D02*
X196150Y28625D01*
X178950Y13325D02*
X182050Y16425D01*
X183950D01*
X196150Y28625D02*
Y28698D01*
X132950Y76245D02*
X133045Y76150D01*
X183475Y14300D02*
X184725D01*
X186150Y12875D01*
X196347D01*
X199482Y9740D01*
X162458Y17025D02*
X170125D01*
X160307Y19176D02*
X162458Y17025D01*
X185786Y10605D02*
X187956Y8435D01*
X198247D01*
X199482Y7200D01*
X173757Y10101D02*
X174262Y10605D01*
X185786D01*
X174037Y7700D02*
X187425D01*
X187850Y7275D01*
X189352D01*
X189427Y7200D01*
X30381Y102906D02*
X35475Y108000D01*
X110475D02*
X120975Y97500D01*
X35475Y108000D02*
X110475D01*
X27841Y102341D02*
X34500Y109000D01*
X111600D01*
X122625Y97975D01*
X27841Y99275D02*
Y102341D01*
X30381Y99275D02*
Y102906D01*
X94998Y32025D02*
X95207Y32234D01*
D23*
X105398Y81502D02*
X105791Y81109D01*
X99460Y87440D02*
X105398Y81502D01*
X105791Y81109D02*
X106197Y80703D01*
X80225Y60925D02*
X92325Y73025D01*
X99460Y87440D02*
Y100900D01*
X92325Y73025D02*
X92603D01*
X80225Y49725D02*
Y60925D01*
X52000Y4775D02*
Y11125D01*
X90825Y105250D02*
X100300D01*
X78911D02*
X90825D01*
X100300D02*
X102000Y103550D01*
X77460Y103799D02*
X78911Y105250D01*
X77460Y100900D02*
Y103799D01*
X102000Y100900D02*
Y103550D01*
X80225Y49725D02*
X95207Y34743D01*
X74000Y76683D02*
X80000Y82683D01*
Y100900D01*
X95207Y32234D02*
Y34743D01*
D24*
X49443Y1942D02*
Y4758D01*
D25*
X149050Y46004D02*
X150214D01*
X148834D02*
X149050D01*
X141214D02*
X148834D01*
X139817D02*
X141214D01*
X148834D02*
X149050D01*
X147953Y50998D02*
X150214D01*
X139817D02*
X147953D01*
X106924Y61285D02*
X117321D01*
D26*
X30650Y37850D02*
X30712Y37787D01*
X54638D02*
X54700Y37725D01*
D27*
X63446Y7716D02*
D03*
D28*
X74000Y56617D02*
D03*
Y76683D02*
D03*
X67975Y19150D02*
D03*
X52975Y26650D02*
D03*
X47975D02*
D03*
X42975D02*
D03*
Y19150D02*
D03*
X47975D02*
D03*
X52975D02*
D03*
X86667Y56617D02*
D03*
Y76683D02*
D03*
X74000Y52466D02*
D03*
Y32400D02*
D03*
X86725Y32296D02*
D03*
Y52362D02*
D03*
D29*
X80925Y5050D02*
D03*
Y10050D02*
D03*
X181125Y59350D02*
D03*
Y54350D02*
D03*
X168550Y73000D02*
D03*
Y68000D02*
D03*
X24275Y21475D02*
D03*
X29275D02*
D03*
X207700Y53550D02*
D03*
Y58550D02*
D03*
X197025Y68000D02*
D03*
Y73000D02*
D03*
X20975Y89650D02*
D03*
Y84650D02*
D03*
X7775Y84775D02*
D03*
Y89775D02*
D03*
X29041Y88250D02*
D03*
X41041D02*
D03*
X43791D02*
D03*
X55791D02*
D03*
D30*
X11725Y25925D02*
D03*
Y35925D02*
D03*
X86700Y28925D02*
D03*
X189439Y15350D02*
D03*
X196150Y28698D02*
D03*
X191150D02*
D03*
Y35048D02*
D03*
X196150D02*
D03*
D31*
X67975Y26650D02*
D03*
D32*
X4475Y52474D02*
D03*
X9425D02*
D03*
X4497Y46825D02*
D03*
X9447D02*
D03*
X96700Y56900D02*
D03*
Y61850D02*
D03*
X126900Y26800D02*
D03*
X131850D02*
D03*
D33*
X14500Y78800D02*
D03*
X14450Y58825D02*
D03*
X95257Y52209D02*
D03*
X95207Y32234D02*
D03*
X32350Y82875D02*
D03*
X52325Y82825D02*
D03*
D34*
X49500Y105200D02*
D03*
X187450Y73575D02*
D03*
X76425Y15625D02*
D03*
X212550Y78076D02*
D03*
X201675Y41625D02*
D03*
X49425Y1925D02*
D03*
X72875Y105250D02*
D03*
X32875Y91950D02*
D03*
X54517Y84801D02*
D03*
X18550Y35650D02*
D03*
X61700Y94700D02*
D03*
X59291Y81025D02*
D03*
X43200Y105200D02*
D03*
X173450Y5660D02*
D03*
X80925Y15725D02*
D03*
X25350Y105950D02*
D03*
X46347Y105200D02*
D03*
X102275Y46175D02*
D03*
X102225Y51125D02*
D03*
X160307Y22451D02*
D03*
Y8884D02*
D03*
X187275Y26100D02*
D03*
X105300Y105500D02*
D03*
X170093Y3926D02*
D03*
X160307Y11749D02*
D03*
X196150Y40000D02*
D03*
X160250Y27474D02*
D03*
X160307Y19176D02*
D03*
Y15688D02*
D03*
X203705Y7188D02*
D03*
D35*
X54700Y72300D02*
D03*
Y62300D02*
D03*
X30650Y37850D02*
D03*
Y47850D02*
D03*
Y62300D02*
D03*
Y72300D02*
D03*
X54700Y47725D02*
D03*
Y37725D02*
D03*
D36*
X165460Y100900D02*
D03*
X168000D02*
D03*
X170540D02*
D03*
X143460D02*
D03*
X146000D02*
D03*
X148540D02*
D03*
X99460D02*
D03*
X102000D02*
D03*
X104540D02*
D03*
X77460D02*
D03*
X80000D02*
D03*
X82540D02*
D03*
D37*
X102850Y3155D02*
D03*
X108550Y3180D02*
D03*
X91536Y24070D02*
D03*
X97186D02*
D03*
D38*
X102850Y24095D02*
D03*
X108550Y24120D02*
D03*
X91536Y3130D02*
D03*
X97186D02*
D03*
D39*
X141214Y66238D02*
D03*
Y40838D02*
D03*
Y46004D02*
D03*
Y50998D02*
D03*
Y56078D02*
D03*
Y61244D02*
D03*
X115941Y35758D02*
D03*
Y40838D02*
D03*
Y46004D02*
D03*
Y50998D02*
D03*
Y56078D02*
D03*
Y61244D02*
D03*
Y66238D02*
D03*
X141214Y35758D02*
D03*
D40*
X200000Y87800D02*
D03*
X70000D02*
D03*
X135000D02*
D03*
D41*
X39350Y6500D02*
D03*
X208350Y44950D02*
D03*
X29300Y6500D02*
D03*
X6075Y65200D02*
D03*
X208350Y25000D02*
D03*
Y34975D02*
D03*
D42*
X34350Y6500D02*
D03*
X24300D02*
D03*
D43*
X148834Y40838D02*
D03*
Y46004D02*
D03*
Y50998D02*
D03*
Y56078D02*
D03*
Y61244D02*
D03*
Y66238D02*
D03*
Y35758D02*
D03*
X108575Y40965D02*
D03*
Y46131D02*
D03*
Y51125D02*
D03*
Y56205D02*
D03*
Y61371D02*
D03*
Y66365D02*
D03*
Y35885D02*
D03*
D44*
X208350Y39950D02*
D03*
X6075Y70200D02*
D03*
X208350Y20000D02*
D03*
Y29975D02*
D03*
D45*
X49460Y4775D02*
D03*
X52000D02*
D03*
X54540D02*
D03*
D46*
X52000Y11125D02*
D03*
D47*
X40631Y99275D02*
D03*
X50791D02*
D03*
X30381D02*
D03*
X32921D02*
D03*
X35461D02*
D03*
X38091D02*
D03*
X25301D02*
D03*
X43171D02*
D03*
X45711D02*
D03*
X48251D02*
D03*
X22761D02*
D03*
X27841D02*
D03*
D48*
X36850Y17835D02*
D03*
Y20375D02*
D03*
X183700Y8965D02*
D03*
Y6425D02*
D03*
D49*
X36850Y22915D02*
D03*
D50*
X183700Y3885D02*
D03*
D51*
X194467Y9740D02*
D03*
X199482D02*
D03*
X189427D02*
D03*
D52*
X194467Y7200D02*
D03*
Y4660D02*
D03*
X199482Y7200D02*
D03*
Y4660D02*
D03*
X189427Y7200D02*
D03*
Y4660D02*
D03*
D53*
X183575Y12375D02*
D03*
D54*
Y19475D02*
D03*
D55*
X87850Y85650D02*
D03*
X50175Y15600D02*
D03*
X171216Y29475D02*
D03*
X163250Y29450D02*
D03*
X168550Y64725D02*
D03*
X183475Y14300D02*
D03*
X170125Y17025D02*
D03*
X174037Y7700D02*
D03*
X87800Y80325D02*
D03*
X208275Y14775D02*
D03*
X171651Y6413D02*
D03*
X91825Y62325D02*
D03*
X105596Y80102D02*
D03*
X104788Y80106D02*
D03*
X104803Y80906D02*
D03*
X105588D02*
D03*
X93974Y73919D02*
D03*
X93402Y73343D02*
D03*
Y74493D02*
D03*
X92846Y73919D02*
D03*
X91725Y72775D02*
D03*
X92282Y73350D02*
D03*
Y72200D02*
D03*
X92853Y72775D02*
D03*
X107190Y80904D02*
D03*
X106405D02*
D03*
X106390Y80104D02*
D03*
X41300Y79275D02*
D03*
X73325Y5100D02*
D03*
X61650Y9650D02*
D03*
X61625Y10550D02*
D03*
Y11525D02*
D03*
Y12375D02*
D03*
X29350Y95422D02*
D03*
X107198Y80100D02*
D03*
X173757Y10101D02*
D03*
X164157Y20201D02*
D03*
%TF.MD5,624b7c85211bca17515b8ab4fbacc938*%
M02*
