%TF.GenerationSoftware,Altium Limited,Altium Designer,24.3.1 (35)*%
G04 Layer_Color=65535*
%FSLAX43Y43*%
%MOMM*%
%TF.SameCoordinates,76E1361F-AA3B-45A8-A24B-41510BF92E79*%
%TF.FilePolarity,Positive*%
%TF.FileFunction,Legend,Top*%
%TF.Part,Single*%
G01*
G75*
%TA.AperFunction,NonConductor*%
%ADD93C,0.250*%
%ADD94C,0.200*%
%ADD95C,0.254*%
%ADD96C,1.000*%
%ADD131C,0.300*%
%ADD132C,0.762*%
%ADD133C,0.100*%
%ADD134C,0.508*%
%ADD135C,0.500*%
%ADD136R,5.334X2.032*%
%ADD137R,15.240X8.382*%
G36*
X129839Y15524D02*
X129869D01*
X129974Y15509D01*
X130049D01*
X130109Y15494D01*
X130139D01*
X130229Y15479D01*
X130304Y15464D01*
X130364Y15449D01*
X130379Y15434D01*
X130469Y15419D01*
X130544Y15389D01*
X130604Y15374D01*
X130619D01*
X130694Y15344D01*
X130754Y15314D01*
X130799Y15299D01*
X130814Y15284D01*
X130889Y15254D01*
X130949Y15239D01*
X130979Y15224D01*
X130994Y15209D01*
X131084Y15164D01*
X131159Y15134D01*
X131204Y15104D01*
X131219Y15089D01*
X131294Y15059D01*
X131369Y15014D01*
X131414Y14999D01*
X131429Y14984D01*
X131534Y14909D01*
X131579Y14879D01*
X131594Y14864D01*
X131669Y14819D01*
X131729Y14774D01*
X131774Y14744D01*
X131789Y14729D01*
X131879Y14654D01*
X131909Y14639D01*
X131924Y14624D01*
X132014Y14549D01*
X132044Y14519D01*
X132059Y14504D01*
X132149Y14399D01*
X132014Y14354D01*
X131984D01*
X131969Y14339D01*
X131954Y14324D01*
X131939Y14309D01*
X131879Y14294D01*
X131864Y14279D01*
X131849D01*
X131789Y14249D01*
X131774Y14234D01*
X131759Y14219D01*
X131684Y14189D01*
X131654Y14174D01*
X131639D01*
X131579Y14144D01*
X131564Y14129D01*
X131549D01*
X131459Y14084D01*
X131429Y14069D01*
X131414D01*
X131339Y14039D01*
X131309Y14024D01*
X131294D01*
X130724Y13754D01*
X130469Y13874D01*
X130379Y13919D01*
X130349Y13934D01*
X130334D01*
X130259Y13979D01*
X130229Y13994D01*
X130214D01*
X130124Y14009D01*
X130094Y14024D01*
X130079D01*
X129989Y14054D01*
X129959Y14069D01*
X129944D01*
X129869Y14084D01*
X129824D01*
X129734Y14099D01*
X129689D01*
X129584Y14114D01*
X129089D01*
X129014Y14099D01*
X128984Y14084D01*
X128879D01*
X128849Y14069D01*
X128834D01*
X128759Y14054D01*
X128744Y14039D01*
X128729D01*
X128654Y14009D01*
X128624Y13994D01*
X128609D01*
X128504Y13964D01*
X128474Y13949D01*
X128459D01*
X128369Y13904D01*
X128339Y13889D01*
X128324D01*
X128234Y13829D01*
X128159Y13784D01*
X128099Y13754D01*
X128084Y13739D01*
X127994Y13694D01*
X127934Y13649D01*
X127874Y13604D01*
X127859Y13589D01*
X127784Y13514D01*
X127709Y13454D01*
X127664Y13409D01*
X127649Y13394D01*
X127589Y13319D01*
X127529Y13259D01*
X127484Y13214D01*
X127469Y13199D01*
X127409Y13124D01*
X127349Y13049D01*
X127319Y12989D01*
X127304Y12974D01*
X127259Y12899D01*
X127214Y12824D01*
X127184Y12764D01*
X127169Y12749D01*
X127139Y12659D01*
X127109Y12584D01*
X127094Y12524D01*
X127079Y12494D01*
X127049Y12389D01*
X127019Y12314D01*
X127004Y12254D01*
X126989Y12224D01*
X126974Y12119D01*
X126959Y12089D01*
Y12074D01*
Y11984D01*
X126944Y11954D01*
Y11939D01*
Y11864D01*
Y11804D01*
Y11759D01*
Y11744D01*
Y11684D01*
Y11624D01*
Y11579D01*
Y11564D01*
X126959Y11444D01*
Y11399D01*
Y11384D01*
Y11324D01*
X126974Y11264D01*
Y11219D01*
Y11204D01*
X126989Y11099D01*
X127004Y11069D01*
Y11054D01*
X127034Y10964D01*
X127049Y10934D01*
Y10919D01*
Y10874D01*
Y10859D01*
X127064Y10829D01*
X127079Y10814D01*
Y10784D01*
Y10769D01*
X127109Y10739D01*
X127124Y10724D01*
Y10709D01*
Y10694D01*
X127139Y10664D01*
Y10649D01*
X127154D01*
X127169Y10634D01*
X127184D01*
X127259Y10679D01*
X127334Y10709D01*
X127379Y10739D01*
X127394D01*
X127484Y10784D01*
X127559Y10814D01*
X127604Y10829D01*
X127619D01*
X127709Y10874D01*
X127769Y10904D01*
X127814Y10934D01*
X127829D01*
X127904Y10964D01*
X127964Y10994D01*
X128009Y11024D01*
X128024D01*
X128069Y11039D01*
X128084D01*
X128129Y11069D01*
X128159Y11099D01*
Y11114D01*
Y11129D01*
Y11144D01*
Y11159D01*
X128129Y11189D01*
Y11204D01*
Y11219D01*
Y11234D01*
X128114Y11249D01*
Y11264D01*
Y11294D01*
X128099Y11309D01*
X128084Y11399D01*
X128069Y11474D01*
X128054Y11519D01*
Y11534D01*
Y11624D01*
X128069Y11699D01*
Y11744D01*
Y11759D01*
Y11849D01*
X128084Y11924D01*
X128099Y11984D01*
Y11999D01*
X128129Y12089D01*
X128144Y12164D01*
X128174Y12209D01*
Y12224D01*
X128219Y12299D01*
X128249Y12359D01*
X128279Y12404D01*
X128294Y12419D01*
X128354Y12494D01*
X128384Y12554D01*
X128414Y12599D01*
X128429Y12614D01*
X128489Y12674D01*
X128549Y12704D01*
X128594Y12734D01*
X128609Y12749D01*
X128684Y12794D01*
X128759Y12839D01*
X128804Y12854D01*
X128819Y12869D01*
X128864Y12884D01*
X128879Y12899D01*
X128924Y12929D01*
X128939D01*
X128984Y12944D01*
X128999D01*
X129029Y12959D01*
X129119D01*
X129164Y12974D01*
X129629D01*
X129644Y12959D01*
X129764D01*
X129779Y12944D01*
X129809D01*
X129824Y12929D01*
X129869Y12914D01*
X129884Y12899D01*
X129944Y12884D01*
X129959Y12869D01*
X130199Y12764D01*
X131384Y13334D01*
X131519Y13394D01*
X131639Y13439D01*
X131729Y13484D01*
X131744Y13499D01*
X131759D01*
X131909Y13574D01*
X132029Y13634D01*
X132119Y13679D01*
X132134Y13694D01*
X132149D01*
X132239Y13724D01*
X132269Y13739D01*
X132284D01*
X132374Y13784D01*
X132404Y13799D01*
X132419D01*
X132479Y13814D01*
X132494Y13829D01*
X132539Y13859D01*
X132584D01*
X132599Y13844D01*
X132614Y13829D01*
X132629Y13814D01*
X132644D01*
Y13799D01*
X132659Y13784D01*
X132674Y13739D01*
X132689Y13724D01*
X132704Y13679D01*
X132719Y13664D01*
X132749Y13604D01*
X132764Y13589D01*
X132779Y13559D01*
X132794Y13544D01*
X132809Y13484D01*
X132824Y13469D01*
Y13454D01*
X132854Y13394D01*
X132869Y13379D01*
X132974Y13124D01*
X133034Y13004D01*
X133064Y12899D01*
X133094Y12809D01*
X133124Y12734D01*
X133139Y12689D01*
Y12674D01*
X133199Y12404D01*
X133229Y12284D01*
X133244Y12164D01*
X133259Y12074D01*
X133274Y11984D01*
Y11939D01*
Y11924D01*
Y11654D01*
Y11519D01*
X133259Y11414D01*
Y11309D01*
X133244Y11234D01*
Y11189D01*
Y11174D01*
X133199Y10904D01*
X133169Y10769D01*
X133139Y10664D01*
X133124Y10559D01*
X133094Y10484D01*
X133079Y10439D01*
Y10424D01*
X132974Y10169D01*
X132929Y10049D01*
X132884Y9944D01*
X132839Y9854D01*
X132794Y9779D01*
X132779Y9734D01*
X132764Y9719D01*
X132614Y9479D01*
X132539Y9374D01*
X132464Y9284D01*
X132404Y9209D01*
X132359Y9149D01*
X132329Y9119D01*
X132314Y9104D01*
X132119Y8894D01*
X131939Y8729D01*
X131864Y8669D01*
X131804Y8624D01*
X131774Y8594D01*
X131759Y8579D01*
X131534Y8414D01*
X131324Y8294D01*
X131234Y8249D01*
X131174Y8204D01*
X131129Y8189D01*
X131114Y8174D01*
X131024Y8144D01*
X130964Y8114D01*
X130904Y8099D01*
X130889Y8084D01*
X130814Y8054D01*
X130739Y8009D01*
X130679Y7994D01*
X130664Y7979D01*
X130589Y7964D01*
X130529Y7934D01*
X130484Y7919D01*
X130469D01*
X130394Y7904D01*
X130319Y7874D01*
X130274Y7859D01*
X130259D01*
X130184Y7844D01*
X130109D01*
X130064Y7829D01*
X130049D01*
X129974Y7814D01*
X129839D01*
X129749Y7799D01*
X129674Y7784D01*
X129029D01*
X128954Y7799D01*
X128894Y7814D01*
X128879D01*
X128804Y7829D01*
X128669D01*
X128594Y7844D01*
X128534Y7859D01*
X128489Y7874D01*
X128474D01*
X128399Y7889D01*
X128339Y7904D01*
X128294Y7919D01*
X128279D01*
X128204Y7949D01*
X128144Y7964D01*
X128099Y7994D01*
X128084D01*
X128009Y8024D01*
X127934Y8054D01*
X127889Y8084D01*
X127874D01*
X127799Y8114D01*
X127724Y8144D01*
X127679Y8174D01*
X127664D01*
X127604Y8219D01*
X127544Y8249D01*
X127514Y8264D01*
X127499D01*
X127409Y8324D01*
X127379Y8339D01*
X127364Y8354D01*
X127304Y8384D01*
X127244Y8429D01*
X127199Y8444D01*
X127184Y8459D01*
X127124Y8504D01*
X127064Y8549D01*
X127019Y8564D01*
X127004Y8579D01*
X126899Y8669D01*
X126854Y8684D01*
X126839Y8699D01*
X126734Y8789D01*
X126689Y8819D01*
X126674Y8834D01*
X126659Y8849D01*
X126644Y8864D01*
Y8879D01*
Y8894D01*
Y8909D01*
X126704Y8954D01*
X126734Y8969D01*
X126824Y8999D01*
X126839Y9014D01*
X126854D01*
X126914Y9059D01*
X126944Y9074D01*
X127034Y9104D01*
X127064Y9119D01*
X127079D01*
X127169Y9179D01*
X127184Y9194D01*
X127199D01*
X127304Y9254D01*
X127334Y9269D01*
X127349D01*
X128054Y9584D01*
X128219Y9494D01*
X128279Y9464D01*
X128339Y9434D01*
X128384Y9419D01*
X128399Y9404D01*
X128474Y9374D01*
X128549Y9359D01*
X128594Y9344D01*
X128609D01*
X128684Y9314D01*
X128759Y9284D01*
X128804Y9269D01*
X128819D01*
X128909Y9254D01*
X128984D01*
X129029Y9239D01*
X129044D01*
X129119Y9224D01*
X129194Y9209D01*
X129569D01*
X129644Y9224D01*
X129704D01*
X129779Y9239D01*
X129854Y9254D01*
X129899Y9269D01*
X129914D01*
X130049Y9299D01*
X130154Y9329D01*
X130214Y9344D01*
X130244Y9359D01*
X130364Y9404D01*
X130454Y9449D01*
X130514Y9479D01*
X130544Y9494D01*
X130664Y9569D01*
X130754Y9629D01*
X130814Y9674D01*
X130844Y9689D01*
X130949Y9764D01*
X131024Y9839D01*
X131084Y9899D01*
X131114Y9914D01*
X131204Y10004D01*
X131279Y10094D01*
X131324Y10154D01*
X131339Y10169D01*
X131414Y10274D01*
X131474Y10364D01*
X131519Y10439D01*
X131534Y10469D01*
X131594Y10574D01*
X131639Y10664D01*
X131669Y10739D01*
X131684Y10769D01*
X131729Y10889D01*
X131759Y10994D01*
X131774Y11069D01*
Y11099D01*
X131789Y11159D01*
Y11219D01*
X131804Y11264D01*
Y11279D01*
X131819Y11339D01*
X131834Y11399D01*
Y11444D01*
Y11459D01*
Y11549D01*
Y11624D01*
Y11684D01*
Y11699D01*
Y11789D01*
X131819Y11864D01*
X131804Y11924D01*
Y11939D01*
Y12014D01*
Y12089D01*
X131789Y12134D01*
Y12149D01*
X131774Y12239D01*
X131759Y12314D01*
X131744Y12359D01*
Y12374D01*
X131714Y12464D01*
X131699Y12494D01*
Y12509D01*
X131654Y12599D01*
X131639Y12614D01*
Y12629D01*
X131624Y12644D01*
X131609D01*
X131594Y12659D01*
X131534D01*
X131474Y12644D01*
X131459Y12629D01*
X131429D01*
X131414Y12614D01*
X131399D01*
X131309Y12569D01*
X131264Y12554D01*
X131249D01*
X131159Y12509D01*
X131129Y12494D01*
X131114Y12479D01*
X131039Y12449D01*
X131024Y12434D01*
X131009D01*
X130949Y12404D01*
X130934Y12389D01*
X130874Y12359D01*
X130844Y12344D01*
X130799Y12329D01*
X130784Y12314D01*
X130769D01*
X130724Y12284D01*
X130709Y12269D01*
X130694D01*
X130649Y12254D01*
X130634Y12239D01*
X130619D01*
Y12209D01*
Y12194D01*
X130634Y12179D01*
Y12164D01*
Y12149D01*
X130649Y12134D01*
Y12119D01*
Y12089D01*
Y12074D01*
X130664Y12059D01*
Y12044D01*
X130679Y11984D01*
Y11924D01*
X130694Y11879D01*
Y11864D01*
X130709Y11804D01*
X130724Y11744D01*
Y11714D01*
Y11699D01*
Y11639D01*
X130709Y11579D01*
X130694Y11534D01*
Y11519D01*
X130679Y11444D01*
Y11384D01*
X130664Y11339D01*
Y11324D01*
X130634Y11264D01*
X130619Y11204D01*
X130604Y11159D01*
X130589Y11144D01*
X130574Y11084D01*
X130544Y11039D01*
X130529Y11009D01*
Y10994D01*
X130484Y10934D01*
X130454Y10874D01*
X130424Y10844D01*
X130409Y10829D01*
X130334Y10739D01*
X130319Y10724D01*
X130304Y10709D01*
X130229Y10634D01*
X130199Y10619D01*
X130184Y10604D01*
X130124Y10559D01*
X130109Y10544D01*
X130094Y10529D01*
X130019Y10484D01*
X129989Y10469D01*
X129974D01*
X129899Y10439D01*
X129884Y10424D01*
X129869D01*
X129794Y10409D01*
X129779Y10394D01*
X129764D01*
X129689Y10379D01*
X129659Y10364D01*
X129554D01*
X129524Y10349D01*
X129509D01*
X129434Y10334D01*
X129194D01*
X129164Y10349D01*
X129134D01*
X129104Y10364D01*
X129014D01*
X128999Y10379D01*
X128984Y10394D01*
X128924Y10409D01*
X128909Y10424D01*
X128864Y10454D01*
X128849Y10469D01*
X128834D01*
X128594Y10574D01*
X126209Y9449D01*
X126119Y9524D01*
X126060Y9599D01*
X126045Y9629D01*
X126015Y9719D01*
X126000Y9734D01*
Y9749D01*
X125940Y9854D01*
X125925Y9884D01*
X125910Y9899D01*
X125895Y9959D01*
X125865Y10019D01*
X125850Y10064D01*
Y10079D01*
X125790Y10184D01*
X125775Y10214D01*
Y10229D01*
X125760Y10289D01*
X125730Y10349D01*
X125715Y10394D01*
Y10409D01*
X125670Y10514D01*
X125655Y10544D01*
Y10559D01*
X125625Y10664D01*
X125610Y10694D01*
Y10709D01*
X125595Y10784D01*
X125580Y10799D01*
Y10814D01*
X125565Y10904D01*
X125550Y10919D01*
Y10934D01*
Y10994D01*
X125535Y11009D01*
Y11084D01*
Y11099D01*
Y11114D01*
X125520Y11174D01*
Y11204D01*
Y11294D01*
Y11309D01*
Y11324D01*
Y11384D01*
Y11444D01*
Y11489D01*
Y11504D01*
Y11564D01*
Y11624D01*
Y11654D01*
Y11669D01*
Y11729D01*
Y11789D01*
Y11819D01*
Y11834D01*
Y11894D01*
Y11954D01*
Y11999D01*
Y12014D01*
Y12074D01*
Y12104D01*
X125535Y12194D01*
Y12209D01*
Y12224D01*
Y12284D01*
Y12314D01*
X125550Y12374D01*
Y12389D01*
X125565Y12479D01*
X125580Y12494D01*
Y12509D01*
X125595Y12599D01*
X125610Y12614D01*
Y12629D01*
X125640Y12719D01*
X125655Y12794D01*
X125685Y12854D01*
Y12869D01*
X125715Y12974D01*
X125745Y13064D01*
X125775Y13124D01*
Y13154D01*
X125820Y13244D01*
X125865Y13319D01*
X125880Y13379D01*
X125895Y13394D01*
X125940Y13484D01*
X125985Y13559D01*
X126015Y13604D01*
X126030Y13619D01*
X126090Y13709D01*
X126134Y13784D01*
X126164Y13844D01*
X126179Y13859D01*
X126239Y13949D01*
X126284Y14024D01*
X126329Y14069D01*
X126344Y14084D01*
X126404Y14159D01*
X126464Y14234D01*
X126509Y14279D01*
X126524Y14294D01*
X126599Y14369D01*
X126674Y14444D01*
X126719Y14489D01*
X126734Y14504D01*
X126809Y14564D01*
X126869Y14624D01*
X126914Y14654D01*
X126929Y14669D01*
X127004Y14729D01*
X127079Y14774D01*
X127124Y14819D01*
X127139Y14834D01*
X127229Y14894D01*
X127304Y14924D01*
X127349Y14954D01*
X127364Y14969D01*
X127439Y15029D01*
X127514Y15074D01*
X127574Y15104D01*
X127589Y15119D01*
X127664Y15164D01*
X127739Y15194D01*
X127799Y15224D01*
X127814D01*
X127904Y15269D01*
X127994Y15299D01*
X128054Y15329D01*
X128069D01*
X128159Y15359D01*
X128234Y15389D01*
X128294Y15404D01*
X128309D01*
X128399Y15434D01*
X128489Y15464D01*
X128549Y15479D01*
X128579D01*
X128669Y15494D01*
X128744Y15509D01*
X128789Y15524D01*
X128804D01*
X128894Y15539D01*
X129779D01*
X129839Y15524D01*
D02*
G37*
G36*
X135689Y5820D02*
X135749D01*
X135779Y5805D01*
X135839D01*
X135854Y5790D01*
X135914Y5775D01*
X135944Y5760D01*
X136004Y5745D01*
X136034Y5730D01*
X136199Y5640D01*
X136124Y5520D01*
X136094Y5505D01*
X136079Y5490D01*
X136064Y5475D01*
Y5460D01*
X136049Y5445D01*
Y5430D01*
X136034Y5415D01*
Y5400D01*
X136019Y5385D01*
X136004D01*
X135989Y5370D01*
Y5355D01*
X135974D01*
Y5325D01*
X135959D01*
Y5310D01*
X135884D01*
Y5325D01*
X135869D01*
X135839Y5340D01*
X135824D01*
X135794Y5355D01*
X135779Y5370D01*
X135734D01*
X135704Y5385D01*
X135689Y5400D01*
X135509D01*
X135494Y5385D01*
X135464D01*
X135374Y5355D01*
X135344Y5340D01*
X135329Y5325D01*
X135254Y5250D01*
X135239Y5235D01*
X135224Y5220D01*
X135164Y5145D01*
X135149Y5115D01*
Y5100D01*
X135119Y5010D01*
X135104Y4980D01*
Y4965D01*
Y4860D01*
Y4830D01*
Y4815D01*
X135119Y4725D01*
X135134Y4695D01*
Y4680D01*
X135179Y4590D01*
X135209Y4560D01*
Y4545D01*
X135284Y4485D01*
X135299Y4470D01*
X135314Y4455D01*
X135329Y4440D01*
X135344Y4425D01*
X135374Y4410D01*
X135389D01*
X135419Y4395D01*
X135434D01*
X135449Y4380D01*
X135704D01*
X135764Y4395D01*
X135779D01*
X135809Y4410D01*
X135824Y4425D01*
X135869Y4440D01*
X135884Y4455D01*
X135899Y4470D01*
X135914Y4485D01*
X135944Y4500D01*
X135959Y4515D01*
X135989Y4560D01*
X136004Y4575D01*
X136034Y4620D01*
X136049Y4650D01*
X136094Y4755D01*
X135539D01*
Y5190D01*
X136454D01*
X136469Y5175D01*
X136499D01*
X136514Y5160D01*
X136544Y5145D01*
Y5130D01*
X136559Y5115D01*
Y5100D01*
X136574Y4995D01*
Y4950D01*
Y4935D01*
Y4830D01*
Y4800D01*
Y4785D01*
X136559Y4725D01*
X136544Y4665D01*
X136529Y4620D01*
Y4605D01*
X136514Y4545D01*
X136484Y4485D01*
X136469Y4455D01*
Y4440D01*
X136394Y4335D01*
X136364Y4305D01*
X136349Y4290D01*
X136274Y4215D01*
X136259Y4185D01*
X136244Y4170D01*
X136199Y4125D01*
X136154Y4095D01*
X136124Y4065D01*
X136109D01*
X136019Y4020D01*
X135974Y4005D01*
X135959Y3990D01*
X135869Y3975D01*
X135794Y3960D01*
X135734Y3945D01*
X135449D01*
X135359Y3960D01*
X135284Y3975D01*
X135224Y4005D01*
X135209D01*
X135134Y4050D01*
X135059Y4080D01*
X135014Y4110D01*
X134999Y4125D01*
X134939Y4170D01*
X134879Y4230D01*
X134834Y4260D01*
X134819Y4275D01*
X134774Y4350D01*
X134729Y4425D01*
X134714Y4470D01*
X134699Y4485D01*
X134669Y4575D01*
X134639Y4650D01*
X134624Y4710D01*
Y4725D01*
Y4815D01*
Y4905D01*
Y4965D01*
Y4980D01*
X134639Y5085D01*
Y5115D01*
Y5130D01*
X134669Y5235D01*
X134699Y5265D01*
Y5280D01*
X134744Y5370D01*
X134759Y5400D01*
Y5415D01*
X134819Y5490D01*
X134849Y5520D01*
X134924Y5595D01*
X134954Y5625D01*
X135044Y5685D01*
X135059Y5700D01*
X135074D01*
X135164Y5760D01*
X135194Y5775D01*
X135209D01*
X135314Y5805D01*
X135359Y5820D01*
X135449D01*
X135494Y5835D01*
X135659D01*
X135689Y5820D01*
D02*
G37*
G36*
X138328Y5850D02*
X138343Y5835D01*
X138373D01*
Y5820D01*
Y5805D01*
Y5790D01*
X138328Y5730D01*
X138313Y5715D01*
Y5700D01*
X138283Y5655D01*
X138268Y5640D01*
X138253Y5625D01*
X138223Y5565D01*
X138208Y5550D01*
Y5535D01*
X138178Y5460D01*
X138163Y5445D01*
X138148Y5430D01*
X138103Y5355D01*
X138088Y5340D01*
Y5325D01*
X138058Y5250D01*
X138043Y5220D01*
X138028Y5205D01*
X137699Y4620D01*
Y3945D01*
X137204D01*
Y4650D01*
X136874Y5220D01*
X136829Y5310D01*
X136814Y5325D01*
Y5340D01*
X136769Y5430D01*
X136754Y5445D01*
Y5460D01*
X136694Y5520D01*
X136679Y5550D01*
X136664Y5610D01*
X136649Y5640D01*
X136604Y5700D01*
X136589Y5730D01*
X136559Y5790D01*
X136544Y5820D01*
Y5835D01*
X136559D01*
X136574Y5865D01*
X136814D01*
X137084Y5835D01*
X137264Y5490D01*
X137309Y5400D01*
X137339Y5370D01*
Y5355D01*
X137399Y5265D01*
X137414Y5235D01*
Y5220D01*
X137429Y5205D01*
X137504D01*
X137519Y5235D01*
Y5250D01*
X137594Y5355D01*
X137624Y5385D01*
Y5400D01*
X137654Y5460D01*
X137684Y5520D01*
X137699Y5565D01*
Y5580D01*
X137863Y5865D01*
X138313D01*
X138328Y5850D01*
D02*
G37*
G36*
X121395Y5835D02*
X121515D01*
X121545Y5820D01*
X121560D01*
X121665Y5790D01*
X121695Y5775D01*
X121710D01*
X121800Y5730D01*
X121815Y5715D01*
X121830D01*
X121920Y5670D01*
X121935Y5655D01*
X121950Y5640D01*
X122025Y5580D01*
X122040Y5565D01*
X122055Y5550D01*
X122130Y5490D01*
X122145Y5475D01*
Y5460D01*
X122160Y5415D01*
Y5400D01*
X122175Y5385D01*
Y5370D01*
X122190Y5355D01*
X122205Y5340D01*
X122220Y5325D01*
X122235Y5310D01*
Y5295D01*
Y5280D01*
X122250Y5265D01*
Y5250D01*
Y5235D01*
X122265Y5220D01*
Y5205D01*
X122250Y5190D01*
X122235D01*
X122220Y5175D01*
X122205D01*
X122190Y5160D01*
X122175D01*
X122160Y5145D01*
X122145Y5130D01*
X122130Y5115D01*
X122100D01*
X122085Y5100D01*
X122055D01*
X122040Y5085D01*
X121830Y5010D01*
X121770Y5130D01*
X121755Y5175D01*
X121740Y5190D01*
X121710Y5235D01*
X121695Y5265D01*
X121680D01*
X121650Y5280D01*
X121635Y5295D01*
X121620Y5310D01*
X121605Y5325D01*
X121545Y5355D01*
X121530D01*
X121500Y5370D01*
X121485Y5385D01*
X121395D01*
X121350Y5400D01*
X121290D01*
X121275Y5385D01*
X121200D01*
X121140Y5370D01*
X121125Y5355D01*
X121095Y5340D01*
X121080Y5325D01*
X121065D01*
X121035Y5310D01*
X121020Y5295D01*
X121005Y5280D01*
X120990Y5265D01*
X120960Y5205D01*
X120945Y5190D01*
X120930Y5160D01*
X120915Y5145D01*
Y5130D01*
X120870Y5055D01*
X120855Y5025D01*
Y5010D01*
X120840Y4920D01*
Y4890D01*
Y4875D01*
X120855Y4785D01*
Y4755D01*
Y4740D01*
X120885Y4665D01*
X120915Y4635D01*
Y4620D01*
X120960Y4545D01*
X120990Y4530D01*
Y4515D01*
X121065Y4470D01*
X121080Y4455D01*
X121095D01*
X121170Y4410D01*
X121185Y4395D01*
X121200D01*
X121290Y4380D01*
X121485D01*
X121515Y4395D01*
X121530D01*
X121545Y4410D01*
Y4425D01*
X121560Y4440D01*
X121575D01*
X121605Y4455D01*
X121620Y4470D01*
X121650Y4500D01*
X121665Y4515D01*
X121680Y4545D01*
X121695D01*
X121710Y4560D01*
X121725Y4575D01*
X121740Y4590D01*
X121755Y4605D01*
X121770Y4620D01*
Y4650D01*
X121800Y4665D01*
X121815Y4680D01*
X121830Y4695D01*
Y4710D01*
X121845Y4740D01*
X121935D01*
X121950Y4725D01*
X122025Y4710D01*
X122040Y4695D01*
X122055D01*
X122100Y4680D01*
X122130Y4665D01*
X122190Y4635D01*
X122220Y4620D01*
X122235D01*
X122250Y4605D01*
X122265Y4590D01*
Y4575D01*
Y4530D01*
X122250Y4515D01*
Y4500D01*
X122235Y4455D01*
X122220Y4440D01*
X122175Y4380D01*
X122160Y4365D01*
X122115Y4305D01*
X122100Y4290D01*
X122085Y4275D01*
X122040Y4230D01*
X122025Y4215D01*
X122010Y4200D01*
X121965Y4155D01*
X121950Y4140D01*
X121935D01*
X121875Y4080D01*
X121860Y4065D01*
X121845D01*
X121785Y4050D01*
X121770Y4035D01*
X121755D01*
X121680Y3990D01*
X121650Y3975D01*
X121635D01*
X121560Y3960D01*
X121530Y3945D01*
X121410D01*
X121380Y3930D01*
X121365D01*
X121275Y3945D01*
X121230D01*
X121140Y3960D01*
X121095D01*
X121005Y3990D01*
X120975Y4005D01*
X120960D01*
X120885Y4050D01*
X120855Y4065D01*
X120840D01*
X120765Y4110D01*
X120750Y4140D01*
X120735D01*
X120675Y4185D01*
X120630Y4215D01*
X120600Y4245D01*
X120585Y4260D01*
X120540Y4320D01*
X120525Y4365D01*
X120495Y4395D01*
Y4410D01*
X120450Y4470D01*
X120435Y4530D01*
X120405Y4575D01*
Y4590D01*
X120390Y4665D01*
Y4725D01*
X120375Y4770D01*
Y4785D01*
Y4860D01*
Y4920D01*
Y4965D01*
Y4980D01*
X120390Y5055D01*
X120405Y5115D01*
X120420Y5160D01*
Y5175D01*
X120435Y5250D01*
X120450Y5310D01*
X120480Y5340D01*
Y5355D01*
X120570Y5460D01*
X120585Y5505D01*
X120600Y5520D01*
X120645Y5550D01*
X120660Y5565D01*
X120705Y5625D01*
X120720Y5640D01*
X120765Y5670D01*
X120780Y5685D01*
X120825Y5700D01*
X120840Y5715D01*
X120870Y5730D01*
X120885Y5745D01*
X120945Y5775D01*
X120960Y5790D01*
X121020Y5805D01*
X121050D01*
X121110Y5820D01*
X121125D01*
X121215Y5835D01*
X121245Y5850D01*
X121365D01*
X121395Y5835D01*
D02*
G37*
G36*
X130739Y5835D02*
X130754Y3945D01*
X130544D01*
X130514Y3960D01*
X130499D01*
X130454Y3975D01*
X130439D01*
X130424Y3990D01*
X130409Y4005D01*
X130349Y4050D01*
X130334Y4065D01*
X130289Y4110D01*
X130274Y4140D01*
X130169Y4245D01*
X130124Y4275D01*
X130109Y4290D01*
X130049Y4350D01*
X130004Y4410D01*
X129974Y4455D01*
X129959Y4470D01*
X129479Y4980D01*
X129449Y3945D01*
X128984D01*
Y4905D01*
Y5865D01*
X129149D01*
X129179Y5850D01*
X129194Y5835D01*
X129209Y5820D01*
X129224Y5805D01*
X129269Y5790D01*
X129299Y5775D01*
X129344Y5715D01*
X129359Y5700D01*
X129419Y5655D01*
X129434Y5640D01*
Y5625D01*
X129494Y5580D01*
X129539Y5535D01*
X129569Y5490D01*
X129584Y5475D01*
X129689Y5370D01*
X129734Y5325D01*
X129749Y5310D01*
X130274Y4770D01*
Y5880D01*
X130739Y5835D01*
D02*
G37*
G36*
X133379Y5865D02*
X133664D01*
X133739Y5850D01*
X133784Y5835D01*
X133889D01*
X133904Y5820D01*
X133994D01*
X134024Y5805D01*
X134099Y5775D01*
X134114Y5760D01*
X134159Y5730D01*
X134189Y5715D01*
X134219Y5670D01*
X134234Y5655D01*
Y5640D01*
X134279Y5595D01*
X134309Y5580D01*
X134339Y5505D01*
X134354Y5490D01*
Y5475D01*
X134369Y5415D01*
Y5400D01*
Y5385D01*
X134399Y5295D01*
Y5265D01*
Y5250D01*
X134384Y5175D01*
X134369Y5145D01*
Y5130D01*
X134354Y5055D01*
X134339Y5040D01*
Y5025D01*
X134324Y4950D01*
X134309Y4935D01*
Y4920D01*
X134249Y4860D01*
X134234Y4845D01*
Y4830D01*
X134189Y4800D01*
X134174Y4785D01*
X134159D01*
X134144Y4770D01*
X134129D01*
X134114Y4755D01*
X134084D01*
Y4740D01*
X134054D01*
X134084Y4680D01*
X134099Y4665D01*
X134114Y4635D01*
X134129Y4620D01*
X134144Y4575D01*
X134159Y4560D01*
Y4545D01*
X134189Y4515D01*
X134204Y4500D01*
X134219Y4455D01*
X134234Y4440D01*
Y4425D01*
X134249Y4365D01*
X134264Y4350D01*
X134309Y4290D01*
X134324Y4275D01*
X134339Y4230D01*
X134354Y4215D01*
Y4200D01*
X134369Y4170D01*
X134384Y4155D01*
X134414Y4110D01*
X134429Y4095D01*
Y4080D01*
X134444Y4050D01*
X134459Y4035D01*
X134489Y3990D01*
X134504Y3975D01*
Y3960D01*
X134474Y3945D01*
X133979D01*
X133754Y4290D01*
X133709Y4380D01*
X133694Y4395D01*
X133679Y4410D01*
X133634Y4485D01*
X133619Y4515D01*
Y4545D01*
X133604Y4560D01*
X133589Y4590D01*
X133574Y4605D01*
X133544Y4620D01*
X133529Y4635D01*
X133514Y4650D01*
X133499D01*
X133469Y4665D01*
X133454D01*
X133424Y4680D01*
X133274D01*
Y3945D01*
X132794D01*
Y4905D01*
Y5880D01*
X133379Y5865D01*
D02*
G37*
G36*
X132479D02*
X132494Y5415D01*
X131564D01*
Y5205D01*
X132254Y5190D01*
Y4785D01*
X131564Y4755D01*
Y4380D01*
X132479Y4365D01*
X132494Y3945D01*
X131084D01*
Y4905D01*
Y5880D01*
X132479Y5865D01*
D02*
G37*
G36*
X128639D02*
X128684Y5430D01*
X127754D01*
Y5205D01*
X128459D01*
Y4770D01*
X127754D01*
Y4380D01*
X128669Y4365D01*
X128684Y3945D01*
X127274Y3945D01*
Y4905D01*
X127259D01*
Y5880D01*
X128639Y5865D01*
D02*
G37*
G36*
X125310Y5850D02*
X125385Y5835D01*
X125670D01*
X125760Y5820D01*
X125775Y5805D01*
X125880D01*
X125895Y5790D01*
X125910D01*
X125955Y5775D01*
X125970Y5760D01*
X126030Y5730D01*
X126045Y5715D01*
X126090Y5670D01*
X126104Y5655D01*
X126149Y5610D01*
X126164Y5595D01*
X126209Y5520D01*
X126224Y5490D01*
Y5475D01*
X126239Y5400D01*
X126254Y5385D01*
Y5370D01*
Y5280D01*
Y5250D01*
Y5235D01*
Y5160D01*
Y5130D01*
Y5115D01*
X126224Y5040D01*
X126209Y5025D01*
Y5010D01*
X126164Y4935D01*
X126149Y4920D01*
Y4905D01*
X126104Y4845D01*
X126090Y4830D01*
X126075Y4815D01*
X126030Y4770D01*
X126015Y4755D01*
X125970D01*
X125955Y4740D01*
Y4725D01*
Y4710D01*
Y4695D01*
Y4680D01*
X125970D01*
Y4665D01*
X125985Y4635D01*
Y4620D01*
X126015Y4575D01*
Y4560D01*
X126060Y4485D01*
X126075Y4455D01*
Y4440D01*
X126119Y4380D01*
X126134Y4365D01*
Y4350D01*
X126164Y4290D01*
X126179Y4275D01*
X126209Y4230D01*
X126224Y4215D01*
Y4200D01*
X126239Y4170D01*
X126254Y4155D01*
X126269Y4110D01*
X126284Y4095D01*
Y4080D01*
X126314Y4050D01*
X126329Y4035D01*
X126344Y3990D01*
X126359Y3975D01*
Y3960D01*
X126344D01*
X126329Y3945D01*
X125835D01*
X125625Y4305D01*
X125580Y4395D01*
X125565Y4410D01*
X125550Y4425D01*
X125505Y4515D01*
X125490Y4545D01*
Y4560D01*
X125460Y4575D01*
X125445Y4590D01*
X125430Y4605D01*
X125415Y4620D01*
X125400Y4650D01*
X125385D01*
X125370Y4665D01*
X125310D01*
X125280Y4680D01*
X125265D01*
X125130Y4665D01*
X125115Y3945D01*
X124635D01*
Y4890D01*
Y5865D01*
X125235D01*
X125310Y5850D01*
D02*
G37*
G36*
X123495Y5835D02*
X123525Y5820D01*
X123645D01*
X123675Y5805D01*
X123690D01*
X123780Y5775D01*
X123810Y5760D01*
X123825D01*
X123900Y5715D01*
X123930Y5700D01*
X124005Y5640D01*
X124035Y5625D01*
Y5610D01*
X124110Y5550D01*
X124140Y5535D01*
Y5520D01*
X124185Y5445D01*
X124230Y5385D01*
X124245Y5325D01*
X124260Y5310D01*
X124305Y5235D01*
X124335Y5160D01*
X124365Y5115D01*
Y5100D01*
Y5010D01*
Y4935D01*
Y4875D01*
Y4860D01*
Y4770D01*
X124350Y4695D01*
X124335Y4635D01*
X124320Y4620D01*
X124290Y4530D01*
X124260Y4470D01*
X124245Y4410D01*
X124230Y4395D01*
X124185Y4320D01*
X124140Y4260D01*
X124110Y4215D01*
X124095Y4200D01*
X124020Y4155D01*
X123960Y4110D01*
X123915Y4080D01*
X123900Y4065D01*
X123825Y4020D01*
X123765Y4005D01*
X123705Y3975D01*
X123690D01*
X123645Y3960D01*
X123630Y3945D01*
X123420D01*
X123345Y3960D01*
X123210D01*
X123135Y3975D01*
X123105D01*
X123060Y3990D01*
X123030D01*
X122970Y4020D01*
X122955Y4035D01*
X122865Y4080D01*
X122835Y4110D01*
X122820D01*
X122745Y4185D01*
X122715Y4215D01*
X122700Y4230D01*
X122625Y4305D01*
X122610Y4320D01*
X122595Y4335D01*
X122535Y4440D01*
X122520Y4470D01*
X122505Y4485D01*
X122475Y4590D01*
X122460Y4620D01*
Y4635D01*
X122445Y4740D01*
X122430Y4785D01*
Y4800D01*
Y4905D01*
Y4950D01*
Y4965D01*
Y5025D01*
X122445Y5070D01*
Y5100D01*
Y5115D01*
X122460Y5205D01*
X122475Y5235D01*
Y5250D01*
X122520Y5340D01*
X122535Y5355D01*
Y5370D01*
X122580Y5430D01*
X122610Y5460D01*
X122670Y5535D01*
X122685Y5565D01*
X122760Y5625D01*
X122790Y5640D01*
X122865Y5700D01*
X122895Y5715D01*
X122985Y5760D01*
X123000Y5775D01*
X123015D01*
X123105Y5805D01*
X123135Y5820D01*
X123150D01*
X123240Y5835D01*
X123270Y5850D01*
X123285D01*
X123375Y5865D01*
X123405D01*
X123495Y5835D01*
D02*
G37*
%LPC*%
G36*
X133724Y5415D02*
X133289D01*
Y5085D01*
X133589D01*
X133664Y5100D01*
X133754D01*
X133799Y5115D01*
X133814D01*
X133829Y5130D01*
X133844Y5145D01*
X133874Y5160D01*
X133889Y5175D01*
X133904Y5190D01*
Y5205D01*
Y5235D01*
Y5250D01*
Y5265D01*
Y5280D01*
Y5295D01*
X133889D01*
Y5310D01*
Y5325D01*
Y5340D01*
X133874D01*
Y5355D01*
Y5370D01*
X133844D01*
Y5385D01*
X133814D01*
X133799Y5400D01*
X133754D01*
X133724Y5415D01*
D02*
G37*
G36*
X125610Y5415D02*
X125115D01*
X125130Y5100D01*
X125355D01*
X125400Y5085D01*
X125520D01*
X125550Y5100D01*
X125610D01*
X125625Y5115D01*
X125655D01*
X125685Y5130D01*
X125700D01*
X125715Y5160D01*
X125730D01*
X125745Y5175D01*
X125760Y5190D01*
Y5205D01*
Y5220D01*
X125775Y5250D01*
Y5265D01*
Y5280D01*
Y5295D01*
Y5310D01*
X125760Y5325D01*
X125745Y5355D01*
X125730D01*
Y5370D01*
X125715Y5385D01*
X125685D01*
X125670Y5400D01*
X125625D01*
X125610Y5415D01*
D02*
G37*
G36*
X123525Y5400D02*
X123315D01*
X123255Y5385D01*
X123240Y5370D01*
X123225D01*
X123150Y5340D01*
X123135Y5325D01*
X123120D01*
X123075Y5280D01*
X123060Y5265D01*
X123045D01*
X123030Y5250D01*
X123000Y5220D01*
X122985Y5205D01*
Y5190D01*
X122970Y5160D01*
X122955Y5145D01*
Y5100D01*
X122940Y5085D01*
Y5040D01*
X122925Y5025D01*
Y5010D01*
X122910Y4950D01*
Y4935D01*
Y4920D01*
X122925Y4860D01*
Y4845D01*
Y4830D01*
X122940Y4785D01*
Y4770D01*
Y4755D01*
X122955Y4695D01*
Y4680D01*
X122970Y4635D01*
X122985Y4620D01*
Y4605D01*
X123015Y4560D01*
X123030Y4545D01*
Y4530D01*
X123090Y4485D01*
X123105Y4470D01*
X123165Y4440D01*
X123195Y4425D01*
X123270Y4395D01*
X123300D01*
X123375Y4380D01*
X123510D01*
X123585Y4395D01*
X123615Y4410D01*
X123675Y4455D01*
X123690Y4470D01*
X123765Y4515D01*
X123780Y4545D01*
X123810Y4620D01*
X123825Y4650D01*
Y4665D01*
X123855Y4695D01*
X123870Y4740D01*
Y4755D01*
Y4770D01*
X123885Y4860D01*
Y4890D01*
Y4905D01*
Y4995D01*
X123870Y5025D01*
Y5040D01*
Y5085D01*
X123855Y5130D01*
X123840Y5145D01*
X123825Y5160D01*
X123795Y5220D01*
X123780Y5250D01*
X123720Y5310D01*
X123705Y5325D01*
X123690D01*
X123645Y5355D01*
X123630Y5370D01*
X123615D01*
X123540Y5385D01*
X123525Y5400D01*
D02*
G37*
%LPD*%
D93*
X169462Y29450D02*
G03*
X169462Y29450I-125J0D01*
G01*
X209475Y13350D02*
G03*
X209475Y13350I-125J0D01*
G01*
X71100Y26650D02*
G03*
X71100Y26650I-125J0D01*
G01*
X209400Y76000D02*
G03*
X209400Y76000I-125J0D01*
G01*
X72599Y7400D02*
G03*
X72599Y7400I-125J0D01*
G01*
X181125Y76000D02*
G03*
X181125Y76000I-125J0D01*
G01*
X168625Y51925D02*
G03*
X168625Y51925I-125J0D01*
G01*
X195575Y50050D02*
G03*
X195575Y50050I-125J0D01*
G01*
X76600Y29025D02*
G03*
X76600Y29025I-125J0D01*
G01*
X40675Y22915D02*
G03*
X40675Y22915I-125J0D01*
G01*
X135275Y73705D02*
G03*
X135275Y73705I-125J0D01*
G01*
X180125Y3885D02*
G03*
X180125Y3885I-125J0D01*
G01*
D94*
X15325Y19525D02*
Y42225D01*
X8025D02*
X15325D01*
X8025Y19525D02*
X15325D01*
X8025D02*
Y42225D01*
X167062Y28800D02*
X167312D01*
X167062Y30150D02*
X167312D01*
X207075Y14050D02*
X207325D01*
X207075Y12700D02*
X207325D01*
X41375Y16550D02*
X70375D01*
X41375D02*
Y29250D01*
X70375D01*
Y16550D02*
Y29250D01*
X1325Y55174D02*
X12600D01*
Y49724D02*
Y55174D01*
X1325Y49724D02*
X12600D01*
X1325D02*
Y55174D01*
X1347Y49525D02*
X12622D01*
Y44075D02*
Y49525D01*
X1347Y44075D02*
X12622D01*
X1347D02*
Y49525D01*
X11550Y60800D02*
Y76825D01*
Y60800D02*
X17425D01*
X11550Y76825D02*
X17425D01*
Y60800D02*
Y76825D01*
X100350Y16325D02*
X105350D01*
X102850Y6625D02*
Y8875D01*
Y18375D02*
Y20625D01*
X100200Y18375D02*
X105500D01*
X100200Y8875D02*
Y18375D01*
Y8875D02*
X105500D01*
Y18375D01*
X106050Y16350D02*
X111050D01*
X108550Y6650D02*
Y8900D01*
Y18400D02*
Y20650D01*
X105900Y18400D02*
X111200D01*
X105900Y8900D02*
Y18400D01*
Y8900D02*
X111200D01*
Y18400D01*
X89036Y10900D02*
X94036D01*
X91536Y18350D02*
Y20600D01*
Y6600D02*
Y8850D01*
X88886D02*
X94186D01*
Y18350D01*
X88886D02*
X94186D01*
X88886Y8850D02*
Y18350D01*
X94686Y10900D02*
X99686D01*
X97186Y18350D02*
Y20600D01*
Y6600D02*
Y8850D01*
X94536D02*
X99836D01*
Y18350D01*
X94536D02*
X99836D01*
X94536Y8850D02*
Y18350D01*
X41850Y2500D02*
Y9850D01*
Y10550D02*
Y11500D01*
X31850D02*
X41850D01*
X31850Y2500D02*
X41850D01*
X31850D02*
Y4650D01*
Y5350D02*
Y11500D01*
X31250Y4400D02*
Y5600D01*
Y4400D02*
X31850Y4650D01*
X31250Y5600D02*
X31850Y5350D01*
X41850Y10550D02*
X42450Y10800D01*
Y9600D02*
Y10800D01*
X41850Y9850D02*
X42450Y9600D01*
X94000Y53750D02*
Y65025D01*
X99450D01*
Y53750D02*
Y65025D01*
X94000Y53750D02*
X99450D01*
X205000Y47450D02*
X212350D01*
X203350D02*
X204300D01*
X203350Y37450D02*
Y47450D01*
X212350Y37450D02*
Y47450D01*
X210200Y37450D02*
X212350D01*
X203350D02*
X209500D01*
X209250Y36850D02*
X210450D01*
X210200Y37450D02*
X210450Y36850D01*
X209250D02*
X209500Y37450D01*
X204050Y48050D02*
X204300Y47450D01*
X204050Y48050D02*
X205250D01*
X205000Y47450D02*
X205250Y48050D01*
X77875Y27125D02*
X80725D01*
X72225D02*
X75075D01*
X80725Y19625D02*
Y27125D01*
X79725Y18625D02*
X80725Y19625D01*
X77875Y18625D02*
X79725D01*
X73225D02*
X75075D01*
X72225Y19625D02*
X73225Y18625D01*
X72225Y19625D02*
Y27125D01*
X31800Y9850D02*
X32400Y9600D01*
Y10800D01*
X31800Y10550D02*
X32400Y10800D01*
X21200Y5600D02*
X21800Y5350D01*
X21200Y4400D02*
X21800Y4650D01*
X21200Y4400D02*
Y5600D01*
X21800Y5350D02*
Y11500D01*
Y2500D02*
Y4650D01*
Y2500D02*
X31800D01*
X21800Y11500D02*
X31800D01*
Y10550D02*
Y11500D01*
Y2500D02*
Y9850D01*
X14066Y93950D02*
Y103675D01*
X59391D01*
Y95225D02*
Y103675D01*
X58116Y93950D02*
X59391Y95225D01*
X14066Y93950D02*
X58116D01*
X92307Y34209D02*
Y50234D01*
Y34209D02*
X98182D01*
X92307Y50234D02*
X98182D01*
Y34209D02*
Y50234D01*
X9175Y62100D02*
X9425Y62700D01*
X9175Y62100D02*
X10375D01*
X10125Y62700D02*
X10375Y62100D01*
X4925Y72700D02*
X5175Y73300D01*
X3975D02*
X4225Y72700D01*
X3975Y73300D02*
X5175D01*
X4925Y72700D02*
X11075D01*
X2075D02*
X4225D01*
X2075Y62700D02*
Y72700D01*
X11075Y62700D02*
Y72700D01*
X10125Y62700D02*
X11075D01*
X2075D02*
X9425D01*
X34325Y79925D02*
X50350D01*
Y85800D01*
X34325Y79925D02*
Y85800D01*
X50350D01*
X135000Y24100D02*
Y29550D01*
X123725D02*
X135000D01*
X123725Y24100D02*
Y29550D01*
Y24100D02*
X135000D01*
X40125Y16395D02*
Y24355D01*
X34175D02*
X40125D01*
X34175Y16395D02*
Y24355D01*
Y16395D02*
X40125D01*
X42191Y86400D02*
Y90075D01*
X27841Y86400D02*
X42191D01*
X27841Y90075D02*
X42191D01*
X27841Y86400D02*
Y90075D01*
X34691Y88250D02*
X35398Y88957D01*
X34691Y88250D02*
X35398Y87543D01*
Y88957D01*
X34691Y88250D02*
Y88950D01*
Y88250D02*
X35991D01*
X34691Y87550D02*
Y88250D01*
X34091D02*
X34691D01*
X50141D02*
X50741D01*
X50141D02*
Y88950D01*
X48841Y88250D02*
X50141D01*
Y87550D02*
Y88250D01*
X49434Y87543D02*
Y88957D01*
X50141Y88250D01*
X49434Y87543D02*
X50141Y88250D01*
X56991Y86425D02*
Y90100D01*
X42641Y86425D02*
X56991D01*
X42641Y90100D02*
X56991D01*
X42641Y86425D02*
Y90100D01*
X132900Y72435D02*
Y72480D01*
Y77470D02*
Y77515D01*
X125900D02*
X132900D01*
X125900Y72435D02*
Y72480D01*
Y77470D02*
Y77515D01*
Y72435D02*
X132900D01*
X180425Y2445D02*
Y10405D01*
Y2445D02*
X186375D01*
Y10405D01*
X180425D02*
X186375D01*
X205000Y27500D02*
X205250Y28100D01*
X204050D02*
X205250D01*
X204050D02*
X204300Y27500D01*
X209250Y16900D02*
X209500Y17500D01*
X210200D02*
X210450Y16900D01*
X209250D02*
X210450D01*
X203350Y17500D02*
X209500D01*
X210200D02*
X212350D01*
Y27500D01*
X203350Y17500D02*
Y27500D01*
X204300D01*
X205000D02*
X212350D01*
X205000Y37475D02*
X205250Y38075D01*
X204050D02*
X205250D01*
X204050D02*
X204300Y37475D01*
X209250Y26875D02*
X209500Y27475D01*
X210200D02*
X210450Y26875D01*
X209250D02*
X210450D01*
X203350Y27475D02*
X209500D01*
X210200D02*
X212350D01*
Y37475D01*
X203350Y27475D02*
Y37475D01*
X204300D01*
X205000D02*
X212350D01*
X191992Y2310D02*
X196952D01*
X191992D02*
Y12090D01*
X196952D01*
Y2310D02*
Y12090D01*
X197007Y2310D02*
X201967D01*
X197007D02*
Y12090D01*
X201967D01*
Y2310D02*
Y12090D01*
X182795Y16900D02*
X184355D01*
X183575Y13400D02*
Y13975D01*
Y17875D02*
Y18450D01*
X182725Y17875D02*
X184425D01*
X182725Y13975D02*
Y17875D01*
Y13975D02*
X184425D01*
Y17875D01*
X186952Y2310D02*
X191912D01*
X186952D02*
Y12090D01*
X191912D01*
Y2310D02*
Y12090D01*
X135850Y77248D02*
Y77782D01*
X135717Y77915D01*
X135450D01*
X135317Y77782D01*
Y77248D01*
X135450Y77115D01*
X135717D01*
X135583Y77382D02*
X135850Y77115D01*
X135717D02*
X135850Y77248D01*
X136117Y77115D02*
X136383D01*
X136250D01*
Y77915D01*
X136117Y77782D01*
D95*
X163047Y102421D02*
X172953D01*
X163047Y97468D02*
X172953D01*
X163047D02*
Y102421D01*
X172953Y97468D02*
Y102421D01*
X166730Y97468D02*
Y102421D01*
X169270Y97595D02*
Y102421D01*
X141047D02*
X150953D01*
X141047Y97468D02*
X150953D01*
X141047D02*
Y102421D01*
X150953Y97468D02*
Y102421D01*
X144730Y97468D02*
Y102421D01*
X147270Y97595D02*
Y102421D01*
X97047D02*
X106953D01*
X97047Y97468D02*
X106953D01*
X97047D02*
Y102421D01*
X106953Y97468D02*
Y102421D01*
X100730Y97468D02*
Y102421D01*
X103270Y97595D02*
Y102421D01*
X75047D02*
X84953D01*
X75047Y97468D02*
X84953D01*
X75047D02*
Y102421D01*
X84953Y97468D02*
Y102421D01*
X78730Y97468D02*
Y102421D01*
X81270Y97595D02*
Y102421D01*
X205000Y79500D02*
Y110500D01*
X65000D02*
X205000D01*
X65000Y79500D02*
Y110500D01*
Y79500D02*
X205000D01*
X44380Y3505D02*
X59620D01*
X44380Y14681D02*
X59620D01*
Y3505D02*
Y14681D01*
X44380Y3505D02*
Y14681D01*
Y6299D02*
X59620D01*
X44380Y14681D02*
X59620D01*
Y6299D02*
Y14681D01*
X44380Y6299D02*
Y14681D01*
X69708Y77892D02*
X69575Y78025D01*
X69309D01*
X69175Y77892D01*
Y77358D01*
X69309Y77225D01*
X69575D01*
X69708Y77358D01*
X69975Y77225D02*
X70242D01*
X70108D01*
Y78025D01*
X69975Y77892D01*
X71175Y77225D02*
X70642D01*
X71175Y77758D01*
Y77892D01*
X71041Y78025D01*
X70775D01*
X70642Y77892D01*
X32879Y1479D02*
X33545D01*
X33212Y1812D02*
Y1146D01*
X33879Y979D02*
X34212D01*
X34045D01*
Y1979D01*
X33879Y1812D01*
X34712D02*
X34878Y1979D01*
X35212D01*
X35378Y1812D01*
Y1645D01*
X35212Y1479D01*
X35378Y1312D01*
Y1146D01*
X35212Y979D01*
X34878D01*
X34712Y1146D01*
Y1312D01*
X34878Y1479D01*
X34712Y1645D01*
Y1812D01*
X34878Y1479D02*
X35212D01*
X35711Y1979D02*
Y1312D01*
X36045Y979D01*
X36378Y1312D01*
Y1979D01*
X38377Y1812D02*
X38211Y1979D01*
X37877D01*
X37711Y1812D01*
Y1146D01*
X37877Y979D01*
X38211D01*
X38377Y1146D01*
Y1479D01*
X38044D01*
X38710Y979D02*
Y1979D01*
X39377Y979D01*
Y1979D01*
X39710D02*
Y979D01*
X40210D01*
X40377Y1146D01*
Y1812D01*
X40210Y1979D01*
X39710D01*
X1479Y70380D02*
X1645Y70546D01*
Y70879D01*
X1479Y71046D01*
X812D01*
X646Y70879D01*
Y70546D01*
X812Y70380D01*
X1145D01*
Y70713D01*
X646Y70046D02*
X1645D01*
X646Y69380D01*
X1645D01*
Y69047D02*
X646D01*
Y68547D01*
X812Y68380D01*
X1479D01*
X1645Y68547D01*
Y69047D01*
X479Y68047D02*
Y67381D01*
X1645Y67047D02*
X979D01*
X646Y66714D01*
X979Y66381D01*
X1645D01*
X1479Y65381D02*
X1645Y65548D01*
Y65881D01*
X1479Y66048D01*
X812D01*
X646Y65881D01*
Y65548D01*
X812Y65381D01*
X1479Y64381D02*
X1645Y64548D01*
Y64881D01*
X1479Y65048D01*
X812D01*
X646Y64881D01*
Y64548D01*
X812Y64381D01*
X58764Y73650D02*
Y71619D01*
X59779Y72634D02*
X57748D01*
X58256Y62982D02*
Y60951D01*
X213413Y27929D02*
Y28462D01*
X213146Y28196D02*
X213679D01*
X213813Y29262D02*
Y28729D01*
X213280Y29262D01*
X213146D01*
X213013Y29129D01*
Y28862D01*
X213146Y28729D01*
Y29528D02*
X213013Y29662D01*
Y29928D01*
X213146Y30062D01*
X213679D01*
X213813Y29928D01*
Y29662D01*
X213679Y29528D01*
X213146D01*
X213013Y30328D02*
X213546D01*
X213813Y30595D01*
X213546Y30861D01*
X213013D01*
X213946Y31128D02*
Y31661D01*
X213813Y32461D02*
Y31928D01*
X213280Y32461D01*
X213146D01*
X213013Y32328D01*
Y32061D01*
X213146Y31928D01*
Y34060D02*
X213013Y33927D01*
Y33660D01*
X213146Y33527D01*
X213679D01*
X213813Y33660D01*
Y33927D01*
X213679Y34060D01*
X213413D01*
Y33794D01*
X213813Y34327D02*
X213013D01*
X213813Y34860D01*
X213013D01*
Y35127D02*
X213813D01*
Y35527D01*
X213679Y35660D01*
X213146D01*
X213013Y35527D01*
Y35127D01*
X213813Y36460D02*
Y35926D01*
X213280Y36460D01*
X213146D01*
X213013Y36326D01*
Y36060D01*
X213146Y35926D01*
X34206Y38532D02*
Y36501D01*
X34714Y49200D02*
Y47169D01*
X35729Y48184D02*
X33698D01*
X213463Y38529D02*
Y39062D01*
X213196Y38796D02*
X213729D01*
X213863Y39862D02*
Y39329D01*
X213330Y39862D01*
X213196D01*
X213063Y39729D01*
Y39462D01*
X213196Y39329D01*
Y40129D02*
X213063Y40262D01*
Y40529D01*
X213196Y40662D01*
X213729D01*
X213863Y40529D01*
Y40262D01*
X213729Y40129D01*
X213196D01*
X213063Y40928D02*
X213596D01*
X213863Y41195D01*
X213596Y41462D01*
X213063D01*
X213996Y41728D02*
Y42261D01*
X213863Y42528D02*
Y42795D01*
Y42661D01*
X213063D01*
X213196Y42528D01*
Y44527D02*
X213063Y44394D01*
Y44127D01*
X213196Y43994D01*
X213729D01*
X213863Y44127D01*
Y44394D01*
X213729Y44527D01*
X213463D01*
Y44261D01*
X213863Y44794D02*
X213063D01*
X213863Y45327D01*
X213063D01*
Y45594D02*
X213863D01*
Y45994D01*
X213729Y46127D01*
X213196D01*
X213063Y45994D01*
Y45594D01*
X213863Y46393D02*
Y46660D01*
Y46527D01*
X213063D01*
X213196Y46393D01*
X34206Y62982D02*
Y60951D01*
X34714Y73650D02*
Y71619D01*
X35729Y72634D02*
X33698D01*
X58764Y49075D02*
Y47044D01*
X59779Y48059D02*
X57748D01*
X58256Y38407D02*
Y36376D01*
X50532Y96233D02*
X51065D01*
X51332Y96500D01*
X51065Y96766D01*
X50532D01*
Y97033D02*
X51332D01*
Y97433D01*
X51199Y97566D01*
X51065D01*
X50932Y97433D01*
Y97033D01*
Y97433D01*
X50799Y97566D01*
X50666D01*
X50532Y97433D01*
Y97033D01*
X47782Y96154D02*
X48582D01*
X48182D01*
Y96687D01*
X47782D01*
X48582D01*
X47782Y97354D02*
Y97087D01*
X47916Y96954D01*
X48449D01*
X48582Y97087D01*
Y97354D01*
X48449Y97487D01*
X47916D01*
X47782Y97354D01*
X45395Y96204D02*
X45928D01*
X46194Y96471D01*
X45928Y96737D01*
X45395D01*
X45528Y97537D02*
X45395Y97404D01*
Y97137D01*
X45528Y97004D01*
X45661D01*
X45795Y97137D01*
Y97404D01*
X45928Y97537D01*
X46061D01*
X46194Y97404D01*
Y97137D01*
X46061Y97004D01*
X42657Y96204D02*
X43457D01*
Y96737D01*
X42657Y97404D02*
Y97137D01*
X42791Y97004D01*
X43324D01*
X43457Y97137D01*
Y97404D01*
X43324Y97537D01*
X42791D01*
X42657Y97404D01*
X32549Y94529D02*
X33082D01*
X33349Y94796D01*
X33082Y95062D01*
X32549D01*
X33482Y95329D02*
Y95862D01*
X32549Y96662D02*
Y96128D01*
X32949D01*
Y96395D01*
Y96128D01*
X33349D01*
X32549Y96928D02*
X33349D01*
Y97328D01*
X33215Y97461D01*
X33082D01*
X32949Y97328D01*
Y96928D01*
Y97328D01*
X32816Y97461D01*
X32682D01*
X32549Y97328D01*
Y96928D01*
X35132Y95979D02*
Y96246D01*
Y96112D01*
X35932D01*
Y95979D01*
Y96246D01*
X35266Y97179D02*
X35132Y97045D01*
Y96779D01*
X35266Y96645D01*
X35399D01*
X35532Y96779D01*
Y97045D01*
X35665Y97179D01*
X35799D01*
X35932Y97045D01*
Y96779D01*
X35799Y96645D01*
X37903Y96095D02*
X37770Y95962D01*
Y95696D01*
X37903Y95562D01*
X38436D01*
X38569Y95696D01*
Y95962D01*
X38436Y96095D01*
X38170D01*
Y95829D01*
X38569Y96362D02*
X37770D01*
X38569Y96895D01*
X37770D01*
Y97162D02*
X38569D01*
Y97562D01*
X38436Y97695D01*
X37903D01*
X37770Y97562D01*
Y97162D01*
X40443Y96095D02*
X40310Y95962D01*
Y95696D01*
X40443Y95562D01*
X40976D01*
X41109Y95696D01*
Y95962D01*
X40976Y96095D01*
X40710D01*
Y95829D01*
X41109Y96362D02*
X40310D01*
X41109Y96895D01*
X40310D01*
Y97162D02*
X41109D01*
Y97562D01*
X40976Y97695D01*
X40443D01*
X40310Y97562D01*
Y97162D01*
X22341Y95687D02*
X22207Y95554D01*
Y95287D01*
X22341Y95154D01*
X22874D01*
X23007Y95287D01*
Y95554D01*
X22874Y95687D01*
X22607D01*
Y95421D01*
X23007Y95954D02*
X22207D01*
X23007Y96487D01*
X22207D01*
Y96754D02*
X23007D01*
Y97153D01*
X22874Y97287D01*
X22341D01*
X22207Y97153D01*
Y96754D01*
X24982Y95154D02*
X25515D01*
X25782Y95421D01*
X25515Y95687D01*
X24982D01*
X25116Y96487D02*
X24982Y96354D01*
Y96087D01*
X25116Y95954D01*
X25649D01*
X25782Y96087D01*
Y96354D01*
X25649Y96487D01*
X25116Y97287D02*
X24982Y97153D01*
Y96887D01*
X25116Y96754D01*
X25649D01*
X25782Y96887D01*
Y97153D01*
X25649Y97287D01*
X28282Y95229D02*
X27749D01*
X27482Y95496D01*
X27749Y95762D01*
X28282D01*
X27882D01*
Y95229D01*
X28282Y96029D02*
X27482D01*
X28282Y96562D01*
X27482D01*
Y96829D02*
X28282D01*
Y97228D01*
X28149Y97362D01*
X27616D01*
X27482Y97228D01*
Y96829D01*
X29982Y95454D02*
X30782D01*
X30515D01*
X29982Y95987D01*
X30382Y95587D01*
X30782Y95987D01*
Y96254D02*
X30249D01*
X29982Y96520D01*
X30249Y96787D01*
X30782D01*
X30382D01*
Y96254D01*
X29982Y97054D02*
Y97587D01*
Y97320D01*
X30782D01*
X178721Y10721D02*
X179720D01*
Y10221D01*
X179554Y10055D01*
X179220D01*
X179054Y10221D01*
Y10721D01*
X179720Y9721D02*
X178721D01*
X179054Y9388D01*
X178721Y9055D01*
X179720D01*
X178721Y8722D02*
X179720D01*
X179387Y8388D01*
X179720Y8055D01*
X178721D01*
X178554Y7722D02*
Y7056D01*
X179720Y6722D02*
Y6389D01*
Y6556D01*
X178721D01*
Y6722D01*
Y6389D01*
X178554Y5889D02*
Y5223D01*
X179554Y4223D02*
X179720Y4390D01*
Y4723D01*
X179554Y4890D01*
X178887D01*
X178721Y4723D01*
Y4390D01*
X178887Y4223D01*
X179220D01*
Y4556D01*
X178554Y3890D02*
Y3223D01*
X179720Y2890D02*
X179054D01*
X178721Y2557D01*
X179054Y2224D01*
X179720D01*
X187654Y1787D02*
Y1254D01*
X187921Y987D01*
X188187Y1254D01*
Y1787D01*
X188454Y854D02*
X188987D01*
X189253Y987D02*
Y1787D01*
X189653D01*
X189787Y1654D01*
Y1387D01*
X189653Y1254D01*
X189253D01*
X189520D02*
X189787Y987D01*
X190586Y1787D02*
X190053D01*
Y987D01*
X190586D01*
X190053Y1387D02*
X190320D01*
X191386Y1787D02*
X190853D01*
Y1387D01*
X191120D01*
X190853D01*
Y987D01*
X23229Y1479D02*
X23895D01*
X23562Y1812D02*
Y1146D01*
X24895Y1979D02*
X24229D01*
Y1479D01*
X24562Y1645D01*
X24729D01*
X24895Y1479D01*
Y1146D01*
X24729Y979D01*
X24395D01*
X24229Y1146D01*
X25228Y1979D02*
Y1312D01*
X25562Y979D01*
X25895Y1312D01*
Y1979D01*
X27894Y1812D02*
X27728Y1979D01*
X27394D01*
X27228Y1812D01*
Y1146D01*
X27394Y979D01*
X27728D01*
X27894Y1146D01*
Y1479D01*
X27561D01*
X28227Y979D02*
Y1979D01*
X28894Y979D01*
Y1979D01*
X29227D02*
Y979D01*
X29727D01*
X29894Y1146D01*
Y1812D01*
X29727Y1979D01*
X29227D01*
X192828Y1812D02*
X193095D01*
X192962D01*
Y1012D01*
X192828D01*
X193095D01*
X193495Y879D02*
X194028D01*
X194828Y1679D02*
X194695Y1812D01*
X194428D01*
X194295Y1679D01*
Y1545D01*
X194428Y1412D01*
X194695D01*
X194828Y1279D01*
Y1146D01*
X194695Y1012D01*
X194428D01*
X194295Y1146D01*
X195628Y1812D02*
X195094D01*
Y1012D01*
X195628D01*
X195094Y1412D02*
X195361D01*
X195894Y1812D02*
X196427D01*
X196161D01*
Y1012D01*
X197701Y1812D02*
Y1279D01*
X197968Y1012D01*
X198234Y1279D01*
Y1812D01*
X198501Y879D02*
X199034D01*
X199834Y1679D02*
X199701Y1812D01*
X199434D01*
X199301Y1679D01*
Y1545D01*
X199434Y1412D01*
X199701D01*
X199834Y1279D01*
Y1146D01*
X199701Y1012D01*
X199434D01*
X199301Y1146D01*
X200634Y1812D02*
X200100D01*
Y1012D01*
X200634D01*
X200100Y1412D02*
X200367D01*
X200900Y1812D02*
X201433D01*
X201167D01*
Y1012D01*
X213413Y17804D02*
Y18337D01*
X213146Y18071D02*
X213679D01*
X213813Y19137D02*
Y18604D01*
X213280Y19137D01*
X213146D01*
X213013Y19004D01*
Y18737D01*
X213146Y18604D01*
Y19403D02*
X213013Y19537D01*
Y19803D01*
X213146Y19937D01*
X213679D01*
X213813Y19803D01*
Y19537D01*
X213679Y19403D01*
X213146D01*
X213013Y20203D02*
X213546D01*
X213813Y20470D01*
X213546Y20736D01*
X213013D01*
X213946Y21003D02*
Y21536D01*
X213813Y22336D02*
Y21803D01*
X213280Y22336D01*
X213146D01*
X213013Y22203D01*
Y21936D01*
X213146Y21803D01*
Y23935D02*
X213013Y23802D01*
Y23535D01*
X213146Y23402D01*
X213679D01*
X213813Y23535D01*
Y23802D01*
X213679Y23935D01*
X213413D01*
Y23669D01*
X213813Y24202D02*
X213013D01*
X213813Y24735D01*
X213013D01*
Y25002D02*
X213813D01*
Y25402D01*
X213679Y25535D01*
X213146D01*
X213013Y25402D01*
Y25002D01*
X213813Y26335D02*
Y25801D01*
X213280Y26335D01*
X213146D01*
X213013Y26201D01*
Y25935D01*
X213146Y25801D01*
X7349Y30892D02*
X6550D01*
Y31292D01*
X6683Y31425D01*
X6950D01*
X7083Y31292D01*
Y30892D01*
Y31159D02*
X7349Y31425D01*
X6550Y31692D02*
Y32225D01*
Y31958D01*
X7349D01*
Y32491D02*
Y32758D01*
Y32625D01*
X6550D01*
X6683Y32491D01*
X13775Y54942D02*
X13642Y55075D01*
X13375D01*
X13242Y54942D01*
Y54408D01*
X13375Y54275D01*
X13642D01*
X13775Y54408D01*
X14042Y54275D02*
X14308D01*
X14175D01*
Y55075D01*
X14042Y54942D01*
X13642Y49017D02*
X13509Y49150D01*
X13242D01*
X13109Y49017D01*
Y48483D01*
X13242Y48350D01*
X13509D01*
X13642Y48483D01*
X13908Y49017D02*
X14042Y49150D01*
X14308D01*
X14442Y49017D01*
Y48883D01*
X14308Y48750D01*
X14175D01*
X14308D01*
X14442Y48617D01*
Y48483D01*
X14308Y48350D01*
X14042D01*
X13908Y48483D01*
X15241Y48350D02*
X14708D01*
X15241Y48883D01*
Y49017D01*
X15108Y49150D01*
X14841D01*
X14708Y49017D01*
X179967Y49342D02*
X179834Y49475D01*
X179567D01*
X179434Y49342D01*
Y48808D01*
X179567Y48675D01*
X179834D01*
X179967Y48808D01*
X180233Y49342D02*
X180367Y49475D01*
X180633D01*
X180767Y49342D01*
Y49208D01*
X180633Y49075D01*
X180500D01*
X180633D01*
X180767Y48942D01*
Y48808D01*
X180633Y48675D01*
X180367D01*
X180233Y48808D01*
X181033Y49475D02*
X181566D01*
Y49342D01*
X181033Y48808D01*
Y48675D01*
X173022Y64317D02*
X172889Y64450D01*
X172622D01*
X172489Y64317D01*
Y63783D01*
X172622Y63650D01*
X172889D01*
X173022Y63783D01*
X173822Y63650D02*
X173288D01*
X173822Y64183D01*
Y64317D01*
X173688Y64450D01*
X173422D01*
X173288Y64317D01*
X174088Y64450D02*
X174621D01*
Y64317D01*
X174088Y63783D01*
Y63650D01*
X12447Y58427D02*
X11647D01*
Y58827D01*
X11780Y58960D01*
X12047D01*
X12180Y58827D01*
Y58427D01*
Y58693D02*
X12447Y58960D01*
Y59227D02*
Y59493D01*
Y59360D01*
X11647D01*
X11780Y59227D01*
X64383Y76992D02*
X64250Y77125D01*
X63984D01*
X63850Y76992D01*
Y76458D01*
X63984Y76325D01*
X64250D01*
X64383Y76458D01*
X64650Y76325D02*
X64917D01*
X64783D01*
Y77125D01*
X64650Y76992D01*
X65317D02*
X65450Y77125D01*
X65716D01*
X65850Y76992D01*
Y76458D01*
X65716Y76325D01*
X65450D01*
X65317Y76458D01*
Y76992D01*
X207210Y79944D02*
X205686D01*
Y80706D01*
X205940Y80960D01*
X206448D01*
X206702Y80706D01*
Y79944D01*
Y80452D02*
X207210Y80960D01*
X206194Y81722D02*
Y82229D01*
X206448Y82483D01*
X207210D01*
Y81722D01*
X206956Y81468D01*
X206702Y81722D01*
Y82483D01*
X205686Y84007D02*
X207210D01*
Y83245D01*
X206956Y82991D01*
X206448D01*
X206194Y83245D01*
Y84007D01*
X207210Y84515D02*
Y85023D01*
Y84769D01*
X206194D01*
Y84515D01*
Y86038D02*
Y86546D01*
X206448Y86800D01*
X207210D01*
Y86038D01*
X206956Y85784D01*
X206702Y86038D01*
Y86800D01*
X205940Y87562D02*
X206194D01*
Y87308D01*
Y87816D01*
Y87562D01*
X206956D01*
X207210Y87816D01*
Y88831D02*
Y89339D01*
X206956Y89593D01*
X206448D01*
X206194Y89339D01*
Y88831D01*
X206448Y88577D01*
X206956D01*
X207210Y88831D01*
X206194Y90101D02*
X207210D01*
X206702D01*
X206448Y90355D01*
X206194Y90609D01*
Y90863D01*
X207464Y91624D02*
Y92640D01*
X207210Y93148D02*
Y93656D01*
Y93402D01*
X205686D01*
X205940Y93148D01*
X63134Y13775D02*
Y12975D01*
X63667D01*
X64466Y13775D02*
X63933D01*
Y13375D01*
X64200Y13508D01*
X64333D01*
X64466Y13375D01*
Y13108D01*
X64333Y12975D01*
X64067D01*
X63933Y13108D01*
X40692Y13000D02*
X40425D01*
X40558D01*
Y12333D01*
X40425Y12200D01*
X40292D01*
X40159Y12333D01*
X41491Y13000D02*
X41225Y12867D01*
X40958Y12600D01*
Y12333D01*
X41092Y12200D01*
X41358D01*
X41491Y12333D01*
Y12467D01*
X41358Y12600D01*
X40958D01*
X90870Y26650D02*
Y25850D01*
X91270D01*
X91403Y25983D01*
Y26517D01*
X91270Y26650D01*
X90870D01*
X92203D02*
X91669D01*
Y26250D01*
X91936Y26383D01*
X92069D01*
X92203Y26250D01*
Y25983D01*
X92069Y25850D01*
X91803D01*
X91669Y25983D01*
X107709Y26650D02*
Y25850D01*
X108108D01*
X108242Y25983D01*
Y26517D01*
X108108Y26650D01*
X107709D01*
X108908Y25850D02*
Y26650D01*
X108508Y26250D01*
X109041D01*
X96509Y26700D02*
Y25900D01*
X96909D01*
X97042Y26033D01*
Y26567D01*
X96909Y26700D01*
X96509D01*
X97308Y26567D02*
X97442Y26700D01*
X97708D01*
X97842Y26567D01*
Y26433D01*
X97708Y26300D01*
X97575D01*
X97708D01*
X97842Y26167D01*
Y26033D01*
X97708Y25900D01*
X97442D01*
X97308Y26033D01*
X102209Y26700D02*
Y25900D01*
X102608D01*
X102742Y26033D01*
Y26567D01*
X102608Y26700D01*
X102209D01*
X103541Y25900D02*
X103008D01*
X103541Y26433D01*
Y26567D01*
X103408Y26700D01*
X103142D01*
X103008Y26567D01*
X31792Y28092D02*
X31659Y28225D01*
X31392D01*
X31259Y28092D01*
Y27558D01*
X31392Y27425D01*
X31659D01*
X31792Y27558D01*
X32058Y28092D02*
X32192Y28225D01*
X32458D01*
X32592Y28092D01*
Y27958D01*
X32458Y27825D01*
X32325D01*
X32458D01*
X32592Y27692D01*
Y27558D01*
X32458Y27425D01*
X32192D01*
X32058Y27558D01*
X32858Y28225D02*
X33391D01*
Y28092D01*
X32858Y27558D01*
Y27425D01*
X187848Y17800D02*
X188381D01*
X188115D01*
Y17000D01*
X188648D02*
Y17800D01*
X189048D01*
X189181Y17667D01*
Y17400D01*
X189048Y17267D01*
X188648D01*
X189981Y17000D02*
X189447D01*
X189981Y17533D01*
Y17667D01*
X189847Y17800D01*
X189581D01*
X189447Y17667D01*
X190247D02*
X190380Y17800D01*
X190647D01*
X190780Y17667D01*
Y17533D01*
X190647Y17400D01*
X190514D01*
X190647D01*
X190780Y17267D01*
Y17133D01*
X190647Y17000D01*
X190380D01*
X190247Y17133D01*
X166112Y27850D02*
Y27050D01*
X166512D01*
X166645Y27183D01*
Y27717D01*
X166512Y27850D01*
X166112D01*
X166912Y27050D02*
X167178D01*
X167045D01*
Y27850D01*
X166912Y27717D01*
X168111Y27850D02*
X167578D01*
Y27450D01*
X167845Y27583D01*
X167978D01*
X168111Y27450D01*
Y27183D01*
X167978Y27050D01*
X167712D01*
X167578Y27183D01*
X80883Y103125D02*
Y103658D01*
X80616Y103925D01*
X80350Y103658D01*
Y103125D01*
X80083D02*
X79550D01*
X79817D01*
Y103925D01*
X79284D02*
X79017D01*
X79150D01*
Y103125D01*
X79284Y103258D01*
X103391Y103325D02*
Y103858D01*
X103125Y104125D01*
X102858Y103858D01*
Y103325D01*
X102592D02*
X102058D01*
X102325D01*
Y104125D01*
X101259D02*
X101792D01*
X101259Y103592D01*
Y103458D01*
X101392Y103325D01*
X101659D01*
X101792Y103458D01*
X85634Y27025D02*
X86167D01*
X85900D01*
Y26225D01*
X86433D02*
Y27025D01*
X86833D01*
X86967Y26892D01*
Y26625D01*
X86833Y26492D01*
X86433D01*
X87233Y27025D02*
X87766D01*
Y26892D01*
X87233Y26358D01*
Y26225D01*
X168708Y103325D02*
Y104125D01*
X168308D01*
X168175Y103992D01*
Y103458D01*
X168308Y103325D01*
X168708D01*
X167908Y104125D02*
X167642D01*
X167775D01*
Y103325D01*
X167908Y103458D01*
X147150Y103425D02*
Y104225D01*
X146750D01*
X146617Y104092D01*
Y103558D01*
X146750Y103425D01*
X147150D01*
X146350Y104225D02*
X146083D01*
X146217D01*
Y103425D01*
X146350Y103558D01*
X145683D02*
X145550Y103425D01*
X145284D01*
X145150Y103558D01*
Y104092D01*
X145284Y104225D01*
X145550D01*
X145683Y104092D01*
Y103558D01*
X205975Y12075D02*
Y11275D01*
X206375D01*
X206508Y11408D01*
Y11942D01*
X206375Y12075D01*
X205975D01*
X206775Y11275D02*
X207042D01*
X206908D01*
Y12075D01*
X206775Y11942D01*
X207841Y11275D02*
Y12075D01*
X207442Y11675D01*
X207975D01*
X100237Y58842D02*
X100103Y58709D01*
Y58442D01*
X100237Y58309D01*
X100770D01*
X100903Y58442D01*
Y58709D01*
X100770Y58842D01*
X100237Y59108D02*
X100103Y59242D01*
Y59508D01*
X100237Y59642D01*
X100370D01*
X100503Y59508D01*
Y59375D01*
Y59508D01*
X100636Y59642D01*
X100770D01*
X100903Y59508D01*
Y59242D01*
X100770Y59108D01*
X100103Y60441D02*
Y59908D01*
X100503D01*
X100370Y60175D01*
Y60308D01*
X100503Y60441D01*
X100770D01*
X100903Y60308D01*
Y60041D01*
X100770Y59908D01*
X76533Y32567D02*
X76400Y32700D01*
X76134D01*
X76000Y32567D01*
Y32033D01*
X76134Y31900D01*
X76400D01*
X76533Y32033D01*
X76800Y31900D02*
X77067D01*
X76933D01*
Y32700D01*
X76800Y32567D01*
X77467D02*
X77600Y32700D01*
X77866D01*
X78000Y32567D01*
Y32433D01*
X77866Y32300D01*
X77733D01*
X77866D01*
X78000Y32167D01*
Y32033D01*
X77866Y31900D01*
X77600D01*
X77467Y32033D01*
X102658Y70544D02*
X103191D01*
X102924D01*
Y69744D01*
X103458D02*
X103724D01*
X103591D01*
Y70544D01*
X103458Y70411D01*
X89933Y77592D02*
X89800Y77725D01*
X89534D01*
X89400Y77592D01*
Y77058D01*
X89534Y76925D01*
X89800D01*
X89933Y77058D01*
X90200Y76925D02*
X90467D01*
X90333D01*
Y77725D01*
X90200Y77592D01*
X90867D02*
X91000Y77725D01*
X91266D01*
X91400Y77592D01*
Y77458D01*
X91266Y77325D01*
X91400Y77192D01*
Y77058D01*
X91266Y76925D01*
X91000D01*
X90867Y77058D01*
Y77192D01*
X91000Y77325D01*
X90867Y77458D01*
Y77592D01*
X91000Y77325D02*
X91266D01*
X91752Y30147D02*
X91619Y30280D01*
X91353D01*
X91219Y30147D01*
Y29614D01*
X91353Y29481D01*
X91619D01*
X91752Y29614D01*
X92019Y29481D02*
X92286D01*
X92152D01*
Y30280D01*
X92019Y30147D01*
X92685Y30280D02*
X93219D01*
Y30147D01*
X92685Y29614D01*
Y29481D01*
X200733Y33956D02*
X199933D01*
Y34356D01*
X200066Y34489D01*
X200333D01*
X200466Y34356D01*
Y33956D01*
Y34223D02*
X200733Y34489D01*
X200066Y34756D02*
X199933Y34889D01*
Y35156D01*
X200066Y35289D01*
X200199D01*
X200333Y35156D01*
Y35023D01*
Y35156D01*
X200466Y35289D01*
X200599D01*
X200733Y35156D01*
Y34889D01*
X200599Y34756D01*
X200733Y35956D02*
X199933D01*
X200333Y35556D01*
Y36089D01*
X63742Y52942D02*
X63608Y53075D01*
X63342D01*
X63209Y52942D01*
Y52408D01*
X63342Y52275D01*
X63608D01*
X63742Y52408D01*
X64008Y52275D02*
X64275D01*
X64142D01*
Y53075D01*
X64008Y52942D01*
X64675Y52275D02*
X64941D01*
X64808D01*
Y53075D01*
X64675Y52942D01*
X59992Y102325D02*
Y101525D01*
X60392D01*
X60525Y101658D01*
Y101792D01*
X60392Y101925D01*
X59992D01*
X60392D01*
X60525Y102058D01*
Y102192D01*
X60392Y102325D01*
X59992D01*
X60792Y101525D02*
X61058D01*
X60925D01*
Y102325D01*
X60792Y102192D01*
X22342Y12925D02*
X22075D01*
X22208D01*
Y12258D01*
X22075Y12125D01*
X21942D01*
X21809Y12258D01*
X22608Y12792D02*
X22742Y12925D01*
X23008D01*
X23141Y12792D01*
Y12658D01*
X23008Y12525D01*
X22875D01*
X23008D01*
X23141Y12392D01*
Y12258D01*
X23008Y12125D01*
X22742D01*
X22608Y12258D01*
X72309Y16025D02*
X72842D01*
X72575D01*
Y15225D01*
X73108D02*
Y16025D01*
X73508D01*
X73642Y15892D01*
Y15625D01*
X73508Y15492D01*
X73108D01*
X73908Y15358D02*
X74041Y15225D01*
X74308D01*
X74441Y15358D01*
Y15892D01*
X74308Y16025D01*
X74041D01*
X73908Y15892D01*
Y15758D01*
X74041Y15625D01*
X74441D01*
X82408Y16125D02*
X82942D01*
X82675D01*
Y15325D01*
X83208D02*
Y16125D01*
X83608D01*
X83741Y15992D01*
Y15725D01*
X83608Y15592D01*
X83208D01*
X84008Y15992D02*
X84141Y16125D01*
X84408D01*
X84541Y15992D01*
Y15858D01*
X84408Y15725D01*
X84274D01*
X84408D01*
X84541Y15592D01*
Y15458D01*
X84408Y15325D01*
X84141D01*
X84008Y15458D01*
X45782Y2400D02*
X46315D01*
X46049D01*
Y1600D01*
X46582D02*
Y2400D01*
X46982D01*
X47115Y2267D01*
Y2000D01*
X46982Y1867D01*
X46582D01*
X47381Y1600D02*
X47648D01*
X47515D01*
Y2400D01*
X47381Y2267D01*
X52467Y1800D02*
Y2600D01*
X52867D01*
X53000Y2467D01*
Y2200D01*
X52867Y2067D01*
X52467D01*
X52734D02*
X53000Y1800D01*
X53800Y2467D02*
X53667Y2600D01*
X53400D01*
X53267Y2467D01*
Y1933D01*
X53400Y1800D01*
X53667D01*
X53800Y1933D01*
Y2200D01*
X53533D01*
X54066Y1800D02*
X54333D01*
X54200D01*
Y2600D01*
X54066Y2467D01*
X98909Y34125D02*
Y34925D01*
X99309D01*
X99442Y34792D01*
Y34525D01*
X99309Y34392D01*
X98909D01*
X99175D02*
X99442Y34125D01*
X100242D02*
X99708D01*
X100242Y34658D01*
Y34792D01*
X100108Y34925D01*
X99842D01*
X99708Y34792D01*
X100508D02*
X100641Y34925D01*
X100908D01*
X101041Y34792D01*
Y34658D01*
X100908Y34525D01*
X101041Y34392D01*
Y34258D01*
X100908Y34125D01*
X100641D01*
X100508Y34258D01*
Y34392D01*
X100641Y34525D01*
X100508Y34658D01*
Y34792D01*
X100641Y34525D02*
X100908D01*
X82058Y23292D02*
X81925Y23425D01*
X81659D01*
X81525Y23292D01*
Y22758D01*
X81659Y22625D01*
X81925D01*
X82058Y22758D01*
X82325Y22625D02*
X82592D01*
X82458D01*
Y23425D01*
X82325Y23292D01*
X83525Y23425D02*
X83258Y23292D01*
X82992Y23025D01*
Y22758D01*
X83125Y22625D01*
X83391D01*
X83525Y22758D01*
Y22892D01*
X83391Y23025D01*
X82992D01*
X75392Y2142D02*
X75258Y2275D01*
X74992D01*
X74859Y2142D01*
Y1608D01*
X74992Y1475D01*
X75258D01*
X75392Y1608D01*
X75658Y2142D02*
X75792Y2275D01*
X76058D01*
X76191Y2142D01*
Y2008D01*
X76058Y1875D01*
X76191Y1742D01*
Y1608D01*
X76058Y1475D01*
X75792D01*
X75658Y1608D01*
Y1742D01*
X75792Y1875D01*
X75658Y2008D01*
Y2142D01*
X75792Y1875D02*
X76058D01*
X24209Y108425D02*
X24742D01*
X24475D01*
Y107625D01*
X25008D02*
Y108425D01*
X25408D01*
X25542Y108292D01*
Y108025D01*
X25408Y107892D01*
X25008D01*
X25808Y107625D02*
X26075D01*
X25942D01*
Y108425D01*
X25808Y108292D01*
X26475Y107625D02*
X26741D01*
X26608D01*
Y108425D01*
X26475Y108292D01*
X58050Y83963D02*
X58583D01*
X58316D01*
Y83163D01*
X58849D02*
Y83963D01*
X59249D01*
X59383Y83830D01*
Y83563D01*
X59249Y83430D01*
X58849D01*
X60182Y83963D02*
X59916Y83830D01*
X59649Y83563D01*
Y83296D01*
X59782Y83163D01*
X60049D01*
X60182Y83296D01*
Y83430D01*
X60049Y83563D01*
X59649D01*
X38650Y105600D02*
X39184D01*
X38917D01*
Y104800D01*
X39450D02*
Y105600D01*
X39850D01*
X39983Y105467D01*
Y105200D01*
X39850Y105067D01*
X39450D01*
X40250Y104800D02*
X40517D01*
X40383D01*
Y105600D01*
X40250Y105467D01*
X40916Y105600D02*
X41450D01*
Y105467D01*
X40916Y104933D01*
Y104800D01*
X51250Y105475D02*
X51784D01*
X51517D01*
Y104675D01*
X52050D02*
Y105475D01*
X52450D01*
X52583Y105342D01*
Y105075D01*
X52450Y104942D01*
X52050D01*
X52850Y104675D02*
X53117D01*
X52983D01*
Y105475D01*
X52850Y105342D01*
X54050Y105475D02*
X53783Y105342D01*
X53516Y105075D01*
Y104808D01*
X53650Y104675D01*
X53916D01*
X54050Y104808D01*
Y104942D01*
X53916Y105075D01*
X53516D01*
X100800Y44500D02*
X101334D01*
X101067D01*
Y43700D01*
X101600D02*
Y44500D01*
X102000D01*
X102133Y44367D01*
Y44100D01*
X102000Y43967D01*
X101600D01*
X102400Y43700D02*
X102667D01*
X102533D01*
Y44500D01*
X102400Y44367D01*
X103066D02*
X103200Y44500D01*
X103466D01*
X103600Y44367D01*
Y43833D01*
X103466Y43700D01*
X103200D01*
X103066Y43833D01*
Y44367D01*
X101234Y49475D02*
X101767D01*
X101500D01*
Y48675D01*
X102033D02*
Y49475D01*
X102433D01*
X102567Y49342D01*
Y49075D01*
X102433Y48942D01*
X102033D01*
X102833Y49342D02*
X102966Y49475D01*
X103233D01*
X103366Y49342D01*
Y49208D01*
X103233Y49075D01*
X103366Y48942D01*
Y48808D01*
X103233Y48675D01*
X102966D01*
X102833Y48808D01*
Y48942D01*
X102966Y49075D01*
X102833Y49208D01*
Y49342D01*
X102966Y49075D02*
X103233D01*
X34709Y92225D02*
X35242D01*
X34975D01*
Y91425D01*
X35508D02*
Y92225D01*
X35908D01*
X36042Y92092D01*
Y91825D01*
X35908Y91692D01*
X35508D01*
X36708Y91425D02*
Y92225D01*
X36308Y91825D01*
X36841D01*
X201792Y47400D02*
X201525D01*
X201658D01*
Y46734D01*
X201525Y46600D01*
X201392D01*
X201259Y46734D01*
X202591Y46600D02*
X202058D01*
X202591Y47134D01*
Y47267D01*
X202458Y47400D01*
X202192D01*
X202058Y47267D01*
X170109Y51525D02*
Y50725D01*
X170642D01*
X170908Y51392D02*
X171042Y51525D01*
X171308D01*
X171441Y51392D01*
Y51258D01*
X171308Y51125D01*
X171175D01*
X171308D01*
X171441Y50992D01*
Y50858D01*
X171308Y50725D01*
X171042D01*
X170908Y50858D01*
X211684Y64650D02*
Y63850D01*
X212217D01*
X213016D02*
X212483D01*
X213016Y64383D01*
Y64517D01*
X212883Y64650D01*
X212617D01*
X212483Y64517D01*
X190732Y62345D02*
Y61545D01*
X191266D01*
X191532D02*
X191799D01*
X191665D01*
Y62345D01*
X191532Y62212D01*
X211309Y80825D02*
X211842D01*
X211575D01*
Y80025D01*
X212108D02*
Y80825D01*
X212508D01*
X212642Y80692D01*
Y80425D01*
X212508Y80292D01*
X212108D01*
X213441Y80025D02*
X212908D01*
X213441Y80558D01*
Y80692D01*
X213308Y80825D01*
X213041D01*
X212908Y80692D01*
X200709Y44150D02*
X201242D01*
X200975D01*
Y43350D01*
X201508D02*
Y44150D01*
X201908D01*
X202042Y44017D01*
Y43750D01*
X201908Y43617D01*
X201508D01*
X202841Y44150D02*
X202308D01*
Y43750D01*
X202575Y43883D01*
X202708D01*
X202841Y43750D01*
Y43483D01*
X202708Y43350D01*
X202441D01*
X202308Y43483D01*
X45034Y107592D02*
X45567D01*
X45300D01*
Y106792D01*
X45834D02*
Y107592D01*
X46233D01*
X46367Y107458D01*
Y107192D01*
X46233Y107058D01*
X45834D01*
X47166Y106792D02*
X46633D01*
X47166Y107325D01*
Y107458D01*
X47033Y107592D01*
X46767D01*
X46633Y107458D01*
X47966Y107592D02*
X47433D01*
Y107192D01*
X47700Y107325D01*
X47833D01*
X47966Y107192D01*
Y106925D01*
X47833Y106792D01*
X47566D01*
X47433Y106925D01*
X41525Y78125D02*
Y78925D01*
X41925D01*
X42058Y78792D01*
Y78525D01*
X41925Y78392D01*
X41525D01*
X41792D02*
X42058Y78125D01*
X42325D02*
X42592D01*
X42458D01*
Y78925D01*
X42325Y78792D01*
X42992D02*
X43125Y78925D01*
X43391D01*
X43525Y78792D01*
Y78258D01*
X43391Y78125D01*
X43125D01*
X42992Y78258D01*
Y78792D01*
X190599Y65317D02*
X190466Y65450D01*
X190199D01*
X190066Y65317D01*
Y64783D01*
X190199Y64650D01*
X190466D01*
X190599Y64783D01*
X191399Y64650D02*
X190866D01*
X191399Y65183D01*
Y65317D01*
X191266Y65450D01*
X190999D01*
X190866Y65317D01*
X212383Y50067D02*
X212250Y50200D01*
X211984D01*
X211850Y50067D01*
Y49533D01*
X211984Y49400D01*
X212250D01*
X212383Y49533D01*
X212650Y49400D02*
X212917D01*
X212783D01*
Y50200D01*
X212650Y50067D01*
X213716Y49400D02*
Y50200D01*
X213317Y49800D01*
X213850D01*
X19667Y52092D02*
X19533Y52225D01*
X19267D01*
X19134Y52092D01*
Y51558D01*
X19267Y51425D01*
X19533D01*
X19667Y51558D01*
X20466Y52225D02*
X19933D01*
Y51825D01*
X20200Y51958D01*
X20333D01*
X20466Y51825D01*
Y51558D01*
X20333Y51425D01*
X20067D01*
X19933Y51558D01*
X2617Y93767D02*
X2483Y93900D01*
X2217D01*
X2084Y93767D01*
Y93233D01*
X2217Y93100D01*
X2483D01*
X2617Y93233D01*
X2883D02*
X3017Y93100D01*
X3283D01*
X3416Y93233D01*
Y93767D01*
X3283Y93900D01*
X3017D01*
X2883Y93767D01*
Y93633D01*
X3017Y93500D01*
X3416D01*
X20967Y77542D02*
X20833Y77675D01*
X20567D01*
X20434Y77542D01*
Y77008D01*
X20567Y76875D01*
X20833D01*
X20967Y77008D01*
X21633Y76875D02*
Y77675D01*
X21233Y77275D01*
X21766D01*
X200783Y27406D02*
X199983D01*
Y27806D01*
X200116Y27939D01*
X200383D01*
X200516Y27806D01*
Y27406D01*
Y27673D02*
X200783Y27939D01*
X200116Y28206D02*
X199983Y28339D01*
Y28606D01*
X200116Y28739D01*
X200249D01*
X200383Y28606D01*
Y28473D01*
Y28606D01*
X200516Y28739D01*
X200649D01*
X200783Y28606D01*
Y28339D01*
X200649Y28206D01*
X199983Y29539D02*
Y29006D01*
X200383D01*
X200249Y29272D01*
Y29406D01*
X200383Y29539D01*
X200649D01*
X200783Y29406D01*
Y29139D01*
X200649Y29006D01*
X155375Y22885D02*
X155909D01*
X155642D01*
Y22085D01*
X156175D02*
Y22885D01*
X156575D01*
X156708Y22752D01*
Y22485D01*
X156575Y22352D01*
X156175D01*
X156975Y22085D02*
X157242D01*
X157108D01*
Y22885D01*
X156975Y22752D01*
X158175Y22885D02*
X157641D01*
Y22485D01*
X157908Y22618D01*
X158041D01*
X158175Y22485D01*
Y22218D01*
X158041Y22085D01*
X157775D01*
X157641Y22218D01*
X17075Y33625D02*
X17609D01*
X17342D01*
Y32825D01*
X17875D02*
Y33625D01*
X18275D01*
X18408Y33492D01*
Y33225D01*
X18275Y33092D01*
X17875D01*
X18675Y32825D02*
X18942D01*
X18808D01*
Y33625D01*
X18675Y33492D01*
X19741Y32825D02*
Y33625D01*
X19341Y33225D01*
X19875D01*
X36224Y24975D02*
Y25775D01*
X36624D01*
X36757Y25642D01*
Y25375D01*
X36624Y25242D01*
X36224D01*
X37557Y24975D02*
X37023D01*
X37557Y25508D01*
Y25642D01*
X37423Y25775D01*
X37157D01*
X37023Y25642D01*
X38792Y29225D02*
Y28425D01*
Y28692D01*
X39325Y29225D01*
X38925Y28825D01*
X39325Y28425D01*
X39592D02*
X39858D01*
X39725D01*
Y29225D01*
X39592Y29092D01*
X53634Y91700D02*
Y91167D01*
X53900Y90900D01*
X54167Y91167D01*
Y91700D01*
X54433D02*
Y90900D01*
X54833D01*
X54967Y91033D01*
Y91566D01*
X54833Y91700D01*
X54433D01*
X55766Y90900D02*
X55233D01*
X55766Y91433D01*
Y91566D01*
X55633Y91700D01*
X55366D01*
X55233Y91566D01*
X168427Y2374D02*
X168960D01*
X168694D01*
Y1574D01*
X169227D02*
Y2374D01*
X169627D01*
X169760Y2241D01*
Y1974D01*
X169627Y1841D01*
X169227D01*
X170027Y2241D02*
X170160Y2374D01*
X170427D01*
X170560Y2241D01*
Y2107D01*
X170427Y1974D01*
X170293D01*
X170427D01*
X170560Y1841D01*
Y1708D01*
X170427Y1574D01*
X170160D01*
X170027Y1708D01*
X170826Y2241D02*
X170960Y2374D01*
X171226D01*
X171360Y2241D01*
Y1708D01*
X171226Y1574D01*
X170960D01*
X170826Y1708D01*
Y2241D01*
X155309Y11924D02*
X155842D01*
X155575D01*
Y11124D01*
X156109D02*
Y11924D01*
X156508D01*
X156642Y11791D01*
Y11524D01*
X156508Y11391D01*
X156109D01*
X157441Y11124D02*
X156908D01*
X157441Y11657D01*
Y11791D01*
X157308Y11924D01*
X157042D01*
X156908Y11791D01*
X157708D02*
X157841Y11924D01*
X158108D01*
X158241Y11791D01*
Y11657D01*
X158108Y11524D01*
X158241Y11391D01*
Y11258D01*
X158108Y11124D01*
X157841D01*
X157708Y11258D01*
Y11391D01*
X157841Y11524D01*
X157708Y11657D01*
Y11791D01*
X157841Y11524D02*
X158108D01*
X185234Y28900D02*
X185767D01*
X185500D01*
Y28100D01*
X186034D02*
Y28900D01*
X186433D01*
X186567Y28767D01*
Y28500D01*
X186433Y28367D01*
X186034D01*
X187366Y28100D02*
X186833D01*
X187366Y28633D01*
Y28767D01*
X187233Y28900D01*
X186967D01*
X186833Y28767D01*
X187633Y28233D02*
X187766Y28100D01*
X188033D01*
X188166Y28233D01*
Y28767D01*
X188033Y28900D01*
X187766D01*
X187633Y28767D01*
Y28633D01*
X187766Y28500D01*
X188166D01*
X186409Y71475D02*
X186942D01*
X186675D01*
Y70675D01*
X187209D02*
Y71475D01*
X187608D01*
X187742Y71342D01*
Y71075D01*
X187608Y70942D01*
X187209D01*
X188541Y70675D02*
X188008D01*
X188541Y71208D01*
Y71342D01*
X188408Y71475D01*
X188142D01*
X188008Y71342D01*
X188808D02*
X188941Y71475D01*
X189208D01*
X189341Y71342D01*
Y70808D01*
X189208Y70675D01*
X188941D01*
X188808Y70808D01*
Y71342D01*
X194459Y42475D02*
X194992D01*
X194725D01*
Y41675D01*
X195259D02*
Y42475D01*
X195658D01*
X195792Y42342D01*
Y42075D01*
X195658Y41942D01*
X195259D01*
X196591Y41675D02*
X196058D01*
X196591Y42208D01*
Y42342D01*
X196458Y42475D01*
X196192D01*
X196058Y42342D01*
X197391Y42475D02*
X197125Y42342D01*
X196858Y42075D01*
Y41808D01*
X196991Y41675D01*
X197258D01*
X197391Y41808D01*
Y41942D01*
X197258Y42075D01*
X196858D01*
X155309Y9039D02*
X155842D01*
X155575D01*
Y8239D01*
X156109D02*
Y9039D01*
X156508D01*
X156642Y8905D01*
Y8639D01*
X156508Y8506D01*
X156109D01*
X157441Y8239D02*
X156908D01*
X157441Y8772D01*
Y8905D01*
X157308Y9039D01*
X157042D01*
X156908Y8905D01*
X158108Y8239D02*
Y9039D01*
X157708Y8639D01*
X158241D01*
X193458Y12550D02*
Y13350D01*
X193858D01*
X193991Y13217D01*
Y12950D01*
X193858Y12817D01*
X193458D01*
X193725D02*
X193991Y12550D01*
X194791D02*
X194258D01*
X194791Y13083D01*
Y13217D01*
X194658Y13350D01*
X194391D01*
X194258Y13217D01*
X195458Y12550D02*
Y13350D01*
X195058Y12950D01*
X195591D01*
X198350Y12600D02*
Y13400D01*
X198750D01*
X198883Y13267D01*
Y13000D01*
X198750Y12867D01*
X198350D01*
X198617D02*
X198883Y12600D01*
X199150D02*
X199417D01*
X199283D01*
Y13400D01*
X199150Y13267D01*
X199817D02*
X199950Y13400D01*
X200216D01*
X200350Y13267D01*
Y13133D01*
X200216Y13000D01*
X200350Y12867D01*
Y12733D01*
X200216Y12600D01*
X199950D01*
X199817Y12733D01*
Y12867D01*
X199950Y13000D01*
X199817Y13133D01*
Y13267D01*
X199950Y13000D02*
X200216D01*
X184967Y11000D02*
Y11800D01*
X185367D01*
X185500Y11667D01*
Y11400D01*
X185367Y11267D01*
X184967D01*
X185767Y11000D02*
X186033D01*
X185900D01*
Y11800D01*
X185767Y11667D01*
X136375Y25042D02*
X136242Y25175D01*
X135975D01*
X135842Y25042D01*
Y24508D01*
X135975Y24375D01*
X136242D01*
X136375Y24508D01*
X137175Y24375D02*
X136642D01*
X137175Y24908D01*
Y25042D01*
X137042Y25175D01*
X136775D01*
X136642Y25042D01*
X137441Y24375D02*
X137708D01*
X137575D01*
Y25175D01*
X137441Y25042D01*
X28208Y84792D02*
X28075Y84925D01*
X27808D01*
X27675Y84792D01*
Y84258D01*
X27808Y84125D01*
X28075D01*
X28208Y84258D01*
X29008Y84125D02*
X28474D01*
X29008Y84658D01*
Y84792D01*
X28874Y84925D01*
X28608D01*
X28474Y84792D01*
X29274D02*
X29407Y84925D01*
X29674D01*
X29807Y84792D01*
Y84258D01*
X29674Y84125D01*
X29407D01*
X29274Y84258D01*
Y84792D01*
X201992Y26601D02*
X201725D01*
X201858D01*
Y25935D01*
X201725Y25802D01*
X201592D01*
X201459Y25935D01*
X202791Y26601D02*
X202258D01*
Y26202D01*
X202525Y26335D01*
X202658D01*
X202791Y26202D01*
Y25935D01*
X202658Y25802D01*
X202392D01*
X202258Y25935D01*
X27884Y91525D02*
Y90992D01*
X28150Y90725D01*
X28417Y90992D01*
Y91525D01*
X28683D02*
Y90725D01*
X29083D01*
X29217Y90858D01*
Y91392D01*
X29083Y91525D01*
X28683D01*
X29883Y90725D02*
Y91525D01*
X29483Y91125D01*
X30016D01*
X185434Y64500D02*
Y63700D01*
X185967D01*
X186633D02*
Y64500D01*
X186233Y64100D01*
X186766D01*
X155309Y27874D02*
X155842D01*
X155575D01*
Y27074D01*
X156109D02*
Y27874D01*
X156508D01*
X156642Y27741D01*
Y27474D01*
X156508Y27341D01*
X156109D01*
X156908Y27741D02*
X157042Y27874D01*
X157308D01*
X157441Y27741D01*
Y27607D01*
X157308Y27474D01*
X157175D01*
X157308D01*
X157441Y27341D01*
Y27207D01*
X157308Y27074D01*
X157042D01*
X156908Y27207D01*
X158241Y27074D02*
X157708D01*
X158241Y27607D01*
Y27741D01*
X158108Y27874D01*
X157841D01*
X157708Y27741D01*
X170318Y8209D02*
X170851D01*
X170585D01*
Y7409D01*
X171118D02*
Y8209D01*
X171518D01*
X171651Y8076D01*
Y7809D01*
X171518Y7676D01*
X171118D01*
X171918Y8076D02*
X172051Y8209D01*
X172318D01*
X172451Y8076D01*
Y7942D01*
X172318Y7809D01*
X172184D01*
X172318D01*
X172451Y7676D01*
Y7542D01*
X172318Y7409D01*
X172051D01*
X171918Y7542D01*
X172717Y7409D02*
X172984D01*
X172851D01*
Y8209D01*
X172717Y8076D01*
X155309Y16649D02*
X155842D01*
X155575D01*
Y15849D01*
X156109D02*
Y16649D01*
X156508D01*
X156642Y16516D01*
Y16249D01*
X156508Y16116D01*
X156109D01*
X157441Y15849D02*
X156908D01*
X157441Y16382D01*
Y16516D01*
X157308Y16649D01*
X157042D01*
X156908Y16516D01*
X157708Y16649D02*
X158241D01*
Y16516D01*
X157708Y15983D01*
Y15849D01*
X155375Y19474D02*
X155909D01*
X155642D01*
Y18674D01*
X156175D02*
Y19474D01*
X156575D01*
X156708Y19341D01*
Y19074D01*
X156575Y18941D01*
X156175D01*
X156975Y18674D02*
X157242D01*
X157108D01*
Y19474D01*
X156975Y19341D01*
X157641Y18808D02*
X157775Y18674D01*
X158041D01*
X158175Y18808D01*
Y19341D01*
X158041Y19474D01*
X157775D01*
X157641Y19341D01*
Y19207D01*
X157775Y19074D01*
X158175D01*
X202505Y9612D02*
X203039D01*
X202772D01*
Y8813D01*
X203305D02*
Y9612D01*
X203705D01*
X203838Y9479D01*
Y9212D01*
X203705Y9079D01*
X203305D01*
X204105Y8813D02*
X204372D01*
X204238D01*
Y9612D01*
X204105Y9479D01*
X204771D02*
X204905Y9612D01*
X205171D01*
X205305Y9479D01*
Y9346D01*
X205171Y9212D01*
X205305Y9079D01*
Y8946D01*
X205171Y8813D01*
X204905D01*
X204771Y8946D01*
Y9079D01*
X204905Y9212D01*
X204771Y9346D01*
Y9479D01*
X204905Y9212D02*
X205171D01*
X103603Y105225D02*
X103070D01*
X103337D01*
Y106025D01*
X102803D02*
Y105225D01*
X102404D01*
X102270Y105358D01*
Y105625D01*
X102404Y105758D01*
X102803D01*
X101471Y106025D02*
X102004D01*
X101471Y105492D01*
Y105358D01*
X101604Y105225D01*
X101870D01*
X102004Y105358D01*
X100671Y106025D02*
X101204D01*
X100671Y105492D01*
Y105358D01*
X100804Y105225D01*
X101071D01*
X101204Y105358D01*
X77158Y104950D02*
X76625D01*
X76892D01*
Y105750D01*
X76358D02*
Y104950D01*
X75959D01*
X75825Y105083D01*
Y105350D01*
X75959Y105483D01*
X76358D01*
X75026Y105750D02*
X75559D01*
X75026Y105217D01*
Y105083D01*
X75159Y104950D01*
X75425D01*
X75559Y105083D01*
X74759Y105750D02*
X74492D01*
X74626D01*
Y104950D01*
X74759Y105083D01*
X60350Y97100D02*
X60884D01*
X60617D01*
Y96300D01*
X61150D02*
Y97100D01*
X61550D01*
X61683Y96967D01*
Y96700D01*
X61550Y96567D01*
X61150D01*
X61950Y96300D02*
X62217D01*
X62083D01*
Y97100D01*
X61950Y96967D01*
X62616D02*
X62750Y97100D01*
X63016D01*
X63150Y96967D01*
Y96833D01*
X63016Y96700D01*
X62883D01*
X63016D01*
X63150Y96567D01*
Y96433D01*
X63016Y96300D01*
X62750D01*
X62616Y96433D01*
X55868Y85326D02*
X56401D01*
X56134D01*
Y84526D01*
X56668D02*
Y85326D01*
X57067D01*
X57201Y85193D01*
Y84926D01*
X57067Y84793D01*
X56668D01*
X57467Y84526D02*
X57734D01*
X57601D01*
Y85326D01*
X57467Y85193D01*
X58667Y84526D02*
X58134D01*
X58667Y85060D01*
Y85193D01*
X58534Y85326D01*
X58267D01*
X58134Y85193D01*
X188353Y12550D02*
Y13350D01*
X188753D01*
X188886Y13217D01*
Y12950D01*
X188753Y12817D01*
X188353D01*
X188619D02*
X188886Y12550D01*
X189686D02*
X189152D01*
X189686Y13083D01*
Y13217D01*
X189552Y13350D01*
X189286D01*
X189152Y13217D01*
X189952D02*
X190085Y13350D01*
X190352D01*
X190485Y13217D01*
Y13083D01*
X190352Y12950D01*
X190219D01*
X190352D01*
X190485Y12817D01*
Y12683D01*
X190352Y12550D01*
X190085D01*
X189952Y12683D01*
X201792Y38000D02*
X201525D01*
X201658D01*
Y37333D01*
X201525Y37200D01*
X201392D01*
X201259Y37333D01*
X202458Y37200D02*
Y38000D01*
X202058Y37600D01*
X202591D01*
X6725Y61675D02*
X6458D01*
X6592D01*
Y61008D01*
X6458Y60875D01*
X6325D01*
X6192Y61008D01*
X6992Y60875D02*
X7258D01*
X7125D01*
Y61675D01*
X6992Y61542D01*
X185200Y14750D02*
X186000D01*
Y15150D01*
X185867Y15283D01*
X185333D01*
X185200Y15150D01*
Y14750D01*
X186000Y15550D02*
Y15817D01*
Y15683D01*
X185200D01*
X185333Y15550D01*
Y16217D02*
X185200Y16350D01*
Y16616D01*
X185333Y16750D01*
X185467D01*
X185600Y16616D01*
Y16483D01*
Y16616D01*
X185733Y16750D01*
X185867D01*
X186000Y16616D01*
Y16350D01*
X185867Y16217D01*
D96*
X7200Y5000D02*
G03*
X7200Y5000I-2200J0D01*
G01*
X212200Y105000D02*
G03*
X212200Y105000I-2200J0D01*
G01*
X7200D02*
G03*
X7200Y105000I-2200J0D01*
G01*
X212200Y5000D02*
G03*
X212200Y5000I-2200J0D01*
G01*
X74000Y68301D02*
X77302D01*
X70825D02*
X74000D01*
Y76683D01*
Y64872D02*
X77175D01*
X70825D02*
X74000D01*
Y56617D02*
Y64872D01*
X86667Y68428D02*
Y76683D01*
Y68428D02*
X89842D01*
X83492D02*
X86667D01*
Y56617D02*
Y64999D01*
X89842D01*
X83365D02*
X86667D01*
X74000Y32400D02*
Y40655D01*
X70825D02*
X74000D01*
X77175D01*
X74000Y44084D02*
Y52466D01*
X70825Y44084D02*
X74000D01*
X77302D01*
X112512Y30678D02*
X144770D01*
X112512Y70810D02*
X144770D01*
Y30678D02*
Y70810D01*
X112512Y30678D02*
Y70810D01*
X104892Y30424D02*
X152771D01*
X104892Y70810D02*
X152771D01*
Y30424D02*
Y70810D01*
X104892Y30424D02*
Y70810D01*
X120132Y30678D02*
X137150D01*
X120132Y70810D02*
X137150D01*
Y30678D02*
Y70810D01*
X120132Y30678D02*
Y70810D01*
X86725Y44107D02*
Y52362D01*
Y44107D02*
X89900D01*
X83550D02*
X86725D01*
Y32296D02*
Y40678D01*
X89900D01*
X83423D02*
X86725D01*
D131*
X87425Y7550D02*
G03*
X87425Y7550I-6500J0D01*
G01*
X187625Y56850D02*
G03*
X187625Y56850I-6500J0D01*
G01*
X175050Y70500D02*
G03*
X175050Y70500I-6500J0D01*
G01*
X33275Y21475D02*
G03*
X33275Y21475I-6500J0D01*
G01*
X214200Y56050D02*
G03*
X214200Y56050I-6500J0D01*
G01*
X203525Y70500D02*
G03*
X203525Y70500I-6500J0D01*
G01*
X27475Y87150D02*
G03*
X27475Y87150I-6500J0D01*
G01*
X14275Y87275D02*
G03*
X14275Y87275I-6500J0D01*
G01*
D132*
X66384Y67300D02*
G03*
X66384Y67300I-11684J0D01*
G01*
X42334Y42850D02*
G03*
X42334Y42850I-11684J0D01*
G01*
Y67300D02*
G03*
X42334Y67300I-11684J0D01*
G01*
X66384Y42725D02*
G03*
X66384Y42725I-11684J0D01*
G01*
D133*
X79300Y4800D02*
Y5300D01*
X79050Y5050D02*
X79550D01*
X179250Y54350D02*
X179750D01*
X179500Y54100D02*
Y54600D01*
X170175Y72750D02*
Y73250D01*
X169925Y73000D02*
X170425D01*
X29275Y19600D02*
Y20100D01*
X29025Y19850D02*
X29525D01*
X206075Y53300D02*
Y53800D01*
X205825Y53550D02*
X206325D01*
X198400Y73000D02*
X198900D01*
X198650Y72750D02*
Y73250D01*
X19100Y84650D02*
X19600D01*
X19350Y84400D02*
Y84900D01*
X6150Y84525D02*
Y85025D01*
X5900Y84775D02*
X6400D01*
D134*
X70607Y16423D02*
Y29377D01*
X41143Y16423D02*
Y29377D01*
Y16423D02*
X70607D01*
X41143Y29377D02*
X70607D01*
D135*
X11550Y76825D02*
X17425D01*
X11550Y60800D02*
X17425D01*
Y76825D01*
X11550Y60800D02*
Y76825D01*
X105019Y38298D02*
X120132D01*
X105019Y43378D02*
X120132D01*
X105146Y48458D02*
X120259D01*
X105146Y53538D02*
X120259D01*
X105146Y58618D02*
X120259D01*
X105019Y63698D02*
X120132D01*
X137150Y63825D02*
X152263D01*
X137150Y58618D02*
X152263D01*
X137150Y53538D02*
X152263D01*
X137150Y48458D02*
X152263D01*
X137150Y43378D02*
X152263D01*
X137150Y38171D02*
X152263D01*
X189225Y25748D02*
X199100D01*
X189225Y31548D02*
X199100D01*
Y25748D02*
Y31548D01*
X189225Y25748D02*
Y31548D01*
Y32098D02*
Y37898D01*
X199100Y32098D02*
Y37898D01*
X189225D02*
X199100D01*
X189225Y32098D02*
X199100D01*
X92307Y50234D02*
X98182D01*
X92307Y34209D02*
X98182D01*
Y50234D01*
X92307Y34209D02*
Y50234D01*
X34325Y79925D02*
Y85800D01*
X50350Y79925D02*
Y85800D01*
X34325D02*
X50350D01*
X34325Y79925D02*
X50350D01*
D136*
X102850Y17308D02*
D03*
X108550Y17333D02*
D03*
X91536Y9917D02*
D03*
X97186Y9917D02*
D03*
D137*
X52000Y10490D02*
D03*
%TF.MD5,8bcd1a5a3136c87ebecd21a4ce12d5f4*%
M02*
