M48
;Layer_Color=9474304
;FILE_FORMAT=4:3
METRIC,LZ
;TYPE=PLATED
T01F00S00C0.400
T02F00S00C0.700
T03F00S00C0.750
T04F00S00C0.762
T05F00S00C0.950
T06F00S00C1.000
T07F00S00C1.016
T08F00S00C1.200
T09F00S00C1.270
T10F00S00C1.300
T11F00S00C1.397
T12F00S00C1.450
T13F00S00C1.500
T14F00S00C1.524
T15F00S00C1.800
T16F00S00C2.500
T17F00S00C3.500
%
T01
X0050175Y00156
X0061625Y0012375
Y0011525
Y001055
X006165Y000965
X0073325Y00051
X0171651Y0006413
X0174037Y00077
X0173757Y0010101
X0170125Y0017025
X0164157Y0020201
X016325Y002945
X0171216Y0029475
X0183475Y00143
X0208275Y0014775
X016855Y0064725
X0091825Y0062325
X0092282Y00722
X0091725Y0072775
X0092853
X0093402Y0073343
X0092282Y007335
X0092846Y0073919
X0093974
X002935Y0095422
X00413Y0079275
X00878Y0080325
X008785Y008565
X0093402Y0074493
X0104788Y0080106
X0105596Y0080102
X010639Y0080104
X0107198Y00801
X010719Y0080904
X0106405
X0105588Y0080906
X0104803
T02
X0189427Y000466
Y00072
Y000974
X0194467
Y00072
Y000466
X0199482
Y00072
Y000974
T03
X0183575Y0012375
Y0019475
T04
X0049425Y0001925
X0076425Y0015625
X0080925Y0015725
X01269Y00268
X013185
X016025Y0027474
X0160307Y0022451
Y0019176
Y0015688
Y0011749
Y0008884
X0170093Y0003926
X017345Y000566
X0187275Y00261
X0203705Y0007188
X0201675Y0041625
X019615Y004
X018745Y0073575
X00967Y006185
Y00569
X0102225Y0051125
X0102275Y0046175
X0009447Y0046825
X0004497
X0004475Y0052474
X0009425
X001855Y003565
X002535Y010595
X00432Y01052
X0046347
X00495
X00617Y00947
X0059291Y0081025
X0054517Y0084801
X0032875Y009195
X0072875Y010525
X01053Y01055
X021255Y0078076
T05
X00867Y0028925
X0189439Y001535
T06
X0024275Y0021475
X0029275
X003685Y0020375
Y0017835
Y0022915
X0080925Y001005
Y000505
X01837Y0003885
Y0006425
Y0008965
X02077Y005355
Y005855
X0197025Y0068
Y0073
X016855
Y0068
X0181125Y005935
Y005435
X0020975Y008465
Y008965
X0022761Y0099275
X0025301
X0027841
X0030381
X0007775Y0089775
Y0084775
X0032921Y0099275
X0035461
X0038091
X0040631
X0043171
X0045711
X0048251
X0050791
X007746Y01009
X008
X008254
X009946
X0102
X010454
X014346
X0146
X014854
X016546
X0168
X017054
T07
X004946Y0004775
X0052
X005454
T08
X0011725Y0025925
X019115Y0028698
X019615
Y0035048
X019115
X0011725Y0035925
T09
X0074Y00324
X0086725Y0032296
Y0052362
X0086667Y0056617
X0074
Y0052466
Y0076683
X0086667
T10
X00243Y00065
X00293
X003435
X003935
X020835Y002
Y0025
Y0029975
Y0034975
Y003995
Y004495
X0006075Y00652
Y00702
X0029041Y008825
X0041041
X0043791
X0055791
T11
X0052Y0011125
T12
X0091536Y000313
X0097186
X010285Y0003155
X010855Y000318
Y002412
X010285Y0024095
X0097186Y002407
X0091536
T13
X0095207Y0032234
X0095257Y0052209
X001445Y0058825
X00145Y00788
X003235Y0082875
X0052325Y0082825
T14
X0042975Y001915
X0047975
X0052975
Y002665
X0047975
X0042975
X0067975
Y001915
X0115941Y0035758
Y0040838
Y0046004
Y0050998
Y0056078
Y0061244
Y0066238
X0141214
Y0061244
Y0056078
Y0050998
Y0046004
Y0040838
Y0035758
T15
X00547Y0037725
Y0047725
X00547Y00623
Y00723
X003065Y00723
Y00623
Y004785
Y003785
T16
X0148834Y0035758
Y0040838
Y0046004
Y0050998
Y0056078
Y0061244
Y0066238
X0108575Y0066365
Y0061371
Y0056205
Y0051125
Y0046131
Y0040965
Y0035885
T17
X007Y00878
X0135
X02
M30
