%TF.GenerationSoftware,Altium Limited,Altium Designer,24.3.1 (35)*%
G04 Layer_Color=16711935*
%FSLAX43Y43*%
%MOMM*%
%TF.SameCoordinates,76E1361F-AA3B-45A8-A24B-41510BF92E79*%
%TF.FilePolarity,Positive*%
%TF.FileFunction,Other,Top_Courtyard*%
%TF.Part,Single*%
G01*
G75*
%TA.AperFunction,NonConductor*%
%ADD94C,0.200*%
%ADD143C,0.050*%
D94*
X41275Y16450D02*
X70475D01*
X41275D02*
Y29350D01*
X70475D01*
Y16450D02*
Y29350D01*
X100100Y25295D02*
X105600D01*
X100100Y1955D02*
Y25295D01*
Y1955D02*
X105600D01*
Y25295D01*
X105800Y25320D02*
X111300D01*
X105800Y1980D02*
Y25320D01*
Y1980D02*
X111300D01*
Y25320D01*
X88786Y1930D02*
X94286D01*
Y25270D01*
X88786D02*
X94286D01*
X88786Y1930D02*
Y25270D01*
X94436Y1930D02*
X99936D01*
Y25270D01*
X94436D02*
X99936D01*
X94436Y1930D02*
Y25270D01*
X80975Y17075D02*
Y28675D01*
X71975Y17075D02*
X80975D01*
X71975D02*
Y28675D01*
X80975D01*
X182625Y20200D02*
X184525D01*
X182625Y11650D02*
Y20200D01*
Y11650D02*
X184525D01*
Y20200D01*
D143*
X204325Y75700D02*
X214225D01*
X204325Y65300D02*
Y75700D01*
Y65300D02*
X214225D01*
Y75700D01*
X209275Y70000D02*
Y71000D01*
X208775Y70500D02*
X209775D01*
X66974Y6900D02*
Y7900D01*
X66474Y7400D02*
X67474D01*
X61774Y2450D02*
X72174D01*
X61774D02*
Y12350D01*
X72174D01*
Y2450D02*
Y12350D01*
X31050Y11700D02*
X42650D01*
Y2300D02*
Y11700D01*
X31050Y2300D02*
X42650D01*
X31050D02*
Y11700D01*
X180500Y70500D02*
X181500D01*
X181000Y70000D02*
Y71000D01*
X185950Y65300D02*
Y75700D01*
X176050Y65300D02*
X185950D01*
X176050D02*
Y75700D01*
X185950D01*
X163550Y52225D02*
X173450D01*
Y62625D01*
X163550D02*
X173450D01*
X163550Y52225D02*
Y62625D01*
X168500Y56925D02*
Y57925D01*
X168000Y57425D02*
X169000D01*
X203150Y36650D02*
Y48250D01*
X212550D01*
Y36650D02*
Y48250D01*
X203150Y36650D02*
X212550D01*
X194950Y55550D02*
X195950D01*
X195450Y55050D02*
Y56050D01*
X190500Y50350D02*
Y60750D01*
X200400D01*
Y50350D02*
Y60750D01*
X190500Y50350D02*
X200400D01*
X21000Y2300D02*
Y11700D01*
Y2300D02*
X32600D01*
Y11700D01*
X21000D02*
X32600D01*
X1875Y73500D02*
X11275D01*
X1875Y61900D02*
Y73500D01*
Y61900D02*
X11275D01*
Y73500D01*
X33975Y16195D02*
X40325D01*
Y24555D01*
X33975D02*
X40325D01*
X33975Y16195D02*
Y24555D01*
X37150Y19875D02*
Y20875D01*
X36650Y20375D02*
X37650D01*
X203150Y16700D02*
X212550D01*
Y28300D01*
X203150D02*
X212550D01*
X203150Y16700D02*
Y28300D01*
Y26675D02*
X212550D01*
Y38275D01*
X203150D02*
X212550D01*
X203150Y26675D02*
Y38275D01*
%TF.MD5,4e55e34fa5d4ac7035c2c48b76603d56*%
M02*
