%TF.GenerationSoftware,Altium Limited,Altium Designer,24.3.1 (35)*%
G04 Layer_Color=8388736*
%FSLAX43Y43*%
%MOMM*%
%TF.SameCoordinates,76E1361F-AA3B-45A8-A24B-41510BF92E79*%
%TF.FilePolarity,Negative*%
%TF.FileFunction,Soldermask,Top*%
%TF.Part,Single*%
G01*
G75*
%TA.AperFunction,SMDPad,CuDef*%
%ADD10R,1.100X1.200*%
%ADD13R,2.000X4.000*%
%ADD14R,2.200X1.700*%
%TA.AperFunction,ComponentPad*%
%ADD28C,3.048*%
%ADD31R,3.048X3.048*%
%ADD37C,2.200*%
%ADD38R,2.200X2.200*%
%ADD51R,1.200X1.200*%
%ADD52C,1.200*%
%ADD53C,1.250*%
%ADD54R,1.250X1.250*%
%ADD111C,3.068*%
%ADD112C,2.020*%
%ADD113C,2.520*%
%ADD114C,1.544*%
%ADD115C,3.020*%
%ADD116C,2.489*%
%ADD117C,3.520*%
%ADD118O,1.770X2.560*%
%ADD119O,5.020X3.020*%
%ADD120C,6.020*%
%ADD121C,1.970*%
G04:AMPARAMS|DCode=122|XSize=1.97mm|YSize=1.97mm|CornerRadius=0.497mm|HoleSize=0mm|Usage=FLASHONLY|Rotation=0.000|XOffset=0mm|YOffset=0mm|HoleType=Round|Shape=RoundedRectangle|*
%AMROUNDEDRECTD122*
21,1,1.970,0.975,0,0,0.0*
21,1,0.975,1.970,0,0,0.0*
1,1,0.995,0.488,-0.488*
1,1,0.995,-0.488,-0.488*
1,1,0.995,-0.488,0.488*
1,1,0.995,0.488,0.488*
%
%ADD122ROUNDEDRECTD122*%
%ADD123O,6.020X3.520*%
G04:AMPARAMS|DCode=124|XSize=1.97mm|YSize=1.97mm|CornerRadius=0.497mm|HoleSize=0mm|Usage=FLASHONLY|Rotation=90.000|XOffset=0mm|YOffset=0mm|HoleType=Round|Shape=RoundedRectangle|*
%AMROUNDEDRECTD124*
21,1,1.970,0.975,0,0,90.0*
21,1,0.975,1.970,0,0,90.0*
1,1,0.995,0.488,0.488*
1,1,0.995,0.488,-0.488*
1,1,0.995,-0.488,-0.488*
1,1,0.995,-0.488,0.488*
%
%ADD124ROUNDEDRECTD124*%
%ADD125O,1.798X2.306*%
%ADD126C,2.814*%
%ADD127C,1.820*%
%ADD128C,1.520*%
G04:AMPARAMS|DCode=129|XSize=1.52mm|YSize=1.52mm|CornerRadius=0.385mm|HoleSize=0mm|Usage=FLASHONLY|Rotation=90.000|XOffset=0mm|YOffset=0mm|HoleType=Round|Shape=RoundedRectangle|*
%AMROUNDEDRECTD129*
21,1,1.520,0.750,0,0,90.0*
21,1,0.750,1.520,0,0,90.0*
1,1,0.770,0.375,0.375*
1,1,0.770,0.375,-0.375*
1,1,0.770,-0.375,-0.375*
1,1,0.770,-0.375,0.375*
%
%ADD129ROUNDEDRECTD129*%
%ADD130R,1.520X1.520*%
%TA.AperFunction,SMDPad,CuDef*%
%ADD138R,9.520X3.770*%
%ADD139R,3.770X9.520*%
D10*
X168237Y29475D02*
D03*
X166137D02*
D03*
X206150Y13375D02*
D03*
X208250D02*
D03*
D13*
X76475Y26425D02*
D03*
Y19325D02*
D03*
D14*
X125300Y73705D02*
D03*
Y76245D02*
D03*
X133500D02*
D03*
Y73705D02*
D03*
D28*
X67975Y19150D02*
D03*
X52975Y26650D02*
D03*
X47975D02*
D03*
X42975D02*
D03*
Y19150D02*
D03*
X47975D02*
D03*
X52975D02*
D03*
D31*
X67975Y26650D02*
D03*
D37*
X102850Y3155D02*
D03*
X108550Y3180D02*
D03*
X91536Y24070D02*
D03*
X97186D02*
D03*
D38*
X102850Y24095D02*
D03*
X108550Y24120D02*
D03*
X91536Y3130D02*
D03*
X97186D02*
D03*
D51*
X194467Y9740D02*
D03*
X199482D02*
D03*
X189427D02*
D03*
D52*
X194467Y7200D02*
D03*
Y4660D02*
D03*
X199482Y7200D02*
D03*
Y4660D02*
D03*
X189427Y7200D02*
D03*
Y4660D02*
D03*
D53*
X183575Y12375D02*
D03*
D54*
Y19475D02*
D03*
D111*
X74000Y56617D02*
D03*
Y76683D02*
D03*
X86667Y56617D02*
D03*
Y76683D02*
D03*
X74000Y52466D02*
D03*
Y32400D02*
D03*
X86725Y32296D02*
D03*
Y52362D02*
D03*
D112*
X80925Y5050D02*
D03*
Y10050D02*
D03*
X181125Y59350D02*
D03*
Y54350D02*
D03*
X168550Y73000D02*
D03*
Y68000D02*
D03*
X24275Y21475D02*
D03*
X29275D02*
D03*
X207700Y53550D02*
D03*
Y58550D02*
D03*
X197025Y68000D02*
D03*
Y73000D02*
D03*
X20975Y89650D02*
D03*
Y84650D02*
D03*
X7775Y84775D02*
D03*
Y89775D02*
D03*
X29041Y88250D02*
D03*
X41041D02*
D03*
X43791D02*
D03*
X55791D02*
D03*
D113*
X11725Y25925D02*
D03*
Y35925D02*
D03*
X86700Y28925D02*
D03*
X189439Y15350D02*
D03*
X196150Y28698D02*
D03*
X191150D02*
D03*
Y35048D02*
D03*
X196150D02*
D03*
D114*
X4475Y52474D02*
D03*
X9425D02*
D03*
X4497Y46825D02*
D03*
X9447D02*
D03*
X96700Y56900D02*
D03*
Y61850D02*
D03*
X126900Y26800D02*
D03*
X131850D02*
D03*
D115*
X14500Y78800D02*
D03*
X14450Y58825D02*
D03*
X95257Y52209D02*
D03*
X95207Y32234D02*
D03*
X32350Y82875D02*
D03*
X52325Y82825D02*
D03*
D116*
X49500Y105200D02*
D03*
X187450Y73575D02*
D03*
X76425Y15625D02*
D03*
X212550Y78076D02*
D03*
X201675Y41625D02*
D03*
X49425Y1925D02*
D03*
X72875Y105250D02*
D03*
X32875Y91950D02*
D03*
X54517Y84801D02*
D03*
X18550Y35650D02*
D03*
X61700Y94700D02*
D03*
X59291Y81025D02*
D03*
X43200Y105200D02*
D03*
X173450Y5660D02*
D03*
X80925Y15725D02*
D03*
X25350Y105950D02*
D03*
X46347Y105200D02*
D03*
X102275Y46175D02*
D03*
X102225Y51125D02*
D03*
X160307Y22451D02*
D03*
Y8884D02*
D03*
X187275Y26100D02*
D03*
X105300Y105500D02*
D03*
X170093Y3926D02*
D03*
X160307Y11749D02*
D03*
X196150Y40000D02*
D03*
X160250Y27474D02*
D03*
X160307Y19176D02*
D03*
Y15688D02*
D03*
X203705Y7188D02*
D03*
D117*
X54700Y72300D02*
D03*
Y62300D02*
D03*
X30650Y37850D02*
D03*
Y47850D02*
D03*
Y62300D02*
D03*
Y72300D02*
D03*
X54700Y47725D02*
D03*
Y37725D02*
D03*
D118*
X165460Y100900D02*
D03*
X168000D02*
D03*
X170540D02*
D03*
X143460D02*
D03*
X146000D02*
D03*
X148540D02*
D03*
X99460D02*
D03*
X102000D02*
D03*
X104540D02*
D03*
X77460D02*
D03*
X80000D02*
D03*
X82540D02*
D03*
D119*
X141214Y66238D02*
D03*
Y40838D02*
D03*
Y46004D02*
D03*
Y50998D02*
D03*
Y56078D02*
D03*
Y61244D02*
D03*
X115941Y35758D02*
D03*
Y40838D02*
D03*
Y46004D02*
D03*
Y50998D02*
D03*
Y56078D02*
D03*
Y61244D02*
D03*
Y66238D02*
D03*
X141214Y35758D02*
D03*
D120*
X200000Y87800D02*
D03*
X70000D02*
D03*
X135000D02*
D03*
D121*
X39350Y6500D02*
D03*
X208350Y44950D02*
D03*
X29300Y6500D02*
D03*
X6075Y65200D02*
D03*
X208350Y25000D02*
D03*
Y34975D02*
D03*
D122*
X34350Y6500D02*
D03*
X24300D02*
D03*
D123*
X148834Y40838D02*
D03*
Y46004D02*
D03*
Y50998D02*
D03*
Y56078D02*
D03*
Y61244D02*
D03*
Y66238D02*
D03*
Y35758D02*
D03*
X108575Y40965D02*
D03*
Y46131D02*
D03*
Y51125D02*
D03*
Y56205D02*
D03*
Y61371D02*
D03*
Y66365D02*
D03*
Y35885D02*
D03*
D124*
X208350Y39950D02*
D03*
X6075Y70200D02*
D03*
X208350Y20000D02*
D03*
Y29975D02*
D03*
D125*
X49460Y4775D02*
D03*
X52000D02*
D03*
X54540D02*
D03*
D126*
X52000Y11125D02*
D03*
D127*
X40631Y99275D02*
D03*
X50791D02*
D03*
X30381D02*
D03*
X32921D02*
D03*
X35461D02*
D03*
X38091D02*
D03*
X25301D02*
D03*
X43171D02*
D03*
X45711D02*
D03*
X48251D02*
D03*
X22761D02*
D03*
X27841D02*
D03*
D128*
X36850Y17835D02*
D03*
Y20375D02*
D03*
X183700Y8965D02*
D03*
Y6425D02*
D03*
D129*
X36850Y22915D02*
D03*
D130*
X183700Y3885D02*
D03*
D138*
X209275Y67375D02*
D03*
Y73625D02*
D03*
X181000D02*
D03*
Y67375D02*
D03*
X168500Y60550D02*
D03*
Y54300D02*
D03*
X195450Y52425D02*
D03*
Y58675D02*
D03*
D139*
X70099Y7400D02*
D03*
X63849D02*
D03*
%TF.MD5,297fe2b1913652c492b63882d24fec4c*%
M02*
