%TF.GenerationSoftware,Altium Limited,Altium Designer,24.3.1 (35)*%
G04 Layer_Physical_Order=2*
G04 Layer_Color=16711680*
%FSLAX43Y43*%
%MOMM*%
%TF.SameCoordinates,76E1361F-AA3B-45A8-A24B-41510BF92E79*%
%TF.FilePolarity,Positive*%
%TF.FileFunction,Copper,L2,Bot,Signal*%
%TF.Part,Single*%
G01*
G75*
%TA.AperFunction,Conductor*%
%ADD15C,4.000*%
%ADD16C,3.000*%
%ADD17C,5.000*%
%ADD18C,0.800*%
%ADD19C,2.000*%
%ADD20C,2.500*%
%ADD21C,1.000*%
%ADD22C,0.500*%
%ADD24C,1.500*%
%TA.AperFunction,NonConductor*%
%ADD25C,4.000*%
%TA.AperFunction,ComponentPad*%
%ADD28C,3.048*%
%ADD29C,2.000*%
%ADD30C,2.500*%
%ADD31R,3.048X3.048*%
%ADD32C,1.524*%
%ADD33C,3.000*%
%ADD34C,2.286*%
%ADD35C,3.500*%
%ADD36O,1.750X2.540*%
%ADD37C,2.200*%
%ADD38R,2.200X2.200*%
%ADD39O,5.000X3.000*%
%ADD40C,6.000*%
%ADD41C,1.950*%
G04:AMPARAMS|DCode=42|XSize=1.95mm|YSize=1.95mm|CornerRadius=0.488mm|HoleSize=0mm|Usage=FLASHONLY|Rotation=0.000|XOffset=0mm|YOffset=0mm|HoleType=Round|Shape=RoundedRectangle|*
%AMROUNDEDRECTD42*
21,1,1.950,0.975,0,0,0.0*
21,1,0.975,1.950,0,0,0.0*
1,1,0.975,0.488,-0.488*
1,1,0.975,-0.488,-0.488*
1,1,0.975,-0.488,0.488*
1,1,0.975,0.488,0.488*
%
%ADD42ROUNDEDRECTD42*%
%ADD43O,6.000X3.500*%
G04:AMPARAMS|DCode=44|XSize=1.95mm|YSize=1.95mm|CornerRadius=0.488mm|HoleSize=0mm|Usage=FLASHONLY|Rotation=90.000|XOffset=0mm|YOffset=0mm|HoleType=Round|Shape=RoundedRectangle|*
%AMROUNDEDRECTD44*
21,1,1.950,0.975,0,0,90.0*
21,1,0.975,1.950,0,0,90.0*
1,1,0.975,0.488,0.488*
1,1,0.975,0.488,-0.488*
1,1,0.975,-0.488,-0.488*
1,1,0.975,-0.488,0.488*
%
%ADD44ROUNDEDRECTD44*%
%ADD45O,1.778X2.286*%
%ADD46C,2.794*%
%ADD47C,1.800*%
%ADD48C,1.500*%
G04:AMPARAMS|DCode=49|XSize=1.5mm|YSize=1.5mm|CornerRadius=0.375mm|HoleSize=0mm|Usage=FLASHONLY|Rotation=90.000|XOffset=0mm|YOffset=0mm|HoleType=Round|Shape=RoundedRectangle|*
%AMROUNDEDRECTD49*
21,1,1.500,0.750,0,0,90.0*
21,1,0.750,1.500,0,0,90.0*
1,1,0.750,0.375,0.375*
1,1,0.750,0.375,-0.375*
1,1,0.750,-0.375,-0.375*
1,1,0.750,-0.375,0.375*
%
%ADD49ROUNDEDRECTD49*%
%ADD50R,1.500X1.500*%
%ADD51R,1.200X1.200*%
%ADD52C,1.200*%
%ADD53C,1.250*%
%ADD54R,1.250X1.250*%
%TA.AperFunction,ViaPad*%
%ADD55C,0.800*%
%TA.AperFunction,SMDPad,CuDef*%
%ADD56R,1.450X1.800*%
%ADD57R,1.250X0.800*%
%ADD58R,0.800X1.250*%
%ADD59R,2.200X2.500*%
G04:AMPARAMS|DCode=60|XSize=0.8mm|YSize=1.25mm|CornerRadius=0mm|HoleSize=0mm|Usage=FLASHONLY|Rotation=225.000|XOffset=0mm|YOffset=0mm|HoleType=Round|Shape=Rectangle|*
%AMROTATEDRECTD60*
4,1,4,-0.159,0.725,0.725,-0.159,0.159,-0.725,-0.725,0.159,-0.159,0.725,0.0*
%
%ADD60ROTATEDRECTD60*%

%ADD61R,1.405X2.806*%
%ADD62R,2.400X2.400*%
%ADD63R,0.900X0.950*%
%ADD64R,2.500X1.700*%
%ADD65R,1.700X2.500*%
%ADD66R,0.950X0.900*%
%ADD67R,0.627X1.659*%
G04:AMPARAMS|DCode=68|XSize=1.659mm|YSize=0.627mm|CornerRadius=0.313mm|HoleSize=0mm|Usage=FLASHONLY|Rotation=270.000|XOffset=0mm|YOffset=0mm|HoleType=Round|Shape=RoundedRectangle|*
%AMROUNDEDRECTD68*
21,1,1.659,0.000,0,0,270.0*
21,1,1.032,0.627,0,0,270.0*
1,1,0.627,0.000,-0.516*
1,1,0.627,0.000,0.516*
1,1,0.627,0.000,0.516*
1,1,0.627,0.000,-0.516*
%
%ADD68ROUNDEDRECTD68*%
%ADD69R,1.556X1.505*%
G04:AMPARAMS|DCode=70|XSize=1.874mm|YSize=0.543mm|CornerRadius=0.272mm|HoleSize=0mm|Usage=FLASHONLY|Rotation=180.000|XOffset=0mm|YOffset=0mm|HoleType=Round|Shape=RoundedRectangle|*
%AMROUNDEDRECTD70*
21,1,1.874,0.000,0,0,180.0*
21,1,1.331,0.543,0,0,180.0*
1,1,0.543,-0.665,0.000*
1,1,0.543,0.665,0.000*
1,1,0.543,0.665,0.000*
1,1,0.543,-0.665,0.000*
%
%ADD70ROUNDEDRECTD70*%
%ADD71R,1.874X0.543*%
%ADD72R,1.000X0.700*%
%ADD73R,1.505X1.556*%
%TA.AperFunction,Conductor*%
%ADD74C,0.700*%
%ADD75R,4.429X4.804*%
%ADD76R,3.900X1.800*%
%ADD77R,3.950X4.175*%
%ADD78R,3.860X4.025*%
%ADD79R,3.950X2.950*%
%ADD80R,14.443X8.950*%
%ADD81R,3.944X4.024*%
%ADD82R,3.881X4.024*%
%ADD83R,11.280X5.551*%
%ADD84R,3.886X3.999*%
%ADD85R,9.657X2.444*%
%ADD86R,9.657X2.251*%
%ADD87R,3.861X3.974*%
%ADD88R,9.657X2.351*%
%ADD89R,11.752X5.501*%
%ADD90R,9.657X2.425*%
%ADD91R,11.125X6.733*%
%ADD92R,3.014X2.025*%
G36*
X107725Y81200D02*
Y79450D01*
X106800Y78525D01*
X99850Y78525D01*
X92975Y71650D01*
X91800D01*
X91050Y72400D01*
Y73975D01*
X98500Y81425D01*
X107500D01*
X107725Y81200D01*
D02*
G37*
G36*
X92400Y63300D02*
X93325Y62375D01*
Y57275D01*
X97050Y53550D01*
Y51675D01*
X96982Y51607D01*
Y51607D01*
X93250Y47875D01*
X77825D01*
X70850Y40900D01*
X63475D01*
X58675Y36100D01*
X54200Y36100D01*
X53211Y37089D01*
X53161Y38551D01*
X53674Y39063D01*
X61125Y46515D01*
Y53925D01*
X68750Y61550D01*
X89050Y61550D01*
X90800Y63325D01*
X92400Y63300D01*
D02*
G37*
G36*
X194225Y16050D02*
X199075D01*
X202125Y13000D01*
Y7894D01*
X199880D01*
X199790Y7945D01*
X199587Y8000D01*
X199376D01*
X199173Y7945D01*
X198990Y7840D01*
X198842Y7691D01*
X198736Y7509D01*
X198682Y7305D01*
Y7095D01*
X198736Y6891D01*
X198842Y6709D01*
X198990Y6560D01*
X199173Y6455D01*
X199376Y6400D01*
X199587D01*
X199790Y6455D01*
X199837Y6481D01*
X202125D01*
Y333D01*
X153400Y333D01*
Y26496D01*
X159095Y32200D01*
X160111D01*
X160159Y32083D01*
X159726Y31649D01*
X159614Y31503D01*
X159543Y31333D01*
X159519Y31150D01*
Y28603D01*
X159425Y28549D01*
X159175Y28299D01*
X158999Y27992D01*
X158907Y27651D01*
Y27297D01*
X158999Y26956D01*
X159175Y26649D01*
X159425Y26399D01*
X159732Y26223D01*
X160073Y26131D01*
X160427D01*
X160768Y26223D01*
X161075Y26399D01*
X161325Y26649D01*
X161408Y26794D01*
X164191D01*
X164254Y26768D01*
X164437Y26744D01*
X165687D01*
Y26675D01*
X166887D01*
Y27190D01*
X166919Y27267D01*
X166943Y27450D01*
X166919Y27633D01*
X166887Y27710D01*
Y28325D01*
X165687D01*
Y28156D01*
X164557D01*
X164494Y28182D01*
X164312Y28206D01*
X161378D01*
X161325Y28299D01*
X161075Y28549D01*
X160931Y28632D01*
Y30858D01*
X162273Y32200D01*
X178075Y32200D01*
X194225Y16050D01*
D02*
G37*
%LPC*%
G36*
X87925Y59075D02*
X71850D01*
X70050Y57275D01*
X70050Y49800D01*
X88900D01*
X89690Y50590D01*
X89672Y57328D01*
X87925Y59075D01*
D02*
G37*
G36*
X171216Y30181D02*
X170062D01*
X169879Y30157D01*
X169709Y30086D01*
X169693Y30074D01*
X169236D01*
Y28874D01*
X169694D01*
X169709Y28863D01*
X169879Y28793D01*
X170062Y28769D01*
X171216D01*
X171399Y28793D01*
X171569Y28863D01*
X171715Y28975D01*
X171827Y29122D01*
X171898Y29292D01*
X171922Y29475D01*
X171898Y29657D01*
X171827Y29828D01*
X171715Y29974D01*
X171569Y30086D01*
X171399Y30157D01*
X171216Y30181D01*
D02*
G37*
G36*
X168887Y28325D02*
X167687D01*
Y27559D01*
X167675Y27500D01*
Y26590D01*
X166846Y25761D01*
X158924D01*
X158690Y25714D01*
X158492Y25582D01*
X157192Y24283D01*
X157060Y24084D01*
X157013Y23850D01*
Y7850D01*
X157060Y7616D01*
X157192Y7417D01*
X159367Y5242D01*
X159566Y5110D01*
X159800Y5063D01*
X163101D01*
Y5046D01*
X164401D01*
Y6396D01*
X164361D01*
Y6915D01*
X164422D01*
Y8215D01*
X163072D01*
Y6915D01*
X163138D01*
Y6396D01*
X163101D01*
Y6287D01*
X160053D01*
X158237Y8103D01*
Y23597D01*
X159178Y24537D01*
X167099D01*
X167333Y24584D01*
X167532Y24717D01*
X168719Y25904D01*
X168852Y26103D01*
X168899Y26337D01*
Y26888D01*
X169236D01*
Y26874D01*
X170886D01*
Y28074D01*
X170250D01*
X170061Y28112D01*
X168887D01*
Y28325D01*
D02*
G37*
G36*
X160484Y23794D02*
X160131D01*
X159789Y23702D01*
X159483Y23525D01*
X159233Y23275D01*
X159056Y22969D01*
X158964Y22627D01*
Y22274D01*
X159056Y21932D01*
X159233Y21626D01*
X159483Y21376D01*
X159789Y21199D01*
X160131Y21108D01*
X160484D01*
X160826Y21199D01*
X161132Y21376D01*
X161335Y21579D01*
X165190D01*
X165405Y21622D01*
X165486Y21676D01*
X166376D01*
Y21691D01*
X166804D01*
Y21149D01*
X168761D01*
Y21691D01*
X169509D01*
Y21198D01*
X170536D01*
Y21691D01*
X171333D01*
X171369Y21511D01*
X171482Y21341D01*
X171652Y21228D01*
X171852Y21188D01*
X172053Y21228D01*
X172223Y21341D01*
X172336Y21511D01*
X172376Y21711D01*
Y22040D01*
X172391Y22115D01*
X173001D01*
Y20776D01*
X172862D01*
Y19676D01*
X173508D01*
X173562Y19665D01*
X173616Y19676D01*
X174262D01*
Y20776D01*
X174123D01*
Y22126D01*
X174262D01*
Y23226D01*
X173616D01*
X173562Y23236D01*
X172005D01*
X171852Y23267D01*
X171652Y23227D01*
X171482Y23113D01*
X171369Y22944D01*
X171358Y22889D01*
X171334Y22854D01*
X171326Y22812D01*
X170536D01*
Y23257D01*
X169509D01*
Y22812D01*
X168761D01*
Y23054D01*
X166804D01*
Y22812D01*
X166376D01*
Y22876D01*
X164726D01*
Y22701D01*
X161631D01*
X161559Y22969D01*
X161382Y23275D01*
X161132Y23525D01*
X160826Y23702D01*
X160484Y23794D01*
D02*
G37*
G36*
X184400Y20300D02*
X182750D01*
Y18650D01*
X184400D01*
Y20300D01*
D02*
G37*
G36*
X166176Y20880D02*
X163163D01*
X163085Y20864D01*
X163018Y20820D01*
X162974Y20754D01*
X162959Y20676D01*
Y18651D01*
X162963Y18631D01*
Y18451D01*
X163143D01*
X163163Y18447D01*
X165637D01*
Y17774D01*
X165551Y17662D01*
X165326D01*
X165267Y17651D01*
X164740D01*
X164726Y17651D01*
X164613Y17651D01*
X164599Y17651D01*
X162963D01*
Y17550D01*
X162582D01*
X161528Y18604D01*
X161559Y18657D01*
X161650Y18999D01*
Y19353D01*
X161559Y19694D01*
X161382Y20000D01*
X161132Y20250D01*
X160826Y20427D01*
X160484Y20519D01*
X160131D01*
X159789Y20427D01*
X159483Y20250D01*
X159233Y20000D01*
X159056Y19694D01*
X158964Y19353D01*
Y18999D01*
X159056Y18657D01*
X159233Y18351D01*
X159483Y18101D01*
X159789Y17924D01*
X160131Y17833D01*
X160484D01*
X160826Y17924D01*
X160879Y17955D01*
X162068Y16767D01*
X162217Y16667D01*
X162392Y16632D01*
X162963D01*
Y16451D01*
X164588D01*
X164613Y16451D01*
X164715Y16390D01*
Y16262D01*
X161527D01*
X161382Y16513D01*
X161132Y16763D01*
X160826Y16940D01*
X160484Y17031D01*
X160131D01*
X159789Y16940D01*
X159483Y16763D01*
X159233Y16513D01*
X159056Y16207D01*
X158964Y15865D01*
Y15512D01*
X159056Y15170D01*
X159233Y14864D01*
X159483Y14614D01*
X159789Y14437D01*
X160131Y14345D01*
X160484D01*
X160826Y14437D01*
X161132Y14614D01*
X161382Y14864D01*
X161483Y15039D01*
X164976D01*
X165211Y15085D01*
X165409Y15218D01*
X165759Y15568D01*
X165781Y15601D01*
X167229D01*
Y14554D01*
X166759D01*
Y12598D01*
X167253D01*
Y11862D01*
X166856D01*
X166672Y11825D01*
X166516Y11721D01*
X166412Y11565D01*
X166375Y11381D01*
X166412Y11197D01*
X166516Y11041D01*
X166672Y10936D01*
X166856Y10900D01*
X168187D01*
X168371Y10936D01*
X168527Y11041D01*
X168631Y11197D01*
X168668Y11381D01*
X168631Y11565D01*
X168527Y11721D01*
X168371Y11825D01*
X168187Y11862D01*
X168170D01*
Y12598D01*
X168664D01*
Y14554D01*
X168146D01*
Y15601D01*
X168237D01*
Y18501D01*
X166376D01*
Y18632D01*
X166380Y18651D01*
Y20676D01*
X166376Y20695D01*
Y20876D01*
X166196D01*
X166176Y20880D01*
D02*
G37*
G36*
X160484Y13092D02*
X160131D01*
X159789Y13001D01*
X159483Y12824D01*
X159233Y12574D01*
X159056Y12268D01*
X158964Y11926D01*
Y11572D01*
X159056Y11231D01*
X159233Y10925D01*
X159483Y10674D01*
X159789Y10498D01*
X160131Y10406D01*
X160484D01*
X160826Y10498D01*
X161132Y10674D01*
X161382Y10925D01*
X161559Y11231D01*
X161575Y11290D01*
X162386D01*
X163072Y10604D01*
Y10065D01*
X163773D01*
X164052Y9786D01*
X164201Y9687D01*
X164377Y9652D01*
X166745D01*
X166856Y9630D01*
X168187D01*
X168371Y9666D01*
X168527Y9771D01*
X168631Y9927D01*
X168668Y10111D01*
X168631Y10295D01*
X168527Y10451D01*
X168371Y10555D01*
X168187Y10592D01*
X166856D01*
X166745Y10569D01*
X164567D01*
X164422Y10714D01*
Y11365D01*
X163609D01*
X162900Y12074D01*
X162751Y12173D01*
X162576Y12208D01*
X161575D01*
X161559Y12268D01*
X161382Y12574D01*
X161132Y12824D01*
X160826Y13001D01*
X160484Y13092D01*
D02*
G37*
G36*
X200282Y10540D02*
X198682D01*
Y10362D01*
X197350D01*
X197291Y10350D01*
X196525D01*
Y9150D01*
X197291D01*
X197350Y9138D01*
X198682D01*
Y8940D01*
X200282D01*
Y10540D01*
D02*
G37*
G36*
X179900Y28759D02*
X176625D01*
X176450Y28724D01*
X176301Y28625D01*
X175244Y27568D01*
X175145Y27419D01*
X175110Y27243D01*
Y24739D01*
Y21569D01*
X175145Y21394D01*
X175244Y21245D01*
X176362Y20127D01*
Y19676D01*
X177118D01*
X177162Y19667D01*
X177192D01*
X178974Y17886D01*
Y16216D01*
X178784Y16026D01*
X178657Y16079D01*
Y16127D01*
X177056D01*
X177007Y16127D01*
X176881Y16126D01*
X175280D01*
Y14926D01*
X175776D01*
Y14744D01*
X175811Y14569D01*
X175910Y14420D01*
X176379Y13951D01*
X176528Y13852D01*
X176703Y13817D01*
X183110D01*
X183135Y13791D01*
X183356Y13700D01*
X183594D01*
X183815Y13791D01*
X183984Y13960D01*
X184075Y14181D01*
Y14419D01*
X183984Y14640D01*
X183815Y14809D01*
X183594Y14900D01*
X183356D01*
X183135Y14809D01*
X183061Y14734D01*
X180866D01*
Y15501D01*
Y19528D01*
X180831Y19704D01*
X180732Y19853D01*
X179035Y21550D01*
X177762Y22823D01*
Y23226D01*
X176362D01*
Y22126D01*
X177118D01*
X177162Y22117D01*
X177170D01*
X178386Y20901D01*
X179949Y19338D01*
Y18342D01*
X179822Y18303D01*
X179757Y18400D01*
X177762Y20395D01*
Y20776D01*
X177011D01*
X176027Y21759D01*
Y24047D01*
X176087Y24149D01*
X177737D01*
Y25349D01*
X176087D01*
X176027Y25451D01*
Y26047D01*
X176087Y26149D01*
X177737D01*
Y26290D01*
X178019D01*
Y26149D01*
X179669D01*
Y26290D01*
X179811D01*
X181191Y24910D01*
Y17925D01*
X181226Y17749D01*
X181326Y17601D01*
X185691Y13235D01*
Y12400D01*
X185375D01*
Y11334D01*
X181240D01*
X179199Y13374D01*
X179051Y13474D01*
X178875Y13509D01*
X174290D01*
X170725Y17074D01*
Y17144D01*
X170634Y17365D01*
X170465Y17534D01*
X170244Y17625D01*
X170006D01*
X169785Y17534D01*
X169616Y17365D01*
X169525Y17144D01*
Y16906D01*
X169616Y16685D01*
X169785Y16516D01*
X170006Y16425D01*
X170076D01*
X173776Y12726D01*
X173924Y12626D01*
X174100Y12591D01*
X178685D01*
X180726Y10551D01*
X180874Y10451D01*
X181050Y10416D01*
X185255D01*
X185375Y10400D01*
X185375Y10289D01*
Y9849D01*
X185010Y9484D01*
X184498D01*
X184460Y9548D01*
X184283Y9725D01*
X184067Y9850D01*
X183825Y9915D01*
X183575D01*
X183333Y9850D01*
X183117Y9725D01*
X182940Y9548D01*
X182815Y9332D01*
X182750Y9090D01*
Y8840D01*
X182815Y8598D01*
X182940Y8382D01*
X183117Y8205D01*
X183333Y8080D01*
X183575Y8015D01*
X183825D01*
X184067Y8080D01*
X184283Y8205D01*
X184460Y8382D01*
X184567Y8566D01*
X185200D01*
X185376Y8601D01*
X185524Y8700D01*
X186024Y9200D01*
X187025D01*
X187025Y10400D01*
X187145Y10416D01*
X188102D01*
X188627Y9891D01*
Y8940D01*
X190227D01*
Y10540D01*
X189276D01*
X188616Y11199D01*
X188467Y11299D01*
X188292Y11334D01*
X187025D01*
Y12400D01*
X186609D01*
Y13425D01*
X186574Y13601D01*
X186474Y13749D01*
X182109Y18115D01*
Y25100D01*
X182074Y25276D01*
X182029Y25342D01*
X182128Y25423D01*
X193995Y13556D01*
Y11900D01*
X194008Y11837D01*
Y10540D01*
X193667D01*
Y8940D01*
X195267D01*
Y10540D01*
X194926D01*
Y11887D01*
X194913Y11950D01*
Y13746D01*
X194878Y13921D01*
X194779Y14070D01*
X180224Y28625D01*
X180075Y28724D01*
X179900Y28759D01*
D02*
G37*
G36*
X189630Y16800D02*
X189248D01*
X188879Y16701D01*
X188549Y16510D01*
X188279Y16240D01*
X188088Y15910D01*
X187989Y15541D01*
Y15159D01*
X188088Y14790D01*
X188279Y14460D01*
X188549Y14190D01*
X188879Y13999D01*
X189248Y13900D01*
X189630D01*
X189999Y13999D01*
X190089Y14051D01*
X191191Y12949D01*
Y8529D01*
X190321Y7659D01*
X190086D01*
X190067Y7691D01*
X189918Y7840D01*
X189735Y7945D01*
X189532Y8000D01*
X189321D01*
X189118Y7945D01*
X188935Y7840D01*
X188787Y7691D01*
X188681Y7509D01*
X188627Y7305D01*
Y7095D01*
X188681Y6891D01*
X188787Y6709D01*
X188935Y6560D01*
X188966Y6542D01*
X188932Y6415D01*
X188581D01*
X188406Y6380D01*
X188257Y6281D01*
X187635Y5659D01*
X178925D01*
X178749Y5624D01*
X178601Y5524D01*
X175160Y2084D01*
X169111D01*
X166276Y4919D01*
X166329Y5046D01*
X166340Y5046D01*
X166340Y5046D01*
X166346Y5046D01*
X167551D01*
Y5151D01*
X168171D01*
X168855Y4467D01*
X168842Y4444D01*
X168750Y4102D01*
Y3749D01*
X168842Y3407D01*
X169019Y3101D01*
X169269Y2851D01*
X169575Y2674D01*
X169917Y2583D01*
X170270D01*
X170612Y2674D01*
X170918Y2851D01*
X171168Y3101D01*
X171345Y3407D01*
X171351Y3429D01*
X174432D01*
X174607Y3464D01*
X174756Y3563D01*
X178543Y7350D01*
X178642Y7499D01*
X178677Y7674D01*
Y10340D01*
X178642Y10515D01*
X178543Y10664D01*
X177684Y11523D01*
Y12008D01*
X176034D01*
Y12008D01*
X175935D01*
Y12008D01*
X174285D01*
Y11853D01*
X172167D01*
X172164Y11852D01*
X171016D01*
Y10909D01*
X173291D01*
Y10935D01*
X174285D01*
Y10808D01*
X175935D01*
Y10808D01*
X176034D01*
Y10808D01*
X176965D01*
X177009Y10799D01*
X177110D01*
X177760Y10150D01*
Y10104D01*
X177684Y10008D01*
X177633Y10008D01*
X176034D01*
Y10008D01*
X175935D01*
Y10008D01*
X174933D01*
X174573Y10368D01*
X174425Y10467D01*
X174249Y10502D01*
X174205D01*
X174097Y10609D01*
X173877Y10701D01*
X173638D01*
X173418Y10609D01*
X173373Y10564D01*
X172955D01*
X172819Y10592D01*
X171488D01*
X171304Y10555D01*
X171148Y10451D01*
X171044Y10295D01*
X171007Y10111D01*
X171044Y9927D01*
X171148Y9771D01*
X171304Y9666D01*
X171488Y9630D01*
X172819D01*
X172905Y9647D01*
X173363D01*
X173418Y9592D01*
X173638Y9501D01*
X173877D01*
X174065Y9579D01*
X174285Y9359D01*
Y8808D01*
X175935D01*
Y8808D01*
X176034D01*
Y8808D01*
X177633D01*
X177684Y8808D01*
X177760Y8712D01*
Y7864D01*
X174242Y4346D01*
X171371D01*
X171345Y4444D01*
X171168Y4750D01*
X170918Y5000D01*
X170612Y5177D01*
X170270Y5269D01*
X169917D01*
X169575Y5177D01*
X169491Y5129D01*
X168685Y5935D01*
X168537Y6034D01*
X168361Y6069D01*
X167551D01*
Y6396D01*
X166251D01*
X166251Y5141D01*
Y5135D01*
D01*
X166251Y5123D01*
X166230Y5115D01*
X166124Y5071D01*
X165761Y5434D01*
Y8382D01*
X166745D01*
X166856Y8360D01*
X168187D01*
X168371Y8396D01*
X168527Y8501D01*
X168631Y8657D01*
X168668Y8841D01*
X168631Y9025D01*
X168527Y9181D01*
X168371Y9285D01*
X168187Y9322D01*
X166856D01*
X166745Y9300D01*
X161586D01*
X161559Y9402D01*
X161382Y9708D01*
X161132Y9958D01*
X160826Y10135D01*
X160484Y10227D01*
X160131D01*
X159789Y10135D01*
X159483Y9958D01*
X159233Y9708D01*
X159056Y9402D01*
X158964Y9060D01*
Y8707D01*
X159056Y8365D01*
X159233Y8059D01*
X159483Y7809D01*
X159789Y7632D01*
X160131Y7541D01*
X160484D01*
X160826Y7632D01*
X161132Y7809D01*
X161382Y8059D01*
X161559Y8365D01*
X161563Y8382D01*
X164843D01*
Y5244D01*
X164878Y5069D01*
X164978Y4920D01*
X168597Y1301D01*
X168746Y1201D01*
X168921Y1166D01*
X175350D01*
X175526Y1201D01*
X175674Y1301D01*
X179115Y4741D01*
X182750D01*
Y2935D01*
X183742D01*
X184451Y2226D01*
X184597Y2114D01*
X184767Y2043D01*
X184950Y2019D01*
X195525D01*
X195708Y2043D01*
X195878Y2114D01*
X196024Y2226D01*
X197849Y4051D01*
X197962Y4197D01*
X198032Y4367D01*
X198056Y4550D01*
Y7150D01*
X198175D01*
Y8350D01*
X197718D01*
X197703Y8361D01*
X197533Y8432D01*
X197350Y8456D01*
X197167Y8432D01*
X196997Y8361D01*
X196982Y8350D01*
X196525D01*
Y7150D01*
X196644D01*
Y4843D01*
X195233Y3431D01*
X185242D01*
X184650Y4023D01*
Y4741D01*
X187825D01*
X188001Y4776D01*
X188149Y4876D01*
X188771Y5497D01*
X189023D01*
X189057Y5370D01*
X188935Y5300D01*
X188787Y5151D01*
X188681Y4969D01*
X188627Y4765D01*
Y4555D01*
X188681Y4351D01*
X188787Y4169D01*
X188935Y4020D01*
X189118Y3915D01*
X189321Y3860D01*
X189532D01*
X189735Y3915D01*
X189918Y4020D01*
X189934Y4036D01*
X190392D01*
Y3810D01*
X191592D01*
Y4576D01*
X191603Y4635D01*
Y4648D01*
X191592Y4707D01*
Y5460D01*
X191102D01*
X191064Y5587D01*
X191131Y5632D01*
X192240Y6741D01*
X193808D01*
X193827Y6709D01*
X193975Y6560D01*
X194158Y6455D01*
X194361Y6400D01*
X194572D01*
X194775Y6455D01*
X194958Y6560D01*
X195107Y6709D01*
X195212Y6891D01*
X195267Y7095D01*
Y7305D01*
X195212Y7509D01*
X195107Y7691D01*
X194958Y7840D01*
X194775Y7945D01*
X194572Y8000D01*
X194361D01*
X194158Y7945D01*
X193975Y7840D01*
X193827Y7691D01*
X193808Y7659D01*
X192050D01*
X191874Y7624D01*
X191726Y7524D01*
X190616Y6415D01*
X189921D01*
X189887Y6542D01*
X189918Y6560D01*
X190067Y6709D01*
X190086Y6741D01*
X190511D01*
X190686Y6776D01*
X190835Y6876D01*
X191974Y8015D01*
X192074Y8164D01*
X192109Y8339D01*
Y13139D01*
X192074Y13315D01*
X191974Y13464D01*
X190738Y14700D01*
X190790Y14790D01*
X190889Y15159D01*
Y15541D01*
X190790Y15910D01*
X190599Y16240D01*
X190329Y16510D01*
X189999Y16701D01*
X189630Y16800D01*
D02*
G37*
G36*
X172819Y9322D02*
X171488D01*
X171304Y9285D01*
X171148Y9181D01*
X171044Y9025D01*
X171007Y8841D01*
X171044Y8657D01*
X171148Y8501D01*
X171304Y8396D01*
X171488Y8360D01*
X172691D01*
X173437Y7614D01*
Y7581D01*
X173529Y7360D01*
X173698Y7191D01*
X173918Y7100D01*
X174157D01*
X174377Y7191D01*
X174546Y7360D01*
X174637Y7581D01*
Y7819D01*
X174546Y8040D01*
X174377Y8209D01*
X174157Y8300D01*
X174049D01*
X173192Y9157D01*
X173161Y9177D01*
X173159Y9181D01*
X173003Y9285D01*
X172819Y9322D01*
D02*
G37*
G36*
X168187Y8052D02*
X166856D01*
X166672Y8015D01*
X166516Y7911D01*
X166412Y7755D01*
X166375Y7571D01*
X166412Y7387D01*
X166516Y7231D01*
X166672Y7126D01*
X166856Y7090D01*
X168187D01*
X168298Y7112D01*
X169279D01*
X170246Y6146D01*
X170395Y6046D01*
X170570Y6011D01*
X171204D01*
X171311Y5904D01*
X171532Y5813D01*
X171771D01*
X171991Y5904D01*
X172160Y6073D01*
X172251Y6293D01*
Y6532D01*
X172160Y6752D01*
X171991Y6921D01*
X171771Y7013D01*
X171532D01*
X171330Y6929D01*
X170760D01*
X169794Y7895D01*
X169645Y7995D01*
X169469Y8030D01*
X168298D01*
X168187Y8052D01*
D02*
G37*
%LPD*%
G36*
X180324Y27227D02*
X180243Y27129D01*
X180176Y27173D01*
X180001Y27208D01*
X179669D01*
Y27349D01*
X178019D01*
Y27208D01*
X177737D01*
Y27349D01*
X176489D01*
X176440Y27466D01*
X176815Y27841D01*
X179710D01*
X180324Y27227D01*
D02*
G37*
D15*
X148834Y40838D02*
X150197D01*
X141214D02*
X148834D01*
X139800D02*
X141214D01*
X108575Y56078D02*
X115941D01*
X106907D02*
X108575D01*
X108448Y40838D02*
X108575D01*
X115941D01*
X106907Y35758D02*
X108575D01*
X115941D01*
X139800Y66238D02*
X141214D01*
X148834D01*
X150197D01*
X150084Y61244D02*
X150197D01*
X148834D02*
X150084D01*
X141214D02*
X148834D01*
X139800D02*
X141214D01*
X148834Y35758D02*
X150197D01*
X141214D02*
X148834D01*
X139800D02*
X141214D01*
X148834Y56078D02*
X150197D01*
X141214D02*
X148834D01*
X139800D02*
X141214D01*
X115941Y35758D02*
X117304D01*
X107874Y40838D02*
X108448D01*
X107198D02*
X107874D01*
X115941D02*
X117304D01*
X106907D02*
X107198D01*
X106907Y46004D02*
X108575D01*
X115941D01*
X108575Y50998D02*
X115941D01*
X106907D02*
X108575D01*
X115941Y56078D02*
X117304D01*
X115941Y50998D02*
X117304D01*
X115941Y46004D02*
X117304D01*
D16*
X193300Y20000D02*
X204375D01*
X208350D01*
X204375D02*
Y26000D01*
X208350Y34975D02*
X212625Y30700D01*
Y29275D02*
Y30700D01*
X141214Y46004D02*
X148834D01*
X191150Y28698D02*
Y35048D01*
X196186Y35011D02*
X208314D01*
X108448Y66238D02*
X108575D01*
X115941D01*
X117304D01*
X106907D02*
X108448D01*
X196150Y28698D02*
Y35048D01*
D17*
X54700Y47725D02*
X54700Y47725D01*
X54700Y47725D02*
Y62300D01*
X30650Y47850D02*
Y62300D01*
D18*
X75575Y88550D02*
X78000Y86125D01*
X75575Y88550D02*
Y94675D01*
X69400Y100850D02*
X75575Y94675D01*
X78000Y86125D02*
X82750D01*
X49826Y100850D02*
X69400D01*
X48251Y99275D02*
X49826Y100850D01*
X158924Y25149D02*
X167099D01*
X168287Y26337D01*
Y27500D01*
X157625Y7850D02*
Y23850D01*
X158924Y25149D01*
X159800Y5675D02*
X163705D01*
X157625Y7850D02*
X159800Y5675D01*
X168287Y27500D02*
X170061D01*
X163749Y5748D02*
Y7563D01*
X163747Y7565D02*
X163749Y7563D01*
X23500Y35650D02*
X23525Y35675D01*
X18550Y35650D02*
X23500D01*
X165326Y16001D02*
Y17051D01*
X164976Y15651D02*
X165326Y16001D01*
Y17051D02*
X165551D01*
X160370Y15651D02*
X164976D01*
X192992Y4648D02*
X194454D01*
X192992Y4635D02*
Y4648D01*
X194454D02*
X194467Y4660D01*
X189439Y4648D02*
X190992D01*
Y4635D02*
Y4648D01*
X189427Y4660D02*
X189439Y4648D01*
X72775Y80325D02*
X87800D01*
X68625Y76175D02*
X72775Y80325D01*
X197350Y9750D02*
X199472D01*
X199482Y9740D01*
X46850Y76175D02*
X68625D01*
X35461Y87564D02*
X46850Y76175D01*
X35461Y87564D02*
Y99275D01*
X82750Y86125D02*
X85098Y88473D01*
Y89273D02*
X85703Y89877D01*
X85098Y88473D02*
Y89273D01*
X88175Y93626D02*
Y93651D01*
X85703Y91180D02*
X88100Y93576D01*
X85703Y89877D02*
Y91180D01*
X88125Y93576D02*
X88175Y93626D01*
X88100Y93576D02*
X88125D01*
D19*
X87850Y85650D02*
X96097Y93897D01*
X99491D01*
X148834Y46004D02*
X154304D01*
X160875Y52575D02*
Y82750D01*
X154304Y46004D02*
X160875Y52575D01*
X80925Y5050D02*
X80925Y5050D01*
X20022Y61275D02*
X22800D01*
X148540Y89085D02*
Y100900D01*
X155125Y57537D02*
Y82500D01*
X148540Y89085D02*
X155125Y82500D01*
X160875Y82750D02*
X165460Y87335D01*
X163750Y45550D02*
Y81325D01*
X170540Y88115D01*
X153925Y35725D02*
X163750Y45550D01*
X143460Y88740D02*
X148834Y83366D01*
Y66238D02*
Y83366D01*
X143460Y88740D02*
Y100900D01*
X165460Y87335D02*
Y100900D01*
X170540Y88115D02*
Y100900D01*
X153953Y56365D02*
X155125Y57537D01*
X149121Y56365D02*
X153953D01*
X18850Y60103D02*
X20022Y61275D01*
X11725Y35975D02*
X18850Y43100D01*
Y60103D01*
X22800Y61275D02*
X23550Y62025D01*
Y65200D02*
X30650Y72300D01*
X23550Y62025D02*
Y65200D01*
X187200Y26100D02*
X193300Y20000D01*
X197025Y68000D02*
X197025Y68000D01*
X197025Y73000D02*
X197025Y73000D01*
X181125Y54350D02*
X187200Y48275D01*
X196150Y35048D02*
Y40000D01*
X168550Y73000D02*
X168550Y73000D01*
X187200Y26100D02*
Y48275D01*
X191150Y35048D02*
Y49325D01*
X181125Y59350D02*
X191150Y49325D01*
X208350Y44950D02*
X208350Y44950D01*
X208350Y39950D02*
X208350Y39950D01*
X49443Y4758D02*
X49460Y4775D01*
X49425Y1925D02*
X49443Y1942D01*
X148867Y35725D02*
X153925D01*
X105928Y40678D02*
X106911D01*
X107198Y40965D01*
Y40838D02*
X107325Y40965D01*
X108575D01*
Y35758D02*
Y35885D01*
X108537Y24108D02*
X108550Y24120D01*
X102850Y24095D02*
X102863Y24108D01*
X97861Y40586D02*
X97975Y40700D01*
X100125D02*
X102275Y42850D01*
X97975Y40700D02*
X100125D01*
X102275Y42850D02*
Y46175D01*
X97775Y36419D02*
Y40500D01*
X95191Y32250D02*
X95207Y32234D01*
X29041Y86034D02*
Y88250D01*
Y86034D02*
X32200Y82875D01*
X98181Y49181D02*
X99981Y50981D01*
X98181Y48925D02*
Y49181D01*
X99981Y50981D02*
X102004D01*
X97981Y48725D02*
X98181Y48925D01*
X97981Y48270D02*
X98136Y48425D01*
X102004Y50981D02*
X102093Y51070D01*
X97936Y48270D02*
X97981D01*
X98136Y48425D02*
Y48470D01*
X102093Y51070D02*
X102132Y51032D01*
X97900Y44575D02*
Y48189D01*
X55791Y88250D02*
X55915Y88126D01*
X59391D01*
X54517Y84801D02*
X55716Y86000D01*
X102282Y46168D02*
X108878D01*
X102241Y51140D02*
X108868D01*
X102225Y51125D02*
X102241Y51140D01*
X108868D02*
X108884Y51156D01*
X41041Y88250D02*
X43791D01*
X55716Y86000D02*
Y88025D01*
X52291Y82575D02*
X54517Y84801D01*
D20*
X204375Y26000D02*
X208350Y29975D01*
Y25000D02*
X212625Y29275D01*
D21*
X74350Y87875D02*
Y92550D01*
X79375Y82850D02*
X104400D01*
X74350Y87875D02*
X79375Y82850D01*
X67500Y99400D02*
X74350Y92550D01*
X92218Y39824D02*
X92894Y40500D01*
X89875Y38650D02*
X91049Y39824D01*
X89875Y36600D02*
Y38650D01*
X91049Y39824D02*
X92218D01*
X50175Y15600D02*
X59800D01*
X61625Y12375D02*
Y13775D01*
X59800Y15600D02*
X61625Y13775D01*
X43324Y98151D02*
Y99122D01*
X44875Y96600D02*
X54437D01*
X43171Y99275D02*
X43324Y99122D01*
Y98151D02*
X44875Y96600D01*
X54437D02*
X57237Y99400D01*
X67500D01*
X104400Y82850D02*
X107876Y86326D01*
Y88875D01*
X110400Y91399D01*
X71204Y102421D02*
X72725Y100900D01*
X45711Y99461D02*
X48671Y102421D01*
X71204D01*
X12510Y80990D02*
X14650Y78850D01*
X201625Y41575D02*
X208300D01*
X201575Y41625D02*
X201625Y41575D01*
X88775Y25800D02*
X90975Y28000D01*
X125700D01*
X126900Y26800D01*
X21125Y89414D02*
Y93200D01*
X22761Y94836D02*
Y99275D01*
X43791Y88250D02*
X47307D01*
X53757Y94700D01*
X57375D01*
X45625Y102275D02*
X46150Y102800D01*
Y105003D02*
X46347Y105200D01*
X45625Y99361D02*
Y102275D01*
X46150Y102800D02*
Y105003D01*
X80925Y5050D02*
Y6600D01*
X80925Y8600D02*
Y10050D01*
X80925Y10050D02*
X80925Y10050D01*
Y8600D02*
X80925Y8600D01*
X26355Y23555D02*
X30560D01*
X32550Y17625D02*
Y21565D01*
X30560Y23555D02*
X32550Y21565D01*
Y17625D02*
X38007Y12168D01*
X24255Y36395D02*
Y36700D01*
X24925Y35725D02*
X25230D01*
X23450Y36700D02*
X24255D01*
X28639Y32316D02*
X42109D01*
X24255Y36395D02*
X24925Y35725D01*
X25230D02*
X28639Y32316D01*
X42109D02*
X47775Y26650D01*
X14450Y45175D02*
Y58825D01*
X8000Y38725D02*
X14450Y45175D01*
X8000Y34000D02*
Y38725D01*
X76494Y17294D02*
X77125Y17925D01*
X76494Y15694D02*
Y17294D01*
X160276Y27500D02*
X164312D01*
X160225Y27474D02*
Y31150D01*
X170062Y29475D02*
X171216D01*
X163250Y29450D02*
X164437D01*
X164437Y27450D02*
X166237D01*
X160225Y31150D02*
X168550Y39475D01*
Y64725D01*
X80600Y25800D02*
X88775D01*
X74000Y32400D02*
X80600Y25800D01*
X8000Y34000D02*
X12550Y29450D01*
X35150D01*
X12275Y82754D02*
X12510Y82518D01*
Y80990D02*
Y82518D01*
X184040Y3635D02*
X184950Y2725D01*
X195525D02*
X197350Y4550D01*
X184950Y2725D02*
X195525D01*
X203705Y7188D02*
X203837D01*
X199494D02*
X203705D01*
X197025Y68000D02*
Y69425D01*
Y71425D02*
Y73000D01*
X183790Y3795D02*
X183950Y3635D01*
X184040D01*
X197350Y4550D02*
Y7750D01*
X208300Y41575D02*
X208350Y41525D01*
X168550Y68000D02*
Y69425D01*
X168550Y69425D01*
X168550Y68000D02*
X168550Y68000D01*
X168550Y71425D02*
Y73000D01*
X208275Y14775D02*
Y15786D01*
X208314Y15825D01*
X208350Y17861D02*
Y20000D01*
X208350Y43525D02*
Y44950D01*
Y39950D02*
Y41525D01*
X89683Y60183D02*
X91825Y62325D01*
X89675Y60183D02*
X89683D01*
X35150Y29450D02*
X41550Y23050D01*
X55625D01*
X41300Y79275D02*
X43075Y77500D01*
Y36550D02*
Y77500D01*
Y36550D02*
X52975Y26650D01*
X55625Y23050D02*
X67825Y35250D01*
X88525D01*
X65575Y4775D02*
X76671Y15871D01*
X80776Y15874D02*
X80925Y15725D01*
X80776Y15874D02*
Y17499D01*
X80350Y17925D02*
X80776Y17499D01*
X42075Y3675D02*
X45375Y6975D01*
X24300Y6500D02*
X27125Y3675D01*
X42075D01*
X54273Y5042D02*
X54540Y4775D01*
X45375Y6975D02*
X52568D01*
X54273Y5042D02*
Y5270D01*
X52568Y6975D02*
X54273Y5270D01*
X54540Y4775D02*
X65575D01*
X24275Y19250D02*
X29300Y14225D01*
Y6500D02*
Y14225D01*
X24275Y19250D02*
Y21475D01*
X26355Y23555D01*
X34825Y6975D02*
X35002D01*
X35850Y7823D02*
Y8800D01*
X34350Y6500D02*
X34825Y6975D01*
X35002D02*
X35850Y7823D01*
Y9000D02*
Y11425D01*
X29275Y18000D02*
X35850Y11425D01*
X38007Y9025D02*
Y12168D01*
Y7843D02*
X39350Y6500D01*
X38007Y7843D02*
Y8775D01*
X29275Y18000D02*
Y21475D01*
X32898Y91973D02*
Y99252D01*
X81255Y105300D02*
X82540Y104015D01*
X72025Y105300D02*
X81255D01*
X82540Y100900D02*
Y104015D01*
X104540Y100900D02*
Y101498D01*
X105250Y102208D02*
Y105450D01*
X104540Y101498D02*
X105250Y102208D01*
X96700Y61850D02*
Y66365D01*
X96699Y66365D02*
X96700Y66365D01*
Y61850D02*
X96700Y61850D01*
X99801Y66365D02*
X108575D01*
X104470Y93995D02*
Y100830D01*
X104400Y93925D02*
X104470Y93995D01*
Y100830D02*
X104540Y100900D01*
X45625Y99361D02*
X45711Y99275D01*
Y99461D01*
X37274Y99122D02*
X37938D01*
X38091Y99275D01*
X37261Y99109D02*
X37274Y99122D01*
X110400Y91399D02*
Y94000D01*
X99547Y88953D02*
Y93897D01*
Y88953D02*
X99575Y88925D01*
X99519Y93925D02*
X99547Y93897D01*
X104587Y89062D02*
X104749Y88900D01*
X101600D02*
X104749D01*
X101575Y88925D02*
X101600Y88900D01*
X104749D02*
X104774Y88875D01*
X104587Y89062D02*
Y93738D01*
X104400Y93925D02*
X104587Y93738D01*
X104400Y93925D02*
X107175D01*
X107250Y94000D01*
X72725Y100900D02*
X77114D01*
X77114Y100900D01*
X77460D01*
X77465Y100896D01*
X82352Y93651D02*
X82445Y93745D01*
X82350Y93650D02*
X82352Y93651D01*
X82445Y93745D02*
Y100805D01*
X82540Y100900D01*
X82352Y93651D02*
X85025D01*
X82325Y89600D02*
Y93625D01*
X82299Y89575D02*
X82325Y89600D01*
Y93625D02*
X82350Y93650D01*
X79475Y89575D02*
X82299D01*
X79475Y89575D02*
X79475Y89575D01*
X82299D02*
X82299Y89575D01*
X77472Y89578D02*
Y93647D01*
X77469Y93650D02*
X77472Y93647D01*
Y89578D02*
X77475Y89575D01*
X77465Y93654D02*
Y100896D01*
Y93654D02*
X77469Y93650D01*
X92875Y36400D02*
X95450Y38975D01*
X92350Y35875D02*
X92875Y36400D01*
X38091Y99275D02*
X40631D01*
X110726Y40950D02*
X110807Y40869D01*
X25301Y88901D02*
Y99275D01*
X21125Y93200D02*
X22761Y94836D01*
X16470Y82983D02*
X19383D01*
X25301Y88901D01*
X16241Y82754D02*
X16470Y82983D01*
X88525Y35250D02*
X89875Y36600D01*
X92225Y34250D02*
X92325Y34350D01*
X92350D01*
Y35875D01*
X92225Y32250D02*
X95191D01*
X22761Y99275D02*
X22765Y99279D01*
Y100665D02*
X23717Y101617D01*
X37133D01*
X22765Y99279D02*
Y100665D01*
X38086Y99280D02*
X38091Y99275D01*
X37133Y101617D02*
X38086Y100664D01*
Y99280D02*
Y100664D01*
X93025Y48725D02*
X93725Y48025D01*
X93900D02*
X95450Y46475D01*
Y38975D02*
Y46475D01*
X93725Y48025D02*
X93900D01*
X93723Y50623D02*
X95257Y52157D01*
X93723Y49348D02*
Y50623D01*
X93100Y48725D02*
X93723Y49348D01*
X95257Y52157D02*
Y52209D01*
X92894Y40500D02*
Y44450D01*
X59375Y94700D02*
X61700D01*
X61700Y94700D01*
X59375Y94700D02*
X59375Y94700D01*
X59383Y92134D02*
X59391Y92126D01*
X59375Y94700D02*
X59383Y94692D01*
Y92134D02*
Y94692D01*
D22*
X178925Y5200D02*
X187825D01*
X168921Y1625D02*
X175350D01*
X178925Y5200D01*
X165302Y5244D02*
Y8789D01*
X165250Y8841D02*
X165302Y8789D01*
Y5244D02*
X168921Y1625D01*
X165450Y8841D02*
X167521D01*
X165250D02*
X165450D01*
X163554D02*
X165250D01*
X167012Y5610D02*
X168361D01*
X170045Y3926D01*
X166901Y5721D02*
X167012Y5610D01*
X175110Y11394D02*
X176499D01*
X163547Y10915D02*
X163747Y10715D01*
X162576Y11749D02*
X163410Y10915D01*
X163547D01*
X160307Y11749D02*
X162576D01*
X163772Y10715D02*
X164377Y10111D01*
X167521D01*
X163747Y10715D02*
X163772D01*
X170061Y29474D02*
X170062Y29475D01*
X171216D02*
X171216Y29475D01*
X164437Y29450D02*
X164437Y29450D01*
X175568Y27243D02*
X176625Y28300D01*
X179900D01*
X194454Y13746D01*
X170055Y3887D02*
X174432D01*
X178219Y7674D01*
X183361Y14300D02*
X183475D01*
X183336Y14276D02*
X183361Y14300D01*
X180407Y14276D02*
X183336D01*
X179182D02*
X180407D01*
Y15501D01*
X175568Y24739D02*
Y27243D01*
X194454Y11900D02*
Y13746D01*
X175603Y24774D02*
X177118D01*
X175568Y21569D02*
Y24739D01*
X194454Y11900D02*
X194467Y11887D01*
Y9740D02*
Y11887D01*
X186150Y11950D02*
Y13425D01*
X181650Y17925D02*
X186150Y13425D01*
X181650Y17925D02*
Y25100D01*
X186200Y11800D02*
Y11900D01*
X186150Y11950D02*
X186200Y11900D01*
X180001Y26749D02*
X181650Y25100D01*
X178844Y26749D02*
X180001D01*
X178844Y26749D02*
X178844Y26749D01*
X176912Y26749D02*
X178844D01*
X183760Y9025D02*
X185200D01*
X185975Y9800D02*
X186200D01*
X183700Y8965D02*
X183760Y9025D01*
X185200D02*
X185975Y9800D01*
X190511Y7200D02*
X191650Y8339D01*
X189439Y15350D02*
X191650Y13139D01*
Y8339D02*
Y13139D01*
X189427Y7200D02*
X190511D01*
X170125Y17025D02*
X174100Y13050D01*
X178875D01*
X181050Y10875D01*
X188292D01*
X189427Y9740D01*
X188581Y5956D02*
X190806D01*
X187825Y5200D02*
X188581Y5956D01*
X160350Y8841D02*
X163554D01*
X160307Y8884D02*
X160350Y8841D01*
X190806Y5956D02*
X192050Y7200D01*
X194467D01*
X173752Y10106D02*
X173815Y10043D01*
X174885Y9408D02*
X176859D01*
X172154Y8841D02*
X172162Y8832D01*
X172868D02*
X174000Y7700D01*
Y7700D02*
Y7700D01*
X172162Y8832D02*
X172868D01*
X165551Y17051D02*
X167687D01*
Y13600D02*
Y17051D01*
X177009Y11258D02*
X177300D01*
X178219Y7674D02*
Y10340D01*
X176859Y11408D02*
X177009Y11258D01*
X177300D02*
X178219Y10340D01*
X172167Y11394D02*
X175110D01*
X199482Y7200D02*
X199494Y7188D01*
X203693Y7200D02*
X203705Y7188D01*
X170570Y6470D02*
X171594D01*
X169469Y7571D02*
X170570Y6470D01*
X171594D02*
X171651Y6413D01*
X208314Y35011D02*
X208350Y34975D01*
X196150Y35048D02*
X196186Y35011D01*
X29350Y95425D02*
X30925Y97000D01*
X29350Y95422D02*
Y95425D01*
X30925Y97000D02*
Y97225D01*
X167521Y7571D02*
X169469D01*
X162392Y17091D02*
X162717D01*
X160307Y19176D02*
X162392Y17091D01*
X178710Y21225D02*
X180407Y19528D01*
X177360Y22576D02*
X180407Y19528D01*
X175568Y24739D02*
X175603Y24774D01*
X175568Y21569D02*
X175648Y21490D01*
X176912Y20226D01*
X160332Y19201D02*
X160383Y19151D01*
X162717Y17091D02*
X163747D01*
X163788Y17051D01*
X172154Y10111D02*
X172159Y10106D01*
X173815Y10043D02*
X174249D01*
X172159Y10106D02*
X173752D01*
X174249Y10043D02*
X174885Y9408D01*
X177062Y20226D02*
X177162Y20126D01*
X179432Y16026D02*
Y18076D01*
X177382Y20126D02*
X179432Y18076D01*
X177162Y20126D02*
X177382D01*
X176912Y20226D02*
X177062D01*
Y22676D02*
X177162Y22576D01*
X180407Y15501D02*
Y19528D01*
X177162Y22576D02*
X177360D01*
X176235Y14744D02*
X176703Y14276D01*
X179182D01*
X176235Y14744D02*
Y15526D01*
X176105D02*
X176235D01*
X175110Y11408D02*
X176512D01*
X172154Y11381D02*
X172167Y11394D01*
X178933Y15527D02*
X179432Y16026D01*
X177832Y15527D02*
X178933D01*
X167692Y11381D02*
X167712Y11401D01*
Y13576D01*
X167521Y11381D02*
X167692D01*
X165326Y17051D02*
X165551D01*
X167687Y13600D02*
X167712Y13576D01*
X165176Y16901D02*
X165326Y17051D01*
X92894Y44450D02*
X93019Y44575D01*
X97756Y36400D02*
X97775Y36419D01*
X97900Y44575D02*
X97936Y44611D01*
X32898Y99252D02*
X32921Y99275D01*
X32875Y91950D02*
X32898Y91973D01*
X102275Y46175D02*
X102282Y46168D01*
X108878D02*
X108884Y46162D01*
D24*
X70150Y1925D02*
X73325Y5100D01*
X49425Y1925D02*
X70150D01*
X49443Y1942D02*
Y4758D01*
D25*
X148834Y46004D02*
X150197D01*
X141214D02*
X148834D01*
X139800D02*
X141214D01*
X139800Y50998D02*
X150197D01*
X106907Y61244D02*
X117304D01*
D28*
X74000Y56617D02*
D03*
Y76683D02*
D03*
X67975Y19150D02*
D03*
X52975Y26650D02*
D03*
X47975D02*
D03*
X42975D02*
D03*
Y19150D02*
D03*
X47975D02*
D03*
X52975D02*
D03*
X86667Y56617D02*
D03*
Y76683D02*
D03*
X74000Y52466D02*
D03*
Y32400D02*
D03*
X86725Y32296D02*
D03*
Y52362D02*
D03*
D29*
X80925Y5050D02*
D03*
Y10050D02*
D03*
X181125Y59350D02*
D03*
Y54350D02*
D03*
X168550Y73000D02*
D03*
Y68000D02*
D03*
X24275Y21475D02*
D03*
X29275D02*
D03*
X207700Y53550D02*
D03*
Y58550D02*
D03*
X197025Y68000D02*
D03*
Y73000D02*
D03*
X20975Y89650D02*
D03*
Y84650D02*
D03*
X7775Y84775D02*
D03*
Y89775D02*
D03*
X29041Y88250D02*
D03*
X41041D02*
D03*
X43791D02*
D03*
X55791D02*
D03*
D30*
X11725Y25925D02*
D03*
Y35925D02*
D03*
X86700Y28925D02*
D03*
X189439Y15350D02*
D03*
X196150Y28698D02*
D03*
X191150D02*
D03*
Y35048D02*
D03*
X196150D02*
D03*
D31*
X67975Y26650D02*
D03*
D32*
X4475Y52474D02*
D03*
X9425D02*
D03*
X4497Y46825D02*
D03*
X9447D02*
D03*
X96700Y56900D02*
D03*
Y61850D02*
D03*
X126900Y26800D02*
D03*
X131850D02*
D03*
D33*
X14500Y78800D02*
D03*
X14450Y58825D02*
D03*
X95257Y52209D02*
D03*
X95207Y32234D02*
D03*
X32350Y82875D02*
D03*
X52325Y82825D02*
D03*
D34*
X49500Y105200D02*
D03*
X187450Y73575D02*
D03*
X76425Y15625D02*
D03*
X212550Y78076D02*
D03*
X201675Y41625D02*
D03*
X49425Y1925D02*
D03*
X72875Y105250D02*
D03*
X32875Y91950D02*
D03*
X54517Y84801D02*
D03*
X18550Y35650D02*
D03*
X61700Y94700D02*
D03*
X59291Y81025D02*
D03*
X43200Y105200D02*
D03*
X173450Y5660D02*
D03*
X80925Y15725D02*
D03*
X25350Y105950D02*
D03*
X46347Y105200D02*
D03*
X102275Y46175D02*
D03*
X102225Y51125D02*
D03*
X160307Y22451D02*
D03*
Y8884D02*
D03*
X187275Y26100D02*
D03*
X105300Y105500D02*
D03*
X170093Y3926D02*
D03*
X160307Y11749D02*
D03*
X196150Y40000D02*
D03*
X160250Y27474D02*
D03*
X160307Y19176D02*
D03*
Y15688D02*
D03*
X203705Y7188D02*
D03*
D35*
X54700Y72300D02*
D03*
Y62300D02*
D03*
X30650Y37850D02*
D03*
Y47850D02*
D03*
Y62300D02*
D03*
Y72300D02*
D03*
X54700Y47725D02*
D03*
Y37725D02*
D03*
D36*
X165460Y100900D02*
D03*
X168000D02*
D03*
X170540D02*
D03*
X143460D02*
D03*
X146000D02*
D03*
X148540D02*
D03*
X99460D02*
D03*
X102000D02*
D03*
X104540D02*
D03*
X77460D02*
D03*
X80000D02*
D03*
X82540D02*
D03*
D37*
X102850Y3155D02*
D03*
X108550Y3180D02*
D03*
X91536Y24070D02*
D03*
X97186D02*
D03*
D38*
X102850Y24095D02*
D03*
X108550Y24120D02*
D03*
X91536Y3130D02*
D03*
X97186D02*
D03*
D39*
X141214Y66238D02*
D03*
Y40838D02*
D03*
Y46004D02*
D03*
Y50998D02*
D03*
Y56078D02*
D03*
Y61244D02*
D03*
X115941Y35758D02*
D03*
Y40838D02*
D03*
Y46004D02*
D03*
Y50998D02*
D03*
Y56078D02*
D03*
Y61244D02*
D03*
Y66238D02*
D03*
X141214Y35758D02*
D03*
D40*
X200000Y87800D02*
D03*
X70000D02*
D03*
X135000D02*
D03*
D41*
X39350Y6500D02*
D03*
X208350Y44950D02*
D03*
X29300Y6500D02*
D03*
X6075Y65200D02*
D03*
X208350Y25000D02*
D03*
Y34975D02*
D03*
D42*
X34350Y6500D02*
D03*
X24300D02*
D03*
D43*
X148834Y40838D02*
D03*
Y46004D02*
D03*
Y50998D02*
D03*
Y56078D02*
D03*
Y61244D02*
D03*
Y66238D02*
D03*
Y35758D02*
D03*
X108575Y40965D02*
D03*
Y46131D02*
D03*
Y51125D02*
D03*
Y56205D02*
D03*
Y61371D02*
D03*
Y66365D02*
D03*
Y35885D02*
D03*
D44*
X208350Y39950D02*
D03*
X6075Y70200D02*
D03*
X208350Y20000D02*
D03*
Y29975D02*
D03*
D45*
X49460Y4775D02*
D03*
X52000D02*
D03*
X54540D02*
D03*
D46*
X52000Y11125D02*
D03*
D47*
X40631Y99275D02*
D03*
X50791D02*
D03*
X30381D02*
D03*
X32921D02*
D03*
X35461D02*
D03*
X38091D02*
D03*
X25301D02*
D03*
X43171D02*
D03*
X45711D02*
D03*
X48251D02*
D03*
X22761D02*
D03*
X27841D02*
D03*
D48*
X36850Y17835D02*
D03*
Y20375D02*
D03*
X183700Y8965D02*
D03*
Y6425D02*
D03*
D49*
X36850Y22915D02*
D03*
D50*
X183700Y3885D02*
D03*
D51*
X194467Y9740D02*
D03*
X199482D02*
D03*
X189427D02*
D03*
D52*
X194467Y7200D02*
D03*
Y4660D02*
D03*
X199482Y7200D02*
D03*
Y4660D02*
D03*
X189427Y7200D02*
D03*
Y4660D02*
D03*
D53*
X183575Y12375D02*
D03*
D54*
Y19475D02*
D03*
D55*
X87850Y85650D02*
D03*
X50175Y15600D02*
D03*
X171216Y29475D02*
D03*
X163250Y29450D02*
D03*
X168550Y64725D02*
D03*
X183475Y14300D02*
D03*
X170125Y17025D02*
D03*
X174037Y7700D02*
D03*
X87800Y80325D02*
D03*
X208275Y14775D02*
D03*
X171651Y6413D02*
D03*
X91825Y62325D02*
D03*
X105596Y80102D02*
D03*
X104788Y80106D02*
D03*
X104803Y80906D02*
D03*
X105588D02*
D03*
X93974Y73919D02*
D03*
X93402Y73343D02*
D03*
Y74493D02*
D03*
X92846Y73919D02*
D03*
X91725Y72775D02*
D03*
X92282Y73350D02*
D03*
Y72200D02*
D03*
X92853Y72775D02*
D03*
X107190Y80904D02*
D03*
X106405D02*
D03*
X106390Y80104D02*
D03*
X41300Y79275D02*
D03*
X73325Y5100D02*
D03*
X61650Y9650D02*
D03*
X61625Y10550D02*
D03*
Y11525D02*
D03*
Y12375D02*
D03*
X29350Y95422D02*
D03*
X107198Y80100D02*
D03*
X173757Y10101D02*
D03*
X164157Y20201D02*
D03*
D56*
X39151Y72200D02*
D03*
Y65650D02*
D03*
X36701Y72200D02*
D03*
Y65650D02*
D03*
X24675Y43800D02*
D03*
Y37250D02*
D03*
X22225Y43800D02*
D03*
Y37250D02*
D03*
X46650Y57025D02*
D03*
Y63575D02*
D03*
X49100Y57025D02*
D03*
Y63575D02*
D03*
X46656Y65775D02*
D03*
Y72325D02*
D03*
X49106Y65775D02*
D03*
Y72325D02*
D03*
X49106Y53275D02*
D03*
Y46725D02*
D03*
X46656Y53275D02*
D03*
Y46725D02*
D03*
X46650Y37975D02*
D03*
Y44525D02*
D03*
X49100Y37975D02*
D03*
Y44525D02*
D03*
X39150Y53200D02*
D03*
Y46650D02*
D03*
X36700Y53200D02*
D03*
Y46650D02*
D03*
X39150Y44425D02*
D03*
Y37875D02*
D03*
X36700Y44425D02*
D03*
Y37875D02*
D03*
X39150Y63475D02*
D03*
Y56925D02*
D03*
X36700Y63475D02*
D03*
Y56925D02*
D03*
X24675Y61250D02*
D03*
Y54700D02*
D03*
X22225Y61250D02*
D03*
Y54700D02*
D03*
X22225Y45975D02*
D03*
Y52525D02*
D03*
X24675Y45975D02*
D03*
Y52525D02*
D03*
D57*
X186200Y9800D02*
D03*
Y11800D02*
D03*
X178844Y24749D02*
D03*
Y26749D02*
D03*
X170061Y29474D02*
D03*
Y27474D02*
D03*
X168550Y69425D02*
D03*
Y71425D02*
D03*
X208350Y43525D02*
D03*
Y41525D02*
D03*
X197025Y69425D02*
D03*
Y71425D02*
D03*
X92225Y32250D02*
D03*
Y34250D02*
D03*
X80925Y8600D02*
D03*
Y6600D02*
D03*
X164437Y29450D02*
D03*
Y27450D02*
D03*
X175110Y11408D02*
D03*
Y9408D02*
D03*
X176859Y11408D02*
D03*
Y9408D02*
D03*
X177832Y15527D02*
D03*
Y17527D02*
D03*
X176105Y15526D02*
D03*
Y17526D02*
D03*
X176912Y26749D02*
D03*
Y24749D02*
D03*
X208314Y17825D02*
D03*
Y15825D02*
D03*
X165551Y19051D02*
D03*
Y17051D02*
D03*
X163788Y19051D02*
D03*
Y17051D02*
D03*
X165551Y20276D02*
D03*
Y22276D02*
D03*
X197350Y9750D02*
D03*
Y7750D02*
D03*
D58*
X192992Y4635D02*
D03*
X190992D02*
D03*
X37950Y8900D02*
D03*
X35950D02*
D03*
X30925Y97225D02*
D03*
X32925D02*
D03*
X25075Y97150D02*
D03*
X23075D02*
D03*
X57375Y94700D02*
D03*
X59375D02*
D03*
X77475Y89575D02*
D03*
X79475D02*
D03*
X99575Y88925D02*
D03*
X101575D02*
D03*
X168287Y27500D02*
D03*
X166287D02*
D03*
D59*
X173837Y17051D02*
D03*
X166937D02*
D03*
D60*
X183168Y53343D02*
D03*
X184582Y54757D02*
D03*
D61*
X96699Y66365D02*
D03*
X85401Y89575D02*
D03*
X82299D02*
D03*
X107876Y88875D02*
D03*
X104774D02*
D03*
X99801Y66365D02*
D03*
D62*
X77469Y93650D02*
D03*
X82350D02*
D03*
X93025Y48725D02*
D03*
X97906D02*
D03*
X92875Y36400D02*
D03*
X97756D02*
D03*
X97900Y44575D02*
D03*
X93019D02*
D03*
X104400Y93925D02*
D03*
X99519D02*
D03*
X92894Y40500D02*
D03*
X97775D02*
D03*
D63*
X80275Y17925D02*
D03*
X77125Y17925D02*
D03*
X163751Y5721D02*
D03*
X166901Y5721D02*
D03*
X88175Y93651D02*
D03*
X85025Y93651D02*
D03*
X110400Y94000D02*
D03*
X107250Y94000D02*
D03*
D64*
X12241Y82754D02*
D03*
X16241D02*
D03*
D65*
X59391Y92126D02*
D03*
Y88126D02*
D03*
D66*
X163747Y10715D02*
D03*
X163747Y7565D02*
D03*
D67*
X170022Y22227D02*
D03*
D68*
X171852D02*
D03*
X170937Y20274D02*
D03*
D69*
X167782Y20300D02*
D03*
Y22101D02*
D03*
D70*
X167521Y11381D02*
D03*
Y10111D02*
D03*
Y8841D02*
D03*
Y7571D02*
D03*
X172154D02*
D03*
Y8841D02*
D03*
Y10111D02*
D03*
D71*
Y11381D02*
D03*
D72*
X173562Y22676D02*
D03*
X177062D02*
D03*
Y20226D02*
D03*
X173562D02*
D03*
D73*
X169513Y13576D02*
D03*
X167712D02*
D03*
D74*
X170022Y22252D02*
X171828D01*
X167782D02*
X170022D01*
X165514Y22238D02*
X165551Y22276D01*
X165575Y22252D02*
X167782D01*
X165302D02*
X165575D01*
X165190Y22140D02*
X165302Y22252D01*
X160307Y22140D02*
X165190D01*
X160643Y22451D02*
X160681Y22488D01*
X173562Y20226D02*
Y22676D01*
X171889D02*
X173562D01*
X171852Y22227D02*
Y22639D01*
X171889Y22676D01*
X171828Y22252D02*
X171852Y22227D01*
X165551Y22276D02*
X165575Y22252D01*
D75*
X63461Y10352D02*
D03*
D76*
X22800Y61275D02*
D03*
D77*
X23425Y44862D02*
D03*
D78*
X23239Y53612D02*
D03*
D79*
X23450Y36700D02*
D03*
D80*
X145003Y48475D02*
D03*
D81*
X47853Y45637D02*
D03*
D82*
X37935Y45562D02*
D03*
D83*
X51560Y55150D02*
D03*
D84*
X47888Y64675D02*
D03*
D85*
X50604Y72003D02*
D03*
D86*
X50604Y38175D02*
D03*
D87*
X37921Y64562D02*
D03*
D88*
X35111Y72000D02*
D03*
D89*
X34026Y55075D02*
D03*
D90*
X35104Y38088D02*
D03*
D91*
X78137Y54328D02*
D03*
D92*
X164669Y19663D02*
D03*
%TF.MD5,6c91a82aa3d330dfefe74b89c133d63a*%
M02*
