%TF.GenerationSoftware,Altium Limited,Altium Designer,24.3.1 (35)*%
G04 Layer_Color=32768*
%FSLAX43Y43*%
%MOMM*%
%TF.SameCoordinates,76E1361F-AA3B-45A8-A24B-41510BF92E79*%
%TF.FilePolarity,Positive*%
%TF.FileFunction,Other,Top_Component_Center*%
%TF.Part,Single*%
G01*
G75*
%TA.AperFunction,NonConductor*%
%ADD133C,0.100*%
%ADD143C,0.050*%
D133*
X55375Y22900D02*
X56375D01*
X55875Y22400D02*
Y23400D01*
X102350Y13625D02*
X103350D01*
X102850Y13125D02*
Y14125D01*
X108050Y13650D02*
X109050D01*
X108550Y13150D02*
Y14150D01*
X91036Y13600D02*
X92036D01*
X91536Y13100D02*
Y14100D01*
X96686Y13600D02*
X97686D01*
X97186Y13100D02*
Y14100D01*
X76475Y22375D02*
Y23375D01*
X75975Y22875D02*
X76975D01*
X183075Y15925D02*
X184075D01*
X183575Y15425D02*
Y16425D01*
D143*
X36350Y7000D02*
X37350D01*
X36850Y6500D02*
Y7500D01*
X207850Y41950D02*
Y42950D01*
X207350Y42450D02*
X208350D01*
X26800Y6500D02*
Y7500D01*
X26300Y7000D02*
X27300D01*
X6075Y67700D02*
X7075D01*
X6575Y67200D02*
Y68200D01*
X207350Y22500D02*
X208350D01*
X207850Y22000D02*
Y23000D01*
X207350Y32475D02*
X208350D01*
X207850Y31975D02*
Y32975D01*
%TF.MD5,944630a400b2fb9686d9ee62055b4760*%
M02*
