%TF.GenerationSoftware,Altium Limited,Altium Designer,24.3.1 (35)*%
G04 Layer_Color=0*
%FSLAX43Y43*%
%MOMM*%
%TF.SameCoordinates,76E1361F-AA3B-45A8-A24B-41510BF92E79*%
%TF.FilePolarity,Positive*%
%TF.FileFunction,Plated,1,2,PTH,Drill*%
%TF.Part,Single*%
G01*
G75*
%TA.AperFunction,ComponentDrill*%
%ADD145C,1.270*%
%ADD146C,1.000*%
%ADD147C,1.200*%
%ADD148C,1.524*%
%ADD149C,0.762*%
%ADD150C,1.500*%
%ADD151C,0.762*%
%ADD152C,1.800*%
%ADD153C,0.950*%
%ADD154C,1.000*%
%ADD155C,1.450*%
%ADD156C,3.500*%
%ADD157C,1.300*%
%ADD158C,2.500*%
%ADD159C,1.200*%
%ADD160C,1.300*%
%ADD161C,1.016*%
%ADD162C,1.397*%
%ADD163C,1.500*%
%ADD164C,0.700*%
%ADD165C,0.750*%
%TA.AperFunction,ViaDrill,NotFilled*%
%ADD166C,0.400*%
D145*
X74000Y56617D02*
D03*
Y76683D02*
D03*
X86667Y56617D02*
D03*
Y76683D02*
D03*
X74000Y52466D02*
D03*
Y32400D02*
D03*
X86725Y32296D02*
D03*
Y52362D02*
D03*
D146*
X80925Y5050D02*
D03*
Y10050D02*
D03*
X181125Y59350D02*
D03*
Y54350D02*
D03*
X168550Y73000D02*
D03*
Y68000D02*
D03*
X207700Y53550D02*
D03*
Y58550D02*
D03*
X197025Y68000D02*
D03*
Y73000D02*
D03*
X20975Y89650D02*
D03*
Y84650D02*
D03*
X7775Y84775D02*
D03*
Y89775D02*
D03*
X36850Y17835D02*
D03*
Y20375D02*
D03*
Y22915D02*
D03*
X183700Y8965D02*
D03*
Y6425D02*
D03*
Y3885D02*
D03*
D147*
X11725Y25925D02*
D03*
Y35925D02*
D03*
D148*
X67975Y26650D02*
D03*
Y19150D02*
D03*
X52975Y26650D02*
D03*
X47975D02*
D03*
X42975D02*
D03*
Y19150D02*
D03*
X47975D02*
D03*
X52975D02*
D03*
X141214Y66238D02*
D03*
Y40838D02*
D03*
Y46004D02*
D03*
Y50998D02*
D03*
Y56078D02*
D03*
Y61244D02*
D03*
X115941Y35758D02*
D03*
Y40838D02*
D03*
Y46004D02*
D03*
Y50998D02*
D03*
Y56078D02*
D03*
Y61244D02*
D03*
Y66238D02*
D03*
X141214Y35758D02*
D03*
D149*
X4475Y52474D02*
D03*
X9425D02*
D03*
X4497Y46825D02*
D03*
X9447D02*
D03*
X212550Y78076D02*
D03*
X201675Y41625D02*
D03*
X72875Y105250D02*
D03*
X54517Y84801D02*
D03*
X61700Y94700D02*
D03*
X126900Y26800D02*
D03*
X131850D02*
D03*
X25350Y105950D02*
D03*
D150*
X14500Y78800D02*
D03*
X14450Y58825D02*
D03*
X95257Y52209D02*
D03*
X95207Y32234D02*
D03*
D151*
X49500Y105200D02*
D03*
X96700Y56900D02*
D03*
Y61850D02*
D03*
X187450Y73575D02*
D03*
X76425Y15625D02*
D03*
X49425Y1925D02*
D03*
X32875Y91950D02*
D03*
X18550Y35650D02*
D03*
X59291Y81025D02*
D03*
X43200Y105200D02*
D03*
X173450Y5660D02*
D03*
X80925Y15725D02*
D03*
X46347Y105200D02*
D03*
X102275Y46175D02*
D03*
X102225Y51125D02*
D03*
X160307Y22451D02*
D03*
Y8884D02*
D03*
X187275Y26100D02*
D03*
X105300Y105500D02*
D03*
X170093Y3926D02*
D03*
X160307Y11749D02*
D03*
X196150Y40000D02*
D03*
X160250Y27474D02*
D03*
X160307Y19176D02*
D03*
Y15688D02*
D03*
X203705Y7188D02*
D03*
D152*
X54700Y72300D02*
D03*
Y62300D02*
D03*
X30650Y37850D02*
D03*
Y47850D02*
D03*
Y62300D02*
D03*
Y72300D02*
D03*
X54700Y47725D02*
D03*
Y37725D02*
D03*
D153*
X86700Y28925D02*
D03*
X189439Y15350D02*
D03*
D154*
X165460Y100900D02*
D03*
X168000D02*
D03*
X170540D02*
D03*
X143460D02*
D03*
X146000D02*
D03*
X148540D02*
D03*
X24275Y21475D02*
D03*
X29275D02*
D03*
X99460Y100900D02*
D03*
X102000D02*
D03*
X104540D02*
D03*
X77460D02*
D03*
X80000D02*
D03*
X82540D02*
D03*
X40631Y99275D02*
D03*
X50791D02*
D03*
X30381D02*
D03*
X32921D02*
D03*
X35461D02*
D03*
X38091D02*
D03*
X25301D02*
D03*
X43171D02*
D03*
X45711D02*
D03*
X48251D02*
D03*
X22761D02*
D03*
X27841D02*
D03*
D155*
X102850Y3155D02*
D03*
Y24095D02*
D03*
X108550Y3180D02*
D03*
Y24120D02*
D03*
X91536Y24070D02*
D03*
Y3130D02*
D03*
X97186Y24070D02*
D03*
Y3130D02*
D03*
D156*
X200000Y87800D02*
D03*
X70000D02*
D03*
X135000D02*
D03*
D157*
X39350Y6500D02*
D03*
X34350D02*
D03*
X24300D02*
D03*
X29300D02*
D03*
X29041Y88250D02*
D03*
X41041D02*
D03*
X43791D02*
D03*
X55791D02*
D03*
D158*
X148834Y40838D02*
D03*
Y46004D02*
D03*
Y50998D02*
D03*
Y56078D02*
D03*
Y61244D02*
D03*
Y66238D02*
D03*
Y35758D02*
D03*
X108575Y40965D02*
D03*
Y46131D02*
D03*
Y51125D02*
D03*
Y56205D02*
D03*
Y61371D02*
D03*
Y66365D02*
D03*
Y35885D02*
D03*
D159*
X196150Y28698D02*
D03*
X191150D02*
D03*
Y35048D02*
D03*
X196150D02*
D03*
D160*
X208350Y44950D02*
D03*
Y39950D02*
D03*
X6075Y70200D02*
D03*
Y65200D02*
D03*
X208350Y20000D02*
D03*
Y25000D02*
D03*
Y29975D02*
D03*
Y34975D02*
D03*
D161*
X49460Y4775D02*
D03*
X52000D02*
D03*
X54540D02*
D03*
D162*
X52000Y11125D02*
D03*
D163*
X32350Y82875D02*
D03*
X52325Y82825D02*
D03*
D164*
X194467Y9740D02*
D03*
Y7200D02*
D03*
Y4660D02*
D03*
X199482Y9740D02*
D03*
Y7200D02*
D03*
Y4660D02*
D03*
X189427Y9740D02*
D03*
Y7200D02*
D03*
Y4660D02*
D03*
D165*
X183575Y12375D02*
D03*
Y19475D02*
D03*
D166*
X87850Y85650D02*
D03*
X50175Y15600D02*
D03*
X171216Y29475D02*
D03*
X163250Y29450D02*
D03*
X168550Y64725D02*
D03*
X183475Y14300D02*
D03*
X170125Y17025D02*
D03*
X174037Y7700D02*
D03*
X87800Y80325D02*
D03*
X208275Y14775D02*
D03*
X171651Y6413D02*
D03*
X91825Y62325D02*
D03*
X105596Y80102D02*
D03*
X104788Y80106D02*
D03*
X104803Y80906D02*
D03*
X105588D02*
D03*
X93974Y73919D02*
D03*
X93402Y73343D02*
D03*
Y74493D02*
D03*
X92846Y73919D02*
D03*
X91725Y72775D02*
D03*
X92282Y73350D02*
D03*
Y72200D02*
D03*
X92853Y72775D02*
D03*
X107190Y80904D02*
D03*
X106405D02*
D03*
X106390Y80104D02*
D03*
X41300Y79275D02*
D03*
X73325Y5100D02*
D03*
X61650Y9650D02*
D03*
X61625Y10550D02*
D03*
Y11525D02*
D03*
Y12375D02*
D03*
X29350Y95422D02*
D03*
X107198Y80100D02*
D03*
X173757Y10101D02*
D03*
X164157Y20201D02*
D03*
%TF.MD5,17b073713268a6fa941320ff9543f5f4*%
M02*
