%TF.GenerationSoftware,Altium Limited,Altium Designer,24.3.1 (35)*%
G04 Layer_Color=8388736*
%FSLAX43Y43*%
%MOMM*%
%TF.SameCoordinates,76E1361F-AA3B-45A8-A24B-41510BF92E79*%
%TF.FilePolarity,Positive*%
%TF.FileFunction,Other,Bottom_3D_Body*%
%TF.Part,Single*%
G01*
G75*
%TA.AperFunction,NonConductor*%
%ADD94C,0.200*%
G36*
X128488Y74425D02*
X128489Y74426D01*
X128493Y74429D01*
X128499Y74435D01*
X128508Y74442D01*
X128519Y74450D01*
X128532Y74459D01*
X128546Y74469D01*
X128563Y74479D01*
X128564D01*
X128564Y74480D01*
X128567Y74482D01*
X128570Y74483D01*
X128579Y74488D01*
X128590Y74494D01*
X128603Y74501D01*
X128617Y74508D01*
X128631Y74514D01*
X128645Y74520D01*
Y74443D01*
X128644D01*
X128642Y74442D01*
X128639Y74440D01*
X128634Y74438D01*
X128629Y74435D01*
X128622Y74431D01*
X128606Y74423D01*
X128589Y74412D01*
X128569Y74398D01*
X128549Y74384D01*
X128530Y74368D01*
X128529Y74368D01*
X128528Y74367D01*
X128525Y74364D01*
X128522Y74361D01*
X128514Y74353D01*
X128503Y74341D01*
X128492Y74329D01*
X128480Y74314D01*
X128469Y74299D01*
X128460Y74283D01*
X128409D01*
Y74926D01*
X128488D01*
Y74425D01*
D02*
G37*
G36*
X128804Y74974D02*
X128808Y74973D01*
X128813Y74970D01*
X128819Y74968D01*
X128827Y74964D01*
X128835Y74960D01*
X128844Y74956D01*
X128865Y74945D01*
X128888Y74932D01*
X128913Y74916D01*
X128938Y74898D01*
X128939D01*
X128942Y74899D01*
X128945Y74901D01*
X128951Y74903D01*
X128958Y74907D01*
X128965Y74910D01*
X128974Y74913D01*
X128984Y74917D01*
X128996Y74921D01*
X129008Y74924D01*
X129021Y74928D01*
X129035Y74931D01*
X129064Y74935D01*
X129080Y74936D01*
X129096Y74937D01*
X129104D01*
X129111Y74936D01*
X129118Y74935D01*
X129127Y74934D01*
X129137Y74933D01*
X129148Y74932D01*
X129173Y74927D01*
X129199Y74919D01*
X129213Y74914D01*
X129226Y74908D01*
X129240Y74903D01*
X129253Y74895D01*
X129254Y74894D01*
X129257Y74893D01*
X129260Y74891D01*
X129265Y74888D01*
X129271Y74883D01*
X129278Y74878D01*
X129285Y74872D01*
X129293Y74865D01*
X129303Y74857D01*
X129311Y74848D01*
X129320Y74838D01*
X129329Y74828D01*
X129338Y74817D01*
X129347Y74804D01*
X129363Y74778D01*
Y74777D01*
X129364Y74774D01*
X129366Y74770D01*
X129368Y74764D01*
X129371Y74757D01*
X129374Y74748D01*
X129378Y74738D01*
X129381Y74728D01*
X129385Y74715D01*
X129388Y74702D01*
X129392Y74688D01*
X129394Y74673D01*
X129398Y74641D01*
X129399Y74623D01*
X129400Y74606D01*
Y74605D01*
Y74602D01*
Y74597D01*
X129399Y74590D01*
Y74582D01*
X129398Y74572D01*
X129397Y74561D01*
X129395Y74549D01*
X129393Y74536D01*
X129391Y74523D01*
X129384Y74493D01*
X129374Y74464D01*
X129368Y74449D01*
X129362Y74434D01*
X129361Y74433D01*
X129360Y74431D01*
X129358Y74427D01*
X129354Y74422D01*
X129351Y74415D01*
X129346Y74408D01*
X129340Y74399D01*
X129333Y74390D01*
X129318Y74371D01*
X129299Y74351D01*
X129278Y74332D01*
X129265Y74324D01*
X129253Y74315D01*
X129252Y74314D01*
X129249Y74314D01*
X129245Y74311D01*
X129240Y74309D01*
X129233Y74306D01*
X129225Y74302D01*
X129217Y74299D01*
X129206Y74294D01*
X129195Y74291D01*
X129183Y74287D01*
X129169Y74284D01*
X129156Y74281D01*
X129126Y74276D01*
X129110Y74275D01*
X129093Y74274D01*
X129085D01*
X129078Y74275D01*
X129071Y74276D01*
X129062Y74277D01*
X129052Y74278D01*
X129040Y74279D01*
X129016Y74284D01*
X128989Y74292D01*
X128975Y74297D01*
X128962Y74303D01*
X128948Y74309D01*
X128934Y74317D01*
X128933Y74318D01*
X128931Y74319D01*
X128928Y74321D01*
X128923Y74324D01*
X128917Y74329D01*
X128909Y74334D01*
X128902Y74340D01*
X128893Y74348D01*
X128885Y74355D01*
X128876Y74364D01*
X128867Y74374D01*
X128858Y74384D01*
X128849Y74396D01*
X128841Y74408D01*
X128825Y74435D01*
X128824Y74436D01*
X128823Y74438D01*
X128822Y74443D01*
X128819Y74448D01*
X128817Y74455D01*
X128814Y74464D01*
X128810Y74473D01*
X128806Y74484D01*
X128803Y74497D01*
X128799Y74510D01*
X128796Y74523D01*
X128794Y74538D01*
X128789Y74571D01*
X128788Y74588D01*
Y74606D01*
Y74607D01*
Y74609D01*
Y74613D01*
Y74619D01*
X128788Y74626D01*
Y74634D01*
X128789Y74643D01*
X128791Y74653D01*
X128794Y74675D01*
X128798Y74699D01*
X128803Y74724D01*
X128812Y74748D01*
Y74749D01*
X128813Y74751D01*
X128814Y74754D01*
X128816Y74759D01*
X128818Y74764D01*
X128822Y74771D01*
X128830Y74785D01*
X128840Y74803D01*
X128853Y74821D01*
X128868Y74839D01*
X128884Y74858D01*
X128883Y74858D01*
X128882Y74859D01*
X128878Y74862D01*
X128874Y74864D01*
X128869Y74868D01*
X128863Y74872D01*
X128848Y74880D01*
X128832Y74890D01*
X128814Y74900D01*
X128794Y74909D01*
X128775Y74917D01*
X128801Y74975D01*
X128802D01*
X128804Y74974D01*
D02*
G37*
%LPC*%
G36*
X129093Y74864D02*
X129086D01*
X129077Y74863D01*
X129065Y74862D01*
X129053Y74860D01*
X129038Y74858D01*
X129023Y74853D01*
X129008Y74848D01*
X129008D01*
X129009Y74847D01*
X129014Y74843D01*
X129023Y74838D01*
X129033Y74833D01*
X129046Y74828D01*
X129060Y74821D01*
X129075Y74816D01*
X129092Y74811D01*
X129071Y74749D01*
X129070D01*
X129068Y74750D01*
X129063Y74752D01*
X129058Y74753D01*
X129053Y74755D01*
X129045Y74758D01*
X129037Y74761D01*
X129028Y74765D01*
X129009Y74773D01*
X128989Y74784D01*
X128969Y74797D01*
X128950Y74811D01*
X128949Y74810D01*
X128947Y74808D01*
X128943Y74803D01*
X128938Y74798D01*
X128933Y74791D01*
X128926Y74782D01*
X128919Y74772D01*
X128913Y74759D01*
X128906Y74746D01*
X128898Y74731D01*
X128893Y74714D01*
X128887Y74696D01*
X128882Y74676D01*
X128878Y74654D01*
X128876Y74631D01*
X128875Y74606D01*
Y74605D01*
Y74603D01*
Y74598D01*
Y74593D01*
X128876Y74586D01*
X128877Y74578D01*
X128878Y74569D01*
X128878Y74560D01*
X128882Y74538D01*
X128886Y74516D01*
X128893Y74493D01*
X128902Y74470D01*
Y74469D01*
X128903Y74468D01*
X128904Y74464D01*
X128907Y74460D01*
X128909Y74456D01*
X128913Y74450D01*
X128922Y74437D01*
X128933Y74423D01*
X128946Y74408D01*
X128961Y74393D01*
X128979Y74380D01*
X128980D01*
X128982Y74378D01*
X128984Y74377D01*
X128988Y74375D01*
X128993Y74373D01*
X128998Y74370D01*
X129005Y74367D01*
X129013Y74364D01*
X129029Y74358D01*
X129048Y74353D01*
X129070Y74349D01*
X129093Y74348D01*
X129103D01*
X129109Y74349D01*
X129118Y74349D01*
X129127Y74351D01*
X129138Y74354D01*
X129148Y74356D01*
X129161Y74359D01*
X129173Y74364D01*
X129187Y74368D01*
X129200Y74375D01*
X129213Y74383D01*
X129226Y74391D01*
X129238Y74401D01*
X129251Y74413D01*
X129252Y74413D01*
X129253Y74416D01*
X129257Y74419D01*
X129261Y74425D01*
X129265Y74432D01*
X129270Y74440D01*
X129276Y74450D01*
X129282Y74461D01*
X129288Y74474D01*
X129293Y74488D01*
X129298Y74504D01*
X129303Y74522D01*
X129307Y74540D01*
X129310Y74561D01*
X129312Y74583D01*
X129313Y74606D01*
Y74608D01*
Y74612D01*
X129312Y74618D01*
Y74627D01*
X129311Y74637D01*
X129309Y74649D01*
X129308Y74663D01*
X129305Y74677D01*
X129302Y74692D01*
X129298Y74708D01*
X129293Y74723D01*
X129287Y74739D01*
X129279Y74755D01*
X129271Y74770D01*
X129262Y74784D01*
X129251Y74798D01*
X129250Y74798D01*
X129248Y74800D01*
X129244Y74803D01*
X129240Y74808D01*
X129233Y74813D01*
X129226Y74818D01*
X129218Y74825D01*
X129208Y74831D01*
X129198Y74837D01*
X129185Y74843D01*
X129173Y74848D01*
X129158Y74853D01*
X129143Y74858D01*
X129128Y74862D01*
X129111Y74863D01*
X129093Y74864D01*
D02*
G37*
%LPD*%
D94*
X16541Y81294D02*
Y84214D01*
X11941Y81294D02*
X16541D01*
X11941D02*
Y84214D01*
X16541D01*
X57931Y87826D02*
X60851D01*
X57931D02*
Y92426D01*
X60851D01*
Y87826D02*
Y92426D01*
X134700Y72335D02*
Y77615D01*
X124100D02*
X134700D01*
X124100Y72335D02*
Y77615D01*
Y72335D02*
X134700D01*
X82250Y90825D02*
X85450D01*
X82250Y88325D02*
Y90825D01*
Y88325D02*
X85450D01*
Y90825D01*
X104725Y90125D02*
X107925D01*
X104725Y87625D02*
Y90125D01*
Y87625D02*
X107925D01*
Y90125D01*
X99850Y65115D02*
Y67615D01*
X96650Y65115D02*
X99850D01*
X96650D02*
Y67615D01*
X99850D01*
X169487Y20601D02*
Y21901D01*
Y20601D02*
X172387D01*
Y21901D01*
X169487D02*
X172387D01*
X168407Y20201D02*
Y22201D01*
X167157D02*
X168407D01*
X167157Y20201D02*
Y22201D01*
Y20201D02*
X168407D01*
X171787Y7026D02*
Y11926D01*
X167887Y7026D02*
X171787D01*
X167887D02*
Y11926D01*
X171787D01*
X167612Y12951D02*
Y14201D01*
X169612D01*
Y12951D02*
Y14201D01*
X167612Y12951D02*
X169612D01*
%TF.MD5,ee8a031b768bca93113d4767f83af67b*%
M02*
